<svg viewBox="0 0 1112 308" fill="none" xmlns="http://www.w3.org/2000/svg">
<path d="M121.837 268.454C121.463 268.669 121.067 268.837 120.647 268.958C120.236 269.07 119.793 269.126 119.317 269.126C118.607 269.126 117.949 269.005 117.343 268.762C116.736 268.51 116.209 268.16 115.761 267.712C115.313 267.264 114.963 266.732 114.711 266.116C114.459 265.5 114.333 264.828 114.333 264.1C114.333 263.391 114.459 262.733 114.711 262.126C114.972 261.51 115.327 260.978 115.775 260.53C116.223 260.073 116.75 259.718 117.357 259.466C117.963 259.205 118.617 259.074 119.317 259.074C119.998 259.074 120.642 259.2 121.249 259.452C121.855 259.695 122.383 260.04 122.831 260.488C123.279 260.936 123.633 261.468 123.895 262.084C124.156 262.7 124.287 263.372 124.287 264.1C124.287 264.8 124.151 265.458 123.881 266.074C123.619 266.69 123.237 267.255 122.733 267.768L123.713 268.944L122.845 269.672L121.837 268.454ZM119.317 267.936C119.615 267.936 119.914 267.899 120.213 267.824C120.511 267.74 120.796 267.609 121.067 267.432L120.227 266.424L121.039 265.71L121.935 266.788C122.252 266.461 122.499 266.074 122.677 265.626C122.863 265.169 122.957 264.66 122.957 264.1C122.957 263.531 122.859 263.013 122.663 262.546C122.476 262.07 122.219 261.664 121.893 261.328C121.566 260.992 121.179 260.731 120.731 260.544C120.292 260.357 119.821 260.264 119.317 260.264C118.803 260.264 118.323 260.357 117.875 260.544C117.436 260.731 117.049 260.992 116.713 261.328C116.386 261.664 116.129 262.07 115.943 262.546C115.756 263.013 115.663 263.531 115.663 264.1C115.663 264.669 115.756 265.192 115.943 265.668C116.129 266.135 116.386 266.536 116.713 266.872C117.049 267.208 117.436 267.469 117.875 267.656C118.323 267.843 118.803 267.936 119.317 267.936ZM128.176 259.144H128.974V269H127.798V260.642L125.264 261.804L124.816 260.754L128.176 259.144Z" fill="#777F8C"/>
<rect x="92" y="93" width="60" height="156" fill="#5FAF2D"/>
<rect x="92" y="93" width="60" height="4" fill="#3D7917"/>
<path d="M105.359 81.62H98.0317V80.532L105.529 72.1H106.787V80.175H108.997V81.62H106.787V84H105.359V81.62ZM105.359 80.175V74.48L100.072 80.175H105.359ZM109.777 85.649C109.924 85.615 110.077 85.5527 110.236 85.462C110.406 85.3713 110.559 85.258 110.695 85.122C110.831 84.986 110.938 84.8387 111.018 84.68C111.108 84.5213 111.154 84.357 111.154 84.187C111.154 84.1077 111.148 84.0453 111.137 84C111.08 84.0113 111.012 84.017 110.933 84.017C110.683 84.017 110.468 83.9377 110.287 83.779C110.117 83.6203 110.032 83.3937 110.032 83.099C110.032 82.8043 110.122 82.572 110.304 82.402C110.485 82.2207 110.74 82.13 111.069 82.13C111.431 82.13 111.726 82.2547 111.953 82.504C112.191 82.742 112.31 83.1047 112.31 83.592C112.31 84.0567 112.247 84.4533 112.123 84.782C111.998 85.1107 111.834 85.3883 111.63 85.615C111.426 85.8417 111.193 86.0173 110.933 86.142C110.672 86.278 110.406 86.38 110.134 86.448L109.777 85.649ZM120.499 81.62H113.172V80.532L120.669 72.1H121.927V80.175H124.137V81.62H121.927V84H120.499V81.62ZM120.499 80.175V74.48L115.212 80.175H120.499ZM129.711 84.153C128.68 84.153 127.796 83.9547 127.059 83.558C126.334 83.1613 125.79 82.657 125.427 82.045L126.651 81.195C127.003 81.6823 127.462 82.0563 128.028 82.317C128.606 82.5777 129.235 82.708 129.915 82.708C130.437 82.708 130.913 82.606 131.343 82.402C131.785 82.1867 132.165 81.892 132.482 81.518C132.811 81.144 133.066 80.702 133.247 80.192C133.429 79.682 133.519 79.1267 133.519 78.526C133.519 78.458 133.519 78.39 133.519 78.322C133.519 78.254 133.514 78.186 133.502 78.118C133.23 78.764 132.766 79.3023 132.108 79.733C131.462 80.1523 130.641 80.362 129.643 80.362C128.986 80.362 128.38 80.2657 127.824 80.073C127.269 79.869 126.787 79.5913 126.379 79.24C125.971 78.8773 125.654 78.4467 125.427 77.948C125.201 77.4493 125.087 76.894 125.087 76.282C125.087 75.6247 125.206 75.0297 125.444 74.497C125.694 73.953 126.039 73.494 126.481 73.12C126.923 72.746 127.45 72.457 128.062 72.253C128.686 72.049 129.371 71.947 130.119 71.947C130.879 71.947 131.559 72.0773 132.159 72.338C132.771 72.5873 133.287 72.9613 133.706 73.46C134.137 73.9587 134.466 74.5763 134.692 75.313C134.919 76.0383 135.032 76.877 135.032 77.829C135.032 78.8717 134.902 79.7897 134.641 80.583C134.392 81.365 134.029 82.0223 133.553 82.555C133.089 83.0763 132.528 83.473 131.87 83.745C131.224 84.017 130.505 84.153 129.711 84.153ZM129.915 78.917C130.403 78.917 130.845 78.849 131.241 78.713C131.638 78.577 131.972 78.39 132.244 78.152C132.528 77.9027 132.743 77.6137 132.89 77.285C133.038 76.9563 133.111 76.605 133.111 76.231C133.111 75.8683 133.055 75.517 132.941 75.177C132.828 74.837 132.647 74.5367 132.397 74.276C132.148 74.004 131.819 73.7887 131.411 73.63C131.015 73.4713 130.527 73.392 129.949 73.392C128.895 73.392 128.068 73.63 127.467 74.106C126.878 74.5707 126.583 75.2563 126.583 76.163C126.583 77.0243 126.884 77.6987 127.484 78.186C128.085 78.6733 128.895 78.917 129.915 78.917ZM136.596 75.585C136.698 75.0977 136.868 74.633 137.106 74.191C137.344 73.749 137.65 73.3637 138.024 73.035C138.398 72.695 138.846 72.4287 139.367 72.236C139.888 72.0433 140.483 71.947 141.152 71.947C141.775 71.947 142.331 72.0377 142.818 72.219C143.305 72.389 143.719 72.6327 144.059 72.95C144.399 73.2673 144.654 73.647 144.824 74.089C145.005 74.531 145.096 75.0127 145.096 75.534C145.096 76.2707 144.937 76.9507 144.62 77.574C144.314 78.186 143.923 78.747 143.447 79.257C142.971 79.767 142.45 80.2317 141.883 80.651C141.316 81.059 140.778 81.4217 140.268 81.739L138.959 82.555H145.538V84H136.273V82.81L138.857 81.093C139.707 80.5263 140.432 80.005 141.033 79.529C141.634 79.0417 142.121 78.5827 142.495 78.152C142.88 77.7213 143.158 77.3077 143.328 76.911C143.509 76.503 143.6 76.095 143.6 75.687C143.6 75.2677 143.532 74.9107 143.396 74.616C143.271 74.3213 143.09 74.0833 142.852 73.902C142.625 73.7207 142.353 73.5903 142.036 73.511C141.73 73.4317 141.401 73.392 141.05 73.392C140.54 73.392 140.098 73.4713 139.724 73.63C139.361 73.7887 139.05 73.9983 138.789 74.259C138.54 74.5083 138.341 74.7917 138.194 75.109C138.058 75.415 137.967 75.721 137.922 76.027L136.596 75.585Z" fill="#222429"/>
<path d="M246.312 268.454C245.939 268.669 245.542 268.837 245.122 268.958C244.712 269.07 244.268 269.126 243.792 269.126C243.083 269.126 242.425 269.005 241.818 268.762C241.212 268.51 240.684 268.16 240.236 267.712C239.788 267.264 239.438 266.732 239.186 266.116C238.934 265.5 238.808 264.828 238.808 264.1C238.808 263.391 238.934 262.733 239.186 262.126C239.448 261.51 239.802 260.978 240.25 260.53C240.698 260.073 241.226 259.718 241.832 259.466C242.439 259.205 243.092 259.074 243.792 259.074C244.474 259.074 245.118 259.2 245.724 259.452C246.331 259.695 246.858 260.04 247.306 260.488C247.754 260.936 248.109 261.468 248.37 262.084C248.632 262.7 248.762 263.372 248.762 264.1C248.762 264.8 248.627 265.458 248.356 266.074C248.095 266.69 247.712 267.255 247.208 267.768L248.188 268.944L247.32 269.672L246.312 268.454ZM243.792 267.936C244.091 267.936 244.39 267.899 244.688 267.824C244.987 267.74 245.272 267.609 245.542 267.432L244.702 266.424L245.514 265.71L246.41 266.788C246.728 266.461 246.975 266.074 247.152 265.626C247.339 265.169 247.432 264.66 247.432 264.1C247.432 263.531 247.334 263.013 247.138 262.546C246.952 262.07 246.695 261.664 246.368 261.328C246.042 260.992 245.654 260.731 245.206 260.544C244.768 260.357 244.296 260.264 243.792 260.264C243.279 260.264 242.798 260.357 242.35 260.544C241.912 260.731 241.524 260.992 241.188 261.328C240.862 261.664 240.605 262.07 240.418 262.546C240.232 263.013 240.138 263.531 240.138 264.1C240.138 264.669 240.232 265.192 240.418 265.668C240.605 266.135 240.862 266.536 241.188 266.872C241.524 267.208 241.912 267.469 242.35 267.656C242.798 267.843 243.279 267.936 243.792 267.936ZM249.949 262.07C250.033 261.669 250.173 261.286 250.369 260.922C250.565 260.558 250.817 260.241 251.125 259.97C251.433 259.69 251.802 259.471 252.231 259.312C252.661 259.153 253.151 259.074 253.701 259.074C254.215 259.074 254.672 259.149 255.073 259.298C255.475 259.438 255.815 259.639 256.095 259.9C256.375 260.161 256.585 260.474 256.725 260.838C256.875 261.202 256.949 261.599 256.949 262.028C256.949 262.635 256.819 263.195 256.557 263.708C256.305 264.212 255.983 264.674 255.591 265.094C255.199 265.514 254.77 265.897 254.303 266.242C253.837 266.578 253.393 266.877 252.973 267.138L251.895 267.81H257.313V269H249.683V268.02L251.811 266.606C252.511 266.139 253.109 265.71 253.603 265.318C254.098 264.917 254.499 264.539 254.807 264.184C255.125 263.829 255.353 263.489 255.493 263.162C255.643 262.826 255.717 262.49 255.717 262.154C255.717 261.809 255.661 261.515 255.549 261.272C255.447 261.029 255.297 260.833 255.101 260.684C254.915 260.535 254.691 260.427 254.429 260.362C254.177 260.297 253.907 260.264 253.617 260.264C253.197 260.264 252.833 260.329 252.525 260.46C252.227 260.591 251.97 260.763 251.755 260.978C251.55 261.183 251.387 261.417 251.265 261.678C251.153 261.93 251.079 262.182 251.041 262.434L249.949 262.07Z" fill="#777F8C"/>
<rect x="218" y="102" width="60" height="147" fill="#5FAF2D"/>
<rect x="218" y="102" width="60" height="4" fill="#3D7917"/>
<path d="M231.741 90.62H224.414V89.532L231.911 81.1H233.169V89.175H235.379V90.62H233.169V93H231.741V90.62ZM231.741 89.175V83.48L226.454 89.175H231.741ZM236.158 94.649C236.306 94.615 236.459 94.5527 236.617 94.462C236.787 94.3713 236.94 94.258 237.076 94.122C237.212 93.986 237.32 93.8387 237.399 93.68C237.49 93.5213 237.535 93.357 237.535 93.187C237.535 93.1077 237.53 93.0453 237.518 93C237.462 93.0113 237.394 93.017 237.314 93.017C237.065 93.017 236.85 92.9377 236.668 92.779C236.498 92.6203 236.413 92.3937 236.413 92.099C236.413 91.8043 236.504 91.572 236.685 91.402C236.867 91.2207 237.122 91.13 237.45 91.13C237.813 91.13 238.108 91.2547 238.334 91.504C238.572 91.742 238.691 92.1047 238.691 92.592C238.691 93.0567 238.629 93.4533 238.504 93.782C238.38 94.1107 238.215 94.3883 238.011 94.615C237.807 94.8417 237.575 95.0173 237.314 95.142C237.054 95.278 236.787 95.38 236.515 95.448L236.158 94.649ZM240.217 84.585C240.319 84.0977 240.489 83.633 240.727 83.191C240.965 82.749 241.271 82.3637 241.645 82.035C242.019 81.695 242.467 81.4287 242.988 81.236C243.51 81.0433 244.105 80.947 244.773 80.947C245.397 80.947 245.952 81.0377 246.439 81.219C246.927 81.389 247.34 81.6327 247.68 81.95C248.02 82.2673 248.275 82.647 248.445 83.089C248.627 83.531 248.717 84.0127 248.717 84.534C248.717 85.2707 248.559 85.9507 248.241 86.574C247.935 87.186 247.544 87.747 247.068 88.257C246.592 88.767 246.071 89.2317 245.504 89.651C244.938 90.059 244.399 90.4217 243.889 90.739L242.58 91.555H249.159V93H239.894V91.81L242.478 90.093C243.328 89.5263 244.054 89.005 244.654 88.529C245.255 88.0417 245.742 87.5827 246.116 87.152C246.502 86.7213 246.779 86.3077 246.949 85.911C247.131 85.503 247.221 85.095 247.221 84.687C247.221 84.2677 247.153 83.9107 247.017 83.616C246.893 83.3213 246.711 83.0833 246.473 82.902C246.247 82.7207 245.975 82.5903 245.657 82.511C245.351 82.4317 245.023 82.392 244.671 82.392C244.161 82.392 243.719 82.4713 243.345 82.63C242.983 82.7887 242.671 82.9983 242.41 83.259C242.161 83.5083 241.963 83.7917 241.815 84.109C241.679 84.415 241.589 84.721 241.543 85.027L240.217 84.585ZM251.714 81.1H259.194V82.545H253.023L252.581 85.741C252.842 85.5483 253.193 85.3897 253.635 85.265C254.089 85.129 254.638 85.061 255.284 85.061C255.998 85.061 256.633 85.163 257.188 85.367C257.744 85.571 258.208 85.8543 258.582 86.217C258.956 86.5797 259.24 87.0047 259.432 87.492C259.636 87.9793 259.738 88.5007 259.738 89.056C259.738 89.6567 259.619 90.2063 259.381 90.705C259.155 91.2037 258.832 91.6343 258.412 91.997C258.004 92.3597 257.517 92.643 256.95 92.847C256.395 93.051 255.789 93.153 255.131 93.153C254.587 93.153 254.066 93.0907 253.567 92.966C253.069 92.8413 252.604 92.6543 252.173 92.405C251.754 92.1557 251.38 91.8553 251.051 91.504C250.734 91.1413 250.479 90.722 250.286 90.246L251.646 89.668C251.76 89.9287 251.918 90.1837 252.122 90.433C252.326 90.671 252.576 90.8863 252.87 91.079C253.165 91.2717 253.499 91.4247 253.873 91.538C254.247 91.6513 254.667 91.708 255.131 91.708C255.653 91.708 256.106 91.64 256.491 91.504C256.888 91.3567 257.217 91.164 257.477 90.926C257.738 90.688 257.931 90.416 258.055 90.11C258.18 89.7927 258.242 89.4583 258.242 89.107C258.242 88.3023 257.942 87.6677 257.341 87.203C256.752 86.7383 255.93 86.506 254.876 86.506C254.276 86.506 253.771 86.591 253.363 86.761C252.967 86.9197 252.593 87.1747 252.241 87.526L251.017 87.203L251.714 81.1ZM266.401 93.153C265.607 93.153 264.888 93.0283 264.242 92.779C263.607 92.5297 263.063 92.1613 262.61 91.674C262.156 91.1753 261.805 90.569 261.556 89.855C261.318 89.141 261.199 88.3137 261.199 87.373C261.199 86.3077 261.34 85.3727 261.624 84.568C261.907 83.7633 262.287 83.0947 262.763 82.562C263.25 82.018 263.811 81.6157 264.446 81.355C265.092 81.083 265.772 80.947 266.486 80.947C267.517 80.947 268.395 81.1567 269.121 81.576C269.846 81.9953 270.373 82.562 270.702 83.276L269.546 84.058C269.217 83.548 268.792 83.1457 268.271 82.851C267.761 82.545 267.143 82.392 266.418 82.392C265.851 82.392 265.341 82.5053 264.888 82.732C264.434 82.9473 264.043 83.2647 263.715 83.684C263.386 84.092 263.131 84.5907 262.95 85.18C262.768 85.758 262.672 86.4097 262.661 87.135V87.322C262.819 86.948 263.035 86.6193 263.307 86.336C263.59 86.0527 263.907 85.8147 264.259 85.622C264.61 85.4293 264.984 85.2877 265.381 85.197C265.789 85.095 266.202 85.044 266.622 85.044C267.313 85.044 267.936 85.1403 268.492 85.333C269.047 85.5257 269.517 85.7977 269.903 86.149C270.299 86.5003 270.6 86.9197 270.804 87.407C271.008 87.8943 271.11 88.4327 271.11 89.022C271.11 89.634 270.985 90.195 270.736 90.705C270.498 91.215 270.163 91.6513 269.733 92.014C269.313 92.3767 268.815 92.66 268.237 92.864C267.67 93.0567 267.058 93.153 266.401 93.153ZM266.384 91.708C266.86 91.708 267.29 91.6457 267.676 91.521C268.072 91.3963 268.412 91.2207 268.696 90.994C268.99 90.756 269.217 90.4783 269.376 90.161C269.534 89.8437 269.614 89.4867 269.614 89.09C269.614 88.6593 269.534 88.2853 269.376 87.968C269.228 87.6393 269.019 87.3673 268.747 87.152C268.475 86.9253 268.146 86.761 267.761 86.659C267.387 86.5457 266.979 86.489 266.537 86.489C265.449 86.489 264.621 86.7213 264.055 87.186C263.499 87.6507 263.222 88.2457 263.222 88.971C263.222 89.345 263.295 89.6963 263.443 90.025C263.59 90.3537 263.8 90.6427 264.072 90.892C264.344 91.1413 264.672 91.3397 265.058 91.487C265.454 91.6343 265.896 91.708 266.384 91.708Z" fill="#222429"/>
<path d="M372.278 268.454C371.905 268.669 371.508 268.837 371.088 268.958C370.678 269.07 370.234 269.126 369.758 269.126C369.049 269.126 368.391 269.005 367.784 268.762C367.178 268.51 366.65 268.16 366.202 267.712C365.754 267.264 365.404 266.732 365.152 266.116C364.9 265.5 364.774 264.828 364.774 264.1C364.774 263.391 364.9 262.733 365.152 262.126C365.414 261.51 365.768 260.978 366.216 260.53C366.664 260.073 367.192 259.718 367.798 259.466C368.405 259.205 369.058 259.074 369.758 259.074C370.44 259.074 371.084 259.2 371.69 259.452C372.297 259.695 372.824 260.04 373.272 260.488C373.72 260.936 374.075 261.468 374.336 262.084C374.598 262.7 374.728 263.372 374.728 264.1C374.728 264.8 374.593 265.458 374.322 266.074C374.061 266.69 373.678 267.255 373.174 267.768L374.154 268.944L373.286 269.672L372.278 268.454ZM369.758 267.936C370.057 267.936 370.356 267.899 370.654 267.824C370.953 267.74 371.238 267.609 371.508 267.432L370.668 266.424L371.48 265.71L372.376 266.788C372.694 266.461 372.941 266.074 373.118 265.626C373.305 265.169 373.398 264.66 373.398 264.1C373.398 263.531 373.3 263.013 373.104 262.546C372.918 262.07 372.661 261.664 372.334 261.328C372.008 260.992 371.62 260.731 371.172 260.544C370.734 260.357 370.262 260.264 369.758 260.264C369.245 260.264 368.764 260.357 368.316 260.544C367.878 260.731 367.49 260.992 367.154 261.328C366.828 261.664 366.571 262.07 366.384 262.546C366.198 263.013 366.104 263.531 366.104 264.1C366.104 264.669 366.198 265.192 366.384 265.668C366.571 266.135 366.828 266.536 367.154 266.872C367.49 267.208 367.878 267.469 368.316 267.656C368.764 267.843 369.245 267.936 369.758 267.936ZM375.733 261.58C375.864 261.216 376.041 260.885 376.265 260.586C376.489 260.278 376.76 260.012 377.077 259.788C377.404 259.564 377.777 259.391 378.197 259.27C378.626 259.139 379.107 259.074 379.639 259.074C380.115 259.074 380.554 259.135 380.955 259.256C381.366 259.368 381.716 259.531 382.005 259.746C382.304 259.951 382.532 260.208 382.691 260.516C382.859 260.824 382.943 261.165 382.943 261.538C382.943 262.107 382.794 262.593 382.495 262.994C382.206 263.395 381.781 263.675 381.221 263.834C381.464 263.853 381.702 263.913 381.935 264.016C382.168 264.109 382.374 264.254 382.551 264.45C382.738 264.637 382.887 264.875 382.999 265.164C383.111 265.444 383.167 265.78 383.167 266.172C383.167 266.648 383.074 267.073 382.887 267.446C382.71 267.81 382.458 268.118 382.131 268.37C381.814 268.613 381.436 268.799 380.997 268.93C380.558 269.061 380.087 269.126 379.583 269.126C379.032 269.126 378.528 269.061 378.071 268.93C377.623 268.799 377.226 268.622 376.881 268.398C376.536 268.165 376.242 267.889 375.999 267.572C375.766 267.245 375.588 266.886 375.467 266.494L376.601 266.004C376.722 266.256 376.867 266.499 377.035 266.732C377.203 266.965 377.408 267.171 377.651 267.348C377.894 267.525 378.178 267.67 378.505 267.782C378.832 267.885 379.219 267.936 379.667 267.936C380.367 267.936 380.918 267.787 381.319 267.488C381.73 267.18 381.935 266.746 381.935 266.186C381.935 265.878 381.87 265.621 381.739 265.416C381.608 265.201 381.426 265.033 381.193 264.912C380.96 264.781 380.684 264.693 380.367 264.646C380.059 264.59 379.723 264.562 379.359 264.562H378.267V263.4H379.135C379.947 263.4 380.577 263.246 381.025 262.938C381.482 262.63 381.711 262.243 381.711 261.776C381.711 261.272 381.52 260.894 381.137 260.642C380.754 260.39 380.236 260.264 379.583 260.264C379.182 260.264 378.827 260.315 378.519 260.418C378.211 260.521 377.94 260.656 377.707 260.824C377.483 260.992 377.292 261.183 377.133 261.398C376.984 261.613 376.867 261.832 376.783 262.056L375.733 261.58Z" fill="#777F8C"/>
<rect x="344" y="102" width="60" height="147" fill="#5FAF2D"/>
<rect x="344" y="102" width="60" height="4" fill="#3D7917"/>
<path d="M359.251 90.62H351.924V89.532L359.421 81.1H360.679V89.175H362.889V90.62H360.679V93H359.251V90.62ZM359.251 89.175V83.48L353.964 89.175H359.251ZM363.669 94.649C363.817 94.615 363.97 94.5527 364.128 94.462C364.298 94.3713 364.451 94.258 364.587 94.122C364.723 93.986 364.831 93.8387 364.91 93.68C365.001 93.5213 365.046 93.357 365.046 93.187C365.046 93.1077 365.041 93.0453 365.029 93C364.973 93.0113 364.905 93.017 364.825 93.017C364.576 93.017 364.361 92.9377 364.179 92.779C364.009 92.6203 363.924 92.3937 363.924 92.099C363.924 91.8043 364.015 91.572 364.196 91.402C364.378 91.2207 364.633 91.13 364.961 91.13C365.324 91.13 365.619 91.2547 365.845 91.504C366.083 91.742 366.202 92.1047 366.202 92.592C366.202 93.0567 366.14 93.4533 366.015 93.782C365.891 94.1107 365.726 94.3883 365.522 94.615C365.318 94.8417 365.086 95.0173 364.825 95.142C364.565 95.278 364.298 95.38 364.026 95.448L363.669 94.649ZM371.009 81.032H371.978V93H370.55V82.851L367.473 84.262L366.929 82.987L371.009 81.032ZM379.535 86.217C379.92 86.217 380.277 86.1717 380.606 86.081C380.946 85.979 381.241 85.843 381.49 85.673C381.739 85.503 381.932 85.299 382.068 85.061C382.215 84.823 382.289 84.5623 382.289 84.279C382.289 83.667 382.034 83.2023 381.524 82.885C381.025 82.5563 380.26 82.392 379.229 82.392C378.232 82.392 377.478 82.5563 376.968 82.885C376.469 83.2137 376.22 83.6783 376.22 84.279C376.22 84.551 376.288 84.806 376.424 85.044C376.56 85.282 376.747 85.4917 376.985 85.673C377.234 85.843 377.529 85.979 377.869 86.081C378.22 86.1717 378.6 86.217 379.008 86.217H379.535ZM379.076 87.56C378.6 87.56 378.158 87.6167 377.75 87.73C377.353 87.832 377.013 87.9793 376.73 88.172C376.447 88.3533 376.226 88.5743 376.067 88.835C375.908 89.0843 375.829 89.3507 375.829 89.634C375.829 90.246 376.112 90.7447 376.679 91.13C377.257 91.5153 378.113 91.708 379.246 91.708C380.413 91.708 381.275 91.5267 381.83 91.164C382.385 90.79 382.663 90.2857 382.663 89.651C382.663 88.9823 382.374 88.4667 381.796 88.104C381.229 87.7413 380.464 87.56 379.501 87.56H379.076ZM379.263 93.153C378.504 93.153 377.818 93.0793 377.206 92.932C376.605 92.7733 376.09 92.5523 375.659 92.269C375.24 91.9743 374.911 91.623 374.673 91.215C374.446 90.7957 374.333 90.3197 374.333 89.787C374.333 89.0843 374.543 88.478 374.962 87.968C375.393 87.4467 375.965 87.0727 376.679 86.846C376.339 86.7327 376.044 86.5853 375.795 86.404C375.546 86.2113 375.342 85.996 375.183 85.758C375.024 85.52 374.905 85.2707 374.826 85.01C374.758 84.738 374.724 84.4603 374.724 84.177C374.724 83.191 375.109 82.409 375.88 81.831C376.662 81.2417 377.784 80.947 379.246 80.947C380.719 80.947 381.841 81.2417 382.612 81.831C383.394 82.409 383.785 83.191 383.785 84.177C383.785 84.789 383.615 85.3047 383.275 85.724C382.946 86.1433 382.487 86.489 381.898 86.761C382.714 87.0103 383.292 87.3843 383.632 87.883C383.983 88.3817 384.159 88.9937 384.159 89.719C384.159 90.263 384.046 90.7503 383.819 91.181C383.592 91.6003 383.264 91.9573 382.833 92.252C382.414 92.5467 381.898 92.7733 381.286 92.932C380.685 93.0793 380.011 93.153 379.263 93.153ZM390.874 86.217C391.259 86.217 391.616 86.1717 391.945 86.081C392.285 85.979 392.579 85.843 392.829 85.673C393.078 85.503 393.271 85.299 393.407 85.061C393.554 84.823 393.628 84.5623 393.628 84.279C393.628 83.667 393.373 83.2023 392.863 82.885C392.364 82.5563 391.599 82.392 390.568 82.392C389.57 82.392 388.817 82.5563 388.307 82.885C387.808 83.2137 387.559 83.6783 387.559 84.279C387.559 84.551 387.627 84.806 387.763 85.044C387.899 85.282 388.086 85.4917 388.324 85.673C388.573 85.843 388.868 85.979 389.208 86.081C389.559 86.1717 389.939 86.217 390.347 86.217H390.874ZM390.415 87.56C389.939 87.56 389.497 87.6167 389.089 87.73C388.692 87.832 388.352 87.9793 388.069 88.172C387.785 88.3533 387.564 88.5743 387.406 88.835C387.247 89.0843 387.168 89.3507 387.168 89.634C387.168 90.246 387.451 90.7447 388.018 91.13C388.596 91.5153 389.451 91.708 390.585 91.708C391.752 91.708 392.613 91.5267 393.169 91.164C393.724 90.79 394.002 90.2857 394.002 89.651C394.002 88.9823 393.713 88.4667 393.135 88.104C392.568 87.7413 391.803 87.56 390.84 87.56H390.415ZM390.602 93.153C389.842 93.153 389.157 93.0793 388.545 92.932C387.944 92.7733 387.428 92.5523 386.998 92.269C386.578 91.9743 386.25 91.623 386.012 91.215C385.785 90.7957 385.672 90.3197 385.672 89.787C385.672 89.0843 385.881 88.478 386.301 87.968C386.731 87.4467 387.304 87.0727 388.018 86.846C387.678 86.7327 387.383 86.5853 387.134 86.404C386.884 86.2113 386.68 85.996 386.522 85.758C386.363 85.52 386.244 85.2707 386.165 85.01C386.097 84.738 386.063 84.4603 386.063 84.177C386.063 83.191 386.448 82.409 387.219 81.831C388.001 81.2417 389.123 80.947 390.585 80.947C392.058 80.947 393.18 81.2417 393.951 81.831C394.733 82.409 395.124 83.191 395.124 84.177C395.124 84.789 394.954 85.3047 394.614 85.724C394.285 86.1433 393.826 86.489 393.237 86.761C394.053 87.0103 394.631 87.3843 394.971 87.883C395.322 88.3817 395.498 88.9937 395.498 89.719C395.498 90.263 395.384 90.7503 395.158 91.181C394.931 91.6003 394.602 91.9573 394.172 92.252C393.752 92.5467 393.237 92.7733 392.625 92.932C392.024 93.0793 391.35 93.153 390.602 93.153Z" fill="#222429"/>
<path d="M497.895 268.454C497.522 268.669 497.125 268.837 496.705 268.958C496.295 269.07 495.851 269.126 495.375 269.126C494.666 269.126 494.008 269.005 493.401 268.762C492.795 268.51 492.267 268.16 491.819 267.712C491.371 267.264 491.021 266.732 490.769 266.116C490.517 265.5 490.391 264.828 490.391 264.1C490.391 263.391 490.517 262.733 490.769 262.126C491.031 261.51 491.385 260.978 491.833 260.53C492.281 260.073 492.809 259.718 493.415 259.466C494.022 259.205 494.675 259.074 495.375 259.074C496.057 259.074 496.701 259.2 497.307 259.452C497.914 259.695 498.441 260.04 498.889 260.488C499.337 260.936 499.692 261.468 499.953 262.084C500.215 262.7 500.345 263.372 500.345 264.1C500.345 264.8 500.21 265.458 499.939 266.074C499.678 266.69 499.295 267.255 498.791 267.768L499.771 268.944L498.903 269.672L497.895 268.454ZM495.375 267.936C495.674 267.936 495.973 267.899 496.271 267.824C496.57 267.74 496.855 267.609 497.125 267.432L496.285 266.424L497.097 265.71L497.993 266.788C498.311 266.461 498.558 266.074 498.735 265.626C498.922 265.169 499.015 264.66 499.015 264.1C499.015 263.531 498.917 263.013 498.721 262.546C498.535 262.07 498.278 261.664 497.951 261.328C497.625 260.992 497.237 260.731 496.789 260.544C496.351 260.357 495.879 260.264 495.375 260.264C494.862 260.264 494.381 260.357 493.933 260.544C493.495 260.731 493.107 260.992 492.771 261.328C492.445 261.664 492.188 262.07 492.001 262.546C491.815 263.013 491.721 263.531 491.721 264.1C491.721 264.669 491.815 265.192 492.001 265.668C492.188 266.135 492.445 266.536 492.771 266.872C493.107 267.208 493.495 267.469 493.933 267.656C494.381 267.843 494.862 267.936 495.375 267.936ZM507.02 267.04H500.986V266.144L507.16 259.2H508.196V265.85H510.016V267.04H508.196V269H507.02V267.04ZM507.02 265.85V261.16L502.666 265.85H507.02Z" fill="#777F8C"/>
<rect x="470" y="49" width="60" height="200" fill="#5FAF2D"/>
<rect x="470" y="49" width="60" height="4" fill="#3D7917"/>
<path d="M478.878 28.1H486.358V29.545H480.187L479.745 32.741C480.006 32.5483 480.357 32.3897 480.799 32.265C481.253 32.129 481.802 32.061 482.448 32.061C483.162 32.061 483.797 32.163 484.352 32.367C484.908 32.571 485.372 32.8543 485.746 33.217C486.12 33.5797 486.404 34.0047 486.596 34.492C486.8 34.9793 486.902 35.5007 486.902 36.056C486.902 36.6567 486.783 37.2063 486.545 37.705C486.319 38.2037 485.996 38.6343 485.576 38.997C485.168 39.3597 484.681 39.643 484.114 39.847C483.559 40.051 482.953 40.153 482.295 40.153C481.751 40.153 481.23 40.0907 480.731 39.966C480.233 39.8413 479.768 39.6543 479.337 39.405C478.918 39.1557 478.544 38.8553 478.215 38.504C477.898 38.1413 477.643 37.722 477.45 37.246L478.81 36.668C478.924 36.9287 479.082 37.1837 479.286 37.433C479.49 37.671 479.74 37.8863 480.034 38.079C480.329 38.2717 480.663 38.4247 481.037 38.538C481.411 38.6513 481.831 38.708 482.295 38.708C482.817 38.708 483.27 38.64 483.655 38.504C484.052 38.3567 484.381 38.164 484.641 37.926C484.902 37.688 485.095 37.416 485.219 37.11C485.344 36.7927 485.406 36.4583 485.406 36.107C485.406 35.3023 485.106 34.6677 484.505 34.203C483.916 33.7383 483.094 33.506 482.04 33.506C481.44 33.506 480.935 33.591 480.527 33.761C480.131 33.9197 479.757 34.1747 479.405 34.526L478.181 34.203L478.878 28.1ZM488.142 41.649C488.289 41.615 488.442 41.5527 488.601 41.462C488.771 41.3713 488.924 41.258 489.06 41.122C489.196 40.986 489.304 40.8387 489.383 40.68C489.474 40.5213 489.519 40.357 489.519 40.187C489.519 40.1077 489.513 40.0453 489.502 40C489.445 40.0113 489.377 40.017 489.298 40.017C489.049 40.017 488.833 39.9377 488.652 39.779C488.482 39.6203 488.397 39.3937 488.397 39.099C488.397 38.8043 488.488 38.572 488.669 38.402C488.85 38.2207 489.105 38.13 489.434 38.13C489.797 38.13 490.091 38.2547 490.318 38.504C490.556 38.742 490.675 39.1047 490.675 39.592C490.675 40.0567 490.613 40.4533 490.488 40.782C490.363 41.1107 490.199 41.3883 489.995 41.615C489.791 41.8417 489.559 42.0173 489.298 42.142C489.037 42.278 488.771 42.38 488.499 42.448L488.142 41.649ZM491.691 28.1H500.718V29.069L494.802 40H493.187L498.899 29.545H491.691V28.1ZM506.996 40.153C506.202 40.153 505.483 40.0283 504.837 39.779C504.202 39.5297 503.658 39.1613 503.205 38.674C502.751 38.1753 502.4 37.569 502.151 36.855C501.913 36.141 501.794 35.3137 501.794 34.373C501.794 33.3077 501.935 32.3727 502.219 31.568C502.502 30.7633 502.882 30.0947 503.358 29.562C503.845 29.018 504.406 28.6157 505.041 28.355C505.687 28.083 506.367 27.947 507.081 27.947C508.112 27.947 508.99 28.1567 509.716 28.576C510.441 28.9953 510.968 29.562 511.297 30.276L510.141 31.058C509.812 30.548 509.387 30.1457 508.866 29.851C508.356 29.545 507.738 29.392 507.013 29.392C506.446 29.392 505.936 29.5053 505.483 29.732C505.029 29.9473 504.638 30.2647 504.31 30.684C503.981 31.092 503.726 31.5907 503.545 32.18C503.363 32.758 503.267 33.4097 503.256 34.135V34.322C503.414 33.948 503.63 33.6193 503.902 33.336C504.185 33.0527 504.502 32.8147 504.854 32.622C505.205 32.4293 505.579 32.2877 505.976 32.197C506.384 32.095 506.797 32.044 507.217 32.044C507.908 32.044 508.531 32.1403 509.087 32.333C509.642 32.5257 510.112 32.7977 510.498 33.149C510.894 33.5003 511.195 33.9197 511.399 34.407C511.603 34.8943 511.705 35.4327 511.705 36.022C511.705 36.634 511.58 37.195 511.331 37.705C511.093 38.215 510.758 38.6513 510.328 39.014C509.908 39.3767 509.41 39.66 508.832 39.864C508.265 40.0567 507.653 40.153 506.996 40.153ZM506.979 38.708C507.455 38.708 507.885 38.6457 508.271 38.521C508.667 38.3963 509.007 38.2207 509.291 37.994C509.585 37.756 509.812 37.4783 509.971 37.161C510.129 36.8437 510.209 36.4867 510.209 36.09C510.209 35.6593 510.129 35.2853 509.971 34.968C509.823 34.6393 509.614 34.3673 509.342 34.152C509.07 33.9253 508.741 33.761 508.356 33.659C507.982 33.5457 507.574 33.489 507.132 33.489C506.044 33.489 505.216 33.7213 504.65 34.186C504.094 34.6507 503.817 35.2457 503.817 35.971C503.817 36.345 503.89 36.6963 504.038 37.025C504.185 37.3537 504.395 37.6427 504.667 37.892C504.939 38.1413 505.267 38.3397 505.653 38.487C506.049 38.6343 506.491 38.708 506.979 38.708ZM514.306 28.1H521.786V29.545H515.615L515.173 32.741C515.434 32.5483 515.785 32.3897 516.227 32.265C516.68 32.129 517.23 32.061 517.876 32.061C518.59 32.061 519.225 32.163 519.78 32.367C520.335 32.571 520.8 32.8543 521.174 33.217C521.548 33.5797 521.831 34.0047 522.024 34.492C522.228 34.9793 522.33 35.5007 522.33 36.056C522.33 36.6567 522.211 37.2063 521.973 37.705C521.746 38.2037 521.423 38.6343 521.004 38.997C520.596 39.3597 520.109 39.643 519.542 39.847C518.987 40.051 518.38 40.153 517.723 40.153C517.179 40.153 516.658 40.0907 516.159 39.966C515.66 39.8413 515.196 39.6543 514.765 39.405C514.346 39.1557 513.972 38.8553 513.643 38.504C513.326 38.1413 513.071 37.722 512.878 37.246L514.238 36.668C514.351 36.9287 514.51 37.1837 514.714 37.433C514.918 37.671 515.167 37.8863 515.462 38.079C515.757 38.2717 516.091 38.4247 516.465 38.538C516.839 38.6513 517.258 38.708 517.723 38.708C518.244 38.708 518.698 38.64 519.083 38.504C519.48 38.3567 519.808 38.164 520.069 37.926C520.33 37.688 520.522 37.416 520.647 37.11C520.772 36.7927 520.834 36.4583 520.834 36.107C520.834 35.3023 520.534 34.6677 519.933 34.203C519.344 33.7383 518.522 33.506 517.468 33.506C516.867 33.506 516.363 33.591 515.955 33.761C515.558 33.9197 515.184 34.1747 514.833 34.526L513.609 34.203L514.306 28.1Z" fill="#222429"/>
<path d="M625.837 268.454C625.463 268.669 625.067 268.837 624.647 268.958C624.236 269.07 623.793 269.126 623.317 269.126C622.607 269.126 621.949 269.005 621.343 268.762C620.736 268.51 620.209 268.16 619.761 267.712C619.313 267.264 618.963 266.732 618.711 266.116C618.459 265.5 618.333 264.828 618.333 264.1C618.333 263.391 618.459 262.733 618.711 262.126C618.972 261.51 619.327 260.978 619.775 260.53C620.223 260.073 620.75 259.718 621.357 259.466C621.963 259.205 622.617 259.074 623.317 259.074C623.998 259.074 624.642 259.2 625.249 259.452C625.855 259.695 626.383 260.04 626.831 260.488C627.279 260.936 627.633 261.468 627.895 262.084C628.156 262.7 628.287 263.372 628.287 264.1C628.287 264.8 628.151 265.458 627.881 266.074C627.619 266.69 627.237 267.255 626.733 267.768L627.713 268.944L626.845 269.672L625.837 268.454ZM623.317 267.936C623.615 267.936 623.914 267.899 624.213 267.824C624.511 267.74 624.796 267.609 625.067 267.432L624.227 266.424L625.039 265.71L625.935 266.788C626.252 266.461 626.499 266.074 626.677 265.626C626.863 265.169 626.957 264.66 626.957 264.1C626.957 263.531 626.859 263.013 626.663 262.546C626.476 262.07 626.219 261.664 625.893 261.328C625.566 260.992 625.179 260.731 624.731 260.544C624.292 260.357 623.821 260.264 623.317 260.264C622.803 260.264 622.323 260.357 621.875 260.544C621.436 260.731 621.049 260.992 620.713 261.328C620.386 261.664 620.129 262.07 619.943 262.546C619.756 263.013 619.663 263.531 619.663 264.1C619.663 264.669 619.756 265.192 619.943 265.668C620.129 266.135 620.386 266.536 620.713 266.872C621.049 267.208 621.436 267.469 621.875 267.656C622.323 267.843 622.803 267.936 623.317 267.936ZM632.176 259.144H632.974V269H631.798V260.642L629.264 261.804L628.816 260.754L632.176 259.144Z" fill="#777F8C"/>
<rect x="596" y="22" width="60" height="227" fill="#5FAF2D"/>
<rect x="596" y="22" width="60" height="4" fill="#3D7917"/>
<path d="M610.052 13.153C609.259 13.153 608.539 13.0283 607.893 12.779C607.258 12.5297 606.714 12.1613 606.261 11.674C605.808 11.1753 605.456 10.569 605.207 9.855C604.969 9.141 604.85 8.31367 604.85 7.373C604.85 6.30767 604.992 5.37267 605.275 4.568C605.558 3.76333 605.938 3.09467 606.414 2.562C606.901 2.018 607.462 1.61567 608.097 1.355C608.743 1.083 609.423 0.946999 610.137 0.946999C611.168 0.946999 612.047 1.15667 612.772 1.576C613.497 1.99533 614.024 2.562 614.353 3.276L613.197 4.058C612.868 3.548 612.443 3.14567 611.922 2.851C611.412 2.545 610.794 2.392 610.069 2.392C609.502 2.392 608.992 2.50533 608.539 2.732C608.086 2.94733 607.695 3.26467 607.366 3.684C607.037 4.092 606.782 4.59067 606.601 5.18C606.42 5.758 606.323 6.40967 606.312 7.135V7.322C606.471 6.948 606.686 6.61933 606.958 6.336C607.241 6.05267 607.559 5.81467 607.91 5.622C608.261 5.42933 608.635 5.28767 609.032 5.197C609.44 5.095 609.854 5.044 610.273 5.044C610.964 5.044 611.588 5.14033 612.143 5.333C612.698 5.52567 613.169 5.79767 613.554 6.149C613.951 6.50033 614.251 6.91967 614.455 7.407C614.659 7.89433 614.761 8.43267 614.761 9.022C614.761 9.634 614.636 10.195 614.387 10.705C614.149 11.215 613.815 11.6513 613.384 12.014C612.965 12.3767 612.466 12.66 611.888 12.864C611.321 13.0567 610.709 13.153 610.052 13.153ZM610.035 11.708C610.511 11.708 610.942 11.6457 611.327 11.521C611.724 11.3963 612.064 11.2207 612.347 10.994C612.642 10.756 612.868 10.4783 613.027 10.161C613.186 9.84367 613.265 9.48667 613.265 9.09C613.265 8.65933 613.186 8.28533 613.027 7.968C612.88 7.63933 612.67 7.36733 612.398 7.152C612.126 6.92533 611.797 6.761 611.412 6.659C611.038 6.54567 610.63 6.489 610.188 6.489C609.1 6.489 608.273 6.72133 607.706 7.186C607.151 7.65067 606.873 8.24567 606.873 8.971C606.873 9.345 606.947 9.69633 607.094 10.025C607.241 10.3537 607.451 10.6427 607.723 10.892C607.995 11.1413 608.324 11.3397 608.709 11.487C609.106 11.6343 609.548 11.708 610.035 11.708ZM615.935 14.649C616.082 14.615 616.235 14.5527 616.394 14.462C616.564 14.3713 616.717 14.258 616.853 14.122C616.989 13.986 617.096 13.8387 617.176 13.68C617.266 13.5213 617.312 13.357 617.312 13.187C617.312 13.1077 617.306 13.0453 617.295 13C617.238 13.0113 617.17 13.017 617.091 13.017C616.841 13.017 616.626 12.9377 616.445 12.779C616.275 12.6203 616.19 12.3937 616.19 12.099C616.19 11.8043 616.28 11.572 616.462 11.402C616.643 11.2207 616.898 11.13 617.227 11.13C617.589 11.13 617.884 11.2547 618.111 11.504C618.349 11.742 618.468 12.1047 618.468 12.592C618.468 13.0567 618.405 13.4533 618.281 13.782C618.156 14.1107 617.992 14.3883 617.788 14.615C617.584 14.8417 617.351 15.0173 617.091 15.142C616.83 15.278 616.564 15.38 616.292 15.448L615.935 14.649ZM621.082 1.1H628.562V2.545H622.391L621.949 5.741C622.209 5.54833 622.561 5.38967 623.003 5.265C623.456 5.129 624.006 5.061 624.652 5.061C625.366 5.061 626 5.163 626.556 5.367C627.111 5.571 627.576 5.85433 627.95 6.217C628.324 6.57967 628.607 7.00467 628.8 7.492C629.004 7.97933 629.106 8.50067 629.106 9.056C629.106 9.65667 628.987 10.2063 628.749 10.705C628.522 11.2037 628.199 11.6343 627.78 11.997C627.372 12.3597 626.884 12.643 626.318 12.847C625.762 13.051 625.156 13.153 624.499 13.153C623.955 13.153 623.433 13.0907 622.935 12.966C622.436 12.8413 621.971 12.6543 621.541 12.405C621.121 12.1557 620.747 11.8553 620.419 11.504C620.101 11.1413 619.846 10.722 619.654 10.246L621.014 9.668C621.127 9.92867 621.286 10.1837 621.49 10.433C621.694 10.671 621.943 10.8863 622.238 11.079C622.532 11.2717 622.867 11.4247 623.241 11.538C623.615 11.6513 624.034 11.708 624.499 11.708C625.02 11.708 625.473 11.64 625.859 11.504C626.255 11.3567 626.584 11.164 626.845 10.926C627.105 10.688 627.298 10.416 627.423 10.11C627.547 9.79267 627.61 9.45833 627.61 9.107C627.61 8.30233 627.309 7.66767 626.709 7.203C626.119 6.73833 625.298 6.506 624.244 6.506C623.643 6.506 623.139 6.591 622.731 6.761C622.334 6.91967 621.96 7.17467 621.609 7.526L620.385 7.203L621.082 1.1ZM633.966 1.032H634.935V13H633.507V2.851L630.43 4.262L629.886 2.987L633.966 1.032ZM641.846 13.153C640.815 13.153 639.931 12.9547 639.194 12.558C638.469 12.1613 637.925 11.657 637.562 11.045L638.786 10.195C639.137 10.6823 639.596 11.0563 640.163 11.317C640.741 11.5777 641.37 11.708 642.05 11.708C642.571 11.708 643.047 11.606 643.478 11.402C643.92 11.1867 644.3 10.892 644.617 10.518C644.946 10.144 645.201 9.702 645.382 9.192C645.563 8.682 645.654 8.12667 645.654 7.526C645.654 7.458 645.654 7.39 645.654 7.322C645.654 7.254 645.648 7.186 645.637 7.118C645.365 7.764 644.9 8.30233 644.243 8.733C643.597 9.15233 642.775 9.362 641.778 9.362C641.121 9.362 640.514 9.26567 639.959 9.073C639.404 8.869 638.922 8.59133 638.514 8.24C638.106 7.87733 637.789 7.44667 637.562 6.948C637.335 6.44933 637.222 5.894 637.222 5.282C637.222 4.62467 637.341 4.02967 637.579 3.497C637.828 2.953 638.174 2.494 638.616 2.12C639.058 1.746 639.585 1.457 640.197 1.253C640.82 1.049 641.506 0.946999 642.254 0.946999C643.013 0.946999 643.693 1.07733 644.294 1.338C644.906 1.58733 645.422 1.96133 645.841 2.46C646.272 2.95867 646.6 3.57633 646.827 4.313C647.054 5.03833 647.167 5.877 647.167 6.829C647.167 7.87167 647.037 8.78967 646.776 9.583C646.527 10.365 646.164 11.0223 645.688 11.555C645.223 12.0763 644.662 12.473 644.005 12.745C643.359 13.017 642.639 13.153 641.846 13.153ZM642.05 7.917C642.537 7.917 642.979 7.849 643.376 7.713C643.773 7.577 644.107 7.39 644.379 7.152C644.662 6.90267 644.878 6.61367 645.025 6.285C645.172 5.95633 645.246 5.605 645.246 5.231C645.246 4.86833 645.189 4.517 645.076 4.177C644.963 3.837 644.781 3.53667 644.532 3.276C644.283 3.004 643.954 2.78867 643.546 2.63C643.149 2.47133 642.662 2.392 642.084 2.392C641.03 2.392 640.203 2.63 639.602 3.106C639.013 3.57067 638.718 4.25633 638.718 5.163C638.718 6.02433 639.018 6.69867 639.619 7.186C640.22 7.67333 641.03 7.917 642.05 7.917Z" fill="#222429"/>
<path d="M750.312 268.454C749.939 268.669 749.542 268.837 749.122 268.958C748.712 269.07 748.268 269.126 747.792 269.126C747.083 269.126 746.425 269.005 745.818 268.762C745.212 268.51 744.684 268.16 744.236 267.712C743.788 267.264 743.438 266.732 743.186 266.116C742.934 265.5 742.808 264.828 742.808 264.1C742.808 263.391 742.934 262.733 743.186 262.126C743.448 261.51 743.802 260.978 744.25 260.53C744.698 260.073 745.226 259.718 745.832 259.466C746.439 259.205 747.092 259.074 747.792 259.074C748.474 259.074 749.118 259.2 749.724 259.452C750.331 259.695 750.858 260.04 751.306 260.488C751.754 260.936 752.109 261.468 752.37 262.084C752.632 262.7 752.762 263.372 752.762 264.1C752.762 264.8 752.627 265.458 752.356 266.074C752.095 266.69 751.712 267.255 751.208 267.768L752.188 268.944L751.32 269.672L750.312 268.454ZM747.792 267.936C748.091 267.936 748.39 267.899 748.688 267.824C748.987 267.74 749.272 267.609 749.542 267.432L748.702 266.424L749.514 265.71L750.41 266.788C750.728 266.461 750.975 266.074 751.152 265.626C751.339 265.169 751.432 264.66 751.432 264.1C751.432 263.531 751.334 263.013 751.138 262.546C750.952 262.07 750.695 261.664 750.368 261.328C750.042 260.992 749.654 260.731 749.206 260.544C748.768 260.357 748.296 260.264 747.792 260.264C747.279 260.264 746.798 260.357 746.35 260.544C745.912 260.731 745.524 260.992 745.188 261.328C744.862 261.664 744.605 262.07 744.418 262.546C744.232 263.013 744.138 263.531 744.138 264.1C744.138 264.669 744.232 265.192 744.418 265.668C744.605 266.135 744.862 266.536 745.188 266.872C745.524 267.208 745.912 267.469 746.35 267.656C746.798 267.843 747.279 267.936 747.792 267.936ZM753.949 262.07C754.033 261.669 754.173 261.286 754.369 260.922C754.565 260.558 754.817 260.241 755.125 259.97C755.433 259.69 755.802 259.471 756.231 259.312C756.661 259.153 757.151 259.074 757.701 259.074C758.215 259.074 758.672 259.149 759.073 259.298C759.475 259.438 759.815 259.639 760.095 259.9C760.375 260.161 760.585 260.474 760.725 260.838C760.875 261.202 760.949 261.599 760.949 262.028C760.949 262.635 760.819 263.195 760.557 263.708C760.305 264.212 759.983 264.674 759.591 265.094C759.199 265.514 758.77 265.897 758.303 266.242C757.837 266.578 757.393 266.877 756.973 267.138L755.895 267.81H761.313V269H753.683V268.02L755.811 266.606C756.511 266.139 757.109 265.71 757.603 265.318C758.098 264.917 758.499 264.539 758.807 264.184C759.125 263.829 759.353 263.489 759.493 263.162C759.643 262.826 759.717 262.49 759.717 262.154C759.717 261.809 759.661 261.515 759.549 261.272C759.447 261.029 759.297 260.833 759.101 260.684C758.915 260.535 758.691 260.427 758.429 260.362C758.177 260.297 757.907 260.264 757.617 260.264C757.197 260.264 756.833 260.329 756.525 260.46C756.227 260.591 755.97 260.763 755.755 260.978C755.55 261.183 755.387 261.417 755.265 261.678C755.153 261.93 755.079 262.182 755.041 262.434L753.949 262.07Z" fill="#777F8C"/>
<rect x="722" y="65" width="60" height="184" fill="#5FAF2D"/>
<rect x="722" y="65" width="60" height="4" fill="#3D7917"/>
<path d="M731.816 44.1H739.296V45.545H733.125L732.683 48.741C732.944 48.5483 733.295 48.3897 733.737 48.265C734.191 48.129 734.74 48.061 735.386 48.061C736.1 48.061 736.735 48.163 737.29 48.367C737.846 48.571 738.31 48.8543 738.684 49.217C739.058 49.5797 739.342 50.0047 739.534 50.492C739.738 50.9793 739.84 51.5007 739.84 52.056C739.84 52.6567 739.721 53.2063 739.483 53.705C739.257 54.2037 738.934 54.6343 738.514 54.997C738.106 55.3597 737.619 55.643 737.052 55.847C736.497 56.051 735.891 56.153 735.233 56.153C734.689 56.153 734.168 56.0907 733.669 55.966C733.171 55.8413 732.706 55.6543 732.275 55.405C731.856 55.1557 731.482 54.8553 731.153 54.504C730.836 54.1413 730.581 53.722 730.388 53.246L731.748 52.668C731.862 52.9287 732.02 53.1837 732.224 53.433C732.428 53.671 732.678 53.8863 732.972 54.079C733.267 54.2717 733.601 54.4247 733.975 54.538C734.349 54.6513 734.769 54.708 735.233 54.708C735.755 54.708 736.208 54.64 736.593 54.504C736.99 54.3567 737.319 54.164 737.579 53.926C737.84 53.688 738.033 53.416 738.157 53.11C738.282 52.7927 738.344 52.4583 738.344 52.107C738.344 51.3023 738.044 50.6677 737.443 50.203C736.854 49.7383 736.032 49.506 734.978 49.506C734.378 49.506 733.873 49.591 733.465 49.761C733.069 49.9197 732.695 50.1747 732.343 50.526L731.119 50.203L731.816 44.1ZM741.08 57.649C741.227 57.615 741.38 57.5527 741.539 57.462C741.709 57.3713 741.862 57.258 741.998 57.122C742.134 56.986 742.241 56.8387 742.321 56.68C742.411 56.5213 742.457 56.357 742.457 56.187C742.457 56.1077 742.451 56.0453 742.44 56C742.383 56.0113 742.315 56.017 742.236 56.017C741.986 56.017 741.771 55.9377 741.59 55.779C741.42 55.6203 741.335 55.3937 741.335 55.099C741.335 54.8043 741.425 54.572 741.607 54.402C741.788 54.2207 742.043 54.13 742.372 54.13C742.734 54.13 743.029 54.2547 743.256 54.504C743.494 54.742 743.613 55.1047 743.613 55.592C743.613 56.0567 743.55 56.4533 743.426 56.782C743.301 57.1107 743.137 57.3883 742.933 57.615C742.729 57.8417 742.496 58.0173 742.236 58.142C741.975 58.278 741.709 58.38 741.437 58.448L741.08 57.649ZM745.139 47.585C745.241 47.0977 745.411 46.633 745.649 46.191C745.887 45.749 746.193 45.3637 746.567 45.035C746.941 44.695 747.388 44.4287 747.91 44.236C748.431 44.0433 749.026 43.947 749.695 43.947C750.318 43.947 750.873 44.0377 751.361 44.219C751.848 44.389 752.262 44.6327 752.602 44.95C752.942 45.2673 753.197 45.647 753.367 46.089C753.548 46.531 753.639 47.0127 753.639 47.534C753.639 48.2707 753.48 48.9507 753.163 49.574C752.857 50.186 752.466 50.747 751.99 51.257C751.514 51.767 750.992 52.2317 750.426 52.651C749.859 53.059 749.321 53.4217 748.811 53.739L747.502 54.555H754.081V56H744.816V54.81L747.4 53.093C748.25 52.5263 748.975 52.005 749.576 51.529C750.176 51.0417 750.664 50.5827 751.038 50.152C751.423 49.7213 751.701 49.3077 751.871 48.911C752.052 48.503 752.143 48.095 752.143 47.687C752.143 47.2677 752.075 46.9107 751.939 46.616C751.814 46.3213 751.633 46.0833 751.395 45.902C751.168 45.7207 750.896 45.5903 750.579 45.511C750.273 45.4317 749.944 45.392 749.593 45.392C749.083 45.392 748.641 45.4713 748.267 45.63C747.904 45.7887 747.592 45.9983 747.332 46.259C747.082 46.5083 746.884 46.7917 746.737 47.109C746.601 47.415 746.51 47.721 746.465 48.027L745.139 47.585ZM755.038 44.1H764.065V45.069L758.149 56H756.534L762.246 45.545H755.038V44.1ZM764.75 44.1H773.777V45.069L767.861 56H766.246L771.958 45.545H764.75V44.1Z" fill="#222429"/>
<path d="M876.278 268.454C875.905 268.669 875.508 268.837 875.088 268.958C874.678 269.07 874.234 269.126 873.758 269.126C873.049 269.126 872.391 269.005 871.784 268.762C871.178 268.51 870.65 268.16 870.202 267.712C869.754 267.264 869.404 266.732 869.152 266.116C868.9 265.5 868.774 264.828 868.774 264.1C868.774 263.391 868.9 262.733 869.152 262.126C869.414 261.51 869.768 260.978 870.216 260.53C870.664 260.073 871.192 259.718 871.798 259.466C872.405 259.205 873.058 259.074 873.758 259.074C874.44 259.074 875.084 259.2 875.69 259.452C876.297 259.695 876.824 260.04 877.272 260.488C877.72 260.936 878.075 261.468 878.336 262.084C878.598 262.7 878.728 263.372 878.728 264.1C878.728 264.8 878.593 265.458 878.322 266.074C878.061 266.69 877.678 267.255 877.174 267.768L878.154 268.944L877.286 269.672L876.278 268.454ZM873.758 267.936C874.057 267.936 874.356 267.899 874.654 267.824C874.953 267.74 875.238 267.609 875.508 267.432L874.668 266.424L875.48 265.71L876.376 266.788C876.694 266.461 876.941 266.074 877.118 265.626C877.305 265.169 877.398 264.66 877.398 264.1C877.398 263.531 877.3 263.013 877.104 262.546C876.918 262.07 876.661 261.664 876.334 261.328C876.008 260.992 875.62 260.731 875.172 260.544C874.734 260.357 874.262 260.264 873.758 260.264C873.245 260.264 872.764 260.357 872.316 260.544C871.878 260.731 871.49 260.992 871.154 261.328C870.828 261.664 870.571 262.07 870.384 262.546C870.198 263.013 870.104 263.531 870.104 264.1C870.104 264.669 870.198 265.192 870.384 265.668C870.571 266.135 870.828 266.536 871.154 266.872C871.49 267.208 871.878 267.469 872.316 267.656C872.764 267.843 873.245 267.936 873.758 267.936ZM879.733 261.58C879.864 261.216 880.041 260.885 880.265 260.586C880.489 260.278 880.76 260.012 881.077 259.788C881.404 259.564 881.777 259.391 882.197 259.27C882.626 259.139 883.107 259.074 883.639 259.074C884.115 259.074 884.554 259.135 884.955 259.256C885.366 259.368 885.716 259.531 886.005 259.746C886.304 259.951 886.532 260.208 886.691 260.516C886.859 260.824 886.943 261.165 886.943 261.538C886.943 262.107 886.794 262.593 886.495 262.994C886.206 263.395 885.781 263.675 885.221 263.834C885.464 263.853 885.702 263.913 885.935 264.016C886.168 264.109 886.374 264.254 886.551 264.45C886.738 264.637 886.887 264.875 886.999 265.164C887.111 265.444 887.167 265.78 887.167 266.172C887.167 266.648 887.074 267.073 886.887 267.446C886.71 267.81 886.458 268.118 886.131 268.37C885.814 268.613 885.436 268.799 884.997 268.93C884.558 269.061 884.087 269.126 883.583 269.126C883.032 269.126 882.528 269.061 882.071 268.93C881.623 268.799 881.226 268.622 880.881 268.398C880.536 268.165 880.242 267.889 879.999 267.572C879.766 267.245 879.588 266.886 879.467 266.494L880.601 266.004C880.722 266.256 880.867 266.499 881.035 266.732C881.203 266.965 881.408 267.171 881.651 267.348C881.894 267.525 882.178 267.67 882.505 267.782C882.832 267.885 883.219 267.936 883.667 267.936C884.367 267.936 884.918 267.787 885.319 267.488C885.73 267.18 885.935 266.746 885.935 266.186C885.935 265.878 885.87 265.621 885.739 265.416C885.608 265.201 885.426 265.033 885.193 264.912C884.96 264.781 884.684 264.693 884.367 264.646C884.059 264.59 883.723 264.562 883.359 264.562H882.267V263.4H883.135C883.947 263.4 884.577 263.246 885.025 262.938C885.482 262.63 885.711 262.243 885.711 261.776C885.711 261.272 885.52 260.894 885.137 260.642C884.754 260.39 884.236 260.264 883.583 260.264C883.182 260.264 882.827 260.315 882.519 260.418C882.211 260.521 881.94 260.656 881.707 260.824C881.483 260.992 881.292 261.183 881.133 261.398C880.984 261.613 880.867 261.832 880.783 262.056L879.733 261.58Z" fill="#777F8C"/>
<rect x="848" y="76" width="60" height="173" fill="#5FAF2D"/>
<rect x="848" y="76" width="60" height="4" fill="#3D7917"/>
<path d="M860.827 64.62H853.5V63.532L860.997 55.1H862.255V63.175H864.465V64.62H862.255V67H860.827V64.62ZM860.827 63.175V57.48L855.54 63.175H860.827ZM865.245 68.649C865.393 68.615 865.546 68.5527 865.704 68.462C865.874 68.3713 866.027 68.258 866.163 68.122C866.299 67.986 866.407 67.8387 866.486 67.68C866.577 67.5213 866.622 67.357 866.622 67.187C866.622 67.1077 866.617 67.0453 866.605 67C866.549 67.0113 866.481 67.017 866.401 67.017C866.152 67.017 865.937 66.9377 865.755 66.779C865.585 66.6203 865.5 66.3937 865.5 66.099C865.5 65.8043 865.591 65.572 865.772 65.402C865.954 65.2207 866.209 65.13 866.537 65.13C866.9 65.13 867.195 65.2547 867.421 65.504C867.659 65.742 867.778 66.1047 867.778 66.592C867.778 67.0567 867.716 67.4533 867.591 67.782C867.467 68.1107 867.302 68.3883 867.098 68.615C866.894 68.8417 866.662 69.0173 866.401 69.142C866.141 69.278 865.874 69.38 865.602 69.448L865.245 68.649ZM873.758 67.153C872.727 67.153 871.843 66.9547 871.106 66.558C870.381 66.1613 869.837 65.657 869.474 65.045L870.698 64.195C871.049 64.6823 871.508 65.0563 872.075 65.317C872.653 65.5777 873.282 65.708 873.962 65.708C874.483 65.708 874.959 65.606 875.39 65.402C875.832 65.1867 876.212 64.892 876.529 64.518C876.858 64.144 877.113 63.702 877.294 63.192C877.475 62.682 877.566 62.1267 877.566 61.526C877.566 61.458 877.566 61.39 877.566 61.322C877.566 61.254 877.56 61.186 877.549 61.118C877.277 61.764 876.812 62.3023 876.155 62.733C875.509 63.1523 874.687 63.362 873.69 63.362C873.033 63.362 872.426 63.2657 871.871 63.073C871.316 62.869 870.834 62.5913 870.426 62.24C870.018 61.8773 869.701 61.4467 869.474 60.948C869.247 60.4493 869.134 59.894 869.134 59.282C869.134 58.6247 869.253 58.0297 869.491 57.497C869.74 56.953 870.086 56.494 870.528 56.12C870.97 55.746 871.497 55.457 872.109 55.253C872.732 55.049 873.418 54.947 874.166 54.947C874.925 54.947 875.605 55.0773 876.206 55.338C876.818 55.5873 877.334 55.9613 877.753 56.46C878.184 56.9587 878.512 57.5763 878.739 58.313C878.966 59.0383 879.079 59.877 879.079 60.829C879.079 61.8717 878.949 62.7897 878.688 63.583C878.439 64.365 878.076 65.0223 877.6 65.555C877.135 66.0763 876.574 66.473 875.917 66.745C875.271 67.017 874.551 67.153 873.758 67.153ZM873.962 61.917C874.449 61.917 874.891 61.849 875.288 61.713C875.685 61.577 876.019 61.39 876.291 61.152C876.574 60.9027 876.79 60.6137 876.937 60.285C877.084 59.9563 877.158 59.605 877.158 59.231C877.158 58.8683 877.101 58.517 876.988 58.177C876.875 57.837 876.693 57.5367 876.444 57.276C876.195 57.004 875.866 56.7887 875.458 56.63C875.061 56.4713 874.574 56.392 873.996 56.392C872.942 56.392 872.115 56.63 871.514 57.106C870.925 57.5707 870.63 58.2563 870.63 59.163C870.63 60.0243 870.93 60.6987 871.531 61.186C872.132 61.6733 872.942 61.917 873.962 61.917ZM885.097 67.153C884.066 67.153 883.182 66.9547 882.445 66.558C881.72 66.1613 881.176 65.657 880.813 65.045L882.037 64.195C882.388 64.6823 882.847 65.0563 883.414 65.317C883.992 65.5777 884.621 65.708 885.301 65.708C885.822 65.708 886.298 65.606 886.729 65.402C887.171 65.1867 887.551 64.892 887.868 64.518C888.197 64.144 888.452 63.702 888.633 63.192C888.814 62.682 888.905 62.1267 888.905 61.526C888.905 61.458 888.905 61.39 888.905 61.322C888.905 61.254 888.899 61.186 888.888 61.118C888.616 61.764 888.151 62.3023 887.494 62.733C886.848 63.1523 886.026 63.362 885.029 63.362C884.372 63.362 883.765 63.2657 883.21 63.073C882.655 62.869 882.173 62.5913 881.765 62.24C881.357 61.8773 881.04 61.4467 880.813 60.948C880.586 60.4493 880.473 59.894 880.473 59.282C880.473 58.6247 880.592 58.0297 880.83 57.497C881.079 56.953 881.425 56.494 881.867 56.12C882.309 55.746 882.836 55.457 883.448 55.253C884.071 55.049 884.757 54.947 885.505 54.947C886.264 54.947 886.944 55.0773 887.545 55.338C888.157 55.5873 888.673 55.9613 889.092 56.46C889.523 56.9587 889.851 57.5763 890.078 58.313C890.305 59.0383 890.418 59.877 890.418 60.829C890.418 61.8717 890.288 62.7897 890.027 63.583C889.778 64.365 889.415 65.0223 888.939 65.555C888.474 66.0763 887.913 66.473 887.256 66.745C886.61 67.017 885.89 67.153 885.097 67.153ZM885.301 61.917C885.788 61.917 886.23 61.849 886.627 61.713C887.024 61.577 887.358 61.39 887.63 61.152C887.913 60.9027 888.129 60.6137 888.276 60.285C888.423 59.9563 888.497 59.605 888.497 59.231C888.497 58.8683 888.44 58.517 888.327 58.177C888.214 57.837 888.032 57.5367 887.783 57.276C887.534 57.004 887.205 56.7887 886.797 56.63C886.4 56.4713 885.913 56.392 885.335 56.392C884.281 56.392 883.454 56.63 882.853 57.106C882.264 57.5707 881.969 58.2563 881.969 59.163C881.969 60.0243 882.269 60.6987 882.87 61.186C883.471 61.6733 884.281 61.917 885.301 61.917ZM891.863 61.05C891.863 60.166 891.965 59.3557 892.169 58.619C892.373 57.871 892.679 57.225 893.087 56.681C893.506 56.137 894.033 55.712 894.668 55.406C895.303 55.1 896.051 54.947 896.912 54.947C897.773 54.947 898.521 55.0887 899.156 55.372C899.791 55.6553 900.318 56.0633 900.737 56.596C901.156 57.1287 901.468 57.7747 901.672 58.534C901.876 59.282 901.978 60.1207 901.978 61.05C901.978 61.934 901.876 62.75 901.672 63.498C901.479 64.2347 901.173 64.875 900.754 65.419C900.346 65.963 899.825 66.388 899.19 66.694C898.555 67 897.807 67.153 896.946 67.153C896.13 67.153 895.405 67 894.77 66.694C894.135 66.388 893.603 65.963 893.172 65.419C892.741 64.875 892.413 64.2347 892.186 63.498C891.971 62.75 891.863 61.934 891.863 61.05ZM893.359 61.05C893.359 62.5007 893.676 63.6397 894.311 64.467C894.946 65.2943 895.824 65.708 896.946 65.708C898.17 65.708 899.065 65.2943 899.632 64.467C900.199 63.6397 900.482 62.5007 900.482 61.05C900.482 59.5993 900.193 58.4603 899.615 57.633C899.037 56.8057 898.136 56.392 896.912 56.392C896.3 56.392 895.773 56.4997 895.331 56.715C894.889 56.9303 894.521 57.242 894.226 57.65C893.931 58.058 893.71 58.551 893.563 59.129C893.427 59.6957 893.359 60.336 893.359 61.05Z" fill="#222429"/>
<path d="M1001.9 268.454C1001.52 268.669 1001.13 268.837 1000.71 268.958C1000.29 269.07 999.851 269.126 999.375 269.126C998.666 269.126 998.008 269.005 997.401 268.762C996.795 268.51 996.267 268.16 995.819 267.712C995.371 267.264 995.021 266.732 994.769 266.116C994.517 265.5 994.391 264.828 994.391 264.1C994.391 263.391 994.517 262.733 994.769 262.126C995.031 261.51 995.385 260.978 995.833 260.53C996.281 260.073 996.809 259.718 997.415 259.466C998.022 259.205 998.675 259.074 999.375 259.074C1000.06 259.074 1000.7 259.2 1001.31 259.452C1001.91 259.695 1002.44 260.04 1002.89 260.488C1003.34 260.936 1003.69 261.468 1003.95 262.084C1004.21 262.7 1004.35 263.372 1004.35 264.1C1004.35 264.8 1004.21 265.458 1003.94 266.074C1003.68 266.69 1003.3 267.255 1002.79 267.768L1003.77 268.944L1002.9 269.672L1001.9 268.454ZM999.375 267.936C999.674 267.936 999.973 267.899 1000.27 267.824C1000.57 267.74 1000.85 267.609 1001.13 267.432L1000.29 266.424L1001.1 265.71L1001.99 266.788C1002.31 266.461 1002.56 266.074 1002.74 265.626C1002.92 265.169 1003.02 264.66 1003.02 264.1C1003.02 263.531 1002.92 263.013 1002.72 262.546C1002.53 262.07 1002.28 261.664 1001.95 261.328C1001.62 260.992 1001.24 260.731 1000.79 260.544C1000.35 260.357 999.879 260.264 999.375 260.264C998.862 260.264 998.381 260.357 997.933 260.544C997.495 260.731 997.107 260.992 996.771 261.328C996.445 261.664 996.188 262.07 996.001 262.546C995.815 263.013 995.721 263.531 995.721 264.1C995.721 264.669 995.815 265.192 996.001 265.668C996.188 266.135 996.445 266.536 996.771 266.872C997.107 267.208 997.495 267.469 997.933 267.656C998.381 267.843 998.862 267.936 999.375 267.936ZM1011.02 267.04H1004.99V266.144L1011.16 259.2H1012.2V265.85H1014.02V267.04H1012.2V269H1011.02V267.04ZM1011.02 265.85V261.16L1006.67 265.85H1011.02Z" fill="#777F8C"/>
<rect x="974" y="52" width="60" height="197" fill="#5FAF2D"/>
<rect x="974" y="52" width="60" height="4" fill="#3D7917"/>
<path d="M984.381 31.1H991.861V32.545H985.69L985.248 35.741C985.509 35.5483 985.86 35.3897 986.302 35.265C986.755 35.129 987.305 35.061 987.951 35.061C988.665 35.061 989.3 35.163 989.855 35.367C990.41 35.571 990.875 35.8543 991.249 36.217C991.623 36.5797 991.906 37.0047 992.099 37.492C992.303 37.9793 992.405 38.5007 992.405 39.056C992.405 39.6567 992.286 40.2063 992.048 40.705C991.821 41.2037 991.498 41.6343 991.079 41.997C990.671 42.3597 990.184 42.643 989.617 42.847C989.062 43.051 988.455 43.153 987.798 43.153C987.254 43.153 986.733 43.0907 986.234 42.966C985.735 42.8413 985.271 42.6543 984.84 42.405C984.421 42.1557 984.047 41.8553 983.718 41.504C983.401 41.1413 983.146 40.722 982.953 40.246L984.313 39.668C984.426 39.9287 984.585 40.1837 984.789 40.433C984.993 40.671 985.242 40.8863 985.537 41.079C985.832 41.2717 986.166 41.4247 986.54 41.538C986.914 41.6513 987.333 41.708 987.798 41.708C988.319 41.708 988.773 41.64 989.158 41.504C989.555 41.3567 989.883 41.164 990.144 40.926C990.405 40.688 990.597 40.416 990.722 40.11C990.847 39.7927 990.909 39.4583 990.909 39.107C990.909 38.3023 990.609 37.6677 990.008 37.203C989.419 36.7383 988.597 36.506 987.543 36.506C986.942 36.506 986.438 36.591 986.03 36.761C985.633 36.9197 985.259 37.1747 984.908 37.526L983.684 37.203L984.381 31.1ZM993.644 44.649C993.792 44.615 993.945 44.5527 994.103 44.462C994.273 44.3713 994.426 44.258 994.562 44.122C994.698 43.986 994.806 43.8387 994.885 43.68C994.976 43.5213 995.021 43.357 995.021 43.187C995.021 43.1077 995.016 43.0453 995.004 43C994.948 43.0113 994.88 43.017 994.8 43.017C994.551 43.017 994.336 42.9377 994.154 42.779C993.984 42.6203 993.899 42.3937 993.899 42.099C993.899 41.8043 993.99 41.572 994.171 41.402C994.353 41.2207 994.608 41.13 994.936 41.13C995.299 41.13 995.594 41.2547 995.82 41.504C996.058 41.742 996.177 42.1047 996.177 42.592C996.177 43.0567 996.115 43.4533 995.99 43.782C995.866 44.1107 995.701 44.3883 995.497 44.615C995.293 44.8417 995.061 45.0173 994.8 45.142C994.54 45.278 994.273 45.38 994.001 45.448L993.644 44.649ZM1002.79 43.153C1001.99 43.153 1001.27 43.0283 1000.63 42.779C999.992 42.5297 999.448 42.1613 998.995 41.674C998.542 41.1753 998.19 40.569 997.941 39.855C997.703 39.141 997.584 38.3137 997.584 37.373C997.584 36.3077 997.726 35.3727 998.009 34.568C998.292 33.7633 998.672 33.0947 999.148 32.562C999.635 32.018 1000.2 31.6157 1000.83 31.355C1001.48 31.083 1002.16 30.947 1002.87 30.947C1003.9 30.947 1004.78 31.1567 1005.51 31.576C1006.23 31.9953 1006.76 32.562 1007.09 33.276L1005.93 34.058C1005.6 33.548 1005.18 33.1457 1004.66 32.851C1004.15 32.545 1003.53 32.392 1002.8 32.392C1002.24 32.392 1001.73 32.5053 1001.27 32.732C1000.82 32.9473 1000.43 33.2647 1000.1 33.684C999.771 34.092 999.516 34.5907 999.335 35.18C999.154 35.758 999.057 36.4097 999.046 37.135V37.322C999.205 36.948 999.42 36.6193 999.692 36.336C999.975 36.0527 1000.29 35.8147 1000.64 35.622C1001 35.4293 1001.37 35.2877 1001.77 35.197C1002.17 35.095 1002.59 35.044 1003.01 35.044C1003.7 35.044 1004.32 35.1403 1004.88 35.333C1005.43 35.5257 1005.9 35.7977 1006.29 36.149C1006.68 36.5003 1006.99 36.9197 1007.19 37.407C1007.39 37.8943 1007.5 38.4327 1007.5 39.022C1007.5 39.634 1007.37 40.195 1007.12 40.705C1006.88 41.215 1006.55 41.6513 1006.12 42.014C1005.7 42.3767 1005.2 42.66 1004.62 42.864C1004.06 43.0567 1003.44 43.153 1002.79 43.153ZM1002.77 41.708C1003.25 41.708 1003.68 41.6457 1004.06 41.521C1004.46 41.3963 1004.8 41.2207 1005.08 40.994C1005.38 40.756 1005.6 40.4783 1005.76 40.161C1005.92 39.8437 1006 39.4867 1006 39.09C1006 38.6593 1005.92 38.2853 1005.76 37.968C1005.61 37.6393 1005.4 37.3673 1005.13 37.152C1004.86 36.9253 1004.53 36.761 1004.15 36.659C1003.77 36.5457 1003.36 36.489 1002.92 36.489C1001.83 36.489 1001.01 36.7213 1000.44 37.186C999.885 37.6507 999.607 38.2457 999.607 38.971C999.607 39.345 999.681 39.6963 999.828 40.025C999.975 40.3537 1000.19 40.6427 1000.46 40.892C1000.73 41.1413 1001.06 41.3397 1001.44 41.487C1001.84 41.6343 1002.28 41.708 1002.77 41.708ZM1010.1 31.1H1017.58V32.545H1011.41L1010.96 35.741C1011.22 35.5483 1011.58 35.3897 1012.02 35.265C1012.47 35.129 1013.02 35.061 1013.67 35.061C1014.38 35.061 1015.02 35.163 1015.57 35.367C1016.13 35.571 1016.59 35.8543 1016.96 36.217C1017.34 36.5797 1017.62 37.0047 1017.81 37.492C1018.02 37.9793 1018.12 38.5007 1018.12 39.056C1018.12 39.6567 1018 40.2063 1017.76 40.705C1017.54 41.2037 1017.21 41.6343 1016.79 41.997C1016.39 42.3597 1015.9 42.643 1015.33 42.847C1014.78 43.051 1014.17 43.153 1013.51 43.153C1012.97 43.153 1012.45 43.0907 1011.95 42.966C1011.45 42.8413 1010.99 42.6543 1010.56 42.405C1010.14 42.1557 1009.76 41.8553 1009.43 41.504C1009.12 41.1413 1008.86 40.722 1008.67 40.246L1010.03 39.668C1010.14 39.9287 1010.3 40.1837 1010.5 40.433C1010.71 40.671 1010.96 40.8863 1011.25 41.079C1011.55 41.2717 1011.88 41.4247 1012.26 41.538C1012.63 41.6513 1013.05 41.708 1013.51 41.708C1014.04 41.708 1014.49 41.64 1014.87 41.504C1015.27 41.3567 1015.6 41.164 1015.86 40.926C1016.12 40.688 1016.31 40.416 1016.44 40.11C1016.56 39.7927 1016.62 39.4583 1016.62 39.107C1016.62 38.3023 1016.32 37.6677 1015.72 37.203C1015.13 36.7383 1014.31 36.506 1013.26 36.506C1012.66 36.506 1012.15 36.591 1011.75 36.761C1011.35 36.9197 1010.98 37.1747 1010.62 37.526L1009.4 37.203L1010.1 31.1ZM1022.98 31.032H1023.95V43H1022.52V32.851L1019.45 34.262L1018.9 32.987L1022.98 31.032Z" fill="#222429"/>
<rect y="249" width="1112" height="1" fill="#9299A3"/>
<path d="M91 272V282H530V272" stroke="#B4BBC5"/>
<path d="M295.818 296.07C295.902 295.669 296.042 295.286 296.238 294.922C296.434 294.558 296.686 294.241 296.994 293.97C297.302 293.69 297.671 293.471 298.1 293.312C298.53 293.153 299.02 293.074 299.57 293.074C300.084 293.074 300.541 293.149 300.942 293.298C301.344 293.438 301.684 293.639 301.964 293.9C302.244 294.161 302.454 294.474 302.594 294.838C302.744 295.202 302.818 295.599 302.818 296.028C302.818 296.635 302.688 297.195 302.426 297.708C302.174 298.212 301.852 298.674 301.46 299.094C301.068 299.514 300.639 299.897 300.172 300.242C299.706 300.578 299.262 300.877 298.842 301.138L297.764 301.81H303.182V303H295.552V302.02L297.68 300.606C298.38 300.139 298.978 299.71 299.472 299.318C299.967 298.917 300.368 298.539 300.676 298.184C300.994 297.829 301.222 297.489 301.362 297.162C301.512 296.826 301.586 296.49 301.586 296.154C301.586 295.809 301.53 295.515 301.418 295.272C301.316 295.029 301.166 294.833 300.97 294.684C300.784 294.535 300.56 294.427 300.298 294.362C300.046 294.297 299.776 294.264 299.486 294.264C299.066 294.264 298.702 294.329 298.394 294.46C298.096 294.591 297.839 294.763 297.624 294.978C297.419 295.183 297.256 295.417 297.134 295.678C297.022 295.93 296.948 296.182 296.91 296.434L295.818 296.07ZM304.152 298.1C304.152 297.372 304.236 296.705 304.404 296.098C304.572 295.482 304.824 294.95 305.16 294.502C305.506 294.054 305.94 293.704 306.462 293.452C306.985 293.2 307.601 293.074 308.31 293.074C309.02 293.074 309.636 293.191 310.158 293.424C310.681 293.657 311.115 293.993 311.46 294.432C311.806 294.871 312.062 295.403 312.23 296.028C312.398 296.644 312.482 297.335 312.482 298.1C312.482 298.828 312.398 299.5 312.23 300.116C312.072 300.723 311.82 301.25 311.474 301.698C311.138 302.146 310.709 302.496 310.186 302.748C309.664 303 309.048 303.126 308.338 303.126C307.666 303.126 307.069 303 306.546 302.748C306.024 302.496 305.585 302.146 305.23 301.698C304.876 301.25 304.605 300.723 304.418 300.116C304.241 299.5 304.152 298.828 304.152 298.1ZM305.384 298.1C305.384 299.295 305.646 300.233 306.168 300.914C306.691 301.595 307.414 301.936 308.338 301.936C309.346 301.936 310.084 301.595 310.55 300.914C311.017 300.233 311.25 299.295 311.25 298.1C311.25 296.905 311.012 295.967 310.536 295.286C310.06 294.605 309.318 294.264 308.31 294.264C307.806 294.264 307.372 294.353 307.008 294.53C306.644 294.707 306.341 294.964 306.098 295.3C305.856 295.636 305.674 296.042 305.552 296.518C305.44 296.985 305.384 297.512 305.384 298.1ZM313.626 296.07C313.71 295.669 313.85 295.286 314.046 294.922C314.242 294.558 314.494 294.241 314.802 293.97C315.11 293.69 315.479 293.471 315.908 293.312C316.337 293.153 316.827 293.074 317.378 293.074C317.891 293.074 318.349 293.149 318.75 293.298C319.151 293.438 319.492 293.639 319.772 293.9C320.052 294.161 320.262 294.474 320.402 294.838C320.551 295.202 320.626 295.599 320.626 296.028C320.626 296.635 320.495 297.195 320.234 297.708C319.982 298.212 319.66 298.674 319.268 299.094C318.876 299.514 318.447 299.897 317.98 300.242C317.513 300.578 317.07 300.877 316.65 301.138L315.572 301.81H320.99V303H313.36V302.02L315.488 300.606C316.188 300.139 316.785 299.71 317.28 299.318C317.775 298.917 318.176 298.539 318.484 298.184C318.801 297.829 319.03 297.489 319.17 297.162C319.319 296.826 319.394 296.49 319.394 296.154C319.394 295.809 319.338 295.515 319.226 295.272C319.123 295.029 318.974 294.833 318.778 294.684C318.591 294.535 318.367 294.427 318.106 294.362C317.854 294.297 317.583 294.264 317.294 294.264C316.874 294.264 316.51 294.329 316.202 294.46C315.903 294.591 315.647 294.763 315.432 294.978C315.227 295.183 315.063 295.417 314.942 295.678C314.83 295.93 314.755 296.182 314.718 296.434L313.626 296.07ZM324.76 293.144H325.558V303H324.382V294.642L321.848 295.804L321.4 294.754L324.76 293.144Z" fill="#222429"/>
<path d="M596 272V282H1034V272" stroke="#B4BBC5"/>
<path d="M797.794 296.07C797.878 295.669 798.018 295.286 798.214 294.922C798.41 294.558 798.662 294.241 798.97 293.97C799.278 293.69 799.646 293.471 800.076 293.312C800.505 293.153 800.995 293.074 801.546 293.074C802.059 293.074 802.516 293.149 802.918 293.298C803.319 293.438 803.66 293.639 803.94 293.9C804.22 294.161 804.43 294.474 804.57 294.838C804.719 295.202 804.794 295.599 804.794 296.028C804.794 296.635 804.663 297.195 804.402 297.708C804.15 298.212 803.828 298.674 803.436 299.094C803.044 299.514 802.614 299.897 802.148 300.242C801.681 300.578 801.238 300.877 800.818 301.138L799.74 301.81H805.158V303H797.528V302.02L799.656 300.606C800.356 300.139 800.953 299.71 801.448 299.318C801.942 298.917 802.344 298.539 802.652 298.184C802.969 297.829 803.198 297.489 803.338 297.162C803.487 296.826 803.562 296.49 803.562 296.154C803.562 295.809 803.506 295.515 803.394 295.272C803.291 295.029 803.142 294.833 802.946 294.684C802.759 294.535 802.535 294.427 802.274 294.362C802.022 294.297 801.751 294.264 801.462 294.264C801.042 294.264 800.678 294.329 800.37 294.46C800.071 294.591 799.814 294.763 799.6 294.978C799.394 295.183 799.231 295.417 799.11 295.678C798.998 295.93 798.923 296.182 798.886 296.434L797.794 296.07ZM806.128 298.1C806.128 297.372 806.212 296.705 806.38 296.098C806.548 295.482 806.8 294.95 807.136 294.502C807.481 294.054 807.915 293.704 808.438 293.452C808.961 293.2 809.577 293.074 810.286 293.074C810.995 293.074 811.611 293.191 812.134 293.424C812.657 293.657 813.091 293.993 813.436 294.432C813.781 294.871 814.038 295.403 814.206 296.028C814.374 296.644 814.458 297.335 814.458 298.1C814.458 298.828 814.374 299.5 814.206 300.116C814.047 300.723 813.795 301.25 813.45 301.698C813.114 302.146 812.685 302.496 812.162 302.748C811.639 303 811.023 303.126 810.314 303.126C809.642 303.126 809.045 303 808.522 302.748C807.999 302.496 807.561 302.146 807.206 301.698C806.851 301.25 806.581 300.723 806.394 300.116C806.217 299.5 806.128 298.828 806.128 298.1ZM807.36 298.1C807.36 299.295 807.621 300.233 808.144 300.914C808.667 301.595 809.39 301.936 810.314 301.936C811.322 301.936 812.059 301.595 812.526 300.914C812.993 300.233 813.226 299.295 813.226 298.1C813.226 296.905 812.988 295.967 812.512 295.286C812.036 294.605 811.294 294.264 810.286 294.264C809.782 294.264 809.348 294.353 808.984 294.53C808.62 294.707 808.317 294.964 808.074 295.3C807.831 295.636 807.649 296.042 807.528 296.518C807.416 296.985 807.36 297.512 807.36 298.1ZM815.602 296.07C815.686 295.669 815.826 295.286 816.022 294.922C816.218 294.558 816.47 294.241 816.778 293.97C817.086 293.69 817.454 293.471 817.884 293.312C818.313 293.153 818.803 293.074 819.354 293.074C819.867 293.074 820.324 293.149 820.726 293.298C821.127 293.438 821.468 293.639 821.748 293.9C822.028 294.161 822.238 294.474 822.378 294.838C822.527 295.202 822.602 295.599 822.602 296.028C822.602 296.635 822.471 297.195 822.21 297.708C821.958 298.212 821.636 298.674 821.244 299.094C820.852 299.514 820.422 299.897 819.956 300.242C819.489 300.578 819.046 300.877 818.626 301.138L817.548 301.81H822.966V303H815.336V302.02L817.464 300.606C818.164 300.139 818.761 299.71 819.256 299.318C819.75 298.917 820.152 298.539 820.46 298.184C820.777 297.829 821.006 297.489 821.146 297.162C821.295 296.826 821.37 296.49 821.37 296.154C821.37 295.809 821.314 295.515 821.202 295.272C821.099 295.029 820.95 294.833 820.754 294.684C820.567 294.535 820.343 294.427 820.082 294.362C819.83 294.297 819.559 294.264 819.27 294.264C818.85 294.264 818.486 294.329 818.178 294.46C817.879 294.591 817.622 294.763 817.408 294.978C817.202 295.183 817.039 295.417 816.918 295.678C816.806 295.93 816.731 296.182 816.694 296.434L815.602 296.07ZM824.034 296.07C824.118 295.669 824.258 295.286 824.454 294.922C824.65 294.558 824.902 294.241 825.21 293.97C825.518 293.69 825.887 293.471 826.316 293.312C826.745 293.153 827.235 293.074 827.786 293.074C828.299 293.074 828.757 293.149 829.158 293.298C829.559 293.438 829.9 293.639 830.18 293.9C830.46 294.161 830.67 294.474 830.81 294.838C830.959 295.202 831.034 295.599 831.034 296.028C831.034 296.635 830.903 297.195 830.642 297.708C830.39 298.212 830.068 298.674 829.676 299.094C829.284 299.514 828.855 299.897 828.388 300.242C827.921 300.578 827.478 300.877 827.058 301.138L825.98 301.81H831.398V303H823.768V302.02L825.896 300.606C826.596 300.139 827.193 299.71 827.688 299.318C828.183 298.917 828.584 298.539 828.892 298.184C829.209 297.829 829.438 297.489 829.578 297.162C829.727 296.826 829.802 296.49 829.802 296.154C829.802 295.809 829.746 295.515 829.634 295.272C829.531 295.029 829.382 294.833 829.186 294.684C828.999 294.535 828.775 294.427 828.514 294.362C828.262 294.297 827.991 294.264 827.702 294.264C827.282 294.264 826.918 294.329 826.61 294.46C826.311 294.591 826.055 294.763 825.84 294.978C825.635 295.183 825.471 295.417 825.35 295.678C825.238 295.93 825.163 296.182 825.126 296.434L824.034 296.07Z" fill="#222429"/>
</svg>
