<svg viewBox="0 0 1112 308" fill="none" xmlns="http://www.w3.org/2000/svg">
<path d="M110.162 259.2H111.436V269H110.162V259.2ZM117.467 261.72H118.643V264.982L122.255 261.72H123.907L120.141 265.066L124.089 269H122.437L119.245 265.794L118.643 266.354V269H117.467V261.72ZM125.215 261.72H128.239C129.238 261.72 129.985 261.86 130.479 262.14C130.974 262.411 131.221 262.891 131.221 263.582C131.221 263.937 131.114 264.263 130.899 264.562C130.685 264.851 130.386 265.052 130.003 265.164C130.489 265.267 130.853 265.472 131.095 265.78C131.338 266.088 131.459 266.466 131.459 266.914C131.459 267.595 131.198 268.113 130.675 268.468C130.162 268.823 129.425 269 128.463 269H125.215V261.72ZM126.391 265.836V267.894H128.337C128.963 267.894 129.434 267.815 129.751 267.656C130.069 267.488 130.227 267.227 130.227 266.872C130.227 266.499 130.083 266.233 129.793 266.074C129.513 265.915 129.075 265.836 128.477 265.836H126.391ZM126.391 262.826V264.73H128.603C129.042 264.73 129.383 264.646 129.625 264.478C129.868 264.31 129.989 264.063 129.989 263.736C129.989 263.54 129.943 263.386 129.849 263.274C129.765 263.153 129.644 263.059 129.485 262.994C129.327 262.929 129.135 262.887 128.911 262.868C128.697 262.84 128.459 262.826 128.197 262.826H126.391ZM132.694 268.202C132.694 268.015 132.774 267.838 132.932 267.67C133.091 267.502 133.301 267.418 133.562 267.418C133.805 267.418 134.006 267.502 134.164 267.67C134.323 267.838 134.402 268.015 134.402 268.202C134.402 268.417 134.323 268.608 134.164 268.776C134.006 268.944 133.805 269.028 133.562 269.028C133.301 269.028 133.091 268.944 132.932 268.776C132.774 268.608 132.694 268.417 132.694 268.202Z" fill="#777F8C"/>
<rect x="92" y="93" width="60" height="156" fill="#5FAF2D"/>
<rect x="92" y="93" width="60" height="4" fill="#3D7917"/>
<path d="M104.836 81.62H97.5088V80.532L105.006 72.1H106.264V80.175H108.474V81.62H106.264V84H104.836V81.62ZM104.836 80.175V74.48L99.5488 80.175H104.836ZM121.022 81.62H113.695V80.532L121.192 72.1H122.45V80.175H124.66V81.62H122.45V84H121.022V81.62ZM121.022 80.175V74.48L115.735 80.175H121.022ZM130.234 84.153C129.203 84.153 128.319 83.9547 127.582 83.558C126.857 83.1613 126.313 82.657 125.95 82.045L127.174 81.195C127.526 81.6823 127.985 82.0563 128.551 82.317C129.129 82.5777 129.758 82.708 130.438 82.708C130.96 82.708 131.436 82.606 131.866 82.402C132.308 82.1867 132.688 81.892 133.005 81.518C133.334 81.144 133.589 80.702 133.77 80.192C133.952 79.682 134.042 79.1267 134.042 78.526C134.042 78.458 134.042 78.39 134.042 78.322C134.042 78.254 134.037 78.186 134.025 78.118C133.753 78.764 133.289 79.3023 132.631 79.733C131.985 80.1523 131.164 80.362 130.166 80.362C129.509 80.362 128.903 80.2657 128.347 80.073C127.792 79.869 127.31 79.5913 126.902 79.24C126.494 78.8773 126.177 78.4467 125.95 77.948C125.724 77.4493 125.61 76.894 125.61 76.282C125.61 75.6247 125.729 75.0297 125.967 74.497C126.217 73.953 126.562 73.494 127.004 73.12C127.446 72.746 127.973 72.457 128.585 72.253C129.209 72.049 129.894 71.947 130.642 71.947C131.402 71.947 132.082 72.0773 132.682 72.338C133.294 72.5873 133.81 72.9613 134.229 73.46C134.66 73.9587 134.989 74.5763 135.215 75.313C135.442 76.0383 135.555 76.877 135.555 77.829C135.555 78.8717 135.425 79.7897 135.164 80.583C134.915 81.365 134.552 82.0223 134.076 82.555C133.612 83.0763 133.051 83.473 132.393 83.745C131.747 84.017 131.028 84.153 130.234 84.153ZM130.438 78.917C130.926 78.917 131.368 78.849 131.764 78.713C132.161 78.577 132.495 78.39 132.767 78.152C133.051 77.9027 133.266 77.6137 133.413 77.285C133.561 76.9563 133.634 76.605 133.634 76.231C133.634 75.8683 133.578 75.517 133.464 75.177C133.351 74.837 133.17 74.5367 132.92 74.276C132.671 74.004 132.342 73.7887 131.934 73.63C131.538 73.4713 131.05 73.392 130.472 73.392C129.418 73.392 128.591 73.63 127.99 74.106C127.401 74.5707 127.106 75.2563 127.106 76.163C127.106 77.0243 127.407 77.6987 128.007 78.186C128.608 78.6733 129.418 78.917 130.438 78.917ZM137.119 75.585C137.221 75.0977 137.391 74.633 137.629 74.191C137.867 73.749 138.173 73.3637 138.547 73.035C138.921 72.695 139.369 72.4287 139.89 72.236C140.411 72.0433 141.006 71.947 141.675 71.947C142.298 71.947 142.854 72.0377 143.341 72.219C143.828 72.389 144.242 72.6327 144.582 72.95C144.922 73.2673 145.177 73.647 145.347 74.089C145.528 74.531 145.619 75.0127 145.619 75.534C145.619 76.2707 145.46 76.9507 145.143 77.574C144.837 78.186 144.446 78.747 143.97 79.257C143.494 79.767 142.973 80.2317 142.406 80.651C141.839 81.059 141.301 81.4217 140.791 81.739L139.482 82.555H146.061V84H136.796V82.81L139.38 81.093C140.23 80.5263 140.955 80.005 141.556 79.529C142.157 79.0417 142.644 78.5827 143.018 78.152C143.403 77.7213 143.681 77.3077 143.851 76.911C144.032 76.503 144.123 76.095 144.123 75.687C144.123 75.2677 144.055 74.9107 143.919 74.616C143.794 74.3213 143.613 74.0833 143.375 73.902C143.148 73.7207 142.876 73.5903 142.559 73.511C142.253 73.4317 141.924 73.392 141.573 73.392C141.063 73.392 140.621 73.4713 140.247 73.63C139.884 73.7887 139.573 73.9983 139.312 74.259C139.063 74.5083 138.864 74.7917 138.717 75.109C138.581 75.415 138.49 75.721 138.445 76.027L137.119 75.585Z" fill="#222429"/>
<path d="M234.332 259.2H235.606V269H234.332V259.2ZM237.992 259.2H239.266V269H237.992V259.2ZM245.297 261.72H246.473V264.982L250.085 261.72H251.737L247.971 265.066L251.919 269H250.267L247.075 265.794L246.473 266.354V269H245.297V261.72ZM253.046 261.72H256.07C257.068 261.72 257.815 261.86 258.31 262.14C258.804 262.411 259.052 262.891 259.052 263.582C259.052 263.937 258.944 264.263 258.73 264.562C258.515 264.851 258.216 265.052 257.834 265.164C258.319 265.267 258.683 265.472 258.926 265.78C259.168 266.088 259.29 266.466 259.29 266.914C259.29 267.595 259.028 268.113 258.506 268.468C257.992 268.823 257.255 269 256.294 269H253.046V261.72ZM254.222 265.836V267.894H256.168C256.793 267.894 257.264 267.815 257.582 267.656C257.899 267.488 258.058 267.227 258.058 266.872C258.058 266.499 257.913 266.233 257.624 266.074C257.344 265.915 256.905 265.836 256.308 265.836H254.222ZM254.222 262.826V264.73H256.434C256.872 264.73 257.213 264.646 257.456 264.478C257.698 264.31 257.82 264.063 257.82 263.736C257.82 263.54 257.773 263.386 257.68 263.274C257.596 263.153 257.474 263.059 257.316 262.994C257.157 262.929 256.966 262.887 256.742 262.868C256.527 262.84 256.289 262.826 256.028 262.826H254.222ZM260.525 268.202C260.525 268.015 260.604 267.838 260.763 267.67C260.921 267.502 261.131 267.418 261.393 267.418C261.635 267.418 261.836 267.502 261.995 267.67C262.153 267.838 262.233 268.015 262.233 268.202C262.233 268.417 262.153 268.608 261.995 268.776C261.836 268.944 261.635 269.028 261.393 269.028C261.131 269.028 260.921 268.944 260.763 268.776C260.604 268.608 260.525 268.417 260.525 268.202Z" fill="#777F8C"/>
<rect x="218" y="102" width="60" height="147" fill="#5FAF2D"/>
<rect x="218" y="102" width="60" height="4" fill="#3D7917"/>
<path d="M231.218 90.62H223.891V89.532L231.388 81.1H232.646V89.175H234.856V90.62H232.646V93H231.218V90.62ZM231.218 89.175V83.48L225.931 89.175H231.218ZM240.74 84.585C240.842 84.0977 241.012 83.633 241.25 83.191C241.488 82.749 241.794 82.3637 242.168 82.035C242.542 81.695 242.99 81.4287 243.511 81.236C244.032 81.0433 244.627 80.947 245.296 80.947C245.919 80.947 246.475 81.0377 246.962 81.219C247.449 81.389 247.863 81.6327 248.203 81.95C248.543 82.2673 248.798 82.647 248.968 83.089C249.149 83.531 249.24 84.0127 249.24 84.534C249.24 85.2707 249.081 85.9507 248.764 86.574C248.458 87.186 248.067 87.747 247.591 88.257C247.115 88.767 246.594 89.2317 246.027 89.651C245.46 90.059 244.922 90.4217 244.412 90.739L243.103 91.555H249.682V93H240.417V91.81L243.001 90.093C243.851 89.5263 244.576 89.005 245.177 88.529C245.778 88.0417 246.265 87.5827 246.639 87.152C247.024 86.7213 247.302 86.3077 247.472 85.911C247.653 85.503 247.744 85.095 247.744 84.687C247.744 84.2677 247.676 83.9107 247.54 83.616C247.415 83.3213 247.234 83.0833 246.996 82.902C246.769 82.7207 246.497 82.5903 246.18 82.511C245.874 82.4317 245.545 82.392 245.194 82.392C244.684 82.392 244.242 82.4713 243.868 82.63C243.505 82.7887 243.194 82.9983 242.933 83.259C242.684 83.5083 242.485 83.7917 242.338 84.109C242.202 84.415 242.111 84.721 242.066 85.027L240.74 84.585ZM252.237 81.1H259.717V82.545H253.546L253.104 85.741C253.365 85.5483 253.716 85.3897 254.158 85.265C254.612 85.129 255.161 85.061 255.807 85.061C256.521 85.061 257.156 85.163 257.711 85.367C258.267 85.571 258.731 85.8543 259.105 86.217C259.479 86.5797 259.763 87.0047 259.955 87.492C260.159 87.9793 260.261 88.5007 260.261 89.056C260.261 89.6567 260.142 90.2063 259.904 90.705C259.678 91.2037 259.355 91.6343 258.935 91.997C258.527 92.3597 258.04 92.643 257.473 92.847C256.918 93.051 256.312 93.153 255.654 93.153C255.11 93.153 254.589 93.0907 254.09 92.966C253.592 92.8413 253.127 92.6543 252.696 92.405C252.277 92.1557 251.903 91.8553 251.574 91.504C251.257 91.1413 251.002 90.722 250.809 90.246L252.169 89.668C252.283 89.9287 252.441 90.1837 252.645 90.433C252.849 90.671 253.099 90.8863 253.393 91.079C253.688 91.2717 254.022 91.4247 254.396 91.538C254.77 91.6513 255.19 91.708 255.654 91.708C256.176 91.708 256.629 91.64 257.014 91.504C257.411 91.3567 257.74 91.164 258 90.926C258.261 90.688 258.454 90.416 258.578 90.11C258.703 89.7927 258.765 89.4583 258.765 89.107C258.765 88.3023 258.465 87.6677 257.864 87.203C257.275 86.7383 256.453 86.506 255.399 86.506C254.799 86.506 254.294 86.591 253.886 86.761C253.49 86.9197 253.116 87.1747 252.764 87.526L251.54 87.203L252.237 81.1ZM266.924 93.153C266.13 93.153 265.411 93.0283 264.765 92.779C264.13 92.5297 263.586 92.1613 263.133 91.674C262.679 91.1753 262.328 90.569 262.079 89.855C261.841 89.141 261.722 88.3137 261.722 87.373C261.722 86.3077 261.863 85.3727 262.147 84.568C262.43 83.7633 262.81 83.0947 263.286 82.562C263.773 82.018 264.334 81.6157 264.969 81.355C265.615 81.083 266.295 80.947 267.009 80.947C268.04 80.947 268.918 81.1567 269.644 81.576C270.369 81.9953 270.896 82.562 271.225 83.276L270.069 84.058C269.74 83.548 269.315 83.1457 268.794 82.851C268.284 82.545 267.666 82.392 266.941 82.392C266.374 82.392 265.864 82.5053 265.411 82.732C264.957 82.9473 264.566 83.2647 264.238 83.684C263.909 84.092 263.654 84.5907 263.473 85.18C263.291 85.758 263.195 86.4097 263.184 87.135V87.322C263.342 86.948 263.558 86.6193 263.83 86.336C264.113 86.0527 264.43 85.8147 264.782 85.622C265.133 85.4293 265.507 85.2877 265.904 85.197C266.312 85.095 266.725 85.044 267.145 85.044C267.836 85.044 268.459 85.1403 269.015 85.333C269.57 85.5257 270.04 85.7977 270.426 86.149C270.822 86.5003 271.123 86.9197 271.327 87.407C271.531 87.8943 271.633 88.4327 271.633 89.022C271.633 89.634 271.508 90.195 271.259 90.705C271.021 91.215 270.686 91.6513 270.256 92.014C269.836 92.3767 269.338 92.66 268.76 92.864C268.193 93.0567 267.581 93.153 266.924 93.153ZM266.907 91.708C267.383 91.708 267.813 91.6457 268.199 91.521C268.595 91.3963 268.935 91.2207 269.219 90.994C269.513 90.756 269.74 90.4783 269.899 90.161C270.057 89.8437 270.137 89.4867 270.137 89.09C270.137 88.6593 270.057 88.2853 269.899 87.968C269.751 87.6393 269.542 87.3673 269.27 87.152C268.998 86.9253 268.669 86.761 268.284 86.659C267.91 86.5457 267.502 86.489 267.06 86.489C265.972 86.489 265.144 86.7213 264.578 87.186C264.022 87.6507 263.745 88.2457 263.745 88.971C263.745 89.345 263.818 89.6963 263.966 90.025C264.113 90.3537 264.323 90.6427 264.595 90.892C264.867 91.1413 265.195 91.3397 265.581 91.487C265.977 91.6343 266.419 91.708 266.907 91.708Z" fill="#222429"/>
<path d="M358.501 259.2H359.775V269H358.501V259.2ZM362.162 259.2H363.436V269H362.162V259.2ZM365.823 259.2H367.097V269H365.823V259.2ZM373.127 261.72H374.303V264.982L377.915 261.72H379.567L375.801 265.066L379.749 269H378.097L374.905 265.794L374.303 266.354V269H373.127V261.72ZM380.876 261.72H383.9C384.899 261.72 385.645 261.86 386.14 262.14C386.635 262.411 386.882 262.891 386.882 263.582C386.882 263.937 386.775 264.263 386.56 264.562C386.345 264.851 386.047 265.052 385.664 265.164C386.149 265.267 386.513 265.472 386.756 265.78C386.999 266.088 387.12 266.466 387.12 266.914C387.12 267.595 386.859 268.113 386.336 268.468C385.823 268.823 385.085 269 384.124 269H380.876V261.72ZM382.052 265.836V267.894H383.998C384.623 267.894 385.095 267.815 385.412 267.656C385.729 267.488 385.888 267.227 385.888 266.872C385.888 266.499 385.743 266.233 385.454 266.074C385.174 265.915 384.735 265.836 384.138 265.836H382.052ZM382.052 262.826V264.73H384.264C384.703 264.73 385.043 264.646 385.286 264.478C385.529 264.31 385.65 264.063 385.65 263.736C385.65 263.54 385.603 263.386 385.51 263.274C385.426 263.153 385.305 263.059 385.146 262.994C384.987 262.929 384.796 262.887 384.572 262.868C384.357 262.84 384.119 262.826 383.858 262.826H382.052ZM388.355 268.202C388.355 268.015 388.435 267.838 388.593 267.67C388.752 267.502 388.962 267.418 389.223 267.418C389.466 267.418 389.667 267.502 389.825 267.67C389.984 267.838 390.063 268.015 390.063 268.202C390.063 268.417 389.984 268.608 389.825 268.776C389.667 268.944 389.466 269.028 389.223 269.028C388.962 269.028 388.752 268.944 388.593 268.776C388.435 268.608 388.355 268.417 388.355 268.202Z" fill="#777F8C"/>
<rect x="344" y="102" width="60" height="147" fill="#5FAF2D"/>
<rect x="344" y="102" width="60" height="4" fill="#3D7917"/>
<path d="M358.728 90.62H351.401V89.532L358.898 81.1H360.156V89.175H362.366V90.62H360.156V93H358.728V90.62ZM358.728 89.175V83.48L353.441 89.175H358.728ZM371.532 81.032H372.501V93H371.073V82.851L367.996 84.262L367.452 82.987L371.532 81.032ZM380.058 86.217C380.443 86.217 380.8 86.1717 381.129 86.081C381.469 85.979 381.764 85.843 382.013 85.673C382.262 85.503 382.455 85.299 382.591 85.061C382.738 84.823 382.812 84.5623 382.812 84.279C382.812 83.667 382.557 83.2023 382.047 82.885C381.548 82.5563 380.783 82.392 379.752 82.392C378.755 82.392 378.001 82.5563 377.491 82.885C376.992 83.2137 376.743 83.6783 376.743 84.279C376.743 84.551 376.811 84.806 376.947 85.044C377.083 85.282 377.27 85.4917 377.508 85.673C377.757 85.843 378.052 85.979 378.392 86.081C378.743 86.1717 379.123 86.217 379.531 86.217H380.058ZM379.599 87.56C379.123 87.56 378.681 87.6167 378.273 87.73C377.876 87.832 377.536 87.9793 377.253 88.172C376.97 88.3533 376.749 88.5743 376.59 88.835C376.431 89.0843 376.352 89.3507 376.352 89.634C376.352 90.246 376.635 90.7447 377.202 91.13C377.78 91.5153 378.636 91.708 379.769 91.708C380.936 91.708 381.798 91.5267 382.353 91.164C382.908 90.79 383.186 90.2857 383.186 89.651C383.186 88.9823 382.897 88.4667 382.319 88.104C381.752 87.7413 380.987 87.56 380.024 87.56H379.599ZM379.786 93.153C379.027 93.153 378.341 93.0793 377.729 92.932C377.128 92.7733 376.613 92.5523 376.182 92.269C375.763 91.9743 375.434 91.623 375.196 91.215C374.969 90.7957 374.856 90.3197 374.856 89.787C374.856 89.0843 375.066 88.478 375.485 87.968C375.916 87.4467 376.488 87.0727 377.202 86.846C376.862 86.7327 376.567 86.5853 376.318 86.404C376.069 86.2113 375.865 85.996 375.706 85.758C375.547 85.52 375.428 85.2707 375.349 85.01C375.281 84.738 375.247 84.4603 375.247 84.177C375.247 83.191 375.632 82.409 376.403 81.831C377.185 81.2417 378.307 80.947 379.769 80.947C381.242 80.947 382.364 81.2417 383.135 81.831C383.917 82.409 384.308 83.191 384.308 84.177C384.308 84.789 384.138 85.3047 383.798 85.724C383.469 86.1433 383.01 86.489 382.421 86.761C383.237 87.0103 383.815 87.3843 384.155 87.883C384.506 88.3817 384.682 88.9937 384.682 89.719C384.682 90.263 384.569 90.7503 384.342 91.181C384.115 91.6003 383.787 91.9573 383.356 92.252C382.937 92.5467 382.421 92.7733 381.809 92.932C381.208 93.0793 380.534 93.153 379.786 93.153ZM391.397 86.217C391.782 86.217 392.139 86.1717 392.468 86.081C392.808 85.979 393.102 85.843 393.352 85.673C393.601 85.503 393.794 85.299 393.93 85.061C394.077 84.823 394.151 84.5623 394.151 84.279C394.151 83.667 393.896 83.2023 393.386 82.885C392.887 82.5563 392.122 82.392 391.091 82.392C390.093 82.392 389.34 82.5563 388.83 82.885C388.331 83.2137 388.082 83.6783 388.082 84.279C388.082 84.551 388.15 84.806 388.286 85.044C388.422 85.282 388.609 85.4917 388.847 85.673C389.096 85.843 389.391 85.979 389.731 86.081C390.082 86.1717 390.462 86.217 390.87 86.217H391.397ZM390.938 87.56C390.462 87.56 390.02 87.6167 389.612 87.73C389.215 87.832 388.875 87.9793 388.592 88.172C388.308 88.3533 388.087 88.5743 387.929 88.835C387.77 89.0843 387.691 89.3507 387.691 89.634C387.691 90.246 387.974 90.7447 388.541 91.13C389.119 91.5153 389.974 91.708 391.108 91.708C392.275 91.708 393.136 91.5267 393.692 91.164C394.247 90.79 394.525 90.2857 394.525 89.651C394.525 88.9823 394.236 88.4667 393.658 88.104C393.091 87.7413 392.326 87.56 391.363 87.56H390.938ZM391.125 93.153C390.365 93.153 389.68 93.0793 389.068 92.932C388.467 92.7733 387.951 92.5523 387.521 92.269C387.101 91.9743 386.773 91.623 386.535 91.215C386.308 90.7957 386.195 90.3197 386.195 89.787C386.195 89.0843 386.404 88.478 386.824 87.968C387.254 87.4467 387.827 87.0727 388.541 86.846C388.201 86.7327 387.906 86.5853 387.657 86.404C387.407 86.2113 387.203 85.996 387.045 85.758C386.886 85.52 386.767 85.2707 386.688 85.01C386.62 84.738 386.586 84.4603 386.586 84.177C386.586 83.191 386.971 82.409 387.742 81.831C388.524 81.2417 389.646 80.947 391.108 80.947C392.581 80.947 393.703 81.2417 394.474 81.831C395.256 82.409 395.647 83.191 395.647 84.177C395.647 84.789 395.477 85.3047 395.137 85.724C394.808 86.1433 394.349 86.489 393.76 86.761C394.576 87.0103 395.154 87.3843 395.494 87.883C395.845 88.3817 396.021 88.9937 396.021 89.719C396.021 90.263 395.907 90.7503 395.681 91.181C395.454 91.6003 395.125 91.9573 394.695 92.252C394.275 92.5467 393.76 92.7733 393.148 92.932C392.547 93.0793 391.873 93.153 391.125 93.153Z" fill="#222429"/>
<path d="M483.385 259.2H484.659V269H483.385V259.2ZM491.204 269H490.28L485.856 259.2H487.228L490.77 267.208L494.074 259.2H495.404L491.204 269ZM500.243 261.72H501.419V264.982L505.031 261.72H506.683L502.917 265.066L506.865 269H505.213L502.021 265.794L501.419 266.354V269H500.243V261.72ZM507.992 261.72H511.016C512.015 261.72 512.761 261.86 513.256 262.14C513.751 262.411 513.998 262.891 513.998 263.582C513.998 263.937 513.891 264.263 513.676 264.562C513.461 264.851 513.163 265.052 512.78 265.164C513.265 265.267 513.629 265.472 513.872 265.78C514.115 266.088 514.236 266.466 514.236 266.914C514.236 267.595 513.975 268.113 513.452 268.468C512.939 268.823 512.201 269 511.24 269H507.992V261.72ZM509.168 265.836V267.894H511.114C511.739 267.894 512.211 267.815 512.528 267.656C512.845 267.488 513.004 267.227 513.004 266.872C513.004 266.499 512.859 266.233 512.57 266.074C512.29 265.915 511.851 265.836 511.254 265.836H509.168ZM509.168 262.826V264.73H511.38C511.819 264.73 512.159 264.646 512.402 264.478C512.645 264.31 512.766 264.063 512.766 263.736C512.766 263.54 512.719 263.386 512.626 263.274C512.542 263.153 512.421 263.059 512.262 262.994C512.103 262.929 511.912 262.887 511.688 262.868C511.473 262.84 511.235 262.826 510.974 262.826H509.168ZM515.471 268.202C515.471 268.015 515.55 267.838 515.709 267.67C515.868 267.502 516.078 267.418 516.339 267.418C516.582 267.418 516.782 267.502 516.941 267.67C517.1 267.838 517.179 268.015 517.179 268.202C517.179 268.417 517.1 268.608 516.941 268.776C516.782 268.944 516.582 269.028 516.339 269.028C516.078 269.028 515.868 268.944 515.709 268.776C515.55 268.608 515.471 268.417 515.471 268.202Z" fill="#777F8C"/>
<rect x="470" y="49" width="60" height="200" fill="#5FAF2D"/>
<rect x="470" y="49" width="60" height="4" fill="#3D7917"/>
<path d="M478.355 28.1H485.835V29.545H479.664L479.222 32.741C479.483 32.5483 479.834 32.3897 480.276 32.265C480.73 32.129 481.279 32.061 481.925 32.061C482.639 32.061 483.274 32.163 483.829 32.367C484.385 32.571 484.849 32.8543 485.223 33.217C485.597 33.5797 485.881 34.0047 486.073 34.492C486.277 34.9793 486.379 35.5007 486.379 36.056C486.379 36.6567 486.26 37.2063 486.022 37.705C485.796 38.2037 485.473 38.6343 485.053 38.997C484.645 39.3597 484.158 39.643 483.591 39.847C483.036 40.051 482.43 40.153 481.772 40.153C481.228 40.153 480.707 40.0907 480.208 39.966C479.71 39.8413 479.245 39.6543 478.814 39.405C478.395 39.1557 478.021 38.8553 477.692 38.504C477.375 38.1413 477.12 37.722 476.927 37.246L478.287 36.668C478.401 36.9287 478.559 37.1837 478.763 37.433C478.967 37.671 479.217 37.8863 479.511 38.079C479.806 38.2717 480.14 38.4247 480.514 38.538C480.888 38.6513 481.308 38.708 481.772 38.708C482.294 38.708 482.747 38.64 483.132 38.504C483.529 38.3567 483.858 38.164 484.118 37.926C484.379 37.688 484.572 37.416 484.696 37.11C484.821 36.7927 484.883 36.4583 484.883 36.107C484.883 35.3023 484.583 34.6677 483.982 34.203C483.393 33.7383 482.571 33.506 481.517 33.506C480.917 33.506 480.412 33.591 480.004 33.761C479.608 33.9197 479.234 34.1747 478.882 34.526L477.658 34.203L478.355 28.1ZM492.214 28.1H501.241V29.069L495.325 40H493.71L499.422 29.545H492.214V28.1ZM507.518 40.153C506.725 40.153 506.005 40.0283 505.359 39.779C504.725 39.5297 504.181 39.1613 503.727 38.674C503.274 38.1753 502.923 37.569 502.673 36.855C502.435 36.141 502.316 35.3137 502.316 34.373C502.316 33.3077 502.458 32.3727 502.741 31.568C503.025 30.7633 503.404 30.0947 503.88 29.562C504.368 29.018 504.929 28.6157 505.563 28.355C506.209 28.083 506.889 27.947 507.603 27.947C508.635 27.947 509.513 28.1567 510.238 28.576C510.964 28.9953 511.491 29.562 511.819 30.276L510.663 31.058C510.335 30.548 509.91 30.1457 509.388 29.851C508.878 29.545 508.261 29.392 507.535 29.392C506.969 29.392 506.459 29.5053 506.005 29.732C505.552 29.9473 505.161 30.2647 504.832 30.684C504.504 31.092 504.249 31.5907 504.067 32.18C503.886 32.758 503.79 33.4097 503.778 34.135V34.322C503.937 33.948 504.152 33.6193 504.424 33.336C504.708 33.0527 505.025 32.8147 505.376 32.622C505.728 32.4293 506.102 32.2877 506.498 32.197C506.906 32.095 507.32 32.044 507.739 32.044C508.431 32.044 509.054 32.1403 509.609 32.333C510.165 32.5257 510.635 32.7977 511.02 33.149C511.417 33.5003 511.717 33.9197 511.921 34.407C512.125 34.8943 512.227 35.4327 512.227 36.022C512.227 36.634 512.103 37.195 511.853 37.705C511.615 38.215 511.281 38.6513 510.85 39.014C510.431 39.3767 509.932 39.66 509.354 39.864C508.788 40.0567 508.176 40.153 507.518 40.153ZM507.501 38.708C507.977 38.708 508.408 38.6457 508.793 38.521C509.19 38.3963 509.53 38.2207 509.813 37.994C510.108 37.756 510.335 37.4783 510.493 37.161C510.652 36.8437 510.731 36.4867 510.731 36.09C510.731 35.6593 510.652 35.2853 510.493 34.968C510.346 34.6393 510.136 34.3673 509.864 34.152C509.592 33.9253 509.264 33.761 508.878 33.659C508.504 33.5457 508.096 33.489 507.654 33.489C506.566 33.489 505.739 33.7213 505.172 34.186C504.617 34.6507 504.339 35.2457 504.339 35.971C504.339 36.345 504.413 36.6963 504.56 37.025C504.708 37.3537 504.917 37.6427 505.189 37.892C505.461 38.1413 505.79 38.3397 506.175 38.487C506.572 38.6343 507.014 38.708 507.501 38.708ZM514.829 28.1H522.309V29.545H516.138L515.696 32.741C515.957 32.5483 516.308 32.3897 516.75 32.265C517.203 32.129 517.753 32.061 518.399 32.061C519.113 32.061 519.748 32.163 520.303 32.367C520.858 32.571 521.323 32.8543 521.697 33.217C522.071 33.5797 522.354 34.0047 522.547 34.492C522.751 34.9793 522.853 35.5007 522.853 36.056C522.853 36.6567 522.734 37.2063 522.496 37.705C522.269 38.2037 521.946 38.6343 521.527 38.997C521.119 39.3597 520.632 39.643 520.065 39.847C519.51 40.051 518.903 40.153 518.246 40.153C517.702 40.153 517.181 40.0907 516.682 39.966C516.183 39.8413 515.719 39.6543 515.288 39.405C514.869 39.1557 514.495 38.8553 514.166 38.504C513.849 38.1413 513.594 37.722 513.401 37.246L514.761 36.668C514.874 36.9287 515.033 37.1837 515.237 37.433C515.441 37.671 515.69 37.8863 515.985 38.079C516.28 38.2717 516.614 38.4247 516.988 38.538C517.362 38.6513 517.781 38.708 518.246 38.708C518.767 38.708 519.221 38.64 519.606 38.504C520.003 38.3567 520.331 38.164 520.592 37.926C520.853 37.688 521.045 37.416 521.17 37.11C521.295 36.7927 521.357 36.4583 521.357 36.107C521.357 35.3023 521.057 34.6677 520.456 34.203C519.867 33.7383 519.045 33.506 517.991 33.506C517.39 33.506 516.886 33.591 516.478 33.761C516.081 33.9197 515.707 34.1747 515.356 34.526L514.132 34.203L514.829 28.1Z" fill="#222429"/>
<path d="M614.162 259.2H615.436V269H614.162V259.2ZM621.467 261.72H622.643V264.982L626.255 261.72H627.907L624.141 265.066L628.089 269H626.437L623.245 265.794L622.643 266.354V269H621.467V261.72ZM629.215 261.72H632.239C633.238 261.72 633.985 261.86 634.479 262.14C634.974 262.411 635.221 262.891 635.221 263.582C635.221 263.937 635.114 264.263 634.899 264.562C634.685 264.851 634.386 265.052 634.003 265.164C634.489 265.267 634.853 265.472 635.095 265.78C635.338 266.088 635.459 266.466 635.459 266.914C635.459 267.595 635.198 268.113 634.675 268.468C634.162 268.823 633.425 269 632.463 269H629.215V261.72ZM630.391 265.836V267.894H632.337C632.963 267.894 633.434 267.815 633.751 267.656C634.069 267.488 634.227 267.227 634.227 266.872C634.227 266.499 634.083 266.233 633.793 266.074C633.513 265.915 633.075 265.836 632.477 265.836H630.391ZM630.391 262.826V264.73H632.603C633.042 264.73 633.383 264.646 633.625 264.478C633.868 264.31 633.989 264.063 633.989 263.736C633.989 263.54 633.943 263.386 633.849 263.274C633.765 263.153 633.644 263.059 633.485 262.994C633.327 262.929 633.135 262.887 632.911 262.868C632.697 262.84 632.459 262.826 632.197 262.826H630.391ZM636.694 268.202C636.694 268.015 636.774 267.838 636.932 267.67C637.091 267.502 637.301 267.418 637.562 267.418C637.805 267.418 638.006 267.502 638.164 267.67C638.323 267.838 638.402 268.015 638.402 268.202C638.402 268.417 638.323 268.608 638.164 268.776C638.006 268.944 637.805 269.028 637.562 269.028C637.301 269.028 637.091 268.944 636.932 268.776C636.774 268.608 636.694 268.417 636.694 268.202Z" fill="#777F8C"/>
<rect x="596" y="22" width="60" height="227" fill="#5FAF2D"/>
<rect x="596" y="22" width="60" height="4" fill="#3D7917"/>
<path d="M609.529 13.153C608.736 13.153 608.016 13.0283 607.37 12.779C606.736 12.5297 606.192 12.1613 605.738 11.674C605.285 11.1753 604.934 10.569 604.684 9.855C604.446 9.141 604.327 8.31367 604.327 7.373C604.327 6.30767 604.469 5.37267 604.752 4.568C605.036 3.76333 605.415 3.09467 605.891 2.562C606.379 2.018 606.94 1.61567 607.574 1.355C608.22 1.083 608.9 0.946999 609.614 0.946999C610.646 0.946999 611.524 1.15667 612.249 1.576C612.975 1.99533 613.502 2.562 613.83 3.276L612.674 4.058C612.346 3.548 611.921 3.14567 611.399 2.851C610.889 2.545 610.272 2.392 609.546 2.392C608.98 2.392 608.47 2.50533 608.016 2.732C607.563 2.94733 607.172 3.26467 606.843 3.684C606.515 4.092 606.26 4.59067 606.078 5.18C605.897 5.758 605.801 6.40967 605.789 7.135V7.322C605.948 6.948 606.163 6.61933 606.435 6.336C606.719 6.05267 607.036 5.81467 607.387 5.622C607.739 5.42933 608.113 5.28767 608.509 5.197C608.917 5.095 609.331 5.044 609.75 5.044C610.442 5.044 611.065 5.14033 611.62 5.333C612.176 5.52567 612.646 5.79767 613.031 6.149C613.428 6.50033 613.728 6.91967 613.932 7.407C614.136 7.89433 614.238 8.43267 614.238 9.022C614.238 9.634 614.114 10.195 613.864 10.705C613.626 11.215 613.292 11.6513 612.861 12.014C612.442 12.3767 611.943 12.66 611.365 12.864C610.799 13.0567 610.187 13.153 609.529 13.153ZM609.512 11.708C609.988 11.708 610.419 11.6457 610.804 11.521C611.201 11.3963 611.541 11.2207 611.824 10.994C612.119 10.756 612.346 10.4783 612.504 10.161C612.663 9.84367 612.742 9.48667 612.742 9.09C612.742 8.65933 612.663 8.28533 612.504 7.968C612.357 7.63933 612.147 7.36733 611.875 7.152C611.603 6.92533 611.275 6.761 610.889 6.659C610.515 6.54567 610.107 6.489 609.665 6.489C608.577 6.489 607.75 6.72133 607.183 7.186C606.628 7.65067 606.35 8.24567 606.35 8.971C606.35 9.345 606.424 9.69633 606.571 10.025C606.719 10.3537 606.928 10.6427 607.2 10.892C607.472 11.1413 607.801 11.3397 608.186 11.487C608.583 11.6343 609.025 11.708 609.512 11.708ZM621.605 1.1H629.085V2.545H622.914L622.472 5.741C622.732 5.54833 623.084 5.38967 623.526 5.265C623.979 5.129 624.529 5.061 625.175 5.061C625.889 5.061 626.523 5.163 627.079 5.367C627.634 5.571 628.099 5.85433 628.473 6.217C628.847 6.57967 629.13 7.00467 629.323 7.492C629.527 7.97933 629.629 8.50067 629.629 9.056C629.629 9.65667 629.51 10.2063 629.272 10.705C629.045 11.2037 628.722 11.6343 628.303 11.997C627.895 12.3597 627.407 12.643 626.841 12.847C626.285 13.051 625.679 13.153 625.022 13.153C624.478 13.153 623.956 13.0907 623.458 12.966C622.959 12.8413 622.494 12.6543 622.064 12.405C621.644 12.1557 621.27 11.8553 620.942 11.504C620.624 11.1413 620.369 10.722 620.177 10.246L621.537 9.668C621.65 9.92867 621.809 10.1837 622.013 10.433C622.217 10.671 622.466 10.8863 622.761 11.079C623.055 11.2717 623.39 11.4247 623.764 11.538C624.138 11.6513 624.557 11.708 625.022 11.708C625.543 11.708 625.996 11.64 626.382 11.504C626.778 11.3567 627.107 11.164 627.368 10.926C627.628 10.688 627.821 10.416 627.946 10.11C628.07 9.79267 628.133 9.45833 628.133 9.107C628.133 8.30233 627.832 7.66767 627.232 7.203C626.642 6.73833 625.821 6.506 624.767 6.506C624.166 6.506 623.662 6.591 623.254 6.761C622.857 6.91967 622.483 7.17467 622.132 7.526L620.908 7.203L621.605 1.1ZM634.489 1.032H635.458V13H634.03V2.851L630.953 4.262L630.409 2.987L634.489 1.032ZM642.369 13.153C641.338 13.153 640.454 12.9547 639.717 12.558C638.992 12.1613 638.448 11.657 638.085 11.045L639.309 10.195C639.66 10.6823 640.119 11.0563 640.686 11.317C641.264 11.5777 641.893 11.708 642.573 11.708C643.094 11.708 643.57 11.606 644.001 11.402C644.443 11.1867 644.823 10.892 645.14 10.518C645.469 10.144 645.724 9.702 645.905 9.192C646.086 8.682 646.177 8.12667 646.177 7.526C646.177 7.458 646.177 7.39 646.177 7.322C646.177 7.254 646.171 7.186 646.16 7.118C645.888 7.764 645.423 8.30233 644.766 8.733C644.12 9.15233 643.298 9.362 642.301 9.362C641.644 9.362 641.037 9.26567 640.482 9.073C639.927 8.869 639.445 8.59133 639.037 8.24C638.629 7.87733 638.312 7.44667 638.085 6.948C637.858 6.44933 637.745 5.894 637.745 5.282C637.745 4.62467 637.864 4.02967 638.102 3.497C638.351 2.953 638.697 2.494 639.139 2.12C639.581 1.746 640.108 1.457 640.72 1.253C641.343 1.049 642.029 0.946999 642.777 0.946999C643.536 0.946999 644.216 1.07733 644.817 1.338C645.429 1.58733 645.945 1.96133 646.364 2.46C646.795 2.95867 647.123 3.57633 647.35 4.313C647.577 5.03833 647.69 5.877 647.69 6.829C647.69 7.87167 647.56 8.78967 647.299 9.583C647.05 10.365 646.687 11.0223 646.211 11.555C645.746 12.0763 645.185 12.473 644.528 12.745C643.882 13.017 643.162 13.153 642.369 13.153ZM642.573 7.917C643.06 7.917 643.502 7.849 643.899 7.713C644.296 7.577 644.63 7.39 644.902 7.152C645.185 6.90267 645.401 6.61367 645.548 6.285C645.695 5.95633 645.769 5.605 645.769 5.231C645.769 4.86833 645.712 4.517 645.599 4.177C645.486 3.837 645.304 3.53667 645.055 3.276C644.806 3.004 644.477 2.78867 644.069 2.63C643.672 2.47133 643.185 2.392 642.607 2.392C641.553 2.392 640.726 2.63 640.125 3.106C639.536 3.57067 639.241 4.25633 639.241 5.163C639.241 6.02433 639.541 6.69867 640.142 7.186C640.743 7.67333 641.553 7.917 642.573 7.917Z" fill="#222429"/>
<path d="M738.332 259.2H739.606V269H738.332V259.2ZM741.992 259.2H743.266V269H741.992V259.2ZM749.297 261.72H750.473V264.982L754.085 261.72H755.737L751.971 265.066L755.919 269H754.267L751.075 265.794L750.473 266.354V269H749.297V261.72ZM757.046 261.72H760.07C761.068 261.72 761.815 261.86 762.31 262.14C762.804 262.411 763.052 262.891 763.052 263.582C763.052 263.937 762.944 264.263 762.73 264.562C762.515 264.851 762.216 265.052 761.834 265.164C762.319 265.267 762.683 265.472 762.926 265.78C763.168 266.088 763.29 266.466 763.29 266.914C763.29 267.595 763.028 268.113 762.506 268.468C761.992 268.823 761.255 269 760.294 269H757.046V261.72ZM758.222 265.836V267.894H760.168C760.793 267.894 761.264 267.815 761.582 267.656C761.899 267.488 762.058 267.227 762.058 266.872C762.058 266.499 761.913 266.233 761.624 266.074C761.344 265.915 760.905 265.836 760.308 265.836H758.222ZM758.222 262.826V264.73H760.434C760.872 264.73 761.213 264.646 761.456 264.478C761.698 264.31 761.82 264.063 761.82 263.736C761.82 263.54 761.773 263.386 761.68 263.274C761.596 263.153 761.474 263.059 761.316 262.994C761.157 262.929 760.966 262.887 760.742 262.868C760.527 262.84 760.289 262.826 760.028 262.826H758.222ZM764.525 268.202C764.525 268.015 764.604 267.838 764.763 267.67C764.921 267.502 765.131 267.418 765.393 267.418C765.635 267.418 765.836 267.502 765.995 267.67C766.153 267.838 766.233 268.015 766.233 268.202C766.233 268.417 766.153 268.608 765.995 268.776C765.836 268.944 765.635 269.028 765.393 269.028C765.131 269.028 764.921 268.944 764.763 268.776C764.604 268.608 764.525 268.417 764.525 268.202Z" fill="#777F8C"/>
<rect x="722" y="65" width="60" height="184" fill="#5FAF2D"/>
<rect x="722" y="65" width="60" height="4" fill="#3D7917"/>
<path d="M731.293 44.1H738.773V45.545H732.602L732.16 48.741C732.421 48.5483 732.772 48.3897 733.214 48.265C733.668 48.129 734.217 48.061 734.863 48.061C735.577 48.061 736.212 48.163 736.767 48.367C737.323 48.571 737.787 48.8543 738.161 49.217C738.535 49.5797 738.819 50.0047 739.011 50.492C739.215 50.9793 739.317 51.5007 739.317 52.056C739.317 52.6567 739.198 53.2063 738.96 53.705C738.734 54.2037 738.411 54.6343 737.991 54.997C737.583 55.3597 737.096 55.643 736.529 55.847C735.974 56.051 735.368 56.153 734.71 56.153C734.166 56.153 733.645 56.0907 733.146 55.966C732.648 55.8413 732.183 55.6543 731.752 55.405C731.333 55.1557 730.959 54.8553 730.63 54.504C730.313 54.1413 730.058 53.722 729.865 53.246L731.225 52.668C731.339 52.9287 731.497 53.1837 731.701 53.433C731.905 53.671 732.155 53.8863 732.449 54.079C732.744 54.2717 733.078 54.4247 733.452 54.538C733.826 54.6513 734.246 54.708 734.71 54.708C735.232 54.708 735.685 54.64 736.07 54.504C736.467 54.3567 736.796 54.164 737.056 53.926C737.317 53.688 737.51 53.416 737.634 53.11C737.759 52.7927 737.821 52.4583 737.821 52.107C737.821 51.3023 737.521 50.6677 736.92 50.203C736.331 49.7383 735.509 49.506 734.455 49.506C733.855 49.506 733.35 49.591 732.942 49.761C732.546 49.9197 732.172 50.1747 731.82 50.526L730.596 50.203L731.293 44.1ZM745.662 47.585C745.764 47.0977 745.934 46.633 746.172 46.191C746.41 45.749 746.716 45.3637 747.09 45.035C747.464 44.695 747.911 44.4287 748.433 44.236C748.954 44.0433 749.549 43.947 750.218 43.947C750.841 43.947 751.396 44.0377 751.884 44.219C752.371 44.389 752.785 44.6327 753.125 44.95C753.465 45.2673 753.72 45.647 753.89 46.089C754.071 46.531 754.162 47.0127 754.162 47.534C754.162 48.2707 754.003 48.9507 753.686 49.574C753.38 50.186 752.989 50.747 752.513 51.257C752.037 51.767 751.515 52.2317 750.949 52.651C750.382 53.059 749.844 53.4217 749.334 53.739L748.025 54.555H754.604V56H745.339V54.81L747.923 53.093C748.773 52.5263 749.498 52.005 750.099 51.529C750.699 51.0417 751.187 50.5827 751.561 50.152C751.946 49.7213 752.224 49.3077 752.394 48.911C752.575 48.503 752.666 48.095 752.666 47.687C752.666 47.2677 752.598 46.9107 752.462 46.616C752.337 46.3213 752.156 46.0833 751.918 45.902C751.691 45.7207 751.419 45.5903 751.102 45.511C750.796 45.4317 750.467 45.392 750.116 45.392C749.606 45.392 749.164 45.4713 748.79 45.63C748.427 45.7887 748.115 45.9983 747.855 46.259C747.605 46.5083 747.407 46.7917 747.26 47.109C747.124 47.415 747.033 47.721 746.988 48.027L745.662 47.585ZM755.561 44.1H764.588V45.069L758.672 56H757.057L762.769 45.545H755.561V44.1ZM765.273 44.1H774.3V45.069L768.384 56H766.769L772.481 45.545H765.273V44.1Z" fill="#222429"/>
<path d="M862.501 259.2H863.775V269H862.501V259.2ZM866.162 259.2H867.436V269H866.162V259.2ZM869.823 259.2H871.097V269H869.823V259.2ZM877.127 261.72H878.303V264.982L881.915 261.72H883.567L879.801 265.066L883.749 269H882.097L878.905 265.794L878.303 266.354V269H877.127V261.72ZM884.876 261.72H887.9C888.899 261.72 889.645 261.86 890.14 262.14C890.635 262.411 890.882 262.891 890.882 263.582C890.882 263.937 890.775 264.263 890.56 264.562C890.345 264.851 890.047 265.052 889.664 265.164C890.149 265.267 890.513 265.472 890.756 265.78C890.999 266.088 891.12 266.466 891.12 266.914C891.12 267.595 890.859 268.113 890.336 268.468C889.823 268.823 889.085 269 888.124 269H884.876V261.72ZM886.052 265.836V267.894H887.998C888.623 267.894 889.095 267.815 889.412 267.656C889.729 267.488 889.888 267.227 889.888 266.872C889.888 266.499 889.743 266.233 889.454 266.074C889.174 265.915 888.735 265.836 888.138 265.836H886.052ZM886.052 262.826V264.73H888.264C888.703 264.73 889.043 264.646 889.286 264.478C889.529 264.31 889.65 264.063 889.65 263.736C889.65 263.54 889.603 263.386 889.51 263.274C889.426 263.153 889.305 263.059 889.146 262.994C888.987 262.929 888.796 262.887 888.572 262.868C888.357 262.84 888.119 262.826 887.858 262.826H886.052ZM892.355 268.202C892.355 268.015 892.435 267.838 892.593 267.67C892.752 267.502 892.962 267.418 893.223 267.418C893.466 267.418 893.667 267.502 893.825 267.67C893.984 267.838 894.063 268.015 894.063 268.202C894.063 268.417 893.984 268.608 893.825 268.776C893.667 268.944 893.466 269.028 893.223 269.028C892.962 269.028 892.752 268.944 892.593 268.776C892.435 268.608 892.355 268.417 892.355 268.202Z" fill="#777F8C"/>
<rect x="848" y="76" width="60" height="173" fill="#5FAF2D"/>
<rect x="848" y="76" width="60" height="4" fill="#3D7917"/>
<path d="M860.305 64.62H852.978V63.532L860.475 55.1H861.733V63.175H863.943V64.62H861.733V67H860.305V64.62ZM860.305 63.175V57.48L855.018 63.175H860.305ZM874.281 67.153C873.25 67.153 872.366 66.9547 871.629 66.558C870.904 66.1613 870.36 65.657 869.997 65.045L871.221 64.195C871.572 64.6823 872.031 65.0563 872.598 65.317C873.176 65.5777 873.805 65.708 874.485 65.708C875.006 65.708 875.482 65.606 875.913 65.402C876.355 65.1867 876.735 64.892 877.052 64.518C877.381 64.144 877.636 63.702 877.817 63.192C877.998 62.682 878.089 62.1267 878.089 61.526C878.089 61.458 878.089 61.39 878.089 61.322C878.089 61.254 878.083 61.186 878.072 61.118C877.8 61.764 877.335 62.3023 876.678 62.733C876.032 63.1523 875.21 63.362 874.213 63.362C873.556 63.362 872.949 63.2657 872.394 63.073C871.839 62.869 871.357 62.5913 870.949 62.24C870.541 61.8773 870.224 61.4467 869.997 60.948C869.77 60.4493 869.657 59.894 869.657 59.282C869.657 58.6247 869.776 58.0297 870.014 57.497C870.263 56.953 870.609 56.494 871.051 56.12C871.493 55.746 872.02 55.457 872.632 55.253C873.255 55.049 873.941 54.947 874.689 54.947C875.448 54.947 876.128 55.0773 876.729 55.338C877.341 55.5873 877.857 55.9613 878.276 56.46C878.707 56.9587 879.035 57.5763 879.262 58.313C879.489 59.0383 879.602 59.877 879.602 60.829C879.602 61.8717 879.472 62.7897 879.211 63.583C878.962 64.365 878.599 65.0223 878.123 65.555C877.658 66.0763 877.097 66.473 876.44 66.745C875.794 67.017 875.074 67.153 874.281 67.153ZM874.485 61.917C874.972 61.917 875.414 61.849 875.811 61.713C876.208 61.577 876.542 61.39 876.814 61.152C877.097 60.9027 877.313 60.6137 877.46 60.285C877.607 59.9563 877.681 59.605 877.681 59.231C877.681 58.8683 877.624 58.517 877.511 58.177C877.398 57.837 877.216 57.5367 876.967 57.276C876.718 57.004 876.389 56.7887 875.981 56.63C875.584 56.4713 875.097 56.392 874.519 56.392C873.465 56.392 872.638 56.63 872.037 57.106C871.448 57.5707 871.153 58.2563 871.153 59.163C871.153 60.0243 871.453 60.6987 872.054 61.186C872.655 61.6733 873.465 61.917 874.485 61.917ZM885.62 67.153C884.589 67.153 883.705 66.9547 882.968 66.558C882.243 66.1613 881.699 65.657 881.336 65.045L882.56 64.195C882.911 64.6823 883.37 65.0563 883.937 65.317C884.515 65.5777 885.144 65.708 885.824 65.708C886.345 65.708 886.821 65.606 887.252 65.402C887.694 65.1867 888.074 64.892 888.391 64.518C888.72 64.144 888.975 63.702 889.156 63.192C889.337 62.682 889.428 62.1267 889.428 61.526C889.428 61.458 889.428 61.39 889.428 61.322C889.428 61.254 889.422 61.186 889.411 61.118C889.139 61.764 888.674 62.3023 888.017 62.733C887.371 63.1523 886.549 63.362 885.552 63.362C884.895 63.362 884.288 63.2657 883.733 63.073C883.178 62.869 882.696 62.5913 882.288 62.24C881.88 61.8773 881.563 61.4467 881.336 60.948C881.109 60.4493 880.996 59.894 880.996 59.282C880.996 58.6247 881.115 58.0297 881.353 57.497C881.602 56.953 881.948 56.494 882.39 56.12C882.832 55.746 883.359 55.457 883.971 55.253C884.594 55.049 885.28 54.947 886.028 54.947C886.787 54.947 887.467 55.0773 888.068 55.338C888.68 55.5873 889.196 55.9613 889.615 56.46C890.046 56.9587 890.374 57.5763 890.601 58.313C890.828 59.0383 890.941 59.877 890.941 60.829C890.941 61.8717 890.811 62.7897 890.55 63.583C890.301 64.365 889.938 65.0223 889.462 65.555C888.997 66.0763 888.436 66.473 887.779 66.745C887.133 67.017 886.413 67.153 885.62 67.153ZM885.824 61.917C886.311 61.917 886.753 61.849 887.15 61.713C887.547 61.577 887.881 61.39 888.153 61.152C888.436 60.9027 888.652 60.6137 888.799 60.285C888.946 59.9563 889.02 59.605 889.02 59.231C889.02 58.8683 888.963 58.517 888.85 58.177C888.737 57.837 888.555 57.5367 888.306 57.276C888.057 57.004 887.728 56.7887 887.32 56.63C886.923 56.4713 886.436 56.392 885.858 56.392C884.804 56.392 883.977 56.63 883.376 57.106C882.787 57.5707 882.492 58.2563 882.492 59.163C882.492 60.0243 882.792 60.6987 883.393 61.186C883.994 61.6733 884.804 61.917 885.824 61.917ZM892.386 61.05C892.386 60.166 892.488 59.3557 892.692 58.619C892.896 57.871 893.202 57.225 893.61 56.681C894.029 56.137 894.556 55.712 895.191 55.406C895.825 55.1 896.573 54.947 897.435 54.947C898.296 54.947 899.044 55.0887 899.679 55.372C900.313 55.6553 900.84 56.0633 901.26 56.596C901.679 57.1287 901.991 57.7747 902.195 58.534C902.399 59.282 902.501 60.1207 902.501 61.05C902.501 61.934 902.399 62.75 902.195 63.498C902.002 64.2347 901.696 64.875 901.277 65.419C900.869 65.963 900.347 66.388 899.713 66.694C899.078 67 898.33 67.153 897.469 67.153C896.653 67.153 895.927 67 895.293 66.694C894.658 66.388 894.125 65.963 893.695 65.419C893.264 64.875 892.935 64.2347 892.709 63.498C892.493 62.75 892.386 61.934 892.386 61.05ZM893.882 61.05C893.882 62.5007 894.199 63.6397 894.834 64.467C895.468 65.2943 896.347 65.708 897.469 65.708C898.693 65.708 899.588 65.2943 900.155 64.467C900.721 63.6397 901.005 62.5007 901.005 61.05C901.005 59.5993 900.716 58.4603 900.138 57.633C899.56 56.8057 898.659 56.392 897.435 56.392C896.823 56.392 896.296 56.4997 895.854 56.715C895.412 56.9303 895.043 57.242 894.749 57.65C894.454 58.058 894.233 58.551 894.086 59.129C893.95 59.6957 893.882 60.336 893.882 61.05Z" fill="#222429"/>
<path d="M987.385 259.2H988.659V269H987.385V259.2ZM995.204 269H994.28L989.856 259.2H991.228L994.77 267.208L998.074 259.2H999.404L995.204 269ZM1004.24 261.72H1005.42V264.982L1009.03 261.72H1010.68L1006.92 265.066L1010.87 269H1009.21L1006.02 265.794L1005.42 266.354V269H1004.24V261.72ZM1011.99 261.72H1015.02C1016.01 261.72 1016.76 261.86 1017.26 262.14C1017.75 262.411 1018 262.891 1018 263.582C1018 263.937 1017.89 264.263 1017.68 264.562C1017.46 264.851 1017.16 265.052 1016.78 265.164C1017.27 265.267 1017.63 265.472 1017.87 265.78C1018.11 266.088 1018.24 266.466 1018.24 266.914C1018.24 267.595 1017.97 268.113 1017.45 268.468C1016.94 268.823 1016.2 269 1015.24 269H1011.99V261.72ZM1013.17 265.836V267.894H1015.11C1015.74 267.894 1016.21 267.815 1016.53 267.656C1016.85 267.488 1017 267.227 1017 266.872C1017 266.499 1016.86 266.233 1016.57 266.074C1016.29 265.915 1015.85 265.836 1015.25 265.836H1013.17ZM1013.17 262.826V264.73H1015.38C1015.82 264.73 1016.16 264.646 1016.4 264.478C1016.64 264.31 1016.77 264.063 1016.77 263.736C1016.77 263.54 1016.72 263.386 1016.63 263.274C1016.54 263.153 1016.42 263.059 1016.26 262.994C1016.1 262.929 1015.91 262.887 1015.69 262.868C1015.47 262.84 1015.24 262.826 1014.97 262.826H1013.17ZM1019.47 268.202C1019.47 268.015 1019.55 267.838 1019.71 267.67C1019.87 267.502 1020.08 267.418 1020.34 267.418C1020.58 267.418 1020.78 267.502 1020.94 267.67C1021.1 267.838 1021.18 268.015 1021.18 268.202C1021.18 268.417 1021.1 268.608 1020.94 268.776C1020.78 268.944 1020.58 269.028 1020.34 269.028C1020.08 269.028 1019.87 268.944 1019.71 268.776C1019.55 268.608 1019.47 268.417 1019.47 268.202Z" fill="#777F8C"/>
<rect x="974" y="52" width="60" height="197" fill="#5FAF2D"/>
<rect x="974" y="52" width="60" height="4" fill="#3D7917"/>
<path d="M983.858 31.1H991.338V32.545H985.167L984.725 35.741C984.986 35.5483 985.337 35.3897 985.779 35.265C986.232 35.129 986.782 35.061 987.428 35.061C988.142 35.061 988.777 35.163 989.332 35.367C989.887 35.571 990.352 35.8543 990.726 36.217C991.1 36.5797 991.383 37.0047 991.576 37.492C991.78 37.9793 991.882 38.5007 991.882 39.056C991.882 39.6567 991.763 40.2063 991.525 40.705C991.298 41.2037 990.975 41.6343 990.556 41.997C990.148 42.3597 989.661 42.643 989.094 42.847C988.539 43.051 987.932 43.153 987.275 43.153C986.731 43.153 986.21 43.0907 985.711 42.966C985.212 42.8413 984.748 42.6543 984.317 42.405C983.898 42.1557 983.524 41.8553 983.195 41.504C982.878 41.1413 982.623 40.722 982.43 40.246L983.79 39.668C983.903 39.9287 984.062 40.1837 984.266 40.433C984.47 40.671 984.719 40.8863 985.014 41.079C985.309 41.2717 985.643 41.4247 986.017 41.538C986.391 41.6513 986.81 41.708 987.275 41.708C987.796 41.708 988.25 41.64 988.635 41.504C989.032 41.3567 989.36 41.164 989.621 40.926C989.882 40.688 990.074 40.416 990.199 40.11C990.324 39.7927 990.386 39.4583 990.386 39.107C990.386 38.3023 990.086 37.6677 989.485 37.203C988.896 36.7383 988.074 36.506 987.02 36.506C986.419 36.506 985.915 36.591 985.507 36.761C985.11 36.9197 984.736 37.1747 984.385 37.526L983.161 37.203L983.858 31.1ZM1003.31 43.153C1002.52 43.153 1001.8 43.0283 1001.15 42.779C1000.52 42.5297 999.971 42.1613 999.518 41.674C999.065 41.1753 998.713 40.569 998.464 39.855C998.226 39.141 998.107 38.3137 998.107 37.373C998.107 36.3077 998.249 35.3727 998.532 34.568C998.815 33.7633 999.195 33.0947 999.671 32.562C1000.16 32.018 1000.72 31.6157 1001.35 31.355C1002 31.083 1002.68 30.947 1003.39 30.947C1004.43 30.947 1005.3 31.1567 1006.03 31.576C1006.75 31.9953 1007.28 32.562 1007.61 33.276L1006.45 34.058C1006.13 33.548 1005.7 33.1457 1005.18 32.851C1004.67 32.545 1004.05 32.392 1003.33 32.392C1002.76 32.392 1002.25 32.5053 1001.8 32.732C1001.34 32.9473 1000.95 33.2647 1000.62 33.684C1000.29 34.092 1000.04 34.5907 999.858 35.18C999.677 35.758 999.58 36.4097 999.569 37.135V37.322C999.728 36.948 999.943 36.6193 1000.21 36.336C1000.5 36.0527 1000.82 35.8147 1001.17 35.622C1001.52 35.4293 1001.89 35.2877 1002.29 35.197C1002.7 35.095 1003.11 35.044 1003.53 35.044C1004.22 35.044 1004.84 35.1403 1005.4 35.333C1005.96 35.5257 1006.43 35.7977 1006.81 36.149C1007.21 36.5003 1007.51 36.9197 1007.71 37.407C1007.92 37.8943 1008.02 38.4327 1008.02 39.022C1008.02 39.634 1007.89 40.195 1007.64 40.705C1007.41 41.215 1007.07 41.6513 1006.64 42.014C1006.22 42.3767 1005.72 42.66 1005.14 42.864C1004.58 43.0567 1003.97 43.153 1003.31 43.153ZM1003.29 41.708C1003.77 41.708 1004.2 41.6457 1004.58 41.521C1004.98 41.3963 1005.32 41.2207 1005.6 40.994C1005.9 40.756 1006.13 40.4783 1006.28 40.161C1006.44 39.8437 1006.52 39.4867 1006.52 39.09C1006.52 38.6593 1006.44 38.2853 1006.28 37.968C1006.14 37.6393 1005.93 37.3673 1005.65 37.152C1005.38 36.9253 1005.05 36.761 1004.67 36.659C1004.29 36.5457 1003.89 36.489 1003.44 36.489C1002.36 36.489 1001.53 36.7213 1000.96 37.186C1000.41 37.6507 1000.13 38.2457 1000.13 38.971C1000.13 39.345 1000.2 39.6963 1000.35 40.025C1000.5 40.3537 1000.71 40.6427 1000.98 40.892C1001.25 41.1413 1001.58 41.3397 1001.97 41.487C1002.36 41.6343 1002.8 41.708 1003.29 41.708ZM1010.62 31.1H1018.1V32.545H1011.93L1011.49 35.741C1011.75 35.5483 1012.1 35.3897 1012.54 35.265C1012.99 35.129 1013.54 35.061 1014.19 35.061C1014.9 35.061 1015.54 35.163 1016.09 35.367C1016.65 35.571 1017.11 35.8543 1017.49 36.217C1017.86 36.5797 1018.14 37.0047 1018.34 37.492C1018.54 37.9793 1018.64 38.5007 1018.64 39.056C1018.64 39.6567 1018.52 40.2063 1018.29 40.705C1018.06 41.2037 1017.74 41.6343 1017.32 41.997C1016.91 42.3597 1016.42 42.643 1015.86 42.847C1015.3 43.051 1014.69 43.153 1014.04 43.153C1013.49 43.153 1012.97 43.0907 1012.47 42.966C1011.97 42.8413 1011.51 42.6543 1011.08 42.405C1010.66 42.1557 1010.29 41.8553 1009.96 41.504C1009.64 41.1413 1009.38 40.722 1009.19 40.246L1010.55 39.668C1010.66 39.9287 1010.82 40.1837 1011.03 40.433C1011.23 40.671 1011.48 40.8863 1011.78 41.079C1012.07 41.2717 1012.4 41.4247 1012.78 41.538C1013.15 41.6513 1013.57 41.708 1014.04 41.708C1014.56 41.708 1015.01 41.64 1015.4 41.504C1015.79 41.3567 1016.12 41.164 1016.38 40.926C1016.64 40.688 1016.84 40.416 1016.96 40.11C1017.09 39.7927 1017.15 39.4583 1017.15 39.107C1017.15 38.3023 1016.85 37.6677 1016.25 37.203C1015.66 36.7383 1014.84 36.506 1013.78 36.506C1013.18 36.506 1012.68 36.591 1012.27 36.761C1011.87 36.9197 1011.5 37.1747 1011.15 37.526L1009.92 37.203L1010.62 31.1ZM1023.5 31.032H1024.47V43H1023.05V32.851L1019.97 34.262L1019.42 32.987L1023.5 31.032Z" fill="#222429"/>
<rect y="249" width="1112" height="1" fill="#9299A3"/>
<path d="M91 272V282H530V272" stroke="#B4BBC5"/>
<path d="M295.818 296.07C295.902 295.669 296.042 295.286 296.238 294.922C296.434 294.558 296.686 294.241 296.994 293.97C297.302 293.69 297.671 293.471 298.1 293.312C298.53 293.153 299.02 293.074 299.57 293.074C300.084 293.074 300.541 293.149 300.942 293.298C301.344 293.438 301.684 293.639 301.964 293.9C302.244 294.161 302.454 294.474 302.594 294.838C302.744 295.202 302.818 295.599 302.818 296.028C302.818 296.635 302.688 297.195 302.426 297.708C302.174 298.212 301.852 298.674 301.46 299.094C301.068 299.514 300.639 299.897 300.172 300.242C299.706 300.578 299.262 300.877 298.842 301.138L297.764 301.81H303.182V303H295.552V302.02L297.68 300.606C298.38 300.139 298.978 299.71 299.472 299.318C299.967 298.917 300.368 298.539 300.676 298.184C300.994 297.829 301.222 297.489 301.362 297.162C301.512 296.826 301.586 296.49 301.586 296.154C301.586 295.809 301.53 295.515 301.418 295.272C301.316 295.029 301.166 294.833 300.97 294.684C300.784 294.535 300.56 294.427 300.298 294.362C300.046 294.297 299.776 294.264 299.486 294.264C299.066 294.264 298.702 294.329 298.394 294.46C298.096 294.591 297.839 294.763 297.624 294.978C297.419 295.183 297.256 295.417 297.134 295.678C297.022 295.93 296.948 296.182 296.91 296.434L295.818 296.07ZM304.152 298.1C304.152 297.372 304.236 296.705 304.404 296.098C304.572 295.482 304.824 294.95 305.16 294.502C305.506 294.054 305.94 293.704 306.462 293.452C306.985 293.2 307.601 293.074 308.31 293.074C309.02 293.074 309.636 293.191 310.158 293.424C310.681 293.657 311.115 293.993 311.46 294.432C311.806 294.871 312.062 295.403 312.23 296.028C312.398 296.644 312.482 297.335 312.482 298.1C312.482 298.828 312.398 299.5 312.23 300.116C312.072 300.723 311.82 301.25 311.474 301.698C311.138 302.146 310.709 302.496 310.186 302.748C309.664 303 309.048 303.126 308.338 303.126C307.666 303.126 307.069 303 306.546 302.748C306.024 302.496 305.585 302.146 305.23 301.698C304.876 301.25 304.605 300.723 304.418 300.116C304.241 299.5 304.152 298.828 304.152 298.1ZM305.384 298.1C305.384 299.295 305.646 300.233 306.168 300.914C306.691 301.595 307.414 301.936 308.338 301.936C309.346 301.936 310.084 301.595 310.55 300.914C311.017 300.233 311.25 299.295 311.25 298.1C311.25 296.905 311.012 295.967 310.536 295.286C310.06 294.605 309.318 294.264 308.31 294.264C307.806 294.264 307.372 294.353 307.008 294.53C306.644 294.707 306.341 294.964 306.098 295.3C305.856 295.636 305.674 296.042 305.552 296.518C305.44 296.985 305.384 297.512 305.384 298.1ZM313.626 296.07C313.71 295.669 313.85 295.286 314.046 294.922C314.242 294.558 314.494 294.241 314.802 293.97C315.11 293.69 315.479 293.471 315.908 293.312C316.337 293.153 316.827 293.074 317.378 293.074C317.891 293.074 318.349 293.149 318.75 293.298C319.151 293.438 319.492 293.639 319.772 293.9C320.052 294.161 320.262 294.474 320.402 294.838C320.551 295.202 320.626 295.599 320.626 296.028C320.626 296.635 320.495 297.195 320.234 297.708C319.982 298.212 319.66 298.674 319.268 299.094C318.876 299.514 318.447 299.897 317.98 300.242C317.513 300.578 317.07 300.877 316.65 301.138L315.572 301.81H320.99V303H313.36V302.02L315.488 300.606C316.188 300.139 316.785 299.71 317.28 299.318C317.775 298.917 318.176 298.539 318.484 298.184C318.801 297.829 319.03 297.489 319.17 297.162C319.319 296.826 319.394 296.49 319.394 296.154C319.394 295.809 319.338 295.515 319.226 295.272C319.123 295.029 318.974 294.833 318.778 294.684C318.591 294.535 318.367 294.427 318.106 294.362C317.854 294.297 317.583 294.264 317.294 294.264C316.874 294.264 316.51 294.329 316.202 294.46C315.903 294.591 315.647 294.763 315.432 294.978C315.227 295.183 315.063 295.417 314.942 295.678C314.83 295.93 314.755 296.182 314.718 296.434L313.626 296.07ZM324.76 293.144H325.558V303H324.382V294.642L321.848 295.804L321.4 294.754L324.76 293.144Z" fill="#222429"/>
<path d="M596 272V282H1034V272" stroke="#B4BBC5"/>
<path d="M797.794 296.07C797.878 295.669 798.018 295.286 798.214 294.922C798.41 294.558 798.662 294.241 798.97 293.97C799.278 293.69 799.646 293.471 800.076 293.312C800.505 293.153 800.995 293.074 801.546 293.074C802.059 293.074 802.516 293.149 802.918 293.298C803.319 293.438 803.66 293.639 803.94 293.9C804.22 294.161 804.43 294.474 804.57 294.838C804.719 295.202 804.794 295.599 804.794 296.028C804.794 296.635 804.663 297.195 804.402 297.708C804.15 298.212 803.828 298.674 803.436 299.094C803.044 299.514 802.614 299.897 802.148 300.242C801.681 300.578 801.238 300.877 800.818 301.138L799.74 301.81H805.158V303H797.528V302.02L799.656 300.606C800.356 300.139 800.953 299.71 801.448 299.318C801.942 298.917 802.344 298.539 802.652 298.184C802.969 297.829 803.198 297.489 803.338 297.162C803.487 296.826 803.562 296.49 803.562 296.154C803.562 295.809 803.506 295.515 803.394 295.272C803.291 295.029 803.142 294.833 802.946 294.684C802.759 294.535 802.535 294.427 802.274 294.362C802.022 294.297 801.751 294.264 801.462 294.264C801.042 294.264 800.678 294.329 800.37 294.46C800.071 294.591 799.814 294.763 799.6 294.978C799.394 295.183 799.231 295.417 799.11 295.678C798.998 295.93 798.923 296.182 798.886 296.434L797.794 296.07ZM806.128 298.1C806.128 297.372 806.212 296.705 806.38 296.098C806.548 295.482 806.8 294.95 807.136 294.502C807.481 294.054 807.915 293.704 808.438 293.452C808.961 293.2 809.577 293.074 810.286 293.074C810.995 293.074 811.611 293.191 812.134 293.424C812.657 293.657 813.091 293.993 813.436 294.432C813.781 294.871 814.038 295.403 814.206 296.028C814.374 296.644 814.458 297.335 814.458 298.1C814.458 298.828 814.374 299.5 814.206 300.116C814.047 300.723 813.795 301.25 813.45 301.698C813.114 302.146 812.685 302.496 812.162 302.748C811.639 303 811.023 303.126 810.314 303.126C809.642 303.126 809.045 303 808.522 302.748C807.999 302.496 807.561 302.146 807.206 301.698C806.851 301.25 806.581 300.723 806.394 300.116C806.217 299.5 806.128 298.828 806.128 298.1ZM807.36 298.1C807.36 299.295 807.621 300.233 808.144 300.914C808.667 301.595 809.39 301.936 810.314 301.936C811.322 301.936 812.059 301.595 812.526 300.914C812.993 300.233 813.226 299.295 813.226 298.1C813.226 296.905 812.988 295.967 812.512 295.286C812.036 294.605 811.294 294.264 810.286 294.264C809.782 294.264 809.348 294.353 808.984 294.53C808.62 294.707 808.317 294.964 808.074 295.3C807.831 295.636 807.649 296.042 807.528 296.518C807.416 296.985 807.36 297.512 807.36 298.1ZM815.602 296.07C815.686 295.669 815.826 295.286 816.022 294.922C816.218 294.558 816.47 294.241 816.778 293.97C817.086 293.69 817.454 293.471 817.884 293.312C818.313 293.153 818.803 293.074 819.354 293.074C819.867 293.074 820.324 293.149 820.726 293.298C821.127 293.438 821.468 293.639 821.748 293.9C822.028 294.161 822.238 294.474 822.378 294.838C822.527 295.202 822.602 295.599 822.602 296.028C822.602 296.635 822.471 297.195 822.21 297.708C821.958 298.212 821.636 298.674 821.244 299.094C820.852 299.514 820.422 299.897 819.956 300.242C819.489 300.578 819.046 300.877 818.626 301.138L817.548 301.81H822.966V303H815.336V302.02L817.464 300.606C818.164 300.139 818.761 299.71 819.256 299.318C819.75 298.917 820.152 298.539 820.46 298.184C820.777 297.829 821.006 297.489 821.146 297.162C821.295 296.826 821.37 296.49 821.37 296.154C821.37 295.809 821.314 295.515 821.202 295.272C821.099 295.029 820.95 294.833 820.754 294.684C820.567 294.535 820.343 294.427 820.082 294.362C819.83 294.297 819.559 294.264 819.27 294.264C818.85 294.264 818.486 294.329 818.178 294.46C817.879 294.591 817.622 294.763 817.408 294.978C817.202 295.183 817.039 295.417 816.918 295.678C816.806 295.93 816.731 296.182 816.694 296.434L815.602 296.07ZM824.034 296.07C824.118 295.669 824.258 295.286 824.454 294.922C824.65 294.558 824.902 294.241 825.21 293.97C825.518 293.69 825.887 293.471 826.316 293.312C826.745 293.153 827.235 293.074 827.786 293.074C828.299 293.074 828.757 293.149 829.158 293.298C829.559 293.438 829.9 293.639 830.18 293.9C830.46 294.161 830.67 294.474 830.81 294.838C830.959 295.202 831.034 295.599 831.034 296.028C831.034 296.635 830.903 297.195 830.642 297.708C830.39 298.212 830.068 298.674 829.676 299.094C829.284 299.514 828.855 299.897 828.388 300.242C827.921 300.578 827.478 300.877 827.058 301.138L825.98 301.81H831.398V303H823.768V302.02L825.896 300.606C826.596 300.139 827.193 299.71 827.688 299.318C828.183 298.917 828.584 298.539 828.892 298.184C829.209 297.829 829.438 297.489 829.578 297.162C829.727 296.826 829.802 296.49 829.802 296.154C829.802 295.809 829.746 295.515 829.634 295.272C829.531 295.029 829.382 294.833 829.186 294.684C828.999 294.535 828.775 294.427 828.514 294.362C828.262 294.297 827.991 294.264 827.702 294.264C827.282 294.264 826.918 294.329 826.61 294.46C826.311 294.591 826.055 294.763 825.84 294.978C825.635 295.183 825.471 295.417 825.35 295.678C825.238 295.93 825.163 296.182 825.126 296.434L824.034 296.07Z" fill="#222429"/>
</svg>
