<svg viewBox="0 0 1112 401" fill="none" xmlns="http://www.w3.org/2000/svg">
<path d="M232.636 37.04H226.602V36.144L232.776 29.2H233.812V35.85H235.632V37.04H233.812V39H232.636V37.04ZM232.636 35.85V31.16L228.282 35.85H232.636ZM244.398 33.414C244.715 33.414 245.009 33.3767 245.28 33.302C245.56 33.218 245.803 33.106 246.008 32.966C246.213 32.826 246.372 32.658 246.484 32.462C246.605 32.266 246.666 32.0513 246.666 31.818C246.666 31.314 246.456 30.9313 246.036 30.67C245.625 30.3993 244.995 30.264 244.146 30.264C243.325 30.264 242.704 30.3993 242.284 30.67C241.873 30.9407 241.668 31.3233 241.668 31.818C241.668 32.042 241.724 32.252 241.836 32.448C241.948 32.644 242.102 32.8167 242.298 32.966C242.503 33.106 242.746 33.218 243.026 33.302C243.315 33.3767 243.628 33.414 243.964 33.414H244.398ZM244.02 34.52C243.628 34.52 243.264 34.5667 242.928 34.66C242.601 34.744 242.321 34.8653 242.088 35.024C241.855 35.1733 241.673 35.3553 241.542 35.57C241.411 35.7753 241.346 35.9947 241.346 36.228C241.346 36.732 241.579 37.1427 242.046 37.46C242.522 37.7773 243.227 37.936 244.16 37.936C245.121 37.936 245.831 37.7867 246.288 37.488C246.745 37.18 246.974 36.7647 246.974 36.242C246.974 35.6913 246.736 35.2667 246.26 34.968C245.793 34.6693 245.163 34.52 244.37 34.52H244.02ZM244.174 39.126C243.549 39.126 242.984 39.0653 242.48 38.944C241.985 38.8133 241.561 38.6313 241.206 38.398C240.861 38.1553 240.59 37.866 240.394 37.53C240.207 37.1847 240.114 36.7927 240.114 36.354C240.114 35.7753 240.287 35.276 240.632 34.856C240.987 34.4267 241.458 34.1187 242.046 33.932C241.766 33.8387 241.523 33.7173 241.318 33.568C241.113 33.4093 240.945 33.232 240.814 33.036C240.683 32.84 240.585 32.6347 240.52 32.42C240.464 32.196 240.436 31.9673 240.436 31.734C240.436 30.922 240.753 30.278 241.388 29.802C242.032 29.3167 242.956 29.074 244.16 29.074C245.373 29.074 246.297 29.3167 246.932 29.802C247.576 30.278 247.898 30.922 247.898 31.734C247.898 32.238 247.758 32.6627 247.478 33.008C247.207 33.3533 246.829 33.638 246.344 33.862C247.016 34.0673 247.492 34.3753 247.772 34.786C248.061 35.1967 248.206 35.7007 248.206 36.298C248.206 36.746 248.113 37.1473 247.926 37.502C247.739 37.8473 247.469 38.1413 247.114 38.384C246.769 38.6267 246.344 38.8133 245.84 38.944C245.345 39.0653 244.79 39.126 244.174 39.126ZM248.976 29.2H256.41V29.998L251.538 39H250.208L254.912 30.39H248.976V29.2ZM256.834 29.2H264.268V29.998L259.396 39H258.066L262.77 30.39H256.834V29.2Z" fill="black"/>
<path d="M123 107L246 56L375 91L501 96L627 87.5L753.5 67.5L879 74L1004.5 33" stroke="#648494" stroke-width="4"/>
<path d="M110.162 358.2H111.436V368H110.162V358.2ZM117.467 360.72H118.643V363.982L122.255 360.72H123.907L120.141 364.066L124.089 368H122.437L119.245 364.794L118.643 365.354V368H117.467V360.72ZM125.215 360.72H128.239C129.238 360.72 129.985 360.86 130.479 361.14C130.974 361.411 131.221 361.891 131.221 362.582C131.221 362.937 131.114 363.263 130.899 363.562C130.685 363.851 130.386 364.052 130.003 364.164C130.489 364.267 130.853 364.472 131.095 364.78C131.338 365.088 131.459 365.466 131.459 365.914C131.459 366.595 131.198 367.113 130.675 367.468C130.162 367.823 129.425 368 128.463 368H125.215V360.72ZM126.391 364.836V366.894H128.337C128.963 366.894 129.434 366.815 129.751 366.656C130.069 366.488 130.227 366.227 130.227 365.872C130.227 365.499 130.083 365.233 129.793 365.074C129.513 364.915 129.075 364.836 128.477 364.836H126.391ZM126.391 361.826V363.73H128.603C129.042 363.73 129.383 363.646 129.625 363.478C129.868 363.31 129.989 363.063 129.989 362.736C129.989 362.54 129.943 362.386 129.849 362.274C129.765 362.153 129.644 362.059 129.485 361.994C129.327 361.929 129.135 361.887 128.911 361.868C128.697 361.84 128.459 361.826 128.197 361.826H126.391ZM132.694 367.202C132.694 367.015 132.774 366.838 132.932 366.67C133.091 366.502 133.301 366.418 133.562 366.418C133.805 366.418 134.006 366.502 134.164 366.67C134.323 366.838 134.402 367.015 134.402 367.202C134.402 367.417 134.323 367.608 134.164 367.776C134.006 367.944 133.805 368.028 133.562 368.028C133.301 368.028 133.091 367.944 132.932 367.776C132.774 367.608 132.694 367.417 132.694 367.202Z" fill="#777F8C"/>
<rect x="92" y="203" width="60" height="145" fill="#5FAF2D"/>
<rect x="92" y="203" width="60" height="4" fill="#3D7917"/>
<path d="M106.408 182.032H107.377V194H105.949V183.851L102.872 185.262L102.328 183.987L106.408 182.032ZM117.88 182.032H118.849V194H117.421V183.851L114.344 185.262L113.8 183.987L117.88 182.032ZM120.796 182.1H129.823V183.069L123.907 194H122.292L128.004 183.545H120.796V182.1ZM130.899 188.05C130.899 187.166 131.001 186.356 131.205 185.619C131.409 184.871 131.715 184.225 132.123 183.681C132.542 183.137 133.069 182.712 133.704 182.406C134.339 182.1 135.087 181.947 135.948 181.947C136.809 181.947 137.557 182.089 138.192 182.372C138.827 182.655 139.354 183.063 139.773 183.596C140.192 184.129 140.504 184.775 140.708 185.534C140.912 186.282 141.014 187.121 141.014 188.05C141.014 188.934 140.912 189.75 140.708 190.498C140.515 191.235 140.209 191.875 139.79 192.419C139.382 192.963 138.861 193.388 138.226 193.694C137.591 194 136.843 194.153 135.982 194.153C135.166 194.153 134.441 194 133.806 193.694C133.171 193.388 132.639 192.963 132.208 192.419C131.777 191.875 131.449 191.235 131.222 190.498C131.007 189.75 130.899 188.934 130.899 188.05ZM132.395 188.05C132.395 189.501 132.712 190.64 133.347 191.467C133.982 192.294 134.86 192.708 135.982 192.708C137.206 192.708 138.101 192.294 138.668 191.467C139.235 190.64 139.518 189.501 139.518 188.05C139.518 186.599 139.229 185.46 138.651 184.633C138.073 183.806 137.172 183.392 135.948 183.392C135.336 183.392 134.809 183.5 134.367 183.715C133.925 183.93 133.557 184.242 133.262 184.65C132.967 185.058 132.746 185.551 132.599 186.129C132.463 186.696 132.395 187.336 132.395 188.05Z" fill="#222429"/>
<path d="M120 119L120 170" stroke="#9299A3" stroke-width="1.4" stroke-dasharray="0.1 6"/>
<path d="M247 70L247 188" stroke="#9299A3" stroke-width="1.4" stroke-dasharray="0.1 6"/>
<path d="M375 101L375 188" stroke="#9299A3" stroke-width="1.4" stroke-dasharray="0.1 6"/>
<path d="M501 106L501 134" stroke="#9299A3" stroke-width="1.4" stroke-dasharray="0.1 6"/>
<path d="M753 78L753 155" stroke="#9299A3" stroke-width="1.4" stroke-dasharray="0.1 6"/>
<path d="M879 85L879 167" stroke="#9299A3" stroke-width="1.4" stroke-dasharray="0.1 6"/>
<path d="M1005 45L1005 167" stroke="#9299A3" stroke-width="1.4" stroke-dasharray="0.1 6"/>
<path d="M627 99L627 116" stroke="#9299A3" stroke-width="1.4" stroke-dasharray="0.1 6"/>
<path d="M234.332 358.2H235.606V368H234.332V358.2ZM237.992 358.2H239.266V368H237.992V358.2ZM245.297 360.72H246.473V363.982L250.085 360.72H251.737L247.971 364.066L251.919 368H250.267L247.075 364.794L246.473 365.354V368H245.297V360.72ZM253.046 360.72H256.07C257.068 360.72 257.815 360.86 258.31 361.14C258.804 361.411 259.052 361.891 259.052 362.582C259.052 362.937 258.944 363.263 258.73 363.562C258.515 363.851 258.216 364.052 257.834 364.164C258.319 364.267 258.683 364.472 258.926 364.78C259.168 365.088 259.29 365.466 259.29 365.914C259.29 366.595 259.028 367.113 258.506 367.468C257.992 367.823 257.255 368 256.294 368H253.046V360.72ZM254.222 364.836V366.894H256.168C256.793 366.894 257.264 366.815 257.582 366.656C257.899 366.488 258.058 366.227 258.058 365.872C258.058 365.499 257.913 365.233 257.624 365.074C257.344 364.915 256.905 364.836 256.308 364.836H254.222ZM254.222 361.826V363.73H256.434C256.872 363.73 257.213 363.646 257.456 363.478C257.698 363.31 257.82 363.063 257.82 362.736C257.82 362.54 257.773 362.386 257.68 362.274C257.596 362.153 257.474 362.059 257.316 361.994C257.157 361.929 256.966 361.887 256.742 361.868C256.527 361.84 256.289 361.826 256.028 361.826H254.222ZM260.525 367.202C260.525 367.015 260.604 366.838 260.763 366.67C260.921 366.502 261.131 366.418 261.393 366.418C261.635 366.418 261.836 366.502 261.995 366.67C262.153 366.838 262.233 367.015 262.233 367.202C262.233 367.417 262.153 367.608 261.995 367.776C261.836 367.944 261.635 368.028 261.393 368.028C261.131 368.028 260.921 367.944 260.763 367.776C260.604 367.608 260.525 367.417 260.525 367.202Z" fill="#777F8C"/>
<rect x="218" y="224" width="60" height="124" fill="#5FAF2D"/>
<rect x="218" y="224" width="60" height="4" fill="#3D7917"/>
<path d="M229.063 203.032H230.032V215H228.604V204.851L225.527 206.262L224.983 204.987L229.063 203.032ZM237.135 209.05C237.135 208.166 237.237 207.356 237.441 206.619C237.645 205.871 237.951 205.225 238.359 204.681C238.778 204.137 239.305 203.712 239.94 203.406C240.574 203.1 241.322 202.947 242.184 202.947C243.045 202.947 243.793 203.089 244.428 203.372C245.062 203.655 245.589 204.063 246.009 204.596C246.428 205.129 246.74 205.775 246.944 206.534C247.148 207.282 247.25 208.121 247.25 209.05C247.25 209.934 247.148 210.75 246.944 211.498C246.751 212.235 246.445 212.875 246.026 213.419C245.618 213.963 245.096 214.388 244.462 214.694C243.827 215 243.079 215.153 242.218 215.153C241.402 215.153 240.676 215 240.042 214.694C239.407 214.388 238.874 213.963 238.444 213.419C238.013 212.875 237.684 212.235 237.458 211.498C237.242 210.75 237.135 209.934 237.135 209.05ZM238.631 209.05C238.631 210.501 238.948 211.64 239.583 212.467C240.217 213.294 241.096 213.708 242.218 213.708C243.442 213.708 244.337 213.294 244.904 212.467C245.47 211.64 245.754 210.501 245.754 209.05C245.754 207.599 245.465 206.46 244.887 205.633C244.309 204.806 243.408 204.392 242.184 204.392C241.572 204.392 241.045 204.5 240.603 204.715C240.161 204.93 239.792 205.242 239.498 205.65C239.203 206.058 238.982 206.551 238.835 207.129C238.699 207.696 238.631 208.336 238.631 209.05ZM248.689 209.05C248.689 208.166 248.791 207.356 248.995 206.619C249.199 205.871 249.505 205.225 249.913 204.681C250.333 204.137 250.86 203.712 251.494 203.406C252.129 203.1 252.877 202.947 253.738 202.947C254.6 202.947 255.348 203.089 255.982 203.372C256.617 203.655 257.144 204.063 257.563 204.596C257.983 205.129 258.294 205.775 258.498 206.534C258.702 207.282 258.804 208.121 258.804 209.05C258.804 209.934 258.702 210.75 258.498 211.498C258.306 212.235 258 212.875 257.58 213.419C257.172 213.963 256.651 214.388 256.016 214.694C255.382 215 254.634 215.153 253.772 215.153C252.956 215.153 252.231 215 251.596 214.694C250.962 214.388 250.429 213.963 249.998 213.419C249.568 212.875 249.239 212.235 249.012 211.498C248.797 210.75 248.689 209.934 248.689 209.05ZM250.185 209.05C250.185 210.501 250.503 211.64 251.137 212.467C251.772 213.294 252.65 213.708 253.772 213.708C254.996 213.708 255.892 213.294 256.458 212.467C257.025 211.64 257.308 210.501 257.308 209.05C257.308 207.599 257.019 206.46 256.441 205.633C255.863 204.806 254.962 204.392 253.738 204.392C253.126 204.392 252.599 204.5 252.157 204.715C251.715 204.93 251.347 205.242 251.052 205.65C250.758 206.058 250.537 206.551 250.389 207.129C250.253 207.696 250.185 208.336 250.185 209.05ZM260.244 209.05C260.244 208.166 260.346 207.356 260.55 206.619C260.754 205.871 261.06 205.225 261.468 204.681C261.888 204.137 262.415 203.712 263.049 203.406C263.684 203.1 264.432 202.947 265.293 202.947C266.155 202.947 266.903 203.089 267.537 203.372C268.172 203.655 268.699 204.063 269.118 204.596C269.538 205.129 269.849 205.775 270.053 206.534C270.257 207.282 270.359 208.121 270.359 209.05C270.359 209.934 270.257 210.75 270.053 211.498C269.861 212.235 269.555 212.875 269.135 213.419C268.727 213.963 268.206 214.388 267.571 214.694C266.937 215 266.189 215.153 265.327 215.153C264.511 215.153 263.786 215 263.151 214.694C262.517 214.388 261.984 213.963 261.553 213.419C261.123 212.875 260.794 212.235 260.567 211.498C260.352 210.75 260.244 209.934 260.244 209.05ZM261.74 209.05C261.74 210.501 262.058 211.64 262.692 212.467C263.327 213.294 264.205 213.708 265.327 213.708C266.551 213.708 267.447 213.294 268.013 212.467C268.58 211.64 268.863 210.501 268.863 209.05C268.863 207.599 268.574 206.46 267.996 205.633C267.418 204.806 266.517 204.392 265.293 204.392C264.681 204.392 264.154 204.5 263.712 204.715C263.27 204.93 262.902 205.242 262.607 205.65C262.313 206.058 262.092 206.551 261.944 207.129C261.808 207.696 261.74 208.336 261.74 209.05Z" fill="#222429"/>
<path d="M358.501 358.2H359.775V368H358.501V358.2ZM362.162 358.2H363.436V368H362.162V358.2ZM365.823 358.2H367.097V368H365.823V358.2ZM373.127 360.72H374.303V363.982L377.915 360.72H379.567L375.801 364.066L379.749 368H378.097L374.905 364.794L374.303 365.354V368H373.127V360.72ZM380.876 360.72H383.9C384.899 360.72 385.645 360.86 386.14 361.14C386.635 361.411 386.882 361.891 386.882 362.582C386.882 362.937 386.775 363.263 386.56 363.562C386.345 363.851 386.047 364.052 385.664 364.164C386.149 364.267 386.513 364.472 386.756 364.78C386.999 365.088 387.12 365.466 387.12 365.914C387.12 366.595 386.859 367.113 386.336 367.468C385.823 367.823 385.085 368 384.124 368H380.876V360.72ZM382.052 364.836V366.894H383.998C384.623 366.894 385.095 366.815 385.412 366.656C385.729 366.488 385.888 366.227 385.888 365.872C385.888 365.499 385.743 365.233 385.454 365.074C385.174 364.915 384.735 364.836 384.138 364.836H382.052ZM382.052 361.826V363.73H384.264C384.703 363.73 385.043 363.646 385.286 363.478C385.529 363.31 385.65 363.063 385.65 362.736C385.65 362.54 385.603 362.386 385.51 362.274C385.426 362.153 385.305 362.059 385.146 361.994C384.987 361.929 384.796 361.887 384.572 361.868C384.357 361.84 384.119 361.826 383.858 361.826H382.052ZM388.355 367.202C388.355 367.015 388.435 366.838 388.593 366.67C388.752 366.502 388.962 366.418 389.223 366.418C389.466 366.418 389.667 366.502 389.825 366.67C389.984 366.838 390.063 367.015 390.063 367.202C390.063 367.417 389.984 367.608 389.825 367.776C389.667 367.944 389.466 368.028 389.223 368.028C388.962 368.028 388.752 367.944 388.593 367.776C388.435 367.608 388.355 367.417 388.355 367.202Z" fill="#777F8C"/>
<rect x="344" y="217" width="60" height="131" fill="#5FAF2D"/>
<rect x="344" y="217" width="60" height="4" fill="#3D7917"/>
<path d="M355.603 196.032H356.572V208H355.144V197.851L352.067 199.262L351.523 197.987L355.603 196.032ZM363.674 202.05C363.674 201.166 363.776 200.356 363.98 199.619C364.184 198.871 364.49 198.225 364.898 197.681C365.318 197.137 365.845 196.712 366.479 196.406C367.114 196.1 367.862 195.947 368.723 195.947C369.585 195.947 370.333 196.089 370.967 196.372C371.602 196.655 372.129 197.063 372.548 197.596C372.968 198.129 373.279 198.775 373.483 199.534C373.687 200.282 373.789 201.121 373.789 202.05C373.789 202.934 373.687 203.75 373.483 204.498C373.291 205.235 372.985 205.875 372.565 206.419C372.157 206.963 371.636 207.388 371.001 207.694C370.367 208 369.619 208.153 368.757 208.153C367.941 208.153 367.216 208 366.581 207.694C365.947 207.388 365.414 206.963 364.983 206.419C364.553 205.875 364.224 205.235 363.997 204.498C363.782 203.75 363.674 202.934 363.674 202.05ZM365.17 202.05C365.17 203.501 365.488 204.64 366.122 205.467C366.757 206.294 367.635 206.708 368.757 206.708C369.981 206.708 370.877 206.294 371.443 205.467C372.01 204.64 372.293 203.501 372.293 202.05C372.293 200.599 372.004 199.46 371.426 198.633C370.848 197.806 369.947 197.392 368.723 197.392C368.111 197.392 367.584 197.5 367.142 197.715C366.7 197.93 366.332 198.242 366.037 198.65C365.743 199.058 365.522 199.551 365.374 200.129C365.238 200.696 365.17 201.336 365.17 202.05ZM376.436 196.1H383.916V197.545H377.745L377.303 200.741C377.564 200.548 377.915 200.39 378.357 200.265C378.81 200.129 379.36 200.061 380.006 200.061C380.72 200.061 381.355 200.163 381.91 200.367C382.465 200.571 382.93 200.854 383.304 201.217C383.678 201.58 383.961 202.005 384.154 202.492C384.358 202.979 384.46 203.501 384.46 204.056C384.46 204.657 384.341 205.206 384.103 205.705C383.876 206.204 383.553 206.634 383.134 206.997C382.726 207.36 382.239 207.643 381.672 207.847C381.117 208.051 380.51 208.153 379.853 208.153C379.309 208.153 378.788 208.091 378.289 207.966C377.79 207.841 377.326 207.654 376.895 207.405C376.476 207.156 376.102 206.855 375.773 206.504C375.456 206.141 375.201 205.722 375.008 205.246L376.368 204.668C376.481 204.929 376.64 205.184 376.844 205.433C377.048 205.671 377.297 205.886 377.592 206.079C377.887 206.272 378.221 206.425 378.595 206.538C378.969 206.651 379.388 206.708 379.853 206.708C380.374 206.708 380.828 206.64 381.213 206.504C381.61 206.357 381.938 206.164 382.199 205.926C382.46 205.688 382.652 205.416 382.777 205.11C382.902 204.793 382.964 204.458 382.964 204.107C382.964 203.302 382.664 202.668 382.063 202.203C381.474 201.738 380.652 201.506 379.598 201.506C378.997 201.506 378.493 201.591 378.085 201.761C377.688 201.92 377.314 202.175 376.963 202.526L375.739 202.203L376.436 196.1ZM391.139 201.217C391.525 201.217 391.882 201.172 392.21 201.081C392.55 200.979 392.845 200.843 393.094 200.673C393.344 200.503 393.536 200.299 393.672 200.061C393.82 199.823 393.893 199.562 393.893 199.279C393.893 198.667 393.638 198.202 393.128 197.885C392.63 197.556 391.865 197.392 390.833 197.392C389.836 197.392 389.082 197.556 388.572 197.885C388.074 198.214 387.824 198.678 387.824 199.279C387.824 199.551 387.892 199.806 388.028 200.044C388.164 200.282 388.351 200.492 388.589 200.673C388.839 200.843 389.133 200.979 389.473 201.081C389.825 201.172 390.204 201.217 390.612 201.217H391.139ZM390.68 202.56C390.204 202.56 389.762 202.617 389.354 202.73C388.958 202.832 388.618 202.979 388.334 203.172C388.051 203.353 387.83 203.574 387.671 203.835C387.513 204.084 387.433 204.351 387.433 204.634C387.433 205.246 387.717 205.745 388.283 206.13C388.861 206.515 389.717 206.708 390.85 206.708C392.018 206.708 392.879 206.527 393.434 206.164C393.99 205.79 394.267 205.286 394.267 204.651C394.267 203.982 393.978 203.467 393.4 203.104C392.834 202.741 392.069 202.56 391.105 202.56H390.68ZM390.867 208.153C390.108 208.153 389.422 208.079 388.81 207.932C388.21 207.773 387.694 207.552 387.263 207.269C386.844 206.974 386.515 206.623 386.277 206.215C386.051 205.796 385.937 205.32 385.937 204.787C385.937 204.084 386.147 203.478 386.566 202.968C386.997 202.447 387.569 202.073 388.283 201.846C387.943 201.733 387.649 201.585 387.399 201.404C387.15 201.211 386.946 200.996 386.787 200.758C386.629 200.52 386.51 200.271 386.43 200.01C386.362 199.738 386.328 199.46 386.328 199.177C386.328 198.191 386.714 197.409 387.484 196.831C388.266 196.242 389.388 195.947 390.85 195.947C392.324 195.947 393.446 196.242 394.216 196.831C394.998 197.409 395.389 198.191 395.389 199.177C395.389 199.789 395.219 200.305 394.879 200.724C394.551 201.143 394.092 201.489 393.502 201.761C394.318 202.01 394.896 202.384 395.236 202.883C395.588 203.382 395.763 203.994 395.763 204.719C395.763 205.263 395.65 205.75 395.423 206.181C395.197 206.6 394.868 206.957 394.437 207.252C394.018 207.547 393.502 207.773 392.89 207.932C392.29 208.079 391.615 208.153 390.867 208.153Z" fill="#222429"/>
<path d="M483.385 358.2H484.659V368H483.385V358.2ZM491.204 368H490.28L485.856 358.2H487.228L490.77 366.208L494.074 358.2H495.404L491.204 368ZM500.243 360.72H501.419V363.982L505.031 360.72H506.683L502.917 364.066L506.865 368H505.213L502.021 364.794L501.419 365.354V368H500.243V360.72ZM507.992 360.72H511.016C512.015 360.72 512.761 360.86 513.256 361.14C513.751 361.411 513.998 361.891 513.998 362.582C513.998 362.937 513.891 363.263 513.676 363.562C513.461 363.851 513.163 364.052 512.78 364.164C513.265 364.267 513.629 364.472 513.872 364.78C514.115 365.088 514.236 365.466 514.236 365.914C514.236 366.595 513.975 367.113 513.452 367.468C512.939 367.823 512.201 368 511.24 368H507.992V360.72ZM509.168 364.836V366.894H511.114C511.739 366.894 512.211 366.815 512.528 366.656C512.845 366.488 513.004 366.227 513.004 365.872C513.004 365.499 512.859 365.233 512.57 365.074C512.29 364.915 511.851 364.836 511.254 364.836H509.168ZM509.168 361.826V363.73H511.38C511.819 363.73 512.159 363.646 512.402 363.478C512.645 363.31 512.766 363.063 512.766 362.736C512.766 362.54 512.719 362.386 512.626 362.274C512.542 362.153 512.421 362.059 512.262 361.994C512.103 361.929 511.912 361.887 511.688 361.868C511.473 361.84 511.235 361.826 510.974 361.826H509.168ZM515.471 367.202C515.471 367.015 515.55 366.838 515.709 366.67C515.868 366.502 516.078 366.418 516.339 366.418C516.582 366.418 516.782 366.502 516.941 366.67C517.1 366.838 517.179 367.015 517.179 367.202C517.179 367.417 517.1 367.608 516.941 367.776C516.782 367.944 516.582 368.028 516.339 368.028C516.078 368.028 515.868 367.944 515.709 367.776C515.55 367.608 515.471 367.417 515.471 367.202Z" fill="#777F8C"/>
<rect x="470" y="166" width="60" height="182" fill="#5FAF2D"/>
<rect x="470" y="166" width="60" height="4" fill="#3D7917"/>
<path d="M482.972 145.032H483.941V157H482.513V146.851L479.436 148.262L478.892 146.987L482.972 145.032ZM497.827 154.62H490.5V153.532L497.997 145.1H499.255V153.175H501.465V154.62H499.255V157H497.827V154.62ZM497.827 153.175V147.48L492.54 153.175H497.827ZM502.075 145.1H511.102V146.069L505.186 157H503.571L509.283 146.545H502.075V145.1ZM511.787 145.1H520.814V146.069L514.898 157H513.283L518.995 146.545H511.787V145.1Z" fill="#222429"/>
<path d="M614.162 358.2H615.436V368H614.162V358.2ZM621.467 360.72H622.643V363.982L626.255 360.72H627.907L624.141 364.066L628.089 368H626.437L623.245 364.794L622.643 365.354V368H621.467V360.72ZM629.215 360.72H632.239C633.238 360.72 633.985 360.86 634.479 361.14C634.974 361.411 635.221 361.891 635.221 362.582C635.221 362.937 635.114 363.263 634.899 363.562C634.685 363.851 634.386 364.052 634.003 364.164C634.489 364.267 634.853 364.472 635.095 364.78C635.338 365.088 635.459 365.466 635.459 365.914C635.459 366.595 635.198 367.113 634.675 367.468C634.162 367.823 633.425 368 632.463 368H629.215V360.72ZM630.391 364.836V366.894H632.337C632.963 366.894 633.434 366.815 633.751 366.656C634.069 366.488 634.227 366.227 634.227 365.872C634.227 365.499 634.083 365.233 633.793 365.074C633.513 364.915 633.075 364.836 632.477 364.836H630.391ZM630.391 361.826V363.73H632.603C633.042 363.73 633.383 363.646 633.625 363.478C633.868 363.31 633.989 363.063 633.989 362.736C633.989 362.54 633.943 362.386 633.849 362.274C633.765 362.153 633.644 362.059 633.485 361.994C633.327 361.929 633.135 361.887 632.911 361.868C632.697 361.84 632.459 361.826 632.197 361.826H630.391ZM636.694 367.202C636.694 367.015 636.774 366.838 636.932 366.67C637.091 366.502 637.301 366.418 637.562 366.418C637.805 366.418 638.006 366.502 638.164 366.67C638.323 366.838 638.402 367.015 638.402 367.202C638.402 367.417 638.323 367.608 638.164 367.776C638.006 367.944 637.805 368.028 637.562 368.028C637.301 368.028 637.091 367.944 636.932 367.776C636.774 367.608 636.694 367.417 636.694 367.202Z" fill="#777F8C"/>
<rect x="596" y="145" width="60" height="203" fill="#5FAF2D"/>
<rect x="596" y="145" width="60" height="4" fill="#3D7917"/>
<path d="M607.785 124.032H608.754V136H607.326V125.851L604.249 127.262L603.705 125.987L607.785 124.032ZM621.059 136.153C620.266 136.153 619.546 136.028 618.9 135.779C618.265 135.53 617.721 135.161 617.268 134.674C616.815 134.175 616.463 133.569 616.214 132.855C615.976 132.141 615.857 131.314 615.857 130.373C615.857 129.308 615.999 128.373 616.282 127.568C616.565 126.763 616.945 126.095 617.421 125.562C617.908 125.018 618.469 124.616 619.104 124.355C619.75 124.083 620.43 123.947 621.144 123.947C622.175 123.947 623.054 124.157 623.779 124.576C624.504 124.995 625.031 125.562 625.36 126.276L624.204 127.058C623.875 126.548 623.45 126.146 622.929 125.851C622.419 125.545 621.801 125.392 621.076 125.392C620.509 125.392 619.999 125.505 619.546 125.732C619.093 125.947 618.702 126.265 618.373 126.684C618.044 127.092 617.789 127.591 617.608 128.18C617.427 128.758 617.33 129.41 617.319 130.135V130.322C617.478 129.948 617.693 129.619 617.965 129.336C618.248 129.053 618.566 128.815 618.917 128.622C619.268 128.429 619.642 128.288 620.039 128.197C620.447 128.095 620.861 128.044 621.28 128.044C621.971 128.044 622.595 128.14 623.15 128.333C623.705 128.526 624.176 128.798 624.561 129.149C624.958 129.5 625.258 129.92 625.462 130.407C625.666 130.894 625.768 131.433 625.768 132.022C625.768 132.634 625.643 133.195 625.394 133.705C625.156 134.215 624.822 134.651 624.391 135.014C623.972 135.377 623.473 135.66 622.895 135.864C622.328 136.057 621.716 136.153 621.059 136.153ZM621.042 134.708C621.518 134.708 621.949 134.646 622.334 134.521C622.731 134.396 623.071 134.221 623.354 133.994C623.649 133.756 623.875 133.478 624.034 133.161C624.193 132.844 624.272 132.487 624.272 132.09C624.272 131.659 624.193 131.285 624.034 130.968C623.887 130.639 623.677 130.367 623.405 130.152C623.133 129.925 622.804 129.761 622.419 129.659C622.045 129.546 621.637 129.489 621.195 129.489C620.107 129.489 619.28 129.721 618.713 130.186C618.158 130.651 617.88 131.246 617.88 131.971C617.88 132.345 617.954 132.696 618.101 133.025C618.248 133.354 618.458 133.643 618.73 133.892C619.002 134.141 619.331 134.34 619.716 134.487C620.113 134.634 620.555 134.708 621.042 134.708ZM633.946 133.62H626.619V132.532L634.116 124.1H635.374V132.175H637.584V133.62H635.374V136H633.946V133.62ZM633.946 132.175V126.48L628.659 132.175H633.946ZM638.483 126.99C638.641 126.548 638.857 126.146 639.129 125.783C639.401 125.409 639.729 125.086 640.115 124.814C640.511 124.542 640.965 124.332 641.475 124.185C641.996 124.026 642.58 123.947 643.226 123.947C643.804 123.947 644.336 124.021 644.824 124.168C645.322 124.304 645.747 124.502 646.099 124.763C646.461 125.012 646.739 125.324 646.932 125.698C647.136 126.072 647.238 126.486 647.238 126.939C647.238 127.63 647.056 128.22 646.694 128.707C646.342 129.194 645.827 129.534 645.147 129.727C645.441 129.75 645.73 129.823 646.014 129.948C646.297 130.061 646.546 130.237 646.762 130.475C646.988 130.702 647.17 130.991 647.306 131.342C647.442 131.682 647.51 132.09 647.51 132.566C647.51 133.144 647.396 133.66 647.17 134.113C646.954 134.555 646.648 134.929 646.252 135.235C645.866 135.53 645.407 135.756 644.875 135.915C644.342 136.074 643.77 136.153 643.158 136.153C642.489 136.153 641.877 136.074 641.322 135.915C640.778 135.756 640.296 135.541 639.877 135.269C639.457 134.986 639.1 134.651 638.806 134.266C638.522 133.869 638.307 133.433 638.16 132.957L639.537 132.362C639.684 132.668 639.86 132.963 640.064 133.246C640.268 133.529 640.517 133.779 640.812 133.994C641.106 134.209 641.452 134.385 641.849 134.521C642.245 134.646 642.716 134.708 643.26 134.708C644.11 134.708 644.778 134.527 645.266 134.164C645.764 133.79 646.014 133.263 646.014 132.583C646.014 132.209 645.934 131.897 645.776 131.648C645.617 131.387 645.396 131.183 645.113 131.036C644.829 130.877 644.495 130.77 644.11 130.713C643.736 130.645 643.328 130.611 642.886 130.611H641.56V129.2H642.614C643.6 129.2 644.365 129.013 644.909 128.639C645.464 128.265 645.742 127.795 645.742 127.228C645.742 126.616 645.509 126.157 645.045 125.851C644.58 125.545 643.951 125.392 643.158 125.392C642.67 125.392 642.24 125.454 641.866 125.579C641.492 125.704 641.163 125.868 640.88 126.072C640.608 126.276 640.375 126.508 640.183 126.769C640.001 127.03 639.86 127.296 639.758 127.568L638.483 126.99Z" fill="#222429"/>
<path d="M738.332 358.2H739.606V368H738.332V358.2ZM741.992 358.2H743.266V368H741.992V358.2ZM749.297 360.72H750.473V363.982L754.085 360.72H755.737L751.971 364.066L755.919 368H754.267L751.075 364.794L750.473 365.354V368H749.297V360.72ZM757.046 360.72H760.07C761.068 360.72 761.815 360.86 762.31 361.14C762.804 361.411 763.052 361.891 763.052 362.582C763.052 362.937 762.944 363.263 762.73 363.562C762.515 363.851 762.216 364.052 761.834 364.164C762.319 364.267 762.683 364.472 762.926 364.78C763.168 365.088 763.29 365.466 763.29 365.914C763.29 366.595 763.028 367.113 762.506 367.468C761.992 367.823 761.255 368 760.294 368H757.046V360.72ZM758.222 364.836V366.894H760.168C760.793 366.894 761.264 366.815 761.582 366.656C761.899 366.488 762.058 366.227 762.058 365.872C762.058 365.499 761.913 365.233 761.624 365.074C761.344 364.915 760.905 364.836 760.308 364.836H758.222ZM758.222 361.826V363.73H760.434C760.872 363.73 761.213 363.646 761.456 363.478C761.698 363.31 761.82 363.063 761.82 362.736C761.82 362.54 761.773 362.386 761.68 362.274C761.596 362.153 761.474 362.059 761.316 361.994C761.157 361.929 760.966 361.887 760.742 361.868C760.527 361.84 760.289 361.826 760.028 361.826H758.222ZM764.525 367.202C764.525 367.015 764.604 366.838 764.763 366.67C764.921 366.502 765.131 366.418 765.393 366.418C765.635 366.418 765.836 366.502 765.995 366.67C766.153 366.838 766.233 367.015 766.233 367.202C766.233 367.417 766.153 367.608 765.995 367.776C765.836 367.944 765.635 368.028 765.393 368.028C765.131 368.028 764.921 367.944 764.763 367.776C764.604 367.608 764.525 367.417 764.525 367.202Z" fill="#777F8C"/>
<rect x="722" y="190" width="60" height="158" fill="#5FAF2D"/>
<rect x="722" y="190" width="60" height="4" fill="#3D7917"/>
<path d="M733.744 169.032H734.713V181H733.285V170.851L730.208 172.262L729.664 170.987L733.744 169.032ZM741.934 172.585C742.036 172.098 742.206 171.633 742.444 171.191C742.682 170.749 742.988 170.364 743.362 170.035C743.736 169.695 744.184 169.429 744.705 169.236C745.227 169.043 745.822 168.947 746.49 168.947C747.114 168.947 747.669 169.038 748.156 169.219C748.644 169.389 749.057 169.633 749.397 169.95C749.737 170.267 749.992 170.647 750.162 171.089C750.344 171.531 750.434 172.013 750.434 172.534C750.434 173.271 750.276 173.951 749.958 174.574C749.652 175.186 749.261 175.747 748.785 176.257C748.309 176.767 747.788 177.232 747.221 177.651C746.655 178.059 746.116 178.422 745.606 178.739L744.297 179.555H750.876V181H741.611V179.81L744.195 178.093C745.045 177.526 745.771 177.005 746.371 176.529C746.972 176.042 747.459 175.583 747.833 175.152C748.219 174.721 748.496 174.308 748.666 173.911C748.848 173.503 748.938 173.095 748.938 172.687C748.938 172.268 748.87 171.911 748.734 171.616C748.61 171.321 748.428 171.083 748.19 170.902C747.964 170.721 747.692 170.59 747.374 170.511C747.068 170.432 746.74 170.392 746.388 170.392C745.878 170.392 745.436 170.471 745.062 170.63C744.7 170.789 744.388 170.998 744.127 171.259C743.878 171.508 743.68 171.792 743.532 172.109C743.396 172.415 743.306 172.721 743.26 173.027L741.934 172.585ZM757.444 174.217C757.829 174.217 758.186 174.172 758.515 174.081C758.855 173.979 759.149 173.843 759.399 173.673C759.648 173.503 759.841 173.299 759.977 173.061C760.124 172.823 760.198 172.562 760.198 172.279C760.198 171.667 759.943 171.202 759.433 170.885C758.934 170.556 758.169 170.392 757.138 170.392C756.14 170.392 755.387 170.556 754.877 170.885C754.378 171.214 754.129 171.678 754.129 172.279C754.129 172.551 754.197 172.806 754.333 173.044C754.469 173.282 754.656 173.492 754.894 173.673C755.143 173.843 755.438 173.979 755.778 174.081C756.129 174.172 756.509 174.217 756.917 174.217H757.444ZM756.985 175.56C756.509 175.56 756.067 175.617 755.659 175.73C755.262 175.832 754.922 175.979 754.639 176.172C754.355 176.353 754.134 176.574 753.976 176.835C753.817 177.084 753.738 177.351 753.738 177.634C753.738 178.246 754.021 178.745 754.588 179.13C755.166 179.515 756.021 179.708 757.155 179.708C758.322 179.708 759.183 179.527 759.739 179.164C760.294 178.79 760.572 178.286 760.572 177.651C760.572 176.982 760.283 176.467 759.705 176.104C759.138 175.741 758.373 175.56 757.41 175.56H756.985ZM757.172 181.153C756.412 181.153 755.727 181.079 755.115 180.932C754.514 180.773 753.998 180.552 753.568 180.269C753.148 179.974 752.82 179.623 752.582 179.215C752.355 178.796 752.242 178.32 752.242 177.787C752.242 177.084 752.451 176.478 752.871 175.968C753.301 175.447 753.874 175.073 754.588 174.846C754.248 174.733 753.953 174.585 753.704 174.404C753.454 174.211 753.25 173.996 753.092 173.758C752.933 173.52 752.814 173.271 752.735 173.01C752.667 172.738 752.633 172.46 752.633 172.177C752.633 171.191 753.018 170.409 753.789 169.831C754.571 169.242 755.693 168.947 757.155 168.947C758.628 168.947 759.75 169.242 760.521 169.831C761.303 170.409 761.694 171.191 761.694 172.177C761.694 172.789 761.524 173.305 761.184 173.724C760.855 174.143 760.396 174.489 759.807 174.761C760.623 175.01 761.201 175.384 761.541 175.883C761.892 176.382 762.068 176.994 762.068 177.719C762.068 178.263 761.954 178.75 761.728 179.181C761.501 179.6 761.172 179.957 760.742 180.252C760.322 180.547 759.807 180.773 759.195 180.932C758.594 181.079 757.92 181.153 757.172 181.153ZM763.564 175.05C763.564 174.166 763.666 173.356 763.87 172.619C764.074 171.871 764.38 171.225 764.788 170.681C765.207 170.137 765.734 169.712 766.369 169.406C767.003 169.1 767.751 168.947 768.613 168.947C769.474 168.947 770.222 169.089 770.857 169.372C771.491 169.655 772.018 170.063 772.438 170.596C772.857 171.129 773.169 171.775 773.373 172.534C773.577 173.282 773.679 174.121 773.679 175.05C773.679 175.934 773.577 176.75 773.373 177.498C773.18 178.235 772.874 178.875 772.455 179.419C772.047 179.963 771.525 180.388 770.891 180.694C770.256 181 769.508 181.153 768.647 181.153C767.831 181.153 767.105 181 766.471 180.694C765.836 180.388 765.303 179.963 764.873 179.419C764.442 178.875 764.113 178.235 763.887 177.498C763.671 176.75 763.564 175.934 763.564 175.05ZM765.06 175.05C765.06 176.501 765.377 177.64 766.012 178.467C766.646 179.294 767.525 179.708 768.647 179.708C769.871 179.708 770.766 179.294 771.333 178.467C771.899 177.64 772.183 176.501 772.183 175.05C772.183 173.599 771.894 172.46 771.316 171.633C770.738 170.806 769.837 170.392 768.613 170.392C768.001 170.392 767.474 170.5 767.032 170.715C766.59 170.93 766.221 171.242 765.927 171.65C765.632 172.058 765.411 172.551 765.264 173.129C765.128 173.696 765.06 174.336 765.06 175.05Z" fill="#222429"/>
<path d="M862.501 358.2H863.775V368H862.501V358.2ZM866.162 358.2H867.436V368H866.162V358.2ZM869.823 358.2H871.097V368H869.823V358.2ZM877.127 360.72H878.303V363.982L881.915 360.72H883.567L879.801 364.066L883.749 368H882.097L878.905 364.794L878.303 365.354V368H877.127V360.72ZM884.876 360.72H887.9C888.899 360.72 889.645 360.86 890.14 361.14C890.635 361.411 890.882 361.891 890.882 362.582C890.882 362.937 890.775 363.263 890.56 363.562C890.345 363.851 890.047 364.052 889.664 364.164C890.149 364.267 890.513 364.472 890.756 364.78C890.999 365.088 891.12 365.466 891.12 365.914C891.12 366.595 890.859 367.113 890.336 367.468C889.823 367.823 889.085 368 888.124 368H884.876V360.72ZM886.052 364.836V366.894H887.998C888.623 366.894 889.095 366.815 889.412 366.656C889.729 366.488 889.888 366.227 889.888 365.872C889.888 365.499 889.743 365.233 889.454 365.074C889.174 364.915 888.735 364.836 888.138 364.836H886.052ZM886.052 361.826V363.73H888.264C888.703 363.73 889.043 363.646 889.286 363.478C889.529 363.31 889.65 363.063 889.65 362.736C889.65 362.54 889.603 362.386 889.51 362.274C889.426 362.153 889.305 362.059 889.146 361.994C888.987 361.929 888.796 361.887 888.572 361.868C888.357 361.84 888.119 361.826 887.858 361.826H886.052ZM892.355 367.202C892.355 367.015 892.435 366.838 892.593 366.67C892.752 366.502 892.962 366.418 893.223 366.418C893.466 366.418 893.667 366.502 893.825 366.67C893.984 366.838 894.063 367.015 894.063 367.202C894.063 367.417 893.984 367.608 893.825 367.776C893.667 367.944 893.466 368.028 893.223 368.028C892.962 368.028 892.752 367.944 892.593 367.776C892.435 367.608 892.355 367.417 892.355 367.202Z" fill="#777F8C"/>
<rect x="848" y="194" width="60" height="154" fill="#5FAF2D"/>
<rect x="848" y="194" width="60" height="4" fill="#3D7917"/>
<path d="M860.275 173.032H861.244V185H859.816V174.851L856.739 176.262L856.195 174.987L860.275 173.032ZM868.466 176.585C868.568 176.098 868.738 175.633 868.976 175.191C869.214 174.749 869.52 174.364 869.894 174.035C870.268 173.695 870.715 173.429 871.237 173.236C871.758 173.043 872.353 172.947 873.022 172.947C873.645 172.947 874.2 173.038 874.688 173.219C875.175 173.389 875.589 173.633 875.929 173.95C876.269 174.267 876.524 174.647 876.694 175.089C876.875 175.531 876.966 176.013 876.966 176.534C876.966 177.271 876.807 177.951 876.49 178.574C876.184 179.186 875.793 179.747 875.317 180.257C874.841 180.767 874.319 181.232 873.753 181.651C873.186 182.059 872.648 182.422 872.138 182.739L870.829 183.555H877.408V185H868.143V183.81L870.727 182.093C871.577 181.526 872.302 181.005 872.903 180.529C873.503 180.042 873.991 179.583 874.365 179.152C874.75 178.721 875.028 178.308 875.198 177.911C875.379 177.503 875.47 177.095 875.47 176.687C875.47 176.268 875.402 175.911 875.266 175.616C875.141 175.321 874.96 175.083 874.722 174.902C874.495 174.721 874.223 174.59 873.906 174.511C873.6 174.432 873.271 174.392 872.92 174.392C872.41 174.392 871.968 174.471 871.594 174.63C871.231 174.789 870.919 174.998 870.659 175.259C870.409 175.508 870.211 175.792 870.064 176.109C869.928 176.415 869.837 176.721 869.792 177.027L868.466 176.585ZM885.539 182.62H878.212V181.532L885.709 173.1H886.967V181.175H889.177V182.62H886.967V185H885.539V182.62ZM885.539 181.175V175.48L880.252 181.175H885.539ZM890.297 176.585C890.399 176.098 890.569 175.633 890.807 175.191C891.045 174.749 891.351 174.364 891.725 174.035C892.099 173.695 892.546 173.429 893.068 173.236C893.589 173.043 894.184 172.947 894.853 172.947C895.476 172.947 896.031 173.038 896.519 173.219C897.006 173.389 897.42 173.633 897.76 173.95C898.1 174.267 898.355 174.647 898.525 175.089C898.706 175.531 898.797 176.013 898.797 176.534C898.797 177.271 898.638 177.951 898.321 178.574C898.015 179.186 897.624 179.747 897.148 180.257C896.672 180.767 896.15 181.232 895.584 181.651C895.017 182.059 894.479 182.422 893.969 182.739L892.66 183.555H899.239V185H889.974V183.81L892.558 182.093C893.408 181.526 894.133 181.005 894.734 180.529C895.334 180.042 895.822 179.583 896.196 179.152C896.581 178.721 896.859 178.308 897.029 177.911C897.21 177.503 897.301 177.095 897.301 176.687C897.301 176.268 897.233 175.911 897.097 175.616C896.972 175.321 896.791 175.083 896.553 174.902C896.326 174.721 896.054 174.59 895.737 174.511C895.431 174.432 895.102 174.392 894.751 174.392C894.241 174.392 893.799 174.471 893.425 174.63C893.062 174.789 892.75 174.998 892.49 175.259C892.24 175.508 892.042 175.792 891.895 176.109C891.759 176.415 891.668 176.721 891.623 177.027L890.297 176.585Z" fill="#222429"/>
<path d="M987.385 358.2H988.659V368H987.385V358.2ZM995.204 368H994.28L989.856 358.2H991.228L994.77 366.208L998.074 358.2H999.404L995.204 368ZM1004.24 360.72H1005.42V363.982L1009.03 360.72H1010.68L1006.92 364.066L1010.87 368H1009.21L1006.02 364.794L1005.42 365.354V368H1004.24V360.72ZM1011.99 360.72H1015.02C1016.01 360.72 1016.76 360.86 1017.26 361.14C1017.75 361.411 1018 361.891 1018 362.582C1018 362.937 1017.89 363.263 1017.68 363.562C1017.46 363.851 1017.16 364.052 1016.78 364.164C1017.27 364.267 1017.63 364.472 1017.87 364.78C1018.11 365.088 1018.24 365.466 1018.24 365.914C1018.24 366.595 1017.97 367.113 1017.45 367.468C1016.94 367.823 1016.2 368 1015.24 368H1011.99V360.72ZM1013.17 364.836V366.894H1015.11C1015.74 366.894 1016.21 366.815 1016.53 366.656C1016.85 366.488 1017 366.227 1017 365.872C1017 365.499 1016.86 365.233 1016.57 365.074C1016.29 364.915 1015.85 364.836 1015.25 364.836H1013.17ZM1013.17 361.826V363.73H1015.38C1015.82 363.73 1016.16 363.646 1016.4 363.478C1016.64 363.31 1016.77 363.063 1016.77 362.736C1016.77 362.54 1016.72 362.386 1016.63 362.274C1016.54 362.153 1016.42 362.059 1016.26 361.994C1016.1 361.929 1015.91 361.887 1015.69 361.868C1015.47 361.84 1015.24 361.826 1014.97 361.826H1013.17ZM1019.47 367.202C1019.47 367.015 1019.55 366.838 1019.71 366.67C1019.87 366.502 1020.08 366.418 1020.34 366.418C1020.58 366.418 1020.78 366.502 1020.94 366.67C1021.1 366.838 1021.18 367.015 1021.18 367.202C1021.18 367.417 1021.1 367.608 1020.94 367.776C1020.78 367.944 1020.58 368.028 1020.34 368.028C1020.08 368.028 1019.87 367.944 1019.71 367.776C1019.55 367.608 1019.47 367.417 1019.47 367.202Z" fill="#777F8C"/>
<rect x="974" y="198" width="60" height="150" fill="#5FAF2D"/>
<rect x="974" y="198" width="60" height="4" fill="#3D7917"/>
<path d="M988.168 177.032H989.137V189H987.709V178.851L984.632 180.262L984.088 178.987L988.168 177.032ZM996.358 180.585C996.46 180.098 996.63 179.633 996.868 179.191C997.106 178.749 997.412 178.364 997.786 178.035C998.16 177.695 998.608 177.429 999.129 177.236C999.651 177.043 1000.25 176.947 1000.91 176.947C1001.54 176.947 1002.09 177.038 1002.58 177.219C1003.07 177.389 1003.48 177.633 1003.82 177.95C1004.16 178.267 1004.42 178.647 1004.59 179.089C1004.77 179.531 1004.86 180.013 1004.86 180.534C1004.86 181.271 1004.7 181.951 1004.38 182.574C1004.08 183.186 1003.69 183.747 1003.21 184.257C1002.73 184.767 1002.21 185.232 1001.65 185.651C1001.08 186.059 1000.54 186.422 1000.03 186.739L998.721 187.555H1005.3V189H996.035V187.81L998.619 186.093C999.469 185.526 1000.19 185.005 1000.8 184.529C1001.4 184.042 1001.88 183.583 1002.26 183.152C1002.64 182.721 1002.92 182.308 1003.09 181.911C1003.27 181.503 1003.36 181.095 1003.36 180.687C1003.36 180.268 1003.29 179.911 1003.16 179.616C1003.03 179.321 1002.85 179.083 1002.61 178.902C1002.39 178.721 1002.12 178.59 1001.8 178.511C1001.49 178.432 1001.16 178.392 1000.81 178.392C1000.3 178.392 999.86 178.471 999.486 178.63C999.124 178.789 998.812 178.998 998.551 179.259C998.302 179.508 998.104 179.792 997.956 180.109C997.82 180.415 997.73 180.721 997.684 181.027L996.358 180.585ZM1010.05 177.032H1011.02V189H1009.59V178.851L1006.51 180.262L1005.97 178.987L1010.05 177.032ZM1017.93 189.153C1016.9 189.153 1016.01 188.955 1015.28 188.558C1014.55 188.161 1014.01 187.657 1013.64 187.045L1014.87 186.195C1015.22 186.682 1015.68 187.056 1016.25 187.317C1016.82 187.578 1017.45 187.708 1018.13 187.708C1018.65 187.708 1019.13 187.606 1019.56 187.402C1020 187.187 1020.38 186.892 1020.7 186.518C1021.03 186.144 1021.28 185.702 1021.46 185.192C1021.65 184.682 1021.74 184.127 1021.74 183.526C1021.74 183.458 1021.74 183.39 1021.74 183.322C1021.74 183.254 1021.73 183.186 1021.72 183.118C1021.45 183.764 1020.98 184.302 1020.33 184.733C1019.68 185.152 1018.86 185.362 1017.86 185.362C1017.2 185.362 1016.6 185.266 1016.04 185.073C1015.49 184.869 1015 184.591 1014.6 184.24C1014.19 183.877 1013.87 183.447 1013.64 182.948C1013.42 182.449 1013.3 181.894 1013.3 181.282C1013.3 180.625 1013.42 180.03 1013.66 179.497C1013.91 178.953 1014.26 178.494 1014.7 178.12C1015.14 177.746 1015.67 177.457 1016.28 177.253C1016.9 177.049 1017.59 176.947 1018.34 176.947C1019.1 176.947 1019.78 177.077 1020.38 177.338C1020.99 177.587 1021.5 177.961 1021.92 178.46C1022.35 178.959 1022.68 179.576 1022.91 180.313C1023.14 181.038 1023.25 181.877 1023.25 182.829C1023.25 183.872 1023.12 184.79 1022.86 185.583C1022.61 186.365 1022.25 187.022 1021.77 187.555C1021.31 188.076 1020.74 188.473 1020.09 188.745C1019.44 189.017 1018.72 189.153 1017.93 189.153ZM1018.13 183.917C1018.62 183.917 1019.06 183.849 1019.46 183.713C1019.86 183.577 1020.19 183.39 1020.46 183.152C1020.74 182.903 1020.96 182.614 1021.11 182.285C1021.25 181.956 1021.33 181.605 1021.33 181.231C1021.33 180.868 1021.27 180.517 1021.16 180.177C1021.05 179.837 1020.86 179.537 1020.61 179.276C1020.37 179.004 1020.04 178.789 1019.63 178.63C1019.23 178.471 1018.74 178.392 1018.17 178.392C1017.11 178.392 1016.29 178.63 1015.68 179.106C1015.1 179.571 1014.8 180.256 1014.8 181.163C1014.8 182.024 1015.1 182.699 1015.7 183.186C1016.3 183.673 1017.11 183.917 1018.13 183.917Z" fill="#222429"/>
<rect y="348" width="1112" height="1" fill="#9299A3"/>
<circle cx="120" cy="109" r="5" fill="white" stroke="#648494" stroke-width="2"/>
<path d="M105.678 89.04H99.644V88.144L105.818 81.2H106.854V87.85H108.674V89.04H106.854V91H105.678V89.04ZM105.678 87.85V83.16L101.324 87.85H105.678ZM113.058 83.58C113.189 83.216 113.366 82.8847 113.59 82.586C113.814 82.278 114.085 82.012 114.402 81.788C114.729 81.564 115.102 81.3913 115.522 81.27C115.951 81.1393 116.432 81.074 116.964 81.074C117.44 81.074 117.879 81.1347 118.28 81.256C118.691 81.368 119.041 81.5313 119.33 81.746C119.629 81.9513 119.857 82.208 120.016 82.516C120.184 82.824 120.268 83.1647 120.268 83.538C120.268 84.1073 120.119 84.5927 119.82 84.994C119.531 85.3953 119.106 85.6753 118.546 85.834C118.789 85.8527 119.027 85.9133 119.26 86.016C119.493 86.1093 119.699 86.254 119.876 86.45C120.063 86.6367 120.212 86.8747 120.324 87.164C120.436 87.444 120.492 87.78 120.492 88.172C120.492 88.648 120.399 89.0727 120.212 89.446C120.035 89.81 119.783 90.118 119.456 90.37C119.139 90.6127 118.761 90.7993 118.322 90.93C117.883 91.0607 117.412 91.126 116.908 91.126C116.357 91.126 115.853 91.0607 115.396 90.93C114.948 90.7993 114.551 90.622 114.206 90.398C113.861 90.1647 113.567 89.8893 113.324 89.572C113.091 89.2453 112.913 88.886 112.792 88.494L113.926 88.004C114.047 88.256 114.192 88.4987 114.36 88.732C114.528 88.9653 114.733 89.1707 114.976 89.348C115.219 89.5253 115.503 89.67 115.83 89.782C116.157 89.8847 116.544 89.936 116.992 89.936C117.692 89.936 118.243 89.7867 118.644 89.488C119.055 89.18 119.26 88.746 119.26 88.186C119.26 87.878 119.195 87.6213 119.064 87.416C118.933 87.2013 118.751 87.0333 118.518 86.912C118.285 86.7813 118.009 86.6927 117.692 86.646C117.384 86.59 117.048 86.562 116.684 86.562H115.592V85.4H116.46C117.272 85.4 117.902 85.246 118.35 84.938C118.807 84.63 119.036 84.2427 119.036 83.776C119.036 83.272 118.845 82.894 118.462 82.642C118.079 82.39 117.561 82.264 116.908 82.264C116.507 82.264 116.152 82.3153 115.844 82.418C115.536 82.5207 115.265 82.656 115.032 82.824C114.808 82.992 114.617 83.1833 114.458 83.398C114.309 83.6127 114.192 83.832 114.108 84.056L113.058 83.58ZM122.637 81.2H128.797V82.39H123.715L123.351 85.022C123.565 84.8633 123.855 84.7327 124.219 84.63C124.592 84.518 125.045 84.462 125.577 84.462C126.165 84.462 126.687 84.546 127.145 84.714C127.602 84.882 127.985 85.1153 128.293 85.414C128.601 85.7127 128.834 86.0627 128.993 86.464C129.161 86.8653 129.245 87.2947 129.245 87.752C129.245 88.2467 129.147 88.6993 128.951 89.11C128.764 89.5207 128.498 89.8753 128.153 90.174C127.817 90.4727 127.415 90.706 126.949 90.874C126.491 91.042 125.992 91.126 125.451 91.126C125.003 91.126 124.573 91.0747 124.163 90.972C123.752 90.8693 123.369 90.7153 123.015 90.51C122.669 90.3047 122.361 90.0573 122.091 89.768C121.829 89.4693 121.619 89.124 121.461 88.732L122.581 88.256C122.674 88.4707 122.805 88.6807 122.973 88.886C123.141 89.082 123.346 89.2593 123.589 89.418C123.831 89.5767 124.107 89.7027 124.415 89.796C124.723 89.8893 125.068 89.936 125.451 89.936C125.88 89.936 126.253 89.88 126.571 89.768C126.897 89.6467 127.168 89.488 127.383 89.292C127.597 89.096 127.756 88.872 127.859 88.62C127.961 88.3587 128.013 88.0833 128.013 87.794C128.013 87.1313 127.765 86.6087 127.271 86.226C126.785 85.8433 126.109 85.652 125.241 85.652C124.746 85.652 124.331 85.722 123.995 85.862C123.668 85.9927 123.36 86.2027 123.071 86.492L122.063 86.226L122.637 81.2ZM131.301 81.2H137.461V82.39H132.379L132.015 85.022C132.23 84.8633 132.519 84.7327 132.883 84.63C133.257 84.518 133.709 84.462 134.241 84.462C134.829 84.462 135.352 84.546 135.809 84.714C136.267 84.882 136.649 85.1153 136.957 85.414C137.265 85.7127 137.499 86.0627 137.657 86.464C137.825 86.8653 137.909 87.2947 137.909 87.752C137.909 88.2467 137.811 88.6993 137.615 89.11C137.429 89.5207 137.163 89.8753 136.817 90.174C136.481 90.4727 136.08 90.706 135.613 90.874C135.156 91.042 134.657 91.126 134.115 91.126C133.667 91.126 133.238 91.0747 132.827 90.972C132.417 90.8693 132.034 90.7153 131.679 90.51C131.334 90.3047 131.026 90.0573 130.755 89.768C130.494 89.4693 130.284 89.124 130.125 88.732L131.245 88.256C131.339 88.4707 131.469 88.6807 131.637 88.886C131.805 89.082 132.011 89.2593 132.253 89.418C132.496 89.5767 132.771 89.7027 133.079 89.796C133.387 89.8893 133.733 89.936 134.115 89.936C134.545 89.936 134.918 89.88 135.235 89.768C135.562 89.6467 135.833 89.488 136.047 89.292C136.262 89.096 136.421 88.872 136.523 88.62C136.626 88.3587 136.677 88.0833 136.677 87.794C136.677 87.1313 136.43 86.6087 135.935 86.226C135.45 85.8433 134.773 85.652 133.905 85.652C133.411 85.652 132.995 85.722 132.659 85.862C132.333 85.9927 132.025 86.2027 131.735 86.492L130.727 86.226L131.301 81.2Z" fill="black"/>
<circle cx="246" cy="57" r="5" fill="white" stroke="#648494" stroke-width="2"/>
<circle cx="375" cy="91" r="5" fill="white" stroke="#648494" stroke-width="2"/>
<path d="M362.319 71.04H356.285V70.144L362.459 63.2H363.495V69.85H365.315V71.04H363.495V73H362.319V71.04ZM362.319 69.85V65.16L357.965 69.85H362.319ZM370.777 63.2H376.937V64.39H371.855L371.491 67.022C371.705 66.8633 371.995 66.7327 372.359 66.63C372.732 66.518 373.185 66.462 373.717 66.462C374.305 66.462 374.827 66.546 375.285 66.714C375.742 66.882 376.125 67.1153 376.433 67.414C376.741 67.7127 376.974 68.0627 377.133 68.464C377.301 68.8653 377.385 69.2947 377.385 69.752C377.385 70.2467 377.287 70.6993 377.091 71.11C376.904 71.5207 376.638 71.8753 376.293 72.174C375.957 72.4727 375.555 72.706 375.089 72.874C374.631 73.042 374.132 73.126 373.591 73.126C373.143 73.126 372.713 73.0747 372.303 72.972C371.892 72.8693 371.509 72.7153 371.155 72.51C370.809 72.3047 370.501 72.0573 370.231 71.768C369.969 71.4693 369.759 71.124 369.601 70.732L370.721 70.256C370.814 70.4707 370.945 70.6807 371.113 70.886C371.281 71.082 371.486 71.2593 371.729 71.418C371.971 71.5767 372.247 71.7027 372.555 71.796C372.863 71.8893 373.208 71.936 373.591 71.936C374.02 71.936 374.393 71.88 374.711 71.768C375.037 71.6467 375.308 71.488 375.523 71.292C375.737 71.096 375.896 70.872 375.999 70.62C376.101 70.3587 376.153 70.0833 376.153 69.794C376.153 69.1313 375.905 68.6087 375.411 68.226C374.925 67.8433 374.249 67.652 373.381 67.652C372.886 67.652 372.471 67.722 372.135 67.862C371.808 67.9927 371.5 68.2027 371.211 68.492L370.203 68.226L370.777 63.2ZM381.247 63.144H382.045V73H380.869V64.642L378.335 65.804L377.887 64.754L381.247 63.144ZM383.747 65.58C383.877 65.216 384.055 64.8847 384.279 64.586C384.503 64.278 384.773 64.012 385.091 63.788C385.417 63.564 385.791 63.3913 386.211 63.27C386.64 63.1393 387.121 63.074 387.653 63.074C388.129 63.074 388.567 63.1347 388.969 63.256C389.379 63.368 389.729 63.5313 390.019 63.746C390.317 63.9513 390.546 64.208 390.705 64.516C390.873 64.824 390.957 65.1647 390.957 65.538C390.957 66.1073 390.807 66.5927 390.509 66.994C390.219 67.3953 389.795 67.6753 389.235 67.834C389.477 67.8527 389.715 67.9133 389.949 68.016C390.182 68.1093 390.387 68.254 390.565 68.45C390.751 68.6367 390.901 68.8747 391.013 69.164C391.125 69.444 391.181 69.78 391.181 70.172C391.181 70.648 391.087 71.0727 390.901 71.446C390.723 71.81 390.471 72.118 390.145 72.37C389.827 72.6127 389.449 72.7993 389.011 72.93C388.572 73.0607 388.101 73.126 387.597 73.126C387.046 73.126 386.542 73.0607 386.085 72.93C385.637 72.7993 385.24 72.622 384.895 72.398C384.549 72.1647 384.255 71.8893 384.013 71.572C383.779 71.2453 383.602 70.886 383.481 70.494L384.615 70.004C384.736 70.256 384.881 70.4987 385.049 70.732C385.217 70.9653 385.422 71.1707 385.665 71.348C385.907 71.5253 386.192 71.67 386.519 71.782C386.845 71.8847 387.233 71.936 387.681 71.936C388.381 71.936 388.931 71.7867 389.333 71.488C389.743 71.18 389.949 70.746 389.949 70.186C389.949 69.878 389.883 69.6213 389.753 69.416C389.622 69.2013 389.44 69.0333 389.207 68.912C388.973 68.7813 388.698 68.6927 388.381 68.646C388.073 68.59 387.737 68.562 387.373 68.562H386.281V67.4H387.149C387.961 67.4 388.591 67.246 389.039 66.938C389.496 66.63 389.725 66.2427 389.725 65.776C389.725 65.272 389.533 64.894 389.151 64.642C388.768 64.39 388.25 64.264 387.597 64.264C387.195 64.264 386.841 64.3153 386.533 64.418C386.225 64.5207 385.954 64.656 385.721 64.824C385.497 64.992 385.305 65.1833 385.147 65.398C384.997 65.6127 384.881 65.832 384.797 66.056L383.747 65.58Z" fill="black"/>
<circle cx="501" cy="96" r="5" fill="white" stroke="#648494" stroke-width="2"/>
<path d="M486.494 76.04H480.46V75.144L486.634 68.2H487.67V74.85H489.49V76.04H487.67V78H486.494V76.04ZM486.494 74.85V70.16L482.14 74.85H486.494ZM499.544 76.04H493.51V75.144L499.684 68.2H500.72V74.85H502.54V76.04H500.72V78H499.544V76.04ZM499.544 74.85V70.16L495.19 74.85H499.544ZM504.219 68.2H510.379V69.39H505.297L504.933 72.022C505.147 71.8633 505.437 71.7327 505.801 71.63C506.174 71.518 506.627 71.462 507.159 71.462C507.747 71.462 508.269 71.546 508.727 71.714C509.184 71.882 509.567 72.1153 509.875 72.414C510.183 72.7127 510.416 73.0627 510.575 73.464C510.743 73.8653 510.827 74.2947 510.827 74.752C510.827 75.2467 510.729 75.6993 510.533 76.11C510.346 76.5207 510.08 76.8753 509.735 77.174C509.399 77.4727 508.997 77.706 508.531 77.874C508.073 78.042 507.574 78.126 507.033 78.126C506.585 78.126 506.155 78.0747 505.745 77.972C505.334 77.8693 504.951 77.7153 504.597 77.51C504.251 77.3047 503.943 77.0573 503.673 76.768C503.411 76.4693 503.201 76.124 503.043 75.732L504.163 75.256C504.256 75.4707 504.387 75.6807 504.555 75.886C504.723 76.082 504.928 76.2593 505.171 76.418C505.413 76.5767 505.689 76.7027 505.997 76.796C506.305 76.8893 506.65 76.936 507.033 76.936C507.462 76.936 507.835 76.88 508.153 76.768C508.479 76.6467 508.75 76.488 508.965 76.292C509.179 76.096 509.338 75.872 509.441 75.62C509.543 75.3587 509.595 75.0833 509.595 74.794C509.595 74.1313 509.347 73.6087 508.853 73.226C508.367 72.8433 507.691 72.652 506.823 72.652C506.328 72.652 505.913 72.722 505.577 72.862C505.25 72.9927 504.942 73.2027 504.653 73.492L503.645 73.226L504.219 68.2ZM517.475 76.04H511.441V75.144L517.615 68.2H518.651V74.85H520.471V76.04H518.651V78H517.475V76.04ZM517.475 74.85V70.16L513.121 74.85H517.475Z" fill="black"/>
<circle cx="627" cy="88" r="5" fill="white" stroke="#648494" stroke-width="2"/>
<path d="M612.377 68.04H606.343V67.144L612.517 60.2H613.553V66.85H615.373V68.04H613.553V70H612.377V68.04ZM612.377 66.85V62.16L608.023 66.85H612.377ZM620.835 60.2H626.995V61.39H621.913L621.549 64.022C621.764 63.8633 622.053 63.7327 622.417 63.63C622.791 63.518 623.243 63.462 623.775 63.462C624.363 63.462 624.886 63.546 625.343 63.714C625.801 63.882 626.183 64.1153 626.491 64.414C626.799 64.7127 627.033 65.0627 627.191 65.464C627.359 65.8653 627.443 66.2947 627.443 66.752C627.443 67.2467 627.345 67.6993 627.149 68.11C626.963 68.5207 626.697 68.8753 626.351 69.174C626.015 69.4727 625.614 69.706 625.147 69.874C624.69 70.042 624.191 70.126 623.649 70.126C623.201 70.126 622.772 70.0747 622.361 69.972C621.951 69.8693 621.568 69.7153 621.213 69.51C620.868 69.3047 620.56 69.0573 620.289 68.768C620.028 68.4693 619.818 68.124 619.659 67.732L620.779 67.256C620.873 67.4707 621.003 67.6807 621.171 67.886C621.339 68.082 621.545 68.2593 621.787 68.418C622.03 68.5767 622.305 68.7027 622.613 68.796C622.921 68.8893 623.267 68.936 623.649 68.936C624.079 68.936 624.452 68.88 624.769 68.768C625.096 68.6467 625.367 68.488 625.581 68.292C625.796 68.096 625.955 67.872 626.057 67.62C626.16 67.3587 626.211 67.0833 626.211 66.794C626.211 66.1313 625.964 65.6087 625.469 65.226C624.984 64.8433 624.307 64.652 623.439 64.652C622.945 64.652 622.529 64.722 622.193 64.862C621.867 64.9927 621.559 65.2027 621.269 65.492L620.261 65.226L620.835 60.2ZM628.422 62.58C628.553 62.216 628.73 61.8847 628.954 61.586C629.178 61.278 629.449 61.012 629.766 60.788C630.093 60.564 630.466 60.3913 630.886 60.27C631.315 60.1393 631.796 60.074 632.328 60.074C632.804 60.074 633.243 60.1347 633.644 60.256C634.055 60.368 634.405 60.5313 634.694 60.746C634.993 60.9513 635.221 61.208 635.38 61.516C635.548 61.824 635.632 62.1647 635.632 62.538C635.632 63.1073 635.483 63.5927 635.184 63.994C634.895 64.3953 634.47 64.6753 633.91 64.834C634.153 64.8527 634.391 64.9133 634.624 65.016C634.857 65.1093 635.063 65.254 635.24 65.45C635.427 65.6367 635.576 65.8747 635.688 66.164C635.8 66.444 635.856 66.78 635.856 67.172C635.856 67.648 635.763 68.0727 635.576 68.446C635.399 68.81 635.147 69.118 634.82 69.37C634.503 69.6127 634.125 69.7993 633.686 69.93C633.247 70.0607 632.776 70.126 632.272 70.126C631.721 70.126 631.217 70.0607 630.76 69.93C630.312 69.7993 629.915 69.622 629.57 69.398C629.225 69.1647 628.931 68.8893 628.688 68.572C628.455 68.2453 628.277 67.886 628.156 67.494L629.29 67.004C629.411 67.256 629.556 67.4987 629.724 67.732C629.892 67.9653 630.097 68.1707 630.34 68.348C630.583 68.5253 630.867 68.67 631.194 68.782C631.521 68.8847 631.908 68.936 632.356 68.936C633.056 68.936 633.607 68.7867 634.008 68.488C634.419 68.18 634.624 67.746 634.624 67.186C634.624 66.878 634.559 66.6213 634.428 66.416C634.297 66.2013 634.115 66.0333 633.882 65.912C633.649 65.7813 633.373 65.6927 633.056 65.646C632.748 65.59 632.412 65.562 632.048 65.562H630.956V64.4H631.824C632.636 64.4 633.266 64.246 633.714 63.938C634.171 63.63 634.4 63.2427 634.4 62.776C634.4 62.272 634.209 61.894 633.826 61.642C633.443 61.39 632.925 61.264 632.272 61.264C631.871 61.264 631.516 61.3153 631.208 61.418C630.9 61.5207 630.629 61.656 630.396 61.824C630.172 61.992 629.981 62.1833 629.822 62.398C629.673 62.6127 629.556 62.832 629.472 63.056L628.422 62.58ZM642.593 68.04H636.559V67.144L642.733 60.2H643.769V66.85H645.589V68.04H643.769V70H642.593V68.04ZM642.593 66.85V62.16L638.239 66.85H642.593Z" fill="black"/>
<circle cx="753" cy="68" r="5" fill="white" stroke="#648494" stroke-width="2"/>
<path d="M739.198 48.04H733.164V47.144L739.338 40.2H740.374V46.85H742.194V48.04H740.374V50H739.198V48.04ZM739.198 46.85V42.16L734.844 46.85H739.198ZM746.341 40.2H753.775V40.998L748.903 50H747.573L752.277 41.39H746.341V40.2ZM760.107 48.04H754.073V47.144L760.247 40.2H761.283V46.85H763.103V48.04H761.283V50H760.107V48.04ZM760.107 46.85V42.16L755.753 46.85H760.107ZM764.781 40.2H770.941V41.39H765.859L765.495 44.022C765.71 43.8633 765.999 43.7327 766.363 43.63C766.736 43.518 767.189 43.462 767.721 43.462C768.309 43.462 768.832 43.546 769.289 43.714C769.746 43.882 770.129 44.1153 770.437 44.414C770.745 44.7127 770.978 45.0627 771.137 45.464C771.305 45.8653 771.389 46.2947 771.389 46.752C771.389 47.2467 771.291 47.6993 771.095 48.11C770.908 48.5207 770.642 48.8753 770.297 49.174C769.961 49.4727 769.56 49.706 769.093 49.874C768.636 50.042 768.136 50.126 767.595 50.126C767.147 50.126 766.718 50.0747 766.307 49.972C765.896 49.8693 765.514 49.7153 765.159 49.51C764.814 49.3047 764.506 49.0573 764.235 48.768C763.974 48.4693 763.764 48.124 763.605 47.732L764.725 47.256C764.818 47.4707 764.949 47.6807 765.117 47.886C765.285 48.082 765.49 48.2593 765.733 48.418C765.976 48.5767 766.251 48.7027 766.559 48.796C766.867 48.8893 767.212 48.936 767.595 48.936C768.024 48.936 768.398 48.88 768.715 48.768C769.042 48.6467 769.312 48.488 769.527 48.292C769.742 48.096 769.9 47.872 770.003 47.62C770.106 47.3587 770.157 47.0833 770.157 46.794C770.157 46.1313 769.91 45.6087 769.415 45.226C768.93 44.8433 768.253 44.652 767.385 44.652C766.89 44.652 766.475 44.722 766.139 44.862C765.812 44.9927 765.504 45.2027 765.215 45.492L764.207 45.226L764.781 40.2Z" fill="black"/>
<circle cx="879" cy="74" r="5" fill="white" stroke="#648494" stroke-width="2"/>
<path d="M866.217 54.04H860.183V53.144L866.357 46.2H867.393V52.85H869.213V54.04H867.393V56H866.217V54.04ZM866.217 52.85V48.16L861.863 52.85H866.217ZM877.965 56.126C877.312 56.126 876.719 56.0233 876.187 55.818C875.664 55.6127 875.216 55.3093 874.843 54.908C874.47 54.4973 874.18 53.998 873.975 53.41C873.779 52.822 873.681 52.1407 873.681 51.366C873.681 50.4887 873.798 49.7187 874.031 49.056C874.264 48.3933 874.577 47.8427 874.969 47.404C875.37 46.956 875.832 46.6247 876.355 46.41C876.887 46.186 877.447 46.074 878.035 46.074C878.884 46.074 879.608 46.2467 880.205 46.592C880.802 46.9373 881.236 47.404 881.507 47.992L880.555 48.636C880.284 48.216 879.934 47.8847 879.505 47.642C879.085 47.39 878.576 47.264 877.979 47.264C877.512 47.264 877.092 47.3573 876.719 47.544C876.346 47.7213 876.024 47.9827 875.753 48.328C875.482 48.664 875.272 49.0747 875.123 49.56C874.974 50.036 874.894 50.5727 874.885 51.17V51.324C875.016 51.016 875.193 50.7453 875.417 50.512C875.65 50.2787 875.912 50.0827 876.201 49.924C876.49 49.7653 876.798 49.6487 877.125 49.574C877.461 49.49 877.802 49.448 878.147 49.448C878.716 49.448 879.23 49.5273 879.687 49.686C880.144 49.8447 880.532 50.0687 880.849 50.358C881.176 50.6473 881.423 50.9927 881.591 51.394C881.759 51.7953 881.843 52.2387 881.843 52.724C881.843 53.228 881.74 53.69 881.535 54.11C881.339 54.53 881.064 54.8893 880.709 55.188C880.364 55.4867 879.953 55.72 879.477 55.888C879.01 56.0467 878.506 56.126 877.965 56.126ZM877.951 54.936C878.343 54.936 878.698 54.8847 879.015 54.782C879.342 54.6793 879.622 54.5347 879.855 54.348C880.098 54.152 880.284 53.9233 880.415 53.662C880.546 53.4007 880.611 53.1067 880.611 52.78C880.611 52.4253 880.546 52.1173 880.415 51.856C880.294 51.5853 880.121 51.3613 879.897 51.184C879.673 50.9973 879.402 50.862 879.085 50.778C878.777 50.6847 878.441 50.638 878.077 50.638C877.181 50.638 876.5 50.8293 876.033 51.212C875.576 51.5947 875.347 52.0847 875.347 52.682C875.347 52.99 875.408 53.2793 875.529 53.55C875.65 53.8207 875.823 54.0587 876.047 54.264C876.271 54.4693 876.542 54.6327 876.859 54.754C877.186 54.8753 877.55 54.936 877.951 54.936ZM887.15 50.414C887.467 50.414 887.761 50.3767 888.032 50.302C888.312 50.218 888.554 50.106 888.76 49.966C888.965 49.826 889.124 49.658 889.236 49.462C889.357 49.266 889.418 49.0513 889.418 48.818C889.418 48.314 889.208 47.9313 888.788 47.67C888.377 47.3993 887.747 47.264 886.898 47.264C886.076 47.264 885.456 47.3993 885.036 47.67C884.625 47.9407 884.42 48.3233 884.42 48.818C884.42 49.042 884.476 49.252 884.588 49.448C884.7 49.644 884.854 49.8167 885.05 49.966C885.255 50.106 885.498 50.218 885.778 50.302C886.067 50.3767 886.38 50.414 886.716 50.414H887.15ZM886.772 51.52C886.38 51.52 886.016 51.5667 885.68 51.66C885.353 51.744 885.073 51.8653 884.84 52.024C884.606 52.1733 884.424 52.3553 884.294 52.57C884.163 52.7753 884.098 52.9947 884.098 53.228C884.098 53.732 884.331 54.1427 884.798 54.46C885.274 54.7773 885.978 54.936 886.912 54.936C887.873 54.936 888.582 54.7867 889.04 54.488C889.497 54.18 889.726 53.7647 889.726 53.242C889.726 52.6913 889.488 52.2667 889.012 51.968C888.545 51.6693 887.915 51.52 887.122 51.52H886.772ZM886.926 56.126C886.3 56.126 885.736 56.0653 885.232 55.944C884.737 55.8133 884.312 55.6313 883.958 55.398C883.612 55.1553 883.342 54.866 883.146 54.53C882.959 54.1847 882.866 53.7927 882.866 53.354C882.866 52.7753 883.038 52.276 883.384 51.856C883.738 51.4267 884.21 51.1187 884.798 50.932C884.518 50.8387 884.275 50.7173 884.07 50.568C883.864 50.4093 883.696 50.232 883.566 50.036C883.435 49.84 883.337 49.6347 883.272 49.42C883.216 49.196 883.188 48.9673 883.188 48.734C883.188 47.922 883.505 47.278 884.14 46.802C884.784 46.3167 885.708 46.074 886.912 46.074C888.125 46.074 889.049 46.3167 889.684 46.802C890.328 47.278 890.65 47.922 890.65 48.734C890.65 49.238 890.51 49.6627 890.23 50.008C889.959 50.3533 889.581 50.638 889.096 50.862C889.768 51.0673 890.244 51.3753 890.524 51.786C890.813 52.1967 890.958 52.7007 890.958 53.298C890.958 53.746 890.864 54.1473 890.678 54.502C890.491 54.8473 890.22 55.1413 889.866 55.384C889.52 55.6267 889.096 55.8133 888.592 55.944C888.097 56.0653 887.542 56.126 886.926 56.126ZM894.85 46.144H895.648V56H894.472V47.642L891.938 48.804L891.49 47.754L894.85 46.144Z" fill="black"/>
<circle cx="1005" cy="33" r="5" fill="white" stroke="#648494" stroke-width="2"/>
<path d="M986.935 5.2H993.095V6.39H988.013L987.649 9.022C987.863 8.86333 988.153 8.73267 988.517 8.63C988.89 8.518 989.343 8.462 989.875 8.462C990.463 8.462 990.985 8.546 991.443 8.714C991.9 8.882 992.283 9.11533 992.591 9.414C992.899 9.71267 993.132 10.0627 993.291 10.464C993.459 10.8653 993.543 11.2947 993.543 11.752C993.543 12.2467 993.445 12.6993 993.249 13.11C993.062 13.5207 992.796 13.8753 992.451 14.174C992.115 14.4727 991.713 14.706 991.247 14.874C990.789 15.042 990.29 15.126 989.749 15.126C989.301 15.126 988.871 15.0747 988.461 14.972C988.05 14.8693 987.667 14.7153 987.313 14.51C986.967 14.3047 986.659 14.0573 986.389 13.768C986.127 13.4693 985.917 13.124 985.759 12.732L986.879 12.256C986.972 12.4707 987.103 12.6807 987.271 12.886C987.439 13.082 987.644 13.2593 987.887 13.418C988.129 13.5767 988.405 13.7027 988.713 13.796C989.021 13.8893 989.366 13.936 989.749 13.936C990.178 13.936 990.551 13.88 990.869 13.768C991.195 13.6467 991.466 13.488 991.681 13.292C991.895 13.096 992.054 12.872 992.157 12.62C992.259 12.3587 992.311 12.0833 992.311 11.794C992.311 11.1313 992.063 10.6087 991.569 10.226C991.083 9.84333 990.407 9.652 989.539 9.652C989.044 9.652 988.629 9.722 988.293 9.862C987.966 9.99267 987.658 10.2027 987.369 10.492L986.361 10.226L986.935 5.2ZM998.305 7.58C998.436 7.216 998.613 6.88467 998.837 6.586C999.061 6.278 999.332 6.012 999.649 5.788C999.976 5.564 1000.35 5.39133 1000.77 5.27C1001.2 5.13933 1001.68 5.074 1002.21 5.074C1002.69 5.074 1003.13 5.13467 1003.53 5.256C1003.94 5.368 1004.29 5.53133 1004.58 5.746C1004.88 5.95133 1005.1 6.208 1005.26 6.516C1005.43 6.824 1005.52 7.16467 1005.52 7.538C1005.52 8.10733 1005.37 8.59267 1005.07 8.994C1004.78 9.39533 1004.35 9.67533 1003.79 9.834C1004.04 9.85267 1004.27 9.91333 1004.51 10.016C1004.74 10.1093 1004.95 10.254 1005.12 10.45C1005.31 10.6367 1005.46 10.8747 1005.57 11.164C1005.68 11.444 1005.74 11.78 1005.74 12.172C1005.74 12.648 1005.65 13.0727 1005.46 13.446C1005.28 13.81 1005.03 14.118 1004.7 14.37C1004.39 14.6127 1004.01 14.7993 1003.57 14.93C1003.13 15.0607 1002.66 15.126 1002.16 15.126C1001.6 15.126 1001.1 15.0607 1000.64 14.93C1000.2 14.7993 999.798 14.622 999.453 14.398C999.108 14.1647 998.814 13.8893 998.571 13.572C998.338 13.2453 998.16 12.886 998.039 12.494L999.173 12.004C999.294 12.256 999.439 12.4987 999.607 12.732C999.775 12.9653 999.98 13.1707 1000.22 13.348C1000.47 13.5253 1000.75 13.67 1001.08 13.782C1001.4 13.8847 1001.79 13.936 1002.24 13.936C1002.94 13.936 1003.49 13.7867 1003.89 13.488C1004.3 13.18 1004.51 12.746 1004.51 12.186C1004.51 11.878 1004.44 11.6213 1004.31 11.416C1004.18 11.2013 1004 11.0333 1003.77 10.912C1003.53 10.7813 1003.26 10.6927 1002.94 10.646C1002.63 10.59 1002.3 10.562 1001.93 10.562H1000.84V9.4H1001.71C1002.52 9.4 1003.15 9.246 1003.6 8.938C1004.05 8.63 1004.28 8.24267 1004.28 7.776C1004.28 7.272 1004.09 6.894 1003.71 6.642C1003.33 6.39 1002.81 6.264 1002.16 6.264C1001.75 6.264 1001.4 6.31533 1001.09 6.418C1000.78 6.52067 1000.51 6.656 1000.28 6.824C1000.06 6.992 999.864 7.18333 999.705 7.398C999.556 7.61267 999.439 7.832 999.355 8.056L998.305 7.58ZM1006.89 10.1C1006.89 9.372 1006.97 8.70467 1007.14 8.098C1007.31 7.482 1007.56 6.95 1007.9 6.502C1008.24 6.054 1008.68 5.704 1009.2 5.452C1009.72 5.2 1010.34 5.074 1011.05 5.074C1011.76 5.074 1012.37 5.19067 1012.9 5.424C1013.42 5.65733 1013.85 5.99333 1014.2 6.432C1014.54 6.87067 1014.8 7.40267 1014.97 8.028C1015.14 8.644 1015.22 9.33467 1015.22 10.1C1015.22 10.828 1015.14 11.5 1014.97 12.116C1014.81 12.7227 1014.56 13.25 1014.21 13.698C1013.88 14.146 1013.45 14.496 1012.92 14.748C1012.4 15 1011.79 15.126 1011.08 15.126C1010.4 15.126 1009.81 15 1009.28 14.748C1008.76 14.496 1008.32 14.146 1007.97 13.698C1007.61 13.25 1007.34 12.7227 1007.16 12.116C1006.98 11.5 1006.89 10.828 1006.89 10.1ZM1008.12 10.1C1008.12 11.2947 1008.38 12.2327 1008.91 12.914C1009.43 13.5953 1010.15 13.936 1011.08 13.936C1012.08 13.936 1012.82 13.5953 1013.29 12.914C1013.75 12.2327 1013.99 11.2947 1013.99 10.1C1013.99 8.90533 1013.75 7.96733 1013.27 7.286C1012.8 6.60467 1012.06 6.264 1011.05 6.264C1010.54 6.264 1010.11 6.35267 1009.75 6.53C1009.38 6.70733 1009.08 6.964 1008.84 7.3C1008.59 7.636 1008.41 8.042 1008.29 8.518C1008.18 8.98467 1008.12 9.512 1008.12 10.1ZM1015.94 5.2H1023.38V5.998L1018.51 15H1017.18L1021.88 6.39H1015.94V5.2Z" fill="black"/>
<path d="M91 365V375H530V365" stroke="#B4BBC5"/>
<path d="M295.818 389.07C295.902 388.669 296.042 388.286 296.238 387.922C296.434 387.558 296.686 387.241 296.994 386.97C297.302 386.69 297.671 386.471 298.1 386.312C298.53 386.153 299.02 386.074 299.57 386.074C300.084 386.074 300.541 386.149 300.942 386.298C301.344 386.438 301.684 386.639 301.964 386.9C302.244 387.161 302.454 387.474 302.594 387.838C302.744 388.202 302.818 388.599 302.818 389.028C302.818 389.635 302.688 390.195 302.426 390.708C302.174 391.212 301.852 391.674 301.46 392.094C301.068 392.514 300.639 392.897 300.172 393.242C299.706 393.578 299.262 393.877 298.842 394.138L297.764 394.81H303.182V396H295.552V395.02L297.68 393.606C298.38 393.139 298.978 392.71 299.472 392.318C299.967 391.917 300.368 391.539 300.676 391.184C300.994 390.829 301.222 390.489 301.362 390.162C301.512 389.826 301.586 389.49 301.586 389.154C301.586 388.809 301.53 388.515 301.418 388.272C301.316 388.029 301.166 387.833 300.97 387.684C300.784 387.535 300.56 387.427 300.298 387.362C300.046 387.297 299.776 387.264 299.486 387.264C299.066 387.264 298.702 387.329 298.394 387.46C298.096 387.591 297.839 387.763 297.624 387.978C297.419 388.183 297.256 388.417 297.134 388.678C297.022 388.93 296.948 389.182 296.91 389.434L295.818 389.07ZM304.152 391.1C304.152 390.372 304.236 389.705 304.404 389.098C304.572 388.482 304.824 387.95 305.16 387.502C305.506 387.054 305.94 386.704 306.462 386.452C306.985 386.2 307.601 386.074 308.31 386.074C309.02 386.074 309.636 386.191 310.158 386.424C310.681 386.657 311.115 386.993 311.46 387.432C311.806 387.871 312.062 388.403 312.23 389.028C312.398 389.644 312.482 390.335 312.482 391.1C312.482 391.828 312.398 392.5 312.23 393.116C312.072 393.723 311.82 394.25 311.474 394.698C311.138 395.146 310.709 395.496 310.186 395.748C309.664 396 309.048 396.126 308.338 396.126C307.666 396.126 307.069 396 306.546 395.748C306.024 395.496 305.585 395.146 305.23 394.698C304.876 394.25 304.605 393.723 304.418 393.116C304.241 392.5 304.152 391.828 304.152 391.1ZM305.384 391.1C305.384 392.295 305.646 393.233 306.168 393.914C306.691 394.595 307.414 394.936 308.338 394.936C309.346 394.936 310.084 394.595 310.55 393.914C311.017 393.233 311.25 392.295 311.25 391.1C311.25 389.905 311.012 388.967 310.536 388.286C310.06 387.605 309.318 387.264 308.31 387.264C307.806 387.264 307.372 387.353 307.008 387.53C306.644 387.707 306.341 387.964 306.098 388.3C305.856 388.636 305.674 389.042 305.552 389.518C305.44 389.985 305.384 390.512 305.384 391.1ZM313.626 389.07C313.71 388.669 313.85 388.286 314.046 387.922C314.242 387.558 314.494 387.241 314.802 386.97C315.11 386.69 315.479 386.471 315.908 386.312C316.337 386.153 316.827 386.074 317.378 386.074C317.891 386.074 318.349 386.149 318.75 386.298C319.151 386.438 319.492 386.639 319.772 386.9C320.052 387.161 320.262 387.474 320.402 387.838C320.551 388.202 320.626 388.599 320.626 389.028C320.626 389.635 320.495 390.195 320.234 390.708C319.982 391.212 319.66 391.674 319.268 392.094C318.876 392.514 318.447 392.897 317.98 393.242C317.513 393.578 317.07 393.877 316.65 394.138L315.572 394.81H320.99V396H313.36V395.02L315.488 393.606C316.188 393.139 316.785 392.71 317.28 392.318C317.775 391.917 318.176 391.539 318.484 391.184C318.801 390.829 319.03 390.489 319.17 390.162C319.319 389.826 319.394 389.49 319.394 389.154C319.394 388.809 319.338 388.515 319.226 388.272C319.123 388.029 318.974 387.833 318.778 387.684C318.591 387.535 318.367 387.427 318.106 387.362C317.854 387.297 317.583 387.264 317.294 387.264C316.874 387.264 316.51 387.329 316.202 387.46C315.903 387.591 315.647 387.763 315.432 387.978C315.227 388.183 315.063 388.417 314.942 388.678C314.83 388.93 314.755 389.182 314.718 389.434L313.626 389.07ZM324.76 386.144H325.558V396H324.382V387.642L321.848 388.804L321.4 387.754L324.76 386.144Z" fill="#222429"/>
<path d="M596 365V375H1034V365" stroke="#B4BBC5"/>
<path d="M797.794 389.07C797.878 388.669 798.018 388.286 798.214 387.922C798.41 387.558 798.662 387.241 798.97 386.97C799.278 386.69 799.646 386.471 800.076 386.312C800.505 386.153 800.995 386.074 801.546 386.074C802.059 386.074 802.516 386.149 802.918 386.298C803.319 386.438 803.66 386.639 803.94 386.9C804.22 387.161 804.43 387.474 804.57 387.838C804.719 388.202 804.794 388.599 804.794 389.028C804.794 389.635 804.663 390.195 804.402 390.708C804.15 391.212 803.828 391.674 803.436 392.094C803.044 392.514 802.614 392.897 802.148 393.242C801.681 393.578 801.238 393.877 800.818 394.138L799.74 394.81H805.158V396H797.528V395.02L799.656 393.606C800.356 393.139 800.953 392.71 801.448 392.318C801.942 391.917 802.344 391.539 802.652 391.184C802.969 390.829 803.198 390.489 803.338 390.162C803.487 389.826 803.562 389.49 803.562 389.154C803.562 388.809 803.506 388.515 803.394 388.272C803.291 388.029 803.142 387.833 802.946 387.684C802.759 387.535 802.535 387.427 802.274 387.362C802.022 387.297 801.751 387.264 801.462 387.264C801.042 387.264 800.678 387.329 800.37 387.46C800.071 387.591 799.814 387.763 799.6 387.978C799.394 388.183 799.231 388.417 799.11 388.678C798.998 388.93 798.923 389.182 798.886 389.434L797.794 389.07ZM806.128 391.1C806.128 390.372 806.212 389.705 806.38 389.098C806.548 388.482 806.8 387.95 807.136 387.502C807.481 387.054 807.915 386.704 808.438 386.452C808.961 386.2 809.577 386.074 810.286 386.074C810.995 386.074 811.611 386.191 812.134 386.424C812.657 386.657 813.091 386.993 813.436 387.432C813.781 387.871 814.038 388.403 814.206 389.028C814.374 389.644 814.458 390.335 814.458 391.1C814.458 391.828 814.374 392.5 814.206 393.116C814.047 393.723 813.795 394.25 813.45 394.698C813.114 395.146 812.685 395.496 812.162 395.748C811.639 396 811.023 396.126 810.314 396.126C809.642 396.126 809.045 396 808.522 395.748C807.999 395.496 807.561 395.146 807.206 394.698C806.851 394.25 806.581 393.723 806.394 393.116C806.217 392.5 806.128 391.828 806.128 391.1ZM807.36 391.1C807.36 392.295 807.621 393.233 808.144 393.914C808.667 394.595 809.39 394.936 810.314 394.936C811.322 394.936 812.059 394.595 812.526 393.914C812.993 393.233 813.226 392.295 813.226 391.1C813.226 389.905 812.988 388.967 812.512 388.286C812.036 387.605 811.294 387.264 810.286 387.264C809.782 387.264 809.348 387.353 808.984 387.53C808.62 387.707 808.317 387.964 808.074 388.3C807.831 388.636 807.649 389.042 807.528 389.518C807.416 389.985 807.36 390.512 807.36 391.1ZM815.602 389.07C815.686 388.669 815.826 388.286 816.022 387.922C816.218 387.558 816.47 387.241 816.778 386.97C817.086 386.69 817.454 386.471 817.884 386.312C818.313 386.153 818.803 386.074 819.354 386.074C819.867 386.074 820.324 386.149 820.726 386.298C821.127 386.438 821.468 386.639 821.748 386.9C822.028 387.161 822.238 387.474 822.378 387.838C822.527 388.202 822.602 388.599 822.602 389.028C822.602 389.635 822.471 390.195 822.21 390.708C821.958 391.212 821.636 391.674 821.244 392.094C820.852 392.514 820.422 392.897 819.956 393.242C819.489 393.578 819.046 393.877 818.626 394.138L817.548 394.81H822.966V396H815.336V395.02L817.464 393.606C818.164 393.139 818.761 392.71 819.256 392.318C819.75 391.917 820.152 391.539 820.46 391.184C820.777 390.829 821.006 390.489 821.146 390.162C821.295 389.826 821.37 389.49 821.37 389.154C821.37 388.809 821.314 388.515 821.202 388.272C821.099 388.029 820.95 387.833 820.754 387.684C820.567 387.535 820.343 387.427 820.082 387.362C819.83 387.297 819.559 387.264 819.27 387.264C818.85 387.264 818.486 387.329 818.178 387.46C817.879 387.591 817.622 387.763 817.408 387.978C817.202 388.183 817.039 388.417 816.918 388.678C816.806 388.93 816.731 389.182 816.694 389.434L815.602 389.07ZM824.034 389.07C824.118 388.669 824.258 388.286 824.454 387.922C824.65 387.558 824.902 387.241 825.21 386.97C825.518 386.69 825.887 386.471 826.316 386.312C826.745 386.153 827.235 386.074 827.786 386.074C828.299 386.074 828.757 386.149 829.158 386.298C829.559 386.438 829.9 386.639 830.18 386.9C830.46 387.161 830.67 387.474 830.81 387.838C830.959 388.202 831.034 388.599 831.034 389.028C831.034 389.635 830.903 390.195 830.642 390.708C830.39 391.212 830.068 391.674 829.676 392.094C829.284 392.514 828.855 392.897 828.388 393.242C827.921 393.578 827.478 393.877 827.058 394.138L825.98 394.81H831.398V396H823.768V395.02L825.896 393.606C826.596 393.139 827.193 392.71 827.688 392.318C828.183 391.917 828.584 391.539 828.892 391.184C829.209 390.829 829.438 390.489 829.578 390.162C829.727 389.826 829.802 389.49 829.802 389.154C829.802 388.809 829.746 388.515 829.634 388.272C829.531 388.029 829.382 387.833 829.186 387.684C828.999 387.535 828.775 387.427 828.514 387.362C828.262 387.297 827.991 387.264 827.702 387.264C827.282 387.264 826.918 387.329 826.61 387.46C826.311 387.591 826.055 387.763 825.84 387.978C825.635 388.183 825.471 388.417 825.35 388.678C825.238 388.93 825.163 389.182 825.126 389.434L824.034 389.07Z" fill="#222429"/>
</svg>
