<svg viewBox="0 0 1112 401" fill="none" xmlns="http://www.w3.org/2000/svg">
<path d="M123 107L246 56L375 91L501 96L627 87.5L753.5 67.5L879 74L1004.5 33" stroke="#648494" stroke-width="4"/>
<path d="M121.837 367.454C121.463 367.669 121.067 367.837 120.647 367.958C120.236 368.07 119.793 368.126 119.317 368.126C118.607 368.126 117.949 368.005 117.343 367.762C116.736 367.51 116.209 367.16 115.761 366.712C115.313 366.264 114.963 365.732 114.711 365.116C114.459 364.5 114.333 363.828 114.333 363.1C114.333 362.391 114.459 361.733 114.711 361.126C114.972 360.51 115.327 359.978 115.775 359.53C116.223 359.073 116.75 358.718 117.357 358.466C117.963 358.205 118.617 358.074 119.317 358.074C119.998 358.074 120.642 358.2 121.249 358.452C121.855 358.695 122.383 359.04 122.831 359.488C123.279 359.936 123.633 360.468 123.895 361.084C124.156 361.7 124.287 362.372 124.287 363.1C124.287 363.8 124.151 364.458 123.881 365.074C123.619 365.69 123.237 366.255 122.733 366.768L123.713 367.944L122.845 368.672L121.837 367.454ZM119.317 366.936C119.615 366.936 119.914 366.899 120.213 366.824C120.511 366.74 120.796 366.609 121.067 366.432L120.227 365.424L121.039 364.71L121.935 365.788C122.252 365.461 122.499 365.074 122.677 364.626C122.863 364.169 122.957 363.66 122.957 363.1C122.957 362.531 122.859 362.013 122.663 361.546C122.476 361.07 122.219 360.664 121.893 360.328C121.566 359.992 121.179 359.731 120.731 359.544C120.292 359.357 119.821 359.264 119.317 359.264C118.803 359.264 118.323 359.357 117.875 359.544C117.436 359.731 117.049 359.992 116.713 360.328C116.386 360.664 116.129 361.07 115.943 361.546C115.756 362.013 115.663 362.531 115.663 363.1C115.663 363.669 115.756 364.192 115.943 364.668C116.129 365.135 116.386 365.536 116.713 365.872C117.049 366.208 117.436 366.469 117.875 366.656C118.323 366.843 118.803 366.936 119.317 366.936ZM128.176 358.144H128.974V368H127.798V359.642L125.264 360.804L124.816 359.754L128.176 358.144Z" fill="#777F8C"/>
<rect x="92" y="203" width="60" height="145" fill="#5FAF2D"/>
<rect x="92" y="203" width="60" height="4" fill="#3D7917"/>
<path d="M106.931 182.032H107.9V194H106.472V183.851L103.395 185.262L102.851 183.987L106.931 182.032ZM110.017 195.649C110.165 195.615 110.318 195.553 110.476 195.462C110.646 195.371 110.799 195.258 110.935 195.122C111.071 194.986 111.179 194.839 111.258 194.68C111.349 194.521 111.394 194.357 111.394 194.187C111.394 194.108 111.389 194.045 111.377 194C111.321 194.011 111.253 194.017 111.173 194.017C110.924 194.017 110.709 193.938 110.527 193.779C110.357 193.62 110.272 193.394 110.272 193.099C110.272 192.804 110.363 192.572 110.544 192.402C110.726 192.221 110.981 192.13 111.309 192.13C111.672 192.13 111.967 192.255 112.193 192.504C112.431 192.742 112.55 193.105 112.55 193.592C112.55 194.057 112.488 194.453 112.363 194.782C112.239 195.111 112.074 195.388 111.87 195.615C111.666 195.842 111.434 196.017 111.173 196.142C110.913 196.278 110.646 196.38 110.374 196.448L110.017 195.649ZM117.357 182.032H118.326V194H116.898V183.851L113.821 185.262L113.277 183.987L117.357 182.032ZM120.273 182.1H129.3V183.069L123.384 194H121.769L127.481 183.545H120.273V182.1ZM130.376 188.05C130.376 187.166 130.478 186.356 130.682 185.619C130.886 184.871 131.192 184.225 131.6 183.681C132.019 183.137 132.546 182.712 133.181 182.406C133.816 182.1 134.564 181.947 135.425 181.947C136.286 181.947 137.034 182.089 137.669 182.372C138.304 182.655 138.831 183.063 139.25 183.596C139.669 184.129 139.981 184.775 140.185 185.534C140.389 186.282 140.491 187.121 140.491 188.05C140.491 188.934 140.389 189.75 140.185 190.498C139.992 191.235 139.686 191.875 139.267 192.419C138.859 192.963 138.338 193.388 137.703 193.694C137.068 194 136.32 194.153 135.459 194.153C134.643 194.153 133.918 194 133.283 193.694C132.648 193.388 132.116 192.963 131.685 192.419C131.254 191.875 130.926 191.235 130.699 190.498C130.484 189.75 130.376 188.934 130.376 188.05ZM131.872 188.05C131.872 189.501 132.189 190.64 132.824 191.467C133.459 192.294 134.337 192.708 135.459 192.708C136.683 192.708 137.578 192.294 138.145 191.467C138.712 190.64 138.995 189.501 138.995 188.05C138.995 186.599 138.706 185.46 138.128 184.633C137.55 183.806 136.649 183.392 135.425 183.392C134.813 183.392 134.286 183.5 133.844 183.715C133.402 183.93 133.034 184.242 132.739 184.65C132.444 185.058 132.223 185.551 132.076 186.129C131.94 186.696 131.872 187.336 131.872 188.05Z" fill="#222429"/>
<path fill-rule="evenodd" clip-rule="evenodd" d="M119.3 119.052L119.3 119L120.7 119L120.7 119.052C120.7 119.439 120.386 119.752 120 119.752C119.613 119.752 119.3 119.439 119.3 119.052ZM120 124.623C120.386 124.623 120.7 124.936 120.7 125.323L120.7 125.427C120.7 125.814 120.386 126.127 120 126.127C119.613 126.127 119.3 125.814 119.3 125.427L119.3 125.323C119.3 124.936 119.613 124.623 120 124.623ZM120 130.998C120.386 130.998 120.7 131.311 120.7 131.698L120.7 131.802C120.7 132.189 120.386 132.502 120 132.502C119.613 132.502 119.3 132.189 119.3 131.802L119.3 131.698C119.3 131.311 119.613 130.998 120 130.998ZM120 137.373C120.386 137.373 120.7 137.686 120.7 138.073L120.7 138.177C120.7 138.564 120.386 138.877 120 138.877C119.613 138.877 119.3 138.564 119.3 138.177L119.3 138.073C119.3 137.686 119.613 137.373 120 137.373ZM120 143.748C120.386 143.748 120.7 144.061 120.7 144.448L120.7 144.552C120.7 144.939 120.386 145.252 120 145.252C119.613 145.252 119.3 144.939 119.3 144.552L119.3 144.448C119.3 144.061 119.613 143.748 120 143.748ZM120 150.123C120.386 150.123 120.7 150.436 120.7 150.823L120.7 150.927C120.7 151.314 120.386 151.627 120 151.627C119.613 151.627 119.3 151.314 119.3 150.927L119.3 150.823C119.3 150.436 119.613 150.123 120 150.123ZM120 156.498C120.386 156.498 120.7 156.811 120.7 157.198L120.7 157.302C120.7 157.689 120.386 158.002 120 158.002C119.613 158.002 119.3 157.689 119.3 157.302L119.3 157.198C119.3 156.811 119.613 156.498 120 156.498ZM120 162.873C120.386 162.873 120.7 163.186 120.7 163.573L120.7 163.677C120.7 164.064 120.386 164.377 120 164.377C119.613 164.377 119.3 164.064 119.3 163.677L119.3 163.573C119.3 163.186 119.613 162.873 120 162.873ZM120 169.248C120.386 169.248 120.7 169.561 120.7 169.948L120.7 170L119.3 170L119.3 169.948C119.3 169.561 119.613 169.248 120 169.248Z" fill="#9299A3"/>
<path fill-rule="evenodd" clip-rule="evenodd" d="M246.3 70.0509L246.3 70L247.7 70L247.7 70.0509C247.7 70.4375 247.386 70.7509 247 70.7509C246.613 70.7509 246.3 70.4375 246.3 70.0509ZM247 75.4596C247.386 75.4596 247.7 75.773 247.7 76.1596L247.7 76.2614C247.7 76.648 247.386 76.9614 247 76.9614C246.613 76.9614 246.3 76.648 246.3 76.2614L246.3 76.1596C246.3 75.773 246.613 75.4596 247 75.4596ZM247 81.6701C247.386 81.6701 247.7 81.9835 247.7 82.3701L247.7 82.472C247.7 82.8586 247.386 83.172 247 83.172C246.613 83.172 246.3 82.8586 246.3 82.472L246.3 82.3701C246.3 81.9835 246.613 81.6701 247 81.6701ZM247 87.8807C247.386 87.8807 247.7 88.1941 247.7 88.5807L247.7 88.6825C247.7 89.0691 247.386 89.3825 247 89.3825C246.613 89.3825 246.3 89.0691 246.3 88.6825L246.3 88.5807C246.3 88.1941 246.613 87.8807 247 87.8807ZM247 94.0912C247.386 94.0912 247.7 94.4046 247.7 94.7912L247.7 94.893C247.7 95.2796 247.386 95.593 247 95.593C246.613 95.593 246.3 95.2796 246.3 94.893L246.3 94.7912C246.3 94.4046 246.613 94.0912 247 94.0912ZM247 100.302C247.386 100.302 247.7 100.615 247.7 101.002L247.7 101.104C247.7 101.49 247.386 101.804 247 101.804C246.613 101.804 246.3 101.49 246.3 101.104L246.3 101.002C246.3 100.615 246.613 100.302 247 100.302ZM247 106.512C247.386 106.512 247.7 106.826 247.7 107.212L247.7 107.314C247.7 107.701 247.386 108.014 247 108.014C246.613 108.014 246.3 107.701 246.3 107.314L246.3 107.212C246.3 106.826 246.613 106.512 247 106.512ZM247 112.723C247.386 112.723 247.7 113.036 247.7 113.423L247.7 113.525C247.7 113.911 247.386 114.225 247 114.225C246.613 114.225 246.3 113.911 246.3 113.525L246.3 113.423C246.3 113.036 246.613 112.723 247 112.723ZM247 118.933C247.386 118.933 247.7 119.247 247.7 119.633L247.7 119.735C247.7 120.122 247.386 120.435 247 120.435C246.613 120.435 246.3 120.122 246.3 119.735L246.3 119.633C246.3 119.247 246.613 118.933 247 118.933ZM247 125.144C247.386 125.144 247.7 125.457 247.7 125.844L247.7 125.946C247.7 126.332 247.386 126.646 247 126.646C246.613 126.646 246.3 126.332 246.3 125.946L246.3 125.844C246.3 125.457 246.613 125.144 247 125.144ZM247 131.354C247.386 131.354 247.7 131.668 247.7 132.054L247.7 132.156C247.7 132.543 247.386 132.856 247 132.856C246.613 132.856 246.3 132.543 246.3 132.156L246.3 132.054C246.3 131.668 246.613 131.354 247 131.354ZM247 137.565C247.386 137.565 247.7 137.878 247.7 138.265L247.7 138.367C247.7 138.753 247.386 139.067 247 139.067C246.613 139.067 246.3 138.753 246.3 138.367L246.3 138.265C246.3 137.878 246.613 137.565 247 137.565ZM247 143.775C247.386 143.775 247.7 144.089 247.7 144.475L247.7 144.577C247.7 144.964 247.386 145.277 247 145.277C246.613 145.277 246.3 144.964 246.3 144.577L246.3 144.475C246.3 144.089 246.613 143.775 247 143.775ZM247 149.986C247.386 149.986 247.7 150.299 247.7 150.686L247.7 150.788C247.7 151.174 247.386 151.488 247 151.488C246.613 151.488 246.3 151.174 246.3 150.788L246.3 150.686C246.3 150.299 246.613 149.986 247 149.986ZM247 156.196C247.386 156.196 247.7 156.51 247.7 156.896L247.7 156.998C247.7 157.385 247.386 157.698 247 157.698C246.613 157.698 246.3 157.385 246.3 156.998L246.3 156.896C246.3 156.51 246.613 156.196 247 156.196ZM247 162.407C247.386 162.407 247.7 162.72 247.7 163.107L247.7 163.209C247.7 163.595 247.386 163.909 247 163.909C246.613 163.909 246.3 163.595 246.3 163.209L246.3 163.107C246.3 162.72 246.613 162.407 247 162.407ZM247 168.618C247.386 168.618 247.7 168.931 247.7 169.318L247.7 169.419C247.7 169.806 247.386 170.119 247 170.119C246.613 170.119 246.3 169.806 246.3 169.419L246.3 169.318C246.3 168.931 246.613 168.618 247 168.618ZM247 174.828C247.386 174.828 247.7 175.141 247.7 175.528L247.7 175.63C247.7 176.016 247.386 176.33 247 176.33C246.613 176.33 246.3 176.016 246.3 175.63L246.3 175.528C246.3 175.141 246.613 174.828 247 174.828ZM247 181.039C247.386 181.039 247.7 181.352 247.7 181.739L247.7 181.84C247.7 182.227 247.386 182.54 247 182.54C246.613 182.54 246.3 182.227 246.3 181.84L246.3 181.739C246.3 181.352 246.613 181.039 247 181.039ZM247 187.249C247.386 187.249 247.7 187.562 247.7 187.949L247.7 188L246.3 188L246.3 187.949C246.3 187.562 246.613 187.249 247 187.249Z" fill="#9299A3"/>
<path fill-rule="evenodd" clip-rule="evenodd" d="M374.3 101.051L374.3 101L375.7 101L375.7 101.051C375.7 101.438 375.386 101.751 375 101.751C374.613 101.751 374.3 101.438 374.3 101.051ZM375 106.463C375.386 106.463 375.7 106.777 375.7 107.163L375.7 107.265C375.7 107.652 375.386 107.965 375 107.965C374.613 107.965 374.3 107.652 374.3 107.265L374.3 107.163C374.3 106.777 374.613 106.463 375 106.463ZM375 112.678C375.386 112.678 375.7 112.991 375.7 113.378L375.7 113.48C375.7 113.866 375.386 114.18 375 114.18C374.613 114.18 374.3 113.866 374.3 113.48L374.3 113.378C374.3 112.991 374.613 112.678 375 112.678ZM375 118.892C375.386 118.892 375.7 119.205 375.7 119.592L375.7 119.694C375.7 120.08 375.386 120.394 375 120.394C374.613 120.394 374.3 120.08 374.3 119.694L374.3 119.592C374.3 119.205 374.613 118.892 375 118.892ZM375 125.106C375.386 125.106 375.7 125.42 375.7 125.806L375.7 125.908C375.7 126.295 375.386 126.608 375 126.608C374.613 126.608 374.3 126.295 374.3 125.908L374.3 125.806C374.3 125.42 374.613 125.106 375 125.106ZM375 131.32C375.386 131.32 375.7 131.634 375.7 132.02L375.7 132.122C375.7 132.509 375.386 132.822 375 132.822C374.613 132.822 374.3 132.509 374.3 132.122L374.3 132.02C374.3 131.634 374.613 131.32 375 131.32ZM375 137.535C375.386 137.535 375.7 137.848 375.7 138.235L375.7 138.337C375.7 138.723 375.386 139.037 375 139.037C374.613 139.037 374.3 138.723 374.3 138.337L374.3 138.235C374.3 137.848 374.613 137.535 375 137.535ZM375 143.749C375.386 143.749 375.7 144.062 375.7 144.449L375.7 144.551C375.7 144.938 375.386 145.251 375 145.251C374.613 145.251 374.3 144.938 374.3 144.551L374.3 144.449C374.3 144.062 374.613 143.749 375 143.749ZM375 149.963C375.386 149.963 375.7 150.277 375.7 150.663L375.7 150.765C375.7 151.152 375.386 151.465 375 151.465C374.613 151.465 374.3 151.152 374.3 150.765L374.3 150.663C374.3 150.277 374.613 149.963 375 149.963ZM375 156.178C375.386 156.178 375.7 156.491 375.7 156.878L375.7 156.98C375.7 157.366 375.386 157.68 375 157.68C374.613 157.68 374.3 157.366 374.3 156.98L374.3 156.878C374.3 156.491 374.613 156.178 375 156.178ZM375 162.392C375.386 162.392 375.7 162.705 375.7 163.092L375.7 163.194C375.7 163.58 375.386 163.894 375 163.894C374.613 163.894 374.3 163.58 374.3 163.194L374.3 163.092C374.3 162.705 374.613 162.392 375 162.392ZM375 168.606C375.386 168.606 375.7 168.92 375.7 169.306L375.7 169.408C375.7 169.795 375.386 170.108 375 170.108C374.613 170.108 374.3 169.795 374.3 169.408L374.3 169.306C374.3 168.92 374.613 168.606 375 168.606ZM375 174.82C375.386 174.82 375.7 175.134 375.7 175.521L375.7 175.622C375.7 176.009 375.386 176.322 375 176.322C374.613 176.322 374.3 176.009 374.3 175.622L374.3 175.521C374.3 175.134 374.613 174.82 375 174.82ZM375 181.035C375.386 181.035 375.7 181.348 375.7 181.735L375.7 181.837C375.7 182.223 375.386 182.537 375 182.537C374.613 182.537 374.3 182.223 374.3 181.837L374.3 181.735C374.3 181.348 374.613 181.035 375 181.035ZM375 187.249C375.386 187.249 375.7 187.562 375.7 187.949L375.7 188L374.3 188L374.3 187.949C374.3 187.562 374.613 187.249 375 187.249Z" fill="#9299A3"/>
<path fill-rule="evenodd" clip-rule="evenodd" d="M501.7 106L501.7 106.046C501.7 106.433 501.386 106.746 501 106.746C500.613 106.746 500.3 106.433 500.3 106.046L500.3 106L501.7 106ZM501 110.854C501.386 110.854 501.7 111.167 501.7 111.554L501.7 111.646C501.7 112.033 501.386 112.346 501 112.346C500.613 112.346 500.3 112.032 500.3 111.646L500.3 111.554C500.3 111.167 500.613 110.854 501 110.854ZM501 116.454C501.386 116.454 501.7 116.768 501.7 117.154L501.7 117.246C501.7 117.633 501.386 117.946 501 117.946C500.613 117.946 500.3 117.632 500.3 117.246L500.3 117.154C500.3 116.767 500.613 116.454 501 116.454ZM501 122.054C501.386 122.054 501.7 122.368 501.7 122.754L501.7 122.846C501.7 123.233 501.386 123.546 501 123.546C500.613 123.546 500.3 123.233 500.3 122.846L500.3 122.754C500.3 122.367 500.613 122.054 501 122.054ZM501 127.654C501.386 127.654 501.7 127.968 501.7 128.354L501.7 128.446C501.7 128.833 501.386 129.146 501 129.146C500.613 129.146 500.3 128.832 500.3 128.446L500.3 128.354C500.3 127.967 500.613 127.654 501 127.654ZM501 133.254C501.386 133.254 501.7 133.568 501.7 133.954L501.7 134L500.3 134L500.3 133.954C500.3 133.567 500.613 133.254 501 133.254Z" fill="#9299A3"/>
<path fill-rule="evenodd" clip-rule="evenodd" d="M753.7 78L753.7 78.0486C753.7 78.4352 753.386 78.7486 753 78.7486C752.613 78.7486 752.3 78.4352 752.3 78.0486L752.3 78L753.7 78ZM753 83.1745C753.386 83.1745 753.7 83.4879 753.7 83.8745L753.7 83.9716C753.7 84.3582 753.386 84.6716 753 84.6716C752.613 84.6716 752.3 84.3582 752.3 83.9716L752.3 83.8745C752.3 83.4879 752.613 83.1745 753 83.1745ZM753 89.0976C753.386 89.0976 753.7 89.411 753.7 89.7976L753.7 89.8947C753.7 90.2813 753.386 90.5947 753 90.5947C752.613 90.5947 752.3 90.2813 752.3 89.8947L752.3 89.7976C752.3 89.411 752.613 89.0976 753 89.0976ZM753 95.0207C753.386 95.0207 753.7 95.3341 753.7 95.7207L753.7 95.8178C753.7 96.2044 753.386 96.5178 753 96.5178C752.613 96.5178 752.3 96.2044 752.3 95.8178L752.3 95.7207C752.3 95.3341 752.613 95.0207 753 95.0207ZM753 100.944C753.386 100.944 753.7 101.257 753.7 101.644L753.7 101.741C753.7 102.127 753.386 102.441 753 102.441C752.613 102.441 752.3 102.127 752.3 101.741L752.3 101.644C752.3 101.257 752.613 100.944 753 100.944ZM753 106.867C753.386 106.867 753.7 107.18 753.7 107.567L753.7 107.664C753.7 108.051 753.386 108.364 753 108.364C752.613 108.364 752.3 108.051 752.3 107.664L752.3 107.567C752.3 107.18 752.613 106.867 753 106.867ZM753 112.79C753.386 112.79 753.7 113.103 753.7 113.49L753.7 113.587C753.7 113.974 753.386 114.287 753 114.287C752.613 114.287 752.3 113.974 752.3 113.587L752.3 113.49C752.3 113.103 752.613 112.79 753 112.79ZM753 118.713C753.386 118.713 753.7 119.026 753.7 119.413L753.7 119.51C753.7 119.897 753.386 120.21 753 120.21C752.613 120.21 752.3 119.897 752.3 119.51L752.3 119.413C752.3 119.026 752.613 118.713 753 118.713ZM753 124.636C753.386 124.636 753.7 124.949 753.7 125.336L753.7 125.433C753.7 125.82 753.386 126.133 753 126.133C752.613 126.133 752.3 125.82 752.3 125.433L752.3 125.336C752.3 124.949 752.613 124.636 753 124.636ZM753 130.559C753.386 130.559 753.7 130.873 753.7 131.259L753.7 131.356C753.7 131.743 753.386 132.056 753 132.056C752.613 132.056 752.3 131.743 752.3 131.356L752.3 131.259C752.3 130.873 752.613 130.559 753 130.559ZM753 136.482C753.386 136.482 753.7 136.796 753.7 137.182L753.7 137.279C753.7 137.666 753.386 137.979 753 137.979C752.613 137.979 752.3 137.666 752.3 137.279L752.3 137.182C752.3 136.796 752.613 136.482 753 136.482ZM753 142.405C753.386 142.405 753.7 142.719 753.7 143.105L753.7 143.202C753.7 143.589 753.386 143.902 753 143.902C752.613 143.902 752.3 143.589 752.3 143.202L752.3 143.105C752.3 142.719 752.613 142.405 753 142.405ZM753 148.328C753.386 148.328 753.7 148.642 753.7 149.028L753.7 149.125C753.7 149.512 753.386 149.825 753 149.825C752.613 149.825 752.3 149.512 752.3 149.125L752.3 149.028C752.3 148.642 752.613 148.328 753 148.328ZM753 154.251C753.386 154.251 753.7 154.565 753.7 154.951L753.7 155L752.3 155L752.3 154.951C752.3 154.565 752.613 154.251 753 154.251Z" fill="#9299A3"/>
<path fill-rule="evenodd" clip-rule="evenodd" d="M879.7 85L879.7 85.0517C879.7 85.4383 879.386 85.7517 879 85.7517C878.613 85.7517 878.3 85.4383 878.3 85.0517L878.3 85L879.7 85ZM879 90.556C879.386 90.556 879.7 90.8694 879.7 91.256L879.7 91.3594C879.7 91.746 879.386 92.0594 879 92.0594C878.613 92.0594 878.3 91.746 878.3 91.3594L878.3 91.256C878.3 90.8694 878.613 90.556 879 90.556ZM879 96.8637C879.386 96.8637 879.7 97.1771 879.7 97.5637L879.7 97.6671C879.7 98.0537 879.386 98.3671 879 98.3671C878.613 98.3671 878.3 98.0537 878.3 97.6671L878.3 97.5637C878.3 97.1771 878.613 96.8637 879 96.8637ZM879 103.171C879.386 103.171 879.7 103.485 879.7 103.871L879.7 103.975C879.7 104.361 879.386 104.675 879 104.675C878.613 104.675 878.3 104.361 878.3 103.975L878.3 103.871C878.3 103.485 878.613 103.171 879 103.171ZM879 109.479C879.386 109.479 879.7 109.792 879.7 110.179L879.7 110.282C879.7 110.669 879.386 110.982 879 110.982C878.613 110.982 878.3 110.669 878.3 110.282L878.3 110.179C878.3 109.792 878.613 109.479 879 109.479ZM879 115.787C879.386 115.787 879.7 116.1 879.7 116.487L879.7 116.59C879.7 116.977 879.386 117.29 879 117.29C878.613 117.29 878.3 116.977 878.3 116.59L878.3 116.487C878.3 116.1 878.613 115.787 879 115.787ZM879 122.094C879.386 122.094 879.7 122.408 879.7 122.794L879.7 122.898C879.7 123.284 879.386 123.598 879 123.598C878.613 123.598 878.3 123.284 878.3 122.898L878.3 122.794C878.3 122.408 878.613 122.094 879 122.094ZM879 128.402C879.386 128.402 879.7 128.716 879.7 129.102L879.7 129.206C879.7 129.592 879.386 129.906 879 129.906C878.613 129.906 878.3 129.592 878.3 129.206L878.3 129.102C878.3 128.716 878.613 128.402 879 128.402ZM879 134.71C879.386 134.71 879.7 135.023 879.7 135.41L879.7 135.513C879.7 135.9 879.386 136.213 879 136.213C878.613 136.213 878.3 135.9 878.3 135.513L878.3 135.41C878.3 135.023 878.613 134.71 879 134.71ZM879 141.018C879.386 141.018 879.7 141.331 879.7 141.718L879.7 141.821C879.7 142.208 879.386 142.521 879 142.521C878.613 142.521 878.3 142.208 878.3 141.821L878.3 141.718C878.3 141.331 878.613 141.018 879 141.018ZM879 147.325C879.386 147.325 879.7 147.639 879.7 148.025L879.7 148.129C879.7 148.515 879.386 148.829 879 148.829C878.613 148.829 878.3 148.515 878.3 148.129L878.3 148.025C878.3 147.639 878.613 147.325 879 147.325ZM879 153.633C879.386 153.633 879.7 153.946 879.7 154.333L879.7 154.436C879.7 154.823 879.386 155.136 879 155.136C878.613 155.136 878.3 154.823 878.3 154.436L878.3 154.333C878.3 153.946 878.613 153.633 879 153.633ZM879 159.941C879.386 159.941 879.7 160.254 879.7 160.641L879.7 160.744C879.7 161.131 879.386 161.444 879 161.444C878.613 161.444 878.3 161.131 878.3 160.744L878.3 160.641C878.3 160.254 878.613 159.941 879 159.941ZM879 166.248C879.386 166.248 879.7 166.562 879.7 166.948L879.7 167L878.3 167L878.3 166.948C878.3 166.562 878.613 166.248 879 166.248Z" fill="#9299A3"/>
<path fill-rule="evenodd" clip-rule="evenodd" d="M1004.3 45.05L1004.3 45L1005.7 45L1005.7 45.05C1005.7 45.4366 1005.39 45.75 1005 45.75C1004.61 45.75 1004.3 45.4366 1004.3 45.05ZM1005 50.35C1005.39 50.35 1005.7 50.6634 1005.7 51.05L1005.7 51.15C1005.7 51.5366 1005.39 51.85 1005 51.85C1004.61 51.85 1004.3 51.5366 1004.3 51.15L1004.3 51.05C1004.3 50.6634 1004.61 50.35 1005 50.35ZM1005 56.45C1005.39 56.45 1005.7 56.7634 1005.7 57.15L1005.7 57.25C1005.7 57.6366 1005.39 57.95 1005 57.95C1004.61 57.95 1004.3 57.6366 1004.3 57.25L1004.3 57.15C1004.3 56.7634 1004.61 56.45 1005 56.45ZM1005 62.55C1005.39 62.55 1005.7 62.8634 1005.7 63.25L1005.7 63.35C1005.7 63.7366 1005.39 64.05 1005 64.05C1004.61 64.05 1004.3 63.7366 1004.3 63.35L1004.3 63.25C1004.3 62.8634 1004.61 62.55 1005 62.55ZM1005 68.65C1005.39 68.65 1005.7 68.9634 1005.7 69.35L1005.7 69.45C1005.7 69.8366 1005.39 70.15 1005 70.15C1004.61 70.15 1004.3 69.8366 1004.3 69.45L1004.3 69.35C1004.3 68.9634 1004.61 68.65 1005 68.65ZM1005 74.75C1005.39 74.75 1005.7 75.0634 1005.7 75.45L1005.7 75.55C1005.7 75.9366 1005.39 76.25 1005 76.25C1004.61 76.25 1004.3 75.9366 1004.3 75.55L1004.3 75.45C1004.3 75.0634 1004.61 74.75 1005 74.75ZM1005 80.85C1005.39 80.85 1005.7 81.1634 1005.7 81.55L1005.7 81.65C1005.7 82.0366 1005.39 82.35 1005 82.35C1004.61 82.35 1004.3 82.0366 1004.3 81.65L1004.3 81.55C1004.3 81.1634 1004.61 80.85 1005 80.85ZM1005 86.95C1005.39 86.95 1005.7 87.2634 1005.7 87.65L1005.7 87.75C1005.7 88.1366 1005.39 88.45 1005 88.45C1004.61 88.45 1004.3 88.1366 1004.3 87.75L1004.3 87.65C1004.3 87.2634 1004.61 86.95 1005 86.95ZM1005 93.05C1005.39 93.05 1005.7 93.3634 1005.7 93.75L1005.7 93.85C1005.7 94.2366 1005.39 94.55 1005 94.55C1004.61 94.55 1004.3 94.2366 1004.3 93.85L1004.3 93.75C1004.3 93.3634 1004.61 93.05 1005 93.05ZM1005 99.15C1005.39 99.15 1005.7 99.4634 1005.7 99.85L1005.7 99.95C1005.7 100.337 1005.39 100.65 1005 100.65C1004.61 100.65 1004.3 100.337 1004.3 99.95L1004.3 99.85C1004.3 99.4634 1004.61 99.15 1005 99.15ZM1005 105.25C1005.39 105.25 1005.7 105.563 1005.7 105.95L1005.7 106.05C1005.7 106.437 1005.39 106.75 1005 106.75C1004.61 106.75 1004.3 106.437 1004.3 106.05L1004.3 105.95C1004.3 105.563 1004.61 105.25 1005 105.25ZM1005 111.35C1005.39 111.35 1005.7 111.663 1005.7 112.05L1005.7 112.15C1005.7 112.537 1005.39 112.85 1005 112.85C1004.61 112.85 1004.3 112.537 1004.3 112.15L1004.3 112.05C1004.3 111.663 1004.61 111.35 1005 111.35ZM1005 117.45C1005.39 117.45 1005.7 117.763 1005.7 118.15L1005.7 118.25C1005.7 118.637 1005.39 118.95 1005 118.95C1004.61 118.95 1004.3 118.637 1004.3 118.25L1004.3 118.15C1004.3 117.763 1004.61 117.45 1005 117.45ZM1005 123.55C1005.39 123.55 1005.7 123.863 1005.7 124.25L1005.7 124.35C1005.7 124.737 1005.39 125.05 1005 125.05C1004.61 125.05 1004.3 124.737 1004.3 124.35L1004.3 124.25C1004.3 123.863 1004.61 123.55 1005 123.55ZM1005 129.65C1005.39 129.65 1005.7 129.963 1005.7 130.35L1005.7 130.45C1005.7 130.837 1005.39 131.15 1005 131.15C1004.61 131.15 1004.3 130.837 1004.3 130.45L1004.3 130.35C1004.3 129.963 1004.61 129.65 1005 129.65ZM1005 135.75C1005.39 135.75 1005.7 136.063 1005.7 136.45L1005.7 136.55C1005.7 136.937 1005.39 137.25 1005 137.25C1004.61 137.25 1004.3 136.937 1004.3 136.55L1004.3 136.45C1004.3 136.063 1004.61 135.75 1005 135.75ZM1005 141.85C1005.39 141.85 1005.7 142.163 1005.7 142.55L1005.7 142.65C1005.7 143.037 1005.39 143.35 1005 143.35C1004.61 143.35 1004.3 143.037 1004.3 142.65L1004.3 142.55C1004.3 142.163 1004.61 141.85 1005 141.85ZM1005 147.95C1005.39 147.95 1005.7 148.263 1005.7 148.65L1005.7 148.75C1005.7 149.137 1005.39 149.45 1005 149.45C1004.61 149.45 1004.3 149.137 1004.3 148.75L1004.3 148.65C1004.3 148.263 1004.61 147.95 1005 147.95ZM1005 154.05C1005.39 154.05 1005.7 154.363 1005.7 154.75L1005.7 154.85C1005.7 155.237 1005.39 155.55 1005 155.55C1004.61 155.55 1004.3 155.237 1004.3 154.85L1004.3 154.75C1004.3 154.363 1004.61 154.05 1005 154.05ZM1005 160.15C1005.39 160.15 1005.7 160.463 1005.7 160.85L1005.7 160.95C1005.7 161.337 1005.39 161.65 1005 161.65C1004.61 161.65 1004.3 161.337 1004.3 160.95L1004.3 160.85C1004.3 160.463 1004.61 160.15 1005 160.15ZM1005 166.25C1005.39 166.25 1005.7 166.563 1005.7 166.95L1005.7 167L1004.3 167L1004.3 166.95C1004.3 166.563 1004.61 166.25 1005 166.25Z" fill="#9299A3"/>
<path fill-rule="evenodd" clip-rule="evenodd" d="M627.7 99L627.7 99.0465C627.7 99.4331 627.386 99.7465 627 99.7464C626.613 99.7464 626.3 99.433 626.3 99.0464L626.3 99L627.7 99ZM627 103.92C627.386 103.92 627.7 104.234 627.7 104.62L627.7 104.713C627.7 105.1 627.386 105.413 627 105.413C626.613 105.413 626.3 105.1 626.3 104.713L626.3 104.62C626.3 104.234 626.613 103.92 627 103.92ZM627 109.587C627.386 109.587 627.7 109.9 627.7 110.287L627.7 110.38C627.7 110.766 627.386 111.08 627 111.08C626.613 111.08 626.3 110.766 626.3 110.38L626.3 110.287C626.3 109.9 626.613 109.587 627 109.587ZM627 115.254C627.386 115.254 627.7 115.567 627.7 115.954L627.7 116L626.3 116L626.3 115.954C626.3 115.567 626.613 115.254 627 115.254Z" fill="#9299A3"/>
<path d="M246.312 367.454C245.939 367.669 245.542 367.837 245.122 367.958C244.712 368.07 244.268 368.126 243.792 368.126C243.083 368.126 242.425 368.005 241.818 367.762C241.212 367.51 240.684 367.16 240.236 366.712C239.788 366.264 239.438 365.732 239.186 365.116C238.934 364.5 238.808 363.828 238.808 363.1C238.808 362.391 238.934 361.733 239.186 361.126C239.448 360.51 239.802 359.978 240.25 359.53C240.698 359.073 241.226 358.718 241.832 358.466C242.439 358.205 243.092 358.074 243.792 358.074C244.474 358.074 245.118 358.2 245.724 358.452C246.331 358.695 246.858 359.04 247.306 359.488C247.754 359.936 248.109 360.468 248.37 361.084C248.632 361.7 248.762 362.372 248.762 363.1C248.762 363.8 248.627 364.458 248.356 365.074C248.095 365.69 247.712 366.255 247.208 366.768L248.188 367.944L247.32 368.672L246.312 367.454ZM243.792 366.936C244.091 366.936 244.39 366.899 244.688 366.824C244.987 366.74 245.272 366.609 245.542 366.432L244.702 365.424L245.514 364.71L246.41 365.788C246.728 365.461 246.975 365.074 247.152 364.626C247.339 364.169 247.432 363.66 247.432 363.1C247.432 362.531 247.334 362.013 247.138 361.546C246.952 361.07 246.695 360.664 246.368 360.328C246.042 359.992 245.654 359.731 245.206 359.544C244.768 359.357 244.296 359.264 243.792 359.264C243.279 359.264 242.798 359.357 242.35 359.544C241.912 359.731 241.524 359.992 241.188 360.328C240.862 360.664 240.605 361.07 240.418 361.546C240.232 362.013 240.138 362.531 240.138 363.1C240.138 363.669 240.232 364.192 240.418 364.668C240.605 365.135 240.862 365.536 241.188 365.872C241.524 366.208 241.912 366.469 242.35 366.656C242.798 366.843 243.279 366.936 243.792 366.936ZM249.949 361.07C250.033 360.669 250.173 360.286 250.369 359.922C250.565 359.558 250.817 359.241 251.125 358.97C251.433 358.69 251.802 358.471 252.231 358.312C252.661 358.153 253.151 358.074 253.701 358.074C254.215 358.074 254.672 358.149 255.073 358.298C255.475 358.438 255.815 358.639 256.095 358.9C256.375 359.161 256.585 359.474 256.725 359.838C256.875 360.202 256.949 360.599 256.949 361.028C256.949 361.635 256.819 362.195 256.557 362.708C256.305 363.212 255.983 363.674 255.591 364.094C255.199 364.514 254.77 364.897 254.303 365.242C253.837 365.578 253.393 365.877 252.973 366.138L251.895 366.81H257.313V368H249.683V367.02L251.811 365.606C252.511 365.139 253.109 364.71 253.603 364.318C254.098 363.917 254.499 363.539 254.807 363.184C255.125 362.829 255.353 362.489 255.493 362.162C255.643 361.826 255.717 361.49 255.717 361.154C255.717 360.809 255.661 360.515 255.549 360.272C255.447 360.029 255.297 359.833 255.101 359.684C254.915 359.535 254.691 359.427 254.429 359.362C254.177 359.297 253.907 359.264 253.617 359.264C253.197 359.264 252.833 359.329 252.525 359.46C252.227 359.591 251.97 359.763 251.755 359.978C251.55 360.183 251.387 360.417 251.265 360.678C251.153 360.93 251.079 361.182 251.041 361.434L249.949 361.07Z" fill="#777F8C"/>
<rect x="218" y="224" width="60" height="124" fill="#5FAF2D"/>
<rect x="218" y="224" width="60" height="4" fill="#3D7917"/>
<path d="M229.586 203.032H230.555V215H229.127V204.851L226.05 206.262L225.506 204.987L229.586 203.032ZM232.672 216.649C232.819 216.615 232.972 216.553 233.131 216.462C233.301 216.371 233.454 216.258 233.59 216.122C233.726 215.986 233.834 215.839 233.913 215.68C234.004 215.521 234.049 215.357 234.049 215.187C234.049 215.108 234.043 215.045 234.032 215C233.975 215.011 233.907 215.017 233.828 215.017C233.579 215.017 233.363 214.938 233.182 214.779C233.012 214.62 232.927 214.394 232.927 214.099C232.927 213.804 233.018 213.572 233.199 213.402C233.38 213.221 233.635 213.13 233.964 213.13C234.327 213.13 234.621 213.255 234.848 213.504C235.086 213.742 235.205 214.105 235.205 214.592C235.205 215.057 235.143 215.453 235.018 215.782C234.893 216.111 234.729 216.388 234.525 216.615C234.321 216.842 234.089 217.017 233.828 217.142C233.567 217.278 233.301 217.38 233.029 217.448L232.672 216.649ZM236.612 209.05C236.612 208.166 236.714 207.356 236.918 206.619C237.122 205.871 237.428 205.225 237.836 204.681C238.255 204.137 238.782 203.712 239.417 203.406C240.052 203.1 240.8 202.947 241.661 202.947C242.522 202.947 243.27 203.089 243.905 203.372C244.54 203.655 245.067 204.063 245.486 204.596C245.905 205.129 246.217 205.775 246.421 206.534C246.625 207.282 246.727 208.121 246.727 209.05C246.727 209.934 246.625 210.75 246.421 211.498C246.228 212.235 245.922 212.875 245.503 213.419C245.095 213.963 244.574 214.388 243.939 214.694C243.304 215 242.556 215.153 241.695 215.153C240.879 215.153 240.154 215 239.519 214.694C238.884 214.388 238.352 213.963 237.921 213.419C237.49 212.875 237.162 212.235 236.935 211.498C236.72 210.75 236.612 209.934 236.612 209.05ZM238.108 209.05C238.108 210.501 238.425 211.64 239.06 212.467C239.695 213.294 240.573 213.708 241.695 213.708C242.919 213.708 243.814 213.294 244.381 212.467C244.948 211.64 245.231 210.501 245.231 209.05C245.231 207.599 244.942 206.46 244.364 205.633C243.786 204.806 242.885 204.392 241.661 204.392C241.049 204.392 240.522 204.5 240.08 204.715C239.638 204.93 239.27 205.242 238.975 205.65C238.68 206.058 238.459 206.551 238.312 207.129C238.176 207.696 238.108 208.336 238.108 209.05ZM248.167 209.05C248.167 208.166 248.269 207.356 248.473 206.619C248.677 205.871 248.983 205.225 249.391 204.681C249.81 204.137 250.337 203.712 250.972 203.406C251.606 203.1 252.354 202.947 253.216 202.947C254.077 202.947 254.825 203.089 255.46 203.372C256.094 203.655 256.621 204.063 257.041 204.596C257.46 205.129 257.772 205.775 257.976 206.534C258.18 207.282 258.282 208.121 258.282 209.05C258.282 209.934 258.18 210.75 257.976 211.498C257.783 212.235 257.477 212.875 257.058 213.419C256.65 213.963 256.128 214.388 255.494 214.694C254.859 215 254.111 215.153 253.25 215.153C252.434 215.153 251.708 215 251.074 214.694C250.439 214.388 249.906 213.963 249.476 213.419C249.045 212.875 248.716 212.235 248.49 211.498C248.274 210.75 248.167 209.934 248.167 209.05ZM249.663 209.05C249.663 210.501 249.98 211.64 250.615 212.467C251.249 213.294 252.128 213.708 253.25 213.708C254.474 213.708 255.369 213.294 255.936 212.467C256.502 211.64 256.786 210.501 256.786 209.05C256.786 207.599 256.497 206.46 255.919 205.633C255.341 204.806 254.44 204.392 253.216 204.392C252.604 204.392 252.077 204.5 251.635 204.715C251.193 204.93 250.824 205.242 250.53 205.65C250.235 206.058 250.014 206.551 249.867 207.129C249.731 207.696 249.663 208.336 249.663 209.05ZM259.721 209.05C259.721 208.166 259.823 207.356 260.027 206.619C260.231 205.871 260.537 205.225 260.945 204.681C261.365 204.137 261.892 203.712 262.526 203.406C263.161 203.1 263.909 202.947 264.77 202.947C265.632 202.947 266.38 203.089 267.014 203.372C267.649 203.655 268.176 204.063 268.595 204.596C269.015 205.129 269.326 205.775 269.53 206.534C269.734 207.282 269.836 208.121 269.836 209.05C269.836 209.934 269.734 210.75 269.53 211.498C269.338 212.235 269.032 212.875 268.612 213.419C268.204 213.963 267.683 214.388 267.048 214.694C266.414 215 265.666 215.153 264.804 215.153C263.988 215.153 263.263 215 262.628 214.694C261.994 214.388 261.461 213.963 261.03 213.419C260.6 212.875 260.271 212.235 260.044 211.498C259.829 210.75 259.721 209.934 259.721 209.05ZM261.217 209.05C261.217 210.501 261.535 211.64 262.169 212.467C262.804 213.294 263.682 213.708 264.804 213.708C266.028 213.708 266.924 213.294 267.49 212.467C268.057 211.64 268.34 210.501 268.34 209.05C268.34 207.599 268.051 206.46 267.473 205.633C266.895 204.806 265.994 204.392 264.77 204.392C264.158 204.392 263.631 204.5 263.189 204.715C262.747 204.93 262.379 205.242 262.084 205.65C261.79 206.058 261.569 206.551 261.421 207.129C261.285 207.696 261.217 208.336 261.217 209.05Z" fill="#222429"/>
<path d="M372.278 367.454C371.905 367.669 371.508 367.837 371.088 367.958C370.678 368.07 370.234 368.126 369.758 368.126C369.049 368.126 368.391 368.005 367.784 367.762C367.178 367.51 366.65 367.16 366.202 366.712C365.754 366.264 365.404 365.732 365.152 365.116C364.9 364.5 364.774 363.828 364.774 363.1C364.774 362.391 364.9 361.733 365.152 361.126C365.414 360.51 365.768 359.978 366.216 359.53C366.664 359.073 367.192 358.718 367.798 358.466C368.405 358.205 369.058 358.074 369.758 358.074C370.44 358.074 371.084 358.2 371.69 358.452C372.297 358.695 372.824 359.04 373.272 359.488C373.72 359.936 374.075 360.468 374.336 361.084C374.598 361.7 374.728 362.372 374.728 363.1C374.728 363.8 374.593 364.458 374.322 365.074C374.061 365.69 373.678 366.255 373.174 366.768L374.154 367.944L373.286 368.672L372.278 367.454ZM369.758 366.936C370.057 366.936 370.356 366.899 370.654 366.824C370.953 366.74 371.238 366.609 371.508 366.432L370.668 365.424L371.48 364.71L372.376 365.788C372.694 365.461 372.941 365.074 373.118 364.626C373.305 364.169 373.398 363.66 373.398 363.1C373.398 362.531 373.3 362.013 373.104 361.546C372.918 361.07 372.661 360.664 372.334 360.328C372.008 359.992 371.62 359.731 371.172 359.544C370.734 359.357 370.262 359.264 369.758 359.264C369.245 359.264 368.764 359.357 368.316 359.544C367.878 359.731 367.49 359.992 367.154 360.328C366.828 360.664 366.571 361.07 366.384 361.546C366.198 362.013 366.104 362.531 366.104 363.1C366.104 363.669 366.198 364.192 366.384 364.668C366.571 365.135 366.828 365.536 367.154 365.872C367.49 366.208 367.878 366.469 368.316 366.656C368.764 366.843 369.245 366.936 369.758 366.936ZM375.733 360.58C375.864 360.216 376.041 359.885 376.265 359.586C376.489 359.278 376.76 359.012 377.077 358.788C377.404 358.564 377.777 358.391 378.197 358.27C378.626 358.139 379.107 358.074 379.639 358.074C380.115 358.074 380.554 358.135 380.955 358.256C381.366 358.368 381.716 358.531 382.005 358.746C382.304 358.951 382.532 359.208 382.691 359.516C382.859 359.824 382.943 360.165 382.943 360.538C382.943 361.107 382.794 361.593 382.495 361.994C382.206 362.395 381.781 362.675 381.221 362.834C381.464 362.853 381.702 362.913 381.935 363.016C382.168 363.109 382.374 363.254 382.551 363.45C382.738 363.637 382.887 363.875 382.999 364.164C383.111 364.444 383.167 364.78 383.167 365.172C383.167 365.648 383.074 366.073 382.887 366.446C382.71 366.81 382.458 367.118 382.131 367.37C381.814 367.613 381.436 367.799 380.997 367.93C380.558 368.061 380.087 368.126 379.583 368.126C379.032 368.126 378.528 368.061 378.071 367.93C377.623 367.799 377.226 367.622 376.881 367.398C376.536 367.165 376.242 366.889 375.999 366.572C375.766 366.245 375.588 365.886 375.467 365.494L376.601 365.004C376.722 365.256 376.867 365.499 377.035 365.732C377.203 365.965 377.408 366.171 377.651 366.348C377.894 366.525 378.178 366.67 378.505 366.782C378.832 366.885 379.219 366.936 379.667 366.936C380.367 366.936 380.918 366.787 381.319 366.488C381.73 366.18 381.935 365.746 381.935 365.186C381.935 364.878 381.87 364.621 381.739 364.416C381.608 364.201 381.426 364.033 381.193 363.912C380.96 363.781 380.684 363.693 380.367 363.646C380.059 363.59 379.723 363.562 379.359 363.562H378.267V362.4H379.135C379.947 362.4 380.577 362.246 381.025 361.938C381.482 361.63 381.711 361.243 381.711 360.776C381.711 360.272 381.52 359.894 381.137 359.642C380.754 359.39 380.236 359.264 379.583 359.264C379.182 359.264 378.827 359.315 378.519 359.418C378.211 359.521 377.94 359.656 377.707 359.824C377.483 359.992 377.292 360.183 377.133 360.398C376.984 360.613 376.867 360.832 376.783 361.056L375.733 360.58Z" fill="#777F8C"/>
<rect x="344" y="217" width="60" height="131" fill="#5FAF2D"/>
<rect x="344" y="217" width="60" height="4" fill="#3D7917"/>
<path d="M356.126 196.032H357.095V208H355.667V197.851L352.59 199.262L352.046 197.987L356.126 196.032ZM359.212 209.649C359.359 209.615 359.512 209.553 359.671 209.462C359.841 209.371 359.994 209.258 360.13 209.122C360.266 208.986 360.373 208.839 360.453 208.68C360.543 208.521 360.589 208.357 360.589 208.187C360.589 208.108 360.583 208.045 360.572 208C360.515 208.011 360.447 208.017 360.368 208.017C360.118 208.017 359.903 207.938 359.722 207.779C359.552 207.62 359.467 207.394 359.467 207.099C359.467 206.804 359.557 206.572 359.739 206.402C359.92 206.221 360.175 206.13 360.504 206.13C360.866 206.13 361.161 206.255 361.388 206.504C361.626 206.742 361.745 207.105 361.745 207.592C361.745 208.057 361.682 208.453 361.558 208.782C361.433 209.111 361.269 209.388 361.065 209.615C360.861 209.842 360.628 210.017 360.368 210.142C360.107 210.278 359.841 210.38 359.569 210.448L359.212 209.649ZM363.151 202.05C363.151 201.166 363.253 200.356 363.457 199.619C363.661 198.871 363.967 198.225 364.375 197.681C364.795 197.137 365.322 196.712 365.956 196.406C366.591 196.1 367.339 195.947 368.2 195.947C369.062 195.947 369.81 196.089 370.444 196.372C371.079 196.655 371.606 197.063 372.025 197.596C372.445 198.129 372.756 198.775 372.96 199.534C373.164 200.282 373.266 201.121 373.266 202.05C373.266 202.934 373.164 203.75 372.96 204.498C372.768 205.235 372.462 205.875 372.042 206.419C371.634 206.963 371.113 207.388 370.478 207.694C369.844 208 369.096 208.153 368.234 208.153C367.418 208.153 366.693 208 366.058 207.694C365.424 207.388 364.891 206.963 364.46 206.419C364.03 205.875 363.701 205.235 363.474 204.498C363.259 203.75 363.151 202.934 363.151 202.05ZM364.647 202.05C364.647 203.501 364.965 204.64 365.599 205.467C366.234 206.294 367.112 206.708 368.234 206.708C369.458 206.708 370.354 206.294 370.92 205.467C371.487 204.64 371.77 203.501 371.77 202.05C371.77 200.599 371.481 199.46 370.903 198.633C370.325 197.806 369.424 197.392 368.2 197.392C367.588 197.392 367.061 197.5 366.619 197.715C366.177 197.93 365.809 198.242 365.514 198.65C365.22 199.058 364.999 199.551 364.851 200.129C364.715 200.696 364.647 201.336 364.647 202.05ZM375.913 196.1H383.393V197.545H377.222L376.78 200.741C377.041 200.548 377.392 200.39 377.834 200.265C378.287 200.129 378.837 200.061 379.483 200.061C380.197 200.061 380.832 200.163 381.387 200.367C381.942 200.571 382.407 200.854 382.781 201.217C383.155 201.58 383.438 202.005 383.631 202.492C383.835 202.979 383.937 203.501 383.937 204.056C383.937 204.657 383.818 205.206 383.58 205.705C383.353 206.204 383.03 206.634 382.611 206.997C382.203 207.36 381.716 207.643 381.149 207.847C380.594 208.051 379.987 208.153 379.33 208.153C378.786 208.153 378.265 208.091 377.766 207.966C377.267 207.841 376.803 207.654 376.372 207.405C375.953 207.156 375.579 206.855 375.25 206.504C374.933 206.141 374.678 205.722 374.485 205.246L375.845 204.668C375.958 204.929 376.117 205.184 376.321 205.433C376.525 205.671 376.774 205.886 377.069 206.079C377.364 206.272 377.698 206.425 378.072 206.538C378.446 206.651 378.865 206.708 379.33 206.708C379.851 206.708 380.305 206.64 380.69 206.504C381.087 206.357 381.415 206.164 381.676 205.926C381.937 205.688 382.129 205.416 382.254 205.11C382.379 204.793 382.441 204.458 382.441 204.107C382.441 203.302 382.141 202.668 381.54 202.203C380.951 201.738 380.129 201.506 379.075 201.506C378.474 201.506 377.97 201.591 377.562 201.761C377.165 201.92 376.791 202.175 376.44 202.526L375.216 202.203L375.913 196.1ZM390.617 201.217C391.002 201.217 391.359 201.172 391.688 201.081C392.028 200.979 392.322 200.843 392.572 200.673C392.821 200.503 393.014 200.299 393.15 200.061C393.297 199.823 393.371 199.562 393.371 199.279C393.371 198.667 393.116 198.202 392.606 197.885C392.107 197.556 391.342 197.392 390.311 197.392C389.313 197.392 388.56 197.556 388.05 197.885C387.551 198.214 387.302 198.678 387.302 199.279C387.302 199.551 387.37 199.806 387.506 200.044C387.642 200.282 387.829 200.492 388.067 200.673C388.316 200.843 388.611 200.979 388.951 201.081C389.302 201.172 389.682 201.217 390.09 201.217H390.617ZM390.158 202.56C389.682 202.56 389.24 202.617 388.832 202.73C388.435 202.832 388.095 202.979 387.812 203.172C387.528 203.353 387.307 203.574 387.149 203.835C386.99 204.084 386.911 204.351 386.911 204.634C386.911 205.246 387.194 205.745 387.761 206.13C388.339 206.515 389.194 206.708 390.328 206.708C391.495 206.708 392.356 206.527 392.912 206.164C393.467 205.79 393.745 205.286 393.745 204.651C393.745 203.982 393.456 203.467 392.878 203.104C392.311 202.741 391.546 202.56 390.583 202.56H390.158ZM390.345 208.153C389.585 208.153 388.9 208.079 388.288 207.932C387.687 207.773 387.171 207.552 386.741 207.269C386.321 206.974 385.993 206.623 385.755 206.215C385.528 205.796 385.415 205.32 385.415 204.787C385.415 204.084 385.624 203.478 386.044 202.968C386.474 202.447 387.047 202.073 387.761 201.846C387.421 201.733 387.126 201.585 386.877 201.404C386.627 201.211 386.423 200.996 386.265 200.758C386.106 200.52 385.987 200.271 385.908 200.01C385.84 199.738 385.806 199.46 385.806 199.177C385.806 198.191 386.191 197.409 386.962 196.831C387.744 196.242 388.866 195.947 390.328 195.947C391.801 195.947 392.923 196.242 393.694 196.831C394.476 197.409 394.867 198.191 394.867 199.177C394.867 199.789 394.697 200.305 394.357 200.724C394.028 201.143 393.569 201.489 392.98 201.761C393.796 202.01 394.374 202.384 394.714 202.883C395.065 203.382 395.241 203.994 395.241 204.719C395.241 205.263 395.127 205.75 394.901 206.181C394.674 206.6 394.345 206.957 393.915 207.252C393.495 207.547 392.98 207.773 392.368 207.932C391.767 208.079 391.093 208.153 390.345 208.153Z" fill="#222429"/>
<path d="M497.895 367.454C497.522 367.669 497.125 367.837 496.705 367.958C496.295 368.07 495.851 368.126 495.375 368.126C494.666 368.126 494.008 368.005 493.401 367.762C492.795 367.51 492.267 367.16 491.819 366.712C491.371 366.264 491.021 365.732 490.769 365.116C490.517 364.5 490.391 363.828 490.391 363.1C490.391 362.391 490.517 361.733 490.769 361.126C491.031 360.51 491.385 359.978 491.833 359.53C492.281 359.073 492.809 358.718 493.415 358.466C494.022 358.205 494.675 358.074 495.375 358.074C496.057 358.074 496.701 358.2 497.307 358.452C497.914 358.695 498.441 359.04 498.889 359.488C499.337 359.936 499.692 360.468 499.953 361.084C500.215 361.7 500.345 362.372 500.345 363.1C500.345 363.8 500.21 364.458 499.939 365.074C499.678 365.69 499.295 366.255 498.791 366.768L499.771 367.944L498.903 368.672L497.895 367.454ZM495.375 366.936C495.674 366.936 495.973 366.899 496.271 366.824C496.57 366.74 496.855 366.609 497.125 366.432L496.285 365.424L497.097 364.71L497.993 365.788C498.311 365.461 498.558 365.074 498.735 364.626C498.922 364.169 499.015 363.66 499.015 363.1C499.015 362.531 498.917 362.013 498.721 361.546C498.535 361.07 498.278 360.664 497.951 360.328C497.625 359.992 497.237 359.731 496.789 359.544C496.351 359.357 495.879 359.264 495.375 359.264C494.862 359.264 494.381 359.357 493.933 359.544C493.495 359.731 493.107 359.992 492.771 360.328C492.445 360.664 492.188 361.07 492.001 361.546C491.815 362.013 491.721 362.531 491.721 363.1C491.721 363.669 491.815 364.192 492.001 364.668C492.188 365.135 492.445 365.536 492.771 365.872C493.107 366.208 493.495 366.469 493.933 366.656C494.381 366.843 494.862 366.936 495.375 366.936ZM507.02 366.04H500.986V365.144L507.16 358.2H508.196V364.85H510.016V366.04H508.196V368H507.02V366.04ZM507.02 364.85V360.16L502.666 364.85H507.02Z" fill="#777F8C"/>
<rect x="470" y="166" width="60" height="182" fill="#5FAF2D"/>
<rect x="470" y="166" width="60" height="4" fill="#3D7917"/>
<path d="M483.495 145.032H484.464V157H483.036V146.851L479.959 148.262L479.415 146.987L483.495 145.032ZM486.581 158.649C486.729 158.615 486.882 158.553 487.04 158.462C487.21 158.371 487.363 158.258 487.499 158.122C487.635 157.986 487.743 157.839 487.822 157.68C487.913 157.521 487.958 157.357 487.958 157.187C487.958 157.108 487.953 157.045 487.941 157C487.885 157.011 487.817 157.017 487.737 157.017C487.488 157.017 487.273 156.938 487.091 156.779C486.921 156.62 486.836 156.394 486.836 156.099C486.836 155.804 486.927 155.572 487.108 155.402C487.29 155.221 487.545 155.13 487.873 155.13C488.236 155.13 488.531 155.255 488.757 155.504C488.995 155.742 489.114 156.105 489.114 156.592C489.114 157.057 489.052 157.453 488.927 157.782C488.803 158.111 488.638 158.388 488.434 158.615C488.23 158.842 487.998 159.017 487.737 159.142C487.477 159.278 487.21 159.38 486.938 159.448L486.581 158.649ZM497.304 154.62H489.977V153.532L497.474 145.1H498.732V153.175H500.942V154.62H498.732V157H497.304V154.62ZM497.304 153.175V147.48L492.017 153.175H497.304ZM501.552 145.1H510.579V146.069L504.663 157H503.048L508.76 146.545H501.552V145.1ZM511.264 145.1H520.291V146.069L514.375 157H512.76L518.472 146.545H511.264V145.1Z" fill="#222429"/>
<path d="M625.837 367.454C625.463 367.669 625.067 367.837 624.647 367.958C624.236 368.07 623.793 368.126 623.317 368.126C622.607 368.126 621.949 368.005 621.343 367.762C620.736 367.51 620.209 367.16 619.761 366.712C619.313 366.264 618.963 365.732 618.711 365.116C618.459 364.5 618.333 363.828 618.333 363.1C618.333 362.391 618.459 361.733 618.711 361.126C618.972 360.51 619.327 359.978 619.775 359.53C620.223 359.073 620.75 358.718 621.357 358.466C621.963 358.205 622.617 358.074 623.317 358.074C623.998 358.074 624.642 358.2 625.249 358.452C625.855 358.695 626.383 359.04 626.831 359.488C627.279 359.936 627.633 360.468 627.895 361.084C628.156 361.7 628.287 362.372 628.287 363.1C628.287 363.8 628.151 364.458 627.881 365.074C627.619 365.69 627.237 366.255 626.733 366.768L627.713 367.944L626.845 368.672L625.837 367.454ZM623.317 366.936C623.615 366.936 623.914 366.899 624.213 366.824C624.511 366.74 624.796 366.609 625.067 366.432L624.227 365.424L625.039 364.71L625.935 365.788C626.252 365.461 626.499 365.074 626.677 364.626C626.863 364.169 626.957 363.66 626.957 363.1C626.957 362.531 626.859 362.013 626.663 361.546C626.476 361.07 626.219 360.664 625.893 360.328C625.566 359.992 625.179 359.731 624.731 359.544C624.292 359.357 623.821 359.264 623.317 359.264C622.803 359.264 622.323 359.357 621.875 359.544C621.436 359.731 621.049 359.992 620.713 360.328C620.386 360.664 620.129 361.07 619.943 361.546C619.756 362.013 619.663 362.531 619.663 363.1C619.663 363.669 619.756 364.192 619.943 364.668C620.129 365.135 620.386 365.536 620.713 365.872C621.049 366.208 621.436 366.469 621.875 366.656C622.323 366.843 622.803 366.936 623.317 366.936ZM632.176 358.144H632.974V368H631.798V359.642L629.264 360.804L628.816 359.754L632.176 358.144Z" fill="#777F8C"/>
<rect x="596" y="145" width="60" height="203" fill="#5FAF2D"/>
<rect x="596" y="145" width="60" height="4" fill="#3D7917"/>
<path d="M608.308 124.032H609.277V136H607.849V125.851L604.772 127.262L604.228 125.987L608.308 124.032ZM611.394 137.649C611.542 137.615 611.695 137.553 611.853 137.462C612.023 137.371 612.176 137.258 612.312 137.122C612.448 136.986 612.556 136.839 612.635 136.68C612.726 136.521 612.771 136.357 612.771 136.187C612.771 136.108 612.766 136.045 612.754 136C612.698 136.011 612.63 136.017 612.55 136.017C612.301 136.017 612.086 135.938 611.904 135.779C611.734 135.62 611.649 135.394 611.649 135.099C611.649 134.804 611.74 134.572 611.921 134.402C612.103 134.221 612.358 134.13 612.686 134.13C613.049 134.13 613.344 134.255 613.57 134.504C613.808 134.742 613.927 135.105 613.927 135.592C613.927 136.057 613.865 136.453 613.74 136.782C613.616 137.111 613.451 137.388 613.247 137.615C613.043 137.842 612.811 138.017 612.55 138.142C612.29 138.278 612.023 138.38 611.751 138.448L611.394 137.649ZM620.536 136.153C619.743 136.153 619.023 136.028 618.377 135.779C617.742 135.53 617.198 135.161 616.745 134.674C616.292 134.175 615.94 133.569 615.691 132.855C615.453 132.141 615.334 131.314 615.334 130.373C615.334 129.308 615.476 128.373 615.759 127.568C616.042 126.763 616.422 126.095 616.898 125.562C617.385 125.018 617.946 124.616 618.581 124.355C619.227 124.083 619.907 123.947 620.621 123.947C621.652 123.947 622.531 124.157 623.256 124.576C623.981 124.995 624.508 125.562 624.837 126.276L623.681 127.058C623.352 126.548 622.927 126.146 622.406 125.851C621.896 125.545 621.278 125.392 620.553 125.392C619.986 125.392 619.476 125.505 619.023 125.732C618.57 125.947 618.179 126.265 617.85 126.684C617.521 127.092 617.266 127.591 617.085 128.18C616.904 128.758 616.807 129.41 616.796 130.135V130.322C616.955 129.948 617.17 129.619 617.442 129.336C617.725 129.053 618.043 128.815 618.394 128.622C618.745 128.429 619.119 128.288 619.516 128.197C619.924 128.095 620.338 128.044 620.757 128.044C621.448 128.044 622.072 128.14 622.627 128.333C623.182 128.526 623.653 128.798 624.038 129.149C624.435 129.5 624.735 129.92 624.939 130.407C625.143 130.894 625.245 131.433 625.245 132.022C625.245 132.634 625.12 133.195 624.871 133.705C624.633 134.215 624.299 134.651 623.868 135.014C623.449 135.377 622.95 135.66 622.372 135.864C621.805 136.057 621.193 136.153 620.536 136.153ZM620.519 134.708C620.995 134.708 621.426 134.646 621.811 134.521C622.208 134.396 622.548 134.221 622.831 133.994C623.126 133.756 623.352 133.478 623.511 133.161C623.67 132.844 623.749 132.487 623.749 132.09C623.749 131.659 623.67 131.285 623.511 130.968C623.364 130.639 623.154 130.367 622.882 130.152C622.61 129.925 622.281 129.761 621.896 129.659C621.522 129.546 621.114 129.489 620.672 129.489C619.584 129.489 618.757 129.721 618.19 130.186C617.635 130.651 617.357 131.246 617.357 131.971C617.357 132.345 617.431 132.696 617.578 133.025C617.725 133.354 617.935 133.643 618.207 133.892C618.479 134.141 618.808 134.34 619.193 134.487C619.59 134.634 620.032 134.708 620.519 134.708ZM633.423 133.62H626.096V132.532L633.593 124.1H634.851V132.175H637.061V133.62H634.851V136H633.423V133.62ZM633.423 132.175V126.48L628.136 132.175H633.423ZM637.96 126.99C638.118 126.548 638.334 126.146 638.606 125.783C638.878 125.409 639.206 125.086 639.592 124.814C639.988 124.542 640.442 124.332 640.952 124.185C641.473 124.026 642.057 123.947 642.703 123.947C643.281 123.947 643.813 124.021 644.301 124.168C644.799 124.304 645.224 124.502 645.576 124.763C645.938 125.012 646.216 125.324 646.409 125.698C646.613 126.072 646.715 126.486 646.715 126.939C646.715 127.63 646.533 128.22 646.171 128.707C645.819 129.194 645.304 129.534 644.624 129.727C644.918 129.75 645.207 129.823 645.491 129.948C645.774 130.061 646.023 130.237 646.239 130.475C646.465 130.702 646.647 130.991 646.783 131.342C646.919 131.682 646.987 132.09 646.987 132.566C646.987 133.144 646.873 133.66 646.647 134.113C646.431 134.555 646.125 134.929 645.729 135.235C645.343 135.53 644.884 135.756 644.352 135.915C643.819 136.074 643.247 136.153 642.635 136.153C641.966 136.153 641.354 136.074 640.799 135.915C640.255 135.756 639.773 135.541 639.354 135.269C638.934 134.986 638.577 134.651 638.283 134.266C637.999 133.869 637.784 133.433 637.637 132.957L639.014 132.362C639.161 132.668 639.337 132.963 639.541 133.246C639.745 133.529 639.994 133.779 640.289 133.994C640.583 134.209 640.929 134.385 641.326 134.521C641.722 134.646 642.193 134.708 642.737 134.708C643.587 134.708 644.255 134.527 644.743 134.164C645.241 133.79 645.491 133.263 645.491 132.583C645.491 132.209 645.411 131.897 645.253 131.648C645.094 131.387 644.873 131.183 644.59 131.036C644.306 130.877 643.972 130.77 643.587 130.713C643.213 130.645 642.805 130.611 642.363 130.611H641.037V129.2H642.091C643.077 129.2 643.842 129.013 644.386 128.639C644.941 128.265 645.219 127.795 645.219 127.228C645.219 126.616 644.986 126.157 644.522 125.851C644.057 125.545 643.428 125.392 642.635 125.392C642.147 125.392 641.717 125.454 641.343 125.579C640.969 125.704 640.64 125.868 640.357 126.072C640.085 126.276 639.852 126.508 639.66 126.769C639.478 127.03 639.337 127.296 639.235 127.568L637.96 126.99Z" fill="#222429"/>
<path d="M750.312 367.454C749.939 367.669 749.542 367.837 749.122 367.958C748.712 368.07 748.268 368.126 747.792 368.126C747.083 368.126 746.425 368.005 745.818 367.762C745.212 367.51 744.684 367.16 744.236 366.712C743.788 366.264 743.438 365.732 743.186 365.116C742.934 364.5 742.808 363.828 742.808 363.1C742.808 362.391 742.934 361.733 743.186 361.126C743.448 360.51 743.802 359.978 744.25 359.53C744.698 359.073 745.226 358.718 745.832 358.466C746.439 358.205 747.092 358.074 747.792 358.074C748.474 358.074 749.118 358.2 749.724 358.452C750.331 358.695 750.858 359.04 751.306 359.488C751.754 359.936 752.109 360.468 752.37 361.084C752.632 361.7 752.762 362.372 752.762 363.1C752.762 363.8 752.627 364.458 752.356 365.074C752.095 365.69 751.712 366.255 751.208 366.768L752.188 367.944L751.32 368.672L750.312 367.454ZM747.792 366.936C748.091 366.936 748.39 366.899 748.688 366.824C748.987 366.74 749.272 366.609 749.542 366.432L748.702 365.424L749.514 364.71L750.41 365.788C750.728 365.461 750.975 365.074 751.152 364.626C751.339 364.169 751.432 363.66 751.432 363.1C751.432 362.531 751.334 362.013 751.138 361.546C750.952 361.07 750.695 360.664 750.368 360.328C750.042 359.992 749.654 359.731 749.206 359.544C748.768 359.357 748.296 359.264 747.792 359.264C747.279 359.264 746.798 359.357 746.35 359.544C745.912 359.731 745.524 359.992 745.188 360.328C744.862 360.664 744.605 361.07 744.418 361.546C744.232 362.013 744.138 362.531 744.138 363.1C744.138 363.669 744.232 364.192 744.418 364.668C744.605 365.135 744.862 365.536 745.188 365.872C745.524 366.208 745.912 366.469 746.35 366.656C746.798 366.843 747.279 366.936 747.792 366.936ZM753.949 361.07C754.033 360.669 754.173 360.286 754.369 359.922C754.565 359.558 754.817 359.241 755.125 358.97C755.433 358.69 755.802 358.471 756.231 358.312C756.661 358.153 757.151 358.074 757.701 358.074C758.215 358.074 758.672 358.149 759.073 358.298C759.475 358.438 759.815 358.639 760.095 358.9C760.375 359.161 760.585 359.474 760.725 359.838C760.875 360.202 760.949 360.599 760.949 361.028C760.949 361.635 760.819 362.195 760.557 362.708C760.305 363.212 759.983 363.674 759.591 364.094C759.199 364.514 758.77 364.897 758.303 365.242C757.837 365.578 757.393 365.877 756.973 366.138L755.895 366.81H761.313V368H753.683V367.02L755.811 365.606C756.511 365.139 757.109 364.71 757.603 364.318C758.098 363.917 758.499 363.539 758.807 363.184C759.125 362.829 759.353 362.489 759.493 362.162C759.643 361.826 759.717 361.49 759.717 361.154C759.717 360.809 759.661 360.515 759.549 360.272C759.447 360.029 759.297 359.833 759.101 359.684C758.915 359.535 758.691 359.427 758.429 359.362C758.177 359.297 757.907 359.264 757.617 359.264C757.197 359.264 756.833 359.329 756.525 359.46C756.227 359.591 755.97 359.763 755.755 359.978C755.55 360.183 755.387 360.417 755.265 360.678C755.153 360.93 755.079 361.182 755.041 361.434L753.949 361.07Z" fill="#777F8C"/>
<rect x="722" y="190" width="60" height="158" fill="#5FAF2D"/>
<rect x="722" y="190" width="60" height="4" fill="#3D7917"/>
<path d="M734.267 169.032H735.236V181H733.808V170.851L730.731 172.262L730.187 170.987L734.267 169.032ZM737.353 182.649C737.5 182.615 737.653 182.553 737.812 182.462C737.982 182.371 738.135 182.258 738.271 182.122C738.407 181.986 738.514 181.839 738.594 181.68C738.684 181.521 738.73 181.357 738.73 181.187C738.73 181.108 738.724 181.045 738.713 181C738.656 181.011 738.588 181.017 738.509 181.017C738.259 181.017 738.044 180.938 737.863 180.779C737.693 180.62 737.608 180.394 737.608 180.099C737.608 179.804 737.698 179.572 737.88 179.402C738.061 179.221 738.316 179.13 738.645 179.13C739.007 179.13 739.302 179.255 739.529 179.504C739.767 179.742 739.886 180.105 739.886 180.592C739.886 181.057 739.823 181.453 739.699 181.782C739.574 182.111 739.41 182.388 739.206 182.615C739.002 182.842 738.769 183.017 738.509 183.142C738.248 183.278 737.982 183.38 737.71 183.448L737.353 182.649ZM741.412 172.585C741.514 172.098 741.684 171.633 741.922 171.191C742.16 170.749 742.466 170.364 742.84 170.035C743.214 169.695 743.661 169.429 744.183 169.236C744.704 169.043 745.299 168.947 745.968 168.947C746.591 168.947 747.146 169.038 747.634 169.219C748.121 169.389 748.535 169.633 748.875 169.95C749.215 170.267 749.47 170.647 749.64 171.089C749.821 171.531 749.912 172.013 749.912 172.534C749.912 173.271 749.753 173.951 749.436 174.574C749.13 175.186 748.739 175.747 748.263 176.257C747.787 176.767 747.265 177.232 746.699 177.651C746.132 178.059 745.594 178.422 745.084 178.739L743.775 179.555H750.354V181H741.089V179.81L743.673 178.093C744.523 177.526 745.248 177.005 745.849 176.529C746.449 176.042 746.937 175.583 747.311 175.152C747.696 174.721 747.974 174.308 748.144 173.911C748.325 173.503 748.416 173.095 748.416 172.687C748.416 172.268 748.348 171.911 748.212 171.616C748.087 171.321 747.906 171.083 747.668 170.902C747.441 170.721 747.169 170.59 746.852 170.511C746.546 170.432 746.217 170.392 745.866 170.392C745.356 170.392 744.914 170.471 744.54 170.63C744.177 170.789 743.865 170.998 743.605 171.259C743.355 171.508 743.157 171.792 743.01 172.109C742.874 172.415 742.783 172.721 742.738 173.027L741.412 172.585ZM756.921 174.217C757.306 174.217 757.663 174.172 757.992 174.081C758.332 173.979 758.626 173.843 758.876 173.673C759.125 173.503 759.318 173.299 759.454 173.061C759.601 172.823 759.675 172.562 759.675 172.279C759.675 171.667 759.42 171.202 758.91 170.885C758.411 170.556 757.646 170.392 756.615 170.392C755.617 170.392 754.864 170.556 754.354 170.885C753.855 171.214 753.606 171.678 753.606 172.279C753.606 172.551 753.674 172.806 753.81 173.044C753.946 173.282 754.133 173.492 754.371 173.673C754.62 173.843 754.915 173.979 755.255 174.081C755.606 174.172 755.986 174.217 756.394 174.217H756.921ZM756.462 175.56C755.986 175.56 755.544 175.617 755.136 175.73C754.739 175.832 754.399 175.979 754.116 176.172C753.832 176.353 753.611 176.574 753.453 176.835C753.294 177.084 753.215 177.351 753.215 177.634C753.215 178.246 753.498 178.745 754.065 179.13C754.643 179.515 755.498 179.708 756.632 179.708C757.799 179.708 758.66 179.527 759.216 179.164C759.771 178.79 760.049 178.286 760.049 177.651C760.049 176.982 759.76 176.467 759.182 176.104C758.615 175.741 757.85 175.56 756.887 175.56H756.462ZM756.649 181.153C755.889 181.153 755.204 181.079 754.592 180.932C753.991 180.773 753.475 180.552 753.045 180.269C752.625 179.974 752.297 179.623 752.059 179.215C751.832 178.796 751.719 178.32 751.719 177.787C751.719 177.084 751.928 176.478 752.348 175.968C752.778 175.447 753.351 175.073 754.065 174.846C753.725 174.733 753.43 174.585 753.181 174.404C752.931 174.211 752.727 173.996 752.569 173.758C752.41 173.52 752.291 173.271 752.212 173.01C752.144 172.738 752.11 172.46 752.11 172.177C752.11 171.191 752.495 170.409 753.266 169.831C754.048 169.242 755.17 168.947 756.632 168.947C758.105 168.947 759.227 169.242 759.998 169.831C760.78 170.409 761.171 171.191 761.171 172.177C761.171 172.789 761.001 173.305 760.661 173.724C760.332 174.143 759.873 174.489 759.284 174.761C760.1 175.01 760.678 175.384 761.018 175.883C761.369 176.382 761.545 176.994 761.545 177.719C761.545 178.263 761.431 178.75 761.205 179.181C760.978 179.6 760.649 179.957 760.219 180.252C759.799 180.547 759.284 180.773 758.672 180.932C758.071 181.079 757.397 181.153 756.649 181.153ZM763.041 175.05C763.041 174.166 763.143 173.356 763.347 172.619C763.551 171.871 763.857 171.225 764.265 170.681C764.684 170.137 765.211 169.712 765.846 169.406C766.48 169.1 767.228 168.947 768.09 168.947C768.951 168.947 769.699 169.089 770.334 169.372C770.968 169.655 771.495 170.063 771.915 170.596C772.334 171.129 772.646 171.775 772.85 172.534C773.054 173.282 773.156 174.121 773.156 175.05C773.156 175.934 773.054 176.75 772.85 177.498C772.657 178.235 772.351 178.875 771.932 179.419C771.524 179.963 771.002 180.388 770.368 180.694C769.733 181 768.985 181.153 768.124 181.153C767.308 181.153 766.582 181 765.948 180.694C765.313 180.388 764.78 179.963 764.35 179.419C763.919 178.875 763.59 178.235 763.364 177.498C763.148 176.75 763.041 175.934 763.041 175.05ZM764.537 175.05C764.537 176.501 764.854 177.64 765.489 178.467C766.123 179.294 767.002 179.708 768.124 179.708C769.348 179.708 770.243 179.294 770.81 178.467C771.376 177.64 771.66 176.501 771.66 175.05C771.66 173.599 771.371 172.46 770.793 171.633C770.215 170.806 769.314 170.392 768.09 170.392C767.478 170.392 766.951 170.5 766.509 170.715C766.067 170.93 765.698 171.242 765.404 171.65C765.109 172.058 764.888 172.551 764.741 173.129C764.605 173.696 764.537 174.336 764.537 175.05Z" fill="#222429"/>
<path d="M876.278 367.454C875.905 367.669 875.508 367.837 875.088 367.958C874.678 368.07 874.234 368.126 873.758 368.126C873.049 368.126 872.391 368.005 871.784 367.762C871.178 367.51 870.65 367.16 870.202 366.712C869.754 366.264 869.404 365.732 869.152 365.116C868.9 364.5 868.774 363.828 868.774 363.1C868.774 362.391 868.9 361.733 869.152 361.126C869.414 360.51 869.768 359.978 870.216 359.53C870.664 359.073 871.192 358.718 871.798 358.466C872.405 358.205 873.058 358.074 873.758 358.074C874.44 358.074 875.084 358.2 875.69 358.452C876.297 358.695 876.824 359.04 877.272 359.488C877.72 359.936 878.075 360.468 878.336 361.084C878.598 361.7 878.728 362.372 878.728 363.1C878.728 363.8 878.593 364.458 878.322 365.074C878.061 365.69 877.678 366.255 877.174 366.768L878.154 367.944L877.286 368.672L876.278 367.454ZM873.758 366.936C874.057 366.936 874.356 366.899 874.654 366.824C874.953 366.74 875.238 366.609 875.508 366.432L874.668 365.424L875.48 364.71L876.376 365.788C876.694 365.461 876.941 365.074 877.118 364.626C877.305 364.169 877.398 363.66 877.398 363.1C877.398 362.531 877.3 362.013 877.104 361.546C876.918 361.07 876.661 360.664 876.334 360.328C876.008 359.992 875.62 359.731 875.172 359.544C874.734 359.357 874.262 359.264 873.758 359.264C873.245 359.264 872.764 359.357 872.316 359.544C871.878 359.731 871.49 359.992 871.154 360.328C870.828 360.664 870.571 361.07 870.384 361.546C870.198 362.013 870.104 362.531 870.104 363.1C870.104 363.669 870.198 364.192 870.384 364.668C870.571 365.135 870.828 365.536 871.154 365.872C871.49 366.208 871.878 366.469 872.316 366.656C872.764 366.843 873.245 366.936 873.758 366.936ZM879.733 360.58C879.864 360.216 880.041 359.885 880.265 359.586C880.489 359.278 880.76 359.012 881.077 358.788C881.404 358.564 881.777 358.391 882.197 358.27C882.626 358.139 883.107 358.074 883.639 358.074C884.115 358.074 884.554 358.135 884.955 358.256C885.366 358.368 885.716 358.531 886.005 358.746C886.304 358.951 886.532 359.208 886.691 359.516C886.859 359.824 886.943 360.165 886.943 360.538C886.943 361.107 886.794 361.593 886.495 361.994C886.206 362.395 885.781 362.675 885.221 362.834C885.464 362.853 885.702 362.913 885.935 363.016C886.168 363.109 886.374 363.254 886.551 363.45C886.738 363.637 886.887 363.875 886.999 364.164C887.111 364.444 887.167 364.78 887.167 365.172C887.167 365.648 887.074 366.073 886.887 366.446C886.71 366.81 886.458 367.118 886.131 367.37C885.814 367.613 885.436 367.799 884.997 367.93C884.558 368.061 884.087 368.126 883.583 368.126C883.032 368.126 882.528 368.061 882.071 367.93C881.623 367.799 881.226 367.622 880.881 367.398C880.536 367.165 880.242 366.889 879.999 366.572C879.766 366.245 879.588 365.886 879.467 365.494L880.601 365.004C880.722 365.256 880.867 365.499 881.035 365.732C881.203 365.965 881.408 366.171 881.651 366.348C881.894 366.525 882.178 366.67 882.505 366.782C882.832 366.885 883.219 366.936 883.667 366.936C884.367 366.936 884.918 366.787 885.319 366.488C885.73 366.18 885.935 365.746 885.935 365.186C885.935 364.878 885.87 364.621 885.739 364.416C885.608 364.201 885.426 364.033 885.193 363.912C884.96 363.781 884.684 363.693 884.367 363.646C884.059 363.59 883.723 363.562 883.359 363.562H882.267V362.4H883.135C883.947 362.4 884.577 362.246 885.025 361.938C885.482 361.63 885.711 361.243 885.711 360.776C885.711 360.272 885.52 359.894 885.137 359.642C884.754 359.39 884.236 359.264 883.583 359.264C883.182 359.264 882.827 359.315 882.519 359.418C882.211 359.521 881.94 359.656 881.707 359.824C881.483 359.992 881.292 360.183 881.133 360.398C880.984 360.613 880.867 360.832 880.783 361.056L879.733 360.58Z" fill="#777F8C"/>
<rect x="848" y="194" width="60" height="154" fill="#5FAF2D"/>
<rect x="848" y="194" width="60" height="4" fill="#3D7917"/>
<path d="M860.798 173.032H861.767V185H860.339V174.851L857.262 176.262L856.718 174.987L860.798 173.032ZM863.884 186.649C864.031 186.615 864.184 186.553 864.343 186.462C864.513 186.371 864.666 186.258 864.802 186.122C864.938 185.986 865.046 185.839 865.125 185.68C865.216 185.521 865.261 185.357 865.261 185.187C865.261 185.108 865.255 185.045 865.244 185C865.187 185.011 865.119 185.017 865.04 185.017C864.791 185.017 864.575 184.938 864.394 184.779C864.224 184.62 864.139 184.394 864.139 184.099C864.139 183.804 864.23 183.572 864.411 183.402C864.592 183.221 864.847 183.13 865.176 183.13C865.539 183.13 865.833 183.255 866.06 183.504C866.298 183.742 866.417 184.105 866.417 184.592C866.417 185.057 866.355 185.453 866.23 185.782C866.105 186.111 865.941 186.388 865.737 186.615C865.533 186.842 865.301 187.017 865.04 187.142C864.779 187.278 864.513 187.38 864.241 187.448L863.884 186.649ZM867.943 176.585C868.045 176.098 868.215 175.633 868.453 175.191C868.691 174.749 868.997 174.364 869.371 174.035C869.745 173.695 870.192 173.429 870.714 173.236C871.235 173.043 871.83 172.947 872.499 172.947C873.122 172.947 873.677 173.038 874.165 173.219C874.652 173.389 875.066 173.633 875.406 173.95C875.746 174.267 876.001 174.647 876.171 175.089C876.352 175.531 876.443 176.013 876.443 176.534C876.443 177.271 876.284 177.951 875.967 178.574C875.661 179.186 875.27 179.747 874.794 180.257C874.318 180.767 873.796 181.232 873.23 181.651C872.663 182.059 872.125 182.422 871.615 182.739L870.306 183.555H876.885V185H867.62V183.81L870.204 182.093C871.054 181.526 871.779 181.005 872.38 180.529C872.98 180.042 873.468 179.583 873.842 179.152C874.227 178.721 874.505 178.308 874.675 177.911C874.856 177.503 874.947 177.095 874.947 176.687C874.947 176.268 874.879 175.911 874.743 175.616C874.618 175.321 874.437 175.083 874.199 174.902C873.972 174.721 873.7 174.59 873.383 174.511C873.077 174.432 872.748 174.392 872.397 174.392C871.887 174.392 871.445 174.471 871.071 174.63C870.708 174.789 870.396 174.998 870.136 175.259C869.886 175.508 869.688 175.792 869.541 176.109C869.405 176.415 869.314 176.721 869.269 177.027L867.943 176.585ZM885.016 182.62H877.689V181.532L885.186 173.1H886.444V181.175H888.654V182.62H886.444V185H885.016V182.62ZM885.016 181.175V175.48L879.729 181.175H885.016ZM889.774 176.585C889.876 176.098 890.046 175.633 890.284 175.191C890.522 174.749 890.828 174.364 891.202 174.035C891.576 173.695 892.023 173.429 892.545 173.236C893.066 173.043 893.661 172.947 894.33 172.947C894.953 172.947 895.508 173.038 895.996 173.219C896.483 173.389 896.897 173.633 897.237 173.95C897.577 174.267 897.832 174.647 898.002 175.089C898.183 175.531 898.274 176.013 898.274 176.534C898.274 177.271 898.115 177.951 897.798 178.574C897.492 179.186 897.101 179.747 896.625 180.257C896.149 180.767 895.627 181.232 895.061 181.651C894.494 182.059 893.956 182.422 893.446 182.739L892.137 183.555H898.716V185H889.451V183.81L892.035 182.093C892.885 181.526 893.61 181.005 894.211 180.529C894.811 180.042 895.299 179.583 895.673 179.152C896.058 178.721 896.336 178.308 896.506 177.911C896.687 177.503 896.778 177.095 896.778 176.687C896.778 176.268 896.71 175.911 896.574 175.616C896.449 175.321 896.268 175.083 896.03 174.902C895.803 174.721 895.531 174.59 895.214 174.511C894.908 174.432 894.579 174.392 894.228 174.392C893.718 174.392 893.276 174.471 892.902 174.63C892.539 174.789 892.227 174.998 891.967 175.259C891.717 175.508 891.519 175.792 891.372 176.109C891.236 176.415 891.145 176.721 891.1 177.027L889.774 176.585Z" fill="#222429"/>
<path d="M1001.9 367.454C1001.52 367.669 1001.13 367.837 1000.71 367.958C1000.29 368.07 999.851 368.126 999.375 368.126C998.666 368.126 998.008 368.005 997.401 367.762C996.795 367.51 996.267 367.16 995.819 366.712C995.371 366.264 995.021 365.732 994.769 365.116C994.517 364.5 994.391 363.828 994.391 363.1C994.391 362.391 994.517 361.733 994.769 361.126C995.031 360.51 995.385 359.978 995.833 359.53C996.281 359.073 996.809 358.718 997.415 358.466C998.022 358.205 998.675 358.074 999.375 358.074C1000.06 358.074 1000.7 358.2 1001.31 358.452C1001.91 358.695 1002.44 359.04 1002.89 359.488C1003.34 359.936 1003.69 360.468 1003.95 361.084C1004.21 361.7 1004.35 362.372 1004.35 363.1C1004.35 363.8 1004.21 364.458 1003.94 365.074C1003.68 365.69 1003.3 366.255 1002.79 366.768L1003.77 367.944L1002.9 368.672L1001.9 367.454ZM999.375 366.936C999.674 366.936 999.973 366.899 1000.27 366.824C1000.57 366.74 1000.85 366.609 1001.13 366.432L1000.29 365.424L1001.1 364.71L1001.99 365.788C1002.31 365.461 1002.56 365.074 1002.74 364.626C1002.92 364.169 1003.02 363.66 1003.02 363.1C1003.02 362.531 1002.92 362.013 1002.72 361.546C1002.53 361.07 1002.28 360.664 1001.95 360.328C1001.62 359.992 1001.24 359.731 1000.79 359.544C1000.35 359.357 999.879 359.264 999.375 359.264C998.862 359.264 998.381 359.357 997.933 359.544C997.495 359.731 997.107 359.992 996.771 360.328C996.445 360.664 996.188 361.07 996.001 361.546C995.815 362.013 995.721 362.531 995.721 363.1C995.721 363.669 995.815 364.192 996.001 364.668C996.188 365.135 996.445 365.536 996.771 365.872C997.107 366.208 997.495 366.469 997.933 366.656C998.381 366.843 998.862 366.936 999.375 366.936ZM1011.02 366.04H1004.99V365.144L1011.16 358.2H1012.2V364.85H1014.02V366.04H1012.2V368H1011.02V366.04ZM1011.02 364.85V360.16L1006.67 364.85H1011.02Z" fill="#777F8C"/>
<rect x="974" y="198" width="60" height="150" fill="#5FAF2D"/>
<rect x="974" y="198" width="60" height="4" fill="#3D7917"/>
<path d="M988.691 177.032H989.66V189H988.232V178.851L985.155 180.262L984.611 178.987L988.691 177.032ZM991.777 190.649C991.924 190.615 992.077 190.553 992.236 190.462C992.406 190.371 992.559 190.258 992.695 190.122C992.831 189.986 992.938 189.839 993.018 189.68C993.108 189.521 993.154 189.357 993.154 189.187C993.154 189.108 993.148 189.045 993.137 189C993.08 189.011 993.012 189.017 992.933 189.017C992.683 189.017 992.468 188.938 992.287 188.779C992.117 188.62 992.032 188.394 992.032 188.099C992.032 187.804 992.122 187.572 992.304 187.402C992.485 187.221 992.74 187.13 993.069 187.13C993.431 187.13 993.726 187.255 993.953 187.504C994.191 187.742 994.31 188.105 994.31 188.592C994.31 189.057 994.247 189.453 994.123 189.782C993.998 190.111 993.834 190.388 993.63 190.615C993.426 190.842 993.193 191.017 992.933 191.142C992.672 191.278 992.406 191.38 992.134 191.448L991.777 190.649ZM995.835 180.585C995.937 180.098 996.107 179.633 996.345 179.191C996.583 178.749 996.889 178.364 997.263 178.035C997.637 177.695 998.085 177.429 998.606 177.236C999.128 177.043 999.723 176.947 1000.39 176.947C1001.01 176.947 1001.57 177.038 1002.06 177.219C1002.54 177.389 1002.96 177.633 1003.3 177.95C1003.64 178.267 1003.89 178.647 1004.06 179.089C1004.24 179.531 1004.34 180.013 1004.34 180.534C1004.34 181.271 1004.18 181.951 1003.86 182.574C1003.55 183.186 1003.16 183.747 1002.69 184.257C1002.21 184.767 1001.69 185.232 1001.12 185.651C1000.56 186.059 1000.02 186.422 999.507 186.739L998.198 187.555H1004.78V189H995.512V187.81L998.096 186.093C998.946 185.526 999.672 185.005 1000.27 184.529C1000.87 184.042 1001.36 183.583 1001.73 183.152C1002.12 182.721 1002.4 182.308 1002.57 181.911C1002.75 181.503 1002.84 181.095 1002.84 180.687C1002.84 180.268 1002.77 179.911 1002.64 179.616C1002.51 179.321 1002.33 179.083 1002.09 178.902C1001.86 178.721 1001.59 178.59 1001.28 178.511C1000.97 178.432 1000.64 178.392 1000.29 178.392C999.779 178.392 999.337 178.471 998.963 178.63C998.601 178.789 998.289 178.998 998.028 179.259C997.779 179.508 997.581 179.792 997.433 180.109C997.297 180.415 997.207 180.721 997.161 181.027L995.835 180.585ZM1009.53 177.032H1010.49V189H1009.07V178.851L1005.99 180.262L1005.45 178.987L1009.53 177.032ZM1017.41 189.153C1016.37 189.153 1015.49 188.955 1014.75 188.558C1014.03 188.161 1013.48 187.657 1013.12 187.045L1014.35 186.195C1014.7 186.682 1015.16 187.056 1015.72 187.317C1016.3 187.578 1016.93 187.708 1017.61 187.708C1018.13 187.708 1018.61 187.606 1019.04 187.402C1019.48 187.187 1019.86 186.892 1020.18 186.518C1020.51 186.144 1020.76 185.702 1020.94 185.192C1021.12 184.682 1021.21 184.127 1021.21 183.526C1021.21 183.458 1021.21 183.39 1021.21 183.322C1021.21 183.254 1021.21 183.186 1021.2 183.118C1020.92 183.764 1020.46 184.302 1019.8 184.733C1019.16 185.152 1018.33 185.362 1017.34 185.362C1016.68 185.362 1016.07 185.266 1015.52 185.073C1014.96 184.869 1014.48 184.591 1014.07 184.24C1013.67 183.877 1013.35 183.447 1013.12 182.948C1012.89 182.449 1012.78 181.894 1012.78 181.282C1012.78 180.625 1012.9 180.03 1013.14 179.497C1013.39 178.953 1013.73 178.494 1014.18 178.12C1014.62 177.746 1015.14 177.457 1015.76 177.253C1016.38 177.049 1017.07 176.947 1017.81 176.947C1018.57 176.947 1019.25 177.077 1019.85 177.338C1020.47 177.587 1020.98 177.961 1021.4 178.46C1021.83 178.959 1022.16 179.576 1022.39 180.313C1022.61 181.038 1022.73 181.877 1022.73 182.829C1022.73 183.872 1022.6 184.79 1022.34 185.583C1022.09 186.365 1021.72 187.022 1021.25 187.555C1020.78 188.076 1020.22 188.473 1019.56 188.745C1018.92 189.017 1018.2 189.153 1017.41 189.153ZM1017.61 183.917C1018.1 183.917 1018.54 183.849 1018.94 183.713C1019.33 183.577 1019.67 183.39 1019.94 183.152C1020.22 182.903 1020.44 182.614 1020.58 182.285C1020.73 181.956 1020.81 181.605 1020.81 181.231C1020.81 180.868 1020.75 180.517 1020.64 180.177C1020.52 179.837 1020.34 179.537 1020.09 179.276C1019.84 179.004 1019.51 178.789 1019.11 178.63C1018.71 178.471 1018.22 178.392 1017.64 178.392C1016.59 178.392 1015.76 178.63 1015.16 179.106C1014.57 179.571 1014.28 180.256 1014.28 181.163C1014.28 182.024 1014.58 182.699 1015.18 183.186C1015.78 183.673 1016.59 183.917 1017.61 183.917Z" fill="#222429"/>
<rect y="348" width="1112" height="1" fill="#9299A3"/>
<circle cx="120" cy="109" r="5" fill="white" stroke="#648494" stroke-width="2"/>
<path d="M106.609 91H107.785V89.04H109.605V87.85H107.785V81.2H106.749L100.575 88.144V89.04H106.609V91ZM102.255 87.85L106.609 83.16V87.85H102.255ZM110.401 93.016C111.297 92.792 112.193 92.19 112.193 90.664C112.193 89.866 111.773 89.46 111.171 89.46C110.625 89.46 110.317 89.768 110.317 90.258C110.317 90.748 110.653 91.014 111.059 91.014C111.101 91.014 111.157 91.014 111.227 91C111.241 91.056 111.241 91.098 111.241 91.154C111.241 91.714 110.611 92.246 110.107 92.358L110.401 93.016ZM114.177 84.056C114.513 83.16 115.381 82.264 116.977 82.264C118.279 82.264 119.105 82.782 119.105 83.776C119.105 84.7 118.139 85.4 116.529 85.4H115.661V86.562H116.753C118.209 86.562 119.329 86.94 119.329 88.186C119.329 89.306 118.461 89.936 117.061 89.936C115.283 89.936 114.485 89.026 113.995 88.004L112.861 88.494C113.337 90.048 114.779 91.126 116.977 91.126C119.007 91.126 120.561 90.076 120.561 88.172C120.561 86.604 119.581 85.904 118.615 85.834C119.735 85.512 120.337 84.672 120.337 83.538C120.337 82.026 118.951 81.074 117.033 81.074C114.905 81.074 113.645 82.138 113.127 83.58L114.177 84.056ZM122.132 86.226L123.14 86.492C123.714 85.918 124.33 85.652 125.31 85.652C127.032 85.652 128.082 86.478 128.082 87.794C128.082 88.942 127.256 89.936 125.52 89.936C124.008 89.936 123.028 89.11 122.65 88.256L121.53 88.732C122.16 90.286 123.742 91.126 125.52 91.126C127.69 91.126 129.314 89.712 129.314 87.752C129.314 85.904 127.998 84.462 125.646 84.462C124.596 84.462 123.84 84.714 123.42 85.022L123.784 82.39H128.866V81.2H122.706L122.132 86.226ZM130.797 86.226L131.805 86.492C132.379 85.918 132.995 85.652 133.975 85.652C135.697 85.652 136.747 86.478 136.747 87.794C136.747 88.942 135.921 89.936 134.185 89.936C132.673 89.936 131.693 89.11 131.315 88.256L130.195 88.732C130.825 90.286 132.407 91.126 134.185 91.126C136.355 91.126 137.979 89.712 137.979 87.752C137.979 85.904 136.663 84.462 134.311 84.462C133.261 84.462 132.505 84.714 132.085 85.022L132.449 82.39H137.531V81.2H131.371L130.797 86.226Z" fill="black"/>
<circle cx="246" cy="57" r="5" fill="white" stroke="#648494" stroke-width="2"/>
<path d="M232.567 39H233.743V37.04H235.563V35.85H233.743V29.2H232.707L226.533 36.144V37.04H232.567V39ZM228.213 35.85L232.567 31.16V35.85H228.213ZM236.359 41.016C237.255 40.792 238.151 40.19 238.151 38.664C238.151 37.866 237.731 37.46 237.129 37.46C236.583 37.46 236.275 37.768 236.275 38.258C236.275 38.748 236.611 39.014 237.017 39.014C237.059 39.014 237.115 39.014 237.185 39C237.199 39.056 237.199 39.098 237.199 39.154C237.199 39.714 236.569 40.246 236.065 40.358L236.359 41.016ZM243.033 33.414C241.675 33.414 240.737 32.728 240.737 31.818C240.737 30.838 241.577 30.264 243.215 30.264C244.909 30.264 245.735 30.824 245.735 31.818C245.735 32.756 244.741 33.414 243.467 33.414H243.033ZM243.439 34.52C245.007 34.52 246.043 35.15 246.043 36.242C246.043 37.278 245.133 37.936 243.229 37.936C241.367 37.936 240.415 37.236 240.415 36.228C240.415 35.276 241.507 34.52 243.089 34.52H243.439ZM243.243 39.126C245.721 39.126 247.275 38.09 247.275 36.298C247.275 35.108 246.743 34.268 245.413 33.862C246.379 33.414 246.967 32.728 246.967 31.734C246.967 30.124 245.637 29.074 243.229 29.074C240.835 29.074 239.505 30.124 239.505 31.734C239.505 32.658 239.981 33.554 241.115 33.932C239.953 34.31 239.183 35.206 239.183 36.354C239.183 38.09 240.751 39.126 243.243 39.126ZM248.045 30.39H253.981L249.277 39H250.607L255.479 29.998V29.2H248.045V30.39ZM255.903 30.39H261.839L257.135 39H258.465L263.337 29.998V29.2H255.903V30.39Z" fill="black"/>
<circle cx="375" cy="91" r="5" fill="white" stroke="#648494" stroke-width="2"/>
<path d="M363.249 73H364.425V71.04H366.245V69.85H364.425V63.2H363.389L357.215 70.144V71.04H363.249V73ZM358.895 69.85L363.249 65.16V69.85H358.895ZM367.042 75.016C367.938 74.792 368.834 74.19 368.834 72.664C368.834 71.866 368.414 71.46 367.812 71.46C367.266 71.46 366.958 71.768 366.958 72.258C366.958 72.748 367.294 73.014 367.7 73.014C367.742 73.014 367.798 73.014 367.868 73C367.882 73.056 367.882 73.098 367.882 73.154C367.882 73.714 367.252 74.246 366.748 74.358L367.042 75.016ZM370.272 68.226L371.28 68.492C371.854 67.918 372.47 67.652 373.45 67.652C375.172 67.652 376.222 68.478 376.222 69.794C376.222 70.942 375.396 71.936 373.66 71.936C372.148 71.936 371.168 71.11 370.79 70.256L369.67 70.732C370.3 72.286 371.882 73.126 373.66 73.126C375.83 73.126 377.454 71.712 377.454 69.752C377.454 67.904 376.138 66.462 373.786 66.462C372.736 66.462 371.98 66.714 371.56 67.022L371.924 64.39H377.006V63.2H370.846L370.272 68.226ZM377.957 64.754L378.405 65.804L380.939 64.642V73H382.115V63.144H381.317L377.957 64.754ZM384.866 66.056C385.202 65.16 386.07 64.264 387.666 64.264C388.968 64.264 389.794 64.782 389.794 65.776C389.794 66.7 388.828 67.4 387.218 67.4H386.35V68.562H387.442C388.898 68.562 390.018 68.94 390.018 70.186C390.018 71.306 389.15 71.936 387.75 71.936C385.972 71.936 385.174 71.026 384.684 70.004L383.55 70.494C384.026 72.048 385.468 73.126 387.666 73.126C389.696 73.126 391.25 72.076 391.25 70.172C391.25 68.604 390.27 67.904 389.304 67.834C390.424 67.512 391.026 66.672 391.026 65.538C391.026 64.026 389.64 63.074 387.722 63.074C385.594 63.074 384.334 64.138 383.816 65.58L384.866 66.056Z" fill="black"/>
<circle cx="501" cy="96" r="5" fill="white" stroke="#648494" stroke-width="2"/>
<path d="M486.425 78H487.601V76.04H489.421V74.85H487.601V68.2H486.565L480.391 75.144V76.04H486.425V78ZM482.071 74.85L486.425 70.16V74.85H482.071ZM490.217 80.016C491.113 79.792 492.009 79.19 492.009 77.664C492.009 76.866 491.589 76.46 490.987 76.46C490.441 76.46 490.133 76.768 490.133 77.258C490.133 77.748 490.469 78.014 490.875 78.014C490.917 78.014 490.973 78.014 491.043 78C491.057 78.056 491.057 78.098 491.057 78.154C491.057 78.714 490.427 79.246 489.923 79.358L490.217 80.016ZM498.614 78H499.79V76.04H501.61V74.85H499.79V68.2H498.754L492.58 75.144V76.04H498.614V78ZM494.26 74.85L498.614 70.16V74.85H494.26ZM502.714 73.226L503.722 73.492C504.296 72.918 504.912 72.652 505.892 72.652C507.614 72.652 508.664 73.478 508.664 74.794C508.664 75.942 507.838 76.936 506.102 76.936C504.59 76.936 503.61 76.11 503.232 75.256L502.112 75.732C502.742 77.286 504.324 78.126 506.102 78.126C508.272 78.126 509.896 76.712 509.896 74.752C509.896 72.904 508.58 71.462 506.228 71.462C505.178 71.462 504.422 71.714 504.002 72.022L504.366 69.39H509.448V68.2H503.288L502.714 73.226ZM516.545 78H517.721V76.04H519.541V74.85H517.721V68.2H516.685L510.511 75.144V76.04H516.545V78ZM512.191 74.85L516.545 70.16V74.85H512.191Z" fill="black"/>
<circle cx="627" cy="88" r="5" fill="white" stroke="#648494" stroke-width="2"/>
<path d="M613.308 70H614.484V68.04H616.304V66.85H614.484V60.2H613.448L607.274 67.144V68.04H613.308V70ZM608.954 66.85L613.308 62.16V66.85H608.954ZM617.1 72.016C617.996 71.792 618.892 71.19 618.892 69.664C618.892 68.866 618.472 68.46 617.87 68.46C617.324 68.46 617.016 68.768 617.016 69.258C617.016 69.748 617.352 70.014 617.758 70.014C617.8 70.014 617.856 70.014 617.926 70C617.94 70.056 617.94 70.098 617.94 70.154C617.94 70.714 617.31 71.246 616.806 71.358L617.1 72.016ZM620.331 65.226L621.339 65.492C621.913 64.918 622.529 64.652 623.509 64.652C625.231 64.652 626.281 65.478 626.281 66.794C626.281 67.942 625.455 68.936 623.719 68.936C622.207 68.936 621.227 68.11 620.849 67.256L619.729 67.732C620.359 69.286 621.941 70.126 623.719 70.126C625.889 70.126 627.513 68.712 627.513 66.752C627.513 64.904 626.197 63.462 623.845 63.462C622.795 63.462 622.039 63.714 621.619 64.022L621.983 61.39H627.065V60.2H620.905L620.331 65.226ZM629.541 63.056C629.877 62.16 630.745 61.264 632.341 61.264C633.643 61.264 634.469 61.782 634.469 62.776C634.469 63.7 633.503 64.4 631.893 64.4H631.025V65.562H632.117C633.573 65.562 634.693 65.94 634.693 67.186C634.693 68.306 633.825 68.936 632.425 68.936C630.647 68.936 629.849 68.026 629.359 67.004L628.225 67.494C628.701 69.048 630.143 70.126 632.341 70.126C634.371 70.126 635.925 69.076 635.925 67.172C635.925 65.604 634.945 64.904 633.979 64.834C635.099 64.512 635.701 63.672 635.701 62.538C635.701 61.026 634.315 60.074 632.397 60.074C630.269 60.074 629.009 61.138 628.491 62.58L629.541 63.056ZM642.662 70H643.838V68.04H645.658V66.85H643.838V60.2H642.802L636.628 67.144V68.04H642.662V70ZM638.308 66.85L642.662 62.16V66.85H638.308Z" fill="black"/>
<circle cx="753" cy="68" r="5" fill="white" stroke="#648494" stroke-width="2"/>
<path d="M739.629 50H740.805V48.04H742.625V46.85H740.805V40.2H739.769L733.595 47.144V48.04H739.629V50ZM735.275 46.85L739.629 42.16V46.85H735.275ZM743.421 52.016C744.317 51.792 745.213 51.19 745.213 49.664C745.213 48.866 744.793 48.46 744.191 48.46C743.645 48.46 743.337 48.768 743.337 49.258C743.337 49.748 743.673 50.014 744.079 50.014C744.121 50.014 744.177 50.014 744.247 50C744.261 50.056 744.261 50.098 744.261 50.154C744.261 50.714 743.631 51.246 743.127 51.358L743.421 52.016ZM745.91 41.39H751.846L747.142 50H748.472L753.344 40.998V40.2H745.91V41.39ZM759.676 50H760.852V48.04H762.672V46.85H760.852V40.2H759.816L753.642 47.144V48.04H759.676V50ZM755.322 46.85L759.676 42.16V46.85H755.322ZM763.776 45.226L764.784 45.492C765.358 44.918 765.974 44.652 766.954 44.652C768.676 44.652 769.726 45.478 769.726 46.794C769.726 47.942 768.9 48.936 767.164 48.936C765.652 48.936 764.672 48.11 764.294 47.256L763.174 47.732C763.804 49.286 765.386 50.126 767.164 50.126C769.334 50.126 770.958 48.712 770.958 46.752C770.958 44.904 769.642 43.462 767.29 43.462C766.24 43.462 765.484 43.714 765.064 44.022L765.428 41.39H770.51V40.2H764.35L763.776 45.226Z" fill="black"/>
<circle cx="879" cy="74" r="5" fill="white" stroke="#648494" stroke-width="2"/>
<path d="M866.648 54.04H860.614V53.144L866.788 46.2H867.824V52.85H869.644V54.04H867.824V56H866.648V54.04ZM866.648 52.85V48.16L862.294 52.85H866.648ZM870.146 57.358C870.267 57.33 870.393 57.2787 870.524 57.204C870.664 57.1293 870.79 57.036 870.902 56.924C871.014 56.812 871.103 56.6907 871.168 56.56C871.243 56.4293 871.28 56.294 871.28 56.154C871.28 56.0887 871.275 56.0373 871.266 56C871.219 56.0093 871.163 56.014 871.098 56.014C870.893 56.014 870.715 55.9487 870.566 55.818C870.426 55.6873 870.356 55.5007 870.356 55.258C870.356 55.0153 870.431 54.824 870.58 54.684C870.729 54.5347 870.939 54.46 871.21 54.46C871.509 54.46 871.751 54.5627 871.938 54.768C872.134 54.964 872.232 55.2627 872.232 55.664C872.232 56.0467 872.181 56.3733 872.078 56.644C871.975 56.9147 871.84 57.1433 871.672 57.33C871.504 57.5167 871.313 57.6613 871.098 57.764C870.883 57.876 870.664 57.96 870.44 58.016L870.146 57.358ZM877.534 56.126C876.881 56.126 876.288 56.0233 875.756 55.818C875.234 55.6127 874.786 55.3093 874.412 54.908C874.039 54.4973 873.75 53.998 873.544 53.41C873.348 52.822 873.25 52.1407 873.25 51.366C873.25 50.4887 873.367 49.7187 873.6 49.056C873.834 48.3933 874.146 47.8427 874.538 47.404C874.94 46.956 875.402 46.6247 875.924 46.41C876.456 46.186 877.016 46.074 877.604 46.074C878.454 46.074 879.177 46.2467 879.774 46.592C880.372 46.9373 880.806 47.404 881.076 47.992L880.124 48.636C879.854 48.216 879.504 47.8847 879.074 47.642C878.654 47.39 878.146 47.264 877.548 47.264C877.082 47.264 876.662 47.3573 876.288 47.544C875.915 47.7213 875.593 47.9827 875.322 48.328C875.052 48.664 874.842 49.0747 874.692 49.56C874.543 50.036 874.464 50.5727 874.454 51.17V51.324C874.585 51.016 874.762 50.7453 874.986 50.512C875.22 50.2787 875.481 50.0827 875.77 49.924C876.06 49.7653 876.368 49.6487 876.694 49.574C877.03 49.49 877.371 49.448 877.716 49.448C878.286 49.448 878.799 49.5273 879.256 49.686C879.714 49.8447 880.101 50.0687 880.418 50.358C880.745 50.6473 880.992 50.9927 881.16 51.394C881.328 51.7953 881.412 52.2387 881.412 52.724C881.412 53.228 881.31 53.69 881.104 54.11C880.908 54.53 880.633 54.8893 880.278 55.188C879.933 55.4867 879.522 55.72 879.046 55.888C878.58 56.0467 878.076 56.126 877.534 56.126ZM877.52 54.936C877.912 54.936 878.267 54.8847 878.584 54.782C878.911 54.6793 879.191 54.5347 879.424 54.348C879.667 54.152 879.854 53.9233 879.984 53.662C880.115 53.4007 880.18 53.1067 880.18 52.78C880.18 52.4253 880.115 52.1173 879.984 51.856C879.863 51.5853 879.69 51.3613 879.466 51.184C879.242 50.9973 878.972 50.862 878.654 50.778C878.346 50.6847 878.01 50.638 877.646 50.638C876.75 50.638 876.069 50.8293 875.602 51.212C875.145 51.5947 874.916 52.0847 874.916 52.682C874.916 52.99 874.977 53.2793 875.098 53.55C875.22 53.8207 875.392 54.0587 875.616 54.264C875.84 54.4693 876.111 54.6327 876.428 54.754C876.755 54.8753 877.119 54.936 877.52 54.936ZM886.719 50.414C887.036 50.414 887.33 50.3767 887.601 50.302C887.881 50.218 888.124 50.106 888.329 49.966C888.534 49.826 888.693 49.658 888.805 49.462C888.926 49.266 888.987 49.0513 888.987 48.818C888.987 48.314 888.777 47.9313 888.357 47.67C887.946 47.3993 887.316 47.264 886.467 47.264C885.646 47.264 885.025 47.3993 884.605 47.67C884.194 47.9407 883.989 48.3233 883.989 48.818C883.989 49.042 884.045 49.252 884.157 49.448C884.269 49.644 884.423 49.8167 884.619 49.966C884.824 50.106 885.067 50.218 885.347 50.302C885.636 50.3767 885.949 50.414 886.285 50.414H886.719ZM886.341 51.52C885.949 51.52 885.585 51.5667 885.249 51.66C884.922 51.744 884.642 51.8653 884.409 52.024C884.176 52.1733 883.994 52.3553 883.863 52.57C883.732 52.7753 883.667 52.9947 883.667 53.228C883.667 53.732 883.9 54.1427 884.367 54.46C884.843 54.7773 885.548 54.936 886.481 54.936C887.442 54.936 888.152 54.7867 888.609 54.488C889.066 54.18 889.295 53.7647 889.295 53.242C889.295 52.6913 889.057 52.2667 888.581 51.968C888.114 51.6693 887.484 51.52 886.691 51.52H886.341ZM886.495 56.126C885.87 56.126 885.305 56.0653 884.801 55.944C884.306 55.8133 883.882 55.6313 883.527 55.398C883.182 55.1553 882.911 54.866 882.715 54.53C882.528 54.1847 882.435 53.7927 882.435 53.354C882.435 52.7753 882.608 52.276 882.953 51.856C883.308 51.4267 883.779 51.1187 884.367 50.932C884.087 50.8387 883.844 50.7173 883.639 50.568C883.434 50.4093 883.266 50.232 883.135 50.036C883.004 49.84 882.906 49.6347 882.841 49.42C882.785 49.196 882.757 48.9673 882.757 48.734C882.757 47.922 883.074 47.278 883.709 46.802C884.353 46.3167 885.277 46.074 886.481 46.074C887.694 46.074 888.618 46.3167 889.253 46.802C889.897 47.278 890.219 47.922 890.219 48.734C890.219 49.238 890.079 49.6627 889.799 50.008C889.528 50.3533 889.15 50.638 888.665 50.862C889.337 51.0673 889.813 51.3753 890.093 51.786C890.382 52.1967 890.527 52.7007 890.527 53.298C890.527 53.746 890.434 54.1473 890.247 54.502C890.06 54.8473 889.79 55.1413 889.435 55.384C889.09 55.6267 888.665 55.8133 888.161 55.944C887.666 56.0653 887.111 56.126 886.495 56.126ZM894.419 46.144H895.217V56H894.041V47.642L891.507 48.804L891.059 47.754L894.419 46.144Z" fill="black"/>
<circle cx="1005" cy="33" r="5" fill="white" stroke="#648494" stroke-width="2"/>
<path d="M986.291 10.226L987.299 10.492C987.873 9.918 988.489 9.652 989.469 9.652C991.191 9.652 992.241 10.478 992.241 11.794C992.241 12.942 991.415 13.936 989.679 13.936C988.167 13.936 987.187 13.11 986.809 12.256L985.689 12.732C986.319 14.286 987.901 15.126 989.679 15.126C991.849 15.126 993.473 13.712 993.473 11.752C993.473 9.904 992.157 8.462 989.805 8.462C988.755 8.462 987.999 8.714 987.579 9.022L987.943 6.39H993.025V5.2H986.865L986.291 10.226ZM994.648 17.016C995.544 16.792 996.44 16.19 996.44 14.664C996.44 13.866 996.02 13.46 995.418 13.46C994.872 13.46 994.564 13.768 994.564 14.258C994.564 14.748 994.9 15.014 995.306 15.014C995.348 15.014 995.404 15.014 995.474 15C995.488 15.056 995.488 15.098 995.488 15.154C995.488 15.714 994.858 16.246 994.354 16.358L994.648 17.016ZM998.424 8.056C998.76 7.16 999.628 6.264 1001.22 6.264C1002.53 6.264 1003.35 6.782 1003.35 7.776C1003.35 8.7 1002.39 9.4 1000.78 9.4H999.908V10.562H1001C1002.46 10.562 1003.58 10.94 1003.58 12.186C1003.58 13.306 1002.71 13.936 1001.31 13.936C999.53 13.936 998.732 13.026 998.242 12.004L997.108 12.494C997.584 14.048 999.026 15.126 1001.22 15.126C1003.25 15.126 1004.81 14.076 1004.81 12.172C1004.81 10.604 1003.83 9.904 1002.86 9.834C1003.98 9.512 1004.58 8.672 1004.58 7.538C1004.58 6.026 1003.2 5.074 1001.28 5.074C999.152 5.074 997.892 6.138 997.374 7.58L998.424 8.056ZM1005.96 10.1C1005.96 12.998 1007.44 15.126 1010.15 15.126C1013 15.126 1014.29 12.998 1014.29 10.1C1014.29 7.02 1012.96 5.074 1010.12 5.074C1007.29 5.074 1005.96 7.202 1005.96 10.1ZM1007.19 10.1C1007.19 7.748 1008.12 6.264 1010.12 6.264C1012.13 6.264 1013.06 7.706 1013.06 10.1C1013.06 12.48 1012.16 13.936 1010.15 13.936C1008.31 13.936 1007.19 12.48 1007.19 10.1ZM1015.01 6.39H1020.95L1016.24 15H1017.57L1022.45 5.998V5.2H1015.01V6.39Z" fill="black"/>
<path d="M91 365V375H530V365" stroke="#B4BBC5"/>
<path d="M295.818 389.07C295.902 388.669 296.042 388.286 296.238 387.922C296.434 387.558 296.686 387.241 296.994 386.97C297.302 386.69 297.671 386.471 298.1 386.312C298.53 386.153 299.02 386.074 299.57 386.074C300.084 386.074 300.541 386.149 300.942 386.298C301.344 386.438 301.684 386.639 301.964 386.9C302.244 387.161 302.454 387.474 302.594 387.838C302.744 388.202 302.818 388.599 302.818 389.028C302.818 389.635 302.688 390.195 302.426 390.708C302.174 391.212 301.852 391.674 301.46 392.094C301.068 392.514 300.639 392.897 300.172 393.242C299.706 393.578 299.262 393.877 298.842 394.138L297.764 394.81H303.182V396H295.552V395.02L297.68 393.606C298.38 393.139 298.978 392.71 299.472 392.318C299.967 391.917 300.368 391.539 300.676 391.184C300.994 390.829 301.222 390.489 301.362 390.162C301.512 389.826 301.586 389.49 301.586 389.154C301.586 388.809 301.53 388.515 301.418 388.272C301.316 388.029 301.166 387.833 300.97 387.684C300.784 387.535 300.56 387.427 300.298 387.362C300.046 387.297 299.776 387.264 299.486 387.264C299.066 387.264 298.702 387.329 298.394 387.46C298.096 387.591 297.839 387.763 297.624 387.978C297.419 388.183 297.256 388.417 297.134 388.678C297.022 388.93 296.948 389.182 296.91 389.434L295.818 389.07ZM304.152 391.1C304.152 390.372 304.236 389.705 304.404 389.098C304.572 388.482 304.824 387.95 305.16 387.502C305.506 387.054 305.94 386.704 306.462 386.452C306.985 386.2 307.601 386.074 308.31 386.074C309.02 386.074 309.636 386.191 310.158 386.424C310.681 386.657 311.115 386.993 311.46 387.432C311.806 387.871 312.062 388.403 312.23 389.028C312.398 389.644 312.482 390.335 312.482 391.1C312.482 391.828 312.398 392.5 312.23 393.116C312.072 393.723 311.82 394.25 311.474 394.698C311.138 395.146 310.709 395.496 310.186 395.748C309.664 396 309.048 396.126 308.338 396.126C307.666 396.126 307.069 396 306.546 395.748C306.024 395.496 305.585 395.146 305.23 394.698C304.876 394.25 304.605 393.723 304.418 393.116C304.241 392.5 304.152 391.828 304.152 391.1ZM305.384 391.1C305.384 392.295 305.646 393.233 306.168 393.914C306.691 394.595 307.414 394.936 308.338 394.936C309.346 394.936 310.084 394.595 310.55 393.914C311.017 393.233 311.25 392.295 311.25 391.1C311.25 389.905 311.012 388.967 310.536 388.286C310.06 387.605 309.318 387.264 308.31 387.264C307.806 387.264 307.372 387.353 307.008 387.53C306.644 387.707 306.341 387.964 306.098 388.3C305.856 388.636 305.674 389.042 305.552 389.518C305.44 389.985 305.384 390.512 305.384 391.1ZM313.626 389.07C313.71 388.669 313.85 388.286 314.046 387.922C314.242 387.558 314.494 387.241 314.802 386.97C315.11 386.69 315.479 386.471 315.908 386.312C316.337 386.153 316.827 386.074 317.378 386.074C317.891 386.074 318.349 386.149 318.75 386.298C319.151 386.438 319.492 386.639 319.772 386.9C320.052 387.161 320.262 387.474 320.402 387.838C320.551 388.202 320.626 388.599 320.626 389.028C320.626 389.635 320.495 390.195 320.234 390.708C319.982 391.212 319.66 391.674 319.268 392.094C318.876 392.514 318.447 392.897 317.98 393.242C317.513 393.578 317.07 393.877 316.65 394.138L315.572 394.81H320.99V396H313.36V395.02L315.488 393.606C316.188 393.139 316.785 392.71 317.28 392.318C317.775 391.917 318.176 391.539 318.484 391.184C318.801 390.829 319.03 390.489 319.17 390.162C319.319 389.826 319.394 389.49 319.394 389.154C319.394 388.809 319.338 388.515 319.226 388.272C319.123 388.029 318.974 387.833 318.778 387.684C318.591 387.535 318.367 387.427 318.106 387.362C317.854 387.297 317.583 387.264 317.294 387.264C316.874 387.264 316.51 387.329 316.202 387.46C315.903 387.591 315.647 387.763 315.432 387.978C315.227 388.183 315.063 388.417 314.942 388.678C314.83 388.93 314.755 389.182 314.718 389.434L313.626 389.07ZM324.76 386.144H325.558V396H324.382V387.642L321.848 388.804L321.4 387.754L324.76 386.144Z" fill="#222429"/>
<path d="M596 365V375H1034V365" stroke="#B4BBC5"/>
<path d="M797.794 389.07C797.878 388.669 798.018 388.286 798.214 387.922C798.41 387.558 798.662 387.241 798.97 386.97C799.278 386.69 799.646 386.471 800.076 386.312C800.505 386.153 800.995 386.074 801.546 386.074C802.059 386.074 802.516 386.149 802.918 386.298C803.319 386.438 803.66 386.639 803.94 386.9C804.22 387.161 804.43 387.474 804.57 387.838C804.719 388.202 804.794 388.599 804.794 389.028C804.794 389.635 804.663 390.195 804.402 390.708C804.15 391.212 803.828 391.674 803.436 392.094C803.044 392.514 802.614 392.897 802.148 393.242C801.681 393.578 801.238 393.877 800.818 394.138L799.74 394.81H805.158V396H797.528V395.02L799.656 393.606C800.356 393.139 800.953 392.71 801.448 392.318C801.942 391.917 802.344 391.539 802.652 391.184C802.969 390.829 803.198 390.489 803.338 390.162C803.487 389.826 803.562 389.49 803.562 389.154C803.562 388.809 803.506 388.515 803.394 388.272C803.291 388.029 803.142 387.833 802.946 387.684C802.759 387.535 802.535 387.427 802.274 387.362C802.022 387.297 801.751 387.264 801.462 387.264C801.042 387.264 800.678 387.329 800.37 387.46C800.071 387.591 799.814 387.763 799.6 387.978C799.394 388.183 799.231 388.417 799.11 388.678C798.998 388.93 798.923 389.182 798.886 389.434L797.794 389.07ZM806.128 391.1C806.128 390.372 806.212 389.705 806.38 389.098C806.548 388.482 806.8 387.95 807.136 387.502C807.481 387.054 807.915 386.704 808.438 386.452C808.961 386.2 809.577 386.074 810.286 386.074C810.995 386.074 811.611 386.191 812.134 386.424C812.657 386.657 813.091 386.993 813.436 387.432C813.781 387.871 814.038 388.403 814.206 389.028C814.374 389.644 814.458 390.335 814.458 391.1C814.458 391.828 814.374 392.5 814.206 393.116C814.047 393.723 813.795 394.25 813.45 394.698C813.114 395.146 812.685 395.496 812.162 395.748C811.639 396 811.023 396.126 810.314 396.126C809.642 396.126 809.045 396 808.522 395.748C807.999 395.496 807.561 395.146 807.206 394.698C806.851 394.25 806.581 393.723 806.394 393.116C806.217 392.5 806.128 391.828 806.128 391.1ZM807.36 391.1C807.36 392.295 807.621 393.233 808.144 393.914C808.667 394.595 809.39 394.936 810.314 394.936C811.322 394.936 812.059 394.595 812.526 393.914C812.993 393.233 813.226 392.295 813.226 391.1C813.226 389.905 812.988 388.967 812.512 388.286C812.036 387.605 811.294 387.264 810.286 387.264C809.782 387.264 809.348 387.353 808.984 387.53C808.62 387.707 808.317 387.964 808.074 388.3C807.831 388.636 807.649 389.042 807.528 389.518C807.416 389.985 807.36 390.512 807.36 391.1ZM815.602 389.07C815.686 388.669 815.826 388.286 816.022 387.922C816.218 387.558 816.47 387.241 816.778 386.97C817.086 386.69 817.454 386.471 817.884 386.312C818.313 386.153 818.803 386.074 819.354 386.074C819.867 386.074 820.324 386.149 820.726 386.298C821.127 386.438 821.468 386.639 821.748 386.9C822.028 387.161 822.238 387.474 822.378 387.838C822.527 388.202 822.602 388.599 822.602 389.028C822.602 389.635 822.471 390.195 822.21 390.708C821.958 391.212 821.636 391.674 821.244 392.094C820.852 392.514 820.422 392.897 819.956 393.242C819.489 393.578 819.046 393.877 818.626 394.138L817.548 394.81H822.966V396H815.336V395.02L817.464 393.606C818.164 393.139 818.761 392.71 819.256 392.318C819.75 391.917 820.152 391.539 820.46 391.184C820.777 390.829 821.006 390.489 821.146 390.162C821.295 389.826 821.37 389.49 821.37 389.154C821.37 388.809 821.314 388.515 821.202 388.272C821.099 388.029 820.95 387.833 820.754 387.684C820.567 387.535 820.343 387.427 820.082 387.362C819.83 387.297 819.559 387.264 819.27 387.264C818.85 387.264 818.486 387.329 818.178 387.46C817.879 387.591 817.622 387.763 817.408 387.978C817.202 388.183 817.039 388.417 816.918 388.678C816.806 388.93 816.731 389.182 816.694 389.434L815.602 389.07ZM824.034 389.07C824.118 388.669 824.258 388.286 824.454 387.922C824.65 387.558 824.902 387.241 825.21 386.97C825.518 386.69 825.887 386.471 826.316 386.312C826.745 386.153 827.235 386.074 827.786 386.074C828.299 386.074 828.757 386.149 829.158 386.298C829.559 386.438 829.9 386.639 830.18 386.9C830.46 387.161 830.67 387.474 830.81 387.838C830.959 388.202 831.034 388.599 831.034 389.028C831.034 389.635 830.903 390.195 830.642 390.708C830.39 391.212 830.068 391.674 829.676 392.094C829.284 392.514 828.855 392.897 828.388 393.242C827.921 393.578 827.478 393.877 827.058 394.138L825.98 394.81H831.398V396H823.768V395.02L825.896 393.606C826.596 393.139 827.193 392.71 827.688 392.318C828.183 391.917 828.584 391.539 828.892 391.184C829.209 390.829 829.438 390.489 829.578 390.162C829.727 389.826 829.802 389.49 829.802 389.154C829.802 388.809 829.746 388.515 829.634 388.272C829.531 388.029 829.382 387.833 829.186 387.684C828.999 387.535 828.775 387.427 828.514 387.362C828.262 387.297 827.991 387.264 827.702 387.264C827.282 387.264 826.918 387.329 826.61 387.46C826.311 387.591 826.055 387.763 825.84 387.978C825.635 388.183 825.471 388.417 825.35 388.678C825.238 388.93 825.163 389.182 825.126 389.434L824.034 389.07Z" fill="#222429"/>
</svg>
