<svg viewBox="0 0 624 488" fill="none" xmlns="http://www.w3.org/2000/svg">
<path d="M298.57 71.4689C393.83 70.1454 472.127 146.296 473.45 241.556C474.774 336.816 398.623 415.112 303.363 416.436C208.103 417.759 129.807 341.609 128.483 246.349C127.16 151.089 203.31 72.7924 298.57 71.4689ZM302.45 350.719C361.416 349.9 408.553 301.435 407.734 242.469C406.915 183.503 358.449 136.366 299.483 137.185C240.518 138.004 193.38 186.47 194.2 245.436C195.019 304.402 243.484 351.539 302.45 350.719Z" fill="#EBF2F8"/>
<path fill-rule="evenodd" clip-rule="evenodd" d="M169.508 245.652C169.518 246.314 168.988 246.859 168.326 246.869C167.663 246.878 167.118 246.349 167.109 245.686L167.107 245.584C167.098 244.922 167.628 244.377 168.291 244.368C168.954 244.359 169.498 244.889 169.507 245.552L169.508 245.652ZM168.458 250.492C169.12 250.453 169.688 250.957 169.727 251.619L169.733 251.718C169.772 252.379 169.268 252.948 168.606 252.987C167.945 253.027 167.377 252.523 167.337 251.861L167.331 251.761C167.292 251.099 167.797 250.531 168.458 250.492ZM168.323 240.743C167.66 240.722 167.14 240.168 167.161 239.506L167.164 239.405C167.185 238.743 167.739 238.223 168.402 238.244C169.064 238.265 169.584 238.819 169.563 239.482L169.56 239.581C169.539 240.243 168.985 240.763 168.323 240.743ZM168.904 256.599C169.563 256.53 170.154 257.008 170.223 257.667L170.233 257.766C170.303 258.425 169.826 259.016 169.167 259.086C168.508 259.156 167.917 258.678 167.847 258.019L167.836 257.918C167.767 257.259 168.245 256.669 168.904 256.599ZM168.599 234.625C167.938 234.574 167.444 233.997 167.495 233.336L167.503 233.236C167.554 232.575 168.131 232.081 168.792 232.133C169.453 232.184 169.947 232.761 169.895 233.422L169.888 233.521C169.837 234.182 169.26 234.676 168.599 234.625ZM169.63 262.679C170.285 262.579 170.897 263.03 170.997 263.685L171.012 263.783C171.112 264.438 170.662 265.051 170.007 265.151C169.351 265.251 168.739 264.801 168.639 264.146L168.624 264.046C168.524 263.391 168.975 262.779 169.63 262.679ZM169.155 228.528C168.498 228.446 168.03 227.847 168.112 227.189L168.124 227.089C168.206 226.431 168.806 225.965 169.463 226.047C170.121 226.128 170.588 226.728 170.506 227.386L170.494 227.484C170.412 228.142 169.813 228.609 169.155 228.528ZM170.635 268.718C171.285 268.588 171.917 269.01 172.047 269.66L172.067 269.757C172.197 270.407 171.776 271.039 171.126 271.17C170.476 271.3 169.844 270.879 169.714 270.229L169.694 270.13C169.564 269.48 169.985 268.848 170.635 268.718ZM169.993 222.463C169.339 222.351 168.9 221.731 169.012 221.078L169.029 220.978C169.142 220.325 169.762 219.887 170.415 219.999C171.068 220.111 171.507 220.732 171.395 221.385L171.378 221.483C171.266 222.136 170.646 222.575 169.993 222.463ZM171.919 274.703C172.563 274.544 173.214 274.935 173.374 275.578L173.398 275.675C173.558 276.318 173.167 276.969 172.524 277.13C171.881 277.29 171.229 276.899 171.069 276.256L171.044 276.158C170.885 275.514 171.276 274.863 171.919 274.703ZM171.11 216.444C170.463 216.302 170.053 215.663 170.195 215.015L170.217 214.916C170.359 214.269 170.999 213.86 171.647 214.002C172.294 214.145 172.703 214.785 172.561 215.432L172.539 215.529C172.397 216.177 171.757 216.586 171.11 216.444ZM173.48 280.622C174.115 280.433 174.784 280.794 174.974 281.429L175.002 281.524C175.192 282.159 174.832 282.828 174.197 283.018C173.562 283.208 172.893 282.848 172.703 282.213L172.674 282.116C172.484 281.481 172.845 280.812 173.48 280.622ZM172.506 210.484C171.866 210.312 171.486 209.654 171.658 209.014L171.685 208.916C171.857 208.276 172.516 207.897 173.156 208.07C173.796 208.242 174.174 208.901 174.002 209.541L173.976 209.637C173.804 210.277 173.146 210.656 172.506 210.484ZM175.315 286.462C175.941 286.243 176.625 286.573 176.844 287.198L176.877 287.292C177.097 287.918 176.768 288.602 176.142 288.822C175.517 289.041 174.832 288.712 174.613 288.087L174.579 287.991C174.36 287.366 174.69 286.681 175.315 286.462ZM174.178 204.596C173.546 204.394 173.198 203.719 173.4 203.088L173.43 202.991C173.632 202.36 174.308 202.012 174.939 202.214C175.57 202.416 175.918 203.092 175.716 203.723L175.686 203.818C175.484 204.449 174.809 204.797 174.178 204.596ZM177.42 292.21C178.034 291.963 178.733 292.26 178.981 292.875L179.019 292.967C179.267 293.581 178.97 294.281 178.356 294.529C177.741 294.777 177.042 294.481 176.794 293.866L176.756 293.772C176.508 293.158 176.805 292.458 177.42 292.21ZM176.122 198.791C175.5 198.561 175.184 197.87 175.415 197.249L175.45 197.154C175.681 196.533 176.372 196.216 176.993 196.448C177.614 196.679 177.93 197.37 177.699 197.991L177.664 198.084C177.434 198.705 176.743 199.022 176.122 198.791ZM179.789 297.855C180.392 297.578 181.104 297.843 181.38 298.445L181.422 298.536C181.698 299.138 181.434 299.85 180.832 300.127C180.23 300.404 179.518 300.14 179.241 299.538L179.199 299.445C178.922 298.843 179.187 298.131 179.789 297.855ZM178.334 193.084C177.724 192.824 177.44 192.12 177.699 191.51L177.739 191.417C177.998 190.807 178.703 190.523 179.313 190.783C179.923 191.043 180.206 191.748 179.947 192.357L179.908 192.449C179.648 193.059 178.944 193.343 178.334 193.084ZM182.419 303.382C183.008 303.079 183.731 303.31 184.035 303.899L184.081 303.987C184.385 304.576 184.155 305.3 183.566 305.604C182.977 305.908 182.253 305.678 181.949 305.089L181.902 304.999C181.599 304.41 181.83 303.686 182.419 303.382ZM180.808 187.485C180.211 187.197 179.96 186.48 180.247 185.883L180.291 185.792C180.579 185.195 181.297 184.944 181.894 185.232C182.491 185.52 182.741 186.237 182.453 186.834L182.41 186.924C182.123 187.521 181.406 187.772 180.808 187.485ZM185.302 308.783C185.876 308.452 186.61 308.649 186.94 309.223L186.99 309.31C187.321 309.884 187.125 310.617 186.551 310.949C185.977 311.28 185.243 311.083 184.911 310.509L184.861 310.421C184.53 309.847 184.727 309.113 185.302 308.783ZM183.54 182.007C182.957 181.692 182.739 180.964 183.054 180.381L183.102 180.292C183.417 179.709 184.146 179.491 184.729 179.807C185.312 180.122 185.529 180.85 185.213 181.433L185.166 181.521C184.851 182.104 184.124 182.321 183.54 182.007ZM188.431 314.043C188.99 313.686 189.732 313.85 190.089 314.408L190.143 314.492C190.5 315.05 190.337 315.792 189.779 316.15C189.221 316.507 188.479 316.344 188.121 315.786L188.067 315.701C187.71 315.143 187.873 314.4 188.431 314.043ZM186.523 176.661C185.955 176.32 185.771 175.582 186.112 175.014L186.164 174.927C186.506 174.36 187.244 174.176 187.811 174.518C188.379 174.86 188.562 175.597 188.221 176.165L188.169 176.25C187.828 176.818 187.091 177.002 186.523 176.661ZM191.801 319.154C192.342 318.772 193.091 318.901 193.474 319.442L193.531 319.523C193.914 320.064 193.785 320.813 193.244 321.196C192.703 321.579 191.955 321.451 191.572 320.91L191.513 320.827C191.131 320.285 191.26 319.537 191.801 319.154ZM189.749 171.458C189.197 171.091 189.048 170.346 189.415 169.795L189.471 169.71C189.839 169.159 190.584 169.01 191.135 169.377C191.687 169.745 191.836 170.49 191.468 171.041L191.413 171.124C191.046 171.676 190.301 171.826 189.749 171.458ZM195.403 324.104C195.926 323.698 196.68 323.792 197.087 324.315L197.148 324.393C197.555 324.916 197.461 325.67 196.939 326.078C196.416 326.485 195.662 326.391 195.254 325.868L195.192 325.788C194.785 325.265 194.88 324.511 195.403 324.104ZM193.212 166.41C192.678 166.018 192.562 165.267 192.955 164.733L193.015 164.651C193.407 164.117 194.158 164.003 194.692 164.395C195.226 164.788 195.341 165.539 194.948 166.073L194.889 166.153C194.497 166.687 193.746 166.802 193.212 166.41ZM199.228 328.884C199.732 328.453 200.49 328.513 200.92 329.016L200.985 329.092C201.416 329.596 201.357 330.353 200.853 330.784C200.35 331.215 199.592 331.156 199.161 330.652L199.096 330.575C198.665 330.072 198.725 329.314 199.228 328.884ZM196.903 161.526C196.388 161.11 196.307 160.355 196.723 159.839L196.787 159.76C197.204 159.245 197.959 159.165 198.475 159.582C198.99 159.998 199.07 160.754 198.653 161.269L198.591 161.347C198.174 161.862 197.419 161.943 196.903 161.526ZM203.27 333.482C203.753 333.029 204.513 333.053 204.966 333.537L205.034 333.61C205.488 334.093 205.464 334.852 204.98 335.306C204.497 335.759 203.738 335.735 203.284 335.252L203.215 335.178C202.762 334.695 202.786 333.935 203.27 333.482ZM200.815 156.818C200.319 156.378 200.274 155.62 200.713 155.124L200.78 155.048C201.22 154.552 201.979 154.507 202.474 154.947C202.97 155.387 203.015 156.145 202.575 156.641L202.509 156.716C202.07 157.211 201.311 157.257 200.815 156.818ZM207.518 337.89C207.98 337.415 208.74 337.405 209.215 337.867L209.286 337.936C209.762 338.398 209.772 339.158 209.311 339.633C208.849 340.109 208.089 340.119 207.614 339.658L207.541 339.587C207.066 339.125 207.056 338.365 207.518 337.89ZM204.94 152.293C204.464 151.831 204.453 151.072 204.915 150.596L204.986 150.524C205.448 150.049 206.208 150.039 206.683 150.501C207.158 150.963 207.168 151.723 206.706 152.198L206.636 152.269C206.175 152.744 205.415 152.755 204.94 152.293ZM211.964 342.098C212.404 341.603 213.163 341.558 213.658 341.998L213.733 342.064C214.229 342.503 214.274 343.262 213.835 343.758C213.395 344.253 212.637 344.299 212.141 343.86L212.065 343.792C211.569 343.352 211.524 342.594 211.964 342.098ZM209.267 147.963C208.814 147.48 208.838 146.72 209.321 146.267L209.395 146.198C209.878 145.744 210.638 145.769 211.091 146.253C211.544 146.736 211.519 147.496 211.036 147.949L210.963 148.017C210.48 148.47 209.721 148.446 209.267 147.963ZM216.599 346.098C217.016 345.583 217.771 345.503 218.287 345.92L218.364 345.982C218.88 346.398 218.96 347.154 218.544 347.67C218.127 348.185 217.372 348.266 216.856 347.849L216.777 347.786C216.262 347.369 216.182 346.613 216.599 346.098ZM213.789 143.836C213.358 143.333 213.417 142.575 213.92 142.144L213.997 142.078C214.501 141.648 215.259 141.707 215.689 142.211C216.12 142.715 216.06 143.473 215.556 143.903L215.481 143.968C214.977 144.399 214.22 144.34 213.789 143.836ZM221.412 349.881C221.805 349.347 222.556 349.232 223.09 349.625L223.17 349.684C223.704 350.076 223.82 350.827 223.427 351.361C223.035 351.895 222.284 352.01 221.75 351.618L221.668 351.558C221.134 351.166 221.02 350.415 221.412 349.881ZM218.495 139.921C218.088 139.399 218.182 138.645 218.704 138.237L218.784 138.175C219.308 137.768 220.061 137.862 220.468 138.385C220.875 138.909 220.781 139.663 220.258 140.069L220.179 140.131C219.657 140.538 218.903 140.444 218.495 139.921ZM226.395 353.438C226.762 352.886 227.507 352.737 228.059 353.105L228.142 353.16C228.693 353.527 228.843 354.272 228.476 354.824C228.108 355.375 227.364 355.525 226.812 355.158L226.727 355.102C226.176 354.734 226.027 353.989 226.395 353.438ZM223.377 136.227C222.994 135.686 223.122 134.937 223.663 134.555L223.746 134.496C224.287 134.114 225.036 134.243 225.419 134.784C225.801 135.325 225.672 136.074 225.131 136.456L225.049 136.514C224.508 136.897 223.76 136.768 223.377 136.227ZM231.535 356.761C231.877 356.194 232.614 356.01 233.182 356.352L233.268 356.403C233.836 356.745 234.019 357.482 233.678 358.05C233.337 358.618 232.6 358.802 232.031 358.461L231.945 358.408C231.377 358.067 231.194 357.329 231.535 356.761ZM228.423 132.762C228.066 132.204 228.228 131.462 228.787 131.104L228.872 131.05C229.43 130.693 230.172 130.856 230.529 131.414C230.886 131.973 230.723 132.715 230.165 133.072L230.081 133.125C229.523 133.483 228.781 133.32 228.423 132.762ZM236.824 359.844C237.139 359.261 237.867 359.044 238.45 359.359L238.538 359.407C239.121 359.721 239.339 360.449 239.024 361.033C238.709 361.616 237.981 361.833 237.398 361.519L237.309 361.471C236.726 361.155 236.509 360.427 236.824 359.844ZM233.624 129.533C233.293 128.959 233.49 128.225 234.064 127.894L234.151 127.844C234.726 127.513 235.459 127.71 235.79 128.284C236.121 128.859 235.924 129.592 235.349 129.923L235.263 129.973C234.689 130.304 233.955 130.107 233.624 129.533ZM242.249 362.679C242.537 362.082 243.254 361.832 243.851 362.12L243.941 362.163C244.538 362.45 244.789 363.167 244.502 363.764C244.215 364.362 243.498 364.613 242.9 364.325L242.809 364.281C242.212 363.994 241.962 363.276 242.249 362.679ZM238.969 126.549C238.664 125.96 238.895 125.236 239.484 124.932L239.574 124.885C240.163 124.581 240.887 124.812 241.19 125.401C241.494 125.99 241.263 126.714 240.674 127.018L240.586 127.064C239.997 127.368 239.273 127.137 238.969 126.549ZM247.8 365.26C248.06 364.65 248.765 364.366 249.375 364.626L249.466 364.665C250.076 364.925 250.36 365.629 250.101 366.239C249.842 366.849 249.137 367.133 248.527 366.874L248.434 366.834C247.824 366.574 247.54 365.869 247.8 365.26ZM244.446 123.815C244.169 123.213 244.433 122.5 245.035 122.224L245.127 122.181C245.73 121.905 246.442 122.17 246.718 122.772C246.994 123.375 246.73 124.087 246.128 124.363L246.037 124.405C245.435 124.681 244.722 124.417 244.446 123.815ZM253.465 367.58C253.696 366.959 254.387 366.643 255.008 366.874L255.101 366.908C255.723 367.139 256.039 367.83 255.809 368.451C255.578 369.072 254.887 369.389 254.266 369.158L254.171 369.123C253.55 368.892 253.234 368.201 253.465 367.58ZM250.044 121.339C249.795 120.724 250.092 120.025 250.707 119.776L250.801 119.738C251.415 119.49 252.114 119.788 252.362 120.402C252.61 121.017 252.313 121.716 251.698 121.964L251.606 122.001C250.992 122.25 250.292 121.953 250.044 121.339ZM259.231 369.634C259.433 369.003 260.109 368.655 260.74 368.857L260.835 368.887C261.466 369.089 261.815 369.764 261.613 370.395C261.411 371.026 260.736 371.375 260.105 371.173L260.008 371.142C259.377 370.94 259.029 370.265 259.231 369.634ZM255.751 119.125C255.531 118.5 255.86 117.815 256.486 117.595L256.581 117.562C257.207 117.343 257.891 117.672 258.11 118.298C258.33 118.923 258 119.608 257.374 119.827L257.281 119.86C256.655 120.079 255.97 119.75 255.751 119.125ZM265.087 371.417C265.26 370.777 265.918 370.398 266.558 370.571L266.654 370.597C267.294 370.769 267.674 371.427 267.502 372.067C267.33 372.707 266.671 373.086 266.031 372.914L265.934 372.888C265.294 372.716 264.915 372.057 265.087 371.417ZM261.555 117.18C261.365 116.545 261.725 115.876 262.36 115.686L262.457 115.657C263.092 115.467 263.761 115.828 263.95 116.463C264.14 117.098 263.779 117.767 263.144 117.956L263.049 117.985C262.414 118.175 261.745 117.815 261.555 117.18ZM271.02 372.926C271.162 372.279 271.802 371.87 272.45 372.012L272.547 372.034C273.194 372.176 273.604 372.815 273.462 373.463C273.32 374.11 272.68 374.52 272.032 374.378L271.934 374.356C271.286 374.214 270.877 373.573 271.02 372.926ZM267.443 115.506C267.283 114.863 267.674 114.212 268.317 114.052L268.415 114.027C269.058 113.867 269.709 114.259 269.869 114.902C270.029 115.545 269.638 116.196 268.994 116.356L268.898 116.38C268.255 116.541 267.604 116.15 267.443 115.506ZM277.016 374.158C277.128 373.504 277.749 373.066 278.402 373.178L278.5 373.195C279.153 373.307 279.592 373.927 279.48 374.58C279.369 375.233 278.749 375.672 278.095 375.561L277.996 375.544C277.342 375.431 276.904 374.811 277.016 374.158ZM273.403 114.109C273.273 113.459 273.694 112.827 274.344 112.696L274.443 112.676C275.093 112.547 275.725 112.968 275.855 113.618C275.985 114.268 275.563 114.9 274.913 115.03L274.816 115.049C274.166 115.18 273.534 114.759 273.403 114.109ZM283.064 375.109C283.146 374.452 283.745 373.985 284.403 374.067L284.501 374.079C285.159 374.161 285.626 374.76 285.545 375.417C285.464 376.075 284.864 376.542 284.207 376.461L284.106 376.449C283.449 376.367 282.982 375.767 283.064 375.109ZM279.422 112.989C279.322 112.334 279.772 111.722 280.427 111.622L280.527 111.607C281.182 111.507 281.794 111.957 281.894 112.613C281.993 113.268 281.543 113.88 280.888 113.979L280.79 113.994C280.135 114.094 279.522 113.645 279.422 112.989ZM289.15 375.781C289.201 375.12 289.779 374.626 290.439 374.678L290.538 374.685C291.199 374.736 291.693 375.313 291.642 375.974C291.591 376.635 291.014 377.129 290.354 377.078L290.253 377.07C289.592 377.019 289.098 376.441 289.15 375.781ZM285.487 112.149C285.417 111.49 285.895 110.899 286.554 110.83L286.654 110.819C287.313 110.75 287.904 111.228 287.973 111.887C288.043 112.546 287.565 113.137 286.905 113.206L286.807 113.216C286.148 113.286 285.557 112.808 285.487 112.149ZM295.261 376.171C295.283 375.509 295.837 374.989 296.499 375.01L296.598 375.013C297.26 375.034 297.781 375.588 297.76 376.25C297.739 376.912 297.186 377.433 296.523 377.412L296.422 377.409C295.76 377.388 295.24 376.834 295.261 376.171ZM291.585 111.589C291.546 110.928 292.05 110.359 292.712 110.32L292.812 110.314C293.474 110.275 294.042 110.779 294.081 111.441C294.12 112.103 293.615 112.671 292.954 112.71L292.855 112.715C292.193 112.755 291.625 112.251 291.585 111.589ZM301.385 376.282C301.376 375.619 301.906 375.075 302.569 375.066L302.669 375.064C303.332 375.055 303.877 375.584 303.886 376.247C303.895 376.91 303.366 377.455 302.703 377.464L302.602 377.466C301.939 377.475 301.394 376.945 301.385 376.282ZM297.704 111.308C297.695 110.646 298.224 110.101 298.887 110.091L298.938 110.091C299.6 110.081 300.145 110.611 300.154 111.274C300.163 111.937 299.634 112.481 298.971 112.49L298.921 112.491C298.258 112.501 297.713 111.971 297.704 111.308ZM307.509 376.115C307.47 375.453 307.975 374.885 308.636 374.846L308.735 374.84C309.397 374.801 309.965 375.305 310.005 375.966C310.044 376.628 309.54 377.196 308.878 377.236L308.778 377.242C308.116 377.281 307.548 376.776 307.509 376.115ZM313.617 375.669C313.547 375.01 314.025 374.419 314.685 374.35L314.783 374.339C315.442 374.27 316.033 374.747 316.103 375.406C316.173 376.065 315.695 376.656 315.036 376.726L314.936 376.737C314.277 376.806 313.686 376.328 313.617 375.669ZM319.696 374.943C319.597 374.288 320.047 373.676 320.702 373.576L320.8 373.561C321.456 373.461 322.068 373.911 322.168 374.566C322.268 375.221 321.818 375.834 321.163 375.934L321.063 375.949C320.408 376.049 319.796 375.598 319.696 374.943ZM325.735 373.938C325.605 373.288 326.027 372.656 326.677 372.526L326.774 372.506C327.424 372.376 328.056 372.797 328.187 373.447C328.317 374.096 327.896 374.729 327.246 374.859L327.147 374.879C326.497 375.009 325.865 374.587 325.735 373.938ZM331.721 372.653C331.561 372.01 331.952 371.359 332.596 371.199L332.692 371.175C333.335 371.015 333.986 371.406 334.147 372.049C334.307 372.692 333.916 373.343 333.273 373.504L333.175 373.528C332.532 373.688 331.881 373.296 331.721 372.653ZM337.64 371.092C337.45 370.457 337.811 369.789 338.446 369.599L338.541 369.571C339.176 369.381 339.845 369.741 340.035 370.376C340.225 371.011 339.865 371.68 339.23 371.87L339.133 371.899C338.498 372.088 337.829 371.727 337.64 371.092ZM343.48 369.258C343.261 368.632 343.59 367.948 344.216 367.729L344.309 367.696C344.935 367.476 345.62 367.805 345.839 368.43C346.059 369.056 345.73 369.741 345.104 369.96L345.009 369.994C344.383 370.213 343.699 369.883 343.48 369.258ZM349.228 367.153C348.98 366.539 349.277 365.839 349.892 365.591L349.984 365.554C350.598 365.306 351.298 365.603 351.546 366.217C351.795 366.831 351.498 367.531 350.883 367.779L350.789 367.817C350.175 368.065 349.476 367.768 349.228 367.153ZM354.872 364.783C354.596 364.181 354.86 363.469 355.462 363.193L355.553 363.151C356.155 362.874 356.868 363.138 357.144 363.741C357.421 364.343 357.157 365.055 356.555 365.332L356.463 365.374C355.86 365.65 355.148 365.386 354.872 364.783ZM360.4 362.154C360.096 361.565 360.327 360.841 360.916 360.538L361.004 360.492C361.593 360.188 362.317 360.418 362.621 361.007C362.926 361.596 362.695 362.32 362.106 362.624L362.016 362.67C361.427 362.974 360.704 362.743 360.4 362.154ZM365.8 359.271C365.469 358.697 365.666 357.963 366.241 357.632L366.327 357.583C366.901 357.251 367.635 357.448 367.966 358.022C368.297 358.596 368.1 359.33 367.526 359.661L367.439 359.712C366.864 360.043 366.131 359.845 365.8 359.271ZM371.061 356.141C370.704 355.583 370.867 354.841 371.425 354.484L371.509 354.43C372.067 354.073 372.809 354.236 373.167 354.794C373.524 355.352 373.362 356.094 372.803 356.451L372.718 356.506C372.16 356.863 371.418 356.7 371.061 356.141ZM376.172 352.772C375.789 352.23 375.918 351.482 376.459 351.099L376.541 351.042C377.082 350.659 377.831 350.787 378.213 351.328C378.596 351.869 378.468 352.618 377.927 353.001L377.844 353.06C377.303 353.442 376.554 353.313 376.172 352.772ZM381.122 349.17C380.715 348.647 380.809 347.893 381.332 347.486L381.411 347.425C381.934 347.018 382.688 347.111 383.095 347.634C383.502 348.157 383.408 348.911 382.886 349.318L382.806 349.381C382.283 349.787 381.529 349.693 381.122 349.17ZM385.901 345.344C385.47 344.841 385.53 344.083 386.034 343.653L386.109 343.588C386.613 343.157 387.37 343.216 387.801 343.719C388.232 344.223 388.173 344.981 387.67 345.411L387.593 345.477C387.089 345.908 386.331 345.848 385.901 345.344ZM390.499 341.303C390.046 340.819 390.071 340.06 390.554 339.607L390.627 339.539C391.11 339.085 391.869 339.109 392.323 339.593C392.777 340.076 392.753 340.835 392.269 341.289L392.195 341.358C391.712 341.811 390.952 341.787 390.499 341.303ZM394.907 337.055C394.432 336.592 394.422 335.833 394.884 335.358L394.954 335.286C395.416 334.811 396.175 334.8 396.651 335.262C397.126 335.724 397.137 336.484 396.675 336.959L396.604 337.032C396.142 337.507 395.382 337.517 394.907 337.055ZM394.004 149.598C394.474 149.131 395.234 149.134 395.701 149.604L395.736 149.639C396.202 150.11 396.199 150.87 395.729 151.336C395.258 151.803 394.498 151.8 394.031 151.329L393.997 151.295C393.53 150.825 393.533 150.065 394.004 149.598ZM399.116 332.609C398.62 332.169 398.575 331.41 399.015 330.914L399.081 330.84C399.52 330.344 400.279 330.298 400.775 330.738C401.271 331.178 401.316 331.936 400.877 332.432L400.81 332.508C400.37 333.003 399.611 333.048 399.116 332.609ZM398.128 153.865C398.619 153.42 399.378 153.456 399.823 153.947L399.89 154.02C400.335 154.511 400.297 155.27 399.806 155.715C399.315 156.16 398.556 156.123 398.111 155.632L398.046 155.56C397.601 155.069 397.637 154.311 398.128 153.865ZM403.115 327.974C402.6 327.557 402.52 326.802 402.937 326.286L402.999 326.209C403.416 325.693 404.171 325.613 404.687 326.029C405.202 326.445 405.283 327.201 404.867 327.717L404.803 327.795C404.386 328.311 403.631 328.391 403.115 327.974ZM402.09 158.349C402.6 157.926 403.357 157.997 403.78 158.507L403.843 158.583C404.265 159.094 404.194 159.85 403.684 160.273C403.173 160.695 402.417 160.624 401.994 160.114L401.932 160.039C401.509 159.529 401.58 158.772 402.09 158.349ZM406.898 323.16C406.364 322.768 406.249 322.017 406.642 321.483L406.701 321.403C407.093 320.868 407.844 320.753 408.378 321.145C408.913 321.538 409.028 322.289 408.635 322.823L408.575 322.905C408.183 323.438 407.432 323.553 406.898 323.16ZM405.846 163.006C406.375 162.607 407.128 162.711 407.527 163.24L407.587 163.319C407.986 163.848 407.881 164.601 407.352 165C406.823 165.399 406.07 165.294 405.671 164.765L405.613 164.687C405.213 164.159 405.318 163.406 405.846 163.006ZM410.455 318.178C409.903 317.811 409.754 317.066 410.122 316.514L410.177 316.431C410.544 315.88 411.289 315.73 411.841 316.097C412.393 316.464 412.542 317.209 412.175 317.761L412.119 317.845C411.751 318.397 411.006 318.546 410.455 318.178ZM409.39 167.828C409.936 167.453 410.683 167.591 411.058 168.137L411.114 168.219C411.489 168.765 411.35 169.512 410.804 169.887C410.257 170.262 409.51 170.123 409.135 169.577L409.08 169.497C408.705 168.951 408.843 168.203 409.39 167.828ZM413.779 313.037C413.211 312.696 413.028 311.958 413.369 311.391L413.421 311.305C413.762 310.737 414.499 310.553 415.067 310.895C415.635 311.236 415.819 311.973 415.478 312.541L415.426 312.628C415.084 313.196 414.346 313.379 413.779 313.037ZM412.712 172.804C413.274 172.454 414.015 172.626 414.365 173.189L414.417 173.273C414.767 173.835 414.595 174.575 414.032 174.925C413.469 175.275 412.729 175.103 412.379 174.54L412.328 174.457C411.977 173.895 412.149 173.155 412.712 172.804ZM416.862 307.749C416.279 307.434 416.061 306.706 416.377 306.123L416.424 306.035C416.739 305.452 417.467 305.234 418.05 305.549C418.633 305.864 418.851 306.592 418.536 307.175L418.488 307.264C418.173 307.847 417.445 308.064 416.862 307.749ZM415.806 177.926C416.384 177.601 417.116 177.806 417.44 178.384L417.489 178.47C417.813 179.048 417.607 179.78 417.029 180.104C416.451 180.428 415.72 180.222 415.395 179.644L415.348 179.56C415.023 178.982 415.229 178.25 415.806 177.926ZM419.697 302.323C419.1 302.036 418.849 301.318 419.137 300.721L419.18 300.632C419.467 300.035 420.184 299.783 420.782 300.071C421.379 300.358 421.63 301.075 421.343 301.672L421.299 301.764C421.011 302.361 420.293 302.611 419.697 302.323ZM418.666 183.182C419.258 182.883 419.979 183.122 420.277 183.714L420.322 183.802C420.62 184.394 420.381 185.115 419.789 185.413C419.197 185.711 418.475 185.472 418.178 184.88L418.134 184.793C417.836 184.201 418.074 183.48 418.666 183.182ZM422.277 296.773C421.667 296.513 421.384 295.808 421.643 295.198L421.682 295.107C421.942 294.497 422.646 294.213 423.256 294.472C423.866 294.731 424.15 295.436 423.891 296.046L423.851 296.139C423.592 296.749 422.887 297.032 422.277 296.773ZM421.284 188.562C421.889 188.291 422.599 188.562 422.87 189.166L422.911 189.257C423.181 189.862 422.91 190.571 422.305 190.842C421.7 191.112 420.99 190.841 420.72 190.236L420.68 190.147C420.409 189.543 420.68 188.833 421.284 188.562ZM424.597 291.108C423.976 290.877 423.66 290.186 423.891 289.565L423.926 289.471C424.156 288.85 424.847 288.534 425.468 288.764C426.09 288.995 426.406 289.686 426.175 290.307L426.14 290.402C425.909 291.023 425.218 291.339 424.597 291.108ZM423.656 194.055C424.273 193.812 424.969 194.115 425.213 194.731L425.249 194.823C425.492 195.44 425.188 196.137 424.572 196.38C423.955 196.622 423.258 196.319 423.016 195.702L422.98 195.612C422.737 194.995 423.039 194.299 423.656 194.055ZM426.651 285.341C426.02 285.139 425.672 284.464 425.874 283.833L425.904 283.738C426.106 283.107 426.781 282.758 427.412 282.96C428.044 283.161 428.392 283.837 428.191 284.468L428.16 284.564C427.958 285.196 427.282 285.544 426.651 285.341ZM425.775 199.651C426.402 199.436 427.085 199.77 427.3 200.397L427.332 200.491C427.546 201.118 427.211 201.8 426.584 202.015C425.957 202.229 425.275 201.894 425.061 201.267L425.029 201.176C424.814 200.549 425.148 199.866 425.775 199.651ZM428.434 279.486C427.795 279.313 427.416 278.655 427.588 278.015L427.614 277.919C427.786 277.279 428.444 276.899 429.084 277.071C429.724 277.243 430.104 277.901 429.932 278.541L429.905 278.639C429.733 279.279 429.074 279.658 428.434 279.486ZM427.638 205.338C428.274 205.152 428.941 205.517 429.127 206.153L429.154 206.248C429.34 206.884 428.975 207.55 428.339 207.736C427.702 207.921 427.036 207.556 426.851 206.92L426.823 206.827C426.637 206.191 427.002 205.524 427.638 205.338ZM429.943 273.553C429.296 273.411 428.887 272.771 429.029 272.123L429.051 272.026C429.193 271.379 429.833 270.969 430.48 271.111C431.127 271.253 431.537 271.893 431.395 272.54L431.373 272.639C431.231 273.286 430.591 273.696 429.943 273.553ZM429.24 211.103C429.884 210.946 430.533 211.34 430.69 211.984L430.713 212.08C430.87 212.724 430.475 213.373 429.831 213.53C429.187 213.686 428.538 213.291 428.381 212.647L428.358 212.553C428.201 211.909 428.596 211.26 429.24 211.103ZM431.175 267.557C430.522 267.444 430.083 266.824 430.195 266.171L430.212 266.073C430.324 265.42 430.944 264.981 431.597 265.092C432.251 265.204 432.69 265.824 432.578 266.478L432.561 266.577C432.449 267.23 431.828 267.669 431.175 267.557ZM430.578 216.934C431.228 216.806 431.859 217.23 431.986 217.881L432.005 217.978C432.133 218.628 431.708 219.259 431.058 219.386C430.408 219.513 429.777 219.089 429.65 218.438L429.631 218.343C429.504 217.692 429.927 217.062 430.578 216.934ZM432.127 261.509C431.469 261.427 431.002 260.828 431.084 260.17L431.096 260.071C431.178 259.414 431.777 258.946 432.435 259.028C433.092 259.109 433.56 259.708 433.478 260.366L433.466 260.466C433.384 261.124 432.784 261.591 432.127 261.509ZM431.65 222.82C432.306 222.722 432.916 223.174 433.014 223.83L433.029 223.928C433.127 224.583 432.674 225.194 432.019 225.291C431.363 225.389 430.753 224.936 430.655 224.281L430.641 224.185C430.543 223.529 430.995 222.918 431.65 222.82ZM432.798 255.423C432.137 255.372 431.643 254.794 431.695 254.133L431.702 254.035C431.753 253.374 432.33 252.879 432.991 252.93C433.652 252.981 434.146 253.558 434.095 254.219L434.088 254.32C434.036 254.981 433.459 255.474 432.798 255.423ZM432.455 228.749C433.115 228.681 433.704 229.16 433.773 229.819L433.783 229.917C433.851 230.577 433.372 231.166 432.712 231.234C432.053 231.302 431.464 230.823 431.396 230.164L431.386 230.067C431.317 229.408 431.796 228.818 432.455 228.749ZM433.188 249.311C432.526 249.29 432.006 248.736 432.027 248.074L432.03 247.975C432.051 247.312 432.605 246.792 433.267 246.813C433.93 246.833 434.45 247.387 434.429 248.05L434.426 248.15C434.405 248.813 433.851 249.333 433.188 249.311ZM432.993 234.709C433.655 234.67 434.223 235.175 434.262 235.837L434.267 235.936C434.306 236.597 433.8 237.165 433.139 237.203C432.477 237.241 431.91 236.736 431.871 236.074L431.866 235.978C431.827 235.316 432.332 234.748 432.993 234.709ZM433.299 243.187C432.636 243.196 432.092 242.666 432.083 242.004L432.082 241.905C432.072 241.242 432.602 240.697 433.264 240.688C433.927 240.679 434.472 241.208 434.481 241.871L434.482 241.92L434.483 241.971C434.492 242.634 433.962 243.178 433.299 243.187Z" fill="#648494"/>
<path d="M422.946 121.977C406.928 105.959 387.912 93.2529 366.983 84.5839C346.055 75.915 323.623 71.4531 300.97 71.4531C278.317 71.4531 255.886 75.915 234.957 84.5839C214.029 93.2528 195.013 105.959 178.994 121.977L191.192 134.175C205.608 119.759 222.723 108.323 241.559 100.521C260.395 92.7188 280.583 88.7031 300.97 88.7031C321.358 88.7031 341.546 92.7188 360.382 100.521C379.218 108.323 396.332 119.759 410.749 134.175L422.946 121.977Z" fill="#003E14"/>
<path d="M178.995 365.928C162.977 349.91 150.27 330.893 141.601 309.965C132.933 289.036 128.471 266.605 128.471 243.952C128.471 221.299 132.933 198.868 141.601 177.939C150.27 157.01 162.977 137.994 178.995 121.976L191.192 134.174C176.776 148.59 165.34 165.704 157.538 184.54C149.736 203.376 145.721 223.564 145.721 243.952C145.721 264.34 149.736 284.528 157.538 303.363C165.34 322.199 176.776 339.314 191.192 353.73L178.995 365.928Z" fill="#5FAF2D"/>
<path d="M422.947 121.978C438.965 137.997 451.671 157.013 460.34 177.942C469.009 198.87 473.471 221.301 473.471 243.954C473.471 266.607 469.009 289.039 460.34 309.967C451.671 330.896 438.965 349.912 422.947 365.93L410.749 353.733C425.165 339.316 436.601 322.202 444.403 303.366C452.205 284.53 456.221 264.342 456.221 243.954C456.221 223.567 452.205 203.379 444.403 184.543C436.601 165.707 425.165 148.592 410.749 134.176L422.947 121.978Z" fill="#648494"/>
<path d="M178.995 365.929C195.013 381.947 214.029 394.653 234.958 403.322C255.886 411.991 278.318 416.453 300.971 416.453C323.624 416.453 346.055 411.991 366.983 403.322C387.912 394.653 406.928 381.947 422.946 365.929L410.749 353.731C396.333 368.148 379.218 379.583 360.382 387.385C341.546 395.187 321.358 399.203 300.971 399.203C280.583 399.203 260.395 395.187 241.559 387.385C222.723 379.583 205.609 368.148 191.192 353.731L178.995 365.929Z" fill="#BFCED4"/>
<path d="M238.821 240.445H242.237V232.913H252.541V229.777H242.237V224.037H253.297V220.845H238.821V240.445ZM254.55 230.645C254.55 236.609 258.918 240.781 264.714 240.781C270.454 240.781 274.85 236.525 274.85 230.645C274.85 224.681 270.454 220.509 264.714 220.509C258.862 220.509 254.55 224.849 254.55 230.645ZM258.078 230.645C258.078 226.585 260.99 223.701 264.714 223.701C268.354 223.701 271.322 226.585 271.322 230.645C271.322 234.705 268.55 237.589 264.714 237.589C261.018 237.589 258.078 234.705 258.078 230.645ZM276.597 230.645C276.597 236.609 280.965 240.781 286.761 240.781C292.501 240.781 296.897 236.525 296.897 230.645C296.897 224.681 292.501 220.509 286.761 220.509C280.909 220.509 276.597 224.849 276.597 230.645ZM280.125 230.645C280.125 226.585 283.037 223.701 286.761 223.701C290.401 223.701 293.369 226.585 293.369 230.645C293.369 234.705 290.597 237.589 286.761 237.589C283.065 237.589 280.125 234.705 280.125 230.645ZM299.574 240.445H305.65C313.546 240.445 316.99 236.105 316.99 230.365C316.99 225.129 314.106 220.845 306.238 220.845H299.574V240.445ZM306.126 224.037C311.418 224.037 313.462 226.725 313.462 230.533C313.462 234.453 311.11 237.253 305.874 237.253H302.99V224.037H306.126ZM318.899 238.485C318.899 239.633 319.739 240.529 320.999 240.529C322.231 240.529 323.071 239.633 323.071 238.485C323.071 237.421 322.231 236.497 320.999 236.497C319.739 236.497 318.899 237.421 318.899 238.485ZM329.72 240.445V233.333H334.284L339.324 240.445H343.44L337.784 232.661C340.332 231.877 342.124 229.833 342.124 226.921C342.124 223.701 340.304 220.845 334.648 220.845H326.304V240.445H329.72ZM334.368 224.037C337.532 224.037 338.596 225.297 338.596 227.089C338.596 229.021 336.916 230.141 334.452 230.141H329.72V224.037H334.368ZM362.113 220.845H358.697V231.793C358.697 235.433 357.129 237.589 353.881 237.589C350.829 237.589 348.589 235.545 348.589 231.653V220.845H345.173V232.073C345.173 237.869 349.121 240.781 353.881 240.781C358.081 240.781 362.113 238.317 362.113 232.241V220.845Z" fill="#222429"/>
<path d="M233.525 264.445H235.275L236.199 262.303H240.833L241.757 264.445H243.549L239.293 254.631H237.795L233.525 264.445ZM236.815 260.791L238.509 256.815L240.217 260.791H236.815ZM249.193 257.627C249.543 256.857 250.299 256.073 251.713 256.073C252.945 256.073 253.631 256.549 253.631 257.319C253.631 258.103 252.903 258.705 251.503 258.705H250.453V260.161H251.727C252.987 260.161 253.897 260.511 253.897 261.547C253.897 262.527 253.169 263.101 251.811 263.101C250.271 263.101 249.473 262.289 249.081 261.323L247.611 261.953C248.185 263.703 249.725 264.613 251.853 264.613C253.981 264.613 255.549 263.451 255.549 261.533C255.549 260.105 254.639 259.405 253.673 259.237C254.681 258.887 255.283 258.103 255.283 257.039C255.283 255.471 253.827 254.477 251.867 254.477C249.669 254.477 248.367 255.555 247.835 257.025L249.193 257.627ZM261.135 264.613C263.459 264.613 265.125 263.199 265.125 261.113C265.125 259.097 263.683 257.795 261.387 257.795C260.001 257.795 258.811 258.439 258.321 259.447C258.321 259.405 258.321 259.363 258.321 259.321C258.349 257.347 259.385 256.073 261.177 256.073C262.339 256.073 263.151 256.465 263.697 257.277L264.789 256.367C264.173 255.205 262.899 254.477 261.205 254.477C258.657 254.477 256.725 256.241 256.725 259.713C256.725 262.933 258.489 264.613 261.135 264.613ZM261.079 263.017C259.609 263.017 258.783 262.205 258.783 261.099C258.783 260.021 259.651 259.391 261.219 259.391C262.563 259.391 263.473 259.951 263.473 261.155C263.473 262.331 262.535 263.017 261.079 263.017ZM266.185 259.545C266.185 262.499 267.683 264.613 270.455 264.613C273.297 264.613 274.697 262.499 274.697 259.545C274.697 256.479 273.283 254.477 270.427 254.477C267.585 254.477 266.185 256.591 266.185 259.545ZM267.837 259.545C267.837 257.361 268.649 256.073 270.427 256.073C272.275 256.073 273.045 257.333 273.045 259.545C273.045 261.743 272.289 263.017 270.455 263.017C268.789 263.017 267.837 261.743 267.837 259.545ZM275.782 256.717C275.782 257.963 276.832 258.929 278.092 258.929C279.38 258.929 280.416 257.935 280.416 256.689C280.416 255.415 279.38 254.477 278.092 254.477C276.832 254.477 275.782 255.443 275.782 256.717ZM277.21 256.703C277.21 256.185 277.63 255.849 278.092 255.849C278.554 255.849 278.988 256.185 278.988 256.703C278.988 257.207 278.554 257.557 278.092 257.557C277.63 257.557 277.21 257.207 277.21 256.703ZM287.622 264.445V261.127H289.834C292.942 261.127 293.992 259.545 293.992 257.823C293.992 256.297 293.222 254.645 289.918 254.645H285.914V264.445H287.622ZM289.932 256.241C291.612 256.241 292.228 256.927 292.228 257.865C292.228 258.845 291.486 259.531 289.876 259.531H287.622V256.241H289.932ZM295.649 264.445H302.915V262.849H297.357V254.645H295.649V264.445ZM303.538 264.445H305.288L306.212 262.303H310.846L311.77 264.445H313.562L309.306 254.631H307.808L303.538 264.445ZM306.828 260.791L308.522 256.815L310.23 260.791H306.828ZM312.634 256.241H315.882V264.445H317.59V256.241H320.852V254.645H312.634V256.241ZM322.227 264.445H323.935V260.679H329.087V259.111H323.935V256.241H329.465V254.645H322.227V264.445ZM330.512 259.545C330.512 262.527 332.696 264.613 335.594 264.613C338.464 264.613 340.662 262.485 340.662 259.545C340.662 256.563 338.464 254.477 335.594 254.477C332.668 254.477 330.512 256.647 330.512 259.545ZM332.276 259.545C332.276 257.515 333.732 256.073 335.594 256.073C337.414 256.073 338.898 257.515 338.898 259.545C338.898 261.575 337.512 263.017 335.594 263.017C333.746 263.017 332.276 261.575 332.276 259.545ZM344.128 264.445V260.889H346.41L348.93 264.445H350.988L348.16 260.553C349.434 260.161 350.33 259.139 350.33 257.683C350.33 256.073 349.42 254.645 346.592 254.645H342.42V264.445H344.128ZM346.452 256.241C348.034 256.241 348.566 256.871 348.566 257.767C348.566 258.733 347.726 259.293 346.494 259.293H344.128V256.241H346.452ZM352.401 264.445H354.109V256.829L356.951 264.445H357.973L360.717 256.801V264.445H362.425V254.645H359.961L357.525 261.743L354.935 254.645H352.401V264.445Z" fill="#222429"/>
<path d="M247.981 46.4453H257.557V44.3933H250.177V41.0273H256.711V39.0833H250.177V35.8973H257.377V33.8453H247.981V46.4453ZM259.571 42.3413H264.503V40.5413H259.571V42.3413ZM274.07 43.2413C273.494 44.3033 272.666 44.8253 271.496 44.8253C269.768 44.8253 268.544 43.5653 268.544 41.7473C268.544 39.9293 269.732 38.7053 271.496 38.7053C272.684 38.7053 273.476 39.2093 274.088 40.2893L275.816 39.7133C275.078 37.9133 273.476 36.8693 271.406 36.8693C268.454 36.8693 266.42 38.8493 266.42 41.7473C266.42 44.6633 268.454 46.6613 271.424 46.6613C273.548 46.6613 275.168 45.5813 275.798 43.8173L274.07 43.2413ZM276.606 41.7473C276.606 44.6813 278.712 46.6613 281.646 46.6613C284.652 46.6613 286.74 44.5913 286.74 41.7473C286.74 38.9213 284.652 36.8693 281.646 36.8693C278.658 36.8693 276.606 38.8853 276.606 41.7473ZM278.73 41.7653C278.73 39.8753 279.972 38.7053 281.646 38.7053C283.338 38.7053 284.616 39.8933 284.616 41.7653C284.616 43.6553 283.428 44.8253 281.664 44.8253C279.918 44.8253 278.73 43.5653 278.73 41.7653ZM288.425 46.4453H290.441V40.8653C290.441 39.4253 291.269 38.7053 292.439 38.7053C293.663 38.7053 294.275 39.3893 294.275 40.6673V46.4453H296.291V40.7213C296.291 39.6773 296.867 38.7053 298.217 38.7053C299.729 38.7053 300.125 39.6233 300.125 40.8113V46.4453H302.141V40.3253C302.141 37.8953 300.827 36.8693 298.829 36.8693C297.497 36.8693 296.471 37.3733 295.877 38.3633C295.301 37.3553 294.401 36.8693 293.177 36.8693C291.953 36.8693 290.927 37.3553 290.441 38.3273V37.0853H288.425V46.4453ZM304.272 46.4453H306.288V40.8653C306.288 39.4253 307.116 38.7053 308.286 38.7053C309.51 38.7053 310.122 39.3893 310.122 40.6673V46.4453H312.138V40.7213C312.138 39.6773 312.714 38.7053 314.064 38.7053C315.576 38.7053 315.972 39.6233 315.972 40.8113V46.4453H317.988V40.3253C317.988 37.8953 316.674 36.8693 314.676 36.8693C313.344 36.8693 312.318 37.3733 311.724 38.3633C311.148 37.3553 310.248 36.8693 309.024 36.8693C307.8 36.8693 306.774 37.3553 306.288 38.3273V37.0853H304.272V46.4453ZM324.439 46.6613C326.545 46.6613 328.111 45.6713 328.831 43.9973L327.103 43.4213C326.599 44.3033 325.789 44.8253 324.493 44.8253C322.891 44.8253 321.721 43.8713 321.595 42.4673H329.137C329.173 42.1073 329.191 41.7473 329.191 41.4773C329.191 38.6513 327.121 36.8693 324.457 36.8693C321.469 36.8693 319.489 38.9393 319.489 41.7473C319.489 44.6633 321.469 46.6613 324.439 46.6613ZM324.421 38.7053C325.879 38.7053 327.085 39.5693 327.139 40.8113H321.613C321.793 39.5513 322.909 38.7053 324.421 38.7053ZM330.816 46.4453H332.832V40.5413C332.832 39.4073 333.516 38.7593 334.74 38.7593C335.1 38.7593 335.514 38.8133 335.73 38.9033V37.0133C335.568 36.9773 335.082 36.9233 334.758 36.9233C333.84 36.9233 333.102 37.3373 332.832 38.0393V37.0853H330.816V46.4453ZM343.997 43.2413C343.421 44.3033 342.593 44.8253 341.423 44.8253C339.695 44.8253 338.471 43.5653 338.471 41.7473C338.471 39.9293 339.659 38.7053 341.423 38.7053C342.611 38.7053 343.403 39.2093 344.015 40.2893L345.743 39.7133C345.005 37.9133 343.403 36.8693 341.333 36.8693C338.381 36.8693 336.347 38.8493 336.347 41.7473C336.347 44.6633 338.381 46.6613 341.351 46.6613C343.475 46.6613 345.095 45.5813 345.725 43.8173L343.997 43.2413ZM351.484 46.6613C353.59 46.6613 355.156 45.6713 355.876 43.9973L354.148 43.4213C353.644 44.3033 352.834 44.8253 351.538 44.8253C349.936 44.8253 348.766 43.8713 348.64 42.4673H356.182C356.218 42.1073 356.236 41.7473 356.236 41.4773C356.236 38.6513 354.166 36.8693 351.502 36.8693C348.514 36.8693 346.534 38.9393 346.534 41.7473C346.534 44.6633 348.514 46.6613 351.484 46.6613ZM351.466 38.7053C352.924 38.7053 354.13 39.5693 354.184 40.8113H348.658C348.838 39.5513 349.954 38.7053 351.466 38.7053Z" fill="black"/>
<path d="M497.177 241.445V237.179H500.021C504.017 237.179 505.367 235.145 505.367 232.931C505.367 230.969 504.377 228.845 500.129 228.845H494.981V241.445H497.177ZM500.147 230.897C502.307 230.897 503.099 231.779 503.099 232.985C503.099 234.245 502.145 235.127 500.075 235.127H497.177V230.897H500.147ZM506.956 241.445H508.972V235.541C508.972 234.407 509.656 233.759 510.88 233.759C511.24 233.759 511.654 233.813 511.87 233.903V232.013C511.708 231.977 511.222 231.923 510.898 231.923C509.98 231.923 509.242 232.337 508.972 233.039V232.085H506.956V241.445ZM512.488 236.747C512.488 239.681 514.594 241.661 517.528 241.661C520.534 241.661 522.622 239.591 522.622 236.747C522.622 233.921 520.534 231.869 517.528 231.869C514.54 231.869 512.488 233.885 512.488 236.747ZM514.612 236.765C514.612 234.875 515.854 233.705 517.528 233.705C519.22 233.705 520.498 234.893 520.498 236.765C520.498 238.655 519.31 239.825 517.546 239.825C515.8 239.825 514.612 238.565 514.612 236.765ZM528.177 241.661C529.833 241.661 530.931 240.977 531.525 239.951V241.445H533.541V228.305H531.525V233.327C530.949 232.463 529.941 231.869 528.303 231.869C525.747 231.869 523.677 233.813 523.677 236.837C523.677 239.843 525.585 241.661 528.177 241.661ZM528.645 239.825C527.007 239.825 525.801 238.709 525.801 236.765C525.801 234.821 527.133 233.705 528.717 233.705C530.337 233.705 531.525 234.785 531.525 236.585V236.891C531.525 238.745 530.355 239.825 528.645 239.825ZM542.399 241.445H544.415V232.085H542.399V237.467C542.399 238.907 541.481 239.825 540.041 239.825C538.241 239.825 537.791 238.673 537.791 237.251V232.085H535.775V237.593C535.775 240.383 537.089 241.661 539.465 241.661C540.869 241.661 541.949 241.013 542.399 240.167V241.445ZM553.74 238.241C553.164 239.303 552.336 239.825 551.166 239.825C549.438 239.825 548.214 238.565 548.214 236.747C548.214 234.929 549.402 233.705 551.166 233.705C552.354 233.705 553.146 234.209 553.758 235.289L555.486 234.713C554.748 232.913 553.146 231.869 551.076 231.869C548.124 231.869 546.09 233.849 546.09 236.747C546.09 239.663 548.124 241.661 551.094 241.661C553.218 241.661 554.838 240.581 555.468 238.817L553.74 238.241ZM556.022 233.921H557.624V238.601C557.624 240.923 558.56 241.661 560.486 241.661C561.152 241.661 561.818 241.571 562.358 241.427V239.591C561.836 239.717 561.332 239.789 560.9 239.789C559.982 239.789 559.64 239.483 559.64 238.493V233.921H562.322V232.085H559.64V229.763H557.624V232.085H556.022V233.921ZM493.793 256.921H495.395V264.445H497.411V256.921H499.643V255.085H497.411V254.059C497.411 253.339 497.663 252.979 498.563 252.979C498.869 252.979 499.283 253.015 499.607 253.051V251.233C499.229 251.179 498.563 251.143 498.185 251.143C496.403 251.143 495.395 251.917 495.395 253.951V255.085H493.793V256.921ZM507.497 264.445H509.513V255.085H507.497V260.467C507.497 261.907 506.579 262.825 505.139 262.825C503.339 262.825 502.889 261.673 502.889 260.251V255.085H500.873V260.593C500.873 263.383 502.187 264.661 504.563 264.661C505.967 264.661 507.047 264.013 507.497 263.167V264.445ZM511.817 264.445H513.833V259.243C513.833 257.479 514.877 256.705 516.209 256.705C517.775 256.705 518.567 257.479 518.567 259.315V264.445H520.583V258.937C520.583 256.165 519.215 254.869 516.821 254.869C515.381 254.869 514.355 255.481 513.833 256.417V255.085H511.817V264.445ZM529.727 261.241C529.151 262.303 528.323 262.825 527.153 262.825C525.425 262.825 524.201 261.565 524.201 259.747C524.201 257.929 525.389 256.705 527.153 256.705C528.341 256.705 529.133 257.209 529.745 258.289L531.473 257.713C530.735 255.913 529.133 254.869 527.063 254.869C524.111 254.869 522.077 256.849 522.077 259.747C522.077 262.663 524.111 264.661 527.081 264.661C529.205 264.661 530.825 263.581 531.455 261.817L529.727 261.241ZM532.01 256.921H533.612V261.601C533.612 263.923 534.548 264.661 536.474 264.661C537.14 264.661 537.806 264.571 538.346 264.427V262.591C537.824 262.717 537.32 262.789 536.888 262.789C535.97 262.789 535.628 262.483 535.628 261.493V256.921H538.31V255.085H535.628V252.763H533.612V255.085H532.01V256.921ZM539.968 264.445H541.984V255.085H539.968V264.445ZM539.788 252.385C539.788 252.997 540.292 253.483 540.976 253.483C541.66 253.483 542.164 252.997 542.164 252.385C542.164 251.773 541.66 251.287 540.976 251.287C540.292 251.287 539.788 251.773 539.788 252.385ZM543.585 259.747C543.585 262.681 545.691 264.661 548.625 264.661C551.631 264.661 553.719 262.591 553.719 259.747C553.719 256.921 551.631 254.869 548.625 254.869C545.637 254.869 543.585 256.885 543.585 259.747ZM545.709 259.765C545.709 257.875 546.951 256.705 548.625 256.705C550.317 256.705 551.595 257.893 551.595 259.765C551.595 261.655 550.407 262.825 548.643 262.825C546.897 262.825 545.709 261.565 545.709 259.765ZM555.404 264.445H557.42V259.243C557.42 257.479 558.464 256.705 559.796 256.705C561.362 256.705 562.154 257.479 562.154 259.315V264.445H564.17V258.937C564.17 256.165 562.802 254.869 560.408 254.869C558.968 254.869 557.942 255.481 557.42 256.417V255.085H555.404V264.445ZM567.554 258.289C567.896 257.245 568.724 256.705 570.038 256.705C571.424 256.705 572.072 257.389 572.072 258.739C567.536 258.757 565.628 259.711 565.628 261.817C565.628 263.491 566.834 264.661 568.886 264.661C570.452 264.661 571.586 263.869 572.036 262.879V264.445H574.088V258.865C574.088 256.237 572.72 254.869 570.11 254.869C567.86 254.869 566.348 255.877 565.826 257.713L567.554 258.289ZM569.372 262.861C568.364 262.861 567.752 262.411 567.752 261.691C567.752 260.593 568.958 260.215 572.072 260.215V260.503C572.072 261.907 570.992 262.861 569.372 262.861ZM576.217 264.445H578.233V251.305H576.217V264.445ZM580.461 264.445H582.477V255.085H580.461V264.445ZM580.281 252.385C580.281 252.997 580.785 253.483 581.469 253.483C582.153 253.483 582.657 252.997 582.657 252.385C582.657 251.773 582.153 251.287 581.469 251.287C580.785 251.287 580.281 251.773 580.281 252.385ZM583.736 256.921H585.338V261.601C585.338 263.923 586.274 264.661 588.2 264.661C588.866 264.661 589.532 264.571 590.072 264.427V262.591C589.55 262.717 589.046 262.789 588.614 262.789C587.696 262.789 587.354 262.483 587.354 261.493V256.921H590.036V255.085H587.354V252.763H585.338V255.085H583.736V256.921ZM593.167 268.045H595.273L600.295 255.085H598.135L595.741 261.547L592.951 255.085H590.593L594.697 264.229L593.167 268.045Z" fill="black"/>
<path d="M249.72 451.445H251.97L253.158 448.691H259.116L260.304 451.445H262.608L257.136 438.827H255.21L249.72 451.445ZM253.95 446.747L256.128 441.635L258.324 446.747H253.95ZM267.515 451.661C269.171 451.661 270.269 450.977 270.863 449.951V451.445H272.879V438.305H270.863V443.327C270.287 442.463 269.279 441.869 267.641 441.869C265.085 441.869 263.015 443.813 263.015 446.837C263.015 449.843 264.923 451.661 267.515 451.661ZM267.983 449.825C266.345 449.825 265.139 448.709 265.139 446.765C265.139 444.821 266.471 443.705 268.055 443.705C269.675 443.705 270.863 444.785 270.863 446.585V446.891C270.863 448.745 269.693 449.825 267.983 449.825ZM283.502 442.085H281.36L278.822 448.565L276.176 442.085H273.908L277.904 451.445H279.668L283.502 442.085ZM288.673 451.661C290.779 451.661 292.345 450.671 293.065 448.997L291.337 448.421C290.833 449.303 290.023 449.825 288.727 449.825C287.125 449.825 285.955 448.871 285.829 447.467H293.371C293.407 447.107 293.425 446.747 293.425 446.477C293.425 443.651 291.355 441.869 288.691 441.869C285.703 441.869 283.723 443.939 283.723 446.747C283.723 449.663 285.703 451.661 288.673 451.661ZM288.655 443.705C290.113 443.705 291.319 444.569 291.373 445.811H285.847C286.027 444.551 287.143 443.705 288.655 443.705ZM295.05 451.445H297.066V445.541C297.066 444.407 297.75 443.759 298.974 443.759C299.334 443.759 299.748 443.813 299.964 443.903V442.013C299.802 441.977 299.316 441.923 298.992 441.923C298.074 441.923 297.336 442.337 297.066 443.039V442.085H295.05V451.445ZM300.767 443.921H302.369V448.601C302.369 450.923 303.305 451.661 305.231 451.661C305.897 451.661 306.563 451.571 307.103 451.427V449.591C306.581 449.717 306.077 449.789 305.645 449.789C304.727 449.789 304.385 449.483 304.385 448.493V443.921H307.067V442.085H304.385V439.763H302.369V442.085H300.767V443.921ZM308.725 451.445H310.741V442.085H308.725V451.445ZM308.545 439.385C308.545 439.997 309.049 440.483 309.733 440.483C310.417 440.483 310.921 439.997 310.921 439.385C310.921 438.773 310.417 438.287 309.733 438.287C309.049 438.287 308.545 438.773 308.545 439.385ZM318.21 448.835C318.21 449.519 317.67 449.933 316.572 449.933C315.258 449.933 314.34 449.429 313.944 448.241L312.216 448.817C312.792 450.887 314.448 451.661 316.644 451.661C318.822 451.661 320.334 450.581 320.334 448.709C320.334 445.055 314.772 446.333 314.772 444.551C314.772 443.939 315.438 443.597 316.248 443.597C317.4 443.597 318.246 444.029 318.642 445.289L320.37 444.677C319.974 442.877 318.642 441.869 316.266 441.869C314.052 441.869 312.648 442.967 312.648 444.641C312.648 448.169 318.21 446.927 318.21 448.835ZM321.944 451.445H323.96V442.085H321.944V451.445ZM321.764 439.385C321.764 439.997 322.268 440.483 322.952 440.483C323.636 440.483 324.14 439.997 324.14 439.385C324.14 438.773 323.636 438.287 322.952 438.287C322.268 438.287 321.764 438.773 321.764 439.385ZM326.191 451.445H328.207V446.243C328.207 444.479 329.251 443.705 330.583 443.705C332.149 443.705 332.941 444.479 332.941 446.315V451.445H334.957V445.937C334.957 443.165 333.589 441.869 331.195 441.869C329.755 441.869 328.729 442.481 328.207 443.417V442.085H326.191V451.445ZM341.023 451.661C342.643 451.661 343.669 450.995 344.299 449.951V451.049C344.299 452.507 343.453 453.425 341.761 453.425C340.321 453.425 339.493 452.759 339.151 452.093L337.459 452.831C338.017 454.307 339.655 455.261 341.833 455.261C344.497 455.261 346.315 453.839 346.315 450.689V442.085H344.299V443.327C343.741 442.463 342.787 441.869 341.131 441.869C338.485 441.869 336.451 443.795 336.451 446.837C336.451 449.825 338.449 451.661 341.023 451.661ZM341.473 449.825C339.799 449.825 338.575 448.709 338.575 446.765C338.575 444.821 339.889 443.705 341.491 443.705C343.129 443.705 344.299 444.749 344.299 446.585V446.873C344.299 448.691 343.183 449.825 341.473 449.825ZM247.815 466.921H249.417V471.601C249.417 473.923 250.353 474.661 252.279 474.661C252.945 474.661 253.611 474.571 254.151 474.427V472.591C253.629 472.717 253.125 472.789 252.693 472.789C251.775 472.789 251.433 472.483 251.433 471.493V466.921H254.115V465.085H251.433V462.763H249.417V465.085H247.815V466.921ZM259.902 474.661C262.008 474.661 263.574 473.671 264.294 471.997L262.566 471.421C262.062 472.303 261.252 472.825 259.956 472.825C258.354 472.825 257.184 471.871 257.058 470.467H264.6C264.636 470.107 264.654 469.747 264.654 469.477C264.654 466.651 262.584 464.869 259.92 464.869C256.932 464.869 254.952 466.939 254.952 469.747C254.952 472.663 256.932 474.661 259.902 474.661ZM259.884 466.705C261.342 466.705 262.548 467.569 262.602 468.811H257.076C257.256 467.551 258.372 466.705 259.884 466.705ZM273.245 471.241C272.669 472.303 271.841 472.825 270.671 472.825C268.943 472.825 267.719 471.565 267.719 469.747C267.719 467.929 268.907 466.705 270.671 466.705C271.859 466.705 272.651 467.209 273.263 468.289L274.991 467.713C274.253 465.913 272.651 464.869 270.581 464.869C267.629 464.869 265.595 466.849 265.595 469.747C265.595 472.663 267.629 474.661 270.599 474.661C272.723 474.661 274.343 473.581 274.973 471.817L273.245 471.241ZM276.5 474.445H278.516V469.243C278.516 467.479 279.56 466.705 280.874 466.705C282.458 466.705 283.25 467.479 283.25 469.315V474.445H285.266V468.937C285.266 466.165 283.898 464.869 281.504 464.869C280.064 464.869 279.038 465.481 278.516 466.417V461.305H276.5V474.445ZM287.39 474.445H289.406V469.243C289.406 467.479 290.45 466.705 291.782 466.705C293.348 466.705 294.14 467.479 294.14 469.315V474.445H296.156V468.937C296.156 466.165 294.788 464.869 292.394 464.869C290.954 464.869 289.928 465.481 289.406 466.417V465.085H287.39V474.445ZM297.65 469.747C297.65 472.681 299.756 474.661 302.69 474.661C305.696 474.661 307.784 472.591 307.784 469.747C307.784 466.921 305.696 464.869 302.69 464.869C299.702 464.869 297.65 466.885 297.65 469.747ZM299.774 469.765C299.774 467.875 301.016 466.705 302.69 466.705C304.382 466.705 305.66 467.893 305.66 469.765C305.66 471.655 304.472 472.825 302.708 472.825C300.962 472.825 299.774 471.565 299.774 469.765ZM309.469 474.445H311.485V461.305H309.469V474.445ZM313.155 469.747C313.155 472.681 315.261 474.661 318.195 474.661C321.201 474.661 323.289 472.591 323.289 469.747C323.289 466.921 321.201 464.869 318.195 464.869C315.207 464.869 313.155 466.885 313.155 469.747ZM315.279 469.765C315.279 467.875 316.521 466.705 318.195 466.705C319.887 466.705 321.165 467.893 321.165 469.765C321.165 471.655 319.977 472.825 318.213 472.825C316.467 472.825 315.279 471.565 315.279 469.765ZM328.916 474.661C330.536 474.661 331.562 473.995 332.192 472.951V474.049C332.192 475.507 331.346 476.425 329.654 476.425C328.214 476.425 327.386 475.759 327.044 475.093L325.352 475.831C325.91 477.307 327.548 478.261 329.726 478.261C332.39 478.261 334.208 476.839 334.208 473.689V465.085H332.192V466.327C331.634 465.463 330.68 464.869 329.024 464.869C326.378 464.869 324.344 466.795 324.344 469.837C324.344 472.825 326.342 474.661 328.916 474.661ZM329.366 472.825C327.692 472.825 326.468 471.709 326.468 469.765C326.468 467.821 327.782 466.705 329.384 466.705C331.022 466.705 332.192 467.749 332.192 469.585V469.873C332.192 471.691 331.076 472.825 329.366 472.825ZM337.81 478.045H339.916L344.938 465.085H342.778L340.384 471.547L337.594 465.085H335.236L339.34 474.229L337.81 478.045Z" fill="black"/>
<path d="M55.6811 240.984H57.8771V231.192L61.5311 240.984H62.8451L66.3731 231.156V240.984H68.5691V228.384H65.4011L62.2691 237.51L58.9391 228.384H55.6811V240.984ZM75.3693 241.2C77.4753 241.2 79.0413 240.21 79.7613 238.536L78.0333 237.96C77.5293 238.842 76.7193 239.364 75.4233 239.364C73.8213 239.364 72.6513 238.41 72.5253 237.006H80.0673C80.1033 236.646 80.1213 236.286 80.1213 236.016C80.1213 233.19 78.0513 231.408 75.3873 231.408C72.3993 231.408 70.4193 233.478 70.4193 236.286C70.4193 239.202 72.3993 241.2 75.3693 241.2ZM75.3513 233.244C76.8093 233.244 78.0153 234.108 78.0693 235.35H72.5433C72.7233 234.09 73.8393 233.244 75.3513 233.244ZM85.5633 241.2C87.2193 241.2 88.3173 240.516 88.9113 239.49V240.984H90.9273V227.844H88.9113V232.866C88.3353 232.002 87.3273 231.408 85.6893 231.408C83.1333 231.408 81.0633 233.352 81.0633 236.376C81.0633 239.382 82.9713 241.2 85.5633 241.2ZM86.0313 239.364C84.3933 239.364 83.1873 238.248 83.1873 236.304C83.1873 234.36 84.5193 233.244 86.1033 233.244C87.7233 233.244 88.9113 234.324 88.9113 236.124V236.43C88.9113 238.284 87.7413 239.364 86.0313 239.364ZM93.1616 240.984H95.1776V231.624H93.1616V240.984ZM92.9816 228.924C92.9816 229.536 93.4856 230.022 94.1696 230.022C94.8536 230.022 95.3576 229.536 95.3576 228.924C95.3576 228.312 94.8536 227.826 94.1696 227.826C93.4856 227.826 92.9816 228.312 92.9816 228.924ZM98.6688 234.828C99.0108 233.784 99.8388 233.244 101.153 233.244C102.539 233.244 103.187 233.928 103.187 235.278C98.6508 235.296 96.7428 236.25 96.7428 238.356C96.7428 240.03 97.9488 241.2 100.001 241.2C101.567 241.2 102.701 240.408 103.151 239.418V240.984H105.203V235.404C105.203 232.776 103.835 231.408 101.225 231.408C98.9748 231.408 97.4628 232.416 96.9408 234.252L98.6688 234.828ZM100.487 239.4C99.4788 239.4 98.8668 238.95 98.8668 238.23C98.8668 237.132 100.073 236.754 103.187 236.754V237.042C103.187 238.446 102.107 239.4 100.487 239.4ZM46.639 260.78C46.063 261.842 45.235 262.364 44.065 262.364C42.337 262.364 41.113 261.104 41.113 259.286C41.113 257.468 42.301 256.244 44.065 256.244C45.253 256.244 46.045 256.748 46.657 257.828L48.385 257.252C47.647 255.452 46.045 254.408 43.975 254.408C41.023 254.408 38.989 256.388 38.989 259.286C38.989 262.202 41.023 264.2 43.993 264.2C46.117 264.2 47.737 263.12 48.367 261.356L46.639 260.78ZM49.1758 259.286C49.1758 262.22 51.2818 264.2 54.2158 264.2C57.2218 264.2 59.3098 262.13 59.3098 259.286C59.3098 256.46 57.2218 254.408 54.2158 254.408C51.2278 254.408 49.1758 256.424 49.1758 259.286ZM51.2998 259.304C51.2998 257.414 52.5418 256.244 54.2158 256.244C55.9078 256.244 57.1858 257.432 57.1858 259.304C57.1858 261.194 55.9978 262.364 54.2338 262.364C52.4878 262.364 51.2998 261.104 51.2998 259.304ZM60.9947 263.984H63.0107V258.782C63.0107 257.018 64.0547 256.244 65.3867 256.244C66.9527 256.244 67.7447 257.018 67.7447 258.854V263.984H69.7607V258.476C69.7607 255.704 68.3927 254.408 65.9987 254.408C64.5587 254.408 63.5327 255.02 63.0107 255.956V254.624H60.9947V263.984ZM70.7369 256.46H72.3389V261.14C72.3389 263.462 73.2749 264.2 75.2009 264.2C75.8669 264.2 76.5329 264.11 77.0729 263.966V262.13C76.5509 262.256 76.0469 262.328 75.6149 262.328C74.6969 262.328 74.3549 262.022 74.3549 261.032V256.46H77.0369V254.624H74.3549V252.302H72.3389V254.624H70.7369V256.46ZM82.8232 264.2C84.9292 264.2 86.4952 263.21 87.2152 261.536L85.4872 260.96C84.9832 261.842 84.1732 262.364 82.8772 262.364C81.2752 262.364 80.1052 261.41 79.9792 260.006H87.5212C87.5572 259.646 87.5752 259.286 87.5752 259.016C87.5752 256.19 85.5052 254.408 82.8412 254.408C79.8532 254.408 77.8732 256.478 77.8732 259.286C77.8732 262.202 79.8532 264.2 82.8232 264.2ZM82.8052 256.244C84.2632 256.244 85.4692 257.108 85.5232 258.35H79.9972C80.1772 257.09 81.2932 256.244 82.8052 256.244ZM89.1998 263.984H91.2158V258.782C91.2158 257.018 92.2598 256.244 93.5918 256.244C95.1578 256.244 95.9498 257.018 95.9498 258.854V263.984H97.9658V258.476C97.9658 255.704 96.5978 254.408 94.2038 254.408C92.7638 254.408 91.7378 255.02 91.2158 255.956V254.624H89.1998V263.984ZM98.942 256.46H100.544V261.14C100.544 263.462 101.48 264.2 103.406 264.2C104.072 264.2 104.738 264.11 105.278 263.966V262.13C104.756 262.256 104.252 262.328 103.82 262.328C102.902 262.328 102.56 262.022 102.56 261.032V256.46H105.242V254.624H102.56V252.302H100.544V254.624H98.942V256.46Z" fill="black"/>
<path d="M391.349 154.998L385.465 141.823L399.1 146.546L391.349 154.998Z" fill="#648494" stroke="#648494"/>
</svg>
