<svg viewBox="0 0 594 503" fill="none" xmlns="http://www.w3.org/2000/svg">
<path d="M268.691 71.6369C363.95 70.3134 442.247 146.464 443.57 241.724C444.894 336.984 368.743 415.28 273.483 416.604C178.223 417.927 99.9271 341.777 98.6036 246.517C97.2801 151.257 173.431 72.9604 268.691 71.6369ZM272.57 350.887C331.536 350.068 378.673 301.603 377.854 242.637C377.035 183.671 328.569 136.534 269.604 137.353C210.638 138.172 163.5 186.638 164.32 245.604C165.139 304.57 213.604 351.707 272.57 350.887Z" fill="#EBF2F8"/>
<path fill-rule="evenodd" clip-rule="evenodd" d="M139.508 245.652C139.518 246.314 138.988 246.859 138.326 246.869C137.663 246.878 137.118 246.349 137.109 245.686L137.107 245.584C137.098 244.922 137.628 244.377 138.291 244.368C138.954 244.359 139.498 244.889 139.507 245.552L139.508 245.652ZM138.458 250.492C139.12 250.453 139.688 250.957 139.727 251.619L139.733 251.718C139.772 252.379 139.268 252.948 138.606 252.987C137.945 253.027 137.377 252.523 137.337 251.861L137.331 251.761C137.292 251.099 137.797 250.531 138.458 250.492ZM138.323 240.743C137.66 240.722 137.14 240.168 137.161 239.506L137.164 239.405C137.185 238.743 137.739 238.223 138.402 238.244C139.064 238.265 139.584 238.819 139.563 239.482L139.56 239.581C139.539 240.243 138.985 240.763 138.323 240.743ZM138.904 256.599C139.563 256.53 140.154 257.008 140.223 257.667L140.233 257.766C140.303 258.425 139.826 259.016 139.167 259.086C138.508 259.156 137.917 258.678 137.847 258.019L137.836 257.918C137.767 257.259 138.245 256.669 138.904 256.599ZM138.599 234.625C137.938 234.574 137.444 233.997 137.495 233.336L137.503 233.236C137.554 232.575 138.131 232.081 138.792 232.133C139.453 232.184 139.947 232.761 139.895 233.422L139.888 233.521C139.837 234.182 139.26 234.676 138.599 234.625ZM139.63 262.679C140.285 262.579 140.897 263.03 140.997 263.685L141.012 263.783C141.112 264.438 140.662 265.051 140.007 265.151C139.351 265.251 138.739 264.801 138.639 264.146L138.624 264.046C138.524 263.391 138.975 262.779 139.63 262.679ZM139.155 228.528C138.498 228.446 138.03 227.847 138.112 227.189L138.124 227.089C138.206 226.431 138.806 225.965 139.463 226.047C140.121 226.128 140.588 226.728 140.506 227.386L140.494 227.484C140.412 228.142 139.813 228.609 139.155 228.528ZM140.635 268.718C141.285 268.588 141.917 269.01 142.047 269.66L142.067 269.757C142.197 270.407 141.776 271.039 141.126 271.17C140.476 271.3 139.844 270.879 139.714 270.229L139.694 270.13C139.564 269.48 139.985 268.848 140.635 268.718ZM139.993 222.463C139.339 222.351 138.9 221.731 139.012 221.078L139.029 220.978C139.142 220.325 139.762 219.887 140.415 219.999C141.068 220.111 141.507 220.732 141.395 221.385L141.378 221.483C141.266 222.136 140.646 222.575 139.993 222.463ZM141.919 274.703C142.563 274.544 143.214 274.935 143.374 275.578L143.398 275.675C143.558 276.318 143.167 276.969 142.524 277.13C141.881 277.29 141.229 276.899 141.069 276.256L141.044 276.158C140.885 275.514 141.276 274.863 141.919 274.703ZM141.11 216.444C140.463 216.302 140.053 215.663 140.195 215.015L140.217 214.916C140.359 214.269 140.999 213.86 141.647 214.002C142.294 214.145 142.703 214.785 142.561 215.432L142.539 215.529C142.397 216.177 141.757 216.586 141.11 216.444ZM143.48 280.622C144.115 280.433 144.784 280.794 144.974 281.429L145.002 281.524C145.192 282.159 144.832 282.828 144.197 283.018C143.562 283.208 142.893 282.848 142.703 282.213L142.674 282.116C142.484 281.481 142.845 280.812 143.48 280.622ZM142.506 210.484C141.866 210.312 141.486 209.654 141.658 209.014L141.685 208.916C141.857 208.276 142.516 207.897 143.156 208.07C143.796 208.242 144.174 208.901 144.002 209.541L143.976 209.637C143.804 210.277 143.146 210.656 142.506 210.484ZM145.315 286.462C145.941 286.243 146.625 286.573 146.844 287.198L146.877 287.292C147.097 287.918 146.768 288.602 146.142 288.822C145.517 289.041 144.832 288.712 144.613 288.087L144.579 287.991C144.36 287.366 144.69 286.681 145.315 286.462ZM144.178 204.596C143.546 204.394 143.198 203.719 143.4 203.088L143.43 202.991C143.632 202.36 144.308 202.012 144.939 202.214C145.57 202.416 145.918 203.092 145.716 203.723L145.686 203.818C145.484 204.449 144.809 204.797 144.178 204.596ZM147.42 292.21C148.034 291.963 148.733 292.26 148.981 292.875L149.019 292.967C149.267 293.581 148.97 294.281 148.356 294.529C147.741 294.777 147.042 294.481 146.794 293.866L146.756 293.772C146.508 293.158 146.805 292.458 147.42 292.21ZM146.122 198.791C145.5 198.561 145.184 197.87 145.415 197.249L145.45 197.154C145.681 196.533 146.372 196.216 146.993 196.448C147.614 196.679 147.93 197.37 147.699 197.991L147.664 198.084C147.434 198.705 146.743 199.022 146.122 198.791ZM149.789 297.855C150.392 297.578 151.104 297.843 151.38 298.445L151.422 298.536C151.698 299.138 151.434 299.85 150.832 300.127C150.23 300.404 149.518 300.14 149.241 299.538L149.199 299.445C148.922 298.843 149.187 298.131 149.789 297.855ZM148.334 193.084C147.724 192.824 147.44 192.12 147.699 191.51L147.739 191.417C147.998 190.807 148.703 190.523 149.313 190.783C149.923 191.043 150.206 191.748 149.947 192.357L149.908 192.449C149.648 193.059 148.944 193.343 148.334 193.084ZM152.419 303.382C153.008 303.079 153.731 303.31 154.035 303.899L154.081 303.987C154.385 304.576 154.155 305.3 153.566 305.604C152.977 305.908 152.253 305.678 151.949 305.089L151.902 304.999C151.599 304.41 151.83 303.686 152.419 303.382ZM150.808 187.485C150.211 187.197 149.96 186.48 150.247 185.883L150.291 185.792C150.579 185.195 151.297 184.944 151.894 185.232C152.491 185.52 152.741 186.237 152.453 186.834L152.41 186.924C152.123 187.521 151.406 187.772 150.808 187.485ZM155.302 308.783C155.876 308.452 156.61 308.649 156.94 309.223L156.99 309.31C157.321 309.884 157.125 310.617 156.551 310.949C155.977 311.28 155.243 311.083 154.911 310.509L154.861 310.421C154.53 309.847 154.727 309.113 155.302 308.783ZM153.54 182.007C152.957 181.692 152.739 180.964 153.054 180.381L153.102 180.292C153.417 179.709 154.146 179.491 154.729 179.807C155.312 180.122 155.529 180.85 155.213 181.433L155.166 181.521C154.851 182.104 154.124 182.321 153.54 182.007ZM158.431 314.043C158.99 313.686 159.732 313.85 160.089 314.408L160.143 314.492C160.5 315.05 160.337 315.792 159.779 316.15C159.221 316.507 158.479 316.344 158.121 315.786L158.067 315.701C157.71 315.143 157.873 314.4 158.431 314.043ZM156.523 176.661C155.955 176.32 155.771 175.582 156.112 175.014L156.164 174.927C156.506 174.36 157.244 174.176 157.811 174.518C158.379 174.86 158.562 175.597 158.221 176.165L158.169 176.25C157.828 176.818 157.091 177.002 156.523 176.661ZM161.801 319.154C162.342 318.772 163.091 318.901 163.474 319.442L163.531 319.523C163.914 320.064 163.785 320.813 163.244 321.196C162.703 321.579 161.955 321.451 161.572 320.91L161.513 320.827C161.131 320.285 161.26 319.537 161.801 319.154ZM159.749 171.458C159.197 171.091 159.048 170.346 159.415 169.795L159.471 169.71C159.839 169.159 160.584 169.01 161.135 169.377C161.687 169.745 161.836 170.49 161.468 171.041L161.413 171.124C161.046 171.676 160.301 171.826 159.749 171.458ZM165.403 324.104C165.926 323.698 166.68 323.792 167.087 324.315L167.148 324.393C167.555 324.916 167.461 325.67 166.939 326.078C166.416 326.485 165.662 326.391 165.254 325.868L165.192 325.788C164.785 325.265 164.88 324.511 165.403 324.104ZM163.212 166.41C162.678 166.018 162.562 165.267 162.955 164.733L163.015 164.651C163.407 164.117 164.158 164.003 164.692 164.395C165.226 164.788 165.341 165.539 164.948 166.073L164.889 166.153C164.497 166.687 163.746 166.802 163.212 166.41ZM169.228 328.884C169.732 328.453 170.49 328.513 170.92 329.016L170.985 329.092C171.416 329.596 171.357 330.353 170.853 330.784C170.35 331.215 169.592 331.156 169.161 330.652L169.096 330.575C168.665 330.072 168.725 329.314 169.228 328.884ZM166.903 161.526C166.388 161.11 166.307 160.355 166.723 159.839L166.787 159.76C167.204 159.245 167.959 159.165 168.475 159.582C168.99 159.998 169.07 160.754 168.653 161.269L168.591 161.347C168.174 161.862 167.419 161.943 166.903 161.526ZM173.27 333.482C173.753 333.029 174.513 333.053 174.966 333.537L175.034 333.61C175.488 334.093 175.464 334.852 174.98 335.306C174.497 335.759 173.738 335.735 173.284 335.252L173.215 335.178C172.762 334.695 172.786 333.935 173.27 333.482ZM170.815 156.818C170.319 156.378 170.274 155.62 170.713 155.124L170.78 155.048C171.22 154.552 171.979 154.507 172.474 154.947C172.97 155.387 173.015 156.145 172.575 156.641L172.509 156.716C172.07 157.211 171.311 157.257 170.815 156.818ZM177.518 337.89C177.98 337.415 178.74 337.405 179.215 337.867L179.286 337.936C179.762 338.398 179.772 339.158 179.311 339.633C178.849 340.109 178.089 340.119 177.614 339.658L177.541 339.587C177.066 339.125 177.056 338.365 177.518 337.89ZM174.94 152.293C174.464 151.831 174.453 151.072 174.915 150.596L174.986 150.524C175.448 150.049 176.208 150.039 176.683 150.501C177.158 150.963 177.168 151.723 176.706 152.198L176.636 152.269C176.175 152.744 175.415 152.755 174.94 152.293ZM181.964 342.098C182.404 341.603 183.163 341.558 183.658 341.998L183.733 342.064C184.229 342.503 184.274 343.262 183.835 343.758C183.395 344.253 182.637 344.299 182.141 343.86L182.065 343.792C181.569 343.352 181.524 342.594 181.964 342.098ZM179.267 147.963C178.814 147.48 178.838 146.72 179.321 146.267L179.395 146.198C179.878 145.744 180.638 145.769 181.091 146.253C181.544 146.736 181.519 147.496 181.036 147.949L180.963 148.017C180.48 148.47 179.721 148.446 179.267 147.963ZM186.599 346.098C187.016 345.583 187.771 345.503 188.287 345.92L188.364 345.982C188.88 346.398 188.96 347.154 188.544 347.67C188.127 348.185 187.372 348.266 186.856 347.849L186.777 347.786C186.262 347.369 186.182 346.613 186.599 346.098ZM183.789 143.836C183.358 143.333 183.417 142.575 183.92 142.144L183.997 142.078C184.501 141.648 185.259 141.707 185.689 142.211C186.12 142.715 186.06 143.473 185.556 143.903L185.481 143.968C184.977 144.399 184.22 144.34 183.789 143.836ZM191.412 349.881C191.805 349.347 192.556 349.232 193.09 349.625L193.17 349.684C193.704 350.076 193.82 350.827 193.427 351.361C193.035 351.895 192.284 352.01 191.75 351.618L191.668 351.558C191.134 351.166 191.02 350.415 191.412 349.881ZM188.495 139.921C188.088 139.399 188.182 138.645 188.704 138.237L188.784 138.175C189.308 137.768 190.061 137.862 190.468 138.385C190.875 138.909 190.781 139.663 190.258 140.069L190.179 140.131C189.657 140.538 188.903 140.444 188.495 139.921ZM196.395 353.438C196.762 352.886 197.507 352.737 198.059 353.105L198.142 353.16C198.693 353.527 198.843 354.272 198.476 354.824C198.108 355.375 197.364 355.525 196.812 355.158L196.727 355.102C196.176 354.734 196.027 353.989 196.395 353.438ZM193.377 136.227C192.994 135.686 193.122 134.937 193.663 134.555L193.746 134.496C194.287 134.114 195.036 134.243 195.419 134.784C195.801 135.325 195.672 136.074 195.131 136.456L195.049 136.514C194.508 136.897 193.76 136.768 193.377 136.227ZM201.535 356.761C201.877 356.194 202.614 356.01 203.182 356.352L203.268 356.403C203.836 356.745 204.019 357.482 203.678 358.05C203.337 358.618 202.6 358.802 202.031 358.461L201.945 358.408C201.377 358.067 201.194 357.329 201.535 356.761ZM198.423 132.762C198.066 132.204 198.228 131.462 198.787 131.104L198.872 131.05C199.43 130.693 200.172 130.856 200.529 131.414C200.886 131.973 200.723 132.715 200.165 133.072L200.081 133.125C199.523 133.483 198.781 133.32 198.423 132.762ZM206.824 359.844C207.139 359.261 207.867 359.044 208.45 359.359L208.538 359.407C209.121 359.721 209.339 360.449 209.024 361.033C208.709 361.616 207.981 361.833 207.398 361.519L207.309 361.471C206.726 361.155 206.509 360.427 206.824 359.844ZM203.624 129.533C203.293 128.959 203.49 128.225 204.064 127.894L204.151 127.844C204.726 127.513 205.459 127.71 205.79 128.284C206.121 128.859 205.924 129.592 205.349 129.923L205.263 129.973C204.689 130.304 203.955 130.107 203.624 129.533ZM212.249 362.679C212.537 362.082 213.254 361.832 213.851 362.12L213.941 362.163C214.538 362.45 214.789 363.167 214.502 363.764C214.215 364.362 213.498 364.613 212.9 364.325L212.809 364.281C212.212 363.994 211.962 363.276 212.249 362.679ZM208.969 126.549C208.664 125.96 208.895 125.236 209.484 124.932L209.574 124.885C210.163 124.581 210.887 124.812 211.19 125.401C211.494 125.99 211.263 126.714 210.674 127.018L210.586 127.064C209.997 127.368 209.273 127.137 208.969 126.549ZM217.8 365.26C218.06 364.65 218.765 364.366 219.375 364.626L219.466 364.665C220.076 364.925 220.36 365.629 220.101 366.239C219.842 366.849 219.137 367.133 218.527 366.874L218.434 366.834C217.824 366.574 217.54 365.869 217.8 365.26ZM214.446 123.815C214.169 123.213 214.433 122.5 215.035 122.224L215.127 122.181C215.73 121.905 216.442 122.17 216.718 122.772C216.994 123.375 216.73 124.087 216.128 124.363L216.037 124.405C215.435 124.681 214.722 124.417 214.446 123.815ZM223.465 367.58C223.696 366.959 224.387 366.643 225.008 366.874L225.101 366.908C225.723 367.139 226.039 367.83 225.809 368.451C225.578 369.072 224.887 369.389 224.266 369.158L224.171 369.123C223.55 368.892 223.234 368.201 223.465 367.58ZM220.044 121.339C219.795 120.724 220.092 120.025 220.707 119.776L220.801 119.738C221.415 119.49 222.114 119.788 222.362 120.402C222.61 121.017 222.313 121.716 221.698 121.964L221.606 122.001C220.992 122.25 220.292 121.953 220.044 121.339ZM229.231 369.634C229.433 369.003 230.109 368.655 230.74 368.857L230.835 368.887C231.466 369.089 231.815 369.764 231.613 370.395C231.411 371.026 230.736 371.375 230.105 371.173L230.008 371.142C229.377 370.94 229.029 370.265 229.231 369.634ZM225.751 119.125C225.531 118.5 225.86 117.815 226.486 117.595L226.581 117.562C227.207 117.343 227.891 117.672 228.11 118.298C228.33 118.923 228 119.608 227.374 119.827L227.281 119.86C226.655 120.079 225.97 119.75 225.751 119.125ZM235.087 371.417C235.26 370.777 235.918 370.398 236.558 370.571L236.654 370.597C237.294 370.769 237.674 371.427 237.502 372.067C237.33 372.707 236.671 373.086 236.031 372.914L235.934 372.888C235.294 372.716 234.915 372.057 235.087 371.417ZM231.555 117.18C231.365 116.545 231.725 115.876 232.36 115.686L232.457 115.657C233.092 115.467 233.761 115.828 233.95 116.463C234.14 117.098 233.779 117.767 233.144 117.956L233.049 117.985C232.414 118.175 231.745 117.815 231.555 117.18ZM241.02 372.926C241.162 372.279 241.802 371.87 242.45 372.012L242.547 372.034C243.194 372.176 243.604 372.815 243.462 373.463C243.32 374.11 242.68 374.52 242.032 374.378L241.934 374.356C241.286 374.214 240.877 373.573 241.02 372.926ZM237.443 115.506C237.283 114.863 237.674 114.212 238.317 114.052L238.415 114.027C239.058 113.867 239.709 114.259 239.869 114.902C240.029 115.545 239.638 116.196 238.994 116.356L238.898 116.38C238.255 116.541 237.604 116.15 237.443 115.506ZM247.016 374.158C247.128 373.504 247.749 373.066 248.402 373.178L248.5 373.195C249.153 373.307 249.592 373.927 249.48 374.58C249.369 375.233 248.749 375.672 248.095 375.561L247.996 375.544C247.342 375.431 246.904 374.811 247.016 374.158ZM243.403 114.109C243.273 113.459 243.694 112.827 244.344 112.696L244.443 112.676C245.093 112.547 245.725 112.968 245.855 113.618C245.985 114.268 245.563 114.9 244.913 115.03L244.816 115.049C244.166 115.18 243.534 114.759 243.403 114.109ZM253.064 375.109C253.146 374.452 253.745 373.985 254.403 374.067L254.501 374.079C255.159 374.161 255.626 374.76 255.545 375.417C255.464 376.075 254.864 376.542 254.207 376.461L254.106 376.449C253.449 376.367 252.982 375.767 253.064 375.109ZM249.422 112.989C249.322 112.334 249.772 111.722 250.427 111.622L250.527 111.607C251.182 111.507 251.794 111.957 251.894 112.613C251.993 113.268 251.543 113.88 250.888 113.979L250.79 113.994C250.135 114.094 249.522 113.645 249.422 112.989ZM259.15 375.781C259.201 375.12 259.779 374.626 260.439 374.678L260.538 374.685C261.199 374.736 261.693 375.313 261.642 375.974C261.591 376.635 261.014 377.129 260.354 377.078L260.253 377.07C259.592 377.019 259.098 376.441 259.15 375.781ZM255.487 112.149C255.417 111.49 255.895 110.899 256.554 110.83L256.654 110.819C257.313 110.75 257.904 111.228 257.973 111.887C258.043 112.546 257.565 113.137 256.905 113.206L256.807 113.216C256.148 113.286 255.557 112.808 255.487 112.149ZM265.261 376.171C265.283 375.509 265.837 374.989 266.499 375.01L266.598 375.013C267.26 375.034 267.781 375.588 267.76 376.25C267.739 376.912 267.186 377.433 266.523 377.412L266.422 377.409C265.76 377.388 265.24 376.834 265.261 376.171ZM261.585 111.589C261.546 110.928 262.05 110.359 262.712 110.32L262.812 110.314C263.474 110.275 264.042 110.779 264.081 111.441C264.12 112.103 263.615 112.671 262.954 112.71L262.855 112.715C262.193 112.755 261.625 112.251 261.585 111.589ZM271.385 376.282C271.376 375.619 271.906 375.075 272.569 375.066L272.669 375.064C273.332 375.055 273.877 375.584 273.886 376.247C273.895 376.91 273.366 377.455 272.703 377.464L272.602 377.466C271.939 377.475 271.394 376.945 271.385 376.282ZM267.704 111.308C267.695 110.646 268.224 110.101 268.887 110.091L268.938 110.091C269.6 110.081 270.145 110.611 270.154 111.274C270.163 111.937 269.634 112.481 268.971 112.49L268.921 112.491C268.258 112.501 267.713 111.971 267.704 111.308ZM277.509 376.115C277.47 375.453 277.975 374.885 278.636 374.846L278.735 374.84C279.397 374.801 279.965 375.305 280.005 375.966C280.044 376.628 279.54 377.196 278.878 377.236L278.778 377.242C278.116 377.281 277.548 376.776 277.509 376.115ZM283.617 375.669C283.547 375.01 284.025 374.419 284.685 374.35L284.783 374.339C285.442 374.27 286.033 374.747 286.103 375.406C286.173 376.065 285.695 376.656 285.036 376.726L284.936 376.737C284.277 376.806 283.686 376.328 283.617 375.669ZM289.696 374.943C289.597 374.288 290.047 373.676 290.702 373.576L290.8 373.561C291.456 373.461 292.068 373.911 292.168 374.566C292.268 375.221 291.818 375.834 291.163 375.934L291.063 375.949C290.408 376.049 289.796 375.598 289.696 374.943ZM295.735 373.938C295.605 373.288 296.027 372.656 296.677 372.526L296.774 372.506C297.424 372.376 298.056 372.797 298.187 373.447C298.317 374.096 297.896 374.729 297.246 374.859L297.147 374.879C296.497 375.009 295.865 374.587 295.735 373.938ZM301.721 372.653C301.561 372.01 301.952 371.359 302.596 371.199L302.692 371.175C303.335 371.015 303.986 371.406 304.147 372.049C304.307 372.692 303.916 373.343 303.273 373.504L303.175 373.528C302.532 373.688 301.881 373.296 301.721 372.653ZM307.64 371.092C307.45 370.457 307.811 369.789 308.446 369.599L308.541 369.571C309.176 369.381 309.845 369.741 310.035 370.376C310.225 371.011 309.865 371.68 309.23 371.87L309.133 371.899C308.498 372.088 307.829 371.727 307.64 371.092ZM313.48 369.258C313.261 368.632 313.59 367.948 314.216 367.729L314.309 367.696C314.935 367.476 315.62 367.805 315.839 368.43C316.059 369.056 315.73 369.741 315.104 369.96L315.009 369.994C314.383 370.213 313.699 369.883 313.48 369.258ZM319.228 367.153C318.98 366.539 319.277 365.839 319.892 365.591L319.984 365.554C320.598 365.306 321.298 365.603 321.546 366.217C321.795 366.831 321.498 367.531 320.883 367.779L320.789 367.817C320.175 368.065 319.476 367.768 319.228 367.153ZM324.872 364.783C324.596 364.181 324.86 363.469 325.462 363.193L325.553 363.151C326.155 362.874 326.868 363.138 327.144 363.741C327.421 364.343 327.157 365.055 326.555 365.332L326.463 365.374C325.86 365.65 325.148 365.386 324.872 364.783ZM330.4 362.154C330.096 361.565 330.327 360.841 330.916 360.538L331.004 360.492C331.593 360.188 332.317 360.418 332.621 361.007C332.926 361.596 332.695 362.32 332.106 362.624L332.016 362.67C331.427 362.974 330.704 362.743 330.4 362.154ZM335.8 359.271C335.469 358.697 335.666 357.963 336.241 357.632L336.327 357.583C336.901 357.251 337.635 357.448 337.966 358.022C338.297 358.596 338.1 359.33 337.526 359.661L337.439 359.712C336.864 360.043 336.131 359.845 335.8 359.271ZM341.061 356.141C340.704 355.583 340.867 354.841 341.425 354.484L341.509 354.43C342.067 354.073 342.809 354.236 343.167 354.794C343.524 355.352 343.362 356.094 342.803 356.451L342.718 356.506C342.16 356.863 341.418 356.7 341.061 356.141ZM346.172 352.772C345.789 352.23 345.918 351.482 346.459 351.099L346.541 351.042C347.082 350.659 347.831 350.787 348.213 351.328C348.596 351.869 348.468 352.618 347.927 353.001L347.844 353.06C347.303 353.442 346.554 353.313 346.172 352.772ZM351.122 349.17C350.715 348.647 350.809 347.893 351.332 347.486L351.411 347.425C351.934 347.018 352.688 347.111 353.095 347.634C353.502 348.157 353.408 348.911 352.886 349.318L352.806 349.381C352.283 349.787 351.529 349.693 351.122 349.17ZM355.901 345.344C355.47 344.841 355.53 344.083 356.034 343.653L356.109 343.588C356.613 343.157 357.37 343.216 357.801 343.719C358.232 344.223 358.173 344.981 357.67 345.411L357.593 345.477C357.089 345.908 356.331 345.848 355.901 345.344ZM360.499 341.303C360.046 340.819 360.071 340.06 360.554 339.607L360.627 339.539C361.11 339.085 361.869 339.109 362.323 339.593C362.777 340.076 362.753 340.835 362.269 341.289L362.195 341.358C361.712 341.811 360.952 341.787 360.499 341.303ZM364.907 337.055C364.432 336.592 364.422 335.833 364.884 335.358L364.954 335.286C365.416 334.811 366.175 334.8 366.651 335.262C367.126 335.724 367.137 336.484 366.675 336.959L366.604 337.032C366.142 337.507 365.382 337.517 364.907 337.055ZM364.004 149.598C364.474 149.131 365.234 149.134 365.701 149.604L365.736 149.639C366.202 150.11 366.199 150.87 365.729 151.336C365.258 151.803 364.498 151.8 364.031 151.329L363.997 151.295C363.53 150.825 363.533 150.065 364.004 149.598ZM369.116 332.609C368.62 332.169 368.575 331.41 369.015 330.914L369.081 330.84C369.52 330.344 370.279 330.298 370.775 330.738C371.271 331.178 371.316 331.936 370.877 332.432L370.81 332.508C370.37 333.003 369.611 333.048 369.116 332.609ZM368.128 153.865C368.619 153.42 369.378 153.456 369.823 153.947L369.89 154.02C370.335 154.511 370.297 155.27 369.806 155.715C369.315 156.16 368.556 156.123 368.111 155.632L368.046 155.56C367.601 155.069 367.637 154.311 368.128 153.865ZM373.115 327.974C372.6 327.557 372.52 326.802 372.937 326.286L372.999 326.209C373.416 325.693 374.171 325.613 374.687 326.029C375.202 326.445 375.283 327.201 374.867 327.717L374.803 327.795C374.386 328.311 373.631 328.391 373.115 327.974ZM372.09 158.349C372.6 157.926 373.357 157.997 373.78 158.507L373.843 158.583C374.265 159.094 374.194 159.85 373.684 160.273C373.173 160.695 372.417 160.624 371.994 160.114L371.932 160.039C371.509 159.529 371.58 158.772 372.09 158.349ZM376.898 323.16C376.364 322.768 376.249 322.017 376.642 321.483L376.701 321.403C377.093 320.868 377.844 320.753 378.378 321.145C378.913 321.538 379.028 322.289 378.635 322.823L378.575 322.905C378.183 323.438 377.432 323.553 376.898 323.16ZM375.846 163.006C376.375 162.607 377.128 162.711 377.527 163.24L377.587 163.319C377.986 163.848 377.881 164.601 377.352 165C376.823 165.399 376.07 165.294 375.671 164.765L375.613 164.687C375.213 164.159 375.318 163.406 375.846 163.006ZM380.455 318.178C379.903 317.811 379.754 317.066 380.122 316.514L380.177 316.431C380.544 315.88 381.289 315.73 381.841 316.097C382.393 316.464 382.542 317.209 382.175 317.761L382.119 317.845C381.751 318.397 381.006 318.546 380.455 318.178ZM379.39 167.828C379.936 167.453 380.683 167.591 381.058 168.137L381.114 168.219C381.489 168.765 381.35 169.512 380.804 169.887C380.257 170.262 379.51 170.123 379.135 169.577L379.08 169.497C378.705 168.951 378.843 168.203 379.39 167.828ZM383.779 313.037C383.211 312.696 383.028 311.958 383.369 311.391L383.421 311.305C383.762 310.737 384.499 310.553 385.067 310.895C385.635 311.236 385.819 311.973 385.478 312.541L385.426 312.628C385.084 313.196 384.346 313.379 383.779 313.037ZM382.712 172.804C383.274 172.454 384.015 172.626 384.365 173.189L384.417 173.273C384.767 173.835 384.595 174.575 384.032 174.925C383.469 175.275 382.729 175.103 382.379 174.54L382.328 174.457C381.977 173.895 382.149 173.155 382.712 172.804ZM386.862 307.749C386.279 307.434 386.061 306.706 386.377 306.123L386.424 306.035C386.739 305.452 387.467 305.234 388.05 305.549C388.633 305.864 388.851 306.592 388.536 307.175L388.488 307.264C388.173 307.847 387.445 308.064 386.862 307.749ZM385.806 177.926C386.384 177.601 387.116 177.806 387.44 178.384L387.489 178.47C387.813 179.048 387.607 179.78 387.029 180.104C386.451 180.428 385.72 180.222 385.395 179.644L385.348 179.56C385.023 178.982 385.229 178.25 385.806 177.926ZM389.697 302.323C389.1 302.036 388.849 301.318 389.137 300.721L389.18 300.632C389.467 300.035 390.184 299.783 390.782 300.071C391.379 300.358 391.63 301.075 391.343 301.672L391.299 301.764C391.011 302.361 390.293 302.611 389.697 302.323ZM388.666 183.182C389.258 182.883 389.979 183.122 390.277 183.714L390.322 183.802C390.62 184.394 390.381 185.115 389.789 185.413C389.197 185.711 388.475 185.472 388.178 184.88L388.134 184.793C387.836 184.201 388.074 183.48 388.666 183.182ZM392.277 296.773C391.667 296.513 391.384 295.808 391.643 295.198L391.682 295.107C391.942 294.497 392.646 294.213 393.256 294.472C393.866 294.731 394.15 295.436 393.891 296.046L393.851 296.139C393.592 296.749 392.887 297.032 392.277 296.773ZM391.284 188.562C391.889 188.291 392.599 188.562 392.87 189.166L392.911 189.257C393.181 189.862 392.91 190.571 392.305 190.842C391.7 191.112 390.99 190.841 390.72 190.236L390.68 190.147C390.409 189.543 390.68 188.833 391.284 188.562ZM394.597 291.108C393.976 290.877 393.66 290.186 393.891 289.565L393.926 289.471C394.156 288.85 394.847 288.534 395.468 288.764C396.09 288.995 396.406 289.686 396.175 290.307L396.14 290.402C395.909 291.023 395.218 291.339 394.597 291.108ZM393.656 194.055C394.273 193.812 394.969 194.115 395.213 194.731L395.249 194.823C395.492 195.44 395.188 196.137 394.572 196.38C393.955 196.622 393.258 196.319 393.016 195.702L392.98 195.612C392.737 194.995 393.039 194.299 393.656 194.055ZM396.651 285.341C396.02 285.139 395.672 284.464 395.874 283.833L395.904 283.738C396.106 283.107 396.781 282.758 397.412 282.96C398.044 283.161 398.392 283.837 398.191 284.468L398.16 284.564C397.958 285.196 397.282 285.544 396.651 285.341ZM395.775 199.651C396.402 199.436 397.085 199.77 397.3 200.397L397.332 200.491C397.546 201.118 397.211 201.8 396.584 202.015C395.957 202.229 395.275 201.894 395.061 201.267L395.029 201.176C394.814 200.549 395.148 199.866 395.775 199.651ZM398.434 279.486C397.795 279.313 397.416 278.655 397.588 278.015L397.614 277.919C397.786 277.279 398.444 276.899 399.084 277.071C399.724 277.243 400.104 277.901 399.932 278.541L399.905 278.639C399.733 279.279 399.074 279.658 398.434 279.486ZM397.638 205.338C398.274 205.152 398.941 205.517 399.127 206.153L399.154 206.248C399.34 206.884 398.975 207.55 398.339 207.736C397.702 207.921 397.036 207.556 396.851 206.92L396.823 206.827C396.637 206.191 397.002 205.524 397.638 205.338ZM399.943 273.553C399.296 273.411 398.887 272.771 399.029 272.123L399.051 272.026C399.193 271.379 399.833 270.969 400.48 271.111C401.127 271.253 401.537 271.893 401.395 272.54L401.373 272.639C401.231 273.286 400.591 273.696 399.943 273.553ZM399.24 211.103C399.884 210.946 400.533 211.34 400.69 211.984L400.713 212.08C400.87 212.724 400.475 213.373 399.831 213.53C399.187 213.686 398.538 213.291 398.381 212.647L398.358 212.553C398.201 211.909 398.596 211.26 399.24 211.103ZM401.175 267.557C400.522 267.444 400.083 266.824 400.195 266.171L400.212 266.073C400.324 265.42 400.944 264.981 401.597 265.092C402.251 265.204 402.69 265.824 402.578 266.478L402.561 266.577C402.449 267.23 401.828 267.669 401.175 267.557ZM400.578 216.934C401.228 216.806 401.859 217.23 401.986 217.881L402.005 217.978C402.133 218.628 401.708 219.259 401.058 219.386C400.408 219.513 399.777 219.089 399.65 218.438L399.631 218.343C399.504 217.692 399.927 217.062 400.578 216.934ZM402.127 261.509C401.469 261.427 401.002 260.828 401.084 260.17L401.096 260.071C401.178 259.414 401.777 258.946 402.435 259.028C403.092 259.109 403.56 259.708 403.478 260.366L403.466 260.466C403.384 261.124 402.784 261.591 402.127 261.509ZM401.65 222.82C402.306 222.722 402.916 223.174 403.014 223.83L403.029 223.928C403.127 224.583 402.674 225.194 402.019 225.291C401.363 225.389 400.753 224.936 400.655 224.281L400.641 224.185C400.543 223.529 400.995 222.918 401.65 222.82ZM402.798 255.423C402.137 255.372 401.643 254.794 401.695 254.133L401.702 254.035C401.753 253.374 402.33 252.879 402.991 252.93C403.652 252.981 404.146 253.558 404.095 254.219L404.088 254.32C404.036 254.981 403.459 255.474 402.798 255.423ZM402.455 228.749C403.115 228.681 403.704 229.16 403.773 229.819L403.783 229.917C403.851 230.577 403.372 231.166 402.712 231.234C402.053 231.302 401.464 230.823 401.396 230.164L401.386 230.067C401.317 229.408 401.796 228.818 402.455 228.749ZM403.188 249.311C402.526 249.29 402.006 248.736 402.027 248.074L402.03 247.975C402.051 247.312 402.605 246.792 403.267 246.813C403.93 246.833 404.45 247.387 404.429 248.05L404.426 248.15C404.405 248.813 403.851 249.333 403.188 249.311ZM402.993 234.709C403.655 234.67 404.223 235.175 404.262 235.837L404.267 235.936C404.306 236.597 403.8 237.165 403.139 237.203C402.477 237.241 401.91 236.736 401.871 236.074L401.866 235.978C401.827 235.316 402.332 234.748 402.993 234.709ZM403.299 243.187C402.636 243.196 402.092 242.666 402.083 242.004L402.082 241.905C402.072 241.242 402.602 240.697 403.264 240.688C403.927 240.679 404.472 241.208 404.481 241.871L404.482 241.92L404.483 241.971C404.492 242.634 403.962 243.178 403.299 243.187Z" fill="#648494"/>
<path d="M392.928 121.977C376.91 105.959 357.893 93.2528 336.965 84.5839C316.036 75.915 293.605 71.4531 270.952 71.4531C248.299 71.4531 225.868 75.915 204.939 84.5839C184.01 93.2528 164.994 105.959 148.976 121.977L161.174 134.175C175.59 119.759 192.704 108.323 211.54 100.521C230.376 92.7188 250.564 88.7031 270.952 88.7031C291.34 88.7031 311.528 92.7188 330.363 100.521C349.199 108.323 366.314 119.759 380.73 134.175L392.928 121.977Z" fill="#003E14"/>
<path d="M148.995 365.928C132.977 349.91 120.27 330.893 111.601 309.965C102.933 289.036 98.4707 266.605 98.4707 243.952C98.4707 221.299 102.933 198.868 111.601 177.939C120.27 157.01 132.977 137.994 148.995 121.976L161.192 134.174C146.776 148.59 135.34 165.704 127.538 184.54C119.736 203.376 115.721 223.564 115.721 243.952C115.721 264.34 119.736 284.528 127.538 303.363C135.34 322.199 146.776 339.314 161.192 353.73L148.995 365.928Z" fill="#5FAF2D"/>
<path d="M392.947 121.978C408.965 137.997 421.671 157.013 430.34 177.942C439.009 198.87 443.471 221.301 443.471 243.954C443.471 266.607 439.009 289.039 430.34 309.967C421.671 330.896 408.965 349.912 392.947 365.93L380.749 353.733C395.165 339.316 406.601 322.202 414.403 303.366C422.205 284.53 426.221 264.342 426.221 243.954C426.221 223.567 422.205 203.379 414.403 184.543C406.601 165.707 395.165 148.592 380.749 134.176L392.947 121.978Z" fill="#648494"/>
<path d="M148.995 365.929C165.013 381.947 184.029 394.653 204.958 403.322C225.886 411.991 248.318 416.453 270.971 416.453C293.624 416.453 316.055 411.991 336.983 403.322C357.912 394.653 376.928 381.947 392.946 365.929L380.749 353.731C366.333 368.148 349.218 379.583 330.382 387.385C311.546 395.187 291.358 399.203 270.971 399.203C250.583 399.203 230.395 395.187 211.559 387.385C192.723 379.583 175.608 368.148 161.192 353.731L148.995 365.929Z" fill="#BFCED4"/>
<path d="M209.352 216.4H223.828V219.592H212.768V225.332H223.072V228.468H212.768V236H209.352V216.4ZM225.081 226.2C225.081 224.744 225.333 223.4 225.837 222.168C226.36 220.936 227.069 219.872 227.965 218.976C228.88 218.061 229.953 217.352 231.185 216.848C232.436 216.325 233.789 216.064 235.245 216.064C236.683 216.064 238.017 216.316 239.249 216.82C240.481 217.305 241.555 217.996 242.469 218.892C243.384 219.788 244.093 220.861 244.597 222.112C245.12 223.344 245.381 224.707 245.381 226.2C245.381 227.675 245.12 229.037 244.597 230.288C244.093 231.52 243.384 232.584 242.469 233.48C241.555 234.376 240.481 235.076 239.249 235.58C238.017 236.084 236.683 236.336 235.245 236.336C233.789 236.336 232.445 236.093 231.213 235.608C229.981 235.104 228.908 234.404 227.993 233.508C227.079 232.612 226.36 231.548 225.837 230.316C225.333 229.065 225.081 227.693 225.081 226.2ZM228.609 226.2C228.609 227.208 228.777 228.141 229.113 229C229.468 229.84 229.944 230.568 230.541 231.184C231.139 231.8 231.839 232.285 232.641 232.64C233.444 232.976 234.312 233.144 235.245 233.144C236.197 233.144 237.075 232.976 237.877 232.64C238.699 232.285 239.399 231.8 239.977 231.184C240.575 230.568 241.032 229.84 241.349 229C241.685 228.141 241.853 227.208 241.853 226.2C241.853 225.192 241.676 224.268 241.321 223.428C240.985 222.569 240.519 221.832 239.921 221.216C239.324 220.6 238.624 220.124 237.821 219.788C237.019 219.433 236.16 219.256 235.245 219.256C234.312 219.256 233.444 219.433 232.641 219.788C231.839 220.124 231.139 220.6 230.541 221.216C229.944 221.832 229.468 222.569 229.113 223.428C228.777 224.268 228.609 225.192 228.609 226.2ZM247.128 226.2C247.128 224.744 247.38 223.4 247.884 222.168C248.407 220.936 249.116 219.872 250.012 218.976C250.927 218.061 252 217.352 253.232 216.848C254.483 216.325 255.836 216.064 257.292 216.064C258.729 216.064 260.064 216.316 261.296 216.82C262.528 217.305 263.601 217.996 264.516 218.892C265.431 219.788 266.14 220.861 266.644 222.112C267.167 223.344 267.428 224.707 267.428 226.2C267.428 227.675 267.167 229.037 266.644 230.288C266.14 231.52 265.431 232.584 264.516 233.48C263.601 234.376 262.528 235.076 261.296 235.58C260.064 236.084 258.729 236.336 257.292 236.336C255.836 236.336 254.492 236.093 253.26 235.608C252.028 235.104 250.955 234.404 250.04 233.508C249.125 232.612 248.407 231.548 247.884 230.316C247.38 229.065 247.128 227.693 247.128 226.2ZM250.656 226.2C250.656 227.208 250.824 228.141 251.16 229C251.515 229.84 251.991 230.568 252.588 231.184C253.185 231.8 253.885 232.285 254.688 232.64C255.491 232.976 256.359 233.144 257.292 233.144C258.244 233.144 259.121 232.976 259.924 232.64C260.745 232.285 261.445 231.8 262.024 231.184C262.621 230.568 263.079 229.84 263.396 229C263.732 228.141 263.9 227.208 263.9 226.2C263.9 225.192 263.723 224.268 263.368 223.428C263.032 222.569 262.565 221.832 261.968 221.216C261.371 220.6 260.671 220.124 259.868 219.788C259.065 219.433 258.207 219.256 257.292 219.256C256.359 219.256 255.491 219.433 254.688 219.788C253.885 220.124 253.185 220.6 252.588 221.216C251.991 221.832 251.515 222.569 251.16 223.428C250.824 224.268 250.656 225.192 250.656 226.2ZM270.105 216.4H276.769C278.729 216.4 280.391 216.652 281.753 217.156C283.135 217.66 284.245 218.341 285.085 219.2C285.944 220.059 286.56 221.067 286.933 222.224C287.325 223.381 287.521 224.613 287.521 225.92C287.521 227.357 287.297 228.692 286.849 229.924C286.42 231.156 285.739 232.22 284.805 233.116C283.891 234.012 282.715 234.721 281.277 235.244C279.859 235.748 278.16 236 276.181 236H270.105V216.4ZM273.521 219.592V232.808H276.405C277.712 232.808 278.841 232.64 279.793 232.304C280.745 231.968 281.529 231.511 282.145 230.932C282.78 230.335 283.247 229.625 283.545 228.804C283.844 227.983 283.993 227.077 283.993 226.088C283.993 225.136 283.853 224.268 283.573 223.484C283.312 222.681 282.883 221.991 282.285 221.412C281.707 220.833 280.951 220.385 280.017 220.068C279.103 219.751 277.983 219.592 276.657 219.592H273.521ZM289.43 234.04C289.43 233.499 289.617 233.032 289.99 232.64C290.382 232.248 290.895 232.052 291.53 232.052C292.146 232.052 292.641 232.248 293.014 232.64C293.406 233.032 293.602 233.499 293.602 234.04C293.602 234.619 293.406 235.104 293.014 235.496C292.641 235.888 292.146 236.084 291.53 236.084C290.895 236.084 290.382 235.888 289.99 235.496C289.617 235.104 289.43 234.619 289.43 234.04ZM296.836 236V216.4H305.18C306.598 216.4 307.784 216.568 308.736 216.904C309.688 217.221 310.453 217.66 311.032 218.22C311.61 218.78 312.021 219.433 312.264 220.18C312.525 220.908 312.656 221.673 312.656 222.476C312.656 223.932 312.254 225.155 311.452 226.144C310.649 227.133 309.604 227.824 308.316 228.216L313.972 236H309.856L304.816 228.888H300.252V236H296.836ZM300.252 219.592V225.696H304.984C306.216 225.696 307.214 225.435 307.98 224.912C308.745 224.371 309.128 223.615 309.128 222.644C309.128 222.196 309.053 221.785 308.904 221.412C308.773 221.039 308.54 220.721 308.204 220.46C307.868 220.18 307.429 219.965 306.888 219.816C306.346 219.667 305.684 219.592 304.9 219.592H300.252ZM332.645 227.796C332.645 229.308 332.411 230.605 331.945 231.688C331.478 232.771 330.862 233.657 330.097 234.348C329.331 235.039 328.454 235.543 327.465 235.86C326.475 236.177 325.458 236.336 324.413 236.336C323.218 236.336 322.089 236.159 321.025 235.804C319.979 235.431 319.055 234.88 318.253 234.152C317.469 233.424 316.843 232.519 316.377 231.436C315.929 230.353 315.705 229.084 315.705 227.628V216.4H319.121V227.208C319.121 228.179 319.251 229.037 319.513 229.784C319.774 230.512 320.138 231.128 320.605 231.632C321.09 232.136 321.65 232.519 322.285 232.78C322.938 233.023 323.647 233.144 324.413 233.144C326.055 233.144 327.269 232.64 328.053 231.632C328.837 230.605 329.229 229.177 329.229 227.348V216.4H332.645V227.796Z" fill="#222429"/>
<path d="M215.384 249.755H217.092V254.319L221.6 249.755H223.798L219.458 254.109L224.064 259.555H221.852L218.142 255.215L217.092 256.279V259.555H215.384V249.755ZM224.052 254.655C224.052 253.927 224.178 253.255 224.43 252.639C224.691 252.023 225.046 251.491 225.494 251.043C225.951 250.585 226.488 250.231 227.104 249.979C227.729 249.717 228.406 249.587 229.134 249.587C229.852 249.587 230.52 249.713 231.136 249.965C231.752 250.207 232.288 250.553 232.746 251.001C233.203 251.449 233.558 251.985 233.81 252.611C234.071 253.227 234.202 253.908 234.202 254.655C234.202 255.392 234.071 256.073 233.81 256.699C233.558 257.315 233.203 257.847 232.746 258.295C232.288 258.743 231.752 259.093 231.136 259.345C230.52 259.597 229.852 259.723 229.134 259.723C228.406 259.723 227.734 259.601 227.118 259.359C226.502 259.107 225.965 258.757 225.508 258.309C225.05 257.861 224.691 257.329 224.43 256.713C224.178 256.087 224.052 255.401 224.052 254.655ZM225.816 254.655C225.816 255.159 225.9 255.625 226.068 256.055C226.245 256.475 226.483 256.839 226.782 257.147C227.08 257.455 227.43 257.697 227.832 257.875C228.233 258.043 228.667 258.127 229.134 258.127C229.61 258.127 230.048 258.043 230.45 257.875C230.86 257.697 231.21 257.455 231.5 257.147C231.798 256.839 232.027 256.475 232.186 256.055C232.354 255.625 232.438 255.159 232.438 254.655C232.438 254.151 232.349 253.689 232.172 253.269C232.004 252.839 231.77 252.471 231.472 252.163C231.173 251.855 230.823 251.617 230.422 251.449C230.02 251.271 229.591 251.183 229.134 251.183C228.667 251.183 228.233 251.271 227.832 251.449C227.43 251.617 227.08 251.855 226.782 252.163C226.483 252.471 226.245 252.839 226.068 253.269C225.9 253.689 225.816 254.151 225.816 254.655ZM235.96 249.755H238.494L241.084 256.853L243.52 249.755H245.984V259.555H244.276V251.911L241.532 259.555H240.51L237.668 251.939V259.555H235.96V249.755ZM255.109 251.351H250.041V259.555H248.333V249.755H256.817V259.555H255.109V251.351ZM265.517 251.351H261.821V251.715C261.821 254.421 261.569 256.433 261.065 257.749C260.57 259.065 259.809 259.723 258.783 259.723C258.708 259.723 258.61 259.718 258.489 259.709C258.367 259.699 258.241 259.685 258.111 259.667V258.029C258.157 258.038 258.204 258.043 258.251 258.043C258.297 258.043 258.344 258.043 258.391 258.043C258.708 258.043 258.974 257.926 259.189 257.693C259.413 257.459 259.595 257.091 259.735 256.587C259.875 256.083 259.977 255.429 260.043 254.627C260.108 253.824 260.141 252.853 260.141 251.715V249.755H267.225V259.555H265.517V251.351ZM269.593 249.755H276.901V251.351H271.301V253.829H276.383V255.341H271.301V257.959H277.041V259.555H269.593V249.755ZM278.986 249.755H280.694V254.319L285.202 249.755H287.4L283.06 254.109L287.666 259.555H285.454L281.744 255.215L280.694 256.279V259.555H278.986V249.755ZM297.187 256.895C297 257.333 296.758 257.73 296.459 258.085C296.16 258.43 295.815 258.724 295.423 258.967C295.04 259.209 294.616 259.396 294.149 259.527C293.682 259.657 293.192 259.723 292.679 259.723C291.951 259.723 291.279 259.597 290.663 259.345C290.047 259.093 289.515 258.743 289.067 258.295C288.619 257.847 288.269 257.315 288.017 256.699C287.774 256.073 287.653 255.392 287.653 254.655C287.653 253.927 287.779 253.255 288.031 252.639C288.283 252.013 288.633 251.477 289.081 251.029C289.538 250.571 290.08 250.217 290.705 249.965C291.33 249.713 292.012 249.587 292.749 249.587C293.253 249.587 293.734 249.657 294.191 249.797C294.648 249.927 295.068 250.119 295.451 250.371C295.843 250.613 296.179 250.912 296.459 251.267C296.748 251.612 296.968 251.995 297.117 252.415L295.633 252.947C294.998 251.771 294.037 251.183 292.749 251.183C292.254 251.183 291.802 251.267 291.391 251.435C290.99 251.603 290.64 251.841 290.341 252.149C290.052 252.457 289.823 252.825 289.655 253.255C289.496 253.675 289.417 254.141 289.417 254.655C289.417 255.159 289.501 255.625 289.669 256.055C289.837 256.475 290.066 256.839 290.355 257.147C290.654 257.455 291.004 257.697 291.405 257.875C291.816 258.043 292.264 258.127 292.749 258.127C293.412 258.127 294 257.973 294.513 257.665C295.026 257.357 295.423 256.923 295.703 256.363L297.187 256.895ZM305.684 255.383H300.504V259.555H298.796V249.755H300.504V253.787H305.684V249.755H307.392V259.555H305.684V255.383ZM312.897 249.741H314.395L318.651 259.555H316.859L315.935 257.413H311.301L310.377 259.555H308.627L312.897 249.741ZM315.319 255.901L313.611 251.925L311.917 255.901H315.319ZM325.912 256.125H323.504L320.984 259.555H318.982L321.768 255.845C321.068 255.658 320.522 255.317 320.13 254.823C319.747 254.319 319.556 253.703 319.556 252.975C319.556 252.489 319.635 252.051 319.794 251.659C319.962 251.257 320.209 250.917 320.536 250.637C320.863 250.357 321.269 250.142 321.754 249.993C322.249 249.834 322.823 249.755 323.476 249.755H327.62V259.555H325.912V256.125ZM325.912 254.529V251.351H323.392C323.009 251.351 322.687 251.393 322.426 251.477C322.165 251.551 321.95 251.663 321.782 251.813C321.623 251.953 321.507 252.125 321.432 252.331C321.357 252.527 321.32 252.741 321.32 252.975C321.32 253.404 321.479 253.773 321.796 254.081C322.123 254.379 322.608 254.529 323.252 254.529H325.912ZM232.14 269.351H227.072V277.555H225.364V267.755H233.848V277.555H232.14V269.351ZM242.548 269.351H238.852V269.715C238.852 272.421 238.6 274.433 238.096 275.749C237.601 277.065 236.841 277.723 235.814 277.723C235.739 277.723 235.641 277.718 235.52 277.709C235.399 277.699 235.273 277.685 235.142 277.667V276.029C235.189 276.038 235.235 276.043 235.282 276.043C235.329 276.043 235.375 276.043 235.422 276.043C235.739 276.043 236.005 275.926 236.22 275.693C236.444 275.459 236.626 275.091 236.766 274.587C236.906 274.083 237.009 273.429 237.074 272.627C237.139 271.824 237.172 270.853 237.172 269.715V267.755H244.256V277.555H242.548V269.351ZM249.774 267.741H251.272L255.528 277.555H253.736L252.812 275.413H248.178L247.254 277.555H245.504L249.774 267.741ZM252.196 273.901L250.488 269.925L248.794 273.901H252.196ZM254.599 267.755H262.817V269.351H259.555V277.555H257.847V269.351H254.599V267.755ZM267.971 276.589H267.859C267.103 276.589 266.426 276.495 265.829 276.309C265.231 276.113 264.723 275.837 264.303 275.483C263.892 275.128 263.575 274.699 263.351 274.195C263.127 273.691 263.015 273.131 263.015 272.515C263.015 271.861 263.131 271.283 263.365 270.779C263.598 270.265 263.925 269.836 264.345 269.491C264.765 269.145 265.273 268.884 265.871 268.707C266.468 268.529 267.131 268.441 267.859 268.441H267.971V267.545H269.679V268.441H269.791C270.472 268.441 271.107 268.525 271.695 268.693C272.283 268.861 272.791 269.117 273.221 269.463C273.659 269.799 274 270.223 274.243 270.737C274.495 271.241 274.621 271.833 274.621 272.515C274.621 273.131 274.509 273.691 274.285 274.195C274.061 274.689 273.739 275.119 273.319 275.483C272.908 275.837 272.404 276.113 271.807 276.309C271.219 276.495 270.551 276.589 269.805 276.589H269.679V277.765H267.971V276.589ZM272.857 272.515C272.857 271.693 272.605 271.068 272.101 270.639C271.597 270.2 270.827 269.981 269.791 269.981H269.679V275.049H269.791C270.733 275.049 271.48 274.839 272.031 274.419C272.581 273.999 272.857 273.364 272.857 272.515ZM264.779 272.515C264.779 272.888 264.844 273.229 264.975 273.537C265.105 273.845 265.297 274.111 265.549 274.335C265.81 274.559 266.132 274.736 266.515 274.867C266.897 274.988 267.345 275.049 267.859 275.049H267.971V269.981H267.859C267.411 269.981 266.995 270.032 266.613 270.135C266.239 270.228 265.917 270.377 265.647 270.583C265.376 270.788 265.161 271.054 265.003 271.381C264.853 271.698 264.779 272.076 264.779 272.515ZM275.841 272.655C275.841 271.927 275.967 271.255 276.219 270.639C276.48 270.023 276.835 269.491 277.283 269.043C277.74 268.585 278.277 268.231 278.893 267.979C279.518 267.717 280.195 267.587 280.923 267.587C281.641 267.587 282.309 267.713 282.925 267.965C283.541 268.207 284.077 268.553 284.535 269.001C284.992 269.449 285.347 269.985 285.599 270.611C285.86 271.227 285.991 271.908 285.991 272.655C285.991 273.392 285.86 274.073 285.599 274.699C285.347 275.315 284.992 275.847 284.535 276.295C284.077 276.743 283.541 277.093 282.925 277.345C282.309 277.597 281.641 277.723 280.923 277.723C280.195 277.723 279.523 277.601 278.907 277.359C278.291 277.107 277.754 276.757 277.297 276.309C276.839 275.861 276.48 275.329 276.219 274.713C275.967 274.087 275.841 273.401 275.841 272.655ZM277.605 272.655C277.605 273.159 277.689 273.625 277.857 274.055C278.034 274.475 278.272 274.839 278.571 275.147C278.869 275.455 279.219 275.697 279.621 275.875C280.022 276.043 280.456 276.127 280.923 276.127C281.399 276.127 281.837 276.043 282.239 275.875C282.649 275.697 282.999 275.455 283.289 275.147C283.587 274.839 283.816 274.475 283.975 274.055C284.143 273.625 284.227 273.159 284.227 272.655C284.227 272.151 284.138 271.689 283.961 271.269C283.793 270.839 283.559 270.471 283.261 270.163C282.962 269.855 282.612 269.617 282.211 269.449C281.809 269.271 281.38 269.183 280.923 269.183C280.456 269.183 280.022 269.271 279.621 269.449C279.219 269.617 278.869 269.855 278.571 270.163C278.272 270.471 278.034 270.839 277.857 271.269C277.689 271.689 277.605 272.151 277.605 272.655ZM287.749 277.555V267.755H291.753C292.575 267.755 293.251 267.848 293.783 268.035C294.315 268.221 294.731 268.469 295.029 268.777C295.328 269.075 295.533 269.416 295.645 269.799C295.767 270.172 295.827 270.55 295.827 270.933C295.827 271.362 295.757 271.777 295.617 272.179C295.477 272.571 295.244 272.921 294.917 273.229C294.591 273.537 294.161 273.784 293.629 273.971C293.097 274.148 292.444 274.237 291.669 274.237H289.457V277.555H287.749ZM289.457 269.351V272.641H291.711C292.523 272.641 293.116 272.487 293.489 272.179C293.872 271.871 294.063 271.469 294.063 270.975C294.063 270.741 294.021 270.527 293.937 270.331C293.853 270.125 293.718 269.953 293.531 269.813C293.354 269.663 293.121 269.551 292.831 269.477C292.542 269.393 292.187 269.351 291.767 269.351H289.457ZM297.484 267.755H300.018L302.608 274.853L305.044 267.755H307.508V277.555H305.8V269.911L303.056 277.555H302.034L299.192 269.939V277.555H297.484V267.755ZM313.007 267.741H314.505L318.761 277.555H316.969L316.045 275.413H311.411L310.487 277.555H308.737L313.007 267.741ZM315.429 273.901L313.721 269.925L312.027 273.901H315.429Z" fill="#222429"/>
<path d="M192.738 40.1453C192.738 39.2093 192.9 38.3453 193.224 37.5533C193.56 36.7613 194.016 36.0773 194.592 35.5013C195.18 34.9133 195.87 34.4573 196.662 34.1333C197.466 33.7973 198.336 33.6293 199.272 33.6293C200.196 33.6293 201.054 33.7913 201.846 34.1153C202.638 34.4273 203.328 34.8713 203.916 35.4473C204.504 36.0233 204.96 36.7133 205.284 37.5173C205.62 38.3093 205.788 39.1853 205.788 40.1453C205.788 41.0933 205.62 41.9693 205.284 42.7733C204.96 43.5653 204.504 44.2493 203.916 44.8253C203.328 45.4013 202.638 45.8513 201.846 46.1753C201.054 46.4993 200.196 46.6613 199.272 46.6613C198.336 46.6613 197.472 46.5053 196.68 46.1933C195.888 45.8693 195.198 45.4193 194.61 44.8433C194.022 44.2673 193.56 43.5833 193.224 42.7913C192.9 41.9873 192.738 41.1053 192.738 40.1453ZM195.006 40.1453C195.006 40.7933 195.114 41.3933 195.33 41.9453C195.558 42.4853 195.864 42.9533 196.248 43.3493C196.632 43.7453 197.082 44.0573 197.598 44.2853C198.114 44.5013 198.672 44.6093 199.272 44.6093C199.884 44.6093 200.448 44.5013 200.964 44.2853C201.492 44.0573 201.942 43.7453 202.314 43.3493C202.698 42.9533 202.992 42.4853 203.196 41.9453C203.412 41.3933 203.52 40.7933 203.52 40.1453C203.52 39.4973 203.406 38.9033 203.178 38.3633C202.962 37.8113 202.662 37.3373 202.278 36.9413C201.894 36.5453 201.444 36.2393 200.928 36.0233C200.412 35.7953 199.86 35.6813 199.272 35.6813C198.672 35.6813 198.114 35.7953 197.598 36.0233C197.082 36.2393 196.632 36.5453 196.248 36.9413C195.864 37.3373 195.558 37.8113 195.33 38.3633C195.114 38.9033 195.006 39.4973 195.006 40.1453ZM214.277 42.6113H209.525V46.4453H207.509V37.0853H209.525V40.7753H214.277V37.0853H216.293V46.4453H214.277V42.6113ZM224.856 38.9213H221.544V39.4253C221.544 41.9213 221.286 43.7513 220.77 44.9153C220.254 46.0793 219.414 46.6613 218.25 46.6613C218.154 46.6613 218.028 46.6553 217.872 46.6433C217.728 46.6433 217.626 46.6313 217.566 46.6073V44.6993C217.602 44.7113 217.686 44.7173 217.818 44.7173C218.142 44.7173 218.412 44.6213 218.628 44.4293C218.856 44.2253 219.042 43.9133 219.186 43.4933C219.33 43.0613 219.432 42.5093 219.492 41.8373C219.564 41.1653 219.6 40.3613 219.6 39.4253V37.0853H226.872V46.4453H224.856V38.9213ZM228.733 39.7133C228.997 38.7893 229.495 38.0873 230.227 37.6073C230.959 37.1153 231.889 36.8693 233.017 36.8693C234.325 36.8693 235.315 37.2053 235.987 37.8773C236.659 38.5493 236.995 39.5453 236.995 40.8653V46.4453H234.943V44.8793C234.715 45.3833 234.331 45.8093 233.791 46.1573C233.251 46.4933 232.585 46.6613 231.793 46.6613C230.761 46.6613 229.957 46.3973 229.381 45.8693C228.817 45.3413 228.535 44.6573 228.535 43.8173C228.535 42.7613 229.039 41.9873 230.047 41.4953C231.067 41.0033 232.711 40.7513 234.979 40.7393C234.979 39.3833 234.301 38.7053 232.945 38.7053C231.637 38.7053 230.809 39.2333 230.461 40.2893L228.733 39.7133ZM232.279 44.8613C233.095 44.8613 233.749 44.6453 234.241 44.2133C234.733 43.7813 234.979 43.2113 234.979 42.5033V42.2153C234.199 42.2153 233.533 42.2393 232.981 42.2873C232.441 42.3353 231.997 42.4193 231.649 42.5393C231.301 42.6593 231.049 42.8153 230.893 43.0073C230.737 43.1873 230.659 43.4153 230.659 43.6913C230.659 44.0513 230.803 44.3393 231.091 44.5553C231.379 44.7593 231.775 44.8613 232.279 44.8613ZM239.124 46.4453V37.0853H241.14V43.3853L246.216 37.0853H248.016V46.4453H246V40.1453L240.906 46.4453H239.124ZM242.238 33.1253C242.238 33.5093 242.346 33.8453 242.562 34.1333C242.79 34.4093 243.132 34.5473 243.588 34.5473C244.008 34.5473 244.326 34.4093 244.542 34.1333C244.77 33.8453 244.884 33.5093 244.884 33.1253H246.72C246.72 33.5813 246.642 33.9893 246.486 34.3493C246.33 34.7093 246.108 35.0153 245.82 35.2673C245.544 35.5193 245.214 35.7113 244.83 35.8433C244.458 35.9753 244.05 36.0413 243.606 36.0413C243.15 36.0413 242.724 35.9753 242.328 35.8433C241.944 35.7113 241.608 35.5193 241.32 35.2673C241.032 35.0153 240.804 34.7093 240.636 34.3493C240.48 33.9893 240.402 33.5813 240.402 33.1253H242.238ZM257.081 42.6113H252.329V46.4453H250.313V37.0853H252.329V40.7753H257.081V37.0853H259.097V46.4453H257.081V42.6113ZM261.451 40.5413H266.383V42.3413H261.451V40.5413ZM267.569 37.0853H276.083V38.9213H272.825V46.4453H270.809V38.9213H267.569V37.0853ZM276.412 41.7473C276.412 41.0273 276.532 40.3733 276.772 39.7853C277.024 39.1853 277.372 38.6693 277.816 38.2373C278.26 37.8053 278.788 37.4693 279.4 37.2293C280.024 36.9893 280.708 36.8693 281.452 36.8693C282.208 36.8693 282.898 36.9953 283.522 37.2473C284.146 37.4873 284.68 37.8233 285.124 38.2553C285.58 38.6873 285.928 39.2033 286.168 39.8033C286.42 40.3913 286.546 41.0393 286.546 41.7473C286.546 42.4553 286.42 43.1093 286.168 43.7093C285.928 44.3093 285.58 44.8313 285.124 45.2753C284.68 45.7073 284.146 46.0493 283.522 46.3013C282.898 46.5413 282.208 46.6613 281.452 46.6613C280.72 46.6613 280.042 46.5473 279.418 46.3193C278.806 46.0793 278.278 45.7433 277.834 45.3113C277.39 44.8793 277.042 44.3633 276.79 43.7633C276.538 43.1513 276.412 42.4793 276.412 41.7473ZM278.536 41.7653C278.536 42.2213 278.608 42.6353 278.752 43.0073C278.896 43.3793 279.094 43.7033 279.346 43.9793C279.61 44.2433 279.922 44.4533 280.282 44.6093C280.642 44.7533 281.038 44.8253 281.47 44.8253C282.358 44.8253 283.072 44.5553 283.612 44.0153C284.152 43.4633 284.422 42.7133 284.422 41.7653C284.422 41.2973 284.344 40.8773 284.188 40.5053C284.044 40.1213 283.84 39.7973 283.576 39.5333C283.312 39.2693 282.994 39.0653 282.622 38.9213C282.262 38.7773 281.872 38.7053 281.452 38.7053C281.032 38.7053 280.642 38.7773 280.282 38.9213C279.934 39.0653 279.628 39.2693 279.364 39.5333C279.1 39.7973 278.896 40.1213 278.752 40.5053C278.608 40.8773 278.536 41.2973 278.536 41.7653ZM293.523 46.6613C292.731 46.6613 292.065 46.5233 291.525 46.2473C290.985 45.9593 290.559 45.5993 290.247 45.1673V50.0453H288.231V37.0853H290.247V38.5613C290.547 38.0573 290.979 37.6493 291.543 37.3373C292.119 37.0253 292.803 36.8693 293.595 36.8693C294.243 36.8693 294.843 36.9833 295.395 37.2113C295.947 37.4273 296.421 37.7453 296.817 38.1653C297.225 38.5733 297.537 39.0713 297.753 39.6593C297.981 40.2473 298.095 40.9133 298.095 41.6573C298.095 42.4133 297.981 43.1033 297.753 43.7273C297.525 44.3393 297.207 44.8613 296.799 45.2933C296.403 45.7253 295.923 46.0613 295.359 46.3013C294.795 46.5413 294.183 46.6613 293.523 46.6613ZM293.145 44.8253C293.973 44.8253 294.651 44.5553 295.179 44.0153C295.707 43.4633 295.971 42.7013 295.971 41.7293C295.971 41.2493 295.899 40.8233 295.755 40.4513C295.611 40.0793 295.413 39.7673 295.161 39.5153C294.909 39.2513 294.609 39.0533 294.261 38.9213C293.913 38.7773 293.535 38.7053 293.127 38.7053C292.263 38.7053 291.567 38.9633 291.039 39.4793C290.511 39.9953 290.247 40.7093 290.247 41.6213V41.9093C290.247 42.3773 290.319 42.7913 290.463 43.1513C290.619 43.5113 290.823 43.8173 291.075 44.0693C291.339 44.3213 291.645 44.5133 291.993 44.6453C292.353 44.7653 292.737 44.8253 293.145 44.8253ZM299.789 37.0853H306.701V38.9213H301.805V46.4453H299.789V37.0853ZM307.078 41.7473C307.078 41.0273 307.198 40.3733 307.438 39.7853C307.69 39.1853 308.038 38.6693 308.482 38.2373C308.926 37.8053 309.454 37.4693 310.066 37.2293C310.69 36.9893 311.374 36.8693 312.118 36.8693C312.874 36.8693 313.564 36.9953 314.188 37.2473C314.812 37.4873 315.346 37.8233 315.79 38.2553C316.246 38.6873 316.594 39.2033 316.834 39.8033C317.086 40.3913 317.212 41.0393 317.212 41.7473C317.212 42.4553 317.086 43.1093 316.834 43.7093C316.594 44.3093 316.246 44.8313 315.79 45.2753C315.346 45.7073 314.812 46.0493 314.188 46.3013C313.564 46.5413 312.874 46.6613 312.118 46.6613C311.386 46.6613 310.708 46.5473 310.084 46.3193C309.472 46.0793 308.944 45.7433 308.5 45.3113C308.056 44.8793 307.708 44.3633 307.456 43.7633C307.204 43.1513 307.078 42.4793 307.078 41.7473ZM309.202 41.7653C309.202 42.2213 309.274 42.6353 309.418 43.0073C309.562 43.3793 309.76 43.7033 310.012 43.9793C310.276 44.2433 310.588 44.4533 310.948 44.6093C311.308 44.7533 311.704 44.8253 312.136 44.8253C313.024 44.8253 313.738 44.5553 314.278 44.0153C314.818 43.4633 315.088 42.7133 315.088 41.7653C315.088 41.2973 315.01 40.8773 314.854 40.5053C314.71 40.1213 314.506 39.7973 314.242 39.5333C313.978 39.2693 313.66 39.0653 313.288 38.9213C312.928 38.7773 312.538 38.7053 312.118 38.7053C311.698 38.7053 311.308 38.7773 310.948 38.9213C310.6 39.0653 310.294 39.2693 310.03 39.5333C309.766 39.7973 309.562 40.1213 309.418 40.5053C309.274 40.8773 309.202 41.2973 309.202 41.7653ZM318.897 37.0853H323.235C324.519 37.0853 325.461 37.2713 326.061 37.6433C326.673 38.0033 326.979 38.6273 326.979 39.5153C326.979 39.9713 326.847 40.3733 326.583 40.7213C326.319 41.0693 325.971 41.3213 325.539 41.4773C326.127 41.6093 326.571 41.8793 326.871 42.2873C327.183 42.6953 327.339 43.1633 327.339 43.6913C327.339 44.5793 327.015 45.2633 326.367 45.7433C325.731 46.2113 324.795 46.4453 323.559 46.4453H318.897V37.0853ZM320.913 42.5213V44.7173H323.253C323.901 44.7173 324.387 44.6333 324.711 44.4653C325.047 44.2853 325.215 43.9913 325.215 43.5833C325.215 42.8753 324.609 42.5213 323.397 42.5213H320.913ZM320.913 38.8133V40.8653H323.469C323.889 40.8653 324.225 40.7813 324.477 40.6133C324.729 40.4333 324.855 40.1693 324.855 39.8213C324.855 39.4013 324.687 39.1313 324.351 39.0113C324.027 38.8793 323.595 38.8133 323.055 38.8133H320.913ZM335.348 38.9213H332.036V39.4253C332.036 41.9213 331.778 43.7513 331.262 44.9153C330.746 46.0793 329.906 46.6613 328.742 46.6613C328.646 46.6613 328.52 46.6553 328.364 46.6433C328.22 46.6433 328.118 46.6313 328.058 46.6073V44.6993C328.094 44.7113 328.178 44.7173 328.31 44.7173C328.634 44.7173 328.904 44.6213 329.12 44.4293C329.348 44.2253 329.534 43.9133 329.678 43.4933C329.822 43.0613 329.924 42.5093 329.984 41.8373C330.056 41.1653 330.092 40.3613 330.092 39.4253V37.0853H337.364V46.4453H335.348V38.9213ZM347.504 37.0853V46.4453H345.488V43.3853H343.58L341.186 46.4453H338.756L341.456 43.0973C340.796 42.9293 340.268 42.5813 339.872 42.0533C339.476 41.5133 339.278 40.8773 339.278 40.1453C339.278 39.7373 339.35 39.3473 339.494 38.9753C339.638 38.6033 339.866 38.2793 340.178 38.0033C340.502 37.7273 340.916 37.5053 341.42 37.3373C341.936 37.1693 342.554 37.0853 343.274 37.0853H347.504ZM341.402 40.2533C341.402 40.6373 341.552 40.9493 341.852 41.1893C342.164 41.4293 342.626 41.5493 343.238 41.5493H345.488V38.9213H343.292C342.62 38.9213 342.134 39.0413 341.834 39.2813C341.546 39.5093 341.402 39.8333 341.402 40.2533Z" fill="black"/>
<path d="M464.981 228.845H470.471C471.311 228.845 472.013 228.923 472.577 229.079C473.153 229.235 473.609 229.457 473.945 229.745C474.293 230.021 474.539 230.351 474.683 230.735C474.827 231.119 474.899 231.545 474.899 232.013C474.899 232.685 474.749 233.255 474.449 233.723C474.149 234.179 473.711 234.533 473.135 234.785C473.819 234.953 474.353 235.295 474.737 235.811C475.133 236.315 475.331 236.975 475.331 237.791C475.331 238.439 475.211 238.997 474.971 239.465C474.731 239.921 474.389 240.299 473.945 240.599C473.513 240.887 472.991 241.103 472.379 241.247C471.767 241.379 471.095 241.445 470.363 241.445H464.981V228.845ZM467.177 235.973V239.501H470.309C471.257 239.501 471.953 239.363 472.397 239.087C472.841 238.799 473.063 238.331 473.063 237.683C473.063 237.107 472.853 236.681 472.433 236.405C472.025 236.117 471.353 235.973 470.417 235.973H467.177ZM467.177 230.789V234.101H470.381C471.101 234.101 471.653 233.951 472.037 233.651C472.433 233.351 472.631 232.943 472.631 232.427C472.631 231.863 472.451 231.449 472.091 231.185C471.743 230.921 471.113 230.789 470.201 230.789H467.177ZM476.485 236.747C476.485 236.027 476.605 235.373 476.845 234.785C477.097 234.185 477.445 233.669 477.889 233.237C478.333 232.805 478.861 232.469 479.473 232.229C480.097 231.989 480.781 231.869 481.525 231.869C482.281 231.869 482.971 231.995 483.595 232.247C484.219 232.487 484.753 232.823 485.197 233.255C485.653 233.687 486.001 234.203 486.241 234.803C486.493 235.391 486.619 236.039 486.619 236.747C486.619 237.455 486.493 238.109 486.241 238.709C486.001 239.309 485.653 239.831 485.197 240.275C484.753 240.707 484.219 241.049 483.595 241.301C482.971 241.541 482.281 241.661 481.525 241.661C480.793 241.661 480.115 241.547 479.491 241.319C478.879 241.079 478.351 240.743 477.907 240.311C477.463 239.879 477.115 239.363 476.863 238.763C476.611 238.151 476.485 237.479 476.485 236.747ZM478.609 236.765C478.609 237.221 478.681 237.635 478.825 238.007C478.969 238.379 479.167 238.703 479.419 238.979C479.683 239.243 479.995 239.453 480.355 239.609C480.715 239.753 481.111 239.825 481.543 239.825C482.431 239.825 483.145 239.555 483.685 239.015C484.225 238.463 484.495 237.713 484.495 236.765C484.495 236.297 484.417 235.877 484.261 235.505C484.117 235.121 483.913 234.797 483.649 234.533C483.385 234.269 483.067 234.065 482.695 233.921C482.335 233.777 481.945 233.705 481.525 233.705C481.105 233.705 480.715 233.777 480.355 233.921C480.007 234.065 479.701 234.269 479.437 234.533C479.173 234.797 478.969 235.121 478.825 235.505C478.681 235.877 478.609 236.297 478.609 236.765ZM491.957 241.643C489.497 241.643 488.009 240.695 487.493 238.799L489.221 238.223C489.437 238.811 489.749 239.243 490.157 239.519C490.577 239.783 491.141 239.915 491.849 239.915C492.557 239.915 493.097 239.807 493.469 239.591C493.841 239.363 494.027 239.039 494.027 238.619C494.027 238.235 493.871 237.953 493.559 237.773C493.259 237.593 492.785 237.503 492.137 237.503H490.643V235.847H491.849C493.073 235.847 493.685 235.493 493.685 234.785C493.685 234.401 493.517 234.107 493.181 233.903C492.845 233.699 492.371 233.597 491.759 233.597C490.439 233.597 489.611 234.161 489.275 235.289L487.547 234.713C487.823 233.777 488.327 233.069 489.059 232.589C489.803 232.109 490.757 231.869 491.921 231.869C493.121 231.869 494.069 232.097 494.765 232.553C495.461 233.009 495.809 233.633 495.809 234.425C495.809 234.917 495.677 235.337 495.413 235.685C495.161 236.021 494.795 236.273 494.315 236.441C494.879 236.573 495.323 236.831 495.647 237.215C495.983 237.599 496.151 238.061 496.151 238.601C496.151 239.573 495.785 240.323 495.053 240.851C494.333 241.379 493.301 241.643 491.957 241.643ZM497.839 232.085H500.827L503.185 238.331L505.471 232.085H508.351V241.445H506.335V234.569L503.725 241.445H502.591L499.855 234.551V241.445H497.839V232.085ZM509.946 236.747C509.946 236.027 510.066 235.373 510.306 234.785C510.558 234.185 510.906 233.669 511.35 233.237C511.794 232.805 512.322 232.469 512.934 232.229C513.558 231.989 514.242 231.869 514.986 231.869C515.742 231.869 516.432 231.995 517.056 232.247C517.68 232.487 518.214 232.823 518.658 233.255C519.114 233.687 519.462 234.203 519.702 234.803C519.954 235.391 520.08 236.039 520.08 236.747C520.08 237.455 519.954 238.109 519.702 238.709C519.462 239.309 519.114 239.831 518.658 240.275C518.214 240.707 517.68 241.049 517.056 241.301C516.432 241.541 515.742 241.661 514.986 241.661C514.254 241.661 513.576 241.547 512.952 241.319C512.34 241.079 511.812 240.743 511.368 240.311C510.924 239.879 510.576 239.363 510.324 238.763C510.072 238.151 509.946 237.479 509.946 236.747ZM512.07 236.765C512.07 237.221 512.142 237.635 512.286 238.007C512.43 238.379 512.628 238.703 512.88 238.979C513.144 239.243 513.456 239.453 513.816 239.609C514.176 239.753 514.572 239.825 515.004 239.825C515.892 239.825 516.606 239.555 517.146 239.015C517.686 238.463 517.956 237.713 517.956 236.765C517.956 236.297 517.878 235.877 517.722 235.505C517.578 235.121 517.374 234.797 517.11 234.533C516.846 234.269 516.528 234.065 516.156 233.921C515.796 233.777 515.406 233.705 514.986 233.705C514.566 233.705 514.176 233.777 513.816 233.921C513.468 234.065 513.162 234.269 512.898 234.533C512.634 234.797 512.43 235.121 512.286 235.505C512.142 235.877 512.07 236.297 512.07 236.765ZM524.005 236.459L520.351 232.085H522.799L526.075 236.099V232.085H528.091V236.117L531.457 232.085H533.815L530.143 236.423L533.977 241.445H531.565L528.577 237.413L528.091 237.899V241.445H526.075V237.917L525.571 237.467L522.601 241.445H520.261L524.005 236.459ZM541.901 237.611H537.149V241.445H535.133V232.085H537.149V235.775H541.901V232.085H543.917V241.445H541.901V237.611ZM545.586 236.747C545.586 236.027 545.706 235.373 545.946 234.785C546.198 234.185 546.546 233.669 546.99 233.237C547.434 232.805 547.962 232.469 548.574 232.229C549.198 231.989 549.882 231.869 550.626 231.869C551.382 231.869 552.072 231.995 552.696 232.247C553.32 232.487 553.854 232.823 554.298 233.255C554.754 233.687 555.102 234.203 555.342 234.803C555.594 235.391 555.72 236.039 555.72 236.747C555.72 237.455 555.594 238.109 555.342 238.709C555.102 239.309 554.754 239.831 554.298 240.275C553.854 240.707 553.32 241.049 552.696 241.301C552.072 241.541 551.382 241.661 550.626 241.661C549.894 241.661 549.216 241.547 548.592 241.319C547.98 241.079 547.452 240.743 547.008 240.311C546.564 239.879 546.216 239.363 545.964 238.763C545.712 238.151 545.586 237.479 545.586 236.747ZM547.71 236.765C547.71 237.221 547.782 237.635 547.926 238.007C548.07 238.379 548.268 238.703 548.52 238.979C548.784 239.243 549.096 239.453 549.456 239.609C549.816 239.753 550.212 239.825 550.644 239.825C551.532 239.825 552.246 239.555 552.786 239.015C553.326 238.463 553.596 237.713 553.596 236.765C553.596 236.297 553.518 235.877 553.362 235.505C553.218 235.121 553.014 234.797 552.75 234.533C552.486 234.269 552.168 234.065 551.796 233.921C551.436 233.777 551.046 233.705 550.626 233.705C550.206 233.705 549.816 233.777 549.456 233.921C549.108 234.065 548.802 234.269 548.538 234.533C548.274 234.797 548.07 235.121 547.926 235.505C547.782 235.877 547.71 236.297 547.71 236.765ZM566.153 238.817C565.841 239.705 565.301 240.401 564.533 240.905C563.765 241.409 562.847 241.661 561.779 241.661C561.035 241.661 560.357 241.541 559.745 241.301C559.133 241.061 558.605 240.725 558.161 240.293C557.717 239.861 557.375 239.345 557.135 238.745C556.895 238.145 556.775 237.479 556.775 236.747C556.775 236.027 556.895 235.367 557.135 234.767C557.375 234.167 557.717 233.651 558.161 233.219C558.605 232.787 559.127 232.457 559.727 232.229C560.339 231.989 561.017 231.869 561.761 231.869C562.805 231.869 563.705 232.121 564.461 232.625C565.229 233.117 565.799 233.813 566.171 234.713L564.443 235.289C564.131 234.749 563.771 234.353 563.363 234.101C562.955 233.837 562.451 233.705 561.851 233.705C561.407 233.705 561.005 233.777 560.645 233.921C560.285 234.065 559.973 234.275 559.709 234.551C559.457 234.815 559.259 235.133 559.115 235.505C558.971 235.877 558.899 236.291 558.899 236.747C558.899 237.203 558.971 237.623 559.115 238.007C559.259 238.379 559.463 238.703 559.727 238.979C559.991 239.243 560.303 239.453 560.663 239.609C561.023 239.753 561.419 239.825 561.851 239.825C562.991 239.825 563.849 239.297 564.425 238.241L566.153 238.817ZM566.654 232.085H575.168V233.921H571.91V241.445H569.894V233.921H566.654V232.085ZM576.443 241.445V232.085H578.459V238.385L583.535 232.085H585.335V241.445H583.319V235.145L578.225 241.445H576.443ZM471.353 256.921H466.817V264.445H464.801V255.085H473.369V264.445H471.353V256.921ZM480.983 264.661C480.191 264.661 479.525 264.523 478.985 264.247C478.445 263.959 478.019 263.599 477.707 263.167V268.045H475.691V255.085H477.707V256.561C478.007 256.057 478.439 255.649 479.003 255.337C479.579 255.025 480.263 254.869 481.055 254.869C481.703 254.869 482.303 254.983 482.855 255.211C483.407 255.427 483.881 255.745 484.277 256.165C484.685 256.573 484.997 257.071 485.213 257.659C485.441 258.247 485.555 258.913 485.555 259.657C485.555 260.413 485.441 261.103 485.213 261.727C484.985 262.339 484.667 262.861 484.259 263.293C483.863 263.725 483.383 264.061 482.819 264.301C482.255 264.541 481.643 264.661 480.983 264.661ZM480.605 262.825C481.433 262.825 482.111 262.555 482.639 262.015C483.167 261.463 483.431 260.701 483.431 259.729C483.431 259.249 483.359 258.823 483.215 258.451C483.071 258.079 482.873 257.767 482.621 257.515C482.369 257.251 482.069 257.053 481.721 256.921C481.373 256.777 480.995 256.705 480.587 256.705C479.723 256.705 479.027 256.963 478.499 257.479C477.971 257.995 477.707 258.709 477.707 259.621V259.909C477.707 260.377 477.779 260.791 477.923 261.151C478.079 261.511 478.283 261.817 478.535 262.069C478.799 262.321 479.105 262.513 479.453 262.645C479.813 262.765 480.197 262.825 480.605 262.825ZM486.619 259.747C486.619 259.027 486.739 258.373 486.979 257.785C487.231 257.185 487.579 256.669 488.023 256.237C488.467 255.805 488.995 255.469 489.607 255.229C490.231 254.989 490.915 254.869 491.659 254.869C492.415 254.869 493.105 254.995 493.729 255.247C494.353 255.487 494.887 255.823 495.331 256.255C495.787 256.687 496.135 257.203 496.375 257.803C496.627 258.391 496.753 259.039 496.753 259.747C496.753 260.455 496.627 261.109 496.375 261.709C496.135 262.309 495.787 262.831 495.331 263.275C494.887 263.707 494.353 264.049 493.729 264.301C493.105 264.541 492.415 264.661 491.659 264.661C490.927 264.661 490.249 264.547 489.625 264.319C489.013 264.079 488.485 263.743 488.041 263.311C487.597 262.879 487.249 262.363 486.997 261.763C486.745 261.151 486.619 260.479 486.619 259.747ZM488.743 259.765C488.743 260.221 488.815 260.635 488.959 261.007C489.103 261.379 489.301 261.703 489.553 261.979C489.817 262.243 490.129 262.453 490.489 262.609C490.849 262.753 491.245 262.825 491.677 262.825C492.565 262.825 493.279 262.555 493.819 262.015C494.359 261.463 494.629 260.713 494.629 259.765C494.629 259.297 494.551 258.877 494.395 258.505C494.251 258.121 494.047 257.797 493.783 257.533C493.519 257.269 493.201 257.065 492.829 256.921C492.469 256.777 492.079 256.705 491.659 256.705C491.239 256.705 490.849 256.777 490.489 256.921C490.141 257.065 489.835 257.269 489.571 257.533C489.307 257.797 489.103 258.121 488.959 258.505C488.815 258.877 488.743 259.297 488.743 259.765ZM497.057 262.609H498.101C498.869 261.277 499.253 259.489 499.253 257.245V255.085H506.381V262.609H507.767V266.533H505.859V264.445H498.965V266.533H497.057V262.609ZM501.089 257.245C501.089 257.773 501.065 258.295 501.017 258.811C500.981 259.327 500.921 259.819 500.837 260.287C500.753 260.743 500.651 261.175 500.531 261.583C500.423 261.979 500.297 262.321 500.153 262.609H504.365V256.921H501.089V257.245ZM511.486 264.229L507.382 255.085H509.74L512.53 261.547L514.924 255.085H517.084L512.062 268.045H509.956L511.486 264.229ZM518.108 255.085H520.124V259.117L524.21 255.085H526.82L522.41 259.351L527 264.445H524.444L520.808 260.449L520.124 261.151V264.445H518.108V255.085ZM527.287 255.085H535.801V256.921H532.543V264.445H530.527V256.921H527.287V255.085ZM536.537 257.713C536.801 256.789 537.299 256.087 538.031 255.607C538.763 255.115 539.693 254.869 540.821 254.869C542.129 254.869 543.119 255.205 543.791 255.877C544.463 256.549 544.799 257.545 544.799 258.865V264.445H542.747V262.879C542.519 263.383 542.135 263.809 541.595 264.157C541.055 264.493 540.389 264.661 539.597 264.661C538.565 264.661 537.761 264.397 537.185 263.869C536.621 263.341 536.339 262.657 536.339 261.817C536.339 260.761 536.843 259.987 537.851 259.495C538.871 259.003 540.515 258.751 542.783 258.739C542.783 257.383 542.105 256.705 540.749 256.705C539.441 256.705 538.613 257.233 538.265 258.289L536.537 257.713ZM540.083 262.861C540.899 262.861 541.553 262.645 542.045 262.213C542.537 261.781 542.783 261.211 542.783 260.503V260.215C542.003 260.215 541.337 260.239 540.785 260.287C540.245 260.335 539.801 260.419 539.453 260.539C539.105 260.659 538.853 260.815 538.697 261.007C538.541 261.187 538.463 261.415 538.463 261.691C538.463 262.051 538.607 262.339 538.895 262.555C539.183 262.759 539.579 262.861 540.083 262.861Z" fill="black"/>
<path d="M219.482 451.445V438.845H224.63C225.686 438.845 226.556 438.965 227.24 439.205C227.924 439.445 228.458 439.763 228.842 440.159C229.226 440.543 229.49 440.981 229.634 441.473C229.79 441.953 229.868 442.439 229.868 442.931C229.868 443.483 229.778 444.017 229.598 444.533C229.418 445.037 229.118 445.487 228.698 445.883C228.278 446.279 227.726 446.597 227.042 446.837C226.358 447.065 225.518 447.179 224.522 447.179H221.678V451.445H219.482ZM221.678 440.897V445.127H224.576C225.62 445.127 226.382 444.929 226.862 444.533C227.354 444.137 227.6 443.621 227.6 442.985C227.6 442.685 227.546 442.409 227.438 442.157C227.33 441.893 227.156 441.671 226.916 441.491C226.688 441.299 226.388 441.155 226.016 441.059C225.644 440.951 225.188 440.897 224.648 440.897H221.678ZM235.601 451.661C234.857 451.661 234.179 451.541 233.567 451.301C232.967 451.061 232.451 450.725 232.019 450.293C231.587 449.861 231.251 449.345 231.011 448.745C230.771 448.145 230.651 447.479 230.651 446.747C230.651 446.051 230.771 445.403 231.011 444.803C231.251 444.203 231.587 443.687 232.019 443.255C232.451 442.823 232.973 442.487 233.585 442.247C234.197 441.995 234.875 441.869 235.619 441.869C236.279 441.869 236.897 441.977 237.473 442.193C238.061 442.409 238.565 442.715 238.985 443.111C239.405 443.507 239.735 443.993 239.975 444.569C240.227 445.133 240.353 445.769 240.353 446.477C240.353 446.777 240.335 447.107 240.299 447.467H232.757C232.817 448.175 233.111 448.745 233.639 449.177C234.179 449.609 234.851 449.825 235.655 449.825C236.303 449.825 236.837 449.705 237.257 449.465C237.677 449.213 238.013 448.865 238.265 448.421L239.993 448.997C239.633 449.837 239.075 450.491 238.319 450.959C237.563 451.427 236.657 451.661 235.601 451.661ZM235.583 443.705C234.827 443.705 234.191 443.897 233.675 444.281C233.171 444.665 232.871 445.175 232.775 445.811H238.301C238.289 445.499 238.205 445.217 238.049 444.965C237.905 444.701 237.707 444.479 237.455 444.299C237.215 444.107 236.933 443.963 236.609 443.867C236.285 443.759 235.943 443.705 235.583 443.705ZM241.978 442.085H243.994V446.117L248.08 442.085H250.69L246.28 446.351L250.87 451.445H248.314L244.678 447.449L243.994 448.151V451.445H241.978V442.085ZM258.376 443.921H255.064V444.425C255.064 446.921 254.806 448.751 254.29 449.915C253.774 451.079 252.934 451.661 251.77 451.661C251.674 451.661 251.548 451.655 251.392 451.643C251.248 451.643 251.146 451.631 251.086 451.607V449.699C251.122 449.711 251.206 449.717 251.338 449.717C251.662 449.717 251.932 449.621 252.148 449.429C252.376 449.225 252.562 448.913 252.706 448.493C252.85 448.061 252.952 447.509 253.012 446.837C253.084 446.165 253.12 445.361 253.12 444.425V442.085H260.392V451.445H258.376V443.921ZM262.253 444.713C262.517 443.789 263.015 443.087 263.747 442.607C264.479 442.115 265.409 441.869 266.537 441.869C267.845 441.869 268.835 442.205 269.507 442.877C270.179 443.549 270.515 444.545 270.515 445.865V451.445H268.463V449.879C268.235 450.383 267.851 450.809 267.311 451.157C266.771 451.493 266.105 451.661 265.313 451.661C264.281 451.661 263.477 451.397 262.901 450.869C262.337 450.341 262.055 449.657 262.055 448.817C262.055 447.761 262.559 446.987 263.567 446.495C264.587 446.003 266.231 445.751 268.499 445.739C268.499 444.383 267.821 443.705 266.465 443.705C265.157 443.705 264.329 444.233 263.981 445.289L262.253 444.713ZM265.799 449.861C266.615 449.861 267.269 449.645 267.761 449.213C268.253 448.781 268.499 448.211 268.499 447.503V447.215C267.719 447.215 267.053 447.239 266.501 447.287C265.961 447.335 265.517 447.419 265.169 447.539C264.821 447.659 264.569 447.815 264.413 448.007C264.257 448.187 264.179 448.415 264.179 448.691C264.179 449.051 264.323 449.339 264.611 449.555C264.899 449.759 265.295 449.861 265.799 449.861ZM272.59 442.085H275.578L277.936 448.331L280.222 442.085H283.102V451.445H281.086V444.569L278.476 451.445H277.342L274.606 444.551V451.445H272.59V442.085ZM292.095 447.611H287.343V451.445H285.327V442.085H287.343V445.775H292.095V442.085H294.111V451.445H292.095V447.611ZM305.267 442.085H307.283V451.445H305.267V442.085ZM296.411 442.085H298.427V444.839H300.263C301.007 444.839 301.625 444.929 302.117 445.109C302.609 445.277 303.005 445.511 303.305 445.811C303.605 446.111 303.815 446.459 303.935 446.855C304.055 447.251 304.115 447.671 304.115 448.115C304.115 448.559 304.049 448.985 303.917 449.393C303.785 449.789 303.563 450.143 303.251 450.455C302.939 450.755 302.525 450.995 302.009 451.175C301.505 451.355 300.881 451.445 300.137 451.445H296.411V442.085ZM298.427 446.675V449.609H300.011C300.731 449.609 301.241 449.483 301.541 449.231C301.841 448.979 301.991 448.613 301.991 448.133C301.991 447.665 301.835 447.305 301.523 447.053C301.211 446.801 300.713 446.675 300.029 446.675H298.427ZM313.923 451.661C313.179 451.661 312.501 451.541 311.889 451.301C311.289 451.061 310.773 450.725 310.341 450.293C309.909 449.861 309.573 449.345 309.333 448.745C309.093 448.145 308.973 447.479 308.973 446.747C308.973 446.051 309.093 445.403 309.333 444.803C309.573 444.203 309.909 443.687 310.341 443.255C310.773 442.823 311.295 442.487 311.907 442.247C312.519 441.995 313.197 441.869 313.941 441.869C314.601 441.869 315.219 441.977 315.795 442.193C316.383 442.409 316.887 442.715 317.307 443.111C317.727 443.507 318.057 443.993 318.297 444.569C318.549 445.133 318.675 445.769 318.675 446.477C318.675 446.777 318.657 447.107 318.621 447.467H311.079C311.139 448.175 311.433 448.745 311.961 449.177C312.501 449.609 313.173 449.825 313.977 449.825C314.625 449.825 315.159 449.705 315.579 449.465C315.999 449.213 316.335 448.865 316.587 448.421L318.315 448.997C317.955 449.837 317.397 450.491 316.641 450.959C315.885 451.427 314.979 451.661 313.923 451.661ZM313.905 443.705C313.149 443.705 312.513 443.897 311.997 444.281C311.493 444.665 311.193 445.175 311.097 445.811H316.623C316.611 445.499 316.527 445.217 316.371 444.965C316.227 444.701 316.029 444.479 315.777 444.299C315.537 444.107 315.255 443.963 314.931 443.867C314.607 443.759 314.265 443.705 313.905 443.705ZM217.133 465.085H225.647V466.921H222.389V474.445H220.373V466.921H217.133V465.085ZM230.926 474.661C230.182 474.661 229.504 474.541 228.892 474.301C228.292 474.061 227.776 473.725 227.344 473.293C226.912 472.861 226.576 472.345 226.336 471.745C226.096 471.145 225.976 470.479 225.976 469.747C225.976 469.051 226.096 468.403 226.336 467.803C226.576 467.203 226.912 466.687 227.344 466.255C227.776 465.823 228.298 465.487 228.91 465.247C229.522 464.995 230.2 464.869 230.944 464.869C231.604 464.869 232.222 464.977 232.798 465.193C233.386 465.409 233.89 465.715 234.31 466.111C234.73 466.507 235.06 466.993 235.3 467.569C235.552 468.133 235.678 468.769 235.678 469.477C235.678 469.777 235.66 470.107 235.624 470.467H228.082C228.142 471.175 228.436 471.745 228.964 472.177C229.504 472.609 230.176 472.825 230.98 472.825C231.628 472.825 232.162 472.705 232.582 472.465C233.002 472.213 233.338 471.865 233.59 471.421L235.318 471.997C234.958 472.837 234.4 473.491 233.644 473.959C232.888 474.427 231.982 474.661 230.926 474.661ZM230.908 466.705C230.152 466.705 229.516 466.897 229 467.281C228.496 467.665 228.196 468.175 228.1 468.811H233.626C233.614 468.499 233.53 468.217 233.374 467.965C233.23 467.701 233.032 467.479 232.78 467.299C232.54 467.107 232.258 466.963 231.934 466.867C231.61 466.759 231.268 466.705 230.908 466.705ZM239.253 469.621L236.049 465.085H238.497L240.765 468.343L243.033 465.085H245.427L242.187 469.603L245.607 474.445H243.141L240.711 470.863L238.227 474.445H235.851L239.253 469.621ZM253.466 470.611H248.714V474.445H246.698V465.085H248.714V468.775H253.466V465.085H255.482V474.445H253.466V470.611ZM257.152 469.747C257.152 469.027 257.272 468.373 257.512 467.785C257.764 467.185 258.112 466.669 258.556 466.237C259 465.805 259.528 465.469 260.14 465.229C260.764 464.989 261.448 464.869 262.192 464.869C262.948 464.869 263.638 464.995 264.262 465.247C264.886 465.487 265.42 465.823 265.864 466.255C266.32 466.687 266.668 467.203 266.908 467.803C267.16 468.391 267.286 469.039 267.286 469.747C267.286 470.455 267.16 471.109 266.908 471.709C266.668 472.309 266.32 472.831 265.864 473.275C265.42 473.707 264.886 474.049 264.262 474.301C263.638 474.541 262.948 474.661 262.192 474.661C261.46 474.661 260.782 474.547 260.158 474.319C259.546 474.079 259.018 473.743 258.574 473.311C258.13 472.879 257.782 472.363 257.53 471.763C257.278 471.151 257.152 470.479 257.152 469.747ZM259.276 469.765C259.276 470.221 259.348 470.635 259.492 471.007C259.636 471.379 259.834 471.703 260.086 471.979C260.35 472.243 260.662 472.453 261.022 472.609C261.382 472.753 261.778 472.825 262.21 472.825C263.098 472.825 263.812 472.555 264.352 472.015C264.892 471.463 265.162 470.713 265.162 469.765C265.162 469.297 265.084 468.877 264.928 468.505C264.784 468.121 264.58 467.797 264.316 467.533C264.052 467.269 263.734 467.065 263.362 466.921C263.002 466.777 262.612 466.705 262.192 466.705C261.772 466.705 261.382 466.777 261.022 466.921C260.674 467.065 260.368 467.269 260.104 467.533C259.84 467.797 259.636 468.121 259.492 468.505C259.348 468.877 259.276 469.297 259.276 469.765ZM274.936 466.921H271.624V467.425C271.624 469.921 271.366 471.751 270.85 472.915C270.334 474.079 269.494 474.661 268.33 474.661C268.234 474.661 268.108 474.655 267.952 474.643C267.808 474.643 267.706 474.631 267.646 474.607V472.699C267.682 472.711 267.766 472.717 267.898 472.717C268.222 472.717 268.492 472.621 268.708 472.429C268.936 472.225 269.122 471.913 269.266 471.493C269.41 471.061 269.512 470.509 269.572 469.837C269.644 469.165 269.68 468.361 269.68 467.425V465.085H276.952V474.445H274.936V466.921ZM278.65 469.747C278.65 469.027 278.77 468.373 279.01 467.785C279.262 467.185 279.61 466.669 280.054 466.237C280.498 465.805 281.026 465.469 281.638 465.229C282.262 464.989 282.946 464.869 283.69 464.869C284.446 464.869 285.136 464.995 285.76 465.247C286.384 465.487 286.918 465.823 287.362 466.255C287.818 466.687 288.166 467.203 288.406 467.803C288.658 468.391 288.784 469.039 288.784 469.747C288.784 470.455 288.658 471.109 288.406 471.709C288.166 472.309 287.818 472.831 287.362 473.275C286.918 473.707 286.384 474.049 285.76 474.301C285.136 474.541 284.446 474.661 283.69 474.661C282.958 474.661 282.28 474.547 281.656 474.319C281.044 474.079 280.516 473.743 280.072 473.311C279.628 472.879 279.28 472.363 279.028 471.763C278.776 471.151 278.65 470.479 278.65 469.747ZM280.774 469.765C280.774 470.221 280.846 470.635 280.99 471.007C281.134 471.379 281.332 471.703 281.584 471.979C281.848 472.243 282.16 472.453 282.52 472.609C282.88 472.753 283.276 472.825 283.708 472.825C284.596 472.825 285.31 472.555 285.85 472.015C286.39 471.463 286.66 470.713 286.66 469.765C286.66 469.297 286.582 468.877 286.426 468.505C286.282 468.121 286.078 467.797 285.814 467.533C285.55 467.269 285.232 467.065 284.86 466.921C284.5 466.777 284.11 466.705 283.69 466.705C283.27 466.705 282.88 466.777 282.52 466.921C282.172 467.065 281.866 467.269 281.602 467.533C281.338 467.797 281.134 468.121 280.99 468.505C280.846 468.877 280.774 469.297 280.774 469.765ZM290.469 465.085H297.381V466.921H292.485V474.445H290.469V465.085ZM298.705 474.445V465.085H300.721V471.385L305.797 465.085H307.597V474.445H305.581V468.145L300.487 474.445H298.705ZM309.894 474.445V465.085H311.91V471.385L316.986 465.085H318.786V474.445H316.77V468.145L311.676 474.445H309.894Z" fill="black"/>
<path d="M8.09388 228.4H11.3519L14.6819 237.526L17.8139 228.4H20.9819V241H18.7859V231.172L15.2579 241H13.9439L10.2899 231.208V241H8.09388V228.4ZM27.7821 241.216C27.0381 241.216 26.3601 241.096 25.7481 240.856C25.1481 240.616 24.6321 240.28 24.2001 239.848C23.7681 239.416 23.4321 238.9 23.1921 238.3C22.9521 237.7 22.8321 237.034 22.8321 236.302C22.8321 235.606 22.9521 234.958 23.1921 234.358C23.4321 233.758 23.7681 233.242 24.2001 232.81C24.6321 232.378 25.1541 232.042 25.7661 231.802C26.3781 231.55 27.0561 231.424 27.8001 231.424C28.4601 231.424 29.0781 231.532 29.6541 231.748C30.2421 231.964 30.7461 232.27 31.1661 232.666C31.5861 233.062 31.9161 233.548 32.1561 234.124C32.4081 234.688 32.5341 235.324 32.5341 236.032C32.5341 236.332 32.5161 236.662 32.4801 237.022H24.9381C24.9981 237.73 25.2921 238.3 25.8201 238.732C26.3601 239.164 27.0321 239.38 27.8361 239.38C28.4841 239.38 29.0181 239.26 29.4381 239.02C29.8581 238.768 30.1941 238.42 30.4461 237.976L32.1741 238.552C31.8141 239.392 31.2561 240.046 30.5001 240.514C29.7441 240.982 28.8381 241.216 27.7821 241.216ZM27.7641 233.26C27.0081 233.26 26.3721 233.452 25.8561 233.836C25.3521 234.22 25.0521 234.73 24.9561 235.366H30.4821C30.4701 235.054 30.3861 234.772 30.2301 234.52C30.0861 234.256 29.8881 234.034 29.6361 233.854C29.3961 233.662 29.1141 233.518 28.7901 233.422C28.4661 233.314 28.1241 233.26 27.7641 233.26ZM32.954 239.164H33.998C34.766 237.832 35.15 236.044 35.15 233.8V231.64H42.278V239.164H43.664V243.088H41.756V241H34.862V243.088H32.954V239.164ZM36.986 233.8C36.986 234.328 36.962 234.85 36.914 235.366C36.878 235.882 36.818 236.374 36.734 236.842C36.65 237.298 36.548 237.73 36.428 238.138C36.32 238.534 36.194 238.876 36.05 239.164H40.262V233.476H36.986V233.8ZM44.9081 241V231.64H46.9241V237.94L52.0001 231.64H53.8001V241H51.7841V234.7L46.6901 241H44.9081ZM55.6289 234.268C55.8929 233.344 56.3909 232.642 57.1229 232.162C57.8549 231.67 58.7849 231.424 59.9129 231.424C61.2209 231.424 62.2109 231.76 62.8829 232.432C63.5549 233.104 63.8909 234.1 63.8909 235.42V241H61.8389V239.434C61.6109 239.938 61.2269 240.364 60.6869 240.712C60.1469 241.048 59.4809 241.216 58.6889 241.216C57.6569 241.216 56.8529 240.952 56.2769 240.424C55.7129 239.896 55.4309 239.212 55.4309 238.372C55.4309 237.316 55.9349 236.542 56.9429 236.05C57.9629 235.558 59.6069 235.306 61.8749 235.294C61.8749 233.938 61.1969 233.26 59.8409 233.26C58.5329 233.26 57.7049 233.788 57.3569 234.844L55.6289 234.268ZM59.1749 239.416C59.9909 239.416 60.6449 239.2 61.1369 238.768C61.6289 238.336 61.8749 237.766 61.8749 237.058V236.77C61.0949 236.77 60.4289 236.794 59.8769 236.842C59.3369 236.89 58.8929 236.974 58.5449 237.094C58.1969 237.214 57.9449 237.37 57.7889 237.562C57.6329 237.742 57.5549 237.97 57.5549 238.246C57.5549 238.606 57.6989 238.894 57.9869 239.11C58.2749 239.314 58.6709 239.416 59.1749 239.416ZM69.6692 235.096H74.6012V236.896H69.6692V235.096ZM6.03302 254.64H8.04902V258.672L12.135 254.64H14.745L10.335 258.906L14.925 264H12.369L8.73302 260.004L8.04902 260.706V264H6.03302V254.64ZM15.0801 259.302C15.0801 258.582 15.2001 257.928 15.4401 257.34C15.6921 256.74 16.0401 256.224 16.4841 255.792C16.9281 255.36 17.4561 255.024 18.0681 254.784C18.6921 254.544 19.3761 254.424 20.1201 254.424C20.8761 254.424 21.5661 254.55 22.1901 254.802C22.8141 255.042 23.3481 255.378 23.7921 255.81C24.2481 256.242 24.5961 256.758 24.8361 257.358C25.0881 257.946 25.2141 258.594 25.2141 259.302C25.2141 260.01 25.0881 260.664 24.8361 261.264C24.5961 261.864 24.2481 262.386 23.7921 262.83C23.3481 263.262 22.8141 263.604 22.1901 263.856C21.5661 264.096 20.8761 264.216 20.1201 264.216C19.3881 264.216 18.7101 264.102 18.0861 263.874C17.4741 263.634 16.9461 263.298 16.5021 262.866C16.0581 262.434 15.7101 261.918 15.4581 261.318C15.2061 260.706 15.0801 260.034 15.0801 259.302ZM17.2041 259.32C17.2041 259.776 17.2761 260.19 17.4201 260.562C17.5641 260.934 17.7621 261.258 18.0141 261.534C18.2781 261.798 18.5901 262.008 18.9501 262.164C19.3101 262.308 19.7061 262.38 20.1381 262.38C21.0261 262.38 21.7401 262.11 22.2801 261.57C22.8201 261.018 23.0901 260.268 23.0901 259.32C23.0901 258.852 23.0121 258.432 22.8561 258.06C22.7121 257.676 22.5081 257.352 22.2441 257.088C21.9801 256.824 21.6621 256.62 21.2901 256.476C20.9301 256.332 20.5401 256.26 20.1201 256.26C19.7001 256.26 19.3101 256.332 18.9501 256.476C18.6021 256.62 18.2961 256.824 18.0321 257.088C17.7681 257.352 17.5641 257.676 17.4201 258.06C17.2761 258.432 17.2041 258.852 17.2041 259.32ZM33.667 260.166H28.915V264H26.899V254.64H28.915V258.33H33.667V254.64H35.683V264H33.667V260.166ZM36.9563 254.64H45.4703V256.476H42.2123V264H40.1963V256.476H36.9563V254.64ZM50.749 264.216C50.005 264.216 49.327 264.096 48.715 263.856C48.115 263.616 47.599 263.28 47.167 262.848C46.735 262.416 46.399 261.9 46.159 261.3C45.919 260.7 45.799 260.034 45.799 259.302C45.799 258.606 45.919 257.958 46.159 257.358C46.399 256.758 46.735 256.242 47.167 255.81C47.599 255.378 48.121 255.042 48.733 254.802C49.345 254.55 50.023 254.424 50.767 254.424C51.427 254.424 52.045 254.532 52.621 254.748C53.209 254.964 53.713 255.27 54.133 255.666C54.553 256.062 54.883 256.548 55.123 257.124C55.375 257.688 55.501 258.324 55.501 259.032C55.501 259.332 55.483 259.662 55.447 260.022H47.905C47.965 260.73 48.259 261.3 48.787 261.732C49.327 262.164 49.999 262.38 50.803 262.38C51.451 262.38 51.985 262.26 52.405 262.02C52.825 261.768 53.161 261.42 53.413 260.976L55.141 261.552C54.781 262.392 54.223 263.046 53.467 263.514C52.711 263.982 51.805 264.216 50.749 264.216ZM50.731 256.26C49.975 256.26 49.339 256.452 48.823 256.836C48.319 257.22 48.019 257.73 47.923 258.366H53.449C53.437 258.054 53.353 257.772 53.197 257.52C53.053 257.256 52.855 257.034 52.603 256.854C52.363 256.662 52.081 256.518 51.757 256.422C51.433 256.314 51.091 256.26 50.731 256.26ZM63.8936 260.166H59.1416V264H57.1256V254.64H59.1416V258.33H63.8936V254.64H65.9096V264H63.8936V260.166ZM67.183 254.64H75.697V256.476H72.439V264H70.423V256.476H67.183V254.64Z" fill="black"/>
<path d="M361.349 154.998L355.465 141.823L369.1 146.546L361.349 154.998Z" fill="#648494" stroke="#648494"/>
</svg>
