<svg viewBox="0 0 536 237" fill="none" xmlns="http://www.w3.org/2000/svg">
<g clip-path="url(#clip0_149_23533)">
<path d="M184.818 230.07C184.902 229.669 185.042 229.286 185.238 228.922C185.434 228.558 185.686 228.241 185.994 227.97C186.302 227.69 186.671 227.471 187.1 227.312C187.53 227.153 188.02 227.074 188.57 227.074C189.084 227.074 189.541 227.149 189.942 227.298C190.344 227.438 190.684 227.639 190.964 227.9C191.244 228.161 191.454 228.474 191.594 228.838C191.744 229.202 191.818 229.599 191.818 230.028C191.818 230.635 191.688 231.195 191.426 231.708C191.174 232.212 190.852 232.674 190.46 233.094C190.068 233.514 189.639 233.897 189.172 234.242C188.706 234.578 188.262 234.877 187.842 235.138L186.764 235.81H192.182V237H184.552V236.02L186.68 234.606C187.38 234.139 187.978 233.71 188.472 233.318C188.967 232.917 189.368 232.539 189.676 232.184C189.994 231.829 190.222 231.489 190.362 231.162C190.512 230.826 190.586 230.49 190.586 230.154C190.586 229.809 190.53 229.515 190.418 229.272C190.316 229.029 190.166 228.833 189.97 228.684C189.784 228.535 189.56 228.427 189.298 228.362C189.046 228.297 188.776 228.264 188.486 228.264C188.066 228.264 187.702 228.329 187.394 228.46C187.096 228.591 186.839 228.763 186.624 228.978C186.419 229.183 186.256 229.417 186.134 229.678C186.022 229.93 185.948 230.182 185.91 230.434L184.818 230.07ZM193.152 232.1C193.152 231.372 193.236 230.705 193.404 230.098C193.572 229.482 193.824 228.95 194.16 228.502C194.506 228.054 194.94 227.704 195.462 227.452C195.985 227.2 196.601 227.074 197.31 227.074C198.02 227.074 198.636 227.191 199.158 227.424C199.681 227.657 200.115 227.993 200.46 228.432C200.806 228.871 201.062 229.403 201.23 230.028C201.398 230.644 201.482 231.335 201.482 232.1C201.482 232.828 201.398 233.5 201.23 234.116C201.072 234.723 200.82 235.25 200.474 235.698C200.138 236.146 199.709 236.496 199.186 236.748C198.664 237 198.048 237.126 197.338 237.126C196.666 237.126 196.069 237 195.546 236.748C195.024 236.496 194.585 236.146 194.23 235.698C193.876 235.25 193.605 234.723 193.418 234.116C193.241 233.5 193.152 232.828 193.152 232.1ZM194.384 232.1C194.384 233.295 194.646 234.233 195.168 234.914C195.691 235.595 196.414 235.936 197.338 235.936C198.346 235.936 199.084 235.595 199.55 234.914C200.017 234.233 200.25 233.295 200.25 232.1C200.25 230.905 200.012 229.967 199.536 229.286C199.06 228.605 198.318 228.264 197.31 228.264C196.806 228.264 196.372 228.353 196.008 228.53C195.644 228.707 195.341 228.964 195.098 229.3C194.856 229.636 194.674 230.042 194.552 230.518C194.44 230.985 194.384 231.512 194.384 232.1ZM202.626 230.07C202.71 229.669 202.85 229.286 203.046 228.922C203.242 228.558 203.494 228.241 203.802 227.97C204.11 227.69 204.479 227.471 204.908 227.312C205.337 227.153 205.827 227.074 206.378 227.074C206.891 227.074 207.349 227.149 207.75 227.298C208.151 227.438 208.492 227.639 208.772 227.9C209.052 228.161 209.262 228.474 209.402 228.838C209.551 229.202 209.626 229.599 209.626 230.028C209.626 230.635 209.495 231.195 209.234 231.708C208.982 232.212 208.66 232.674 208.268 233.094C207.876 233.514 207.447 233.897 206.98 234.242C206.513 234.578 206.07 234.877 205.65 235.138L204.572 235.81H209.99V237H202.36V236.02L204.488 234.606C205.188 234.139 205.785 233.71 206.28 233.318C206.775 232.917 207.176 232.539 207.484 232.184C207.801 231.829 208.03 231.489 208.17 231.162C208.319 230.826 208.394 230.49 208.394 230.154C208.394 229.809 208.338 229.515 208.226 229.272C208.123 229.029 207.974 228.833 207.778 228.684C207.591 228.535 207.367 228.427 207.106 228.362C206.854 228.297 206.583 228.264 206.294 228.264C205.874 228.264 205.51 228.329 205.202 228.46C204.903 228.591 204.647 228.763 204.432 228.978C204.227 229.183 204.063 229.417 203.942 229.678C203.83 229.93 203.755 230.182 203.718 230.434L202.626 230.07ZM213.76 227.144H214.558V237H213.382V228.642L210.848 229.804L210.4 228.754L213.76 227.144Z" fill="#777F8C"/>
<rect x="170" y="127" width="60" height="90" fill="#BFCED4"/>
<rect x="170" y="127" width="60" height="4" fill="#A6B2BC"/>
<path d="M187.953 106.032H188.922V118H187.494V107.851L184.417 109.262L183.873 107.987L187.953 106.032ZM192.467 106.1H199.947V107.545H193.776L193.334 110.741C193.594 110.548 193.946 110.39 194.388 110.265C194.841 110.129 195.391 110.061 196.037 110.061C196.751 110.061 197.385 110.163 197.941 110.367C198.496 110.571 198.961 110.854 199.335 111.217C199.709 111.58 199.992 112.005 200.185 112.492C200.389 112.979 200.491 113.501 200.491 114.056C200.491 114.657 200.372 115.206 200.134 115.705C199.907 116.204 199.584 116.634 199.165 116.997C198.757 117.36 198.269 117.643 197.703 117.847C197.147 118.051 196.541 118.153 195.884 118.153C195.34 118.153 194.818 118.091 194.32 117.966C193.821 117.841 193.356 117.654 192.926 117.405C192.506 117.156 192.132 116.855 191.804 116.504C191.486 116.141 191.231 115.722 191.039 115.246L192.399 114.668C192.512 114.929 192.671 115.184 192.875 115.433C193.079 115.671 193.328 115.886 193.623 116.079C193.917 116.272 194.252 116.425 194.626 116.538C195 116.651 195.419 116.708 195.884 116.708C196.405 116.708 196.858 116.64 197.244 116.504C197.64 116.357 197.969 116.164 198.23 115.926C198.49 115.688 198.683 115.416 198.808 115.11C198.932 114.793 198.995 114.458 198.995 114.107C198.995 113.302 198.694 112.668 198.094 112.203C197.504 111.738 196.683 111.506 195.629 111.506C195.028 111.506 194.524 111.591 194.116 111.761C193.719 111.92 193.345 112.175 192.994 112.526L191.77 112.203L192.467 106.1ZM212.576 105.726L213.647 106.508L204.909 118.255L203.787 117.609L212.576 105.726ZM201.951 108.956C201.951 108.525 202.031 108.134 202.189 107.783C202.348 107.42 202.563 107.114 202.835 106.865C203.119 106.604 203.447 106.406 203.821 106.27C204.207 106.123 204.62 106.049 205.062 106.049C205.504 106.049 205.912 106.123 206.286 106.27C206.66 106.406 206.983 106.604 207.255 106.865C207.539 107.114 207.76 107.42 207.918 107.783C208.077 108.134 208.156 108.525 208.156 108.956C208.156 109.387 208.077 109.778 207.918 110.129C207.76 110.48 207.539 110.786 207.255 111.047C206.983 111.296 206.66 111.495 206.286 111.642C205.912 111.778 205.504 111.846 205.062 111.846C204.62 111.846 204.207 111.778 203.821 111.642C203.447 111.495 203.119 111.296 202.835 111.047C202.563 110.786 202.348 110.48 202.189 110.129C202.031 109.778 201.951 109.387 201.951 108.956ZM203.379 108.956C203.379 109.217 203.425 109.449 203.515 109.653C203.617 109.857 203.742 110.033 203.889 110.18C204.048 110.327 204.229 110.441 204.433 110.52C204.637 110.599 204.847 110.639 205.062 110.639C205.504 110.639 205.89 110.486 206.218 110.18C206.558 109.874 206.728 109.466 206.728 108.956C206.728 108.446 206.558 108.038 206.218 107.732C205.89 107.426 205.504 107.273 205.062 107.273C204.609 107.273 204.212 107.426 203.872 107.732C203.544 108.038 203.379 108.446 203.379 108.956ZM209.244 115.161C209.244 114.742 209.324 114.356 209.482 114.005C209.641 113.642 209.856 113.336 210.128 113.087C210.412 112.826 210.74 112.628 211.114 112.492C211.5 112.345 211.913 112.271 212.355 112.271C212.797 112.271 213.205 112.345 213.579 112.492C213.953 112.628 214.276 112.826 214.548 113.087C214.832 113.336 215.053 113.642 215.211 114.005C215.37 114.356 215.449 114.742 215.449 115.161C215.449 115.592 215.37 115.983 215.211 116.334C215.053 116.685 214.832 116.991 214.548 117.252C214.276 117.513 213.953 117.717 213.579 117.864C213.205 118 212.797 118.068 212.355 118.068C211.913 118.068 211.5 118 211.114 117.864C210.74 117.717 210.412 117.513 210.128 117.252C209.856 116.991 209.641 116.685 209.482 116.334C209.324 115.983 209.244 115.592 209.244 115.161ZM210.672 115.161C210.672 115.422 210.718 115.654 210.808 115.858C210.91 116.062 211.035 116.238 211.182 116.385C211.341 116.532 211.522 116.646 211.726 116.725C211.93 116.804 212.14 116.844 212.355 116.844C212.797 116.844 213.183 116.691 213.511 116.385C213.851 116.079 214.021 115.671 214.021 115.161C214.021 114.651 213.851 114.243 213.511 113.937C213.183 113.631 212.797 113.478 212.355 113.478C211.902 113.478 211.505 113.631 211.165 113.937C210.837 114.243 210.672 114.651 210.672 115.161Z" fill="#222429"/>
<path d="M57.8221 230.07C57.9061 229.669 58.0461 229.286 58.2421 228.922C58.4381 228.558 58.6901 228.241 58.9981 227.97C59.3061 227.69 59.6748 227.471 60.1041 227.312C60.5334 227.153 61.0234 227.074 61.5741 227.074C62.0874 227.074 62.5448 227.149 62.9461 227.298C63.3474 227.438 63.6881 227.639 63.9681 227.9C64.2481 228.161 64.4581 228.474 64.5981 228.838C64.7474 229.202 64.8221 229.599 64.8221 230.028C64.8221 230.635 64.6914 231.195 64.4301 231.708C64.1781 232.212 63.8561 232.674 63.4641 233.094C63.0721 233.514 62.6428 233.897 62.1761 234.242C61.7094 234.578 61.2661 234.877 60.8461 235.138L59.7681 235.81H65.1861V237H57.5561V236.02L59.6841 234.606C60.3841 234.139 60.9814 233.71 61.4761 233.318C61.9708 232.917 62.3721 232.539 62.6801 232.184C62.9974 231.829 63.2261 231.489 63.3661 231.162C63.5154 230.826 63.5901 230.49 63.5901 230.154C63.5901 229.809 63.5341 229.515 63.4221 229.272C63.3194 229.029 63.1701 228.833 62.9741 228.684C62.7874 228.535 62.5634 228.427 62.3021 228.362C62.0501 228.297 61.7794 228.264 61.4901 228.264C61.0701 228.264 60.7061 228.329 60.3981 228.46C60.0994 228.591 59.8428 228.763 59.6281 228.978C59.4228 229.183 59.2594 229.417 59.1381 229.678C59.0261 229.93 58.9514 230.182 58.9141 230.434L57.8221 230.07ZM66.1564 232.1C66.1564 231.372 66.2404 230.705 66.4084 230.098C66.5764 229.482 66.8284 228.95 67.1644 228.502C67.5097 228.054 67.9437 227.704 68.4664 227.452C68.989 227.2 69.605 227.074 70.3144 227.074C71.0237 227.074 71.6397 227.191 72.1624 227.424C72.685 227.657 73.119 227.993 73.4644 228.432C73.8097 228.871 74.0664 229.403 74.2344 230.028C74.4024 230.644 74.4864 231.335 74.4864 232.1C74.4864 232.828 74.4024 233.5 74.2344 234.116C74.0757 234.723 73.8237 235.25 73.4784 235.698C73.1424 236.146 72.713 236.496 72.1904 236.748C71.6677 237 71.0517 237.126 70.3424 237.126C69.6704 237.126 69.073 237 68.5504 236.748C68.0277 236.496 67.589 236.146 67.2344 235.698C66.8797 235.25 66.609 234.723 66.4224 234.116C66.245 233.5 66.1564 232.828 66.1564 232.1ZM67.3884 232.1C67.3884 233.295 67.6497 234.233 68.1724 234.914C68.695 235.595 69.4184 235.936 70.3424 235.936C71.3504 235.936 72.0877 235.595 72.5544 234.914C73.021 234.233 73.2544 233.295 73.2544 232.1C73.2544 230.905 73.0164 229.967 72.5404 229.286C72.0644 228.605 71.3224 228.264 70.3144 228.264C69.8104 228.264 69.3764 228.353 69.0124 228.53C68.6484 228.707 68.345 228.964 68.1024 229.3C67.8597 229.636 67.6777 230.042 67.5564 230.518C67.4444 230.985 67.3884 231.512 67.3884 232.1ZM75.63 230.07C75.714 229.669 75.854 229.286 76.05 228.922C76.246 228.558 76.498 228.241 76.806 227.97C77.114 227.69 77.4827 227.471 77.912 227.312C78.3413 227.153 78.8313 227.074 79.382 227.074C79.8953 227.074 80.3527 227.149 80.754 227.298C81.1553 227.438 81.496 227.639 81.776 227.9C82.056 228.161 82.266 228.474 82.406 228.838C82.5553 229.202 82.63 229.599 82.63 230.028C82.63 230.635 82.4993 231.195 82.238 231.708C81.986 232.212 81.664 232.674 81.272 233.094C80.88 233.514 80.4507 233.897 79.984 234.242C79.5173 234.578 79.074 234.877 78.654 235.138L77.576 235.81H82.994V237H75.364V236.02L77.492 234.606C78.192 234.139 78.7893 233.71 79.284 233.318C79.7787 232.917 80.18 232.539 80.488 232.184C80.8053 231.829 81.034 231.489 81.174 231.162C81.3233 230.826 81.398 230.49 81.398 230.154C81.398 229.809 81.342 229.515 81.23 229.272C81.1273 229.029 80.978 228.833 80.782 228.684C80.5953 228.535 80.3713 228.427 80.11 228.362C79.858 228.297 79.5873 228.264 79.298 228.264C78.878 228.264 78.514 228.329 78.206 228.46C77.9073 228.591 77.6507 228.763 77.436 228.978C77.2307 229.183 77.0673 229.417 76.946 229.678C76.834 229.93 76.7593 230.182 76.722 230.434L75.63 230.07ZM83.9643 232.1C83.9643 231.372 84.0483 230.705 84.2163 230.098C84.3843 229.482 84.6363 228.95 84.9723 228.502C85.3176 228.054 85.7516 227.704 86.2743 227.452C86.7969 227.2 87.4129 227.074 88.1223 227.074C88.8316 227.074 89.4476 227.191 89.9703 227.424C90.4929 227.657 90.9269 227.993 91.2723 228.432C91.6176 228.871 91.8743 229.403 92.0423 230.028C92.2103 230.644 92.2943 231.335 92.2943 232.1C92.2943 232.828 92.2103 233.5 92.0423 234.116C91.8836 234.723 91.6316 235.25 91.2863 235.698C90.9503 236.146 90.5209 236.496 89.9983 236.748C89.4756 237 88.8596 237.126 88.1503 237.126C87.4783 237.126 86.8809 237 86.3583 236.748C85.8356 236.496 85.3969 236.146 85.0423 235.698C84.6876 235.25 84.4169 234.723 84.2303 234.116C84.0529 233.5 83.9643 232.828 83.9643 232.1ZM85.1963 232.1C85.1963 233.295 85.4576 234.233 85.9803 234.914C86.5029 235.595 87.2263 235.936 88.1503 235.936C89.1583 235.936 89.8956 235.595 90.3623 234.914C90.8289 234.233 91.0623 233.295 91.0623 232.1C91.0623 230.905 90.8243 229.967 90.3483 229.286C89.8723 228.605 89.1303 228.264 88.1223 228.264C87.6183 228.264 87.1843 228.353 86.8203 228.53C86.4563 228.707 86.1529 228.964 85.9103 229.3C85.6676 229.636 85.4856 230.042 85.3643 230.518C85.2523 230.985 85.1963 231.512 85.1963 232.1Z" fill="#777F8C"/>
<rect x="45" y="139" width="60" height="78" fill="#BFCED4"/>
<rect x="45" y="139" width="60" height="4" fill="#A6B2BC"/>
<path d="M63.0524 118.032H64.0214V130H62.5934V119.851L59.5164 121.262L58.9724 119.987L63.0524 118.032ZM66.2574 120.99C66.4161 120.548 66.6314 120.146 66.9034 119.783C67.1754 119.409 67.5041 119.086 67.8894 118.814C68.2861 118.542 68.7394 118.332 69.2494 118.185C69.7708 118.026 70.3544 117.947 71.0004 117.947C71.5784 117.947 72.1111 118.021 72.5984 118.168C73.0971 118.304 73.5221 118.502 73.8734 118.763C74.2361 119.012 74.5138 119.324 74.7064 119.698C74.9104 120.072 75.0124 120.486 75.0124 120.939C75.0124 121.63 74.8311 122.22 74.4684 122.707C74.1171 123.194 73.6014 123.534 72.9214 123.727C73.2161 123.75 73.5051 123.823 73.7884 123.948C74.0718 124.061 74.3211 124.237 74.5364 124.475C74.7631 124.702 74.9444 124.991 75.0804 125.342C75.2164 125.682 75.2844 126.09 75.2844 126.566C75.2844 127.144 75.1711 127.66 74.9444 128.113C74.7291 128.555 74.4231 128.929 74.0264 129.235C73.6411 129.53 73.1821 129.756 72.6494 129.915C72.1168 130.074 71.5444 130.153 70.9324 130.153C70.2638 130.153 69.6518 130.074 69.0964 129.915C68.5524 129.756 68.0708 129.541 67.6514 129.269C67.2321 128.986 66.8751 128.651 66.5804 128.266C66.2971 127.869 66.0818 127.433 65.9344 126.957L67.3114 126.362C67.4588 126.668 67.6344 126.963 67.8384 127.246C68.0424 127.529 68.2918 127.779 68.5864 127.994C68.8811 128.209 69.2268 128.385 69.6234 128.521C70.0201 128.646 70.4904 128.708 71.0344 128.708C71.8844 128.708 72.5531 128.527 73.0404 128.164C73.5391 127.79 73.7884 127.263 73.7884 126.583C73.7884 126.209 73.7091 125.897 73.5504 125.648C73.3918 125.387 73.1708 125.183 72.8874 125.036C72.6041 124.877 72.2698 124.77 71.8844 124.713C71.5104 124.645 71.1024 124.611 70.6604 124.611H69.3344V123.2H70.3884C71.3744 123.2 72.1394 123.013 72.6834 122.639C73.2388 122.265 73.5164 121.795 73.5164 121.228C73.5164 120.616 73.2841 120.157 72.8194 119.851C72.3548 119.545 71.7258 119.392 70.9324 119.392C70.4451 119.392 70.0144 119.454 69.6404 119.579C69.2664 119.704 68.9378 119.868 68.6544 120.072C68.3824 120.276 68.1501 120.508 67.9574 120.769C67.7761 121.03 67.6344 121.296 67.5324 121.568L66.2574 120.99ZM87.4766 117.726L88.5476 118.508L79.8096 130.255L78.6876 129.609L87.4766 117.726ZM76.8516 120.956C76.8516 120.525 76.9309 120.134 77.0896 119.783C77.2483 119.42 77.4636 119.114 77.7356 118.865C78.0189 118.604 78.3476 118.406 78.7216 118.27C79.1069 118.123 79.5206 118.049 79.9626 118.049C80.4046 118.049 80.8126 118.123 81.1866 118.27C81.5606 118.406 81.8836 118.604 82.1556 118.865C82.4389 119.114 82.6599 119.42 82.8186 119.783C82.9773 120.134 83.0566 120.525 83.0566 120.956C83.0566 121.387 82.9773 121.778 82.8186 122.129C82.6599 122.48 82.4389 122.786 82.1556 123.047C81.8836 123.296 81.5606 123.495 81.1866 123.642C80.8126 123.778 80.4046 123.846 79.9626 123.846C79.5206 123.846 79.1069 123.778 78.7216 123.642C78.3476 123.495 78.0189 123.296 77.7356 123.047C77.4636 122.786 77.2483 122.48 77.0896 122.129C76.9309 121.778 76.8516 121.387 76.8516 120.956ZM78.2796 120.956C78.2796 121.217 78.3249 121.449 78.4156 121.653C78.5176 121.857 78.6423 122.033 78.7896 122.18C78.9483 122.327 79.1296 122.441 79.3336 122.52C79.5376 122.599 79.7473 122.639 79.9626 122.639C80.4046 122.639 80.7899 122.486 81.1186 122.18C81.4586 121.874 81.6286 121.466 81.6286 120.956C81.6286 120.446 81.4586 120.038 81.1186 119.732C80.7899 119.426 80.4046 119.273 79.9626 119.273C79.5093 119.273 79.1126 119.426 78.7726 119.732C78.4439 120.038 78.2796 120.446 78.2796 120.956ZM84.1446 127.161C84.1446 126.742 84.2239 126.356 84.3826 126.005C84.5413 125.642 84.7566 125.336 85.0286 125.087C85.3119 124.826 85.6406 124.628 86.0146 124.492C86.3999 124.345 86.8136 124.271 87.2556 124.271C87.6976 124.271 88.1056 124.345 88.4796 124.492C88.8536 124.628 89.1766 124.826 89.4486 125.087C89.7319 125.336 89.9529 125.642 90.1116 126.005C90.2703 126.356 90.3496 126.742 90.3496 127.161C90.3496 127.592 90.2703 127.983 90.1116 128.334C89.9529 128.685 89.7319 128.991 89.4486 129.252C89.1766 129.513 88.8536 129.717 88.4796 129.864C88.1056 130 87.6976 130.068 87.2556 130.068C86.8136 130.068 86.3999 130 86.0146 129.864C85.6406 129.717 85.3119 129.513 85.0286 129.252C84.7566 128.991 84.5413 128.685 84.3826 128.334C84.2239 127.983 84.1446 127.592 84.1446 127.161ZM85.5726 127.161C85.5726 127.422 85.6179 127.654 85.7086 127.858C85.8106 128.062 85.9353 128.238 86.0826 128.385C86.2413 128.532 86.4226 128.646 86.6266 128.725C86.8306 128.804 87.0403 128.844 87.2556 128.844C87.6976 128.844 88.0829 128.691 88.4116 128.385C88.7516 128.079 88.9216 127.671 88.9216 127.161C88.9216 126.651 88.7516 126.243 88.4116 125.937C88.0829 125.631 87.6976 125.478 87.2556 125.478C86.8023 125.478 86.4056 125.631 86.0656 125.937C85.7369 126.243 85.5726 126.651 85.5726 127.161Z" fill="#222429"/>
<path d="M303.294 230.07C303.378 229.669 303.518 229.286 303.714 228.922C303.91 228.558 304.162 228.241 304.47 227.97C304.778 227.69 305.146 227.471 305.576 227.312C306.005 227.153 306.495 227.074 307.046 227.074C307.559 227.074 308.016 227.149 308.418 227.298C308.819 227.438 309.16 227.639 309.44 227.9C309.72 228.161 309.93 228.474 310.07 228.838C310.219 229.202 310.294 229.599 310.294 230.028C310.294 230.635 310.163 231.195 309.902 231.708C309.65 232.212 309.328 232.674 308.936 233.094C308.544 233.514 308.114 233.897 307.648 234.242C307.181 234.578 306.738 234.877 306.318 235.138L305.24 235.81H310.658V237H303.028V236.02L305.156 234.606C305.856 234.139 306.453 233.71 306.948 233.318C307.442 232.917 307.844 232.539 308.152 232.184C308.469 231.829 308.698 231.489 308.838 231.162C308.987 230.826 309.062 230.49 309.062 230.154C309.062 229.809 309.006 229.515 308.894 229.272C308.791 229.029 308.642 228.833 308.446 228.684C308.259 228.535 308.035 228.427 307.774 228.362C307.522 228.297 307.251 228.264 306.962 228.264C306.542 228.264 306.178 228.329 305.87 228.46C305.571 228.591 305.314 228.763 305.1 228.978C304.894 229.183 304.731 229.417 304.61 229.678C304.498 229.93 304.423 230.182 304.386 230.434L303.294 230.07ZM311.628 232.1C311.628 231.372 311.712 230.705 311.88 230.098C312.048 229.482 312.3 228.95 312.636 228.502C312.981 228.054 313.415 227.704 313.938 227.452C314.461 227.2 315.077 227.074 315.786 227.074C316.495 227.074 317.111 227.191 317.634 227.424C318.157 227.657 318.591 227.993 318.936 228.432C319.281 228.871 319.538 229.403 319.706 230.028C319.874 230.644 319.958 231.335 319.958 232.1C319.958 232.828 319.874 233.5 319.706 234.116C319.547 234.723 319.295 235.25 318.95 235.698C318.614 236.146 318.185 236.496 317.662 236.748C317.139 237 316.523 237.126 315.814 237.126C315.142 237.126 314.545 237 314.022 236.748C313.499 236.496 313.061 236.146 312.706 235.698C312.351 235.25 312.081 234.723 311.894 234.116C311.717 233.5 311.628 232.828 311.628 232.1ZM312.86 232.1C312.86 233.295 313.121 234.233 313.644 234.914C314.167 235.595 314.89 235.936 315.814 235.936C316.822 235.936 317.559 235.595 318.026 234.914C318.493 234.233 318.726 233.295 318.726 232.1C318.726 230.905 318.488 229.967 318.012 229.286C317.536 228.605 316.794 228.264 315.786 228.264C315.282 228.264 314.848 228.353 314.484 228.53C314.12 228.707 313.817 228.964 313.574 229.3C313.331 229.636 313.149 230.042 313.028 230.518C312.916 230.985 312.86 231.512 312.86 232.1ZM321.102 230.07C321.186 229.669 321.326 229.286 321.522 228.922C321.718 228.558 321.97 228.241 322.278 227.97C322.586 227.69 322.954 227.471 323.384 227.312C323.813 227.153 324.303 227.074 324.854 227.074C325.367 227.074 325.824 227.149 326.226 227.298C326.627 227.438 326.968 227.639 327.248 227.9C327.528 228.161 327.738 228.474 327.878 228.838C328.027 229.202 328.102 229.599 328.102 230.028C328.102 230.635 327.971 231.195 327.71 231.708C327.458 232.212 327.136 232.674 326.744 233.094C326.352 233.514 325.922 233.897 325.456 234.242C324.989 234.578 324.546 234.877 324.126 235.138L323.048 235.81H328.466V237H320.836V236.02L322.964 234.606C323.664 234.139 324.261 233.71 324.756 233.318C325.25 232.917 325.652 232.539 325.96 232.184C326.277 231.829 326.506 231.489 326.646 231.162C326.795 230.826 326.87 230.49 326.87 230.154C326.87 229.809 326.814 229.515 326.702 229.272C326.599 229.029 326.45 228.833 326.254 228.684C326.067 228.535 325.843 228.427 325.582 228.362C325.33 228.297 325.059 228.264 324.77 228.264C324.35 228.264 323.986 228.329 323.678 228.46C323.379 228.591 323.122 228.763 322.908 228.978C322.702 229.183 322.539 229.417 322.418 229.678C322.306 229.93 322.231 230.182 322.194 230.434L321.102 230.07ZM329.534 230.07C329.618 229.669 329.758 229.286 329.954 228.922C330.15 228.558 330.402 228.241 330.71 227.97C331.018 227.69 331.387 227.471 331.816 227.312C332.245 227.153 332.735 227.074 333.286 227.074C333.799 227.074 334.257 227.149 334.658 227.298C335.059 227.438 335.4 227.639 335.68 227.9C335.96 228.161 336.17 228.474 336.31 228.838C336.459 229.202 336.534 229.599 336.534 230.028C336.534 230.635 336.403 231.195 336.142 231.708C335.89 232.212 335.568 232.674 335.176 233.094C334.784 233.514 334.355 233.897 333.888 234.242C333.421 234.578 332.978 234.877 332.558 235.138L331.48 235.81H336.898V237H329.268V236.02L331.396 234.606C332.096 234.139 332.693 233.71 333.188 233.318C333.683 232.917 334.084 232.539 334.392 232.184C334.709 231.829 334.938 231.489 335.078 231.162C335.227 230.826 335.302 230.49 335.302 230.154C335.302 229.809 335.246 229.515 335.134 229.272C335.031 229.029 334.882 228.833 334.686 228.684C334.499 228.535 334.275 228.427 334.014 228.362C333.762 228.297 333.491 228.264 333.202 228.264C332.782 228.264 332.418 228.329 332.11 228.46C331.811 228.591 331.555 228.763 331.34 228.978C331.135 229.183 330.971 229.417 330.85 229.678C330.738 229.93 330.663 230.182 330.626 230.434L329.534 230.07Z" fill="#777F8C"/>
<rect x="290" y="110" width="60" height="107" fill="#BFCED4"/>
<rect x="290" y="110" width="60" height="4" fill="#A6B2BC"/>
<path d="M307.629 89.032H308.598V101H307.17V90.851L304.093 92.262L303.549 90.987L307.629 89.032ZM316.155 94.217C316.54 94.217 316.897 94.1717 317.226 94.081C317.566 93.979 317.861 93.843 318.11 93.673C318.359 93.503 318.552 93.299 318.688 93.061C318.835 92.823 318.909 92.5623 318.909 92.279C318.909 91.667 318.654 91.2023 318.144 90.885C317.645 90.5563 316.88 90.392 315.849 90.392C314.852 90.392 314.098 90.5563 313.588 90.885C313.089 91.2137 312.84 91.6783 312.84 92.279C312.84 92.551 312.908 92.806 313.044 93.044C313.18 93.282 313.367 93.4917 313.605 93.673C313.854 93.843 314.149 93.979 314.489 94.081C314.84 94.1717 315.22 94.217 315.628 94.217H316.155ZM315.696 95.56C315.22 95.56 314.778 95.6167 314.37 95.73C313.973 95.832 313.633 95.9793 313.35 96.172C313.067 96.3533 312.846 96.5743 312.687 96.835C312.528 97.0843 312.449 97.3507 312.449 97.634C312.449 98.246 312.732 98.7447 313.299 99.13C313.877 99.5153 314.733 99.708 315.866 99.708C317.033 99.708 317.895 99.5267 318.45 99.164C319.005 98.79 319.283 98.2857 319.283 97.651C319.283 96.9823 318.994 96.4667 318.416 96.104C317.849 95.7413 317.084 95.56 316.121 95.56H315.696ZM315.883 101.153C315.124 101.153 314.438 101.079 313.826 100.932C313.225 100.773 312.71 100.552 312.279 100.269C311.86 99.9743 311.531 99.623 311.293 99.215C311.066 98.7957 310.953 98.3197 310.953 97.787C310.953 97.0843 311.163 96.478 311.582 95.968C312.013 95.4467 312.585 95.0727 313.299 94.846C312.959 94.7327 312.664 94.5853 312.415 94.404C312.166 94.2113 311.962 93.996 311.803 93.758C311.644 93.52 311.525 93.2707 311.446 93.01C311.378 92.738 311.344 92.4603 311.344 92.177C311.344 91.191 311.729 90.409 312.5 89.831C313.282 89.2417 314.404 88.947 315.866 88.947C317.339 88.947 318.461 89.2417 319.232 89.831C320.014 90.409 320.405 91.191 320.405 92.177C320.405 92.789 320.235 93.3047 319.895 93.724C319.566 94.1433 319.107 94.489 318.518 94.761C319.334 95.0103 319.912 95.3843 320.252 95.883C320.603 96.3817 320.779 96.9937 320.779 97.719C320.779 98.263 320.666 98.7503 320.439 99.181C320.212 99.6003 319.884 99.9573 319.453 100.252C319.034 100.547 318.518 100.773 317.906 100.932C317.305 101.079 316.631 101.153 315.883 101.153ZM332.9 88.726L333.971 89.508L325.233 101.255L324.111 100.609L332.9 88.726ZM322.275 91.956C322.275 91.5253 322.354 91.1343 322.513 90.783C322.672 90.4203 322.887 90.1143 323.159 89.865C323.442 89.6043 323.771 89.406 324.145 89.27C324.53 89.1227 324.944 89.049 325.386 89.049C325.828 89.049 326.236 89.1227 326.61 89.27C326.984 89.406 327.307 89.6043 327.579 89.865C327.862 90.1143 328.083 90.4203 328.242 90.783C328.401 91.1343 328.48 91.5253 328.48 91.956C328.48 92.3867 328.401 92.7777 328.242 93.129C328.083 93.4803 327.862 93.7863 327.579 94.047C327.307 94.2963 326.984 94.4947 326.61 94.642C326.236 94.778 325.828 94.846 325.386 94.846C324.944 94.846 324.53 94.778 324.145 94.642C323.771 94.4947 323.442 94.2963 323.159 94.047C322.887 93.7863 322.672 93.4803 322.513 93.129C322.354 92.7777 322.275 92.3867 322.275 91.956ZM323.703 91.956C323.703 92.2167 323.748 92.449 323.839 92.653C323.941 92.857 324.066 93.0327 324.213 93.18C324.372 93.3273 324.553 93.4407 324.757 93.52C324.961 93.5993 325.171 93.639 325.386 93.639C325.828 93.639 326.213 93.486 326.542 93.18C326.882 92.874 327.052 92.466 327.052 91.956C327.052 91.446 326.882 91.038 326.542 90.732C326.213 90.426 325.828 90.273 325.386 90.273C324.933 90.273 324.536 90.426 324.196 90.732C323.867 91.038 323.703 91.446 323.703 91.956ZM329.568 98.161C329.568 97.7417 329.647 97.3563 329.806 97.005C329.965 96.6423 330.18 96.3363 330.452 96.087C330.735 95.8263 331.064 95.628 331.438 95.492C331.823 95.3447 332.237 95.271 332.679 95.271C333.121 95.271 333.529 95.3447 333.903 95.492C334.277 95.628 334.6 95.8263 334.872 96.087C335.155 96.3363 335.376 96.6423 335.535 97.005C335.694 97.3563 335.773 97.7417 335.773 98.161C335.773 98.5917 335.694 98.9827 335.535 99.334C335.376 99.6853 335.155 99.9913 334.872 100.252C334.6 100.513 334.277 100.717 333.903 100.864C333.529 101 333.121 101.068 332.679 101.068C332.237 101.068 331.823 101 331.438 100.864C331.064 100.717 330.735 100.513 330.452 100.252C330.18 99.9913 329.965 99.6853 329.806 99.334C329.647 98.9827 329.568 98.5917 329.568 98.161ZM330.996 98.161C330.996 98.4217 331.041 98.654 331.132 98.858C331.234 99.062 331.359 99.2377 331.506 99.385C331.665 99.5323 331.846 99.6457 332.05 99.725C332.254 99.8043 332.464 99.844 332.679 99.844C333.121 99.844 333.506 99.691 333.835 99.385C334.175 99.079 334.345 98.671 334.345 98.161C334.345 97.651 334.175 97.243 333.835 96.937C333.506 96.631 333.121 96.478 332.679 96.478C332.226 96.478 331.829 96.631 331.489 96.937C331.16 97.243 330.996 97.651 330.996 98.161Z" fill="#222429"/>
<path d="M418.688 230.07C418.772 229.669 418.912 229.286 419.108 228.922C419.304 228.558 419.556 228.241 419.864 227.97C420.172 227.69 420.541 227.471 420.97 227.312C421.399 227.153 421.889 227.074 422.44 227.074C422.953 227.074 423.411 227.149 423.812 227.298C424.213 227.438 424.554 227.639 424.834 227.9C425.114 228.161 425.324 228.474 425.464 228.838C425.613 229.202 425.688 229.599 425.688 230.028C425.688 230.635 425.557 231.195 425.296 231.708C425.044 232.212 424.722 232.674 424.33 233.094C423.938 233.514 423.509 233.897 423.042 234.242C422.575 234.578 422.132 234.877 421.712 235.138L420.634 235.81H426.052V237H418.422V236.02L420.55 234.606C421.25 234.139 421.847 233.71 422.342 233.318C422.837 232.917 423.238 232.539 423.546 232.184C423.863 231.829 424.092 231.489 424.232 231.162C424.381 230.826 424.456 230.49 424.456 230.154C424.456 229.809 424.4 229.515 424.288 229.272C424.185 229.029 424.036 228.833 423.84 228.684C423.653 228.535 423.429 228.427 423.168 228.362C422.916 228.297 422.645 228.264 422.356 228.264C421.936 228.264 421.572 228.329 421.264 228.46C420.965 228.591 420.709 228.763 420.494 228.978C420.289 229.183 420.125 229.417 420.004 229.678C419.892 229.93 419.817 230.182 419.78 230.434L418.688 230.07ZM427.022 232.1C427.022 231.372 427.106 230.705 427.274 230.098C427.442 229.482 427.694 228.95 428.03 228.502C428.376 228.054 428.81 227.704 429.332 227.452C429.855 227.2 430.471 227.074 431.18 227.074C431.89 227.074 432.506 227.191 433.028 227.424C433.551 227.657 433.985 227.993 434.33 228.432C434.676 228.871 434.932 229.403 435.1 230.028C435.268 230.644 435.352 231.335 435.352 232.1C435.352 232.828 435.268 233.5 435.1 234.116C434.942 234.723 434.69 235.25 434.344 235.698C434.008 236.146 433.579 236.496 433.056 236.748C432.534 237 431.918 237.126 431.208 237.126C430.536 237.126 429.939 237 429.416 236.748C428.894 236.496 428.455 236.146 428.1 235.698C427.746 235.25 427.475 234.723 427.288 234.116C427.111 233.5 427.022 232.828 427.022 232.1ZM428.254 232.1C428.254 233.295 428.516 234.233 429.038 234.914C429.561 235.595 430.284 235.936 431.208 235.936C432.216 235.936 432.954 235.595 433.42 234.914C433.887 234.233 434.12 233.295 434.12 232.1C434.12 230.905 433.882 229.967 433.406 229.286C432.93 228.605 432.188 228.264 431.18 228.264C430.676 228.264 430.242 228.353 429.878 228.53C429.514 228.707 429.211 228.964 428.968 229.3C428.726 229.636 428.544 230.042 428.422 230.518C428.31 230.985 428.254 231.512 428.254 232.1ZM436.496 230.07C436.58 229.669 436.72 229.286 436.916 228.922C437.112 228.558 437.364 228.241 437.672 227.97C437.98 227.69 438.349 227.471 438.778 227.312C439.207 227.153 439.697 227.074 440.248 227.074C440.761 227.074 441.219 227.149 441.62 227.298C442.021 227.438 442.362 227.639 442.642 227.9C442.922 228.161 443.132 228.474 443.272 228.838C443.421 229.202 443.496 229.599 443.496 230.028C443.496 230.635 443.365 231.195 443.104 231.708C442.852 232.212 442.53 232.674 442.138 233.094C441.746 233.514 441.317 233.897 440.85 234.242C440.383 234.578 439.94 234.877 439.52 235.138L438.442 235.81H443.86V237H436.23V236.02L438.358 234.606C439.058 234.139 439.655 233.71 440.15 233.318C440.645 232.917 441.046 232.539 441.354 232.184C441.671 231.829 441.9 231.489 442.04 231.162C442.189 230.826 442.264 230.49 442.264 230.154C442.264 229.809 442.208 229.515 442.096 229.272C441.993 229.029 441.844 228.833 441.648 228.684C441.461 228.535 441.237 228.427 440.976 228.362C440.724 228.297 440.453 228.264 440.164 228.264C439.744 228.264 439.38 228.329 439.072 228.46C438.773 228.591 438.517 228.763 438.302 228.978C438.097 229.183 437.933 229.417 437.812 229.678C437.7 229.93 437.625 230.182 437.588 230.434L436.496 230.07ZM444.746 229.58C444.877 229.216 445.054 228.885 445.278 228.586C445.502 228.278 445.773 228.012 446.09 227.788C446.417 227.564 446.79 227.391 447.21 227.27C447.639 227.139 448.12 227.074 448.652 227.074C449.128 227.074 449.567 227.135 449.968 227.256C450.379 227.368 450.729 227.531 451.018 227.746C451.317 227.951 451.545 228.208 451.704 228.516C451.872 228.824 451.956 229.165 451.956 229.538C451.956 230.107 451.807 230.593 451.508 230.994C451.219 231.395 450.794 231.675 450.234 231.834C450.477 231.853 450.715 231.913 450.948 232.016C451.181 232.109 451.387 232.254 451.564 232.45C451.751 232.637 451.9 232.875 452.012 233.164C452.124 233.444 452.18 233.78 452.18 234.172C452.18 234.648 452.087 235.073 451.9 235.446C451.723 235.81 451.471 236.118 451.144 236.37C450.827 236.613 450.449 236.799 450.01 236.93C449.571 237.061 449.1 237.126 448.596 237.126C448.045 237.126 447.541 237.061 447.084 236.93C446.636 236.799 446.239 236.622 445.894 236.398C445.549 236.165 445.255 235.889 445.012 235.572C444.779 235.245 444.601 234.886 444.48 234.494L445.614 234.004C445.735 234.256 445.88 234.499 446.048 234.732C446.216 234.965 446.421 235.171 446.664 235.348C446.907 235.525 447.191 235.67 447.518 235.782C447.845 235.885 448.232 235.936 448.68 235.936C449.38 235.936 449.931 235.787 450.332 235.488C450.743 235.18 450.948 234.746 450.948 234.186C450.948 233.878 450.883 233.621 450.752 233.416C450.621 233.201 450.439 233.033 450.206 232.912C449.973 232.781 449.697 232.693 449.38 232.646C449.072 232.59 448.736 232.562 448.372 232.562H447.28V231.4H448.148C448.96 231.4 449.59 231.246 450.038 230.938C450.495 230.63 450.724 230.243 450.724 229.776C450.724 229.272 450.533 228.894 450.15 228.642C449.767 228.39 449.249 228.264 448.596 228.264C448.195 228.264 447.84 228.315 447.532 228.418C447.224 228.521 446.953 228.656 446.72 228.824C446.496 228.992 446.305 229.183 446.146 229.398C445.997 229.613 445.88 229.832 445.796 230.056L444.746 229.58ZM453.989 227.2H461.045V228.39H455.263V231.428H460.653V232.618H455.263V235.81H461.171V237H453.989V227.2Z" fill="#5FAF2D"/>
<rect x="410" y="63" width="60" height="154" fill="#5FAF2D"/>
<rect x="410" y="63" width="60" height="4" fill="#3D7917"/>
<path d="M422.514 45.585C422.616 45.0977 422.786 44.633 423.024 44.191C423.262 43.749 423.568 43.3637 423.942 43.035C424.316 42.695 424.763 42.4287 425.285 42.236C425.806 42.0433 426.401 41.947 427.07 41.947C427.693 41.947 428.248 42.0377 428.736 42.219C429.223 42.389 429.637 42.6327 429.977 42.95C430.317 43.2673 430.572 43.647 430.742 44.089C430.923 44.531 431.014 45.0127 431.014 45.534C431.014 46.2707 430.855 46.9507 430.538 47.574C430.232 48.186 429.841 48.747 429.365 49.257C428.889 49.767 428.367 50.2317 427.801 50.651C427.234 51.059 426.696 51.4217 426.186 51.739L424.877 52.555H431.456V54H422.191V52.81L424.775 51.093C425.625 50.5263 426.35 50.005 426.951 49.529C427.551 49.0417 428.039 48.5827 428.413 48.152C428.798 47.7213 429.076 47.3077 429.246 46.911C429.427 46.503 429.518 46.095 429.518 45.687C429.518 45.2677 429.45 44.9107 429.314 44.616C429.189 44.3213 429.008 44.0833 428.77 43.902C428.543 43.7207 428.271 43.5903 427.954 43.511C427.648 43.4317 427.319 43.392 426.968 43.392C426.458 43.392 426.016 43.4713 425.642 43.63C425.279 43.7887 424.967 43.9983 424.707 44.259C424.457 44.5083 424.259 44.7917 424.112 45.109C423.976 45.415 423.885 45.721 423.84 46.027L422.514 45.585ZM438.006 54.153C437.212 54.153 436.493 54.0283 435.847 53.779C435.212 53.5297 434.668 53.1613 434.215 52.674C433.761 52.1753 433.41 51.569 433.161 50.855C432.923 50.141 432.804 49.3137 432.804 48.373C432.804 47.3077 432.945 46.3727 433.229 45.568C433.512 44.7633 433.892 44.0947 434.368 43.562C434.855 43.018 435.416 42.6157 436.051 42.355C436.697 42.083 437.377 41.947 438.091 41.947C439.122 41.947 440 42.1567 440.726 42.576C441.451 42.9953 441.978 43.562 442.307 44.276L441.151 45.058C440.822 44.548 440.397 44.1457 439.876 43.851C439.366 43.545 438.748 43.392 438.023 43.392C437.456 43.392 436.946 43.5053 436.493 43.732C436.039 43.9473 435.648 44.2647 435.32 44.684C434.991 45.092 434.736 45.5907 434.555 46.18C434.373 46.758 434.277 47.4097 434.266 48.135V48.322C434.424 47.948 434.64 47.6193 434.912 47.336C435.195 47.0527 435.512 46.8147 435.864 46.622C436.215 46.4293 436.589 46.2877 436.986 46.197C437.394 46.095 437.807 46.044 438.227 46.044C438.918 46.044 439.541 46.1403 440.097 46.333C440.652 46.5257 441.122 46.7977 441.508 47.149C441.904 47.5003 442.205 47.9197 442.409 48.407C442.613 48.8943 442.715 49.4327 442.715 50.022C442.715 50.634 442.59 51.195 442.341 51.705C442.103 52.215 441.768 52.6513 441.338 53.014C440.918 53.3767 440.42 53.66 439.842 53.864C439.275 54.0567 438.663 54.153 438.006 54.153ZM437.989 52.708C438.465 52.708 438.895 52.6457 439.281 52.521C439.677 52.3963 440.017 52.2207 440.301 51.994C440.595 51.756 440.822 51.4783 440.981 51.161C441.139 50.8437 441.219 50.4867 441.219 50.09C441.219 49.6593 441.139 49.2853 440.981 48.968C440.833 48.6393 440.624 48.3673 440.352 48.152C440.08 47.9253 439.751 47.761 439.366 47.659C438.992 47.5457 438.584 47.489 438.142 47.489C437.054 47.489 436.226 47.7213 435.66 48.186C435.104 48.6507 434.827 49.2457 434.827 49.971C434.827 50.345 434.9 50.6963 435.048 51.025C435.195 51.3537 435.405 51.6427 435.677 51.892C435.949 52.1413 436.277 52.3397 436.663 52.487C437.059 52.6343 437.501 52.708 437.989 52.708ZM454.734 41.726L455.805 42.508L447.067 54.255L445.945 53.609L454.734 41.726ZM444.109 44.956C444.109 44.5253 444.189 44.1343 444.347 43.783C444.506 43.4203 444.721 43.1143 444.993 42.865C445.277 42.6043 445.605 42.406 445.979 42.27C446.365 42.1227 446.778 42.049 447.22 42.049C447.662 42.049 448.07 42.1227 448.444 42.27C448.818 42.406 449.141 42.6043 449.413 42.865C449.697 43.1143 449.918 43.4203 450.076 43.783C450.235 44.1343 450.314 44.5253 450.314 44.956C450.314 45.3867 450.235 45.7777 450.076 46.129C449.918 46.4803 449.697 46.7863 449.413 47.047C449.141 47.2963 448.818 47.4947 448.444 47.642C448.07 47.778 447.662 47.846 447.22 47.846C446.778 47.846 446.365 47.778 445.979 47.642C445.605 47.4947 445.277 47.2963 444.993 47.047C444.721 46.7863 444.506 46.4803 444.347 46.129C444.189 45.7777 444.109 45.3867 444.109 44.956ZM445.537 44.956C445.537 45.2167 445.583 45.449 445.673 45.653C445.775 45.857 445.9 46.0327 446.047 46.18C446.206 46.3273 446.387 46.4407 446.591 46.52C446.795 46.5993 447.005 46.639 447.22 46.639C447.662 46.639 448.048 46.486 448.376 46.18C448.716 45.874 448.886 45.466 448.886 44.956C448.886 44.446 448.716 44.038 448.376 43.732C448.048 43.426 447.662 43.273 447.22 43.273C446.767 43.273 446.37 43.426 446.03 43.732C445.702 44.038 445.537 44.446 445.537 44.956ZM451.402 51.161C451.402 50.7417 451.482 50.3563 451.64 50.005C451.799 49.6423 452.014 49.3363 452.286 49.087C452.57 48.8263 452.898 48.628 453.272 48.492C453.658 48.3447 454.071 48.271 454.513 48.271C454.955 48.271 455.363 48.3447 455.737 48.492C456.111 48.628 456.434 48.8263 456.706 49.087C456.99 49.3363 457.211 49.6423 457.369 50.005C457.528 50.3563 457.607 50.7417 457.607 51.161C457.607 51.5917 457.528 51.9827 457.369 52.334C457.211 52.6853 456.99 52.9913 456.706 53.252C456.434 53.5127 456.111 53.7167 455.737 53.864C455.363 54 454.955 54.068 454.513 54.068C454.071 54.068 453.658 54 453.272 53.864C452.898 53.7167 452.57 53.5127 452.286 53.252C452.014 52.9913 451.799 52.6853 451.64 52.334C451.482 51.9827 451.402 51.5917 451.402 51.161ZM452.83 51.161C452.83 51.4217 452.876 51.654 452.966 51.858C453.068 52.062 453.193 52.2377 453.34 52.385C453.499 52.5323 453.68 52.6457 453.884 52.725C454.088 52.8043 454.298 52.844 454.513 52.844C454.955 52.844 455.341 52.691 455.669 52.385C456.009 52.079 456.179 51.671 456.179 51.161C456.179 50.651 456.009 50.243 455.669 49.937C455.341 49.631 454.955 49.478 454.513 49.478C454.06 49.478 453.663 49.631 453.323 49.937C452.995 50.243 452.83 50.651 452.83 51.161Z" fill="#222429"/>
<rect y="217" width="536" height="1" fill="#9299A3"/>
</g>
<defs>
<clipPath id="clip0_149_23533">
<rect width="536" height="237" fill="white"/>
</clipPath>
</defs>
</svg>
