<svg viewBox="0 0 355 304" fill="none" xmlns="http://www.w3.org/2000/svg">
<path d="M148.171 163.027C148.358 161.82 149.276 160.392 151.299 160.392C152.727 160.392 153.849 161.004 153.849 162.687C153.849 164.319 152.506 165.832 149.106 168.093L146.522 169.81V171H155.787V169.555H149.208L150.517 168.739C152.557 167.464 155.345 165.475 155.345 162.534C155.345 160.426 153.9 158.947 151.401 158.947C148.732 158.947 147.253 160.613 146.845 162.585L148.171 163.027ZM157.135 165.05C157.135 168.569 158.937 171.153 162.218 171.153C165.686 171.153 167.25 168.569 167.25 165.05C167.25 161.31 165.635 158.947 162.184 158.947C158.75 158.947 157.135 161.531 157.135 165.05ZM158.631 165.05C158.631 162.194 159.753 160.392 162.184 160.392C164.632 160.392 165.754 162.143 165.754 165.05C165.754 167.94 164.666 169.708 162.218 169.708C159.991 169.708 158.631 167.94 158.631 165.05ZM170.135 163.027C170.322 161.82 171.24 160.392 173.263 160.392C174.691 160.392 175.813 161.004 175.813 162.687C175.813 164.319 174.47 165.832 171.07 168.093L168.486 169.81V171H177.751V169.555H171.172L172.481 168.739C174.521 167.464 177.309 165.475 177.309 162.534C177.309 160.426 175.864 158.947 173.365 158.947C170.696 158.947 169.217 160.613 168.809 162.585L170.135 163.027ZM178.419 160.987L178.963 162.262L182.04 160.851V171H183.468V159.032H182.499L178.419 160.987Z" fill="#222429"/>
<path d="M167.414 29.8672C189.493 29.8672 211.243 35.2156 230.805 45.455C250.366 55.6944 267.155 70.5199 279.737 88.6633C292.319 106.807 300.319 127.728 303.051 149.637C305.784 171.546 303.169 193.791 295.43 214.47C287.69 235.148 275.057 253.643 258.61 268.374C242.164 283.105 222.393 293.632 200.991 299.056C179.588 304.479 157.191 304.638 135.714 299.517C114.236 294.397 94.3195 284.15 77.6663 269.653L91.1285 254.188C105.284 266.511 122.213 275.221 140.469 279.573C158.724 283.925 177.762 283.791 195.954 279.181C214.147 274.571 230.951 265.622 244.931 253.101C258.91 240.58 269.649 224.859 276.227 207.282C282.806 189.706 285.029 170.798 282.706 152.175C280.383 133.552 273.583 115.769 262.889 100.347C252.194 84.9252 237.923 72.3236 221.296 63.6201C204.669 54.9166 186.181 50.3704 167.414 50.3704V29.8672Z" fill="#BFCED4"/>
<path d="M34.3019 135.493C40.5951 108.525 54.9315 84.1037 75.4126 65.4642L89.2128 80.6279C71.8039 96.4715 59.618 117.229 54.2687 140.152L34.3019 135.493Z" fill="#003E14"/>
<path d="M75.2717 65.5926C89.3759 52.7207 106.021 42.9466 124.133 36.9004L130.625 56.3487C115.23 61.488 101.082 69.7959 89.0931 80.7371L75.2717 65.5926Z" fill="#A3CF46"/>
<path d="M122.042 37.6172C135.304 32.9506 149.206 30.3579 163.258 29.9304L163.881 50.4242C151.937 50.7875 140.12 52.9914 128.848 56.958L122.042 37.6172Z" fill="#648494"/>
<path d="M161.527 29.994C163.612 29.9041 165.698 29.862 167.785 29.8677L167.729 50.3709C165.956 50.3661 164.182 50.4019 162.41 50.4782L161.527 29.994Z" fill="#222429"/>
<path d="M78.3179 270.217C59.3032 253.874 45.15 232.615 37.407 208.768C29.6639 184.921 28.6292 159.403 34.4162 135.007L54.3659 139.739C49.4469 160.476 50.3264 182.166 56.908 202.436C63.4896 222.706 75.5199 240.776 91.6823 254.667L78.3179 270.217Z" fill="#5FAF2D"/>
<path d="M311.364 224.949C310.664 224.949 310.029 224.839 309.459 224.619C308.899 224.399 308.419 224.074 308.019 223.644C307.619 223.204 307.309 222.669 307.089 222.039C306.879 221.409 306.774 220.679 306.774 219.849C306.774 218.909 306.899 218.084 307.149 217.374C307.399 216.664 307.734 216.074 308.154 215.604C308.584 215.124 309.079 214.769 309.639 214.539C310.209 214.299 310.809 214.179 311.439 214.179C312.349 214.179 313.124 214.364 313.764 214.734C314.404 215.104 314.869 215.604 315.159 216.234L314.139 216.924C313.849 216.474 313.474 216.119 313.014 215.859C312.564 215.589 312.019 215.454 311.379 215.454C310.879 215.454 310.429 215.554 310.029 215.754C309.629 215.944 309.284 216.224 308.994 216.594C308.704 216.954 308.479 217.394 308.319 217.914C308.159 218.424 308.074 218.999 308.064 219.639V219.804C308.204 219.474 308.394 219.184 308.634 218.934C308.884 218.684 309.164 218.474 309.474 218.304C309.784 218.134 310.114 218.009 310.464 217.929C310.824 217.839 311.189 217.794 311.559 217.794C312.169 217.794 312.719 217.879 313.209 218.049C313.699 218.219 314.114 218.459 314.454 218.769C314.804 219.079 315.069 219.449 315.249 219.879C315.429 220.309 315.519 220.784 315.519 221.304C315.519 221.844 315.409 222.339 315.189 222.789C314.979 223.239 314.684 223.624 314.304 223.944C313.934 224.264 313.494 224.514 312.984 224.694C312.484 224.864 311.944 224.949 311.364 224.949ZM311.349 223.674C311.769 223.674 312.149 223.619 312.489 223.509C312.839 223.399 313.139 223.244 313.389 223.044C313.649 222.834 313.849 222.589 313.989 222.309C314.129 222.029 314.199 221.714 314.199 221.364C314.199 220.984 314.129 220.654 313.989 220.374C313.859 220.084 313.674 219.844 313.434 219.654C313.194 219.454 312.904 219.309 312.564 219.219C312.234 219.119 311.874 219.069 311.484 219.069C310.524 219.069 309.794 219.274 309.294 219.684C308.804 220.094 308.559 220.619 308.559 221.259C308.559 221.589 308.624 221.899 308.754 222.189C308.884 222.479 309.069 222.734 309.309 222.954C309.549 223.174 309.839 223.349 310.179 223.479C310.529 223.609 310.919 223.674 311.349 223.674ZM319.599 214.254H320.454V224.814H319.194V215.859L316.479 217.104L315.999 215.979L319.599 214.254ZM322.172 226.269C322.302 226.239 322.437 226.184 322.577 226.104C322.727 226.024 322.862 225.924 322.982 225.804C323.102 225.684 323.197 225.554 323.267 225.414C323.347 225.274 323.387 225.129 323.387 224.979C323.387 224.909 323.382 224.854 323.372 224.814C323.322 224.824 323.262 224.829 323.192 224.829C322.972 224.829 322.782 224.759 322.622 224.619C322.472 224.479 322.397 224.279 322.397 224.019C322.397 223.759 322.477 223.554 322.637 223.404C322.797 223.244 323.022 223.164 323.312 223.164C323.632 223.164 323.892 223.274 324.092 223.494C324.302 223.704 324.407 224.024 324.407 224.454C324.407 224.864 324.352 225.214 324.242 225.504C324.132 225.794 323.987 226.039 323.807 226.239C323.627 226.439 323.422 226.594 323.192 226.704C322.962 226.824 322.727 226.914 322.487 226.974L322.172 226.269ZM331.484 222.714H325.019V221.754L331.634 214.314H332.744V221.439H334.694V222.714H332.744V224.814H331.484V222.714ZM331.484 221.439V216.414L326.819 221.439H331.484Z" fill="#777F8C"/>
<path d="M3.645 209.44H4.5V220H3.24V211.045L0.525 212.29L0.045 211.165L3.645 209.44ZM6.06797 209.5H14.033V210.355L8.81297 220H7.38797L12.428 210.775H6.06797V209.5ZM13.7291 221.455C13.8591 221.425 13.9941 221.37 14.1341 221.29C14.2841 221.21 14.4191 221.11 14.5391 220.99C14.6591 220.87 14.7541 220.74 14.8241 220.6C14.9041 220.46 14.9441 220.315 14.9441 220.165C14.9441 220.095 14.9391 220.04 14.9291 220C14.8791 220.01 14.8191 220.015 14.7491 220.015C14.5291 220.015 14.3391 219.945 14.1791 219.805C14.0291 219.665 13.9541 219.465 13.9541 219.205C13.9541 218.945 14.0341 218.74 14.1941 218.59C14.3541 218.43 14.5791 218.35 14.8691 218.35C15.1891 218.35 15.4491 218.46 15.6491 218.68C15.8591 218.89 15.9641 219.21 15.9641 219.64C15.9641 220.05 15.9091 220.4 15.7991 220.69C15.6891 220.98 15.5441 221.225 15.3641 221.425C15.1841 221.625 14.9791 221.78 14.7491 221.89C14.5191 222.01 14.2841 222.1 14.0441 222.16L13.7291 221.455ZM16.9654 212.05C17.1054 211.66 17.2954 211.305 17.5354 210.985C17.7754 210.655 18.0654 210.37 18.4054 210.13C18.7554 209.89 19.1554 209.705 19.6054 209.575C20.0654 209.435 20.5804 209.365 21.1504 209.365C21.6604 209.365 22.1304 209.43 22.5604 209.56C23.0004 209.68 23.3754 209.855 23.6854 210.085C24.0054 210.305 24.2504 210.58 24.4204 210.91C24.6004 211.24 24.6904 211.605 24.6904 212.005C24.6904 212.615 24.5304 213.135 24.2104 213.565C23.9004 213.995 23.4454 214.295 22.8454 214.465C23.1054 214.485 23.3604 214.55 23.6104 214.66C23.8604 214.76 24.0804 214.915 24.2704 215.125C24.4704 215.325 24.6304 215.58 24.7504 215.89C24.8704 216.19 24.9304 216.55 24.9304 216.97C24.9304 217.48 24.8304 217.935 24.6304 218.335C24.4404 218.725 24.1704 219.055 23.8204 219.325C23.4804 219.585 23.0754 219.785 22.6054 219.925C22.1354 220.065 21.6304 220.135 21.0904 220.135C20.5004 220.135 19.9604 220.065 19.4704 219.925C18.9904 219.785 18.5654 219.595 18.1954 219.355C17.8254 219.105 17.5104 218.81 17.2504 218.47C17.0004 218.12 16.8104 217.735 16.6804 217.315L17.8954 216.79C18.0254 217.06 18.1804 217.32 18.3604 217.57C18.5404 217.82 18.7604 218.04 19.0204 218.23C19.2804 218.42 19.5854 218.575 19.9354 218.695C20.2854 218.805 20.7004 218.86 21.1804 218.86C21.9304 218.86 22.5204 218.7 22.9504 218.38C23.3904 218.05 23.6104 217.585 23.6104 216.985C23.6104 216.655 23.5404 216.38 23.4004 216.16C23.2604 215.93 23.0654 215.75 22.8154 215.62C22.5654 215.48 22.2704 215.385 21.9304 215.335C21.6004 215.275 21.2404 215.245 20.8504 215.245H19.6804V214H20.6104C21.4804 214 22.1554 213.835 22.6354 213.505C23.1254 213.175 23.3704 212.76 23.3704 212.26C23.3704 211.72 23.1654 211.315 22.7554 211.045C22.3454 210.775 21.7904 210.64 21.0904 210.64C20.6604 210.64 20.2804 210.695 19.9504 210.805C19.6204 210.915 19.3304 211.06 19.0804 211.24C18.8404 211.42 18.6354 211.625 18.4654 211.855C18.3054 212.085 18.1804 212.32 18.0904 212.56L16.9654 212.05Z" fill="#777F8C"/>
<path d="M22.68 91.135C21.77 91.135 20.99 90.96 20.34 90.61C19.7 90.26 19.22 89.815 18.9 89.275L19.98 88.525C20.29 88.955 20.695 89.285 21.195 89.515C21.705 89.745 22.26 89.86 22.86 89.86C23.32 89.86 23.74 89.77 24.12 89.59C24.51 89.4 24.845 89.14 25.125 88.81C25.415 88.48 25.64 88.09 25.8 87.64C25.96 87.19 26.04 86.7 26.04 86.17C26.04 86.11 26.04 86.05 26.04 85.99C26.04 85.93 26.035 85.87 26.025 85.81C25.785 86.38 25.375 86.855 24.795 87.235C24.225 87.605 23.5 87.79 22.62 87.79C22.04 87.79 21.505 87.705 21.015 87.535C20.525 87.355 20.1 87.11 19.74 86.8C19.38 86.48 19.1 86.1 18.9 85.66C18.7 85.22 18.6 84.73 18.6 84.19C18.6 83.61 18.705 83.085 18.915 82.615C19.135 82.135 19.44 81.73 19.83 81.4C20.22 81.07 20.685 80.815 21.225 80.635C21.775 80.455 22.38 80.365 23.04 80.365C23.71 80.365 24.31 80.48 24.84 80.71C25.38 80.93 25.835 81.26 26.205 81.7C26.585 82.14 26.875 82.685 27.075 83.335C27.275 83.975 27.375 84.715 27.375 85.555C27.375 86.475 27.26 87.285 27.03 87.985C26.81 88.675 26.49 89.255 26.07 89.725C25.66 90.185 25.165 90.535 24.585 90.775C24.015 91.015 23.38 91.135 22.68 91.135ZM22.86 86.515C23.29 86.515 23.68 86.455 24.03 86.335C24.38 86.215 24.675 86.05 24.915 85.84C25.165 85.62 25.355 85.365 25.485 85.075C25.615 84.785 25.68 84.475 25.68 84.145C25.68 83.825 25.63 83.515 25.53 83.215C25.43 82.915 25.27 82.65 25.05 82.42C24.83 82.18 24.54 81.99 24.18 81.85C23.83 81.71 23.4 81.64 22.89 81.64C21.96 81.64 21.23 81.85 20.7 82.27C20.18 82.68 19.92 83.285 19.92 84.085C19.92 84.845 20.185 85.44 20.715 85.87C21.245 86.3 21.96 86.515 22.86 86.515ZM28.3049 92.455C28.4349 92.425 28.5699 92.37 28.7099 92.29C28.8599 92.21 28.9949 92.11 29.1149 91.99C29.2349 91.87 29.3299 91.74 29.3999 91.6C29.4799 91.46 29.5199 91.315 29.5199 91.165C29.5199 91.095 29.5149 91.04 29.5049 91C29.4549 91.01 29.3949 91.015 29.3249 91.015C29.1049 91.015 28.9149 90.945 28.7549 90.805C28.6049 90.665 28.5299 90.465 28.5299 90.205C28.5299 89.945 28.6099 89.74 28.7699 89.59C28.9299 89.43 29.1549 89.35 29.4449 89.35C29.7649 89.35 30.0249 89.46 30.2249 89.68C30.4349 89.89 30.5399 90.21 30.5399 90.64C30.5399 91.05 30.4849 91.4 30.3749 91.69C30.2649 91.98 30.1199 92.225 29.9399 92.425C29.7599 92.625 29.5549 92.78 29.3249 92.89C29.0949 93.01 28.8599 93.1 28.6199 93.16L28.3049 92.455ZM36.2211 91.135C35.5211 91.135 34.8861 91.025 34.3161 90.805C33.7561 90.585 33.2761 90.26 32.8761 89.83C32.4761 89.39 32.1661 88.855 31.9461 88.225C31.7361 87.595 31.6311 86.865 31.6311 86.035C31.6311 85.095 31.7561 84.27 32.0061 83.56C32.2561 82.85 32.5911 82.26 33.0111 81.79C33.4411 81.31 33.9361 80.955 34.4961 80.725C35.0661 80.485 35.6661 80.365 36.2961 80.365C37.2061 80.365 37.9811 80.55 38.6211 80.92C39.2611 81.29 39.7261 81.79 40.0161 82.42L38.9961 83.11C38.7061 82.66 38.3311 82.305 37.8711 82.045C37.4211 81.775 36.8761 81.64 36.2361 81.64C35.7361 81.64 35.2861 81.74 34.8861 81.94C34.4861 82.13 34.1411 82.41 33.8511 82.78C33.5611 83.14 33.3361 83.58 33.1761 84.1C33.0161 84.61 32.9311 85.185 32.9211 85.825V85.99C33.0611 85.66 33.2511 85.37 33.4911 85.12C33.7411 84.87 34.0211 84.66 34.3311 84.49C34.6411 84.32 34.9711 84.195 35.3211 84.115C35.6811 84.025 36.0461 83.98 36.4161 83.98C37.0261 83.98 37.5761 84.065 38.0661 84.235C38.5561 84.405 38.9711 84.645 39.3111 84.955C39.6611 85.265 39.9261 85.635 40.1061 86.065C40.2861 86.495 40.3761 86.97 40.3761 87.49C40.3761 88.03 40.2661 88.525 40.0461 88.975C39.8361 89.425 39.5411 89.81 39.1611 90.13C38.7911 90.45 38.3511 90.7 37.8411 90.88C37.3411 91.05 36.8011 91.135 36.2211 91.135ZM36.2061 89.86C36.6261 89.86 37.0061 89.805 37.3461 89.695C37.6961 89.585 37.9961 89.43 38.2461 89.23C38.5061 89.02 38.7061 88.775 38.8461 88.495C38.9861 88.215 39.0561 87.9 39.0561 87.55C39.0561 87.17 38.9861 86.84 38.8461 86.56C38.7161 86.27 38.5311 86.03 38.2911 85.84C38.0511 85.64 37.7611 85.495 37.4211 85.405C37.0911 85.305 36.7311 85.255 36.3411 85.255C35.3811 85.255 34.6511 85.46 34.1511 85.87C33.6611 86.28 33.4161 86.805 33.4161 87.445C33.4161 87.775 33.4811 88.085 33.6111 88.375C33.7411 88.665 33.9261 88.92 34.1661 89.14C34.4061 89.36 34.6961 89.535 35.0361 89.665C35.3861 89.795 35.7761 89.86 36.2061 89.86Z" fill="#777F8C"/>
<path d="M73.235 39.135C72.535 39.135 71.9 39.025 71.33 38.805C70.77 38.585 70.29 38.26 69.89 37.83C69.49 37.39 69.18 36.855 68.96 36.225C68.75 35.595 68.645 34.865 68.645 34.035C68.645 33.095 68.77 32.27 69.02 31.56C69.27 30.85 69.605 30.26 70.025 29.79C70.455 29.31 70.95 28.955 71.51 28.725C72.08 28.485 72.68 28.365 73.31 28.365C74.22 28.365 74.995 28.55 75.635 28.92C76.275 29.29 76.74 29.79 77.03 30.42L76.01 31.11C75.72 30.66 75.345 30.305 74.885 30.045C74.435 29.775 73.89 29.64 73.25 29.64C72.75 29.64 72.3 29.74 71.9 29.94C71.5 30.13 71.155 30.41 70.865 30.78C70.575 31.14 70.35 31.58 70.19 32.1C70.03 32.61 69.945 33.185 69.935 33.825V33.99C70.075 33.66 70.265 33.37 70.505 33.12C70.755 32.87 71.035 32.66 71.345 32.49C71.655 32.32 71.985 32.195 72.335 32.115C72.695 32.025 73.06 31.98 73.43 31.98C74.04 31.98 74.59 32.065 75.08 32.235C75.57 32.405 75.985 32.645 76.325 32.955C76.675 33.265 76.94 33.635 77.12 34.065C77.3 34.495 77.39 34.97 77.39 35.49C77.39 36.03 77.28 36.525 77.06 36.975C76.85 37.425 76.555 37.81 76.175 38.13C75.805 38.45 75.365 38.7 74.855 38.88C74.355 39.05 73.815 39.135 73.235 39.135ZM73.22 37.86C73.64 37.86 74.02 37.805 74.36 37.695C74.71 37.585 75.01 37.43 75.26 37.23C75.52 37.02 75.72 36.775 75.86 36.495C76 36.215 76.07 35.9 76.07 35.55C76.07 35.17 76 34.84 75.86 34.56C75.73 34.27 75.545 34.03 75.305 33.84C75.065 33.64 74.775 33.495 74.435 33.405C74.105 33.305 73.745 33.255 73.355 33.255C72.395 33.255 71.665 33.46 71.165 33.87C70.675 34.28 70.43 34.805 70.43 35.445C70.43 35.775 70.495 36.085 70.625 36.375C70.755 36.665 70.94 36.92 71.18 37.14C71.42 37.36 71.71 37.535 72.05 37.665C72.4 37.795 72.79 37.86 73.22 37.86ZM78.2756 40.455C78.4056 40.425 78.5406 40.37 78.6806 40.29C78.8306 40.21 78.9656 40.11 79.0856 39.99C79.2056 39.87 79.3006 39.74 79.3706 39.6C79.4506 39.46 79.4906 39.315 79.4906 39.165C79.4906 39.095 79.4856 39.04 79.4756 39C79.4256 39.01 79.3656 39.015 79.2956 39.015C79.0756 39.015 78.8856 38.945 78.7256 38.805C78.5756 38.665 78.5006 38.465 78.5006 38.205C78.5006 37.945 78.5806 37.74 78.7406 37.59C78.9006 37.43 79.1256 37.35 79.4156 37.35C79.7356 37.35 79.9956 37.46 80.1956 37.68C80.4056 37.89 80.5106 38.21 80.5106 38.64C80.5106 39.05 80.4556 39.4 80.3456 39.69C80.2356 39.98 80.0906 40.225 79.9106 40.425C79.7306 40.625 79.5256 40.78 79.2956 40.89C79.0656 41.01 78.8306 41.1 78.5906 41.16L78.2756 40.455ZM81.5118 31.05C81.6518 30.66 81.8418 30.305 82.0818 29.985C82.3218 29.655 82.6118 29.37 82.9518 29.13C83.3018 28.89 83.7018 28.705 84.1518 28.575C84.6118 28.435 85.1268 28.365 85.6968 28.365C86.2068 28.365 86.6768 28.43 87.1068 28.56C87.5468 28.68 87.9218 28.855 88.2318 29.085C88.5518 29.305 88.7968 29.58 88.9668 29.91C89.1468 30.24 89.2368 30.605 89.2368 31.005C89.2368 31.615 89.0768 32.135 88.7568 32.565C88.4468 32.995 87.9918 33.295 87.3918 33.465C87.6518 33.485 87.9068 33.55 88.1568 33.66C88.4068 33.76 88.6268 33.915 88.8168 34.125C89.0168 34.325 89.1768 34.58 89.2968 34.89C89.4168 35.19 89.4768 35.55 89.4768 35.97C89.4768 36.48 89.3768 36.935 89.1768 37.335C88.9868 37.725 88.7168 38.055 88.3668 38.325C88.0268 38.585 87.6218 38.785 87.1518 38.925C86.6818 39.065 86.1768 39.135 85.6368 39.135C85.0468 39.135 84.5068 39.065 84.0168 38.925C83.5368 38.785 83.1118 38.595 82.7418 38.355C82.3718 38.105 82.0568 37.81 81.7968 37.47C81.5468 37.12 81.3568 36.735 81.2268 36.315L82.4418 35.79C82.5718 36.06 82.7268 36.32 82.9068 36.57C83.0868 36.82 83.3068 37.04 83.5668 37.23C83.8268 37.42 84.1318 37.575 84.4818 37.695C84.8318 37.805 85.2468 37.86 85.7268 37.86C86.4768 37.86 87.0668 37.7 87.4968 37.38C87.9368 37.05 88.1568 36.585 88.1568 35.985C88.1568 35.655 88.0868 35.38 87.9468 35.16C87.8068 34.93 87.6118 34.75 87.3618 34.62C87.1118 34.48 86.8168 34.385 86.4768 34.335C86.1468 34.275 85.7868 34.245 85.3968 34.245H84.2268V33H85.1568C86.0268 33 86.7018 32.835 87.1818 32.505C87.6718 32.175 87.9168 31.76 87.9168 31.26C87.9168 30.72 87.7118 30.315 87.3018 30.045C86.8918 29.775 86.3368 29.64 85.6368 29.64C85.2068 29.64 84.8268 29.695 84.4968 29.805C84.1668 29.915 83.8768 30.06 83.6268 30.24C83.3868 30.42 83.1818 30.625 83.0118 30.855C82.8518 31.085 82.7268 31.32 82.6368 31.56L81.5118 31.05Z" fill="#777F8C"/>
<path d="M126.63 16.9H120.165V15.94L126.78 8.5H127.89V15.625H129.84V16.9H127.89V19H126.63V16.9ZM126.63 15.625V10.6L121.965 15.625H126.63ZM130.378 20.455C130.508 20.425 130.643 20.37 130.783 20.29C130.933 20.21 131.068 20.11 131.188 19.99C131.308 19.87 131.403 19.74 131.473 19.6C131.553 19.46 131.593 19.315 131.593 19.165C131.593 19.095 131.588 19.04 131.578 19C131.528 19.01 131.468 19.015 131.398 19.015C131.178 19.015 130.988 18.945 130.828 18.805C130.678 18.665 130.603 18.465 130.603 18.205C130.603 17.945 130.683 17.74 130.843 17.59C131.003 17.43 131.228 17.35 131.518 17.35C131.838 17.35 132.098 17.46 132.298 17.68C132.508 17.89 132.613 18.21 132.613 18.64C132.613 19.05 132.558 19.4 132.448 19.69C132.338 19.98 132.193 20.225 132.013 20.425C131.833 20.625 131.628 20.78 131.398 20.89C131.168 21.01 130.933 21.1 130.693 21.16L130.378 20.455ZM137.739 19.135C136.829 19.135 136.049 18.96 135.399 18.61C134.759 18.26 134.279 17.815 133.959 17.275L135.039 16.525C135.349 16.955 135.754 17.285 136.254 17.515C136.764 17.745 137.319 17.86 137.919 17.86C138.379 17.86 138.799 17.77 139.179 17.59C139.569 17.4 139.904 17.14 140.184 16.81C140.474 16.48 140.699 16.09 140.859 15.64C141.019 15.19 141.099 14.7 141.099 14.17C141.099 14.11 141.099 14.05 141.099 13.99C141.099 13.93 141.094 13.87 141.084 13.81C140.844 14.38 140.434 14.855 139.854 15.235C139.284 15.605 138.559 15.79 137.679 15.79C137.099 15.79 136.564 15.705 136.074 15.535C135.584 15.355 135.159 15.11 134.799 14.8C134.439 14.48 134.159 14.1 133.959 13.66C133.759 13.22 133.659 12.73 133.659 12.19C133.659 11.61 133.764 11.085 133.974 10.615C134.194 10.135 134.499 9.73 134.889 9.4C135.279 9.07 135.744 8.815 136.284 8.635C136.834 8.455 137.439 8.365 138.099 8.365C138.769 8.365 139.369 8.48 139.899 8.71C140.439 8.93 140.894 9.26 141.264 9.7C141.644 10.14 141.934 10.685 142.134 11.335C142.334 11.975 142.434 12.715 142.434 13.555C142.434 14.475 142.319 15.285 142.089 15.985C141.869 16.675 141.549 17.255 141.129 17.725C140.719 18.185 140.224 18.535 139.644 18.775C139.074 19.015 138.439 19.135 137.739 19.135ZM137.919 14.515C138.349 14.515 138.739 14.455 139.089 14.335C139.439 14.215 139.734 14.05 139.974 13.84C140.224 13.62 140.414 13.365 140.544 13.075C140.674 12.785 140.739 12.475 140.739 12.145C140.739 11.825 140.689 11.515 140.589 11.215C140.489 10.915 140.329 10.65 140.109 10.42C139.889 10.18 139.599 9.99 139.239 9.85C138.889 9.71 138.459 9.64 137.949 9.64C137.019 9.64 136.289 9.85 135.759 10.27C135.239 10.68 134.979 11.285 134.979 12.085C134.979 12.845 135.244 13.44 135.774 13.87C136.304 14.3 137.019 14.515 137.919 14.515Z" fill="#777F8C"/>
<path d="M157.645 9.75C157.645 8.97 157.735 8.255 157.915 7.605C158.095 6.945 158.365 6.375 158.725 5.895C159.095 5.415 159.56 5.04 160.12 4.77C160.68 4.5 161.34 4.365 162.1 4.365C162.86 4.365 163.52 4.49 164.08 4.74C164.64 4.99 165.105 5.35 165.475 5.82C165.845 6.29 166.12 6.86 166.3 7.53C166.48 8.19 166.57 8.93 166.57 9.75C166.57 10.53 166.48 11.25 166.3 11.91C166.13 12.56 165.86 13.125 165.49 13.605C165.13 14.085 164.67 14.46 164.11 14.73C163.55 15 162.89 15.135 162.13 15.135C161.41 15.135 160.77 15 160.21 14.73C159.65 14.46 159.18 14.085 158.8 13.605C158.42 13.125 158.13 12.56 157.93 11.91C157.74 11.25 157.645 10.53 157.645 9.75ZM158.965 9.75C158.965 11.03 159.245 12.035 159.805 12.765C160.365 13.495 161.14 13.86 162.13 13.86C163.21 13.86 164 13.495 164.5 12.765C165 12.035 165.25 11.03 165.25 9.75C165.25 8.47 164.995 7.465 164.485 6.735C163.975 6.005 163.18 5.64 162.1 5.64C161.56 5.64 161.095 5.735 160.705 5.925C160.315 6.115 159.99 6.39 159.73 6.75C159.47 7.11 159.275 7.545 159.145 8.055C159.025 8.555 158.965 9.12 158.965 9.75ZM167.495 16.455C167.625 16.425 167.76 16.37 167.9 16.29C168.05 16.21 168.185 16.11 168.305 15.99C168.425 15.87 168.52 15.74 168.59 15.6C168.67 15.46 168.71 15.315 168.71 15.165C168.71 15.095 168.705 15.04 168.695 15C168.645 15.01 168.585 15.015 168.515 15.015C168.295 15.015 168.105 14.945 167.945 14.805C167.795 14.665 167.72 14.465 167.72 14.205C167.72 13.945 167.8 13.74 167.96 13.59C168.12 13.43 168.345 13.35 168.635 13.35C168.955 13.35 169.215 13.46 169.415 13.68C169.625 13.89 169.73 14.21 169.73 14.64C169.73 15.05 169.675 15.4 169.565 15.69C169.455 15.98 169.31 16.225 169.13 16.425C168.95 16.625 168.745 16.78 168.515 16.89C168.285 17.01 168.05 17.1 167.81 17.16L167.495 16.455ZM175.412 15.135C174.712 15.135 174.077 15.025 173.507 14.805C172.947 14.585 172.467 14.26 172.067 13.83C171.667 13.39 171.357 12.855 171.137 12.225C170.927 11.595 170.822 10.865 170.822 10.035C170.822 9.095 170.947 8.27 171.197 7.56C171.447 6.85 171.782 6.26 172.202 5.79C172.632 5.31 173.127 4.955 173.687 4.725C174.257 4.485 174.857 4.365 175.487 4.365C176.397 4.365 177.172 4.55 177.812 4.92C178.452 5.29 178.917 5.79 179.207 6.42L178.187 7.11C177.897 6.66 177.522 6.305 177.062 6.045C176.612 5.775 176.067 5.64 175.427 5.64C174.927 5.64 174.477 5.74 174.077 5.94C173.677 6.13 173.332 6.41 173.042 6.78C172.752 7.14 172.527 7.58 172.367 8.1C172.207 8.61 172.122 9.185 172.112 9.825V9.99C172.252 9.66 172.442 9.37 172.682 9.12C172.932 8.87 173.212 8.66 173.522 8.49C173.832 8.32 174.162 8.195 174.512 8.115C174.872 8.025 175.237 7.98 175.607 7.98C176.217 7.98 176.767 8.065 177.257 8.235C177.747 8.405 178.162 8.645 178.502 8.955C178.852 9.265 179.117 9.635 179.297 10.065C179.477 10.495 179.567 10.97 179.567 11.49C179.567 12.03 179.457 12.525 179.237 12.975C179.027 13.425 178.732 13.81 178.352 14.13C177.982 14.45 177.542 14.7 177.032 14.88C176.532 15.05 175.992 15.135 175.412 15.135ZM175.397 13.86C175.817 13.86 176.197 13.805 176.537 13.695C176.887 13.585 177.187 13.43 177.437 13.23C177.697 13.02 177.897 12.775 178.037 12.495C178.177 12.215 178.247 11.9 178.247 11.55C178.247 11.17 178.177 10.84 178.037 10.56C177.907 10.27 177.722 10.03 177.482 9.84C177.242 9.64 176.952 9.495 176.612 9.405C176.282 9.305 175.922 9.255 175.532 9.255C174.572 9.255 173.842 9.46 173.342 9.87C172.852 10.28 172.607 10.805 172.607 11.445C172.607 11.775 172.672 12.085 172.802 12.375C172.932 12.665 173.117 12.92 173.357 13.14C173.597 13.36 173.887 13.535 174.227 13.665C174.577 13.795 174.967 13.86 175.397 13.86Z" fill="#777F8C"/>
</svg>
