<svg viewBox="0 0 355 304" fill="none" xmlns="http://www.w3.org/2000/svg">
<path d="M146.32 163.027C146.507 161.82 147.425 160.392 149.448 160.392C150.876 160.392 151.998 161.004 151.998 162.687C151.998 164.319 150.655 165.832 147.255 168.093L144.671 169.81V171H153.936V169.555H147.357L148.666 168.739C150.706 167.464 153.494 165.475 153.494 162.534C153.494 160.426 152.049 158.947 149.55 158.947C146.881 158.947 145.402 160.613 144.994 162.585L146.32 163.027ZM155.284 165.05C155.284 168.569 157.086 171.153 160.367 171.153C163.835 171.153 165.399 168.569 165.399 165.05C165.399 161.31 163.784 158.947 160.333 158.947C156.899 158.947 155.284 161.531 155.284 165.05ZM156.78 165.05C156.78 162.194 157.902 160.392 160.333 160.392C162.781 160.392 163.903 162.143 163.903 165.05C163.903 167.94 162.815 169.708 160.367 169.708C158.14 169.708 156.78 167.94 156.78 165.05ZM168.284 163.027C168.471 161.82 169.389 160.392 171.412 160.392C172.84 160.392 173.962 161.004 173.962 162.687C173.962 164.319 172.619 165.832 169.219 168.093L166.635 169.81V171H175.9V169.555H169.321L170.63 168.739C172.67 167.464 175.458 165.475 175.458 162.534C175.458 160.426 174.013 158.947 171.514 158.947C168.845 158.947 167.366 160.613 166.958 162.585L168.284 163.027ZM178.693 163.027C178.88 161.82 179.798 160.392 181.821 160.392C183.249 160.392 184.371 161.004 184.371 162.687C184.371 164.319 183.028 165.832 179.628 168.093L177.044 169.81V171H186.309V169.555H179.73L181.039 168.739C183.079 167.464 185.867 165.475 185.867 162.534C185.867 160.426 184.422 158.947 181.923 158.947C179.254 158.947 177.775 160.613 177.367 162.585L178.693 163.027Z" fill="#222429"/>
<path d="M167.414 29.8672C189.312 29.8672 210.889 35.1281 230.329 45.207C249.769 55.2859 266.503 69.8878 279.122 87.7835C291.741 105.679 299.876 126.345 302.843 148.04C305.809 169.736 303.519 191.827 296.166 212.453C288.814 233.079 276.613 251.637 260.592 266.564C244.57 281.491 225.197 292.35 204.103 298.228C183.009 304.106 160.812 304.829 139.38 300.338C117.948 295.847 97.9087 286.273 80.949 272.421L93.9187 256.541C108.334 268.315 125.368 276.454 143.585 280.271C161.802 284.088 180.67 283.473 198.6 278.477C216.53 273.481 232.997 264.251 246.615 251.563C260.233 238.875 270.604 223.101 276.853 205.568C283.103 188.036 285.05 169.259 282.528 150.818C280.007 132.376 273.092 114.811 262.366 99.5993C251.639 84.388 237.415 71.9764 220.891 63.4093C204.367 54.8422 186.027 50.3704 167.414 50.3704V29.8672Z" fill="#BFCED4"/>
<path d="M35.0771 132.341C41.8058 106.315 56.0588 82.8517 76.0534 64.8847L89.7575 80.1353C72.7621 95.4073 60.647 115.351 54.9276 137.473L35.0771 132.341Z" fill="#003E14"/>
<path d="M75.2717 65.5926C89.3759 52.7207 106.021 42.9466 124.133 36.9004L130.625 56.3487C115.23 61.488 101.082 69.7959 89.0931 80.7371L75.2717 65.5926Z" fill="#A3CF46"/>
<path d="M122.042 37.6172C135.304 32.9506 149.206 30.3579 163.258 29.9304L163.881 50.4242C151.937 50.7875 140.12 52.9914 128.848 56.958L122.042 37.6172Z" fill="#648494"/>
<path d="M161.527 29.994C163.612 29.9041 165.698 29.862 167.785 29.8677L167.729 50.3709C165.956 50.3661 164.182 50.4019 162.41 50.4782L161.527 29.994Z" fill="#222429"/>
<path d="M80.8193 272.315C60.6372 255.79 45.6048 233.836 37.4968 209.044C29.3888 184.252 28.5438 157.657 35.0617 132.4L54.9145 137.524C49.3743 158.992 50.0926 181.597 56.9844 202.67C63.8761 223.744 76.6537 242.405 93.8085 256.451L80.8193 272.315Z" fill="#5FAF2D"/>
<path d="M311.364 224.949C310.664 224.949 310.029 224.839 309.459 224.619C308.899 224.399 308.419 224.074 308.019 223.644C307.619 223.204 307.309 222.669 307.089 222.039C306.879 221.409 306.774 220.679 306.774 219.849C306.774 218.909 306.899 218.084 307.149 217.374C307.399 216.664 307.734 216.074 308.154 215.604C308.584 215.124 309.079 214.769 309.639 214.539C310.209 214.299 310.809 214.179 311.439 214.179C312.349 214.179 313.124 214.364 313.764 214.734C314.404 215.104 314.869 215.604 315.159 216.234L314.139 216.924C313.849 216.474 313.474 216.119 313.014 215.859C312.564 215.589 312.019 215.454 311.379 215.454C310.879 215.454 310.429 215.554 310.029 215.754C309.629 215.944 309.284 216.224 308.994 216.594C308.704 216.954 308.479 217.394 308.319 217.914C308.159 218.424 308.074 218.999 308.064 219.639V219.804C308.204 219.474 308.394 219.184 308.634 218.934C308.884 218.684 309.164 218.474 309.474 218.304C309.784 218.134 310.114 218.009 310.464 217.929C310.824 217.839 311.189 217.794 311.559 217.794C312.169 217.794 312.719 217.879 313.209 218.049C313.699 218.219 314.114 218.459 314.454 218.769C314.804 219.079 315.069 219.449 315.249 219.879C315.429 220.309 315.519 220.784 315.519 221.304C315.519 221.844 315.409 222.339 315.189 222.789C314.979 223.239 314.684 223.624 314.304 223.944C313.934 224.264 313.494 224.514 312.984 224.694C312.484 224.864 311.944 224.949 311.364 224.949ZM311.349 223.674C311.769 223.674 312.149 223.619 312.489 223.509C312.839 223.399 313.139 223.244 313.389 223.044C313.649 222.834 313.849 222.589 313.989 222.309C314.129 222.029 314.199 221.714 314.199 221.364C314.199 220.984 314.129 220.654 313.989 220.374C313.859 220.084 313.674 219.844 313.434 219.654C313.194 219.454 312.904 219.309 312.564 219.219C312.234 219.119 311.874 219.069 311.484 219.069C310.524 219.069 309.794 219.274 309.294 219.684C308.804 220.094 308.559 220.619 308.559 221.259C308.559 221.589 308.624 221.899 308.754 222.189C308.884 222.479 309.069 222.734 309.309 222.954C309.549 223.174 309.839 223.349 310.179 223.479C310.529 223.609 310.919 223.674 311.349 223.674ZM316.599 219.564C316.599 218.784 316.689 218.069 316.869 217.419C317.049 216.759 317.319 216.189 317.679 215.709C318.049 215.229 318.514 214.854 319.074 214.584C319.634 214.314 320.294 214.179 321.054 214.179C321.814 214.179 322.474 214.304 323.034 214.554C323.594 214.804 324.059 215.164 324.429 215.634C324.799 216.104 325.074 216.674 325.254 217.344C325.434 218.004 325.524 218.744 325.524 219.564C325.524 220.344 325.434 221.064 325.254 221.724C325.084 222.374 324.814 222.939 324.444 223.419C324.084 223.899 323.624 224.274 323.064 224.544C322.504 224.814 321.844 224.949 321.084 224.949C320.364 224.949 319.724 224.814 319.164 224.544C318.604 224.274 318.134 223.899 317.754 223.419C317.374 222.939 317.084 222.374 316.884 221.724C316.694 221.064 316.599 220.344 316.599 219.564ZM317.919 219.564C317.919 220.844 318.199 221.849 318.759 222.579C319.319 223.309 320.094 223.674 321.084 223.674C322.164 223.674 322.954 223.309 323.454 222.579C323.954 221.849 324.204 220.844 324.204 219.564C324.204 218.284 323.949 217.279 323.439 216.549C322.929 215.819 322.134 215.454 321.054 215.454C320.514 215.454 320.049 215.549 319.659 215.739C319.269 215.929 318.944 216.204 318.684 216.564C318.424 216.924 318.229 217.359 318.099 217.869C317.979 218.369 317.919 218.934 317.919 219.564ZM326.45 226.269C326.58 226.239 326.715 226.184 326.855 226.104C327.005 226.024 327.14 225.924 327.26 225.804C327.38 225.684 327.475 225.554 327.545 225.414C327.625 225.274 327.665 225.129 327.665 224.979C327.665 224.909 327.66 224.854 327.65 224.814C327.6 224.824 327.54 224.829 327.47 224.829C327.25 224.829 327.06 224.759 326.9 224.619C326.75 224.479 326.675 224.279 326.675 224.019C326.675 223.759 326.755 223.554 326.915 223.404C327.075 223.244 327.3 223.164 327.59 223.164C327.91 223.164 328.17 223.274 328.37 223.494C328.58 223.704 328.685 224.024 328.685 224.454C328.685 224.864 328.63 225.214 328.52 225.504C328.41 225.794 328.265 226.039 328.085 226.239C327.905 226.439 327.7 226.594 327.47 226.704C327.24 226.824 327.005 226.914 326.765 226.974L326.45 226.269ZM333.811 224.949C332.901 224.949 332.121 224.774 331.471 224.424C330.831 224.074 330.351 223.629 330.031 223.089L331.111 222.339C331.421 222.769 331.826 223.099 332.326 223.329C332.836 223.559 333.391 223.674 333.991 223.674C334.451 223.674 334.871 223.584 335.251 223.404C335.641 223.214 335.976 222.954 336.256 222.624C336.546 222.294 336.771 221.904 336.931 221.454C337.091 221.004 337.171 220.514 337.171 219.984C337.171 219.924 337.171 219.864 337.171 219.804C337.171 219.744 337.166 219.684 337.156 219.624C336.916 220.194 336.506 220.669 335.926 221.049C335.356 221.419 334.631 221.604 333.751 221.604C333.171 221.604 332.636 221.519 332.146 221.349C331.656 221.169 331.231 220.924 330.871 220.614C330.511 220.294 330.231 219.914 330.031 219.474C329.831 219.034 329.731 218.544 329.731 218.004C329.731 217.424 329.836 216.899 330.046 216.429C330.266 215.949 330.571 215.544 330.961 215.214C331.351 214.884 331.816 214.629 332.356 214.449C332.906 214.269 333.511 214.179 334.171 214.179C334.841 214.179 335.441 214.294 335.971 214.524C336.511 214.744 336.966 215.074 337.336 215.514C337.716 215.954 338.006 216.499 338.206 217.149C338.406 217.789 338.506 218.529 338.506 219.369C338.506 220.289 338.391 221.099 338.161 221.799C337.941 222.489 337.621 223.069 337.201 223.539C336.791 223.999 336.296 224.349 335.716 224.589C335.146 224.829 334.511 224.949 333.811 224.949ZM333.991 220.329C334.421 220.329 334.811 220.269 335.161 220.149C335.511 220.029 335.806 219.864 336.046 219.654C336.296 219.434 336.486 219.179 336.616 218.889C336.746 218.599 336.811 218.289 336.811 217.959C336.811 217.639 336.761 217.329 336.661 217.029C336.561 216.729 336.401 216.464 336.181 216.234C335.961 215.994 335.671 215.804 335.311 215.664C334.961 215.524 334.531 215.454 334.021 215.454C333.091 215.454 332.361 215.664 331.831 216.084C331.311 216.494 331.051 217.099 331.051 217.899C331.051 218.659 331.316 219.254 331.846 219.684C332.376 220.114 333.091 220.329 333.991 220.329Z" fill="#777F8C"/>
<path d="M3.645 209.44H4.5V220H3.24V211.045L0.525 212.29L0.045 211.165L3.645 209.44ZM11.018 214.015C11.358 214.015 11.673 213.975 11.963 213.895C12.263 213.805 12.523 213.685 12.743 213.535C12.963 213.385 13.133 213.205 13.253 212.995C13.383 212.785 13.448 212.555 13.448 212.305C13.448 211.765 13.223 211.355 12.773 211.075C12.333 210.785 11.658 210.64 10.748 210.64C9.86797 210.64 9.20297 210.785 8.75297 211.075C8.31297 211.365 8.09297 211.775 8.09297 212.305C8.09297 212.545 8.15297 212.77 8.27297 212.98C8.39297 213.19 8.55797 213.375 8.76797 213.535C8.98797 213.685 9.24797 213.805 9.54797 213.895C9.85797 213.975 10.193 214.015 10.553 214.015H11.018ZM10.613 215.2C10.193 215.2 9.80297 215.25 9.44297 215.35C9.09297 215.44 8.79297 215.57 8.54297 215.74C8.29297 215.9 8.09797 216.095 7.95797 216.325C7.81797 216.545 7.74797 216.78 7.74797 217.03C7.74797 217.57 7.99797 218.01 8.49797 218.35C9.00797 218.69 9.76297 218.86 10.763 218.86C11.793 218.86 12.553 218.7 13.043 218.38C13.533 218.05 13.778 217.605 13.778 217.045C13.778 216.455 13.523 216 13.013 215.68C12.513 215.36 11.838 215.2 10.988 215.2H10.613ZM10.778 220.135C10.108 220.135 9.50297 220.07 8.96297 219.94C8.43297 219.8 7.97797 219.605 7.59797 219.355C7.22797 219.095 6.93797 218.785 6.72797 218.425C6.52797 218.055 6.42797 217.635 6.42797 217.165C6.42797 216.545 6.61297 216.01 6.98297 215.56C7.36297 215.1 7.86797 214.77 8.49797 214.57C8.19797 214.47 7.93797 214.34 7.71797 214.18C7.49797 214.01 7.31797 213.82 7.17797 213.61C7.03797 213.4 6.93297 213.18 6.86297 212.95C6.80297 212.71 6.77297 212.465 6.77297 212.215C6.77297 211.345 7.11297 210.655 7.79297 210.145C8.48297 209.625 9.47297 209.365 10.763 209.365C12.063 209.365 13.053 209.625 13.733 210.145C14.423 210.655 14.768 211.345 14.768 212.215C14.768 212.755 14.618 213.21 14.318 213.58C14.028 213.95 13.623 214.255 13.103 214.495C13.823 214.715 14.333 215.045 14.633 215.485C14.943 215.925 15.098 216.465 15.098 217.105C15.098 217.585 14.998 218.015 14.798 218.395C14.598 218.765 14.308 219.08 13.928 219.34C13.558 219.6 13.103 219.8 12.563 219.94C12.033 220.07 11.438 220.135 10.778 220.135ZM16.0729 221.455C16.2029 221.425 16.3379 221.37 16.4779 221.29C16.6279 221.21 16.7629 221.11 16.8829 220.99C17.0029 220.87 17.0979 220.74 17.1679 220.6C17.2479 220.46 17.2879 220.315 17.2879 220.165C17.2879 220.095 17.2829 220.04 17.2729 220C17.2229 220.01 17.1629 220.015 17.0929 220.015C16.8729 220.015 16.6829 219.945 16.5229 219.805C16.3729 219.665 16.2979 219.465 16.2979 219.205C16.2979 218.945 16.3779 218.74 16.5379 218.59C16.6979 218.43 16.9229 218.35 17.2129 218.35C17.5329 218.35 17.7929 218.46 17.9929 218.68C18.2029 218.89 18.3079 219.21 18.3079 219.64C18.3079 220.05 18.2529 220.4 18.1429 220.69C18.0329 220.98 17.8879 221.225 17.7079 221.425C17.5279 221.625 17.3229 221.78 17.0929 221.89C16.8629 222.01 16.6279 222.1 16.3879 222.16L16.0729 221.455ZM22.3991 209.44H23.2541V220H21.9941V211.045L19.2791 212.29L18.7991 211.165L22.3991 209.44Z" fill="#777F8C"/>
<path d="M22.68 91.135C21.77 91.135 20.99 90.96 20.34 90.61C19.7 90.26 19.22 89.815 18.9 89.275L19.98 88.525C20.29 88.955 20.695 89.285 21.195 89.515C21.705 89.745 22.26 89.86 22.86 89.86C23.32 89.86 23.74 89.77 24.12 89.59C24.51 89.4 24.845 89.14 25.125 88.81C25.415 88.48 25.64 88.09 25.8 87.64C25.96 87.19 26.04 86.7 26.04 86.17C26.04 86.11 26.04 86.05 26.04 85.99C26.04 85.93 26.035 85.87 26.025 85.81C25.785 86.38 25.375 86.855 24.795 87.235C24.225 87.605 23.5 87.79 22.62 87.79C22.04 87.79 21.505 87.705 21.015 87.535C20.525 87.355 20.1 87.11 19.74 86.8C19.38 86.48 19.1 86.1 18.9 85.66C18.7 85.22 18.6 84.73 18.6 84.19C18.6 83.61 18.705 83.085 18.915 82.615C19.135 82.135 19.44 81.73 19.83 81.4C20.22 81.07 20.685 80.815 21.225 80.635C21.775 80.455 22.38 80.365 23.04 80.365C23.71 80.365 24.31 80.48 24.84 80.71C25.38 80.93 25.835 81.26 26.205 81.7C26.585 82.14 26.875 82.685 27.075 83.335C27.275 83.975 27.375 84.715 27.375 85.555C27.375 86.475 27.26 87.285 27.03 87.985C26.81 88.675 26.49 89.255 26.07 89.725C25.66 90.185 25.165 90.535 24.585 90.775C24.015 91.015 23.38 91.135 22.68 91.135ZM22.86 86.515C23.29 86.515 23.68 86.455 24.03 86.335C24.38 86.215 24.675 86.05 24.915 85.84C25.165 85.62 25.355 85.365 25.485 85.075C25.615 84.785 25.68 84.475 25.68 84.145C25.68 83.825 25.63 83.515 25.53 83.215C25.43 82.915 25.27 82.65 25.05 82.42C24.83 82.18 24.54 81.99 24.18 81.85C23.83 81.71 23.4 81.64 22.89 81.64C21.96 81.64 21.23 81.85 20.7 82.27C20.18 82.68 19.92 83.285 19.92 84.085C19.92 84.845 20.185 85.44 20.715 85.87C21.245 86.3 21.96 86.515 22.86 86.515ZM28.3049 92.455C28.4349 92.425 28.5699 92.37 28.7099 92.29C28.8599 92.21 28.9949 92.11 29.1149 91.99C29.2349 91.87 29.3299 91.74 29.3999 91.6C29.4799 91.46 29.5199 91.315 29.5199 91.165C29.5199 91.095 29.5149 91.04 29.5049 91C29.4549 91.01 29.3949 91.015 29.3249 91.015C29.1049 91.015 28.9149 90.945 28.7549 90.805C28.6049 90.665 28.5299 90.465 28.5299 90.205C28.5299 89.945 28.6099 89.74 28.7699 89.59C28.9299 89.43 29.1549 89.35 29.4449 89.35C29.7649 89.35 30.0249 89.46 30.2249 89.68C30.4349 89.89 30.5399 90.21 30.5399 90.64C30.5399 91.05 30.4849 91.4 30.3749 91.69C30.2649 91.98 30.1199 92.225 29.9399 92.425C29.7599 92.625 29.5549 92.78 29.3249 92.89C29.0949 93.01 28.8599 93.1 28.6199 93.16L28.3049 92.455ZM31.5411 83.05C31.6811 82.66 31.8711 82.305 32.1111 81.985C32.3511 81.655 32.6411 81.37 32.9811 81.13C33.3311 80.89 33.7311 80.705 34.1811 80.575C34.6411 80.435 35.1561 80.365 35.7261 80.365C36.2361 80.365 36.7061 80.43 37.1361 80.56C37.5761 80.68 37.9511 80.855 38.2611 81.085C38.5811 81.305 38.8261 81.58 38.9961 81.91C39.1761 82.24 39.2661 82.605 39.2661 83.005C39.2661 83.615 39.1061 84.135 38.7861 84.565C38.4761 84.995 38.0211 85.295 37.4211 85.465C37.6811 85.485 37.9361 85.55 38.1861 85.66C38.4361 85.76 38.6561 85.915 38.8461 86.125C39.0461 86.325 39.2061 86.58 39.3261 86.89C39.4461 87.19 39.5061 87.55 39.5061 87.97C39.5061 88.48 39.4061 88.935 39.2061 89.335C39.0161 89.725 38.7461 90.055 38.3961 90.325C38.0561 90.585 37.6511 90.785 37.1811 90.925C36.7111 91.065 36.2061 91.135 35.6661 91.135C35.0761 91.135 34.5361 91.065 34.0461 90.925C33.5661 90.785 33.1411 90.595 32.7711 90.355C32.4011 90.105 32.0861 89.81 31.8261 89.47C31.5761 89.12 31.3861 88.735 31.2561 88.315L32.4711 87.79C32.6011 88.06 32.7561 88.32 32.9361 88.57C33.1161 88.82 33.3361 89.04 33.5961 89.23C33.8561 89.42 34.1611 89.575 34.5111 89.695C34.8611 89.805 35.2761 89.86 35.7561 89.86C36.5061 89.86 37.0961 89.7 37.5261 89.38C37.9661 89.05 38.1861 88.585 38.1861 87.985C38.1861 87.655 38.1161 87.38 37.9761 87.16C37.8361 86.93 37.6411 86.75 37.3911 86.62C37.1411 86.48 36.8461 86.385 36.5061 86.335C36.1761 86.275 35.8161 86.245 35.4261 86.245H34.2561V85H35.1861C36.0561 85 36.7311 84.835 37.2111 84.505C37.7011 84.175 37.9461 83.76 37.9461 83.26C37.9461 82.72 37.7411 82.315 37.3311 82.045C36.9211 81.775 36.3661 81.64 35.6661 81.64C35.2361 81.64 34.8561 81.695 34.5261 81.805C34.1961 81.915 33.9061 82.06 33.6561 82.24C33.4161 82.42 33.2111 82.625 33.0411 82.855C32.8811 83.085 32.7561 83.32 32.6661 83.56L31.5411 83.05Z" fill="#777F8C"/>
<path d="M73.235 39.135C72.535 39.135 71.9 39.025 71.33 38.805C70.77 38.585 70.29 38.26 69.89 37.83C69.49 37.39 69.18 36.855 68.96 36.225C68.75 35.595 68.645 34.865 68.645 34.035C68.645 33.095 68.77 32.27 69.02 31.56C69.27 30.85 69.605 30.26 70.025 29.79C70.455 29.31 70.95 28.955 71.51 28.725C72.08 28.485 72.68 28.365 73.31 28.365C74.22 28.365 74.995 28.55 75.635 28.92C76.275 29.29 76.74 29.79 77.03 30.42L76.01 31.11C75.72 30.66 75.345 30.305 74.885 30.045C74.435 29.775 73.89 29.64 73.25 29.64C72.75 29.64 72.3 29.74 71.9 29.94C71.5 30.13 71.155 30.41 70.865 30.78C70.575 31.14 70.35 31.58 70.19 32.1C70.03 32.61 69.945 33.185 69.935 33.825V33.99C70.075 33.66 70.265 33.37 70.505 33.12C70.755 32.87 71.035 32.66 71.345 32.49C71.655 32.32 71.985 32.195 72.335 32.115C72.695 32.025 73.06 31.98 73.43 31.98C74.04 31.98 74.59 32.065 75.08 32.235C75.57 32.405 75.985 32.645 76.325 32.955C76.675 33.265 76.94 33.635 77.12 34.065C77.3 34.495 77.39 34.97 77.39 35.49C77.39 36.03 77.28 36.525 77.06 36.975C76.85 37.425 76.555 37.81 76.175 38.13C75.805 38.45 75.365 38.7 74.855 38.88C74.355 39.05 73.815 39.135 73.235 39.135ZM73.22 37.86C73.64 37.86 74.02 37.805 74.36 37.695C74.71 37.585 75.01 37.43 75.26 37.23C75.52 37.02 75.72 36.775 75.86 36.495C76 36.215 76.07 35.9 76.07 35.55C76.07 35.17 76 34.84 75.86 34.56C75.73 34.27 75.545 34.03 75.305 33.84C75.065 33.64 74.775 33.495 74.435 33.405C74.105 33.305 73.745 33.255 73.355 33.255C72.395 33.255 71.665 33.46 71.165 33.87C70.675 34.28 70.43 34.805 70.43 35.445C70.43 35.775 70.495 36.085 70.625 36.375C70.755 36.665 70.94 36.92 71.18 37.14C71.42 37.36 71.71 37.535 72.05 37.665C72.4 37.795 72.79 37.86 73.22 37.86ZM78.2756 40.455C78.4056 40.425 78.5406 40.37 78.6806 40.29C78.8306 40.21 78.9656 40.11 79.0856 39.99C79.2056 39.87 79.3006 39.74 79.3706 39.6C79.4506 39.46 79.4906 39.315 79.4906 39.165C79.4906 39.095 79.4856 39.04 79.4756 39C79.4256 39.01 79.3656 39.015 79.2956 39.015C79.0756 39.015 78.8856 38.945 78.7256 38.805C78.5756 38.665 78.5006 38.465 78.5006 38.205C78.5006 37.945 78.5806 37.74 78.7406 37.59C78.9006 37.43 79.1256 37.35 79.4156 37.35C79.7356 37.35 79.9956 37.46 80.1956 37.68C80.4056 37.89 80.5106 38.21 80.5106 38.64C80.5106 39.05 80.4556 39.4 80.3456 39.69C80.2356 39.98 80.0906 40.225 79.9106 40.425C79.7306 40.625 79.5256 40.78 79.2956 40.89C79.0656 41.01 78.8306 41.1 78.5906 41.16L78.2756 40.455ZM81.7068 31.575C81.7968 31.145 81.9468 30.735 82.1568 30.345C82.3668 29.955 82.6368 29.615 82.9668 29.325C83.2968 29.025 83.6918 28.79 84.1518 28.62C84.6118 28.45 85.1368 28.365 85.7268 28.365C86.2768 28.365 86.7668 28.445 87.1968 28.605C87.6268 28.755 87.9918 28.97 88.2918 29.25C88.5918 29.53 88.8168 29.865 88.9668 30.255C89.1268 30.645 89.2068 31.07 89.2068 31.53C89.2068 32.18 89.0668 32.78 88.7868 33.33C88.5168 33.87 88.1718 34.365 87.7518 34.815C87.3318 35.265 86.8718 35.675 86.3718 36.045C85.8718 36.405 85.3968 36.725 84.9468 37.005L83.7918 37.725H89.5968V39H81.4218V37.95L83.7018 36.435C84.4518 35.935 85.0918 35.475 85.6218 35.055C86.1518 34.625 86.5818 34.22 86.9118 33.84C87.2518 33.46 87.4968 33.095 87.6468 32.745C87.8068 32.385 87.8868 32.025 87.8868 31.665C87.8868 31.295 87.8268 30.98 87.7068 30.72C87.5968 30.46 87.4368 30.25 87.2268 30.09C87.0268 29.93 86.7868 29.815 86.5068 29.745C86.2368 29.675 85.9468 29.64 85.6368 29.64C85.1868 29.64 84.7968 29.71 84.4668 29.85C84.1468 29.99 83.8718 30.175 83.6418 30.405C83.4218 30.625 83.2468 30.875 83.1168 31.155C82.9968 31.425 82.9168 31.695 82.8768 31.965L81.7068 31.575Z" fill="#777F8C"/>
<path d="M126.63 16.9H120.165V15.94L126.78 8.5H127.89V15.625H129.84V16.9H127.89V19H126.63V16.9ZM126.63 15.625V10.6L121.965 15.625H126.63ZM130.378 20.455C130.508 20.425 130.643 20.37 130.783 20.29C130.933 20.21 131.068 20.11 131.188 19.99C131.308 19.87 131.403 19.74 131.473 19.6C131.553 19.46 131.593 19.315 131.593 19.165C131.593 19.095 131.588 19.04 131.578 19C131.528 19.01 131.468 19.015 131.398 19.015C131.178 19.015 130.988 18.945 130.828 18.805C130.678 18.665 130.603 18.465 130.603 18.205C130.603 17.945 130.683 17.74 130.843 17.59C131.003 17.43 131.228 17.35 131.518 17.35C131.838 17.35 132.098 17.46 132.298 17.68C132.508 17.89 132.613 18.21 132.613 18.64C132.613 19.05 132.558 19.4 132.448 19.69C132.338 19.98 132.193 20.225 132.013 20.425C131.833 20.625 131.628 20.78 131.398 20.89C131.168 21.01 130.933 21.1 130.693 21.16L130.378 20.455ZM138.309 13.015C138.649 13.015 138.964 12.975 139.254 12.895C139.554 12.805 139.814 12.685 140.034 12.535C140.254 12.385 140.424 12.205 140.544 11.995C140.674 11.785 140.739 11.555 140.739 11.305C140.739 10.765 140.514 10.355 140.064 10.075C139.624 9.785 138.949 9.64 138.039 9.64C137.159 9.64 136.494 9.785 136.044 10.075C135.604 10.365 135.384 10.775 135.384 11.305C135.384 11.545 135.444 11.77 135.564 11.98C135.684 12.19 135.849 12.375 136.059 12.535C136.279 12.685 136.539 12.805 136.839 12.895C137.149 12.975 137.484 13.015 137.844 13.015H138.309ZM137.904 14.2C137.484 14.2 137.094 14.25 136.734 14.35C136.384 14.44 136.084 14.57 135.834 14.74C135.584 14.9 135.389 15.095 135.249 15.325C135.109 15.545 135.039 15.78 135.039 16.03C135.039 16.57 135.289 17.01 135.789 17.35C136.299 17.69 137.054 17.86 138.054 17.86C139.084 17.86 139.844 17.7 140.334 17.38C140.824 17.05 141.069 16.605 141.069 16.045C141.069 15.455 140.814 15 140.304 14.68C139.804 14.36 139.129 14.2 138.279 14.2H137.904ZM138.069 19.135C137.399 19.135 136.794 19.07 136.254 18.94C135.724 18.8 135.269 18.605 134.889 18.355C134.519 18.095 134.229 17.785 134.019 17.425C133.819 17.055 133.719 16.635 133.719 16.165C133.719 15.545 133.904 15.01 134.274 14.56C134.654 14.1 135.159 13.77 135.789 13.57C135.489 13.47 135.229 13.34 135.009 13.18C134.789 13.01 134.609 12.82 134.469 12.61C134.329 12.4 134.224 12.18 134.154 11.95C134.094 11.71 134.064 11.465 134.064 11.215C134.064 10.345 134.404 9.655 135.084 9.145C135.774 8.625 136.764 8.365 138.054 8.365C139.354 8.365 140.344 8.625 141.024 9.145C141.714 9.655 142.059 10.345 142.059 11.215C142.059 11.755 141.909 12.21 141.609 12.58C141.319 12.95 140.914 13.255 140.394 13.495C141.114 13.715 141.624 14.045 141.924 14.485C142.234 14.925 142.389 15.465 142.389 16.105C142.389 16.585 142.289 17.015 142.089 17.395C141.889 17.765 141.599 18.08 141.219 18.34C140.849 18.6 140.394 18.8 139.854 18.94C139.324 19.07 138.729 19.135 138.069 19.135Z" fill="#777F8C"/>
<path d="M157.645 9.75C157.645 8.97 157.735 8.255 157.915 7.605C158.095 6.945 158.365 6.375 158.725 5.895C159.095 5.415 159.56 5.04 160.12 4.77C160.68 4.5 161.34 4.365 162.1 4.365C162.86 4.365 163.52 4.49 164.08 4.74C164.64 4.99 165.105 5.35 165.475 5.82C165.845 6.29 166.12 6.86 166.3 7.53C166.48 8.19 166.57 8.93 166.57 9.75C166.57 10.53 166.48 11.25 166.3 11.91C166.13 12.56 165.86 13.125 165.49 13.605C165.13 14.085 164.67 14.46 164.11 14.73C163.55 15 162.89 15.135 162.13 15.135C161.41 15.135 160.77 15 160.21 14.73C159.65 14.46 159.18 14.085 158.8 13.605C158.42 13.125 158.13 12.56 157.93 11.91C157.74 11.25 157.645 10.53 157.645 9.75ZM158.965 9.75C158.965 11.03 159.245 12.035 159.805 12.765C160.365 13.495 161.14 13.86 162.13 13.86C163.21 13.86 164 13.495 164.5 12.765C165 12.035 165.25 11.03 165.25 9.75C165.25 8.47 164.995 7.465 164.485 6.735C163.975 6.005 163.18 5.64 162.1 5.64C161.56 5.64 161.095 5.735 160.705 5.925C160.315 6.115 159.99 6.39 159.73 6.75C159.47 7.11 159.275 7.545 159.145 8.055C159.025 8.555 158.965 9.12 158.965 9.75ZM167.495 16.455C167.625 16.425 167.76 16.37 167.9 16.29C168.05 16.21 168.185 16.11 168.305 15.99C168.425 15.87 168.52 15.74 168.59 15.6C168.67 15.46 168.71 15.315 168.71 15.165C168.71 15.095 168.705 15.04 168.695 15C168.645 15.01 168.585 15.015 168.515 15.015C168.295 15.015 168.105 14.945 167.945 14.805C167.795 14.665 167.72 14.465 167.72 14.205C167.72 13.945 167.8 13.74 167.96 13.59C168.12 13.43 168.345 13.35 168.635 13.35C168.955 13.35 169.215 13.46 169.415 13.68C169.625 13.89 169.73 14.21 169.73 14.64C169.73 15.05 169.675 15.4 169.565 15.69C169.455 15.98 169.31 16.225 169.13 16.425C168.95 16.625 168.745 16.78 168.515 16.89C168.285 17.01 168.05 17.1 167.81 17.16L167.495 16.455ZM175.412 15.135C174.712 15.135 174.077 15.025 173.507 14.805C172.947 14.585 172.467 14.26 172.067 13.83C171.667 13.39 171.357 12.855 171.137 12.225C170.927 11.595 170.822 10.865 170.822 10.035C170.822 9.095 170.947 8.27 171.197 7.56C171.447 6.85 171.782 6.26 172.202 5.79C172.632 5.31 173.127 4.955 173.687 4.725C174.257 4.485 174.857 4.365 175.487 4.365C176.397 4.365 177.172 4.55 177.812 4.92C178.452 5.29 178.917 5.79 179.207 6.42L178.187 7.11C177.897 6.66 177.522 6.305 177.062 6.045C176.612 5.775 176.067 5.64 175.427 5.64C174.927 5.64 174.477 5.74 174.077 5.94C173.677 6.13 173.332 6.41 173.042 6.78C172.752 7.14 172.527 7.58 172.367 8.1C172.207 8.61 172.122 9.185 172.112 9.825V9.99C172.252 9.66 172.442 9.37 172.682 9.12C172.932 8.87 173.212 8.66 173.522 8.49C173.832 8.32 174.162 8.195 174.512 8.115C174.872 8.025 175.237 7.98 175.607 7.98C176.217 7.98 176.767 8.065 177.257 8.235C177.747 8.405 178.162 8.645 178.502 8.955C178.852 9.265 179.117 9.635 179.297 10.065C179.477 10.495 179.567 10.97 179.567 11.49C179.567 12.03 179.457 12.525 179.237 12.975C179.027 13.425 178.732 13.81 178.352 14.13C177.982 14.45 177.542 14.7 177.032 14.88C176.532 15.05 175.992 15.135 175.412 15.135ZM175.397 13.86C175.817 13.86 176.197 13.805 176.537 13.695C176.887 13.585 177.187 13.43 177.437 13.23C177.697 13.02 177.897 12.775 178.037 12.495C178.177 12.215 178.247 11.9 178.247 11.55C178.247 11.17 178.177 10.84 178.037 10.56C177.907 10.27 177.722 10.03 177.482 9.84C177.242 9.64 176.952 9.495 176.612 9.405C176.282 9.305 175.922 9.255 175.532 9.255C174.572 9.255 173.842 9.46 173.342 9.87C172.852 10.28 172.607 10.805 172.607 11.445C172.607 11.775 172.672 12.085 172.802 12.375C172.932 12.665 173.117 12.92 173.357 13.14C173.597 13.36 173.887 13.535 174.227 13.665C174.577 13.795 174.967 13.86 175.397 13.86Z" fill="#777F8C"/>
</svg>
