<svg viewBox="0 0 536 237" fill="none" xmlns="http://www.w3.org/2000/svg">
<g clip-path="url(#clip0_1443_18794)">
<path d="M114.822 230.07C114.906 229.669 115.046 229.286 115.242 228.922C115.438 228.558 115.69 228.241 115.998 227.97C116.306 227.69 116.675 227.471 117.104 227.312C117.533 227.153 118.023 227.074 118.574 227.074C119.087 227.074 119.545 227.149 119.946 227.298C120.347 227.438 120.688 227.639 120.968 227.9C121.248 228.161 121.458 228.474 121.598 228.838C121.747 229.202 121.822 229.599 121.822 230.028C121.822 230.635 121.691 231.195 121.43 231.708C121.178 232.212 120.856 232.674 120.464 233.094C120.072 233.514 119.643 233.897 119.176 234.242C118.709 234.578 118.266 234.877 117.846 235.138L116.768 235.81H122.186V237H114.556V236.02L116.684 234.606C117.384 234.139 117.981 233.71 118.476 233.318C118.971 232.917 119.372 232.539 119.68 232.184C119.997 231.829 120.226 231.489 120.366 231.162C120.515 230.826 120.59 230.49 120.59 230.154C120.59 229.809 120.534 229.515 120.422 229.272C120.319 229.029 120.17 228.833 119.974 228.684C119.787 228.535 119.563 228.427 119.302 228.362C119.05 228.297 118.779 228.264 118.49 228.264C118.07 228.264 117.706 228.329 117.398 228.46C117.099 228.591 116.843 228.763 116.628 228.978C116.423 229.183 116.259 229.417 116.138 229.678C116.026 229.93 115.951 230.182 115.914 230.434L114.822 230.07ZM123.156 232.1C123.156 231.372 123.24 230.705 123.408 230.098C123.576 229.482 123.828 228.95 124.164 228.502C124.51 228.054 124.944 227.704 125.466 227.452C125.989 227.2 126.605 227.074 127.314 227.074C128.024 227.074 128.64 227.191 129.162 227.424C129.685 227.657 130.119 227.993 130.464 228.432C130.81 228.871 131.066 229.403 131.234 230.028C131.402 230.644 131.486 231.335 131.486 232.1C131.486 232.828 131.402 233.5 131.234 234.116C131.076 234.723 130.824 235.25 130.478 235.698C130.142 236.146 129.713 236.496 129.19 236.748C128.668 237 128.052 237.126 127.342 237.126C126.67 237.126 126.073 237 125.55 236.748C125.028 236.496 124.589 236.146 124.234 235.698C123.88 235.25 123.609 234.723 123.422 234.116C123.245 233.5 123.156 232.828 123.156 232.1ZM124.388 232.1C124.388 233.295 124.65 234.233 125.172 234.914C125.695 235.595 126.418 235.936 127.342 235.936C128.35 235.936 129.088 235.595 129.554 234.914C130.021 234.233 130.254 233.295 130.254 232.1C130.254 230.905 130.016 229.967 129.54 229.286C129.064 228.605 128.322 228.264 127.314 228.264C126.81 228.264 126.376 228.353 126.012 228.53C125.648 228.707 125.345 228.964 125.102 229.3C124.86 229.636 124.678 230.042 124.556 230.518C124.444 230.985 124.388 231.512 124.388 232.1ZM132.63 230.07C132.714 229.669 132.854 229.286 133.05 228.922C133.246 228.558 133.498 228.241 133.806 227.97C134.114 227.69 134.483 227.471 134.912 227.312C135.341 227.153 135.831 227.074 136.382 227.074C136.895 227.074 137.353 227.149 137.754 227.298C138.155 227.438 138.496 227.639 138.776 227.9C139.056 228.161 139.266 228.474 139.406 228.838C139.555 229.202 139.63 229.599 139.63 230.028C139.63 230.635 139.499 231.195 139.238 231.708C138.986 232.212 138.664 232.674 138.272 233.094C137.88 233.514 137.451 233.897 136.984 234.242C136.517 234.578 136.074 234.877 135.654 235.138L134.576 235.81H139.994V237H132.364V236.02L134.492 234.606C135.192 234.139 135.789 233.71 136.284 233.318C136.779 232.917 137.18 232.539 137.488 232.184C137.805 231.829 138.034 231.489 138.174 231.162C138.323 230.826 138.398 230.49 138.398 230.154C138.398 229.809 138.342 229.515 138.23 229.272C138.127 229.029 137.978 228.833 137.782 228.684C137.595 228.535 137.371 228.427 137.11 228.362C136.858 228.297 136.587 228.264 136.298 228.264C135.878 228.264 135.514 228.329 135.206 228.46C134.907 228.591 134.651 228.763 134.436 228.978C134.231 229.183 134.067 229.417 133.946 229.678C133.834 229.93 133.759 230.182 133.722 230.434L132.63 230.07ZM140.964 232.1C140.964 231.372 141.048 230.705 141.216 230.098C141.384 229.482 141.636 228.95 141.972 228.502C142.318 228.054 142.752 227.704 143.274 227.452C143.797 227.2 144.413 227.074 145.122 227.074C145.832 227.074 146.448 227.191 146.97 227.424C147.493 227.657 147.927 227.993 148.272 228.432C148.618 228.871 148.874 229.403 149.042 230.028C149.21 230.644 149.294 231.335 149.294 232.1C149.294 232.828 149.21 233.5 149.042 234.116C148.884 234.723 148.632 235.25 148.286 235.698C147.95 236.146 147.521 236.496 146.998 236.748C146.476 237 145.86 237.126 145.15 237.126C144.478 237.126 143.881 237 143.358 236.748C142.836 236.496 142.397 236.146 142.042 235.698C141.688 235.25 141.417 234.723 141.23 234.116C141.053 233.5 140.964 232.828 140.964 232.1ZM142.196 232.1C142.196 233.295 142.458 234.233 142.98 234.914C143.503 235.595 144.226 235.936 145.15 235.936C146.158 235.936 146.896 235.595 147.362 234.914C147.829 234.233 148.062 233.295 148.062 232.1C148.062 230.905 147.824 229.967 147.348 229.286C146.872 228.605 146.13 228.264 145.122 228.264C144.618 228.264 144.184 228.353 143.82 228.53C143.456 228.707 143.153 228.964 142.91 229.3C142.668 229.636 142.486 230.042 142.364 230.518C142.252 230.985 142.196 231.512 142.196 232.1Z" fill="#777F8C"/>
<rect x="102" y="124" width="60" height="93" fill="#BFCED4"/>
<rect x="102" y="124" width="60" height="4" fill="#A6B2BC"/>
<path d="M112.961 106.585C113.063 106.098 113.233 105.633 113.471 105.191C113.709 104.749 114.015 104.364 114.389 104.035C114.763 103.695 115.211 103.429 115.732 103.236C116.254 103.043 116.849 102.947 117.517 102.947C118.141 102.947 118.696 103.038 119.183 103.219C119.671 103.389 120.084 103.633 120.424 103.95C120.764 104.267 121.019 104.647 121.189 105.089C121.371 105.531 121.461 106.013 121.461 106.534C121.461 107.271 121.303 107.951 120.985 108.574C120.679 109.186 120.288 109.747 119.812 110.257C119.336 110.767 118.815 111.232 118.248 111.651C117.682 112.059 117.143 112.422 116.633 112.739L115.324 113.555H121.903V115H112.638V113.81L115.222 112.093C116.072 111.526 116.798 111.005 117.398 110.529C117.999 110.042 118.486 109.583 118.86 109.152C119.246 108.721 119.523 108.308 119.693 107.911C119.875 107.503 119.965 107.095 119.965 106.687C119.965 106.268 119.897 105.911 119.761 105.616C119.637 105.321 119.455 105.083 119.217 104.902C118.991 104.721 118.719 104.59 118.401 104.511C118.095 104.432 117.767 104.392 117.415 104.392C116.905 104.392 116.463 104.471 116.089 104.63C115.727 104.789 115.415 104.998 115.154 105.259C114.905 105.508 114.707 105.792 114.559 106.109C114.423 106.415 114.333 106.721 114.287 107.027L112.961 106.585ZM123.031 116.649C123.178 116.615 123.331 116.553 123.49 116.462C123.66 116.371 123.813 116.258 123.949 116.122C124.085 115.986 124.192 115.839 124.272 115.68C124.362 115.521 124.408 115.357 124.408 115.187C124.408 115.108 124.402 115.045 124.391 115C124.334 115.011 124.266 115.017 124.187 115.017C123.937 115.017 123.722 114.938 123.541 114.779C123.371 114.62 123.286 114.394 123.286 114.099C123.286 113.804 123.376 113.572 123.558 113.402C123.739 113.221 123.994 113.13 124.323 113.13C124.685 113.13 124.98 113.255 125.207 113.504C125.445 113.742 125.564 114.105 125.564 114.592C125.564 115.057 125.501 115.453 125.377 115.782C125.252 116.111 125.088 116.388 124.884 116.615C124.68 116.842 124.447 117.017 124.187 117.142C123.926 117.278 123.66 117.38 123.388 117.448L123.031 116.649ZM128.177 103.1H135.657V104.545H129.486L129.044 107.741C129.305 107.548 129.656 107.39 130.098 107.265C130.552 107.129 131.101 107.061 131.747 107.061C132.461 107.061 133.096 107.163 133.651 107.367C134.207 107.571 134.671 107.854 135.045 108.217C135.419 108.58 135.703 109.005 135.895 109.492C136.099 109.979 136.201 110.501 136.201 111.056C136.201 111.657 136.082 112.206 135.844 112.705C135.618 113.204 135.295 113.634 134.875 113.997C134.467 114.36 133.98 114.643 133.413 114.847C132.858 115.051 132.252 115.153 131.594 115.153C131.05 115.153 130.529 115.091 130.03 114.966C129.532 114.841 129.067 114.654 128.636 114.405C128.217 114.156 127.843 113.855 127.514 113.504C127.197 113.141 126.942 112.722 126.749 112.246L128.109 111.668C128.223 111.929 128.381 112.184 128.585 112.433C128.789 112.671 129.039 112.886 129.333 113.079C129.628 113.272 129.962 113.425 130.336 113.538C130.71 113.651 131.13 113.708 131.594 113.708C132.116 113.708 132.569 113.64 132.954 113.504C133.351 113.357 133.68 113.164 133.94 112.926C134.201 112.688 134.394 112.416 134.518 112.11C134.643 111.793 134.705 111.458 134.705 111.107C134.705 110.302 134.405 109.668 133.804 109.203C133.215 108.738 132.393 108.506 131.339 108.506C130.739 108.506 130.234 108.591 129.826 108.761C129.43 108.92 129.056 109.175 128.704 109.526L127.48 109.203L128.177 103.1ZM148.287 102.726L149.358 103.508L140.62 115.255L139.498 114.609L148.287 102.726ZM137.662 105.956C137.662 105.525 137.741 105.134 137.9 104.783C138.058 104.42 138.274 104.114 138.546 103.865C138.829 103.604 139.158 103.406 139.532 103.27C139.917 103.123 140.331 103.049 140.773 103.049C141.215 103.049 141.623 103.123 141.997 103.27C142.371 103.406 142.694 103.604 142.966 103.865C143.249 104.114 143.47 104.42 143.629 104.783C143.787 105.134 143.867 105.525 143.867 105.956C143.867 106.387 143.787 106.778 143.629 107.129C143.47 107.48 143.249 107.786 142.966 108.047C142.694 108.296 142.371 108.495 141.997 108.642C141.623 108.778 141.215 108.846 140.773 108.846C140.331 108.846 139.917 108.778 139.532 108.642C139.158 108.495 138.829 108.296 138.546 108.047C138.274 107.786 138.058 107.48 137.9 107.129C137.741 106.778 137.662 106.387 137.662 105.956ZM139.09 105.956C139.09 106.217 139.135 106.449 139.226 106.653C139.328 106.857 139.452 107.033 139.6 107.18C139.758 107.327 139.94 107.441 140.144 107.52C140.348 107.599 140.557 107.639 140.773 107.639C141.215 107.639 141.6 107.486 141.929 107.18C142.269 106.874 142.439 106.466 142.439 105.956C142.439 105.446 142.269 105.038 141.929 104.732C141.6 104.426 141.215 104.273 140.773 104.273C140.319 104.273 139.923 104.426 139.583 104.732C139.254 105.038 139.09 105.446 139.09 105.956ZM144.955 112.161C144.955 111.742 145.034 111.356 145.193 111.005C145.351 110.642 145.567 110.336 145.839 110.087C146.122 109.826 146.451 109.628 146.825 109.492C147.21 109.345 147.624 109.271 148.066 109.271C148.508 109.271 148.916 109.345 149.29 109.492C149.664 109.628 149.987 109.826 150.259 110.087C150.542 110.336 150.763 110.642 150.922 111.005C151.08 111.356 151.16 111.742 151.16 112.161C151.16 112.592 151.08 112.983 150.922 113.334C150.763 113.685 150.542 113.991 150.259 114.252C149.987 114.513 149.664 114.717 149.29 114.864C148.916 115 148.508 115.068 148.066 115.068C147.624 115.068 147.21 115 146.825 114.864C146.451 114.717 146.122 114.513 145.839 114.252C145.567 113.991 145.351 113.685 145.193 113.334C145.034 112.983 144.955 112.592 144.955 112.161ZM146.383 112.161C146.383 112.422 146.428 112.654 146.519 112.858C146.621 113.062 146.745 113.238 146.893 113.385C147.051 113.532 147.233 113.646 147.437 113.725C147.641 113.804 147.85 113.844 148.066 113.844C148.508 113.844 148.893 113.691 149.222 113.385C149.562 113.079 149.732 112.671 149.732 112.161C149.732 111.651 149.562 111.243 149.222 110.937C148.893 110.631 148.508 110.478 148.066 110.478C147.612 110.478 147.216 110.631 146.876 110.937C146.547 111.243 146.383 111.651 146.383 112.161Z" fill="#222429"/>
<path d="M266.818 230.07C266.902 229.669 267.042 229.286 267.238 228.922C267.434 228.558 267.686 228.241 267.994 227.97C268.302 227.69 268.671 227.471 269.1 227.312C269.53 227.153 270.02 227.074 270.57 227.074C271.084 227.074 271.541 227.149 271.942 227.298C272.344 227.438 272.684 227.639 272.964 227.9C273.244 228.161 273.454 228.474 273.594 228.838C273.744 229.202 273.818 229.599 273.818 230.028C273.818 230.635 273.688 231.195 273.426 231.708C273.174 232.212 272.852 232.674 272.46 233.094C272.068 233.514 271.639 233.897 271.172 234.242C270.706 234.578 270.262 234.877 269.842 235.138L268.764 235.81H274.182V237H266.552V236.02L268.68 234.606C269.38 234.139 269.978 233.71 270.472 233.318C270.967 232.917 271.368 232.539 271.676 232.184C271.994 231.829 272.222 231.489 272.362 231.162C272.512 230.826 272.586 230.49 272.586 230.154C272.586 229.809 272.53 229.515 272.418 229.272C272.316 229.029 272.166 228.833 271.97 228.684C271.784 228.535 271.56 228.427 271.298 228.362C271.046 228.297 270.776 228.264 270.486 228.264C270.066 228.264 269.702 228.329 269.394 228.46C269.096 228.591 268.839 228.763 268.624 228.978C268.419 229.183 268.256 229.417 268.134 229.678C268.022 229.93 267.948 230.182 267.91 230.434L266.818 230.07ZM275.152 232.1C275.152 231.372 275.236 230.705 275.404 230.098C275.572 229.482 275.824 228.95 276.16 228.502C276.506 228.054 276.94 227.704 277.462 227.452C277.985 227.2 278.601 227.074 279.31 227.074C280.02 227.074 280.636 227.191 281.158 227.424C281.681 227.657 282.115 227.993 282.46 228.432C282.806 228.871 283.062 229.403 283.23 230.028C283.398 230.644 283.482 231.335 283.482 232.1C283.482 232.828 283.398 233.5 283.23 234.116C283.072 234.723 282.82 235.25 282.474 235.698C282.138 236.146 281.709 236.496 281.186 236.748C280.664 237 280.048 237.126 279.338 237.126C278.666 237.126 278.069 237 277.546 236.748C277.024 236.496 276.585 236.146 276.23 235.698C275.876 235.25 275.605 234.723 275.418 234.116C275.241 233.5 275.152 232.828 275.152 232.1ZM276.384 232.1C276.384 233.295 276.646 234.233 277.168 234.914C277.691 235.595 278.414 235.936 279.338 235.936C280.346 235.936 281.084 235.595 281.55 234.914C282.017 234.233 282.25 233.295 282.25 232.1C282.25 230.905 282.012 229.967 281.536 229.286C281.06 228.605 280.318 228.264 279.31 228.264C278.806 228.264 278.372 228.353 278.008 228.53C277.644 228.707 277.341 228.964 277.098 229.3C276.856 229.636 276.674 230.042 276.552 230.518C276.44 230.985 276.384 231.512 276.384 232.1ZM284.626 230.07C284.71 229.669 284.85 229.286 285.046 228.922C285.242 228.558 285.494 228.241 285.802 227.97C286.11 227.69 286.479 227.471 286.908 227.312C287.337 227.153 287.827 227.074 288.378 227.074C288.891 227.074 289.349 227.149 289.75 227.298C290.151 227.438 290.492 227.639 290.772 227.9C291.052 228.161 291.262 228.474 291.402 228.838C291.551 229.202 291.626 229.599 291.626 230.028C291.626 230.635 291.495 231.195 291.234 231.708C290.982 232.212 290.66 232.674 290.268 233.094C289.876 233.514 289.447 233.897 288.98 234.242C288.513 234.578 288.07 234.877 287.65 235.138L286.572 235.81H291.99V237H284.36V236.02L286.488 234.606C287.188 234.139 287.785 233.71 288.28 233.318C288.775 232.917 289.176 232.539 289.484 232.184C289.801 231.829 290.03 231.489 290.17 231.162C290.319 230.826 290.394 230.49 290.394 230.154C290.394 229.809 290.338 229.515 290.226 229.272C290.123 229.029 289.974 228.833 289.778 228.684C289.591 228.535 289.367 228.427 289.106 228.362C288.854 228.297 288.583 228.264 288.294 228.264C287.874 228.264 287.51 228.329 287.202 228.46C286.903 228.591 286.647 228.763 286.432 228.978C286.227 229.183 286.063 229.417 285.942 229.678C285.83 229.93 285.755 230.182 285.718 230.434L284.626 230.07ZM295.76 227.144H296.558V237H295.382V228.642L292.848 229.804L292.4 228.754L295.76 227.144Z" fill="#777F8C"/>
<rect x="252" y="63" width="60" height="154" fill="#BFCED4"/>
<rect x="252" y="63" width="60" height="4" fill="#A6B2BC"/>
<path d="M271.111 51.62H263.784V50.532L271.281 42.1H272.539V50.175H274.749V51.62H272.539V54H271.111V51.62ZM271.111 50.175V44.48L265.824 50.175H271.111ZM275.529 55.649C275.676 55.615 275.829 55.5527 275.988 55.462C276.158 55.3713 276.311 55.258 276.447 55.122C276.583 54.986 276.691 54.8387 276.77 54.68C276.861 54.5213 276.906 54.357 276.906 54.187C276.906 54.1077 276.9 54.0453 276.889 54C276.832 54.0113 276.764 54.017 276.685 54.017C276.436 54.017 276.22 53.9377 276.039 53.779C275.869 53.6203 275.784 53.3937 275.784 53.099C275.784 52.8043 275.875 52.572 276.056 52.402C276.237 52.2207 276.492 52.13 276.821 52.13C277.184 52.13 277.478 52.2547 277.705 52.504C277.943 52.742 278.062 53.1047 278.062 53.592C278.062 54.0567 278 54.4533 277.875 54.782C277.75 55.1107 277.586 55.3883 277.382 55.615C277.178 55.8417 276.946 56.0173 276.685 56.142C276.424 56.278 276.158 56.38 275.886 56.448L275.529 55.649ZM282.869 42.032H283.838V54H282.41V43.851L279.333 45.262L278.789 43.987L282.869 42.032ZM296.801 41.726L297.872 42.508L289.134 54.255L288.012 53.609L296.801 41.726ZM286.176 44.956C286.176 44.5253 286.255 44.1343 286.414 43.783C286.572 43.4203 286.788 43.1143 287.06 42.865C287.343 42.6043 287.672 42.406 288.046 42.27C288.431 42.1227 288.845 42.049 289.287 42.049C289.729 42.049 290.137 42.1227 290.511 42.27C290.885 42.406 291.208 42.6043 291.48 42.865C291.763 43.1143 291.984 43.4203 292.143 43.783C292.301 44.1343 292.381 44.5253 292.381 44.956C292.381 45.3867 292.301 45.7777 292.143 46.129C291.984 46.4803 291.763 46.7863 291.48 47.047C291.208 47.2963 290.885 47.4947 290.511 47.642C290.137 47.778 289.729 47.846 289.287 47.846C288.845 47.846 288.431 47.778 288.046 47.642C287.672 47.4947 287.343 47.2963 287.06 47.047C286.788 46.7863 286.572 46.4803 286.414 46.129C286.255 45.7777 286.176 45.3867 286.176 44.956ZM287.604 44.956C287.604 45.2167 287.649 45.449 287.74 45.653C287.842 45.857 287.966 46.0327 288.114 46.18C288.272 46.3273 288.454 46.4407 288.658 46.52C288.862 46.5993 289.071 46.639 289.287 46.639C289.729 46.639 290.114 46.486 290.443 46.18C290.783 45.874 290.953 45.466 290.953 44.956C290.953 44.446 290.783 44.038 290.443 43.732C290.114 43.426 289.729 43.273 289.287 43.273C288.833 43.273 288.437 43.426 288.097 43.732C287.768 44.038 287.604 44.446 287.604 44.956ZM293.469 51.161C293.469 50.7417 293.548 50.3563 293.707 50.005C293.865 49.6423 294.081 49.3363 294.353 49.087C294.636 48.8263 294.965 48.628 295.339 48.492C295.724 48.3447 296.138 48.271 296.58 48.271C297.022 48.271 297.43 48.3447 297.804 48.492C298.178 48.628 298.501 48.8263 298.773 49.087C299.056 49.3363 299.277 49.6423 299.436 50.005C299.594 50.3563 299.674 50.7417 299.674 51.161C299.674 51.5917 299.594 51.9827 299.436 52.334C299.277 52.6853 299.056 52.9913 298.773 53.252C298.501 53.5127 298.178 53.7167 297.804 53.864C297.43 54 297.022 54.068 296.58 54.068C296.138 54.068 295.724 54 295.339 53.864C294.965 53.7167 294.636 53.5127 294.353 53.252C294.081 52.9913 293.865 52.6853 293.707 52.334C293.548 51.9827 293.469 51.5917 293.469 51.161ZM294.897 51.161C294.897 51.4217 294.942 51.654 295.033 51.858C295.135 52.062 295.259 52.2377 295.407 52.385C295.565 52.5323 295.747 52.6457 295.951 52.725C296.155 52.8043 296.364 52.844 296.58 52.844C297.022 52.844 297.407 52.691 297.736 52.385C298.076 52.079 298.246 51.671 298.246 51.161C298.246 50.651 298.076 50.243 297.736 49.937C297.407 49.631 297.022 49.478 296.58 49.478C296.126 49.478 295.73 49.631 295.39 49.937C295.061 50.243 294.897 50.651 294.897 51.161Z" fill="#222429"/>
<path d="M415.294 230.07C415.378 229.669 415.518 229.286 415.714 228.922C415.91 228.558 416.162 228.241 416.47 227.97C416.778 227.69 417.146 227.471 417.576 227.312C418.005 227.153 418.495 227.074 419.046 227.074C419.559 227.074 420.016 227.149 420.418 227.298C420.819 227.438 421.16 227.639 421.44 227.9C421.72 228.161 421.93 228.474 422.07 228.838C422.219 229.202 422.294 229.599 422.294 230.028C422.294 230.635 422.163 231.195 421.902 231.708C421.65 232.212 421.328 232.674 420.936 233.094C420.544 233.514 420.114 233.897 419.648 234.242C419.181 234.578 418.738 234.877 418.318 235.138L417.24 235.81H422.658V237H415.028V236.02L417.156 234.606C417.856 234.139 418.453 233.71 418.948 233.318C419.442 232.917 419.844 232.539 420.152 232.184C420.469 231.829 420.698 231.489 420.838 231.162C420.987 230.826 421.062 230.49 421.062 230.154C421.062 229.809 421.006 229.515 420.894 229.272C420.791 229.029 420.642 228.833 420.446 228.684C420.259 228.535 420.035 228.427 419.774 228.362C419.522 228.297 419.251 228.264 418.962 228.264C418.542 228.264 418.178 228.329 417.87 228.46C417.571 228.591 417.314 228.763 417.1 228.978C416.894 229.183 416.731 229.417 416.61 229.678C416.498 229.93 416.423 230.182 416.386 230.434L415.294 230.07ZM423.628 232.1C423.628 231.372 423.712 230.705 423.88 230.098C424.048 229.482 424.3 228.95 424.636 228.502C424.981 228.054 425.415 227.704 425.938 227.452C426.461 227.2 427.077 227.074 427.786 227.074C428.495 227.074 429.111 227.191 429.634 227.424C430.157 227.657 430.591 227.993 430.936 228.432C431.281 228.871 431.538 229.403 431.706 230.028C431.874 230.644 431.958 231.335 431.958 232.1C431.958 232.828 431.874 233.5 431.706 234.116C431.547 234.723 431.295 235.25 430.95 235.698C430.614 236.146 430.185 236.496 429.662 236.748C429.139 237 428.523 237.126 427.814 237.126C427.142 237.126 426.545 237 426.022 236.748C425.499 236.496 425.061 236.146 424.706 235.698C424.351 235.25 424.081 234.723 423.894 234.116C423.717 233.5 423.628 232.828 423.628 232.1ZM424.86 232.1C424.86 233.295 425.121 234.233 425.644 234.914C426.167 235.595 426.89 235.936 427.814 235.936C428.822 235.936 429.559 235.595 430.026 234.914C430.493 234.233 430.726 233.295 430.726 232.1C430.726 230.905 430.488 229.967 430.012 229.286C429.536 228.605 428.794 228.264 427.786 228.264C427.282 228.264 426.848 228.353 426.484 228.53C426.12 228.707 425.817 228.964 425.574 229.3C425.331 229.636 425.149 230.042 425.028 230.518C424.916 230.985 424.86 231.512 424.86 232.1ZM433.102 230.07C433.186 229.669 433.326 229.286 433.522 228.922C433.718 228.558 433.97 228.241 434.278 227.97C434.586 227.69 434.954 227.471 435.384 227.312C435.813 227.153 436.303 227.074 436.854 227.074C437.367 227.074 437.824 227.149 438.226 227.298C438.627 227.438 438.968 227.639 439.248 227.9C439.528 228.161 439.738 228.474 439.878 228.838C440.027 229.202 440.102 229.599 440.102 230.028C440.102 230.635 439.971 231.195 439.71 231.708C439.458 232.212 439.136 232.674 438.744 233.094C438.352 233.514 437.922 233.897 437.456 234.242C436.989 234.578 436.546 234.877 436.126 235.138L435.048 235.81H440.466V237H432.836V236.02L434.964 234.606C435.664 234.139 436.261 233.71 436.756 233.318C437.25 232.917 437.652 232.539 437.96 232.184C438.277 231.829 438.506 231.489 438.646 231.162C438.795 230.826 438.87 230.49 438.87 230.154C438.87 229.809 438.814 229.515 438.702 229.272C438.599 229.029 438.45 228.833 438.254 228.684C438.067 228.535 437.843 228.427 437.582 228.362C437.33 228.297 437.059 228.264 436.77 228.264C436.35 228.264 435.986 228.329 435.678 228.46C435.379 228.591 435.122 228.763 434.908 228.978C434.702 229.183 434.539 229.417 434.418 229.678C434.306 229.93 434.231 230.182 434.194 230.434L433.102 230.07ZM441.534 230.07C441.618 229.669 441.758 229.286 441.954 228.922C442.15 228.558 442.402 228.241 442.71 227.97C443.018 227.69 443.387 227.471 443.816 227.312C444.245 227.153 444.735 227.074 445.286 227.074C445.799 227.074 446.257 227.149 446.658 227.298C447.059 227.438 447.4 227.639 447.68 227.9C447.96 228.161 448.17 228.474 448.31 228.838C448.459 229.202 448.534 229.599 448.534 230.028C448.534 230.635 448.403 231.195 448.142 231.708C447.89 232.212 447.568 232.674 447.176 233.094C446.784 233.514 446.355 233.897 445.888 234.242C445.421 234.578 444.978 234.877 444.558 235.138L443.48 235.81H448.898V237H441.268V236.02L443.396 234.606C444.096 234.139 444.693 233.71 445.188 233.318C445.683 232.917 446.084 232.539 446.392 232.184C446.709 231.829 446.938 231.489 447.078 231.162C447.227 230.826 447.302 230.49 447.302 230.154C447.302 229.809 447.246 229.515 447.134 229.272C447.031 229.029 446.882 228.833 446.686 228.684C446.499 228.535 446.275 228.427 446.014 228.362C445.762 228.297 445.491 228.264 445.202 228.264C444.782 228.264 444.418 228.329 444.11 228.46C443.811 228.591 443.555 228.763 443.34 228.978C443.135 229.183 442.971 229.417 442.85 229.678C442.738 229.93 442.663 230.182 442.626 230.434L441.534 230.07Z" fill="#5FAF2D"/>
<rect x="402" y="45" width="60" height="172" fill="#5FAF2D"/>
<rect x="402" y="45" width="60" height="4" fill="#3D7917"/>
<path d="M418.812 33.62H411.485V32.532L418.982 24.1H420.24V32.175H422.45V33.62H420.24V36H418.812V33.62ZM418.812 32.175V26.48L413.525 32.175H418.812ZM423.23 37.649C423.377 37.615 423.53 37.5527 423.689 37.462C423.859 37.3713 424.012 37.258 424.148 37.122C424.284 36.986 424.391 36.8387 424.471 36.68C424.561 36.5213 424.607 36.357 424.607 36.187C424.607 36.1077 424.601 36.0453 424.59 36C424.533 36.0113 424.465 36.017 424.386 36.017C424.136 36.017 423.921 35.9377 423.74 35.779C423.57 35.6203 423.485 35.3937 423.485 35.099C423.485 34.8043 423.575 34.572 423.757 34.402C423.938 34.2207 424.193 34.13 424.522 34.13C424.884 34.13 425.179 34.2547 425.406 34.504C425.644 34.742 425.763 35.1047 425.763 35.592C425.763 36.0567 425.7 36.4533 425.576 36.782C425.451 37.1107 425.287 37.3883 425.083 37.615C424.879 37.8417 424.646 38.0173 424.386 38.142C424.125 38.278 423.859 38.38 423.587 38.448L423.23 37.649ZM432.371 36.153C431.578 36.153 430.858 36.0283 430.212 35.779C429.578 35.5297 429.034 35.1613 428.58 34.674C428.127 34.1753 427.776 33.569 427.526 32.855C427.288 32.141 427.169 31.3137 427.169 30.373C427.169 29.3077 427.311 28.3727 427.594 27.568C427.878 26.7633 428.257 26.0947 428.733 25.562C429.221 25.018 429.782 24.6157 430.416 24.355C431.062 24.083 431.742 23.947 432.456 23.947C433.488 23.947 434.366 24.1567 435.091 24.576C435.817 24.9953 436.344 25.562 436.672 26.276L435.516 27.058C435.188 26.548 434.763 26.1457 434.241 25.851C433.731 25.545 433.114 25.392 432.388 25.392C431.822 25.392 431.312 25.5053 430.858 25.732C430.405 25.9473 430.014 26.2647 429.685 26.684C429.357 27.092 429.102 27.5907 428.92 28.18C428.739 28.758 428.643 29.4097 428.631 30.135V30.322C428.79 29.948 429.005 29.6193 429.277 29.336C429.561 29.0527 429.878 28.8147 430.229 28.622C430.581 28.4293 430.955 28.2877 431.351 28.197C431.759 28.095 432.173 28.044 432.592 28.044C433.284 28.044 433.907 28.1403 434.462 28.333C435.018 28.5257 435.488 28.7977 435.873 29.149C436.27 29.5003 436.57 29.9197 436.774 30.407C436.978 30.8943 437.08 31.4327 437.08 32.022C437.08 32.634 436.956 33.195 436.706 33.705C436.468 34.215 436.134 34.6513 435.703 35.014C435.284 35.3767 434.785 35.66 434.207 35.864C433.641 36.0567 433.029 36.153 432.371 36.153ZM432.354 34.708C432.83 34.708 433.261 34.6457 433.646 34.521C434.043 34.3963 434.383 34.2207 434.666 33.994C434.961 33.756 435.188 33.4783 435.346 33.161C435.505 32.8437 435.584 32.4867 435.584 32.09C435.584 31.6593 435.505 31.2853 435.346 30.968C435.199 30.6393 434.989 30.3673 434.717 30.152C434.445 29.9253 434.117 29.761 433.731 29.659C433.357 29.5457 432.949 29.489 432.507 29.489C431.419 29.489 430.592 29.7213 430.025 30.186C429.47 30.6507 429.192 31.2457 429.192 31.971C429.192 32.345 429.266 32.6963 429.413 33.025C429.561 33.3537 429.77 33.6427 430.042 33.892C430.314 34.1413 430.643 34.3397 431.028 34.487C431.425 34.6343 431.867 34.708 432.354 34.708ZM449.1 23.726L450.171 24.508L441.433 36.255L440.311 35.609L449.1 23.726ZM438.475 26.956C438.475 26.5253 438.554 26.1343 438.713 25.783C438.872 25.4203 439.087 25.1143 439.359 24.865C439.642 24.6043 439.971 24.406 440.345 24.27C440.73 24.1227 441.144 24.049 441.586 24.049C442.028 24.049 442.436 24.1227 442.81 24.27C443.184 24.406 443.507 24.6043 443.779 24.865C444.062 25.1143 444.283 25.4203 444.442 25.783C444.601 26.1343 444.68 26.5253 444.68 26.956C444.68 27.3867 444.601 27.7777 444.442 28.129C444.283 28.4803 444.062 28.7863 443.779 29.047C443.507 29.2963 443.184 29.4947 442.81 29.642C442.436 29.778 442.028 29.846 441.586 29.846C441.144 29.846 440.73 29.778 440.345 29.642C439.971 29.4947 439.642 29.2963 439.359 29.047C439.087 28.7863 438.872 28.4803 438.713 28.129C438.554 27.7777 438.475 27.3867 438.475 26.956ZM439.903 26.956C439.903 27.2167 439.948 27.449 440.039 27.653C440.141 27.857 440.266 28.0327 440.413 28.18C440.572 28.3273 440.753 28.4407 440.957 28.52C441.161 28.5993 441.371 28.639 441.586 28.639C442.028 28.639 442.413 28.486 442.742 28.18C443.082 27.874 443.252 27.466 443.252 26.956C443.252 26.446 443.082 26.038 442.742 25.732C442.413 25.426 442.028 25.273 441.586 25.273C441.133 25.273 440.736 25.426 440.396 25.732C440.067 26.038 439.903 26.446 439.903 26.956ZM445.768 33.161C445.768 32.7417 445.847 32.3563 446.006 32.005C446.165 31.6423 446.38 31.3363 446.652 31.087C446.935 30.8263 447.264 30.628 447.638 30.492C448.023 30.3447 448.437 30.271 448.879 30.271C449.321 30.271 449.729 30.3447 450.103 30.492C450.477 30.628 450.8 30.8263 451.072 31.087C451.355 31.3363 451.576 31.6423 451.735 32.005C451.894 32.3563 451.973 32.7417 451.973 33.161C451.973 33.5917 451.894 33.9827 451.735 34.334C451.576 34.6853 451.355 34.9913 451.072 35.252C450.8 35.5127 450.477 35.7167 450.103 35.864C449.729 36 449.321 36.068 448.879 36.068C448.437 36.068 448.023 36 447.638 35.864C447.264 35.7167 446.935 35.5127 446.652 35.252C446.38 34.9913 446.165 34.6853 446.006 34.334C445.847 33.9827 445.768 33.5917 445.768 33.161ZM447.196 33.161C447.196 33.4217 447.241 33.654 447.332 33.858C447.434 34.062 447.559 34.2377 447.706 34.385C447.865 34.5323 448.046 34.6457 448.25 34.725C448.454 34.8043 448.664 34.844 448.879 34.844C449.321 34.844 449.706 34.691 450.035 34.385C450.375 34.079 450.545 33.671 450.545 33.161C450.545 32.651 450.375 32.243 450.035 31.937C449.706 31.631 449.321 31.478 448.879 31.478C448.426 31.478 448.029 31.631 447.689 31.937C447.36 32.243 447.196 32.651 447.196 33.161Z" fill="#222429"/>
<rect y="217" width="536" height="1" fill="#9299A3"/>
</g>
<defs>
<clipPath id="clip0_1443_18794">
<rect width="536" height="237" fill="white"/>
</clipPath>
</defs>
</svg>
