<svg viewBox="0 0 536 237" fill="none" xmlns="http://www.w3.org/2000/svg">
<g clip-path="url(#clip0_149_23534)">
<path d="M114.822 230.07C114.906 229.669 115.046 229.286 115.242 228.922C115.438 228.558 115.69 228.241 115.998 227.97C116.306 227.69 116.675 227.471 117.104 227.312C117.533 227.153 118.023 227.074 118.574 227.074C119.087 227.074 119.545 227.149 119.946 227.298C120.347 227.438 120.688 227.639 120.968 227.9C121.248 228.161 121.458 228.474 121.598 228.838C121.747 229.202 121.822 229.599 121.822 230.028C121.822 230.635 121.691 231.195 121.43 231.708C121.178 232.212 120.856 232.674 120.464 233.094C120.072 233.514 119.643 233.897 119.176 234.242C118.709 234.578 118.266 234.877 117.846 235.138L116.768 235.81H122.186V237H114.556V236.02L116.684 234.606C117.384 234.139 117.981 233.71 118.476 233.318C118.971 232.917 119.372 232.539 119.68 232.184C119.997 231.829 120.226 231.489 120.366 231.162C120.515 230.826 120.59 230.49 120.59 230.154C120.59 229.809 120.534 229.515 120.422 229.272C120.319 229.029 120.17 228.833 119.974 228.684C119.787 228.535 119.563 228.427 119.302 228.362C119.05 228.297 118.779 228.264 118.49 228.264C118.07 228.264 117.706 228.329 117.398 228.46C117.099 228.591 116.843 228.763 116.628 228.978C116.423 229.183 116.259 229.417 116.138 229.678C116.026 229.93 115.951 230.182 115.914 230.434L114.822 230.07ZM123.156 232.1C123.156 231.372 123.24 230.705 123.408 230.098C123.576 229.482 123.828 228.95 124.164 228.502C124.51 228.054 124.944 227.704 125.466 227.452C125.989 227.2 126.605 227.074 127.314 227.074C128.024 227.074 128.64 227.191 129.162 227.424C129.685 227.657 130.119 227.993 130.464 228.432C130.81 228.871 131.066 229.403 131.234 230.028C131.402 230.644 131.486 231.335 131.486 232.1C131.486 232.828 131.402 233.5 131.234 234.116C131.076 234.723 130.824 235.25 130.478 235.698C130.142 236.146 129.713 236.496 129.19 236.748C128.668 237 128.052 237.126 127.342 237.126C126.67 237.126 126.073 237 125.55 236.748C125.028 236.496 124.589 236.146 124.234 235.698C123.88 235.25 123.609 234.723 123.422 234.116C123.245 233.5 123.156 232.828 123.156 232.1ZM124.388 232.1C124.388 233.295 124.65 234.233 125.172 234.914C125.695 235.595 126.418 235.936 127.342 235.936C128.35 235.936 129.088 235.595 129.554 234.914C130.021 234.233 130.254 233.295 130.254 232.1C130.254 230.905 130.016 229.967 129.54 229.286C129.064 228.605 128.322 228.264 127.314 228.264C126.81 228.264 126.376 228.353 126.012 228.53C125.648 228.707 125.345 228.964 125.102 229.3C124.86 229.636 124.678 230.042 124.556 230.518C124.444 230.985 124.388 231.512 124.388 232.1ZM132.63 230.07C132.714 229.669 132.854 229.286 133.05 228.922C133.246 228.558 133.498 228.241 133.806 227.97C134.114 227.69 134.483 227.471 134.912 227.312C135.341 227.153 135.831 227.074 136.382 227.074C136.895 227.074 137.353 227.149 137.754 227.298C138.155 227.438 138.496 227.639 138.776 227.9C139.056 228.161 139.266 228.474 139.406 228.838C139.555 229.202 139.63 229.599 139.63 230.028C139.63 230.635 139.499 231.195 139.238 231.708C138.986 232.212 138.664 232.674 138.272 233.094C137.88 233.514 137.451 233.897 136.984 234.242C136.517 234.578 136.074 234.877 135.654 235.138L134.576 235.81H139.994V237H132.364V236.02L134.492 234.606C135.192 234.139 135.789 233.71 136.284 233.318C136.779 232.917 137.18 232.539 137.488 232.184C137.805 231.829 138.034 231.489 138.174 231.162C138.323 230.826 138.398 230.49 138.398 230.154C138.398 229.809 138.342 229.515 138.23 229.272C138.127 229.029 137.978 228.833 137.782 228.684C137.595 228.535 137.371 228.427 137.11 228.362C136.858 228.297 136.587 228.264 136.298 228.264C135.878 228.264 135.514 228.329 135.206 228.46C134.907 228.591 134.651 228.763 134.436 228.978C134.231 229.183 134.067 229.417 133.946 229.678C133.834 229.93 133.759 230.182 133.722 230.434L132.63 230.07ZM140.964 232.1C140.964 231.372 141.048 230.705 141.216 230.098C141.384 229.482 141.636 228.95 141.972 228.502C142.318 228.054 142.752 227.704 143.274 227.452C143.797 227.2 144.413 227.074 145.122 227.074C145.832 227.074 146.448 227.191 146.97 227.424C147.493 227.657 147.927 227.993 148.272 228.432C148.618 228.871 148.874 229.403 149.042 230.028C149.21 230.644 149.294 231.335 149.294 232.1C149.294 232.828 149.21 233.5 149.042 234.116C148.884 234.723 148.632 235.25 148.286 235.698C147.95 236.146 147.521 236.496 146.998 236.748C146.476 237 145.86 237.126 145.15 237.126C144.478 237.126 143.881 237 143.358 236.748C142.836 236.496 142.397 236.146 142.042 235.698C141.688 235.25 141.417 234.723 141.23 234.116C141.053 233.5 140.964 232.828 140.964 232.1ZM142.196 232.1C142.196 233.295 142.458 234.233 142.98 234.914C143.503 235.595 144.226 235.936 145.15 235.936C146.158 235.936 146.896 235.595 147.362 234.914C147.829 234.233 148.062 233.295 148.062 232.1C148.062 230.905 147.824 229.967 147.348 229.286C146.872 228.605 146.13 228.264 145.122 228.264C144.618 228.264 144.184 228.353 143.82 228.53C143.456 228.707 143.153 228.964 142.91 229.3C142.668 229.636 142.486 230.042 142.364 230.518C142.252 230.985 142.196 231.512 142.196 232.1Z" fill="#777F8C"/>
<rect x="102" y="124" width="60" height="93" fill="#BFCED4"/>
<rect x="102" y="124" width="60" height="4" fill="#A6B2BC"/>
<path d="M112.936 106.585C113.038 106.098 113.208 105.633 113.446 105.191C113.684 104.749 113.99 104.364 114.364 104.035C114.738 103.695 115.186 103.429 115.707 103.236C116.229 103.043 116.824 102.947 117.492 102.947C118.116 102.947 118.671 103.038 119.158 103.219C119.646 103.389 120.059 103.633 120.399 103.95C120.739 104.267 120.994 104.647 121.164 105.089C121.346 105.531 121.436 106.013 121.436 106.534C121.436 107.271 121.278 107.951 120.96 108.574C120.654 109.186 120.263 109.747 119.787 110.257C119.311 110.767 118.79 111.232 118.223 111.651C117.657 112.059 117.118 112.422 116.608 112.739L115.299 113.555H121.878V115H112.613V113.81L115.197 112.093C116.047 111.526 116.773 111.005 117.373 110.529C117.974 110.042 118.461 109.583 118.835 109.152C119.221 108.721 119.498 108.308 119.668 107.911C119.85 107.503 119.94 107.095 119.94 106.687C119.94 106.268 119.872 105.911 119.736 105.616C119.612 105.321 119.43 105.083 119.192 104.902C118.966 104.721 118.694 104.59 118.376 104.511C118.07 104.432 117.742 104.392 117.39 104.392C116.88 104.392 116.438 104.471 116.064 104.63C115.702 104.789 115.39 104.998 115.129 105.259C114.88 105.508 114.682 105.792 114.534 106.109C114.398 106.415 114.308 106.721 114.262 107.027L112.936 106.585ZM123.346 114.031C123.346 113.804 123.442 113.589 123.635 113.385C123.827 113.181 124.082 113.079 124.4 113.079C124.694 113.079 124.938 113.181 125.131 113.385C125.323 113.589 125.42 113.804 125.42 114.031C125.42 114.292 125.323 114.524 125.131 114.728C124.938 114.932 124.694 115.034 124.4 115.034C124.082 115.034 123.827 114.932 123.635 114.728C123.442 114.524 123.346 114.292 123.346 114.031ZM128.202 103.1H135.682V104.545H129.511L129.069 107.741C129.33 107.548 129.681 107.39 130.123 107.265C130.576 107.129 131.126 107.061 131.772 107.061C132.486 107.061 133.121 107.163 133.676 107.367C134.231 107.571 134.696 107.854 135.07 108.217C135.444 108.58 135.727 109.005 135.92 109.492C136.124 109.979 136.226 110.501 136.226 111.056C136.226 111.657 136.107 112.206 135.869 112.705C135.642 113.204 135.319 113.634 134.9 113.997C134.492 114.36 134.005 114.643 133.438 114.847C132.883 115.051 132.276 115.153 131.619 115.153C131.075 115.153 130.554 115.091 130.055 114.966C129.556 114.841 129.092 114.654 128.661 114.405C128.242 114.156 127.868 113.855 127.539 113.504C127.222 113.141 126.967 112.722 126.774 112.246L128.134 111.668C128.247 111.929 128.406 112.184 128.61 112.433C128.814 112.671 129.063 112.886 129.358 113.079C129.653 113.272 129.987 113.425 130.361 113.538C130.735 113.651 131.154 113.708 131.619 113.708C132.14 113.708 132.594 113.64 132.979 113.504C133.376 113.357 133.704 113.164 133.965 112.926C134.226 112.688 134.418 112.416 134.543 112.11C134.668 111.793 134.73 111.458 134.73 111.107C134.73 110.302 134.43 109.668 133.829 109.203C133.24 108.738 132.418 108.506 131.364 108.506C130.763 108.506 130.259 108.591 129.851 108.761C129.454 108.92 129.08 109.175 128.729 109.526L127.505 109.203L128.202 103.1ZM148.312 102.726L149.383 103.508L140.645 115.255L139.523 114.609L148.312 102.726ZM137.687 105.956C137.687 105.525 137.766 105.134 137.925 104.783C138.083 104.42 138.299 104.114 138.571 103.865C138.854 103.604 139.183 103.406 139.557 103.27C139.942 103.123 140.356 103.049 140.798 103.049C141.24 103.049 141.648 103.123 142.022 103.27C142.396 103.406 142.719 103.604 142.991 103.865C143.274 104.114 143.495 104.42 143.654 104.783C143.812 105.134 143.892 105.525 143.892 105.956C143.892 106.387 143.812 106.778 143.654 107.129C143.495 107.48 143.274 107.786 142.991 108.047C142.719 108.296 142.396 108.495 142.022 108.642C141.648 108.778 141.24 108.846 140.798 108.846C140.356 108.846 139.942 108.778 139.557 108.642C139.183 108.495 138.854 108.296 138.571 108.047C138.299 107.786 138.083 107.48 137.925 107.129C137.766 106.778 137.687 106.387 137.687 105.956ZM139.115 105.956C139.115 106.217 139.16 106.449 139.251 106.653C139.353 106.857 139.477 107.033 139.625 107.18C139.783 107.327 139.965 107.441 140.169 107.52C140.373 107.599 140.582 107.639 140.798 107.639C141.24 107.639 141.625 107.486 141.954 107.18C142.294 106.874 142.464 106.466 142.464 105.956C142.464 105.446 142.294 105.038 141.954 104.732C141.625 104.426 141.24 104.273 140.798 104.273C140.344 104.273 139.948 104.426 139.608 104.732C139.279 105.038 139.115 105.446 139.115 105.956ZM144.98 112.161C144.98 111.742 145.059 111.356 145.218 111.005C145.376 110.642 145.592 110.336 145.864 110.087C146.147 109.826 146.476 109.628 146.85 109.492C147.235 109.345 147.649 109.271 148.091 109.271C148.533 109.271 148.941 109.345 149.315 109.492C149.689 109.628 150.012 109.826 150.284 110.087C150.567 110.336 150.788 110.642 150.947 111.005C151.105 111.356 151.185 111.742 151.185 112.161C151.185 112.592 151.105 112.983 150.947 113.334C150.788 113.685 150.567 113.991 150.284 114.252C150.012 114.513 149.689 114.717 149.315 114.864C148.941 115 148.533 115.068 148.091 115.068C147.649 115.068 147.235 115 146.85 114.864C146.476 114.717 146.147 114.513 145.864 114.252C145.592 113.991 145.376 113.685 145.218 113.334C145.059 112.983 144.98 112.592 144.98 112.161ZM146.408 112.161C146.408 112.422 146.453 112.654 146.544 112.858C146.646 113.062 146.77 113.238 146.918 113.385C147.076 113.532 147.258 113.646 147.462 113.725C147.666 113.804 147.875 113.844 148.091 113.844C148.533 113.844 148.918 113.691 149.247 113.385C149.587 113.079 149.757 112.671 149.757 112.161C149.757 111.651 149.587 111.243 149.247 110.937C148.918 110.631 148.533 110.478 148.091 110.478C147.637 110.478 147.241 110.631 146.901 110.937C146.572 111.243 146.408 111.651 146.408 112.161Z" fill="#222429"/>
<path d="M266.818 230.07C266.902 229.669 267.042 229.286 267.238 228.922C267.434 228.558 267.686 228.241 267.994 227.97C268.302 227.69 268.671 227.471 269.1 227.312C269.53 227.153 270.02 227.074 270.57 227.074C271.084 227.074 271.541 227.149 271.942 227.298C272.344 227.438 272.684 227.639 272.964 227.9C273.244 228.161 273.454 228.474 273.594 228.838C273.744 229.202 273.818 229.599 273.818 230.028C273.818 230.635 273.688 231.195 273.426 231.708C273.174 232.212 272.852 232.674 272.46 233.094C272.068 233.514 271.639 233.897 271.172 234.242C270.706 234.578 270.262 234.877 269.842 235.138L268.764 235.81H274.182V237H266.552V236.02L268.68 234.606C269.38 234.139 269.978 233.71 270.472 233.318C270.967 232.917 271.368 232.539 271.676 232.184C271.994 231.829 272.222 231.489 272.362 231.162C272.512 230.826 272.586 230.49 272.586 230.154C272.586 229.809 272.53 229.515 272.418 229.272C272.316 229.029 272.166 228.833 271.97 228.684C271.784 228.535 271.56 228.427 271.298 228.362C271.046 228.297 270.776 228.264 270.486 228.264C270.066 228.264 269.702 228.329 269.394 228.46C269.096 228.591 268.839 228.763 268.624 228.978C268.419 229.183 268.256 229.417 268.134 229.678C268.022 229.93 267.948 230.182 267.91 230.434L266.818 230.07ZM275.152 232.1C275.152 231.372 275.236 230.705 275.404 230.098C275.572 229.482 275.824 228.95 276.16 228.502C276.506 228.054 276.94 227.704 277.462 227.452C277.985 227.2 278.601 227.074 279.31 227.074C280.02 227.074 280.636 227.191 281.158 227.424C281.681 227.657 282.115 227.993 282.46 228.432C282.806 228.871 283.062 229.403 283.23 230.028C283.398 230.644 283.482 231.335 283.482 232.1C283.482 232.828 283.398 233.5 283.23 234.116C283.072 234.723 282.82 235.25 282.474 235.698C282.138 236.146 281.709 236.496 281.186 236.748C280.664 237 280.048 237.126 279.338 237.126C278.666 237.126 278.069 237 277.546 236.748C277.024 236.496 276.585 236.146 276.23 235.698C275.876 235.25 275.605 234.723 275.418 234.116C275.241 233.5 275.152 232.828 275.152 232.1ZM276.384 232.1C276.384 233.295 276.646 234.233 277.168 234.914C277.691 235.595 278.414 235.936 279.338 235.936C280.346 235.936 281.084 235.595 281.55 234.914C282.017 234.233 282.25 233.295 282.25 232.1C282.25 230.905 282.012 229.967 281.536 229.286C281.06 228.605 280.318 228.264 279.31 228.264C278.806 228.264 278.372 228.353 278.008 228.53C277.644 228.707 277.341 228.964 277.098 229.3C276.856 229.636 276.674 230.042 276.552 230.518C276.44 230.985 276.384 231.512 276.384 232.1ZM284.626 230.07C284.71 229.669 284.85 229.286 285.046 228.922C285.242 228.558 285.494 228.241 285.802 227.97C286.11 227.69 286.479 227.471 286.908 227.312C287.337 227.153 287.827 227.074 288.378 227.074C288.891 227.074 289.349 227.149 289.75 227.298C290.151 227.438 290.492 227.639 290.772 227.9C291.052 228.161 291.262 228.474 291.402 228.838C291.551 229.202 291.626 229.599 291.626 230.028C291.626 230.635 291.495 231.195 291.234 231.708C290.982 232.212 290.66 232.674 290.268 233.094C289.876 233.514 289.447 233.897 288.98 234.242C288.513 234.578 288.07 234.877 287.65 235.138L286.572 235.81H291.99V237H284.36V236.02L286.488 234.606C287.188 234.139 287.785 233.71 288.28 233.318C288.775 232.917 289.176 232.539 289.484 232.184C289.801 231.829 290.03 231.489 290.17 231.162C290.319 230.826 290.394 230.49 290.394 230.154C290.394 229.809 290.338 229.515 290.226 229.272C290.123 229.029 289.974 228.833 289.778 228.684C289.591 228.535 289.367 228.427 289.106 228.362C288.854 228.297 288.583 228.264 288.294 228.264C287.874 228.264 287.51 228.329 287.202 228.46C286.903 228.591 286.647 228.763 286.432 228.978C286.227 229.183 286.063 229.417 285.942 229.678C285.83 229.93 285.755 230.182 285.718 230.434L284.626 230.07ZM295.76 227.144H296.558V237H295.382V228.642L292.848 229.804L292.4 228.754L295.76 227.144Z" fill="#777F8C"/>
<rect x="252" y="63" width="60" height="154" fill="#BFCED4"/>
<rect x="252" y="63" width="60" height="4" fill="#A6B2BC"/>
<path d="M271.086 51.62H263.759V50.532L271.256 42.1H272.514V50.175H274.724V51.62H272.514V54H271.086V51.62ZM271.086 50.175V44.48L265.799 50.175H271.086ZM275.844 53.031C275.844 52.8043 275.94 52.589 276.133 52.385C276.326 52.181 276.581 52.079 276.898 52.079C277.193 52.079 277.436 52.181 277.629 52.385C277.822 52.589 277.918 52.8043 277.918 53.031C277.918 53.2917 277.822 53.524 277.629 53.728C277.436 53.932 277.193 54.034 276.898 54.034C276.581 54.034 276.326 53.932 276.133 53.728C275.94 53.524 275.844 53.2917 275.844 53.031ZM282.894 42.032H283.863V54H282.435V43.851L279.358 45.262L278.814 43.987L282.894 42.032ZM296.826 41.726L297.897 42.508L289.159 54.255L288.037 53.609L296.826 41.726ZM286.201 44.956C286.201 44.5253 286.28 44.1343 286.439 43.783C286.597 43.4203 286.813 43.1143 287.085 42.865C287.368 42.6043 287.697 42.406 288.071 42.27C288.456 42.1227 288.87 42.049 289.312 42.049C289.754 42.049 290.162 42.1227 290.536 42.27C290.91 42.406 291.233 42.6043 291.505 42.865C291.788 43.1143 292.009 43.4203 292.168 43.783C292.326 44.1343 292.406 44.5253 292.406 44.956C292.406 45.3867 292.326 45.7777 292.168 46.129C292.009 46.4803 291.788 46.7863 291.505 47.047C291.233 47.2963 290.91 47.4947 290.536 47.642C290.162 47.778 289.754 47.846 289.312 47.846C288.87 47.846 288.456 47.778 288.071 47.642C287.697 47.4947 287.368 47.2963 287.085 47.047C286.813 46.7863 286.597 46.4803 286.439 46.129C286.28 45.7777 286.201 45.3867 286.201 44.956ZM287.629 44.956C287.629 45.2167 287.674 45.449 287.765 45.653C287.867 45.857 287.991 46.0327 288.139 46.18C288.297 46.3273 288.479 46.4407 288.683 46.52C288.887 46.5993 289.096 46.639 289.312 46.639C289.754 46.639 290.139 46.486 290.468 46.18C290.808 45.874 290.978 45.466 290.978 44.956C290.978 44.446 290.808 44.038 290.468 43.732C290.139 43.426 289.754 43.273 289.312 43.273C288.858 43.273 288.462 43.426 288.122 43.732C287.793 44.038 287.629 44.446 287.629 44.956ZM293.494 51.161C293.494 50.7417 293.573 50.3563 293.732 50.005C293.89 49.6423 294.106 49.3363 294.378 49.087C294.661 48.8263 294.99 48.628 295.364 48.492C295.749 48.3447 296.163 48.271 296.605 48.271C297.047 48.271 297.455 48.3447 297.829 48.492C298.203 48.628 298.526 48.8263 298.798 49.087C299.081 49.3363 299.302 49.6423 299.461 50.005C299.619 50.3563 299.699 50.7417 299.699 51.161C299.699 51.5917 299.619 51.9827 299.461 52.334C299.302 52.6853 299.081 52.9913 298.798 53.252C298.526 53.5127 298.203 53.7167 297.829 53.864C297.455 54 297.047 54.068 296.605 54.068C296.163 54.068 295.749 54 295.364 53.864C294.99 53.7167 294.661 53.5127 294.378 53.252C294.106 52.9913 293.89 52.6853 293.732 52.334C293.573 51.9827 293.494 51.5917 293.494 51.161ZM294.922 51.161C294.922 51.4217 294.967 51.654 295.058 51.858C295.16 52.062 295.284 52.2377 295.432 52.385C295.59 52.5323 295.772 52.6457 295.976 52.725C296.18 52.8043 296.389 52.844 296.605 52.844C297.047 52.844 297.432 52.691 297.761 52.385C298.101 52.079 298.271 51.671 298.271 51.161C298.271 50.651 298.101 50.243 297.761 49.937C297.432 49.631 297.047 49.478 296.605 49.478C296.151 49.478 295.755 49.631 295.415 49.937C295.086 50.243 294.922 50.651 294.922 51.161Z" fill="#222429"/>
<path d="M415.294 230.07C415.378 229.669 415.518 229.286 415.714 228.922C415.91 228.558 416.162 228.241 416.47 227.97C416.778 227.69 417.146 227.471 417.576 227.312C418.005 227.153 418.495 227.074 419.046 227.074C419.559 227.074 420.016 227.149 420.418 227.298C420.819 227.438 421.16 227.639 421.44 227.9C421.72 228.161 421.93 228.474 422.07 228.838C422.219 229.202 422.294 229.599 422.294 230.028C422.294 230.635 422.163 231.195 421.902 231.708C421.65 232.212 421.328 232.674 420.936 233.094C420.544 233.514 420.114 233.897 419.648 234.242C419.181 234.578 418.738 234.877 418.318 235.138L417.24 235.81H422.658V237H415.028V236.02L417.156 234.606C417.856 234.139 418.453 233.71 418.948 233.318C419.442 232.917 419.844 232.539 420.152 232.184C420.469 231.829 420.698 231.489 420.838 231.162C420.987 230.826 421.062 230.49 421.062 230.154C421.062 229.809 421.006 229.515 420.894 229.272C420.791 229.029 420.642 228.833 420.446 228.684C420.259 228.535 420.035 228.427 419.774 228.362C419.522 228.297 419.251 228.264 418.962 228.264C418.542 228.264 418.178 228.329 417.87 228.46C417.571 228.591 417.314 228.763 417.1 228.978C416.894 229.183 416.731 229.417 416.61 229.678C416.498 229.93 416.423 230.182 416.386 230.434L415.294 230.07ZM423.628 232.1C423.628 231.372 423.712 230.705 423.88 230.098C424.048 229.482 424.3 228.95 424.636 228.502C424.981 228.054 425.415 227.704 425.938 227.452C426.461 227.2 427.077 227.074 427.786 227.074C428.495 227.074 429.111 227.191 429.634 227.424C430.157 227.657 430.591 227.993 430.936 228.432C431.281 228.871 431.538 229.403 431.706 230.028C431.874 230.644 431.958 231.335 431.958 232.1C431.958 232.828 431.874 233.5 431.706 234.116C431.547 234.723 431.295 235.25 430.95 235.698C430.614 236.146 430.185 236.496 429.662 236.748C429.139 237 428.523 237.126 427.814 237.126C427.142 237.126 426.545 237 426.022 236.748C425.499 236.496 425.061 236.146 424.706 235.698C424.351 235.25 424.081 234.723 423.894 234.116C423.717 233.5 423.628 232.828 423.628 232.1ZM424.86 232.1C424.86 233.295 425.121 234.233 425.644 234.914C426.167 235.595 426.89 235.936 427.814 235.936C428.822 235.936 429.559 235.595 430.026 234.914C430.493 234.233 430.726 233.295 430.726 232.1C430.726 230.905 430.488 229.967 430.012 229.286C429.536 228.605 428.794 228.264 427.786 228.264C427.282 228.264 426.848 228.353 426.484 228.53C426.12 228.707 425.817 228.964 425.574 229.3C425.331 229.636 425.149 230.042 425.028 230.518C424.916 230.985 424.86 231.512 424.86 232.1ZM433.102 230.07C433.186 229.669 433.326 229.286 433.522 228.922C433.718 228.558 433.97 228.241 434.278 227.97C434.586 227.69 434.954 227.471 435.384 227.312C435.813 227.153 436.303 227.074 436.854 227.074C437.367 227.074 437.824 227.149 438.226 227.298C438.627 227.438 438.968 227.639 439.248 227.9C439.528 228.161 439.738 228.474 439.878 228.838C440.027 229.202 440.102 229.599 440.102 230.028C440.102 230.635 439.971 231.195 439.71 231.708C439.458 232.212 439.136 232.674 438.744 233.094C438.352 233.514 437.922 233.897 437.456 234.242C436.989 234.578 436.546 234.877 436.126 235.138L435.048 235.81H440.466V237H432.836V236.02L434.964 234.606C435.664 234.139 436.261 233.71 436.756 233.318C437.25 232.917 437.652 232.539 437.96 232.184C438.277 231.829 438.506 231.489 438.646 231.162C438.795 230.826 438.87 230.49 438.87 230.154C438.87 229.809 438.814 229.515 438.702 229.272C438.599 229.029 438.45 228.833 438.254 228.684C438.067 228.535 437.843 228.427 437.582 228.362C437.33 228.297 437.059 228.264 436.77 228.264C436.35 228.264 435.986 228.329 435.678 228.46C435.379 228.591 435.122 228.763 434.908 228.978C434.702 229.183 434.539 229.417 434.418 229.678C434.306 229.93 434.231 230.182 434.194 230.434L433.102 230.07ZM441.534 230.07C441.618 229.669 441.758 229.286 441.954 228.922C442.15 228.558 442.402 228.241 442.71 227.97C443.018 227.69 443.387 227.471 443.816 227.312C444.245 227.153 444.735 227.074 445.286 227.074C445.799 227.074 446.257 227.149 446.658 227.298C447.059 227.438 447.4 227.639 447.68 227.9C447.96 228.161 448.17 228.474 448.31 228.838C448.459 229.202 448.534 229.599 448.534 230.028C448.534 230.635 448.403 231.195 448.142 231.708C447.89 232.212 447.568 232.674 447.176 233.094C446.784 233.514 446.355 233.897 445.888 234.242C445.421 234.578 444.978 234.877 444.558 235.138L443.48 235.81H448.898V237H441.268V236.02L443.396 234.606C444.096 234.139 444.693 233.71 445.188 233.318C445.683 232.917 446.084 232.539 446.392 232.184C446.709 231.829 446.938 231.489 447.078 231.162C447.227 230.826 447.302 230.49 447.302 230.154C447.302 229.809 447.246 229.515 447.134 229.272C447.031 229.029 446.882 228.833 446.686 228.684C446.499 228.535 446.275 228.427 446.014 228.362C445.762 228.297 445.491 228.264 445.202 228.264C444.782 228.264 444.418 228.329 444.11 228.46C443.811 228.591 443.555 228.763 443.34 228.978C443.135 229.183 442.971 229.417 442.85 229.678C442.738 229.93 442.663 230.182 442.626 230.434L441.534 230.07Z" fill="#5FAF2D"/>
<rect x="402" y="45" width="60" height="172" fill="#5FAF2D"/>
<rect x="402" y="45" width="60" height="4" fill="#3D7917"/>
<path d="M418.787 33.62H411.46V32.532L418.957 24.1H420.215V32.175H422.425V33.62H420.215V36H418.787V33.62ZM418.787 32.175V26.48L413.5 32.175H418.787ZM423.545 35.031C423.545 34.8043 423.641 34.589 423.834 34.385C424.026 34.181 424.281 34.079 424.599 34.079C424.893 34.079 425.137 34.181 425.33 34.385C425.522 34.589 425.619 34.8043 425.619 35.031C425.619 35.2917 425.522 35.524 425.33 35.728C425.137 35.932 424.893 36.034 424.599 36.034C424.281 36.034 424.026 35.932 423.834 35.728C423.641 35.524 423.545 35.2917 423.545 35.031ZM432.396 36.153C431.603 36.153 430.883 36.0283 430.237 35.779C429.603 35.5297 429.059 35.1613 428.605 34.674C428.152 34.1753 427.801 33.569 427.551 32.855C427.313 32.141 427.194 31.3137 427.194 30.373C427.194 29.3077 427.336 28.3727 427.619 27.568C427.903 26.7633 428.282 26.0947 428.758 25.562C429.246 25.018 429.807 24.6157 430.441 24.355C431.087 24.083 431.767 23.947 432.481 23.947C433.513 23.947 434.391 24.1567 435.116 24.576C435.842 24.9953 436.369 25.562 436.697 26.276L435.541 27.058C435.213 26.548 434.788 26.1457 434.266 25.851C433.756 25.545 433.139 25.392 432.413 25.392C431.847 25.392 431.337 25.5053 430.883 25.732C430.43 25.9473 430.039 26.2647 429.71 26.684C429.382 27.092 429.127 27.5907 428.945 28.18C428.764 28.758 428.668 29.4097 428.656 30.135V30.322C428.815 29.948 429.03 29.6193 429.302 29.336C429.586 29.0527 429.903 28.8147 430.254 28.622C430.606 28.4293 430.98 28.2877 431.376 28.197C431.784 28.095 432.198 28.044 432.617 28.044C433.309 28.044 433.932 28.1403 434.487 28.333C435.043 28.5257 435.513 28.7977 435.898 29.149C436.295 29.5003 436.595 29.9197 436.799 30.407C437.003 30.8943 437.105 31.4327 437.105 32.022C437.105 32.634 436.981 33.195 436.731 33.705C436.493 34.215 436.159 34.6513 435.728 35.014C435.309 35.3767 434.81 35.66 434.232 35.864C433.666 36.0567 433.054 36.153 432.396 36.153ZM432.379 34.708C432.855 34.708 433.286 34.6457 433.671 34.521C434.068 34.3963 434.408 34.2207 434.691 33.994C434.986 33.756 435.213 33.4783 435.371 33.161C435.53 32.8437 435.609 32.4867 435.609 32.09C435.609 31.6593 435.53 31.2853 435.371 30.968C435.224 30.6393 435.014 30.3673 434.742 30.152C434.47 29.9253 434.142 29.761 433.756 29.659C433.382 29.5457 432.974 29.489 432.532 29.489C431.444 29.489 430.617 29.7213 430.05 30.186C429.495 30.6507 429.217 31.2457 429.217 31.971C429.217 32.345 429.291 32.6963 429.438 33.025C429.586 33.3537 429.795 33.6427 430.067 33.892C430.339 34.1413 430.668 34.3397 431.053 34.487C431.45 34.6343 431.892 34.708 432.379 34.708ZM449.125 23.726L450.196 24.508L441.458 36.255L440.336 35.609L449.125 23.726ZM438.5 26.956C438.5 26.5253 438.579 26.1343 438.738 25.783C438.897 25.4203 439.112 25.1143 439.384 24.865C439.667 24.6043 439.996 24.406 440.37 24.27C440.755 24.1227 441.169 24.049 441.611 24.049C442.053 24.049 442.461 24.1227 442.835 24.27C443.209 24.406 443.532 24.6043 443.804 24.865C444.087 25.1143 444.308 25.4203 444.467 25.783C444.626 26.1343 444.705 26.5253 444.705 26.956C444.705 27.3867 444.626 27.7777 444.467 28.129C444.308 28.4803 444.087 28.7863 443.804 29.047C443.532 29.2963 443.209 29.4947 442.835 29.642C442.461 29.778 442.053 29.846 441.611 29.846C441.169 29.846 440.755 29.778 440.37 29.642C439.996 29.4947 439.667 29.2963 439.384 29.047C439.112 28.7863 438.897 28.4803 438.738 28.129C438.579 27.7777 438.5 27.3867 438.5 26.956ZM439.928 26.956C439.928 27.2167 439.973 27.449 440.064 27.653C440.166 27.857 440.291 28.0327 440.438 28.18C440.597 28.3273 440.778 28.4407 440.982 28.52C441.186 28.5993 441.396 28.639 441.611 28.639C442.053 28.639 442.438 28.486 442.767 28.18C443.107 27.874 443.277 27.466 443.277 26.956C443.277 26.446 443.107 26.038 442.767 25.732C442.438 25.426 442.053 25.273 441.611 25.273C441.158 25.273 440.761 25.426 440.421 25.732C440.092 26.038 439.928 26.446 439.928 26.956ZM445.793 33.161C445.793 32.7417 445.872 32.3563 446.031 32.005C446.19 31.6423 446.405 31.3363 446.677 31.087C446.96 30.8263 447.289 30.628 447.663 30.492C448.048 30.3447 448.462 30.271 448.904 30.271C449.346 30.271 449.754 30.3447 450.128 30.492C450.502 30.628 450.825 30.8263 451.097 31.087C451.38 31.3363 451.601 31.6423 451.76 32.005C451.919 32.3563 451.998 32.7417 451.998 33.161C451.998 33.5917 451.919 33.9827 451.76 34.334C451.601 34.6853 451.38 34.9913 451.097 35.252C450.825 35.5127 450.502 35.7167 450.128 35.864C449.754 36 449.346 36.068 448.904 36.068C448.462 36.068 448.048 36 447.663 35.864C447.289 35.7167 446.96 35.5127 446.677 35.252C446.405 34.9913 446.19 34.6853 446.031 34.334C445.872 33.9827 445.793 33.5917 445.793 33.161ZM447.221 33.161C447.221 33.4217 447.266 33.654 447.357 33.858C447.459 34.062 447.584 34.2377 447.731 34.385C447.89 34.5323 448.071 34.6457 448.275 34.725C448.479 34.8043 448.689 34.844 448.904 34.844C449.346 34.844 449.731 34.691 450.06 34.385C450.4 34.079 450.57 33.671 450.57 33.161C450.57 32.651 450.4 32.243 450.06 31.937C449.731 31.631 449.346 31.478 448.904 31.478C448.451 31.478 448.054 31.631 447.714 31.937C447.385 32.243 447.221 32.651 447.221 33.161Z" fill="#222429"/>
<rect y="217" width="536" height="1" fill="#9299A3"/>
</g>
<defs>
<clipPath id="clip0_149_23534">
<rect width="536" height="237" fill="white"/>
</clipPath>
</defs>
</svg>
