<svg viewBox="0 0 536 237" fill="none" xmlns="http://www.w3.org/2000/svg">
<g clip-path="url(#clip0_1603_19098)">
<path d="M184.818 229.07C184.902 228.669 185.042 228.286 185.238 227.922C185.434 227.558 185.686 227.241 185.994 226.97C186.302 226.69 186.671 226.471 187.1 226.312C187.53 226.153 188.02 226.074 188.57 226.074C189.084 226.074 189.541 226.149 189.942 226.298C190.344 226.438 190.684 226.639 190.964 226.9C191.244 227.161 191.454 227.474 191.594 227.838C191.744 228.202 191.818 228.599 191.818 229.028C191.818 229.635 191.688 230.195 191.426 230.708C191.174 231.212 190.852 231.674 190.46 232.094C190.068 232.514 189.639 232.897 189.172 233.242C188.706 233.578 188.262 233.877 187.842 234.138L186.764 234.81H192.182V236H184.552V235.02L186.68 233.606C187.38 233.139 187.978 232.71 188.472 232.318C188.967 231.917 189.368 231.539 189.676 231.184C189.994 230.829 190.222 230.489 190.362 230.162C190.512 229.826 190.586 229.49 190.586 229.154C190.586 228.809 190.53 228.515 190.418 228.272C190.316 228.029 190.166 227.833 189.97 227.684C189.784 227.535 189.56 227.427 189.298 227.362C189.046 227.297 188.776 227.264 188.486 227.264C188.066 227.264 187.702 227.329 187.394 227.46C187.096 227.591 186.839 227.763 186.624 227.978C186.419 228.183 186.256 228.417 186.134 228.678C186.022 228.93 185.948 229.182 185.91 229.434L184.818 229.07ZM193.152 231.1C193.152 230.372 193.236 229.705 193.404 229.098C193.572 228.482 193.824 227.95 194.16 227.502C194.506 227.054 194.94 226.704 195.462 226.452C195.985 226.2 196.601 226.074 197.31 226.074C198.02 226.074 198.636 226.191 199.158 226.424C199.681 226.657 200.115 226.993 200.46 227.432C200.806 227.871 201.062 228.403 201.23 229.028C201.398 229.644 201.482 230.335 201.482 231.1C201.482 231.828 201.398 232.5 201.23 233.116C201.072 233.723 200.82 234.25 200.474 234.698C200.138 235.146 199.709 235.496 199.186 235.748C198.664 236 198.048 236.126 197.338 236.126C196.666 236.126 196.069 236 195.546 235.748C195.024 235.496 194.585 235.146 194.23 234.698C193.876 234.25 193.605 233.723 193.418 233.116C193.241 232.5 193.152 231.828 193.152 231.1ZM194.384 231.1C194.384 232.295 194.646 233.233 195.168 233.914C195.691 234.595 196.414 234.936 197.338 234.936C198.346 234.936 199.084 234.595 199.55 233.914C200.017 233.233 200.25 232.295 200.25 231.1C200.25 229.905 200.012 228.967 199.536 228.286C199.06 227.605 198.318 227.264 197.31 227.264C196.806 227.264 196.372 227.353 196.008 227.53C195.644 227.707 195.341 227.964 195.098 228.3C194.856 228.636 194.674 229.042 194.552 229.518C194.44 229.985 194.384 230.512 194.384 231.1ZM202.626 229.07C202.71 228.669 202.85 228.286 203.046 227.922C203.242 227.558 203.494 227.241 203.802 226.97C204.11 226.69 204.479 226.471 204.908 226.312C205.337 226.153 205.827 226.074 206.378 226.074C206.891 226.074 207.349 226.149 207.75 226.298C208.151 226.438 208.492 226.639 208.772 226.9C209.052 227.161 209.262 227.474 209.402 227.838C209.551 228.202 209.626 228.599 209.626 229.028C209.626 229.635 209.495 230.195 209.234 230.708C208.982 231.212 208.66 231.674 208.268 232.094C207.876 232.514 207.447 232.897 206.98 233.242C206.513 233.578 206.07 233.877 205.65 234.138L204.572 234.81H209.99V236H202.36V235.02L204.488 233.606C205.188 233.139 205.785 232.71 206.28 232.318C206.775 231.917 207.176 231.539 207.484 231.184C207.801 230.829 208.03 230.489 208.17 230.162C208.319 229.826 208.394 229.49 208.394 229.154C208.394 228.809 208.338 228.515 208.226 228.272C208.123 228.029 207.974 227.833 207.778 227.684C207.591 227.535 207.367 227.427 207.106 227.362C206.854 227.297 206.583 227.264 206.294 227.264C205.874 227.264 205.51 227.329 205.202 227.46C204.903 227.591 204.647 227.763 204.432 227.978C204.227 228.183 204.063 228.417 203.942 228.678C203.83 228.93 203.755 229.182 203.718 229.434L202.626 229.07ZM213.76 226.144H214.558V236H213.382V227.642L210.848 228.804L210.4 227.754L213.76 226.144Z" fill="#777F8C"/>
<path d="M230 126H170V216H230V126Z" fill="#BFCED4"/>
<path d="M230 126H170V130H230V126Z" fill="#A6B2BC"/>
<path d="M187.953 105.032H188.922V117H187.494V106.851L184.417 108.262L183.873 106.987L187.953 105.032ZM192.467 105.1H199.947V106.545H193.776L193.334 109.741C193.594 109.548 193.946 109.389 194.388 109.265C194.841 109.129 195.391 109.061 196.037 109.061C196.751 109.061 197.385 109.163 197.941 109.367C198.496 109.571 198.961 109.854 199.335 110.217C199.709 110.579 199.992 111.004 200.185 111.492C200.389 111.979 200.491 112.5 200.491 113.056C200.491 113.656 200.372 114.206 200.134 114.705C199.907 115.203 199.584 115.634 199.165 115.997C198.757 116.359 198.269 116.643 197.703 116.847C197.147 117.051 196.541 117.153 195.884 117.153C195.34 117.153 194.818 117.09 194.32 116.966C193.821 116.841 193.356 116.654 192.926 116.405C192.506 116.155 192.132 115.855 191.804 115.504C191.486 115.141 191.231 114.722 191.039 114.246L192.399 113.668C192.512 113.928 192.671 114.183 192.875 114.433C193.079 114.671 193.328 114.886 193.623 115.079C193.917 115.271 194.252 115.424 194.626 115.538C195 115.651 195.419 115.708 195.884 115.708C196.405 115.708 196.858 115.64 197.244 115.504C197.64 115.356 197.969 115.164 198.23 114.926C198.49 114.688 198.683 114.416 198.808 114.11C198.932 113.792 198.995 113.458 198.995 113.107C198.995 112.302 198.694 111.667 198.094 111.203C197.504 110.738 196.683 110.506 195.629 110.506C195.028 110.506 194.524 110.591 194.116 110.761C193.719 110.919 193.345 111.174 192.994 111.526L191.77 111.203L192.467 105.1ZM212.576 104.726L213.647 105.508L204.909 117.255L203.787 116.609L212.576 104.726ZM201.951 107.956C201.951 107.525 202.031 107.134 202.189 106.783C202.348 106.42 202.563 106.114 202.835 105.865C203.119 105.604 203.447 105.406 203.821 105.27C204.207 105.122 204.62 105.049 205.062 105.049C205.504 105.049 205.912 105.122 206.286 105.27C206.66 105.406 206.983 105.604 207.255 105.865C207.539 106.114 207.76 106.42 207.918 106.783C208.077 107.134 208.156 107.525 208.156 107.956C208.156 108.386 208.077 108.777 207.918 109.129C207.76 109.48 207.539 109.786 207.255 110.047C206.983 110.296 206.66 110.494 206.286 110.642C205.912 110.778 205.504 110.846 205.062 110.846C204.62 110.846 204.207 110.778 203.821 110.642C203.447 110.494 203.119 110.296 202.835 110.047C202.563 109.786 202.348 109.48 202.189 109.129C202.031 108.777 201.951 108.386 201.951 107.956ZM203.379 107.956C203.379 108.216 203.425 108.449 203.515 108.653C203.617 108.857 203.742 109.032 203.889 109.18C204.048 109.327 204.229 109.44 204.433 109.52C204.637 109.599 204.847 109.639 205.062 109.639C205.504 109.639 205.89 109.486 206.218 109.18C206.558 108.874 206.728 108.466 206.728 107.956C206.728 107.446 206.558 107.038 206.218 106.732C205.89 106.426 205.504 106.273 205.062 106.273C204.609 106.273 204.212 106.426 203.872 106.732C203.544 107.038 203.379 107.446 203.379 107.956ZM209.244 114.161C209.244 113.741 209.324 113.356 209.482 113.005C209.641 112.642 209.856 112.336 210.128 112.087C210.412 111.826 210.74 111.628 211.114 111.492C211.5 111.344 211.913 111.271 212.355 111.271C212.797 111.271 213.205 111.344 213.579 111.492C213.953 111.628 214.276 111.826 214.548 112.087C214.832 112.336 215.053 112.642 215.211 113.005C215.37 113.356 215.449 113.741 215.449 114.161C215.449 114.591 215.37 114.982 215.211 115.334C215.053 115.685 214.832 115.991 214.548 116.252C214.276 116.512 213.953 116.716 213.579 116.864C213.205 117 212.797 117.068 212.355 117.068C211.913 117.068 211.5 117 211.114 116.864C210.74 116.716 210.412 116.512 210.128 116.252C209.856 115.991 209.641 115.685 209.482 115.334C209.324 114.982 209.244 114.591 209.244 114.161ZM210.672 114.161C210.672 114.421 210.718 114.654 210.808 114.858C210.91 115.062 211.035 115.237 211.182 115.385C211.341 115.532 211.522 115.645 211.726 115.725C211.93 115.804 212.14 115.844 212.355 115.844C212.797 115.844 213.183 115.691 213.511 115.385C213.851 115.079 214.021 114.671 214.021 114.161C214.021 113.651 213.851 113.243 213.511 112.937C213.183 112.631 212.797 112.478 212.355 112.478C211.902 112.478 211.505 112.631 211.165 112.937C210.837 113.243 210.672 113.651 210.672 114.161Z" fill="#222429"/>
<path d="M57.8222 229.07C57.9062 228.669 58.0462 228.286 58.2422 227.922C58.4382 227.558 58.6902 227.241 58.9982 226.97C59.3062 226.69 59.6749 226.471 60.1042 226.312C60.5335 226.153 61.0235 226.074 61.5742 226.074C62.0875 226.074 62.5449 226.149 62.9462 226.298C63.3475 226.438 63.6882 226.639 63.9682 226.9C64.2482 227.161 64.4582 227.474 64.5982 227.838C64.7475 228.202 64.8222 228.599 64.8222 229.028C64.8222 229.635 64.6915 230.195 64.4302 230.708C64.1782 231.212 63.8562 231.674 63.4642 232.094C63.0722 232.514 62.6429 232.897 62.1762 233.242C61.7095 233.578 61.2662 233.877 60.8462 234.138L59.7682 234.81H65.1861V236H57.5562V235.02L59.6842 233.606C60.3842 233.139 60.9815 232.71 61.4762 232.318C61.9709 231.917 62.3722 231.539 62.6802 231.184C62.9975 230.829 63.2262 230.489 63.3662 230.162C63.5155 229.826 63.5902 229.49 63.5902 229.154C63.5902 228.809 63.5342 228.515 63.4222 228.272C63.3195 228.029 63.1702 227.833 62.9742 227.684C62.7875 227.535 62.5635 227.427 62.3022 227.362C62.0502 227.297 61.7795 227.264 61.4902 227.264C61.0702 227.264 60.7062 227.329 60.3982 227.46C60.0995 227.591 59.8429 227.763 59.6282 227.978C59.4229 228.183 59.2595 228.417 59.1382 228.678C59.0262 228.93 58.9515 229.182 58.9142 229.434L57.8222 229.07ZM66.1565 231.1C66.1565 230.372 66.2405 229.705 66.4085 229.098C66.5765 228.482 66.8285 227.95 67.1645 227.502C67.5098 227.054 67.9438 226.704 68.4665 226.452C68.9891 226.2 69.6051 226.074 70.3145 226.074C71.0238 226.074 71.6398 226.191 72.1625 226.424C72.6851 226.657 73.1191 226.993 73.4645 227.432C73.8098 227.871 74.0665 228.403 74.2345 229.028C74.4025 229.644 74.4865 230.335 74.4865 231.1C74.4865 231.828 74.4025 232.5 74.2345 233.116C74.0758 233.723 73.8238 234.25 73.4785 234.698C73.1425 235.146 72.7131 235.496 72.1905 235.748C71.6678 236 71.0518 236.126 70.3425 236.126C69.6705 236.126 69.0731 236 68.5505 235.748C68.0278 235.496 67.5891 235.146 67.2345 234.698C66.8798 234.25 66.6091 233.723 66.4225 233.116C66.2451 232.5 66.1565 231.828 66.1565 231.1ZM67.3885 231.1C67.3885 232.295 67.6498 233.233 68.1725 233.914C68.6951 234.595 69.4185 234.936 70.3425 234.936C71.3505 234.936 72.0878 234.595 72.5545 233.914C73.0211 233.233 73.2545 232.295 73.2545 231.1C73.2545 229.905 73.0165 228.967 72.5405 228.286C72.0645 227.605 71.3225 227.264 70.3145 227.264C69.8105 227.264 69.3765 227.353 69.0125 227.53C68.6485 227.707 68.3451 227.964 68.1025 228.3C67.8598 228.636 67.6777 229.042 67.5564 229.518C67.4444 229.985 67.3885 230.512 67.3885 231.1ZM75.6301 229.07C75.7141 228.669 75.8541 228.286 76.0501 227.922C76.2461 227.558 76.4981 227.241 76.8061 226.97C77.1141 226.69 77.4828 226.471 77.9121 226.312C78.3414 226.153 78.8314 226.074 79.3821 226.074C79.8954 226.074 80.3528 226.149 80.7541 226.298C81.1554 226.438 81.4961 226.639 81.7761 226.9C82.0561 227.161 82.2661 227.474 82.4061 227.838C82.5554 228.202 82.6301 228.599 82.6301 229.028C82.6301 229.635 82.4994 230.195 82.2381 230.708C81.9861 231.212 81.6641 231.674 81.2721 232.094C80.8801 232.514 80.4508 232.897 79.9841 233.242C79.5174 233.578 79.0741 233.877 78.6541 234.138L77.576 234.81H82.9941V236H75.3641V235.02L77.4921 233.606C78.1921 233.139 78.7893 232.71 79.284 232.318C79.7788 231.917 80.1801 231.539 80.4881 231.184C80.8054 230.829 81.0341 230.489 81.1741 230.162C81.3234 229.826 81.3981 229.49 81.3981 229.154C81.3981 228.809 81.3421 228.515 81.2301 228.272C81.1274 228.029 80.9781 227.833 80.7821 227.684C80.5954 227.535 80.3714 227.427 80.1101 227.362C79.8581 227.297 79.5873 227.264 79.298 227.264C78.878 227.264 78.5141 227.329 78.2061 227.46C77.9074 227.591 77.6508 227.763 77.4361 227.978C77.2308 228.183 77.0674 228.417 76.9461 228.678C76.8341 228.93 76.7594 229.182 76.7221 229.434L75.6301 229.07ZM83.9644 231.1C83.9644 230.372 84.0484 229.705 84.2164 229.098C84.3844 228.482 84.6364 227.95 84.9724 227.502C85.3177 227.054 85.7517 226.704 86.2744 226.452C86.797 226.2 87.413 226.074 88.1224 226.074C88.8317 226.074 89.4477 226.191 89.9704 226.424C90.493 226.657 90.927 226.993 91.2724 227.432C91.6177 227.871 91.8744 228.403 92.0424 229.028C92.2104 229.644 92.2943 230.335 92.2943 231.1C92.2943 231.828 92.2104 232.5 92.0424 233.116C91.8837 233.723 91.6317 234.25 91.2864 234.698C90.9504 235.146 90.521 235.496 89.9984 235.748C89.4757 236 88.8597 236.126 88.1504 236.126C87.4784 236.126 86.881 236 86.3584 235.748C85.8357 235.496 85.397 235.146 85.0424 234.698C84.6877 234.25 84.417 233.723 84.2304 233.116C84.053 232.5 83.9644 231.828 83.9644 231.1ZM85.1964 231.1C85.1964 232.295 85.4577 233.233 85.9804 233.914C86.503 234.595 87.2264 234.936 88.1504 234.936C89.1584 234.936 89.8957 234.595 90.3624 233.914C90.829 233.233 91.0624 232.295 91.0624 231.1C91.0624 229.905 90.8244 228.967 90.3484 228.286C89.8724 227.605 89.1304 227.264 88.1224 227.264C87.6184 227.264 87.1844 227.353 86.8204 227.53C86.4564 227.707 86.153 227.964 85.9104 228.3C85.6677 228.636 85.4857 229.042 85.3644 229.518C85.2524 229.985 85.1964 230.512 85.1964 231.1Z" fill="#777F8C"/>
<path d="M105 138H45V216H105V138Z" fill="#BFCED4"/>
<path d="M105 138H45V142H105V138Z" fill="#A6B2BC"/>
<path d="M63.0522 117.032H64.0212V129H62.5932V118.851L59.5162 120.262L58.9722 118.987L63.0522 117.032ZM66.2572 119.99C66.4159 119.548 66.6312 119.145 66.9032 118.783C67.1752 118.409 67.5039 118.086 67.8892 117.814C68.2859 117.542 68.7392 117.332 69.2492 117.185C69.7706 117.026 70.3542 116.947 71.0002 116.947C71.5782 116.947 72.1109 117.02 72.5982 117.168C73.0969 117.304 73.5219 117.502 73.8732 117.763C74.2359 118.012 74.5136 118.324 74.7062 118.698C74.9102 119.072 75.0122 119.485 75.0122 119.939C75.0122 120.63 74.8309 121.219 74.4682 121.707C74.1169 122.194 73.6012 122.534 72.9212 122.727C73.2159 122.749 73.5049 122.823 73.7882 122.948C74.0716 123.061 74.3209 123.237 74.5362 123.475C74.7629 123.701 74.9442 123.99 75.0802 124.342C75.2162 124.682 75.2842 125.09 75.2842 125.566C75.2842 126.144 75.1709 126.659 74.9442 127.113C74.7289 127.555 74.4229 127.929 74.0262 128.235C73.6409 128.529 73.1819 128.756 72.6492 128.915C72.1166 129.073 71.5442 129.153 70.9322 129.153C70.2636 129.153 69.6516 129.073 69.0962 128.915C68.5522 128.756 68.0706 128.541 67.6512 128.269C67.2319 127.985 66.8749 127.651 66.5802 127.266C66.2969 126.869 66.0816 126.433 65.9342 125.957L67.3112 125.362C67.4586 125.668 67.6342 125.962 67.8382 126.246C68.0422 126.529 68.2916 126.778 68.5862 126.994C68.8809 127.209 69.2266 127.385 69.6232 127.521C70.0199 127.645 70.4902 127.708 71.0342 127.708C71.8842 127.708 72.5529 127.526 73.0402 127.164C73.5389 126.79 73.7882 126.263 73.7882 125.583C73.7882 125.209 73.7089 124.897 73.5502 124.648C73.3916 124.387 73.1706 124.183 72.8872 124.036C72.6039 123.877 72.2696 123.769 71.8842 123.713C71.5102 123.645 71.1022 123.611 70.6602 123.611H69.3342V122.2H70.3882C71.3742 122.2 72.1392 122.013 72.6832 121.639C73.2386 121.265 73.5162 120.794 73.5162 120.228C73.5162 119.616 73.2839 119.157 72.8192 118.851C72.3546 118.545 71.7256 118.392 70.9322 118.392C70.4449 118.392 70.0142 118.454 69.6402 118.579C69.2662 118.703 68.9376 118.868 68.6542 119.072C68.3822 119.276 68.1499 119.508 67.9572 119.769C67.7759 120.029 67.6342 120.296 67.5322 120.568L66.2572 119.99ZM87.4764 116.726L88.5474 117.508L79.8094 129.255L78.6874 128.609L87.4764 116.726ZM76.8514 119.956C76.8514 119.525 76.9307 119.134 77.0894 118.783C77.2481 118.42 77.4634 118.114 77.7354 117.865C78.0187 117.604 78.3474 117.406 78.7214 117.27C79.1067 117.122 79.5204 117.049 79.9624 117.049C80.4044 117.049 80.8124 117.122 81.1864 117.27C81.5604 117.406 81.8834 117.604 82.1554 117.865C82.4387 118.114 82.6597 118.42 82.8184 118.783C82.9771 119.134 83.0564 119.525 83.0564 119.956C83.0564 120.386 82.9771 120.777 82.8184 121.129C82.6597 121.48 82.4387 121.786 82.1554 122.047C81.8834 122.296 81.5604 122.494 81.1864 122.642C80.8124 122.778 80.4044 122.846 79.9624 122.846C79.5204 122.846 79.1067 122.778 78.7214 122.642C78.3474 122.494 78.0187 122.296 77.7354 122.047C77.4634 121.786 77.2481 121.48 77.0894 121.129C76.9307 120.777 76.8514 120.386 76.8514 119.956ZM78.2794 119.956C78.2794 120.216 78.3247 120.449 78.4154 120.653C78.5174 120.857 78.6421 121.032 78.7894 121.18C78.9481 121.327 79.1294 121.44 79.3334 121.52C79.5374 121.599 79.7471 121.639 79.9624 121.639C80.4044 121.639 80.7897 121.486 81.1184 121.18C81.4584 120.874 81.6284 120.466 81.6284 119.956C81.6284 119.446 81.4584 119.038 81.1184 118.732C80.7897 118.426 80.4044 118.273 79.9624 118.273C79.5091 118.273 79.1124 118.426 78.7724 118.732C78.4437 119.038 78.2794 119.446 78.2794 119.956ZM84.1444 126.161C84.1444 125.741 84.2237 125.356 84.3824 125.005C84.5411 124.642 84.7564 124.336 85.0284 124.087C85.3117 123.826 85.6404 123.628 86.0144 123.492C86.3997 123.344 86.8134 123.271 87.2554 123.271C87.6974 123.271 88.1054 123.344 88.4794 123.492C88.8534 123.628 89.1764 123.826 89.4484 124.087C89.7317 124.336 89.9527 124.642 90.1114 125.005C90.2701 125.356 90.3494 125.741 90.3494 126.161C90.3494 126.591 90.2701 126.982 90.1114 127.334C89.9527 127.685 89.7317 127.991 89.4484 128.252C89.1764 128.512 88.8534 128.716 88.4794 128.864C88.1054 129 87.6974 129.068 87.2554 129.068C86.8134 129.068 86.3997 129 86.0144 128.864C85.6404 128.716 85.3117 128.512 85.0284 128.252C84.7564 127.991 84.5411 127.685 84.3824 127.334C84.2237 126.982 84.1444 126.591 84.1444 126.161ZM85.5724 126.161C85.5724 126.421 85.6177 126.654 85.7084 126.858C85.8104 127.062 85.9351 127.237 86.0824 127.385C86.2411 127.532 86.4224 127.645 86.6264 127.725C86.8304 127.804 87.0401 127.844 87.2554 127.844C87.6974 127.844 88.0827 127.691 88.4114 127.385C88.7514 127.079 88.9214 126.671 88.9214 126.161C88.9214 125.651 88.7514 125.243 88.4114 124.937C88.0827 124.631 87.6974 124.478 87.2554 124.478C86.8021 124.478 86.4054 124.631 86.0654 124.937C85.7367 125.243 85.5724 125.651 85.5724 126.161Z" fill="#222429"/>
<path d="M303.294 229.07C303.378 228.669 303.518 228.286 303.714 227.922C303.91 227.558 304.162 227.241 304.47 226.97C304.778 226.69 305.146 226.471 305.576 226.312C306.005 226.153 306.495 226.074 307.046 226.074C307.559 226.074 308.016 226.149 308.418 226.298C308.819 226.438 309.16 226.639 309.44 226.9C309.72 227.161 309.93 227.474 310.07 227.838C310.219 228.202 310.294 228.599 310.294 229.028C310.294 229.635 310.163 230.195 309.902 230.708C309.65 231.212 309.328 231.674 308.936 232.094C308.544 232.514 308.114 232.897 307.648 233.242C307.181 233.578 306.738 233.877 306.318 234.138L305.24 234.81H310.658V236H303.028V235.02L305.156 233.606C305.856 233.139 306.453 232.71 306.948 232.318C307.442 231.917 307.844 231.539 308.152 231.184C308.469 230.829 308.698 230.489 308.838 230.162C308.987 229.826 309.062 229.49 309.062 229.154C309.062 228.809 309.006 228.515 308.894 228.272C308.791 228.029 308.642 227.833 308.446 227.684C308.259 227.535 308.035 227.427 307.774 227.362C307.522 227.297 307.251 227.264 306.962 227.264C306.542 227.264 306.178 227.329 305.87 227.46C305.571 227.591 305.314 227.763 305.1 227.978C304.894 228.183 304.731 228.417 304.61 228.678C304.498 228.93 304.423 229.182 304.386 229.434L303.294 229.07ZM311.628 231.1C311.628 230.372 311.712 229.705 311.88 229.098C312.048 228.482 312.3 227.95 312.636 227.502C312.981 227.054 313.415 226.704 313.938 226.452C314.461 226.2 315.077 226.074 315.786 226.074C316.495 226.074 317.111 226.191 317.634 226.424C318.157 226.657 318.591 226.993 318.936 227.432C319.281 227.871 319.538 228.403 319.706 229.028C319.874 229.644 319.958 230.335 319.958 231.1C319.958 231.828 319.874 232.5 319.706 233.116C319.547 233.723 319.295 234.25 318.95 234.698C318.614 235.146 318.185 235.496 317.662 235.748C317.139 236 316.523 236.126 315.814 236.126C315.142 236.126 314.545 236 314.022 235.748C313.499 235.496 313.061 235.146 312.706 234.698C312.351 234.25 312.081 233.723 311.894 233.116C311.717 232.5 311.628 231.828 311.628 231.1ZM312.86 231.1C312.86 232.295 313.121 233.233 313.644 233.914C314.167 234.595 314.89 234.936 315.814 234.936C316.822 234.936 317.559 234.595 318.026 233.914C318.493 233.233 318.726 232.295 318.726 231.1C318.726 229.905 318.488 228.967 318.012 228.286C317.536 227.605 316.794 227.264 315.786 227.264C315.282 227.264 314.848 227.353 314.484 227.53C314.12 227.707 313.817 227.964 313.574 228.3C313.331 228.636 313.149 229.042 313.028 229.518C312.916 229.985 312.86 230.512 312.86 231.1ZM321.102 229.07C321.186 228.669 321.326 228.286 321.522 227.922C321.718 227.558 321.97 227.241 322.278 226.97C322.586 226.69 322.954 226.471 323.384 226.312C323.813 226.153 324.303 226.074 324.854 226.074C325.367 226.074 325.824 226.149 326.226 226.298C326.627 226.438 326.968 226.639 327.248 226.9C327.528 227.161 327.738 227.474 327.878 227.838C328.027 228.202 328.102 228.599 328.102 229.028C328.102 229.635 327.971 230.195 327.71 230.708C327.458 231.212 327.136 231.674 326.744 232.094C326.352 232.514 325.922 232.897 325.456 233.242C324.989 233.578 324.546 233.877 324.126 234.138L323.048 234.81H328.466V236H320.836V235.02L322.964 233.606C323.664 233.139 324.261 232.71 324.756 232.318C325.25 231.917 325.652 231.539 325.96 231.184C326.277 230.829 326.506 230.489 326.646 230.162C326.795 229.826 326.87 229.49 326.87 229.154C326.87 228.809 326.814 228.515 326.702 228.272C326.599 228.029 326.45 227.833 326.254 227.684C326.067 227.535 325.843 227.427 325.582 227.362C325.33 227.297 325.059 227.264 324.77 227.264C324.35 227.264 323.986 227.329 323.678 227.46C323.379 227.591 323.122 227.763 322.908 227.978C322.702 228.183 322.539 228.417 322.418 228.678C322.306 228.93 322.231 229.182 322.194 229.434L321.102 229.07ZM329.534 229.07C329.618 228.669 329.758 228.286 329.954 227.922C330.15 227.558 330.402 227.241 330.71 226.97C331.018 226.69 331.387 226.471 331.816 226.312C332.245 226.153 332.735 226.074 333.286 226.074C333.799 226.074 334.257 226.149 334.658 226.298C335.059 226.438 335.4 226.639 335.68 226.9C335.96 227.161 336.17 227.474 336.31 227.838C336.459 228.202 336.534 228.599 336.534 229.028C336.534 229.635 336.403 230.195 336.142 230.708C335.89 231.212 335.568 231.674 335.176 232.094C334.784 232.514 334.355 232.897 333.888 233.242C333.421 233.578 332.978 233.877 332.558 234.138L331.48 234.81H336.898V236H329.268V235.02L331.396 233.606C332.096 233.139 332.693 232.71 333.188 232.318C333.683 231.917 334.084 231.539 334.392 231.184C334.709 230.829 334.938 230.489 335.078 230.162C335.227 229.826 335.302 229.49 335.302 229.154C335.302 228.809 335.246 228.515 335.134 228.272C335.031 228.029 334.882 227.833 334.686 227.684C334.499 227.535 334.275 227.427 334.014 227.362C333.762 227.297 333.491 227.264 333.202 227.264C332.782 227.264 332.418 227.329 332.11 227.46C331.811 227.591 331.555 227.763 331.34 227.978C331.135 228.183 330.971 228.417 330.85 228.678C330.738 228.93 330.663 229.182 330.626 229.434L329.534 229.07Z" fill="#777F8C"/>
<path d="M350 109H290V216H350V109Z" fill="#BFCED4"/>
<path d="M350 109H290V113H350V109Z" fill="#A6B2BC"/>
<path d="M307.629 88.0316H308.598V99.9996H307.17V89.8506L304.093 91.2616L303.549 89.9866L307.629 88.0316ZM316.155 93.2166C316.54 93.2166 316.897 93.1713 317.226 93.0806C317.566 92.9786 317.861 92.8426 318.11 92.6726C318.359 92.5026 318.552 92.2986 318.688 92.0606C318.835 91.8226 318.909 91.5619 318.909 91.2786C318.909 90.6666 318.654 90.2019 318.144 89.8846C317.645 89.5559 316.88 89.3916 315.849 89.3916C314.852 89.3916 314.098 89.5559 313.588 89.8846C313.089 90.2133 312.84 90.6779 312.84 91.2786C312.84 91.5506 312.908 91.8056 313.044 92.0436C313.18 92.2816 313.367 92.4913 313.605 92.6726C313.854 92.8426 314.149 92.9786 314.489 93.0806C314.84 93.1713 315.22 93.2166 315.628 93.2166H316.155ZM315.696 94.5596C315.22 94.5596 314.778 94.6163 314.37 94.7296C313.973 94.8316 313.633 94.9789 313.35 95.1716C313.067 95.3529 312.846 95.5739 312.687 95.8346C312.528 96.0839 312.449 96.3503 312.449 96.6336C312.449 97.2456 312.732 97.7443 313.299 98.1296C313.877 98.5149 314.733 98.7076 315.866 98.7076C317.033 98.7076 317.895 98.5263 318.45 98.1636C319.005 97.7896 319.283 97.2853 319.283 96.6506C319.283 95.9819 318.994 95.4663 318.416 95.1036C317.849 94.7409 317.084 94.5596 316.121 94.5596H315.696ZM315.883 100.153C315.124 100.153 314.438 100.079 313.826 99.9316C313.225 99.7729 312.71 99.5519 312.279 99.2686C311.86 98.9739 311.531 98.6226 311.293 98.2146C311.066 97.7953 310.953 97.3193 310.953 96.7866C310.953 96.0839 311.163 95.4776 311.582 94.9676C312.013 94.4463 312.585 94.0723 313.299 93.8456C312.959 93.7323 312.664 93.5849 312.415 93.4036C312.166 93.2109 311.962 92.9956 311.803 92.7576C311.644 92.5196 311.525 92.2703 311.446 92.0096C311.378 91.7376 311.344 91.4599 311.344 91.1766C311.344 90.1906 311.729 89.4086 312.5 88.8306C313.282 88.2413 314.404 87.9466 315.866 87.9466C317.339 87.9466 318.461 88.2413 319.232 88.8306C320.014 89.4086 320.405 90.1906 320.405 91.1766C320.405 91.7886 320.235 92.3043 319.895 92.7236C319.566 93.1429 319.107 93.4886 318.518 93.7606C319.334 94.0099 319.912 94.3839 320.252 94.8826C320.603 95.3813 320.779 95.9933 320.779 96.7186C320.779 97.2626 320.666 97.7499 320.439 98.1806C320.212 98.5999 319.884 98.9569 319.453 99.2516C319.034 99.5463 318.518 99.7729 317.906 99.9316C317.305 100.079 316.631 100.153 315.883 100.153ZM332.9 87.7256L333.971 88.5076L325.233 100.255L324.111 99.6086L332.9 87.7256ZM322.275 90.9556C322.275 90.5249 322.354 90.1339 322.513 89.7826C322.672 89.4199 322.887 89.1139 323.159 88.8646C323.442 88.6039 323.771 88.4056 324.145 88.2696C324.53 88.1223 324.944 88.0486 325.386 88.0486C325.828 88.0486 326.236 88.1223 326.61 88.2696C326.984 88.4056 327.307 88.6039 327.579 88.8646C327.862 89.1139 328.083 89.4199 328.242 89.7826C328.401 90.1339 328.48 90.5249 328.48 90.9556C328.48 91.3863 328.401 91.7773 328.242 92.1286C328.083 92.4799 327.862 92.7859 327.579 93.0466C327.307 93.2959 326.984 93.4943 326.61 93.6416C326.236 93.7776 325.828 93.8456 325.386 93.8456C324.944 93.8456 324.53 93.7776 324.145 93.6416C323.771 93.4943 323.442 93.2959 323.159 93.0466C322.887 92.7859 322.672 92.4799 322.513 92.1286C322.354 91.7773 322.275 91.3863 322.275 90.9556ZM323.703 90.9556C323.703 91.2163 323.748 91.4486 323.839 91.6526C323.941 91.8566 324.066 92.0323 324.213 92.1796C324.372 92.3269 324.553 92.4403 324.757 92.5196C324.961 92.5989 325.171 92.6386 325.386 92.6386C325.828 92.6386 326.213 92.4856 326.542 92.1796C326.882 91.8736 327.052 91.4656 327.052 90.9556C327.052 90.4456 326.882 90.0376 326.542 89.7316C326.213 89.4256 325.828 89.2726 325.386 89.2726C324.933 89.2726 324.536 89.4256 324.196 89.7316C323.867 90.0376 323.703 90.4456 323.703 90.9556ZM329.568 97.1606C329.568 96.7413 329.647 96.3559 329.806 96.0046C329.965 95.6419 330.18 95.3359 330.452 95.0866C330.735 94.8259 331.064 94.6276 331.438 94.4916C331.823 94.3443 332.237 94.2706 332.679 94.2706C333.121 94.2706 333.529 94.3443 333.903 94.4916C334.277 94.6276 334.6 94.8259 334.872 95.0866C335.155 95.3359 335.376 95.6419 335.535 96.0046C335.694 96.3559 335.773 96.7413 335.773 97.1606C335.773 97.5913 335.694 97.9823 335.535 98.3336C335.376 98.6849 335.155 98.9909 334.872 99.2516C334.6 99.5123 334.277 99.7163 333.903 99.8636C333.529 99.9996 333.121 100.068 332.679 100.068C332.237 100.068 331.823 99.9996 331.438 99.8636C331.064 99.7163 330.735 99.5123 330.452 99.2516C330.18 98.9909 329.965 98.6849 329.806 98.3336C329.647 97.9823 329.568 97.5913 329.568 97.1606ZM330.996 97.1606C330.996 97.4213 331.041 97.6536 331.132 97.8576C331.234 98.0616 331.359 98.2373 331.506 98.3846C331.665 98.5319 331.846 98.6453 332.05 98.7246C332.254 98.8039 332.464 98.8436 332.679 98.8436C333.121 98.8436 333.506 98.6906 333.835 98.3846C334.175 98.0786 334.345 97.6706 334.345 97.1606C334.345 96.6506 334.175 96.2426 333.835 95.9366C333.506 95.6306 333.121 95.4776 332.679 95.4776C332.226 95.4776 331.829 95.6306 331.489 95.9366C331.16 96.2426 330.996 96.6506 330.996 97.1606Z" fill="#222429"/>
<path d="M417.902 229.07C417.986 228.669 418.126 228.286 418.322 227.922C418.518 227.558 418.77 227.241 419.078 226.97C419.386 226.69 419.755 226.471 420.184 226.312C420.613 226.153 421.103 226.074 421.654 226.074C422.167 226.074 422.625 226.149 423.026 226.298C423.427 226.438 423.768 226.639 424.048 226.9C424.328 227.161 424.538 227.474 424.678 227.838C424.827 228.202 424.902 228.599 424.902 229.028C424.902 229.635 424.771 230.195 424.51 230.708C424.258 231.212 423.936 231.674 423.544 232.094C423.152 232.514 422.723 232.897 422.256 233.242C421.789 233.578 421.346 233.877 420.926 234.138L419.848 234.81H425.266V236H417.636V235.02L419.764 233.606C420.464 233.139 421.061 232.71 421.556 232.318C422.051 231.917 422.452 231.539 422.76 231.184C423.077 230.829 423.306 230.489 423.446 230.162C423.595 229.826 423.67 229.49 423.67 229.154C423.67 228.809 423.614 228.515 423.502 228.272C423.399 228.029 423.25 227.833 423.054 227.684C422.867 227.535 422.643 227.427 422.382 227.362C422.13 227.297 421.859 227.264 421.57 227.264C421.15 227.264 420.786 227.329 420.478 227.46C420.179 227.591 419.923 227.763 419.708 227.978C419.503 228.183 419.339 228.417 419.218 228.678C419.106 228.93 419.031 229.182 418.994 229.434L417.902 229.07ZM426.236 231.1C426.236 230.372 426.32 229.705 426.488 229.098C426.656 228.482 426.908 227.95 427.244 227.502C427.589 227.054 428.023 226.704 428.546 226.452C429.069 226.2 429.685 226.074 430.394 226.074C431.103 226.074 431.719 226.191 432.242 226.424C432.765 226.657 433.199 226.993 433.544 227.432C433.889 227.871 434.146 228.403 434.314 229.028C434.482 229.644 434.566 230.335 434.566 231.1C434.566 231.828 434.482 232.5 434.314 233.116C434.155 233.723 433.903 234.25 433.558 234.698C433.222 235.146 432.793 235.496 432.27 235.748C431.747 236 431.131 236.126 430.422 236.126C429.75 236.126 429.153 236 428.63 235.748C428.107 235.496 427.669 235.146 427.314 234.698C426.959 234.25 426.689 233.723 426.502 233.116C426.325 232.5 426.236 231.828 426.236 231.1ZM427.468 231.1C427.468 232.295 427.729 233.233 428.252 233.914C428.775 234.595 429.498 234.936 430.422 234.936C431.43 234.936 432.167 234.595 432.634 233.914C433.101 233.233 433.334 232.295 433.334 231.1C433.334 229.905 433.096 228.967 432.62 228.286C432.144 227.605 431.402 227.264 430.394 227.264C429.89 227.264 429.456 227.353 429.092 227.53C428.728 227.707 428.425 227.964 428.182 228.3C427.939 228.636 427.757 229.042 427.636 229.518C427.524 229.985 427.468 230.512 427.468 231.1ZM435.71 229.07C435.794 228.669 435.934 228.286 436.13 227.922C436.326 227.558 436.578 227.241 436.886 226.97C437.194 226.69 437.562 226.471 437.992 226.312C438.421 226.153 438.911 226.074 439.462 226.074C439.975 226.074 440.432 226.149 440.834 226.298C441.235 226.438 441.576 226.639 441.856 226.9C442.136 227.161 442.346 227.474 442.486 227.838C442.635 228.202 442.71 228.599 442.71 229.028C442.71 229.635 442.579 230.195 442.318 230.708C442.066 231.212 441.744 231.674 441.352 232.094C440.96 232.514 440.53 232.897 440.064 233.242C439.597 233.578 439.154 233.877 438.734 234.138L437.656 234.81H443.074V236H435.444V235.02L437.572 233.606C438.272 233.139 438.869 232.71 439.364 232.318C439.858 231.917 440.26 231.539 440.568 231.184C440.885 230.829 441.114 230.489 441.254 230.162C441.403 229.826 441.478 229.49 441.478 229.154C441.478 228.809 441.422 228.515 441.31 228.272C441.207 228.029 441.058 227.833 440.862 227.684C440.675 227.535 440.451 227.427 440.19 227.362C439.938 227.297 439.667 227.264 439.378 227.264C438.958 227.264 438.594 227.329 438.286 227.46C437.987 227.591 437.73 227.763 437.516 227.978C437.31 228.183 437.147 228.417 437.026 228.678C436.914 228.93 436.839 229.182 436.802 229.434L435.71 229.07ZM443.96 228.58C444.091 228.216 444.268 227.885 444.492 227.586C444.716 227.278 444.987 227.012 445.304 226.788C445.631 226.564 446.004 226.391 446.424 226.27C446.853 226.139 447.334 226.074 447.866 226.074C448.342 226.074 448.781 226.135 449.182 226.256C449.593 226.368 449.943 226.531 450.232 226.746C450.531 226.951 450.759 227.208 450.918 227.516C451.086 227.824 451.17 228.165 451.17 228.538C451.17 229.107 451.021 229.593 450.722 229.994C450.433 230.395 450.008 230.675 449.448 230.834C449.691 230.853 449.929 230.913 450.162 231.016C450.395 231.109 450.601 231.254 450.778 231.45C450.965 231.637 451.114 231.875 451.226 232.164C451.338 232.444 451.394 232.78 451.394 233.172C451.394 233.648 451.301 234.073 451.114 234.446C450.937 234.81 450.685 235.118 450.358 235.37C450.041 235.613 449.663 235.799 449.224 235.93C448.785 236.061 448.314 236.126 447.81 236.126C447.259 236.126 446.755 236.061 446.298 235.93C445.85 235.799 445.453 235.622 445.108 235.398C444.763 235.165 444.469 234.889 444.226 234.572C443.993 234.245 443.815 233.886 443.694 233.494L444.828 233.004C444.949 233.256 445.094 233.499 445.262 233.732C445.43 233.965 445.635 234.171 445.878 234.348C446.121 234.525 446.405 234.67 446.732 234.782C447.059 234.885 447.446 234.936 447.894 234.936C448.594 234.936 449.145 234.787 449.546 234.488C449.957 234.18 450.162 233.746 450.162 233.186C450.162 232.878 450.097 232.621 449.966 232.416C449.835 232.201 449.653 232.033 449.42 231.912C449.187 231.781 448.911 231.693 448.594 231.646C448.286 231.59 447.95 231.562 447.586 231.562H446.494V230.4H447.362C448.174 230.4 448.804 230.246 449.252 229.938C449.709 229.63 449.938 229.243 449.938 228.776C449.938 228.272 449.747 227.894 449.364 227.642C448.981 227.39 448.463 227.264 447.81 227.264C447.409 227.264 447.054 227.315 446.746 227.418C446.438 227.521 446.167 227.656 445.934 227.824C445.71 227.992 445.519 228.183 445.36 228.398C445.211 228.613 445.094 228.832 445.01 229.056L443.96 228.58ZM460.259 227.39H454.477V236H453.203V226.2H461.533V236H460.259V227.39Z" fill="#5FAF2D"/>
<path d="M470 62H410V216H470V62Z" fill="#5FAF2D"/>
<path d="M470 62H410V66H470V62Z" fill="#3D7917"/>
<path d="M422.514 44.5846C422.616 44.0973 422.786 43.6326 423.024 43.1906C423.262 42.7486 423.568 42.3633 423.942 42.0346C424.316 41.6946 424.763 41.4283 425.285 41.2356C425.806 41.0429 426.401 40.9466 427.07 40.9466C427.693 40.9466 428.248 41.0373 428.736 41.2186C429.223 41.3886 429.637 41.6323 429.977 41.9496C430.317 42.2669 430.572 42.6466 430.742 43.0886C430.923 43.5306 431.014 44.0123 431.014 44.5336C431.014 45.2703 430.855 45.9503 430.538 46.5736C430.232 47.1856 429.841 47.7466 429.365 48.2566C428.889 48.7666 428.367 49.2313 427.801 49.6506C427.234 50.0586 426.696 50.4213 426.186 50.7386L424.877 51.5546H431.456V52.9996H422.191V51.8096L424.775 50.0926C425.625 49.5259 426.35 49.0046 426.951 48.5286C427.551 48.0413 428.039 47.5823 428.413 47.1516C428.798 46.7209 429.076 46.3073 429.246 45.9106C429.427 45.5026 429.518 45.0946 429.518 44.6866C429.518 44.2673 429.45 43.9103 429.314 43.6156C429.189 43.3209 429.008 43.0829 428.77 42.9016C428.543 42.7203 428.271 42.5899 427.954 42.5106C427.648 42.4313 427.319 42.3916 426.968 42.3916C426.458 42.3916 426.016 42.4709 425.642 42.6296C425.279 42.7883 424.967 42.9979 424.707 43.2586C424.457 43.5079 424.259 43.7913 424.112 44.1086C423.976 44.4146 423.885 44.7206 423.84 45.0266L422.514 44.5846ZM438.006 53.1526C437.212 53.1526 436.493 53.0279 435.847 52.7786C435.212 52.5293 434.668 52.1609 434.215 51.6736C433.761 51.1749 433.41 50.5686 433.161 49.8546C432.923 49.1406 432.804 48.3133 432.804 47.3726C432.804 46.3073 432.945 45.3723 433.229 44.5676C433.512 43.7629 433.892 43.0943 434.368 42.5616C434.855 42.0176 435.416 41.6153 436.051 41.3546C436.697 41.0826 437.377 40.9466 438.091 40.9466C439.122 40.9466 440 41.1563 440.726 41.5756C441.451 41.9949 441.978 42.5616 442.307 43.2756L441.151 44.0576C440.822 43.5476 440.397 43.1453 439.876 42.8506C439.366 42.5446 438.748 42.3916 438.023 42.3916C437.456 42.3916 436.946 42.5049 436.493 42.7316C436.039 42.9469 435.648 43.2643 435.32 43.6836C434.991 44.0916 434.736 44.5903 434.555 45.1796C434.373 45.7576 434.277 46.4093 434.266 47.1346V47.3216C434.424 46.9476 434.64 46.6189 434.912 46.3356C435.195 46.0523 435.512 45.8143 435.864 45.6216C436.215 45.4289 436.589 45.2873 436.986 45.1966C437.394 45.0946 437.807 45.0436 438.227 45.0436C438.918 45.0436 439.541 45.1399 440.097 45.3326C440.652 45.5253 441.122 45.7973 441.508 46.1486C441.904 46.4999 442.205 46.9193 442.409 47.4066C442.613 47.8939 442.715 48.4323 442.715 49.0216C442.715 49.6336 442.59 50.1946 442.341 50.7046C442.103 51.2146 441.768 51.6509 441.338 52.0136C440.918 52.3763 440.42 52.6596 439.842 52.8636C439.275 53.0563 438.663 53.1526 438.006 53.1526ZM437.989 51.7076C438.465 51.7076 438.895 51.6453 439.281 51.5206C439.677 51.3959 440.017 51.2203 440.301 50.9936C440.595 50.7556 440.822 50.4779 440.981 50.1606C441.139 49.8433 441.219 49.4863 441.219 49.0896C441.219 48.6589 441.139 48.2849 440.981 47.9676C440.833 47.6389 440.624 47.3669 440.352 47.1516C440.08 46.9249 439.751 46.7606 439.366 46.6586C438.992 46.5453 438.584 46.4886 438.142 46.4886C437.054 46.4886 436.226 46.7209 435.66 47.1856C435.104 47.6503 434.827 48.2453 434.827 48.9706C434.827 49.3446 434.9 49.6959 435.048 50.0246C435.195 50.3533 435.405 50.6423 435.677 50.8916C435.949 51.1409 436.277 51.3393 436.663 51.4866C437.059 51.6339 437.501 51.7076 437.989 51.7076ZM454.734 40.7256L455.805 41.5076L447.067 53.2546L445.945 52.6086L454.734 40.7256ZM444.109 43.9556C444.109 43.5249 444.189 43.1339 444.347 42.7826C444.506 42.4199 444.721 42.1139 444.993 41.8646C445.277 41.6039 445.605 41.4056 445.979 41.2696C446.365 41.1223 446.778 41.0486 447.22 41.0486C447.662 41.0486 448.07 41.1223 448.444 41.2696C448.818 41.4056 449.141 41.6039 449.413 41.8646C449.697 42.1139 449.918 42.4199 450.076 42.7826C450.235 43.1339 450.314 43.5249 450.314 43.9556C450.314 44.3863 450.235 44.7773 450.076 45.1286C449.918 45.4799 449.697 45.7859 449.413 46.0466C449.141 46.2959 448.818 46.4943 448.444 46.6416C448.07 46.7776 447.662 46.8456 447.22 46.8456C446.778 46.8456 446.365 46.7776 445.979 46.6416C445.605 46.4943 445.277 46.2959 444.993 46.0466C444.721 45.7859 444.506 45.4799 444.347 45.1286C444.189 44.7773 444.109 44.3863 444.109 43.9556ZM445.537 43.9556C445.537 44.2163 445.583 44.4486 445.673 44.6526C445.775 44.8566 445.9 45.0323 446.047 45.1796C446.206 45.3269 446.387 45.4403 446.591 45.5196C446.795 45.5989 447.005 45.6386 447.22 45.6386C447.662 45.6386 448.048 45.4856 448.376 45.1796C448.716 44.8736 448.886 44.4656 448.886 43.9556C448.886 43.4456 448.716 43.0376 448.376 42.7316C448.048 42.4256 447.662 42.2726 447.22 42.2726C446.767 42.2726 446.37 42.4256 446.03 42.7316C445.702 43.0376 445.537 43.4456 445.537 43.9556ZM451.402 50.1606C451.402 49.7413 451.482 49.3559 451.64 49.0046C451.799 48.6419 452.014 48.3359 452.286 48.0866C452.57 47.8259 452.898 47.6276 453.272 47.4916C453.658 47.3443 454.071 47.2706 454.513 47.2706C454.955 47.2706 455.363 47.3443 455.737 47.4916C456.111 47.6276 456.434 47.8259 456.706 48.0866C456.99 48.3359 457.211 48.6419 457.369 49.0046C457.528 49.3559 457.607 49.7413 457.607 50.1606C457.607 50.5913 457.528 50.9823 457.369 51.3336C457.211 51.6849 456.99 51.9909 456.706 52.2516C456.434 52.5123 456.111 52.7163 455.737 52.8636C455.363 52.9996 454.955 53.0676 454.513 53.0676C454.071 53.0676 453.658 52.9996 453.272 52.8636C452.898 52.7163 452.57 52.5123 452.286 52.2516C452.014 51.9909 451.799 51.6849 451.64 51.3336C451.482 50.9823 451.402 50.5913 451.402 50.1606ZM452.83 50.1606C452.83 50.4213 452.876 50.6536 452.966 50.8576C453.068 51.0616 453.193 51.2373 453.34 51.3846C453.499 51.5319 453.68 51.6453 453.884 51.7246C454.088 51.8039 454.298 51.8436 454.513 51.8436C454.955 51.8436 455.341 51.6906 455.669 51.3846C456.009 51.0786 456.179 50.6706 456.179 50.1606C456.179 49.6506 456.009 49.2426 455.669 48.9366C455.341 48.6306 454.955 48.4776 454.513 48.4776C454.06 48.4776 453.663 48.6306 453.323 48.9366C452.995 49.2426 452.83 49.6506 452.83 50.1606Z" fill="#222429"/>
<path d="M536 216H0V217H536V216Z" fill="#9299A3"/>
</g>
<defs>
<clipPath id="clip0_1603_19098">
<rect width="536" height="197" fill="white" transform="translate(0 40)"/>
</clipPath>
</defs>
</svg>
