<svg viewBox="0 0 355 304" fill="none" xmlns="http://www.w3.org/2000/svg">
<path d="M148.171 163.027C148.358 161.82 149.276 160.392 151.299 160.392C152.727 160.392 153.849 161.004 153.849 162.687C153.849 164.319 152.506 165.832 149.106 168.093L146.522 169.81V171H155.787V169.555H149.208L150.517 168.739C152.557 167.464 155.345 165.475 155.345 162.534C155.345 160.426 153.9 158.947 151.401 158.947C148.732 158.947 147.253 160.613 146.845 162.585L148.171 163.027ZM157.135 165.05C157.135 168.569 158.937 171.153 162.218 171.153C165.686 171.153 167.25 168.569 167.25 165.05C167.25 161.31 165.635 158.947 162.184 158.947C158.75 158.947 157.135 161.531 157.135 165.05ZM158.631 165.05C158.631 162.194 159.753 160.392 162.184 160.392C164.632 160.392 165.754 162.143 165.754 165.05C165.754 167.94 164.666 169.708 162.218 169.708C159.991 169.708 158.631 167.94 158.631 165.05ZM170.135 163.027C170.322 161.82 171.24 160.392 173.263 160.392C174.691 160.392 175.813 161.004 175.813 162.687C175.813 164.319 174.47 165.832 171.07 168.093L168.486 169.81V171H177.751V169.555H171.172L172.481 168.739C174.521 167.464 177.309 165.475 177.309 162.534C177.309 160.426 175.864 158.947 173.365 158.947C170.696 158.947 169.217 160.613 168.809 162.585L170.135 163.027ZM178.419 160.987L178.963 162.262L182.04 160.851V171H183.468V159.032H182.499L178.419 160.987Z" fill="#222429"/>
<path d="M167.414 29.8672C189.493 29.8672 211.243 35.2156 230.805 45.455C250.366 55.6944 267.155 70.5199 279.737 88.6633C292.319 106.807 300.319 127.728 303.051 149.637C305.784 171.546 303.169 193.791 295.43 214.47C287.69 235.148 275.057 253.643 258.61 268.374C242.164 283.105 222.393 293.632 200.991 299.056C179.588 304.479 157.191 304.638 135.714 299.517C114.236 294.397 94.3195 284.15 77.6663 269.653L91.1285 254.188C105.284 266.511 122.213 275.221 140.469 279.573C158.724 283.925 177.762 283.791 195.954 279.181C214.147 274.571 230.951 265.622 244.931 253.101C258.91 240.58 269.649 224.859 276.227 207.282C282.806 189.706 285.029 170.798 282.706 152.175C280.383 133.552 273.583 115.769 262.889 100.347C252.194 84.9252 237.923 72.3236 221.296 63.6201C204.669 54.9166 186.181 50.3704 167.414 50.3704L167.414 29.8672Z" fill="#BFCED4"/>
<path d="M34.3019 135.493C40.5951 108.525 54.9315 84.1037 75.4126 65.4642L89.2128 80.6279C71.8039 96.4714 59.618 117.229 54.2687 140.152L34.3019 135.493Z" fill="#003E14"/>
<path d="M75.2717 65.5926C89.3759 52.7207 106.021 42.9466 124.133 36.9004L130.625 56.3487C115.23 61.488 101.082 69.7959 89.0931 80.7371L75.2717 65.5926Z" fill="#A3CF46"/>
<path d="M122.042 37.6172C135.304 32.9506 149.206 30.3579 163.258 29.9304L163.881 50.4242C151.937 50.7875 140.12 52.9914 128.848 56.958L122.042 37.6172Z" fill="#648494"/>
<path d="M161.527 29.994C163.612 29.9041 165.698 29.862 167.785 29.8677L167.729 50.3709C165.956 50.3661 164.182 50.4019 162.41 50.4782L161.527 29.994Z" fill="#222429"/>
<path d="M78.3179 270.217C59.3032 253.874 45.15 232.615 37.407 208.768C29.6639 184.921 28.6292 159.403 34.4162 135.007L54.3659 139.739C49.4469 160.476 50.3264 182.166 56.908 202.436C63.4896 222.706 75.5198 240.776 91.6823 254.667L78.3179 270.217Z" fill="#5FAF2D"/>
<path d="M311.364 224.948C310.664 224.948 310.029 224.838 309.459 224.617C308.899 224.397 308.419 224.072 308.019 223.642C307.619 223.202 307.309 222.667 307.089 222.037C306.879 221.407 306.774 220.677 306.774 219.847C306.774 218.907 306.899 218.082 307.149 217.372C307.399 216.662 307.734 216.072 308.154 215.602C308.584 215.122 309.079 214.767 309.639 214.537C310.209 214.297 310.809 214.177 311.439 214.177C312.349 214.177 313.124 214.362 313.764 214.732C314.404 215.102 314.869 215.602 315.159 216.232L314.139 216.922C313.849 216.472 313.474 216.117 313.014 215.857C312.564 215.587 312.019 215.452 311.379 215.452C310.879 215.452 310.429 215.552 310.029 215.752C309.629 215.942 309.284 216.222 308.994 216.592C308.704 216.952 308.479 217.392 308.319 217.912C308.159 218.422 308.074 218.997 308.064 219.637V219.802C308.204 219.472 308.394 219.182 308.634 218.932C308.884 218.682 309.164 218.472 309.474 218.302C309.784 218.132 310.114 218.007 310.464 217.927C310.824 217.837 311.189 217.792 311.559 217.792C312.169 217.792 312.719 217.877 313.209 218.047C313.699 218.217 314.114 218.457 314.454 218.767C314.804 219.077 315.069 219.447 315.249 219.877C315.429 220.307 315.519 220.782 315.519 221.302C315.519 221.842 315.409 222.337 315.189 222.787C314.979 223.237 314.684 223.622 314.304 223.942C313.934 224.262 313.494 224.512 312.984 224.692C312.484 224.863 311.944 224.948 311.364 224.948ZM311.349 223.672C311.769 223.672 312.149 223.617 312.489 223.507C312.839 223.397 313.139 223.242 313.389 223.042C313.649 222.832 313.849 222.587 313.989 222.307C314.129 222.027 314.199 221.712 314.199 221.362C314.199 220.982 314.129 220.652 313.989 220.372C313.859 220.082 313.674 219.842 313.434 219.652C313.194 219.452 312.904 219.307 312.564 219.217C312.234 219.117 311.874 219.067 311.484 219.067C310.524 219.067 309.794 219.272 309.294 219.682C308.804 220.092 308.559 220.617 308.559 221.257C308.559 221.587 308.624 221.897 308.754 222.187C308.884 222.477 309.069 222.732 309.309 222.952C309.549 223.172 309.839 223.347 310.179 223.477C310.529 223.607 310.919 223.672 311.349 223.672ZM319.599 214.252H320.454V224.812H319.194V215.857L316.479 217.103L315.999 215.977L319.599 214.252ZM322.472 223.957C322.472 223.757 322.557 223.567 322.727 223.387C322.897 223.207 323.122 223.117 323.402 223.117C323.662 223.117 323.877 223.207 324.047 223.387C324.217 223.567 324.302 223.757 324.302 223.957C324.302 224.187 324.217 224.392 324.047 224.572C323.877 224.752 323.662 224.843 323.402 224.843C323.122 224.843 322.897 224.752 322.727 224.572C322.557 224.392 322.472 224.187 322.472 223.957ZM331.528 222.712H325.063V221.752L331.678 214.312H332.788V221.437H334.738V222.712H332.788V224.812H331.528V222.712ZM331.528 221.437V216.412L326.863 221.437H331.528Z" fill="#777F8C"/>
<path d="M3.645 209.44H4.5V220H3.24V211.045L0.525 212.29L0.045 211.165L3.645 209.44ZM6.06797 209.5H14.033V210.355L8.81297 220H7.38797L12.428 210.775H6.06797V209.5ZM14.0291 219.145C14.0291 218.945 14.1141 218.755 14.2841 218.575C14.4541 218.395 14.6791 218.305 14.9591 218.305C15.2191 218.305 15.4341 218.395 15.6041 218.575C15.7741 218.755 15.8591 218.945 15.8591 219.145C15.8591 219.375 15.7741 219.58 15.6041 219.76C15.4341 219.94 15.2191 220.03 14.9591 220.03C14.6791 220.03 14.4541 219.94 14.2841 219.76C14.1141 219.58 14.0291 219.375 14.0291 219.145ZM17.0093 212.05C17.1493 211.66 17.3393 211.305 17.5793 210.985C17.8193 210.655 18.1093 210.37 18.4493 210.13C18.7993 209.89 19.1993 209.705 19.6493 209.575C20.1093 209.435 20.6243 209.365 21.1943 209.365C21.7043 209.365 22.1743 209.43 22.6043 209.56C23.0443 209.68 23.4193 209.855 23.7293 210.085C24.0493 210.305 24.2943 210.58 24.4643 210.91C24.6443 211.24 24.7343 211.605 24.7343 212.005C24.7343 212.615 24.5743 213.135 24.2543 213.565C23.9443 213.995 23.4893 214.295 22.8893 214.465C23.1493 214.485 23.4043 214.55 23.6543 214.66C23.9043 214.76 24.1243 214.915 24.3143 215.125C24.5143 215.325 24.6743 215.58 24.7943 215.89C24.9143 216.19 24.9743 216.55 24.9743 216.97C24.9743 217.48 24.8743 217.935 24.6743 218.335C24.4843 218.725 24.2143 219.055 23.8643 219.325C23.5243 219.585 23.1193 219.785 22.6493 219.925C22.1793 220.065 21.6743 220.135 21.1343 220.135C20.5443 220.135 20.0043 220.065 19.5143 219.925C19.0343 219.785 18.6093 219.595 18.2393 219.355C17.8693 219.105 17.5543 218.81 17.2943 218.47C17.0443 218.12 16.8543 217.735 16.7243 217.315L17.9393 216.79C18.0693 217.06 18.2243 217.32 18.4043 217.57C18.5843 217.82 18.8043 218.04 19.0643 218.23C19.3243 218.42 19.6293 218.575 19.9793 218.695C20.3293 218.805 20.7443 218.86 21.2243 218.86C21.9743 218.86 22.5643 218.7 22.9943 218.38C23.4343 218.05 23.6543 217.585 23.6543 216.985C23.6543 216.655 23.5843 216.38 23.4443 216.16C23.3043 215.93 23.1093 215.75 22.8593 215.62C22.6093 215.48 22.3143 215.385 21.9743 215.335C21.6443 215.275 21.2843 215.245 20.8943 215.245H19.7243V214H20.6543C21.5243 214 22.1993 213.835 22.6793 213.505C23.1693 213.175 23.4143 212.76 23.4143 212.26C23.4143 211.72 23.2093 211.315 22.7993 211.045C22.3893 210.775 21.8343 210.64 21.1343 210.64C20.7043 210.64 20.3243 210.695 19.9943 210.805C19.6643 210.915 19.3743 211.06 19.1243 211.24C18.8843 211.42 18.6793 211.625 18.5093 211.855C18.3493 212.085 18.2243 212.32 18.1343 212.56L17.0093 212.05Z" fill="#777F8C"/>
<path d="M22.68 91.135C21.77 91.135 20.99 90.96 20.34 90.61C19.7 90.26 19.22 89.815 18.9 89.275L19.98 88.525C20.29 88.955 20.695 89.285 21.195 89.515C21.705 89.745 22.26 89.86 22.86 89.86C23.32 89.86 23.74 89.77 24.12 89.59C24.51 89.4 24.845 89.14 25.125 88.81C25.415 88.48 25.64 88.09 25.8 87.64C25.96 87.19 26.04 86.7 26.04 86.17C26.04 86.11 26.04 86.05 26.04 85.99C26.04 85.93 26.035 85.87 26.025 85.81C25.785 86.38 25.375 86.855 24.795 87.235C24.225 87.605 23.5 87.79 22.62 87.79C22.04 87.79 21.505 87.705 21.015 87.535C20.525 87.355 20.1 87.11 19.74 86.8C19.38 86.48 19.1 86.1 18.9 85.66C18.7 85.22 18.6 84.73 18.6 84.19C18.6 83.61 18.705 83.085 18.915 82.615C19.135 82.135 19.44 81.73 19.83 81.4C20.22 81.07 20.685 80.815 21.225 80.635C21.775 80.455 22.38 80.365 23.04 80.365C23.71 80.365 24.31 80.48 24.84 80.71C25.38 80.93 25.835 81.26 26.205 81.7C26.585 82.14 26.875 82.685 27.075 83.335C27.275 83.975 27.375 84.715 27.375 85.555C27.375 86.475 27.26 87.285 27.03 87.985C26.81 88.675 26.49 89.255 26.07 89.725C25.66 90.185 25.165 90.535 24.585 90.775C24.015 91.015 23.38 91.135 22.68 91.135ZM22.86 86.515C23.29 86.515 23.68 86.455 24.03 86.335C24.38 86.215 24.675 86.05 24.915 85.84C25.165 85.62 25.355 85.365 25.485 85.075C25.615 84.785 25.68 84.475 25.68 84.145C25.68 83.825 25.63 83.515 25.53 83.215C25.43 82.915 25.27 82.65 25.05 82.42C24.83 82.18 24.54 81.99 24.18 81.85C23.83 81.71 23.4 81.64 22.89 81.64C21.96 81.64 21.23 81.85 20.7 82.27C20.18 82.68 19.92 83.285 19.92 84.085C19.92 84.845 20.185 85.44 20.715 85.87C21.245 86.3 21.96 86.515 22.86 86.515ZM28.6049 90.145C28.6049 89.945 28.6899 89.755 28.8599 89.575C29.0299 89.395 29.2549 89.305 29.5349 89.305C29.7949 89.305 30.0099 89.395 30.1799 89.575C30.3499 89.755 30.4349 89.945 30.4349 90.145C30.4349 90.375 30.3499 90.58 30.1799 90.76C30.0099 90.94 29.7949 91.03 29.5349 91.03C29.2549 91.03 29.0299 90.94 28.8599 90.76C28.6899 90.58 28.6049 90.375 28.6049 90.145ZM36.2651 91.135C35.5651 91.135 34.9301 91.025 34.3601 90.805C33.8001 90.585 33.3201 90.26 32.9201 89.83C32.5201 89.39 32.2101 88.855 31.9901 88.225C31.7801 87.595 31.6751 86.865 31.6751 86.035C31.6751 85.095 31.8001 84.27 32.0501 83.56C32.3001 82.85 32.6351 82.26 33.0551 81.79C33.4851 81.31 33.9801 80.955 34.5401 80.725C35.1101 80.485 35.7101 80.365 36.3401 80.365C37.2501 80.365 38.0251 80.55 38.6651 80.92C39.3051 81.29 39.7701 81.79 40.0601 82.42L39.0401 83.11C38.7501 82.66 38.3751 82.305 37.9151 82.045C37.4651 81.775 36.9201 81.64 36.2801 81.64C35.7801 81.64 35.3301 81.74 34.9301 81.94C34.5301 82.13 34.1851 82.41 33.8951 82.78C33.6051 83.14 33.3801 83.58 33.2201 84.1C33.0601 84.61 32.9751 85.185 32.9651 85.825V85.99C33.1051 85.66 33.2951 85.37 33.5351 85.12C33.7851 84.87 34.0651 84.66 34.3751 84.49C34.6851 84.32 35.0151 84.195 35.3651 84.115C35.7251 84.025 36.0901 83.98 36.4601 83.98C37.0701 83.98 37.6201 84.065 38.1101 84.235C38.6001 84.405 39.0151 84.645 39.3551 84.955C39.7051 85.265 39.9701 85.635 40.1501 86.065C40.3301 86.495 40.4201 86.97 40.4201 87.49C40.4201 88.03 40.3101 88.525 40.0901 88.975C39.8801 89.425 39.5851 89.81 39.2051 90.13C38.8351 90.45 38.3951 90.7 37.8851 90.88C37.3851 91.05 36.8451 91.135 36.2651 91.135ZM36.2501 89.86C36.6701 89.86 37.0501 89.805 37.3901 89.695C37.7401 89.585 38.0401 89.43 38.2901 89.23C38.5501 89.02 38.7501 88.775 38.8901 88.495C39.0301 88.215 39.1001 87.9 39.1001 87.55C39.1001 87.17 39.0301 86.84 38.8901 86.56C38.7601 86.27 38.5751 86.03 38.3351 85.84C38.0951 85.64 37.8051 85.495 37.4651 85.405C37.1351 85.305 36.7751 85.255 36.3851 85.255C35.4251 85.255 34.6951 85.46 34.1951 85.87C33.7051 86.28 33.4601 86.805 33.4601 87.445C33.4601 87.775 33.5251 88.085 33.6551 88.375C33.7851 88.665 33.9701 88.92 34.2101 89.14C34.4501 89.36 34.7401 89.535 35.0801 89.665C35.4301 89.795 35.8201 89.86 36.2501 89.86Z" fill="#777F8C"/>
<path d="M73.235 39.135C72.535 39.135 71.9 39.025 71.33 38.805C70.77 38.585 70.29 38.26 69.89 37.83C69.49 37.39 69.18 36.855 68.96 36.225C68.75 35.595 68.645 34.865 68.645 34.035C68.645 33.095 68.77 32.27 69.02 31.56C69.27 30.85 69.605 30.26 70.025 29.79C70.455 29.31 70.95 28.955 71.51 28.725C72.08 28.485 72.68 28.365 73.31 28.365C74.22 28.365 74.995 28.55 75.635 28.92C76.275 29.29 76.74 29.79 77.03 30.42L76.01 31.11C75.72 30.66 75.345 30.305 74.885 30.045C74.435 29.775 73.89 29.64 73.25 29.64C72.75 29.64 72.3 29.74 71.9 29.94C71.5 30.13 71.155 30.41 70.865 30.78C70.575 31.14 70.35 31.58 70.19 32.1C70.03 32.61 69.945 33.185 69.935 33.825V33.99C70.075 33.66 70.265 33.37 70.505 33.12C70.755 32.87 71.035 32.66 71.345 32.49C71.655 32.32 71.985 32.195 72.335 32.115C72.695 32.025 73.06 31.98 73.43 31.98C74.04 31.98 74.59 32.065 75.08 32.235C75.57 32.405 75.985 32.645 76.325 32.955C76.675 33.265 76.94 33.635 77.12 34.065C77.3 34.495 77.39 34.97 77.39 35.49C77.39 36.03 77.28 36.525 77.06 36.975C76.85 37.425 76.555 37.81 76.175 38.13C75.805 38.45 75.365 38.7 74.855 38.88C74.355 39.05 73.815 39.135 73.235 39.135ZM73.22 37.86C73.64 37.86 74.02 37.805 74.36 37.695C74.71 37.585 75.01 37.43 75.26 37.23C75.52 37.02 75.72 36.775 75.86 36.495C76 36.215 76.07 35.9 76.07 35.55C76.07 35.17 76 34.84 75.86 34.56C75.73 34.27 75.545 34.03 75.305 33.84C75.065 33.64 74.775 33.495 74.435 33.405C74.105 33.305 73.745 33.255 73.355 33.255C72.395 33.255 71.665 33.46 71.165 33.87C70.675 34.28 70.43 34.805 70.43 35.445C70.43 35.775 70.495 36.085 70.625 36.375C70.755 36.665 70.94 36.92 71.18 37.14C71.42 37.36 71.71 37.535 72.05 37.665C72.4 37.795 72.79 37.86 73.22 37.86ZM78.5756 38.145C78.5756 37.945 78.6606 37.755 78.8306 37.575C79.0006 37.395 79.2256 37.305 79.5056 37.305C79.7656 37.305 79.9806 37.395 80.1506 37.575C80.3206 37.755 80.4056 37.945 80.4056 38.145C80.4056 38.375 80.3206 38.58 80.1506 38.76C79.9806 38.94 79.7656 39.03 79.5056 39.03C79.2256 39.03 79.0006 38.94 78.8306 38.76C78.6606 38.58 78.5756 38.375 78.5756 38.145ZM81.5558 31.05C81.6958 30.66 81.8858 30.305 82.1258 29.985C82.3658 29.655 82.6558 29.37 82.9958 29.13C83.3458 28.89 83.7458 28.705 84.1958 28.575C84.6558 28.435 85.1708 28.365 85.7408 28.365C86.2508 28.365 86.7208 28.43 87.1508 28.56C87.5908 28.68 87.9658 28.855 88.2758 29.085C88.5958 29.305 88.8408 29.58 89.0108 29.91C89.1908 30.24 89.2808 30.605 89.2808 31.005C89.2808 31.615 89.1208 32.135 88.8008 32.565C88.4908 32.995 88.0358 33.295 87.4358 33.465C87.6958 33.485 87.9508 33.55 88.2008 33.66C88.4508 33.76 88.6708 33.915 88.8608 34.125C89.0608 34.325 89.2208 34.58 89.3408 34.89C89.4608 35.19 89.5208 35.55 89.5208 35.97C89.5208 36.48 89.4208 36.935 89.2208 37.335C89.0308 37.725 88.7608 38.055 88.4108 38.325C88.0708 38.585 87.6658 38.785 87.1958 38.925C86.7258 39.065 86.2208 39.135 85.6808 39.135C85.0908 39.135 84.5508 39.065 84.0608 38.925C83.5808 38.785 83.1558 38.595 82.7858 38.355C82.4158 38.105 82.1008 37.81 81.8408 37.47C81.5908 37.12 81.4008 36.735 81.2708 36.315L82.4858 35.79C82.6158 36.06 82.7708 36.32 82.9508 36.57C83.1308 36.82 83.3508 37.04 83.6108 37.23C83.8708 37.42 84.1758 37.575 84.5258 37.695C84.8758 37.805 85.2908 37.86 85.7708 37.86C86.5208 37.86 87.1108 37.7 87.5408 37.38C87.9808 37.05 88.2008 36.585 88.2008 35.985C88.2008 35.655 88.1308 35.38 87.9908 35.16C87.8508 34.93 87.6558 34.75 87.4058 34.62C87.1558 34.48 86.8608 34.385 86.5208 34.335C86.1908 34.275 85.8308 34.245 85.4408 34.245H84.2708V33H85.2008C86.0708 33 86.7458 32.835 87.2258 32.505C87.7158 32.175 87.9608 31.76 87.9608 31.26C87.9608 30.72 87.7558 30.315 87.3458 30.045C86.9358 29.775 86.3808 29.64 85.6808 29.64C85.2508 29.64 84.8708 29.695 84.5408 29.805C84.2108 29.915 83.9208 30.06 83.6708 30.24C83.4308 30.42 83.2258 30.625 83.0558 30.855C82.8958 31.085 82.7708 31.32 82.6808 31.56L81.5558 31.05Z" fill="#777F8C"/>
<path d="M126.63 16.9H120.165V15.94L126.78 8.5H127.89V15.625H129.84V16.9H127.89V19H126.63V16.9ZM126.63 15.625V10.6L121.965 15.625H126.63ZM130.678 18.145C130.678 17.945 130.763 17.755 130.933 17.575C131.103 17.395 131.328 17.305 131.608 17.305C131.868 17.305 132.083 17.395 132.253 17.575C132.423 17.755 132.508 17.945 132.508 18.145C132.508 18.375 132.423 18.58 132.253 18.76C132.083 18.94 131.868 19.03 131.608 19.03C131.328 19.03 131.103 18.94 130.933 18.76C130.763 18.58 130.678 18.375 130.678 18.145ZM137.783 19.135C136.873 19.135 136.093 18.96 135.443 18.61C134.803 18.26 134.323 17.815 134.003 17.275L135.083 16.525C135.393 16.955 135.798 17.285 136.298 17.515C136.808 17.745 137.363 17.86 137.963 17.86C138.423 17.86 138.843 17.77 139.223 17.59C139.613 17.4 139.948 17.14 140.228 16.81C140.518 16.48 140.743 16.09 140.903 15.64C141.063 15.19 141.143 14.7 141.143 14.17C141.143 14.11 141.143 14.05 141.143 13.99C141.143 13.93 141.138 13.87 141.128 13.81C140.888 14.38 140.478 14.855 139.898 15.235C139.328 15.605 138.603 15.79 137.723 15.79C137.143 15.79 136.608 15.705 136.118 15.535C135.628 15.355 135.203 15.11 134.843 14.8C134.483 14.48 134.203 14.1 134.003 13.66C133.803 13.22 133.703 12.73 133.703 12.19C133.703 11.61 133.808 11.085 134.018 10.615C134.238 10.135 134.543 9.73 134.933 9.4C135.323 9.07 135.788 8.815 136.328 8.635C136.878 8.455 137.483 8.365 138.143 8.365C138.813 8.365 139.413 8.48 139.943 8.71C140.483 8.93 140.938 9.26 141.308 9.7C141.688 10.14 141.978 10.685 142.178 11.335C142.378 11.975 142.478 12.715 142.478 13.555C142.478 14.475 142.363 15.285 142.133 15.985C141.913 16.675 141.593 17.255 141.173 17.725C140.763 18.185 140.268 18.535 139.688 18.775C139.118 19.015 138.483 19.135 137.783 19.135ZM137.963 14.515C138.393 14.515 138.783 14.455 139.133 14.335C139.483 14.215 139.778 14.05 140.018 13.84C140.268 13.62 140.458 13.365 140.588 13.075C140.718 12.785 140.783 12.475 140.783 12.145C140.783 11.825 140.733 11.515 140.633 11.215C140.533 10.915 140.373 10.65 140.153 10.42C139.933 10.18 139.643 9.99 139.283 9.85C138.933 9.71 138.503 9.64 137.993 9.64C137.063 9.64 136.333 9.85 135.803 10.27C135.283 10.68 135.023 11.285 135.023 12.085C135.023 12.845 135.288 13.44 135.818 13.87C136.348 14.3 137.063 14.515 137.963 14.515Z" fill="#777F8C"/>
<path d="M157.645 9.75C157.645 8.97 157.735 8.255 157.915 7.605C158.095 6.945 158.365 6.375 158.725 5.895C159.095 5.415 159.56 5.04 160.12 4.77C160.68 4.5 161.34 4.365 162.1 4.365C162.86 4.365 163.52 4.49 164.08 4.74C164.64 4.99 165.105 5.35 165.475 5.82C165.845 6.29 166.12 6.86 166.3 7.53C166.48 8.19 166.57 8.93 166.57 9.75C166.57 10.53 166.48 11.25 166.3 11.91C166.13 12.56 165.86 13.125 165.49 13.605C165.13 14.085 164.67 14.46 164.11 14.73C163.55 15 162.89 15.135 162.13 15.135C161.41 15.135 160.77 15 160.21 14.73C159.65 14.46 159.18 14.085 158.8 13.605C158.42 13.125 158.13 12.56 157.93 11.91C157.74 11.25 157.645 10.53 157.645 9.75ZM158.965 9.75C158.965 11.03 159.245 12.035 159.805 12.765C160.365 13.495 161.14 13.86 162.13 13.86C163.21 13.86 164 13.495 164.5 12.765C165 12.035 165.25 11.03 165.25 9.75C165.25 8.47 164.995 7.465 164.485 6.735C163.975 6.005 163.18 5.64 162.1 5.64C161.56 5.64 161.095 5.735 160.705 5.925C160.315 6.115 159.99 6.39 159.73 6.75C159.47 7.11 159.275 7.545 159.145 8.055C159.025 8.555 158.965 9.12 158.965 9.75ZM167.795 14.145C167.795 13.945 167.88 13.755 168.05 13.575C168.22 13.395 168.445 13.305 168.725 13.305C168.985 13.305 169.2 13.395 169.37 13.575C169.54 13.755 169.625 13.945 169.625 14.145C169.625 14.375 169.54 14.58 169.37 14.76C169.2 14.94 168.985 15.03 168.725 15.03C168.445 15.03 168.22 14.94 168.05 14.76C167.88 14.58 167.795 14.375 167.795 14.145ZM175.456 15.135C174.756 15.135 174.121 15.025 173.551 14.805C172.991 14.585 172.511 14.26 172.111 13.83C171.711 13.39 171.401 12.855 171.181 12.225C170.971 11.595 170.866 10.865 170.866 10.035C170.866 9.095 170.991 8.27 171.241 7.56C171.491 6.85 171.826 6.26 172.246 5.79C172.676 5.31 173.171 4.955 173.731 4.725C174.301 4.485 174.901 4.365 175.531 4.365C176.441 4.365 177.216 4.55 177.856 4.92C178.496 5.29 178.961 5.79 179.251 6.42L178.231 7.11C177.941 6.66 177.566 6.305 177.106 6.045C176.656 5.775 176.111 5.64 175.471 5.64C174.971 5.64 174.521 5.74 174.121 5.94C173.721 6.13 173.376 6.41 173.086 6.78C172.796 7.14 172.571 7.58 172.411 8.1C172.251 8.61 172.166 9.185 172.156 9.825V9.99C172.296 9.66 172.486 9.37 172.726 9.12C172.976 8.87 173.256 8.66 173.566 8.49C173.876 8.32 174.206 8.195 174.556 8.115C174.916 8.025 175.281 7.98 175.651 7.98C176.261 7.98 176.811 8.065 177.301 8.235C177.791 8.405 178.206 8.645 178.546 8.955C178.896 9.265 179.161 9.635 179.341 10.065C179.521 10.495 179.611 10.97 179.611 11.49C179.611 12.03 179.501 12.525 179.281 12.975C179.071 13.425 178.776 13.81 178.396 14.13C178.026 14.45 177.586 14.7 177.076 14.88C176.576 15.05 176.036 15.135 175.456 15.135ZM175.441 13.86C175.861 13.86 176.241 13.805 176.581 13.695C176.931 13.585 177.231 13.43 177.481 13.23C177.741 13.02 177.941 12.775 178.081 12.495C178.221 12.215 178.291 11.9 178.291 11.55C178.291 11.17 178.221 10.84 178.081 10.56C177.951 10.27 177.766 10.03 177.526 9.84C177.286 9.64 176.996 9.495 176.656 9.405C176.326 9.305 175.966 9.255 175.576 9.255C174.616 9.255 173.886 9.46 173.386 9.87C172.896 10.28 172.651 10.805 172.651 11.445C172.651 11.775 172.716 12.085 172.846 12.375C172.976 12.665 173.161 12.92 173.401 13.14C173.641 13.36 173.931 13.535 174.271 13.665C174.621 13.795 175.011 13.86 175.441 13.86Z" fill="#777F8C"/>
</svg>
