<svg viewBox="0 0 355 304" fill="none" xmlns="http://www.w3.org/2000/svg">
<path d="M146.32 163.027C146.507 161.82 147.425 160.392 149.448 160.392C150.876 160.392 151.998 161.004 151.998 162.687C151.998 164.319 150.655 165.832 147.255 168.093L144.671 169.81V171H153.936V169.555H147.357L148.666 168.739C150.706 167.464 153.494 165.475 153.494 162.534C153.494 160.426 152.049 158.947 149.55 158.947C146.881 158.947 145.402 160.613 144.994 162.585L146.32 163.027ZM155.284 165.05C155.284 168.569 157.086 171.153 160.367 171.153C163.835 171.153 165.399 168.569 165.399 165.05C165.399 161.31 163.784 158.947 160.333 158.947C156.899 158.947 155.284 161.531 155.284 165.05ZM156.78 165.05C156.78 162.194 157.902 160.392 160.333 160.392C162.781 160.392 163.903 162.143 163.903 165.05C163.903 167.94 162.815 169.708 160.367 169.708C158.14 169.708 156.78 167.94 156.78 165.05ZM168.284 163.027C168.471 161.82 169.389 160.392 171.412 160.392C172.84 160.392 173.962 161.004 173.962 162.687C173.962 164.319 172.619 165.832 169.219 168.093L166.635 169.81V171H175.9V169.555H169.321L170.63 168.739C172.67 167.464 175.458 165.475 175.458 162.534C175.458 160.426 174.013 158.947 171.514 158.947C168.845 158.947 167.366 160.613 166.958 162.585L168.284 163.027ZM178.693 163.027C178.88 161.82 179.798 160.392 181.821 160.392C183.249 160.392 184.371 161.004 184.371 162.687C184.371 164.319 183.028 165.832 179.628 168.093L177.044 169.81V171H186.309V169.555H179.73L181.039 168.739C183.079 167.464 185.867 165.475 185.867 162.534C185.867 160.426 184.422 158.947 181.923 158.947C179.254 158.947 177.775 160.613 177.367 162.585L178.693 163.027Z" fill="#222429"/>
<path d="M167.414 29.8672C189.312 29.8672 210.889 35.1281 230.329 45.207C249.769 55.2859 266.503 69.8878 279.122 87.7835C291.741 105.679 299.876 126.345 302.843 148.04C305.809 169.736 303.519 191.827 296.166 212.453C288.814 233.079 276.613 251.637 260.592 266.564C244.57 281.491 225.197 292.35 204.103 298.228C183.009 304.106 160.812 304.829 139.38 300.338C117.948 295.847 97.9087 286.273 80.949 272.421L93.9187 256.541C108.334 268.315 125.368 276.454 143.585 280.271C161.802 284.088 180.67 283.473 198.6 278.477C216.53 273.481 232.997 264.251 246.615 251.563C260.233 238.875 270.604 223.101 276.853 205.568C283.103 188.036 285.05 169.259 282.528 150.818C280.007 132.376 273.092 114.811 262.366 99.5993C251.639 84.388 237.415 71.9764 220.891 63.4093C204.367 54.8422 186.027 50.3704 167.414 50.3704V29.8672Z" fill="#BFCED4"/>
<path d="M35.0771 132.341C41.8058 106.315 56.0588 82.8517 76.0534 64.8847L89.7575 80.1353C72.7621 95.4073 60.647 115.351 54.9276 137.473L35.0771 132.341Z" fill="#003E14"/>
<path d="M75.2717 65.5926C89.3759 52.7207 106.021 42.9466 124.133 36.9004L130.625 56.3487C115.23 61.488 101.082 69.7959 89.0931 80.7371L75.2717 65.5926Z" fill="#A3CF46"/>
<path d="M122.042 37.6172C135.304 32.9506 149.206 30.3579 163.258 29.9304L163.881 50.4242C151.937 50.7875 140.12 52.9914 128.848 56.958L122.042 37.6172Z" fill="#648494"/>
<path d="M161.527 29.994C163.612 29.9041 165.698 29.862 167.785 29.8677L167.729 50.3709C165.956 50.3661 164.182 50.4019 162.41 50.4782L161.527 29.994Z" fill="#222429"/>
<path d="M80.8193 272.315C60.6372 255.79 45.6048 233.836 37.4968 209.044C29.3888 184.252 28.5438 157.657 35.0617 132.4L54.9145 137.524C49.3743 158.992 50.0926 181.597 56.9844 202.67C63.8761 223.744 76.6537 242.405 93.8085 256.451L80.8193 272.315Z" fill="#5FAF2D"/>
<path d="M311.364 224.948C310.664 224.948 310.029 224.838 309.459 224.617C308.899 224.397 308.419 224.072 308.019 223.642C307.619 223.202 307.309 222.667 307.089 222.037C306.879 221.407 306.774 220.677 306.774 219.847C306.774 218.907 306.899 218.082 307.149 217.372C307.399 216.662 307.734 216.072 308.154 215.602C308.584 215.122 309.079 214.767 309.639 214.537C310.209 214.297 310.809 214.177 311.439 214.177C312.349 214.177 313.124 214.362 313.764 214.732C314.404 215.102 314.869 215.602 315.159 216.232L314.139 216.922C313.849 216.472 313.474 216.117 313.014 215.857C312.564 215.587 312.019 215.452 311.379 215.452C310.879 215.452 310.429 215.552 310.029 215.752C309.629 215.942 309.284 216.222 308.994 216.592C308.704 216.952 308.479 217.392 308.319 217.912C308.159 218.422 308.074 218.997 308.064 219.637V219.802C308.204 219.472 308.394 219.182 308.634 218.932C308.884 218.682 309.164 218.472 309.474 218.302C309.784 218.132 310.114 218.007 310.464 217.927C310.824 217.837 311.189 217.792 311.559 217.792C312.169 217.792 312.719 217.877 313.209 218.047C313.699 218.217 314.114 218.457 314.454 218.767C314.804 219.077 315.069 219.447 315.249 219.877C315.429 220.307 315.519 220.782 315.519 221.302C315.519 221.842 315.409 222.337 315.189 222.787C314.979 223.237 314.684 223.622 314.304 223.942C313.934 224.262 313.494 224.512 312.984 224.692C312.484 224.863 311.944 224.948 311.364 224.948ZM311.349 223.672C311.769 223.672 312.149 223.617 312.489 223.507C312.839 223.397 313.139 223.242 313.389 223.042C313.649 222.832 313.849 222.587 313.989 222.307C314.129 222.027 314.199 221.712 314.199 221.362C314.199 220.982 314.129 220.652 313.989 220.372C313.859 220.082 313.674 219.842 313.434 219.652C313.194 219.452 312.904 219.307 312.564 219.217C312.234 219.117 311.874 219.067 311.484 219.067C310.524 219.067 309.794 219.272 309.294 219.682C308.804 220.092 308.559 220.617 308.559 221.257C308.559 221.587 308.624 221.897 308.754 222.187C308.884 222.477 309.069 222.732 309.309 222.952C309.549 223.172 309.839 223.347 310.179 223.477C310.529 223.607 310.919 223.672 311.349 223.672ZM316.599 219.562C316.599 218.782 316.689 218.067 316.869 217.417C317.049 216.757 317.319 216.187 317.679 215.707C318.049 215.227 318.514 214.852 319.074 214.582C319.634 214.312 320.294 214.177 321.054 214.177C321.814 214.177 322.474 214.302 323.034 214.552C323.594 214.802 324.059 215.162 324.429 215.632C324.799 216.102 325.074 216.672 325.254 217.342C325.434 218.002 325.524 218.742 325.524 219.562C325.524 220.342 325.434 221.062 325.254 221.722C325.084 222.372 324.814 222.937 324.444 223.417C324.084 223.897 323.624 224.272 323.064 224.542C322.504 224.812 321.844 224.948 321.084 224.948C320.364 224.948 319.724 224.812 319.164 224.542C318.604 224.272 318.134 223.897 317.754 223.417C317.374 222.937 317.084 222.372 316.884 221.722C316.694 221.062 316.599 220.342 316.599 219.562ZM317.919 219.562C317.919 220.842 318.199 221.847 318.759 222.577C319.319 223.307 320.094 223.672 321.084 223.672C322.164 223.672 322.954 223.307 323.454 222.577C323.954 221.847 324.204 220.842 324.204 219.562C324.204 218.282 323.949 217.277 323.439 216.548C322.929 215.817 322.134 215.452 321.054 215.452C320.514 215.452 320.049 215.547 319.659 215.737C319.269 215.927 318.944 216.202 318.684 216.562C318.424 216.922 318.229 217.357 318.099 217.867C317.979 218.367 317.919 218.932 317.919 219.562ZM326.75 223.957C326.75 223.757 326.835 223.567 327.005 223.387C327.175 223.207 327.4 223.117 327.68 223.117C327.94 223.117 328.155 223.207 328.325 223.387C328.495 223.567 328.58 223.757 328.58 223.957C328.58 224.187 328.495 224.392 328.325 224.572C328.155 224.752 327.94 224.843 327.68 224.843C327.4 224.843 327.175 224.752 327.005 224.572C326.835 224.392 326.75 224.187 326.75 223.957ZM333.855 224.948C332.945 224.948 332.165 224.773 331.515 224.422C330.875 224.072 330.395 223.627 330.075 223.087L331.155 222.337C331.465 222.767 331.87 223.097 332.37 223.327C332.88 223.557 333.435 223.672 334.035 223.672C334.495 223.672 334.915 223.582 335.295 223.402C335.685 223.212 336.02 222.952 336.3 222.622C336.59 222.292 336.815 221.902 336.975 221.452C337.135 221.002 337.215 220.512 337.215 219.982C337.215 219.922 337.215 219.862 337.215 219.802C337.215 219.742 337.21 219.682 337.2 219.622C336.96 220.192 336.55 220.667 335.97 221.047C335.4 221.417 334.675 221.602 333.795 221.602C333.215 221.602 332.68 221.517 332.19 221.347C331.7 221.167 331.275 220.922 330.915 220.612C330.555 220.292 330.275 219.912 330.075 219.472C329.875 219.032 329.775 218.542 329.775 218.002C329.775 217.422 329.88 216.897 330.09 216.427C330.31 215.947 330.615 215.542 331.005 215.212C331.395 214.882 331.86 214.627 332.4 214.447C332.95 214.267 333.555 214.177 334.215 214.177C334.885 214.177 335.485 214.292 336.015 214.522C336.555 214.742 337.01 215.072 337.38 215.512C337.76 215.952 338.05 216.497 338.25 217.147C338.45 217.787 338.55 218.527 338.55 219.367C338.55 220.287 338.435 221.097 338.205 221.797C337.985 222.487 337.665 223.068 337.245 223.537C336.835 223.997 336.34 224.347 335.76 224.587C335.19 224.828 334.555 224.948 333.855 224.948ZM334.035 220.327C334.465 220.327 334.855 220.267 335.205 220.147C335.555 220.027 335.85 219.862 336.09 219.652C336.34 219.432 336.53 219.177 336.66 218.887C336.79 218.597 336.855 218.287 336.855 217.957C336.855 217.637 336.805 217.327 336.705 217.027C336.605 216.727 336.445 216.462 336.225 216.232C336.005 215.992 335.715 215.802 335.355 215.662C335.005 215.522 334.575 215.452 334.065 215.452C333.135 215.452 332.405 215.662 331.875 216.082C331.355 216.492 331.095 217.097 331.095 217.897C331.095 218.657 331.36 219.252 331.89 219.682C332.42 220.112 333.135 220.327 334.035 220.327Z" fill="#777F8C"/>
<path d="M3.645 209.44H4.5V220H3.24V211.045L0.525 212.29L0.045 211.165L3.645 209.44ZM11.018 214.015C11.358 214.015 11.673 213.975 11.963 213.895C12.263 213.805 12.523 213.685 12.743 213.535C12.963 213.385 13.133 213.205 13.253 212.995C13.383 212.785 13.448 212.555 13.448 212.305C13.448 211.765 13.223 211.355 12.773 211.075C12.333 210.785 11.658 210.64 10.748 210.64C9.86797 210.64 9.20297 210.785 8.75297 211.075C8.31297 211.365 8.09297 211.775 8.09297 212.305C8.09297 212.545 8.15297 212.77 8.27297 212.98C8.39297 213.19 8.55797 213.375 8.76797 213.535C8.98797 213.685 9.24797 213.805 9.54797 213.895C9.85797 213.975 10.193 214.015 10.553 214.015H11.018ZM10.613 215.2C10.193 215.2 9.80297 215.25 9.44297 215.35C9.09297 215.44 8.79297 215.57 8.54297 215.74C8.29297 215.9 8.09797 216.095 7.95797 216.325C7.81797 216.545 7.74797 216.78 7.74797 217.03C7.74797 217.57 7.99797 218.01 8.49797 218.35C9.00797 218.69 9.76297 218.86 10.763 218.86C11.793 218.86 12.553 218.7 13.043 218.38C13.533 218.05 13.778 217.605 13.778 217.045C13.778 216.455 13.523 216 13.013 215.68C12.513 215.36 11.838 215.2 10.988 215.2H10.613ZM10.778 220.135C10.108 220.135 9.50297 220.07 8.96297 219.94C8.43297 219.8 7.97797 219.605 7.59797 219.355C7.22797 219.095 6.93797 218.785 6.72797 218.425C6.52797 218.055 6.42797 217.635 6.42797 217.165C6.42797 216.545 6.61297 216.01 6.98297 215.56C7.36297 215.1 7.86797 214.77 8.49797 214.57C8.19797 214.47 7.93797 214.34 7.71797 214.18C7.49797 214.01 7.31797 213.82 7.17797 213.61C7.03797 213.4 6.93297 213.18 6.86297 212.95C6.80297 212.71 6.77297 212.465 6.77297 212.215C6.77297 211.345 7.11297 210.655 7.79297 210.145C8.48297 209.625 9.47297 209.365 10.763 209.365C12.063 209.365 13.053 209.625 13.733 210.145C14.423 210.655 14.768 211.345 14.768 212.215C14.768 212.755 14.618 213.21 14.318 213.58C14.028 213.95 13.623 214.255 13.103 214.495C13.823 214.715 14.333 215.045 14.633 215.485C14.943 215.925 15.098 216.465 15.098 217.105C15.098 217.585 14.998 218.015 14.798 218.395C14.598 218.765 14.308 219.08 13.928 219.34C13.558 219.6 13.103 219.8 12.563 219.94C12.033 220.07 11.438 220.135 10.778 220.135ZM16.3729 219.145C16.3729 218.945 16.4579 218.755 16.6279 218.575C16.7979 218.395 17.0229 218.305 17.3029 218.305C17.5629 218.305 17.7779 218.395 17.9479 218.575C18.1179 218.755 18.2029 218.945 18.2029 219.145C18.2029 219.375 18.1179 219.58 17.9479 219.76C17.7779 219.94 17.5629 220.03 17.3029 220.03C17.0229 220.03 16.7979 219.94 16.6279 219.76C16.4579 219.58 16.3729 219.375 16.3729 219.145ZM22.443 209.44H23.298V220H22.038V211.045L19.323 212.29L18.843 211.165L22.443 209.44Z" fill="#777F8C"/>
<path d="M22.68 91.135C21.77 91.135 20.99 90.96 20.34 90.61C19.7 90.26 19.22 89.815 18.9 89.275L19.98 88.525C20.29 88.955 20.695 89.285 21.195 89.515C21.705 89.745 22.26 89.86 22.86 89.86C23.32 89.86 23.74 89.77 24.12 89.59C24.51 89.4 24.845 89.14 25.125 88.81C25.415 88.48 25.64 88.09 25.8 87.64C25.96 87.19 26.04 86.7 26.04 86.17C26.04 86.11 26.04 86.05 26.04 85.99C26.04 85.93 26.035 85.87 26.025 85.81C25.785 86.38 25.375 86.855 24.795 87.235C24.225 87.605 23.5 87.79 22.62 87.79C22.04 87.79 21.505 87.705 21.015 87.535C20.525 87.355 20.1 87.11 19.74 86.8C19.38 86.48 19.1 86.1 18.9 85.66C18.7 85.22 18.6 84.73 18.6 84.19C18.6 83.61 18.705 83.085 18.915 82.615C19.135 82.135 19.44 81.73 19.83 81.4C20.22 81.07 20.685 80.815 21.225 80.635C21.775 80.455 22.38 80.365 23.04 80.365C23.71 80.365 24.31 80.48 24.84 80.71C25.38 80.93 25.835 81.26 26.205 81.7C26.585 82.14 26.875 82.685 27.075 83.335C27.275 83.975 27.375 84.715 27.375 85.555C27.375 86.475 27.26 87.285 27.03 87.985C26.81 88.675 26.49 89.255 26.07 89.725C25.66 90.185 25.165 90.535 24.585 90.775C24.015 91.015 23.38 91.135 22.68 91.135ZM22.86 86.515C23.29 86.515 23.68 86.455 24.03 86.335C24.38 86.215 24.675 86.05 24.915 85.84C25.165 85.62 25.355 85.365 25.485 85.075C25.615 84.785 25.68 84.475 25.68 84.145C25.68 83.825 25.63 83.515 25.53 83.215C25.43 82.915 25.27 82.65 25.05 82.42C24.83 82.18 24.54 81.99 24.18 81.85C23.83 81.71 23.4 81.64 22.89 81.64C21.96 81.64 21.23 81.85 20.7 82.27C20.18 82.68 19.92 83.285 19.92 84.085C19.92 84.845 20.185 85.44 20.715 85.87C21.245 86.3 21.96 86.515 22.86 86.515ZM28.6049 90.145C28.6049 89.945 28.6899 89.755 28.8599 89.575C29.0299 89.395 29.2549 89.305 29.5349 89.305C29.7949 89.305 30.0099 89.395 30.1799 89.575C30.3499 89.755 30.4349 89.945 30.4349 90.145C30.4349 90.375 30.3499 90.58 30.1799 90.76C30.0099 90.94 29.7949 91.03 29.5349 91.03C29.2549 91.03 29.0299 90.94 28.8599 90.76C28.6899 90.58 28.6049 90.375 28.6049 90.145ZM31.5851 83.05C31.7251 82.66 31.9151 82.305 32.1551 81.985C32.3951 81.655 32.6851 81.37 33.0251 81.13C33.3751 80.89 33.7751 80.705 34.2251 80.575C34.6851 80.435 35.2001 80.365 35.7701 80.365C36.2801 80.365 36.7501 80.43 37.1801 80.56C37.6201 80.68 37.9951 80.855 38.3051 81.085C38.6251 81.305 38.8701 81.58 39.0401 81.91C39.2201 82.24 39.3101 82.605 39.3101 83.005C39.3101 83.615 39.1501 84.135 38.8301 84.565C38.5201 84.995 38.0651 85.295 37.4651 85.465C37.7251 85.485 37.9801 85.55 38.2301 85.66C38.4801 85.76 38.7001 85.915 38.8901 86.125C39.0901 86.325 39.2501 86.58 39.3701 86.89C39.4901 87.19 39.5501 87.55 39.5501 87.97C39.5501 88.48 39.4501 88.935 39.2501 89.335C39.0601 89.725 38.7901 90.055 38.4401 90.325C38.1001 90.585 37.6951 90.785 37.2251 90.925C36.7551 91.065 36.2501 91.135 35.7101 91.135C35.1201 91.135 34.5801 91.065 34.0901 90.925C33.6101 90.785 33.1851 90.595 32.8151 90.355C32.4451 90.105 32.1301 89.81 31.8701 89.47C31.6201 89.12 31.4301 88.735 31.3001 88.315L32.5151 87.79C32.6451 88.06 32.8001 88.32 32.9801 88.57C33.1601 88.82 33.3801 89.04 33.6401 89.23C33.9001 89.42 34.2051 89.575 34.5551 89.695C34.9051 89.805 35.3201 89.86 35.8001 89.86C36.5501 89.86 37.1401 89.7 37.5701 89.38C38.0101 89.05 38.2301 88.585 38.2301 87.985C38.2301 87.655 38.1601 87.38 38.0201 87.16C37.8801 86.93 37.6851 86.75 37.4351 86.62C37.1851 86.48 36.8901 86.385 36.5501 86.335C36.2201 86.275 35.8601 86.245 35.4701 86.245H34.3001V85H35.2301C36.1001 85 36.7751 84.835 37.2551 84.505C37.7451 84.175 37.9901 83.76 37.9901 83.26C37.9901 82.72 37.7851 82.315 37.3751 82.045C36.9651 81.775 36.4101 81.64 35.7101 81.64C35.2801 81.64 34.9001 81.695 34.5701 81.805C34.2401 81.915 33.9501 82.06 33.7001 82.24C33.4601 82.42 33.2551 82.625 33.0851 82.855C32.9251 83.085 32.8001 83.32 32.7101 83.56L31.5851 83.05Z" fill="#777F8C"/>
<path d="M73.235 39.135C72.535 39.135 71.9 39.025 71.33 38.805C70.77 38.585 70.29 38.26 69.89 37.83C69.49 37.39 69.18 36.855 68.96 36.225C68.75 35.595 68.645 34.865 68.645 34.035C68.645 33.095 68.77 32.27 69.02 31.56C69.27 30.85 69.605 30.26 70.025 29.79C70.455 29.31 70.95 28.955 71.51 28.725C72.08 28.485 72.68 28.365 73.31 28.365C74.22 28.365 74.995 28.55 75.635 28.92C76.275 29.29 76.74 29.79 77.03 30.42L76.01 31.11C75.72 30.66 75.345 30.305 74.885 30.045C74.435 29.775 73.89 29.64 73.25 29.64C72.75 29.64 72.3 29.74 71.9 29.94C71.5 30.13 71.155 30.41 70.865 30.78C70.575 31.14 70.35 31.58 70.19 32.1C70.03 32.61 69.945 33.185 69.935 33.825V33.99C70.075 33.66 70.265 33.37 70.505 33.12C70.755 32.87 71.035 32.66 71.345 32.49C71.655 32.32 71.985 32.195 72.335 32.115C72.695 32.025 73.06 31.98 73.43 31.98C74.04 31.98 74.59 32.065 75.08 32.235C75.57 32.405 75.985 32.645 76.325 32.955C76.675 33.265 76.94 33.635 77.12 34.065C77.3 34.495 77.39 34.97 77.39 35.49C77.39 36.03 77.28 36.525 77.06 36.975C76.85 37.425 76.555 37.81 76.175 38.13C75.805 38.45 75.365 38.7 74.855 38.88C74.355 39.05 73.815 39.135 73.235 39.135ZM73.22 37.86C73.64 37.86 74.02 37.805 74.36 37.695C74.71 37.585 75.01 37.43 75.26 37.23C75.52 37.02 75.72 36.775 75.86 36.495C76 36.215 76.07 35.9 76.07 35.55C76.07 35.17 76 34.84 75.86 34.56C75.73 34.27 75.545 34.03 75.305 33.84C75.065 33.64 74.775 33.495 74.435 33.405C74.105 33.305 73.745 33.255 73.355 33.255C72.395 33.255 71.665 33.46 71.165 33.87C70.675 34.28 70.43 34.805 70.43 35.445C70.43 35.775 70.495 36.085 70.625 36.375C70.755 36.665 70.94 36.92 71.18 37.14C71.42 37.36 71.71 37.535 72.05 37.665C72.4 37.795 72.79 37.86 73.22 37.86ZM78.5756 38.145C78.5756 37.945 78.6606 37.755 78.8306 37.575C79.0006 37.395 79.2256 37.305 79.5056 37.305C79.7656 37.305 79.9806 37.395 80.1506 37.575C80.3206 37.755 80.4056 37.945 80.4056 38.145C80.4056 38.375 80.3206 38.58 80.1506 38.76C79.9806 38.94 79.7656 39.03 79.5056 39.03C79.2256 39.03 79.0006 38.94 78.8306 38.76C78.6606 38.58 78.5756 38.375 78.5756 38.145ZM81.7508 31.575C81.8408 31.145 81.9908 30.735 82.2008 30.345C82.4108 29.955 82.6808 29.615 83.0108 29.325C83.3408 29.025 83.7358 28.79 84.1958 28.62C84.6558 28.45 85.1808 28.365 85.7708 28.365C86.3208 28.365 86.8108 28.445 87.2408 28.605C87.6708 28.755 88.0358 28.97 88.3358 29.25C88.6358 29.53 88.8608 29.865 89.0108 30.255C89.1708 30.645 89.2508 31.07 89.2508 31.53C89.2508 32.18 89.1108 32.78 88.8308 33.33C88.5608 33.87 88.2158 34.365 87.7958 34.815C87.3758 35.265 86.9158 35.675 86.4158 36.045C85.9158 36.405 85.4408 36.725 84.9908 37.005L83.8358 37.725H89.6408V39H81.4658V37.95L83.7458 36.435C84.4958 35.935 85.1358 35.475 85.6658 35.055C86.1958 34.625 86.6258 34.22 86.9558 33.84C87.2958 33.46 87.5408 33.095 87.6908 32.745C87.8508 32.385 87.9308 32.025 87.9308 31.665C87.9308 31.295 87.8708 30.98 87.7508 30.72C87.6408 30.46 87.4808 30.25 87.2708 30.09C87.0708 29.93 86.8308 29.815 86.5508 29.745C86.2808 29.675 85.9908 29.64 85.6808 29.64C85.2308 29.64 84.8408 29.71 84.5108 29.85C84.1908 29.99 83.9158 30.175 83.6858 30.405C83.4658 30.625 83.2908 30.875 83.1608 31.155C83.0408 31.425 82.9608 31.695 82.9208 31.965L81.7508 31.575Z" fill="#777F8C"/>
<path d="M126.63 16.9H120.165V15.94L126.78 8.5H127.89V15.625H129.84V16.9H127.89V19H126.63V16.9ZM126.63 15.625V10.6L121.965 15.625H126.63ZM130.678 18.145C130.678 17.945 130.763 17.755 130.933 17.575C131.103 17.395 131.328 17.305 131.608 17.305C131.868 17.305 132.083 17.395 132.253 17.575C132.423 17.755 132.508 17.945 132.508 18.145C132.508 18.375 132.423 18.58 132.253 18.76C132.083 18.94 131.868 19.03 131.608 19.03C131.328 19.03 131.103 18.94 130.933 18.76C130.763 18.58 130.678 18.375 130.678 18.145ZM138.353 13.015C138.693 13.015 139.008 12.975 139.298 12.895C139.598 12.805 139.858 12.685 140.078 12.535C140.298 12.385 140.468 12.205 140.588 11.995C140.718 11.785 140.783 11.555 140.783 11.305C140.783 10.765 140.558 10.355 140.108 10.075C139.668 9.785 138.993 9.64 138.083 9.64C137.203 9.64 136.538 9.785 136.088 10.075C135.648 10.365 135.428 10.775 135.428 11.305C135.428 11.545 135.488 11.77 135.608 11.98C135.728 12.19 135.893 12.375 136.103 12.535C136.323 12.685 136.583 12.805 136.883 12.895C137.193 12.975 137.528 13.015 137.888 13.015H138.353ZM137.948 14.2C137.528 14.2 137.138 14.25 136.778 14.35C136.428 14.44 136.128 14.57 135.878 14.74C135.628 14.9 135.433 15.095 135.293 15.325C135.153 15.545 135.083 15.78 135.083 16.03C135.083 16.57 135.333 17.01 135.833 17.35C136.343 17.69 137.098 17.86 138.098 17.86C139.128 17.86 139.888 17.7 140.378 17.38C140.868 17.05 141.113 16.605 141.113 16.045C141.113 15.455 140.858 15 140.348 14.68C139.848 14.36 139.173 14.2 138.323 14.2H137.948ZM138.113 19.135C137.443 19.135 136.838 19.07 136.298 18.94C135.768 18.8 135.313 18.605 134.933 18.355C134.563 18.095 134.273 17.785 134.063 17.425C133.863 17.055 133.763 16.635 133.763 16.165C133.763 15.545 133.948 15.01 134.318 14.56C134.698 14.1 135.203 13.77 135.833 13.57C135.533 13.47 135.273 13.34 135.053 13.18C134.833 13.01 134.653 12.82 134.513 12.61C134.373 12.4 134.268 12.18 134.198 11.95C134.138 11.71 134.108 11.465 134.108 11.215C134.108 10.345 134.448 9.655 135.128 9.145C135.818 8.625 136.808 8.365 138.098 8.365C139.398 8.365 140.388 8.625 141.068 9.145C141.758 9.655 142.103 10.345 142.103 11.215C142.103 11.755 141.953 12.21 141.653 12.58C141.363 12.95 140.958 13.255 140.438 13.495C141.158 13.715 141.668 14.045 141.968 14.485C142.278 14.925 142.433 15.465 142.433 16.105C142.433 16.585 142.333 17.015 142.133 17.395C141.933 17.765 141.643 18.08 141.263 18.34C140.893 18.6 140.438 18.8 139.898 18.94C139.368 19.07 138.773 19.135 138.113 19.135Z" fill="#777F8C"/>
<path d="M157.645 9.75C157.645 8.97 157.735 8.255 157.915 7.605C158.095 6.945 158.365 6.375 158.725 5.895C159.095 5.415 159.56 5.04 160.12 4.77C160.68 4.5 161.34 4.365 162.1 4.365C162.86 4.365 163.52 4.49 164.08 4.74C164.64 4.99 165.105 5.35 165.475 5.82C165.845 6.29 166.12 6.86 166.3 7.53C166.48 8.19 166.57 8.93 166.57 9.75C166.57 10.53 166.48 11.25 166.3 11.91C166.13 12.56 165.86 13.125 165.49 13.605C165.13 14.085 164.67 14.46 164.11 14.73C163.55 15 162.89 15.135 162.13 15.135C161.41 15.135 160.77 15 160.21 14.73C159.65 14.46 159.18 14.085 158.8 13.605C158.42 13.125 158.13 12.56 157.93 11.91C157.74 11.25 157.645 10.53 157.645 9.75ZM158.965 9.75C158.965 11.03 159.245 12.035 159.805 12.765C160.365 13.495 161.14 13.86 162.13 13.86C163.21 13.86 164 13.495 164.5 12.765C165 12.035 165.25 11.03 165.25 9.75C165.25 8.47 164.995 7.465 164.485 6.735C163.975 6.005 163.18 5.64 162.1 5.64C161.56 5.64 161.095 5.735 160.705 5.925C160.315 6.115 159.99 6.39 159.73 6.75C159.47 7.11 159.275 7.545 159.145 8.055C159.025 8.555 158.965 9.12 158.965 9.75ZM167.795 14.145C167.795 13.945 167.88 13.755 168.05 13.575C168.22 13.395 168.445 13.305 168.725 13.305C168.985 13.305 169.2 13.395 169.37 13.575C169.54 13.755 169.625 13.945 169.625 14.145C169.625 14.375 169.54 14.58 169.37 14.76C169.2 14.94 168.985 15.03 168.725 15.03C168.445 15.03 168.22 14.94 168.05 14.76C167.88 14.58 167.795 14.375 167.795 14.145ZM175.456 15.135C174.756 15.135 174.121 15.025 173.551 14.805C172.991 14.585 172.511 14.26 172.111 13.83C171.711 13.39 171.401 12.855 171.181 12.225C170.971 11.595 170.866 10.865 170.866 10.035C170.866 9.095 170.991 8.27 171.241 7.56C171.491 6.85 171.826 6.26 172.246 5.79C172.676 5.31 173.171 4.955 173.731 4.725C174.301 4.485 174.901 4.365 175.531 4.365C176.441 4.365 177.216 4.55 177.856 4.92C178.496 5.29 178.961 5.79 179.251 6.42L178.231 7.11C177.941 6.66 177.566 6.305 177.106 6.045C176.656 5.775 176.111 5.64 175.471 5.64C174.971 5.64 174.521 5.74 174.121 5.94C173.721 6.13 173.376 6.41 173.086 6.78C172.796 7.14 172.571 7.58 172.411 8.1C172.251 8.61 172.166 9.185 172.156 9.825V9.99C172.296 9.66 172.486 9.37 172.726 9.12C172.976 8.87 173.256 8.66 173.566 8.49C173.876 8.32 174.206 8.195 174.556 8.115C174.916 8.025 175.281 7.98 175.651 7.98C176.261 7.98 176.811 8.065 177.301 8.235C177.791 8.405 178.206 8.645 178.546 8.955C178.896 9.265 179.161 9.635 179.341 10.065C179.521 10.495 179.611 10.97 179.611 11.49C179.611 12.03 179.501 12.525 179.281 12.975C179.071 13.425 178.776 13.81 178.396 14.13C178.026 14.45 177.586 14.7 177.076 14.88C176.576 15.05 176.036 15.135 175.456 15.135ZM175.441 13.86C175.861 13.86 176.241 13.805 176.581 13.695C176.931 13.585 177.231 13.43 177.481 13.23C177.741 13.02 177.941 12.775 178.081 12.495C178.221 12.215 178.291 11.9 178.291 11.55C178.291 11.17 178.221 10.84 178.081 10.56C177.951 10.27 177.766 10.03 177.526 9.84C177.286 9.64 176.996 9.495 176.656 9.405C176.326 9.305 175.966 9.255 175.576 9.255C174.616 9.255 173.886 9.46 173.386 9.87C172.896 10.28 172.651 10.805 172.651 11.445C172.651 11.775 172.716 12.085 172.846 12.375C172.976 12.665 173.161 12.92 173.401 13.14C173.641 13.36 173.931 13.535 174.271 13.665C174.621 13.795 175.011 13.86 175.441 13.86Z" fill="#777F8C"/>
</svg>
