<svg width="344" height="262" viewBox="0 0 344 262" fill="none" xmlns="http://www.w3.org/2000/svg">
<path d="M53.9141 254.434C54.0681 253.44 54.8241 252.264 56.4901 252.264C57.6661 252.264 58.5901 252.768 58.5901 254.154C58.5901 255.498 57.4841 256.744 54.6841 258.606L52.5561 260.02V261H60.1861V259.81H54.7681L55.8461 259.138C57.5261 258.088 59.8221 256.45 59.8221 254.028C59.8221 252.292 58.6321 251.074 56.5741 251.074C54.3761 251.074 53.1581 252.446 52.8221 254.07L53.9141 254.434ZM61.1564 256.1C61.1564 258.998 62.6404 261.126 65.3424 261.126C68.1984 261.126 69.4864 258.998 69.4864 256.1C69.4864 253.02 68.1564 251.074 65.3144 251.074C62.4864 251.074 61.1564 253.202 61.1564 256.1ZM62.3884 256.1C62.3884 253.748 63.3124 252.264 65.3144 252.264C67.3304 252.264 68.2544 253.706 68.2544 256.1C68.2544 258.48 67.3584 259.936 65.3424 259.936C63.5084 259.936 62.3884 258.48 62.3884 256.1ZM71.722 254.434C71.876 253.44 72.632 252.264 74.298 252.264C75.474 252.264 76.398 252.768 76.398 254.154C76.398 255.498 75.292 256.744 72.492 258.606L70.364 260.02V261H77.994V259.81H72.576L73.654 259.138C75.334 258.088 77.63 256.45 77.63 254.028C77.63 252.292 76.44 251.074 74.382 251.074C72.184 251.074 70.966 252.446 70.63 254.07L71.722 254.434ZM78.9643 256.1C78.9643 258.998 80.4483 261.126 83.1503 261.126C86.0063 261.126 87.2943 258.998 87.2943 256.1C87.2943 253.02 85.9643 251.074 83.1223 251.074C80.2943 251.074 78.9643 253.202 78.9643 256.1ZM80.1963 256.1C80.1963 253.748 81.1203 252.264 83.1223 252.264C85.1383 252.264 86.0623 253.706 86.0623 256.1C86.0623 258.48 85.1663 259.936 83.1503 259.936C81.3163 259.936 80.1963 258.48 80.1963 256.1Z" fill="#777F8C"/>
<rect x="40" y="50" width="60" height="191" fill="#BFCED4"/>
<rect x="40" y="50" width="60" height="4" fill="#A6B2BC"/>
<path d="M51.2859 35.203L52.5099 35.526C53.2069 34.829 53.9549 34.506 55.1449 34.506C57.2359 34.506 58.5109 35.509 58.5109 37.107C58.5109 38.501 57.5079 39.708 55.3999 39.708C53.5639 39.708 52.3739 38.705 51.9149 37.668L50.5549 38.246C51.3199 40.133 53.2409 41.153 55.3999 41.153C58.0349 41.153 60.0069 39.436 60.0069 37.056C60.0069 34.812 58.4089 33.061 55.5529 33.061C54.2779 33.061 53.3599 33.367 52.8499 33.741L53.2919 30.545H59.4629V29.1H51.9829L51.2859 35.203ZM61.5863 40.031C61.5863 40.558 62.0113 41.034 62.6403 41.034C63.2353 41.034 63.6603 40.558 63.6603 40.031C63.6603 39.572 63.2353 39.079 62.6403 39.079C62.0113 39.079 61.5863 39.572 61.5863 40.031ZM66.4089 32.568C66.8169 31.48 67.8709 30.392 69.8089 30.392C71.3899 30.392 72.3929 31.021 72.3929 32.228C72.3929 33.35 71.2199 34.2 69.2649 34.2H68.2109V35.611H69.5369C71.3049 35.611 72.6649 36.07 72.6649 37.583C72.6649 38.943 71.6109 39.708 69.9109 39.708C67.7519 39.708 66.7829 38.603 66.1879 37.362L64.8109 37.957C65.3889 39.844 67.1399 41.153 69.8089 41.153C72.2739 41.153 74.1609 39.878 74.1609 37.566C74.1609 35.662 72.9709 34.812 71.7979 34.727C73.1579 34.336 73.8889 33.316 73.8889 31.939C73.8889 30.103 72.2059 28.947 69.8769 28.947C67.2929 28.947 65.7629 30.239 65.1339 31.99L66.4089 32.568ZM77.5641 40.609L78.6861 41.255L87.4241 29.508L86.3531 28.726L77.5641 40.609ZM75.7281 31.956C75.7281 33.656 77.0711 34.846 78.8391 34.846C80.5901 34.846 81.9331 33.656 81.9331 31.956C81.9331 30.239 80.5901 29.049 78.8391 29.049C77.0711 29.049 75.7281 30.239 75.7281 31.956ZM77.1561 31.956C77.1561 30.936 77.9381 30.273 78.8391 30.273C79.7231 30.273 80.5051 30.936 80.5051 31.956C80.5051 32.976 79.7231 33.639 78.8391 33.639C77.9721 33.639 77.1561 32.976 77.1561 31.956ZM83.0211 38.161C83.0211 39.861 84.3641 41.068 86.1321 41.068C87.8831 41.068 89.2261 39.861 89.2261 38.161C89.2261 36.461 87.8831 35.271 86.1321 35.271C84.3641 35.271 83.0211 36.461 83.0211 38.161ZM84.4491 38.161C84.4491 37.141 85.2311 36.478 86.1321 36.478C87.0161 36.478 87.7981 37.141 87.7981 38.161C87.7981 39.181 87.0161 39.844 86.1321 39.844C85.2651 39.844 84.4491 39.181 84.4491 38.161Z" fill="#222429"/>
<path d="M155.91 254.434C156.064 253.44 156.82 252.264 158.486 252.264C159.662 252.264 160.586 252.768 160.586 254.154C160.586 255.498 159.48 256.744 156.68 258.606L154.552 260.02V261H162.182V259.81H156.764L157.842 259.138C159.522 258.088 161.818 256.45 161.818 254.028C161.818 252.292 160.628 251.074 158.57 251.074C156.372 251.074 155.154 252.446 154.818 254.07L155.91 254.434ZM163.152 256.1C163.152 258.998 164.636 261.126 167.338 261.126C170.194 261.126 171.482 258.998 171.482 256.1C171.482 253.02 170.152 251.074 167.31 251.074C164.482 251.074 163.152 253.202 163.152 256.1ZM164.384 256.1C164.384 253.748 165.308 252.264 167.31 252.264C169.326 252.264 170.25 253.706 170.25 256.1C170.25 258.48 169.354 259.936 167.338 259.936C165.504 259.936 164.384 258.48 164.384 256.1ZM173.718 254.434C173.872 253.44 174.628 252.264 176.294 252.264C177.47 252.264 178.394 252.768 178.394 254.154C178.394 255.498 177.288 256.744 174.488 258.606L172.36 260.02V261H179.99V259.81H174.572L175.65 259.138C177.33 258.088 179.626 256.45 179.626 254.028C179.626 252.292 178.436 251.074 176.378 251.074C174.18 251.074 172.962 252.446 172.626 254.07L173.718 254.434ZM180.4 252.754L180.848 253.804L183.382 252.642V261H184.558V251.144H183.76L180.4 252.754Z" fill="#777F8C"/>
<rect x="140" y="36" width="60" height="205" fill="#BFCED4"/>
<rect x="140" y="36" width="60" height="4" fill="#A6B2BC"/>
<path d="M151.676 21.203L152.9 21.526C153.597 20.829 154.345 20.506 155.535 20.506C157.626 20.506 158.901 21.509 158.901 23.107C158.901 24.501 157.898 25.708 155.79 25.708C153.954 25.708 152.764 24.705 152.305 23.668L150.945 24.246C151.71 26.133 153.631 27.153 155.79 27.153C158.425 27.153 160.397 25.436 160.397 23.056C160.397 20.812 158.799 19.061 155.943 19.061C154.668 19.061 153.75 19.367 153.24 19.741L153.682 16.545H159.853V15.1H152.373L151.676 21.203ZM161.976 26.031C161.976 26.558 162.401 27.034 163.03 27.034C163.625 27.034 164.05 26.558 164.05 26.031C164.05 25.572 163.625 25.079 163.03 25.079C162.401 25.079 161.976 25.572 161.976 26.031ZM165.235 16.545H172.443L166.731 27H168.346L174.262 16.069V15.1H165.235V16.545ZM177.174 26.609L178.296 27.255L187.034 15.508L185.963 14.726L177.174 26.609ZM175.338 17.956C175.338 19.656 176.681 20.846 178.449 20.846C180.2 20.846 181.543 19.656 181.543 17.956C181.543 16.239 180.2 15.049 178.449 15.049C176.681 15.049 175.338 16.239 175.338 17.956ZM176.766 17.956C176.766 16.936 177.548 16.273 178.449 16.273C179.333 16.273 180.115 16.936 180.115 17.956C180.115 18.976 179.333 19.639 178.449 19.639C177.582 19.639 176.766 18.976 176.766 17.956ZM182.631 24.161C182.631 25.861 183.974 27.068 185.742 27.068C187.493 27.068 188.836 25.861 188.836 24.161C188.836 22.461 187.493 21.271 185.742 21.271C183.974 21.271 182.631 22.461 182.631 24.161ZM184.059 24.161C184.059 23.141 184.841 22.478 185.742 22.478C186.626 22.478 187.408 23.141 187.408 24.161C187.408 25.181 186.626 25.844 185.742 25.844C184.875 25.844 184.059 25.181 184.059 24.161Z" fill="#222429"/>
<path d="M254.386 254.434C254.54 253.44 255.296 252.264 256.962 252.264C258.138 252.264 259.062 252.768 259.062 254.154C259.062 255.498 257.956 256.744 255.156 258.606L253.028 260.02V261H260.658V259.81H255.24L256.318 259.138C257.998 258.088 260.294 256.45 260.294 254.028C260.294 252.292 259.104 251.074 257.046 251.074C254.848 251.074 253.63 252.446 253.294 254.07L254.386 254.434ZM261.628 256.1C261.628 258.998 263.112 261.126 265.814 261.126C268.67 261.126 269.958 258.998 269.958 256.1C269.958 253.02 268.628 251.074 265.786 251.074C262.958 251.074 261.628 253.202 261.628 256.1ZM262.86 256.1C262.86 253.748 263.784 252.264 265.786 252.264C267.802 252.264 268.726 253.706 268.726 256.1C268.726 258.48 267.83 259.936 265.814 259.936C263.98 259.936 262.86 258.48 262.86 256.1ZM272.194 254.434C272.348 253.44 273.104 252.264 274.77 252.264C275.946 252.264 276.87 252.768 276.87 254.154C276.87 255.498 275.764 256.744 272.964 258.606L270.836 260.02V261H278.466V259.81H273.048L274.126 259.138C275.806 258.088 278.102 256.45 278.102 254.028C278.102 252.292 276.912 251.074 274.854 251.074C272.656 251.074 271.438 252.446 271.102 254.07L272.194 254.434ZM280.626 254.434C280.78 253.44 281.536 252.264 283.202 252.264C284.378 252.264 285.302 252.768 285.302 254.154C285.302 255.498 284.196 256.744 281.396 258.606L279.268 260.02V261H286.898V259.81H281.48L282.558 259.138C284.238 258.088 286.534 256.45 286.534 254.028C286.534 252.292 285.344 251.074 283.286 251.074C281.088 251.074 279.87 252.446 279.534 254.07L280.626 254.434Z" fill="#777F8C"/>
<rect x="240" y="22" width="60" height="219" fill="#5FAF2D"/>
<rect x="240" y="22" width="60" height="4" fill="#3D7917"/>
<path d="M257.563 13.153C260.198 13.153 262.272 11.487 262.272 9.022C262.272 6.659 260.572 5.044 257.784 5.044C256.118 5.044 254.452 5.826 253.823 7.322C253.823 7.254 253.823 7.203 253.823 7.135C253.874 4.228 255.336 2.392 257.58 2.392C259.025 2.392 260.045 3.038 260.708 4.058L261.864 3.276C261.201 1.848 259.688 0.946999 257.648 0.946999C254.792 0.946999 252.361 3.089 252.361 7.373C252.361 11.113 254.384 13.153 257.563 13.153ZM257.546 11.708C255.591 11.708 254.384 10.45 254.384 8.971C254.384 7.526 255.54 6.489 257.699 6.489C259.484 6.489 260.776 7.373 260.776 9.09C260.776 10.654 259.433 11.708 257.546 11.708ZM263.786 12.031C263.786 12.558 264.211 13.034 264.84 13.034C265.435 13.034 265.86 12.558 265.86 12.031C265.86 11.572 265.435 11.079 264.84 11.079C264.211 11.079 263.786 11.572 263.786 12.031ZM266.756 2.987L267.3 4.262L270.377 2.851V13H271.805V1.032H270.836L266.756 2.987ZM275.979 12.609L277.101 13.255L285.839 1.508L284.768 0.725999L275.979 12.609ZM274.143 3.956C274.143 5.656 275.486 6.846 277.254 6.846C279.005 6.846 280.348 5.656 280.348 3.956C280.348 2.239 279.005 1.049 277.254 1.049C275.486 1.049 274.143 2.239 274.143 3.956ZM275.571 3.956C275.571 2.936 276.353 2.273 277.254 2.273C278.138 2.273 278.92 2.936 278.92 3.956C278.92 4.976 278.138 5.639 277.254 5.639C276.387 5.639 275.571 4.976 275.571 3.956ZM281.436 10.161C281.436 11.861 282.779 13.068 284.547 13.068C286.298 13.068 287.641 11.861 287.641 10.161C287.641 8.461 286.298 7.271 284.547 7.271C282.779 7.271 281.436 8.461 281.436 10.161ZM282.864 10.161C282.864 9.141 283.646 8.478 284.547 8.478C285.431 8.478 286.213 9.141 286.213 10.161C286.213 11.181 285.431 11.844 284.547 11.844C283.68 11.844 282.864 11.181 282.864 10.161Z" fill="#222429"/>
<rect y="240" width="344" height="1" fill="#9299A3"/>
</svg>
