<svg viewBox="0 0 344 262" fill="none" xmlns="http://www.w3.org/2000/svg">
<path d="M52.8221 254.07C52.9061 253.669 53.0461 253.286 53.2421 252.922C53.4381 252.558 53.6901 252.241 53.9981 251.97C54.3061 251.69 54.6748 251.471 55.1041 251.312C55.5334 251.153 56.0234 251.074 56.5741 251.074C57.0874 251.074 57.5448 251.149 57.9461 251.298C58.3474 251.438 58.6881 251.639 58.9681 251.9C59.2481 252.161 59.4581 252.474 59.5981 252.838C59.7474 253.202 59.8221 253.599 59.8221 254.028C59.8221 254.635 59.6914 255.195 59.4301 255.708C59.1781 256.212 58.8561 256.674 58.4641 257.094C58.0721 257.514 57.6428 257.897 57.1761 258.242C56.7094 258.578 56.2661 258.877 55.8461 259.138L54.7681 259.81H60.1861V261H52.5561V260.02L54.6841 258.606C55.3841 258.139 55.9814 257.71 56.4761 257.318C56.9708 256.917 57.3721 256.539 57.6801 256.184C57.9974 255.829 58.2261 255.489 58.3661 255.162C58.5154 254.826 58.5901 254.49 58.5901 254.154C58.5901 253.809 58.5341 253.515 58.4221 253.272C58.3194 253.029 58.1701 252.833 57.9741 252.684C57.7874 252.535 57.5634 252.427 57.3021 252.362C57.0501 252.297 56.7794 252.264 56.4901 252.264C56.0701 252.264 55.7061 252.329 55.3981 252.46C55.0994 252.591 54.8428 252.763 54.6281 252.978C54.4228 253.183 54.2594 253.417 54.1381 253.678C54.0261 253.93 53.9514 254.182 53.9141 254.434L52.8221 254.07ZM61.1564 256.1C61.1564 255.372 61.2404 254.705 61.4084 254.098C61.5764 253.482 61.8284 252.95 62.1644 252.502C62.5097 252.054 62.9437 251.704 63.4664 251.452C63.989 251.2 64.605 251.074 65.3144 251.074C66.0237 251.074 66.6397 251.191 67.1624 251.424C67.685 251.657 68.119 251.993 68.4644 252.432C68.8097 252.871 69.0664 253.403 69.2344 254.028C69.4024 254.644 69.4864 255.335 69.4864 256.1C69.4864 256.828 69.4024 257.5 69.2344 258.116C69.0757 258.723 68.8237 259.25 68.4784 259.698C68.1424 260.146 67.713 260.496 67.1904 260.748C66.6677 261 66.0517 261.126 65.3424 261.126C64.6704 261.126 64.073 261 63.5504 260.748C63.0277 260.496 62.589 260.146 62.2344 259.698C61.8797 259.25 61.609 258.723 61.4224 258.116C61.245 257.5 61.1564 256.828 61.1564 256.1ZM62.3884 256.1C62.3884 257.295 62.6497 258.233 63.1724 258.914C63.695 259.595 64.4184 259.936 65.3424 259.936C66.3504 259.936 67.0877 259.595 67.5544 258.914C68.021 258.233 68.2544 257.295 68.2544 256.1C68.2544 254.905 68.0164 253.967 67.5404 253.286C67.0644 252.605 66.3224 252.264 65.3144 252.264C64.8104 252.264 64.3764 252.353 64.0124 252.53C63.6484 252.707 63.345 252.964 63.1024 253.3C62.8597 253.636 62.6777 254.042 62.5564 254.518C62.4444 254.985 62.3884 255.512 62.3884 256.1ZM70.63 254.07C70.714 253.669 70.854 253.286 71.05 252.922C71.246 252.558 71.498 252.241 71.806 251.97C72.114 251.69 72.4827 251.471 72.912 251.312C73.3413 251.153 73.8313 251.074 74.382 251.074C74.8953 251.074 75.3527 251.149 75.754 251.298C76.1553 251.438 76.496 251.639 76.776 251.9C77.056 252.161 77.266 252.474 77.406 252.838C77.5553 253.202 77.63 253.599 77.63 254.028C77.63 254.635 77.4993 255.195 77.238 255.708C76.986 256.212 76.664 256.674 76.272 257.094C75.88 257.514 75.4507 257.897 74.984 258.242C74.5173 258.578 74.074 258.877 73.654 259.138L72.576 259.81H77.994V261H70.364V260.02L72.492 258.606C73.192 258.139 73.7893 257.71 74.284 257.318C74.7787 256.917 75.18 256.539 75.488 256.184C75.8053 255.829 76.034 255.489 76.174 255.162C76.3233 254.826 76.398 254.49 76.398 254.154C76.398 253.809 76.342 253.515 76.23 253.272C76.1273 253.029 75.978 252.833 75.782 252.684C75.5953 252.535 75.3713 252.427 75.11 252.362C74.858 252.297 74.5873 252.264 74.298 252.264C73.878 252.264 73.514 252.329 73.206 252.46C72.9073 252.591 72.6507 252.763 72.436 252.978C72.2307 253.183 72.0673 253.417 71.946 253.678C71.834 253.93 71.7593 254.182 71.722 254.434L70.63 254.07ZM78.9643 256.1C78.9643 255.372 79.0483 254.705 79.2163 254.098C79.3843 253.482 79.6363 252.95 79.9723 252.502C80.3176 252.054 80.7516 251.704 81.2743 251.452C81.7969 251.2 82.4129 251.074 83.1223 251.074C83.8316 251.074 84.4476 251.191 84.9703 251.424C85.4929 251.657 85.9269 251.993 86.2723 252.432C86.6176 252.871 86.8743 253.403 87.0423 254.028C87.2103 254.644 87.2943 255.335 87.2943 256.1C87.2943 256.828 87.2103 257.5 87.0423 258.116C86.8836 258.723 86.6316 259.25 86.2863 259.698C85.9503 260.146 85.5209 260.496 84.9983 260.748C84.4756 261 83.8596 261.126 83.1503 261.126C82.4783 261.126 81.8809 261 81.3583 260.748C80.8356 260.496 80.3969 260.146 80.0423 259.698C79.6876 259.25 79.4169 258.723 79.2303 258.116C79.0529 257.5 78.9643 256.828 78.9643 256.1ZM80.1963 256.1C80.1963 257.295 80.4576 258.233 80.9803 258.914C81.5029 259.595 82.2263 259.936 83.1503 259.936C84.1583 259.936 84.8956 259.595 85.3623 258.914C85.8289 258.233 86.0623 257.295 86.0623 256.1C86.0623 254.905 85.8243 253.967 85.3483 253.286C84.8723 252.605 84.1303 252.264 83.1223 252.264C82.6183 252.264 82.1843 252.353 81.8203 252.53C81.4563 252.707 81.1529 252.964 80.9103 253.3C80.6676 253.636 80.4856 254.042 80.3643 254.518C80.2523 254.985 80.1963 255.512 80.1963 256.1Z" fill="#777F8C"/>
<rect x="40" y="50" width="60" height="191" fill="#BFCED4"/>
<rect x="40" y="50" width="60" height="4" fill="#A6B2BC"/>
<path d="M52.0078 29.1H59.4878V30.545H53.3168L52.8748 33.741C53.1355 33.5483 53.4868 33.3897 53.9288 33.265C54.3822 33.129 54.9318 33.061 55.5778 33.061C56.2918 33.061 56.9265 33.163 57.4818 33.367C58.0372 33.571 58.5018 33.8543 58.8758 34.217C59.2498 34.5797 59.5332 35.0047 59.7258 35.492C59.9298 35.9793 60.0318 36.5007 60.0318 37.056C60.0318 37.6567 59.9128 38.2063 59.6748 38.705C59.4482 39.2037 59.1252 39.6343 58.7058 39.997C58.2978 40.3597 57.8105 40.643 57.2438 40.847C56.6885 41.051 56.0822 41.153 55.4248 41.153C54.8808 41.153 54.3595 41.0907 53.8608 40.966C53.3622 40.8413 52.8975 40.6543 52.4668 40.405C52.0475 40.1557 51.6735 39.8553 51.3448 39.504C51.0275 39.1413 50.7725 38.722 50.5798 38.246L51.9398 37.668C52.0532 37.9287 52.2118 38.1837 52.4158 38.433C52.6198 38.671 52.8692 38.8863 53.1638 39.079C53.4585 39.2717 53.7928 39.4247 54.1668 39.538C54.5408 39.6513 54.9602 39.708 55.4248 39.708C55.9462 39.708 56.3995 39.64 56.7848 39.504C57.1815 39.3567 57.5102 39.164 57.7708 38.926C58.0315 38.688 58.2242 38.416 58.3488 38.11C58.4735 37.7927 58.5358 37.4583 58.5358 37.107C58.5358 36.3023 58.2355 35.6677 57.6348 35.203C57.0455 34.7383 56.2238 34.506 55.1698 34.506C54.5692 34.506 54.0648 34.591 53.6568 34.761C53.2602 34.9197 52.8862 35.1747 52.5348 35.526L51.3108 35.203L52.0078 29.1ZM61.2712 42.649C61.4186 42.615 61.5716 42.5527 61.7302 42.462C61.9002 42.3713 62.0532 42.258 62.1892 42.122C62.3252 41.986 62.4329 41.8387 62.5122 41.68C62.6029 41.5213 62.6482 41.357 62.6482 41.187C62.6482 41.1077 62.6426 41.0453 62.6312 41C62.5746 41.0113 62.5066 41.017 62.4272 41.017C62.1779 41.017 61.9626 40.9377 61.7812 40.779C61.6112 40.6203 61.5262 40.3937 61.5262 40.099C61.5262 39.8043 61.6169 39.572 61.7982 39.402C61.9796 39.2207 62.2346 39.13 62.5632 39.13C62.9259 39.13 63.2206 39.2547 63.4472 39.504C63.6852 39.742 63.8042 40.1047 63.8042 40.592C63.8042 41.0567 63.7419 41.4533 63.6172 41.782C63.4926 42.1107 63.3282 42.3883 63.1242 42.615C62.9202 42.8417 62.6879 43.0173 62.4272 43.142C62.1666 43.278 61.9002 43.38 61.6282 43.448L61.2712 42.649ZM65.109 31.99C65.2676 31.548 65.483 31.1457 65.755 30.783C66.027 30.409 66.3556 30.086 66.741 29.814C67.1376 29.542 67.591 29.3323 68.101 29.185C68.6223 29.0263 69.206 28.947 69.852 28.947C70.43 28.947 70.9626 29.0207 71.45 29.168C71.9486 29.304 72.3736 29.5023 72.725 29.763C73.0876 30.0123 73.3653 30.324 73.558 30.698C73.762 31.072 73.864 31.4857 73.864 31.939C73.864 32.6303 73.6826 33.2197 73.32 33.707C72.9686 34.1943 72.453 34.5343 71.773 34.727C72.0676 34.7497 72.3566 34.8233 72.64 34.948C72.9233 35.0613 73.1726 35.237 73.388 35.475C73.6146 35.7017 73.796 35.9907 73.932 36.342C74.068 36.682 74.136 37.09 74.136 37.566C74.136 38.144 74.0226 38.6597 73.796 39.113C73.5806 39.555 73.2746 39.929 72.878 40.235C72.4926 40.5297 72.0336 40.7563 71.501 40.915C70.9683 41.0737 70.396 41.153 69.784 41.153C69.1153 41.153 68.5033 41.0737 67.948 40.915C67.404 40.7563 66.9223 40.541 66.503 40.269C66.0836 39.9857 65.7266 39.6513 65.432 39.266C65.1486 38.8693 64.9333 38.433 64.786 37.957L66.163 37.362C66.3103 37.668 66.486 37.9627 66.69 38.246C66.894 38.5293 67.1433 38.7787 67.438 38.994C67.7326 39.2093 68.0783 39.385 68.475 39.521C68.8716 39.6457 69.342 39.708 69.886 39.708C70.736 39.708 71.4046 39.5267 71.892 39.164C72.3906 38.79 72.64 38.263 72.64 37.583C72.64 37.209 72.5606 36.8973 72.402 36.648C72.2433 36.3873 72.0223 36.1833 71.739 36.036C71.4556 35.8773 71.1213 35.7697 70.736 35.713C70.362 35.645 69.954 35.611 69.512 35.611H68.186V34.2H69.24C70.226 34.2 70.991 34.013 71.535 33.639C72.0903 33.265 72.368 32.7947 72.368 32.228C72.368 31.616 72.1356 31.157 71.671 30.851C71.2063 30.545 70.5773 30.392 69.784 30.392C69.2966 30.392 68.866 30.4543 68.492 30.579C68.118 30.7037 67.7893 30.868 67.506 31.072C67.234 31.276 67.0016 31.5083 66.809 31.769C66.6276 32.0297 66.486 32.296 66.384 32.568L65.109 31.99ZM86.3282 28.726L87.3992 29.508L78.6612 41.255L77.5392 40.609L86.3282 28.726ZM75.7032 31.956C75.7032 31.5253 75.7825 31.1343 75.9412 30.783C76.0998 30.4203 76.3152 30.1143 76.5872 29.865C76.8705 29.6043 77.1992 29.406 77.5732 29.27C77.9585 29.1227 78.3722 29.049 78.8142 29.049C79.2562 29.049 79.6642 29.1227 80.0382 29.27C80.4122 29.406 80.7352 29.6043 81.0072 29.865C81.2905 30.1143 81.5115 30.4203 81.6702 30.783C81.8288 31.1343 81.9082 31.5253 81.9082 31.956C81.9082 32.3867 81.8288 32.7777 81.6702 33.129C81.5115 33.4803 81.2905 33.7863 81.0072 34.047C80.7352 34.2963 80.4122 34.4947 80.0382 34.642C79.6642 34.778 79.2562 34.846 78.8142 34.846C78.3722 34.846 77.9585 34.778 77.5732 34.642C77.1992 34.4947 76.8705 34.2963 76.5872 34.047C76.3152 33.7863 76.0998 33.4803 75.9412 33.129C75.7825 32.7777 75.7032 32.3867 75.7032 31.956ZM77.1312 31.956C77.1312 32.2167 77.1765 32.449 77.2672 32.653C77.3692 32.857 77.4938 33.0327 77.6412 33.18C77.7998 33.3273 77.9812 33.4407 78.1852 33.52C78.3892 33.5993 78.5988 33.639 78.8142 33.639C79.2562 33.639 79.6415 33.486 79.9702 33.18C80.3102 32.874 80.4802 32.466 80.4802 31.956C80.4802 31.446 80.3102 31.038 79.9702 30.732C79.6415 30.426 79.2562 30.273 78.8142 30.273C78.3608 30.273 77.9642 30.426 77.6242 30.732C77.2955 31.038 77.1312 31.446 77.1312 31.956ZM82.9962 38.161C82.9962 37.7417 83.0755 37.3563 83.2342 37.005C83.3928 36.6423 83.6082 36.3363 83.8802 36.087C84.1635 35.8263 84.4922 35.628 84.8662 35.492C85.2515 35.3447 85.6652 35.271 86.1072 35.271C86.5492 35.271 86.9572 35.3447 87.3312 35.492C87.7052 35.628 88.0282 35.8263 88.3002 36.087C88.5835 36.3363 88.8045 36.6423 88.9632 37.005C89.1218 37.3563 89.2012 37.7417 89.2012 38.161C89.2012 38.5917 89.1218 38.9827 88.9632 39.334C88.8045 39.6853 88.5835 39.9913 88.3002 40.252C88.0282 40.5127 87.7052 40.7167 87.3312 40.864C86.9572 41 86.5492 41.068 86.1072 41.068C85.6652 41.068 85.2515 41 84.8662 40.864C84.4922 40.7167 84.1635 40.5127 83.8802 40.252C83.6082 39.9913 83.3928 39.6853 83.2342 39.334C83.0755 38.9827 82.9962 38.5917 82.9962 38.161ZM84.4242 38.161C84.4242 38.4217 84.4695 38.654 84.5602 38.858C84.6622 39.062 84.7868 39.2377 84.9342 39.385C85.0928 39.5323 85.2742 39.6457 85.4782 39.725C85.6822 39.8043 85.8918 39.844 86.1072 39.844C86.5492 39.844 86.9345 39.691 87.2632 39.385C87.6032 39.079 87.7732 38.671 87.7732 38.161C87.7732 37.651 87.6032 37.243 87.2632 36.937C86.9345 36.631 86.5492 36.478 86.1072 36.478C85.6538 36.478 85.2572 36.631 84.9172 36.937C84.5885 37.243 84.4242 37.651 84.4242 38.161Z" fill="#222429"/>
<path d="M154.818 254.07C154.902 253.669 155.042 253.286 155.238 252.922C155.434 252.558 155.686 252.241 155.994 251.97C156.302 251.69 156.671 251.471 157.1 251.312C157.53 251.153 158.02 251.074 158.57 251.074C159.084 251.074 159.541 251.149 159.942 251.298C160.344 251.438 160.684 251.639 160.964 251.9C161.244 252.161 161.454 252.474 161.594 252.838C161.744 253.202 161.818 253.599 161.818 254.028C161.818 254.635 161.688 255.195 161.426 255.708C161.174 256.212 160.852 256.674 160.46 257.094C160.068 257.514 159.639 257.897 159.172 258.242C158.706 258.578 158.262 258.877 157.842 259.138L156.764 259.81H162.182V261H154.552V260.02L156.68 258.606C157.38 258.139 157.978 257.71 158.472 257.318C158.967 256.917 159.368 256.539 159.676 256.184C159.994 255.829 160.222 255.489 160.362 255.162C160.512 254.826 160.586 254.49 160.586 254.154C160.586 253.809 160.53 253.515 160.418 253.272C160.316 253.029 160.166 252.833 159.97 252.684C159.784 252.535 159.56 252.427 159.298 252.362C159.046 252.297 158.776 252.264 158.486 252.264C158.066 252.264 157.702 252.329 157.394 252.46C157.096 252.591 156.839 252.763 156.624 252.978C156.419 253.183 156.256 253.417 156.134 253.678C156.022 253.93 155.948 254.182 155.91 254.434L154.818 254.07ZM163.152 256.1C163.152 255.372 163.236 254.705 163.404 254.098C163.572 253.482 163.824 252.95 164.16 252.502C164.506 252.054 164.94 251.704 165.462 251.452C165.985 251.2 166.601 251.074 167.31 251.074C168.02 251.074 168.636 251.191 169.158 251.424C169.681 251.657 170.115 251.993 170.46 252.432C170.806 252.871 171.062 253.403 171.23 254.028C171.398 254.644 171.482 255.335 171.482 256.1C171.482 256.828 171.398 257.5 171.23 258.116C171.072 258.723 170.82 259.25 170.474 259.698C170.138 260.146 169.709 260.496 169.186 260.748C168.664 261 168.048 261.126 167.338 261.126C166.666 261.126 166.069 261 165.546 260.748C165.024 260.496 164.585 260.146 164.23 259.698C163.876 259.25 163.605 258.723 163.418 258.116C163.241 257.5 163.152 256.828 163.152 256.1ZM164.384 256.1C164.384 257.295 164.646 258.233 165.168 258.914C165.691 259.595 166.414 259.936 167.338 259.936C168.346 259.936 169.084 259.595 169.55 258.914C170.017 258.233 170.25 257.295 170.25 256.1C170.25 254.905 170.012 253.967 169.536 253.286C169.06 252.605 168.318 252.264 167.31 252.264C166.806 252.264 166.372 252.353 166.008 252.53C165.644 252.707 165.341 252.964 165.098 253.3C164.856 253.636 164.674 254.042 164.552 254.518C164.44 254.985 164.384 255.512 164.384 256.1ZM172.626 254.07C172.71 253.669 172.85 253.286 173.046 252.922C173.242 252.558 173.494 252.241 173.802 251.97C174.11 251.69 174.479 251.471 174.908 251.312C175.337 251.153 175.827 251.074 176.378 251.074C176.891 251.074 177.349 251.149 177.75 251.298C178.151 251.438 178.492 251.639 178.772 251.9C179.052 252.161 179.262 252.474 179.402 252.838C179.551 253.202 179.626 253.599 179.626 254.028C179.626 254.635 179.495 255.195 179.234 255.708C178.982 256.212 178.66 256.674 178.268 257.094C177.876 257.514 177.447 257.897 176.98 258.242C176.513 258.578 176.07 258.877 175.65 259.138L174.572 259.81H179.99V261H172.36V260.02L174.488 258.606C175.188 258.139 175.785 257.71 176.28 257.318C176.775 256.917 177.176 256.539 177.484 256.184C177.801 255.829 178.03 255.489 178.17 255.162C178.319 254.826 178.394 254.49 178.394 254.154C178.394 253.809 178.338 253.515 178.226 253.272C178.123 253.029 177.974 252.833 177.778 252.684C177.591 252.535 177.367 252.427 177.106 252.362C176.854 252.297 176.583 252.264 176.294 252.264C175.874 252.264 175.51 252.329 175.202 252.46C174.903 252.591 174.647 252.763 174.432 252.978C174.227 253.183 174.063 253.417 173.942 253.678C173.83 253.93 173.755 254.182 173.718 254.434L172.626 254.07ZM183.76 251.144H184.558V261H183.382V252.642L180.848 253.804L180.4 252.754L183.76 251.144Z" fill="#777F8C"/>
<rect x="140" y="36" width="60" height="205" fill="#BFCED4"/>
<rect x="140" y="36" width="60" height="4" fill="#A6B2BC"/>
<path d="M152.398 15.1H159.878V16.545H153.707L153.265 19.741C153.526 19.5483 153.877 19.3897 154.319 19.265C154.772 19.129 155.322 19.061 155.968 19.061C156.682 19.061 157.317 19.163 157.872 19.367C158.427 19.571 158.892 19.8543 159.266 20.217C159.64 20.5797 159.923 21.0047 160.116 21.492C160.32 21.9793 160.422 22.5007 160.422 23.056C160.422 23.6567 160.303 24.2063 160.065 24.705C159.838 25.2037 159.515 25.6343 159.096 25.997C158.688 26.3597 158.201 26.643 157.634 26.847C157.079 27.051 156.472 27.153 155.815 27.153C155.271 27.153 154.75 27.0907 154.251 26.966C153.752 26.8413 153.288 26.6543 152.857 26.405C152.438 26.1557 152.064 25.8553 151.735 25.504C151.418 25.1413 151.163 24.722 150.97 24.246L152.33 23.668C152.443 23.9287 152.602 24.1837 152.806 24.433C153.01 24.671 153.259 24.8863 153.554 25.079C153.849 25.2717 154.183 25.4247 154.557 25.538C154.931 25.6513 155.35 25.708 155.815 25.708C156.336 25.708 156.79 25.64 157.175 25.504C157.572 25.3567 157.9 25.164 158.161 24.926C158.422 24.688 158.614 24.416 158.739 24.11C158.864 23.7927 158.926 23.4583 158.926 23.107C158.926 22.3023 158.626 21.6677 158.025 21.203C157.436 20.7383 156.614 20.506 155.56 20.506C154.959 20.506 154.455 20.591 154.047 20.761C153.65 20.9197 153.276 21.1747 152.925 21.526L151.701 21.203L152.398 15.1ZM161.661 28.649C161.809 28.615 161.962 28.5527 162.12 28.462C162.29 28.3713 162.443 28.258 162.579 28.122C162.715 27.986 162.823 27.8387 162.902 27.68C162.993 27.5213 163.038 27.357 163.038 27.187C163.038 27.1077 163.033 27.0453 163.021 27C162.965 27.0113 162.897 27.017 162.817 27.017C162.568 27.017 162.353 26.9377 162.171 26.779C162.001 26.6203 161.916 26.3937 161.916 26.099C161.916 25.8043 162.007 25.572 162.188 25.402C162.37 25.2207 162.625 25.13 162.953 25.13C163.316 25.13 163.611 25.2547 163.837 25.504C164.075 25.742 164.194 26.1047 164.194 26.592C164.194 27.0567 164.132 27.4533 164.007 27.782C163.883 28.1107 163.718 28.3883 163.514 28.615C163.31 28.8417 163.078 29.0173 162.817 29.142C162.557 29.278 162.29 29.38 162.018 29.448L161.661 28.649ZM165.21 15.1H174.237V16.069L168.321 27H166.706L172.418 16.545H165.21V15.1ZM185.938 14.726L187.009 15.508L178.271 27.255L177.149 26.609L185.938 14.726ZM175.313 17.956C175.313 17.5253 175.392 17.1343 175.551 16.783C175.71 16.4203 175.925 16.1143 176.197 15.865C176.48 15.6043 176.809 15.406 177.183 15.27C177.568 15.1227 177.982 15.049 178.424 15.049C178.866 15.049 179.274 15.1227 179.648 15.27C180.022 15.406 180.345 15.6043 180.617 15.865C180.9 16.1143 181.121 16.4203 181.28 16.783C181.439 17.1343 181.518 17.5253 181.518 17.956C181.518 18.3867 181.439 18.7777 181.28 19.129C181.121 19.4803 180.9 19.7863 180.617 20.047C180.345 20.2963 180.022 20.4947 179.648 20.642C179.274 20.778 178.866 20.846 178.424 20.846C177.982 20.846 177.568 20.778 177.183 20.642C176.809 20.4947 176.48 20.2963 176.197 20.047C175.925 19.7863 175.71 19.4803 175.551 19.129C175.392 18.7777 175.313 18.3867 175.313 17.956ZM176.741 17.956C176.741 18.2167 176.786 18.449 176.877 18.653C176.979 18.857 177.104 19.0327 177.251 19.18C177.41 19.3273 177.591 19.4407 177.795 19.52C177.999 19.5993 178.209 19.639 178.424 19.639C178.866 19.639 179.251 19.486 179.58 19.18C179.92 18.874 180.09 18.466 180.09 17.956C180.09 17.446 179.92 17.038 179.58 16.732C179.251 16.426 178.866 16.273 178.424 16.273C177.971 16.273 177.574 16.426 177.234 16.732C176.905 17.038 176.741 17.446 176.741 17.956ZM182.606 24.161C182.606 23.7417 182.685 23.3563 182.844 23.005C183.003 22.6423 183.218 22.3363 183.49 22.087C183.773 21.8263 184.102 21.628 184.476 21.492C184.861 21.3447 185.275 21.271 185.717 21.271C186.159 21.271 186.567 21.3447 186.941 21.492C187.315 21.628 187.638 21.8263 187.91 22.087C188.193 22.3363 188.414 22.6423 188.573 23.005C188.732 23.3563 188.811 23.7417 188.811 24.161C188.811 24.5917 188.732 24.9827 188.573 25.334C188.414 25.6853 188.193 25.9913 187.91 26.252C187.638 26.5127 187.315 26.7167 186.941 26.864C186.567 27 186.159 27.068 185.717 27.068C185.275 27.068 184.861 27 184.476 26.864C184.102 26.7167 183.773 26.5127 183.49 26.252C183.218 25.9913 183.003 25.6853 182.844 25.334C182.685 24.9827 182.606 24.5917 182.606 24.161ZM184.034 24.161C184.034 24.4217 184.079 24.654 184.17 24.858C184.272 25.062 184.397 25.2377 184.544 25.385C184.703 25.5323 184.884 25.6457 185.088 25.725C185.292 25.8043 185.502 25.844 185.717 25.844C186.159 25.844 186.544 25.691 186.873 25.385C187.213 25.079 187.383 24.671 187.383 24.161C187.383 23.651 187.213 23.243 186.873 22.937C186.544 22.631 186.159 22.478 185.717 22.478C185.264 22.478 184.867 22.631 184.527 22.937C184.198 23.243 184.034 23.651 184.034 24.161Z" fill="#222429"/>
<path d="M253.294 254.07C253.378 253.669 253.518 253.286 253.714 252.922C253.91 252.558 254.162 252.241 254.47 251.97C254.778 251.69 255.146 251.471 255.576 251.312C256.005 251.153 256.495 251.074 257.046 251.074C257.559 251.074 258.016 251.149 258.418 251.298C258.819 251.438 259.16 251.639 259.44 251.9C259.72 252.161 259.93 252.474 260.07 252.838C260.219 253.202 260.294 253.599 260.294 254.028C260.294 254.635 260.163 255.195 259.902 255.708C259.65 256.212 259.328 256.674 258.936 257.094C258.544 257.514 258.114 257.897 257.648 258.242C257.181 258.578 256.738 258.877 256.318 259.138L255.24 259.81H260.658V261H253.028V260.02L255.156 258.606C255.856 258.139 256.453 257.71 256.948 257.318C257.442 256.917 257.844 256.539 258.152 256.184C258.469 255.829 258.698 255.489 258.838 255.162C258.987 254.826 259.062 254.49 259.062 254.154C259.062 253.809 259.006 253.515 258.894 253.272C258.791 253.029 258.642 252.833 258.446 252.684C258.259 252.535 258.035 252.427 257.774 252.362C257.522 252.297 257.251 252.264 256.962 252.264C256.542 252.264 256.178 252.329 255.87 252.46C255.571 252.591 255.314 252.763 255.1 252.978C254.894 253.183 254.731 253.417 254.61 253.678C254.498 253.93 254.423 254.182 254.386 254.434L253.294 254.07ZM261.628 256.1C261.628 255.372 261.712 254.705 261.88 254.098C262.048 253.482 262.3 252.95 262.636 252.502C262.981 252.054 263.415 251.704 263.938 251.452C264.461 251.2 265.077 251.074 265.786 251.074C266.495 251.074 267.111 251.191 267.634 251.424C268.157 251.657 268.591 251.993 268.936 252.432C269.281 252.871 269.538 253.403 269.706 254.028C269.874 254.644 269.958 255.335 269.958 256.1C269.958 256.828 269.874 257.5 269.706 258.116C269.547 258.723 269.295 259.25 268.95 259.698C268.614 260.146 268.185 260.496 267.662 260.748C267.139 261 266.523 261.126 265.814 261.126C265.142 261.126 264.545 261 264.022 260.748C263.499 260.496 263.061 260.146 262.706 259.698C262.351 259.25 262.081 258.723 261.894 258.116C261.717 257.5 261.628 256.828 261.628 256.1ZM262.86 256.1C262.86 257.295 263.121 258.233 263.644 258.914C264.167 259.595 264.89 259.936 265.814 259.936C266.822 259.936 267.559 259.595 268.026 258.914C268.493 258.233 268.726 257.295 268.726 256.1C268.726 254.905 268.488 253.967 268.012 253.286C267.536 252.605 266.794 252.264 265.786 252.264C265.282 252.264 264.848 252.353 264.484 252.53C264.12 252.707 263.817 252.964 263.574 253.3C263.331 253.636 263.149 254.042 263.028 254.518C262.916 254.985 262.86 255.512 262.86 256.1ZM271.102 254.07C271.186 253.669 271.326 253.286 271.522 252.922C271.718 252.558 271.97 252.241 272.278 251.97C272.586 251.69 272.954 251.471 273.384 251.312C273.813 251.153 274.303 251.074 274.854 251.074C275.367 251.074 275.824 251.149 276.226 251.298C276.627 251.438 276.968 251.639 277.248 251.9C277.528 252.161 277.738 252.474 277.878 252.838C278.027 253.202 278.102 253.599 278.102 254.028C278.102 254.635 277.971 255.195 277.71 255.708C277.458 256.212 277.136 256.674 276.744 257.094C276.352 257.514 275.922 257.897 275.456 258.242C274.989 258.578 274.546 258.877 274.126 259.138L273.048 259.81H278.466V261H270.836V260.02L272.964 258.606C273.664 258.139 274.261 257.71 274.756 257.318C275.25 256.917 275.652 256.539 275.96 256.184C276.277 255.829 276.506 255.489 276.646 255.162C276.795 254.826 276.87 254.49 276.87 254.154C276.87 253.809 276.814 253.515 276.702 253.272C276.599 253.029 276.45 252.833 276.254 252.684C276.067 252.535 275.843 252.427 275.582 252.362C275.33 252.297 275.059 252.264 274.77 252.264C274.35 252.264 273.986 252.329 273.678 252.46C273.379 252.591 273.122 252.763 272.908 252.978C272.702 253.183 272.539 253.417 272.418 253.678C272.306 253.93 272.231 254.182 272.194 254.434L271.102 254.07ZM279.534 254.07C279.618 253.669 279.758 253.286 279.954 252.922C280.15 252.558 280.402 252.241 280.71 251.97C281.018 251.69 281.387 251.471 281.816 251.312C282.245 251.153 282.735 251.074 283.286 251.074C283.799 251.074 284.257 251.149 284.658 251.298C285.059 251.438 285.4 251.639 285.68 251.9C285.96 252.161 286.17 252.474 286.31 252.838C286.459 253.202 286.534 253.599 286.534 254.028C286.534 254.635 286.403 255.195 286.142 255.708C285.89 256.212 285.568 256.674 285.176 257.094C284.784 257.514 284.355 257.897 283.888 258.242C283.421 258.578 282.978 258.877 282.558 259.138L281.48 259.81H286.898V261H279.268V260.02L281.396 258.606C282.096 258.139 282.693 257.71 283.188 257.318C283.683 256.917 284.084 256.539 284.392 256.184C284.709 255.829 284.938 255.489 285.078 255.162C285.227 254.826 285.302 254.49 285.302 254.154C285.302 253.809 285.246 253.515 285.134 253.272C285.031 253.029 284.882 252.833 284.686 252.684C284.499 252.535 284.275 252.427 284.014 252.362C283.762 252.297 283.491 252.264 283.202 252.264C282.782 252.264 282.418 252.329 282.11 252.46C281.811 252.591 281.555 252.763 281.34 252.978C281.135 253.183 280.971 253.417 280.85 253.678C280.738 253.93 280.663 254.182 280.626 254.434L279.534 254.07Z" fill="#777F8C"/>
<rect x="240" y="22" width="60" height="219" fill="#5FAF2D"/>
<rect x="240" y="22" width="60" height="4" fill="#3D7917"/>
<path d="M257.588 13.153C256.795 13.153 256.075 13.0283 255.429 12.779C254.795 12.5297 254.251 12.1613 253.797 11.674C253.344 11.1753 252.993 10.569 252.743 9.855C252.505 9.141 252.386 8.31367 252.386 7.373C252.386 6.30767 252.528 5.37267 252.811 4.568C253.095 3.76333 253.474 3.09467 253.95 2.562C254.438 2.018 254.999 1.61567 255.633 1.355C256.279 1.083 256.959 0.946999 257.673 0.946999C258.705 0.946999 259.583 1.15667 260.308 1.576C261.034 1.99533 261.561 2.562 261.889 3.276L260.733 4.058C260.405 3.548 259.98 3.14567 259.458 2.851C258.948 2.545 258.331 2.392 257.605 2.392C257.039 2.392 256.529 2.50533 256.075 2.732C255.622 2.94733 255.231 3.26467 254.902 3.684C254.574 4.092 254.319 4.59067 254.137 5.18C253.956 5.758 253.86 6.40967 253.848 7.135V7.322C254.007 6.948 254.222 6.61933 254.494 6.336C254.778 6.05267 255.095 5.81467 255.446 5.622C255.798 5.42933 256.172 5.28767 256.568 5.197C256.976 5.095 257.39 5.044 257.809 5.044C258.501 5.044 259.124 5.14033 259.679 5.333C260.235 5.52567 260.705 5.79767 261.09 6.149C261.487 6.50033 261.787 6.91967 261.991 7.407C262.195 7.89433 262.297 8.43267 262.297 9.022C262.297 9.634 262.173 10.195 261.923 10.705C261.685 11.215 261.351 11.6513 260.92 12.014C260.501 12.3767 260.002 12.66 259.424 12.864C258.858 13.0567 258.246 13.153 257.588 13.153ZM257.571 11.708C258.047 11.708 258.478 11.6457 258.863 11.521C259.26 11.3963 259.6 11.2207 259.883 10.994C260.178 10.756 260.405 10.4783 260.563 10.161C260.722 9.84367 260.801 9.48667 260.801 9.09C260.801 8.65933 260.722 8.28533 260.563 7.968C260.416 7.63933 260.206 7.36733 259.934 7.152C259.662 6.92533 259.334 6.761 258.948 6.659C258.574 6.54567 258.166 6.489 257.724 6.489C256.636 6.489 255.809 6.72133 255.242 7.186C254.687 7.65067 254.409 8.24567 254.409 8.971C254.409 9.345 254.483 9.69633 254.63 10.025C254.778 10.3537 254.987 10.6427 255.259 10.892C255.531 11.1413 255.86 11.3397 256.245 11.487C256.642 11.6343 257.084 11.708 257.571 11.708ZM263.471 14.649C263.618 14.615 263.771 14.5527 263.93 14.462C264.1 14.3713 264.253 14.258 264.389 14.122C264.525 13.986 264.633 13.8387 264.712 13.68C264.803 13.5213 264.848 13.357 264.848 13.187C264.848 13.1077 264.842 13.0453 264.831 13C264.774 13.0113 264.706 13.017 264.627 13.017C264.378 13.017 264.162 12.9377 263.981 12.779C263.811 12.6203 263.726 12.3937 263.726 12.099C263.726 11.8043 263.817 11.572 263.998 11.402C264.179 11.2207 264.434 11.13 264.763 11.13C265.126 11.13 265.42 11.2547 265.647 11.504C265.885 11.742 266.004 12.1047 266.004 12.592C266.004 13.0567 265.942 13.4533 265.817 13.782C265.692 14.1107 265.528 14.3883 265.324 14.615C265.12 14.8417 264.888 15.0173 264.627 15.142C264.366 15.278 264.1 15.38 263.828 15.448L263.471 14.649ZM270.811 1.032H271.78V13H270.352V2.851L267.275 4.262L266.731 2.987L270.811 1.032ZM284.743 0.725999L285.814 1.508L277.076 13.255L275.954 12.609L284.743 0.725999ZM274.118 3.956C274.118 3.52533 274.197 3.13433 274.356 2.783C274.514 2.42033 274.73 2.11433 275.002 1.865C275.285 1.60433 275.614 1.406 275.988 1.27C276.373 1.12267 276.787 1.049 277.229 1.049C277.671 1.049 278.079 1.12267 278.453 1.27C278.827 1.406 279.15 1.60433 279.422 1.865C279.705 2.11433 279.926 2.42033 280.085 2.783C280.243 3.13433 280.323 3.52533 280.323 3.956C280.323 4.38667 280.243 4.77767 280.085 5.129C279.926 5.48033 279.705 5.78633 279.422 6.047C279.15 6.29633 278.827 6.49467 278.453 6.642C278.079 6.778 277.671 6.846 277.229 6.846C276.787 6.846 276.373 6.778 275.988 6.642C275.614 6.49467 275.285 6.29633 275.002 6.047C274.73 5.78633 274.514 5.48033 274.356 5.129C274.197 4.77767 274.118 4.38667 274.118 3.956ZM275.546 3.956C275.546 4.21667 275.591 4.449 275.682 4.653C275.784 4.857 275.908 5.03267 276.056 5.18C276.214 5.32733 276.396 5.44067 276.6 5.52C276.804 5.59933 277.013 5.639 277.229 5.639C277.671 5.639 278.056 5.486 278.385 5.18C278.725 4.874 278.895 4.466 278.895 3.956C278.895 3.446 278.725 3.038 278.385 2.732C278.056 2.426 277.671 2.273 277.229 2.273C276.775 2.273 276.379 2.426 276.039 2.732C275.71 3.038 275.546 3.446 275.546 3.956ZM281.411 10.161C281.411 9.74167 281.49 9.35633 281.649 9.005C281.807 8.64233 282.023 8.33633 282.295 8.087C282.578 7.82633 282.907 7.628 283.281 7.492C283.666 7.34467 284.08 7.271 284.522 7.271C284.964 7.271 285.372 7.34467 285.746 7.492C286.12 7.628 286.443 7.82633 286.715 8.087C286.998 8.33633 287.219 8.64233 287.378 9.005C287.536 9.35633 287.616 9.74167 287.616 10.161C287.616 10.5917 287.536 10.9827 287.378 11.334C287.219 11.6853 286.998 11.9913 286.715 12.252C286.443 12.5127 286.12 12.7167 285.746 12.864C285.372 13 284.964 13.068 284.522 13.068C284.08 13.068 283.666 13 283.281 12.864C282.907 12.7167 282.578 12.5127 282.295 12.252C282.023 11.9913 281.807 11.6853 281.649 11.334C281.49 10.9827 281.411 10.5917 281.411 10.161ZM282.839 10.161C282.839 10.4217 282.884 10.654 282.975 10.858C283.077 11.062 283.201 11.2377 283.349 11.385C283.507 11.5323 283.689 11.6457 283.893 11.725C284.097 11.8043 284.306 11.844 284.522 11.844C284.964 11.844 285.349 11.691 285.678 11.385C286.018 11.079 286.188 10.671 286.188 10.161C286.188 9.651 286.018 9.243 285.678 8.937C285.349 8.631 284.964 8.478 284.522 8.478C284.068 8.478 283.672 8.631 283.332 8.937C283.003 9.243 282.839 9.651 282.839 10.161Z" fill="#222429"/>
<rect y="240" width="344" height="1" fill="#9299A3"/>
</svg>
