<svg viewBox="0 0 535 665" fill="none" xmlns="http://www.w3.org/2000/svg">
<rect x="64" y="249" width="72" height="104" fill="#A3CF46"/>
<path d="M87.2311 295.066H88.6081V307H86.7041V297.446L84.0691 298.636L83.3211 296.987L87.2311 295.066ZM95.8381 307.204C95.0335 307.204 94.3025 307.079 93.6451 306.83C92.9878 306.569 92.4211 306.19 91.9451 305.691C91.4805 305.192 91.1178 304.575 90.8571 303.838C90.6078 303.09 90.4831 302.229 90.4831 301.254C90.4831 300.2 90.6191 299.276 90.8911 298.483C91.1745 297.69 91.5598 297.027 92.0471 296.494C92.5345 295.961 93.1068 295.565 93.7641 295.304C94.4328 295.032 95.1525 294.896 95.9231 294.896C96.9545 294.896 97.8441 295.1 98.5921 295.508C99.3401 295.916 99.9011 296.477 100.275 297.191L98.9491 298.296C98.2918 297.321 97.2718 296.834 95.8891 296.834C94.7898 296.834 93.9398 297.191 93.3391 297.905C92.7498 298.619 92.4438 299.577 92.4211 300.778V300.931C92.7158 300.319 93.1975 299.832 93.8661 299.469C94.5461 299.106 95.3055 298.925 96.1441 298.925C96.8355 298.925 97.4588 299.021 98.0141 299.214C98.5808 299.407 99.0625 299.679 99.4591 300.03C99.8558 300.37 100.156 300.789 100.36 301.288C100.575 301.787 100.683 302.342 100.683 302.954C100.683 303.589 100.564 304.167 100.326 304.688C100.088 305.209 99.7538 305.657 99.3231 306.031C98.8925 306.405 98.3768 306.694 97.7761 306.898C97.1868 307.102 96.5408 307.204 95.8381 307.204ZM95.7701 305.266C96.6541 305.266 97.3568 305.068 97.8781 304.671C98.4108 304.274 98.6771 303.719 98.6771 303.005C98.6771 302.268 98.4221 301.73 97.9121 301.39C97.4135 301.039 96.7561 300.863 95.9401 300.863C94.9768 300.863 94.2401 301.044 93.7301 301.407C93.2315 301.77 92.9821 302.28 92.9821 302.937C92.9821 303.617 93.2201 304.178 93.6961 304.62C94.1835 305.051 94.8748 305.266 95.7701 305.266ZM101.988 305.81C101.988 305.481 102.101 305.198 102.328 304.96C102.566 304.722 102.877 304.603 103.263 304.603C103.637 304.603 103.937 304.722 104.164 304.96C104.402 305.198 104.521 305.481 104.521 305.81C104.521 306.161 104.402 306.456 104.164 306.694C103.937 306.932 103.637 307.051 103.263 307.051C102.877 307.051 102.566 306.932 102.328 306.694C102.101 306.456 101.988 306.161 101.988 305.81ZM110.598 307.204C110.133 307.204 109.68 307.153 109.238 307.051C108.807 306.96 108.399 306.83 108.014 306.66C107.629 306.479 107.277 306.263 106.96 306.014C106.643 305.765 106.376 305.487 106.161 305.181L107.47 303.923C107.821 304.342 108.28 304.671 108.847 304.909C109.425 305.147 110.054 305.266 110.734 305.266C111.233 305.266 111.686 305.181 112.094 305.011C112.513 304.83 112.87 304.58 113.165 304.263C113.46 303.946 113.686 303.566 113.845 303.124C114.015 302.682 114.1 302.195 114.1 301.662V301.39C113.828 301.945 113.386 302.41 112.774 302.784C112.162 303.147 111.38 303.328 110.428 303.328C109.748 303.328 109.125 303.237 108.558 303.056C108.003 302.863 107.521 302.591 107.113 302.24C106.716 301.889 106.405 301.464 106.178 300.965C105.951 300.466 105.838 299.905 105.838 299.282C105.838 298.625 105.957 298.03 106.195 297.497C106.433 296.953 106.773 296.488 107.215 296.103C107.657 295.718 108.19 295.423 108.813 295.219C109.436 295.004 110.128 294.896 110.887 294.896C111.669 294.896 112.377 295.026 113.012 295.287C113.658 295.548 114.202 295.933 114.644 296.443C115.097 296.953 115.449 297.582 115.698 298.33C115.947 299.078 116.072 299.934 116.072 300.897C116.072 301.917 115.942 302.824 115.681 303.617C115.42 304.399 115.052 305.056 114.576 305.589C114.1 306.122 113.522 306.524 112.842 306.796C112.173 307.068 111.425 307.204 110.598 307.204ZM110.751 301.526C111.624 301.526 112.321 301.316 112.842 300.897C113.363 300.478 113.624 299.917 113.624 299.214C113.624 298.489 113.375 297.911 112.876 297.48C112.377 297.049 111.703 296.834 110.853 296.834C109.912 296.834 109.176 297.044 108.643 297.463C108.11 297.882 107.844 298.46 107.844 299.197C107.844 299.922 108.099 300.495 108.609 300.914C109.13 301.322 109.844 301.526 110.751 301.526Z" fill="white"/>
<path d="M83.0321 657.07C83.1161 656.669 83.2561 656.286 83.4521 655.922C83.6481 655.558 83.9001 655.241 84.2081 654.97C84.5161 654.69 84.8848 654.471 85.3141 654.312C85.7434 654.153 86.2334 654.074 86.7841 654.074C87.2974 654.074 87.7548 654.149 88.1561 654.298C88.5574 654.438 88.8981 654.639 89.1781 654.9C89.4581 655.161 89.6681 655.474 89.8081 655.838C89.9574 656.202 90.0321 656.599 90.0321 657.028C90.0321 657.635 89.9014 658.195 89.6401 658.708C89.3881 659.212 89.0661 659.674 88.6741 660.094C88.2821 660.514 87.8528 660.897 87.3861 661.242C86.9194 661.578 86.4761 661.877 86.0561 662.138L84.9781 662.81H90.3961V664H82.7661V663.02L84.8941 661.606C85.5941 661.139 86.1914 660.71 86.6861 660.318C87.1808 659.917 87.5821 659.539 87.8901 659.184C88.2074 658.829 88.4361 658.489 88.5761 658.162C88.7254 657.826 88.8001 657.49 88.8001 657.154C88.8001 656.809 88.7441 656.515 88.6321 656.272C88.5294 656.029 88.3801 655.833 88.1841 655.684C87.9974 655.535 87.7734 655.427 87.5121 655.362C87.2601 655.297 86.9894 655.264 86.7001 655.264C86.2801 655.264 85.9161 655.329 85.6081 655.46C85.3094 655.591 85.0528 655.763 84.8381 655.978C84.6328 656.183 84.4694 656.417 84.3481 656.678C84.2361 656.93 84.1614 657.182 84.1241 657.434L83.0321 657.07ZM91.2264 659.1C91.2264 658.372 91.3104 657.705 91.4784 657.098C91.6464 656.482 91.8984 655.95 92.2344 655.502C92.5797 655.054 93.0137 654.704 93.5364 654.452C94.059 654.2 94.675 654.074 95.3844 654.074C96.0937 654.074 96.7097 654.191 97.2324 654.424C97.755 654.657 98.189 654.993 98.5344 655.432C98.8797 655.871 99.1364 656.403 99.3044 657.028C99.4724 657.644 99.5564 658.335 99.5564 659.1C99.5564 659.828 99.4724 660.5 99.3044 661.116C99.1457 661.723 98.8937 662.25 98.5484 662.698C98.2124 663.146 97.783 663.496 97.2604 663.748C96.7377 664 96.1217 664.126 95.4124 664.126C94.7404 664.126 94.143 664 93.6204 663.748C93.0977 663.496 92.659 663.146 92.3044 662.698C91.9497 662.25 91.679 661.723 91.4924 661.116C91.315 660.5 91.2264 659.828 91.2264 659.1ZM92.4584 659.1C92.4584 660.295 92.7197 661.233 93.2424 661.914C93.765 662.595 94.4884 662.936 95.4124 662.936C96.4204 662.936 97.1577 662.595 97.6244 661.914C98.091 661.233 98.3244 660.295 98.3244 659.1C98.3244 657.905 98.0864 656.967 97.6104 656.286C97.1344 655.605 96.3924 655.264 95.3844 655.264C94.8804 655.264 94.4464 655.353 94.0824 655.53C93.7184 655.707 93.415 655.964 93.1724 656.3C92.9297 656.636 92.7477 657.042 92.6264 657.518C92.5144 657.985 92.4584 658.512 92.4584 659.1ZM100.56 657.07C100.644 656.669 100.784 656.286 100.98 655.922C101.176 655.558 101.428 655.241 101.736 654.97C102.044 654.69 102.413 654.471 102.842 654.312C103.271 654.153 103.761 654.074 104.312 654.074C104.825 654.074 105.283 654.149 105.684 654.298C106.085 654.438 106.426 654.639 106.706 654.9C106.986 655.161 107.196 655.474 107.336 655.838C107.485 656.202 107.56 656.599 107.56 657.028C107.56 657.635 107.429 658.195 107.168 658.708C106.916 659.212 106.594 659.674 106.202 660.094C105.81 660.514 105.381 660.897 104.914 661.242C104.447 661.578 104.004 661.877 103.584 662.138L102.506 662.81H107.924V664H100.294V663.02L102.422 661.606C103.122 661.139 103.719 660.71 104.214 660.318C104.709 659.917 105.11 659.539 105.418 659.184C105.735 658.829 105.964 658.489 106.104 658.162C106.253 657.826 106.328 657.49 106.328 657.154C106.328 656.809 106.272 656.515 106.16 656.272C106.057 656.029 105.908 655.833 105.712 655.684C105.525 655.535 105.301 655.427 105.04 655.362C104.788 655.297 104.517 655.264 104.228 655.264C103.808 655.264 103.444 655.329 103.136 655.46C102.837 655.591 102.581 655.763 102.366 655.978C102.161 656.183 101.997 656.417 101.876 656.678C101.764 656.93 101.689 657.182 101.652 657.434L100.56 657.07ZM108.754 659.1C108.754 658.372 108.838 657.705 109.006 657.098C109.174 656.482 109.426 655.95 109.762 655.502C110.108 655.054 110.542 654.704 111.064 654.452C111.587 654.2 112.203 654.074 112.912 654.074C113.622 654.074 114.238 654.191 114.76 654.424C115.283 654.657 115.717 654.993 116.062 655.432C116.408 655.871 116.664 656.403 116.832 657.028C117 657.644 117.084 658.335 117.084 659.1C117.084 659.828 117 660.5 116.832 661.116C116.674 661.723 116.422 662.25 116.076 662.698C115.74 663.146 115.311 663.496 114.788 663.748C114.266 664 113.65 664.126 112.94 664.126C112.268 664.126 111.671 664 111.148 663.748C110.626 663.496 110.187 663.146 109.832 662.698C109.478 662.25 109.207 661.723 109.02 661.116C108.843 660.5 108.754 659.828 108.754 659.1ZM109.986 659.1C109.986 660.295 110.248 661.233 110.77 661.914C111.293 662.595 112.016 662.936 112.94 662.936C113.948 662.936 114.686 662.595 115.152 661.914C115.619 661.233 115.852 660.295 115.852 659.1C115.852 657.905 115.614 656.967 115.138 656.286C114.662 655.605 113.92 655.264 112.912 655.264C112.408 655.264 111.974 655.353 111.61 655.53C111.246 655.707 110.943 655.964 110.7 656.3C110.458 656.636 110.276 657.042 110.154 657.518C110.042 657.985 109.986 658.512 109.986 659.1Z" fill="#777F8C"/>
<rect x="64" y="353" width="72" height="120" fill="#648494"/>
<path d="M87.6129 407.066H88.9899V419H87.0859V409.446L84.4509 410.636L83.7029 408.987L87.6129 407.066ZM95.523 419.204C95.0583 419.204 94.605 419.153 94.163 419.051C93.7323 418.96 93.3243 418.83 92.939 418.66C92.5536 418.479 92.2023 418.263 91.885 418.014C91.5676 417.765 91.3013 417.487 91.086 417.181L92.395 415.923C92.7463 416.342 93.2053 416.671 93.772 416.909C94.35 417.147 94.979 417.266 95.659 417.266C96.1576 417.266 96.611 417.181 97.019 417.011C97.4383 416.83 97.7953 416.58 98.09 416.263C98.3846 415.946 98.6113 415.566 98.77 415.124C98.94 414.682 99.025 414.195 99.025 413.662V413.39C98.753 413.945 98.311 414.41 97.699 414.784C97.087 415.147 96.305 415.328 95.353 415.328C94.673 415.328 94.0496 415.237 93.483 415.056C92.9276 414.863 92.446 414.591 92.038 414.24C91.6413 413.889 91.3296 413.464 91.103 412.965C90.8763 412.466 90.763 411.905 90.763 411.282C90.763 410.625 90.882 410.03 91.12 409.497C91.358 408.953 91.698 408.488 92.14 408.103C92.582 407.718 93.1146 407.423 93.738 407.219C94.3613 407.004 95.0526 406.896 95.812 406.896C96.594 406.896 97.3023 407.026 97.937 407.287C98.583 407.548 99.127 407.933 99.569 408.443C100.022 408.953 100.374 409.582 100.623 410.33C100.872 411.078 100.997 411.934 100.997 412.897C100.997 413.917 100.867 414.824 100.606 415.617C100.345 416.399 99.977 417.056 99.501 417.589C99.025 418.122 98.447 418.524 97.767 418.796C97.0983 419.068 96.3503 419.204 95.523 419.204ZM95.676 413.526C96.5486 413.526 97.2456 413.316 97.767 412.897C98.2883 412.478 98.549 411.917 98.549 411.214C98.549 410.489 98.2996 409.911 97.801 409.48C97.3023 409.049 96.628 408.834 95.778 408.834C94.8373 408.834 94.1006 409.044 93.568 409.463C93.0353 409.882 92.769 410.46 92.769 411.197C92.769 411.922 93.024 412.495 93.534 412.914C94.0553 413.322 94.7693 413.526 95.676 413.526ZM102.386 417.81C102.386 417.481 102.499 417.198 102.726 416.96C102.964 416.722 103.276 416.603 103.661 416.603C104.035 416.603 104.335 416.722 104.562 416.96C104.8 417.198 104.919 417.481 104.919 417.81C104.919 418.161 104.8 418.456 104.562 418.694C104.335 418.932 104.035 419.051 103.661 419.051C103.276 419.051 102.964 418.932 102.726 418.694C102.499 418.456 102.386 418.161 102.386 417.81ZM107.443 407.1H115.246V409.038H109.109L108.837 411.588C109.03 411.441 109.336 411.316 109.755 411.214C110.186 411.112 110.679 411.061 111.234 411.061C111.96 411.061 112.606 411.163 113.172 411.367C113.739 411.56 114.215 411.837 114.6 412.2C114.986 412.551 115.275 412.971 115.467 413.458C115.671 413.945 115.773 414.478 115.773 415.056C115.773 415.668 115.654 416.229 115.416 416.739C115.178 417.249 114.85 417.691 114.43 418.065C114.022 418.428 113.535 418.711 112.968 418.915C112.402 419.108 111.79 419.204 111.132 419.204C109.965 419.204 108.951 418.966 108.089 418.49C107.228 418.014 106.565 417.289 106.1 416.314L107.834 415.413C108.095 415.957 108.492 416.405 109.024 416.756C109.557 417.096 110.226 417.266 111.03 417.266C111.948 417.266 112.634 417.068 113.087 416.671C113.541 416.263 113.767 415.73 113.767 415.073C113.767 414.37 113.507 413.826 112.985 413.441C112.475 413.044 111.795 412.846 110.945 412.846C110.311 412.846 109.784 412.931 109.364 413.101C108.956 413.271 108.571 413.492 108.208 413.764L106.78 413.169L107.443 407.1Z" fill="white"/>
<rect x="360" y="239" width="72" height="141" fill="#648494"/>
<path d="M379.518 306.585C379.632 306.041 379.824 305.542 380.096 305.089C380.38 304.636 380.725 304.25 381.133 303.933C381.541 303.604 382.006 303.349 382.527 303.168C383.06 302.987 383.638 302.896 384.261 302.896C384.919 302.896 385.508 302.992 386.029 303.185C386.551 303.366 386.987 303.621 387.338 303.95C387.69 304.279 387.956 304.681 388.137 305.157C388.33 305.622 388.426 306.132 388.426 306.687C388.426 307.696 388.058 308.648 387.321 309.543C386.596 310.427 385.457 311.362 383.904 312.348L382.782 313.062H388.749V315H379.382V313.419L381.541 311.991C382.482 311.368 383.264 310.824 383.887 310.359C384.522 309.883 385.026 309.452 385.4 309.067C385.774 308.682 386.035 308.313 386.182 307.962C386.341 307.611 386.42 307.242 386.42 306.857C386.42 306.506 386.358 306.2 386.233 305.939C386.109 305.678 385.939 305.469 385.723 305.31C385.519 305.151 385.276 305.032 384.992 304.953C384.72 304.874 384.431 304.834 384.125 304.834C383.683 304.834 383.298 304.902 382.969 305.038C382.641 305.174 382.357 305.355 382.119 305.582C381.893 305.797 381.706 306.047 381.558 306.33C381.411 306.602 381.298 306.885 381.218 307.18L379.518 306.585ZM389.754 306.585C389.867 306.041 390.06 305.542 390.332 305.089C390.615 304.636 390.961 304.25 391.369 303.933C391.777 303.604 392.241 303.349 392.763 303.168C393.295 302.987 393.873 302.896 394.497 302.896C395.154 302.896 395.743 302.992 396.265 303.185C396.786 303.366 397.222 303.621 397.574 303.95C397.925 304.279 398.191 304.681 398.373 305.157C398.565 305.622 398.662 306.132 398.662 306.687C398.662 307.696 398.293 308.648 397.557 309.543C396.831 310.427 395.692 311.362 394.14 312.348L393.018 313.062H398.985V315H389.618V313.419L391.777 311.991C392.717 311.368 393.499 310.824 394.123 310.359C394.757 309.883 395.262 309.452 395.636 309.067C396.01 308.682 396.27 308.313 396.418 307.962C396.576 307.611 396.656 307.242 396.656 306.857C396.656 306.506 396.593 306.2 396.469 305.939C396.344 305.678 396.174 305.469 395.959 305.31C395.755 305.151 395.511 305.032 395.228 304.953C394.956 304.874 394.667 304.834 394.361 304.834C393.919 304.834 393.533 304.902 393.205 305.038C392.876 305.174 392.593 305.355 392.355 305.582C392.128 305.797 391.941 306.047 391.794 306.33C391.646 306.602 391.533 306.885 391.454 307.18L389.754 306.585ZM400.312 313.81C400.312 313.481 400.425 313.198 400.652 312.96C400.89 312.722 401.201 312.603 401.587 312.603C401.961 312.603 402.261 312.722 402.488 312.96C402.726 313.198 402.845 313.481 402.845 313.81C402.845 314.161 402.726 314.456 402.488 314.694C402.261 314.932 401.961 315.051 401.587 315.051C401.201 315.051 400.89 314.932 400.652 314.694C400.425 314.456 400.312 314.161 400.312 313.81ZM403.822 303.1H412.917V304.443L407.409 315H405.318L410.605 305.038H403.822V303.1Z" fill="white"/>
<rect x="64" y="473" width="72" height="168" fill="#5FAF2D"/>
<path d="M83.9999 554.585C84.1132 554.041 84.3059 553.542 84.5779 553.089C84.8612 552.636 85.2069 552.25 85.6149 551.933C86.0229 551.604 86.4875 551.349 87.0089 551.168C87.5415 550.987 88.1195 550.896 88.7429 550.896C89.4002 550.896 89.9895 550.992 90.5109 551.185C91.0322 551.366 91.4685 551.621 91.8199 551.95C92.1712 552.279 92.4375 552.681 92.6189 553.157C92.8115 553.622 92.9079 554.132 92.9079 554.687C92.9079 555.696 92.5395 556.648 91.8029 557.543C91.0775 558.427 89.9385 559.362 88.3859 560.348L87.2639 561.062H93.2309V563H83.8639V561.419L86.0229 559.991C86.9635 559.368 87.7455 558.824 88.3689 558.359C89.0035 557.883 89.5079 557.452 89.8819 557.067C90.2559 556.682 90.5165 556.313 90.6639 555.962C90.8225 555.611 90.9019 555.242 90.9019 554.857C90.9019 554.506 90.8395 554.2 90.7149 553.939C90.5902 553.678 90.4202 553.469 90.2049 553.31C90.0009 553.151 89.7572 553.032 89.4739 552.953C89.2019 552.874 88.9129 552.834 88.6069 552.834C88.1649 552.834 87.7795 552.902 87.4509 553.038C87.1222 553.174 86.8389 553.355 86.6009 553.582C86.3742 553.797 86.1872 554.047 86.0399 554.33C85.8925 554.602 85.7792 554.885 85.6999 555.18L83.9999 554.585ZM93.7931 551.1H102.888V552.443L97.3801 563H95.2891L100.576 553.038H93.7931V551.1ZM102.834 561.81C102.834 561.481 102.948 561.198 103.174 560.96C103.412 560.722 103.724 560.603 104.109 560.603C104.483 560.603 104.784 560.722 105.01 560.96C105.248 561.198 105.367 561.481 105.367 561.81C105.367 562.161 105.248 562.456 105.01 562.694C104.784 562.932 104.483 563.051 104.109 563.051C103.724 563.051 103.412 562.932 103.174 562.694C102.948 562.456 102.834 562.161 102.834 561.81ZM106.634 553.99C106.792 553.548 107.013 553.14 107.297 552.766C107.58 552.381 107.92 552.052 108.317 551.78C108.725 551.497 109.195 551.281 109.728 551.134C110.26 550.975 110.861 550.896 111.53 550.896C112.119 550.896 112.669 550.97 113.179 551.117C113.689 551.264 114.125 551.474 114.488 551.746C114.862 552.007 115.151 552.33 115.355 552.715C115.57 553.1 115.678 553.531 115.678 554.007C115.678 554.653 115.502 555.208 115.151 555.673C114.811 556.126 114.335 556.461 113.723 556.676C114.017 556.733 114.301 556.829 114.573 556.965C114.845 557.09 115.088 557.265 115.304 557.492C115.519 557.719 115.689 557.996 115.814 558.325C115.938 558.654 116.001 559.033 116.001 559.464C116.001 560.042 115.887 560.563 115.661 561.028C115.434 561.493 115.122 561.889 114.726 562.218C114.329 562.535 113.853 562.779 113.298 562.949C112.754 563.119 112.159 563.204 111.513 563.204C110.209 563.204 109.11 562.932 108.215 562.388C107.331 561.844 106.713 561.039 106.362 559.974L108.147 559.209C108.26 559.504 108.407 559.781 108.589 560.042C108.781 560.303 109.008 560.535 109.269 560.739C109.541 560.932 109.858 561.085 110.221 561.198C110.583 561.311 110.997 561.368 111.462 561.368C112.289 561.368 112.918 561.204 113.349 560.875C113.779 560.546 113.995 560.082 113.995 559.481C113.995 559.164 113.927 558.897 113.791 558.682C113.666 558.467 113.485 558.297 113.247 558.172C113.02 558.036 112.742 557.94 112.414 557.883C112.096 557.826 111.745 557.798 111.36 557.798H109.813V556.03H111.088C111.938 556.03 112.578 555.871 113.009 555.554C113.451 555.225 113.672 554.823 113.672 554.347C113.672 553.871 113.468 553.503 113.06 553.242C112.663 552.97 112.091 552.834 111.343 552.834C110.912 552.834 110.527 552.891 110.187 553.004C109.858 553.106 109.569 553.248 109.32 553.429C109.082 553.61 108.872 553.814 108.691 554.041C108.521 554.256 108.385 554.483 108.283 554.721L106.634 553.99Z" fill="white"/>
<rect x="212" y="150" width="72" height="107" fill="#A3CF46"/>
<path d="M239.016 197.066H240.393V209H238.489V199.446L235.854 200.636L235.106 198.987L239.016 197.066ZM241.826 197.1H250.921V198.443L245.413 209H243.322L248.609 199.038H241.826V197.1ZM250.867 207.81C250.867 207.481 250.981 207.198 251.207 206.96C251.445 206.722 251.757 206.603 252.142 206.603C252.516 206.603 252.817 206.722 253.043 206.96C253.281 207.198 253.4 207.481 253.4 207.81C253.4 208.161 253.281 208.456 253.043 208.694C252.817 208.932 252.516 209.051 252.142 209.051C251.757 209.051 251.445 208.932 251.207 208.694C250.981 208.456 250.867 208.161 250.867 207.81ZM258.101 197.066H259.478V209H257.574V199.446L254.939 200.636L254.191 198.987L258.101 197.066Z" fill="white"/>
<path d="M233.028 657.07C233.112 656.669 233.252 656.286 233.448 655.922C233.644 655.558 233.896 655.241 234.204 654.97C234.512 654.69 234.881 654.471 235.31 654.312C235.74 654.153 236.23 654.074 236.78 654.074C237.294 654.074 237.751 654.149 238.152 654.298C238.554 654.438 238.894 654.639 239.174 654.9C239.454 655.161 239.664 655.474 239.804 655.838C239.954 656.202 240.028 656.599 240.028 657.028C240.028 657.635 239.898 658.195 239.636 658.708C239.384 659.212 239.062 659.674 238.67 660.094C238.278 660.514 237.849 660.897 237.382 661.242C236.916 661.578 236.472 661.877 236.052 662.138L234.974 662.81H240.392V664H232.762V663.02L234.89 661.606C235.59 661.139 236.188 660.71 236.682 660.318C237.177 659.917 237.578 659.539 237.886 659.184C238.204 658.829 238.432 658.489 238.572 658.162C238.722 657.826 238.796 657.49 238.796 657.154C238.796 656.809 238.74 656.515 238.628 656.272C238.526 656.029 238.376 655.833 238.18 655.684C237.994 655.535 237.77 655.427 237.508 655.362C237.256 655.297 236.986 655.264 236.696 655.264C236.276 655.264 235.912 655.329 235.604 655.46C235.306 655.591 235.049 655.763 234.834 655.978C234.629 656.183 234.466 656.417 234.344 656.678C234.232 656.93 234.158 657.182 234.12 657.434L233.028 657.07ZM241.222 659.1C241.222 658.372 241.306 657.705 241.474 657.098C241.642 656.482 241.894 655.95 242.23 655.502C242.576 655.054 243.01 654.704 243.532 654.452C244.055 654.2 244.671 654.074 245.38 654.074C246.09 654.074 246.706 654.191 247.228 654.424C247.751 654.657 248.185 654.993 248.53 655.432C248.876 655.871 249.132 656.403 249.3 657.028C249.468 657.644 249.552 658.335 249.552 659.1C249.552 659.828 249.468 660.5 249.3 661.116C249.142 661.723 248.89 662.25 248.544 662.698C248.208 663.146 247.779 663.496 247.256 663.748C246.734 664 246.118 664.126 245.408 664.126C244.736 664.126 244.139 664 243.616 663.748C243.094 663.496 242.655 663.146 242.3 662.698C241.946 662.25 241.675 661.723 241.488 661.116C241.311 660.5 241.222 659.828 241.222 659.1ZM242.454 659.1C242.454 660.295 242.716 661.233 243.238 661.914C243.761 662.595 244.484 662.936 245.408 662.936C246.416 662.936 247.154 662.595 247.62 661.914C248.087 661.233 248.32 660.295 248.32 659.1C248.32 657.905 248.082 656.967 247.606 656.286C247.13 655.605 246.388 655.264 245.38 655.264C244.876 655.264 244.442 655.353 244.078 655.53C243.714 655.707 243.411 655.964 243.168 656.3C242.926 656.636 242.744 657.042 242.622 657.518C242.51 657.985 242.454 658.512 242.454 659.1ZM250.556 657.07C250.64 656.669 250.78 656.286 250.976 655.922C251.172 655.558 251.424 655.241 251.732 654.97C252.04 654.69 252.409 654.471 252.838 654.312C253.267 654.153 253.757 654.074 254.308 654.074C254.821 654.074 255.279 654.149 255.68 654.298C256.081 654.438 256.422 654.639 256.702 654.9C256.982 655.161 257.192 655.474 257.332 655.838C257.481 656.202 257.556 656.599 257.556 657.028C257.556 657.635 257.425 658.195 257.164 658.708C256.912 659.212 256.59 659.674 256.198 660.094C255.806 660.514 255.377 660.897 254.91 661.242C254.443 661.578 254 661.877 253.58 662.138L252.502 662.81H257.92V664H250.29V663.02L252.418 661.606C253.118 661.139 253.715 660.71 254.21 660.318C254.705 659.917 255.106 659.539 255.414 659.184C255.731 658.829 255.96 658.489 256.1 658.162C256.249 657.826 256.324 657.49 256.324 657.154C256.324 656.809 256.268 656.515 256.156 656.272C256.053 656.029 255.904 655.833 255.708 655.684C255.521 655.535 255.297 655.427 255.036 655.362C254.784 655.297 254.513 655.264 254.224 655.264C253.804 655.264 253.44 655.329 253.132 655.46C252.833 655.591 252.577 655.763 252.362 655.978C252.157 656.183 251.993 656.417 251.872 656.678C251.76 656.93 251.685 657.182 251.648 657.434L250.556 657.07ZM261.55 654.144H262.348V664H261.172V655.642L258.638 656.804L258.19 655.754L261.55 654.144Z" fill="#777F8C"/>
<rect x="212" y="257" width="72" height="136" fill="#648494"/>
<path d="M230.547 322.585C230.661 322.041 230.853 321.542 231.125 321.089C231.409 320.636 231.754 320.25 232.162 319.933C232.57 319.604 233.035 319.349 233.556 319.168C234.089 318.987 234.667 318.896 235.29 318.896C235.948 318.896 236.537 318.992 237.058 319.185C237.58 319.366 238.016 319.621 238.367 319.95C238.719 320.279 238.985 320.681 239.166 321.157C239.359 321.622 239.455 322.132 239.455 322.687C239.455 323.696 239.087 324.648 238.35 325.543C237.625 326.427 236.486 327.362 234.933 328.348L233.811 329.062H239.778V331H230.411V329.419L232.57 327.991C233.511 327.368 234.293 326.824 234.916 326.359C235.551 325.883 236.055 325.452 236.429 325.067C236.803 324.682 237.064 324.313 237.211 323.962C237.37 323.611 237.449 323.242 237.449 322.857C237.449 322.506 237.387 322.2 237.262 321.939C237.138 321.678 236.968 321.469 236.752 321.31C236.548 321.151 236.305 321.032 236.021 320.953C235.749 320.874 235.46 320.834 235.154 320.834C234.712 320.834 234.327 320.902 233.998 321.038C233.67 321.174 233.386 321.355 233.148 321.582C232.922 321.797 232.735 322.047 232.587 322.33C232.44 322.602 232.327 322.885 232.247 323.18L230.547 322.585ZM240.782 322.585C240.896 322.041 241.088 321.542 241.36 321.089C241.644 320.636 241.989 320.25 242.397 319.933C242.805 319.604 243.27 319.349 243.791 319.168C244.324 318.987 244.902 318.896 245.525 318.896C246.183 318.896 246.772 318.992 247.293 319.185C247.815 319.366 248.251 319.621 248.602 319.95C248.954 320.279 249.22 320.681 249.401 321.157C249.594 321.622 249.69 322.132 249.69 322.687C249.69 323.696 249.322 324.648 248.585 325.543C247.86 326.427 246.721 327.362 245.168 328.348L244.046 329.062H250.013V331H240.646V329.419L242.805 327.991C243.746 327.368 244.528 326.824 245.151 326.359C245.786 325.883 246.29 325.452 246.664 325.067C247.038 324.682 247.299 324.313 247.446 323.962C247.605 323.611 247.684 323.242 247.684 322.857C247.684 322.506 247.622 322.2 247.497 321.939C247.373 321.678 247.203 321.469 246.987 321.31C246.783 321.151 246.54 321.032 246.256 320.953C245.984 320.874 245.695 320.834 245.389 320.834C244.947 320.834 244.562 320.902 244.233 321.038C243.905 321.174 243.621 321.355 243.383 321.582C243.157 321.797 242.97 322.047 242.822 322.33C242.675 322.602 242.562 322.885 242.482 323.18L240.782 322.585ZM251.341 329.81C251.341 329.481 251.454 329.198 251.681 328.96C251.919 328.722 252.23 328.603 252.616 328.603C252.99 328.603 253.29 328.722 253.517 328.96C253.755 329.198 253.874 329.481 253.874 329.81C253.874 330.161 253.755 330.456 253.517 330.694C253.29 330.932 252.99 331.051 252.616 331.051C252.23 331.051 251.919 330.932 251.681 330.694C251.454 330.456 251.341 330.161 251.341 329.81ZM261.838 328.79H254.851V327.447L262.11 319.083H263.742V326.971H265.782V328.79H263.742V331H261.838V328.79ZM261.838 326.971V322.126L257.435 326.971H261.838Z" fill="white"/>
<rect x="212" y="393" width="72" height="248" fill="#5FAF2D"/>
<path d="M230.851 513.99C231.009 513.548 231.23 513.14 231.514 512.766C231.797 512.381 232.137 512.052 232.534 511.78C232.942 511.497 233.412 511.281 233.945 511.134C234.477 510.975 235.078 510.896 235.747 510.896C236.336 510.896 236.886 510.97 237.396 511.117C237.906 511.264 238.342 511.474 238.705 511.746C239.079 512.007 239.368 512.33 239.572 512.715C239.787 513.1 239.895 513.531 239.895 514.007C239.895 514.653 239.719 515.208 239.368 515.673C239.028 516.126 238.552 516.461 237.94 516.676C238.234 516.733 238.518 516.829 238.79 516.965C239.062 517.09 239.305 517.265 239.521 517.492C239.736 517.719 239.906 517.996 240.031 518.325C240.155 518.654 240.218 519.033 240.218 519.464C240.218 520.042 240.104 520.563 239.878 521.028C239.651 521.493 239.339 521.889 238.943 522.218C238.546 522.535 238.07 522.779 237.515 522.949C236.971 523.119 236.376 523.204 235.73 523.204C234.426 523.204 233.327 522.932 232.432 522.388C231.548 521.844 230.93 521.039 230.579 519.974L232.364 519.209C232.477 519.504 232.624 519.781 232.806 520.042C232.998 520.303 233.225 520.535 233.486 520.739C233.758 520.932 234.075 521.085 234.438 521.198C234.8 521.311 235.214 521.368 235.679 521.368C236.506 521.368 237.135 521.204 237.566 520.875C237.996 520.546 238.212 520.082 238.212 519.481C238.212 519.164 238.144 518.897 238.008 518.682C237.883 518.467 237.702 518.297 237.464 518.172C237.237 518.036 236.959 517.94 236.631 517.883C236.313 517.826 235.962 517.798 235.577 517.798H234.03V516.03H235.305C236.155 516.03 236.795 515.871 237.226 515.554C237.668 515.225 237.889 514.823 237.889 514.347C237.889 513.871 237.685 513.503 237.277 513.242C236.88 512.97 236.308 512.834 235.56 512.834C235.129 512.834 234.744 512.891 234.404 513.004C234.075 513.106 233.786 513.248 233.537 513.429C233.299 513.61 233.089 513.814 232.908 514.041C232.738 514.256 232.602 514.483 232.5 514.721L230.851 513.99ZM245.963 523.204C245.499 523.204 245.045 523.153 244.603 523.051C244.173 522.96 243.765 522.83 243.379 522.66C242.994 522.479 242.643 522.263 242.325 522.014C242.008 521.765 241.742 521.487 241.526 521.181L242.835 519.923C243.187 520.342 243.646 520.671 244.212 520.909C244.79 521.147 245.419 521.266 246.099 521.266C246.598 521.266 247.051 521.181 247.459 521.011C247.879 520.83 248.236 520.58 248.53 520.263C248.825 519.946 249.052 519.566 249.21 519.124C249.38 518.682 249.465 518.195 249.465 517.662V517.39C249.193 517.945 248.751 518.41 248.139 518.784C247.527 519.147 246.745 519.328 245.793 519.328C245.113 519.328 244.49 519.237 243.923 519.056C243.368 518.863 242.886 518.591 242.478 518.24C242.082 517.889 241.77 517.464 241.543 516.965C241.317 516.466 241.203 515.905 241.203 515.282C241.203 514.625 241.322 514.03 241.56 513.497C241.798 512.953 242.138 512.488 242.58 512.103C243.022 511.718 243.555 511.423 244.178 511.219C244.802 511.004 245.493 510.896 246.252 510.896C247.034 510.896 247.743 511.026 248.377 511.287C249.023 511.548 249.567 511.933 250.009 512.443C250.463 512.953 250.814 513.582 251.063 514.33C251.313 515.078 251.437 515.934 251.437 516.897C251.437 517.917 251.307 518.824 251.046 519.617C250.786 520.399 250.417 521.056 249.941 521.589C249.465 522.122 248.887 522.524 248.207 522.796C247.539 523.068 246.791 523.204 245.963 523.204ZM246.116 517.526C246.989 517.526 247.686 517.316 248.207 516.897C248.729 516.478 248.989 515.917 248.989 515.214C248.989 514.489 248.74 513.911 248.241 513.48C247.743 513.049 247.068 512.834 246.218 512.834C245.278 512.834 244.541 513.044 244.008 513.463C243.476 513.882 243.209 514.46 243.209 515.197C243.209 515.922 243.464 516.495 243.974 516.914C244.496 517.322 245.21 517.526 246.116 517.526ZM252.826 521.81C252.826 521.481 252.94 521.198 253.166 520.96C253.404 520.722 253.716 520.603 254.101 520.603C254.475 520.603 254.776 520.722 255.002 520.96C255.24 521.198 255.359 521.481 255.359 521.81C255.359 522.161 255.24 522.456 255.002 522.694C254.776 522.932 254.475 523.051 254.101 523.051C253.716 523.051 253.404 522.932 253.166 522.694C252.94 522.456 252.826 522.161 252.826 521.81ZM256.337 511.1H265.432V512.443L259.924 523H257.833L263.12 513.038H256.337V511.1Z" fill="white"/>
<rect x="360" y="113" width="72" height="126" fill="#A3CF46"/>
<path d="M377.999 173.585C378.113 173.041 378.305 172.542 378.577 172.089C378.861 171.636 379.206 171.25 379.614 170.933C380.022 170.604 380.487 170.349 381.008 170.168C381.541 169.987 382.119 169.896 382.742 169.896C383.4 169.896 383.989 169.992 384.51 170.185C385.032 170.366 385.468 170.621 385.819 170.95C386.171 171.279 386.437 171.681 386.618 172.157C386.811 172.622 386.907 173.132 386.907 173.687C386.907 174.696 386.539 175.648 385.802 176.543C385.077 177.427 383.938 178.362 382.385 179.348L381.263 180.062H387.23V182H377.863V180.419L380.022 178.991C380.963 178.368 381.745 177.824 382.368 177.359C383.003 176.883 383.507 176.452 383.881 176.067C384.255 175.682 384.516 175.313 384.663 174.962C384.822 174.611 384.901 174.242 384.901 173.857C384.901 173.506 384.839 173.2 384.714 172.939C384.59 172.678 384.42 172.469 384.204 172.31C384 172.151 383.757 172.032 383.473 171.953C383.201 171.874 382.912 171.834 382.606 171.834C382.164 171.834 381.779 171.902 381.45 172.038C381.122 172.174 380.838 172.355 380.6 172.582C380.374 172.797 380.187 173.047 380.039 173.33C379.892 173.602 379.779 173.885 379.699 174.18L377.999 173.585ZM388.201 176.05C388.201 175.155 388.308 174.333 388.524 173.585C388.739 172.826 389.056 172.174 389.476 171.63C389.906 171.086 390.445 170.661 391.091 170.355C391.737 170.049 392.49 169.896 393.352 169.896C394.213 169.896 394.967 170.043 395.613 170.338C396.27 170.633 396.814 171.046 397.245 171.579C397.675 172.112 397.998 172.758 398.214 173.517C398.429 174.276 398.537 175.121 398.537 176.05C398.537 176.945 398.429 177.773 398.214 178.532C397.998 179.28 397.675 179.926 397.245 180.47C396.825 181.014 396.293 181.439 395.647 181.745C395.001 182.051 394.247 182.204 393.386 182.204C392.547 182.204 391.805 182.051 391.159 181.745C390.513 181.439 389.969 181.014 389.527 180.47C389.096 179.926 388.767 179.28 388.541 178.532C388.314 177.773 388.201 176.945 388.201 176.05ZM390.207 176.05C390.207 177.387 390.479 178.424 391.023 179.161C391.578 179.898 392.366 180.266 393.386 180.266C394.496 180.266 395.295 179.898 395.783 179.161C396.281 178.424 396.531 177.387 396.531 176.05C396.531 174.713 396.281 173.676 395.783 172.939C395.284 172.202 394.474 171.834 393.352 171.834C392.275 171.834 391.482 172.208 390.972 172.956C390.462 173.693 390.207 174.724 390.207 176.05ZM399.888 180.81C399.888 180.481 400.002 180.198 400.228 179.96C400.466 179.722 400.778 179.603 401.163 179.603C401.537 179.603 401.838 179.722 402.064 179.96C402.302 180.198 402.421 180.481 402.421 180.81C402.421 181.161 402.302 181.456 402.064 181.694C401.838 181.932 401.537 182.051 401.163 182.051C400.778 182.051 400.466 181.932 400.228 181.694C400.002 181.456 399.888 181.161 399.888 180.81ZM410.386 179.79H403.399V178.447L410.658 170.083H412.29V177.971H414.33V179.79H412.29V182H410.386V179.79ZM410.386 177.971V173.126L405.983 177.971H410.386Z" fill="white"/>
<path d="M379.754 657.07C379.838 656.669 379.978 656.286 380.174 655.922C380.37 655.558 380.622 655.241 380.93 654.97C381.238 654.69 381.606 654.471 382.036 654.312C382.465 654.153 382.955 654.074 383.506 654.074C384.019 654.074 384.476 654.149 384.878 654.298C385.279 654.438 385.62 654.639 385.9 654.9C386.18 655.161 386.39 655.474 386.53 655.838C386.679 656.202 386.754 656.599 386.754 657.028C386.754 657.635 386.623 658.195 386.362 658.708C386.11 659.212 385.788 659.674 385.396 660.094C385.004 660.514 384.574 660.897 384.108 661.242C383.641 661.578 383.198 661.877 382.778 662.138L381.7 662.81H387.118V664H379.488V663.02L381.616 661.606C382.316 661.139 382.913 660.71 383.408 660.318C383.902 659.917 384.304 659.539 384.612 659.184C384.929 658.829 385.158 658.489 385.298 658.162C385.447 657.826 385.522 657.49 385.522 657.154C385.522 656.809 385.466 656.515 385.354 656.272C385.251 656.029 385.102 655.833 384.906 655.684C384.719 655.535 384.495 655.427 384.234 655.362C383.982 655.297 383.711 655.264 383.422 655.264C383.002 655.264 382.638 655.329 382.33 655.46C382.031 655.591 381.774 655.763 381.56 655.978C381.354 656.183 381.191 656.417 381.07 656.678C380.958 656.93 380.883 657.182 380.846 657.434L379.754 657.07ZM387.948 659.1C387.948 658.372 388.032 657.705 388.2 657.098C388.368 656.482 388.62 655.95 388.956 655.502C389.301 655.054 389.735 654.704 390.258 654.452C390.781 654.2 391.397 654.074 392.106 654.074C392.815 654.074 393.431 654.191 393.954 654.424C394.477 654.657 394.911 654.993 395.256 655.432C395.601 655.871 395.858 656.403 396.026 657.028C396.194 657.644 396.278 658.335 396.278 659.1C396.278 659.828 396.194 660.5 396.026 661.116C395.867 661.723 395.615 662.25 395.27 662.698C394.934 663.146 394.505 663.496 393.982 663.748C393.459 664 392.843 664.126 392.134 664.126C391.462 664.126 390.865 664 390.342 663.748C389.819 663.496 389.381 663.146 389.026 662.698C388.671 662.25 388.401 661.723 388.214 661.116C388.037 660.5 387.948 659.828 387.948 659.1ZM389.18 659.1C389.18 660.295 389.441 661.233 389.964 661.914C390.487 662.595 391.21 662.936 392.134 662.936C393.142 662.936 393.879 662.595 394.346 661.914C394.813 661.233 395.046 660.295 395.046 659.1C395.046 657.905 394.808 656.967 394.332 656.286C393.856 655.605 393.114 655.264 392.106 655.264C391.602 655.264 391.168 655.353 390.804 655.53C390.44 655.707 390.137 655.964 389.894 656.3C389.651 656.636 389.469 657.042 389.348 657.518C389.236 657.985 389.18 658.512 389.18 659.1ZM397.282 657.07C397.366 656.669 397.506 656.286 397.702 655.922C397.898 655.558 398.15 655.241 398.458 654.97C398.766 654.69 399.134 654.471 399.564 654.312C399.993 654.153 400.483 654.074 401.034 654.074C401.547 654.074 402.004 654.149 402.406 654.298C402.807 654.438 403.148 654.639 403.428 654.9C403.708 655.161 403.918 655.474 404.058 655.838C404.207 656.202 404.282 656.599 404.282 657.028C404.282 657.635 404.151 658.195 403.89 658.708C403.638 659.212 403.316 659.674 402.924 660.094C402.532 660.514 402.102 660.897 401.636 661.242C401.169 661.578 400.726 661.877 400.306 662.138L399.228 662.81H404.646V664H397.016V663.02L399.144 661.606C399.844 661.139 400.441 660.71 400.936 660.318C401.43 659.917 401.832 659.539 402.14 659.184C402.457 658.829 402.686 658.489 402.826 658.162C402.975 657.826 403.05 657.49 403.05 657.154C403.05 656.809 402.994 656.515 402.882 656.272C402.779 656.029 402.63 655.833 402.434 655.684C402.247 655.535 402.023 655.427 401.762 655.362C401.51 655.297 401.239 655.264 400.95 655.264C400.53 655.264 400.166 655.329 399.858 655.46C399.559 655.591 399.302 655.763 399.088 655.978C398.882 656.183 398.719 656.417 398.598 656.678C398.486 656.93 398.411 657.182 398.374 657.434L397.282 657.07ZM405.574 657.07C405.658 656.669 405.798 656.286 405.994 655.922C406.19 655.558 406.442 655.241 406.75 654.97C407.058 654.69 407.427 654.471 407.856 654.312C408.285 654.153 408.775 654.074 409.326 654.074C409.839 654.074 410.297 654.149 410.698 654.298C411.099 654.438 411.44 654.639 411.72 654.9C412 655.161 412.21 655.474 412.35 655.838C412.499 656.202 412.574 656.599 412.574 657.028C412.574 657.635 412.443 658.195 412.182 658.708C411.93 659.212 411.608 659.674 411.216 660.094C410.824 660.514 410.395 660.897 409.928 661.242C409.461 661.578 409.018 661.877 408.598 662.138L407.52 662.81H412.938V664H405.308V663.02L407.436 661.606C408.136 661.139 408.733 660.71 409.228 660.318C409.723 659.917 410.124 659.539 410.432 659.184C410.749 658.829 410.978 658.489 411.118 658.162C411.267 657.826 411.342 657.49 411.342 657.154C411.342 656.809 411.286 656.515 411.174 656.272C411.071 656.029 410.922 655.833 410.726 655.684C410.539 655.535 410.315 655.427 410.054 655.362C409.802 655.297 409.531 655.264 409.242 655.264C408.822 655.264 408.458 655.329 408.15 655.46C407.851 655.591 407.595 655.763 407.38 655.978C407.175 656.183 407.011 656.417 406.89 656.678C406.778 656.93 406.703 657.182 406.666 657.434L405.574 657.07Z" fill="#222429"/>
<rect x="360" y="380" width="72" height="261" fill="#5FAF2D"/>
<path d="M385.557 513.79H378.57V512.447L385.829 504.083H387.461V511.971H389.501V513.79H387.461V516H385.557V513.79ZM385.557 511.971V507.126L381.154 511.971H385.557ZM390.26 507.585C390.373 507.041 390.566 506.542 390.838 506.089C391.121 505.636 391.467 505.25 391.875 504.933C392.283 504.604 392.748 504.349 393.269 504.168C393.802 503.987 394.38 503.896 395.003 503.896C395.66 503.896 396.25 503.992 396.771 504.185C397.292 504.366 397.729 504.621 398.08 504.95C398.431 505.279 398.698 505.681 398.879 506.157C399.072 506.622 399.168 507.132 399.168 507.687C399.168 508.696 398.8 509.648 398.063 510.543C397.338 511.427 396.199 512.362 394.646 513.348L393.524 514.062H399.491V516H390.124V514.419L392.283 512.991C393.224 512.368 394.006 511.824 394.629 511.359C395.264 510.883 395.768 510.452 396.142 510.067C396.516 509.682 396.777 509.313 396.924 508.962C397.083 508.611 397.162 508.242 397.162 507.857C397.162 507.506 397.1 507.2 396.975 506.939C396.85 506.678 396.68 506.469 396.465 506.31C396.261 506.151 396.017 506.032 395.734 505.953C395.462 505.874 395.173 505.834 394.867 505.834C394.425 505.834 394.04 505.902 393.711 506.038C393.382 506.174 393.099 506.355 392.861 506.582C392.634 506.797 392.447 507.047 392.3 507.33C392.153 507.602 392.039 507.885 391.96 508.18L390.26 507.585ZM400.818 514.81C400.818 514.481 400.932 514.198 401.158 513.96C401.396 513.722 401.708 513.603 402.093 513.603C402.467 513.603 402.768 513.722 402.994 513.96C403.232 514.198 403.351 514.481 403.351 514.81C403.351 515.161 403.232 515.456 402.994 515.694C402.768 515.932 402.467 516.051 402.093 516.051C401.708 516.051 401.396 515.932 401.158 515.694C400.932 515.456 400.818 515.161 400.818 514.81ZM404.328 504.1H413.423V505.443L407.915 516H405.824L411.111 506.038H404.328V504.1Z" fill="white"/>
<rect x="64" y="25" width="72" height="44" fill="#BFCED4"/>
<path d="M90.5598 41.1H99.6548V42.443L94.1468 53H92.0558L97.3428 43.038H90.5598V41.1ZM99.601 51.81C99.601 51.4813 99.7143 51.198 99.941 50.96C100.179 50.722 100.491 50.603 100.876 50.603C101.25 50.603 101.55 50.722 101.777 50.96C102.015 51.198 102.134 51.4813 102.134 51.81C102.134 52.1613 102.015 52.456 101.777 52.694C101.55 52.932 101.25 53.051 100.876 53.051C100.491 53.051 100.179 52.932 99.941 52.694C99.7143 52.456 99.601 52.1613 99.601 51.81ZM106.834 41.066H108.211V53H106.307V43.446L103.672 44.636L102.924 42.987L106.834 41.066Z" fill="#222429"/>
<rect x="360" y="25" width="72" height="17" fill="#BFCED4"/>
<path d="M384.08 30.585C384.193 30.041 384.386 29.5423 384.658 29.089C384.941 28.6357 385.287 28.2503 385.695 27.933C386.103 27.6043 386.568 27.3493 387.089 27.168C387.622 26.9867 388.2 26.896 388.823 26.896C389.48 26.896 390.07 26.9923 390.591 27.185C391.112 27.3663 391.549 27.6213 391.9 27.95C392.251 28.2787 392.518 28.681 392.699 29.157C392.892 29.6217 392.988 30.1317 392.988 30.687C392.988 31.6957 392.62 32.6477 391.883 33.543C391.158 34.427 390.019 35.362 388.466 36.348L387.344 37.062H393.311V39H383.944V37.419L386.103 35.991C387.044 35.3677 387.826 34.8237 388.449 34.359C389.084 33.883 389.588 33.4523 389.962 33.067C390.336 32.6817 390.597 32.3133 390.744 31.962C390.903 31.6107 390.982 31.2423 390.982 30.857C390.982 30.5057 390.92 30.1997 390.795 29.939C390.67 29.6783 390.5 29.4687 390.285 29.31C390.081 29.1513 389.837 29.0323 389.554 28.953C389.282 28.8737 388.993 28.834 388.687 28.834C388.245 28.834 387.86 28.902 387.531 29.038C387.202 29.174 386.919 29.3553 386.681 29.582C386.454 29.7973 386.267 30.0467 386.12 30.33C385.973 30.602 385.859 30.8853 385.78 31.18L384.08 30.585ZM394.638 37.81C394.638 37.4813 394.751 37.198 394.978 36.96C395.216 36.722 395.528 36.603 395.913 36.603C396.287 36.603 396.587 36.722 396.814 36.96C397.052 37.198 397.171 37.4813 397.171 37.81C397.171 38.1613 397.052 38.456 396.814 38.694C396.587 38.932 396.287 39.051 395.913 39.051C395.528 39.051 395.216 38.932 394.978 38.694C394.751 38.456 394.638 38.1613 394.638 37.81ZM399.695 27.1H407.498V29.038H401.361L401.089 31.588C401.282 31.4407 401.588 31.316 402.007 31.214C402.438 31.112 402.931 31.061 403.486 31.061C404.212 31.061 404.858 31.163 405.424 31.367C405.991 31.5597 406.467 31.8373 406.852 32.2C407.238 32.5513 407.527 32.9707 407.719 33.458C407.923 33.9453 408.025 34.478 408.025 35.056C408.025 35.668 407.906 36.229 407.668 36.739C407.43 37.249 407.102 37.691 406.682 38.065C406.274 38.4277 405.787 38.711 405.22 38.915C404.654 39.1077 404.042 39.204 403.384 39.204C402.217 39.204 401.203 38.966 400.341 38.49C399.48 38.014 398.817 37.2887 398.352 36.314L400.086 35.413C400.347 35.957 400.744 36.4047 401.276 36.756C401.809 37.096 402.478 37.266 403.282 37.266C404.2 37.266 404.886 37.0677 405.339 36.671C405.793 36.263 406.019 35.7303 406.019 35.073C406.019 34.3703 405.759 33.8263 405.237 33.441C404.727 33.0443 404.047 32.846 403.197 32.846C402.563 32.846 402.036 32.931 401.616 33.101C401.208 33.271 400.823 33.492 400.46 33.764L399.032 33.169L399.695 27.1Z" fill="#222429"/>
<rect x="64" y="69" width="72" height="180" fill="#4B5366"/>
<path d="M82.5389 156.585C82.6523 156.041 82.8449 155.542 83.1169 155.089C83.4003 154.636 83.7459 154.25 84.1539 153.933C84.5619 153.604 85.0266 153.349 85.5479 153.168C86.0806 152.987 86.6586 152.896 87.2819 152.896C87.9393 152.896 88.5286 152.992 89.0499 153.185C89.5713 153.366 90.0076 153.621 90.3589 153.95C90.7103 154.279 90.9766 154.681 91.1579 155.157C91.3506 155.622 91.4469 156.132 91.4469 156.687C91.4469 157.696 91.0786 158.648 90.3419 159.543C89.6166 160.427 88.4776 161.362 86.9249 162.348L85.8029 163.062H91.7699V165H82.4029V163.419L84.5619 161.991C85.5026 161.368 86.2846 160.824 86.9079 160.359C87.5426 159.883 88.0469 159.452 88.4209 159.067C88.7949 158.682 89.0556 158.313 89.2029 157.962C89.3616 157.611 89.4409 157.242 89.4409 156.857C89.4409 156.506 89.3786 156.2 89.2539 155.939C89.1293 155.678 88.9593 155.469 88.7439 155.31C88.5399 155.151 88.2963 155.032 88.0129 154.953C87.7409 154.874 87.4519 154.834 87.1459 154.834C86.7039 154.834 86.3186 154.902 85.9899 155.038C85.6613 155.174 85.3779 155.355 85.1399 155.582C84.9133 155.797 84.7263 156.047 84.5789 156.33C84.4316 156.602 84.3183 156.885 84.2389 157.18L82.5389 156.585ZM97.4321 165.204C96.9675 165.204 96.5141 165.153 96.0721 165.051C95.6415 164.96 95.2335 164.83 94.8481 164.66C94.4628 164.479 94.1115 164.263 93.7941 164.014C93.4768 163.765 93.2105 163.487 92.9951 163.181L94.3041 161.923C94.6555 162.342 95.1145 162.671 95.6811 162.909C96.2591 163.147 96.8881 163.266 97.5681 163.266C98.0668 163.266 98.5201 163.181 98.9281 163.011C99.3475 162.83 99.7045 162.58 99.9991 162.263C100.294 161.946 100.52 161.566 100.679 161.124C100.849 160.682 100.934 160.195 100.934 159.662V159.39C100.662 159.945 100.22 160.41 99.6081 160.784C98.9961 161.147 98.2141 161.328 97.2621 161.328C96.5821 161.328 95.9588 161.237 95.3921 161.056C94.8368 160.863 94.3551 160.591 93.9471 160.24C93.5505 159.889 93.2388 159.464 93.0121 158.965C92.7855 158.466 92.6721 157.905 92.6721 157.282C92.6721 156.625 92.7911 156.03 93.0291 155.497C93.2671 154.953 93.6071 154.488 94.0491 154.103C94.4911 153.718 95.0238 153.423 95.6471 153.219C96.2705 153.004 96.9618 152.896 97.7211 152.896C98.5031 152.896 99.2115 153.026 99.8461 153.287C100.492 153.548 101.036 153.933 101.478 154.443C101.931 154.953 102.283 155.582 102.532 156.33C102.781 157.078 102.906 157.934 102.906 158.897C102.906 159.917 102.776 160.824 102.515 161.617C102.254 162.399 101.886 163.056 101.41 163.589C100.934 164.122 100.356 164.524 99.6761 164.796C99.0075 165.068 98.2595 165.204 97.4321 165.204ZM97.5851 159.526C98.4578 159.526 99.1548 159.316 99.6761 158.897C100.197 158.478 100.458 157.917 100.458 157.214C100.458 156.489 100.209 155.911 99.7101 155.48C99.2115 155.049 98.5371 154.834 97.6871 154.834C96.7465 154.834 96.0098 155.044 95.4771 155.463C94.9445 155.882 94.6781 156.46 94.6781 157.197C94.6781 157.922 94.9331 158.495 95.4431 158.914C95.9645 159.322 96.6785 159.526 97.5851 159.526ZM104.295 163.81C104.295 163.481 104.409 163.198 104.635 162.96C104.873 162.722 105.185 162.603 105.57 162.603C105.944 162.603 106.245 162.722 106.471 162.96C106.709 163.198 106.828 163.481 106.828 163.81C106.828 164.161 106.709 164.456 106.471 164.694C106.245 164.932 105.944 165.051 105.57 165.051C105.185 165.051 104.873 164.932 104.635 164.694C104.409 164.456 104.295 164.161 104.295 163.81ZM108.094 155.99C108.253 155.548 108.474 155.14 108.757 154.766C109.041 154.381 109.381 154.052 109.777 153.78C110.185 153.497 110.656 153.281 111.188 153.134C111.721 152.975 112.322 152.896 112.99 152.896C113.58 152.896 114.129 152.97 114.639 153.117C115.149 153.264 115.586 153.474 115.948 153.746C116.322 154.007 116.611 154.33 116.815 154.715C117.031 155.1 117.138 155.531 117.138 156.007C117.138 156.653 116.963 157.208 116.611 157.673C116.271 158.126 115.795 158.461 115.183 158.676C115.478 158.733 115.761 158.829 116.033 158.965C116.305 159.09 116.549 159.265 116.764 159.492C116.98 159.719 117.15 159.996 117.274 160.325C117.399 160.654 117.461 161.033 117.461 161.464C117.461 162.042 117.348 162.563 117.121 163.028C116.895 163.493 116.583 163.889 116.186 164.218C115.79 164.535 115.314 164.779 114.758 164.949C114.214 165.119 113.619 165.204 112.973 165.204C111.67 165.204 110.571 164.932 109.675 164.388C108.791 163.844 108.174 163.039 107.822 161.974L109.607 161.209C109.721 161.504 109.868 161.781 110.049 162.042C110.242 162.303 110.469 162.535 110.729 162.739C111.001 162.932 111.319 163.085 111.681 163.198C112.044 163.311 112.458 163.368 112.922 163.368C113.75 163.368 114.379 163.204 114.809 162.875C115.24 162.546 115.455 162.082 115.455 161.481C115.455 161.164 115.387 160.897 115.251 160.682C115.127 160.467 114.945 160.297 114.707 160.172C114.481 160.036 114.203 159.94 113.874 159.883C113.557 159.826 113.206 159.798 112.82 159.798H111.273V158.03H112.548C113.398 158.03 114.039 157.871 114.469 157.554C114.911 157.225 115.132 156.823 115.132 156.347C115.132 155.871 114.928 155.503 114.52 155.242C114.124 154.97 113.551 154.834 112.803 154.834C112.373 154.834 111.987 154.891 111.647 155.004C111.319 155.106 111.03 155.248 110.78 155.429C110.542 155.61 110.333 155.814 110.151 156.041C109.981 156.256 109.845 156.483 109.743 156.721L108.094 155.99Z" fill="white"/>
<rect x="212" y="25" width="72" height="26" fill="#BFCED4"/>
<path d="M242.177 41.79H235.19V40.447L242.449 32.083H244.081V39.971H246.121V41.79H244.081V44H242.177V41.79ZM242.177 39.971V35.126L237.774 39.971H242.177ZM247.203 42.81C247.203 42.4813 247.316 42.198 247.543 41.96C247.781 41.722 248.092 41.603 248.478 41.603C248.852 41.603 249.152 41.722 249.379 41.96C249.617 42.198 249.736 42.4813 249.736 42.81C249.736 43.1613 249.617 43.456 249.379 43.694C249.152 43.932 248.852 44.051 248.478 44.051C248.092 44.051 247.781 43.932 247.543 43.694C247.316 43.456 247.203 43.1613 247.203 42.81ZM251.002 34.99C251.16 34.548 251.381 34.14 251.665 33.766C251.948 33.3807 252.288 33.052 252.685 32.78C253.093 32.4967 253.563 32.2813 254.096 32.134C254.628 31.9753 255.229 31.896 255.898 31.896C256.487 31.896 257.037 31.9697 257.547 32.117C258.057 32.2643 258.493 32.474 258.856 32.746C259.23 33.0067 259.519 33.3297 259.723 33.715C259.938 34.1003 260.046 34.531 260.046 35.007C260.046 35.653 259.87 36.2083 259.519 36.673C259.179 37.1263 258.703 37.4607 258.091 37.676C258.385 37.7327 258.669 37.829 258.941 37.965C259.213 38.0897 259.456 38.2653 259.672 38.492C259.887 38.7187 260.057 38.9963 260.182 39.325C260.306 39.6537 260.369 40.0333 260.369 40.464C260.369 41.042 260.255 41.5633 260.029 42.028C259.802 42.4927 259.49 42.8893 259.094 43.218C258.697 43.5353 258.221 43.779 257.666 43.949C257.122 44.119 256.527 44.204 255.881 44.204C254.577 44.204 253.478 43.932 252.583 43.388C251.699 42.844 251.081 42.0393 250.73 40.974L252.515 40.209C252.628 40.5037 252.775 40.7813 252.957 41.042C253.149 41.3027 253.376 41.535 253.637 41.739C253.909 41.9317 254.226 42.0847 254.589 42.198C254.951 42.3113 255.365 42.368 255.83 42.368C256.657 42.368 257.286 42.2037 257.717 41.875C258.147 41.5463 258.363 41.0817 258.363 40.481C258.363 40.1637 258.295 39.8973 258.159 39.682C258.034 39.4667 257.853 39.2967 257.615 39.172C257.388 39.036 257.11 38.9397 256.782 38.883C256.464 38.8263 256.113 38.798 255.728 38.798H254.181V37.03H255.456C256.306 37.03 256.946 36.8713 257.377 36.554C257.819 36.2253 258.04 35.823 258.04 35.347C258.04 34.871 257.836 34.5027 257.428 34.242C257.031 33.97 256.459 33.834 255.711 33.834C255.28 33.834 254.895 33.8907 254.555 34.004C254.226 34.106 253.937 34.2477 253.688 34.429C253.45 34.6103 253.24 34.8143 253.059 35.041C252.889 35.2563 252.753 35.483 252.651 35.721L251.002 34.99Z" fill="#222429"/>
<rect x="212" y="51" width="72" height="101" fill="#4B5366"/>
<path d="M235.206 95.066H236.583V107H234.679V97.446L232.044 98.636L231.296 96.987L235.206 95.066ZM243.813 107.204C243.009 107.204 242.278 107.079 241.62 106.83C240.963 106.569 240.396 106.19 239.92 105.691C239.456 105.192 239.093 104.575 238.832 103.838C238.583 103.09 238.458 102.229 238.458 101.254C238.458 100.2 238.594 99.2763 238.866 98.483C239.15 97.6897 239.535 97.0267 240.022 96.494C240.51 95.9613 241.082 95.5647 241.739 95.304C242.408 95.032 243.128 94.896 243.898 94.896C244.93 94.896 245.819 95.1 246.567 95.508C247.315 95.916 247.876 96.477 248.25 97.191L246.924 98.296C246.267 97.3213 245.247 96.834 243.864 96.834C242.765 96.834 241.915 97.191 241.314 97.905C240.725 98.619 240.419 99.5767 240.396 100.778V100.931C240.691 100.319 241.173 99.8317 241.841 99.469C242.521 99.1063 243.281 98.925 244.119 98.925C244.811 98.925 245.434 99.0213 245.989 99.214C246.556 99.4067 247.038 99.6787 247.434 100.03C247.831 100.37 248.131 100.789 248.335 101.288C248.551 101.787 248.658 102.342 248.658 102.954C248.658 103.589 248.539 104.167 248.301 104.688C248.063 105.209 247.729 105.657 247.298 106.031C246.868 106.405 246.352 106.694 245.751 106.898C245.162 107.102 244.516 107.204 243.813 107.204ZM243.745 105.266C244.629 105.266 245.332 105.068 245.853 104.671C246.386 104.274 246.652 103.719 246.652 103.005C246.652 102.268 246.397 101.73 245.887 101.39C245.389 101.039 244.731 100.863 243.915 100.863C242.952 100.863 242.215 101.044 241.705 101.407C241.207 101.77 240.957 102.28 240.957 102.937C240.957 103.617 241.195 104.178 241.671 104.62C242.159 105.051 242.85 105.266 243.745 105.266ZM249.963 105.81C249.963 105.481 250.076 105.198 250.303 104.96C250.541 104.722 250.852 104.603 251.238 104.603C251.612 104.603 251.912 104.722 252.139 104.96C252.377 105.198 252.496 105.481 252.496 105.81C252.496 106.161 252.377 106.456 252.139 106.694C251.912 106.932 251.612 107.051 251.238 107.051C250.852 107.051 250.541 106.932 250.303 106.694C250.076 106.456 249.963 106.161 249.963 105.81ZM260.46 104.79H253.473V103.447L260.732 95.083H262.364V102.971H264.404V104.79H262.364V107H260.46V104.79ZM260.46 102.971V98.126L256.057 102.971H260.46Z" fill="white"/>
<rect x="360" y="42" width="72" height="71" fill="#4B5366"/>
<path d="M386.502 71.066H387.879V83H385.975V73.446L383.34 74.636L382.592 72.987L386.502 71.066ZM393.035 71.066H394.412V83H392.508V73.446L389.873 74.636L389.125 72.987L393.035 71.066ZM396.61 81.81C396.61 81.4813 396.723 81.198 396.95 80.96C397.188 80.722 397.499 80.603 397.885 80.603C398.259 80.603 398.559 80.722 398.786 80.96C399.024 81.198 399.143 81.4813 399.143 81.81C399.143 82.1613 399.024 82.456 398.786 82.694C398.559 82.932 398.259 83.051 397.885 83.051C397.499 83.051 397.188 82.932 396.95 82.694C396.723 82.456 396.61 82.1613 396.61 81.81ZM400.12 71.1H409.215V72.443L403.707 83H401.616L406.903 73.038H400.12V71.1Z" fill="white"/>
<line x1="-4.37114e-08" y1="641.5" x2="535" y2="641.5" stroke="#B4BBC5"/>
<path d="M58.302 11V0.499999H62.772C63.532 0.499999 64.167 0.589999 64.677 0.769999C65.187 0.94 65.597 1.175 65.907 1.475C66.217 1.775 66.437 2.125 66.567 2.525C66.707 2.915 66.777 3.325 66.777 3.755C66.777 4.535 66.562 5.19 66.132 5.72C65.702 6.25 65.142 6.62 64.452 6.83L67.482 11H65.277L62.577 7.19H60.132V11H58.302ZM60.132 2.21V5.48H62.667C63.327 5.48 63.862 5.34 64.272 5.06C64.682 4.77 64.887 4.365 64.887 3.845C64.887 3.605 64.847 3.385 64.767 3.185C64.697 2.985 64.572 2.815 64.392 2.675C64.212 2.525 63.977 2.41 63.687 2.33C63.397 2.25 63.042 2.21 62.622 2.21H60.132ZM77.6354 6.605C77.6354 7.415 77.5104 8.11 77.2604 8.69C77.0104 9.27 76.6804 9.745 76.2704 10.115C75.8604 10.485 75.3904 10.755 74.8604 10.925C74.3304 11.095 73.7854 11.18 73.2254 11.18C72.5854 11.18 71.9804 11.085 71.4104 10.895C70.8504 10.695 70.3554 10.4 69.9254 10.01C69.5054 9.62 69.1704 9.135 68.9204 8.555C68.6804 7.975 68.5604 7.295 68.5604 6.515V0.499999H70.3904V6.29C70.3904 6.81 70.4604 7.27 70.6004 7.67C70.7404 8.06 70.9354 8.39 71.1854 8.66C71.4454 8.93 71.7454 9.135 72.0854 9.275C72.4354 9.405 72.8154 9.47 73.2254 9.47C74.1054 9.47 74.7554 9.2 75.1754 8.66C75.5954 8.11 75.8054 7.345 75.8054 6.365V0.499999H77.6354V6.605ZM79.7186 0.499999H84.2936C84.9936 0.499999 85.5786 0.564999 86.0486 0.694999C86.5286 0.825 86.9086 1.01 87.1886 1.25C87.4786 1.48 87.6836 1.755 87.8036 2.075C87.9236 2.395 87.9836 2.75 87.9836 3.14C87.9836 3.7 87.8586 4.175 87.6086 4.565C87.3586 4.945 86.9936 5.24 86.5136 5.45C87.0836 5.59 87.5286 5.875 87.8486 6.305C88.1786 6.725 88.3436 7.275 88.3436 7.955C88.3436 8.495 88.2436 8.96 88.0436 9.35C87.8436 9.73 87.5586 10.045 87.1886 10.295C86.8286 10.535 86.3936 10.715 85.8836 10.835C85.3736 10.945 84.8136 11 84.2036 11H79.7186V0.499999ZM81.5486 6.44V9.38H84.1586C84.9486 9.38 85.5286 9.265 85.8986 9.035C86.2686 8.795 86.4536 8.405 86.4536 7.865C86.4536 7.385 86.2786 7.03 85.9286 6.8C85.5886 6.56 85.0286 6.44 84.2486 6.44H81.5486ZM81.5486 2.12V4.88H84.2186C84.8186 4.88 85.2786 4.755 85.5986 4.505C85.9286 4.255 86.0936 3.915 86.0936 3.485C86.0936 3.015 85.9436 2.67 85.6436 2.45C85.3536 2.23 84.8286 2.12 84.0686 2.12H81.5486ZM95.9881 0.47H97.2031V11H95.5231V2.57L93.1981 3.62L92.5381 2.165L95.9881 0.47ZM99.8325 0.499999H106.718V2.21H101.303L101.063 4.46C101.233 4.33 101.503 4.22 101.873 4.13C102.253 4.04 102.688 3.995 103.178 3.995C103.818 3.995 104.388 4.085 104.888 4.265C105.388 4.435 105.808 4.68 106.148 5C106.488 5.31 106.743 5.68 106.913 6.11C107.093 6.54 107.183 7.01 107.183 7.52C107.183 8.06 107.078 8.555 106.868 9.005C106.658 9.455 106.368 9.845 105.998 10.175C105.638 10.495 105.208 10.745 104.708 10.925C104.208 11.095 103.668 11.18 103.088 11.18C102.058 11.18 101.163 10.97 100.403 10.55C99.6425 10.13 99.0575 9.49 98.6475 8.63L100.178 7.835C100.408 8.315 100.758 8.71 101.228 9.02C101.698 9.32 102.288 9.47 102.998 9.47C103.808 9.47 104.413 9.295 104.813 8.945C105.213 8.585 105.413 8.115 105.413 7.535C105.413 6.915 105.183 6.435 104.723 6.095C104.273 5.745 103.673 5.57 102.923 5.57C102.363 5.57 101.898 5.645 101.528 5.795C101.168 5.945 100.828 6.14 100.508 6.38L99.2475 5.855L99.8325 0.499999ZM109.025 0.499999H115.91V2.21H110.495L110.255 4.46C110.425 4.33 110.695 4.22 111.065 4.13C111.445 4.04 111.88 3.995 112.37 3.995C113.01 3.995 113.58 4.085 114.08 4.265C114.58 4.435 115 4.68 115.34 5C115.68 5.31 115.935 5.68 116.105 6.11C116.285 6.54 116.375 7.01 116.375 7.52C116.375 8.06 116.27 8.555 116.06 9.005C115.85 9.455 115.56 9.845 115.19 10.175C114.83 10.495 114.4 10.745 113.9 10.925C113.4 11.095 112.86 11.18 112.28 11.18C111.25 11.18 110.355 10.97 109.595 10.55C108.835 10.13 108.25 9.49 107.84 8.63L109.37 7.835C109.6 8.315 109.95 8.71 110.42 9.02C110.89 9.32 111.48 9.47 112.19 9.47C113 9.47 113.605 9.295 114.005 8.945C114.405 8.585 114.605 8.115 114.605 7.535C114.605 6.915 114.375 6.435 113.915 6.095C113.465 5.745 112.865 5.57 112.115 5.57C111.555 5.57 111.09 5.645 110.72 5.795C110.36 5.945 110.02 6.14 109.7 6.38L108.44 5.855L109.025 0.499999ZM125.875 11.18C125.215 11.18 124.66 11.07 124.21 10.85C123.76 10.62 123.405 10.315 123.145 9.935V11H121.465V0.0499997H123.145V4.43C123.395 4.01 123.755 3.67 124.225 3.41C124.705 3.15 125.275 3.02 125.935 3.02C126.475 3.02 126.975 3.115 127.435 3.305C127.895 3.485 128.29 3.75 128.62 4.1C128.95 4.44 129.21 4.855 129.4 5.345C129.59 5.835 129.685 6.39 129.685 7.01C129.685 7.65 129.59 8.23 129.4 8.75C129.21 9.26 128.945 9.695 128.605 10.055C128.275 10.415 127.875 10.695 127.405 10.895C126.935 11.085 126.425 11.18 125.875 11.18ZM125.56 9.65C126.25 9.65 126.815 9.43 127.255 8.99C127.695 8.54 127.915 7.9 127.915 7.07C127.915 6.67 127.855 6.315 127.735 6.005C127.615 5.685 127.45 5.42 127.24 5.21C127.03 4.99 126.78 4.825 126.49 4.715C126.2 4.605 125.885 4.55 125.545 4.55C124.825 4.55 124.245 4.765 123.805 5.195C123.365 5.615 123.145 6.21 123.145 6.98V7.22C123.145 7.62 123.205 7.97 123.325 8.27C123.455 8.57 123.625 8.825 123.835 9.035C124.055 9.235 124.31 9.39 124.6 9.5C124.9 9.6 125.22 9.65 125.56 9.65ZM131.097 0.0499997H132.777V11H131.097V0.0499997ZM134.693 3.2H136.373V4.31C136.593 3.92 136.913 3.61 137.333 3.38C137.753 3.14 138.263 3.02 138.863 3.02C139.863 3.02 140.633 3.295 141.173 3.845C141.723 4.395 141.998 5.25 141.998 6.41V11H140.318V6.725C140.318 5.955 140.153 5.4 139.823 5.06C139.503 4.72 139.013 4.55 138.353 4.55C138.073 4.55 137.813 4.595 137.573 4.685C137.333 4.765 137.123 4.89 136.943 5.06C136.763 5.23 136.623 5.45 136.523 5.72C136.423 5.98 136.373 6.295 136.373 6.665V11H134.693V3.2Z" fill="#777F8C"/>
<path d="M204.346 11V0.499999H208.816C209.576 0.499999 210.211 0.589999 210.721 0.769999C211.231 0.94 211.641 1.175 211.951 1.475C212.261 1.775 212.481 2.125 212.611 2.525C212.751 2.915 212.821 3.325 212.821 3.755C212.821 4.535 212.606 5.19 212.176 5.72C211.746 6.25 211.186 6.62 210.496 6.83L213.526 11H211.321L208.621 7.19H206.176V11H204.346ZM206.176 2.21V5.48H208.711C209.371 5.48 209.906 5.34 210.316 5.06C210.726 4.77 210.931 4.365 210.931 3.845C210.931 3.605 210.891 3.385 210.811 3.185C210.741 2.985 210.616 2.815 210.436 2.675C210.256 2.525 210.021 2.41 209.731 2.33C209.441 2.25 209.086 2.21 208.666 2.21H206.176ZM223.68 6.605C223.68 7.415 223.555 8.11 223.305 8.69C223.055 9.27 222.725 9.745 222.315 10.115C221.905 10.485 221.435 10.755 220.905 10.925C220.375 11.095 219.83 11.18 219.27 11.18C218.63 11.18 218.025 11.085 217.455 10.895C216.895 10.695 216.4 10.4 215.97 10.01C215.55 9.62 215.215 9.135 214.965 8.555C214.725 7.975 214.605 7.295 214.605 6.515V0.499999H216.435V6.29C216.435 6.81 216.505 7.27 216.645 7.67C216.785 8.06 216.98 8.39 217.23 8.66C217.49 8.93 217.79 9.135 218.13 9.275C218.48 9.405 218.86 9.47 219.27 9.47C220.15 9.47 220.8 9.2 221.22 8.66C221.64 8.11 221.85 7.345 221.85 6.365V0.499999H223.68V6.605ZM225.763 0.499999H230.338C231.038 0.499999 231.623 0.564999 232.093 0.694999C232.573 0.825 232.953 1.01 233.233 1.25C233.523 1.48 233.728 1.755 233.848 2.075C233.968 2.395 234.028 2.75 234.028 3.14C234.028 3.7 233.903 4.175 233.653 4.565C233.403 4.945 233.038 5.24 232.558 5.45C233.128 5.59 233.573 5.875 233.893 6.305C234.223 6.725 234.388 7.275 234.388 7.955C234.388 8.495 234.288 8.96 234.088 9.35C233.888 9.73 233.603 10.045 233.233 10.295C232.873 10.535 232.438 10.715 231.928 10.835C231.418 10.945 230.858 11 230.248 11H225.763V0.499999ZM227.593 6.44V9.38H230.203C230.993 9.38 231.573 9.265 231.943 9.035C232.313 8.795 232.498 8.405 232.498 7.865C232.498 7.385 232.323 7.03 231.973 6.8C231.633 6.56 231.073 6.44 230.293 6.44H227.593ZM227.593 2.12V4.88H230.263C230.863 4.88 231.323 4.755 231.643 4.505C231.973 4.255 232.138 3.915 232.138 3.485C232.138 3.015 231.988 2.67 231.688 2.45C231.398 2.23 230.873 2.12 230.113 2.12H227.593ZM239.003 3.05C239.143 2.66 239.338 2.3 239.588 1.97C239.838 1.63 240.138 1.34 240.488 1.1C240.848 0.849999 241.263 0.659999 241.733 0.53C242.203 0.39 242.733 0.32 243.323 0.32C243.843 0.32 244.328 0.385 244.778 0.514999C245.228 0.644999 245.613 0.829999 245.933 1.07C246.263 1.3 246.518 1.585 246.698 1.925C246.888 2.265 246.983 2.645 246.983 3.065C246.983 3.635 246.828 4.125 246.518 4.535C246.218 4.935 245.798 5.23 245.258 5.42C245.518 5.47 245.768 5.555 246.008 5.675C246.248 5.785 246.463 5.94 246.653 6.14C246.843 6.34 246.993 6.585 247.103 6.875C247.213 7.165 247.268 7.5 247.268 7.88C247.268 8.39 247.168 8.85 246.968 9.26C246.768 9.67 246.493 10.02 246.143 10.31C245.793 10.59 245.373 10.805 244.883 10.955C244.403 11.105 243.878 11.18 243.308 11.18C242.158 11.18 241.188 10.94 240.398 10.46C239.618 9.98 239.073 9.27 238.763 8.33L240.338 7.655C240.438 7.915 240.568 8.16 240.728 8.39C240.898 8.62 241.098 8.825 241.328 9.005C241.568 9.175 241.848 9.31 242.168 9.41C242.488 9.51 242.853 9.56 243.263 9.56C243.993 9.56 244.548 9.415 244.928 9.125C245.308 8.835 245.498 8.425 245.498 7.895C245.498 7.615 245.438 7.38 245.318 7.19C245.208 7 245.048 6.85 244.838 6.74C244.638 6.62 244.393 6.535 244.103 6.485C243.823 6.435 243.513 6.41 243.173 6.41H241.808V4.85H242.933C243.683 4.85 244.248 4.71 244.628 4.43C245.018 4.14 245.213 3.785 245.213 3.365C245.213 2.945 245.033 2.62 244.673 2.39C244.323 2.15 243.818 2.03 243.158 2.03C242.778 2.03 242.438 2.08 242.138 2.18C241.848 2.27 241.593 2.395 241.373 2.555C241.163 2.715 240.978 2.895 240.818 3.095C240.668 3.285 240.548 3.485 240.458 3.695L239.003 3.05ZM252.937 4.88C253.557 4.88 254.067 4.75 254.467 4.49C254.877 4.22 255.082 3.85 255.082 3.38C255.082 2.9 254.887 2.53 254.497 2.27C254.117 2.01 253.512 1.88 252.682 1.88C251.892 1.88 251.297 2.01 250.897 2.27C250.507 2.53 250.312 2.9 250.312 3.38C250.312 3.81 250.502 4.17 250.882 4.46C251.272 4.74 251.807 4.88 252.487 4.88H252.937ZM252.547 6.35C251.737 6.35 251.107 6.505 250.657 6.815C250.207 7.115 249.982 7.49 249.982 7.94C249.982 8.44 250.207 8.845 250.657 9.155C251.107 9.465 251.787 9.62 252.697 9.62C253.607 9.62 254.282 9.475 254.722 9.185C255.172 8.885 255.397 8.48 255.397 7.97C255.397 7.46 255.177 7.065 254.737 6.785C254.307 6.495 253.697 6.35 252.907 6.35H252.547ZM252.712 11.18C251.282 11.18 250.172 10.905 249.382 10.355C248.602 9.805 248.212 9.055 248.212 8.105C248.212 7.525 248.382 7.01 248.722 6.56C249.072 6.1 249.547 5.765 250.147 5.555C249.597 5.345 249.192 5.03 248.932 4.61C248.672 4.19 248.542 3.75 248.542 3.29C248.542 2.85 248.632 2.45 248.812 2.09C249.002 1.72 249.272 1.405 249.622 1.145C249.972 0.885 250.407 0.685 250.927 0.545C251.447 0.395 252.037 0.32 252.697 0.32C253.377 0.32 253.977 0.395 254.497 0.545C255.017 0.685 255.452 0.885 255.802 1.145C256.152 1.405 256.412 1.72 256.582 2.09C256.762 2.45 256.852 2.85 256.852 3.29C256.852 3.78 256.717 4.21 256.447 4.58C256.177 4.95 255.792 5.255 255.292 5.495C255.972 5.725 256.452 6.06 256.732 6.5C257.022 6.93 257.167 7.445 257.167 8.045C257.167 8.535 257.062 8.975 256.852 9.365C256.652 9.755 256.362 10.085 255.982 10.355C255.602 10.625 255.132 10.83 254.572 10.97C254.022 11.11 253.402 11.18 252.712 11.18ZM257.973 3.05C258.113 2.66 258.308 2.3 258.558 1.97C258.808 1.63 259.108 1.34 259.458 1.1C259.818 0.849999 260.233 0.659999 260.703 0.53C261.173 0.39 261.703 0.32 262.293 0.32C262.813 0.32 263.298 0.385 263.748 0.514999C264.198 0.644999 264.583 0.829999 264.903 1.07C265.233 1.3 265.488 1.585 265.668 1.925C265.858 2.265 265.953 2.645 265.953 3.065C265.953 3.635 265.798 4.125 265.488 4.535C265.188 4.935 264.768 5.23 264.228 5.42C264.488 5.47 264.738 5.555 264.978 5.675C265.218 5.785 265.433 5.94 265.623 6.14C265.813 6.34 265.963 6.585 266.073 6.875C266.183 7.165 266.238 7.5 266.238 7.88C266.238 8.39 266.138 8.85 265.938 9.26C265.738 9.67 265.463 10.02 265.113 10.31C264.763 10.59 264.343 10.805 263.853 10.955C263.373 11.105 262.848 11.18 262.278 11.18C261.128 11.18 260.158 10.94 259.368 10.46C258.588 9.98 258.043 9.27 257.733 8.33L259.308 7.655C259.408 7.915 259.538 8.16 259.698 8.39C259.868 8.62 260.068 8.825 260.298 9.005C260.538 9.175 260.818 9.31 261.138 9.41C261.458 9.51 261.823 9.56 262.233 9.56C262.963 9.56 263.518 9.415 263.898 9.125C264.278 8.835 264.468 8.425 264.468 7.895C264.468 7.615 264.408 7.38 264.288 7.19C264.178 7 264.018 6.85 263.808 6.74C263.608 6.62 263.363 6.535 263.073 6.485C262.793 6.435 262.483 6.41 262.143 6.41H260.778V4.85H261.903C262.653 4.85 263.218 4.71 263.598 4.43C263.988 4.14 264.183 3.785 264.183 3.365C264.183 2.945 264.003 2.62 263.643 2.39C263.293 2.15 262.788 2.03 262.128 2.03C261.748 2.03 261.408 2.08 261.108 2.18C260.818 2.27 260.563 2.395 260.343 2.555C260.133 2.715 259.948 2.895 259.788 3.095C259.638 3.285 259.518 3.485 259.428 3.695L257.973 3.05ZM275.83 11.18C275.17 11.18 274.615 11.07 274.165 10.85C273.715 10.62 273.36 10.315 273.1 9.935V11H271.42V0.0499997H273.1V4.43C273.35 4.01 273.71 3.67 274.18 3.41C274.66 3.15 275.23 3.02 275.89 3.02C276.43 3.02 276.93 3.115 277.39 3.305C277.85 3.485 278.245 3.75 278.575 4.1C278.905 4.44 279.165 4.855 279.355 5.345C279.545 5.835 279.64 6.39 279.64 7.01C279.64 7.65 279.545 8.23 279.355 8.75C279.165 9.26 278.9 9.695 278.56 10.055C278.23 10.415 277.83 10.695 277.36 10.895C276.89 11.085 276.38 11.18 275.83 11.18ZM275.515 9.65C276.205 9.65 276.77 9.43 277.21 8.99C277.65 8.54 277.87 7.9 277.87 7.07C277.87 6.67 277.81 6.315 277.69 6.005C277.57 5.685 277.405 5.42 277.195 5.21C276.985 4.99 276.735 4.825 276.445 4.715C276.155 4.605 275.84 4.55 275.5 4.55C274.78 4.55 274.2 4.765 273.76 5.195C273.32 5.615 273.1 6.21 273.1 6.98V7.22C273.1 7.62 273.16 7.97 273.28 8.27C273.41 8.57 273.58 8.825 273.79 9.035C274.01 9.235 274.265 9.39 274.555 9.5C274.855 9.6 275.175 9.65 275.515 9.65ZM281.052 0.0499997H282.732V11H281.052V0.0499997ZM284.649 3.2H286.329V4.31C286.549 3.92 286.869 3.61 287.289 3.38C287.709 3.14 288.219 3.02 288.819 3.02C289.819 3.02 290.589 3.295 291.129 3.845C291.679 4.395 291.954 5.25 291.954 6.41V11H290.274V6.725C290.274 5.955 290.109 5.4 289.779 5.06C289.459 4.72 288.969 4.55 288.309 4.55C288.029 4.55 287.769 4.595 287.529 4.685C287.289 4.765 287.079 4.89 286.899 5.06C286.719 5.23 286.579 5.45 286.479 5.72C286.379 5.98 286.329 6.295 286.329 6.665V11H284.649V3.2Z" fill="#777F8C"/>
<path d="M352.332 11V0.499999H356.802C357.562 0.499999 358.197 0.589999 358.707 0.769999C359.217 0.94 359.627 1.175 359.937 1.475C360.247 1.775 360.467 2.125 360.597 2.525C360.737 2.915 360.807 3.325 360.807 3.755C360.807 4.535 360.592 5.19 360.162 5.72C359.732 6.25 359.172 6.62 358.482 6.83L361.512 11H359.307L356.607 7.19H354.162V11H352.332ZM354.162 2.21V5.48H356.697C357.357 5.48 357.892 5.34 358.302 5.06C358.712 4.77 358.917 4.365 358.917 3.845C358.917 3.605 358.877 3.385 358.797 3.185C358.727 2.985 358.602 2.815 358.422 2.675C358.242 2.525 358.007 2.41 357.717 2.33C357.427 2.25 357.072 2.21 356.652 2.21H354.162ZM371.665 6.605C371.665 7.415 371.54 8.11 371.29 8.69C371.04 9.27 370.71 9.745 370.3 10.115C369.89 10.485 369.42 10.755 368.89 10.925C368.36 11.095 367.815 11.18 367.255 11.18C366.615 11.18 366.01 11.085 365.44 10.895C364.88 10.695 364.385 10.4 363.955 10.01C363.535 9.62 363.2 9.135 362.95 8.555C362.71 7.975 362.59 7.295 362.59 6.515V0.499999H364.42V6.29C364.42 6.81 364.49 7.27 364.63 7.67C364.77 8.06 364.965 8.39 365.215 8.66C365.475 8.93 365.775 9.135 366.115 9.275C366.465 9.405 366.845 9.47 367.255 9.47C368.135 9.47 368.785 9.2 369.205 8.66C369.625 8.11 369.835 7.345 369.835 6.365V0.499999H371.665V6.605ZM373.748 0.499999H378.323C379.023 0.499999 379.608 0.564999 380.078 0.694999C380.558 0.825 380.938 1.01 381.218 1.25C381.508 1.48 381.713 1.755 381.833 2.075C381.953 2.395 382.013 2.75 382.013 3.14C382.013 3.7 381.888 4.175 381.638 4.565C381.388 4.945 381.023 5.24 380.543 5.45C381.113 5.59 381.558 5.875 381.878 6.305C382.208 6.725 382.373 7.275 382.373 7.955C382.373 8.495 382.273 8.96 382.073 9.35C381.873 9.73 381.588 10.045 381.218 10.295C380.858 10.535 380.423 10.715 379.913 10.835C379.403 10.945 378.843 11 378.233 11H373.748V0.499999ZM375.578 6.44V9.38H378.188C378.978 9.38 379.558 9.265 379.928 9.035C380.298 8.795 380.483 8.405 380.483 7.865C380.483 7.385 380.308 7.03 379.958 6.8C379.618 6.56 379.058 6.44 378.278 6.44H375.578ZM375.578 2.12V4.88H378.248C378.848 4.88 379.308 4.755 379.628 4.505C379.958 4.255 380.123 3.915 380.123 3.485C380.123 3.015 379.973 2.67 379.673 2.45C379.383 2.23 378.858 2.12 378.098 2.12H375.578ZM391.848 11.18C391.138 11.18 390.493 11.07 389.913 10.85C389.333 10.62 388.833 10.285 388.413 9.845C388.003 9.405 387.683 8.86 387.453 8.21C387.233 7.55 387.123 6.79 387.123 5.93C387.123 5 387.243 4.185 387.483 3.485C387.733 2.785 388.073 2.2 388.503 1.73C388.933 1.26 389.438 0.91 390.018 0.68C390.608 0.44 391.243 0.32 391.923 0.32C392.833 0.32 393.618 0.5 394.278 0.859999C394.938 1.22 395.433 1.715 395.763 2.345L394.593 3.32C394.013 2.46 393.113 2.03 391.893 2.03C390.923 2.03 390.173 2.345 389.643 2.975C389.123 3.605 388.853 4.45 388.833 5.51V5.645C389.093 5.105 389.518 4.675 390.108 4.355C390.708 4.035 391.378 3.875 392.118 3.875C392.728 3.875 393.278 3.96 393.768 4.13C394.268 4.3 394.693 4.54 395.043 4.85C395.393 5.15 395.658 5.52 395.838 5.96C396.028 6.4 396.123 6.89 396.123 7.43C396.123 7.99 396.018 8.5 395.808 8.96C395.598 9.42 395.303 9.815 394.923 10.145C394.543 10.475 394.088 10.73 393.558 10.91C393.038 11.09 392.468 11.18 391.848 11.18ZM391.788 9.47C392.568 9.47 393.188 9.295 393.648 8.945C394.118 8.595 394.353 8.105 394.353 7.475C394.353 6.825 394.128 6.35 393.678 6.05C393.238 5.74 392.658 5.585 391.938 5.585C391.088 5.585 390.438 5.745 389.988 6.065C389.548 6.385 389.328 6.835 389.328 7.415C389.328 8.015 389.538 8.51 389.958 8.9C390.388 9.28 390.998 9.47 391.788 9.47ZM396.989 3.575C397.089 3.095 397.259 2.655 397.499 2.255C397.749 1.855 398.054 1.515 398.414 1.235C398.774 0.945 399.184 0.72 399.644 0.559999C400.114 0.4 400.624 0.32 401.174 0.32C401.754 0.32 402.274 0.405 402.734 0.574999C403.194 0.735 403.579 0.96 403.889 1.25C404.199 1.54 404.434 1.895 404.594 2.315C404.764 2.725 404.849 3.175 404.849 3.665C404.849 4.555 404.524 5.395 403.874 6.185C403.234 6.965 402.229 7.79 400.859 8.66L399.869 9.29H405.134V11H396.869V9.605L398.774 8.345C399.604 7.795 400.294 7.315 400.844 6.905C401.404 6.485 401.849 6.105 402.179 5.765C402.509 5.425 402.739 5.1 402.869 4.79C403.009 4.48 403.079 4.155 403.079 3.815C403.079 3.505 403.024 3.235 402.914 3.005C402.804 2.775 402.654 2.59 402.464 2.45C402.284 2.31 402.069 2.205 401.819 2.135C401.579 2.065 401.324 2.03 401.054 2.03C400.664 2.03 400.324 2.09 400.034 2.21C399.744 2.33 399.494 2.49 399.284 2.69C399.084 2.88 398.919 3.1 398.789 3.35C398.659 3.59 398.559 3.84 398.489 4.1L396.989 3.575ZM406.995 0.499999H413.88V2.21H408.465L408.225 4.46C408.395 4.33 408.665 4.22 409.035 4.13C409.415 4.04 409.85 3.995 410.34 3.995C410.98 3.995 411.55 4.085 412.05 4.265C412.55 4.435 412.97 4.68 413.31 5C413.65 5.31 413.905 5.68 414.075 6.11C414.255 6.54 414.345 7.01 414.345 7.52C414.345 8.06 414.24 8.555 414.03 9.005C413.82 9.455 413.53 9.845 413.16 10.175C412.8 10.495 412.37 10.745 411.87 10.925C411.37 11.095 410.83 11.18 410.25 11.18C409.22 11.18 408.325 10.97 407.565 10.55C406.805 10.13 406.22 9.49 405.81 8.63L407.34 7.835C407.57 8.315 407.92 8.71 408.39 9.02C408.86 9.32 409.45 9.47 410.16 9.47C410.97 9.47 411.575 9.295 411.975 8.945C412.375 8.585 412.575 8.115 412.575 7.535C412.575 6.915 412.345 6.435 411.885 6.095C411.435 5.745 410.835 5.57 410.085 5.57C409.525 5.57 409.06 5.645 408.69 5.795C408.33 5.945 407.99 6.14 407.67 6.38L406.41 5.855L406.995 0.499999ZM423.845 11.18C423.185 11.18 422.63 11.07 422.18 10.85C421.73 10.62 421.375 10.315 421.115 9.935V11H419.435V0.0499997H421.115V4.43C421.365 4.01 421.725 3.67 422.195 3.41C422.675 3.15 423.245 3.02 423.905 3.02C424.445 3.02 424.945 3.115 425.405 3.305C425.865 3.485 426.26 3.75 426.59 4.1C426.92 4.44 427.18 4.855 427.37 5.345C427.56 5.835 427.655 6.39 427.655 7.01C427.655 7.65 427.56 8.23 427.37 8.75C427.18 9.26 426.915 9.695 426.575 10.055C426.245 10.415 425.845 10.695 425.375 10.895C424.905 11.085 424.395 11.18 423.845 11.18ZM423.53 9.65C424.22 9.65 424.785 9.43 425.225 8.99C425.665 8.54 425.885 7.9 425.885 7.07C425.885 6.67 425.825 6.315 425.705 6.005C425.585 5.685 425.42 5.42 425.21 5.21C425 4.99 424.75 4.825 424.46 4.715C424.17 4.605 423.855 4.55 423.515 4.55C422.795 4.55 422.215 4.765 421.775 5.195C421.335 5.615 421.115 6.21 421.115 6.98V7.22C421.115 7.62 421.175 7.97 421.295 8.27C421.425 8.57 421.595 8.825 421.805 9.035C422.025 9.235 422.28 9.39 422.57 9.5C422.87 9.6 423.19 9.65 423.53 9.65ZM429.067 0.0499997H430.747V11H429.067V0.0499997ZM432.663 3.2H434.343V4.31C434.563 3.92 434.883 3.61 435.303 3.38C435.723 3.14 436.233 3.02 436.833 3.02C437.833 3.02 438.603 3.295 439.143 3.845C439.693 4.395 439.968 5.25 439.968 6.41V11H438.288V6.725C438.288 5.955 438.123 5.4 437.793 5.06C437.473 4.72 436.983 4.55 436.323 4.55C436.043 4.55 435.783 4.595 435.543 4.685C435.303 4.765 435.093 4.89 434.913 5.06C434.733 5.23 434.593 5.45 434.493 5.72C434.393 5.98 434.343 6.295 434.343 6.665V11H432.663V3.2Z" fill="#777F8C"/>
</svg>
