<svg viewBox="0 0 535 674" fill="none" xmlns="http://www.w3.org/2000/svg">
<line x1="-4.37114e-08" y1="645.5" x2="535" y2="645.5" stroke="#B4BBC5"/>
<rect x="64" y="253" width="72" height="104" fill="#A3CF46"/>
<path d="M87.422 299.066H88.799V311H86.895V301.446L84.26 302.636L83.512 300.987L87.422 299.066ZM96.029 311.204C95.2244 311.204 94.4934 311.079 93.836 310.83C93.1787 310.569 92.612 310.19 92.136 309.691C91.6714 309.192 91.3087 308.575 91.048 307.838C90.7987 307.09 90.674 306.229 90.674 305.254C90.674 304.2 90.81 303.276 91.082 302.483C91.3654 301.69 91.7507 301.027 92.238 300.494C92.7254 299.961 93.2977 299.565 93.955 299.304C94.6237 299.032 95.3434 298.896 96.114 298.896C97.1454 298.896 98.035 299.1 98.783 299.508C99.531 299.916 100.092 300.477 100.466 301.191L99.14 302.296C98.4827 301.321 97.4627 300.834 96.08 300.834C94.9807 300.834 94.1307 301.191 93.53 301.905C92.9407 302.619 92.6347 303.577 92.612 304.778V304.931C92.9067 304.319 93.3884 303.832 94.057 303.469C94.737 303.106 95.4964 302.925 96.335 302.925C97.0264 302.925 97.6497 303.021 98.205 303.214C98.7717 303.407 99.2534 303.679 99.65 304.03C100.047 304.37 100.347 304.789 100.551 305.288C100.766 305.787 100.874 306.342 100.874 306.954C100.874 307.589 100.755 308.167 100.517 308.688C100.279 309.209 99.9447 309.657 99.514 310.031C99.0834 310.405 98.5677 310.694 97.967 310.898C97.3777 311.102 96.7317 311.204 96.029 311.204ZM95.961 309.266C96.845 309.266 97.5477 309.068 98.069 308.671C98.6017 308.274 98.868 307.719 98.868 307.005C98.868 306.268 98.613 305.73 98.103 305.39C97.6044 305.039 96.947 304.863 96.131 304.863C95.1677 304.863 94.431 305.044 93.921 305.407C93.4224 305.77 93.173 306.28 93.173 306.937C93.173 307.617 93.411 308.178 93.887 308.62C94.3744 309.051 95.0657 309.266 95.961 309.266ZM101.652 312.496C101.788 312.462 101.929 312.4 102.077 312.309C102.224 312.23 102.36 312.133 102.485 312.02C102.609 311.907 102.717 311.776 102.808 311.629C102.91 311.482 102.972 311.329 102.995 311.17C103.006 311.136 103.012 311.085 103.012 311.017C102.966 311.028 102.927 311.028 102.893 311.017C102.859 311.017 102.83 311.017 102.808 311.017C102.513 310.96 102.281 310.836 102.111 310.643C101.941 310.439 101.856 310.184 101.856 309.878C101.856 309.527 101.969 309.243 102.196 309.028C102.422 308.801 102.734 308.688 103.131 308.688C103.573 308.688 103.924 308.835 104.185 309.13C104.445 309.413 104.576 309.81 104.576 310.32C104.576 310.796 104.502 311.215 104.355 311.578C104.207 311.941 104.02 312.252 103.794 312.513C103.567 312.774 103.306 312.983 103.012 313.142C102.717 313.312 102.428 313.437 102.145 313.516L101.652 312.496ZM110.407 311.204C109.942 311.204 109.489 311.153 109.047 311.051C108.616 310.96 108.208 310.83 107.823 310.66C107.438 310.479 107.086 310.263 106.769 310.014C106.452 309.765 106.185 309.487 105.97 309.181L107.279 307.923C107.63 308.342 108.089 308.671 108.656 308.909C109.234 309.147 109.863 309.266 110.543 309.266C111.042 309.266 111.495 309.181 111.903 309.011C112.322 308.83 112.679 308.58 112.974 308.263C113.269 307.946 113.495 307.566 113.654 307.124C113.824 306.682 113.909 306.195 113.909 305.662V305.39C113.637 305.945 113.195 306.41 112.583 306.784C111.971 307.147 111.189 307.328 110.237 307.328C109.557 307.328 108.934 307.237 108.367 307.056C107.812 306.863 107.33 306.591 106.922 306.24C106.525 305.889 106.214 305.464 105.987 304.965C105.76 304.466 105.647 303.905 105.647 303.282C105.647 302.625 105.766 302.03 106.004 301.497C106.242 300.953 106.582 300.488 107.024 300.103C107.466 299.718 107.999 299.423 108.622 299.219C109.245 299.004 109.937 298.896 110.696 298.896C111.478 298.896 112.186 299.026 112.821 299.287C113.467 299.548 114.011 299.933 114.453 300.443C114.906 300.953 115.258 301.582 115.507 302.33C115.756 303.078 115.881 303.934 115.881 304.897C115.881 305.917 115.751 306.824 115.49 307.617C115.229 308.399 114.861 309.056 114.385 309.589C113.909 310.122 113.331 310.524 112.651 310.796C111.982 311.068 111.234 311.204 110.407 311.204ZM110.56 305.526C111.433 305.526 112.13 305.316 112.651 304.897C113.172 304.478 113.433 303.917 113.433 303.214C113.433 302.489 113.184 301.911 112.685 301.48C112.186 301.049 111.512 300.834 110.662 300.834C109.721 300.834 108.985 301.044 108.452 301.463C107.919 301.882 107.653 302.46 107.653 303.197C107.653 303.922 107.908 304.495 108.418 304.914C108.939 305.322 109.653 305.526 110.56 305.526Z" fill="white"/>
<path d="M83.0321 661.07C83.1161 660.669 83.2561 660.286 83.4521 659.922C83.6481 659.558 83.9001 659.241 84.2081 658.97C84.5161 658.69 84.8848 658.471 85.3141 658.312C85.7434 658.153 86.2334 658.074 86.7841 658.074C87.2974 658.074 87.7548 658.149 88.1561 658.298C88.5574 658.438 88.8981 658.639 89.1781 658.9C89.4581 659.161 89.6681 659.474 89.8081 659.838C89.9574 660.202 90.0321 660.599 90.0321 661.028C90.0321 661.635 89.9014 662.195 89.6401 662.708C89.3881 663.212 89.0661 663.674 88.6741 664.094C88.2821 664.514 87.8528 664.897 87.3861 665.242C86.9194 665.578 86.4761 665.877 86.0561 666.138L84.9781 666.81H90.3961V668H82.7661V667.02L84.8941 665.606C85.5941 665.139 86.1914 664.71 86.6861 664.318C87.1808 663.917 87.5821 663.539 87.8901 663.184C88.2074 662.829 88.4361 662.489 88.5761 662.162C88.7254 661.826 88.8001 661.49 88.8001 661.154C88.8001 660.809 88.7441 660.515 88.6321 660.272C88.5294 660.029 88.3801 659.833 88.1841 659.684C87.9974 659.535 87.7734 659.427 87.5121 659.362C87.2601 659.297 86.9894 659.264 86.7001 659.264C86.2801 659.264 85.9161 659.329 85.6081 659.46C85.3094 659.591 85.0528 659.763 84.8381 659.978C84.6328 660.183 84.4694 660.417 84.3481 660.678C84.2361 660.93 84.1614 661.182 84.1241 661.434L83.0321 661.07ZM91.2264 663.1C91.2264 662.372 91.3104 661.705 91.4784 661.098C91.6464 660.482 91.8984 659.95 92.2344 659.502C92.5797 659.054 93.0137 658.704 93.5364 658.452C94.059 658.2 94.675 658.074 95.3844 658.074C96.0937 658.074 96.7097 658.191 97.2324 658.424C97.755 658.657 98.189 658.993 98.5344 659.432C98.8797 659.871 99.1364 660.403 99.3044 661.028C99.4724 661.644 99.5564 662.335 99.5564 663.1C99.5564 663.828 99.4724 664.5 99.3044 665.116C99.1457 665.723 98.8937 666.25 98.5484 666.698C98.2124 667.146 97.783 667.496 97.2604 667.748C96.7377 668 96.1217 668.126 95.4124 668.126C94.7404 668.126 94.143 668 93.6204 667.748C93.0977 667.496 92.659 667.146 92.3044 666.698C91.9497 666.25 91.679 665.723 91.4924 665.116C91.315 664.5 91.2264 663.828 91.2264 663.1ZM92.4584 663.1C92.4584 664.295 92.7197 665.233 93.2424 665.914C93.765 666.595 94.4884 666.936 95.4124 666.936C96.4204 666.936 97.1577 666.595 97.6244 665.914C98.091 665.233 98.3244 664.295 98.3244 663.1C98.3244 661.905 98.0864 660.967 97.6104 660.286C97.1344 659.605 96.3924 659.264 95.3844 659.264C94.8804 659.264 94.4464 659.353 94.0824 659.53C93.7184 659.707 93.415 659.964 93.1724 660.3C92.9297 660.636 92.7477 661.042 92.6264 661.518C92.5144 661.985 92.4584 662.512 92.4584 663.1ZM100.56 661.07C100.644 660.669 100.784 660.286 100.98 659.922C101.176 659.558 101.428 659.241 101.736 658.97C102.044 658.69 102.413 658.471 102.842 658.312C103.271 658.153 103.761 658.074 104.312 658.074C104.825 658.074 105.283 658.149 105.684 658.298C106.085 658.438 106.426 658.639 106.706 658.9C106.986 659.161 107.196 659.474 107.336 659.838C107.485 660.202 107.56 660.599 107.56 661.028C107.56 661.635 107.429 662.195 107.168 662.708C106.916 663.212 106.594 663.674 106.202 664.094C105.81 664.514 105.381 664.897 104.914 665.242C104.447 665.578 104.004 665.877 103.584 666.138L102.506 666.81H107.924V668H100.294V667.02L102.422 665.606C103.122 665.139 103.719 664.71 104.214 664.318C104.709 663.917 105.11 663.539 105.418 663.184C105.735 662.829 105.964 662.489 106.104 662.162C106.253 661.826 106.328 661.49 106.328 661.154C106.328 660.809 106.272 660.515 106.16 660.272C106.057 660.029 105.908 659.833 105.712 659.684C105.525 659.535 105.301 659.427 105.04 659.362C104.788 659.297 104.517 659.264 104.228 659.264C103.808 659.264 103.444 659.329 103.136 659.46C102.837 659.591 102.581 659.763 102.366 659.978C102.161 660.183 101.997 660.417 101.876 660.678C101.764 660.93 101.689 661.182 101.652 661.434L100.56 661.07ZM108.754 663.1C108.754 662.372 108.838 661.705 109.006 661.098C109.174 660.482 109.426 659.95 109.762 659.502C110.108 659.054 110.542 658.704 111.064 658.452C111.587 658.2 112.203 658.074 112.912 658.074C113.622 658.074 114.238 658.191 114.76 658.424C115.283 658.657 115.717 658.993 116.062 659.432C116.408 659.871 116.664 660.403 116.832 661.028C117 661.644 117.084 662.335 117.084 663.1C117.084 663.828 117 664.5 116.832 665.116C116.674 665.723 116.422 666.25 116.076 666.698C115.74 667.146 115.311 667.496 114.788 667.748C114.266 668 113.65 668.126 112.94 668.126C112.268 668.126 111.671 668 111.148 667.748C110.626 667.496 110.187 667.146 109.832 666.698C109.478 666.25 109.207 665.723 109.02 665.116C108.843 664.5 108.754 663.828 108.754 663.1ZM109.986 663.1C109.986 664.295 110.248 665.233 110.77 665.914C111.293 666.595 112.016 666.936 112.94 666.936C113.948 666.936 114.686 666.595 115.152 665.914C115.619 665.233 115.852 664.295 115.852 663.1C115.852 661.905 115.614 660.967 115.138 660.286C114.662 659.605 113.92 659.264 112.912 659.264C112.408 659.264 111.974 659.353 111.61 659.53C111.246 659.707 110.943 659.964 110.7 660.3C110.458 660.636 110.276 661.042 110.154 661.518C110.042 661.985 109.986 662.512 109.986 663.1Z" fill="#777F8C"/>
<rect x="64" y="357" width="72" height="120" fill="#648494"/>
<path d="M87.8038 411.066H89.1808V423H87.2768V413.446L84.6418 414.636L83.8938 412.987L87.8038 411.066ZM95.7139 423.204C95.2492 423.204 94.7959 423.153 94.3539 423.051C93.9232 422.96 93.5152 422.83 93.1299 422.66C92.7445 422.479 92.3932 422.263 92.0759 422.014C91.7585 421.765 91.4922 421.487 91.2769 421.181L92.5859 419.923C92.9372 420.342 93.3962 420.671 93.9629 420.909C94.5409 421.147 95.1699 421.266 95.8499 421.266C96.3485 421.266 96.8019 421.181 97.2099 421.011C97.6292 420.83 97.9862 420.58 98.2809 420.263C98.5755 419.946 98.8022 419.566 98.9609 419.124C99.1309 418.682 99.2159 418.195 99.2159 417.662V417.39C98.9439 417.945 98.5019 418.41 97.8899 418.784C97.2779 419.147 96.4959 419.328 95.5439 419.328C94.8639 419.328 94.2405 419.237 93.6739 419.056C93.1185 418.863 92.6369 418.591 92.2289 418.24C91.8322 417.889 91.5205 417.464 91.2939 416.965C91.0672 416.466 90.9539 415.905 90.9539 415.282C90.9539 414.625 91.0729 414.03 91.3109 413.497C91.5489 412.953 91.8889 412.488 92.3309 412.103C92.7729 411.718 93.3055 411.423 93.9289 411.219C94.5522 411.004 95.2435 410.896 96.0029 410.896C96.7849 410.896 97.4932 411.026 98.1279 411.287C98.7739 411.548 99.3179 411.933 99.7599 412.443C100.213 412.953 100.565 413.582 100.814 414.33C101.063 415.078 101.188 415.934 101.188 416.897C101.188 417.917 101.058 418.824 100.797 419.617C100.536 420.399 100.168 421.056 99.6919 421.589C99.2159 422.122 98.6379 422.524 97.9579 422.796C97.2892 423.068 96.5412 423.204 95.7139 423.204ZM95.8669 417.526C96.7395 417.526 97.4365 417.316 97.9579 416.897C98.4792 416.478 98.7399 415.917 98.7399 415.214C98.7399 414.489 98.4905 413.911 97.9919 413.48C97.4932 413.049 96.8189 412.834 95.9689 412.834C95.0282 412.834 94.2915 413.044 93.7589 413.463C93.2262 413.882 92.9599 414.46 92.9599 415.197C92.9599 415.922 93.2149 416.495 93.7249 416.914C94.2462 417.322 94.9602 417.526 95.8669 417.526ZM102.05 424.496C102.186 424.462 102.328 424.4 102.475 424.309C102.622 424.23 102.758 424.133 102.883 424.02C103.008 423.907 103.115 423.776 103.206 423.629C103.308 423.482 103.37 423.329 103.393 423.17C103.404 423.136 103.41 423.085 103.41 423.017C103.365 423.028 103.325 423.028 103.291 423.017C103.257 423.017 103.229 423.017 103.206 423.017C102.911 422.96 102.679 422.836 102.509 422.643C102.339 422.439 102.254 422.184 102.254 421.878C102.254 421.527 102.367 421.243 102.594 421.028C102.821 420.801 103.132 420.688 103.529 420.688C103.971 420.688 104.322 420.835 104.583 421.13C104.844 421.413 104.974 421.81 104.974 422.32C104.974 422.796 104.9 423.215 104.753 423.578C104.606 423.941 104.419 424.252 104.192 424.513C103.965 424.774 103.705 424.983 103.41 425.142C103.115 425.312 102.826 425.437 102.543 425.516L102.05 424.496ZM107.252 411.1H115.055V413.038H108.918L108.646 415.588C108.839 415.441 109.145 415.316 109.564 415.214C109.995 415.112 110.488 415.061 111.043 415.061C111.769 415.061 112.415 415.163 112.981 415.367C113.548 415.56 114.024 415.837 114.409 416.2C114.795 416.551 115.084 416.971 115.276 417.458C115.48 417.945 115.582 418.478 115.582 419.056C115.582 419.668 115.463 420.229 115.225 420.739C114.987 421.249 114.659 421.691 114.239 422.065C113.831 422.428 113.344 422.711 112.777 422.915C112.211 423.108 111.599 423.204 110.941 423.204C109.774 423.204 108.76 422.966 107.898 422.49C107.037 422.014 106.374 421.289 105.909 420.314L107.643 419.413C107.904 419.957 108.301 420.405 108.833 420.756C109.366 421.096 110.035 421.266 110.839 421.266C111.757 421.266 112.443 421.068 112.896 420.671C113.35 420.263 113.576 419.73 113.576 419.073C113.576 418.37 113.316 417.826 112.794 417.441C112.284 417.044 111.604 416.846 110.754 416.846C110.12 416.846 109.593 416.931 109.173 417.101C108.765 417.271 108.38 417.492 108.017 417.764L106.589 417.169L107.252 411.1Z" fill="white"/>
<rect x="360" y="243" width="72" height="141" fill="#648494"/>
<path d="M379.709 310.585C379.823 310.041 380.015 309.542 380.287 309.089C380.571 308.636 380.916 308.25 381.324 307.933C381.732 307.604 382.197 307.349 382.718 307.168C383.251 306.987 383.829 306.896 384.452 306.896C385.11 306.896 385.699 306.992 386.22 307.185C386.742 307.366 387.178 307.621 387.529 307.95C387.881 308.279 388.147 308.681 388.328 309.157C388.521 309.622 388.617 310.132 388.617 310.687C388.617 311.696 388.249 312.648 387.512 313.543C386.787 314.427 385.648 315.362 384.095 316.348L382.973 317.062H388.94V319H379.573V317.419L381.732 315.991C382.673 315.368 383.455 314.824 384.078 314.359C384.713 313.883 385.217 313.452 385.591 313.067C385.965 312.682 386.226 312.313 386.373 311.962C386.532 311.611 386.611 311.242 386.611 310.857C386.611 310.506 386.549 310.2 386.424 309.939C386.3 309.678 386.13 309.469 385.914 309.31C385.71 309.151 385.467 309.032 385.183 308.953C384.911 308.874 384.622 308.834 384.316 308.834C383.874 308.834 383.489 308.902 383.16 309.038C382.832 309.174 382.548 309.355 382.31 309.582C382.084 309.797 381.897 310.047 381.749 310.33C381.602 310.602 381.489 310.885 381.409 311.18L379.709 310.585ZM389.945 310.585C390.058 310.041 390.251 309.542 390.523 309.089C390.806 308.636 391.152 308.25 391.56 307.933C391.968 307.604 392.432 307.349 392.954 307.168C393.486 306.987 394.064 306.896 394.688 306.896C395.345 306.896 395.934 306.992 396.456 307.185C396.977 307.366 397.413 307.621 397.765 307.95C398.116 308.279 398.382 308.681 398.564 309.157C398.756 309.622 398.853 310.132 398.853 310.687C398.853 311.696 398.484 312.648 397.748 313.543C397.022 314.427 395.883 315.362 394.331 316.348L393.209 317.062H399.176V319H389.809V317.419L391.968 315.991C392.908 315.368 393.69 314.824 394.314 314.359C394.948 313.883 395.453 313.452 395.827 313.067C396.201 312.682 396.461 312.313 396.609 311.962C396.767 311.611 396.847 311.242 396.847 310.857C396.847 310.506 396.784 310.2 396.66 309.939C396.535 309.678 396.365 309.469 396.15 309.31C395.946 309.151 395.702 309.032 395.419 308.953C395.147 308.874 394.858 308.834 394.552 308.834C394.11 308.834 393.724 308.902 393.396 309.038C393.067 309.174 392.784 309.355 392.546 309.582C392.319 309.797 392.132 310.047 391.985 310.33C391.837 310.602 391.724 310.885 391.645 311.18L389.945 310.585ZM399.976 320.496C400.112 320.462 400.253 320.4 400.401 320.309C400.548 320.23 400.684 320.133 400.809 320.02C400.933 319.907 401.041 319.776 401.132 319.629C401.234 319.482 401.296 319.329 401.319 319.17C401.33 319.136 401.336 319.085 401.336 319.017C401.29 319.028 401.251 319.028 401.217 319.017C401.183 319.017 401.154 319.017 401.132 319.017C400.837 318.96 400.605 318.836 400.435 318.643C400.265 318.439 400.18 318.184 400.18 317.878C400.18 317.527 400.293 317.243 400.52 317.028C400.746 316.801 401.058 316.688 401.455 316.688C401.897 316.688 402.248 316.835 402.509 317.13C402.769 317.413 402.9 317.81 402.9 318.32C402.9 318.796 402.826 319.215 402.679 319.578C402.531 319.941 402.344 320.252 402.118 320.513C401.891 320.774 401.63 320.983 401.336 321.142C401.041 321.312 400.752 321.437 400.469 321.516L399.976 320.496ZM403.631 307.1H412.726V308.443L407.218 319H405.127L410.414 309.038H403.631V307.1Z" fill="white"/>
<rect x="64" y="477" width="72" height="168" fill="#5FAF2D"/>
<path d="M84.1908 558.585C84.3041 558.041 84.4968 557.542 84.7688 557.089C85.0521 556.636 85.3978 556.25 85.8058 555.933C86.2138 555.604 86.6785 555.349 87.1998 555.168C87.7325 554.987 88.3105 554.896 88.9338 554.896C89.5911 554.896 90.1805 554.992 90.7018 555.185C91.2231 555.366 91.6595 555.621 92.0108 555.95C92.3621 556.279 92.6285 556.681 92.8098 557.157C93.0025 557.622 93.0988 558.132 93.0988 558.687C93.0988 559.696 92.7305 560.648 91.9938 561.543C91.2685 562.427 90.1295 563.362 88.5768 564.348L87.4548 565.062H93.4218V567H84.0548V565.419L86.2138 563.991C87.1545 563.368 87.9365 562.824 88.5598 562.359C89.1945 561.883 89.6988 561.452 90.0728 561.067C90.4468 560.682 90.7075 560.313 90.8548 559.962C91.0135 559.611 91.0928 559.242 91.0928 558.857C91.0928 558.506 91.0305 558.2 90.9058 557.939C90.7811 557.678 90.6111 557.469 90.3958 557.31C90.1918 557.151 89.9481 557.032 89.6648 556.953C89.3928 556.874 89.1038 556.834 88.7978 556.834C88.3558 556.834 87.9705 556.902 87.6418 557.038C87.3131 557.174 87.0298 557.355 86.7918 557.582C86.5651 557.797 86.3781 558.047 86.2308 558.33C86.0835 558.602 85.9701 558.885 85.8908 559.18L84.1908 558.585ZM93.984 555.1H103.079V556.443L97.571 567H95.48L100.767 557.038H93.984V555.1ZM102.498 568.496C102.634 568.462 102.776 568.4 102.923 568.309C103.071 568.23 103.207 568.133 103.331 568.02C103.456 567.907 103.564 567.776 103.654 567.629C103.756 567.482 103.819 567.329 103.841 567.17C103.853 567.136 103.858 567.085 103.858 567.017C103.813 567.028 103.773 567.028 103.739 567.017C103.705 567.017 103.677 567.017 103.654 567.017C103.36 566.96 103.127 566.836 102.957 566.643C102.787 566.439 102.702 566.184 102.702 565.878C102.702 565.527 102.816 565.243 103.042 565.028C103.269 564.801 103.581 564.688 103.977 564.688C104.419 564.688 104.771 564.835 105.031 565.13C105.292 565.413 105.422 565.81 105.422 566.32C105.422 566.796 105.349 567.215 105.201 567.578C105.054 567.941 104.867 568.252 104.64 568.513C104.414 568.774 104.153 568.983 103.858 569.142C103.564 569.312 103.275 569.437 102.991 569.516L102.498 568.496ZM106.443 557.99C106.601 557.548 106.822 557.14 107.106 556.766C107.389 556.381 107.729 556.052 108.126 555.78C108.534 555.497 109.004 555.281 109.537 555.134C110.069 554.975 110.67 554.896 111.339 554.896C111.928 554.896 112.478 554.97 112.988 555.117C113.498 555.264 113.934 555.474 114.297 555.746C114.671 556.007 114.96 556.33 115.164 556.715C115.379 557.1 115.487 557.531 115.487 558.007C115.487 558.653 115.311 559.208 114.96 559.673C114.62 560.126 114.144 560.461 113.532 560.676C113.826 560.733 114.11 560.829 114.382 560.965C114.654 561.09 114.897 561.265 115.113 561.492C115.328 561.719 115.498 561.996 115.623 562.325C115.747 562.654 115.81 563.033 115.81 563.464C115.81 564.042 115.696 564.563 115.47 565.028C115.243 565.493 114.931 565.889 114.535 566.218C114.138 566.535 113.662 566.779 113.107 566.949C112.563 567.119 111.968 567.204 111.322 567.204C110.018 567.204 108.919 566.932 108.024 566.388C107.14 565.844 106.522 565.039 106.171 563.974L107.956 563.209C108.069 563.504 108.216 563.781 108.398 564.042C108.59 564.303 108.817 564.535 109.078 564.739C109.35 564.932 109.667 565.085 110.03 565.198C110.392 565.311 110.806 565.368 111.271 565.368C112.098 565.368 112.727 565.204 113.158 564.875C113.588 564.546 113.804 564.082 113.804 563.481C113.804 563.164 113.736 562.897 113.6 562.682C113.475 562.467 113.294 562.297 113.056 562.172C112.829 562.036 112.551 561.94 112.223 561.883C111.905 561.826 111.554 561.798 111.169 561.798H109.622V560.03H110.897C111.747 560.03 112.387 559.871 112.818 559.554C113.26 559.225 113.481 558.823 113.481 558.347C113.481 557.871 113.277 557.503 112.869 557.242C112.472 556.97 111.9 556.834 111.152 556.834C110.721 556.834 110.336 556.891 109.996 557.004C109.667 557.106 109.378 557.248 109.129 557.429C108.891 557.61 108.681 557.814 108.5 558.041C108.33 558.256 108.194 558.483 108.092 558.721L106.443 557.99Z" fill="white"/>
<rect x="212" y="154" width="72" height="107" fill="#A3CF46"/>
<path d="M239.207 201.066H240.584V213H238.68V203.446L236.045 204.636L235.297 202.987L239.207 201.066ZM242.017 201.1H251.112V202.443L245.604 213H243.513L248.8 203.038H242.017V201.1ZM250.531 214.496C250.667 214.462 250.809 214.4 250.956 214.309C251.104 214.23 251.24 214.133 251.364 214.02C251.489 213.907 251.597 213.776 251.687 213.629C251.789 213.482 251.852 213.329 251.874 213.17C251.886 213.136 251.891 213.085 251.891 213.017C251.846 213.028 251.806 213.028 251.772 213.017C251.738 213.017 251.71 213.017 251.687 213.017C251.393 212.96 251.16 212.836 250.99 212.643C250.82 212.439 250.735 212.184 250.735 211.878C250.735 211.527 250.849 211.243 251.075 211.028C251.302 210.801 251.614 210.688 252.01 210.688C252.452 210.688 252.804 210.835 253.064 211.13C253.325 211.413 253.455 211.81 253.455 212.32C253.455 212.796 253.382 213.215 253.234 213.578C253.087 213.941 252.9 214.252 252.673 214.513C252.447 214.774 252.186 214.983 251.891 215.142C251.597 215.312 251.308 215.437 251.024 215.516L250.531 214.496ZM257.91 201.066H259.287V213H257.383V203.446L254.748 204.636L254 202.987L257.91 201.066Z" fill="white"/>
<path d="M233.028 661.07C233.112 660.669 233.252 660.286 233.448 659.922C233.644 659.558 233.896 659.241 234.204 658.97C234.512 658.69 234.881 658.471 235.31 658.312C235.74 658.153 236.23 658.074 236.78 658.074C237.294 658.074 237.751 658.149 238.152 658.298C238.554 658.438 238.894 658.639 239.174 658.9C239.454 659.161 239.664 659.474 239.804 659.838C239.954 660.202 240.028 660.599 240.028 661.028C240.028 661.635 239.898 662.195 239.636 662.708C239.384 663.212 239.062 663.674 238.67 664.094C238.278 664.514 237.849 664.897 237.382 665.242C236.916 665.578 236.472 665.877 236.052 666.138L234.974 666.81H240.392V668H232.762V667.02L234.89 665.606C235.59 665.139 236.188 664.71 236.682 664.318C237.177 663.917 237.578 663.539 237.886 663.184C238.204 662.829 238.432 662.489 238.572 662.162C238.722 661.826 238.796 661.49 238.796 661.154C238.796 660.809 238.74 660.515 238.628 660.272C238.526 660.029 238.376 659.833 238.18 659.684C237.994 659.535 237.77 659.427 237.508 659.362C237.256 659.297 236.986 659.264 236.696 659.264C236.276 659.264 235.912 659.329 235.604 659.46C235.306 659.591 235.049 659.763 234.834 659.978C234.629 660.183 234.466 660.417 234.344 660.678C234.232 660.93 234.158 661.182 234.12 661.434L233.028 661.07ZM241.222 663.1C241.222 662.372 241.306 661.705 241.474 661.098C241.642 660.482 241.894 659.95 242.23 659.502C242.576 659.054 243.01 658.704 243.532 658.452C244.055 658.2 244.671 658.074 245.38 658.074C246.09 658.074 246.706 658.191 247.228 658.424C247.751 658.657 248.185 658.993 248.53 659.432C248.876 659.871 249.132 660.403 249.3 661.028C249.468 661.644 249.552 662.335 249.552 663.1C249.552 663.828 249.468 664.5 249.3 665.116C249.142 665.723 248.89 666.25 248.544 666.698C248.208 667.146 247.779 667.496 247.256 667.748C246.734 668 246.118 668.126 245.408 668.126C244.736 668.126 244.139 668 243.616 667.748C243.094 667.496 242.655 667.146 242.3 666.698C241.946 666.25 241.675 665.723 241.488 665.116C241.311 664.5 241.222 663.828 241.222 663.1ZM242.454 663.1C242.454 664.295 242.716 665.233 243.238 665.914C243.761 666.595 244.484 666.936 245.408 666.936C246.416 666.936 247.154 666.595 247.62 665.914C248.087 665.233 248.32 664.295 248.32 663.1C248.32 661.905 248.082 660.967 247.606 660.286C247.13 659.605 246.388 659.264 245.38 659.264C244.876 659.264 244.442 659.353 244.078 659.53C243.714 659.707 243.411 659.964 243.168 660.3C242.926 660.636 242.744 661.042 242.622 661.518C242.51 661.985 242.454 662.512 242.454 663.1ZM250.556 661.07C250.64 660.669 250.78 660.286 250.976 659.922C251.172 659.558 251.424 659.241 251.732 658.97C252.04 658.69 252.409 658.471 252.838 658.312C253.267 658.153 253.757 658.074 254.308 658.074C254.821 658.074 255.279 658.149 255.68 658.298C256.081 658.438 256.422 658.639 256.702 658.9C256.982 659.161 257.192 659.474 257.332 659.838C257.481 660.202 257.556 660.599 257.556 661.028C257.556 661.635 257.425 662.195 257.164 662.708C256.912 663.212 256.59 663.674 256.198 664.094C255.806 664.514 255.377 664.897 254.91 665.242C254.443 665.578 254 665.877 253.58 666.138L252.502 666.81H257.92V668H250.29V667.02L252.418 665.606C253.118 665.139 253.715 664.71 254.21 664.318C254.705 663.917 255.106 663.539 255.414 663.184C255.731 662.829 255.96 662.489 256.1 662.162C256.249 661.826 256.324 661.49 256.324 661.154C256.324 660.809 256.268 660.515 256.156 660.272C256.053 660.029 255.904 659.833 255.708 659.684C255.521 659.535 255.297 659.427 255.036 659.362C254.784 659.297 254.513 659.264 254.224 659.264C253.804 659.264 253.44 659.329 253.132 659.46C252.833 659.591 252.577 659.763 252.362 659.978C252.157 660.183 251.993 660.417 251.872 660.678C251.76 660.93 251.685 661.182 251.648 661.434L250.556 661.07ZM261.55 658.144H262.348V668H261.172V659.642L258.638 660.804L258.19 659.754L261.55 658.144Z" fill="#777F8C"/>
<rect x="212" y="261" width="72" height="136" fill="#648494"/>
<path d="M230.738 326.585C230.851 326.041 231.044 325.542 231.316 325.089C231.599 324.636 231.945 324.25 232.353 323.933C232.761 323.604 233.226 323.349 233.747 323.168C234.28 322.987 234.858 322.896 235.481 322.896C236.138 322.896 236.728 322.992 237.249 323.185C237.77 323.366 238.207 323.621 238.558 323.95C238.909 324.279 239.176 324.681 239.357 325.157C239.55 325.622 239.646 326.132 239.646 326.687C239.646 327.696 239.278 328.648 238.541 329.543C237.816 330.427 236.677 331.362 235.124 332.348L234.002 333.062H239.969V335H230.602V333.419L232.761 331.991C233.702 331.368 234.484 330.824 235.107 330.359C235.742 329.883 236.246 329.452 236.62 329.067C236.994 328.682 237.255 328.313 237.402 327.962C237.561 327.611 237.64 327.242 237.64 326.857C237.64 326.506 237.578 326.2 237.453 325.939C237.328 325.678 237.158 325.469 236.943 325.31C236.739 325.151 236.495 325.032 236.212 324.953C235.94 324.874 235.651 324.834 235.345 324.834C234.903 324.834 234.518 324.902 234.189 325.038C233.86 325.174 233.577 325.355 233.339 325.582C233.112 325.797 232.925 326.047 232.778 326.33C232.631 326.602 232.517 326.885 232.438 327.18L230.738 326.585ZM240.973 326.585C241.087 326.041 241.279 325.542 241.551 325.089C241.835 324.636 242.18 324.25 242.588 323.933C242.996 323.604 243.461 323.349 243.982 323.168C244.515 322.987 245.093 322.896 245.716 322.896C246.374 322.896 246.963 322.992 247.484 323.185C248.006 323.366 248.442 323.621 248.793 323.95C249.145 324.279 249.411 324.681 249.592 325.157C249.785 325.622 249.881 326.132 249.881 326.687C249.881 327.696 249.513 328.648 248.776 329.543C248.051 330.427 246.912 331.362 245.359 332.348L244.237 333.062H250.204V335H240.837V333.419L242.996 331.991C243.937 331.368 244.719 330.824 245.342 330.359C245.977 329.883 246.481 329.452 246.855 329.067C247.229 328.682 247.49 328.313 247.637 327.962C247.796 327.611 247.875 327.242 247.875 326.857C247.875 326.506 247.813 326.2 247.688 325.939C247.564 325.678 247.394 325.469 247.178 325.31C246.974 325.151 246.731 325.032 246.447 324.953C246.175 324.874 245.886 324.834 245.58 324.834C245.138 324.834 244.753 324.902 244.424 325.038C244.096 325.174 243.812 325.355 243.574 325.582C243.348 325.797 243.161 326.047 243.013 326.33C242.866 326.602 242.753 326.885 242.673 327.18L240.973 326.585ZM251.005 336.496C251.141 336.462 251.282 336.4 251.43 336.309C251.577 336.23 251.713 336.133 251.838 336.02C251.962 335.907 252.07 335.776 252.161 335.629C252.263 335.482 252.325 335.329 252.348 335.17C252.359 335.136 252.365 335.085 252.365 335.017C252.319 335.028 252.28 335.028 252.246 335.017C252.212 335.017 252.183 335.017 252.161 335.017C251.866 334.96 251.634 334.836 251.464 334.643C251.294 334.439 251.209 334.184 251.209 333.878C251.209 333.527 251.322 333.243 251.549 333.028C251.775 332.801 252.087 332.688 252.484 332.688C252.926 332.688 253.277 332.835 253.538 333.13C253.798 333.413 253.929 333.81 253.929 334.32C253.929 334.796 253.855 335.215 253.708 335.578C253.56 335.941 253.373 336.252 253.147 336.513C252.92 336.774 252.659 336.983 252.365 337.142C252.07 337.312 251.781 337.437 251.498 337.516L251.005 336.496ZM261.647 332.79H254.66V331.447L261.919 323.083H263.551V330.971H265.591V332.79H263.551V335H261.647V332.79ZM261.647 330.971V326.126L257.244 330.971H261.647Z" fill="white"/>
<rect x="212" y="397" width="72" height="248" fill="#5FAF2D"/>
<path d="M231.042 517.99C231.2 517.548 231.421 517.14 231.705 516.766C231.988 516.381 232.328 516.052 232.725 515.78C233.133 515.497 233.603 515.281 234.136 515.134C234.668 514.975 235.269 514.896 235.938 514.896C236.527 514.896 237.077 514.97 237.587 515.117C238.097 515.264 238.533 515.474 238.896 515.746C239.27 516.007 239.559 516.33 239.763 516.715C239.978 517.1 240.086 517.531 240.086 518.007C240.086 518.653 239.91 519.208 239.559 519.673C239.219 520.126 238.743 520.461 238.131 520.676C238.425 520.733 238.709 520.829 238.981 520.965C239.253 521.09 239.496 521.265 239.712 521.492C239.927 521.719 240.097 521.996 240.222 522.325C240.346 522.654 240.409 523.033 240.409 523.464C240.409 524.042 240.295 524.563 240.069 525.028C239.842 525.493 239.53 525.889 239.134 526.218C238.737 526.535 238.261 526.779 237.706 526.949C237.162 527.119 236.567 527.204 235.921 527.204C234.617 527.204 233.518 526.932 232.623 526.388C231.739 525.844 231.121 525.039 230.77 523.974L232.555 523.209C232.668 523.504 232.815 523.781 232.997 524.042C233.189 524.303 233.416 524.535 233.677 524.739C233.949 524.932 234.266 525.085 234.629 525.198C234.991 525.311 235.405 525.368 235.87 525.368C236.697 525.368 237.326 525.204 237.757 524.875C238.187 524.546 238.403 524.082 238.403 523.481C238.403 523.164 238.335 522.897 238.199 522.682C238.074 522.467 237.893 522.297 237.655 522.172C237.428 522.036 237.15 521.94 236.822 521.883C236.504 521.826 236.153 521.798 235.768 521.798H234.221V520.03H235.496C236.346 520.03 236.986 519.871 237.417 519.554C237.859 519.225 238.08 518.823 238.08 518.347C238.08 517.871 237.876 517.503 237.468 517.242C237.071 516.97 236.499 516.834 235.751 516.834C235.32 516.834 234.935 516.891 234.595 517.004C234.266 517.106 233.977 517.248 233.728 517.429C233.49 517.61 233.28 517.814 233.099 518.041C232.929 518.256 232.793 518.483 232.691 518.721L231.042 517.99ZM246.154 527.204C245.69 527.204 245.236 527.153 244.794 527.051C244.364 526.96 243.956 526.83 243.57 526.66C243.185 526.479 242.834 526.263 242.516 526.014C242.199 525.765 241.933 525.487 241.717 525.181L243.026 523.923C243.378 524.342 243.837 524.671 244.403 524.909C244.981 525.147 245.61 525.266 246.29 525.266C246.789 525.266 247.242 525.181 247.65 525.011C248.07 524.83 248.427 524.58 248.721 524.263C249.016 523.946 249.243 523.566 249.401 523.124C249.571 522.682 249.656 522.195 249.656 521.662V521.39C249.384 521.945 248.942 522.41 248.33 522.784C247.718 523.147 246.936 523.328 245.984 523.328C245.304 523.328 244.681 523.237 244.114 523.056C243.559 522.863 243.077 522.591 242.669 522.24C242.273 521.889 241.961 521.464 241.734 520.965C241.508 520.466 241.394 519.905 241.394 519.282C241.394 518.625 241.513 518.03 241.751 517.497C241.989 516.953 242.329 516.488 242.771 516.103C243.213 515.718 243.746 515.423 244.369 515.219C244.993 515.004 245.684 514.896 246.443 514.896C247.225 514.896 247.934 515.026 248.568 515.287C249.214 515.548 249.758 515.933 250.2 516.443C250.654 516.953 251.005 517.582 251.254 518.33C251.504 519.078 251.628 519.934 251.628 520.897C251.628 521.917 251.498 522.824 251.237 523.617C250.977 524.399 250.608 525.056 250.132 525.589C249.656 526.122 249.078 526.524 248.398 526.796C247.73 527.068 246.982 527.204 246.154 527.204ZM246.307 521.526C247.18 521.526 247.877 521.316 248.398 520.897C248.92 520.478 249.18 519.917 249.18 519.214C249.18 518.489 248.931 517.911 248.432 517.48C247.934 517.049 247.259 516.834 246.409 516.834C245.469 516.834 244.732 517.044 244.199 517.463C243.667 517.882 243.4 518.46 243.4 519.197C243.4 519.922 243.655 520.495 244.165 520.914C244.687 521.322 245.401 521.526 246.307 521.526ZM252.49 528.496C252.626 528.462 252.768 528.4 252.915 528.309C253.063 528.23 253.199 528.133 253.323 528.02C253.448 527.907 253.556 527.776 253.646 527.629C253.748 527.482 253.811 527.329 253.833 527.17C253.845 527.136 253.85 527.085 253.85 527.017C253.805 527.028 253.765 527.028 253.731 527.017C253.697 527.017 253.669 527.017 253.646 527.017C253.352 526.96 253.119 526.836 252.949 526.643C252.779 526.439 252.694 526.184 252.694 525.878C252.694 525.527 252.808 525.243 253.034 525.028C253.261 524.801 253.573 524.688 253.969 524.688C254.411 524.688 254.763 524.835 255.023 525.13C255.284 525.413 255.414 525.81 255.414 526.32C255.414 526.796 255.341 527.215 255.193 527.578C255.046 527.941 254.859 528.252 254.632 528.513C254.406 528.774 254.145 528.983 253.85 529.142C253.556 529.312 253.267 529.437 252.983 529.516L252.49 528.496ZM256.146 515.1H265.241V516.443L259.733 527H257.642L262.929 517.038H256.146V515.1Z" fill="white"/>
<rect x="360" y="117" width="72" height="126" fill="#A3CF46"/>
<path d="M378.19 177.585C378.304 177.041 378.496 176.542 378.768 176.089C379.052 175.636 379.397 175.25 379.805 174.933C380.213 174.604 380.678 174.349 381.199 174.168C381.732 173.987 382.31 173.896 382.933 173.896C383.591 173.896 384.18 173.992 384.701 174.185C385.223 174.366 385.659 174.621 386.01 174.95C386.362 175.279 386.628 175.681 386.809 176.157C387.002 176.622 387.098 177.132 387.098 177.687C387.098 178.696 386.73 179.648 385.993 180.543C385.268 181.427 384.129 182.362 382.576 183.348L381.454 184.062H387.421V186H378.054V184.419L380.213 182.991C381.154 182.368 381.936 181.824 382.559 181.359C383.194 180.883 383.698 180.452 384.072 180.067C384.446 179.682 384.707 179.313 384.854 178.962C385.013 178.611 385.092 178.242 385.092 177.857C385.092 177.506 385.03 177.2 384.905 176.939C384.781 176.678 384.611 176.469 384.395 176.31C384.191 176.151 383.948 176.032 383.664 175.953C383.392 175.874 383.103 175.834 382.797 175.834C382.355 175.834 381.97 175.902 381.641 176.038C381.313 176.174 381.029 176.355 380.791 176.582C380.565 176.797 380.378 177.047 380.23 177.33C380.083 177.602 379.97 177.885 379.89 178.18L378.19 177.585ZM388.392 180.05C388.392 179.155 388.499 178.333 388.715 177.585C388.93 176.826 389.247 176.174 389.667 175.63C390.097 175.086 390.636 174.661 391.282 174.355C391.928 174.049 392.681 173.896 393.543 173.896C394.404 173.896 395.158 174.043 395.804 174.338C396.461 174.633 397.005 175.046 397.436 175.579C397.866 176.112 398.189 176.758 398.405 177.517C398.62 178.276 398.728 179.121 398.728 180.05C398.728 180.945 398.62 181.773 398.405 182.532C398.189 183.28 397.866 183.926 397.436 184.47C397.016 185.014 396.484 185.439 395.838 185.745C395.192 186.051 394.438 186.204 393.577 186.204C392.738 186.204 391.996 186.051 391.35 185.745C390.704 185.439 390.16 185.014 389.718 184.47C389.287 183.926 388.958 183.28 388.732 182.532C388.505 181.773 388.392 180.945 388.392 180.05ZM390.398 180.05C390.398 181.387 390.67 182.424 391.214 183.161C391.769 183.898 392.557 184.266 393.577 184.266C394.687 184.266 395.486 183.898 395.974 183.161C396.472 182.424 396.722 181.387 396.722 180.05C396.722 178.713 396.472 177.676 395.974 176.939C395.475 176.202 394.665 175.834 393.543 175.834C392.466 175.834 391.673 176.208 391.163 176.956C390.653 177.693 390.398 178.724 390.398 180.05ZM399.552 187.496C399.688 187.462 399.83 187.4 399.977 187.309C400.125 187.23 400.261 187.133 400.385 187.02C400.51 186.907 400.618 186.776 400.708 186.629C400.81 186.482 400.873 186.329 400.895 186.17C400.907 186.136 400.912 186.085 400.912 186.017C400.867 186.028 400.827 186.028 400.793 186.017C400.759 186.017 400.731 186.017 400.708 186.017C400.414 185.96 400.181 185.836 400.011 185.643C399.841 185.439 399.756 185.184 399.756 184.878C399.756 184.527 399.87 184.243 400.096 184.028C400.323 183.801 400.635 183.688 401.031 183.688C401.473 183.688 401.825 183.835 402.085 184.13C402.346 184.413 402.476 184.81 402.476 185.32C402.476 185.796 402.403 186.215 402.255 186.578C402.108 186.941 401.921 187.252 401.694 187.513C401.468 187.774 401.207 187.983 400.912 188.142C400.618 188.312 400.329 188.437 400.045 188.516L399.552 187.496ZM410.195 183.79H403.208V182.447L410.467 174.083H412.099V181.971H414.139V183.79H412.099V186H410.195V183.79ZM410.195 181.971V177.126L405.792 181.971H410.195Z" fill="white"/>
<path d="M379.754 661.07C379.838 660.669 379.978 660.286 380.174 659.922C380.37 659.558 380.622 659.241 380.93 658.97C381.238 658.69 381.606 658.471 382.036 658.312C382.465 658.153 382.955 658.074 383.506 658.074C384.019 658.074 384.476 658.149 384.878 658.298C385.279 658.438 385.62 658.639 385.9 658.9C386.18 659.161 386.39 659.474 386.53 659.838C386.679 660.202 386.754 660.599 386.754 661.028C386.754 661.635 386.623 662.195 386.362 662.708C386.11 663.212 385.788 663.674 385.396 664.094C385.004 664.514 384.574 664.897 384.108 665.242C383.641 665.578 383.198 665.877 382.778 666.138L381.7 666.81H387.118V668H379.488V667.02L381.616 665.606C382.316 665.139 382.913 664.71 383.408 664.318C383.902 663.917 384.304 663.539 384.612 663.184C384.929 662.829 385.158 662.489 385.298 662.162C385.447 661.826 385.522 661.49 385.522 661.154C385.522 660.809 385.466 660.515 385.354 660.272C385.251 660.029 385.102 659.833 384.906 659.684C384.719 659.535 384.495 659.427 384.234 659.362C383.982 659.297 383.711 659.264 383.422 659.264C383.002 659.264 382.638 659.329 382.33 659.46C382.031 659.591 381.774 659.763 381.56 659.978C381.354 660.183 381.191 660.417 381.07 660.678C380.958 660.93 380.883 661.182 380.846 661.434L379.754 661.07ZM387.948 663.1C387.948 662.372 388.032 661.705 388.2 661.098C388.368 660.482 388.62 659.95 388.956 659.502C389.301 659.054 389.735 658.704 390.258 658.452C390.781 658.2 391.397 658.074 392.106 658.074C392.815 658.074 393.431 658.191 393.954 658.424C394.477 658.657 394.911 658.993 395.256 659.432C395.601 659.871 395.858 660.403 396.026 661.028C396.194 661.644 396.278 662.335 396.278 663.1C396.278 663.828 396.194 664.5 396.026 665.116C395.867 665.723 395.615 666.25 395.27 666.698C394.934 667.146 394.505 667.496 393.982 667.748C393.459 668 392.843 668.126 392.134 668.126C391.462 668.126 390.865 668 390.342 667.748C389.819 667.496 389.381 667.146 389.026 666.698C388.671 666.25 388.401 665.723 388.214 665.116C388.037 664.5 387.948 663.828 387.948 663.1ZM389.18 663.1C389.18 664.295 389.441 665.233 389.964 665.914C390.487 666.595 391.21 666.936 392.134 666.936C393.142 666.936 393.879 666.595 394.346 665.914C394.813 665.233 395.046 664.295 395.046 663.1C395.046 661.905 394.808 660.967 394.332 660.286C393.856 659.605 393.114 659.264 392.106 659.264C391.602 659.264 391.168 659.353 390.804 659.53C390.44 659.707 390.137 659.964 389.894 660.3C389.651 660.636 389.469 661.042 389.348 661.518C389.236 661.985 389.18 662.512 389.18 663.1ZM397.282 661.07C397.366 660.669 397.506 660.286 397.702 659.922C397.898 659.558 398.15 659.241 398.458 658.97C398.766 658.69 399.134 658.471 399.564 658.312C399.993 658.153 400.483 658.074 401.034 658.074C401.547 658.074 402.004 658.149 402.406 658.298C402.807 658.438 403.148 658.639 403.428 658.9C403.708 659.161 403.918 659.474 404.058 659.838C404.207 660.202 404.282 660.599 404.282 661.028C404.282 661.635 404.151 662.195 403.89 662.708C403.638 663.212 403.316 663.674 402.924 664.094C402.532 664.514 402.102 664.897 401.636 665.242C401.169 665.578 400.726 665.877 400.306 666.138L399.228 666.81H404.646V668H397.016V667.02L399.144 665.606C399.844 665.139 400.441 664.71 400.936 664.318C401.43 663.917 401.832 663.539 402.14 663.184C402.457 662.829 402.686 662.489 402.826 662.162C402.975 661.826 403.05 661.49 403.05 661.154C403.05 660.809 402.994 660.515 402.882 660.272C402.779 660.029 402.63 659.833 402.434 659.684C402.247 659.535 402.023 659.427 401.762 659.362C401.51 659.297 401.239 659.264 400.95 659.264C400.53 659.264 400.166 659.329 399.858 659.46C399.559 659.591 399.302 659.763 399.088 659.978C398.882 660.183 398.719 660.417 398.598 660.678C398.486 660.93 398.411 661.182 398.374 661.434L397.282 661.07ZM405.574 661.07C405.658 660.669 405.798 660.286 405.994 659.922C406.19 659.558 406.442 659.241 406.75 658.97C407.058 658.69 407.427 658.471 407.856 658.312C408.285 658.153 408.775 658.074 409.326 658.074C409.839 658.074 410.297 658.149 410.698 658.298C411.099 658.438 411.44 658.639 411.72 658.9C412 659.161 412.21 659.474 412.35 659.838C412.499 660.202 412.574 660.599 412.574 661.028C412.574 661.635 412.443 662.195 412.182 662.708C411.93 663.212 411.608 663.674 411.216 664.094C410.824 664.514 410.395 664.897 409.928 665.242C409.461 665.578 409.018 665.877 408.598 666.138L407.52 666.81H412.938V668H405.308V667.02L407.436 665.606C408.136 665.139 408.733 664.71 409.228 664.318C409.723 663.917 410.124 663.539 410.432 663.184C410.749 662.829 410.978 662.489 411.118 662.162C411.267 661.826 411.342 661.49 411.342 661.154C411.342 660.809 411.286 660.515 411.174 660.272C411.071 660.029 410.922 659.833 410.726 659.684C410.539 659.535 410.315 659.427 410.054 659.362C409.802 659.297 409.531 659.264 409.242 659.264C408.822 659.264 408.458 659.329 408.15 659.46C407.851 659.591 407.595 659.763 407.38 659.978C407.175 660.183 407.011 660.417 406.89 660.678C406.778 660.93 406.703 661.182 406.666 661.434L405.574 661.07Z" fill="#222429"/>
<rect x="360" y="384" width="72" height="261" fill="#5FAF2D"/>
<path d="M385.748 517.79H378.761V516.447L386.02 508.083H387.652V515.971H389.692V517.79H387.652V520H385.748V517.79ZM385.748 515.971V511.126L381.345 515.971H385.748ZM390.451 511.585C390.564 511.041 390.757 510.542 391.029 510.089C391.312 509.636 391.658 509.25 392.066 508.933C392.474 508.604 392.939 508.349 393.46 508.168C393.993 507.987 394.571 507.896 395.194 507.896C395.851 507.896 396.441 507.992 396.962 508.185C397.483 508.366 397.92 508.621 398.271 508.95C398.622 509.279 398.889 509.681 399.07 510.157C399.263 510.622 399.359 511.132 399.359 511.687C399.359 512.696 398.991 513.648 398.254 514.543C397.529 515.427 396.39 516.362 394.837 517.348L393.715 518.062H399.682V520H390.315V518.419L392.474 516.991C393.415 516.368 394.197 515.824 394.82 515.359C395.455 514.883 395.959 514.452 396.333 514.067C396.707 513.682 396.968 513.313 397.115 512.962C397.274 512.611 397.353 512.242 397.353 511.857C397.353 511.506 397.291 511.2 397.166 510.939C397.041 510.678 396.871 510.469 396.656 510.31C396.452 510.151 396.208 510.032 395.925 509.953C395.653 509.874 395.364 509.834 395.058 509.834C394.616 509.834 394.231 509.902 393.902 510.038C393.573 510.174 393.29 510.355 393.052 510.582C392.825 510.797 392.638 511.047 392.491 511.33C392.344 511.602 392.23 511.885 392.151 512.18L390.451 511.585ZM400.482 521.496C400.618 521.462 400.76 521.4 400.907 521.309C401.054 521.23 401.19 521.133 401.315 521.02C401.44 520.907 401.547 520.776 401.638 520.629C401.74 520.482 401.802 520.329 401.825 520.17C401.836 520.136 401.842 520.085 401.842 520.017C401.797 520.028 401.757 520.028 401.723 520.017C401.689 520.017 401.661 520.017 401.638 520.017C401.343 519.96 401.111 519.836 400.941 519.643C400.771 519.439 400.686 519.184 400.686 518.878C400.686 518.527 400.799 518.243 401.026 518.028C401.253 517.801 401.564 517.688 401.961 517.688C402.403 517.688 402.754 517.835 403.015 518.13C403.276 518.413 403.406 518.81 403.406 519.32C403.406 519.796 403.332 520.215 403.185 520.578C403.038 520.941 402.851 521.252 402.624 521.513C402.397 521.774 402.137 521.983 401.842 522.142C401.547 522.312 401.258 522.437 400.975 522.516L400.482 521.496ZM404.137 508.1H413.232V509.443L407.724 520H405.633L410.92 510.038H404.137V508.1Z" fill="white"/>
<rect x="64" y="29" width="72" height="44" fill="#BFCED4"/>
<path d="M90.7507 45.1H99.8457V46.443L94.3377 57H92.2467L97.5337 47.038H90.7507V45.1ZM99.2649 58.496C99.4009 58.462 99.5425 58.3997 99.6899 58.309C99.8372 58.2297 99.9732 58.1333 100.098 58.02C100.223 57.9067 100.33 57.7763 100.421 57.629C100.523 57.4817 100.585 57.3287 100.608 57.17C100.619 57.136 100.625 57.085 100.625 57.017C100.58 57.0283 100.54 57.0283 100.506 57.017C100.472 57.017 100.444 57.017 100.421 57.017C100.126 56.9603 99.8939 56.8357 99.7239 56.643C99.5539 56.439 99.4689 56.184 99.4689 55.878C99.4689 55.5267 99.5822 55.2433 99.8089 55.028C100.036 54.8013 100.347 54.688 100.744 54.688C101.186 54.688 101.537 54.8353 101.798 55.13C102.059 55.4133 102.189 55.81 102.189 56.32C102.189 56.796 102.115 57.2153 101.968 57.578C101.821 57.9407 101.634 58.2523 101.407 58.513C101.18 58.7737 100.92 58.9833 100.625 59.142C100.33 59.312 100.041 59.4367 99.7579 59.516L99.2649 58.496ZM106.643 45.066H108.02V57H106.116V47.446L103.481 48.636L102.733 46.987L106.643 45.066Z" fill="#222429"/>
<rect x="360" y="29" width="72" height="17" fill="#BFCED4"/>
<path d="M384.271 34.585C384.384 34.041 384.577 33.5423 384.849 33.089C385.132 32.6357 385.478 32.2503 385.886 31.933C386.294 31.6043 386.758 31.3493 387.28 31.168C387.812 30.9867 388.39 30.896 389.014 30.896C389.671 30.896 390.26 30.9923 390.782 31.185C391.303 31.3663 391.739 31.6213 392.091 31.95C392.442 32.2787 392.708 32.681 392.89 33.157C393.082 33.6217 393.179 34.1317 393.179 34.687C393.179 35.6957 392.81 36.6477 392.074 37.543C391.348 38.427 390.209 39.362 388.657 40.348L387.535 41.062H393.502V43H384.135V41.419L386.294 39.991C387.234 39.3677 388.016 38.8237 388.64 38.359C389.274 37.883 389.779 37.4523 390.153 37.067C390.527 36.6817 390.787 36.3133 390.935 35.962C391.093 35.6107 391.173 35.2423 391.173 34.857C391.173 34.5057 391.11 34.1997 390.986 33.939C390.861 33.6783 390.691 33.4687 390.476 33.31C390.272 33.1513 390.028 33.0323 389.745 32.953C389.473 32.8737 389.184 32.834 388.878 32.834C388.436 32.834 388.05 32.902 387.722 33.038C387.393 33.174 387.11 33.3553 386.872 33.582C386.645 33.7973 386.458 34.0467 386.311 34.33C386.163 34.602 386.05 34.8853 385.971 35.18L384.271 34.585ZM394.302 44.496C394.438 44.462 394.58 44.3997 394.727 44.309C394.874 44.2297 395.01 44.1333 395.135 44.02C395.26 43.9067 395.367 43.7763 395.458 43.629C395.56 43.4817 395.622 43.3287 395.645 43.17C395.656 43.136 395.662 43.085 395.662 43.017C395.617 43.0283 395.577 43.0283 395.543 43.017C395.509 43.017 395.481 43.017 395.458 43.017C395.163 42.9603 394.931 42.8357 394.761 42.643C394.591 42.439 394.506 42.184 394.506 41.878C394.506 41.5267 394.619 41.2433 394.846 41.028C395.073 40.8013 395.384 40.688 395.781 40.688C396.223 40.688 396.574 40.8353 396.835 41.13C397.096 41.4133 397.226 41.81 397.226 42.32C397.226 42.796 397.152 43.2153 397.005 43.578C396.858 43.9407 396.671 44.2523 396.444 44.513C396.217 44.7737 395.957 44.9833 395.662 45.142C395.367 45.312 395.078 45.4367 394.795 45.516L394.302 44.496ZM399.504 31.1H407.307V33.038H401.17L400.898 35.588C401.091 35.4407 401.397 35.316 401.816 35.214C402.247 35.112 402.74 35.061 403.295 35.061C404.021 35.061 404.667 35.163 405.233 35.367C405.8 35.5597 406.276 35.8373 406.661 36.2C407.047 36.5513 407.336 36.9707 407.528 37.458C407.732 37.9453 407.834 38.478 407.834 39.056C407.834 39.668 407.715 40.229 407.477 40.739C407.239 41.249 406.911 41.691 406.491 42.065C406.083 42.4277 405.596 42.711 405.029 42.915C404.463 43.1077 403.851 43.204 403.193 43.204C402.026 43.204 401.012 42.966 400.15 42.49C399.289 42.014 398.626 41.2887 398.161 40.314L399.895 39.413C400.156 39.957 400.553 40.4047 401.085 40.756C401.618 41.096 402.287 41.266 403.091 41.266C404.009 41.266 404.695 41.0677 405.148 40.671C405.602 40.263 405.828 39.7303 405.828 39.073C405.828 38.3703 405.568 37.8263 405.046 37.441C404.536 37.0443 403.856 36.846 403.006 36.846C402.372 36.846 401.845 36.931 401.425 37.101C401.017 37.271 400.632 37.492 400.269 37.764L398.841 37.169L399.504 31.1Z" fill="#222429"/>
<rect x="64" y="73" width="72" height="180" fill="#4B5366"/>
<path d="M82.7299 160.585C82.8432 160.041 83.0359 159.542 83.3079 159.089C83.5912 158.636 83.9369 158.25 84.3449 157.933C84.7529 157.604 85.2175 157.349 85.7389 157.168C86.2715 156.987 86.8495 156.896 87.4729 156.896C88.1302 156.896 88.7195 156.992 89.2409 157.185C89.7622 157.366 90.1985 157.621 90.5499 157.95C90.9012 158.279 91.1675 158.681 91.3489 159.157C91.5415 159.622 91.6379 160.132 91.6379 160.687C91.6379 161.696 91.2695 162.648 90.5329 163.543C89.8075 164.427 88.6685 165.362 87.1159 166.348L85.9939 167.062H91.9609V169H82.5939V167.419L84.7529 165.991C85.6935 165.368 86.4755 164.824 87.0989 164.359C87.7335 163.883 88.2379 163.452 88.6119 163.067C88.9859 162.682 89.2465 162.313 89.3939 161.962C89.5525 161.611 89.6319 161.242 89.6319 160.857C89.6319 160.506 89.5695 160.2 89.4449 159.939C89.3202 159.678 89.1502 159.469 88.9349 159.31C88.7309 159.151 88.4872 159.032 88.2039 158.953C87.9319 158.874 87.6429 158.834 87.3369 158.834C86.8949 158.834 86.5095 158.902 86.1809 159.038C85.8522 159.174 85.5689 159.355 85.3309 159.582C85.1042 159.797 84.9172 160.047 84.7699 160.33C84.6225 160.602 84.5092 160.885 84.4299 161.18L82.7299 160.585ZM97.6231 169.204C97.1584 169.204 96.7051 169.153 96.2631 169.051C95.8324 168.96 95.4244 168.83 95.0391 168.66C94.6537 168.479 94.3024 168.263 93.9851 168.014C93.6677 167.765 93.4014 167.487 93.1861 167.181L94.4951 165.923C94.8464 166.342 95.3054 166.671 95.8721 166.909C96.4501 167.147 97.0791 167.266 97.7591 167.266C98.2577 167.266 98.7111 167.181 99.1191 167.011C99.5384 166.83 99.8954 166.58 100.19 166.263C100.485 165.946 100.711 165.566 100.87 165.124C101.04 164.682 101.125 164.195 101.125 163.662V163.39C100.853 163.945 100.411 164.41 99.7991 164.784C99.1871 165.147 98.4051 165.328 97.4531 165.328C96.7731 165.328 96.1497 165.237 95.5831 165.056C95.0277 164.863 94.5461 164.591 94.1381 164.24C93.7414 163.889 93.4297 163.464 93.2031 162.965C92.9764 162.466 92.8631 161.905 92.8631 161.282C92.8631 160.625 92.9821 160.03 93.2201 159.497C93.4581 158.953 93.7981 158.488 94.2401 158.103C94.6821 157.718 95.2147 157.423 95.8381 157.219C96.4614 157.004 97.1527 156.896 97.9121 156.896C98.6941 156.896 99.4024 157.026 100.037 157.287C100.683 157.548 101.227 157.933 101.669 158.443C102.122 158.953 102.474 159.582 102.723 160.33C102.972 161.078 103.097 161.934 103.097 162.897C103.097 163.917 102.967 164.824 102.706 165.617C102.445 166.399 102.077 167.056 101.601 167.589C101.125 168.122 100.547 168.524 99.8671 168.796C99.1984 169.068 98.4504 169.204 97.6231 169.204ZM97.7761 163.526C98.6487 163.526 99.3457 163.316 99.8671 162.897C100.388 162.478 100.649 161.917 100.649 161.214C100.649 160.489 100.4 159.911 99.9011 159.48C99.4024 159.049 98.7281 158.834 97.8781 158.834C96.9374 158.834 96.2007 159.044 95.6681 159.463C95.1354 159.882 94.8691 160.46 94.8691 161.197C94.8691 161.922 95.1241 162.495 95.6341 162.914C96.1554 163.322 96.8694 163.526 97.7761 163.526ZM103.959 170.496C104.095 170.462 104.237 170.4 104.384 170.309C104.531 170.23 104.667 170.133 104.792 170.02C104.917 169.907 105.024 169.776 105.115 169.629C105.217 169.482 105.279 169.329 105.302 169.17C105.313 169.136 105.319 169.085 105.319 169.017C105.274 169.028 105.234 169.028 105.2 169.017C105.166 169.017 105.138 169.017 105.115 169.017C104.82 168.96 104.588 168.836 104.418 168.643C104.248 168.439 104.163 168.184 104.163 167.878C104.163 167.527 104.276 167.243 104.503 167.028C104.73 166.801 105.041 166.688 105.438 166.688C105.88 166.688 106.231 166.835 106.492 167.13C106.753 167.413 106.883 167.81 106.883 168.32C106.883 168.796 106.809 169.215 106.662 169.578C106.515 169.941 106.328 170.252 106.101 170.513C105.874 170.774 105.614 170.983 105.319 171.142C105.024 171.312 104.735 171.437 104.452 171.516L103.959 170.496ZM107.904 159.99C108.062 159.548 108.283 159.14 108.567 158.766C108.85 158.381 109.19 158.052 109.587 157.78C109.995 157.497 110.465 157.281 110.998 157.134C111.53 156.975 112.131 156.896 112.8 156.896C113.389 156.896 113.939 156.97 114.449 157.117C114.959 157.264 115.395 157.474 115.758 157.746C116.132 158.007 116.421 158.33 116.625 158.715C116.84 159.1 116.948 159.531 116.948 160.007C116.948 160.653 116.772 161.208 116.421 161.673C116.081 162.126 115.605 162.461 114.993 162.676C115.287 162.733 115.571 162.829 115.843 162.965C116.115 163.09 116.358 163.265 116.574 163.492C116.789 163.719 116.959 163.996 117.084 164.325C117.208 164.654 117.271 165.033 117.271 165.464C117.271 166.042 117.157 166.563 116.931 167.028C116.704 167.493 116.392 167.889 115.996 168.218C115.599 168.535 115.123 168.779 114.568 168.949C114.024 169.119 113.429 169.204 112.783 169.204C111.479 169.204 110.38 168.932 109.485 168.388C108.601 167.844 107.983 167.039 107.632 165.974L109.417 165.209C109.53 165.504 109.677 165.781 109.859 166.042C110.051 166.303 110.278 166.535 110.539 166.739C110.811 166.932 111.128 167.085 111.491 167.198C111.853 167.311 112.267 167.368 112.732 167.368C113.559 167.368 114.188 167.204 114.619 166.875C115.049 166.546 115.265 166.082 115.265 165.481C115.265 165.164 115.197 164.897 115.061 164.682C114.936 164.467 114.755 164.297 114.517 164.172C114.29 164.036 114.012 163.94 113.684 163.883C113.366 163.826 113.015 163.798 112.63 163.798H111.083V162.03H112.358C113.208 162.03 113.848 161.871 114.279 161.554C114.721 161.225 114.942 160.823 114.942 160.347C114.942 159.871 114.738 159.503 114.33 159.242C113.933 158.97 113.361 158.834 112.613 158.834C112.182 158.834 111.797 158.891 111.457 159.004C111.128 159.106 110.839 159.248 110.59 159.429C110.352 159.61 110.142 159.814 109.961 160.041C109.791 160.256 109.655 160.483 109.553 160.721L107.904 159.99Z" fill="white"/>
<rect x="212" y="29" width="72" height="26" fill="#BFCED4"/>
<path d="M242.368 45.79H235.381V44.447L242.64 36.083H244.272V43.971H246.312V45.79H244.272V48H242.368V45.79ZM242.368 43.971V39.126L237.965 43.971H242.368ZM246.866 49.496C247.002 49.462 247.144 49.3997 247.291 49.309C247.439 49.2297 247.575 49.1333 247.699 49.02C247.824 48.9067 247.932 48.7763 248.022 48.629C248.124 48.4817 248.187 48.3287 248.209 48.17C248.221 48.136 248.226 48.085 248.226 48.017C248.181 48.0283 248.141 48.0283 248.107 48.017C248.073 48.017 248.045 48.017 248.022 48.017C247.728 47.9603 247.495 47.8357 247.325 47.643C247.155 47.439 247.07 47.184 247.07 46.878C247.07 46.5267 247.184 46.2433 247.41 46.028C247.637 45.8013 247.949 45.688 248.345 45.688C248.787 45.688 249.139 45.8353 249.399 46.13C249.66 46.4133 249.79 46.81 249.79 47.32C249.79 47.796 249.717 48.2153 249.569 48.578C249.422 48.9407 249.235 49.2523 249.008 49.513C248.782 49.7737 248.521 49.9833 248.226 50.142C247.932 50.312 247.643 50.4367 247.359 50.516L246.866 49.496ZM250.811 38.99C250.97 38.548 251.191 38.14 251.474 37.766C251.757 37.3807 252.097 37.052 252.494 36.78C252.902 36.4967 253.372 36.2813 253.905 36.134C254.438 35.9753 255.038 35.896 255.707 35.896C256.296 35.896 256.846 35.9697 257.356 36.117C257.866 36.2643 258.302 36.474 258.665 36.746C259.039 37.0067 259.328 37.3297 259.532 37.715C259.747 38.1003 259.855 38.531 259.855 39.007C259.855 39.653 259.679 40.2083 259.328 40.673C258.988 41.1263 258.512 41.4607 257.9 41.676C258.195 41.7327 258.478 41.829 258.75 41.965C259.022 42.0897 259.266 42.2653 259.481 42.492C259.696 42.7187 259.866 42.9963 259.991 43.325C260.116 43.6537 260.178 44.0333 260.178 44.464C260.178 45.042 260.065 45.5633 259.838 46.028C259.611 46.4927 259.3 46.8893 258.903 47.218C258.506 47.5353 258.03 47.779 257.475 47.949C256.931 48.119 256.336 48.204 255.69 48.204C254.387 48.204 253.287 47.932 252.392 47.388C251.508 46.844 250.89 46.0393 250.539 44.974L252.324 44.209C252.437 44.5037 252.585 44.7813 252.766 45.042C252.959 45.3027 253.185 45.535 253.446 45.739C253.718 45.9317 254.035 46.0847 254.398 46.198C254.761 46.3113 255.174 46.368 255.639 46.368C256.466 46.368 257.095 46.2037 257.526 45.875C257.957 45.5463 258.172 45.0817 258.172 44.481C258.172 44.1637 258.104 43.8973 257.968 43.682C257.843 43.4667 257.662 43.2967 257.424 43.172C257.197 43.036 256.92 42.9397 256.591 42.883C256.274 42.8263 255.922 42.798 255.537 42.798H253.99V41.03H255.265C256.115 41.03 256.755 40.8713 257.186 40.554C257.628 40.2253 257.849 39.823 257.849 39.347C257.849 38.871 257.645 38.5027 257.237 38.242C256.84 37.97 256.268 37.834 255.52 37.834C255.089 37.834 254.704 37.8907 254.364 38.004C254.035 38.106 253.746 38.2477 253.497 38.429C253.259 38.6103 253.049 38.8143 252.868 39.041C252.698 39.2563 252.562 39.483 252.46 39.721L250.811 38.99Z" fill="#222429"/>
<rect x="212" y="55" width="72" height="101" fill="#4B5366"/>
<path d="M235.397 99.066H236.774V111H234.87V101.446L232.235 102.636L231.487 100.987L235.397 99.066ZM244.004 111.204C243.199 111.204 242.468 111.079 241.811 110.83C241.154 110.569 240.587 110.19 240.111 109.691C239.646 109.192 239.284 108.575 239.023 107.838C238.774 107.09 238.649 106.229 238.649 105.254C238.649 104.2 238.785 103.276 239.057 102.483C239.34 101.69 239.726 101.027 240.213 100.494C240.7 99.9613 241.273 99.5647 241.93 99.304C242.599 99.032 243.318 98.896 244.089 98.896C245.12 98.896 246.01 99.1 246.758 99.508C247.506 99.916 248.067 100.477 248.441 101.191L247.115 102.296C246.458 101.321 245.438 100.834 244.055 100.834C242.956 100.834 242.106 101.191 241.505 101.905C240.916 102.619 240.61 103.577 240.587 104.778V104.931C240.882 104.319 241.363 103.832 242.032 103.469C242.712 103.106 243.471 102.925 244.31 102.925C245.001 102.925 245.625 103.021 246.18 103.214C246.747 103.407 247.228 103.679 247.625 104.03C248.022 104.37 248.322 104.789 248.526 105.288C248.741 105.787 248.849 106.342 248.849 106.954C248.849 107.589 248.73 108.167 248.492 108.688C248.254 109.209 247.92 109.657 247.489 110.031C247.058 110.405 246.543 110.694 245.942 110.898C245.353 111.102 244.707 111.204 244.004 111.204ZM243.936 109.266C244.82 109.266 245.523 109.068 246.044 108.671C246.577 108.274 246.843 107.719 246.843 107.005C246.843 106.268 246.588 105.73 246.078 105.39C245.579 105.039 244.922 104.863 244.106 104.863C243.143 104.863 242.406 105.044 241.896 105.407C241.397 105.77 241.148 106.28 241.148 106.937C241.148 107.617 241.386 108.178 241.862 108.62C242.349 109.051 243.041 109.266 243.936 109.266ZM249.627 112.496C249.763 112.462 249.904 112.4 250.052 112.309C250.199 112.23 250.335 112.133 250.46 112.02C250.584 111.907 250.692 111.776 250.783 111.629C250.885 111.482 250.947 111.329 250.97 111.17C250.981 111.136 250.987 111.085 250.987 111.017C250.941 111.028 250.902 111.028 250.868 111.017C250.834 111.017 250.805 111.017 250.783 111.017C250.488 110.96 250.256 110.836 250.086 110.643C249.916 110.439 249.831 110.184 249.831 109.878C249.831 109.527 249.944 109.243 250.171 109.028C250.397 108.801 250.709 108.688 251.106 108.688C251.548 108.688 251.899 108.835 252.16 109.13C252.42 109.413 252.551 109.81 252.551 110.32C252.551 110.796 252.477 111.215 252.33 111.578C252.182 111.941 251.995 112.252 251.769 112.513C251.542 112.774 251.281 112.983 250.987 113.142C250.692 113.312 250.403 113.437 250.12 113.516L249.627 112.496ZM260.269 108.79H253.282V107.447L260.541 99.083H262.173V106.971H264.213V108.79H262.173V111H260.269V108.79ZM260.269 106.971V102.126L255.866 106.971H260.269Z" fill="white"/>
<rect x="360" y="46" width="72" height="71" fill="#4B5366"/>
<path d="M386.693 75.066H388.07V87H386.166V77.446L383.531 78.636L382.783 76.987L386.693 75.066ZM393.226 75.066H394.603V87H392.699V77.446L390.064 78.636L389.316 76.987L393.226 75.066ZM396.274 88.496C396.41 88.462 396.551 88.3997 396.699 88.309C396.846 88.2297 396.982 88.1333 397.107 88.02C397.231 87.9067 397.339 87.7763 397.43 87.629C397.532 87.4817 397.594 87.3287 397.617 87.17C397.628 87.136 397.634 87.085 397.634 87.017C397.588 87.0283 397.549 87.0283 397.515 87.017C397.481 87.017 397.452 87.017 397.43 87.017C397.135 86.9603 396.903 86.8357 396.733 86.643C396.563 86.439 396.478 86.184 396.478 85.878C396.478 85.5267 396.591 85.2433 396.818 85.028C397.044 84.8013 397.356 84.688 397.753 84.688C398.195 84.688 398.546 84.8353 398.807 85.13C399.067 85.4133 399.198 85.81 399.198 86.32C399.198 86.796 399.124 87.2153 398.977 87.578C398.829 87.9407 398.642 88.2523 398.416 88.513C398.189 88.7737 397.928 88.9833 397.634 89.142C397.339 89.312 397.05 89.4367 396.767 89.516L396.274 88.496ZM399.929 75.1H409.024V76.443L403.516 87H401.425L406.712 77.038H399.929V75.1Z" fill="white"/>
<path d="M53.367 4.47H54.582V15H52.902V6.57L50.577 7.62L49.917 6.165L53.367 4.47ZM57.2114 4.5H64.0964V6.21H58.6814L58.4414 8.46C58.6114 8.33 58.8814 8.22 59.2514 8.13C59.6314 8.04 60.0664 7.995 60.5564 7.995C61.1964 7.995 61.7664 8.085 62.2664 8.265C62.7664 8.435 63.1864 8.68 63.5264 9C63.8664 9.31 64.1214 9.68 64.2914 10.11C64.4714 10.54 64.5614 11.01 64.5614 11.52C64.5614 12.06 64.4564 12.555 64.2464 13.005C64.0364 13.455 63.7464 13.845 63.3764 14.175C63.0164 14.495 62.5864 14.745 62.0864 14.925C61.5864 15.095 61.0464 15.18 60.4664 15.18C59.4364 15.18 58.5414 14.97 57.7814 14.55C57.0214 14.13 56.4364 13.49 56.0264 12.63L57.5564 11.835C57.7864 12.315 58.1364 12.71 58.6064 13.02C59.0764 13.32 59.6664 13.47 60.3764 13.47C61.1864 13.47 61.7914 13.295 62.1914 12.945C62.5914 12.585 62.7914 12.115 62.7914 11.535C62.7914 10.915 62.5614 10.435 62.1014 10.095C61.6514 9.745 61.0514 9.57 60.3014 9.57C59.7414 9.57 59.2764 9.645 58.9064 9.795C58.5464 9.945 58.2064 10.14 57.8864 10.38L56.6264 9.855L57.2114 4.5ZM66.4036 4.5H73.2886V6.21H67.8736L67.6336 8.46C67.8036 8.33 68.0736 8.22 68.4436 8.13C68.8236 8.04 69.2586 7.995 69.7486 7.995C70.3886 7.995 70.9586 8.085 71.4586 8.265C71.9586 8.435 72.3786 8.68 72.7186 9C73.0586 9.31 73.3136 9.68 73.4836 10.11C73.6636 10.54 73.7536 11.01 73.7536 11.52C73.7536 12.06 73.6486 12.555 73.4386 13.005C73.2286 13.455 72.9386 13.845 72.5686 14.175C72.2086 14.495 71.7786 14.745 71.2786 14.925C70.7786 15.095 70.2386 15.18 69.6586 15.18C68.6286 15.18 67.7336 14.97 66.9736 14.55C66.2136 14.13 65.6286 13.49 65.2186 12.63L66.7486 11.835C66.9786 12.315 67.3286 12.71 67.7986 13.02C68.2686 13.32 68.8586 13.47 69.5686 13.47C70.3786 13.47 70.9836 13.295 71.3836 12.945C71.7836 12.585 71.9836 12.115 71.9836 11.535C71.9836 10.915 71.7536 10.435 71.2936 10.095C70.8436 9.745 70.2436 9.57 69.4936 9.57C68.9336 9.57 68.4686 9.645 68.0986 9.795C67.7386 9.945 67.3986 10.14 67.0786 10.38L65.8186 9.855L66.4036 4.5ZM78.7988 7.2H81.2888L83.2538 12.405L85.1588 7.2H87.5588V15H85.8788V9.27L83.7038 15H82.7588L80.4788 9.255V15H78.7988V7.2ZM94.6329 8.73H91.8729V9.15C91.8729 11.23 91.6579 12.755 91.2279 13.725C90.7979 14.695 90.0979 15.18 89.1279 15.18C89.0479 15.18 88.9429 15.175 88.8129 15.165C88.6929 15.165 88.6079 15.155 88.5579 15.135V13.545C88.5879 13.555 88.6579 13.56 88.7679 13.56C89.0379 13.56 89.2629 13.48 89.4429 13.32C89.6329 13.15 89.7879 12.89 89.9079 12.54C90.0279 12.18 90.1129 11.72 90.1629 11.16C90.2229 10.6 90.2529 9.93 90.2529 9.15V7.2H96.3129V15H94.6329V8.73ZM102.664 15.18C102.004 15.18 101.449 15.065 100.999 14.835C100.549 14.595 100.194 14.295 99.9336 13.935V18H98.2536V7.2H99.9336V8.43C100.184 8.01 100.544 7.67 101.014 7.41C101.494 7.15 102.064 7.02 102.724 7.02C103.264 7.02 103.764 7.115 104.224 7.305C104.684 7.485 105.079 7.75 105.409 8.1C105.749 8.44 106.009 8.855 106.189 9.345C106.379 9.835 106.474 10.39 106.474 11.01C106.474 11.64 106.379 12.215 106.189 12.735C105.999 13.245 105.734 13.68 105.394 14.04C105.064 14.4 104.664 14.68 104.194 14.88C103.724 15.08 103.214 15.18 102.664 15.18ZM102.349 13.65C103.039 13.65 103.604 13.425 104.044 12.975C104.484 12.515 104.704 11.88 104.704 11.07C104.704 10.67 104.644 10.315 104.524 10.005C104.404 9.695 104.239 9.435 104.029 9.225C103.819 9.005 103.569 8.84 103.279 8.73C102.989 8.61 102.674 8.55 102.334 8.55C101.614 8.55 101.034 8.765 100.594 9.195C100.154 9.625 99.9336 10.22 99.9336 10.98V11.22C99.9336 11.61 99.9936 11.955 100.114 12.255C100.244 12.555 100.414 12.81 100.624 13.02C100.844 13.23 101.099 13.39 101.389 13.5C101.689 13.6 102.009 13.65 102.349 13.65ZM106.735 13.47H107.605C108.245 12.36 108.565 10.87 108.565 9V7.2H114.505V13.47H115.66V16.74H114.07V15H108.325V16.74H106.735V13.47ZM110.095 9C110.095 9.44 110.075 9.875 110.035 10.305C110.005 10.735 109.955 11.145 109.885 11.535C109.815 11.915 109.73 12.275 109.63 12.615C109.54 12.945 109.435 13.23 109.315 13.47H112.825V8.73H110.095V9ZM124.849 15.18C124.189 15.18 123.634 15.065 123.184 14.835C122.734 14.595 122.379 14.295 122.119 13.935V18H120.439V7.2H122.119V8.43C122.369 8.01 122.729 7.67 123.199 7.41C123.679 7.15 124.249 7.02 124.909 7.02C125.449 7.02 125.949 7.115 126.409 7.305C126.869 7.485 127.264 7.75 127.594 8.1C127.934 8.44 128.194 8.855 128.374 9.345C128.564 9.835 128.659 10.39 128.659 11.01C128.659 11.64 128.564 12.215 128.374 12.735C128.184 13.245 127.919 13.68 127.579 14.04C127.249 14.4 126.849 14.68 126.379 14.88C125.909 15.08 125.399 15.18 124.849 15.18ZM124.534 13.65C125.224 13.65 125.789 13.425 126.229 12.975C126.669 12.515 126.889 11.88 126.889 11.07C126.889 10.67 126.829 10.315 126.709 10.005C126.589 9.695 126.424 9.435 126.214 9.225C126.004 9.005 125.754 8.84 125.464 8.73C125.174 8.61 124.859 8.55 124.519 8.55C123.799 8.55 123.219 8.765 122.779 9.195C122.339 9.625 122.119 10.22 122.119 10.98V11.22C122.119 11.61 122.179 11.955 122.299 12.255C122.429 12.555 122.599 12.81 122.809 13.02C123.029 13.23 123.284 13.39 123.574 13.5C123.874 13.6 124.194 13.65 124.534 13.65ZM132.28 14.82L128.86 7.2H130.825L133.15 12.585L135.145 7.2H136.945L132.76 18H131.005L132.28 14.82ZM141.785 15.18C140.445 15.18 139.405 14.755 138.665 13.905C137.935 13.055 137.57 11.86 137.57 10.32C137.57 9.48 137.595 8.755 137.645 8.145C137.705 7.535 137.795 7.015 137.915 6.585C138.045 6.145 138.21 5.78 138.41 5.49C138.61 5.2 138.86 4.96 139.16 4.77C139.42 4.6 139.69 4.475 139.97 4.395C140.25 4.315 140.535 4.26 140.825 4.23C141.115 4.2 141.4 4.19 141.68 4.2C141.97 4.2 142.245 4.2 142.505 4.2C142.765 4.2 142.975 4.195 143.135 4.185C143.295 4.165 143.42 4.135 143.51 4.095C143.6 4.055 143.66 4.005 143.69 3.945C143.72 3.875 143.74 3.785 143.75 3.675H145.205C145.205 4.075 145.165 4.41 145.085 4.68C145.005 4.95 144.87 5.165 144.68 5.325C144.5 5.485 144.255 5.6 143.945 5.67C143.645 5.74 143.265 5.775 142.805 5.775C142.555 5.775 142.305 5.77 142.055 5.76C141.815 5.75 141.575 5.75 141.335 5.76C141.105 5.77 140.88 5.805 140.66 5.865C140.44 5.915 140.235 6 140.045 6.12C139.885 6.22 139.75 6.34 139.64 6.48C139.53 6.62 139.44 6.8 139.37 7.02C139.3 7.24 139.245 7.505 139.205 7.815C139.165 8.125 139.14 8.505 139.13 8.955C139.44 8.455 139.855 8.075 140.375 7.815C140.895 7.545 141.485 7.41 142.145 7.41C142.695 7.41 143.195 7.5 143.645 7.68C144.105 7.86 144.49 8.115 144.8 8.445C145.12 8.765 145.365 9.155 145.535 9.615C145.715 10.075 145.805 10.59 145.805 11.16C145.805 11.75 145.705 12.29 145.505 12.78C145.305 13.27 145.025 13.695 144.665 14.055C144.315 14.405 143.895 14.68 143.405 14.88C142.915 15.08 142.375 15.18 141.785 15.18ZM141.755 13.65C142.465 13.65 143.02 13.44 143.42 13.02C143.83 12.59 144.035 12 144.035 11.25C144.035 10.55 143.83 9.99 143.42 9.57C143.01 9.15 142.46 8.94 141.77 8.94C141.42 8.94 141.095 8.995 140.795 9.105C140.505 9.205 140.255 9.35 140.045 9.54C139.835 9.73 139.67 9.96 139.55 10.23C139.43 10.49 139.37 10.78 139.37 11.1C139.37 11.48 139.425 11.825 139.535 12.135C139.655 12.445 139.82 12.715 140.03 12.945C140.24 13.165 140.49 13.34 140.78 13.47C141.08 13.59 141.405 13.65 141.755 13.65ZM147.001 13.95C147.001 13.66 147.101 13.41 147.301 13.2C147.511 12.99 147.786 12.885 148.126 12.885C148.456 12.885 148.721 12.99 148.921 13.2C149.131 13.41 149.236 13.66 149.236 13.95C149.236 14.26 149.131 14.52 148.921 14.73C148.721 14.94 148.456 15.045 148.126 15.045C147.786 15.045 147.511 14.94 147.301 14.73C147.101 14.52 147.001 14.26 147.001 13.95Z" fill="#777F8C"/>
<path d="M196.381 7.05C196.521 6.66 196.716 6.3 196.966 5.97C197.216 5.63 197.516 5.34 197.866 5.1C198.226 4.85 198.641 4.66 199.111 4.53C199.581 4.39 200.111 4.32 200.701 4.32C201.221 4.32 201.706 4.385 202.156 4.515C202.606 4.645 202.991 4.83 203.311 5.07C203.641 5.3 203.896 5.585 204.076 5.925C204.266 6.265 204.361 6.645 204.361 7.065C204.361 7.635 204.206 8.125 203.896 8.535C203.596 8.935 203.176 9.23 202.636 9.42C202.896 9.47 203.146 9.555 203.386 9.675C203.626 9.785 203.841 9.94 204.031 10.14C204.221 10.34 204.371 10.585 204.481 10.875C204.591 11.165 204.646 11.5 204.646 11.88C204.646 12.39 204.546 12.85 204.346 13.26C204.146 13.67 203.871 14.02 203.521 14.31C203.171 14.59 202.751 14.805 202.261 14.955C201.781 15.105 201.256 15.18 200.686 15.18C199.536 15.18 198.566 14.94 197.776 14.46C196.996 13.98 196.451 13.27 196.141 12.33L197.716 11.655C197.816 11.915 197.946 12.16 198.106 12.39C198.276 12.62 198.476 12.825 198.706 13.005C198.946 13.175 199.226 13.31 199.546 13.41C199.866 13.51 200.231 13.56 200.641 13.56C201.371 13.56 201.926 13.415 202.306 13.125C202.686 12.835 202.876 12.425 202.876 11.895C202.876 11.615 202.816 11.38 202.696 11.19C202.586 11 202.426 10.85 202.216 10.74C202.016 10.62 201.771 10.535 201.481 10.485C201.201 10.435 200.891 10.41 200.551 10.41H199.186V8.85H200.311C201.061 8.85 201.626 8.71 202.006 8.43C202.396 8.14 202.591 7.785 202.591 7.365C202.591 6.945 202.411 6.62 202.051 6.39C201.701 6.15 201.196 6.03 200.536 6.03C200.156 6.03 199.816 6.08 199.516 6.18C199.226 6.27 198.971 6.395 198.751 6.555C198.541 6.715 198.356 6.895 198.196 7.095C198.046 7.285 197.926 7.485 197.836 7.695L196.381 7.05ZM210.316 8.88C210.936 8.88 211.446 8.75 211.846 8.49C212.256 8.22 212.461 7.85 212.461 7.38C212.461 6.9 212.266 6.53 211.876 6.27C211.496 6.01 210.891 5.88 210.061 5.88C209.271 5.88 208.676 6.01 208.276 6.27C207.886 6.53 207.691 6.9 207.691 7.38C207.691 7.81 207.881 8.17 208.261 8.46C208.651 8.74 209.186 8.88 209.866 8.88H210.316ZM209.926 10.35C209.116 10.35 208.486 10.505 208.036 10.815C207.586 11.115 207.361 11.49 207.361 11.94C207.361 12.44 207.586 12.845 208.036 13.155C208.486 13.465 209.166 13.62 210.076 13.62C210.986 13.62 211.661 13.475 212.101 13.185C212.551 12.885 212.776 12.48 212.776 11.97C212.776 11.46 212.556 11.065 212.116 10.785C211.686 10.495 211.076 10.35 210.286 10.35H209.926ZM210.091 15.18C208.661 15.18 207.551 14.905 206.761 14.355C205.981 13.805 205.591 13.055 205.591 12.105C205.591 11.525 205.761 11.01 206.101 10.56C206.451 10.1 206.926 9.765 207.526 9.555C206.976 9.345 206.571 9.03 206.311 8.61C206.051 8.19 205.921 7.75 205.921 7.29C205.921 6.85 206.011 6.45 206.191 6.09C206.381 5.72 206.651 5.405 207.001 5.145C207.351 4.885 207.786 4.685 208.306 4.545C208.826 4.395 209.416 4.32 210.076 4.32C210.756 4.32 211.356 4.395 211.876 4.545C212.396 4.685 212.831 4.885 213.181 5.145C213.531 5.405 213.791 5.72 213.961 6.09C214.141 6.45 214.231 6.85 214.231 7.29C214.231 7.78 214.096 8.21 213.826 8.58C213.556 8.95 213.171 9.255 212.671 9.495C213.351 9.725 213.831 10.06 214.111 10.5C214.401 10.93 214.546 11.445 214.546 12.045C214.546 12.535 214.441 12.975 214.231 13.365C214.031 13.755 213.741 14.085 213.361 14.355C212.981 14.625 212.511 14.83 211.951 14.97C211.401 15.11 210.781 15.18 210.091 15.18ZM215.352 7.05C215.492 6.66 215.687 6.3 215.937 5.97C216.187 5.63 216.487 5.34 216.837 5.1C217.197 4.85 217.612 4.66 218.082 4.53C218.552 4.39 219.082 4.32 219.672 4.32C220.192 4.32 220.677 4.385 221.127 4.515C221.577 4.645 221.962 4.83 222.282 5.07C222.612 5.3 222.867 5.585 223.047 5.925C223.237 6.265 223.332 6.645 223.332 7.065C223.332 7.635 223.177 8.125 222.867 8.535C222.567 8.935 222.147 9.23 221.607 9.42C221.867 9.47 222.117 9.555 222.357 9.675C222.597 9.785 222.812 9.94 223.002 10.14C223.192 10.34 223.342 10.585 223.452 10.875C223.562 11.165 223.617 11.5 223.617 11.88C223.617 12.39 223.517 12.85 223.317 13.26C223.117 13.67 222.842 14.02 222.492 14.31C222.142 14.59 221.722 14.805 221.232 14.955C220.752 15.105 220.227 15.18 219.657 15.18C218.507 15.18 217.537 14.94 216.747 14.46C215.967 13.98 215.422 13.27 215.112 12.33L216.687 11.655C216.787 11.915 216.917 12.16 217.077 12.39C217.247 12.62 217.447 12.825 217.677 13.005C217.917 13.175 218.197 13.31 218.517 13.41C218.837 13.51 219.202 13.56 219.612 13.56C220.342 13.56 220.897 13.415 221.277 13.125C221.657 12.835 221.847 12.425 221.847 11.895C221.847 11.615 221.787 11.38 221.667 11.19C221.557 11 221.397 10.85 221.187 10.74C220.987 10.62 220.742 10.535 220.452 10.485C220.172 10.435 219.862 10.41 219.522 10.41H218.157V8.85H219.282C220.032 8.85 220.597 8.71 220.977 8.43C221.367 8.14 221.562 7.785 221.562 7.365C221.562 6.945 221.382 6.62 221.022 6.39C220.672 6.15 220.167 6.03 219.507 6.03C219.127 6.03 218.787 6.08 218.487 6.18C218.197 6.27 217.942 6.395 217.722 6.555C217.512 6.715 217.327 6.895 217.167 7.095C217.017 7.285 216.897 7.485 216.807 7.695L215.352 7.05ZM228.754 7.2H231.244L233.209 12.405L235.114 7.2H237.514V15H235.834V9.27L233.659 15H232.714L230.434 9.255V15H228.754V7.2ZM244.588 8.73H241.828V9.15C241.828 11.23 241.613 12.755 241.183 13.725C240.753 14.695 240.053 15.18 239.083 15.18C239.003 15.18 238.898 15.175 238.768 15.165C238.648 15.165 238.563 15.155 238.513 15.135V13.545C238.543 13.555 238.613 13.56 238.723 13.56C238.993 13.56 239.218 13.48 239.398 13.32C239.588 13.15 239.743 12.89 239.863 12.54C239.983 12.18 240.068 11.72 240.118 11.16C240.178 10.6 240.208 9.93 240.208 9.15V7.2H246.268V15H244.588V8.73ZM252.619 15.18C251.959 15.18 251.404 15.065 250.954 14.835C250.504 14.595 250.149 14.295 249.889 13.935V18H248.209V7.2H249.889V8.43C250.139 8.01 250.499 7.67 250.969 7.41C251.449 7.15 252.019 7.02 252.679 7.02C253.219 7.02 253.719 7.115 254.179 7.305C254.639 7.485 255.034 7.75 255.364 8.1C255.704 8.44 255.964 8.855 256.144 9.345C256.334 9.835 256.429 10.39 256.429 11.01C256.429 11.64 256.334 12.215 256.144 12.735C255.954 13.245 255.689 13.68 255.349 14.04C255.019 14.4 254.619 14.68 254.149 14.88C253.679 15.08 253.169 15.18 252.619 15.18ZM252.304 13.65C252.994 13.65 253.559 13.425 253.999 12.975C254.439 12.515 254.659 11.88 254.659 11.07C254.659 10.67 254.599 10.315 254.479 10.005C254.359 9.695 254.194 9.435 253.984 9.225C253.774 9.005 253.524 8.84 253.234 8.73C252.944 8.61 252.629 8.55 252.289 8.55C251.569 8.55 250.989 8.765 250.549 9.195C250.109 9.625 249.889 10.22 249.889 10.98V11.22C249.889 11.61 249.949 11.955 250.069 12.255C250.199 12.555 250.369 12.81 250.579 13.02C250.799 13.23 251.054 13.39 251.344 13.5C251.644 13.6 251.964 13.65 252.304 13.65ZM256.69 13.47H257.56C258.2 12.36 258.52 10.87 258.52 9V7.2H264.46V13.47H265.615V16.74H264.025V15H258.28V16.74H256.69V13.47ZM260.05 9C260.05 9.44 260.03 9.875 259.99 10.305C259.96 10.735 259.91 11.145 259.84 11.535C259.77 11.915 259.685 12.275 259.585 12.615C259.495 12.945 259.39 13.23 259.27 13.47H262.78V8.73H260.05V9ZM274.805 15.18C274.145 15.18 273.59 15.065 273.14 14.835C272.69 14.595 272.335 14.295 272.075 13.935V18H270.395V7.2H272.075V8.43C272.325 8.01 272.685 7.67 273.155 7.41C273.635 7.15 274.205 7.02 274.865 7.02C275.405 7.02 275.905 7.115 276.365 7.305C276.825 7.485 277.22 7.75 277.55 8.1C277.89 8.44 278.15 8.855 278.33 9.345C278.52 9.835 278.615 10.39 278.615 11.01C278.615 11.64 278.52 12.215 278.33 12.735C278.14 13.245 277.875 13.68 277.535 14.04C277.205 14.4 276.805 14.68 276.335 14.88C275.865 15.08 275.355 15.18 274.805 15.18ZM274.49 13.65C275.18 13.65 275.745 13.425 276.185 12.975C276.625 12.515 276.845 11.88 276.845 11.07C276.845 10.67 276.785 10.315 276.665 10.005C276.545 9.695 276.38 9.435 276.17 9.225C275.96 9.005 275.71 8.84 275.42 8.73C275.13 8.61 274.815 8.55 274.475 8.55C273.755 8.55 273.175 8.765 272.735 9.195C272.295 9.625 272.075 10.22 272.075 10.98V11.22C272.075 11.61 272.135 11.955 272.255 12.255C272.385 12.555 272.555 12.81 272.765 13.02C272.985 13.23 273.24 13.39 273.53 13.5C273.83 13.6 274.15 13.65 274.49 13.65ZM282.235 14.82L278.815 7.2H280.78L283.105 12.585L285.1 7.2H286.9L282.715 18H280.96L282.235 14.82ZM291.741 15.18C290.401 15.18 289.361 14.755 288.621 13.905C287.891 13.055 287.526 11.86 287.526 10.32C287.526 9.48 287.551 8.755 287.601 8.145C287.661 7.535 287.751 7.015 287.871 6.585C288.001 6.145 288.166 5.78 288.366 5.49C288.566 5.2 288.816 4.96 289.116 4.77C289.376 4.6 289.646 4.475 289.926 4.395C290.206 4.315 290.491 4.26 290.781 4.23C291.071 4.2 291.356 4.19 291.636 4.2C291.926 4.2 292.201 4.2 292.461 4.2C292.721 4.2 292.931 4.195 293.091 4.185C293.251 4.165 293.376 4.135 293.466 4.095C293.556 4.055 293.616 4.005 293.646 3.945C293.676 3.875 293.696 3.785 293.706 3.675H295.161C295.161 4.075 295.121 4.41 295.041 4.68C294.961 4.95 294.826 5.165 294.636 5.325C294.456 5.485 294.211 5.6 293.901 5.67C293.601 5.74 293.221 5.775 292.761 5.775C292.511 5.775 292.261 5.77 292.011 5.76C291.771 5.75 291.531 5.75 291.291 5.76C291.061 5.77 290.836 5.805 290.616 5.865C290.396 5.915 290.191 6 290.001 6.12C289.841 6.22 289.706 6.34 289.596 6.48C289.486 6.62 289.396 6.8 289.326 7.02C289.256 7.24 289.201 7.505 289.161 7.815C289.121 8.125 289.096 8.505 289.086 8.955C289.396 8.455 289.811 8.075 290.331 7.815C290.851 7.545 291.441 7.41 292.101 7.41C292.651 7.41 293.151 7.5 293.601 7.68C294.061 7.86 294.446 8.115 294.756 8.445C295.076 8.765 295.321 9.155 295.491 9.615C295.671 10.075 295.761 10.59 295.761 11.16C295.761 11.75 295.661 12.29 295.461 12.78C295.261 13.27 294.981 13.695 294.621 14.055C294.271 14.405 293.851 14.68 293.361 14.88C292.871 15.08 292.331 15.18 291.741 15.18ZM291.711 13.65C292.421 13.65 292.976 13.44 293.376 13.02C293.786 12.59 293.991 12 293.991 11.25C293.991 10.55 293.786 9.99 293.376 9.57C292.966 9.15 292.416 8.94 291.726 8.94C291.376 8.94 291.051 8.995 290.751 9.105C290.461 9.205 290.211 9.35 290.001 9.54C289.791 9.73 289.626 9.96 289.506 10.23C289.386 10.49 289.326 10.78 289.326 11.1C289.326 11.48 289.381 11.825 289.491 12.135C289.611 12.445 289.776 12.715 289.986 12.945C290.196 13.165 290.446 13.34 290.736 13.47C291.036 13.59 291.361 13.65 291.711 13.65ZM296.956 13.95C296.956 13.66 297.056 13.41 297.256 13.2C297.466 12.99 297.741 12.885 298.081 12.885C298.411 12.885 298.676 12.99 298.876 13.2C299.086 13.41 299.191 13.66 299.191 13.95C299.191 14.26 299.086 14.52 298.876 14.73C298.676 14.94 298.411 15.045 298.081 15.045C297.741 15.045 297.466 14.94 297.256 14.73C297.056 14.52 296.956 14.26 296.956 13.95Z" fill="#777F8C"/>
<path d="M349.227 15.18C348.517 15.18 347.872 15.07 347.292 14.85C346.712 14.62 346.212 14.285 345.792 13.845C345.382 13.405 345.062 12.86 344.832 12.21C344.612 11.55 344.502 10.79 344.502 9.93C344.502 9 344.622 8.185 344.862 7.485C345.112 6.785 345.452 6.2 345.882 5.73C346.312 5.26 346.817 4.91 347.397 4.68C347.987 4.44 348.622 4.32 349.302 4.32C350.212 4.32 350.997 4.5 351.657 4.86C352.317 5.22 352.812 5.715 353.142 6.345L351.972 7.32C351.392 6.46 350.492 6.03 349.272 6.03C348.302 6.03 347.552 6.345 347.022 6.975C346.502 7.605 346.232 8.45 346.212 9.51V9.645C346.472 9.105 346.897 8.675 347.487 8.355C348.087 8.035 348.757 7.875 349.497 7.875C350.107 7.875 350.657 7.96 351.147 8.13C351.647 8.3 352.072 8.54 352.422 8.85C352.772 9.15 353.037 9.52 353.217 9.96C353.407 10.4 353.502 10.89 353.502 11.43C353.502 11.99 353.397 12.5 353.187 12.96C352.977 13.42 352.682 13.815 352.302 14.145C351.922 14.475 351.467 14.73 350.937 14.91C350.417 15.09 349.847 15.18 349.227 15.18ZM349.167 13.47C349.947 13.47 350.567 13.295 351.027 12.945C351.497 12.595 351.732 12.105 351.732 11.475C351.732 10.825 351.507 10.35 351.057 10.05C350.617 9.74 350.037 9.585 349.317 9.585C348.467 9.585 347.817 9.745 347.367 10.065C346.927 10.385 346.707 10.835 346.707 11.415C346.707 12.015 346.917 12.51 347.337 12.9C347.767 13.28 348.377 13.47 349.167 13.47ZM354.368 7.575C354.468 7.095 354.638 6.655 354.878 6.255C355.128 5.855 355.433 5.515 355.793 5.235C356.153 4.945 356.563 4.72 357.023 4.56C357.493 4.4 358.003 4.32 358.553 4.32C359.133 4.32 359.653 4.405 360.113 4.575C360.573 4.735 360.958 4.96 361.268 5.25C361.578 5.54 361.813 5.895 361.973 6.315C362.143 6.725 362.228 7.175 362.228 7.665C362.228 8.555 361.903 9.395 361.253 10.185C360.613 10.965 359.608 11.79 358.238 12.66L357.248 13.29H362.513V15H354.248V13.605L356.153 12.345C356.983 11.795 357.673 11.315 358.223 10.905C358.783 10.485 359.228 10.105 359.558 9.765C359.888 9.425 360.118 9.1 360.248 8.79C360.388 8.48 360.458 8.155 360.458 7.815C360.458 7.505 360.403 7.235 360.293 7.005C360.183 6.775 360.033 6.59 359.843 6.45C359.663 6.31 359.448 6.205 359.198 6.135C358.958 6.065 358.703 6.03 358.433 6.03C358.043 6.03 357.703 6.09 357.413 6.21C357.123 6.33 356.873 6.49 356.663 6.69C356.463 6.88 356.298 7.1 356.168 7.35C356.038 7.59 355.938 7.84 355.868 8.1L354.368 7.575ZM364.374 4.5H371.259V6.21H365.844L365.604 8.46C365.774 8.33 366.044 8.22 366.414 8.13C366.794 8.04 367.229 7.995 367.719 7.995C368.359 7.995 368.929 8.085 369.429 8.265C369.929 8.435 370.349 8.68 370.689 9C371.029 9.31 371.284 9.68 371.454 10.11C371.634 10.54 371.724 11.01 371.724 11.52C371.724 12.06 371.619 12.555 371.409 13.005C371.199 13.455 370.909 13.845 370.539 14.175C370.179 14.495 369.749 14.745 369.249 14.925C368.749 15.095 368.209 15.18 367.629 15.18C366.599 15.18 365.704 14.97 364.944 14.55C364.184 14.13 363.599 13.49 363.189 12.63L364.719 11.835C364.949 12.315 365.299 12.71 365.769 13.02C366.239 13.32 366.829 13.47 367.539 13.47C368.349 13.47 368.954 13.295 369.354 12.945C369.754 12.585 369.954 12.115 369.954 11.535C369.954 10.915 369.724 10.435 369.264 10.095C368.814 9.745 368.214 9.57 367.464 9.57C366.904 9.57 366.439 9.645 366.069 9.795C365.709 9.945 365.369 10.14 365.049 10.38L363.789 9.855L364.374 4.5ZM376.769 7.2H379.259L381.224 12.405L383.129 7.2H385.529V15H383.849V9.27L381.674 15H380.729L378.449 9.255V15H376.769V7.2ZM392.603 8.73H389.843V9.15C389.843 11.23 389.628 12.755 389.198 13.725C388.768 14.695 388.068 15.18 387.098 15.18C387.018 15.18 386.913 15.175 386.783 15.165C386.663 15.165 386.578 15.155 386.528 15.135V13.545C386.558 13.555 386.628 13.56 386.738 13.56C387.008 13.56 387.233 13.48 387.413 13.32C387.603 13.15 387.758 12.89 387.878 12.54C387.998 12.18 388.083 11.72 388.133 11.16C388.193 10.6 388.223 9.93 388.223 9.15V7.2H394.283V15H392.603V8.73ZM400.634 15.18C399.974 15.18 399.419 15.065 398.969 14.835C398.519 14.595 398.164 14.295 397.904 13.935V18H396.224V7.2H397.904V8.43C398.154 8.01 398.514 7.67 398.984 7.41C399.464 7.15 400.034 7.02 400.694 7.02C401.234 7.02 401.734 7.115 402.194 7.305C402.654 7.485 403.049 7.75 403.379 8.1C403.719 8.44 403.979 8.855 404.159 9.345C404.349 9.835 404.444 10.39 404.444 11.01C404.444 11.64 404.349 12.215 404.159 12.735C403.969 13.245 403.704 13.68 403.364 14.04C403.034 14.4 402.634 14.68 402.164 14.88C401.694 15.08 401.184 15.18 400.634 15.18ZM400.319 13.65C401.009 13.65 401.574 13.425 402.014 12.975C402.454 12.515 402.674 11.88 402.674 11.07C402.674 10.67 402.614 10.315 402.494 10.005C402.374 9.695 402.209 9.435 401.999 9.225C401.789 9.005 401.539 8.84 401.249 8.73C400.959 8.61 400.644 8.55 400.304 8.55C399.584 8.55 399.004 8.765 398.564 9.195C398.124 9.625 397.904 10.22 397.904 10.98V11.22C397.904 11.61 397.964 11.955 398.084 12.255C398.214 12.555 398.384 12.81 398.594 13.02C398.814 13.23 399.069 13.39 399.359 13.5C399.659 13.6 399.979 13.65 400.319 13.65ZM404.705 13.47H405.575C406.215 12.36 406.535 10.87 406.535 9V7.2H412.475V13.47H413.63V16.74H412.04V15H406.295V16.74H404.705V13.47ZM408.065 9C408.065 9.44 408.045 9.875 408.005 10.305C407.975 10.735 407.925 11.145 407.855 11.535C407.785 11.915 407.7 12.275 407.6 12.615C407.51 12.945 407.405 13.23 407.285 13.47H410.795V8.73H408.065V9ZM422.82 15.18C422.16 15.18 421.605 15.065 421.155 14.835C420.705 14.595 420.35 14.295 420.09 13.935V18H418.41V7.2H420.09V8.43C420.34 8.01 420.7 7.67 421.17 7.41C421.65 7.15 422.22 7.02 422.88 7.02C423.42 7.02 423.92 7.115 424.38 7.305C424.84 7.485 425.235 7.75 425.565 8.1C425.905 8.44 426.165 8.855 426.345 9.345C426.535 9.835 426.63 10.39 426.63 11.01C426.63 11.64 426.535 12.215 426.345 12.735C426.155 13.245 425.89 13.68 425.55 14.04C425.22 14.4 424.82 14.68 424.35 14.88C423.88 15.08 423.37 15.18 422.82 15.18ZM422.505 13.65C423.195 13.65 423.76 13.425 424.2 12.975C424.64 12.515 424.86 11.88 424.86 11.07C424.86 10.67 424.8 10.315 424.68 10.005C424.56 9.695 424.395 9.435 424.185 9.225C423.975 9.005 423.725 8.84 423.435 8.73C423.145 8.61 422.83 8.55 422.49 8.55C421.77 8.55 421.19 8.765 420.75 9.195C420.31 9.625 420.09 10.22 420.09 10.98V11.22C420.09 11.61 420.15 11.955 420.27 12.255C420.4 12.555 420.57 12.81 420.78 13.02C421 13.23 421.255 13.39 421.545 13.5C421.845 13.6 422.165 13.65 422.505 13.65ZM430.25 14.82L426.83 7.2H428.795L431.12 12.585L433.115 7.2H434.915L430.73 18H428.975L430.25 14.82ZM439.755 15.18C438.415 15.18 437.375 14.755 436.635 13.905C435.905 13.055 435.54 11.86 435.54 10.32C435.54 9.48 435.565 8.755 435.615 8.145C435.675 7.535 435.765 7.015 435.885 6.585C436.015 6.145 436.18 5.78 436.38 5.49C436.58 5.2 436.83 4.96 437.13 4.77C437.39 4.6 437.66 4.475 437.94 4.395C438.22 4.315 438.505 4.26 438.795 4.23C439.085 4.2 439.37 4.19 439.65 4.2C439.94 4.2 440.215 4.2 440.475 4.2C440.735 4.2 440.945 4.195 441.105 4.185C441.265 4.165 441.39 4.135 441.48 4.095C441.57 4.055 441.63 4.005 441.66 3.945C441.69 3.875 441.71 3.785 441.72 3.675H443.175C443.175 4.075 443.135 4.41 443.055 4.68C442.975 4.95 442.84 5.165 442.65 5.325C442.47 5.485 442.225 5.6 441.915 5.67C441.615 5.74 441.235 5.775 440.775 5.775C440.525 5.775 440.275 5.77 440.025 5.76C439.785 5.75 439.545 5.75 439.305 5.76C439.075 5.77 438.85 5.805 438.63 5.865C438.41 5.915 438.205 6 438.015 6.12C437.855 6.22 437.72 6.34 437.61 6.48C437.5 6.62 437.41 6.8 437.34 7.02C437.27 7.24 437.215 7.505 437.175 7.815C437.135 8.125 437.11 8.505 437.1 8.955C437.41 8.455 437.825 8.075 438.345 7.815C438.865 7.545 439.455 7.41 440.115 7.41C440.665 7.41 441.165 7.5 441.615 7.68C442.075 7.86 442.46 8.115 442.77 8.445C443.09 8.765 443.335 9.155 443.505 9.615C443.685 10.075 443.775 10.59 443.775 11.16C443.775 11.75 443.675 12.29 443.475 12.78C443.275 13.27 442.995 13.695 442.635 14.055C442.285 14.405 441.865 14.68 441.375 14.88C440.885 15.08 440.345 15.18 439.755 15.18ZM439.725 13.65C440.435 13.65 440.99 13.44 441.39 13.02C441.8 12.59 442.005 12 442.005 11.25C442.005 10.55 441.8 9.99 441.39 9.57C440.98 9.15 440.43 8.94 439.74 8.94C439.39 8.94 439.065 8.995 438.765 9.105C438.475 9.205 438.225 9.35 438.015 9.54C437.805 9.73 437.64 9.96 437.52 10.23C437.4 10.49 437.34 10.78 437.34 11.1C437.34 11.48 437.395 11.825 437.505 12.135C437.625 12.445 437.79 12.715 438 12.945C438.21 13.165 438.46 13.34 438.75 13.47C439.05 13.59 439.375 13.65 439.725 13.65ZM444.971 13.95C444.971 13.66 445.071 13.41 445.271 13.2C445.481 12.99 445.756 12.885 446.096 12.885C446.426 12.885 446.691 12.99 446.891 13.2C447.101 13.41 447.206 13.66 447.206 13.95C447.206 14.26 447.101 14.52 446.891 14.73C446.691 14.94 446.426 15.045 446.096 15.045C445.756 15.045 445.481 14.94 445.271 14.73C445.071 14.52 444.971 14.26 444.971 13.95Z" fill="#777F8C"/>
</svg>
