<svg viewBox="0 0 536 255" fill="none" xmlns="http://www.w3.org/2000/svg">
<line x1="1" y1="195.5" x2="536" y2="195.5" stroke="#CBCFD6"/>
<path d="M432.294 208.07C432.378 207.669 432.518 207.286 432.714 206.922C432.91 206.558 433.162 206.241 433.47 205.97C433.778 205.69 434.146 205.471 434.576 205.312C435.005 205.153 435.495 205.074 436.046 205.074C436.559 205.074 437.016 205.149 437.418 205.298C437.819 205.438 438.16 205.639 438.44 205.9C438.72 206.161 438.93 206.474 439.07 206.838C439.219 207.202 439.294 207.599 439.294 208.028C439.294 208.635 439.163 209.195 438.902 209.708C438.65 210.212 438.328 210.674 437.936 211.094C437.544 211.514 437.114 211.897 436.648 212.242C436.181 212.578 435.738 212.877 435.318 213.138L434.24 213.81H439.658V215H432.028V214.02L434.156 212.606C434.856 212.139 435.453 211.71 435.948 211.318C436.442 210.917 436.844 210.539 437.152 210.184C437.469 209.829 437.698 209.489 437.838 209.162C437.987 208.826 438.062 208.49 438.062 208.154C438.062 207.809 438.006 207.515 437.894 207.272C437.791 207.029 437.642 206.833 437.446 206.684C437.259 206.535 437.035 206.427 436.774 206.362C436.522 206.297 436.251 206.264 435.962 206.264C435.542 206.264 435.178 206.329 434.87 206.46C434.571 206.591 434.314 206.763 434.1 206.978C433.894 207.183 433.731 207.417 433.61 207.678C433.498 207.93 433.423 208.182 433.386 208.434L432.294 208.07ZM440.628 210.1C440.628 209.372 440.712 208.705 440.88 208.098C441.048 207.482 441.3 206.95 441.636 206.502C441.981 206.054 442.415 205.704 442.938 205.452C443.461 205.2 444.077 205.074 444.786 205.074C445.495 205.074 446.111 205.191 446.634 205.424C447.157 205.657 447.591 205.993 447.936 206.432C448.281 206.871 448.538 207.403 448.706 208.028C448.874 208.644 448.958 209.335 448.958 210.1C448.958 210.828 448.874 211.5 448.706 212.116C448.547 212.723 448.295 213.25 447.95 213.698C447.614 214.146 447.185 214.496 446.662 214.748C446.139 215 445.523 215.126 444.814 215.126C444.142 215.126 443.545 215 443.022 214.748C442.499 214.496 442.061 214.146 441.706 213.698C441.351 213.25 441.081 212.723 440.894 212.116C440.717 211.5 440.628 210.828 440.628 210.1ZM441.86 210.1C441.86 211.295 442.121 212.233 442.644 212.914C443.167 213.595 443.89 213.936 444.814 213.936C445.822 213.936 446.559 213.595 447.026 212.914C447.493 212.233 447.726 211.295 447.726 210.1C447.726 208.905 447.488 207.967 447.012 207.286C446.536 206.605 445.794 206.264 444.786 206.264C444.282 206.264 443.848 206.353 443.484 206.53C443.12 206.707 442.817 206.964 442.574 207.3C442.331 207.636 442.149 208.042 442.028 208.518C441.916 208.985 441.86 209.512 441.86 210.1ZM450.102 208.07C450.186 207.669 450.326 207.286 450.522 206.922C450.718 206.558 450.97 206.241 451.278 205.97C451.586 205.69 451.954 205.471 452.384 205.312C452.813 205.153 453.303 205.074 453.854 205.074C454.367 205.074 454.824 205.149 455.226 205.298C455.627 205.438 455.968 205.639 456.248 205.9C456.528 206.161 456.738 206.474 456.878 206.838C457.027 207.202 457.102 207.599 457.102 208.028C457.102 208.635 456.971 209.195 456.71 209.708C456.458 210.212 456.136 210.674 455.744 211.094C455.352 211.514 454.922 211.897 454.456 212.242C453.989 212.578 453.546 212.877 453.126 213.138L452.048 213.81H457.466V215H449.836V214.02L451.964 212.606C452.664 212.139 453.261 211.71 453.756 211.318C454.25 210.917 454.652 210.539 454.96 210.184C455.277 209.829 455.506 209.489 455.646 209.162C455.795 208.826 455.87 208.49 455.87 208.154C455.87 207.809 455.814 207.515 455.702 207.272C455.599 207.029 455.45 206.833 455.254 206.684C455.067 206.535 454.843 206.427 454.582 206.362C454.33 206.297 454.059 206.264 453.77 206.264C453.35 206.264 452.986 206.329 452.678 206.46C452.379 206.591 452.122 206.763 451.908 206.978C451.702 207.183 451.539 207.417 451.418 207.678C451.306 207.93 451.231 208.182 451.194 208.434L450.102 208.07ZM458.534 208.07C458.618 207.669 458.758 207.286 458.954 206.922C459.15 206.558 459.402 206.241 459.71 205.97C460.018 205.69 460.387 205.471 460.816 205.312C461.245 205.153 461.735 205.074 462.286 205.074C462.799 205.074 463.257 205.149 463.658 205.298C464.059 205.438 464.4 205.639 464.68 205.9C464.96 206.161 465.17 206.474 465.31 206.838C465.459 207.202 465.534 207.599 465.534 208.028C465.534 208.635 465.403 209.195 465.142 209.708C464.89 210.212 464.568 210.674 464.176 211.094C463.784 211.514 463.355 211.897 462.888 212.242C462.421 212.578 461.978 212.877 461.558 213.138L460.48 213.81H465.898V215H458.268V214.02L460.396 212.606C461.096 212.139 461.693 211.71 462.188 211.318C462.683 210.917 463.084 210.539 463.392 210.184C463.709 209.829 463.938 209.489 464.078 209.162C464.227 208.826 464.302 208.49 464.302 208.154C464.302 207.809 464.246 207.515 464.134 207.272C464.031 207.029 463.882 206.833 463.686 206.684C463.499 206.535 463.275 206.427 463.014 206.362C462.762 206.297 462.491 206.264 462.202 206.264C461.782 206.264 461.418 206.329 461.11 206.46C460.811 206.591 460.555 206.763 460.34 206.978C460.135 207.183 459.971 207.417 459.85 207.678C459.738 207.93 459.663 208.182 459.626 208.434L458.534 208.07Z" fill="#5FAF2D"/>
<rect x="424" y="24" width="50" height="171" fill="#5FAF2D"/>
<rect x="424" y="24" width="50" height="4" fill="#3D7917"/>
<path d="M430.926 3.032H431.895V15H430.467V4.851L427.39 6.262L426.846 4.987L430.926 3.032ZM439.452 8.217C439.838 8.217 440.195 8.17167 440.523 8.081C440.863 7.979 441.158 7.843 441.407 7.673C441.657 7.503 441.849 7.299 441.985 7.061C442.133 6.823 442.206 6.56233 442.206 6.279C442.206 5.667 441.951 5.20233 441.441 4.885C440.943 4.55633 440.178 4.392 439.146 4.392C438.149 4.392 437.395 4.55633 436.885 4.885C436.387 5.21367 436.137 5.67833 436.137 6.279C436.137 6.551 436.205 6.806 436.341 7.044C436.477 7.282 436.664 7.49167 436.902 7.673C437.152 7.843 437.446 7.979 437.786 8.081C438.138 8.17167 438.517 8.217 438.925 8.217H439.452ZM438.993 9.56C438.517 9.56 438.075 9.61667 437.667 9.73C437.271 9.832 436.931 9.97933 436.647 10.172C436.364 10.3533 436.143 10.5743 435.984 10.835C435.826 11.0843 435.746 11.3507 435.746 11.634C435.746 12.246 436.03 12.7447 436.596 13.13C437.174 13.5153 438.03 13.708 439.163 13.708C440.331 13.708 441.192 13.5267 441.747 13.164C442.303 12.79 442.58 12.2857 442.58 11.651C442.58 10.9823 442.291 10.4667 441.713 10.104C441.147 9.74133 440.382 9.56 439.418 9.56H438.993ZM439.18 15.153C438.421 15.153 437.735 15.0793 437.123 14.932C436.523 14.7733 436.007 14.5523 435.576 14.269C435.157 13.9743 434.828 13.623 434.59 13.215C434.364 12.7957 434.25 12.3197 434.25 11.787C434.25 11.0843 434.46 10.478 434.879 9.968C435.31 9.44667 435.882 9.07267 436.596 8.846C436.256 8.73267 435.962 8.58533 435.712 8.404C435.463 8.21133 435.259 7.996 435.1 7.758C434.942 7.52 434.823 7.27067 434.743 7.01C434.675 6.738 434.641 6.46033 434.641 6.177C434.641 5.191 435.027 4.409 435.797 3.831C436.579 3.24167 437.701 2.947 439.163 2.947C440.637 2.947 441.759 3.24167 442.529 3.831C443.311 4.409 443.702 5.191 443.702 6.177C443.702 6.789 443.532 7.30467 443.192 7.724C442.864 8.14333 442.405 8.489 441.815 8.761C442.631 9.01033 443.209 9.38433 443.549 9.883C443.901 10.3817 444.076 10.9937 444.076 11.719C444.076 12.263 443.963 12.7503 443.736 13.181C443.51 13.6003 443.181 13.9573 442.75 14.252C442.331 14.5467 441.815 14.7733 441.203 14.932C440.603 15.0793 439.928 15.153 439.18 15.153ZM450.774 15.153C449.981 15.153 449.261 15.0283 448.615 14.779C447.981 14.5297 447.437 14.1613 446.983 13.674C446.53 13.1753 446.179 12.569 445.929 11.855C445.691 11.141 445.572 10.3137 445.572 9.373C445.572 8.30767 445.714 7.37267 445.997 6.568C446.281 5.76333 446.66 5.09467 447.136 4.562C447.624 4.018 448.185 3.61567 448.819 3.355C449.465 3.083 450.145 2.947 450.859 2.947C451.891 2.947 452.769 3.15667 453.494 3.576C454.22 3.99533 454.747 4.562 455.075 5.276L453.919 6.058C453.591 5.548 453.166 5.14567 452.644 4.851C452.134 4.545 451.517 4.392 450.791 4.392C450.225 4.392 449.715 4.50533 449.261 4.732C448.808 4.94733 448.417 5.26467 448.088 5.684C447.76 6.092 447.505 6.59067 447.323 7.18C447.142 7.758 447.046 8.40967 447.034 9.135V9.322C447.193 8.948 447.408 8.61933 447.68 8.336C447.964 8.05267 448.281 7.81467 448.632 7.622C448.984 7.42933 449.358 7.28767 449.754 7.197C450.162 7.095 450.576 7.044 450.995 7.044C451.687 7.044 452.31 7.14033 452.865 7.333C453.421 7.52567 453.891 7.79767 454.276 8.149C454.673 8.50033 454.973 8.91967 455.177 9.407C455.381 9.89433 455.483 10.4327 455.483 11.022C455.483 11.634 455.359 12.195 455.109 12.705C454.871 13.215 454.537 13.6513 454.106 14.014C453.687 14.3767 453.188 14.66 452.61 14.864C452.044 15.0567 451.432 15.153 450.774 15.153ZM450.757 13.708C451.233 13.708 451.664 13.6457 452.049 13.521C452.446 13.3963 452.786 13.2207 453.069 12.994C453.364 12.756 453.591 12.4783 453.749 12.161C453.908 11.8437 453.987 11.4867 453.987 11.09C453.987 10.6593 453.908 10.2853 453.749 9.968C453.602 9.63933 453.392 9.36733 453.12 9.152C452.848 8.92533 452.52 8.761 452.134 8.659C451.76 8.54567 451.352 8.489 450.91 8.489C449.822 8.489 448.995 8.72133 448.428 9.186C447.873 9.65067 447.595 10.2457 447.595 10.971C447.595 11.345 447.669 11.6963 447.816 12.025C447.964 12.3537 448.173 12.6427 448.445 12.892C448.717 13.1413 449.046 13.3397 449.431 13.487C449.828 13.6343 450.27 13.708 450.757 13.708ZM456.657 16.649C456.804 16.615 456.957 16.5527 457.116 16.462C457.286 16.3713 457.439 16.258 457.575 16.122C457.711 15.986 457.819 15.8387 457.898 15.68C457.989 15.5213 458.034 15.357 458.034 15.187C458.034 15.1077 458.028 15.0453 458.017 15C457.96 15.0113 457.892 15.017 457.813 15.017C457.564 15.017 457.348 14.9377 457.167 14.779C456.997 14.6203 456.912 14.3937 456.912 14.099C456.912 13.8043 457.003 13.572 457.184 13.402C457.365 13.2207 457.62 13.13 457.949 13.13C458.312 13.13 458.606 13.2547 458.833 13.504C459.071 13.742 459.19 14.1047 459.19 14.592C459.19 15.0567 459.128 15.4533 459.003 15.782C458.878 16.1107 458.714 16.3883 458.51 16.615C458.306 16.8417 458.074 17.0173 457.813 17.142C457.552 17.278 457.286 17.38 457.014 17.448L456.657 16.649ZM465.816 8.217C466.201 8.217 466.558 8.17167 466.887 8.081C467.227 7.979 467.521 7.843 467.771 7.673C468.02 7.503 468.213 7.299 468.349 7.061C468.496 6.823 468.57 6.56233 468.57 6.279C468.57 5.667 468.315 5.20233 467.805 4.885C467.306 4.55633 466.541 4.392 465.51 4.392C464.512 4.392 463.759 4.55633 463.249 4.885C462.75 5.21367 462.501 5.67833 462.501 6.279C462.501 6.551 462.569 6.806 462.705 7.044C462.841 7.282 463.028 7.49167 463.266 7.673C463.515 7.843 463.81 7.979 464.15 8.081C464.501 8.17167 464.881 8.217 465.289 8.217H465.816ZM465.357 9.56C464.881 9.56 464.439 9.61667 464.031 9.73C463.634 9.832 463.294 9.97933 463.011 10.172C462.727 10.3533 462.506 10.5743 462.348 10.835C462.189 11.0843 462.11 11.3507 462.11 11.634C462.11 12.246 462.393 12.7447 462.96 13.13C463.538 13.5153 464.393 13.708 465.527 13.708C466.694 13.708 467.555 13.5267 468.111 13.164C468.666 12.79 468.944 12.2857 468.944 11.651C468.944 10.9823 468.655 10.4667 468.077 10.104C467.51 9.74133 466.745 9.56 465.782 9.56H465.357ZM465.544 15.153C464.784 15.153 464.099 15.0793 463.487 14.932C462.886 14.7733 462.37 14.5523 461.94 14.269C461.52 13.9743 461.192 13.623 460.954 13.215C460.727 12.7957 460.614 12.3197 460.614 11.787C460.614 11.0843 460.823 10.478 461.243 9.968C461.673 9.44667 462.246 9.07267 462.96 8.846C462.62 8.73267 462.325 8.58533 462.076 8.404C461.826 8.21133 461.622 7.996 461.464 7.758C461.305 7.52 461.186 7.27067 461.107 7.01C461.039 6.738 461.005 6.46033 461.005 6.177C461.005 5.191 461.39 4.409 462.161 3.831C462.943 3.24167 464.065 2.947 465.527 2.947C467 2.947 468.122 3.24167 468.893 3.831C469.675 4.409 470.066 5.191 470.066 6.177C470.066 6.789 469.896 7.30467 469.556 7.724C469.227 8.14333 468.768 8.489 468.179 8.761C468.995 9.01033 469.573 9.38433 469.913 9.883C470.264 10.3817 470.44 10.9937 470.44 11.719C470.44 12.263 470.326 12.7503 470.1 13.181C469.873 13.6003 469.544 13.9573 469.114 14.252C468.694 14.5467 468.179 14.7733 467.567 14.932C466.966 15.0793 466.292 15.153 465.544 15.153Z" fill="#222429"/>
<path d="M163.435 208.07C163.519 207.669 163.659 207.286 163.855 206.922C164.051 206.558 164.303 206.241 164.611 205.97C164.919 205.69 165.288 205.471 165.717 205.312C166.147 205.153 166.637 205.074 167.187 205.074C167.701 205.074 168.158 205.149 168.559 205.298C168.961 205.438 169.301 205.639 169.581 205.9C169.861 206.161 170.071 206.474 170.211 206.838C170.361 207.202 170.435 207.599 170.435 208.028C170.435 208.635 170.305 209.195 170.043 209.708C169.791 210.212 169.469 210.674 169.077 211.094C168.685 211.514 168.256 211.897 167.789 212.242C167.323 212.578 166.879 212.877 166.459 213.138L165.381 213.81H170.799V215H163.169V214.02L165.297 212.606C165.997 212.139 166.595 211.71 167.089 211.318C167.584 210.917 167.985 210.539 168.293 210.184C168.611 209.829 168.839 209.489 168.979 209.162C169.129 208.826 169.203 208.49 169.203 208.154C169.203 207.809 169.147 207.515 169.035 207.272C168.933 207.029 168.783 206.833 168.587 206.684C168.401 206.535 168.177 206.427 167.915 206.362C167.663 206.297 167.393 206.264 167.103 206.264C166.683 206.264 166.319 206.329 166.011 206.46C165.713 206.591 165.456 206.763 165.241 206.978C165.036 207.183 164.873 207.417 164.751 207.678C164.639 207.93 164.565 208.182 164.527 208.434L163.435 208.07ZM171.77 210.1C171.77 209.372 171.854 208.705 172.022 208.098C172.19 207.482 172.442 206.95 172.778 206.502C173.123 206.054 173.557 205.704 174.08 205.452C174.602 205.2 175.218 205.074 175.928 205.074C176.637 205.074 177.253 205.191 177.776 205.424C178.298 205.657 178.732 205.993 179.078 206.432C179.423 206.871 179.68 207.403 179.848 208.028C180.016 208.644 180.1 209.335 180.1 210.1C180.1 210.828 180.016 211.5 179.848 212.116C179.689 212.723 179.437 213.25 179.092 213.698C178.756 214.146 178.326 214.496 177.804 214.748C177.281 215 176.665 215.126 175.956 215.126C175.284 215.126 174.686 215 174.164 214.748C173.641 214.496 173.202 214.146 172.848 213.698C172.493 213.25 172.222 212.723 172.036 212.116C171.858 211.5 171.77 210.828 171.77 210.1ZM173.002 210.1C173.002 211.295 173.263 212.233 173.786 212.914C174.308 213.595 175.032 213.936 175.956 213.936C176.964 213.936 177.701 213.595 178.168 212.914C178.634 212.233 178.868 211.295 178.868 210.1C178.868 208.905 178.63 207.967 178.154 207.286C177.678 206.605 176.936 206.264 175.928 206.264C175.424 206.264 174.99 206.353 174.626 206.53C174.262 206.707 173.958 206.964 173.716 207.3C173.473 207.636 173.291 208.042 173.17 208.518C173.058 208.985 173.002 209.512 173.002 210.1ZM183.945 205.144H184.743V215H183.567V206.642L181.033 207.804L180.585 206.754L183.945 205.144ZM190.295 215.126C189.445 215.126 188.717 214.963 188.111 214.636C187.513 214.309 187.065 213.894 186.767 213.39L187.775 212.69C188.064 213.091 188.442 213.399 188.909 213.614C189.385 213.829 189.903 213.936 190.463 213.936C190.892 213.936 191.284 213.852 191.639 213.684C192.003 213.507 192.315 213.264 192.577 212.956C192.847 212.648 193.057 212.284 193.207 211.864C193.356 211.444 193.431 210.987 193.431 210.492C193.431 210.436 193.431 210.38 193.431 210.324C193.431 210.268 193.426 210.212 193.417 210.156C193.193 210.688 192.81 211.131 192.269 211.486C191.737 211.831 191.06 212.004 190.239 212.004C189.697 212.004 189.198 211.925 188.741 211.766C188.283 211.598 187.887 211.369 187.551 211.08C187.215 210.781 186.953 210.427 186.767 210.016C186.58 209.605 186.487 209.148 186.487 208.644C186.487 208.103 186.585 207.613 186.781 207.174C186.986 206.726 187.271 206.348 187.635 206.04C187.999 205.732 188.433 205.494 188.937 205.326C189.45 205.158 190.015 205.074 190.631 205.074C191.256 205.074 191.816 205.181 192.311 205.396C192.815 205.601 193.239 205.909 193.585 206.32C193.939 206.731 194.21 207.239 194.397 207.846C194.583 208.443 194.677 209.134 194.677 209.918C194.677 210.777 194.569 211.533 194.355 212.186C194.149 212.83 193.851 213.371 193.459 213.81C193.076 214.239 192.614 214.566 192.073 214.79C191.541 215.014 190.948 215.126 190.295 215.126ZM190.463 210.814C190.864 210.814 191.228 210.758 191.555 210.646C191.881 210.534 192.157 210.38 192.381 210.184C192.614 209.979 192.791 209.741 192.913 209.47C193.034 209.199 193.095 208.91 193.095 208.602C193.095 208.303 193.048 208.014 192.955 207.734C192.861 207.454 192.712 207.207 192.507 206.992C192.301 206.768 192.031 206.591 191.695 206.46C191.368 206.329 190.967 206.264 190.491 206.264C189.623 206.264 188.941 206.46 188.447 206.852C187.961 207.235 187.719 207.799 187.719 208.546C187.719 209.255 187.966 209.811 188.461 210.212C188.955 210.613 189.623 210.814 190.463 210.814Z" fill="#777F8C"/>
<rect x="154" y="83" width="50" height="112" fill="#BFCED4"/>
<rect x="154" y="83" width="50" height="4" fill="#A6B2BC"/>
<path d="M159.474 62.032H160.443V74H159.015V63.851L155.938 65.262L155.394 63.987L159.474 62.032ZM162.9 65.585C163.002 65.0977 163.172 64.633 163.41 64.191C163.648 63.749 163.954 63.3637 164.328 63.035C164.702 62.695 165.149 62.4287 165.671 62.236C166.192 62.0433 166.787 61.947 167.456 61.947C168.079 61.947 168.634 62.0377 169.122 62.219C169.609 62.389 170.023 62.6327 170.363 62.95C170.703 63.2673 170.958 63.647 171.128 64.089C171.309 64.531 171.4 65.0127 171.4 65.534C171.4 66.2707 171.241 66.9507 170.924 67.574C170.618 68.186 170.227 68.747 169.751 69.257C169.275 69.767 168.753 70.2317 168.187 70.651C167.62 71.059 167.082 71.4217 166.572 71.739L165.263 72.555H171.842V74H162.577V72.81L165.161 71.093C166.011 70.5263 166.736 70.005 167.337 69.529C167.937 69.0417 168.425 68.5827 168.799 68.152C169.184 67.7213 169.462 67.3077 169.632 66.911C169.813 66.503 169.904 66.095 169.904 65.687C169.904 65.2677 169.836 64.9107 169.7 64.616C169.575 64.3213 169.394 64.0833 169.156 63.902C168.929 63.7207 168.657 63.5903 168.34 63.511C168.034 63.4317 167.705 63.392 167.354 63.392C166.844 63.392 166.402 63.4713 166.028 63.63C165.665 63.7887 165.353 63.9983 165.093 64.259C164.843 64.5083 164.645 64.7917 164.498 65.109C164.362 65.415 164.271 65.721 164.226 66.027L162.9 65.585ZM173.309 65.585C173.411 65.0977 173.581 64.633 173.819 64.191C174.057 63.749 174.363 63.3637 174.737 63.035C175.111 62.695 175.559 62.4287 176.08 62.236C176.601 62.0433 177.196 61.947 177.865 61.947C178.488 61.947 179.044 62.0377 179.531 62.219C180.018 62.389 180.432 62.6327 180.772 62.95C181.112 63.2673 181.367 63.647 181.537 64.089C181.718 64.531 181.809 65.0127 181.809 65.534C181.809 66.2707 181.65 66.9507 181.333 67.574C181.027 68.186 180.636 68.747 180.16 69.257C179.684 69.767 179.163 70.2317 178.596 70.651C178.029 71.059 177.491 71.4217 176.981 71.739L175.672 72.555H182.251V74H172.986V72.81L175.57 71.093C176.42 70.5263 177.145 70.005 177.746 69.529C178.347 69.0417 178.834 68.5827 179.208 68.152C179.593 67.7213 179.871 67.3077 180.041 66.911C180.222 66.503 180.313 66.095 180.313 65.687C180.313 65.2677 180.245 64.9107 180.109 64.616C179.984 64.3213 179.803 64.0833 179.565 63.902C179.338 63.7207 179.066 63.5903 178.749 63.511C178.443 63.4317 178.114 63.392 177.763 63.392C177.253 63.392 176.811 63.4713 176.437 63.63C176.074 63.7887 175.763 63.9983 175.502 64.259C175.253 64.5083 175.054 64.7917 174.907 65.109C174.771 65.415 174.68 65.721 174.635 66.027L173.309 65.585ZM183.378 75.649C183.525 75.615 183.678 75.5527 183.837 75.462C184.007 75.3713 184.16 75.258 184.296 75.122C184.432 74.986 184.54 74.8387 184.619 74.68C184.71 74.5213 184.755 74.357 184.755 74.187C184.755 74.1077 184.749 74.0453 184.738 74C184.681 74.0113 184.613 74.017 184.534 74.017C184.285 74.017 184.069 73.9377 183.888 73.779C183.718 73.6203 183.633 73.3937 183.633 73.099C183.633 72.8043 183.724 72.572 183.905 72.402C184.086 72.2207 184.341 72.13 184.67 72.13C185.033 72.13 185.327 72.2547 185.554 72.504C185.792 72.742 185.911 73.1047 185.911 73.592C185.911 74.0567 185.849 74.4533 185.724 74.782C185.599 75.1107 185.435 75.3883 185.231 75.615C185.027 75.8417 184.795 76.0173 184.534 76.142C184.273 76.278 184.007 76.38 183.735 76.448L183.378 75.649ZM192.52 74.153C191.727 74.153 191.007 74.0283 190.361 73.779C189.726 73.5297 189.182 73.1613 188.729 72.674C188.276 72.1753 187.924 71.569 187.675 70.855C187.437 70.141 187.318 69.3137 187.318 68.373C187.318 67.3077 187.46 66.3727 187.743 65.568C188.026 64.7633 188.406 64.0947 188.882 63.562C189.369 63.018 189.93 62.6157 190.565 62.355C191.211 62.083 191.891 61.947 192.605 61.947C193.636 61.947 194.515 62.1567 195.24 62.576C195.965 62.9953 196.492 63.562 196.821 64.276L195.665 65.058C195.336 64.548 194.911 64.1457 194.39 63.851C193.88 63.545 193.262 63.392 192.537 63.392C191.97 63.392 191.46 63.5053 191.007 63.732C190.554 63.9473 190.163 64.2647 189.834 64.684C189.505 65.092 189.25 65.5907 189.069 66.18C188.888 66.758 188.791 67.4097 188.78 68.135V68.322C188.939 67.948 189.154 67.6193 189.426 67.336C189.709 67.0527 190.027 66.8147 190.378 66.622C190.729 66.4293 191.103 66.2877 191.5 66.197C191.908 66.095 192.322 66.044 192.741 66.044C193.432 66.044 194.056 66.1403 194.611 66.333C195.166 66.5257 195.637 66.7977 196.022 67.149C196.419 67.5003 196.719 67.9197 196.923 68.407C197.127 68.8943 197.229 69.4327 197.229 70.022C197.229 70.634 197.104 71.195 196.855 71.705C196.617 72.215 196.283 72.6513 195.852 73.014C195.433 73.3767 194.934 73.66 194.356 73.864C193.789 74.0567 193.177 74.153 192.52 74.153ZM192.503 72.708C192.979 72.708 193.41 72.6457 193.795 72.521C194.192 72.3963 194.532 72.2207 194.815 71.994C195.11 71.756 195.336 71.4783 195.495 71.161C195.654 70.8437 195.733 70.4867 195.733 70.09C195.733 69.6593 195.654 69.2853 195.495 68.968C195.348 68.6393 195.138 68.3673 194.866 68.152C194.594 67.9253 194.265 67.761 193.88 67.659C193.506 67.5457 193.098 67.489 192.656 67.489C191.568 67.489 190.741 67.7213 190.174 68.186C189.619 68.6507 189.341 69.2457 189.341 69.971C189.341 70.345 189.415 70.6963 189.562 71.025C189.709 71.3537 189.919 71.6427 190.191 71.892C190.463 72.1413 190.792 72.3397 191.177 72.487C191.574 72.6343 192.016 72.708 192.503 72.708Z" fill="#222429"/>
<path d="M73.4354 208.07C73.5194 207.669 73.6594 207.286 73.8554 206.922C74.0514 206.558 74.3034 206.241 74.6114 205.97C74.9194 205.69 75.2881 205.471 75.7174 205.312C76.1467 205.153 76.6367 205.074 77.1874 205.074C77.7007 205.074 78.1581 205.149 78.5594 205.298C78.9607 205.438 79.3014 205.639 79.5814 205.9C79.8614 206.161 80.0714 206.474 80.2114 206.838C80.3607 207.202 80.4354 207.599 80.4354 208.028C80.4354 208.635 80.3047 209.195 80.0434 209.708C79.7914 210.212 79.4694 210.674 79.0774 211.094C78.6854 211.514 78.2561 211.897 77.7894 212.242C77.3227 212.578 76.8794 212.877 76.4594 213.138L75.3814 213.81H80.7994V215H73.1694V214.02L75.2974 212.606C75.9974 212.139 76.5947 211.71 77.0894 211.318C77.5841 210.917 77.9854 210.539 78.2934 210.184C78.6107 209.829 78.8394 209.489 78.9794 209.162C79.1287 208.826 79.2034 208.49 79.2034 208.154C79.2034 207.809 79.1474 207.515 79.0354 207.272C78.9327 207.029 78.7834 206.833 78.5874 206.684C78.4007 206.535 78.1767 206.427 77.9154 206.362C77.6634 206.297 77.3927 206.264 77.1034 206.264C76.6834 206.264 76.3194 206.329 76.0114 206.46C75.7127 206.591 75.4561 206.763 75.2414 206.978C75.0361 207.183 74.8727 207.417 74.7514 207.678C74.6394 207.93 74.5647 208.182 74.5274 208.434L73.4354 208.07ZM81.7697 210.1C81.7697 209.372 81.8537 208.705 82.0217 208.098C82.1897 207.482 82.4417 206.95 82.7777 206.502C83.123 206.054 83.557 205.704 84.0797 205.452C84.6023 205.2 85.2183 205.074 85.9277 205.074C86.637 205.074 87.253 205.191 87.7757 205.424C88.2983 205.657 88.7323 205.993 89.0777 206.432C89.423 206.871 89.6797 207.403 89.8477 208.028C90.0157 208.644 90.0997 209.335 90.0997 210.1C90.0997 210.828 90.0157 211.5 89.8477 212.116C89.689 212.723 89.437 213.25 89.0917 213.698C88.7557 214.146 88.3263 214.496 87.8037 214.748C87.281 215 86.665 215.126 85.9557 215.126C85.2837 215.126 84.6863 215 84.1637 214.748C83.641 214.496 83.2023 214.146 82.8477 213.698C82.493 213.25 82.2223 212.723 82.0357 212.116C81.8583 211.5 81.7697 210.828 81.7697 210.1ZM83.0017 210.1C83.0017 211.295 83.263 212.233 83.7857 212.914C84.3083 213.595 85.0317 213.936 85.9557 213.936C86.9637 213.936 87.701 213.595 88.1677 212.914C88.6343 212.233 88.8677 211.295 88.8677 210.1C88.8677 208.905 88.6297 207.967 88.1537 207.286C87.6777 206.605 86.9357 206.264 85.9277 206.264C85.4237 206.264 84.9897 206.353 84.6257 206.53C84.2617 206.707 83.9583 206.964 83.7157 207.3C83.473 207.636 83.291 208.042 83.1697 208.518C83.0577 208.985 83.0017 209.512 83.0017 210.1ZM93.9453 205.144H94.7433V215H93.5673V206.642L91.0333 207.804L90.5853 206.754L93.9453 205.144ZM100.827 209.414C101.144 209.414 101.438 209.377 101.709 209.302C101.989 209.218 102.231 209.106 102.437 208.966C102.642 208.826 102.801 208.658 102.913 208.462C103.034 208.266 103.095 208.051 103.095 207.818C103.095 207.314 102.885 206.931 102.465 206.67C102.054 206.399 101.424 206.264 100.575 206.264C99.7534 206.264 99.1327 206.399 98.7127 206.67C98.3021 206.941 98.0967 207.323 98.0967 207.818C98.0967 208.042 98.1527 208.252 98.2647 208.448C98.3767 208.644 98.5307 208.817 98.7267 208.966C98.9321 209.106 99.1747 209.218 99.4547 209.302C99.7441 209.377 100.057 209.414 100.393 209.414H100.827ZM100.449 210.52C100.057 210.52 99.6927 210.567 99.3567 210.66C99.0301 210.744 98.7501 210.865 98.5167 211.024C98.2834 211.173 98.1014 211.355 97.9707 211.57C97.8401 211.775 97.7747 211.995 97.7747 212.228C97.7747 212.732 98.0081 213.143 98.4747 213.46C98.9507 213.777 99.6554 213.936 100.589 213.936C101.55 213.936 102.259 213.787 102.717 213.488C103.174 213.18 103.403 212.765 103.403 212.242C103.403 211.691 103.165 211.267 102.689 210.968C102.222 210.669 101.592 210.52 100.799 210.52H100.449ZM100.603 215.126C99.9774 215.126 99.4127 215.065 98.9087 214.944C98.4141 214.813 97.9894 214.631 97.6347 214.398C97.2894 214.155 97.0187 213.866 96.8227 213.53C96.6361 213.185 96.5427 212.793 96.5427 212.354C96.5427 211.775 96.7154 211.276 97.0607 210.856C97.4154 210.427 97.8867 210.119 98.4747 209.932C98.1947 209.839 97.9521 209.717 97.7467 209.568C97.5414 209.409 97.3734 209.232 97.2427 209.036C97.1121 208.84 97.0141 208.635 96.9487 208.42C96.8927 208.196 96.8647 207.967 96.8647 207.734C96.8647 206.922 97.1821 206.278 97.8167 205.802C98.4607 205.317 99.3847 205.074 100.589 205.074C101.802 205.074 102.726 205.317 103.361 205.802C104.005 206.278 104.327 206.922 104.327 207.734C104.327 208.238 104.187 208.663 103.907 209.008C103.636 209.353 103.258 209.638 102.773 209.862C103.445 210.067 103.921 210.375 104.201 210.786C104.49 211.197 104.635 211.701 104.635 212.298C104.635 212.746 104.541 213.147 104.355 213.502C104.168 213.847 103.897 214.141 103.543 214.384C103.197 214.627 102.773 214.813 102.269 214.944C101.774 215.065 101.219 215.126 100.603 215.126Z" fill="#777F8C"/>
<rect x="64" y="97" width="50" height="98" fill="#BFCED4"/>
<rect x="64" y="97" width="50" height="4" fill="#A6B2BC"/>
<path d="M72.1466 76.032H73.1156V88H71.6876V77.851L68.6106 79.262L68.0666 77.987L72.1466 76.032ZM75.4537 82.05C75.4537 81.166 75.5557 80.3557 75.7597 79.619C75.9637 78.871 76.2697 78.225 76.6777 77.681C77.097 77.137 77.624 76.712 78.2587 76.406C78.8933 76.1 79.6413 75.947 80.5027 75.947C81.364 75.947 82.112 76.0887 82.7467 76.372C83.3813 76.6553 83.9083 77.0633 84.3277 77.596C84.747 78.1287 85.0587 78.7747 85.2627 79.534C85.4667 80.282 85.5687 81.1207 85.5687 82.05C85.5687 82.934 85.4667 83.75 85.2627 84.498C85.07 85.2347 84.764 85.875 84.3447 86.419C83.9367 86.963 83.4153 87.388 82.7807 87.694C82.146 88 81.398 88.153 80.5367 88.153C79.7207 88.153 78.9953 88 78.3607 87.694C77.726 87.388 77.1933 86.963 76.7627 86.419C76.332 85.875 76.0033 85.2347 75.7767 84.498C75.5613 83.75 75.4537 82.934 75.4537 82.05ZM76.9497 82.05C76.9497 83.5007 77.267 84.6397 77.9017 85.467C78.5363 86.2943 79.4147 86.708 80.5367 86.708C81.7607 86.708 82.656 86.2943 83.2227 85.467C83.7893 84.6397 84.0727 83.5007 84.0727 82.05C84.0727 80.5993 83.7837 79.4603 83.2057 78.633C82.6277 77.8057 81.7267 77.392 80.5027 77.392C79.8907 77.392 79.3637 77.4997 78.9217 77.715C78.4797 77.9303 78.1113 78.242 77.8167 78.65C77.522 79.058 77.301 79.551 77.1537 80.129C77.0177 80.6957 76.9497 81.336 76.9497 82.05ZM86.6173 76.1H95.6443V77.069L89.7283 88H88.1133L93.8253 77.545H86.6173V76.1ZM95.47 89.649C95.6173 89.615 95.7703 89.5527 95.929 89.462C96.099 89.3713 96.252 89.258 96.388 89.122C96.524 88.986 96.6316 88.8387 96.711 88.68C96.8016 88.5213 96.847 88.357 96.847 88.187C96.847 88.1077 96.8413 88.0453 96.83 88C96.7733 88.0113 96.7053 88.017 96.626 88.017C96.3766 88.017 96.1613 87.9377 95.98 87.779C95.81 87.6203 95.725 87.3937 95.725 87.099C95.725 86.8043 95.8156 86.572 95.997 86.402C96.1783 86.2207 96.4333 86.13 96.762 86.13C97.1246 86.13 97.4193 86.2547 97.646 86.504C97.884 86.742 98.003 87.1047 98.003 87.592C98.003 88.0567 97.9406 88.4533 97.816 88.782C97.6913 89.1107 97.527 89.3883 97.323 89.615C97.119 89.8417 96.8866 90.0173 96.626 90.142C96.3653 90.278 96.099 90.38 95.827 90.448L95.47 89.649ZM104.612 88.153C103.818 88.153 103.099 88.0283 102.453 87.779C101.818 87.5297 101.274 87.1613 100.821 86.674C100.367 86.1753 100.016 85.569 99.7667 84.855C99.5287 84.141 99.4097 83.3137 99.4097 82.373C99.4097 81.3077 99.5514 80.3727 99.8347 79.568C100.118 78.7633 100.498 78.0947 100.974 77.562C101.461 77.018 102.022 76.6157 102.657 76.355C103.303 76.083 103.983 75.947 104.697 75.947C105.728 75.947 106.606 76.1567 107.332 76.576C108.057 76.9953 108.584 77.562 108.913 78.276L107.757 79.058C107.428 78.548 107.003 78.1457 106.482 77.851C105.972 77.545 105.354 77.392 104.629 77.392C104.062 77.392 103.552 77.5053 103.099 77.732C102.645 77.9473 102.254 78.2647 101.926 78.684C101.597 79.092 101.342 79.5907 101.161 80.18C100.979 80.758 100.883 81.4097 100.872 82.135V82.322C101.03 81.948 101.246 81.6193 101.518 81.336C101.801 81.0527 102.118 80.8147 102.47 80.622C102.821 80.4293 103.195 80.2877 103.592 80.197C104 80.095 104.413 80.044 104.833 80.044C105.524 80.044 106.147 80.1403 106.703 80.333C107.258 80.5257 107.728 80.7977 108.114 81.149C108.51 81.5003 108.811 81.9197 109.015 82.407C109.219 82.8943 109.321 83.4327 109.321 84.022C109.321 84.634 109.196 85.195 108.947 85.705C108.709 86.215 108.374 86.6513 107.944 87.014C107.524 87.3767 107.026 87.66 106.448 87.864C105.881 88.0567 105.269 88.153 104.612 88.153ZM104.595 86.708C105.071 86.708 105.501 86.6457 105.887 86.521C106.283 86.3963 106.623 86.2207 106.907 85.994C107.201 85.756 107.428 85.4783 107.587 85.161C107.745 84.8437 107.825 84.4867 107.825 84.09C107.825 83.6593 107.745 83.2853 107.587 82.968C107.439 82.6393 107.23 82.3673 106.958 82.152C106.686 81.9253 106.357 81.761 105.972 81.659C105.598 81.5457 105.19 81.489 104.748 81.489C103.66 81.489 102.832 81.7213 102.266 82.186C101.71 82.6507 101.433 83.2457 101.433 83.971C101.433 84.345 101.506 84.6963 101.654 85.025C101.801 85.3537 102.011 85.6427 102.283 85.892C102.555 86.1413 102.883 86.3397 103.269 86.487C103.665 86.6343 104.107 86.708 104.595 86.708Z" fill="#222429"/>
<path d="M76.5456 154.6H82.9176V155.284L78.7416 163H77.6016L81.6336 155.62H76.5456V154.6ZM82.4345 164.164C82.5385 164.14 82.6465 164.096 82.7585 164.032C82.8785 163.968 82.9865 163.888 83.0825 163.792C83.1785 163.696 83.2545 163.592 83.3105 163.48C83.3745 163.368 83.4065 163.252 83.4065 163.132C83.4065 163.076 83.4025 163.032 83.3945 163C83.3545 163.008 83.3065 163.012 83.2505 163.012C83.0745 163.012 82.9225 162.956 82.7945 162.844C82.6745 162.732 82.6145 162.572 82.6145 162.364C82.6145 162.156 82.6785 161.992 82.8065 161.872C82.9345 161.744 83.1145 161.68 83.3465 161.68C83.6025 161.68 83.8105 161.768 83.9705 161.944C84.1385 162.112 84.2225 162.368 84.2225 162.712C84.2225 163.04 84.1785 163.32 84.0905 163.552C84.0025 163.784 83.8865 163.98 83.7425 164.14C83.5985 164.3 83.4345 164.424 83.2505 164.512C83.0665 164.608 82.8785 164.68 82.6865 164.728L82.4345 164.164ZM84.8555 158.8C84.8555 158.176 84.9275 157.604 85.0715 157.084C85.2155 156.556 85.4315 156.1 85.7195 155.716C86.0155 155.332 86.3875 155.032 86.8355 154.816C87.2835 154.6 87.8115 154.492 88.4195 154.492C89.0275 154.492 89.5555 154.592 90.0035 154.792C90.4515 154.992 90.8235 155.28 91.1195 155.656C91.4155 156.032 91.6355 156.488 91.7795 157.024C91.9235 157.552 91.9955 158.144 91.9955 158.8C91.9955 159.424 91.9235 160 91.7795 160.528C91.6435 161.048 91.4275 161.5 91.1315 161.884C90.8435 162.268 90.4755 162.568 90.0275 162.784C89.5795 163 89.0515 163.108 88.4435 163.108C87.8675 163.108 87.3555 163 86.9075 162.784C86.4595 162.568 86.0835 162.268 85.7795 161.884C85.4755 161.5 85.2435 161.048 85.0835 160.528C84.9315 160 84.8555 159.424 84.8555 158.8ZM85.9115 158.8C85.9115 159.824 86.1355 160.628 86.5835 161.212C87.0315 161.796 87.6515 162.088 88.4435 162.088C89.3075 162.088 89.9395 161.796 90.3395 161.212C90.7395 160.628 90.9395 159.824 90.9395 158.8C90.9395 157.776 90.7355 156.972 90.3275 156.388C89.9195 155.804 89.2835 155.512 88.4195 155.512C87.9875 155.512 87.6155 155.588 87.3035 155.74C86.9915 155.892 86.7315 156.112 86.5235 156.4C86.3155 156.688 86.1595 157.036 86.0555 157.444C85.9595 157.844 85.9115 158.296 85.9115 158.8ZM100.152 154.336L100.908 154.888L94.7398 163.18L93.9478 162.724L100.152 154.336ZM92.6518 156.616C92.6518 156.312 92.7078 156.036 92.8198 155.788C92.9318 155.532 93.0838 155.316 93.2758 155.14C93.4758 154.956 93.7078 154.816 93.9718 154.72C94.2438 154.616 94.5358 154.564 94.8478 154.564C95.1598 154.564 95.4478 154.616 95.7118 154.72C95.9758 154.816 96.2038 154.956 96.3958 155.14C96.5958 155.316 96.7518 155.532 96.8638 155.788C96.9758 156.036 97.0318 156.312 97.0318 156.616C97.0318 156.92 96.9758 157.196 96.8638 157.444C96.7518 157.692 96.5958 157.908 96.3958 158.092C96.2038 158.268 95.9758 158.408 95.7118 158.512C95.4478 158.608 95.1598 158.656 94.8478 158.656C94.5358 158.656 94.2438 158.608 93.9718 158.512C93.7078 158.408 93.4758 158.268 93.2758 158.092C93.0838 157.908 92.9318 157.692 92.8198 157.444C92.7078 157.196 92.6518 156.92 92.6518 156.616ZM93.6598 156.616C93.6598 156.8 93.6918 156.964 93.7558 157.108C93.8278 157.252 93.9158 157.376 94.0198 157.48C94.1318 157.584 94.2598 157.664 94.4038 157.72C94.5478 157.776 94.6958 157.804 94.8478 157.804C95.1598 157.804 95.4318 157.696 95.6638 157.48C95.9038 157.264 96.0238 156.976 96.0238 156.616C96.0238 156.256 95.9038 155.968 95.6638 155.752C95.4318 155.536 95.1598 155.428 94.8478 155.428C94.5278 155.428 94.2478 155.536 94.0078 155.752C93.7758 155.968 93.6598 156.256 93.6598 156.616ZM97.7998 160.996C97.7998 160.7 97.8558 160.428 97.9678 160.18C98.0798 159.924 98.2318 159.708 98.4238 159.532C98.6238 159.348 98.8558 159.208 99.1198 159.112C99.3918 159.008 99.6838 158.956 99.9958 158.956C100.308 158.956 100.596 159.008 100.86 159.112C101.124 159.208 101.352 159.348 101.544 159.532C101.744 159.708 101.9 159.924 102.012 160.18C102.124 160.428 102.18 160.7 102.18 160.996C102.18 161.3 102.124 161.576 102.012 161.824C101.9 162.072 101.744 162.288 101.544 162.472C101.352 162.656 101.124 162.8 100.86 162.904C100.596 163 100.308 163.048 99.9958 163.048C99.6838 163.048 99.3918 163 99.1198 162.904C98.8558 162.8 98.6238 162.656 98.4238 162.472C98.2318 162.288 98.0798 162.072 97.9678 161.824C97.8558 161.576 97.7998 161.3 97.7998 160.996ZM98.8078 160.996C98.8078 161.18 98.8398 161.344 98.9038 161.488C98.9758 161.632 99.0638 161.756 99.1678 161.86C99.2798 161.964 99.4078 162.044 99.5518 162.1C99.6958 162.156 99.8438 162.184 99.9958 162.184C100.308 162.184 100.58 162.076 100.812 161.86C101.052 161.644 101.172 161.356 101.172 160.996C101.172 160.636 101.052 160.348 100.812 160.132C100.58 159.916 100.308 159.808 99.9958 159.808C99.6758 159.808 99.3958 159.916 99.1558 160.132C98.9238 160.348 98.8078 160.636 98.8078 160.996Z" fill="#50565E"/>
<rect x="64" y="173" width="50" height="1" fill="#9299A3"/>
<path d="M168.257 144.6H174.629V145.284L170.453 153H169.313L173.345 145.62H168.257V144.6ZM174.145 154.164C174.249 154.14 174.357 154.096 174.469 154.032C174.589 153.968 174.697 153.888 174.793 153.792C174.889 153.696 174.965 153.592 175.021 153.48C175.085 153.368 175.117 153.252 175.117 153.132C175.117 153.076 175.113 153.032 175.105 153C175.065 153.008 175.017 153.012 174.961 153.012C174.785 153.012 174.633 152.956 174.505 152.844C174.385 152.732 174.325 152.572 174.325 152.364C174.325 152.156 174.389 151.992 174.517 151.872C174.645 151.744 174.825 151.68 175.057 151.68C175.313 151.68 175.521 151.768 175.681 151.944C175.849 152.112 175.933 152.368 175.933 152.712C175.933 153.04 175.889 153.32 175.801 153.552C175.713 153.784 175.597 153.98 175.453 154.14C175.309 154.3 175.145 154.424 174.961 154.512C174.777 154.608 174.589 154.68 174.397 154.728L174.145 154.164ZM178.966 144.552H179.65V153H178.642V145.836L176.47 146.832L176.086 145.932L178.966 144.552ZM188.441 144.336L189.197 144.888L183.029 153.18L182.237 152.724L188.441 144.336ZM180.941 146.616C180.941 146.312 180.997 146.036 181.109 145.788C181.221 145.532 181.373 145.316 181.565 145.14C181.765 144.956 181.997 144.816 182.261 144.72C182.533 144.616 182.825 144.564 183.137 144.564C183.449 144.564 183.737 144.616 184.001 144.72C184.265 144.816 184.493 144.956 184.685 145.14C184.885 145.316 185.041 145.532 185.153 145.788C185.265 146.036 185.321 146.312 185.321 146.616C185.321 146.92 185.265 147.196 185.153 147.444C185.041 147.692 184.885 147.908 184.685 148.092C184.493 148.268 184.265 148.408 184.001 148.512C183.737 148.608 183.449 148.656 183.137 148.656C182.825 148.656 182.533 148.608 182.261 148.512C181.997 148.408 181.765 148.268 181.565 148.092C181.373 147.908 181.221 147.692 181.109 147.444C180.997 147.196 180.941 146.92 180.941 146.616ZM181.949 146.616C181.949 146.8 181.981 146.964 182.045 147.108C182.117 147.252 182.205 147.376 182.309 147.48C182.421 147.584 182.549 147.664 182.693 147.72C182.837 147.776 182.985 147.804 183.137 147.804C183.449 147.804 183.721 147.696 183.953 147.48C184.193 147.264 184.313 146.976 184.313 146.616C184.313 146.256 184.193 145.968 183.953 145.752C183.721 145.536 183.449 145.428 183.137 145.428C182.817 145.428 182.537 145.536 182.297 145.752C182.065 145.968 181.949 146.256 181.949 146.616ZM186.089 150.996C186.089 150.7 186.145 150.428 186.257 150.18C186.369 149.924 186.521 149.708 186.713 149.532C186.913 149.348 187.145 149.208 187.409 149.112C187.681 149.008 187.973 148.956 188.285 148.956C188.597 148.956 188.885 149.008 189.149 149.112C189.413 149.208 189.641 149.348 189.833 149.532C190.033 149.708 190.189 149.924 190.301 150.18C190.413 150.428 190.469 150.7 190.469 150.996C190.469 151.3 190.413 151.576 190.301 151.824C190.189 152.072 190.033 152.288 189.833 152.472C189.641 152.656 189.413 152.8 189.149 152.904C188.885 153 188.597 153.048 188.285 153.048C187.973 153.048 187.681 153 187.409 152.904C187.145 152.8 186.913 152.656 186.713 152.472C186.521 152.288 186.369 152.072 186.257 151.824C186.145 151.576 186.089 151.3 186.089 150.996ZM187.097 150.996C187.097 151.18 187.129 151.344 187.193 151.488C187.265 151.632 187.353 151.756 187.457 151.86C187.569 151.964 187.697 152.044 187.841 152.1C187.985 152.156 188.133 152.184 188.285 152.184C188.597 152.184 188.869 152.076 189.101 151.86C189.341 151.644 189.461 151.356 189.461 150.996C189.461 150.636 189.341 150.348 189.101 150.132C188.869 149.916 188.597 149.808 188.285 149.808C187.965 149.808 187.685 149.916 187.445 150.132C187.213 150.348 187.097 150.636 187.097 150.996Z" fill="#50565E"/>
<rect x="154" y="163" width="50" height="1" fill="#9299A3"/>
<path d="M251.822 208.07C251.906 207.669 252.046 207.286 252.242 206.922C252.438 206.558 252.69 206.241 252.998 205.97C253.306 205.69 253.675 205.471 254.104 205.312C254.533 205.153 255.023 205.074 255.574 205.074C256.087 205.074 256.545 205.149 256.946 205.298C257.347 205.438 257.688 205.639 257.968 205.9C258.248 206.161 258.458 206.474 258.598 206.838C258.747 207.202 258.822 207.599 258.822 208.028C258.822 208.635 258.691 209.195 258.43 209.708C258.178 210.212 257.856 210.674 257.464 211.094C257.072 211.514 256.643 211.897 256.176 212.242C255.709 212.578 255.266 212.877 254.846 213.138L253.768 213.81H259.186V215H251.556V214.02L253.684 212.606C254.384 212.139 254.981 211.71 255.476 211.318C255.971 210.917 256.372 210.539 256.68 210.184C256.997 209.829 257.226 209.489 257.366 209.162C257.515 208.826 257.59 208.49 257.59 208.154C257.59 207.809 257.534 207.515 257.422 207.272C257.319 207.029 257.17 206.833 256.974 206.684C256.787 206.535 256.563 206.427 256.302 206.362C256.05 206.297 255.779 206.264 255.49 206.264C255.07 206.264 254.706 206.329 254.398 206.46C254.099 206.591 253.843 206.763 253.628 206.978C253.423 207.183 253.259 207.417 253.138 207.678C253.026 207.93 252.951 208.182 252.914 208.434L251.822 208.07ZM260.156 210.1C260.156 209.372 260.24 208.705 260.408 208.098C260.576 207.482 260.828 206.95 261.164 206.502C261.51 206.054 261.944 205.704 262.466 205.452C262.989 205.2 263.605 205.074 264.314 205.074C265.024 205.074 265.64 205.191 266.162 205.424C266.685 205.657 267.119 205.993 267.464 206.432C267.81 206.871 268.066 207.403 268.234 208.028C268.402 208.644 268.486 209.335 268.486 210.1C268.486 210.828 268.402 211.5 268.234 212.116C268.076 212.723 267.824 213.25 267.478 213.698C267.142 214.146 266.713 214.496 266.19 214.748C265.668 215 265.052 215.126 264.342 215.126C263.67 215.126 263.073 215 262.55 214.748C262.028 214.496 261.589 214.146 261.234 213.698C260.88 213.25 260.609 212.723 260.422 212.116C260.245 211.5 260.156 210.828 260.156 210.1ZM261.388 210.1C261.388 211.295 261.65 212.233 262.172 212.914C262.695 213.595 263.418 213.936 264.342 213.936C265.35 213.936 266.088 213.595 266.554 212.914C267.021 212.233 267.254 211.295 267.254 210.1C267.254 208.905 267.016 207.967 266.54 207.286C266.064 206.605 265.322 206.264 264.314 206.264C263.81 206.264 263.376 206.353 263.012 206.53C262.648 206.707 262.345 206.964 262.102 207.3C261.86 207.636 261.678 208.042 261.556 208.518C261.444 208.985 261.388 209.512 261.388 210.1ZM269.63 208.07C269.714 207.669 269.854 207.286 270.05 206.922C270.246 206.558 270.498 206.241 270.806 205.97C271.114 205.69 271.483 205.471 271.912 205.312C272.341 205.153 272.831 205.074 273.382 205.074C273.895 205.074 274.353 205.149 274.754 205.298C275.155 205.438 275.496 205.639 275.776 205.9C276.056 206.161 276.266 206.474 276.406 206.838C276.555 207.202 276.63 207.599 276.63 208.028C276.63 208.635 276.499 209.195 276.238 209.708C275.986 210.212 275.664 210.674 275.272 211.094C274.88 211.514 274.451 211.897 273.984 212.242C273.517 212.578 273.074 212.877 272.654 213.138L271.576 213.81H276.994V215H269.364V214.02L271.492 212.606C272.192 212.139 272.789 211.71 273.284 211.318C273.779 210.917 274.18 210.539 274.488 210.184C274.805 209.829 275.034 209.489 275.174 209.162C275.323 208.826 275.398 208.49 275.398 208.154C275.398 207.809 275.342 207.515 275.23 207.272C275.127 207.029 274.978 206.833 274.782 206.684C274.595 206.535 274.371 206.427 274.11 206.362C273.858 206.297 273.587 206.264 273.298 206.264C272.878 206.264 272.514 206.329 272.206 206.46C271.907 206.591 271.651 206.763 271.436 206.978C271.231 207.183 271.067 207.417 270.946 207.678C270.834 207.93 270.759 208.182 270.722 208.434L269.63 208.07ZM277.964 210.1C277.964 209.372 278.048 208.705 278.216 208.098C278.384 207.482 278.636 206.95 278.972 206.502C279.318 206.054 279.752 205.704 280.274 205.452C280.797 205.2 281.413 205.074 282.122 205.074C282.832 205.074 283.448 205.191 283.97 205.424C284.493 205.657 284.927 205.993 285.272 206.432C285.618 206.871 285.874 207.403 286.042 208.028C286.21 208.644 286.294 209.335 286.294 210.1C286.294 210.828 286.21 211.5 286.042 212.116C285.884 212.723 285.632 213.25 285.286 213.698C284.95 214.146 284.521 214.496 283.998 214.748C283.476 215 282.86 215.126 282.15 215.126C281.478 215.126 280.881 215 280.358 214.748C279.836 214.496 279.397 214.146 279.042 213.698C278.688 213.25 278.417 212.723 278.23 212.116C278.053 211.5 277.964 210.828 277.964 210.1ZM279.196 210.1C279.196 211.295 279.458 212.233 279.98 212.914C280.503 213.595 281.226 213.936 282.15 213.936C283.158 213.936 283.896 213.595 284.362 212.914C284.829 212.233 285.062 211.295 285.062 210.1C285.062 208.905 284.824 207.967 284.348 207.286C283.872 206.605 283.13 206.264 282.122 206.264C281.618 206.264 281.184 206.353 280.82 206.53C280.456 206.707 280.153 206.964 279.91 207.3C279.668 207.636 279.486 208.042 279.364 208.518C279.252 208.985 279.196 209.512 279.196 210.1Z" fill="#777F8C"/>
<rect x="244" y="62" width="50" height="133" fill="#BFCED4"/>
<rect x="244" y="62" width="50" height="4" fill="#A6B2BC"/>
<path d="M251.126 41.032H252.095V53H250.667V42.851L247.59 44.262L247.046 42.987L251.126 41.032ZM261.216 50.62H253.889V49.532L261.386 41.1H262.644V49.175H264.854V50.62H262.644V53H261.216V50.62ZM261.216 49.175V43.48L255.929 49.175H261.216ZM267.062 41.1H274.542V42.545H268.371L267.929 45.741C268.189 45.5483 268.541 45.3897 268.983 45.265C269.436 45.129 269.986 45.061 270.632 45.061C271.346 45.061 271.98 45.163 272.536 45.367C273.091 45.571 273.556 45.8543 273.93 46.217C274.304 46.5797 274.587 47.0047 274.78 47.492C274.984 47.9793 275.086 48.5007 275.086 49.056C275.086 49.6567 274.967 50.2063 274.729 50.705C274.502 51.2037 274.179 51.6343 273.76 51.997C273.352 52.3597 272.864 52.643 272.298 52.847C271.742 53.051 271.136 53.153 270.479 53.153C269.935 53.153 269.413 53.0907 268.915 52.966C268.416 52.8413 267.951 52.6543 267.521 52.405C267.101 52.1557 266.727 51.8553 266.399 51.504C266.081 51.1413 265.826 50.722 265.634 50.246L266.994 49.668C267.107 49.9287 267.266 50.1837 267.47 50.433C267.674 50.671 267.923 50.8863 268.218 51.079C268.512 51.2717 268.847 51.4247 269.221 51.538C269.595 51.6513 270.014 51.708 270.479 51.708C271 51.708 271.453 51.64 271.839 51.504C272.235 51.3567 272.564 51.164 272.825 50.926C273.085 50.688 273.278 50.416 273.403 50.11C273.527 49.7927 273.59 49.4583 273.59 49.107C273.59 48.3023 273.289 47.6677 272.689 47.203C272.099 46.7383 271.278 46.506 270.224 46.506C269.623 46.506 269.119 46.591 268.711 46.761C268.314 46.9197 267.94 47.1747 267.589 47.526L266.365 47.203L267.062 41.1ZM276.325 54.649C276.472 54.615 276.625 54.5527 276.784 54.462C276.954 54.3713 277.107 54.258 277.243 54.122C277.379 53.986 277.487 53.8387 277.566 53.68C277.657 53.5213 277.702 53.357 277.702 53.187C277.702 53.1077 277.696 53.0453 277.685 53C277.628 53.0113 277.56 53.017 277.481 53.017C277.232 53.017 277.016 52.9377 276.835 52.779C276.665 52.6203 276.58 52.3937 276.58 52.099C276.58 51.8043 276.671 51.572 276.852 51.402C277.033 51.2207 277.288 51.13 277.617 51.13C277.98 51.13 278.274 51.2547 278.501 51.504C278.739 51.742 278.858 52.1047 278.858 52.592C278.858 53.0567 278.796 53.4533 278.671 53.782C278.546 54.1107 278.382 54.3883 278.178 54.615C277.974 54.8417 277.742 55.0173 277.481 55.142C277.22 55.278 276.954 55.38 276.682 55.448L276.325 54.649ZM283.665 41.032H284.634V53H283.206V42.851L280.129 44.262L279.585 42.987L283.665 41.032Z" fill="#222429"/>
<path d="M343.818 208.07C343.902 207.669 344.042 207.286 344.238 206.922C344.434 206.558 344.686 206.241 344.994 205.97C345.302 205.69 345.671 205.471 346.1 205.312C346.53 205.153 347.02 205.074 347.57 205.074C348.084 205.074 348.541 205.149 348.942 205.298C349.344 205.438 349.684 205.639 349.964 205.9C350.244 206.161 350.454 206.474 350.594 206.838C350.744 207.202 350.818 207.599 350.818 208.028C350.818 208.635 350.688 209.195 350.426 209.708C350.174 210.212 349.852 210.674 349.46 211.094C349.068 211.514 348.639 211.897 348.172 212.242C347.706 212.578 347.262 212.877 346.842 213.138L345.764 213.81H351.182V215H343.552V214.02L345.68 212.606C346.38 212.139 346.978 211.71 347.472 211.318C347.967 210.917 348.368 210.539 348.676 210.184C348.994 209.829 349.222 209.489 349.362 209.162C349.512 208.826 349.586 208.49 349.586 208.154C349.586 207.809 349.53 207.515 349.418 207.272C349.316 207.029 349.166 206.833 348.97 206.684C348.784 206.535 348.56 206.427 348.298 206.362C348.046 206.297 347.776 206.264 347.486 206.264C347.066 206.264 346.702 206.329 346.394 206.46C346.096 206.591 345.839 206.763 345.624 206.978C345.419 207.183 345.256 207.417 345.134 207.678C345.022 207.93 344.948 208.182 344.91 208.434L343.818 208.07ZM352.152 210.1C352.152 209.372 352.236 208.705 352.404 208.098C352.572 207.482 352.824 206.95 353.16 206.502C353.506 206.054 353.94 205.704 354.462 205.452C354.985 205.2 355.601 205.074 356.31 205.074C357.02 205.074 357.636 205.191 358.158 205.424C358.681 205.657 359.115 205.993 359.46 206.432C359.806 206.871 360.062 207.403 360.23 208.028C360.398 208.644 360.482 209.335 360.482 210.1C360.482 210.828 360.398 211.5 360.23 212.116C360.072 212.723 359.82 213.25 359.474 213.698C359.138 214.146 358.709 214.496 358.186 214.748C357.664 215 357.048 215.126 356.338 215.126C355.666 215.126 355.069 215 354.546 214.748C354.024 214.496 353.585 214.146 353.23 213.698C352.876 213.25 352.605 212.723 352.418 212.116C352.241 211.5 352.152 210.828 352.152 210.1ZM353.384 210.1C353.384 211.295 353.646 212.233 354.168 212.914C354.691 213.595 355.414 213.936 356.338 213.936C357.346 213.936 358.084 213.595 358.55 212.914C359.017 212.233 359.25 211.295 359.25 210.1C359.25 208.905 359.012 207.967 358.536 207.286C358.06 206.605 357.318 206.264 356.31 206.264C355.806 206.264 355.372 206.353 355.008 206.53C354.644 206.707 354.341 206.964 354.098 207.3C353.856 207.636 353.674 208.042 353.552 208.518C353.44 208.985 353.384 209.512 353.384 210.1ZM361.626 208.07C361.71 207.669 361.85 207.286 362.046 206.922C362.242 206.558 362.494 206.241 362.802 205.97C363.11 205.69 363.479 205.471 363.908 205.312C364.337 205.153 364.827 205.074 365.378 205.074C365.891 205.074 366.349 205.149 366.75 205.298C367.151 205.438 367.492 205.639 367.772 205.9C368.052 206.161 368.262 206.474 368.402 206.838C368.551 207.202 368.626 207.599 368.626 208.028C368.626 208.635 368.495 209.195 368.234 209.708C367.982 210.212 367.66 210.674 367.268 211.094C366.876 211.514 366.447 211.897 365.98 212.242C365.513 212.578 365.07 212.877 364.65 213.138L363.572 213.81H368.99V215H361.36V214.02L363.488 212.606C364.188 212.139 364.785 211.71 365.28 211.318C365.775 210.917 366.176 210.539 366.484 210.184C366.801 209.829 367.03 209.489 367.17 209.162C367.319 208.826 367.394 208.49 367.394 208.154C367.394 207.809 367.338 207.515 367.226 207.272C367.123 207.029 366.974 206.833 366.778 206.684C366.591 206.535 366.367 206.427 366.106 206.362C365.854 206.297 365.583 206.264 365.294 206.264C364.874 206.264 364.51 206.329 364.202 206.46C363.903 206.591 363.647 206.763 363.432 206.978C363.227 207.183 363.063 207.417 362.942 207.678C362.83 207.93 362.755 208.182 362.718 208.434L361.626 208.07ZM372.76 205.144H373.558V215H372.382V206.642L369.848 207.804L369.4 206.754L372.76 205.144Z" fill="#777F8C"/>
<rect x="334" y="47" width="50" height="148" fill="#BFCED4"/>
<rect x="334" y="47" width="50" height="4" fill="#A6B2BC"/>
<path d="M340.752 26.032H341.721V38H340.293V27.851L337.216 29.262L336.672 27.987L340.752 26.032ZM349.261 38.153C348.468 38.153 347.748 38.0283 347.102 37.779C346.467 37.5297 345.923 37.1613 345.47 36.674C345.017 36.1753 344.665 35.569 344.416 34.855C344.178 34.141 344.059 33.3137 344.059 32.373C344.059 31.3077 344.201 30.3727 344.484 29.568C344.767 28.7633 345.147 28.0947 345.623 27.562C346.11 27.018 346.671 26.6157 347.306 26.355C347.952 26.083 348.632 25.947 349.346 25.947C350.377 25.947 351.256 26.1567 351.981 26.576C352.706 26.9953 353.233 27.562 353.562 28.276L352.406 29.058C352.077 28.548 351.652 28.1457 351.131 27.851C350.621 27.545 350.003 27.392 349.278 27.392C348.711 27.392 348.201 27.5053 347.748 27.732C347.295 27.9473 346.904 28.2647 346.575 28.684C346.246 29.092 345.991 29.5907 345.81 30.18C345.629 30.758 345.532 31.4097 345.521 32.135V32.322C345.68 31.948 345.895 31.6193 346.167 31.336C346.45 31.0527 346.768 30.8147 347.119 30.622C347.47 30.4293 347.844 30.2877 348.241 30.197C348.649 30.095 349.063 30.044 349.482 30.044C350.173 30.044 350.797 30.1403 351.352 30.333C351.907 30.5257 352.378 30.7977 352.763 31.149C353.16 31.5003 353.46 31.9197 353.664 32.407C353.868 32.8943 353.97 33.4327 353.97 34.022C353.97 34.634 353.845 35.195 353.596 35.705C353.358 36.215 353.024 36.6513 352.593 37.014C352.174 37.3767 351.675 37.66 351.097 37.864C350.53 38.0567 349.918 38.153 349.261 38.153ZM349.244 36.708C349.72 36.708 350.151 36.6457 350.536 36.521C350.933 36.3963 351.273 36.2207 351.556 35.994C351.851 35.756 352.077 35.4783 352.236 35.161C352.395 34.8437 352.474 34.4867 352.474 34.09C352.474 33.6593 352.395 33.2853 352.236 32.968C352.089 32.6393 351.879 32.3673 351.607 32.152C351.335 31.9253 351.006 31.761 350.621 31.659C350.247 31.5457 349.839 31.489 349.397 31.489C348.309 31.489 347.482 31.7213 346.915 32.186C346.36 32.6507 346.082 33.2457 346.082 33.971C346.082 34.345 346.156 34.6963 346.303 35.025C346.45 35.3537 346.66 35.6427 346.932 35.892C347.204 36.1413 347.533 36.3397 347.918 36.487C348.315 36.6343 348.757 36.708 349.244 36.708ZM358.765 26.032H359.734V38H358.306V27.851L355.229 29.262L354.685 27.987L358.765 26.032ZM361.851 39.649C361.998 39.615 362.151 39.5527 362.31 39.462C362.48 39.3713 362.633 39.258 362.769 39.122C362.905 38.986 363.012 38.8387 363.092 38.68C363.182 38.5213 363.228 38.357 363.228 38.187C363.228 38.1077 363.222 38.0453 363.211 38C363.154 38.0113 363.086 38.017 363.007 38.017C362.757 38.017 362.542 37.9377 362.361 37.779C362.191 37.6203 362.106 37.3937 362.106 37.099C362.106 36.8043 362.196 36.572 362.378 36.402C362.559 36.2207 362.814 36.13 363.143 36.13C363.505 36.13 363.8 36.2547 364.027 36.504C364.265 36.742 364.384 37.1047 364.384 37.592C364.384 38.0567 364.321 38.4533 364.197 38.782C364.072 39.1107 363.908 39.3883 363.704 39.615C363.5 39.8417 363.267 40.0173 363.007 40.142C362.746 40.278 362.48 40.38 362.208 40.448L361.851 39.649ZM365.791 32.05C365.791 31.166 365.893 30.3557 366.097 29.619C366.301 28.871 366.607 28.225 367.015 27.681C367.434 27.137 367.961 26.712 368.596 26.406C369.23 26.1 369.978 25.947 370.84 25.947C371.701 25.947 372.449 26.0887 373.084 26.372C373.718 26.6553 374.245 27.0633 374.665 27.596C375.084 28.1287 375.396 28.7747 375.6 29.534C375.804 30.282 375.906 31.1207 375.906 32.05C375.906 32.934 375.804 33.75 375.6 34.498C375.407 35.2347 375.101 35.875 374.682 36.419C374.274 36.963 373.752 37.388 373.118 37.694C372.483 38 371.735 38.153 370.874 38.153C370.058 38.153 369.332 38 368.698 37.694C368.063 37.388 367.53 36.963 367.1 36.419C366.669 35.875 366.34 35.2347 366.114 34.498C365.898 33.75 365.791 32.934 365.791 32.05ZM367.287 32.05C367.287 33.5007 367.604 34.6397 368.239 35.467C368.873 36.2943 369.752 36.708 370.874 36.708C372.098 36.708 372.993 36.2943 373.56 35.467C374.126 34.6397 374.41 33.5007 374.41 32.05C374.41 30.5993 374.121 29.4603 373.543 28.633C372.965 27.8057 372.064 27.392 370.84 27.392C370.228 27.392 369.701 27.4997 369.259 27.715C368.817 27.9303 368.448 28.242 368.154 28.65C367.859 29.058 367.638 29.551 367.491 30.129C367.355 30.6957 367.287 31.336 367.287 32.05Z" fill="#222429"/>
<path d="M256.421 124.6H262.793V125.284L258.617 133H257.477L261.509 125.62H256.421V124.6ZM262.31 134.164C262.414 134.14 262.522 134.096 262.634 134.032C262.754 133.968 262.862 133.888 262.958 133.792C263.054 133.696 263.13 133.592 263.186 133.48C263.25 133.368 263.282 133.252 263.282 133.132C263.282 133.076 263.278 133.032 263.27 133C263.23 133.008 263.182 133.012 263.126 133.012C262.95 133.012 262.798 132.956 262.67 132.844C262.55 132.732 262.49 132.572 262.49 132.364C262.49 132.156 262.554 131.992 262.682 131.872C262.81 131.744 262.99 131.68 263.222 131.68C263.478 131.68 263.686 131.768 263.846 131.944C264.014 132.112 264.098 132.368 264.098 132.712C264.098 133.04 264.054 133.32 263.966 133.552C263.878 133.784 263.762 133.98 263.618 134.14C263.474 134.3 263.31 134.424 263.126 134.512C262.942 134.608 262.754 134.68 262.562 134.728L262.31 134.164ZM264.659 126.64C264.771 126.328 264.923 126.044 265.115 125.788C265.307 125.524 265.539 125.296 265.811 125.104C266.091 124.912 266.411 124.764 266.771 124.66C267.139 124.548 267.551 124.492 268.007 124.492C268.415 124.492 268.791 124.544 269.135 124.648C269.487 124.744 269.787 124.884 270.035 125.068C270.291 125.244 270.487 125.464 270.623 125.728C270.767 125.992 270.839 126.284 270.839 126.604C270.839 127.092 270.711 127.508 270.455 127.852C270.207 128.196 269.843 128.436 269.363 128.572C269.571 128.588 269.775 128.64 269.975 128.728C270.175 128.808 270.351 128.932 270.503 129.1C270.663 129.26 270.791 129.464 270.887 129.712C270.983 129.952 271.031 130.24 271.031 130.576C271.031 130.984 270.951 131.348 270.791 131.668C270.639 131.98 270.423 132.244 270.143 132.46C269.871 132.668 269.547 132.828 269.171 132.94C268.795 133.052 268.391 133.108 267.959 133.108C267.487 133.108 267.055 133.052 266.663 132.94C266.279 132.828 265.939 132.676 265.643 132.484C265.347 132.284 265.095 132.048 264.887 131.776C264.687 131.496 264.535 131.188 264.431 130.852L265.403 130.432C265.507 130.648 265.631 130.856 265.775 131.056C265.919 131.256 266.095 131.432 266.303 131.584C266.511 131.736 266.755 131.86 267.035 131.956C267.315 132.044 267.647 132.088 268.031 132.088C268.631 132.088 269.103 131.96 269.447 131.704C269.799 131.44 269.975 131.068 269.975 130.588C269.975 130.324 269.919 130.104 269.807 129.928C269.695 129.744 269.539 129.6 269.339 129.496C269.139 129.384 268.903 129.308 268.631 129.268C268.367 129.22 268.079 129.196 267.767 129.196H266.831V128.2H267.575C268.271 128.2 268.811 128.068 269.195 127.804C269.587 127.54 269.783 127.208 269.783 126.808C269.783 126.376 269.619 126.052 269.291 125.836C268.963 125.62 268.519 125.512 267.959 125.512C267.615 125.512 267.311 125.556 267.047 125.644C266.783 125.732 266.551 125.848 266.351 125.992C266.159 126.136 265.995 126.3 265.859 126.484C265.731 126.668 265.631 126.856 265.559 127.048L264.659 126.64ZM279.277 124.336L280.033 124.888L273.865 133.18L273.073 132.724L279.277 124.336ZM271.777 126.616C271.777 126.312 271.833 126.036 271.945 125.788C272.057 125.532 272.209 125.316 272.401 125.14C272.601 124.956 272.833 124.816 273.097 124.72C273.369 124.616 273.661 124.564 273.973 124.564C274.285 124.564 274.573 124.616 274.837 124.72C275.101 124.816 275.329 124.956 275.521 125.14C275.721 125.316 275.877 125.532 275.989 125.788C276.101 126.036 276.157 126.312 276.157 126.616C276.157 126.92 276.101 127.196 275.989 127.444C275.877 127.692 275.721 127.908 275.521 128.092C275.329 128.268 275.101 128.408 274.837 128.512C274.573 128.608 274.285 128.656 273.973 128.656C273.661 128.656 273.369 128.608 273.097 128.512C272.833 128.408 272.601 128.268 272.401 128.092C272.209 127.908 272.057 127.692 271.945 127.444C271.833 127.196 271.777 126.92 271.777 126.616ZM272.785 126.616C272.785 126.8 272.817 126.964 272.881 127.108C272.953 127.252 273.041 127.376 273.145 127.48C273.257 127.584 273.385 127.664 273.529 127.72C273.673 127.776 273.821 127.804 273.973 127.804C274.285 127.804 274.557 127.696 274.789 127.48C275.029 127.264 275.149 126.976 275.149 126.616C275.149 126.256 275.029 125.968 274.789 125.752C274.557 125.536 274.285 125.428 273.973 125.428C273.653 125.428 273.373 125.536 273.133 125.752C272.901 125.968 272.785 126.256 272.785 126.616ZM276.925 130.996C276.925 130.7 276.981 130.428 277.093 130.18C277.205 129.924 277.357 129.708 277.549 129.532C277.749 129.348 277.981 129.208 278.245 129.112C278.517 129.008 278.809 128.956 279.121 128.956C279.433 128.956 279.721 129.008 279.985 129.112C280.249 129.208 280.477 129.348 280.669 129.532C280.869 129.708 281.025 129.924 281.137 130.18C281.249 130.428 281.305 130.7 281.305 130.996C281.305 131.3 281.249 131.576 281.137 131.824C281.025 132.072 280.869 132.288 280.669 132.472C280.477 132.656 280.249 132.8 279.985 132.904C279.721 133 279.433 133.048 279.121 133.048C278.809 133.048 278.517 133 278.245 132.904C277.981 132.8 277.749 132.656 277.549 132.472C277.357 132.288 277.205 132.072 277.093 131.824C276.981 131.576 276.925 131.3 276.925 130.996ZM277.933 130.996C277.933 131.18 277.965 131.344 278.029 131.488C278.101 131.632 278.189 131.756 278.293 131.86C278.405 131.964 278.533 132.044 278.677 132.1C278.821 132.156 278.969 132.184 279.121 132.184C279.433 132.184 279.705 132.076 279.937 131.86C280.177 131.644 280.297 131.356 280.297 130.996C280.297 130.636 280.177 130.348 279.937 130.132C279.705 129.916 279.433 129.808 279.121 129.808C278.801 129.808 278.521 129.916 278.281 130.132C278.049 130.348 277.933 130.636 277.933 130.996Z" fill="#50565E"/>
<rect x="244" y="143" width="50" height="1" fill="#9299A3"/>
<path d="M346.421 124.6H352.793V125.284L348.617 133H347.477L351.509 125.62H346.421V124.6ZM352.31 134.164C352.414 134.14 352.522 134.096 352.634 134.032C352.754 133.968 352.862 133.888 352.958 133.792C353.054 133.696 353.13 133.592 353.186 133.48C353.25 133.368 353.282 133.252 353.282 133.132C353.282 133.076 353.278 133.032 353.27 133C353.23 133.008 353.182 133.012 353.126 133.012C352.95 133.012 352.798 132.956 352.67 132.844C352.55 132.732 352.49 132.572 352.49 132.364C352.49 132.156 352.554 131.992 352.682 131.872C352.81 131.744 352.99 131.68 353.222 131.68C353.478 131.68 353.686 131.768 353.846 131.944C354.014 132.112 354.098 132.368 354.098 132.712C354.098 133.04 354.054 133.32 353.966 133.552C353.878 133.784 353.762 133.98 353.618 134.14C353.474 134.3 353.31 134.424 353.126 134.512C352.942 134.608 352.754 134.68 352.562 134.728L352.31 134.164ZM354.659 126.64C354.771 126.328 354.923 126.044 355.115 125.788C355.307 125.524 355.539 125.296 355.811 125.104C356.091 124.912 356.411 124.764 356.771 124.66C357.139 124.548 357.551 124.492 358.007 124.492C358.415 124.492 358.791 124.544 359.135 124.648C359.487 124.744 359.787 124.884 360.035 125.068C360.291 125.244 360.487 125.464 360.623 125.728C360.767 125.992 360.839 126.284 360.839 126.604C360.839 127.092 360.711 127.508 360.455 127.852C360.207 128.196 359.843 128.436 359.363 128.572C359.571 128.588 359.775 128.64 359.975 128.728C360.175 128.808 360.351 128.932 360.503 129.1C360.663 129.26 360.791 129.464 360.887 129.712C360.983 129.952 361.031 130.24 361.031 130.576C361.031 130.984 360.951 131.348 360.791 131.668C360.639 131.98 360.423 132.244 360.143 132.46C359.871 132.668 359.547 132.828 359.171 132.94C358.795 133.052 358.391 133.108 357.959 133.108C357.487 133.108 357.055 133.052 356.663 132.94C356.279 132.828 355.939 132.676 355.643 132.484C355.347 132.284 355.095 132.048 354.887 131.776C354.687 131.496 354.535 131.188 354.431 130.852L355.403 130.432C355.507 130.648 355.631 130.856 355.775 131.056C355.919 131.256 356.095 131.432 356.303 131.584C356.511 131.736 356.755 131.86 357.035 131.956C357.315 132.044 357.647 132.088 358.031 132.088C358.631 132.088 359.103 131.96 359.447 131.704C359.799 131.44 359.975 131.068 359.975 130.588C359.975 130.324 359.919 130.104 359.807 129.928C359.695 129.744 359.539 129.6 359.339 129.496C359.139 129.384 358.903 129.308 358.631 129.268C358.367 129.22 358.079 129.196 357.767 129.196H356.831V128.2H357.575C358.271 128.2 358.811 128.068 359.195 127.804C359.587 127.54 359.783 127.208 359.783 126.808C359.783 126.376 359.619 126.052 359.291 125.836C358.963 125.62 358.519 125.512 357.959 125.512C357.615 125.512 357.311 125.556 357.047 125.644C356.783 125.732 356.551 125.848 356.351 125.992C356.159 126.136 355.995 126.3 355.859 126.484C355.731 126.668 355.631 126.856 355.559 127.048L354.659 126.64ZM369.277 124.336L370.033 124.888L363.865 133.18L363.073 132.724L369.277 124.336ZM361.777 126.616C361.777 126.312 361.833 126.036 361.945 125.788C362.057 125.532 362.209 125.316 362.401 125.14C362.601 124.956 362.833 124.816 363.097 124.72C363.369 124.616 363.661 124.564 363.973 124.564C364.285 124.564 364.573 124.616 364.837 124.72C365.101 124.816 365.329 124.956 365.521 125.14C365.721 125.316 365.877 125.532 365.989 125.788C366.101 126.036 366.157 126.312 366.157 126.616C366.157 126.92 366.101 127.196 365.989 127.444C365.877 127.692 365.721 127.908 365.521 128.092C365.329 128.268 365.101 128.408 364.837 128.512C364.573 128.608 364.285 128.656 363.973 128.656C363.661 128.656 363.369 128.608 363.097 128.512C362.833 128.408 362.601 128.268 362.401 128.092C362.209 127.908 362.057 127.692 361.945 127.444C361.833 127.196 361.777 126.92 361.777 126.616ZM362.785 126.616C362.785 126.8 362.817 126.964 362.881 127.108C362.953 127.252 363.041 127.376 363.145 127.48C363.257 127.584 363.385 127.664 363.529 127.72C363.673 127.776 363.821 127.804 363.973 127.804C364.285 127.804 364.557 127.696 364.789 127.48C365.029 127.264 365.149 126.976 365.149 126.616C365.149 126.256 365.029 125.968 364.789 125.752C364.557 125.536 364.285 125.428 363.973 125.428C363.653 125.428 363.373 125.536 363.133 125.752C362.901 125.968 362.785 126.256 362.785 126.616ZM366.925 130.996C366.925 130.7 366.981 130.428 367.093 130.18C367.205 129.924 367.357 129.708 367.549 129.532C367.749 129.348 367.981 129.208 368.245 129.112C368.517 129.008 368.809 128.956 369.121 128.956C369.433 128.956 369.721 129.008 369.985 129.112C370.249 129.208 370.477 129.348 370.669 129.532C370.869 129.708 371.025 129.924 371.137 130.18C371.249 130.428 371.305 130.7 371.305 130.996C371.305 131.3 371.249 131.576 371.137 131.824C371.025 132.072 370.869 132.288 370.669 132.472C370.477 132.656 370.249 132.8 369.985 132.904C369.721 133 369.433 133.048 369.121 133.048C368.809 133.048 368.517 133 368.245 132.904C367.981 132.8 367.749 132.656 367.549 132.472C367.357 132.288 367.205 132.072 367.093 131.824C366.981 131.576 366.925 131.3 366.925 130.996ZM367.933 130.996C367.933 131.18 367.965 131.344 368.029 131.488C368.101 131.632 368.189 131.756 368.293 131.86C368.405 131.964 368.533 132.044 368.677 132.1C368.821 132.156 368.969 132.184 369.121 132.184C369.433 132.184 369.705 132.076 369.937 131.86C370.177 131.644 370.297 131.356 370.297 130.996C370.297 130.636 370.177 130.348 369.937 130.132C369.705 129.916 369.433 129.808 369.121 129.808C368.801 129.808 368.521 129.916 368.281 130.132C368.049 130.348 367.933 130.636 367.933 130.996Z" fill="#50565E"/>
<rect x="334" y="143" width="50" height="1" fill="#9299A3"/>
<path d="M436.45 134.6H442.822V135.284L438.646 143H437.506L441.538 135.62H436.45V134.6ZM442.339 144.164C442.443 144.14 442.551 144.096 442.663 144.032C442.783 143.968 442.891 143.888 442.987 143.792C443.083 143.696 443.159 143.592 443.215 143.48C443.279 143.368 443.311 143.252 443.311 143.132C443.311 143.076 443.307 143.032 443.299 143C443.259 143.008 443.211 143.012 443.155 143.012C442.979 143.012 442.827 142.956 442.699 142.844C442.579 142.732 442.519 142.572 442.519 142.364C442.519 142.156 442.583 141.992 442.711 141.872C442.839 141.744 443.019 141.68 443.251 141.68C443.507 141.68 443.715 141.768 443.875 141.944C444.043 142.112 444.127 142.368 444.127 142.712C444.127 143.04 444.083 143.32 443.995 143.552C443.907 143.784 443.791 143.98 443.647 144.14C443.503 144.3 443.339 144.424 443.155 144.512C442.971 144.608 442.783 144.68 442.591 144.728L442.339 144.164ZM444.844 137.06C444.916 136.716 445.036 136.388 445.204 136.076C445.372 135.764 445.588 135.492 445.852 135.26C446.116 135.02 446.432 134.832 446.8 134.696C447.168 134.56 447.588 134.492 448.06 134.492C448.5 134.492 448.892 134.556 449.236 134.684C449.58 134.804 449.872 134.976 450.112 135.2C450.352 135.424 450.532 135.692 450.652 136.004C450.78 136.316 450.844 136.656 450.844 137.024C450.844 137.544 450.732 138.024 450.508 138.464C450.292 138.896 450.016 139.292 449.68 139.652C449.344 140.012 448.976 140.34 448.576 140.636C448.176 140.924 447.796 141.18 447.436 141.404L446.512 141.98H451.156V143H444.616V142.16L446.44 140.948C447.04 140.548 447.552 140.18 447.976 139.844C448.4 139.5 448.744 139.176 449.008 138.872C449.28 138.568 449.476 138.276 449.596 137.996C449.724 137.708 449.788 137.42 449.788 137.132C449.788 136.836 449.74 136.584 449.644 136.376C449.556 136.168 449.428 136 449.26 135.872C449.1 135.744 448.908 135.652 448.684 135.596C448.468 135.54 448.236 135.512 447.988 135.512C447.628 135.512 447.316 135.568 447.052 135.68C446.796 135.792 446.576 135.94 446.392 136.124C446.216 136.3 446.076 136.5 445.972 136.724C445.876 136.94 445.812 137.156 445.78 137.372L444.844 137.06ZM459.247 134.336L460.003 134.888L453.835 143.18L453.043 142.724L459.247 134.336ZM451.747 136.616C451.747 136.312 451.803 136.036 451.915 135.788C452.027 135.532 452.179 135.316 452.371 135.14C452.571 134.956 452.803 134.816 453.067 134.72C453.339 134.616 453.631 134.564 453.943 134.564C454.255 134.564 454.543 134.616 454.807 134.72C455.071 134.816 455.299 134.956 455.491 135.14C455.691 135.316 455.847 135.532 455.959 135.788C456.071 136.036 456.127 136.312 456.127 136.616C456.127 136.92 456.071 137.196 455.959 137.444C455.847 137.692 455.691 137.908 455.491 138.092C455.299 138.268 455.071 138.408 454.807 138.512C454.543 138.608 454.255 138.656 453.943 138.656C453.631 138.656 453.339 138.608 453.067 138.512C452.803 138.408 452.571 138.268 452.371 138.092C452.179 137.908 452.027 137.692 451.915 137.444C451.803 137.196 451.747 136.92 451.747 136.616ZM452.755 136.616C452.755 136.8 452.787 136.964 452.851 137.108C452.923 137.252 453.011 137.376 453.115 137.48C453.227 137.584 453.355 137.664 453.499 137.72C453.643 137.776 453.791 137.804 453.943 137.804C454.255 137.804 454.527 137.696 454.759 137.48C454.999 137.264 455.119 136.976 455.119 136.616C455.119 136.256 454.999 135.968 454.759 135.752C454.527 135.536 454.255 135.428 453.943 135.428C453.623 135.428 453.343 135.536 453.103 135.752C452.871 135.968 452.755 136.256 452.755 136.616ZM456.895 140.996C456.895 140.7 456.951 140.428 457.063 140.18C457.175 139.924 457.327 139.708 457.519 139.532C457.719 139.348 457.951 139.208 458.215 139.112C458.487 139.008 458.779 138.956 459.091 138.956C459.403 138.956 459.691 139.008 459.955 139.112C460.219 139.208 460.447 139.348 460.639 139.532C460.839 139.708 460.995 139.924 461.107 140.18C461.219 140.428 461.275 140.7 461.275 140.996C461.275 141.3 461.219 141.576 461.107 141.824C460.995 142.072 460.839 142.288 460.639 142.472C460.447 142.656 460.219 142.8 459.955 142.904C459.691 143 459.403 143.048 459.091 143.048C458.779 143.048 458.487 143 458.215 142.904C457.951 142.8 457.719 142.656 457.519 142.472C457.327 142.288 457.175 142.072 457.063 141.824C456.951 141.576 456.895 141.3 456.895 140.996ZM457.903 140.996C457.903 141.18 457.935 141.344 457.999 141.488C458.071 141.632 458.159 141.756 458.263 141.86C458.375 141.964 458.503 142.044 458.647 142.1C458.791 142.156 458.939 142.184 459.091 142.184C459.403 142.184 459.675 142.076 459.907 141.86C460.147 141.644 460.267 141.356 460.267 140.996C460.267 140.636 460.147 140.348 459.907 140.132C459.675 139.916 459.403 139.808 459.091 139.808C458.771 139.808 458.491 139.916 458.251 140.132C458.019 140.348 457.903 140.636 457.903 140.996Z" fill="#003E14"/>
<rect x="424" y="153" width="50" height="1" fill="#003E14"/>
<circle cx="7.5" cy="247.5" r="7.5" fill="#BFCED4"/>
<path d="M26.17 242.9H32.722V244.005H27.353L27.353 246.826H32.358V247.931H27.353L27.353 250.895H32.839V252H26.17L26.17 242.9ZM34.5301 242.9H38.2091C38.8245 242.9 39.3358 242.956 39.7431 243.069C40.1591 243.182 40.4885 243.338 40.7311 243.537C40.9825 243.736 41.1601 243.975 41.2641 244.252C41.3681 244.529 41.4201 244.833 41.4201 245.162C41.4201 245.665 41.3075 246.094 41.0821 246.449C40.8655 246.804 40.5491 247.069 40.1331 247.242C40.6271 247.346 41.0171 247.584 41.3031 247.957C41.5978 248.321 41.7451 248.802 41.7451 249.4C41.7451 249.859 41.6585 250.254 41.4851 250.583C41.3118 250.912 41.0691 251.181 40.7571 251.389C40.4451 251.597 40.0681 251.753 39.6261 251.857C39.1841 251.952 38.6901 252 38.1441 252H34.5301L34.5301 242.9ZM35.7131 247.892L35.7131 250.895H38.1311C38.9631 250.895 39.5655 250.774 39.9381 250.531C40.3195 250.28 40.5101 249.881 40.5101 249.335C40.5101 248.841 40.3325 248.477 39.9771 248.243C39.6218 248.009 39.0498 247.892 38.2611 247.892H35.7131ZM35.7131 244.005L35.7131 246.813H38.3001C38.8721 246.813 39.3271 246.692 39.6651 246.449C40.0118 246.206 40.1851 245.86 40.1851 245.409C40.1851 245.175 40.1505 244.971 40.0811 244.798C40.0118 244.625 39.8948 244.482 39.7301 244.369C39.5741 244.248 39.3618 244.157 39.0931 244.096C38.8245 244.035 38.4951 244.005 38.1051 244.005H35.7131ZM43.2838 242.9H44.4668L44.4668 252H43.2838L43.2838 242.9ZM45.5131 242.9L53.0271 242.9L53.0271 244.005H49.8551L49.8551 252L48.6721 252L48.6721 244.005H45.5131L45.5131 242.9ZM54.0626 242.9H56.8706C57.7893 242.9 58.5693 243.021 59.2106 243.264C59.8519 243.498 60.3676 243.819 60.7576 244.226C61.1563 244.625 61.4423 245.093 61.6156 245.63C61.7976 246.167 61.8886 246.731 61.8886 247.32C61.8886 247.97 61.7846 248.581 61.5766 249.153C61.3773 249.716 61.0653 250.21 60.6406 250.635C60.2246 251.06 59.6916 251.393 59.0416 251.636C58.4003 251.879 57.6333 252 56.7406 252H54.0626L54.0626 242.9ZM55.2456 244.005L55.2456 250.895H56.8186C57.4946 250.895 58.0709 250.808 58.5476 250.635C59.0329 250.453 59.4316 250.202 59.7436 249.881C60.0556 249.56 60.2853 249.183 60.4326 248.75C60.5799 248.317 60.6536 247.84 60.6536 247.32C60.6536 246.843 60.5843 246.406 60.4456 246.007C60.3156 245.6 60.099 245.249 59.7956 244.954C59.4923 244.659 59.0979 244.43 58.6126 244.265C58.1359 244.092 57.5466 244.005 56.8446 244.005H55.2456ZM65.867 242.887L66.803 242.887L70.794 252H69.559L68.558 249.725L64.073 249.725L63.085 252H61.876L65.867 242.887ZM68.09 248.646L66.309 244.538L64.541 248.646L68.09 248.646Z" fill="#222429"/>
<rect x="81" y="247" width="15" height="1" fill="#003E14"/>
<path d="M107.17 252L107.17 242.9H110.706C111.469 242.9 112.088 242.987 112.565 243.16C113.05 243.325 113.432 243.541 113.709 243.81C113.986 244.079 114.177 244.386 114.281 244.733C114.385 245.071 114.437 245.413 114.437 245.76C114.437 246.124 114.372 246.479 114.242 246.826C114.112 247.173 113.9 247.485 113.605 247.762C113.31 248.031 112.925 248.247 112.448 248.412C111.971 248.577 111.386 248.659 110.693 248.659H108.353V252H107.17ZM108.353 244.005L108.353 247.554H110.667C111.551 247.554 112.192 247.389 112.591 247.06C112.998 246.722 113.202 246.284 113.202 245.747C113.202 245.496 113.159 245.266 113.072 245.058C112.985 244.841 112.847 244.655 112.656 244.499C112.465 244.343 112.214 244.222 111.902 244.135C111.59 244.048 111.209 244.005 110.758 244.005H108.353ZM118.568 252.117C118.048 252.117 117.572 252.03 117.138 251.857C116.714 251.684 116.345 251.445 116.033 251.142C115.73 250.83 115.492 250.462 115.318 250.037C115.145 249.604 115.058 249.127 115.058 248.607C115.058 248.104 115.145 247.641 115.318 247.216C115.5 246.783 115.747 246.41 116.059 246.098C116.371 245.777 116.74 245.53 117.164 245.357C117.598 245.175 118.066 245.084 118.568 245.084C119.071 245.084 119.526 245.166 119.933 245.331C120.349 245.487 120.705 245.712 120.999 246.007C121.303 246.302 121.537 246.653 121.701 247.06C121.866 247.467 121.948 247.918 121.948 248.412C121.948 248.507 121.944 248.607 121.935 248.711C121.935 248.815 121.931 248.91 121.922 248.997H116.176C116.194 249.3 116.263 249.582 116.384 249.842C116.514 250.093 116.683 250.314 116.891 250.505C117.108 250.687 117.359 250.83 117.645 250.934C117.931 251.038 118.239 251.09 118.568 251.09C119.062 251.09 119.474 250.999 119.803 250.817C120.141 250.626 120.44 250.323 120.7 249.907L121.688 250.271C121.411 250.869 121.008 251.328 120.479 251.649C119.959 251.961 119.322 252.117 118.568 252.117ZM118.568 246.111C118.265 246.111 117.979 246.159 117.71 246.254C117.442 246.341 117.203 246.466 116.995 246.631C116.787 246.796 116.614 246.995 116.475 247.229C116.345 247.454 116.263 247.701 116.228 247.97H120.83C120.822 247.71 120.757 247.467 120.635 247.242C120.514 247.017 120.349 246.822 120.141 246.657C119.942 246.484 119.704 246.349 119.426 246.254C119.158 246.159 118.872 246.111 118.568 246.111ZM128.271 249.075H124.306L124.306 252H123.214L123.214 245.24H124.306V248.048H128.271V245.24H129.363L129.363 252H128.271L128.271 249.075ZM130.336 245.24L136.368 245.24V246.267H133.885L133.885 252H132.793L132.793 246.267L130.336 246.267V245.24ZM136.957 246.969C137.173 246.371 137.537 245.916 138.049 245.604C138.56 245.283 139.184 245.123 139.921 245.123C141.758 245.123 142.677 246.085 142.677 248.009L142.677 252H141.585V250.83C141.498 251.012 141.368 251.181 141.195 251.337C141.03 251.493 140.835 251.632 140.61 251.753C140.393 251.866 140.155 251.952 139.895 252.013C139.635 252.082 139.37 252.117 139.102 252.117C138.746 252.117 138.426 252.069 138.14 251.974C137.854 251.879 137.607 251.744 137.399 251.571C137.191 251.389 137.03 251.177 136.918 250.934C136.805 250.683 136.749 250.405 136.749 250.102C136.749 249.712 136.835 249.383 137.009 249.114C137.191 248.845 137.472 248.629 137.854 248.464C138.244 248.291 138.742 248.165 139.349 248.087C139.964 248.009 140.709 247.97 141.585 247.97C141.585 247.346 141.446 246.887 141.169 246.592C140.9 246.297 140.475 246.15 139.895 246.15C138.872 246.15 138.222 246.544 137.945 247.333L136.957 246.969ZM139.323 251.09C139.652 251.09 139.955 251.042 140.233 250.947C140.51 250.852 140.748 250.717 140.948 250.544C141.147 250.362 141.303 250.15 141.416 249.907C141.528 249.664 141.585 249.4 141.585 249.114V248.867C140.891 248.867 140.306 248.889 139.83 248.932C139.362 248.975 138.985 249.045 138.699 249.14C138.413 249.235 138.205 249.361 138.075 249.517C137.953 249.673 137.893 249.868 137.893 250.102C137.893 250.405 138.018 250.648 138.27 250.83C138.53 251.003 138.881 251.09 139.323 251.09ZM147.57 252.117C147.033 252.117 146.543 252.03 146.101 251.857C145.668 251.675 145.295 251.415 144.983 251.077C144.671 250.73 144.429 250.306 144.255 249.803C144.091 249.3 144.008 248.724 144.008 248.074C144.008 247.251 144.03 246.553 144.073 245.981C144.125 245.409 144.208 244.928 144.32 244.538C144.433 244.148 144.576 243.832 144.749 243.589C144.931 243.346 145.152 243.147 145.412 242.991C145.655 242.844 145.902 242.74 146.153 242.679C146.405 242.618 146.656 242.584 146.907 242.575C147.167 242.558 147.423 242.558 147.674 242.575C147.934 242.584 148.194 242.588 148.454 242.588C148.87 242.588 149.152 242.558 149.299 242.497C149.455 242.436 149.533 242.319 149.533 242.146H150.508C150.508 242.423 150.474 242.657 150.404 242.848C150.344 243.03 150.235 243.182 150.079 243.303C149.923 243.416 149.72 243.498 149.468 243.55C149.217 243.593 148.909 243.615 148.545 243.615C148.355 243.615 148.147 243.606 147.921 243.589C147.705 243.572 147.484 243.567 147.258 243.576C147.033 243.576 146.808 243.598 146.582 243.641C146.366 243.684 146.162 243.762 145.971 243.875C145.807 243.97 145.668 244.087 145.555 244.226C145.451 244.365 145.365 244.547 145.295 244.772C145.226 244.989 145.174 245.262 145.139 245.591C145.105 245.912 145.079 246.306 145.061 246.774C145.365 246.306 145.759 245.955 146.244 245.721C146.73 245.487 147.258 245.37 147.83 245.37C148.298 245.37 148.727 245.448 149.117 245.604C149.507 245.751 149.841 245.968 150.118 246.254C150.396 246.54 150.612 246.887 150.768 247.294C150.924 247.701 151.002 248.161 151.002 248.672C151.002 249.157 150.92 249.608 150.755 250.024C150.591 250.44 150.357 250.804 150.053 251.116C149.75 251.428 149.386 251.675 148.961 251.857C148.545 252.03 148.082 252.117 147.57 252.117ZM147.557 251.09C147.939 251.09 148.272 251.029 148.558 250.908C148.853 250.787 149.096 250.622 149.286 250.414C149.477 250.197 149.62 249.946 149.715 249.66C149.811 249.374 149.858 249.066 149.858 248.737C149.858 248.399 149.806 248.087 149.702 247.801C149.607 247.515 149.464 247.268 149.273 247.06C149.083 246.852 148.844 246.692 148.558 246.579C148.281 246.458 147.96 246.397 147.596 246.397C147.189 246.397 146.834 246.458 146.53 246.579C146.227 246.7 145.971 246.861 145.763 247.06C145.564 247.251 145.412 247.476 145.308 247.736C145.204 247.987 145.152 248.247 145.152 248.516C145.152 248.897 145.209 249.248 145.321 249.569C145.443 249.881 145.607 250.15 145.815 250.375C146.032 250.6 146.288 250.778 146.582 250.908C146.877 251.029 147.202 251.09 147.557 251.09ZM155.342 252.117C154.822 252.117 154.345 252.03 153.912 251.857C153.487 251.684 153.119 251.445 152.807 251.142C152.503 250.83 152.265 250.462 152.092 250.037C151.918 249.604 151.832 249.127 151.832 248.607C151.832 248.104 151.918 247.641 152.092 247.216C152.274 246.783 152.521 246.41 152.833 246.098C153.145 245.777 153.513 245.53 153.938 245.357C154.371 245.175 154.839 245.084 155.342 245.084C155.844 245.084 156.299 245.166 156.707 245.331C157.123 245.487 157.478 245.712 157.773 246.007C158.076 246.302 158.31 246.653 158.475 247.06C158.639 247.467 158.722 247.918 158.722 248.412C158.722 248.507 158.717 248.607 158.709 248.711C158.709 248.815 158.704 248.91 158.696 248.997H152.95C152.967 249.3 153.036 249.582 153.158 249.842C153.288 250.093 153.457 250.314 153.665 250.505C153.881 250.687 154.133 250.83 154.419 250.934C154.705 251.038 155.012 251.09 155.342 251.09C155.836 251.09 156.247 250.999 156.577 250.817C156.915 250.626 157.214 250.323 157.474 249.907L158.462 250.271C158.184 250.869 157.781 251.328 157.253 251.649C156.733 251.961 156.096 252.117 155.342 252.117ZM155.342 246.111C155.038 246.111 154.752 246.159 154.484 246.254C154.215 246.341 153.977 246.466 153.769 246.631C153.561 246.796 153.387 246.995 153.249 247.229C153.119 247.454 153.036 247.701 153.002 247.97H157.604C157.595 247.71 157.53 247.467 157.409 247.242C157.287 247.017 157.123 246.822 156.915 246.657C156.715 246.484 156.477 246.349 156.2 246.254C155.931 246.159 155.645 246.111 155.342 246.111ZM164.567 246.267L161.655 246.267V246.67C161.655 248.525 161.468 249.898 161.096 250.791C160.723 251.675 160.142 252.117 159.354 252.117C159.284 252.117 159.219 252.113 159.159 252.104C159.107 252.104 159.059 252.1 159.016 252.091V251.038C159.05 251.047 159.089 251.051 159.133 251.051C159.185 251.051 159.232 251.051 159.276 251.051C159.501 251.051 159.696 250.969 159.861 250.804C160.034 250.639 160.173 250.379 160.277 250.024C160.389 249.669 160.472 249.218 160.524 248.672C160.584 248.117 160.615 247.45 160.615 246.67V245.24L165.659 245.24L165.659 252H164.567L164.567 246.267ZM167.484 245.24H168.576V247.346H170.318C170.847 247.346 171.289 247.411 171.644 247.541C172 247.662 172.286 247.827 172.502 248.035C172.719 248.243 172.871 248.49 172.957 248.776C173.044 249.053 173.087 249.348 173.087 249.66C173.087 249.963 173.04 250.258 172.944 250.544C172.849 250.821 172.689 251.068 172.463 251.285C172.238 251.502 171.939 251.675 171.566 251.805C171.202 251.935 170.752 252 170.214 252H167.484L167.484 245.24ZM168.576 248.373L168.576 250.973H170.175C170.834 250.973 171.293 250.86 171.553 250.635C171.813 250.41 171.943 250.089 171.943 249.673C171.943 249.248 171.809 248.928 171.54 248.711C171.272 248.486 170.817 248.373 170.175 248.373H168.576ZM179.34 249.075H175.375V252H174.283V245.24H175.375V248.048H179.34V245.24H180.432V252H179.34V249.075ZM181.756 248.607C181.756 248.104 181.842 247.641 182.016 247.216C182.189 246.791 182.432 246.423 182.744 246.111C183.064 245.799 183.441 245.556 183.875 245.383C184.317 245.21 184.806 245.123 185.344 245.123C185.872 245.123 186.353 245.21 186.787 245.383C187.229 245.556 187.606 245.799 187.918 246.111C188.238 246.423 188.485 246.791 188.659 247.216C188.841 247.641 188.932 248.104 188.932 248.607C188.932 249.118 188.845 249.591 188.672 250.024C188.498 250.449 188.251 250.817 187.931 251.129C187.61 251.441 187.229 251.684 186.787 251.857C186.345 252.03 185.859 252.117 185.331 252.117C184.811 252.117 184.33 252.03 183.888 251.857C183.454 251.684 183.077 251.441 182.757 251.129C182.445 250.817 182.198 250.449 182.016 250.024C181.842 249.591 181.756 249.118 181.756 248.607ZM182.9 248.607C182.9 248.971 182.956 249.305 183.069 249.608C183.19 249.911 183.359 250.176 183.576 250.401C183.792 250.618 184.048 250.787 184.343 250.908C184.646 251.029 184.975 251.09 185.331 251.09C185.695 251.09 186.028 251.029 186.332 250.908C186.635 250.787 186.891 250.618 187.099 250.401C187.315 250.184 187.484 249.924 187.606 249.621C187.727 249.309 187.788 248.971 187.788 248.607C187.788 248.243 187.723 247.909 187.593 247.606C187.471 247.303 187.302 247.047 187.086 246.839C186.869 246.622 186.609 246.453 186.306 246.332C186.002 246.211 185.677 246.15 185.331 246.15C184.975 246.15 184.65 246.211 184.356 246.332C184.061 246.445 183.805 246.609 183.589 246.826C183.372 247.043 183.203 247.303 183.082 247.606C182.96 247.909 182.9 248.243 182.9 248.607ZM196.403 250.271C196.126 250.869 195.727 251.328 195.207 251.649C194.687 251.961 194.063 252.117 193.335 252.117C192.815 252.117 192.334 252.03 191.892 251.857C191.459 251.684 191.082 251.441 190.761 251.129C190.449 250.817 190.202 250.449 190.02 250.024C189.847 249.591 189.76 249.118 189.76 248.607C189.76 248.096 189.847 247.628 190.02 247.203C190.202 246.778 190.449 246.414 190.761 246.111C191.082 245.799 191.459 245.556 191.892 245.383C192.334 245.21 192.815 245.123 193.335 245.123C194.072 245.123 194.7 245.283 195.22 245.604C195.749 245.916 196.152 246.371 196.429 246.969L195.441 247.333C195.207 246.943 194.913 246.648 194.557 246.449C194.202 246.25 193.795 246.15 193.335 246.15C192.98 246.15 192.651 246.211 192.347 246.332C192.053 246.453 191.797 246.622 191.58 246.839C191.364 247.056 191.195 247.316 191.073 247.619C190.961 247.914 190.904 248.243 190.904 248.607C190.904 248.971 190.961 249.305 191.073 249.608C191.195 249.911 191.364 250.176 191.58 250.401C191.797 250.618 192.053 250.787 192.347 250.908C192.651 251.029 192.98 251.09 193.335 251.09C193.803 251.09 194.202 250.995 194.531 250.804C194.869 250.613 195.164 250.314 195.415 249.907L196.403 250.271ZM196.766 245.24L202.798 245.24V246.267H200.315V252H199.223V246.267L196.766 246.267V245.24ZM203.775 245.24H204.867V247.346H206.609C207.138 247.346 207.58 247.411 207.935 247.541C208.291 247.662 208.577 247.827 208.793 248.035C209.01 248.243 209.162 248.49 209.248 248.776C209.335 249.053 209.378 249.348 209.378 249.66C209.378 249.963 209.331 250.258 209.235 250.544C209.14 250.821 208.98 251.068 208.754 251.285C208.529 251.502 208.23 251.675 207.857 251.805C207.493 251.935 207.043 252 206.505 252H203.775V245.24ZM204.867 248.373V250.973H206.466C207.125 250.973 207.584 250.86 207.844 250.635C208.104 250.41 208.234 250.089 208.234 249.673C208.234 249.248 208.1 248.928 207.831 248.711C207.563 248.486 207.108 248.373 206.466 248.373H204.867ZM214.087 242.9H220.639V244.005H215.27V246.826H220.275V247.931H215.27V250.895H220.756V252L214.087 252V242.9ZM222.447 242.9H226.126C226.742 242.9 227.253 242.956 227.66 243.069C228.076 243.182 228.406 243.338 228.648 243.537C228.9 243.736 229.077 243.975 229.181 244.252C229.285 244.529 229.337 244.833 229.337 245.162C229.337 245.665 229.225 246.094 228.999 246.449C228.783 246.804 228.466 247.069 228.05 247.242C228.544 247.346 228.934 247.584 229.22 247.957C229.515 248.321 229.662 248.802 229.662 249.4C229.662 249.859 229.576 250.254 229.402 250.583C229.229 250.912 228.986 251.181 228.674 251.389C228.362 251.597 227.985 251.753 227.543 251.857C227.101 251.952 226.607 252 226.061 252H222.447V242.9ZM223.63 247.892V250.895H226.048C226.88 250.895 227.483 250.774 227.855 250.531C228.237 250.28 228.427 249.881 228.427 249.335C228.427 248.841 228.25 248.477 227.894 248.243C227.539 248.009 226.967 247.892 226.178 247.892H223.63ZM223.63 244.005V246.813H226.217C226.789 246.813 227.244 246.692 227.582 246.449C227.929 246.206 228.102 245.86 228.102 245.409C228.102 245.175 228.068 244.971 227.998 244.798C227.929 244.625 227.812 244.482 227.647 244.369C227.491 244.248 227.279 244.157 227.01 244.096C226.742 244.035 226.412 244.005 226.022 244.005H223.63ZM231.201 242.9H232.384V252H231.201V242.9ZM233.43 242.9H240.944V244.005H237.772L237.772 252H236.589L236.589 244.005H233.43V242.9ZM241.98 242.9H244.788C245.707 242.9 246.487 243.021 247.128 243.264C247.769 243.498 248.285 243.819 248.675 244.226C249.074 244.625 249.36 245.093 249.533 245.63C249.715 246.167 249.806 246.731 249.806 247.32C249.806 247.97 249.702 248.581 249.494 249.153C249.295 249.716 248.983 250.21 248.558 250.635C248.142 251.06 247.609 251.393 246.959 251.636C246.318 251.879 245.551 252 244.658 252H241.98L241.98 242.9ZM243.163 244.005L243.163 250.895H244.736C245.412 250.895 245.988 250.808 246.465 250.635C246.95 250.453 247.349 250.202 247.661 249.881C247.973 249.56 248.203 249.183 248.35 248.75C248.497 248.317 248.571 247.84 248.571 247.32C248.571 246.843 248.502 246.406 248.363 246.007C248.233 245.6 248.016 245.249 247.713 244.954C247.41 244.659 247.015 244.43 246.53 244.265C246.053 244.092 245.464 244.005 244.762 244.005H243.163ZM253.784 242.887H254.72L258.711 252H257.476L256.475 249.725H251.99L251.002 252H249.793L253.784 242.887ZM256.007 248.646L254.226 244.538L252.458 248.646H256.007Z" fill="#222429"/>
</svg>
