<svg viewBox="0 0 536 253" fill="none" xmlns="http://www.w3.org/2000/svg">
<path d="M432.294 206.07C432.378 205.669 432.518 205.286 432.714 204.922C432.91 204.558 433.162 204.241 433.47 203.97C433.778 203.69 434.146 203.471 434.576 203.312C435.005 203.153 435.495 203.074 436.046 203.074C436.559 203.074 437.016 203.149 437.418 203.298C437.819 203.438 438.16 203.639 438.44 203.9C438.72 204.161 438.93 204.474 439.07 204.838C439.219 205.202 439.294 205.599 439.294 206.028C439.294 206.635 439.163 207.195 438.902 207.708C438.65 208.212 438.328 208.674 437.936 209.094C437.544 209.514 437.114 209.897 436.648 210.242C436.181 210.578 435.738 210.877 435.318 211.138L434.24 211.81H439.658V213H432.028V212.02L434.156 210.606C434.856 210.139 435.453 209.71 435.948 209.318C436.442 208.917 436.844 208.539 437.152 208.184C437.469 207.829 437.698 207.489 437.838 207.162C437.987 206.826 438.062 206.49 438.062 206.154C438.062 205.809 438.006 205.515 437.894 205.272C437.791 205.029 437.642 204.833 437.446 204.684C437.259 204.535 437.035 204.427 436.774 204.362C436.522 204.297 436.251 204.264 435.962 204.264C435.542 204.264 435.178 204.329 434.87 204.46C434.571 204.591 434.314 204.763 434.1 204.978C433.894 205.183 433.731 205.417 433.61 205.678C433.498 205.93 433.423 206.182 433.386 206.434L432.294 206.07ZM440.628 208.1C440.628 207.372 440.712 206.705 440.88 206.098C441.048 205.482 441.3 204.95 441.636 204.502C441.981 204.054 442.415 203.704 442.938 203.452C443.461 203.2 444.077 203.074 444.786 203.074C445.495 203.074 446.111 203.191 446.634 203.424C447.157 203.657 447.591 203.993 447.936 204.432C448.281 204.871 448.538 205.403 448.706 206.028C448.874 206.644 448.958 207.335 448.958 208.1C448.958 208.828 448.874 209.5 448.706 210.116C448.547 210.723 448.295 211.25 447.95 211.698C447.614 212.146 447.185 212.496 446.662 212.748C446.139 213 445.523 213.126 444.814 213.126C444.142 213.126 443.545 213 443.022 212.748C442.499 212.496 442.061 212.146 441.706 211.698C441.351 211.25 441.081 210.723 440.894 210.116C440.717 209.5 440.628 208.828 440.628 208.1ZM441.86 208.1C441.86 209.295 442.121 210.233 442.644 210.914C443.167 211.595 443.89 211.936 444.814 211.936C445.822 211.936 446.559 211.595 447.026 210.914C447.493 210.233 447.726 209.295 447.726 208.1C447.726 206.905 447.488 205.967 447.012 205.286C446.536 204.605 445.794 204.264 444.786 204.264C444.282 204.264 443.848 204.353 443.484 204.53C443.12 204.707 442.817 204.964 442.574 205.3C442.331 205.636 442.149 206.042 442.028 206.518C441.916 206.985 441.86 207.512 441.86 208.1ZM450.102 206.07C450.186 205.669 450.326 205.286 450.522 204.922C450.718 204.558 450.97 204.241 451.278 203.97C451.586 203.69 451.954 203.471 452.384 203.312C452.813 203.153 453.303 203.074 453.854 203.074C454.367 203.074 454.824 203.149 455.226 203.298C455.627 203.438 455.968 203.639 456.248 203.9C456.528 204.161 456.738 204.474 456.878 204.838C457.027 205.202 457.102 205.599 457.102 206.028C457.102 206.635 456.971 207.195 456.71 207.708C456.458 208.212 456.136 208.674 455.744 209.094C455.352 209.514 454.922 209.897 454.456 210.242C453.989 210.578 453.546 210.877 453.126 211.138L452.048 211.81H457.466V213H449.836V212.02L451.964 210.606C452.664 210.139 453.261 209.71 453.756 209.318C454.25 208.917 454.652 208.539 454.96 208.184C455.277 207.829 455.506 207.489 455.646 207.162C455.795 206.826 455.87 206.49 455.87 206.154C455.87 205.809 455.814 205.515 455.702 205.272C455.599 205.029 455.45 204.833 455.254 204.684C455.067 204.535 454.843 204.427 454.582 204.362C454.33 204.297 454.059 204.264 453.77 204.264C453.35 204.264 452.986 204.329 452.678 204.46C452.379 204.591 452.122 204.763 451.908 204.978C451.702 205.183 451.539 205.417 451.418 205.678C451.306 205.93 451.231 206.182 451.194 206.434L450.102 206.07ZM458.534 206.07C458.618 205.669 458.758 205.286 458.954 204.922C459.15 204.558 459.402 204.241 459.71 203.97C460.018 203.69 460.387 203.471 460.816 203.312C461.245 203.153 461.735 203.074 462.286 203.074C462.799 203.074 463.257 203.149 463.658 203.298C464.059 203.438 464.4 203.639 464.68 203.9C464.96 204.161 465.17 204.474 465.31 204.838C465.459 205.202 465.534 205.599 465.534 206.028C465.534 206.635 465.403 207.195 465.142 207.708C464.89 208.212 464.568 208.674 464.176 209.094C463.784 209.514 463.355 209.897 462.888 210.242C462.421 210.578 461.978 210.877 461.558 211.138L460.48 211.81H465.898V213H458.268V212.02L460.396 210.606C461.096 210.139 461.693 209.71 462.188 209.318C462.683 208.917 463.084 208.539 463.392 208.184C463.709 207.829 463.938 207.489 464.078 207.162C464.227 206.826 464.302 206.49 464.302 206.154C464.302 205.809 464.246 205.515 464.134 205.272C464.031 205.029 463.882 204.833 463.686 204.684C463.499 204.535 463.275 204.427 463.014 204.362C462.762 204.297 462.491 204.264 462.202 204.264C461.782 204.264 461.418 204.329 461.11 204.46C460.811 204.591 460.555 204.763 460.34 204.978C460.135 205.183 459.971 205.417 459.85 205.678C459.738 205.93 459.663 206.182 459.626 206.434L458.534 206.07Z" fill="#5FAF2D"/>
<rect x="424" y="22" width="50" height="171" fill="#5FAF2D"/>
<rect x="424" y="22" width="50" height="4" fill="#3D7917"/>
<path d="M430.902 1.032H431.871V13H430.443V2.851L427.366 4.262L426.822 2.987L430.902 1.032ZM439.428 6.217C439.813 6.217 440.17 6.17167 440.499 6.081C440.839 5.979 441.133 5.843 441.383 5.673C441.632 5.503 441.825 5.299 441.961 5.061C442.108 4.823 442.182 4.56233 442.182 4.279C442.182 3.667 441.927 3.20233 441.417 2.885C440.918 2.55633 440.153 2.392 439.122 2.392C438.124 2.392 437.371 2.55633 436.861 2.885C436.362 3.21367 436.113 3.67833 436.113 4.279C436.113 4.551 436.181 4.806 436.317 5.044C436.453 5.282 436.64 5.49167 436.878 5.673C437.127 5.843 437.422 5.979 437.762 6.081C438.113 6.17167 438.493 6.217 438.901 6.217H439.428ZM438.969 7.56C438.493 7.56 438.051 7.61667 437.643 7.73C437.246 7.832 436.906 7.97933 436.623 8.172C436.339 8.35333 436.118 8.57433 435.96 8.835C435.801 9.08433 435.722 9.35067 435.722 9.634C435.722 10.246 436.005 10.7447 436.572 11.13C437.15 11.5153 438.005 11.708 439.139 11.708C440.306 11.708 441.167 11.5267 441.723 11.164C442.278 10.79 442.556 10.2857 442.556 9.651C442.556 8.98233 442.267 8.46667 441.689 8.104C441.122 7.74133 440.357 7.56 439.394 7.56H438.969ZM439.156 13.153C438.396 13.153 437.711 13.0793 437.099 12.932C436.498 12.7733 435.982 12.5523 435.552 12.269C435.132 11.9743 434.804 11.623 434.566 11.215C434.339 10.7957 434.226 10.3197 434.226 9.787C434.226 9.08433 434.435 8.478 434.855 7.968C435.285 7.44667 435.858 7.07267 436.572 6.846C436.232 6.73267 435.937 6.58533 435.688 6.404C435.438 6.21133 435.234 5.996 435.076 5.758C434.917 5.52 434.798 5.27067 434.719 5.01C434.651 4.738 434.617 4.46033 434.617 4.177C434.617 3.191 435.002 2.409 435.773 1.831C436.555 1.24167 437.677 0.946999 439.139 0.946999C440.612 0.946999 441.734 1.24167 442.505 1.831C443.287 2.409 443.678 3.191 443.678 4.177C443.678 4.789 443.508 5.30467 443.168 5.724C442.839 6.14333 442.38 6.489 441.791 6.761C442.607 7.01033 443.185 7.38433 443.525 7.883C443.876 8.38167 444.052 8.99367 444.052 9.719C444.052 10.263 443.938 10.7503 443.712 11.181C443.485 11.6003 443.156 11.9573 442.726 12.252C442.306 12.5467 441.791 12.7733 441.179 12.932C440.578 13.0793 439.904 13.153 439.156 13.153ZM450.749 13.153C449.956 13.153 449.236 13.0283 448.59 12.779C447.956 12.5297 447.412 12.1613 446.958 11.674C446.505 11.1753 446.154 10.569 445.904 9.855C445.666 9.141 445.547 8.31367 445.547 7.373C445.547 6.30767 445.689 5.37267 445.972 4.568C446.256 3.76333 446.635 3.09467 447.111 2.562C447.599 2.018 448.16 1.61567 448.794 1.355C449.44 1.083 450.12 0.946999 450.834 0.946999C451.866 0.946999 452.744 1.15667 453.469 1.576C454.195 1.99533 454.722 2.562 455.05 3.276L453.894 4.058C453.566 3.548 453.141 3.14567 452.619 2.851C452.109 2.545 451.492 2.392 450.766 2.392C450.2 2.392 449.69 2.50533 449.236 2.732C448.783 2.94733 448.392 3.26467 448.063 3.684C447.735 4.092 447.48 4.59067 447.298 5.18C447.117 5.758 447.021 6.40967 447.009 7.135V7.322C447.168 6.948 447.383 6.61933 447.655 6.336C447.939 6.05267 448.256 5.81467 448.607 5.622C448.959 5.42933 449.333 5.28767 449.729 5.197C450.137 5.095 450.551 5.044 450.97 5.044C451.662 5.044 452.285 5.14033 452.84 5.333C453.396 5.52567 453.866 5.79767 454.251 6.149C454.648 6.50033 454.948 6.91967 455.152 7.407C455.356 7.89433 455.458 8.43267 455.458 9.022C455.458 9.634 455.334 10.195 455.084 10.705C454.846 11.215 454.512 11.6513 454.081 12.014C453.662 12.3767 453.163 12.66 452.585 12.864C452.019 13.0567 451.407 13.153 450.749 13.153ZM450.732 11.708C451.208 11.708 451.639 11.6457 452.024 11.521C452.421 11.3963 452.761 11.2207 453.044 10.994C453.339 10.756 453.566 10.4783 453.724 10.161C453.883 9.84367 453.962 9.48667 453.962 9.09C453.962 8.65933 453.883 8.28533 453.724 7.968C453.577 7.63933 453.367 7.36733 453.095 7.152C452.823 6.92533 452.495 6.761 452.109 6.659C451.735 6.54567 451.327 6.489 450.885 6.489C449.797 6.489 448.97 6.72133 448.403 7.186C447.848 7.65067 447.57 8.24567 447.57 8.971C447.57 9.345 447.644 9.69633 447.791 10.025C447.939 10.3537 448.148 10.6427 448.42 10.892C448.692 11.1413 449.021 11.3397 449.406 11.487C449.803 11.6343 450.245 11.708 450.732 11.708ZM456.972 12.031C456.972 11.8043 457.068 11.589 457.261 11.385C457.454 11.181 457.709 11.079 458.026 11.079C458.321 11.079 458.564 11.181 458.757 11.385C458.95 11.589 459.046 11.8043 459.046 12.031C459.046 12.2917 458.95 12.524 458.757 12.728C458.564 12.932 458.321 13.034 458.026 13.034C457.709 13.034 457.454 12.932 457.261 12.728C457.068 12.524 456.972 12.2917 456.972 12.031ZM465.841 6.217C466.226 6.217 466.583 6.17167 466.912 6.081C467.252 5.979 467.546 5.843 467.796 5.673C468.045 5.503 468.238 5.299 468.374 5.061C468.521 4.823 468.595 4.56233 468.595 4.279C468.595 3.667 468.34 3.20233 467.83 2.885C467.331 2.55633 466.566 2.392 465.535 2.392C464.537 2.392 463.784 2.55633 463.274 2.885C462.775 3.21367 462.526 3.67833 462.526 4.279C462.526 4.551 462.594 4.806 462.73 5.044C462.866 5.282 463.053 5.49167 463.291 5.673C463.54 5.843 463.835 5.979 464.175 6.081C464.526 6.17167 464.906 6.217 465.314 6.217H465.841ZM465.382 7.56C464.906 7.56 464.464 7.61667 464.056 7.73C463.659 7.832 463.319 7.97933 463.036 8.172C462.752 8.35333 462.531 8.57433 462.373 8.835C462.214 9.08433 462.135 9.35067 462.135 9.634C462.135 10.246 462.418 10.7447 462.985 11.13C463.563 11.5153 464.418 11.708 465.552 11.708C466.719 11.708 467.58 11.5267 468.136 11.164C468.691 10.79 468.969 10.2857 468.969 9.651C468.969 8.98233 468.68 8.46667 468.102 8.104C467.535 7.74133 466.77 7.56 465.807 7.56H465.382ZM465.569 13.153C464.809 13.153 464.124 13.0793 463.512 12.932C462.911 12.7733 462.395 12.5523 461.965 12.269C461.545 11.9743 461.217 11.623 460.979 11.215C460.752 10.7957 460.639 10.3197 460.639 9.787C460.639 9.08433 460.848 8.478 461.268 7.968C461.698 7.44667 462.271 7.07267 462.985 6.846C462.645 6.73267 462.35 6.58533 462.101 6.404C461.851 6.21133 461.647 5.996 461.489 5.758C461.33 5.52 461.211 5.27067 461.132 5.01C461.064 4.738 461.03 4.46033 461.03 4.177C461.03 3.191 461.415 2.409 462.186 1.831C462.968 1.24167 464.09 0.946999 465.552 0.946999C467.025 0.946999 468.147 1.24167 468.918 1.831C469.7 2.409 470.091 3.191 470.091 4.177C470.091 4.789 469.921 5.30467 469.581 5.724C469.252 6.14333 468.793 6.489 468.204 6.761C469.02 7.01033 469.598 7.38433 469.938 7.883C470.289 8.38167 470.465 8.99367 470.465 9.719C470.465 10.263 470.351 10.7503 470.125 11.181C469.898 11.6003 469.569 11.9573 469.139 12.252C468.719 12.5467 468.204 12.7733 467.592 12.932C466.991 13.0793 466.317 13.153 465.569 13.153Z" fill="#222429"/>
<path d="M343.818 206.07C343.902 205.669 344.042 205.286 344.238 204.922C344.434 204.558 344.686 204.241 344.994 203.97C345.302 203.69 345.671 203.471 346.1 203.312C346.53 203.153 347.02 203.074 347.57 203.074C348.084 203.074 348.541 203.149 348.942 203.298C349.344 203.438 349.684 203.639 349.964 203.9C350.244 204.161 350.454 204.474 350.594 204.838C350.744 205.202 350.818 205.599 350.818 206.028C350.818 206.635 350.688 207.195 350.426 207.708C350.174 208.212 349.852 208.674 349.46 209.094C349.068 209.514 348.639 209.897 348.172 210.242C347.706 210.578 347.262 210.877 346.842 211.138L345.764 211.81H351.182V213H343.552V212.02L345.68 210.606C346.38 210.139 346.978 209.71 347.472 209.318C347.967 208.917 348.368 208.539 348.676 208.184C348.994 207.829 349.222 207.489 349.362 207.162C349.512 206.826 349.586 206.49 349.586 206.154C349.586 205.809 349.53 205.515 349.418 205.272C349.316 205.029 349.166 204.833 348.97 204.684C348.784 204.535 348.56 204.427 348.298 204.362C348.046 204.297 347.776 204.264 347.486 204.264C347.066 204.264 346.702 204.329 346.394 204.46C346.096 204.591 345.839 204.763 345.624 204.978C345.419 205.183 345.256 205.417 345.134 205.678C345.022 205.93 344.948 206.182 344.91 206.434L343.818 206.07ZM352.152 208.1C352.152 207.372 352.236 206.705 352.404 206.098C352.572 205.482 352.824 204.95 353.16 204.502C353.506 204.054 353.94 203.704 354.462 203.452C354.985 203.2 355.601 203.074 356.31 203.074C357.02 203.074 357.636 203.191 358.158 203.424C358.681 203.657 359.115 203.993 359.46 204.432C359.806 204.871 360.062 205.403 360.23 206.028C360.398 206.644 360.482 207.335 360.482 208.1C360.482 208.828 360.398 209.5 360.23 210.116C360.072 210.723 359.82 211.25 359.474 211.698C359.138 212.146 358.709 212.496 358.186 212.748C357.664 213 357.048 213.126 356.338 213.126C355.666 213.126 355.069 213 354.546 212.748C354.024 212.496 353.585 212.146 353.23 211.698C352.876 211.25 352.605 210.723 352.418 210.116C352.241 209.5 352.152 208.828 352.152 208.1ZM353.384 208.1C353.384 209.295 353.646 210.233 354.168 210.914C354.691 211.595 355.414 211.936 356.338 211.936C357.346 211.936 358.084 211.595 358.55 210.914C359.017 210.233 359.25 209.295 359.25 208.1C359.25 206.905 359.012 205.967 358.536 205.286C358.06 204.605 357.318 204.264 356.31 204.264C355.806 204.264 355.372 204.353 355.008 204.53C354.644 204.707 354.341 204.964 354.098 205.3C353.856 205.636 353.674 206.042 353.552 206.518C353.44 206.985 353.384 207.512 353.384 208.1ZM361.626 206.07C361.71 205.669 361.85 205.286 362.046 204.922C362.242 204.558 362.494 204.241 362.802 203.97C363.11 203.69 363.479 203.471 363.908 203.312C364.337 203.153 364.827 203.074 365.378 203.074C365.891 203.074 366.349 203.149 366.75 203.298C367.151 203.438 367.492 203.639 367.772 203.9C368.052 204.161 368.262 204.474 368.402 204.838C368.551 205.202 368.626 205.599 368.626 206.028C368.626 206.635 368.495 207.195 368.234 207.708C367.982 208.212 367.66 208.674 367.268 209.094C366.876 209.514 366.447 209.897 365.98 210.242C365.513 210.578 365.07 210.877 364.65 211.138L363.572 211.81H368.99V213H361.36V212.02L363.488 210.606C364.188 210.139 364.785 209.71 365.28 209.318C365.775 208.917 366.176 208.539 366.484 208.184C366.801 207.829 367.03 207.489 367.17 207.162C367.319 206.826 367.394 206.49 367.394 206.154C367.394 205.809 367.338 205.515 367.226 205.272C367.123 205.029 366.974 204.833 366.778 204.684C366.591 204.535 366.367 204.427 366.106 204.362C365.854 204.297 365.583 204.264 365.294 204.264C364.874 204.264 364.51 204.329 364.202 204.46C363.903 204.591 363.647 204.763 363.432 204.978C363.227 205.183 363.063 205.417 362.942 205.678C362.83 205.93 362.755 206.182 362.718 206.434L361.626 206.07ZM372.76 203.144H373.558V213H372.382V204.642L369.848 205.804L369.4 204.754L372.76 203.144Z" fill="#777F8C"/>
<rect x="334" y="45" width="50" height="148" fill="#BFCED4"/>
<rect x="334" y="45" width="50" height="4" fill="#A6B2BC"/>
<path d="M340.727 24.032H341.696V36H340.268V25.851L337.191 27.262L336.647 25.987L340.727 24.032ZM349.236 36.153C348.443 36.153 347.723 36.0283 347.077 35.779C346.443 35.5297 345.899 35.1613 345.445 34.674C344.992 34.1753 344.641 33.569 344.391 32.855C344.153 32.141 344.034 31.3137 344.034 30.373C344.034 29.3077 344.176 28.3727 344.459 27.568C344.743 26.7633 345.122 26.0947 345.598 25.562C346.086 25.018 346.647 24.6157 347.281 24.355C347.927 24.083 348.607 23.947 349.321 23.947C350.353 23.947 351.231 24.1567 351.956 24.576C352.682 24.9953 353.209 25.562 353.537 26.276L352.381 27.058C352.053 26.548 351.628 26.1457 351.106 25.851C350.596 25.545 349.979 25.392 349.253 25.392C348.687 25.392 348.177 25.5053 347.723 25.732C347.27 25.9473 346.879 26.2647 346.55 26.684C346.222 27.092 345.967 27.5907 345.785 28.18C345.604 28.758 345.508 29.4097 345.496 30.135V30.322C345.655 29.948 345.87 29.6193 346.142 29.336C346.426 29.0527 346.743 28.8147 347.094 28.622C347.446 28.4293 347.82 28.2877 348.216 28.197C348.624 28.095 349.038 28.044 349.457 28.044C350.149 28.044 350.772 28.1403 351.327 28.333C351.883 28.5257 352.353 28.7977 352.738 29.149C353.135 29.5003 353.435 29.9197 353.639 30.407C353.843 30.8943 353.945 31.4327 353.945 32.022C353.945 32.634 353.821 33.195 353.571 33.705C353.333 34.215 352.999 34.6513 352.568 35.014C352.149 35.3767 351.65 35.66 351.072 35.864C350.506 36.0567 349.894 36.153 349.236 36.153ZM349.219 34.708C349.695 34.708 350.126 34.6457 350.511 34.521C350.908 34.3963 351.248 34.2207 351.531 33.994C351.826 33.756 352.053 33.4783 352.211 33.161C352.37 32.8437 352.449 32.4867 352.449 32.09C352.449 31.6593 352.37 31.2853 352.211 30.968C352.064 30.6393 351.854 30.3673 351.582 30.152C351.31 29.9253 350.982 29.761 350.596 29.659C350.222 29.5457 349.814 29.489 349.372 29.489C348.284 29.489 347.457 29.7213 346.89 30.186C346.335 30.6507 346.057 31.2457 346.057 31.971C346.057 32.345 346.131 32.6963 346.278 33.025C346.426 33.3537 346.635 33.6427 346.907 33.892C347.179 34.1413 347.508 34.3397 347.893 34.487C348.29 34.6343 348.732 34.708 349.219 34.708ZM358.74 24.032H359.709V36H358.281V25.851L355.204 27.262L354.66 25.987L358.74 24.032ZM362.166 35.031C362.166 34.8043 362.262 34.589 362.455 34.385C362.648 34.181 362.903 34.079 363.22 34.079C363.515 34.079 363.758 34.181 363.951 34.385C364.144 34.589 364.24 34.8043 364.24 35.031C364.24 35.2917 364.144 35.524 363.951 35.728C363.758 35.932 363.515 36.034 363.22 36.034C362.903 36.034 362.648 35.932 362.455 35.728C362.262 35.524 362.166 35.2917 362.166 35.031ZM365.815 30.05C365.815 29.166 365.917 28.3557 366.121 27.619C366.325 26.871 366.631 26.225 367.039 25.681C367.459 25.137 367.986 24.712 368.62 24.406C369.255 24.1 370.003 23.947 370.864 23.947C371.726 23.947 372.474 24.0887 373.108 24.372C373.743 24.6553 374.27 25.0633 374.689 25.596C375.109 26.1287 375.42 26.7747 375.624 27.534C375.828 28.282 375.93 29.1207 375.93 30.05C375.93 30.934 375.828 31.75 375.624 32.498C375.432 33.2347 375.126 33.875 374.706 34.419C374.298 34.963 373.777 35.388 373.142 35.694C372.508 36 371.76 36.153 370.898 36.153C370.082 36.153 369.357 36 368.722 35.694C368.088 35.388 367.555 34.963 367.124 34.419C366.694 33.875 366.365 33.2347 366.138 32.498C365.923 31.75 365.815 30.934 365.815 30.05ZM367.311 30.05C367.311 31.5007 367.629 32.6397 368.263 33.467C368.898 34.2943 369.776 34.708 370.898 34.708C372.122 34.708 373.018 34.2943 373.584 33.467C374.151 32.6397 374.434 31.5007 374.434 30.05C374.434 28.5993 374.145 27.4603 373.567 26.633C372.989 25.8057 372.088 25.392 370.864 25.392C370.252 25.392 369.725 25.4997 369.283 25.715C368.841 25.9303 368.473 26.242 368.178 26.65C367.884 27.058 367.663 27.551 367.515 28.129C367.379 28.6957 367.311 29.336 367.311 30.05Z" fill="#222429"/>
<path d="M163.435 206.07C163.519 205.669 163.659 205.286 163.855 204.922C164.051 204.558 164.303 204.241 164.611 203.97C164.919 203.69 165.288 203.471 165.717 203.312C166.147 203.153 166.637 203.074 167.187 203.074C167.701 203.074 168.158 203.149 168.559 203.298C168.961 203.438 169.301 203.639 169.581 203.9C169.861 204.161 170.071 204.474 170.211 204.838C170.361 205.202 170.435 205.599 170.435 206.028C170.435 206.635 170.305 207.195 170.043 207.708C169.791 208.212 169.469 208.674 169.077 209.094C168.685 209.514 168.256 209.897 167.789 210.242C167.323 210.578 166.879 210.877 166.459 211.138L165.381 211.81H170.799V213H163.169V212.02L165.297 210.606C165.997 210.139 166.595 209.71 167.089 209.318C167.584 208.917 167.985 208.539 168.293 208.184C168.611 207.829 168.839 207.489 168.979 207.162C169.129 206.826 169.203 206.49 169.203 206.154C169.203 205.809 169.147 205.515 169.035 205.272C168.933 205.029 168.783 204.833 168.587 204.684C168.401 204.535 168.177 204.427 167.915 204.362C167.663 204.297 167.393 204.264 167.103 204.264C166.683 204.264 166.319 204.329 166.011 204.46C165.713 204.591 165.456 204.763 165.241 204.978C165.036 205.183 164.873 205.417 164.751 205.678C164.639 205.93 164.565 206.182 164.527 206.434L163.435 206.07ZM171.77 208.1C171.77 207.372 171.854 206.705 172.022 206.098C172.19 205.482 172.442 204.95 172.778 204.502C173.123 204.054 173.557 203.704 174.08 203.452C174.602 203.2 175.218 203.074 175.928 203.074C176.637 203.074 177.253 203.191 177.776 203.424C178.298 203.657 178.732 203.993 179.078 204.432C179.423 204.871 179.68 205.403 179.848 206.028C180.016 206.644 180.1 207.335 180.1 208.1C180.1 208.828 180.016 209.5 179.848 210.116C179.689 210.723 179.437 211.25 179.092 211.698C178.756 212.146 178.326 212.496 177.804 212.748C177.281 213 176.665 213.126 175.956 213.126C175.284 213.126 174.686 213 174.164 212.748C173.641 212.496 173.202 212.146 172.848 211.698C172.493 211.25 172.222 210.723 172.036 210.116C171.858 209.5 171.77 208.828 171.77 208.1ZM173.002 208.1C173.002 209.295 173.263 210.233 173.786 210.914C174.308 211.595 175.032 211.936 175.956 211.936C176.964 211.936 177.701 211.595 178.168 210.914C178.634 210.233 178.868 209.295 178.868 208.1C178.868 206.905 178.63 205.967 178.154 205.286C177.678 204.605 176.936 204.264 175.928 204.264C175.424 204.264 174.99 204.353 174.626 204.53C174.262 204.707 173.958 204.964 173.716 205.3C173.473 205.636 173.291 206.042 173.17 206.518C173.058 206.985 173.002 207.512 173.002 208.1ZM183.945 203.144H184.743V213H183.567V204.642L181.033 205.804L180.585 204.754L183.945 203.144ZM190.295 213.126C189.445 213.126 188.717 212.963 188.111 212.636C187.513 212.309 187.065 211.894 186.767 211.39L187.775 210.69C188.064 211.091 188.442 211.399 188.909 211.614C189.385 211.829 189.903 211.936 190.463 211.936C190.892 211.936 191.284 211.852 191.639 211.684C192.003 211.507 192.315 211.264 192.577 210.956C192.847 210.648 193.057 210.284 193.207 209.864C193.356 209.444 193.431 208.987 193.431 208.492C193.431 208.436 193.431 208.38 193.431 208.324C193.431 208.268 193.426 208.212 193.417 208.156C193.193 208.688 192.81 209.131 192.269 209.486C191.737 209.831 191.06 210.004 190.239 210.004C189.697 210.004 189.198 209.925 188.741 209.766C188.283 209.598 187.887 209.369 187.551 209.08C187.215 208.781 186.953 208.427 186.767 208.016C186.58 207.605 186.487 207.148 186.487 206.644C186.487 206.103 186.585 205.613 186.781 205.174C186.986 204.726 187.271 204.348 187.635 204.04C187.999 203.732 188.433 203.494 188.937 203.326C189.45 203.158 190.015 203.074 190.631 203.074C191.256 203.074 191.816 203.181 192.311 203.396C192.815 203.601 193.239 203.909 193.585 204.32C193.939 204.731 194.21 205.239 194.397 205.846C194.583 206.443 194.677 207.134 194.677 207.918C194.677 208.777 194.569 209.533 194.355 210.186C194.149 210.83 193.851 211.371 193.459 211.81C193.076 212.239 192.614 212.566 192.073 212.79C191.541 213.014 190.948 213.126 190.295 213.126ZM190.463 208.814C190.864 208.814 191.228 208.758 191.555 208.646C191.881 208.534 192.157 208.38 192.381 208.184C192.614 207.979 192.791 207.741 192.913 207.47C193.034 207.199 193.095 206.91 193.095 206.602C193.095 206.303 193.048 206.014 192.955 205.734C192.861 205.454 192.712 205.207 192.507 204.992C192.301 204.768 192.031 204.591 191.695 204.46C191.368 204.329 190.967 204.264 190.491 204.264C189.623 204.264 188.941 204.46 188.447 204.852C187.961 205.235 187.719 205.799 187.719 206.546C187.719 207.255 187.966 207.811 188.461 208.212C188.955 208.613 189.623 208.814 190.463 208.814Z" fill="#777F8C"/>
<rect x="154" y="81" width="50" height="112" fill="#BFCED4"/>
<rect x="154" y="81" width="50" height="4" fill="#A6B2BC"/>
<path d="M159.449 60.032H160.418V72H158.99V61.851L155.913 63.262L155.369 61.987L159.449 60.032ZM162.875 63.585C162.977 63.0977 163.147 62.633 163.385 62.191C163.623 61.749 163.929 61.3637 164.303 61.035C164.677 60.695 165.125 60.4287 165.646 60.236C166.167 60.0433 166.762 59.947 167.431 59.947C168.054 59.947 168.61 60.0377 169.097 60.219C169.584 60.389 169.998 60.6327 170.338 60.95C170.678 61.2673 170.933 61.647 171.103 62.089C171.284 62.531 171.375 63.0127 171.375 63.534C171.375 64.2707 171.216 64.9507 170.899 65.574C170.593 66.186 170.202 66.747 169.726 67.257C169.25 67.767 168.729 68.2317 168.162 68.651C167.595 69.059 167.057 69.4217 166.547 69.739L165.238 70.555H171.817V72H162.552V70.81L165.136 69.093C165.986 68.5263 166.711 68.005 167.312 67.529C167.913 67.0417 168.4 66.5827 168.774 66.152C169.159 65.7213 169.437 65.3077 169.607 64.911C169.788 64.503 169.879 64.095 169.879 63.687C169.879 63.2677 169.811 62.9107 169.675 62.616C169.55 62.3213 169.369 62.0833 169.131 61.902C168.904 61.7207 168.632 61.5903 168.315 61.511C168.009 61.4317 167.68 61.392 167.329 61.392C166.819 61.392 166.377 61.4713 166.003 61.63C165.64 61.7887 165.329 61.9983 165.068 62.259C164.819 62.5083 164.62 62.7917 164.473 63.109C164.337 63.415 164.246 63.721 164.201 64.027L162.875 63.585ZM173.284 63.585C173.386 63.0977 173.556 62.633 173.794 62.191C174.032 61.749 174.338 61.3637 174.712 61.035C175.086 60.695 175.534 60.4287 176.055 60.236C176.576 60.0433 177.171 59.947 177.84 59.947C178.463 59.947 179.019 60.0377 179.506 60.219C179.993 60.389 180.407 60.6327 180.747 60.95C181.087 61.2673 181.342 61.647 181.512 62.089C181.693 62.531 181.784 63.0127 181.784 63.534C181.784 64.2707 181.625 64.9507 181.308 65.574C181.002 66.186 180.611 66.747 180.135 67.257C179.659 67.767 179.138 68.2317 178.571 68.651C178.004 69.059 177.466 69.4217 176.956 69.739L175.647 70.555H182.226V72H172.961V70.81L175.545 69.093C176.395 68.5263 177.12 68.005 177.721 67.529C178.322 67.0417 178.809 66.5827 179.183 66.152C179.568 65.7213 179.846 65.3077 180.016 64.911C180.197 64.503 180.288 64.095 180.288 63.687C180.288 63.2677 180.22 62.9107 180.084 62.616C179.959 62.3213 179.778 62.0833 179.54 61.902C179.313 61.7207 179.041 61.5903 178.724 61.511C178.418 61.4317 178.089 61.392 177.738 61.392C177.228 61.392 176.786 61.4713 176.412 61.63C176.049 61.7887 175.738 61.9983 175.477 62.259C175.228 62.5083 175.029 62.7917 174.882 63.109C174.746 63.415 174.655 63.721 174.61 64.027L173.284 63.585ZM183.693 71.031C183.693 70.8043 183.79 70.589 183.982 70.385C184.175 70.181 184.43 70.079 184.747 70.079C185.042 70.079 185.286 70.181 185.478 70.385C185.671 70.589 185.767 70.8043 185.767 71.031C185.767 71.2917 185.671 71.524 185.478 71.728C185.286 71.932 185.042 72.034 184.747 72.034C184.43 72.034 184.175 71.932 183.982 71.728C183.79 71.524 183.693 71.2917 183.693 71.031ZM192.545 72.153C191.751 72.153 191.032 72.0283 190.386 71.779C189.751 71.5297 189.207 71.1613 188.754 70.674C188.3 70.1753 187.949 69.569 187.7 68.855C187.462 68.141 187.343 67.3137 187.343 66.373C187.343 65.3077 187.484 64.3727 187.768 63.568C188.051 62.7633 188.431 62.0947 188.907 61.562C189.394 61.018 189.955 60.6157 190.59 60.355C191.236 60.083 191.916 59.947 192.63 59.947C193.661 59.947 194.539 60.1567 195.265 60.576C195.99 60.9953 196.517 61.562 196.846 62.276L195.69 63.058C195.361 62.548 194.936 62.1457 194.415 61.851C193.905 61.545 193.287 61.392 192.562 61.392C191.995 61.392 191.485 61.5053 191.032 61.732C190.578 61.9473 190.187 62.2647 189.859 62.684C189.53 63.092 189.275 63.5907 189.094 64.18C188.912 64.758 188.816 65.4097 188.805 66.135V66.322C188.963 65.948 189.179 65.6193 189.451 65.336C189.734 65.0527 190.051 64.8147 190.403 64.622C190.754 64.4293 191.128 64.2877 191.525 64.197C191.933 64.095 192.346 64.044 192.766 64.044C193.457 64.044 194.08 64.1403 194.636 64.333C195.191 64.5257 195.661 64.7977 196.047 65.149C196.443 65.5003 196.744 65.9197 196.948 66.407C197.152 66.8943 197.254 67.4327 197.254 68.022C197.254 68.634 197.129 69.195 196.88 69.705C196.642 70.215 196.307 70.6513 195.877 71.014C195.457 71.3767 194.959 71.66 194.381 71.864C193.814 72.0567 193.202 72.153 192.545 72.153ZM192.528 70.708C193.004 70.708 193.434 70.6457 193.82 70.521C194.216 70.3963 194.556 70.2207 194.84 69.994C195.134 69.756 195.361 69.4783 195.52 69.161C195.678 68.8437 195.758 68.4867 195.758 68.09C195.758 67.6593 195.678 67.2853 195.52 66.968C195.372 66.6393 195.163 66.3673 194.891 66.152C194.619 65.9253 194.29 65.761 193.905 65.659C193.531 65.5457 193.123 65.489 192.681 65.489C191.593 65.489 190.765 65.7213 190.199 66.186C189.643 66.6507 189.366 67.2457 189.366 67.971C189.366 68.345 189.439 68.6963 189.587 69.025C189.734 69.3537 189.944 69.6427 190.216 69.892C190.488 70.1413 190.816 70.3397 191.202 70.487C191.598 70.6343 192.04 70.708 192.528 70.708Z" fill="#222429"/>
<path d="M73.4354 206.07C73.5194 205.669 73.6594 205.286 73.8554 204.922C74.0514 204.558 74.3034 204.241 74.6114 203.97C74.9194 203.69 75.2881 203.471 75.7174 203.312C76.1467 203.153 76.6367 203.074 77.1874 203.074C77.7007 203.074 78.1581 203.149 78.5594 203.298C78.9607 203.438 79.3014 203.639 79.5814 203.9C79.8614 204.161 80.0714 204.474 80.2114 204.838C80.3607 205.202 80.4354 205.599 80.4354 206.028C80.4354 206.635 80.3047 207.195 80.0434 207.708C79.7914 208.212 79.4694 208.674 79.0774 209.094C78.6854 209.514 78.2561 209.897 77.7894 210.242C77.3227 210.578 76.8794 210.877 76.4594 211.138L75.3814 211.81H80.7994V213H73.1694V212.02L75.2974 210.606C75.9974 210.139 76.5947 209.71 77.0894 209.318C77.5841 208.917 77.9854 208.539 78.2934 208.184C78.6107 207.829 78.8394 207.489 78.9794 207.162C79.1287 206.826 79.2034 206.49 79.2034 206.154C79.2034 205.809 79.1474 205.515 79.0354 205.272C78.9327 205.029 78.7834 204.833 78.5874 204.684C78.4007 204.535 78.1767 204.427 77.9154 204.362C77.6634 204.297 77.3927 204.264 77.1034 204.264C76.6834 204.264 76.3194 204.329 76.0114 204.46C75.7127 204.591 75.4561 204.763 75.2414 204.978C75.0361 205.183 74.8727 205.417 74.7514 205.678C74.6394 205.93 74.5647 206.182 74.5274 206.434L73.4354 206.07ZM81.7697 208.1C81.7697 207.372 81.8537 206.705 82.0217 206.098C82.1897 205.482 82.4417 204.95 82.7777 204.502C83.123 204.054 83.557 203.704 84.0797 203.452C84.6023 203.2 85.2183 203.074 85.9277 203.074C86.637 203.074 87.253 203.191 87.7757 203.424C88.2983 203.657 88.7323 203.993 89.0777 204.432C89.423 204.871 89.6797 205.403 89.8477 206.028C90.0157 206.644 90.0997 207.335 90.0997 208.1C90.0997 208.828 90.0157 209.5 89.8477 210.116C89.689 210.723 89.437 211.25 89.0917 211.698C88.7557 212.146 88.3263 212.496 87.8037 212.748C87.281 213 86.665 213.126 85.9557 213.126C85.2837 213.126 84.6863 213 84.1637 212.748C83.641 212.496 83.2023 212.146 82.8477 211.698C82.493 211.25 82.2223 210.723 82.0357 210.116C81.8583 209.5 81.7697 208.828 81.7697 208.1ZM83.0017 208.1C83.0017 209.295 83.263 210.233 83.7857 210.914C84.3083 211.595 85.0317 211.936 85.9557 211.936C86.9637 211.936 87.701 211.595 88.1677 210.914C88.6343 210.233 88.8677 209.295 88.8677 208.1C88.8677 206.905 88.6297 205.967 88.1537 205.286C87.6777 204.605 86.9357 204.264 85.9277 204.264C85.4237 204.264 84.9897 204.353 84.6257 204.53C84.2617 204.707 83.9583 204.964 83.7157 205.3C83.473 205.636 83.291 206.042 83.1697 206.518C83.0577 206.985 83.0017 207.512 83.0017 208.1ZM93.9453 203.144H94.7433V213H93.5673V204.642L91.0333 205.804L90.5853 204.754L93.9453 203.144ZM100.827 207.414C101.144 207.414 101.438 207.377 101.709 207.302C101.989 207.218 102.231 207.106 102.437 206.966C102.642 206.826 102.801 206.658 102.913 206.462C103.034 206.266 103.095 206.051 103.095 205.818C103.095 205.314 102.885 204.931 102.465 204.67C102.054 204.399 101.424 204.264 100.575 204.264C99.7534 204.264 99.1327 204.399 98.7127 204.67C98.3021 204.941 98.0967 205.323 98.0967 205.818C98.0967 206.042 98.1527 206.252 98.2647 206.448C98.3767 206.644 98.5307 206.817 98.7267 206.966C98.9321 207.106 99.1747 207.218 99.4547 207.302C99.7441 207.377 100.057 207.414 100.393 207.414H100.827ZM100.449 208.52C100.057 208.52 99.6927 208.567 99.3567 208.66C99.0301 208.744 98.7501 208.865 98.5167 209.024C98.2834 209.173 98.1014 209.355 97.9707 209.57C97.8401 209.775 97.7747 209.995 97.7747 210.228C97.7747 210.732 98.0081 211.143 98.4747 211.46C98.9507 211.777 99.6554 211.936 100.589 211.936C101.55 211.936 102.259 211.787 102.717 211.488C103.174 211.18 103.403 210.765 103.403 210.242C103.403 209.691 103.165 209.267 102.689 208.968C102.222 208.669 101.592 208.52 100.799 208.52H100.449ZM100.603 213.126C99.9774 213.126 99.4127 213.065 98.9087 212.944C98.4141 212.813 97.9894 212.631 97.6347 212.398C97.2894 212.155 97.0187 211.866 96.8227 211.53C96.6361 211.185 96.5427 210.793 96.5427 210.354C96.5427 209.775 96.7154 209.276 97.0607 208.856C97.4154 208.427 97.8867 208.119 98.4747 207.932C98.1947 207.839 97.9521 207.717 97.7467 207.568C97.5414 207.409 97.3734 207.232 97.2427 207.036C97.1121 206.84 97.0141 206.635 96.9487 206.42C96.8927 206.196 96.8647 205.967 96.8647 205.734C96.8647 204.922 97.1821 204.278 97.8167 203.802C98.4607 203.317 99.3847 203.074 100.589 203.074C101.802 203.074 102.726 203.317 103.361 203.802C104.005 204.278 104.327 204.922 104.327 205.734C104.327 206.238 104.187 206.663 103.907 207.008C103.636 207.353 103.258 207.638 102.773 207.862C103.445 208.067 103.921 208.375 104.201 208.786C104.49 209.197 104.635 209.701 104.635 210.298C104.635 210.746 104.541 211.147 104.355 211.502C104.168 211.847 103.897 212.141 103.543 212.384C103.197 212.627 102.773 212.813 102.269 212.944C101.774 213.065 101.219 213.126 100.603 213.126Z" fill="#777F8C"/>
<rect x="64" y="95" width="50" height="98" fill="#BFCED4"/>
<rect x="64" y="95" width="50" height="4" fill="#A6B2BC"/>
<path d="M72.1217 74.032H73.0907V86H71.6627V75.851L68.5857 77.262L68.0417 75.987L72.1217 74.032ZM75.4288 80.05C75.4288 79.166 75.5308 78.3557 75.7348 77.619C75.9388 76.871 76.2448 76.225 76.6528 75.681C77.0721 75.137 77.5991 74.712 78.2338 74.406C78.8684 74.1 79.6164 73.947 80.4778 73.947C81.3391 73.947 82.0871 74.0887 82.7218 74.372C83.3564 74.6553 83.8834 75.0633 84.3028 75.596C84.7221 76.1287 85.0338 76.7747 85.2378 77.534C85.4418 78.282 85.5438 79.1207 85.5438 80.05C85.5438 80.934 85.4418 81.75 85.2378 82.498C85.0451 83.2347 84.7391 83.875 84.3198 84.419C83.9118 84.963 83.3904 85.388 82.7558 85.694C82.1211 86 81.3731 86.153 80.5118 86.153C79.6958 86.153 78.9704 86 78.3358 85.694C77.7011 85.388 77.1684 84.963 76.7378 84.419C76.3071 83.875 75.9784 83.2347 75.7518 82.498C75.5364 81.75 75.4288 80.934 75.4288 80.05ZM76.9248 80.05C76.9248 81.5007 77.2421 82.6397 77.8768 83.467C78.5114 84.2943 79.3898 84.708 80.5118 84.708C81.7358 84.708 82.6311 84.2943 83.1978 83.467C83.7644 82.6397 84.0478 81.5007 84.0478 80.05C84.0478 78.5993 83.7588 77.4603 83.1808 76.633C82.6028 75.8057 81.7018 75.392 80.4778 75.392C79.8658 75.392 79.3388 75.4997 78.8968 75.715C78.4548 75.9303 78.0864 76.242 77.7918 76.65C77.4971 77.058 77.2761 77.551 77.1288 78.129C76.9928 78.6957 76.9248 79.336 76.9248 80.05ZM86.5924 74.1H95.6194V75.069L89.7034 86H88.0884L93.8004 75.545H86.5924V74.1ZM95.7851 85.031C95.7851 84.8043 95.8814 84.589 96.0741 84.385C96.2667 84.181 96.5217 84.079 96.8391 84.079C97.1337 84.079 97.3774 84.181 97.5701 84.385C97.7627 84.589 97.8591 84.8043 97.8591 85.031C97.8591 85.2917 97.7627 85.524 97.5701 85.728C97.3774 85.932 97.1337 86.034 96.8391 86.034C96.5217 86.034 96.2667 85.932 96.0741 85.728C95.8814 85.524 95.7851 85.2917 95.7851 85.031ZM104.637 86.153C103.843 86.153 103.124 86.0283 102.478 85.779C101.843 85.5297 101.299 85.1613 100.846 84.674C100.392 84.1753 100.041 83.569 99.7916 82.855C99.5536 82.141 99.4346 81.3137 99.4346 80.373C99.4346 79.3077 99.5763 78.3727 99.8596 77.568C100.143 76.7633 100.523 76.0947 100.999 75.562C101.486 75.018 102.047 74.6157 102.682 74.355C103.328 74.083 104.008 73.947 104.722 73.947C105.753 73.947 106.631 74.1567 107.357 74.576C108.082 74.9953 108.609 75.562 108.938 76.276L107.782 77.058C107.453 76.548 107.028 76.1457 106.507 75.851C105.997 75.545 105.379 75.392 104.654 75.392C104.087 75.392 103.577 75.5053 103.124 75.732C102.67 75.9473 102.279 76.2647 101.951 76.684C101.622 77.092 101.367 77.5907 101.186 78.18C101.004 78.758 100.908 79.4097 100.897 80.135V80.322C101.055 79.948 101.271 79.6193 101.543 79.336C101.826 79.0527 102.143 78.8147 102.495 78.622C102.846 78.4293 103.22 78.2877 103.617 78.197C104.025 78.095 104.438 78.044 104.858 78.044C105.549 78.044 106.172 78.1403 106.728 78.333C107.283 78.5257 107.753 78.7977 108.139 79.149C108.535 79.5003 108.836 79.9197 109.04 80.407C109.244 80.8943 109.346 81.4327 109.346 82.022C109.346 82.634 109.221 83.195 108.972 83.705C108.734 84.215 108.399 84.6513 107.969 85.014C107.549 85.3767 107.051 85.66 106.473 85.864C105.906 86.0567 105.294 86.153 104.637 86.153ZM104.62 84.708C105.096 84.708 105.526 84.6457 105.912 84.521C106.308 84.3963 106.648 84.2207 106.932 83.994C107.226 83.756 107.453 83.4783 107.612 83.161C107.77 82.8437 107.85 82.4867 107.85 82.09C107.85 81.6593 107.77 81.2853 107.612 80.968C107.464 80.6393 107.255 80.3673 106.983 80.152C106.711 79.9253 106.382 79.761 105.997 79.659C105.623 79.5457 105.215 79.489 104.773 79.489C103.685 79.489 102.857 79.7213 102.291 80.186C101.735 80.6507 101.458 81.2457 101.458 81.971C101.458 82.345 101.531 82.6963 101.679 83.025C101.826 83.3537 102.036 83.6427 102.308 83.892C102.58 84.1413 102.908 84.3397 103.294 84.487C103.69 84.6343 104.132 84.708 104.62 84.708Z" fill="#222429"/>
<path d="M76.528 153.62H81.616L77.584 161H78.724L82.9 153.284V152.6H76.528V153.62ZM82.657 160.316C82.657 160.688 82.957 161.024 83.401 161.024C83.821 161.024 84.121 160.688 84.121 160.316C84.121 159.992 83.821 159.644 83.401 159.644C82.957 159.644 82.657 159.992 82.657 160.316ZM84.8731 156.8C84.8731 159.284 86.1451 161.108 88.4611 161.108C90.9091 161.108 92.0131 159.284 92.0131 156.8C92.0131 154.16 90.8731 152.492 88.4371 152.492C86.0131 152.492 84.8731 154.316 84.8731 156.8ZM85.9291 156.8C85.9291 154.784 86.7211 153.512 88.4371 153.512C90.1651 153.512 90.9571 154.748 90.9571 156.8C90.9571 158.84 90.1891 160.088 88.4611 160.088C86.8891 160.088 85.9291 158.84 85.9291 156.8ZM93.9654 160.724L94.7574 161.18L100.925 152.888L100.169 152.336L93.9654 160.724ZM92.6694 154.616C92.6694 155.816 93.6174 156.656 94.8654 156.656C96.1014 156.656 97.0494 155.816 97.0494 154.616C97.0494 153.404 96.1014 152.564 94.8654 152.564C93.6174 152.564 92.6694 153.404 92.6694 154.616ZM93.6774 154.616C93.6774 153.896 94.2294 153.428 94.8654 153.428C95.4894 153.428 96.0414 153.896 96.0414 154.616C96.0414 155.336 95.4894 155.804 94.8654 155.804C94.2534 155.804 93.6774 155.336 93.6774 154.616ZM97.8174 158.996C97.8174 160.196 98.7654 161.048 100.013 161.048C101.249 161.048 102.197 160.196 102.197 158.996C102.197 157.796 101.249 156.956 100.013 156.956C98.7654 156.956 97.8174 157.796 97.8174 158.996ZM98.8254 158.996C98.8254 158.276 99.3774 157.808 100.013 157.808C100.637 157.808 101.189 158.276 101.189 158.996C101.189 159.716 100.637 160.184 100.013 160.184C99.4014 160.184 98.8254 159.716 98.8254 158.996Z" fill="#50565E"/>
<rect x="64" y="171" width="50" height="1" fill="#9299A3"/>
<path d="M167.739 143.62H172.827L168.795 151H169.935L174.111 143.284V142.6H167.739V143.62ZM173.868 150.316C173.868 150.688 174.168 151.024 174.612 151.024C175.032 151.024 175.332 150.688 175.332 150.316C175.332 149.992 175.032 149.644 174.612 149.644C174.168 149.644 173.868 149.992 173.868 150.316ZM175.604 143.932L175.988 144.832L178.16 143.836V151H179.168V142.552H178.484L175.604 143.932ZM181.754 150.724L182.546 151.18L188.714 142.888L187.958 142.336L181.754 150.724ZM180.458 144.616C180.458 145.816 181.406 146.656 182.654 146.656C183.89 146.656 184.838 145.816 184.838 144.616C184.838 143.404 183.89 142.564 182.654 142.564C181.406 142.564 180.458 143.404 180.458 144.616ZM181.466 144.616C181.466 143.896 182.018 143.428 182.654 143.428C183.278 143.428 183.83 143.896 183.83 144.616C183.83 145.336 183.278 145.804 182.654 145.804C182.042 145.804 181.466 145.336 181.466 144.616ZM185.606 148.996C185.606 150.196 186.554 151.048 187.802 151.048C189.038 151.048 189.986 150.196 189.986 148.996C189.986 147.796 189.038 146.956 187.802 146.956C186.554 146.956 185.606 147.796 185.606 148.996ZM186.614 148.996C186.614 148.276 187.166 147.808 187.802 147.808C188.426 147.808 188.978 148.276 188.978 148.996C188.978 149.716 188.426 150.184 187.802 150.184C187.19 150.184 186.614 149.716 186.614 148.996Z" fill="#50565E"/>
<rect x="154" y="161" width="50" height="1" fill="#9299A3"/>
<path d="M251.822 206.07C251.906 205.669 252.046 205.286 252.242 204.922C252.438 204.558 252.69 204.241 252.998 203.97C253.306 203.69 253.675 203.471 254.104 203.312C254.533 203.153 255.023 203.074 255.574 203.074C256.087 203.074 256.545 203.149 256.946 203.298C257.347 203.438 257.688 203.639 257.968 203.9C258.248 204.161 258.458 204.474 258.598 204.838C258.747 205.202 258.822 205.599 258.822 206.028C258.822 206.635 258.691 207.195 258.43 207.708C258.178 208.212 257.856 208.674 257.464 209.094C257.072 209.514 256.643 209.897 256.176 210.242C255.709 210.578 255.266 210.877 254.846 211.138L253.768 211.81H259.186V213H251.556V212.02L253.684 210.606C254.384 210.139 254.981 209.71 255.476 209.318C255.971 208.917 256.372 208.539 256.68 208.184C256.997 207.829 257.226 207.489 257.366 207.162C257.515 206.826 257.59 206.49 257.59 206.154C257.59 205.809 257.534 205.515 257.422 205.272C257.319 205.029 257.17 204.833 256.974 204.684C256.787 204.535 256.563 204.427 256.302 204.362C256.05 204.297 255.779 204.264 255.49 204.264C255.07 204.264 254.706 204.329 254.398 204.46C254.099 204.591 253.843 204.763 253.628 204.978C253.423 205.183 253.259 205.417 253.138 205.678C253.026 205.93 252.951 206.182 252.914 206.434L251.822 206.07ZM260.156 208.1C260.156 207.372 260.24 206.705 260.408 206.098C260.576 205.482 260.828 204.95 261.164 204.502C261.51 204.054 261.944 203.704 262.466 203.452C262.989 203.2 263.605 203.074 264.314 203.074C265.024 203.074 265.64 203.191 266.162 203.424C266.685 203.657 267.119 203.993 267.464 204.432C267.81 204.871 268.066 205.403 268.234 206.028C268.402 206.644 268.486 207.335 268.486 208.1C268.486 208.828 268.402 209.5 268.234 210.116C268.076 210.723 267.824 211.25 267.478 211.698C267.142 212.146 266.713 212.496 266.19 212.748C265.668 213 265.052 213.126 264.342 213.126C263.67 213.126 263.073 213 262.55 212.748C262.028 212.496 261.589 212.146 261.234 211.698C260.88 211.25 260.609 210.723 260.422 210.116C260.245 209.5 260.156 208.828 260.156 208.1ZM261.388 208.1C261.388 209.295 261.65 210.233 262.172 210.914C262.695 211.595 263.418 211.936 264.342 211.936C265.35 211.936 266.088 211.595 266.554 210.914C267.021 210.233 267.254 209.295 267.254 208.1C267.254 206.905 267.016 205.967 266.54 205.286C266.064 204.605 265.322 204.264 264.314 204.264C263.81 204.264 263.376 204.353 263.012 204.53C262.648 204.707 262.345 204.964 262.102 205.3C261.86 205.636 261.678 206.042 261.556 206.518C261.444 206.985 261.388 207.512 261.388 208.1ZM269.63 206.07C269.714 205.669 269.854 205.286 270.05 204.922C270.246 204.558 270.498 204.241 270.806 203.97C271.114 203.69 271.483 203.471 271.912 203.312C272.341 203.153 272.831 203.074 273.382 203.074C273.895 203.074 274.353 203.149 274.754 203.298C275.155 203.438 275.496 203.639 275.776 203.9C276.056 204.161 276.266 204.474 276.406 204.838C276.555 205.202 276.63 205.599 276.63 206.028C276.63 206.635 276.499 207.195 276.238 207.708C275.986 208.212 275.664 208.674 275.272 209.094C274.88 209.514 274.451 209.897 273.984 210.242C273.517 210.578 273.074 210.877 272.654 211.138L271.576 211.81H276.994V213H269.364V212.02L271.492 210.606C272.192 210.139 272.789 209.71 273.284 209.318C273.779 208.917 274.18 208.539 274.488 208.184C274.805 207.829 275.034 207.489 275.174 207.162C275.323 206.826 275.398 206.49 275.398 206.154C275.398 205.809 275.342 205.515 275.23 205.272C275.127 205.029 274.978 204.833 274.782 204.684C274.595 204.535 274.371 204.427 274.11 204.362C273.858 204.297 273.587 204.264 273.298 204.264C272.878 204.264 272.514 204.329 272.206 204.46C271.907 204.591 271.651 204.763 271.436 204.978C271.231 205.183 271.067 205.417 270.946 205.678C270.834 205.93 270.759 206.182 270.722 206.434L269.63 206.07ZM277.964 208.1C277.964 207.372 278.048 206.705 278.216 206.098C278.384 205.482 278.636 204.95 278.972 204.502C279.318 204.054 279.752 203.704 280.274 203.452C280.797 203.2 281.413 203.074 282.122 203.074C282.832 203.074 283.448 203.191 283.97 203.424C284.493 203.657 284.927 203.993 285.272 204.432C285.618 204.871 285.874 205.403 286.042 206.028C286.21 206.644 286.294 207.335 286.294 208.1C286.294 208.828 286.21 209.5 286.042 210.116C285.884 210.723 285.632 211.25 285.286 211.698C284.95 212.146 284.521 212.496 283.998 212.748C283.476 213 282.86 213.126 282.15 213.126C281.478 213.126 280.881 213 280.358 212.748C279.836 212.496 279.397 212.146 279.042 211.698C278.688 211.25 278.417 210.723 278.23 210.116C278.053 209.5 277.964 208.828 277.964 208.1ZM279.196 208.1C279.196 209.295 279.458 210.233 279.98 210.914C280.503 211.595 281.226 211.936 282.15 211.936C283.158 211.936 283.896 211.595 284.362 210.914C284.829 210.233 285.062 209.295 285.062 208.1C285.062 206.905 284.824 205.967 284.348 205.286C283.872 204.605 283.13 204.264 282.122 204.264C281.618 204.264 281.184 204.353 280.82 204.53C280.456 204.707 280.153 204.964 279.91 205.3C279.668 205.636 279.486 206.042 279.364 206.518C279.252 206.985 279.196 207.512 279.196 208.1Z" fill="#777F8C"/>
<rect x="244" y="60" width="50" height="133" fill="#BFCED4"/>
<rect x="244" y="60" width="50" height="4" fill="#A6B2BC"/>
<path d="M251.101 39.032H252.07V51H250.642V40.851L247.565 42.262L247.021 40.987L251.101 39.032ZM261.191 48.62H253.864V47.532L261.361 39.1H262.619V47.175H264.829V48.62H262.619V51H261.191V48.62ZM261.191 47.175V41.48L255.904 47.175H261.191ZM267.037 39.1H274.517V40.545H268.346L267.904 43.741C268.164 43.5483 268.516 43.3897 268.958 43.265C269.411 43.129 269.961 43.061 270.607 43.061C271.321 43.061 271.955 43.163 272.511 43.367C273.066 43.571 273.531 43.8543 273.905 44.217C274.279 44.5797 274.562 45.0047 274.755 45.492C274.959 45.9793 275.061 46.5007 275.061 47.056C275.061 47.6567 274.942 48.2063 274.704 48.705C274.477 49.2037 274.154 49.6343 273.735 49.997C273.327 50.3597 272.839 50.643 272.273 50.847C271.717 51.051 271.111 51.153 270.454 51.153C269.91 51.153 269.388 51.0907 268.89 50.966C268.391 50.8413 267.926 50.6543 267.496 50.405C267.076 50.1557 266.702 49.8553 266.374 49.504C266.056 49.1413 265.801 48.722 265.609 48.246L266.969 47.668C267.082 47.9287 267.241 48.1837 267.445 48.433C267.649 48.671 267.898 48.8863 268.193 49.079C268.487 49.2717 268.822 49.4247 269.196 49.538C269.57 49.6513 269.989 49.708 270.454 49.708C270.975 49.708 271.428 49.64 271.814 49.504C272.21 49.3567 272.539 49.164 272.8 48.926C273.06 48.688 273.253 48.416 273.378 48.11C273.502 47.7927 273.565 47.4583 273.565 47.107C273.565 46.3023 273.264 45.6677 272.664 45.203C272.074 44.7383 271.253 44.506 270.199 44.506C269.598 44.506 269.094 44.591 268.686 44.761C268.289 44.9197 267.915 45.1747 267.564 45.526L266.34 45.203L267.037 39.1ZM276.64 50.031C276.64 49.8043 276.736 49.589 276.929 49.385C277.122 49.181 277.377 49.079 277.694 49.079C277.989 49.079 278.232 49.181 278.425 49.385C278.618 49.589 278.714 49.8043 278.714 50.031C278.714 50.2917 278.618 50.524 278.425 50.728C278.232 50.932 277.989 51.034 277.694 51.034C277.377 51.034 277.122 50.932 276.929 50.728C276.736 50.524 276.64 50.2917 276.64 50.031ZM283.69 39.032H284.659V51H283.231V40.851L280.154 42.262L279.61 40.987L283.69 39.032Z" fill="#222429"/>
<path d="M256.403 123.62H261.491L257.459 131H258.599L262.775 123.284V122.6H256.403V123.62ZM262.532 130.316C262.532 130.688 262.832 131.024 263.276 131.024C263.696 131.024 263.996 130.688 263.996 130.316C263.996 129.992 263.696 129.644 263.276 129.644C262.832 129.644 262.532 129.992 262.532 130.316ZM265.576 125.048C265.864 124.28 266.608 123.512 267.976 123.512C269.092 123.512 269.8 123.956 269.8 124.808C269.8 125.6 268.972 126.2 267.592 126.2H266.848V127.196H267.784C269.032 127.196 269.992 127.52 269.992 128.588C269.992 129.548 269.248 130.088 268.048 130.088C266.524 130.088 265.84 129.308 265.42 128.432L264.448 128.852C264.856 130.184 266.092 131.108 267.976 131.108C269.716 131.108 271.048 130.208 271.048 128.576C271.048 127.232 270.208 126.632 269.38 126.572C270.34 126.296 270.856 125.576 270.856 124.604C270.856 123.308 269.668 122.492 268.024 122.492C266.2 122.492 265.12 123.404 264.676 124.64L265.576 125.048ZM273.09 130.724L273.882 131.18L280.05 122.888L279.294 122.336L273.09 130.724ZM271.794 124.616C271.794 125.816 272.742 126.656 273.99 126.656C275.226 126.656 276.174 125.816 276.174 124.616C276.174 123.404 275.226 122.564 273.99 122.564C272.742 122.564 271.794 123.404 271.794 124.616ZM272.802 124.616C272.802 123.896 273.354 123.428 273.99 123.428C274.614 123.428 275.166 123.896 275.166 124.616C275.166 125.336 274.614 125.804 273.99 125.804C273.378 125.804 272.802 125.336 272.802 124.616ZM276.942 128.996C276.942 130.196 277.89 131.048 279.138 131.048C280.374 131.048 281.322 130.196 281.322 128.996C281.322 127.796 280.374 126.956 279.138 126.956C277.89 126.956 276.942 127.796 276.942 128.996ZM277.95 128.996C277.95 128.276 278.502 127.808 279.138 127.808C279.762 127.808 280.314 128.276 280.314 128.996C280.314 129.716 279.762 130.184 279.138 130.184C278.526 130.184 277.95 129.716 277.95 128.996Z" fill="#50565E"/>
<rect x="244" y="141" width="50" height="1" fill="#9299A3"/>
<path d="M346.403 123.62H351.491L347.459 131H348.599L352.775 123.284V122.6H346.403V123.62ZM352.532 130.316C352.532 130.688 352.832 131.024 353.276 131.024C353.696 131.024 353.996 130.688 353.996 130.316C353.996 129.992 353.696 129.644 353.276 129.644C352.832 129.644 352.532 129.992 352.532 130.316ZM355.576 125.048C355.864 124.28 356.608 123.512 357.976 123.512C359.092 123.512 359.8 123.956 359.8 124.808C359.8 125.6 358.972 126.2 357.592 126.2H356.848V127.196H357.784C359.032 127.196 359.992 127.52 359.992 128.588C359.992 129.548 359.248 130.088 358.048 130.088C356.524 130.088 355.84 129.308 355.42 128.432L354.448 128.852C354.856 130.184 356.092 131.108 357.976 131.108C359.716 131.108 361.048 130.208 361.048 128.576C361.048 127.232 360.208 126.632 359.38 126.572C360.34 126.296 360.856 125.576 360.856 124.604C360.856 123.308 359.668 122.492 358.024 122.492C356.2 122.492 355.12 123.404 354.676 124.64L355.576 125.048ZM363.09 130.724L363.882 131.18L370.05 122.888L369.294 122.336L363.09 130.724ZM361.794 124.616C361.794 125.816 362.742 126.656 363.99 126.656C365.226 126.656 366.174 125.816 366.174 124.616C366.174 123.404 365.226 122.564 363.99 122.564C362.742 122.564 361.794 123.404 361.794 124.616ZM362.802 124.616C362.802 123.896 363.354 123.428 363.99 123.428C364.614 123.428 365.166 123.896 365.166 124.616C365.166 125.336 364.614 125.804 363.99 125.804C363.378 125.804 362.802 125.336 362.802 124.616ZM366.942 128.996C366.942 130.196 367.89 131.048 369.138 131.048C370.374 131.048 371.322 130.196 371.322 128.996C371.322 127.796 370.374 126.956 369.138 126.956C367.89 126.956 366.942 127.796 366.942 128.996ZM367.95 128.996C367.95 128.276 368.502 127.808 369.138 127.808C369.762 127.808 370.314 128.276 370.314 128.996C370.314 129.716 369.762 130.184 369.138 130.184C368.526 130.184 367.95 129.716 367.95 128.996Z" fill="#50565E"/>
<rect x="334" y="141" width="50" height="1" fill="#9299A3"/>
<path d="M436.432 133.62H441.52L437.488 141H438.628L442.804 133.284V132.6H436.432V133.62ZM442.561 140.316C442.561 140.688 442.861 141.024 443.305 141.024C443.725 141.024 444.025 140.688 444.025 140.316C444.025 139.992 443.725 139.644 443.305 139.644C442.861 139.644 442.561 139.992 442.561 140.316ZM445.797 135.372C445.929 134.52 446.577 133.512 448.005 133.512C449.013 133.512 449.805 133.944 449.805 135.132C449.805 136.284 448.857 137.352 446.457 138.948L444.633 140.16V141H451.173V139.98H446.529L447.453 139.404C448.893 138.504 450.861 137.1 450.861 135.024C450.861 133.536 449.841 132.492 448.077 132.492C446.193 132.492 445.149 133.668 444.861 135.06L445.797 135.372ZM453.061 140.724L453.853 141.18L460.021 132.888L459.265 132.336L453.061 140.724ZM451.765 134.616C451.765 135.816 452.713 136.656 453.961 136.656C455.197 136.656 456.145 135.816 456.145 134.616C456.145 133.404 455.197 132.564 453.961 132.564C452.713 132.564 451.765 133.404 451.765 134.616ZM452.773 134.616C452.773 133.896 453.325 133.428 453.961 133.428C454.585 133.428 455.137 133.896 455.137 134.616C455.137 135.336 454.585 135.804 453.961 135.804C453.349 135.804 452.773 135.336 452.773 134.616ZM456.913 138.996C456.913 140.196 457.861 141.048 459.109 141.048C460.345 141.048 461.293 140.196 461.293 138.996C461.293 137.796 460.345 136.956 459.109 136.956C457.861 136.956 456.913 137.796 456.913 138.996ZM457.921 138.996C457.921 138.276 458.473 137.808 459.109 137.808C459.733 137.808 460.285 138.276 460.285 138.996C460.285 139.716 459.733 140.184 459.109 140.184C458.497 140.184 457.921 139.716 457.921 138.996Z" fill="#003E14"/>
<rect x="424" y="151" width="50" height="1" fill="#003E14"/>
<line x1="1" y1="193.5" x2="536" y2="193.5" stroke="#CBCFD6"/>
<circle cx="7.5" cy="245.5" r="7.5" fill="#BFCED4"/>
<path d="M26.17 240.9H32.722V242.005H27.353L27.353 244.826H32.358V245.931H27.353L27.353 248.895H32.839V250H26.17L26.17 240.9ZM34.5301 240.9H38.2091C38.8245 240.9 39.3358 240.956 39.7431 241.069C40.1591 241.182 40.4885 241.338 40.7311 241.537C40.9825 241.736 41.1601 241.975 41.2641 242.252C41.3681 242.529 41.4201 242.833 41.4201 243.162C41.4201 243.665 41.3075 244.094 41.0821 244.449C40.8655 244.804 40.5491 245.069 40.1331 245.242C40.6271 245.346 41.0171 245.584 41.3031 245.957C41.5978 246.321 41.7451 246.802 41.7451 247.4C41.7451 247.859 41.6585 248.254 41.4851 248.583C41.3118 248.912 41.0691 249.181 40.7571 249.389C40.4451 249.597 40.0681 249.753 39.6261 249.857C39.1841 249.952 38.6901 250 38.1441 250H34.5301L34.5301 240.9ZM35.7131 245.892L35.7131 248.895H38.1311C38.9631 248.895 39.5655 248.774 39.9381 248.531C40.3195 248.28 40.5101 247.881 40.5101 247.335C40.5101 246.841 40.3325 246.477 39.9771 246.243C39.6218 246.009 39.0498 245.892 38.2611 245.892H35.7131ZM35.7131 242.005L35.7131 244.813H38.3001C38.8721 244.813 39.3271 244.692 39.6651 244.449C40.0118 244.206 40.1851 243.86 40.1851 243.409C40.1851 243.175 40.1505 242.971 40.0811 242.798C40.0118 242.625 39.8948 242.482 39.7301 242.369C39.5741 242.248 39.3618 242.157 39.0931 242.096C38.8245 242.035 38.4951 242.005 38.1051 242.005H35.7131ZM43.2838 240.9H44.4668L44.4668 250H43.2838L43.2838 240.9ZM45.5131 240.9L53.0271 240.9L53.0271 242.005H49.8551L49.8551 250L48.6721 250L48.6721 242.005H45.5131L45.5131 240.9ZM54.0626 240.9H56.8706C57.7893 240.9 58.5693 241.021 59.2106 241.264C59.8519 241.498 60.3676 241.819 60.7576 242.226C61.1563 242.625 61.4423 243.093 61.6156 243.63C61.7976 244.167 61.8886 244.731 61.8886 245.32C61.8886 245.97 61.7846 246.581 61.5766 247.153C61.3773 247.716 61.0653 248.21 60.6406 248.635C60.2246 249.06 59.6916 249.393 59.0416 249.636C58.4003 249.879 57.6333 250 56.7406 250H54.0626L54.0626 240.9ZM55.2456 242.005L55.2456 248.895H56.8186C57.4946 248.895 58.0709 248.808 58.5476 248.635C59.0329 248.453 59.4316 248.202 59.7436 247.881C60.0556 247.56 60.2853 247.183 60.4326 246.75C60.5799 246.317 60.6536 245.84 60.6536 245.32C60.6536 244.843 60.5843 244.406 60.4456 244.007C60.3156 243.6 60.099 243.249 59.7956 242.954C59.4923 242.659 59.0979 242.43 58.6126 242.265C58.1359 242.092 57.5466 242.005 56.8446 242.005H55.2456ZM65.867 240.887L66.803 240.887L70.794 250H69.559L68.558 247.725L64.073 247.725L63.085 250H61.876L65.867 240.887ZM68.09 246.646L66.309 242.538L64.541 246.646L68.09 246.646Z" fill="#222429"/>
<rect x="87" y="245" width="15" height="1" fill="#003E14"/>
<path d="M113.17 240.9H119.722V242.005H114.353L114.353 244.826H119.358V245.931H114.353V248.895H119.839V250H113.17L113.17 240.9ZM121.53 240.9H125.209C125.824 240.9 126.336 240.956 126.743 241.069C127.159 241.182 127.488 241.338 127.731 241.537C127.982 241.736 128.16 241.975 128.264 242.252C128.368 242.529 128.42 242.833 128.42 243.162C128.42 243.665 128.307 244.094 128.082 244.449C127.865 244.804 127.549 245.069 127.133 245.242C127.627 245.346 128.017 245.584 128.303 245.957C128.598 246.321 128.745 246.802 128.745 247.4C128.745 247.859 128.658 248.254 128.485 248.583C128.312 248.912 128.069 249.181 127.757 249.389C127.445 249.597 127.068 249.753 126.626 249.857C126.184 249.952 125.69 250 125.144 250H121.53L121.53 240.9ZM122.713 245.892V248.895H125.131C125.963 248.895 126.565 248.774 126.938 248.531C127.319 248.28 127.51 247.881 127.51 247.335C127.51 246.841 127.332 246.477 126.977 246.243C126.622 246.009 126.05 245.892 125.261 245.892H122.713ZM122.713 242.005L122.713 244.813H125.3C125.872 244.813 126.327 244.692 126.665 244.449C127.012 244.206 127.185 243.86 127.185 243.409C127.185 243.175 127.15 242.971 127.081 242.798C127.012 242.625 126.895 242.482 126.73 242.369C126.574 242.248 126.362 242.157 126.093 242.096C125.824 242.035 125.495 242.005 125.105 242.005H122.713ZM130.284 240.9H131.467L131.467 250H130.284L130.284 240.9ZM132.513 240.9L140.027 240.9V242.005H136.855L136.855 250L135.672 250L135.672 242.005H132.513V240.9ZM141.063 240.9H143.871C144.789 240.9 145.569 241.021 146.211 241.264C146.852 241.498 147.368 241.819 147.758 242.226C148.156 242.625 148.442 243.093 148.616 243.63C148.798 244.167 148.889 244.731 148.889 245.32C148.889 245.97 148.785 246.581 148.577 247.153C148.377 247.716 148.065 248.21 147.641 248.635C147.225 249.06 146.692 249.393 146.042 249.636C145.4 249.879 144.633 250 143.741 250H141.063L141.063 240.9ZM142.246 242.005L142.246 248.895H143.819C144.495 248.895 145.071 248.808 145.548 248.635C146.033 248.453 146.432 248.202 146.744 247.881C147.056 247.56 147.285 247.183 147.433 246.75C147.58 246.317 147.654 245.84 147.654 245.32C147.654 244.843 147.584 244.406 147.446 244.007C147.316 243.6 147.099 243.249 146.796 242.954C146.492 242.659 146.098 242.43 145.613 242.265C145.136 242.092 144.547 242.005 143.845 242.005H142.246ZM152.867 240.887L153.803 240.887L157.794 250H156.559L155.558 247.725L151.073 247.725L150.085 250H148.876L152.867 240.887ZM155.09 246.646L153.309 242.538L151.541 246.646L155.09 246.646ZM162.014 243.24H163.106V244.228C163.305 243.873 163.583 243.6 163.938 243.409C164.293 243.218 164.705 243.123 165.173 243.123C165.65 243.123 166.053 243.223 166.382 243.422C166.72 243.613 167.002 243.899 167.227 244.28C167.47 243.864 167.773 243.569 168.137 243.396C168.501 243.214 168.917 243.123 169.385 243.123C169.74 243.123 170.065 243.166 170.36 243.253C170.663 243.34 170.919 243.483 171.127 243.682C171.344 243.873 171.513 244.124 171.634 244.436C171.755 244.739 171.816 245.108 171.816 245.541L171.816 250H170.724L170.724 245.879C170.724 245.636 170.698 245.411 170.646 245.203C170.594 244.986 170.507 244.8 170.386 244.644C170.265 244.488 170.1 244.367 169.892 244.28C169.693 244.193 169.437 244.15 169.125 244.15C168.839 244.15 168.592 244.202 168.384 244.306C168.176 244.401 168.003 244.527 167.864 244.683C167.725 244.839 167.621 245.017 167.552 245.216C167.491 245.415 167.461 245.615 167.461 245.814L167.461 250H166.369L166.369 245.775C166.369 245.246 166.239 244.843 165.979 244.566C165.719 244.289 165.329 244.15 164.809 244.15C164.315 244.15 163.908 244.306 163.587 244.618C163.266 244.921 163.106 245.363 163.106 245.944L163.106 250H162.014L162.014 243.24ZM173.172 244.969C173.389 244.371 173.753 243.916 174.264 243.604C174.776 243.283 175.4 243.123 176.136 243.123C177.974 243.123 178.892 244.085 178.892 246.009V250H177.8V248.83C177.714 249.012 177.584 249.181 177.41 249.337C177.246 249.493 177.051 249.632 176.825 249.753C176.609 249.866 176.37 249.952 176.11 250.013C175.85 250.082 175.586 250.117 175.317 250.117C174.962 250.117 174.641 250.069 174.355 249.974C174.069 249.879 173.822 249.744 173.614 249.571C173.406 249.389 173.246 249.177 173.133 248.934C173.021 248.683 172.964 248.405 172.964 248.102C172.964 247.712 173.051 247.383 173.224 247.114C173.406 246.845 173.688 246.629 174.069 246.464C174.459 246.291 174.958 246.165 175.564 246.087C176.18 246.009 176.925 245.97 177.8 245.97C177.8 245.346 177.662 244.887 177.384 244.592C177.116 244.297 176.691 244.15 176.11 244.15C175.088 244.15 174.438 244.544 174.16 245.333L173.172 244.969ZM175.538 249.09C175.868 249.09 176.171 249.042 176.448 248.947C176.726 248.852 176.964 248.717 177.163 248.544C177.363 248.362 177.519 248.15 177.631 247.907C177.744 247.664 177.8 247.4 177.8 247.114V246.867C177.107 246.867 176.522 246.889 176.045 246.932C175.577 246.975 175.2 247.045 174.914 247.14C174.628 247.235 174.42 247.361 174.29 247.517C174.169 247.673 174.108 247.868 174.108 248.102C174.108 248.405 174.234 248.648 174.485 248.83C174.745 249.003 175.096 249.09 175.538 249.09ZM180.562 243.24H181.654V244.02C181.75 243.743 181.932 243.526 182.2 243.37C182.469 243.205 182.803 243.123 183.201 243.123C183.314 243.123 183.431 243.132 183.552 243.149C183.682 243.158 183.773 243.171 183.825 243.188V244.241C183.739 244.206 183.643 244.185 183.539 244.176C183.435 244.159 183.327 244.15 183.214 244.15C182.703 244.15 182.313 244.28 182.044 244.54C181.784 244.8 181.654 245.168 181.654 245.645V250H180.562V243.24ZM187.565 250.117C187.106 250.117 186.677 250.039 186.278 249.883C185.88 249.718 185.533 249.489 185.238 249.194C184.952 248.891 184.723 248.527 184.549 248.102C184.385 247.669 184.302 247.179 184.302 246.633C184.302 246.113 184.389 245.641 184.562 245.216C184.744 244.783 184.991 244.414 185.303 244.111C185.615 243.799 185.979 243.556 186.395 243.383C186.811 243.21 187.253 243.123 187.721 243.123C188.345 243.123 188.852 243.223 189.242 243.422C189.632 243.621 189.927 243.89 190.126 244.228V243.24H191.218V249.48C191.218 250.052 191.14 250.542 190.984 250.949C190.837 251.356 190.625 251.69 190.347 251.95C190.079 252.219 189.758 252.414 189.385 252.535C189.021 252.656 188.627 252.717 188.202 252.717C187.448 252.717 186.803 252.57 186.265 252.275C185.737 251.98 185.377 251.582 185.186 251.079L186.161 250.65C186.291 250.919 186.517 251.157 186.837 251.365C187.158 251.582 187.591 251.69 188.137 251.69C188.796 251.69 189.29 251.512 189.619 251.157C189.957 250.802 190.126 250.308 190.126 249.675V248.752C189.901 249.168 189.589 249.502 189.19 249.753C188.792 249.996 188.25 250.117 187.565 250.117ZM187.786 249.09C188.506 249.09 189.073 248.882 189.489 248.466C189.914 248.041 190.126 247.448 190.126 246.685V246.438C190.126 246.074 190.07 245.753 189.957 245.476C189.845 245.19 189.684 244.952 189.476 244.761C189.277 244.562 189.039 244.41 188.761 244.306C188.484 244.202 188.181 244.15 187.851 244.15C187.522 244.15 187.21 244.211 186.915 244.332C186.629 244.445 186.378 244.609 186.161 244.826C185.945 245.043 185.771 245.303 185.641 245.606C185.511 245.901 185.446 246.234 185.446 246.607C185.446 246.997 185.503 247.344 185.615 247.647C185.737 247.95 185.901 248.21 186.109 248.427C186.317 248.644 186.564 248.808 186.85 248.921C187.136 249.034 187.448 249.09 187.786 249.09ZM192.912 243.24H194.004V250H192.912V243.24ZM192.782 241.29C192.782 241.108 192.843 240.956 192.964 240.835C193.094 240.705 193.259 240.64 193.458 240.64C193.658 240.64 193.818 240.705 193.939 240.835C194.069 240.956 194.134 241.108 194.134 241.29C194.134 241.472 194.069 241.628 193.939 241.758C193.818 241.879 193.658 241.94 193.458 241.94C193.259 241.94 193.094 241.879 192.964 241.758C192.843 241.628 192.782 241.472 192.782 241.29ZM195.69 243.24H196.782V244.28C196.99 243.907 197.28 243.621 197.653 243.422C198.034 243.223 198.476 243.123 198.979 243.123C199.897 243.123 200.599 243.37 201.085 243.864C201.579 244.349 201.826 245.125 201.826 246.191V250H200.734V246.295C200.734 245.558 200.573 245.012 200.253 244.657C199.941 244.302 199.447 244.124 198.771 244.124C198.493 244.124 198.233 244.167 197.991 244.254C197.748 244.341 197.536 244.471 197.354 244.644C197.18 244.809 197.042 245.021 196.938 245.281C196.834 245.532 196.782 245.823 196.782 246.152V250H195.69V243.24Z" fill="#222429"/>
</svg>
