<svg width="351" height="311" viewBox="0 0 351 311" fill="none" xmlns="http://www.w3.org/2000/svg">
<path d="M155.637 116.496L154.389 116.08C154.773 114.224 156.165 112.656 158.677 112.656C161.029 112.656 162.389 114.048 162.389 116.032C162.389 118.8 159.765 120.672 157.845 121.872L156.613 122.64H162.805V124H154.085V122.88L156.517 121.264C159.717 119.136 160.981 117.712 160.981 116.176C160.981 114.592 159.925 114.016 158.581 114.016C156.677 114.016 155.813 115.36 155.637 116.496ZM163.754 118.4C163.754 115.088 165.274 112.656 168.506 112.656C171.754 112.656 173.274 114.88 173.274 118.4C173.274 121.712 171.802 124.144 168.538 124.144C165.45 124.144 163.754 121.712 163.754 118.4ZM165.162 118.4C165.162 121.12 166.442 122.784 168.538 122.784C170.842 122.784 171.866 121.12 171.866 118.4C171.866 115.664 170.81 114.016 168.506 114.016C166.218 114.016 165.162 115.712 165.162 118.4ZM175.669 116.496L174.421 116.08C174.805 114.224 176.197 112.656 178.709 112.656C181.061 112.656 182.421 114.048 182.421 116.032C182.421 118.8 179.797 120.672 177.877 121.872L176.645 122.64H182.837V124H174.117V122.88L176.549 121.264C179.749 119.136 181.013 117.712 181.013 116.176C181.013 114.592 179.957 114.016 178.613 114.016C176.709 114.016 175.845 115.36 175.669 116.496ZM183.146 114.576L186.986 112.736H187.898V124H186.554V114.448L183.658 115.776L183.146 114.576Z" fill="#9299A3"/>
<path d="M119.64 164.48C115.28 164.48 111.24 162.64 109.2 159.72L112.28 156.76C113.92 158.72 116.8 159.92 119.96 159.92C124.64 159.92 127.88 156.44 127.88 151.44C127.88 151.24 127.88 151 127.88 150.8C126.6 153.4 123.68 155.36 119.24 155.36C112.88 155.36 108.44 151.72 108.44 145.84C108.44 139.68 113.16 135.52 120.32 135.52C127.68 135.52 132.52 140.52 132.52 149.64C132.52 159.28 127.4 164.48 119.64 164.48ZM120 151.12C124.08 151.12 126.76 148.96 126.76 145.68C126.76 142.28 124.2 140.08 120.24 140.08C115.84 140.08 113.16 142.2 113.16 145.64C113.16 149.04 115.76 151.12 120 151.12ZM133.588 140.56V136H154.988V139.16L142.028 164H137.108L149.548 140.56H133.588ZM154.382 169.92L153.222 167.52C154.462 167.16 156.142 165.92 156.382 164.4C156.422 164.28 156.422 164.16 156.422 164.04C156.222 164.08 156.062 164.04 155.942 164.04C154.582 163.8 153.702 162.8 153.702 161.36C153.702 159.72 154.822 158.56 156.702 158.56C158.782 158.56 160.102 160 160.102 162.4C160.102 166.92 157.102 169.12 154.382 169.92ZM173.423 164.48C169.063 164.48 165.023 162.64 162.983 159.72L166.063 156.76C167.703 158.72 170.583 159.92 173.743 159.92C178.423 159.92 181.663 156.44 181.663 151.44C181.663 151.24 181.663 151 181.663 150.8C180.383 153.4 177.463 155.36 173.023 155.36C166.663 155.36 162.223 151.72 162.223 145.84C162.223 139.68 166.943 135.52 174.103 135.52C181.463 135.52 186.303 140.52 186.303 149.64C186.303 159.28 181.183 164.48 173.423 164.48ZM173.783 151.12C177.863 151.12 180.543 148.96 180.543 145.68C180.543 142.28 177.983 140.08 174.023 140.08C169.623 140.08 166.943 142.2 166.943 145.64C166.943 149.04 169.543 151.12 173.783 151.12Z" fill="#222429"/>
<path d="M194.12 148V138.2H197.06L199.356 144.584L201.526 138.2H204.396V148H202.38V140.734L199.776 148H198.824L196.136 140.776V148H194.12ZM212.748 148V140.104H209.36V140.3C209.36 145.746 208.394 148.196 206.252 148.196C206.014 148.196 205.72 148.168 205.482 148.126V146.152C205.594 146.166 205.762 146.18 205.874 146.18C207.064 146.18 207.456 144.724 207.456 140.3V138.2H214.764V148H212.748ZM218.893 148H216.877V138.2H221.021C224.339 138.2 225.137 139.894 225.137 141.448C225.137 143.282 224.087 144.906 220.881 144.906H218.893V148ZM221.007 140.104H218.893V143.002H220.979C222.379 143.002 223.037 142.414 223.037 141.546C223.037 140.706 222.491 140.104 221.007 140.104ZM224.615 149.722V146.096H225.665C226.379 144.766 226.743 142.82 226.743 140.3V138.2H233.855V146.096H235.115V149.722H233.211V148H226.519V149.722H224.615ZM228.647 140.104V140.3C228.647 142.862 228.339 144.766 227.723 146.096H231.839V140.104H228.647ZM196.136 164H194.12V154.2H198.264C201.582 154.2 202.38 155.894 202.38 157.448C202.38 159.282 201.33 160.906 198.124 160.906H196.136V164ZM198.25 156.104H196.136V159.002H198.222C199.622 159.002 200.28 158.414 200.28 157.546C200.28 156.706 199.734 156.104 198.25 156.104ZM205.975 164.196C205.765 164.196 205.457 164.182 205.233 164.126V162.222C205.499 162.278 205.723 162.292 205.835 162.292C206.269 162.292 206.493 162.082 206.759 161.438L202.363 154.2H204.813L207.767 159.366L210.189 154.2H212.289L208.453 162.208C207.739 163.706 207.179 164.196 205.975 164.196ZM220.827 154.2V156.062H215.325V157.826H217.873C220.379 157.826 221.513 158.946 221.513 160.906C221.513 163.048 219.931 164 217.495 164H213.309V154.2H220.827ZM217.733 159.73H215.325V162.096H217.691C218.741 162.096 219.413 161.732 219.413 160.878C219.413 160.122 218.839 159.73 217.733 159.73ZM222.817 162.908C222.817 162.25 223.293 161.76 223.993 161.76C224.693 161.76 225.169 162.25 225.169 162.908C225.169 163.58 224.693 164.07 223.993 164.07C223.293 164.07 222.817 163.58 222.817 162.908Z" fill="#222429"/>
<path d="M171.415 11.8672C195.894 11.8672 219.925 18.4411 240.995 30.9021C262.065 43.3632 279.403 61.254 291.196 82.7055C302.989 104.157 308.805 128.382 308.036 152.849C307.267 177.316 299.942 201.128 286.825 221.797L269.513 210.811C280.663 193.242 286.889 173.002 287.543 152.205C288.196 131.408 283.253 110.817 273.229 92.583C263.205 74.3492 248.468 59.142 230.558 48.5502C212.648 37.9583 192.222 32.3704 171.415 32.3704L171.415 11.8672Z" fill="#BFCED4"/>
<path d="M138.907 281.322C107.726 273.687 80.2261 255.321 61.2289 229.443L77.7568 217.31C93.9044 239.306 117.279 254.918 143.783 261.407L138.907 281.322Z" fill="#5FAF2D"/>
<path d="M34.7329 149.868C34.4508 120.49 43.642 91.8021 60.9442 68.0575L77.5149 80.1322C62.8079 100.315 54.9954 124.699 55.2352 149.671L34.7329 149.868Z" fill="#A3CF46"/>
<path d="M287.616 220.534C272.416 245.074 249.837 264.171 223.116 275.089C196.395 286.007 166.903 288.186 138.867 281.312L143.749 261.399C167.58 267.241 192.648 265.39 215.361 256.109C238.074 246.829 257.266 230.596 270.186 209.738L287.616 220.534Z" fill="#648494"/>
<path d="M60.8271 68.2185C73.5052 50.7666 90.1336 36.5629 109.353 26.7688C128.572 16.9748 149.836 11.8684 171.407 11.8672L171.408 32.3704C153.073 32.3715 134.999 36.7119 118.662 45.0369C102.326 53.3618 88.1916 65.4349 77.4153 80.2691L60.8271 68.2185Z" fill="#4B5366"/>
<path d="M61.6094 229.959C43.9517 206.14 34.5176 177.225 34.7301 147.576L55.2328 147.723C55.0522 172.925 63.0711 197.502 78.0802 217.748L61.6094 229.959Z" fill="#003E14"/>
<path d="M302.555 72.05C302.695 71.66 302.885 71.305 303.125 70.985C303.365 70.655 303.655 70.37 303.995 70.13C304.345 69.89 304.745 69.705 305.195 69.575C305.655 69.435 306.17 69.365 306.74 69.365C307.25 69.365 307.72 69.43 308.15 69.56C308.59 69.68 308.965 69.855 309.275 70.085C309.595 70.305 309.84 70.58 310.01 70.91C310.19 71.24 310.28 71.605 310.28 72.005C310.28 72.615 310.12 73.135 309.8 73.565C309.49 73.995 309.035 74.295 308.435 74.465C308.695 74.485 308.95 74.55 309.2 74.66C309.45 74.76 309.67 74.915 309.86 75.125C310.06 75.325 310.22 75.58 310.34 75.89C310.46 76.19 310.52 76.55 310.52 76.97C310.52 77.48 310.42 77.935 310.22 78.335C310.03 78.725 309.76 79.055 309.41 79.325C309.07 79.585 308.665 79.785 308.195 79.925C307.725 80.065 307.22 80.135 306.68 80.135C306.09 80.135 305.55 80.065 305.06 79.925C304.58 79.785 304.155 79.595 303.785 79.355C303.415 79.105 303.1 78.81 302.84 78.47C302.59 78.12 302.4 77.735 302.27 77.315L303.485 76.79C303.615 77.06 303.77 77.32 303.95 77.57C304.13 77.82 304.35 78.04 304.61 78.23C304.87 78.42 305.175 78.575 305.525 78.695C305.875 78.805 306.29 78.86 306.77 78.86C307.52 78.86 308.11 78.7 308.54 78.38C308.98 78.05 309.2 77.585 309.2 76.985C309.2 76.655 309.13 76.38 308.99 76.16C308.85 75.93 308.655 75.75 308.405 75.62C308.155 75.48 307.86 75.385 307.52 75.335C307.19 75.275 306.83 75.245 306.44 75.245H305.27V74H306.2C307.07 74 307.745 73.835 308.225 73.505C308.715 73.175 308.96 72.76 308.96 72.26C308.96 71.72 308.755 71.315 308.345 71.045C307.935 70.775 307.38 70.64 306.68 70.64C306.25 70.64 305.87 70.695 305.54 70.805C305.21 70.915 304.92 71.06 304.67 71.24C304.43 71.42 304.225 71.625 304.055 71.855C303.895 72.085 303.77 72.32 303.68 72.56L302.555 72.05ZM317.738 77.9H311.273V76.94L317.888 69.5H318.998V76.625H320.948V77.9H318.998V80H317.738V77.9ZM317.738 76.625V71.6L313.073 76.625H317.738ZM331.056 69.17L332.001 69.86L324.291 80.225L323.301 79.655L331.056 69.17ZM321.681 72.02C321.681 71.64 321.751 71.295 321.891 70.985C322.031 70.665 322.221 70.395 322.461 70.175C322.711 69.945 323.001 69.77 323.331 69.65C323.671 69.52 324.036 69.455 324.426 69.455C324.816 69.455 325.176 69.52 325.506 69.65C325.836 69.77 326.121 69.945 326.361 70.175C326.611 70.395 326.806 70.665 326.946 70.985C327.086 71.295 327.156 71.64 327.156 72.02C327.156 72.4 327.086 72.745 326.946 73.055C326.806 73.365 326.611 73.635 326.361 73.865C326.121 74.085 325.836 74.26 325.506 74.39C325.176 74.51 324.816 74.57 324.426 74.57C324.036 74.57 323.671 74.51 323.331 74.39C323.001 74.26 322.711 74.085 322.461 73.865C322.221 73.635 322.031 73.365 321.891 73.055C321.751 72.745 321.681 72.4 321.681 72.02ZM322.941 72.02C322.941 72.25 322.981 72.455 323.061 72.635C323.151 72.815 323.261 72.97 323.391 73.1C323.531 73.23 323.691 73.33 323.871 73.4C324.051 73.47 324.236 73.505 324.426 73.505C324.816 73.505 325.156 73.37 325.446 73.1C325.746 72.83 325.896 72.47 325.896 72.02C325.896 71.57 325.746 71.21 325.446 70.94C325.156 70.67 324.816 70.535 324.426 70.535C324.026 70.535 323.676 70.67 323.376 70.94C323.086 71.21 322.941 71.57 322.941 72.02ZM328.116 77.495C328.116 77.125 328.186 76.785 328.326 76.475C328.466 76.155 328.656 75.885 328.896 75.665C329.146 75.435 329.436 75.26 329.766 75.14C330.106 75.01 330.471 74.945 330.861 74.945C331.251 74.945 331.611 75.01 331.941 75.14C332.271 75.26 332.556 75.435 332.796 75.665C333.046 75.885 333.241 76.155 333.381 76.475C333.521 76.785 333.591 77.125 333.591 77.495C333.591 77.875 333.521 78.22 333.381 78.53C333.241 78.84 333.046 79.11 332.796 79.34C332.556 79.57 332.271 79.75 331.941 79.88C331.611 80 331.251 80.06 330.861 80.06C330.471 80.06 330.106 80 329.766 79.88C329.436 79.75 329.146 79.57 328.896 79.34C328.656 79.11 328.466 78.84 328.326 78.53C328.186 78.22 328.116 77.875 328.116 77.495ZM329.376 77.495C329.376 77.725 329.416 77.93 329.496 78.11C329.586 78.29 329.696 78.445 329.826 78.575C329.966 78.705 330.126 78.805 330.306 78.875C330.486 78.945 330.671 78.98 330.861 78.98C331.251 78.98 331.591 78.845 331.881 78.575C332.181 78.305 332.331 77.945 332.331 77.495C332.331 77.045 332.181 76.685 331.881 76.415C331.591 76.145 331.251 76.01 330.861 76.01C330.461 76.01 330.111 76.145 329.811 76.415C329.521 76.685 329.376 77.045 329.376 77.495Z" fill="#777F8C"/>
<path d="M63.045 276.165L66.645 274.44H67.5V285H66.24V276.045L63.525 277.29L63.045 276.165ZM68.813 276.165L72.413 274.44H73.268V285H72.008V276.045L69.293 277.29L68.813 276.165ZM76.8009 284.655L84.5559 274.17L85.5009 274.86L77.7909 285.225L76.8009 284.655ZM75.1809 277.02C75.1809 275.505 76.3659 274.455 77.9259 274.455C79.4709 274.455 80.6559 275.505 80.6559 277.02C80.6559 278.52 79.4709 279.57 77.9259 279.57C76.3659 279.57 75.1809 278.52 75.1809 277.02ZM76.4409 277.02C76.4409 277.92 77.1609 278.505 77.9259 278.505C78.7059 278.505 79.3959 277.92 79.3959 277.02C79.3959 276.12 78.7059 275.535 77.9259 275.535C77.1309 275.535 76.4409 276.12 76.4409 277.02ZM81.6159 282.495C81.6159 280.995 82.8009 279.945 84.3609 279.945C85.9059 279.945 87.0909 280.995 87.0909 282.495C87.0909 283.995 85.9059 285.06 84.3609 285.06C82.8009 285.06 81.6159 283.995 81.6159 282.495ZM82.8759 282.495C82.8759 283.395 83.5959 283.98 84.3609 283.98C85.1409 283.98 85.8309 283.395 85.8309 282.495C85.8309 281.595 85.1409 281.01 84.3609 281.01C83.5659 281.01 82.8759 281.595 82.8759 282.495Z" fill="#777F8C"/>
<path d="M1.045 96.165L4.645 94.44H5.5V105H4.24V96.045L1.525 97.29L1.045 96.165ZM7.41297 99.75C7.41297 96.645 8.83797 94.365 11.868 94.365C14.913 94.365 16.338 96.45 16.338 99.75C16.338 102.855 14.958 105.135 11.898 105.135C9.00297 105.135 7.41297 102.855 7.41297 99.75ZM8.73297 99.75C8.73297 102.3 9.93297 103.86 11.898 103.86C14.058 103.86 15.018 102.3 15.018 99.75C15.018 97.185 14.028 95.64 11.868 95.64C9.72297 95.64 8.73297 97.23 8.73297 99.75ZM19.0783 104.655L26.8333 94.17L27.7783 94.86L20.0683 105.225L19.0783 104.655ZM17.4583 97.02C17.4583 95.505 18.6433 94.455 20.2033 94.455C21.7483 94.455 22.9333 95.505 22.9333 97.02C22.9333 98.52 21.7483 99.57 20.2033 99.57C18.6433 99.57 17.4583 98.52 17.4583 97.02ZM18.7183 97.02C18.7183 97.92 19.4383 98.505 20.2033 98.505C20.9833 98.505 21.6733 97.92 21.6733 97.02C21.6733 96.12 20.9833 95.535 20.2033 95.535C19.4083 95.535 18.7183 96.12 18.7183 97.02ZM23.8933 102.495C23.8933 100.995 25.0783 99.945 26.6383 99.945C28.1833 99.945 29.3683 100.995 29.3683 102.495C29.3683 103.995 28.1833 105.06 26.6383 105.06C25.0783 105.06 23.8933 103.995 23.8933 102.495ZM25.1533 102.495C25.1533 103.395 25.8733 103.98 26.6383 103.98C27.4183 103.98 28.1083 103.395 28.1083 102.495C28.1083 101.595 27.4183 101.01 26.6383 101.01C25.8433 101.01 25.1533 101.595 25.1533 102.495Z" fill="#777F8C"/>
<path d="M0.045 196.165L3.645 194.44H4.5V205H3.24V196.045L0.525 197.29L0.045 196.165ZM6.41297 199.75C6.41297 196.645 7.83797 194.365 10.868 194.365C13.913 194.365 15.338 196.45 15.338 199.75C15.338 202.855 13.958 205.135 10.898 205.135C8.00297 205.135 6.41297 202.855 6.41297 199.75ZM7.73297 199.75C7.73297 202.3 8.93297 203.86 10.898 203.86C13.058 203.86 14.018 202.3 14.018 199.75C14.018 197.185 13.028 195.64 10.868 195.64C8.72297 195.64 7.73297 197.23 7.73297 199.75ZM18.0783 204.655L25.8333 194.17L26.7783 194.86L19.0683 205.225L18.0783 204.655ZM16.4583 197.02C16.4583 195.505 17.6433 194.455 19.2033 194.455C20.7483 194.455 21.9333 195.505 21.9333 197.02C21.9333 198.52 20.7483 199.57 19.2033 199.57C17.6433 199.57 16.4583 198.52 16.4583 197.02ZM17.7183 197.02C17.7183 197.92 18.4383 198.505 19.2033 198.505C19.9833 198.505 20.6733 197.92 20.6733 197.02C20.6733 196.12 19.9833 195.535 19.2033 195.535C18.4083 195.535 17.7183 196.12 17.7183 197.02ZM22.8933 202.495C22.8933 200.995 24.0783 199.945 25.6383 199.945C27.1833 199.945 28.3683 200.995 28.3683 202.495C28.3683 203.995 27.1833 205.06 25.6383 205.06C24.0783 205.06 22.8933 203.995 22.8933 202.495ZM24.1533 202.495C24.1533 203.395 24.8733 203.98 25.6383 203.98C26.4183 203.98 27.1083 203.395 27.1083 202.495C27.1083 201.595 26.4183 201.01 25.6383 201.01C24.8433 201.01 24.1533 201.595 24.1533 202.495Z" fill="#777F8C"/>
<path d="M225.92 291.965L224.75 291.575C225.11 289.835 226.415 288.365 228.77 288.365C230.975 288.365 232.25 289.67 232.25 291.53C232.25 294.125 229.79 295.88 227.99 297.005L226.835 297.725H232.64V299H224.465V297.95L226.745 296.435C229.745 294.44 230.93 293.105 230.93 291.665C230.93 290.18 229.94 289.64 228.68 289.64C226.895 289.64 226.085 290.9 225.92 291.965ZM233.68 293.75C233.68 290.645 235.105 288.365 238.135 288.365C241.18 288.365 242.605 290.45 242.605 293.75C242.605 296.855 241.225 299.135 238.165 299.135C235.27 299.135 233.68 296.855 233.68 293.75ZM235 293.75C235 296.3 236.2 297.86 238.165 297.86C240.325 297.86 241.285 296.3 241.285 293.75C241.285 291.185 240.295 289.64 238.135 289.64C235.99 289.64 235 291.23 235 293.75ZM245.345 298.655L253.1 288.17L254.045 288.86L246.335 299.225L245.345 298.655ZM243.725 291.02C243.725 289.505 244.91 288.455 246.47 288.455C248.015 288.455 249.2 289.505 249.2 291.02C249.2 292.52 248.015 293.57 246.47 293.57C244.91 293.57 243.725 292.52 243.725 291.02ZM244.985 291.02C244.985 291.92 245.705 292.505 246.47 292.505C247.25 292.505 247.94 291.92 247.94 291.02C247.94 290.12 247.25 289.535 246.47 289.535C245.675 289.535 244.985 290.12 244.985 291.02ZM250.16 296.495C250.16 294.995 251.345 293.945 252.905 293.945C254.45 293.945 255.635 294.995 255.635 296.495C255.635 297.995 254.45 299.06 252.905 299.06C251.345 299.06 250.16 297.995 250.16 296.495ZM251.42 296.495C251.42 297.395 252.14 297.98 252.905 297.98C253.685 297.98 254.375 297.395 254.375 296.495C254.375 295.595 253.685 295.01 252.905 295.01C252.11 295.01 251.42 295.595 251.42 296.495Z" fill="#777F8C"/>
<path d="M79.045 6.165L82.645 4.44H83.5V15H82.24V6.045L79.525 7.29L79.045 6.165ZM85.863 9.885L86.478 4.5H93.078V5.775H87.633L87.243 8.595C87.693 8.265 88.503 7.995 89.628 7.995C92.148 7.995 93.558 9.54 93.558 11.52C93.558 13.62 91.818 15.135 89.493 15.135C87.588 15.135 85.893 14.235 85.218 12.57L86.418 12.06C86.823 12.975 87.873 13.86 89.493 13.86C91.353 13.86 92.238 12.795 92.238 11.565C92.238 10.155 91.113 9.27 89.268 9.27C88.218 9.27 87.558 9.555 86.943 10.17L85.863 9.885ZM96.3166 14.655L104.072 4.17L105.017 4.86L97.3066 15.225L96.3166 14.655ZM94.6966 7.02C94.6966 5.505 95.8816 4.455 97.4416 4.455C98.9866 4.455 100.172 5.505 100.172 7.02C100.172 8.52 98.9866 9.57 97.4416 9.57C95.8816 9.57 94.6966 8.52 94.6966 7.02ZM95.9566 7.02C95.9566 7.92 96.6766 8.505 97.4416 8.505C98.2216 8.505 98.9116 7.92 98.9116 7.02C98.9116 6.12 98.2216 5.535 97.4416 5.535C96.6466 5.535 95.9566 6.12 95.9566 7.02ZM101.132 12.495C101.132 10.995 102.317 9.945 103.877 9.945C105.422 9.945 106.607 10.995 106.607 12.495C106.607 13.995 105.422 15.06 103.877 15.06C102.317 15.06 101.132 13.995 101.132 12.495ZM102.392 12.495C102.392 13.395 103.112 13.98 103.877 13.98C104.657 13.98 105.347 13.395 105.347 12.495C105.347 11.595 104.657 11.01 103.877 11.01C103.082 11.01 102.392 11.595 102.392 12.495Z" fill="#777F8C"/>
</svg>
