<svg width="351" height="311" viewBox="0 0 351 311" fill="none" xmlns="http://www.w3.org/2000/svg">
<path d="M155.637 116.496C155.813 115.36 156.677 114.016 158.581 114.016C159.925 114.016 160.981 114.592 160.981 116.176C160.981 117.712 159.717 119.136 156.517 121.264L154.085 122.88V124H162.805V122.64H156.613L157.845 121.872C159.765 120.672 162.389 118.8 162.389 116.032C162.389 114.048 161.029 112.656 158.677 112.656C156.165 112.656 154.773 114.224 154.389 116.08L155.637 116.496ZM163.754 118.4C163.754 121.712 165.45 124.144 168.538 124.144C171.802 124.144 173.274 121.712 173.274 118.4C173.274 114.88 171.754 112.656 168.506 112.656C165.274 112.656 163.754 115.088 163.754 118.4ZM165.162 118.4C165.162 115.712 166.218 114.016 168.506 114.016C170.81 114.016 171.866 115.664 171.866 118.4C171.866 121.12 170.842 122.784 168.538 122.784C166.442 122.784 165.162 121.12 165.162 118.4ZM175.669 116.496C175.845 115.36 176.709 114.016 178.613 114.016C179.957 114.016 181.013 114.592 181.013 116.176C181.013 117.712 179.749 119.136 176.549 121.264L174.117 122.88V124H182.837V122.64H176.645L177.877 121.872C179.797 120.672 182.421 118.8 182.421 116.032C182.421 114.048 181.061 112.656 178.709 112.656C176.197 112.656 174.805 114.224 174.421 116.08L175.669 116.496ZM183.146 114.576L183.658 115.776L186.554 114.448V124H187.898V112.736H186.986L183.146 114.576Z" fill="#9299A3"/>
<path d="M125.14 164.48C124.047 164.48 122.98 164.36 121.94 164.12C120.927 163.907 119.967 163.6 119.06 163.2C118.153 162.773 117.327 162.267 116.58 161.68C115.833 161.093 115.207 160.44 114.7 159.72L117.78 156.76C118.607 157.747 119.687 158.52 121.02 159.08C122.38 159.64 123.86 159.92 125.46 159.92C126.633 159.92 127.7 159.72 128.66 159.32C129.647 158.893 130.487 158.307 131.18 157.56C131.873 156.813 132.407 155.92 132.78 154.88C133.18 153.84 133.38 152.693 133.38 151.44V150.8C132.74 152.107 131.7 153.2 130.26 154.08C128.82 154.933 126.98 155.36 124.74 155.36C123.14 155.36 121.673 155.147 120.34 154.72C119.033 154.267 117.9 153.627 116.94 152.8C116.007 151.973 115.273 150.973 114.74 149.8C114.207 148.627 113.94 147.307 113.94 145.84C113.94 144.293 114.22 142.893 114.78 141.64C115.34 140.36 116.14 139.267 117.18 138.36C118.22 137.453 119.473 136.76 120.94 136.28C122.407 135.773 124.033 135.52 125.82 135.52C127.66 135.52 129.327 135.827 130.82 136.44C132.34 137.053 133.62 137.96 134.66 139.16C135.727 140.36 136.553 141.84 137.14 143.6C137.727 145.36 138.02 147.373 138.02 149.64C138.02 152.04 137.713 154.173 137.1 156.04C136.487 157.88 135.62 159.427 134.5 160.68C133.38 161.933 132.02 162.88 130.42 163.52C128.847 164.16 127.087 164.48 125.14 164.48ZM125.5 151.12C127.553 151.12 129.193 150.627 130.42 149.64C131.647 148.653 132.26 147.333 132.26 145.68C132.26 143.973 131.673 142.613 130.5 141.6C129.327 140.587 127.74 140.08 125.74 140.08C123.527 140.08 121.793 140.573 120.54 141.56C119.287 142.547 118.66 143.907 118.66 145.64C118.66 147.347 119.26 148.693 120.46 149.68C121.687 150.64 123.367 151.12 125.5 151.12ZM139.088 136H160.488V139.16L147.528 164H142.608L155.048 140.56H139.088V136ZM159.962 161.2C159.962 160.427 160.229 159.76 160.762 159.2C161.322 158.64 162.055 158.36 162.962 158.36C163.842 158.36 164.549 158.64 165.082 159.2C165.642 159.76 165.922 160.427 165.922 161.2C165.922 162.027 165.642 162.72 165.082 163.28C164.549 163.84 163.842 164.12 162.962 164.12C162.055 164.12 161.322 163.84 160.762 163.28C160.229 162.72 159.962 162.027 159.962 161.2ZM179.821 164.48C178.728 164.48 177.661 164.36 176.621 164.12C175.608 163.907 174.648 163.6 173.741 163.2C172.835 162.773 172.008 162.267 171.261 161.68C170.515 161.093 169.888 160.44 169.381 159.72L172.461 156.76C173.288 157.747 174.368 158.52 175.701 159.08C177.061 159.64 178.541 159.92 180.141 159.92C181.315 159.92 182.381 159.72 183.341 159.32C184.328 158.893 185.168 158.307 185.861 157.56C186.555 156.813 187.088 155.92 187.461 154.88C187.861 153.84 188.061 152.693 188.061 151.44V150.8C187.421 152.107 186.381 153.2 184.941 154.08C183.501 154.933 181.661 155.36 179.421 155.36C177.821 155.36 176.355 155.147 175.021 154.72C173.715 154.267 172.581 153.627 171.621 152.8C170.688 151.973 169.955 150.973 169.421 149.8C168.888 148.627 168.621 147.307 168.621 145.84C168.621 144.293 168.901 142.893 169.461 141.64C170.021 140.36 170.821 139.267 171.861 138.36C172.901 137.453 174.155 136.76 175.621 136.28C177.088 135.773 178.715 135.52 180.501 135.52C182.341 135.52 184.008 135.827 185.501 136.44C187.021 137.053 188.301 137.96 189.341 139.16C190.408 140.36 191.235 141.84 191.821 143.6C192.408 145.36 192.701 147.373 192.701 149.64C192.701 152.04 192.395 154.173 191.781 156.04C191.168 157.88 190.301 159.427 189.181 160.68C188.061 161.933 186.701 162.88 185.101 163.52C183.528 164.16 181.768 164.48 179.821 164.48ZM180.181 151.12C182.235 151.12 183.875 150.627 185.101 149.64C186.328 148.653 186.941 147.333 186.941 145.68C186.941 143.973 186.355 142.613 185.181 141.6C184.008 140.587 182.421 140.08 180.421 140.08C178.208 140.08 176.475 140.573 175.221 141.56C173.968 142.547 173.341 143.907 173.341 145.64C173.341 147.347 173.941 148.693 175.141 149.68C176.368 150.64 178.048 151.12 180.181 151.12Z" fill="#222429"/>
<path d="M202.636 148V144.682H204.736L206.962 148H209.384L206.78 144.29C207.956 143.828 208.768 142.806 208.768 141.294C208.768 139.642 207.802 138.2 205.1 138.2H200.62V148H202.636ZM204.876 140.104C206.206 140.104 206.668 140.664 206.668 141.434C206.668 142.386 205.926 142.778 204.904 142.778H202.636V140.104H204.876ZM219.013 138.2H216.997V143.674C216.997 145.368 216.283 146.292 214.813 146.292C213.385 146.292 212.419 145.368 212.419 143.604V138.2H210.403V143.828C210.403 146.74 212.363 148.196 214.813 148.196C216.983 148.196 219.013 146.964 219.013 143.912V138.2ZM220.998 148H225.394C227.662 148 229.244 147.16 229.244 145.13C229.244 143.884 228.6 143.072 227.55 142.75C228.432 142.372 228.908 141.686 228.908 140.678C228.908 139.236 228.096 138.2 225.492 138.2H220.998V148ZM225.366 143.828C226.626 143.828 227.144 144.206 227.144 145.018C227.144 145.858 226.542 146.236 225.324 146.236H223.014V143.828H225.366ZM225.198 139.964C226.416 139.964 226.808 140.356 226.808 141.042C226.808 141.756 226.29 142.204 225.31 142.204H223.014V139.964H225.198ZM200.62 164H205.016C207.284 164 208.866 163.16 208.866 161.13C208.866 159.884 208.222 159.072 207.172 158.75C208.054 158.372 208.53 157.686 208.53 156.678C208.53 155.236 207.718 154.2 205.114 154.2H200.62V164ZM204.988 159.828C206.248 159.828 206.766 160.206 206.766 161.018C206.766 161.858 206.164 162.236 204.946 162.236H202.636V159.828H204.988ZM204.82 155.964C206.038 155.964 206.43 156.356 206.43 157.042C206.43 157.756 205.912 158.204 204.932 158.204H202.636V155.964H204.82ZM210.447 164H217.853V162.096H212.463V154.2H210.447V164ZM228.154 164V154.2H226.138V160.64L221.014 154.2H219.194V164H221.21V157.588L226.32 164H228.154Z" fill="#222429"/>
<path d="M171.415 11.8672C195.894 11.8672 219.925 18.4411 240.995 30.9021C262.065 43.3632 279.403 61.254 291.196 82.7055C302.989 104.157 308.805 128.382 308.036 152.849C307.267 177.316 299.942 201.128 286.825 221.797L269.513 210.811C280.663 193.242 286.889 173.002 287.543 152.205C288.196 131.408 283.253 110.817 273.229 92.583C263.205 74.3492 248.468 59.142 230.558 48.5502C212.648 37.9583 192.222 32.3704 171.415 32.3704V11.8672Z" fill="#BFCED4"/>
<path d="M138.907 281.322C107.726 273.687 80.2261 255.321 61.2289 229.443L77.7568 217.31C93.9044 239.306 117.279 254.918 143.783 261.407L138.907 281.322Z" fill="#5FAF2D"/>
<path d="M34.7329 149.868C34.4508 120.49 43.642 91.8021 60.9442 68.0575L77.5149 80.1322C62.8079 100.315 54.9954 124.699 55.2352 149.671L34.7329 149.868Z" fill="#A3CF46"/>
<path d="M287.616 220.534C272.416 245.074 249.837 264.171 223.116 275.089C196.395 286.007 166.903 288.186 138.867 281.312L143.749 261.399C167.58 267.241 192.648 265.39 215.361 256.109C238.074 246.829 257.266 230.596 270.186 209.738L287.616 220.534Z" fill="#648494"/>
<path d="M60.8271 68.2185C73.5052 50.7666 90.1336 36.5629 109.353 26.7688C128.572 16.9748 149.836 11.8684 171.407 11.8672L171.408 32.3704C153.073 32.3715 134.999 36.7119 118.662 45.0369C102.326 53.3618 88.1916 65.4349 77.4153 80.2691L60.8271 68.2185Z" fill="#4B5366"/>
<path d="M61.6094 229.959C43.9517 206.14 34.5176 177.225 34.7301 147.576L55.2328 147.723C55.0522 172.925 63.0711 197.502 78.0802 217.748L61.6094 229.959Z" fill="#003E14"/>
<path d="M302.555 72.05C302.695 71.66 302.885 71.305 303.125 70.985C303.365 70.655 303.655 70.37 303.995 70.13C304.345 69.89 304.745 69.705 305.195 69.575C305.655 69.435 306.17 69.365 306.74 69.365C307.25 69.365 307.72 69.43 308.15 69.56C308.59 69.68 308.965 69.855 309.275 70.085C309.595 70.305 309.84 70.58 310.01 70.91C310.19 71.24 310.28 71.605 310.28 72.005C310.28 72.615 310.12 73.135 309.8 73.565C309.49 73.995 309.035 74.295 308.435 74.465C308.695 74.485 308.95 74.55 309.2 74.66C309.45 74.76 309.67 74.915 309.86 75.125C310.06 75.325 310.22 75.58 310.34 75.89C310.46 76.19 310.52 76.55 310.52 76.97C310.52 77.48 310.42 77.935 310.22 78.335C310.03 78.725 309.76 79.055 309.41 79.325C309.07 79.585 308.665 79.785 308.195 79.925C307.725 80.065 307.22 80.135 306.68 80.135C306.09 80.135 305.55 80.065 305.06 79.925C304.58 79.785 304.155 79.595 303.785 79.355C303.415 79.105 303.1 78.81 302.84 78.47C302.59 78.12 302.4 77.735 302.27 77.315L303.485 76.79C303.615 77.06 303.77 77.32 303.95 77.57C304.13 77.82 304.35 78.04 304.61 78.23C304.87 78.42 305.175 78.575 305.525 78.695C305.875 78.805 306.29 78.86 306.77 78.86C307.52 78.86 308.11 78.7 308.54 78.38C308.98 78.05 309.2 77.585 309.2 76.985C309.2 76.655 309.13 76.38 308.99 76.16C308.85 75.93 308.655 75.75 308.405 75.62C308.155 75.48 307.86 75.385 307.52 75.335C307.19 75.275 306.83 75.245 306.44 75.245H305.27V74H306.2C307.07 74 307.745 73.835 308.225 73.505C308.715 73.175 308.96 72.76 308.96 72.26C308.96 71.72 308.755 71.315 308.345 71.045C307.935 70.775 307.38 70.64 306.68 70.64C306.25 70.64 305.87 70.695 305.54 70.805C305.21 70.915 304.92 71.06 304.67 71.24C304.43 71.42 304.225 71.625 304.055 71.855C303.895 72.085 303.77 72.32 303.68 72.56L302.555 72.05ZM317.738 77.9H311.273V76.94L317.888 69.5H318.998V76.625H320.948V77.9H318.998V80H317.738V77.9ZM317.738 76.625V71.6L313.073 76.625H317.738ZM331.056 69.17L332.001 69.86L324.291 80.225L323.301 79.655L331.056 69.17ZM321.681 72.02C321.681 71.64 321.751 71.295 321.891 70.985C322.031 70.665 322.221 70.395 322.461 70.175C322.711 69.945 323.001 69.77 323.331 69.65C323.671 69.52 324.036 69.455 324.426 69.455C324.816 69.455 325.176 69.52 325.506 69.65C325.836 69.77 326.121 69.945 326.361 70.175C326.611 70.395 326.806 70.665 326.946 70.985C327.086 71.295 327.156 71.64 327.156 72.02C327.156 72.4 327.086 72.745 326.946 73.055C326.806 73.365 326.611 73.635 326.361 73.865C326.121 74.085 325.836 74.26 325.506 74.39C325.176 74.51 324.816 74.57 324.426 74.57C324.036 74.57 323.671 74.51 323.331 74.39C323.001 74.26 322.711 74.085 322.461 73.865C322.221 73.635 322.031 73.365 321.891 73.055C321.751 72.745 321.681 72.4 321.681 72.02ZM322.941 72.02C322.941 72.25 322.981 72.455 323.061 72.635C323.151 72.815 323.261 72.97 323.391 73.1C323.531 73.23 323.691 73.33 323.871 73.4C324.051 73.47 324.236 73.505 324.426 73.505C324.816 73.505 325.156 73.37 325.446 73.1C325.746 72.83 325.896 72.47 325.896 72.02C325.896 71.57 325.746 71.21 325.446 70.94C325.156 70.67 324.816 70.535 324.426 70.535C324.026 70.535 323.676 70.67 323.376 70.94C323.086 71.21 322.941 71.57 322.941 72.02ZM328.116 77.495C328.116 77.125 328.186 76.785 328.326 76.475C328.466 76.155 328.656 75.885 328.896 75.665C329.146 75.435 329.436 75.26 329.766 75.14C330.106 75.01 330.471 74.945 330.861 74.945C331.251 74.945 331.611 75.01 331.941 75.14C332.271 75.26 332.556 75.435 332.796 75.665C333.046 75.885 333.241 76.155 333.381 76.475C333.521 76.785 333.591 77.125 333.591 77.495C333.591 77.875 333.521 78.22 333.381 78.53C333.241 78.84 333.046 79.11 332.796 79.34C332.556 79.57 332.271 79.75 331.941 79.88C331.611 80 331.251 80.06 330.861 80.06C330.471 80.06 330.106 80 329.766 79.88C329.436 79.75 329.146 79.57 328.896 79.34C328.656 79.11 328.466 78.84 328.326 78.53C328.186 78.22 328.116 77.875 328.116 77.495ZM329.376 77.495C329.376 77.725 329.416 77.93 329.496 78.11C329.586 78.29 329.696 78.445 329.826 78.575C329.966 78.705 330.126 78.805 330.306 78.875C330.486 78.945 330.671 78.98 330.861 78.98C331.251 78.98 331.591 78.845 331.881 78.575C332.181 78.305 332.331 77.945 332.331 77.495C332.331 77.045 332.181 76.685 331.881 76.415C331.591 76.145 331.251 76.01 330.861 76.01C330.461 76.01 330.111 76.145 329.811 76.415C329.521 76.685 329.376 77.045 329.376 77.495Z" fill="#777F8C"/>
<path d="M63.045 276.165L63.525 277.29L66.24 276.045V285H67.5V274.44H66.645L63.045 276.165ZM68.813 276.165L69.293 277.29L72.008 276.045V285H73.268V274.44H72.413L68.813 276.165ZM76.8009 284.655L77.7909 285.225L85.5009 274.86L84.5559 274.17L76.8009 284.655ZM75.1809 277.02C75.1809 278.52 76.3659 279.57 77.9259 279.57C79.4709 279.57 80.6559 278.52 80.6559 277.02C80.6559 275.505 79.4709 274.455 77.9259 274.455C76.3659 274.455 75.1809 275.505 75.1809 277.02ZM76.4409 277.02C76.4409 276.12 77.1309 275.535 77.9259 275.535C78.7059 275.535 79.3959 276.12 79.3959 277.02C79.3959 277.92 78.7059 278.505 77.9259 278.505C77.1609 278.505 76.4409 277.92 76.4409 277.02ZM81.6159 282.495C81.6159 283.995 82.8009 285.06 84.3609 285.06C85.9059 285.06 87.0909 283.995 87.0909 282.495C87.0909 280.995 85.9059 279.945 84.3609 279.945C82.8009 279.945 81.6159 280.995 81.6159 282.495ZM82.8759 282.495C82.8759 281.595 83.5659 281.01 84.3609 281.01C85.1409 281.01 85.8309 281.595 85.8309 282.495C85.8309 283.395 85.1409 283.98 84.3609 283.98C83.5959 283.98 82.8759 283.395 82.8759 282.495Z" fill="#777F8C"/>
<path d="M1.045 96.165L1.525 97.29L4.24 96.045V105H5.5V94.44H4.645L1.045 96.165ZM7.41297 99.75C7.41297 102.855 9.00297 105.135 11.898 105.135C14.958 105.135 16.338 102.855 16.338 99.75C16.338 96.45 14.913 94.365 11.868 94.365C8.83797 94.365 7.41297 96.645 7.41297 99.75ZM8.73297 99.75C8.73297 97.23 9.72297 95.64 11.868 95.64C14.028 95.64 15.018 97.185 15.018 99.75C15.018 102.3 14.058 103.86 11.898 103.86C9.93297 103.86 8.73297 102.3 8.73297 99.75ZM19.0783 104.655L20.0683 105.225L27.7783 94.86L26.8333 94.17L19.0783 104.655ZM17.4583 97.02C17.4583 98.52 18.6433 99.57 20.2033 99.57C21.7483 99.57 22.9333 98.52 22.9333 97.02C22.9333 95.505 21.7483 94.455 20.2033 94.455C18.6433 94.455 17.4583 95.505 17.4583 97.02ZM18.7183 97.02C18.7183 96.12 19.4083 95.535 20.2033 95.535C20.9833 95.535 21.6733 96.12 21.6733 97.02C21.6733 97.92 20.9833 98.505 20.2033 98.505C19.4383 98.505 18.7183 97.92 18.7183 97.02ZM23.8933 102.495C23.8933 103.995 25.0783 105.06 26.6383 105.06C28.1833 105.06 29.3683 103.995 29.3683 102.495C29.3683 100.995 28.1833 99.945 26.6383 99.945C25.0783 99.945 23.8933 100.995 23.8933 102.495ZM25.1533 102.495C25.1533 101.595 25.8433 101.01 26.6383 101.01C27.4183 101.01 28.1083 101.595 28.1083 102.495C28.1083 103.395 27.4183 103.98 26.6383 103.98C25.8733 103.98 25.1533 103.395 25.1533 102.495Z" fill="#777F8C"/>
<path d="M0.045 196.165L0.525 197.29L3.24 196.045V205H4.5V194.44H3.645L0.045 196.165ZM6.41297 199.75C6.41297 202.855 8.00297 205.135 10.898 205.135C13.958 205.135 15.338 202.855 15.338 199.75C15.338 196.45 13.913 194.365 10.868 194.365C7.83797 194.365 6.41297 196.645 6.41297 199.75ZM7.73297 199.75C7.73297 197.23 8.72297 195.64 10.868 195.64C13.028 195.64 14.018 197.185 14.018 199.75C14.018 202.3 13.058 203.86 10.898 203.86C8.93297 203.86 7.73297 202.3 7.73297 199.75ZM18.0783 204.655L19.0683 205.225L26.7783 194.86L25.8333 194.17L18.0783 204.655ZM16.4583 197.02C16.4583 198.52 17.6433 199.57 19.2033 199.57C20.7483 199.57 21.9333 198.52 21.9333 197.02C21.9333 195.505 20.7483 194.455 19.2033 194.455C17.6433 194.455 16.4583 195.505 16.4583 197.02ZM17.7183 197.02C17.7183 196.12 18.4083 195.535 19.2033 195.535C19.9833 195.535 20.6733 196.12 20.6733 197.02C20.6733 197.92 19.9833 198.505 19.2033 198.505C18.4383 198.505 17.7183 197.92 17.7183 197.02ZM22.8933 202.495C22.8933 203.995 24.0783 205.06 25.6383 205.06C27.1833 205.06 28.3683 203.995 28.3683 202.495C28.3683 200.995 27.1833 199.945 25.6383 199.945C24.0783 199.945 22.8933 200.995 22.8933 202.495ZM24.1533 202.495C24.1533 201.595 24.8433 201.01 25.6383 201.01C26.4183 201.01 27.1083 201.595 27.1083 202.495C27.1083 203.395 26.4183 203.98 25.6383 203.98C24.8733 203.98 24.1533 203.395 24.1533 202.495Z" fill="#777F8C"/>
<path d="M225.92 291.965C226.085 290.9 226.895 289.64 228.68 289.64C229.94 289.64 230.93 290.18 230.93 291.665C230.93 293.105 229.745 294.44 226.745 296.435L224.465 297.95V299H232.64V297.725H226.835L227.99 297.005C229.79 295.88 232.25 294.125 232.25 291.53C232.25 289.67 230.975 288.365 228.77 288.365C226.415 288.365 225.11 289.835 224.75 291.575L225.92 291.965ZM233.68 293.75C233.68 296.855 235.27 299.135 238.165 299.135C241.225 299.135 242.605 296.855 242.605 293.75C242.605 290.45 241.18 288.365 238.135 288.365C235.105 288.365 233.68 290.645 233.68 293.75ZM235 293.75C235 291.23 235.99 289.64 238.135 289.64C240.295 289.64 241.285 291.185 241.285 293.75C241.285 296.3 240.325 297.86 238.165 297.86C236.2 297.86 235 296.3 235 293.75ZM245.345 298.655L246.335 299.225L254.045 288.86L253.1 288.17L245.345 298.655ZM243.725 291.02C243.725 292.52 244.91 293.57 246.47 293.57C248.015 293.57 249.2 292.52 249.2 291.02C249.2 289.505 248.015 288.455 246.47 288.455C244.91 288.455 243.725 289.505 243.725 291.02ZM244.985 291.02C244.985 290.12 245.675 289.535 246.47 289.535C247.25 289.535 247.94 290.12 247.94 291.02C247.94 291.92 247.25 292.505 246.47 292.505C245.705 292.505 244.985 291.92 244.985 291.02ZM250.16 296.495C250.16 297.995 251.345 299.06 252.905 299.06C254.45 299.06 255.635 297.995 255.635 296.495C255.635 294.995 254.45 293.945 252.905 293.945C251.345 293.945 250.16 294.995 250.16 296.495ZM251.42 296.495C251.42 295.595 252.11 295.01 252.905 295.01C253.685 295.01 254.375 295.595 254.375 296.495C254.375 297.395 253.685 297.98 252.905 297.98C252.14 297.98 251.42 297.395 251.42 296.495Z" fill="#777F8C"/>
<path d="M79.045 6.165L79.525 7.29L82.24 6.045V15H83.5V4.44H82.645L79.045 6.165ZM85.863 9.885L86.943 10.17C87.558 9.555 88.218 9.27 89.268 9.27C91.113 9.27 92.238 10.155 92.238 11.565C92.238 12.795 91.353 13.86 89.493 13.86C87.873 13.86 86.823 12.975 86.418 12.06L85.218 12.57C85.893 14.235 87.588 15.135 89.493 15.135C91.818 15.135 93.558 13.62 93.558 11.52C93.558 9.54 92.148 7.995 89.628 7.995C88.503 7.995 87.693 8.265 87.243 8.595L87.633 5.775H93.078V4.5H86.478L85.863 9.885ZM96.3166 14.655L97.3066 15.225L105.017 4.86L104.072 4.17L96.3166 14.655ZM94.6966 7.02C94.6966 8.52 95.8816 9.57 97.4416 9.57C98.9866 9.57 100.172 8.52 100.172 7.02C100.172 5.505 98.9866 4.455 97.4416 4.455C95.8816 4.455 94.6966 5.505 94.6966 7.02ZM95.9566 7.02C95.9566 6.12 96.6466 5.535 97.4416 5.535C98.2216 5.535 98.9116 6.12 98.9116 7.02C98.9116 7.92 98.2216 8.505 97.4416 8.505C96.6766 8.505 95.9566 7.92 95.9566 7.02ZM101.132 12.495C101.132 13.995 102.317 15.06 103.877 15.06C105.422 15.06 106.607 13.995 106.607 12.495C106.607 10.995 105.422 9.945 103.877 9.945C102.317 9.945 101.132 10.995 101.132 12.495ZM102.392 12.495C102.392 11.595 103.082 11.01 103.877 11.01C104.657 11.01 105.347 11.595 105.347 12.495C105.347 13.395 104.657 13.98 103.877 13.98C103.112 13.98 102.392 13.395 102.392 12.495Z" fill="#777F8C"/>
</svg>
