<svg width="364" height="301" viewBox="0 0 364 301" fill="none" xmlns="http://www.w3.org/2000/svg">
<path d="M155.895 105.496L154.647 105.08C155.031 103.224 156.423 101.656 158.935 101.656C161.287 101.656 162.647 103.048 162.647 105.032C162.647 107.8 160.023 109.672 158.103 110.872L156.871 111.64H163.063V113H154.343V111.88L156.775 110.264C159.975 108.136 161.239 106.712 161.239 105.176C161.239 103.592 160.183 103.016 158.839 103.016C156.935 103.016 156.071 104.36 155.895 105.496ZM164.012 107.4C164.012 104.088 165.532 101.656 168.764 101.656C172.012 101.656 173.532 103.88 173.532 107.4C173.532 110.712 172.06 113.144 168.796 113.144C165.708 113.144 164.012 110.712 164.012 107.4ZM165.42 107.4C165.42 110.12 166.7 111.784 168.796 111.784C171.1 111.784 172.124 110.12 172.124 107.4C172.124 104.664 171.068 103.016 168.764 103.016C166.476 103.016 165.42 104.712 165.42 107.4ZM175.927 105.496L174.679 105.08C175.063 103.224 176.455 101.656 178.967 101.656C181.319 101.656 182.679 103.048 182.679 105.032C182.679 107.8 180.055 109.672 178.135 110.872L176.903 111.64H183.095V113H174.375V111.88L176.807 110.264C180.007 108.136 181.271 106.712 181.271 105.176C181.271 103.592 180.215 103.016 178.871 103.016C176.967 103.016 176.103 104.36 175.927 105.496ZM185.404 105.496L184.156 105.08C184.54 103.224 185.932 101.656 188.444 101.656C190.796 101.656 192.156 103.048 192.156 105.032C192.156 107.8 189.532 109.672 187.612 110.872L186.38 111.64H192.572V113H183.852V111.88L186.284 110.264C189.484 108.136 190.748 106.712 190.748 105.176C190.748 103.592 189.692 103.016 188.348 103.016C186.444 103.016 185.58 104.36 185.404 105.496Z" fill="#9299A3"/>
<path d="M119.54 136.68H120.74C124.02 136.68 126.46 135.16 126.46 132.68C126.46 130.16 124.46 128.68 120.06 128.68C115.86 128.68 113.74 130.16 113.74 132.68C113.74 134.96 115.94 136.68 119.54 136.68ZM120.66 140.6H119.7C115.38 140.6 112.86 142.48 112.86 144.84C112.86 147.48 115.26 149.32 120.1 149.32C124.94 149.32 127.3 147.6 127.3 144.92C127.3 142.2 124.86 140.6 120.66 140.6ZM120.14 153.48C112.54 153.48 108.14 150.32 108.14 145.28C108.14 142.2 110.14 139.6 113.3 138.48C110.38 137.36 109.02 134.88 109.02 132.44C109.02 127.76 113.02 124.52 120.1 124.52C127.38 124.52 131.18 127.76 131.18 132.44C131.18 135.04 129.66 137.04 127.02 138.32C130.62 139.52 132.02 141.96 132.02 145.12C132.02 150.36 127.54 153.48 120.14 153.48ZM138.128 134.6L134.128 133.2C135.248 128.08 139.448 124.52 145.288 124.52C151.528 124.52 155.088 128.16 155.088 133.44C155.088 138.2 151.768 142.12 144.448 146.76L141.808 148.44H155.848V153H133.808V149.28L138.888 145.92C147.768 140.04 150.368 137.48 150.368 133.84C150.368 130.48 147.888 129.08 144.968 129.08C140.808 129.08 138.848 131.84 138.128 134.6ZM158.491 158.92L157.331 156.52C158.571 156.16 160.251 154.92 160.491 153.4C160.531 153.28 160.531 153.16 160.531 153.04C160.331 153.08 160.171 153.04 160.051 153.04C158.691 152.8 157.811 151.8 157.811 150.36C157.811 148.72 158.931 147.56 160.811 147.56C162.891 147.56 164.211 149 164.211 151.4C164.211 155.92 161.211 158.12 158.491 158.92ZM166.492 139C166.492 130.56 170.492 124.52 178.612 124.52C186.772 124.52 190.812 130.24 190.812 139C190.812 147.44 186.812 153.48 178.692 153.48C170.772 153.48 166.492 147.44 166.492 139ZM171.212 139C171.212 145.28 173.932 148.92 178.692 148.92C183.932 148.92 186.092 145.28 186.092 139C186.092 132.68 183.892 129.08 178.612 129.08C173.532 129.08 171.212 132.76 171.212 139Z" fill="#222429"/>
<path d="M198.62 137V127.2H201.56L203.856 133.584L206.026 127.2H208.896V137H206.88V129.734L204.276 137H203.324L200.636 129.776V137H198.62ZM217.248 137V129.104H213.86V129.3C213.86 134.746 212.894 137.196 210.752 137.196C210.514 137.196 210.22 137.168 209.982 137.126V135.152C210.094 135.166 210.262 135.18 210.374 135.18C211.564 135.18 211.956 133.724 211.956 129.3V127.2H219.264V137H217.248ZM223.393 137H221.377V127.2H225.521C228.839 127.2 229.637 128.894 229.637 130.448C229.637 132.282 228.587 133.906 225.381 133.906H223.393V137ZM225.507 129.104H223.393V132.002H225.479C226.879 132.002 227.537 131.414 227.537 130.546C227.537 129.706 226.991 129.104 225.507 129.104ZM229.115 138.722V135.096H230.165C230.879 133.766 231.243 131.82 231.243 129.3V127.2H238.355V135.096H239.615V138.722H237.711V137H231.019V138.722H229.115ZM233.147 129.104V129.3C233.147 131.862 232.839 133.766 232.223 135.096H236.339V129.104H233.147ZM200.636 153H198.62V143.2H202.764C206.082 143.2 206.88 144.894 206.88 146.448C206.88 148.282 205.83 149.906 202.624 149.906H200.636V153ZM202.75 145.104H200.636V148.002H202.722C204.122 148.002 204.78 147.414 204.78 146.546C204.78 145.706 204.234 145.104 202.75 145.104ZM210.475 153.196C210.265 153.196 209.957 153.182 209.733 153.126V151.222C209.999 151.278 210.223 151.292 210.335 151.292C210.769 151.292 210.993 151.082 211.259 150.438L206.863 143.2H209.313L212.267 148.366L214.689 143.2H216.789L212.953 151.208C212.239 152.706 211.679 153.196 210.475 153.196ZM225.327 143.2V145.062H219.825V146.826H222.373C224.879 146.826 226.013 147.946 226.013 149.906C226.013 152.048 224.431 153 221.995 153H217.809V143.2H225.327ZM222.233 148.73H219.825V151.096H222.191C223.241 151.096 223.913 150.732 223.913 149.878C223.913 149.122 223.339 148.73 222.233 148.73ZM227.317 151.908C227.317 151.25 227.793 150.76 228.493 150.76C229.193 150.76 229.669 151.25 229.669 151.908C229.669 152.58 229.193 153.07 228.493 153.07C227.793 153.07 227.317 152.58 227.317 151.908Z" fill="#222429"/>
<path d="M173.414 0.867188C200.814 0.867188 227.582 9.10205 250.244 24.5033C272.907 39.9045 290.417 61.7611 300.504 87.2372C310.59 112.713 312.788 140.633 306.811 167.373C300.833 194.114 286.958 218.44 266.984 237.197L252.948 222.251C269.926 206.308 281.72 185.63 286.801 162.901C291.882 140.171 290.014 116.44 281.44 94.785C272.867 73.1303 257.983 54.5522 238.72 41.4611C219.457 28.3701 196.704 21.3704 173.414 21.3704L173.414 0.867188Z" fill="#BFCED4"/>
<path d="M266.902 237.273C253.28 250.045 237.185 259.89 219.611 266.201C202.036 272.512 183.355 275.155 164.72 273.967L166.024 253.506C181.864 254.515 197.743 252.268 212.681 246.904C227.619 241.54 241.3 233.171 252.879 222.316L266.902 237.273Z" fill="#003E14"/>
<path d="M73.7338 231.084C57.9799 214.294 46.7224 193.797 41.0059 171.494L60.8671 166.403C65.7261 185.36 75.295 202.783 88.6858 217.055L73.7338 231.084Z" fill="#A3CF46"/>
<path d="M41.0598 171.704C37.4765 157.815 36.1015 143.449 36.9853 129.133L57.4496 130.396C56.6984 142.565 57.8671 154.776 60.9129 166.581L41.0598 171.704Z" fill="#648494"/>
<path d="M36.9771 129.268C39.0927 94.4391 54.448 61.7379 79.8964 37.8652C105.345 13.9925 138.96 0.755964 173.852 0.867891L173.787 21.371C144.128 21.2759 115.555 32.527 93.924 52.8187C72.2929 73.1105 59.2409 100.907 57.4426 130.511L36.9771 129.268Z" fill="#4B5366"/>
<path d="M164.677 273.965C129.982 271.742 97.4374 256.383 73.6669 231.013L88.6289 216.994C108.834 238.559 136.497 251.614 165.988 253.503L164.677 273.965Z" fill="#5FAF2D"/>
<path d="M315.555 81.05C315.695 80.66 315.885 80.305 316.125 79.985C316.365 79.655 316.655 79.37 316.995 79.13C317.345 78.89 317.745 78.705 318.195 78.575C318.655 78.435 319.17 78.365 319.74 78.365C320.25 78.365 320.72 78.43 321.15 78.56C321.59 78.68 321.965 78.855 322.275 79.085C322.595 79.305 322.84 79.58 323.01 79.91C323.19 80.24 323.28 80.605 323.28 81.005C323.28 81.615 323.12 82.135 322.8 82.565C322.49 82.995 322.035 83.295 321.435 83.465C321.695 83.485 321.95 83.55 322.2 83.66C322.45 83.76 322.67 83.915 322.86 84.125C323.06 84.325 323.22 84.58 323.34 84.89C323.46 85.19 323.52 85.55 323.52 85.97C323.52 86.48 323.42 86.935 323.22 87.335C323.03 87.725 322.76 88.055 322.41 88.325C322.07 88.585 321.665 88.785 321.195 88.925C320.725 89.065 320.22 89.135 319.68 89.135C319.09 89.135 318.55 89.065 318.06 88.925C317.58 88.785 317.155 88.595 316.785 88.355C316.415 88.105 316.1 87.81 315.84 87.47C315.59 87.12 315.4 86.735 315.27 86.315L316.485 85.79C316.615 86.06 316.77 86.32 316.95 86.57C317.13 86.82 317.35 87.04 317.61 87.23C317.87 87.42 318.175 87.575 318.525 87.695C318.875 87.805 319.29 87.86 319.77 87.86C320.52 87.86 321.11 87.7 321.54 87.38C321.98 87.05 322.2 86.585 322.2 85.985C322.2 85.655 322.13 85.38 321.99 85.16C321.85 84.93 321.655 84.75 321.405 84.62C321.155 84.48 320.86 84.385 320.52 84.335C320.19 84.275 319.83 84.245 319.44 84.245H318.27V83H319.2C320.07 83 320.745 82.835 321.225 82.505C321.715 82.175 321.96 81.76 321.96 81.26C321.96 80.72 321.755 80.315 321.345 80.045C320.935 79.775 320.38 79.64 319.68 79.64C319.25 79.64 318.87 79.695 318.54 79.805C318.21 79.915 317.92 80.06 317.67 80.24C317.43 80.42 317.225 80.625 317.055 80.855C316.895 81.085 316.77 81.32 316.68 81.56L315.555 81.05ZM329.358 83.015C329.698 83.015 330.013 82.975 330.303 82.895C330.603 82.805 330.863 82.685 331.083 82.535C331.303 82.385 331.473 82.205 331.593 81.995C331.723 81.785 331.788 81.555 331.788 81.305C331.788 80.765 331.563 80.355 331.113 80.075C330.673 79.785 329.998 79.64 329.088 79.64C328.208 79.64 327.543 79.785 327.093 80.075C326.653 80.365 326.433 80.775 326.433 81.305C326.433 81.545 326.493 81.77 326.613 81.98C326.733 82.19 326.898 82.375 327.108 82.535C327.328 82.685 327.588 82.805 327.888 82.895C328.198 82.975 328.533 83.015 328.893 83.015H329.358ZM328.953 84.2C328.533 84.2 328.143 84.25 327.783 84.35C327.433 84.44 327.133 84.57 326.883 84.74C326.633 84.9 326.438 85.095 326.298 85.325C326.158 85.545 326.088 85.78 326.088 86.03C326.088 86.57 326.338 87.01 326.838 87.35C327.348 87.69 328.103 87.86 329.103 87.86C330.133 87.86 330.893 87.7 331.383 87.38C331.873 87.05 332.118 86.605 332.118 86.045C332.118 85.455 331.863 85 331.353 84.68C330.853 84.36 330.178 84.2 329.328 84.2H328.953ZM329.118 89.135C328.448 89.135 327.843 89.07 327.303 88.94C326.773 88.8 326.318 88.605 325.938 88.355C325.568 88.095 325.278 87.785 325.068 87.425C324.868 87.055 324.768 86.635 324.768 86.165C324.768 85.545 324.953 85.01 325.323 84.56C325.703 84.1 326.208 83.77 326.838 83.57C326.538 83.47 326.278 83.34 326.058 83.18C325.838 83.01 325.658 82.82 325.518 82.61C325.378 82.4 325.273 82.18 325.203 81.95C325.143 81.71 325.113 81.465 325.113 81.215C325.113 80.345 325.453 79.655 326.133 79.145C326.823 78.625 327.813 78.365 329.103 78.365C330.403 78.365 331.393 78.625 332.073 79.145C332.763 79.655 333.108 80.345 333.108 81.215C333.108 81.755 332.958 82.21 332.658 82.58C332.368 82.95 331.963 83.255 331.443 83.495C332.163 83.715 332.673 84.045 332.973 84.485C333.283 84.925 333.438 85.465 333.438 86.105C333.438 86.585 333.338 87.015 333.138 87.395C332.938 87.765 332.648 88.08 332.268 88.34C331.898 88.6 331.443 88.8 330.903 88.94C330.373 89.07 329.778 89.135 329.118 89.135ZM343.983 78.17L344.928 78.86L337.218 89.225L336.228 88.655L343.983 78.17ZM334.608 81.02C334.608 80.64 334.678 80.295 334.818 79.985C334.958 79.665 335.148 79.395 335.388 79.175C335.638 78.945 335.928 78.77 336.258 78.65C336.598 78.52 336.963 78.455 337.353 78.455C337.743 78.455 338.103 78.52 338.433 78.65C338.763 78.77 339.048 78.945 339.288 79.175C339.538 79.395 339.733 79.665 339.873 79.985C340.013 80.295 340.083 80.64 340.083 81.02C340.083 81.4 340.013 81.745 339.873 82.055C339.733 82.365 339.538 82.635 339.288 82.865C339.048 83.085 338.763 83.26 338.433 83.39C338.103 83.51 337.743 83.57 337.353 83.57C336.963 83.57 336.598 83.51 336.258 83.39C335.928 83.26 335.638 83.085 335.388 82.865C335.148 82.635 334.958 82.365 334.818 82.055C334.678 81.745 334.608 81.4 334.608 81.02ZM335.868 81.02C335.868 81.25 335.908 81.455 335.988 81.635C336.078 81.815 336.188 81.97 336.318 82.1C336.458 82.23 336.618 82.33 336.798 82.4C336.978 82.47 337.163 82.505 337.353 82.505C337.743 82.505 338.083 82.37 338.373 82.1C338.673 81.83 338.823 81.47 338.823 81.02C338.823 80.57 338.673 80.21 338.373 79.94C338.083 79.67 337.743 79.535 337.353 79.535C336.953 79.535 336.603 79.67 336.303 79.94C336.013 80.21 335.868 80.57 335.868 81.02ZM341.043 86.495C341.043 86.125 341.113 85.785 341.253 85.475C341.393 85.155 341.583 84.885 341.823 84.665C342.073 84.435 342.363 84.26 342.693 84.14C343.033 84.01 343.398 83.945 343.788 83.945C344.178 83.945 344.538 84.01 344.868 84.14C345.198 84.26 345.483 84.435 345.723 84.665C345.973 84.885 346.168 85.155 346.308 85.475C346.448 85.785 346.518 86.125 346.518 86.495C346.518 86.875 346.448 87.22 346.308 87.53C346.168 87.84 345.973 88.11 345.723 88.34C345.483 88.57 345.198 88.75 344.868 88.88C344.538 89 344.178 89.06 343.788 89.06C343.398 89.06 343.033 89 342.693 88.88C342.363 88.75 342.073 88.57 341.823 88.34C341.583 88.11 341.393 87.84 341.253 87.53C341.113 87.22 341.043 86.875 341.043 86.495ZM342.303 86.495C342.303 86.725 342.343 86.93 342.423 87.11C342.513 87.29 342.623 87.445 342.753 87.575C342.893 87.705 343.053 87.805 343.233 87.875C343.413 87.945 343.598 87.98 343.788 87.98C344.178 87.98 344.518 87.845 344.808 87.575C345.108 87.305 345.258 86.945 345.258 86.495C345.258 86.045 345.108 85.685 344.808 85.415C344.518 85.145 344.178 85.01 343.788 85.01C343.388 85.01 343.038 85.145 342.738 85.415C342.448 85.685 342.303 86.045 342.303 86.495Z" fill="#777F8C"/>
<path d="M91.045 277.165L94.645 275.44H95.5V286H94.24V277.045L91.525 278.29L91.045 277.165ZM98.688 278.965L97.518 278.575C97.878 276.835 99.183 275.365 101.538 275.365C103.743 275.365 105.018 276.67 105.018 278.53C105.018 281.125 102.558 282.88 100.758 284.005L99.603 284.725H105.408V286H97.233V284.95L99.513 283.435C102.513 281.44 103.698 280.105 103.698 278.665C103.698 277.18 102.708 276.64 101.448 276.64C99.663 276.64 98.853 277.9 98.688 278.965ZM108.068 285.655L115.823 275.17L116.768 275.86L109.058 286.225L108.068 285.655ZM106.448 278.02C106.448 276.505 107.633 275.455 109.193 275.455C110.738 275.455 111.923 276.505 111.923 278.02C111.923 279.52 110.738 280.57 109.193 280.57C107.633 280.57 106.448 279.52 106.448 278.02ZM107.708 278.02C107.708 278.92 108.428 279.505 109.193 279.505C109.973 279.505 110.663 278.92 110.663 278.02C110.663 277.12 109.973 276.535 109.193 276.535C108.398 276.535 107.708 277.12 107.708 278.02ZM112.883 283.495C112.883 281.995 114.068 280.945 115.628 280.945C117.173 280.945 118.358 281.995 118.358 283.495C118.358 284.995 117.173 286.06 115.628 286.06C114.068 286.06 112.883 284.995 112.883 283.495ZM114.143 283.495C114.143 284.395 114.863 284.98 115.628 284.98C116.408 284.98 117.098 284.395 117.098 283.495C117.098 282.595 116.408 282.01 115.628 282.01C114.833 282.01 114.143 282.595 114.143 283.495Z" fill="#777F8C"/>
<path d="M19.785 212.015H20.25C21.615 212.015 22.68 211.31 22.68 210.305C22.68 209.24 21.795 208.64 19.98 208.64C18.225 208.64 17.325 209.255 17.325 210.305C17.325 211.28 18.33 212.015 19.785 212.015ZM20.22 213.2H19.845C18.15 213.2 16.98 214.01 16.98 215.03C16.98 216.11 18 216.86 19.995 216.86C22.035 216.86 23.01 216.155 23.01 215.045C23.01 213.875 21.9 213.2 20.22 213.2ZM20.01 218.135C17.34 218.135 15.66 217.025 15.66 215.165C15.66 213.935 16.485 212.975 17.73 212.57C16.515 212.165 16.005 211.205 16.005 210.215C16.005 208.49 17.43 207.365 19.995 207.365C22.575 207.365 24 208.49 24 210.215C24 211.28 23.37 212.015 22.335 212.495C23.76 212.93 24.33 213.83 24.33 215.105C24.33 217.025 22.665 218.135 20.01 218.135ZM27.1199 217.655L34.8749 207.17L35.8199 207.86L28.1099 218.225L27.1199 217.655ZM25.4999 210.02C25.4999 208.505 26.6849 207.455 28.2449 207.455C29.7899 207.455 30.9749 208.505 30.9749 210.02C30.9749 211.52 29.7899 212.57 28.2449 212.57C26.6849 212.57 25.4999 211.52 25.4999 210.02ZM26.7599 210.02C26.7599 210.92 27.4799 211.505 28.2449 211.505C29.0249 211.505 29.7149 210.92 29.7149 210.02C29.7149 209.12 29.0249 208.535 28.2449 208.535C27.4499 208.535 26.7599 209.12 26.7599 210.02ZM31.9349 215.495C31.9349 213.995 33.1199 212.945 34.6799 212.945C36.2249 212.945 37.4099 213.995 37.4099 215.495C37.4099 216.995 36.2249 218.06 34.6799 218.06C33.1199 218.06 31.9349 216.995 31.9349 215.495ZM33.1949 215.495C33.1949 216.395 33.9149 216.98 34.6799 216.98C35.4599 216.98 36.1499 216.395 36.1499 215.495C36.1499 214.595 35.4599 214.01 34.6799 214.01C33.8849 214.01 33.1949 214.595 33.1949 215.495Z" fill="#777F8C"/>
<path d="M1.095 148.885L1.71 143.5H8.31V144.775H2.865L2.475 147.595C2.925 147.265 3.735 146.995 4.86 146.995C7.38 146.995 8.79 148.54 8.79 150.52C8.79 152.62 7.05 154.135 4.725 154.135C2.82 154.135 1.125 153.235 0.45 151.57L1.65 151.06C2.055 151.975 3.105 152.86 4.725 152.86C6.585 152.86 7.47 151.795 7.47 150.565C7.47 149.155 6.345 148.27 4.5 148.27C3.45 148.27 2.79 148.555 2.175 149.17L1.095 148.885ZM11.5486 153.655L19.3036 143.17L20.2486 143.86L12.5386 154.225L11.5486 153.655ZM9.92859 146.02C9.92859 144.505 11.1136 143.455 12.6736 143.455C14.2186 143.455 15.4036 144.505 15.4036 146.02C15.4036 147.52 14.2186 148.57 12.6736 148.57C11.1136 148.57 9.92859 147.52 9.92859 146.02ZM11.1886 146.02C11.1886 146.92 11.9086 147.505 12.6736 147.505C13.4536 147.505 14.1436 146.92 14.1436 146.02C14.1436 145.12 13.4536 144.535 12.6736 144.535C11.8786 144.535 11.1886 145.12 11.1886 146.02ZM16.3636 151.495C16.3636 149.995 17.5486 148.945 19.1086 148.945C20.6536 148.945 21.8386 149.995 21.8386 151.495C21.8386 152.995 20.6536 154.06 19.1086 154.06C17.5486 154.06 16.3636 152.995 16.3636 151.495ZM17.6236 151.495C17.6236 152.395 18.3436 152.98 19.1086 152.98C19.8886 152.98 20.5786 152.395 20.5786 151.495C20.5786 150.595 19.8886 150.01 19.1086 150.01C18.3136 150.01 17.6236 150.595 17.6236 151.495Z" fill="#777F8C"/>
<path d="M230.045 280.165L233.645 278.44H234.5V289H233.24V280.045L230.525 281.29L230.045 280.165ZM237.448 281.56L236.323 281.05C236.878 279.505 238.228 278.365 240.508 278.365C242.563 278.365 244.048 279.385 244.048 281.005C244.048 282.22 243.403 283.12 242.203 283.465C243.238 283.54 244.288 284.29 244.288 285.97C244.288 288.01 242.623 289.135 240.448 289.135C238.093 289.135 236.548 287.98 236.038 286.315L237.253 285.79C237.778 286.885 238.633 287.86 240.538 287.86C242.038 287.86 242.968 287.185 242.968 285.985C242.968 284.65 241.768 284.245 240.208 284.245H239.038V283H239.968C241.693 283 242.728 282.25 242.728 281.26C242.728 280.195 241.843 279.64 240.448 279.64C238.738 279.64 237.808 280.6 237.448 281.56ZM247.141 288.655L254.896 278.17L255.841 278.86L248.131 289.225L247.141 288.655ZM245.521 281.02C245.521 279.505 246.706 278.455 248.266 278.455C249.811 278.455 250.996 279.505 250.996 281.02C250.996 282.52 249.811 283.57 248.266 283.57C246.706 283.57 245.521 282.52 245.521 281.02ZM246.781 281.02C246.781 281.92 247.501 282.505 248.266 282.505C249.046 282.505 249.736 281.92 249.736 281.02C249.736 280.12 249.046 279.535 248.266 279.535C247.471 279.535 246.781 280.12 246.781 281.02ZM251.956 286.495C251.956 284.995 253.141 283.945 254.701 283.945C256.246 283.945 257.431 284.995 257.431 286.495C257.431 287.995 256.246 289.06 254.701 289.06C253.141 289.06 251.956 287.995 251.956 286.495ZM253.216 286.495C253.216 287.395 253.936 287.98 254.701 287.98C255.481 287.98 256.171 287.395 256.171 286.495C256.171 285.595 255.481 285.01 254.701 285.01C253.906 285.01 253.216 285.595 253.216 286.495Z" fill="#777F8C"/>
<path d="M40.92 22.965L39.75 22.575C40.11 20.835 41.415 19.365 43.77 19.365C45.975 19.365 47.25 20.67 47.25 22.53C47.25 25.125 44.79 26.88 42.99 28.005L41.835 28.725H47.64V30H39.465V28.95L41.745 27.435C44.745 25.44 45.93 24.105 45.93 22.665C45.93 21.18 44.94 20.64 43.68 20.64C41.895 20.64 41.085 21.9 40.92 22.965ZM54.6646 30V27.9H48.1996V26.94L54.8146 19.5H55.9246V26.625H57.8746V27.9H55.9246V30H54.6646ZM49.9996 26.625H54.6646V21.6L49.9996 26.625ZM60.2277 29.655L67.9827 19.17L68.9277 19.86L61.2177 30.225L60.2277 29.655ZM58.6077 22.02C58.6077 20.505 59.7927 19.455 61.3527 19.455C62.8977 19.455 64.0827 20.505 64.0827 22.02C64.0827 23.52 62.8977 24.57 61.3527 24.57C59.7927 24.57 58.6077 23.52 58.6077 22.02ZM59.8677 22.02C59.8677 22.92 60.5877 23.505 61.3527 23.505C62.1327 23.505 62.8227 22.92 62.8227 22.02C62.8227 21.12 62.1327 20.535 61.3527 20.535C60.5577 20.535 59.8677 21.12 59.8677 22.02ZM65.0427 27.495C65.0427 25.995 66.2277 24.945 67.7877 24.945C69.3327 24.945 70.5177 25.995 70.5177 27.495C70.5177 28.995 69.3327 30.06 67.7877 30.06C66.2277 30.06 65.0427 28.995 65.0427 27.495ZM66.3027 27.495C66.3027 28.395 67.0227 28.98 67.7877 28.98C68.5677 28.98 69.2577 28.395 69.2577 27.495C69.2577 26.595 68.5677 26.01 67.7877 26.01C66.9927 26.01 66.3027 26.595 66.3027 27.495Z" fill="#777F8C"/>
</svg>
