<svg viewBox="0 0 535 252" fill="none" xmlns="http://www.w3.org/2000/svg">
<line x1="1" y1="191.5" x2="535" y2="191.5" stroke="#CBCFD6"/>
<path d="M431.294 205.07C431.378 204.669 431.518 204.286 431.714 203.922C431.91 203.558 432.162 203.241 432.47 202.97C432.778 202.69 433.146 202.471 433.576 202.312C434.005 202.153 434.495 202.074 435.046 202.074C435.559 202.074 436.016 202.149 436.418 202.298C436.819 202.438 437.16 202.639 437.44 202.9C437.72 203.161 437.93 203.474 438.07 203.838C438.219 204.202 438.294 204.599 438.294 205.028C438.294 205.635 438.163 206.195 437.902 206.708C437.65 207.212 437.328 207.674 436.936 208.094C436.544 208.514 436.114 208.897 435.648 209.242C435.181 209.578 434.738 209.877 434.318 210.138L433.24 210.81H438.658V212H431.028V211.02L433.156 209.606C433.856 209.139 434.453 208.71 434.948 208.318C435.442 207.917 435.844 207.539 436.152 207.184C436.469 206.829 436.698 206.489 436.838 206.162C436.987 205.826 437.062 205.49 437.062 205.154C437.062 204.809 437.006 204.515 436.894 204.272C436.791 204.029 436.642 203.833 436.446 203.684C436.259 203.535 436.035 203.427 435.774 203.362C435.522 203.297 435.251 203.264 434.962 203.264C434.542 203.264 434.178 203.329 433.87 203.46C433.571 203.591 433.314 203.763 433.1 203.978C432.894 204.183 432.731 204.417 432.61 204.678C432.498 204.93 432.423 205.182 432.386 205.434L431.294 205.07ZM439.628 207.1C439.628 206.372 439.712 205.705 439.88 205.098C440.048 204.482 440.3 203.95 440.636 203.502C440.981 203.054 441.415 202.704 441.938 202.452C442.461 202.2 443.077 202.074 443.786 202.074C444.495 202.074 445.111 202.191 445.634 202.424C446.157 202.657 446.591 202.993 446.936 203.432C447.281 203.871 447.538 204.403 447.706 205.028C447.874 205.644 447.958 206.335 447.958 207.1C447.958 207.828 447.874 208.5 447.706 209.116C447.547 209.723 447.295 210.25 446.95 210.698C446.614 211.146 446.185 211.496 445.662 211.748C445.139 212 444.523 212.126 443.814 212.126C443.142 212.126 442.545 212 442.022 211.748C441.499 211.496 441.061 211.146 440.706 210.698C440.351 210.25 440.081 209.723 439.894 209.116C439.717 208.5 439.628 207.828 439.628 207.1ZM440.86 207.1C440.86 208.295 441.121 209.233 441.644 209.914C442.167 210.595 442.89 210.936 443.814 210.936C444.822 210.936 445.559 210.595 446.026 209.914C446.493 209.233 446.726 208.295 446.726 207.1C446.726 205.905 446.488 204.967 446.012 204.286C445.536 203.605 444.794 203.264 443.786 203.264C443.282 203.264 442.848 203.353 442.484 203.53C442.12 203.707 441.817 203.964 441.574 204.3C441.331 204.636 441.149 205.042 441.028 205.518C440.916 205.985 440.86 206.512 440.86 207.1ZM449.102 205.07C449.186 204.669 449.326 204.286 449.522 203.922C449.718 203.558 449.97 203.241 450.278 202.97C450.586 202.69 450.954 202.471 451.384 202.312C451.813 202.153 452.303 202.074 452.854 202.074C453.367 202.074 453.824 202.149 454.226 202.298C454.627 202.438 454.968 202.639 455.248 202.9C455.528 203.161 455.738 203.474 455.878 203.838C456.027 204.202 456.102 204.599 456.102 205.028C456.102 205.635 455.971 206.195 455.71 206.708C455.458 207.212 455.136 207.674 454.744 208.094C454.352 208.514 453.922 208.897 453.456 209.242C452.989 209.578 452.546 209.877 452.126 210.138L451.048 210.81H456.466V212H448.836V211.02L450.964 209.606C451.664 209.139 452.261 208.71 452.756 208.318C453.25 207.917 453.652 207.539 453.96 207.184C454.277 206.829 454.506 206.489 454.646 206.162C454.795 205.826 454.87 205.49 454.87 205.154C454.87 204.809 454.814 204.515 454.702 204.272C454.599 204.029 454.45 203.833 454.254 203.684C454.067 203.535 453.843 203.427 453.582 203.362C453.33 203.297 453.059 203.264 452.77 203.264C452.35 203.264 451.986 203.329 451.678 203.46C451.379 203.591 451.122 203.763 450.908 203.978C450.702 204.183 450.539 204.417 450.418 204.678C450.306 204.93 450.231 205.182 450.194 205.434L449.102 205.07ZM457.534 205.07C457.618 204.669 457.758 204.286 457.954 203.922C458.15 203.558 458.402 203.241 458.71 202.97C459.018 202.69 459.387 202.471 459.816 202.312C460.245 202.153 460.735 202.074 461.286 202.074C461.799 202.074 462.257 202.149 462.658 202.298C463.059 202.438 463.4 202.639 463.68 202.9C463.96 203.161 464.17 203.474 464.31 203.838C464.459 204.202 464.534 204.599 464.534 205.028C464.534 205.635 464.403 206.195 464.142 206.708C463.89 207.212 463.568 207.674 463.176 208.094C462.784 208.514 462.355 208.897 461.888 209.242C461.421 209.578 460.978 209.877 460.558 210.138L459.48 210.81H464.898V212H457.268V211.02L459.396 209.606C460.096 209.139 460.693 208.71 461.188 208.318C461.683 207.917 462.084 207.539 462.392 207.184C462.709 206.829 462.938 206.489 463.078 206.162C463.227 205.826 463.302 205.49 463.302 205.154C463.302 204.809 463.246 204.515 463.134 204.272C463.031 204.029 462.882 203.833 462.686 203.684C462.499 203.535 462.275 203.427 462.014 203.362C461.762 203.297 461.491 203.264 461.202 203.264C460.782 203.264 460.418 203.329 460.11 203.46C459.811 203.591 459.555 203.763 459.34 203.978C459.135 204.183 458.971 204.417 458.85 204.678C458.738 204.93 458.663 205.182 458.626 205.434L457.534 205.07Z" fill="#5FAF2D"/>
<rect x="423" y="22" width="50" height="170" fill="#5FAF2D"/>
<rect x="423" y="22" width="50" height="4" fill="#3D7917"/>
<path d="M430.683 13.153C429.889 13.153 429.17 13.0283 428.524 12.779C427.889 12.5297 427.345 12.1613 426.892 11.674C426.438 11.1753 426.087 10.569 425.838 9.855C425.6 9.141 425.481 8.31367 425.481 7.373C425.481 6.30767 425.622 5.37267 425.906 4.568C426.189 3.76333 426.569 3.09467 427.045 2.562C427.532 2.018 428.093 1.61567 428.728 1.355C429.374 1.083 430.054 0.946999 430.768 0.946999C431.799 0.946999 432.677 1.15667 433.403 1.576C434.128 1.99533 434.655 2.562 434.984 3.276L433.828 4.058C433.499 3.548 433.074 3.14567 432.553 2.851C432.043 2.545 431.425 2.392 430.7 2.392C430.133 2.392 429.623 2.50533 429.17 2.732C428.716 2.94733 428.325 3.26467 427.997 3.684C427.668 4.092 427.413 4.59067 427.232 5.18C427.05 5.758 426.954 6.40967 426.943 7.135V7.322C427.101 6.948 427.317 6.61933 427.589 6.336C427.872 6.05267 428.189 5.81467 428.541 5.622C428.892 5.42933 429.266 5.28767 429.663 5.197C430.071 5.095 430.484 5.044 430.904 5.044C431.595 5.044 432.218 5.14033 432.774 5.333C433.329 5.52567 433.799 5.79767 434.185 6.149C434.581 6.50033 434.882 6.91967 435.086 7.407C435.29 7.89433 435.392 8.43267 435.392 9.022C435.392 9.634 435.267 10.195 435.018 10.705C434.78 11.215 434.445 11.6513 434.015 12.014C433.595 12.3767 433.097 12.66 432.519 12.864C431.952 13.0567 431.34 13.153 430.683 13.153ZM430.666 11.708C431.142 11.708 431.572 11.6457 431.958 11.521C432.354 11.3963 432.694 11.2207 432.978 10.994C433.272 10.756 433.499 10.4783 433.658 10.161C433.816 9.84367 433.896 9.48667 433.896 9.09C433.896 8.65933 433.816 8.28533 433.658 7.968C433.51 7.63933 433.301 7.36733 433.029 7.152C432.757 6.92533 432.428 6.761 432.043 6.659C431.669 6.54567 431.261 6.489 430.819 6.489C429.731 6.489 428.903 6.72133 428.337 7.186C427.781 7.65067 427.504 8.24567 427.504 8.971C427.504 9.345 427.577 9.69633 427.725 10.025C427.872 10.3537 428.082 10.6427 428.354 10.892C428.626 11.1413 428.954 11.3397 429.34 11.487C429.736 11.6343 430.178 11.708 430.666 11.708ZM436.905 4.585C437.007 4.09767 437.177 3.633 437.415 3.191C437.653 2.749 437.959 2.36367 438.333 2.035C438.707 1.695 439.155 1.42867 439.676 1.236C440.198 1.04333 440.793 0.946999 441.461 0.946999C442.085 0.946999 442.64 1.03767 443.127 1.219C443.615 1.389 444.028 1.63267 444.368 1.95C444.708 2.26733 444.963 2.647 445.133 3.089C445.315 3.531 445.405 4.01267 445.405 4.534C445.405 5.27067 445.247 5.95067 444.929 6.574C444.623 7.186 444.232 7.747 443.756 8.257C443.28 8.767 442.759 9.23167 442.192 9.651C441.626 10.059 441.087 10.4217 440.577 10.739L439.268 11.555H445.847V13H436.582V11.81L439.166 10.093C440.016 9.52633 440.742 9.005 441.342 8.529C441.943 8.04167 442.43 7.58267 442.804 7.152C443.19 6.72133 443.467 6.30767 443.637 5.911C443.819 5.503 443.909 5.095 443.909 4.687C443.909 4.26767 443.841 3.91067 443.705 3.616C443.581 3.32133 443.399 3.08333 443.161 2.902C442.935 2.72067 442.663 2.59033 442.345 2.511C442.039 2.43167 441.711 2.392 441.359 2.392C440.849 2.392 440.407 2.47133 440.033 2.63C439.671 2.78867 439.359 2.99833 439.098 3.259C438.849 3.50833 438.651 3.79167 438.503 4.109C438.367 4.415 438.277 4.721 438.231 5.027L436.905 4.585ZM452.397 13.153C451.604 13.153 450.884 13.0283 450.238 12.779C449.604 12.5297 449.06 12.1613 448.606 11.674C448.153 11.1753 447.802 10.569 447.552 9.855C447.314 9.141 447.195 8.31367 447.195 7.373C447.195 6.30767 447.337 5.37267 447.62 4.568C447.904 3.76333 448.283 3.09467 448.759 2.562C449.247 2.018 449.808 1.61567 450.442 1.355C451.088 1.083 451.768 0.946999 452.482 0.946999C453.514 0.946999 454.392 1.15667 455.117 1.576C455.843 1.99533 456.37 2.562 456.698 3.276L455.542 4.058C455.214 3.548 454.789 3.14567 454.267 2.851C453.757 2.545 453.14 2.392 452.414 2.392C451.848 2.392 451.338 2.50533 450.884 2.732C450.431 2.94733 450.04 3.26467 449.711 3.684C449.383 4.092 449.128 4.59067 448.946 5.18C448.765 5.758 448.669 6.40967 448.657 7.135V7.322C448.816 6.948 449.031 6.61933 449.303 6.336C449.587 6.05267 449.904 5.81467 450.255 5.622C450.607 5.42933 450.981 5.28767 451.377 5.197C451.785 5.095 452.199 5.044 452.618 5.044C453.31 5.044 453.933 5.14033 454.488 5.333C455.044 5.52567 455.514 5.79767 455.899 6.149C456.296 6.50033 456.596 6.91967 456.8 7.407C457.004 7.89433 457.106 8.43267 457.106 9.022C457.106 9.634 456.982 10.195 456.732 10.705C456.494 11.215 456.16 11.6513 455.729 12.014C455.31 12.3767 454.811 12.66 454.233 12.864C453.667 13.0567 453.055 13.153 452.397 13.153ZM452.38 11.708C452.856 11.708 453.287 11.6457 453.672 11.521C454.069 11.3963 454.409 11.2207 454.692 10.994C454.987 10.756 455.214 10.4783 455.372 10.161C455.531 9.84367 455.61 9.48667 455.61 9.09C455.61 8.65933 455.531 8.28533 455.372 7.968C455.225 7.63933 455.015 7.36733 454.743 7.152C454.471 6.92533 454.143 6.761 453.757 6.659C453.383 6.54567 452.975 6.489 452.533 6.489C451.445 6.489 450.618 6.72133 450.051 7.186C449.496 7.65067 449.218 8.24567 449.218 8.971C449.218 9.345 449.292 9.69633 449.439 10.025C449.587 10.3537 449.796 10.6427 450.068 10.892C450.34 11.1413 450.669 11.3397 451.054 11.487C451.451 11.6343 451.893 11.708 452.38 11.708ZM458.62 12.031C458.62 11.8043 458.716 11.589 458.909 11.385C459.102 11.181 459.357 11.079 459.674 11.079C459.969 11.079 460.212 11.181 460.405 11.385C460.598 11.589 460.694 11.8043 460.694 12.031C460.694 12.2917 460.598 12.524 460.405 12.728C460.212 12.932 459.969 13.034 459.674 13.034C459.357 13.034 459.102 12.932 458.909 12.728C458.716 12.524 458.62 12.2917 458.62 12.031ZM461.879 1.1H470.906V2.069L464.99 13H463.375L469.087 2.545H461.879V1.1Z" fill="#222429"/>
<path d="M162.435 205.07C162.519 204.669 162.659 204.286 162.855 203.922C163.051 203.558 163.303 203.241 163.611 202.97C163.919 202.69 164.288 202.471 164.717 202.312C165.147 202.153 165.637 202.074 166.187 202.074C166.701 202.074 167.158 202.149 167.559 202.298C167.961 202.438 168.301 202.639 168.581 202.9C168.861 203.161 169.071 203.474 169.211 203.838C169.361 204.202 169.435 204.599 169.435 205.028C169.435 205.635 169.305 206.195 169.043 206.708C168.791 207.212 168.469 207.674 168.077 208.094C167.685 208.514 167.256 208.897 166.789 209.242C166.323 209.578 165.879 209.877 165.459 210.138L164.381 210.81H169.799V212H162.169V211.02L164.297 209.606C164.997 209.139 165.595 208.71 166.089 208.318C166.584 207.917 166.985 207.539 167.293 207.184C167.611 206.829 167.839 206.489 167.979 206.162C168.129 205.826 168.203 205.49 168.203 205.154C168.203 204.809 168.147 204.515 168.035 204.272C167.933 204.029 167.783 203.833 167.587 203.684C167.401 203.535 167.177 203.427 166.915 203.362C166.663 203.297 166.393 203.264 166.103 203.264C165.683 203.264 165.319 203.329 165.011 203.46C164.713 203.591 164.456 203.763 164.241 203.978C164.036 204.183 163.873 204.417 163.751 204.678C163.639 204.93 163.565 205.182 163.527 205.434L162.435 205.07ZM170.77 207.1C170.77 206.372 170.854 205.705 171.022 205.098C171.19 204.482 171.442 203.95 171.778 203.502C172.123 203.054 172.557 202.704 173.08 202.452C173.602 202.2 174.218 202.074 174.928 202.074C175.637 202.074 176.253 202.191 176.776 202.424C177.298 202.657 177.732 202.993 178.078 203.432C178.423 203.871 178.68 204.403 178.848 205.028C179.016 205.644 179.1 206.335 179.1 207.1C179.1 207.828 179.016 208.5 178.848 209.116C178.689 209.723 178.437 210.25 178.092 210.698C177.756 211.146 177.326 211.496 176.804 211.748C176.281 212 175.665 212.126 174.956 212.126C174.284 212.126 173.686 212 173.164 211.748C172.641 211.496 172.202 211.146 171.848 210.698C171.493 210.25 171.222 209.723 171.036 209.116C170.858 208.5 170.77 207.828 170.77 207.1ZM172.002 207.1C172.002 208.295 172.263 209.233 172.786 209.914C173.308 210.595 174.032 210.936 174.956 210.936C175.964 210.936 176.701 210.595 177.168 209.914C177.634 209.233 177.868 208.295 177.868 207.1C177.868 205.905 177.63 204.967 177.154 204.286C176.678 203.605 175.936 203.264 174.928 203.264C174.424 203.264 173.99 203.353 173.626 203.53C173.262 203.707 172.958 203.964 172.716 204.3C172.473 204.636 172.291 205.042 172.17 205.518C172.058 205.985 172.002 206.512 172.002 207.1ZM182.945 202.144H183.743V212H182.567V203.642L180.033 204.804L179.585 203.754L182.945 202.144ZM189.295 212.126C188.445 212.126 187.717 211.963 187.111 211.636C186.513 211.309 186.065 210.894 185.767 210.39L186.775 209.69C187.064 210.091 187.442 210.399 187.909 210.614C188.385 210.829 188.903 210.936 189.463 210.936C189.892 210.936 190.284 210.852 190.639 210.684C191.003 210.507 191.315 210.264 191.577 209.956C191.847 209.648 192.057 209.284 192.207 208.864C192.356 208.444 192.431 207.987 192.431 207.492C192.431 207.436 192.431 207.38 192.431 207.324C192.431 207.268 192.426 207.212 192.417 207.156C192.193 207.688 191.81 208.131 191.269 208.486C190.737 208.831 190.06 209.004 189.239 209.004C188.697 209.004 188.198 208.925 187.741 208.766C187.283 208.598 186.887 208.369 186.551 208.08C186.215 207.781 185.953 207.427 185.767 207.016C185.58 206.605 185.487 206.148 185.487 205.644C185.487 205.103 185.585 204.613 185.781 204.174C185.986 203.726 186.271 203.348 186.635 203.04C186.999 202.732 187.433 202.494 187.937 202.326C188.45 202.158 189.015 202.074 189.631 202.074C190.256 202.074 190.816 202.181 191.311 202.396C191.815 202.601 192.239 202.909 192.585 203.32C192.939 203.731 193.21 204.239 193.397 204.846C193.583 205.443 193.677 206.134 193.677 206.918C193.677 207.777 193.569 208.533 193.355 209.186C193.149 209.83 192.851 210.371 192.459 210.81C192.076 211.239 191.614 211.566 191.073 211.79C190.541 212.014 189.948 212.126 189.295 212.126ZM189.463 207.814C189.864 207.814 190.228 207.758 190.555 207.646C190.881 207.534 191.157 207.38 191.381 207.184C191.614 206.979 191.791 206.741 191.913 206.47C192.034 206.199 192.095 205.91 192.095 205.602C192.095 205.303 192.048 205.014 191.955 204.734C191.861 204.454 191.712 204.207 191.507 203.992C191.301 203.768 191.031 203.591 190.695 203.46C190.368 203.329 189.967 203.264 189.491 203.264C188.623 203.264 187.941 203.46 187.447 203.852C186.961 204.235 186.719 204.799 186.719 205.546C186.719 206.255 186.966 206.811 187.461 207.212C187.955 207.613 188.623 207.814 189.463 207.814Z" fill="#777F8C"/>
<rect x="153" y="77" width="50" height="115" fill="#BFCED4"/>
<rect x="153" y="77" width="50" height="4" fill="#A6B2BC"/>
<path d="M161.699 65.62H154.372V64.532L161.869 56.1H163.127V64.175H165.337V65.62H163.127V68H161.699V65.62ZM161.699 64.175V58.48L156.412 64.175H161.699ZM166.457 59.585C166.559 59.0977 166.729 58.633 166.967 58.191C167.205 57.749 167.511 57.3637 167.885 57.035C168.259 56.695 168.707 56.4287 169.228 56.236C169.749 56.0433 170.344 55.947 171.013 55.947C171.636 55.947 172.192 56.0377 172.679 56.219C173.166 56.389 173.58 56.6327 173.92 56.95C174.26 57.2673 174.515 57.647 174.685 58.089C174.866 58.531 174.957 59.0127 174.957 59.534C174.957 60.2707 174.798 60.9507 174.481 61.574C174.175 62.186 173.784 62.747 173.308 63.257C172.832 63.767 172.311 64.2317 171.744 64.651C171.177 65.059 170.639 65.4217 170.129 65.739L168.82 66.555H175.399V68H166.134V66.81L168.718 65.093C169.568 64.5263 170.293 64.005 170.894 63.529C171.495 63.0417 171.982 62.5827 172.356 62.152C172.741 61.7213 173.019 61.3077 173.189 60.911C173.37 60.503 173.461 60.095 173.461 59.687C173.461 59.2677 173.393 58.9107 173.257 58.616C173.132 58.3213 172.951 58.0833 172.713 57.902C172.486 57.7207 172.214 57.5903 171.897 57.511C171.591 57.4317 171.262 57.392 170.911 57.392C170.401 57.392 169.959 57.4713 169.585 57.63C169.222 57.7887 168.911 57.9983 168.65 58.259C168.401 58.5083 168.202 58.7917 168.055 59.109C167.919 59.415 167.828 59.721 167.783 60.027L166.457 59.585ZM177.954 56.1H185.434V57.545H179.263L178.821 60.741C179.082 60.5483 179.433 60.3897 179.875 60.265C180.328 60.129 180.878 60.061 181.524 60.061C182.238 60.061 182.873 60.163 183.428 60.367C183.983 60.571 184.448 60.8543 184.822 61.217C185.196 61.5797 185.479 62.0047 185.672 62.492C185.876 62.9793 185.978 63.5007 185.978 64.056C185.978 64.6567 185.859 65.2063 185.621 65.705C185.394 66.2037 185.071 66.6343 184.652 66.997C184.244 67.3597 183.757 67.643 183.19 67.847C182.635 68.051 182.028 68.153 181.371 68.153C180.827 68.153 180.306 68.0907 179.807 67.966C179.308 67.8413 178.844 67.6543 178.413 67.405C177.994 67.1557 177.62 66.8553 177.291 66.504C176.974 66.1413 176.719 65.722 176.526 65.246L177.886 64.668C177.999 64.9287 178.158 65.1837 178.362 65.433C178.566 65.671 178.815 65.8863 179.11 66.079C179.405 66.2717 179.739 66.4247 180.113 66.538C180.487 66.6513 180.906 66.708 181.371 66.708C181.892 66.708 182.346 66.64 182.731 66.504C183.128 66.3567 183.456 66.164 183.717 65.926C183.978 65.688 184.17 65.416 184.295 65.11C184.42 64.7927 184.482 64.4583 184.482 64.107C184.482 63.3023 184.182 62.6677 183.581 62.203C182.992 61.7383 182.17 61.506 181.116 61.506C180.515 61.506 180.011 61.591 179.603 61.761C179.206 61.9197 178.832 62.1747 178.481 62.526L177.257 62.203L177.954 56.1ZM187.558 67.031C187.558 66.8043 187.654 66.589 187.847 66.385C188.039 66.181 188.294 66.079 188.612 66.079C188.906 66.079 189.15 66.181 189.343 66.385C189.535 66.589 189.632 66.8043 189.632 67.031C189.632 67.2917 189.535 67.524 189.343 67.728C189.15 67.932 188.906 68.034 188.612 68.034C188.294 68.034 188.039 67.932 187.847 67.728C187.654 67.524 187.558 67.2917 187.558 67.031ZM196.426 61.217C196.811 61.217 197.168 61.1717 197.497 61.081C197.837 60.979 198.132 60.843 198.381 60.673C198.63 60.503 198.823 60.299 198.959 60.061C199.106 59.823 199.18 59.5623 199.18 59.279C199.18 58.667 198.925 58.2023 198.415 57.885C197.916 57.5563 197.151 57.392 196.12 57.392C195.123 57.392 194.369 57.5563 193.859 57.885C193.36 58.2137 193.111 58.6783 193.111 59.279C193.111 59.551 193.179 59.806 193.315 60.044C193.451 60.282 193.638 60.4917 193.876 60.673C194.125 60.843 194.42 60.979 194.76 61.081C195.111 61.1717 195.491 61.217 195.899 61.217H196.426ZM195.967 62.56C195.491 62.56 195.049 62.6167 194.641 62.73C194.244 62.832 193.904 62.9793 193.621 63.172C193.338 63.3533 193.117 63.5743 192.958 63.835C192.799 64.0843 192.72 64.3507 192.72 64.634C192.72 65.246 193.003 65.7447 193.57 66.13C194.148 66.5153 195.004 66.708 196.137 66.708C197.304 66.708 198.166 66.5267 198.721 66.164C199.276 65.79 199.554 65.2857 199.554 64.651C199.554 63.9823 199.265 63.4667 198.687 63.104C198.12 62.7413 197.355 62.56 196.392 62.56H195.967ZM196.154 68.153C195.395 68.153 194.709 68.0793 194.097 67.932C193.496 67.7733 192.981 67.5523 192.55 67.269C192.131 66.9743 191.802 66.623 191.564 66.215C191.337 65.7957 191.224 65.3197 191.224 64.787C191.224 64.0843 191.434 63.478 191.853 62.968C192.284 62.4467 192.856 62.0727 193.57 61.846C193.23 61.7327 192.935 61.5853 192.686 61.404C192.437 61.2113 192.233 60.996 192.074 60.758C191.915 60.52 191.796 60.2707 191.717 60.01C191.649 59.738 191.615 59.4603 191.615 59.177C191.615 58.191 192 57.409 192.771 56.831C193.553 56.2417 194.675 55.947 196.137 55.947C197.61 55.947 198.732 56.2417 199.503 56.831C200.285 57.409 200.676 58.191 200.676 59.177C200.676 59.789 200.506 60.3047 200.166 60.724C199.837 61.1433 199.378 61.489 198.789 61.761C199.605 62.0103 200.183 62.3843 200.523 62.883C200.874 63.3817 201.05 63.9937 201.05 64.719C201.05 65.263 200.937 65.7503 200.71 66.181C200.483 66.6003 200.155 66.9573 199.724 67.252C199.305 67.5467 198.789 67.7733 198.177 67.932C197.576 68.0793 196.902 68.153 196.154 68.153Z" fill="#222429"/>
<path d="M72.4354 205.07C72.5194 204.669 72.6594 204.286 72.8554 203.922C73.0514 203.558 73.3034 203.241 73.6114 202.97C73.9194 202.69 74.2881 202.471 74.7174 202.312C75.1467 202.153 75.6367 202.074 76.1874 202.074C76.7007 202.074 77.1581 202.149 77.5594 202.298C77.9607 202.438 78.3014 202.639 78.5814 202.9C78.8614 203.161 79.0714 203.474 79.2114 203.838C79.3607 204.202 79.4354 204.599 79.4354 205.028C79.4354 205.635 79.3047 206.195 79.0434 206.708C78.7914 207.212 78.4694 207.674 78.0774 208.094C77.6854 208.514 77.2561 208.897 76.7894 209.242C76.3227 209.578 75.8794 209.877 75.4594 210.138L74.3814 210.81H79.7994V212H72.1694V211.02L74.2974 209.606C74.9974 209.139 75.5947 208.71 76.0894 208.318C76.5841 207.917 76.9854 207.539 77.2934 207.184C77.6107 206.829 77.8394 206.489 77.9794 206.162C78.1287 205.826 78.2034 205.49 78.2034 205.154C78.2034 204.809 78.1474 204.515 78.0354 204.272C77.9327 204.029 77.7834 203.833 77.5874 203.684C77.4007 203.535 77.1767 203.427 76.9154 203.362C76.6634 203.297 76.3927 203.264 76.1034 203.264C75.6834 203.264 75.3194 203.329 75.0114 203.46C74.7127 203.591 74.4561 203.763 74.2414 203.978C74.0361 204.183 73.8727 204.417 73.7514 204.678C73.6394 204.93 73.5647 205.182 73.5274 205.434L72.4354 205.07ZM80.7697 207.1C80.7697 206.372 80.8537 205.705 81.0217 205.098C81.1897 204.482 81.4417 203.95 81.7777 203.502C82.123 203.054 82.557 202.704 83.0797 202.452C83.6023 202.2 84.2183 202.074 84.9277 202.074C85.637 202.074 86.253 202.191 86.7757 202.424C87.2983 202.657 87.7323 202.993 88.0777 203.432C88.423 203.871 88.6797 204.403 88.8477 205.028C89.0157 205.644 89.0997 206.335 89.0997 207.1C89.0997 207.828 89.0157 208.5 88.8477 209.116C88.689 209.723 88.437 210.25 88.0917 210.698C87.7557 211.146 87.3263 211.496 86.8037 211.748C86.281 212 85.665 212.126 84.9557 212.126C84.2837 212.126 83.6863 212 83.1637 211.748C82.641 211.496 82.2023 211.146 81.8477 210.698C81.493 210.25 81.2223 209.723 81.0357 209.116C80.8583 208.5 80.7697 207.828 80.7697 207.1ZM82.0017 207.1C82.0017 208.295 82.263 209.233 82.7857 209.914C83.3083 210.595 84.0317 210.936 84.9557 210.936C85.9637 210.936 86.701 210.595 87.1677 209.914C87.6343 209.233 87.8677 208.295 87.8677 207.1C87.8677 205.905 87.6297 204.967 87.1537 204.286C86.6777 203.605 85.9357 203.264 84.9277 203.264C84.4237 203.264 83.9897 203.353 83.6257 203.53C83.2617 203.707 82.9583 203.964 82.7157 204.3C82.473 204.636 82.291 205.042 82.1697 205.518C82.0577 205.985 82.0017 206.512 82.0017 207.1ZM92.9453 202.144H93.7433V212H92.5673V203.642L90.0333 204.804L89.5853 203.754L92.9453 202.144ZM99.8267 206.414C100.144 206.414 100.438 206.377 100.709 206.302C100.989 206.218 101.231 206.106 101.437 205.966C101.642 205.826 101.801 205.658 101.913 205.462C102.034 205.266 102.095 205.051 102.095 204.818C102.095 204.314 101.885 203.931 101.465 203.67C101.054 203.399 100.424 203.264 99.5747 203.264C98.7534 203.264 98.1327 203.399 97.7127 203.67C97.3021 203.941 97.0967 204.323 97.0967 204.818C97.0967 205.042 97.1527 205.252 97.2647 205.448C97.3767 205.644 97.5307 205.817 97.7267 205.966C97.9321 206.106 98.1747 206.218 98.4547 206.302C98.7441 206.377 99.0567 206.414 99.3927 206.414H99.8267ZM99.4487 207.52C99.0567 207.52 98.6927 207.567 98.3567 207.66C98.0301 207.744 97.7501 207.865 97.5167 208.024C97.2834 208.173 97.1014 208.355 96.9707 208.57C96.8401 208.775 96.7747 208.995 96.7747 209.228C96.7747 209.732 97.0081 210.143 97.4747 210.46C97.9507 210.777 98.6554 210.936 99.5887 210.936C100.55 210.936 101.259 210.787 101.717 210.488C102.174 210.18 102.403 209.765 102.403 209.242C102.403 208.691 102.165 208.267 101.689 207.968C101.222 207.669 100.592 207.52 99.7987 207.52H99.4487ZM99.6027 212.126C98.9774 212.126 98.4127 212.065 97.9087 211.944C97.4141 211.813 96.9894 211.631 96.6347 211.398C96.2894 211.155 96.0187 210.866 95.8227 210.53C95.6361 210.185 95.5427 209.793 95.5427 209.354C95.5427 208.775 95.7154 208.276 96.0607 207.856C96.4154 207.427 96.8867 207.119 97.4747 206.932C97.1947 206.839 96.9521 206.717 96.7467 206.568C96.5414 206.409 96.3734 206.232 96.2427 206.036C96.1121 205.84 96.0141 205.635 95.9487 205.42C95.8927 205.196 95.8647 204.967 95.8647 204.734C95.8647 203.922 96.1821 203.278 96.8167 202.802C97.4607 202.317 98.3847 202.074 99.5887 202.074C100.802 202.074 101.726 202.317 102.361 202.802C103.005 203.278 103.327 203.922 103.327 204.734C103.327 205.238 103.187 205.663 102.907 206.008C102.636 206.353 102.258 206.638 101.773 206.862C102.445 207.067 102.921 207.375 103.201 207.786C103.49 208.197 103.635 208.701 103.635 209.298C103.635 209.746 103.541 210.147 103.355 210.502C103.168 210.847 102.897 211.141 102.543 211.384C102.197 211.627 101.773 211.813 101.269 211.944C100.774 212.065 100.219 212.126 99.6027 212.126Z" fill="#777F8C"/>
<rect x="63" y="93" width="50" height="99" fill="#BFCED4"/>
<rect x="63" y="93" width="50" height="4" fill="#A6B2BC"/>
<path d="M65.3204 74.99C65.4791 74.548 65.6944 74.1457 65.9664 73.783C66.2384 73.409 66.5671 73.086 66.9524 72.814C67.3491 72.542 67.8024 72.3323 68.3124 72.185C68.8337 72.0263 69.4174 71.947 70.0634 71.947C70.6414 71.947 71.1741 72.0207 71.6614 72.168C72.1601 72.304 72.5851 72.5023 72.9364 72.763C73.2991 73.0123 73.5767 73.324 73.7694 73.698C73.9734 74.072 74.0754 74.4857 74.0754 74.939C74.0754 75.6303 73.8941 76.2197 73.5314 76.707C73.1801 77.1943 72.6644 77.5343 71.9844 77.727C72.2791 77.7497 72.5681 77.8233 72.8514 77.948C73.1347 78.0613 73.3841 78.237 73.5994 78.475C73.8261 78.7017 74.0074 78.9907 74.1434 79.342C74.2794 79.682 74.3474 80.09 74.3474 80.566C74.3474 81.144 74.2341 81.6597 74.0074 82.113C73.7921 82.555 73.4861 82.929 73.0894 83.235C72.7041 83.5297 72.2451 83.7563 71.7124 83.915C71.1797 84.0737 70.6074 84.153 69.9954 84.153C69.3267 84.153 68.7147 84.0737 68.1594 83.915C67.6154 83.7563 67.1337 83.541 66.7144 83.269C66.2951 82.9857 65.9381 82.6513 65.6434 82.266C65.3601 81.8693 65.1447 81.433 64.9974 80.957L66.3744 80.362C66.5217 80.668 66.6974 80.9627 66.9014 81.246C67.1054 81.5293 67.3547 81.7787 67.6494 81.994C67.9441 82.2093 68.2897 82.385 68.6864 82.521C69.0831 82.6457 69.5534 82.708 70.0974 82.708C70.9474 82.708 71.6161 82.5267 72.1034 82.164C72.6021 81.79 72.8514 81.263 72.8514 80.583C72.8514 80.209 72.7721 79.8973 72.6134 79.648C72.4547 79.3873 72.2337 79.1833 71.9504 79.036C71.6671 78.8773 71.3327 78.7697 70.9474 78.713C70.5734 78.645 70.1654 78.611 69.7234 78.611H68.3974V77.2H69.4514C70.4374 77.2 71.2024 77.013 71.7464 76.639C72.3017 76.265 72.5794 75.7947 72.5794 75.228C72.5794 74.616 72.3471 74.157 71.8824 73.851C71.4177 73.545 70.7887 73.392 69.9954 73.392C69.5081 73.392 69.0774 73.4543 68.7034 73.579C68.3294 73.7037 68.0007 73.868 67.7174 74.072C67.4454 74.276 67.2131 74.5083 67.0204 74.769C66.8391 75.0297 66.6974 75.296 66.5954 75.568L65.3204 74.99ZM81.1166 84.153C80.3233 84.153 79.6036 84.0283 78.9576 83.779C78.3229 83.5297 77.7789 83.1613 77.3256 82.674C76.8723 82.1753 76.5209 81.569 76.2716 80.855C76.0336 80.141 75.9146 79.3137 75.9146 78.373C75.9146 77.3077 76.0563 76.3727 76.3396 75.568C76.6229 74.7633 77.0026 74.0947 77.4786 73.562C77.9659 73.018 78.5269 72.6157 79.1616 72.355C79.8076 72.083 80.4876 71.947 81.2016 71.947C82.2329 71.947 83.1113 72.1567 83.8366 72.576C84.5619 72.9953 85.0889 73.562 85.4176 74.276L84.2616 75.058C83.9329 74.548 83.5079 74.1457 82.9866 73.851C82.4766 73.545 81.8589 73.392 81.1336 73.392C80.5669 73.392 80.0569 73.5053 79.6036 73.732C79.1503 73.9473 78.7593 74.2647 78.4306 74.684C78.1019 75.092 77.8469 75.5907 77.6656 76.18C77.4843 76.758 77.3879 77.4097 77.3766 78.135V78.322C77.5353 77.948 77.7506 77.6193 78.0226 77.336C78.3059 77.0527 78.6233 76.8147 78.9746 76.622C79.3259 76.4293 79.6999 76.2877 80.0966 76.197C80.5046 76.095 80.9183 76.044 81.3376 76.044C82.0289 76.044 82.6523 76.1403 83.2076 76.333C83.7629 76.5257 84.2333 76.7977 84.6186 77.149C85.0153 77.5003 85.3156 77.9197 85.5196 78.407C85.7236 78.8943 85.8256 79.4327 85.8256 80.022C85.8256 80.634 85.7009 81.195 85.4516 81.705C85.2136 82.215 84.8793 82.6513 84.4486 83.014C84.0293 83.3767 83.5306 83.66 82.9526 83.864C82.3859 84.0567 81.7739 84.153 81.1166 84.153ZM81.0996 82.708C81.5756 82.708 82.0063 82.6457 82.3916 82.521C82.7883 82.3963 83.1283 82.2207 83.4116 81.994C83.7063 81.756 83.9329 81.4783 84.0916 81.161C84.2503 80.8437 84.3296 80.4867 84.3296 80.09C84.3296 79.6593 84.2503 79.2853 84.0916 78.968C83.9443 78.6393 83.7346 78.3673 83.4626 78.152C83.1906 77.9253 82.8619 77.761 82.4766 77.659C82.1026 77.5457 81.6946 77.489 81.2526 77.489C80.1646 77.489 79.3373 77.7213 78.7706 78.186C78.2153 78.6507 77.9376 79.2457 77.9376 79.971C77.9376 80.345 78.0113 80.6963 78.1586 81.025C78.3059 81.3537 78.5156 81.6427 78.7876 81.892C79.0596 82.1413 79.3883 82.3397 79.7736 82.487C80.1703 82.6343 80.6123 82.708 81.0996 82.708ZM91.7933 84.153C90.7619 84.153 89.8779 83.9547 89.1413 83.558C88.4159 83.1613 87.8719 82.657 87.5093 82.045L88.7333 81.195C89.0846 81.6823 89.5436 82.0563 90.1103 82.317C90.6883 82.5777 91.3173 82.708 91.9973 82.708C92.5186 82.708 92.9946 82.606 93.4253 82.402C93.8673 82.1867 94.2469 81.892 94.5643 81.518C94.8929 81.144 95.1479 80.702 95.3293 80.192C95.5106 79.682 95.6013 79.1267 95.6013 78.526C95.6013 78.458 95.6013 78.39 95.6013 78.322C95.6013 78.254 95.5956 78.186 95.5843 78.118C95.3123 78.764 94.8476 79.3023 94.1903 79.733C93.5443 80.1523 92.7226 80.362 91.7253 80.362C91.0679 80.362 90.4616 80.2657 89.9063 80.073C89.3509 79.869 88.8693 79.5913 88.4613 79.24C88.0533 78.8773 87.7359 78.4467 87.5093 77.948C87.2826 77.4493 87.1693 76.894 87.1693 76.282C87.1693 75.6247 87.2883 75.0297 87.5263 74.497C87.7756 73.953 88.1213 73.494 88.5633 73.12C89.0053 72.746 89.5323 72.457 90.1443 72.253C90.7676 72.049 91.4533 71.947 92.2013 71.947C92.9606 71.947 93.6406 72.0773 94.2413 72.338C94.8533 72.5873 95.3689 72.9613 95.7883 73.46C96.2189 73.9587 96.5476 74.5763 96.7743 75.313C97.0009 76.0383 97.1143 76.877 97.1143 77.829C97.1143 78.8717 96.9839 79.7897 96.7233 80.583C96.4739 81.365 96.1113 82.0223 95.6353 82.555C95.1706 83.0763 94.6096 83.473 93.9523 83.745C93.3063 84.017 92.5866 84.153 91.7933 84.153ZM91.9973 78.917C92.4846 78.917 92.9266 78.849 93.3233 78.713C93.7199 78.577 94.0543 78.39 94.3263 78.152C94.6096 77.9027 94.8249 77.6137 94.9723 77.285C95.1196 76.9563 95.1933 76.605 95.1933 76.231C95.1933 75.8683 95.1366 75.517 95.0233 75.177C94.9099 74.837 94.7286 74.5367 94.4793 74.276C94.2299 74.004 93.9013 73.7887 93.4933 73.63C93.0966 73.4713 92.6093 73.392 92.0313 73.392C90.9773 73.392 90.1499 73.63 89.5493 74.106C88.9599 74.5707 88.6653 75.2563 88.6653 76.163C88.6653 77.0243 88.9656 77.6987 89.5663 78.186C90.1669 78.6733 90.9773 78.917 91.9973 78.917ZM98.6781 83.031C98.6781 82.8043 98.7745 82.589 98.9671 82.385C99.1598 82.181 99.4148 82.079 99.7321 82.079C100.027 82.079 100.27 82.181 100.463 82.385C100.656 82.589 100.752 82.8043 100.752 83.031C100.752 83.2917 100.656 83.524 100.463 83.728C100.27 83.932 100.027 84.034 99.7321 84.034C99.4148 84.034 99.1598 83.932 98.9671 83.728C98.7745 83.524 98.6781 83.2917 98.6781 83.031ZM101.937 72.1H110.964V73.069L105.048 84H103.433L109.145 73.545H101.937V72.1Z" fill="#222429"/>
<path d="M250.822 205.07C250.906 204.669 251.046 204.286 251.242 203.922C251.438 203.558 251.69 203.241 251.998 202.97C252.306 202.69 252.675 202.471 253.104 202.312C253.533 202.153 254.023 202.074 254.574 202.074C255.087 202.074 255.545 202.149 255.946 202.298C256.347 202.438 256.688 202.639 256.968 202.9C257.248 203.161 257.458 203.474 257.598 203.838C257.747 204.202 257.822 204.599 257.822 205.028C257.822 205.635 257.691 206.195 257.43 206.708C257.178 207.212 256.856 207.674 256.464 208.094C256.072 208.514 255.643 208.897 255.176 209.242C254.709 209.578 254.266 209.877 253.846 210.138L252.768 210.81H258.186V212H250.556V211.02L252.684 209.606C253.384 209.139 253.981 208.71 254.476 208.318C254.971 207.917 255.372 207.539 255.68 207.184C255.997 206.829 256.226 206.489 256.366 206.162C256.515 205.826 256.59 205.49 256.59 205.154C256.59 204.809 256.534 204.515 256.422 204.272C256.319 204.029 256.17 203.833 255.974 203.684C255.787 203.535 255.563 203.427 255.302 203.362C255.05 203.297 254.779 203.264 254.49 203.264C254.07 203.264 253.706 203.329 253.398 203.46C253.099 203.591 252.843 203.763 252.628 203.978C252.423 204.183 252.259 204.417 252.138 204.678C252.026 204.93 251.951 205.182 251.914 205.434L250.822 205.07ZM259.156 207.1C259.156 206.372 259.24 205.705 259.408 205.098C259.576 204.482 259.828 203.95 260.164 203.502C260.51 203.054 260.944 202.704 261.466 202.452C261.989 202.2 262.605 202.074 263.314 202.074C264.024 202.074 264.64 202.191 265.162 202.424C265.685 202.657 266.119 202.993 266.464 203.432C266.81 203.871 267.066 204.403 267.234 205.028C267.402 205.644 267.486 206.335 267.486 207.1C267.486 207.828 267.402 208.5 267.234 209.116C267.076 209.723 266.824 210.25 266.478 210.698C266.142 211.146 265.713 211.496 265.19 211.748C264.668 212 264.052 212.126 263.342 212.126C262.67 212.126 262.073 212 261.55 211.748C261.028 211.496 260.589 211.146 260.234 210.698C259.88 210.25 259.609 209.723 259.422 209.116C259.245 208.5 259.156 207.828 259.156 207.1ZM260.388 207.1C260.388 208.295 260.65 209.233 261.172 209.914C261.695 210.595 262.418 210.936 263.342 210.936C264.35 210.936 265.088 210.595 265.554 209.914C266.021 209.233 266.254 208.295 266.254 207.1C266.254 205.905 266.016 204.967 265.54 204.286C265.064 203.605 264.322 203.264 263.314 203.264C262.81 203.264 262.376 203.353 262.012 203.53C261.648 203.707 261.345 203.964 261.102 204.3C260.86 204.636 260.678 205.042 260.556 205.518C260.444 205.985 260.388 206.512 260.388 207.1ZM268.63 205.07C268.714 204.669 268.854 204.286 269.05 203.922C269.246 203.558 269.498 203.241 269.806 202.97C270.114 202.69 270.483 202.471 270.912 202.312C271.341 202.153 271.831 202.074 272.382 202.074C272.895 202.074 273.353 202.149 273.754 202.298C274.155 202.438 274.496 202.639 274.776 202.9C275.056 203.161 275.266 203.474 275.406 203.838C275.555 204.202 275.63 204.599 275.63 205.028C275.63 205.635 275.499 206.195 275.238 206.708C274.986 207.212 274.664 207.674 274.272 208.094C273.88 208.514 273.451 208.897 272.984 209.242C272.517 209.578 272.074 209.877 271.654 210.138L270.576 210.81H275.994V212H268.364V211.02L270.492 209.606C271.192 209.139 271.789 208.71 272.284 208.318C272.779 207.917 273.18 207.539 273.488 207.184C273.805 206.829 274.034 206.489 274.174 206.162C274.323 205.826 274.398 205.49 274.398 205.154C274.398 204.809 274.342 204.515 274.23 204.272C274.127 204.029 273.978 203.833 273.782 203.684C273.595 203.535 273.371 203.427 273.11 203.362C272.858 203.297 272.587 203.264 272.298 203.264C271.878 203.264 271.514 203.329 271.206 203.46C270.907 203.591 270.651 203.763 270.436 203.978C270.231 204.183 270.067 204.417 269.946 204.678C269.834 204.93 269.759 205.182 269.722 205.434L268.63 205.07ZM276.964 207.1C276.964 206.372 277.048 205.705 277.216 205.098C277.384 204.482 277.636 203.95 277.972 203.502C278.318 203.054 278.752 202.704 279.274 202.452C279.797 202.2 280.413 202.074 281.122 202.074C281.832 202.074 282.448 202.191 282.97 202.424C283.493 202.657 283.927 202.993 284.272 203.432C284.618 203.871 284.874 204.403 285.042 205.028C285.21 205.644 285.294 206.335 285.294 207.1C285.294 207.828 285.21 208.5 285.042 209.116C284.884 209.723 284.632 210.25 284.286 210.698C283.95 211.146 283.521 211.496 282.998 211.748C282.476 212 281.86 212.126 281.15 212.126C280.478 212.126 279.881 212 279.358 211.748C278.836 211.496 278.397 211.146 278.042 210.698C277.688 210.25 277.417 209.723 277.23 209.116C277.053 208.5 276.964 207.828 276.964 207.1ZM278.196 207.1C278.196 208.295 278.458 209.233 278.98 209.914C279.503 210.595 280.226 210.936 281.15 210.936C282.158 210.936 282.896 210.595 283.362 209.914C283.829 209.233 284.062 208.295 284.062 207.1C284.062 205.905 283.824 204.967 283.348 204.286C282.872 203.605 282.13 203.264 281.122 203.264C280.618 203.264 280.184 203.353 279.82 203.53C279.456 203.707 279.153 203.964 278.91 204.3C278.668 204.636 278.486 205.042 278.364 205.518C278.252 205.985 278.196 206.512 278.196 207.1Z" fill="#777F8C"/>
<rect x="243" y="60" width="50" height="132" fill="#BFCED4"/>
<rect x="243" y="60" width="50" height="4" fill="#A6B2BC"/>
<path d="M250.321 48.62H242.994V47.532L250.491 39.1H251.749V47.175H253.959V48.62H251.749V51H250.321V48.62ZM250.321 47.175V41.48L245.034 47.175H250.321ZM260.179 44.217C260.564 44.217 260.921 44.1717 261.25 44.081C261.59 43.979 261.885 43.843 262.134 43.673C262.383 43.503 262.576 43.299 262.712 43.061C262.859 42.823 262.933 42.5623 262.933 42.279C262.933 41.667 262.678 41.2023 262.168 40.885C261.669 40.5563 260.904 40.392 259.873 40.392C258.876 40.392 258.122 40.5563 257.612 40.885C257.113 41.2137 256.864 41.6783 256.864 42.279C256.864 42.551 256.932 42.806 257.068 43.044C257.204 43.282 257.391 43.4917 257.629 43.673C257.878 43.843 258.173 43.979 258.513 44.081C258.864 44.1717 259.244 44.217 259.652 44.217H260.179ZM259.72 45.56C259.244 45.56 258.802 45.6167 258.394 45.73C257.997 45.832 257.657 45.9793 257.374 46.172C257.091 46.3533 256.87 46.5743 256.711 46.835C256.552 47.0843 256.473 47.3507 256.473 47.634C256.473 48.246 256.756 48.7447 257.323 49.13C257.901 49.5153 258.757 49.708 259.89 49.708C261.057 49.708 261.919 49.5267 262.474 49.164C263.029 48.79 263.307 48.2857 263.307 47.651C263.307 46.9823 263.018 46.4667 262.44 46.104C261.873 45.7413 261.108 45.56 260.145 45.56H259.72ZM259.907 51.153C259.148 51.153 258.462 51.0793 257.85 50.932C257.249 50.7733 256.734 50.5523 256.303 50.269C255.884 49.9743 255.555 49.623 255.317 49.215C255.09 48.7957 254.977 48.3197 254.977 47.787C254.977 47.0843 255.187 46.478 255.606 45.968C256.037 45.4467 256.609 45.0727 257.323 44.846C256.983 44.7327 256.688 44.5853 256.439 44.404C256.19 44.2113 255.986 43.996 255.827 43.758C255.668 43.52 255.549 43.2707 255.47 43.01C255.402 42.738 255.368 42.4603 255.368 42.177C255.368 41.191 255.753 40.409 256.524 39.831C257.306 39.2417 258.428 38.947 259.89 38.947C261.363 38.947 262.485 39.2417 263.256 39.831C264.038 40.409 264.429 41.191 264.429 42.177C264.429 42.789 264.259 43.3047 263.919 43.724C263.59 44.1433 263.131 44.489 262.542 44.761C263.358 45.0103 263.936 45.3843 264.276 45.883C264.627 46.3817 264.803 46.9937 264.803 47.719C264.803 48.263 264.69 48.7503 264.463 49.181C264.236 49.6003 263.908 49.9573 263.477 50.252C263.058 50.5467 262.542 50.7733 261.93 50.932C261.329 51.0793 260.655 51.153 259.907 51.153ZM265.908 39.1H274.935V40.069L269.019 51H267.404L273.116 40.545H265.908V39.1ZM275.1 50.031C275.1 49.8043 275.197 49.589 275.389 49.385C275.582 49.181 275.837 49.079 276.154 49.079C276.449 49.079 276.693 49.181 276.885 49.385C277.078 49.589 277.174 49.8043 277.174 50.031C277.174 50.2917 277.078 50.524 276.885 50.728C276.693 50.932 276.449 51.034 276.154 51.034C275.837 51.034 275.582 50.932 275.389 50.728C275.197 50.524 275.1 50.2917 275.1 50.031ZM278.869 42.585C278.971 42.0977 279.141 41.633 279.379 41.191C279.617 40.749 279.923 40.3637 280.297 40.035C280.671 39.695 281.119 39.4287 281.64 39.236C282.161 39.0433 282.756 38.947 283.425 38.947C284.048 38.947 284.604 39.0377 285.091 39.219C285.578 39.389 285.992 39.6327 286.332 39.95C286.672 40.2673 286.927 40.647 287.097 41.089C287.278 41.531 287.369 42.0127 287.369 42.534C287.369 43.2707 287.21 43.9507 286.893 44.574C286.587 45.186 286.196 45.747 285.72 46.257C285.244 46.767 284.723 47.2317 284.156 47.651C283.589 48.059 283.051 48.4217 282.541 48.739L281.232 49.555H287.811V51H278.546V49.81L281.13 48.093C281.98 47.5263 282.705 47.005 283.306 46.529C283.907 46.0417 284.394 45.5827 284.768 45.152C285.153 44.7213 285.431 44.3077 285.601 43.911C285.782 43.503 285.873 43.095 285.873 42.687C285.873 42.2677 285.805 41.9107 285.669 41.616C285.544 41.3213 285.363 41.0833 285.125 40.902C284.898 40.7207 284.626 40.5903 284.309 40.511C284.003 40.4317 283.674 40.392 283.323 40.392C282.813 40.392 282.371 40.4713 281.997 40.63C281.634 40.7887 281.323 40.9983 281.062 41.259C280.813 41.5083 280.614 41.7917 280.467 42.109C280.331 42.415 280.24 42.721 280.195 43.027L278.869 42.585Z" fill="#222429"/>
<path d="M342.818 205.07C342.902 204.669 343.042 204.286 343.238 203.922C343.434 203.558 343.686 203.241 343.994 202.97C344.302 202.69 344.671 202.471 345.1 202.312C345.53 202.153 346.02 202.074 346.57 202.074C347.084 202.074 347.541 202.149 347.942 202.298C348.344 202.438 348.684 202.639 348.964 202.9C349.244 203.161 349.454 203.474 349.594 203.838C349.744 204.202 349.818 204.599 349.818 205.028C349.818 205.635 349.688 206.195 349.426 206.708C349.174 207.212 348.852 207.674 348.46 208.094C348.068 208.514 347.639 208.897 347.172 209.242C346.706 209.578 346.262 209.877 345.842 210.138L344.764 210.81H350.182V212H342.552V211.02L344.68 209.606C345.38 209.139 345.978 208.71 346.472 208.318C346.967 207.917 347.368 207.539 347.676 207.184C347.994 206.829 348.222 206.489 348.362 206.162C348.512 205.826 348.586 205.49 348.586 205.154C348.586 204.809 348.53 204.515 348.418 204.272C348.316 204.029 348.166 203.833 347.97 203.684C347.784 203.535 347.56 203.427 347.298 203.362C347.046 203.297 346.776 203.264 346.486 203.264C346.066 203.264 345.702 203.329 345.394 203.46C345.096 203.591 344.839 203.763 344.624 203.978C344.419 204.183 344.256 204.417 344.134 204.678C344.022 204.93 343.948 205.182 343.91 205.434L342.818 205.07ZM351.152 207.1C351.152 206.372 351.236 205.705 351.404 205.098C351.572 204.482 351.824 203.95 352.16 203.502C352.506 203.054 352.94 202.704 353.462 202.452C353.985 202.2 354.601 202.074 355.31 202.074C356.02 202.074 356.636 202.191 357.158 202.424C357.681 202.657 358.115 202.993 358.46 203.432C358.806 203.871 359.062 204.403 359.23 205.028C359.398 205.644 359.482 206.335 359.482 207.1C359.482 207.828 359.398 208.5 359.23 209.116C359.072 209.723 358.82 210.25 358.474 210.698C358.138 211.146 357.709 211.496 357.186 211.748C356.664 212 356.048 212.126 355.338 212.126C354.666 212.126 354.069 212 353.546 211.748C353.024 211.496 352.585 211.146 352.23 210.698C351.876 210.25 351.605 209.723 351.418 209.116C351.241 208.5 351.152 207.828 351.152 207.1ZM352.384 207.1C352.384 208.295 352.646 209.233 353.168 209.914C353.691 210.595 354.414 210.936 355.338 210.936C356.346 210.936 357.084 210.595 357.55 209.914C358.017 209.233 358.25 208.295 358.25 207.1C358.25 205.905 358.012 204.967 357.536 204.286C357.06 203.605 356.318 203.264 355.31 203.264C354.806 203.264 354.372 203.353 354.008 203.53C353.644 203.707 353.341 203.964 353.098 204.3C352.856 204.636 352.674 205.042 352.552 205.518C352.44 205.985 352.384 206.512 352.384 207.1ZM360.626 205.07C360.71 204.669 360.85 204.286 361.046 203.922C361.242 203.558 361.494 203.241 361.802 202.97C362.11 202.69 362.479 202.471 362.908 202.312C363.337 202.153 363.827 202.074 364.378 202.074C364.891 202.074 365.349 202.149 365.75 202.298C366.151 202.438 366.492 202.639 366.772 202.9C367.052 203.161 367.262 203.474 367.402 203.838C367.551 204.202 367.626 204.599 367.626 205.028C367.626 205.635 367.495 206.195 367.234 206.708C366.982 207.212 366.66 207.674 366.268 208.094C365.876 208.514 365.447 208.897 364.98 209.242C364.513 209.578 364.07 209.877 363.65 210.138L362.572 210.81H367.99V212H360.36V211.02L362.488 209.606C363.188 209.139 363.785 208.71 364.28 208.318C364.775 207.917 365.176 207.539 365.484 207.184C365.801 206.829 366.03 206.489 366.17 206.162C366.319 205.826 366.394 205.49 366.394 205.154C366.394 204.809 366.338 204.515 366.226 204.272C366.123 204.029 365.974 203.833 365.778 203.684C365.591 203.535 365.367 203.427 365.106 203.362C364.854 203.297 364.583 203.264 364.294 203.264C363.874 203.264 363.51 203.329 363.202 203.46C362.903 203.591 362.647 203.763 362.432 203.978C362.227 204.183 362.063 204.417 361.942 204.678C361.83 204.93 361.755 205.182 361.718 205.434L360.626 205.07ZM371.76 202.144H372.558V212H371.382V203.642L368.848 204.804L368.4 203.754L371.76 202.144Z" fill="#777F8C"/>
<rect x="333" y="41" width="50" height="151" fill="#BFCED4"/>
<rect x="333" y="41" width="50" height="4" fill="#A6B2BC"/>
<path d="M336.405 20.1H343.885V21.545H337.714L337.272 24.741C337.533 24.5483 337.884 24.3897 338.326 24.265C338.78 24.129 339.329 24.061 339.975 24.061C340.689 24.061 341.324 24.163 341.879 24.367C342.435 24.571 342.899 24.8543 343.273 25.217C343.647 25.5797 343.931 26.0047 344.123 26.492C344.327 26.9793 344.429 27.5007 344.429 28.056C344.429 28.6567 344.31 29.2063 344.072 29.705C343.846 30.2037 343.523 30.6343 343.103 30.997C342.695 31.3597 342.208 31.643 341.641 31.847C341.086 32.051 340.48 32.153 339.822 32.153C339.278 32.153 338.757 32.0907 338.258 31.966C337.76 31.8413 337.295 31.6543 336.864 31.405C336.445 31.1557 336.071 30.8553 335.742 30.504C335.425 30.1413 335.17 29.722 334.977 29.246L336.337 28.668C336.451 28.9287 336.609 29.1837 336.813 29.433C337.017 29.671 337.267 29.8863 337.561 30.079C337.856 30.2717 338.19 30.4247 338.564 30.538C338.938 30.6513 339.358 30.708 339.822 30.708C340.344 30.708 340.797 30.64 341.182 30.504C341.579 30.3567 341.908 30.164 342.168 29.926C342.429 29.688 342.622 29.416 342.746 29.11C342.871 28.7927 342.933 28.4583 342.933 28.107C342.933 27.3023 342.633 26.6677 342.032 26.203C341.443 25.7383 340.621 25.506 339.567 25.506C338.967 25.506 338.462 25.591 338.054 25.761C337.658 25.9197 337.284 26.1747 336.932 26.526L335.708 26.203L336.405 20.1ZM347.097 20.1H354.577V21.545H348.406L347.964 24.741C348.224 24.5483 348.576 24.3897 349.018 24.265C349.471 24.129 350.021 24.061 350.667 24.061C351.381 24.061 352.015 24.163 352.571 24.367C353.126 24.571 353.591 24.8543 353.965 25.217C354.339 25.5797 354.622 26.0047 354.815 26.492C355.019 26.9793 355.121 27.5007 355.121 28.056C355.121 28.6567 355.002 29.2063 354.764 29.705C354.537 30.2037 354.214 30.6343 353.795 30.997C353.387 31.3597 352.899 31.643 352.333 31.847C351.777 32.051 351.171 32.153 350.514 32.153C349.97 32.153 349.448 32.0907 348.95 31.966C348.451 31.8413 347.986 31.6543 347.556 31.405C347.136 31.1557 346.762 30.8553 346.434 30.504C346.116 30.1413 345.861 29.722 345.669 29.246L347.029 28.668C347.142 28.9287 347.301 29.1837 347.505 29.433C347.709 29.671 347.958 29.8863 348.253 30.079C348.547 30.2717 348.882 30.4247 349.256 30.538C349.63 30.6513 350.049 30.708 350.514 30.708C351.035 30.708 351.488 30.64 351.874 30.504C352.27 30.3567 352.599 30.164 352.86 29.926C353.12 29.688 353.313 29.416 353.438 29.11C353.562 28.7927 353.625 28.4583 353.625 28.107C353.625 27.3023 353.324 26.6677 352.724 26.203C352.134 25.7383 351.313 25.506 350.259 25.506C349.658 25.506 349.154 25.591 348.746 25.761C348.349 25.9197 347.975 26.1747 347.624 26.526L346.4 26.203L347.097 20.1ZM356.479 22.99C356.638 22.548 356.853 22.1457 357.125 21.783C357.397 21.409 357.726 21.086 358.111 20.814C358.508 20.542 358.961 20.3323 359.471 20.185C359.992 20.0263 360.576 19.947 361.222 19.947C361.8 19.947 362.333 20.0207 362.82 20.168C363.319 20.304 363.744 20.5023 364.095 20.763C364.458 21.0123 364.735 21.324 364.928 21.698C365.132 22.072 365.234 22.4857 365.234 22.939C365.234 23.6303 365.053 24.2197 364.69 24.707C364.339 25.1943 363.823 25.5343 363.143 25.727C363.438 25.7497 363.727 25.8233 364.01 25.948C364.293 26.0613 364.543 26.237 364.758 26.475C364.985 26.7017 365.166 26.9907 365.302 27.342C365.438 27.682 365.506 28.09 365.506 28.566C365.506 29.144 365.393 29.6597 365.166 30.113C364.951 30.555 364.645 30.929 364.248 31.235C363.863 31.5297 363.404 31.7563 362.871 31.915C362.338 32.0737 361.766 32.153 361.154 32.153C360.485 32.153 359.873 32.0737 359.318 31.915C358.774 31.7563 358.292 31.541 357.873 31.269C357.454 30.9857 357.097 30.6513 356.802 30.266C356.519 29.8693 356.303 29.433 356.156 28.957L357.533 28.362C357.68 28.668 357.856 28.9627 358.06 29.246C358.264 29.5293 358.513 29.7787 358.808 29.994C359.103 30.2093 359.448 30.385 359.845 30.521C360.242 30.6457 360.712 30.708 361.256 30.708C362.106 30.708 362.775 30.5267 363.262 30.164C363.761 29.79 364.01 29.263 364.01 28.583C364.01 28.209 363.931 27.8973 363.772 27.648C363.613 27.3873 363.392 27.1833 363.109 27.036C362.826 26.8773 362.491 26.7697 362.106 26.713C361.732 26.645 361.324 26.611 360.882 26.611H359.556V25.2H360.61C361.596 25.2 362.361 25.013 362.905 24.639C363.46 24.265 363.738 23.7947 363.738 23.228C363.738 22.616 363.506 22.157 363.041 21.851C362.576 21.545 361.947 21.392 361.154 21.392C360.667 21.392 360.236 21.4543 359.862 21.579C359.488 21.7037 359.159 21.868 358.876 22.072C358.604 22.276 358.372 22.5083 358.179 22.769C357.998 23.0297 357.856 23.296 357.754 23.568L356.479 22.99ZM367.192 31.031C367.192 30.8043 367.289 30.589 367.481 30.385C367.674 30.181 367.929 30.079 368.246 30.079C368.541 30.079 368.785 30.181 368.977 30.385C369.17 30.589 369.266 30.8043 369.266 31.031C369.266 31.2917 369.17 31.524 368.977 31.728C368.785 31.932 368.541 32.034 368.246 32.034C367.929 32.034 367.674 31.932 367.481 31.728C367.289 31.524 367.192 31.2917 367.192 31.031ZM377.625 29.62H370.298V28.532L377.795 20.1H379.053V28.175H381.263V29.62H379.053V32H377.625V29.62ZM377.625 28.175V22.48L372.338 28.175H377.625Z" fill="#222429"/>
<path d="M73.5744 154.372C73.7064 153.52 74.3544 152.512 75.7824 152.512C76.7904 152.512 77.5824 152.944 77.5824 154.132C77.5824 155.284 76.6344 156.352 74.2344 157.948L72.4104 159.16V160H78.9504V158.98H74.3064L75.2304 158.404C76.6704 157.504 78.6384 156.1 78.6384 154.024C78.6384 152.536 77.6184 151.492 75.8544 151.492C73.9704 151.492 72.9264 152.668 72.6384 154.06L73.5744 154.372ZM84.33 160H85.338V158.32H86.898V157.3H85.338V151.6H84.45L79.158 157.552V158.32H84.33V160ZM80.598 157.3L84.33 153.28V157.3H80.598ZM87.3285 159.316C87.3285 159.688 87.6285 160.024 88.0725 160.024C88.4925 160.024 88.7925 159.688 88.7925 159.316C88.7925 158.992 88.4925 158.644 88.0725 158.644C87.6285 158.644 87.3285 158.992 87.3285 159.316ZM89.0647 152.932L89.4487 153.832L91.6207 152.836V160H92.6287V151.552H91.9447L89.0647 152.932ZM95.215 159.724L96.007 160.18L102.175 151.888L101.419 151.336L95.215 159.724ZM93.919 153.616C93.919 154.816 94.867 155.656 96.115 155.656C97.351 155.656 98.299 154.816 98.299 153.616C98.299 152.404 97.351 151.564 96.115 151.564C94.867 151.564 93.919 152.404 93.919 153.616ZM94.927 153.616C94.927 152.896 95.479 152.428 96.115 152.428C96.739 152.428 97.291 152.896 97.291 153.616C97.291 154.336 96.739 154.804 96.115 154.804C95.503 154.804 94.927 154.336 94.927 153.616ZM99.067 157.996C99.067 159.196 100.015 160.048 101.263 160.048C102.499 160.048 103.447 159.196 103.447 157.996C103.447 156.796 102.499 155.956 101.263 155.956C100.015 155.956 99.067 156.796 99.067 157.996ZM100.075 157.996C100.075 157.276 100.627 156.808 101.263 156.808C101.887 156.808 102.439 157.276 102.439 157.996C102.439 158.716 101.887 159.184 101.263 159.184C100.651 159.184 100.075 158.716 100.075 157.996Z" fill="#50565E"/>
<rect x="63" y="170" width="50" height="1" fill="#9299A3"/>
<path d="M161.951 144.372C162.083 143.52 162.731 142.512 164.159 142.512C165.167 142.512 165.959 142.944 165.959 144.132C165.959 145.284 165.011 146.352 162.611 147.948L160.787 149.16V150H167.327V148.98H162.683L163.607 148.404C165.047 147.504 167.015 146.1 167.015 144.024C167.015 142.536 165.995 141.492 164.231 141.492C162.347 141.492 161.303 142.668 161.015 144.06L161.951 144.372ZM172.707 150H173.715V148.32H175.275V147.3H173.715V141.6H172.827L167.535 147.552V148.32H172.707V150ZM168.975 147.3L172.707 143.28V147.3H168.975ZM175.705 149.316C175.705 149.688 176.005 150.024 176.449 150.024C176.869 150.024 177.169 149.688 177.169 149.316C177.169 148.992 176.869 148.644 176.449 148.644C176.005 148.644 175.705 148.992 175.705 149.316ZM181.594 150.108C183.454 150.108 184.918 148.932 184.918 147.192C184.918 145.524 183.718 144.384 181.75 144.384C180.574 144.384 179.398 144.936 178.954 145.992C178.954 145.944 178.954 145.908 178.954 145.86C178.99 143.808 180.022 142.512 181.606 142.512C182.626 142.512 183.346 142.968 183.814 143.688L184.63 143.136C184.162 142.128 183.094 141.492 181.654 141.492C179.638 141.492 177.922 143.004 177.922 146.028C177.922 148.668 179.35 150.108 181.594 150.108ZM181.582 149.088C180.202 149.088 179.35 148.2 179.35 147.156C179.35 146.136 180.166 145.404 181.69 145.404C182.95 145.404 183.862 146.028 183.862 147.24C183.862 148.344 182.914 149.088 181.582 149.088ZM186.838 149.724L187.63 150.18L193.798 141.888L193.042 141.336L186.838 149.724ZM185.542 143.616C185.542 144.816 186.49 145.656 187.738 145.656C188.974 145.656 189.922 144.816 189.922 143.616C189.922 142.404 188.974 141.564 187.738 141.564C186.49 141.564 185.542 142.404 185.542 143.616ZM186.55 143.616C186.55 142.896 187.102 142.428 187.738 142.428C188.362 142.428 188.914 142.896 188.914 143.616C188.914 144.336 188.362 144.804 187.738 144.804C187.126 144.804 186.55 144.336 186.55 143.616ZM190.69 147.996C190.69 149.196 191.638 150.048 192.886 150.048C194.122 150.048 195.07 149.196 195.07 147.996C195.07 146.796 194.122 145.956 192.886 145.956C191.638 145.956 190.69 146.796 190.69 147.996ZM191.698 147.996C191.698 147.276 192.25 146.808 192.886 146.808C193.51 146.808 194.062 147.276 194.062 147.996C194.062 148.716 193.51 149.184 192.886 149.184C192.274 149.184 191.698 148.716 191.698 147.996Z" fill="#50565E"/>
<rect x="153" y="160" width="50" height="1" fill="#9299A3"/>
<path d="M251.951 144.372C252.083 143.52 252.731 142.512 254.159 142.512C255.167 142.512 255.959 142.944 255.959 144.132C255.959 145.284 255.011 146.352 252.611 147.948L250.787 149.16V150H257.327V148.98H252.683L253.607 148.404C255.047 147.504 257.015 146.1 257.015 144.024C257.015 142.536 255.995 141.492 254.231 141.492C252.347 141.492 251.303 142.668 251.015 144.06L251.951 144.372ZM262.707 150H263.715V148.32H265.275V147.3H263.715V141.6H262.827L257.535 147.552V148.32H262.707V150ZM258.975 147.3L262.707 143.28V147.3H258.975ZM265.705 149.316C265.705 149.688 266.005 150.024 266.449 150.024C266.869 150.024 267.169 149.688 267.169 149.316C267.169 148.992 266.869 148.644 266.449 148.644C266.005 148.644 265.705 148.992 265.705 149.316ZM271.594 150.108C273.454 150.108 274.918 148.932 274.918 147.192C274.918 145.524 273.718 144.384 271.75 144.384C270.574 144.384 269.398 144.936 268.954 145.992C268.954 145.944 268.954 145.908 268.954 145.86C268.99 143.808 270.022 142.512 271.606 142.512C272.626 142.512 273.346 142.968 273.814 143.688L274.63 143.136C274.162 142.128 273.094 141.492 271.654 141.492C269.638 141.492 267.922 143.004 267.922 146.028C267.922 148.668 269.35 150.108 271.594 150.108ZM271.582 149.088C270.202 149.088 269.35 148.2 269.35 147.156C269.35 146.136 270.166 145.404 271.69 145.404C272.95 145.404 273.862 146.028 273.862 147.24C273.862 148.344 272.914 149.088 271.582 149.088ZM276.838 149.724L277.63 150.18L283.798 141.888L283.042 141.336L276.838 149.724ZM275.542 143.616C275.542 144.816 276.49 145.656 277.738 145.656C278.974 145.656 279.922 144.816 279.922 143.616C279.922 142.404 278.974 141.564 277.738 141.564C276.49 141.564 275.542 142.404 275.542 143.616ZM276.55 143.616C276.55 142.896 277.102 142.428 277.738 142.428C278.362 142.428 278.914 142.896 278.914 143.616C278.914 144.336 278.362 144.804 277.738 144.804C277.126 144.804 276.55 144.336 276.55 143.616ZM280.69 147.996C280.69 149.196 281.638 150.048 282.886 150.048C284.122 150.048 285.07 149.196 285.07 147.996C285.07 146.796 284.122 145.956 282.886 145.956C281.638 145.956 280.69 146.796 280.69 147.996ZM281.698 147.996C281.698 147.276 282.25 146.808 282.886 146.808C283.51 146.808 284.062 147.276 284.062 147.996C284.062 148.716 283.51 149.184 282.886 149.184C282.274 149.184 281.698 148.716 281.698 147.996Z" fill="#50565E"/>
<rect x="243" y="160" width="50" height="1" fill="#9299A3"/>
<path d="M343.832 134.372C343.964 133.52 344.612 132.512 346.04 132.512C347.048 132.512 347.84 132.944 347.84 134.132C347.84 135.284 346.892 136.352 344.492 137.948L342.668 139.16V140H349.208V138.98H344.564L345.488 138.404C346.928 137.504 348.896 136.1 348.896 134.024C348.896 132.536 347.876 131.492 346.112 131.492C344.228 131.492 343.184 132.668 342.896 134.06L343.832 134.372ZM350.16 135.908L351.024 136.136C351.516 135.644 352.044 135.416 352.884 135.416C354.36 135.416 355.26 136.124 355.26 137.252C355.26 138.236 354.552 139.088 353.064 139.088C351.768 139.088 350.928 138.38 350.604 137.648L349.644 138.056C350.184 139.388 351.54 140.108 353.064 140.108C354.924 140.108 356.316 138.896 356.316 137.216C356.316 135.632 355.188 134.396 353.172 134.396C352.272 134.396 351.624 134.612 351.264 134.876L351.576 132.62H355.932V131.6H350.652L350.16 135.908ZM357.071 139.316C357.071 139.688 357.371 140.024 357.815 140.024C358.235 140.024 358.535 139.688 358.535 139.316C358.535 138.992 358.235 138.644 357.815 138.644C357.371 138.644 357.071 138.992 357.071 139.316ZM358.807 132.932L359.191 133.832L361.363 132.836V140H362.371V131.552H361.687L358.807 132.932ZM364.957 139.724L365.749 140.18L371.917 131.888L371.161 131.336L364.957 139.724ZM363.661 133.616C363.661 134.816 364.609 135.656 365.857 135.656C367.093 135.656 368.041 134.816 368.041 133.616C368.041 132.404 367.093 131.564 365.857 131.564C364.609 131.564 363.661 132.404 363.661 133.616ZM364.669 133.616C364.669 132.896 365.221 132.428 365.857 132.428C366.481 132.428 367.033 132.896 367.033 133.616C367.033 134.336 366.481 134.804 365.857 134.804C365.245 134.804 364.669 134.336 364.669 133.616ZM368.809 137.996C368.809 139.196 369.757 140.048 371.005 140.048C372.241 140.048 373.189 139.196 373.189 137.996C373.189 136.796 372.241 135.956 371.005 135.956C369.757 135.956 368.809 136.796 368.809 137.996ZM369.817 137.996C369.817 137.276 370.369 136.808 371.005 136.808C371.629 136.808 372.181 137.276 372.181 137.996C372.181 138.716 371.629 139.184 371.005 139.184C370.393 139.184 369.817 138.716 369.817 137.996Z" fill="#50565E"/>
<rect x="333" y="150" width="50" height="1" fill="#9299A3"/>
<path d="M433.574 154.372C433.706 153.52 434.354 152.512 435.782 152.512C436.79 152.512 437.582 152.944 437.582 154.132C437.582 155.284 436.634 156.352 434.234 157.948L432.41 159.16V160H438.95V158.98H434.306L435.23 158.404C436.67 157.504 438.638 156.1 438.638 154.024C438.638 152.536 437.618 151.492 435.854 151.492C433.97 151.492 432.926 152.668 432.638 154.06L433.574 154.372ZM444.33 160H445.338V158.32H446.898V157.3H445.338V151.6H444.45L439.158 157.552V158.32H444.33V160ZM440.598 157.3L444.33 153.28V157.3H440.598ZM447.329 159.316C447.329 159.688 447.629 160.024 448.073 160.024C448.493 160.024 448.793 159.688 448.793 159.316C448.793 158.992 448.493 158.644 448.073 158.644C447.629 158.644 447.329 158.992 447.329 159.316ZM449.065 152.932L449.449 153.832L451.621 152.836V160H452.629V151.552H451.945L449.065 152.932ZM455.215 159.724L456.007 160.18L462.175 151.888L461.419 151.336L455.215 159.724ZM453.919 153.616C453.919 154.816 454.867 155.656 456.115 155.656C457.351 155.656 458.299 154.816 458.299 153.616C458.299 152.404 457.351 151.564 456.115 151.564C454.867 151.564 453.919 152.404 453.919 153.616ZM454.927 153.616C454.927 152.896 455.479 152.428 456.115 152.428C456.739 152.428 457.291 152.896 457.291 153.616C457.291 154.336 456.739 154.804 456.115 154.804C455.503 154.804 454.927 154.336 454.927 153.616ZM459.067 157.996C459.067 159.196 460.015 160.048 461.263 160.048C462.499 160.048 463.447 159.196 463.447 157.996C463.447 156.796 462.499 155.956 461.263 155.956C460.015 155.956 459.067 156.796 459.067 157.996ZM460.075 157.996C460.075 157.276 460.627 156.808 461.263 156.808C461.887 156.808 462.439 157.276 462.439 157.996C462.439 158.716 461.887 159.184 461.263 159.184C460.651 159.184 460.075 158.716 460.075 157.996Z" fill="#003E14"/>
<rect x="423" y="170" width="50" height="1" fill="#003E14"/>
<circle cx="7.5" cy="244.5" r="7.5" fill="#BFCED4"/>
<path d="M29.888 244.19L34.555 244.19C34.5637 244.277 34.568 244.368 34.568 244.463C34.568 244.55 34.568 244.632 34.568 244.71C34.568 245.438 34.4467 246.079 34.204 246.634C33.9613 247.18 33.6363 247.639 33.229 248.012C32.8303 248.376 32.3667 248.653 31.838 248.844C31.318 249.026 30.7763 249.117 30.213 249.117C29.537 249.117 28.913 249.004 28.341 248.779C27.7777 248.545 27.2923 248.22 26.885 247.804C26.4777 247.388 26.157 246.894 25.923 246.322C25.6977 245.75 25.585 245.126 25.585 244.45C25.585 243.791 25.6977 243.18 25.923 242.617C26.157 242.045 26.4777 241.551 26.885 241.135C27.2923 240.71 27.7777 240.381 28.341 240.147C28.913 239.904 29.537 239.783 30.213 239.783C31.0623 239.783 31.8423 240 32.553 240.433C33.2723 240.858 33.8227 241.482 34.204 242.305L33.138 242.643C32.8433 242.088 32.436 241.659 31.916 241.356C31.4047 241.044 30.837 240.888 30.213 240.888C29.719 240.888 29.264 240.975 28.848 241.148C28.432 241.321 28.0723 241.564 27.769 241.876C27.4743 242.188 27.2403 242.565 27.067 243.007C26.9023 243.44 26.82 243.921 26.82 244.45C26.82 244.979 26.9023 245.464 27.067 245.906C27.2403 246.339 27.4743 246.712 27.769 247.024C28.0723 247.336 28.432 247.579 28.848 247.752C29.264 247.925 29.719 248.012 30.213 248.012C30.629 248.012 31.0233 247.956 31.396 247.843C31.7687 247.722 32.098 247.548 32.384 247.323C32.6787 247.098 32.9213 246.816 33.112 246.478C33.3027 246.131 33.4197 245.737 33.463 245.295H29.888V244.19ZM35.8728 242.24H36.9648L36.9648 243.02C37.0601 242.743 37.2421 242.526 37.5108 242.37C37.7794 242.205 38.1131 242.123 38.5118 242.123C38.6244 242.123 38.7414 242.132 38.8628 242.149C38.9928 242.158 39.0838 242.171 39.1358 242.188L39.1358 243.241C39.0491 243.206 38.9538 243.185 38.8498 243.176C38.7458 243.159 38.6374 243.15 38.5248 243.15C38.0134 243.15 37.6234 243.28 37.3548 243.54C37.0948 243.8 36.9648 244.168 36.9648 244.645L36.9648 249H35.8728L35.8728 242.24ZM39.6129 245.607C39.6129 245.104 39.6996 244.641 39.8729 244.216C40.0462 243.791 40.2889 243.423 40.6009 243.111C40.9216 242.799 41.2986 242.556 41.7319 242.383C42.1739 242.21 42.6636 242.123 43.2009 242.123C43.7296 242.123 44.2106 242.21 44.6439 242.383C45.0859 242.556 45.4629 242.799 45.7749 243.111C46.0956 243.423 46.3426 243.791 46.5159 244.216C46.6979 244.641 46.7889 245.104 46.7889 245.607C46.7889 246.118 46.7022 246.591 46.5289 247.024C46.3556 247.449 46.1086 247.817 45.7879 248.129C45.4672 248.441 45.0859 248.684 44.6439 248.857C44.2019 249.03 43.7166 249.117 43.1879 249.117C42.6679 249.117 42.1869 249.03 41.7449 248.857C41.3116 248.684 40.9346 248.441 40.6139 248.129C40.3019 247.817 40.0549 247.449 39.8729 247.024C39.6996 246.591 39.6129 246.118 39.6129 245.607ZM40.7569 245.607C40.7569 245.971 40.8132 246.305 40.9259 246.608C41.0472 246.911 41.2162 247.176 41.4329 247.401C41.6496 247.618 41.9052 247.787 42.1999 247.908C42.5032 248.029 42.8326 248.09 43.1879 248.09C43.5519 248.09 43.8856 248.029 44.1889 247.908C44.4922 247.787 44.7479 247.618 44.9559 247.401C45.1726 247.184 45.3416 246.924 45.4629 246.621C45.5842 246.309 45.6449 245.971 45.6449 245.607C45.6449 245.243 45.5799 244.909 45.4499 244.606C45.3286 244.303 45.1596 244.047 44.9429 243.839C44.7262 243.622 44.4662 243.453 44.1629 243.332C43.8596 243.211 43.5346 243.15 43.1879 243.15C42.8326 243.15 42.5076 243.211 42.2129 243.332C41.9182 243.445 41.6626 243.609 41.4459 243.826C41.2292 244.043 41.0602 244.303 40.9389 244.606C40.8176 244.909 40.7569 245.243 40.7569 245.607ZM52.1416 247.154C52.1416 246.885 52.0376 246.682 51.8296 246.543C51.6216 246.396 51.3616 246.279 51.0496 246.192C50.7462 246.097 50.4126 246.01 50.0486 245.932C49.6932 245.845 49.3596 245.733 49.0476 245.594C48.7442 245.447 48.4886 245.252 48.2806 245.009C48.0726 244.766 47.9686 244.437 47.9686 244.021C47.9686 243.735 48.0249 243.475 48.1376 243.241C48.2589 243.007 48.4279 242.808 48.6446 242.643C48.8699 242.478 49.1342 242.353 49.4376 242.266C49.7496 242.171 50.0962 242.123 50.4776 242.123C51.2402 242.123 51.8686 242.288 52.3626 242.617C52.8652 242.938 53.1859 243.388 53.3246 243.969L52.3366 244.333C52.2239 243.934 52.0029 243.631 51.6736 243.423C51.3529 243.215 50.9456 243.111 50.4516 243.111C50.0529 243.111 49.7279 243.193 49.4766 243.358C49.2339 243.514 49.1126 243.718 49.1126 243.969C49.1126 244.229 49.2166 244.428 49.4246 244.567C49.6326 244.697 49.8882 244.805 50.1916 244.892C50.5036 244.979 50.8372 245.065 51.1926 245.152C51.5566 245.23 51.8902 245.343 52.1936 245.49C52.5056 245.637 52.7656 245.841 52.9736 246.101C53.1816 246.352 53.2856 246.699 53.2856 247.141C53.2856 247.748 53.0516 248.229 52.5836 248.584C52.1242 248.939 51.5002 249.117 50.7116 249.117C49.0129 249.117 47.9729 248.502 47.5916 247.271L48.5796 246.907C48.9089 247.722 49.5936 248.129 50.6336 248.129C51.1276 248.129 51.5002 248.047 51.7516 247.882C52.0116 247.709 52.1416 247.466 52.1416 247.154ZM58.6862 247.154C58.6862 246.885 58.5822 246.682 58.3742 246.543C58.1662 246.396 57.9062 246.279 57.5942 246.192C57.2909 246.097 56.9572 246.01 56.5932 245.932C56.2379 245.845 55.9042 245.733 55.5922 245.594C55.2889 245.447 55.0332 245.252 54.8252 245.009C54.6172 244.766 54.5132 244.437 54.5132 244.021C54.5132 243.735 54.5696 243.475 54.6822 243.241C54.8036 243.007 54.9726 242.808 55.1892 242.643C55.4146 242.478 55.6789 242.353 55.9822 242.266C56.2942 242.171 56.6409 242.123 57.0222 242.123C57.7849 242.123 58.4132 242.288 58.9072 242.617C59.4099 242.938 59.7306 243.388 59.8692 243.969L58.8812 244.333C58.7686 243.934 58.5476 243.631 58.2182 243.423C57.8976 243.215 57.4902 243.111 56.9962 243.111C56.5976 243.111 56.2726 243.193 56.0212 243.358C55.7786 243.514 55.6572 243.718 55.6572 243.969C55.6572 244.229 55.7612 244.428 55.9692 244.567C56.1772 244.697 56.4329 244.805 56.7362 244.892C57.0482 244.979 57.3819 245.065 57.7372 245.152C58.1012 245.23 58.4349 245.343 58.7382 245.49C59.0502 245.637 59.3102 245.841 59.5182 246.101C59.7262 246.352 59.8302 246.699 59.8302 247.141C59.8302 247.748 59.5962 248.229 59.1282 248.584C58.6689 248.939 58.0449 249.117 57.2562 249.117C55.5576 249.117 54.5176 248.502 54.1362 247.271L55.1242 246.907C55.4536 247.722 56.1382 248.129 57.1782 248.129C57.6722 248.129 58.0449 248.047 58.2962 247.882C58.5562 247.709 58.6862 247.466 58.6862 247.154ZM68.1465 249.117C67.5312 249.117 67.0242 249.017 66.6255 248.818C66.2355 248.619 65.9192 248.337 65.6765 247.973V251.6H64.5845L64.5845 242.24H65.6765L65.6765 243.449C65.9018 243.05 66.2268 242.73 66.6515 242.487C67.0848 242.244 67.6135 242.123 68.2375 242.123C68.6968 242.123 69.1258 242.205 69.5245 242.37C69.9232 242.526 70.2655 242.751 70.5515 243.046C70.8462 243.341 71.0758 243.705 71.2405 244.138C71.4138 244.563 71.5005 245.039 71.5005 245.568C71.5005 246.097 71.4182 246.578 71.2535 247.011C71.0888 247.444 70.8592 247.817 70.5645 248.129C70.2698 248.441 69.9145 248.684 69.4985 248.857C69.0912 249.03 68.6405 249.117 68.1465 249.117ZM68.0555 248.09C68.4022 248.09 68.7142 248.034 68.9915 247.921C69.2775 247.8 69.5202 247.631 69.7195 247.414C69.9188 247.197 70.0748 246.937 70.1875 246.634C70.3002 246.322 70.3565 245.975 70.3565 245.594C70.3565 245.221 70.2958 244.883 70.1745 244.58C70.0618 244.277 69.9015 244.021 69.6935 243.813C69.4855 243.596 69.2385 243.432 68.9525 243.319C68.6665 243.206 68.3545 243.15 68.0165 243.15C67.2972 243.15 66.7252 243.362 66.3005 243.787C65.8845 244.203 65.6765 244.779 65.6765 245.516V245.763C65.6765 246.153 65.7372 246.495 65.8585 246.79C65.9885 247.085 66.1575 247.327 66.3655 247.518C66.5822 247.709 66.8335 247.852 67.1195 247.947C67.4142 248.042 67.7262 248.09 68.0555 248.09ZM72.8304 242.24H73.9224V243.02C74.0177 242.743 74.1997 242.526 74.4684 242.37C74.737 242.205 75.0707 242.123 75.4694 242.123C75.582 242.123 75.699 242.132 75.8204 242.149C75.9504 242.158 76.0414 242.171 76.0934 242.188L76.0934 243.241C76.0067 243.206 75.9114 243.185 75.8074 243.176C75.7034 243.159 75.595 243.15 75.4824 243.15C74.971 243.15 74.581 243.28 74.3124 243.54C74.0524 243.8 73.9224 244.168 73.9224 244.645L73.9224 249H72.8304L72.8304 242.24ZM76.5705 245.607C76.5705 245.104 76.6572 244.641 76.8305 244.216C77.0038 243.791 77.2465 243.423 77.5585 243.111C77.8792 242.799 78.2562 242.556 78.6895 242.383C79.1315 242.21 79.6212 242.123 80.1585 242.123C80.6872 242.123 81.1682 242.21 81.6015 242.383C82.0435 242.556 82.4205 242.799 82.7325 243.111C83.0532 243.423 83.3002 243.791 83.4735 244.216C83.6555 244.641 83.7465 245.104 83.7465 245.607C83.7465 246.118 83.6598 246.591 83.4865 247.024C83.3132 247.449 83.0662 247.817 82.7455 248.129C82.4248 248.441 82.0435 248.684 81.6015 248.857C81.1595 249.03 80.6742 249.117 80.1455 249.117C79.6255 249.117 79.1445 249.03 78.7025 248.857C78.2692 248.684 77.8922 248.441 77.5715 248.129C77.2595 247.817 77.0125 247.449 76.8305 247.024C76.6572 246.591 76.5705 246.118 76.5705 245.607ZM77.7145 245.607C77.7145 245.971 77.7708 246.305 77.8835 246.608C78.0048 246.911 78.1738 247.176 78.3905 247.401C78.6072 247.618 78.8628 247.787 79.1575 247.908C79.4608 248.029 79.7902 248.09 80.1455 248.09C80.5095 248.09 80.8432 248.029 81.1465 247.908C81.4498 247.787 81.7055 247.618 81.9135 247.401C82.1302 247.184 82.2992 246.924 82.4205 246.621C82.5418 246.309 82.6025 245.971 82.6025 245.607C82.6025 245.243 82.5375 244.909 82.4075 244.606C82.2862 244.303 82.1172 244.047 81.9005 243.839C81.6838 243.622 81.4238 243.453 81.1205 243.332C80.8172 243.211 80.4922 243.15 80.1455 243.15C79.7902 243.15 79.4652 243.211 79.1705 243.332C78.8758 243.445 78.6202 243.609 78.4035 243.826C78.1868 244.043 78.0178 244.303 77.8965 244.606C77.7752 244.909 77.7145 245.243 77.7145 245.607ZM84.0551 242.24H85.3031V241.928C85.3031 241.451 85.3681 241.053 85.4981 240.732C85.6368 240.403 85.8101 240.143 86.0181 239.952C86.2348 239.753 86.4775 239.614 86.7461 239.536C87.0148 239.449 87.2878 239.406 87.5651 239.406C87.7385 239.406 87.9118 239.428 88.0851 239.471C88.2585 239.506 88.4015 239.562 88.5141 239.64L88.1111 240.576C88.0331 240.515 87.9508 240.481 87.8641 240.472C87.7775 240.455 87.6951 240.446 87.6171 240.446C87.2618 240.446 86.9671 240.563 86.7331 240.797C86.5078 241.022 86.3951 241.43 86.3951 242.019V242.24H88.3971L88.3971 243.28H86.3951L86.3951 249H85.3031L85.3031 243.28H84.0551L84.0551 242.24ZM89.2941 242.24H90.3861V249H89.2941V242.24ZM89.1511 240.173C89.1511 239.991 89.2161 239.839 89.3461 239.718C89.4848 239.597 89.6538 239.536 89.8531 239.536C90.0351 239.536 90.1911 239.597 90.3211 239.718C90.4598 239.839 90.5291 239.991 90.5291 240.173C90.5291 240.372 90.4598 240.537 90.3211 240.667C90.1911 240.788 90.0351 240.849 89.8531 240.849C89.6538 240.849 89.4848 240.788 89.3461 240.667C89.2161 240.537 89.1511 240.372 89.1511 240.173ZM91.3163 242.24H92.4603L92.4603 240.511H93.5523L93.5523 242.24H95.4113V243.267H93.5523V247.063C93.5523 247.444 93.6173 247.713 93.7473 247.869C93.8859 248.016 94.1156 248.09 94.4363 248.09C94.7223 248.09 95.0473 248.042 95.4113 247.947V248.974C95.2379 249.017 95.0343 249.052 94.8003 249.078C94.5749 249.104 94.3626 249.117 94.1633 249.117C93.5479 249.117 93.1103 248.957 92.8503 248.636C92.5903 248.307 92.4603 247.748 92.4603 246.959V243.267H91.3163V242.24Z" fill="#222429"/>
<rect x="117" y="244" width="15" height="1" fill="#003E14"/>
<path d="M146.888 244.19L151.555 244.19C151.564 244.277 151.568 244.368 151.568 244.463C151.568 244.55 151.568 244.632 151.568 244.71C151.568 245.438 151.447 246.079 151.204 246.634C150.961 247.18 150.636 247.639 150.229 248.012C149.83 248.376 149.367 248.653 148.838 248.844C148.318 249.026 147.776 249.117 147.213 249.117C146.537 249.117 145.913 249.004 145.341 248.779C144.778 248.545 144.292 248.22 143.885 247.804C143.478 247.388 143.157 246.894 142.923 246.322C142.698 245.75 142.585 245.126 142.585 244.45C142.585 243.791 142.698 243.18 142.923 242.617C143.157 242.045 143.478 241.551 143.885 241.135C144.292 240.71 144.778 240.381 145.341 240.147C145.913 239.904 146.537 239.783 147.213 239.783C148.062 239.783 148.842 240 149.553 240.433C150.272 240.858 150.823 241.482 151.204 242.305L150.138 242.643C149.843 242.088 149.436 241.659 148.916 241.356C148.405 241.044 147.837 240.888 147.213 240.888C146.719 240.888 146.264 240.975 145.848 241.148C145.432 241.321 145.072 241.564 144.769 241.876C144.474 242.188 144.24 242.565 144.067 243.007C143.902 243.44 143.82 243.921 143.82 244.45C143.82 244.979 143.902 245.464 144.067 245.906C144.24 246.339 144.474 246.712 144.769 247.024C145.072 247.336 145.432 247.579 145.848 247.752C146.264 247.925 146.719 248.012 147.213 248.012C147.629 248.012 148.023 247.956 148.396 247.843C148.769 247.722 149.098 247.548 149.384 247.323C149.679 247.098 149.921 246.816 150.112 246.478C150.303 246.131 150.42 245.737 150.463 245.295H146.888V244.19ZM152.873 242.24H153.965V243.02C154.06 242.743 154.242 242.526 154.511 242.37C154.779 242.205 155.113 242.123 155.512 242.123C155.624 242.123 155.741 242.132 155.863 242.149C155.993 242.158 156.084 242.171 156.136 242.188V243.241C156.049 243.206 155.954 243.185 155.85 243.176C155.746 243.159 155.637 243.15 155.525 243.15C155.013 243.15 154.623 243.28 154.355 243.54C154.095 243.8 153.965 244.168 153.965 244.645L153.965 249H152.873L152.873 242.24ZM156.613 245.607C156.613 245.104 156.7 244.641 156.873 244.216C157.046 243.791 157.289 243.423 157.601 243.111C157.922 242.799 158.299 242.556 158.732 242.383C159.174 242.21 159.664 242.123 160.201 242.123C160.73 242.123 161.211 242.21 161.644 242.383C162.086 242.556 162.463 242.799 162.775 243.111C163.096 243.423 163.343 243.791 163.516 244.216C163.698 244.641 163.789 245.104 163.789 245.607C163.789 246.118 163.702 246.591 163.529 247.024C163.356 247.449 163.109 247.817 162.788 248.129C162.467 248.441 162.086 248.684 161.644 248.857C161.202 249.03 160.717 249.117 160.188 249.117C159.668 249.117 159.187 249.03 158.745 248.857C158.312 248.684 157.935 248.441 157.614 248.129C157.302 247.817 157.055 247.449 156.873 247.024C156.7 246.591 156.613 246.118 156.613 245.607ZM157.757 245.607C157.757 245.971 157.813 246.305 157.926 246.608C158.047 246.911 158.216 247.176 158.433 247.401C158.65 247.618 158.905 247.787 159.2 247.908C159.503 248.029 159.833 248.09 160.188 248.09C160.552 248.09 160.886 248.029 161.189 247.908C161.492 247.787 161.748 247.618 161.956 247.401C162.173 247.184 162.342 246.924 162.463 246.621C162.584 246.309 162.645 245.971 162.645 245.607C162.645 245.243 162.58 244.909 162.45 244.606C162.329 244.303 162.16 244.047 161.943 243.839C161.726 243.622 161.466 243.453 161.163 243.332C160.86 243.211 160.535 243.15 160.188 243.15C159.833 243.15 159.508 243.211 159.213 243.332C158.918 243.445 158.663 243.609 158.446 243.826C158.229 244.043 158.06 244.303 157.939 244.606C157.818 244.909 157.757 245.243 157.757 245.607ZM169.142 247.154C169.142 246.885 169.038 246.682 168.83 246.543C168.622 246.396 168.362 246.279 168.05 246.192C167.746 246.097 167.413 246.01 167.049 245.932C166.693 245.845 166.36 245.733 166.048 245.594C165.744 245.447 165.489 245.252 165.281 245.009C165.073 244.766 164.969 244.437 164.969 244.021C164.969 243.735 165.025 243.475 165.138 243.241C165.259 243.007 165.428 242.808 165.645 242.643C165.87 242.478 166.134 242.353 166.438 242.266C166.75 242.171 167.096 242.123 167.478 242.123C168.24 242.123 168.869 242.288 169.363 242.617C169.865 242.938 170.186 243.388 170.325 243.969L169.337 244.333C169.224 243.934 169.003 243.631 168.674 243.423C168.353 243.215 167.946 243.111 167.452 243.111C167.053 243.111 166.728 243.193 166.477 243.358C166.234 243.514 166.113 243.718 166.113 243.969C166.113 244.229 166.217 244.428 166.425 244.567C166.633 244.697 166.888 244.805 167.192 244.892C167.504 244.979 167.837 245.065 168.193 245.152C168.557 245.23 168.89 245.343 169.194 245.49C169.506 245.637 169.766 245.841 169.974 246.101C170.182 246.352 170.286 246.699 170.286 247.141C170.286 247.748 170.052 248.229 169.584 248.584C169.124 248.939 168.5 249.117 167.712 249.117C166.013 249.117 164.973 248.502 164.592 247.271L165.58 246.907C165.909 247.722 166.594 248.129 167.634 248.129C168.128 248.129 168.5 248.047 168.752 247.882C169.012 247.709 169.142 247.466 169.142 247.154ZM175.686 247.154C175.686 246.885 175.582 246.682 175.374 246.543C175.166 246.396 174.906 246.279 174.594 246.192C174.291 246.097 173.957 246.01 173.593 245.932C173.238 245.845 172.904 245.733 172.592 245.594C172.289 245.447 172.033 245.252 171.825 245.009C171.617 244.766 171.513 244.437 171.513 244.021C171.513 243.735 171.57 243.475 171.682 243.241C171.804 243.007 171.973 242.808 172.189 242.643C172.415 242.478 172.679 242.353 172.982 242.266C173.294 242.171 173.641 242.123 174.022 242.123C174.785 242.123 175.413 242.288 175.907 242.617C176.41 242.938 176.731 243.388 176.869 243.969L175.881 244.333C175.769 243.934 175.548 243.631 175.218 243.423C174.898 243.215 174.49 243.111 173.996 243.111C173.598 243.111 173.273 243.193 173.021 243.358C172.779 243.514 172.657 243.718 172.657 243.969C172.657 244.229 172.761 244.428 172.969 244.567C173.177 244.697 173.433 244.805 173.736 244.892C174.048 244.979 174.382 245.065 174.737 245.152C175.101 245.23 175.435 245.343 175.738 245.49C176.05 245.637 176.31 245.841 176.518 246.101C176.726 246.352 176.83 246.699 176.83 247.141C176.83 247.748 176.596 248.229 176.128 248.584C175.669 248.939 175.045 249.117 174.256 249.117C172.558 249.117 171.518 248.502 171.136 247.271L172.124 246.907C172.454 247.722 173.138 248.129 174.178 248.129C174.672 248.129 175.045 248.047 175.296 247.882C175.556 247.709 175.686 247.466 175.686 247.154ZM185.146 249.117C184.531 249.117 184.024 249.017 183.625 248.818C183.235 248.619 182.919 248.337 182.676 247.973V251.6H181.584L181.584 242.24H182.676V243.449C182.902 243.05 183.227 242.73 183.651 242.487C184.085 242.244 184.613 242.123 185.237 242.123C185.697 242.123 186.126 242.205 186.524 242.37C186.923 242.526 187.265 242.751 187.551 243.046C187.846 243.341 188.076 243.705 188.24 244.138C188.414 244.563 188.5 245.039 188.5 245.568C188.5 246.097 188.418 246.578 188.253 247.011C188.089 247.444 187.859 247.817 187.564 248.129C187.27 248.441 186.914 248.684 186.498 248.857C186.091 249.03 185.64 249.117 185.146 249.117ZM185.055 248.09C185.402 248.09 185.714 248.034 185.991 247.921C186.277 247.8 186.52 247.631 186.719 247.414C186.919 247.197 187.075 246.937 187.187 246.634C187.3 246.322 187.356 245.975 187.356 245.594C187.356 245.221 187.296 244.883 187.174 244.58C187.062 244.277 186.901 244.021 186.693 243.813C186.485 243.596 186.238 243.432 185.952 243.319C185.666 243.206 185.354 243.15 185.016 243.15C184.297 243.15 183.725 243.362 183.3 243.787C182.884 244.203 182.676 244.779 182.676 245.516V245.763C182.676 246.153 182.737 246.495 182.858 246.79C182.988 247.085 183.157 247.327 183.365 247.518C183.582 247.709 183.833 247.852 184.119 247.947C184.414 248.042 184.726 248.09 185.055 248.09ZM189.83 242.24H190.922V243.02C191.018 242.743 191.2 242.526 191.468 242.37C191.737 242.205 192.071 242.123 192.469 242.123C192.582 242.123 192.699 242.132 192.82 242.149C192.95 242.158 193.041 242.171 193.093 242.188V243.241C193.007 243.206 192.911 243.185 192.807 243.176C192.703 243.159 192.595 243.15 192.482 243.15C191.971 243.15 191.581 243.28 191.312 243.54C191.052 243.8 190.922 244.168 190.922 244.645L190.922 249H189.83L189.83 242.24ZM193.57 245.607C193.57 245.104 193.657 244.641 193.83 244.216C194.004 243.791 194.246 243.423 194.558 243.111C194.879 242.799 195.256 242.556 195.689 242.383C196.131 242.21 196.621 242.123 197.158 242.123C197.687 242.123 198.168 242.21 198.601 242.383C199.043 242.556 199.42 242.799 199.732 243.111C200.053 243.423 200.3 243.791 200.473 244.216C200.655 244.641 200.746 245.104 200.746 245.607C200.746 246.118 200.66 246.591 200.486 247.024C200.313 247.449 200.066 247.817 199.745 248.129C199.425 248.441 199.043 248.684 198.601 248.857C198.159 249.03 197.674 249.117 197.145 249.117C196.625 249.117 196.144 249.03 195.702 248.857C195.269 248.684 194.892 248.441 194.571 248.129C194.259 247.817 194.012 247.449 193.83 247.024C193.657 246.591 193.57 246.118 193.57 245.607ZM194.714 245.607C194.714 245.971 194.771 246.305 194.883 246.608C195.005 246.911 195.174 247.176 195.39 247.401C195.607 247.618 195.863 247.787 196.157 247.908C196.461 248.029 196.79 248.09 197.145 248.09C197.509 248.09 197.843 248.029 198.146 247.908C198.45 247.787 198.705 247.618 198.913 247.401C199.13 247.184 199.299 246.924 199.42 246.621C199.542 246.309 199.602 245.971 199.602 245.607C199.602 245.243 199.537 244.909 199.407 244.606C199.286 244.303 199.117 244.047 198.9 243.839C198.684 243.622 198.424 243.453 198.12 243.332C197.817 243.211 197.492 243.15 197.145 243.15C196.79 243.15 196.465 243.211 196.17 243.332C195.876 243.445 195.62 243.609 195.403 243.826C195.187 244.043 195.018 244.303 194.896 244.606C194.775 244.909 194.714 245.243 194.714 245.607ZM201.055 242.24H202.303V241.928C202.303 241.451 202.368 241.053 202.498 240.732C202.637 240.403 202.81 240.143 203.018 239.952C203.235 239.753 203.477 239.614 203.746 239.536C204.015 239.449 204.288 239.406 204.565 239.406C204.738 239.406 204.912 239.428 205.085 239.471C205.258 239.506 205.401 239.562 205.514 239.64L205.111 240.576C205.033 240.515 204.951 240.481 204.864 240.472C204.777 240.455 204.695 240.446 204.617 240.446C204.262 240.446 203.967 240.563 203.733 240.797C203.508 241.022 203.395 241.43 203.395 242.019V242.24H205.397V243.28H203.395L203.395 249H202.303L202.303 243.28H201.055V242.24ZM206.294 242.24H207.386V249H206.294V242.24ZM206.151 240.173C206.151 239.991 206.216 239.839 206.346 239.718C206.485 239.597 206.654 239.536 206.853 239.536C207.035 239.536 207.191 239.597 207.321 239.718C207.46 239.839 207.529 239.991 207.529 240.173C207.529 240.372 207.46 240.537 207.321 240.667C207.191 240.788 207.035 240.849 206.853 240.849C206.654 240.849 206.485 240.788 206.346 240.667C206.216 240.537 206.151 240.372 206.151 240.173ZM208.316 242.24H209.46V240.511H210.552V242.24H212.411V243.267H210.552V247.063C210.552 247.444 210.617 247.713 210.747 247.869C210.886 248.016 211.116 248.09 211.436 248.09C211.722 248.09 212.047 248.042 212.411 247.947V248.974C212.238 249.017 212.034 249.052 211.8 249.078C211.575 249.104 211.363 249.117 211.163 249.117C210.548 249.117 210.11 248.957 209.85 248.636C209.59 248.307 209.46 247.748 209.46 246.959V243.267H208.316V242.24ZM217.095 242.24H218.187V243.228C218.386 242.873 218.663 242.6 219.019 242.409C219.374 242.218 219.786 242.123 220.254 242.123C220.73 242.123 221.133 242.223 221.463 242.422C221.801 242.613 222.082 242.899 222.308 243.28C222.55 242.864 222.854 242.569 223.218 242.396C223.582 242.214 223.998 242.123 224.466 242.123C224.821 242.123 225.146 242.166 225.441 242.253C225.744 242.34 226 242.483 226.208 242.682C226.424 242.873 226.593 243.124 226.715 243.436C226.836 243.739 226.897 244.108 226.897 244.541V249H225.805V244.879C225.805 244.636 225.779 244.411 225.727 244.203C225.675 243.986 225.588 243.8 225.467 243.644C225.345 243.488 225.181 243.367 224.973 243.28C224.773 243.193 224.518 243.15 224.206 243.15C223.92 243.15 223.673 243.202 223.465 243.306C223.257 243.401 223.083 243.527 222.945 243.683C222.806 243.839 222.702 244.017 222.633 244.216C222.572 244.415 222.542 244.615 222.542 244.814V249H221.45V244.775C221.45 244.246 221.32 243.843 221.06 243.566C220.8 243.289 220.41 243.15 219.89 243.15C219.396 243.15 218.988 243.306 218.668 243.618C218.347 243.921 218.187 244.363 218.187 244.944V249H217.095V242.24ZM228.253 243.969C228.47 243.371 228.834 242.916 229.345 242.604C229.857 242.283 230.481 242.123 231.217 242.123C233.055 242.123 233.973 243.085 233.973 245.009V249H232.881V247.83C232.795 248.012 232.665 248.181 232.491 248.337C232.327 248.493 232.132 248.632 231.906 248.753C231.69 248.866 231.451 248.952 231.191 249.013C230.931 249.082 230.667 249.117 230.398 249.117C230.043 249.117 229.722 249.069 229.436 248.974C229.15 248.879 228.903 248.744 228.695 248.571C228.487 248.389 228.327 248.177 228.214 247.934C228.102 247.683 228.045 247.405 228.045 247.102C228.045 246.712 228.132 246.383 228.305 246.114C228.487 245.845 228.769 245.629 229.15 245.464C229.54 245.291 230.039 245.165 230.645 245.087C231.261 245.009 232.006 244.97 232.881 244.97C232.881 244.346 232.743 243.887 232.465 243.592C232.197 243.297 231.772 243.15 231.191 243.15C230.169 243.15 229.519 243.544 229.241 244.333L228.253 243.969ZM230.619 248.09C230.949 248.09 231.252 248.042 231.529 247.947C231.807 247.852 232.045 247.717 232.244 247.544C232.444 247.362 232.6 247.15 232.712 246.907C232.825 246.664 232.881 246.4 232.881 246.114V245.867C232.188 245.867 231.603 245.889 231.126 245.932C230.658 245.975 230.281 246.045 229.995 246.14C229.709 246.235 229.501 246.361 229.371 246.517C229.25 246.673 229.189 246.868 229.189 247.102C229.189 247.405 229.315 247.648 229.566 247.83C229.826 248.003 230.177 248.09 230.619 248.09ZM235.643 242.24H236.735V243.02C236.83 242.743 237.012 242.526 237.281 242.37C237.55 242.205 237.883 242.123 238.282 242.123C238.395 242.123 238.512 242.132 238.633 242.149C238.763 242.158 238.854 242.171 238.906 242.188V243.241C238.819 243.206 238.724 243.185 238.62 243.176C238.516 243.159 238.408 243.15 238.295 243.15C237.784 243.15 237.394 243.28 237.125 243.54C236.865 243.8 236.735 244.168 236.735 244.645V249H235.643V242.24ZM242.646 249.117C242.187 249.117 241.758 249.039 241.359 248.883C240.961 248.718 240.614 248.489 240.319 248.194C240.033 247.891 239.804 247.527 239.63 247.102C239.466 246.669 239.383 246.179 239.383 245.633C239.383 245.113 239.47 244.641 239.643 244.216C239.825 243.783 240.072 243.414 240.384 243.111C240.696 242.799 241.06 242.556 241.476 242.383C241.892 242.21 242.334 242.123 242.802 242.123C243.426 242.123 243.933 242.223 244.323 242.422C244.713 242.621 245.008 242.89 245.207 243.228V242.24H246.299V248.48C246.299 249.052 246.221 249.542 246.065 249.949C245.918 250.356 245.706 250.69 245.428 250.95C245.16 251.219 244.839 251.414 244.466 251.535C244.102 251.656 243.708 251.717 243.283 251.717C242.529 251.717 241.884 251.57 241.346 251.275C240.818 250.98 240.458 250.582 240.267 250.079L241.242 249.65C241.372 249.919 241.598 250.157 241.918 250.365C242.239 250.582 242.672 250.69 243.218 250.69C243.877 250.69 244.371 250.512 244.7 250.157C245.038 249.802 245.207 249.308 245.207 248.675V247.752C244.982 248.168 244.67 248.502 244.271 248.753C243.873 248.996 243.331 249.117 242.646 249.117ZM242.867 248.09C243.587 248.09 244.154 247.882 244.57 247.466C244.995 247.041 245.207 246.448 245.207 245.685V245.438C245.207 245.074 245.151 244.753 245.038 244.476C244.926 244.19 244.765 243.952 244.557 243.761C244.358 243.562 244.12 243.41 243.842 243.306C243.565 243.202 243.262 243.15 242.932 243.15C242.603 243.15 242.291 243.211 241.996 243.332C241.71 243.445 241.459 243.609 241.242 243.826C241.026 244.043 240.852 244.303 240.722 244.606C240.592 244.901 240.527 245.234 240.527 245.607C240.527 245.997 240.584 246.344 240.696 246.647C240.818 246.95 240.982 247.21 241.19 247.427C241.398 247.644 241.645 247.808 241.931 247.921C242.217 248.034 242.529 248.09 242.867 248.09ZM247.993 242.24H249.085V249H247.993V242.24ZM247.863 240.29C247.863 240.108 247.924 239.956 248.045 239.835C248.175 239.705 248.34 239.64 248.539 239.64C248.738 239.64 248.899 239.705 249.02 239.835C249.15 239.956 249.215 240.108 249.215 240.29C249.215 240.472 249.15 240.628 249.02 240.758C248.899 240.879 248.738 240.94 248.539 240.94C248.34 240.94 248.175 240.879 248.045 240.758C247.924 240.628 247.863 240.472 247.863 240.29ZM250.77 242.24H251.862V243.28C252.07 242.907 252.361 242.621 252.733 242.422C253.115 242.223 253.557 242.123 254.059 242.123C254.978 242.123 255.68 242.37 256.165 242.864C256.659 243.349 256.906 244.125 256.906 245.191V249H255.814V245.295C255.814 244.558 255.654 244.012 255.333 243.657C255.021 243.302 254.527 243.124 253.851 243.124C253.574 243.124 253.314 243.167 253.071 243.254C252.829 243.341 252.616 243.471 252.434 243.644C252.261 243.809 252.122 244.021 252.018 244.281C251.914 244.532 251.862 244.823 251.862 245.152V249H250.77V242.24Z" fill="#222429"/>
</svg>
