<svg width="536" height="256" viewBox="0 0 536 256" fill="none" xmlns="http://www.w3.org/2000/svg">
<path d="M250.914 248.434C251.068 247.44 251.824 246.264 253.49 246.264C254.666 246.264 255.59 246.768 255.59 248.154C255.59 249.498 254.484 250.744 251.684 252.606L249.556 254.02V255H257.186V253.81H251.768L252.846 253.138C254.526 252.088 256.822 250.45 256.822 248.028C256.822 246.292 255.632 245.074 253.574 245.074C251.376 245.074 250.158 246.446 249.822 248.07L250.914 248.434ZM258.156 250.1C258.156 252.998 259.64 255.126 262.342 255.126C265.198 255.126 266.486 252.998 266.486 250.1C266.486 247.02 265.156 245.074 262.314 245.074C259.486 245.074 258.156 247.202 258.156 250.1ZM259.388 250.1C259.388 247.748 260.312 246.264 262.314 246.264C264.33 246.264 265.254 247.706 265.254 250.1C265.254 252.48 264.358 253.936 262.342 253.936C260.508 253.936 259.388 252.48 259.388 250.1ZM268.722 248.434C268.876 247.44 269.632 246.264 271.298 246.264C272.474 246.264 273.398 246.768 273.398 248.154C273.398 249.498 272.292 250.744 269.492 252.606L267.364 254.02V255H274.994V253.81H269.576L270.654 253.138C272.334 252.088 274.63 250.45 274.63 248.028C274.63 246.292 273.44 245.074 271.382 245.074C269.184 245.074 267.966 246.446 267.63 248.07L268.722 248.434ZM275.964 250.1C275.964 252.998 277.448 255.126 280.15 255.126C283.006 255.126 284.294 252.998 284.294 250.1C284.294 247.02 282.964 245.074 280.122 245.074C277.294 245.074 275.964 247.202 275.964 250.1ZM277.196 250.1C277.196 247.748 278.12 246.264 280.122 246.264C282.138 246.264 283.062 247.706 283.062 250.1C283.062 252.48 282.166 253.936 280.15 253.936C278.316 253.936 277.196 252.48 277.196 250.1Z" fill="#777F8C"/>
<rect x="237" y="93" width="60" height="142" fill="#BFCED4"/>
<rect x="237" y="93" width="60" height="4" fill="#A6B2BC"/>
<path d="M245.602 76.027C245.789 74.82 246.707 73.392 248.73 73.392C250.158 73.392 251.28 74.004 251.28 75.687C251.28 77.319 249.937 78.832 246.537 81.093L243.953 82.81V84H253.218V82.555H246.639L247.948 81.739C249.988 80.464 252.776 78.475 252.776 75.534C252.776 73.426 251.331 71.947 248.832 71.947C246.163 71.947 244.684 73.613 244.276 75.585L245.602 76.027ZM254.685 83.031C254.685 83.558 255.11 84.034 255.739 84.034C256.334 84.034 256.759 83.558 256.759 83.031C256.759 82.572 256.334 82.079 255.739 82.079C255.11 82.079 254.685 82.572 254.685 83.031ZM263.537 84.153C266.172 84.153 268.246 82.487 268.246 80.022C268.246 77.659 266.546 76.044 263.758 76.044C262.092 76.044 260.426 76.826 259.797 78.322C259.797 78.254 259.797 78.203 259.797 78.135C259.848 75.228 261.31 73.392 263.554 73.392C264.999 73.392 266.019 74.038 266.682 75.058L267.838 74.276C267.175 72.848 265.662 71.947 263.622 71.947C260.766 71.947 258.335 74.089 258.335 78.373C258.335 82.113 260.358 84.153 263.537 84.153ZM263.52 82.708C261.565 82.708 260.358 81.45 260.358 79.971C260.358 78.526 261.514 77.489 263.673 77.489C265.458 77.489 266.75 78.373 266.75 80.09C266.75 81.654 265.407 82.708 263.52 82.708ZM268.96 73.987L269.504 75.262L272.581 73.851V84H274.009V72.032H273.04L268.96 73.987ZM278.183 83.609L279.305 84.255L288.043 72.508L286.972 71.726L278.183 83.609ZM276.347 74.956C276.347 76.656 277.69 77.846 279.458 77.846C281.209 77.846 282.552 76.656 282.552 74.956C282.552 73.239 281.209 72.049 279.458 72.049C277.69 72.049 276.347 73.239 276.347 74.956ZM277.775 74.956C277.775 73.936 278.557 73.273 279.458 73.273C280.342 73.273 281.124 73.936 281.124 74.956C281.124 75.976 280.342 76.639 279.458 76.639C278.591 76.639 277.775 75.976 277.775 74.956ZM283.64 81.161C283.64 82.861 284.983 84.068 286.751 84.068C288.502 84.068 289.845 82.861 289.845 81.161C289.845 79.461 288.502 78.271 286.751 78.271C284.983 78.271 283.64 79.461 283.64 81.161ZM285.068 81.161C285.068 80.141 285.85 79.478 286.751 79.478C287.635 79.478 288.417 80.141 288.417 81.161C288.417 82.181 287.635 82.844 286.751 82.844C285.884 82.844 285.068 82.181 285.068 81.161Z" fill="#222429"/>
<path d="M352.91 248.434C353.064 247.44 353.82 246.264 355.486 246.264C356.662 246.264 357.586 246.768 357.586 248.154C357.586 249.498 356.48 250.744 353.68 252.606L351.552 254.02V255H359.182V253.81H353.764L354.842 253.138C356.522 252.088 358.818 250.45 358.818 248.028C358.818 246.292 357.628 245.074 355.57 245.074C353.372 245.074 352.154 246.446 351.818 248.07L352.91 248.434ZM360.152 250.1C360.152 252.998 361.636 255.126 364.338 255.126C367.194 255.126 368.482 252.998 368.482 250.1C368.482 247.02 367.152 245.074 364.31 245.074C361.482 245.074 360.152 247.202 360.152 250.1ZM361.384 250.1C361.384 247.748 362.308 246.264 364.31 246.264C366.326 246.264 367.25 247.706 367.25 250.1C367.25 252.48 366.354 253.936 364.338 253.936C362.504 253.936 361.384 252.48 361.384 250.1ZM370.718 248.434C370.872 247.44 371.628 246.264 373.294 246.264C374.47 246.264 375.394 246.768 375.394 248.154C375.394 249.498 374.288 250.744 371.488 252.606L369.36 254.02V255H376.99V253.81H371.572L372.65 253.138C374.33 252.088 376.626 250.45 376.626 248.028C376.626 246.292 375.436 245.074 373.378 245.074C371.18 245.074 369.962 246.446 369.626 248.07L370.718 248.434ZM377.4 246.754L377.848 247.804L380.382 246.642V255H381.558V245.144H380.76L377.4 246.754Z" fill="#777F8C"/>
<rect x="337" y="88" width="60" height="147" fill="#BFCED4"/>
<rect x="337" y="88" width="60" height="4" fill="#A6B2BC"/>
<path d="M343.286 71.027C343.473 69.82 344.391 68.392 346.414 68.392C347.842 68.392 348.964 69.004 348.964 70.687C348.964 72.319 347.621 73.832 344.221 76.093L341.637 77.81V79H350.902V77.555H344.323L345.632 76.739C347.672 75.464 350.46 73.475 350.46 70.534C350.46 68.426 349.015 66.947 346.516 66.947C343.847 66.947 342.368 68.613 341.96 70.585L343.286 71.027ZM352.369 78.031C352.369 78.558 352.794 79.034 353.423 79.034C354.018 79.034 354.443 78.558 354.443 78.031C354.443 77.572 354.018 77.079 353.423 77.079C352.794 77.079 352.369 77.572 352.369 78.031ZM361.221 79.153C363.856 79.153 365.93 77.487 365.93 75.022C365.93 72.659 364.23 71.044 361.442 71.044C359.776 71.044 358.11 71.826 357.481 73.322C357.481 73.254 357.481 73.203 357.481 73.135C357.532 70.228 358.994 68.392 361.238 68.392C362.683 68.392 363.703 69.038 364.366 70.058L365.522 69.276C364.859 67.848 363.346 66.947 361.306 66.947C358.45 66.947 356.019 69.089 356.019 73.373C356.019 77.113 358.042 79.153 361.221 79.153ZM361.204 77.708C359.249 77.708 358.042 76.45 358.042 74.971C358.042 73.526 359.198 72.489 361.357 72.489C363.142 72.489 364.434 73.373 364.434 75.09C364.434 76.654 363.091 77.708 361.204 77.708ZM372.016 72.217C370.367 72.217 369.228 71.384 369.228 70.279C369.228 69.089 370.248 68.392 372.237 68.392C374.294 68.392 375.297 69.072 375.297 70.279C375.297 71.418 374.09 72.217 372.543 72.217H372.016ZM372.509 73.56C374.413 73.56 375.671 74.325 375.671 75.651C375.671 76.909 374.566 77.708 372.254 77.708C369.993 77.708 368.837 76.858 368.837 75.634C368.837 74.478 370.163 73.56 372.084 73.56H372.509ZM372.271 79.153C375.28 79.153 377.167 77.895 377.167 75.719C377.167 74.274 376.521 73.254 374.906 72.761C376.079 72.217 376.793 71.384 376.793 70.177C376.793 68.222 375.178 66.947 372.254 66.947C369.347 66.947 367.732 68.222 367.732 70.177C367.732 71.299 368.31 72.387 369.687 72.846C368.276 73.305 367.341 74.393 367.341 75.787C367.341 77.895 369.245 79.153 372.271 79.153ZM380.499 78.609L381.621 79.255L390.359 67.508L389.288 66.726L380.499 78.609ZM378.663 69.956C378.663 71.656 380.006 72.846 381.774 72.846C383.525 72.846 384.868 71.656 384.868 69.956C384.868 68.239 383.525 67.049 381.774 67.049C380.006 67.049 378.663 68.239 378.663 69.956ZM380.091 69.956C380.091 68.936 380.873 68.273 381.774 68.273C382.658 68.273 383.44 68.936 383.44 69.956C383.44 70.976 382.658 71.639 381.774 71.639C380.907 71.639 380.091 70.976 380.091 69.956ZM385.956 76.161C385.956 77.861 387.299 79.068 389.067 79.068C390.818 79.068 392.161 77.861 392.161 76.161C392.161 74.461 390.818 73.271 389.067 73.271C387.299 73.271 385.956 74.461 385.956 76.161ZM387.384 76.161C387.384 75.141 388.166 74.478 389.067 74.478C389.951 74.478 390.733 75.141 390.733 76.161C390.733 77.181 389.951 77.844 389.067 77.844C388.2 77.844 387.384 77.181 387.384 76.161Z" fill="#222429"/>
<path d="M451.386 248.434C451.54 247.44 452.296 246.264 453.962 246.264C455.138 246.264 456.062 246.768 456.062 248.154C456.062 249.498 454.956 250.744 452.156 252.606L450.028 254.02V255H457.658V253.81H452.24L453.318 253.138C454.998 252.088 457.294 250.45 457.294 248.028C457.294 246.292 456.104 245.074 454.046 245.074C451.848 245.074 450.63 246.446 450.294 248.07L451.386 248.434ZM458.628 250.1C458.628 252.998 460.112 255.126 462.814 255.126C465.67 255.126 466.958 252.998 466.958 250.1C466.958 247.02 465.628 245.074 462.786 245.074C459.958 245.074 458.628 247.202 458.628 250.1ZM459.86 250.1C459.86 247.748 460.784 246.264 462.786 246.264C464.802 246.264 465.726 247.706 465.726 250.1C465.726 252.48 464.83 253.936 462.814 253.936C460.98 253.936 459.86 252.48 459.86 250.1ZM469.194 248.434C469.348 247.44 470.104 246.264 471.77 246.264C472.946 246.264 473.87 246.768 473.87 248.154C473.87 249.498 472.764 250.744 469.964 252.606L467.836 254.02V255H475.466V253.81H470.048L471.126 253.138C472.806 252.088 475.102 250.45 475.102 248.028C475.102 246.292 473.912 245.074 471.854 245.074C469.656 245.074 468.438 246.446 468.102 248.07L469.194 248.434ZM477.626 248.434C477.78 247.44 478.536 246.264 480.202 246.264C481.378 246.264 482.302 246.768 482.302 248.154C482.302 249.498 481.196 250.744 478.396 252.606L476.268 254.02V255H483.898V253.81H478.48L479.558 253.138C481.238 252.088 483.534 250.45 483.534 248.028C483.534 246.292 482.344 245.074 480.286 245.074C478.088 245.074 476.87 246.446 476.534 248.07L477.626 248.434Z" fill="#777F8C"/>
<rect x="437" y="98" width="60" height="137" fill="#5FAF2D"/>
<rect x="437" y="98" width="60" height="4" fill="#3D7917"/>
<path d="M445.909 81.027C446.096 79.82 447.014 78.392 449.037 78.392C450.465 78.392 451.587 79.004 451.587 80.687C451.587 82.319 450.244 83.832 446.844 86.093L444.26 87.81V89H453.525V87.555H446.946L448.255 86.739C450.295 85.464 453.083 83.475 453.083 80.534C453.083 78.426 451.638 76.947 449.139 76.947C446.47 76.947 444.991 78.613 444.583 80.585L445.909 81.027ZM454.992 88.031C454.992 88.558 455.417 89.034 456.046 89.034C456.641 89.034 457.066 88.558 457.066 88.031C457.066 87.572 456.641 87.079 456.046 87.079C455.417 87.079 454.992 87.572 454.992 88.031ZM459.152 83.203L460.376 83.526C461.073 82.829 461.821 82.506 463.011 82.506C465.102 82.506 466.377 83.509 466.377 85.107C466.377 86.501 465.374 87.708 463.266 87.708C461.43 87.708 460.24 86.705 459.781 85.668L458.421 86.246C459.186 88.133 461.107 89.153 463.266 89.153C465.901 89.153 467.873 87.436 467.873 85.056C467.873 82.812 466.275 81.061 463.419 81.061C462.144 81.061 461.226 81.367 460.716 81.741L461.158 78.545H467.329V77.1H459.849L459.152 83.203ZM468.653 78.987L469.197 80.262L472.274 78.851V89H473.702V77.032H472.733L468.653 78.987ZM477.876 88.609L478.998 89.255L487.736 77.508L486.665 76.726L477.876 88.609ZM476.04 79.956C476.04 81.656 477.383 82.846 479.151 82.846C480.902 82.846 482.245 81.656 482.245 79.956C482.245 78.239 480.902 77.049 479.151 77.049C477.383 77.049 476.04 78.239 476.04 79.956ZM477.468 79.956C477.468 78.936 478.25 78.273 479.151 78.273C480.035 78.273 480.817 78.936 480.817 79.956C480.817 80.976 480.035 81.639 479.151 81.639C478.284 81.639 477.468 80.976 477.468 79.956ZM483.333 86.161C483.333 87.861 484.676 89.068 486.444 89.068C488.195 89.068 489.538 87.861 489.538 86.161C489.538 84.461 488.195 83.271 486.444 83.271C484.676 83.271 483.333 84.461 483.333 86.161ZM484.761 86.161C484.761 85.141 485.543 84.478 486.444 84.478C487.328 84.478 488.11 85.141 488.11 86.161C488.11 87.181 487.328 87.844 486.444 87.844C485.577 87.844 484.761 87.181 484.761 86.161Z" fill="#222429"/>
<rect y="235" width="536" height="1" fill="#9299A3"/>
<path d="M52.5274 248.434C52.6814 247.44 53.4374 246.264 55.1034 246.264C56.2794 246.264 57.2034 246.768 57.2034 248.154C57.2034 249.498 56.0974 250.744 53.2974 252.606L51.1694 254.02V255H58.7994V253.81H53.3814L54.4594 253.138C56.1394 252.088 58.4354 250.45 58.4354 248.028C58.4354 246.292 57.2454 245.074 55.1874 245.074C52.9894 245.074 51.7714 246.446 51.4354 248.07L52.5274 248.434ZM59.7697 250.1C59.7697 252.998 61.2537 255.126 63.9557 255.126C66.8117 255.126 68.0997 252.998 68.0997 250.1C68.0997 247.02 66.7697 245.074 63.9277 245.074C61.0997 245.074 59.7697 247.202 59.7697 250.1ZM61.0017 250.1C61.0017 247.748 61.9257 246.264 63.9277 246.264C65.9437 246.264 66.8677 247.706 66.8677 250.1C66.8677 252.48 65.9717 253.936 63.9557 253.936C62.1217 253.936 61.0017 252.48 61.0017 250.1ZM68.5853 246.754L69.0333 247.804L71.5673 246.642V255H72.7433V245.144H71.9453L68.5853 246.754ZM78.3927 249.414C77.0347 249.414 76.0967 248.728 76.0967 247.818C76.0967 246.838 76.9367 246.264 78.5747 246.264C80.2687 246.264 81.0947 246.824 81.0947 247.818C81.0947 248.756 80.1007 249.414 78.8267 249.414H78.3927ZM78.7987 250.52C80.3667 250.52 81.4027 251.15 81.4027 252.242C81.4027 253.278 80.4927 253.936 78.5887 253.936C76.7267 253.936 75.7747 253.236 75.7747 252.228C75.7747 251.276 76.8667 250.52 78.4487 250.52H78.7987ZM78.6027 255.126C81.0807 255.126 82.6347 254.09 82.6347 252.298C82.6347 251.108 82.1027 250.268 80.7727 249.862C81.7387 249.414 82.3267 248.728 82.3267 247.734C82.3267 246.124 80.9967 245.074 78.5887 245.074C76.1947 245.074 74.8647 246.124 74.8647 247.734C74.8647 248.658 75.3407 249.554 76.4747 249.932C75.3127 250.31 74.5427 251.206 74.5427 252.354C74.5427 254.09 76.1107 255.126 78.6027 255.126Z" fill="#777F8C"/>
<rect x="37" y="79" width="60" height="156" fill="#BFCED4"/>
<rect x="37" y="79" width="60" height="4" fill="#A6B2BC"/>
<path d="M43.2859 62.027C43.4729 60.82 44.3909 59.392 46.4139 59.392C47.8419 59.392 48.9639 60.004 48.9639 61.687C48.9639 63.319 47.6209 64.832 44.2209 67.093L41.6369 68.81V70H50.9019V68.555H44.3229L45.6319 67.739C47.6719 66.464 50.4599 64.475 50.4599 61.534C50.4599 59.426 49.0149 57.947 46.5159 57.947C43.8469 57.947 42.3679 59.613 41.9599 61.585L43.2859 62.027ZM52.369 69.031C52.369 69.558 52.794 70.034 53.423 70.034C54.018 70.034 54.443 69.558 54.443 69.031C54.443 68.572 54.018 68.079 53.423 68.079C52.794 68.079 52.369 68.572 52.369 69.031ZM60.7106 63.217C59.0616 63.217 57.9226 62.384 57.9226 61.279C57.9226 60.089 58.9426 59.392 60.9316 59.392C62.9886 59.392 63.9916 60.072 63.9916 61.279C63.9916 62.418 62.7846 63.217 61.2376 63.217H60.7106ZM61.2036 64.56C63.1076 64.56 64.3656 65.325 64.3656 66.651C64.3656 67.909 63.2606 68.708 60.9486 68.708C58.6876 68.708 57.5316 67.858 57.5316 66.634C57.5316 65.478 58.8576 64.56 60.7786 64.56H61.2036ZM60.9656 70.153C63.9746 70.153 65.8616 68.895 65.8616 66.719C65.8616 65.274 65.2156 64.254 63.6006 63.761C64.7736 63.217 65.4876 62.384 65.4876 61.177C65.4876 59.222 63.8726 57.947 60.9486 57.947C58.0416 57.947 56.4266 59.222 56.4266 61.177C56.4266 62.299 57.0046 63.387 58.3816 63.846C56.9706 64.305 56.0356 65.393 56.0356 66.787C56.0356 68.895 57.9396 70.153 60.9656 70.153ZM72.5595 70.153C75.1945 70.153 77.2685 68.487 77.2685 66.022C77.2685 63.659 75.5685 62.044 72.7805 62.044C71.1145 62.044 69.4485 62.826 68.8195 64.322C68.8195 64.254 68.8195 64.203 68.8195 64.135C68.8705 61.228 70.3325 59.392 72.5765 59.392C74.0215 59.392 75.0415 60.038 75.7045 61.058L76.8605 60.276C76.1975 58.848 74.6845 57.947 72.6445 57.947C69.7885 57.947 67.3575 60.089 67.3575 64.373C67.3575 68.113 69.3805 70.153 72.5595 70.153ZM72.5425 68.708C70.5875 68.708 69.3805 67.45 69.3805 65.971C69.3805 64.526 70.5365 63.489 72.6955 63.489C74.4805 63.489 75.7725 64.373 75.7725 66.09C75.7725 67.654 74.4295 68.708 72.5425 68.708ZM80.4991 69.609L81.6211 70.255L90.3591 58.508L89.2881 57.726L80.4991 69.609ZM78.6631 60.956C78.6631 62.656 80.0061 63.846 81.7741 63.846C83.5251 63.846 84.8681 62.656 84.8681 60.956C84.8681 59.239 83.5251 58.049 81.7741 58.049C80.0061 58.049 78.6631 59.239 78.6631 60.956ZM80.0911 60.956C80.0911 59.936 80.8731 59.273 81.7741 59.273C82.6581 59.273 83.4401 59.936 83.4401 60.956C83.4401 61.976 82.6581 62.639 81.7741 62.639C80.9071 62.639 80.0911 61.976 80.0911 60.956ZM85.9561 67.161C85.9561 68.861 87.2991 70.068 89.0671 70.068C90.8181 70.068 92.1611 68.861 92.1611 67.161C92.1611 65.461 90.8181 64.271 89.0671 64.271C87.2991 64.271 85.9561 65.461 85.9561 67.161ZM87.3841 67.161C87.3841 66.141 88.1661 65.478 89.0671 65.478C89.9511 65.478 90.7331 66.141 90.7331 67.161C90.7331 68.181 89.9511 68.844 89.0671 68.844C88.2001 68.844 87.3841 68.181 87.3841 67.161Z" fill="#222429"/>
<path d="M152.527 248.434C152.681 247.44 153.437 246.264 155.103 246.264C156.279 246.264 157.203 246.768 157.203 248.154C157.203 249.498 156.097 250.744 153.297 252.606L151.169 254.02V255H158.799V253.81H153.381L154.459 253.138C156.139 252.088 158.435 250.45 158.435 248.028C158.435 246.292 157.245 245.074 155.187 245.074C152.989 245.074 151.771 246.446 151.435 248.07L152.527 248.434ZM159.77 250.1C159.77 252.998 161.254 255.126 163.956 255.126C166.812 255.126 168.1 252.998 168.1 250.1C168.1 247.02 166.77 245.074 163.928 245.074C161.1 245.074 159.77 247.202 159.77 250.1ZM161.002 250.1C161.002 247.748 161.926 246.264 163.928 246.264C165.944 246.264 166.868 247.706 166.868 250.1C166.868 252.48 165.972 253.936 163.956 253.936C162.122 253.936 161.002 252.48 161.002 250.1ZM168.585 246.754L169.033 247.804L171.567 246.642V255H172.743V245.144H171.945L168.585 246.754ZM178.295 255.126C180.913 255.126 182.677 253.334 182.677 249.918C182.677 246.782 181.137 245.074 178.631 245.074C176.167 245.074 174.487 246.46 174.487 248.644C174.487 250.646 176.069 252.004 178.239 252.004C179.877 252.004 180.969 251.22 181.417 250.156C181.431 250.268 181.431 250.38 181.431 250.492C181.431 252.48 180.171 253.936 178.463 253.936C177.357 253.936 176.349 253.488 175.775 252.69L174.767 253.39C175.355 254.384 176.615 255.126 178.295 255.126ZM178.463 250.814C176.797 250.814 175.719 249.96 175.719 248.546C175.719 247.062 176.769 246.264 178.491 246.264C180.395 246.264 181.095 247.412 181.095 248.602C181.095 249.848 180.087 250.814 178.463 250.814Z" fill="#777F8C"/>
<rect x="137" y="89" width="60" height="146" fill="#BFCED4"/>
<rect x="137" y="89" width="60" height="4" fill="#A6B2BC"/>
<path d="M144.099 72.027C144.286 70.82 145.204 69.392 147.227 69.392C148.655 69.392 149.777 70.004 149.777 71.687C149.777 73.319 148.434 74.832 145.034 77.093L142.45 78.81V80H151.715V78.555H145.136L146.445 77.739C148.485 76.464 151.273 74.475 151.273 71.534C151.273 69.426 149.828 67.947 147.329 67.947C144.66 67.947 143.181 69.613 142.773 71.585L144.099 72.027ZM153.183 79.031C153.183 79.558 153.608 80.034 154.237 80.034C154.832 80.034 155.257 79.558 155.257 79.031C155.257 78.572 154.832 78.079 154.237 78.079C153.608 78.079 153.183 78.572 153.183 79.031ZM162.034 80.153C164.669 80.153 166.743 78.487 166.743 76.022C166.743 73.659 165.043 72.044 162.255 72.044C160.589 72.044 158.923 72.826 158.294 74.322C158.294 74.254 158.294 74.203 158.294 74.135C158.345 71.228 159.807 69.392 162.051 69.392C163.496 69.392 164.516 70.038 165.179 71.058L166.335 70.276C165.672 68.848 164.159 67.947 162.119 67.947C159.263 67.947 156.832 70.089 156.832 74.373C156.832 78.113 158.855 80.153 162.034 80.153ZM162.017 78.708C160.062 78.708 158.855 77.45 158.855 75.971C158.855 74.526 160.011 73.489 162.17 73.489C163.955 73.489 165.247 74.373 165.247 76.09C165.247 77.654 163.904 78.708 162.017 78.708ZM167.747 69.545H174.955L169.243 80H170.858L176.774 69.069V68.1H167.747V69.545ZM179.686 79.609L180.808 80.255L189.546 68.508L188.475 67.726L179.686 79.609ZM177.85 70.956C177.85 72.656 179.193 73.846 180.961 73.846C182.712 73.846 184.055 72.656 184.055 70.956C184.055 69.239 182.712 68.049 180.961 68.049C179.193 68.049 177.85 69.239 177.85 70.956ZM179.278 70.956C179.278 69.936 180.06 69.273 180.961 69.273C181.845 69.273 182.627 69.936 182.627 70.956C182.627 71.976 181.845 72.639 180.961 72.639C180.094 72.639 179.278 71.976 179.278 70.956ZM185.143 77.161C185.143 78.861 186.486 80.068 188.254 80.068C190.005 80.068 191.348 78.861 191.348 77.161C191.348 75.461 190.005 74.271 188.254 74.271C186.486 74.271 185.143 75.461 185.143 77.161ZM186.571 77.161C186.571 76.141 187.353 75.478 188.254 75.478C189.138 75.478 189.92 76.141 189.92 77.161C189.92 78.181 189.138 78.844 188.254 78.844C187.387 78.844 186.571 78.181 186.571 77.161Z" fill="#222429"/>
<path d="M67 45.3614V17C67 15.8954 67.8954 15 69 15H467C468.105 15 469 15.8954 469 17V68" stroke="#B4BBC5"/>
<path fill-rule="evenodd" clip-rule="evenodd" d="M464 63L469 72L474 63H464Z" fill="#B4BBC5"/>
<rect x="226.5" y="0.5" width="71" height="29" rx="14.5" fill="white" stroke="#B4BBC5"/>
<path d="M239.906 15.492H246.402V14.442H239.906V15.492ZM246.95 11.754L247.398 12.804L249.932 11.642V20H251.108V10.144H250.31L246.95 11.754ZM253.944 13.434C254.098 12.44 254.854 11.264 256.52 11.264C257.696 11.264 258.62 11.768 258.62 13.154C258.62 14.498 257.514 15.744 254.714 17.606L252.586 19.02V20H260.216V18.81H254.798L255.876 18.138C257.556 17.088 259.852 15.45 259.852 13.028C259.852 11.292 258.662 10.074 256.604 10.074C254.406 10.074 253.188 11.446 252.852 13.07L253.944 13.434ZM261.144 19.202C261.144 19.636 261.494 20.028 262.012 20.028C262.502 20.028 262.852 19.636 262.852 19.202C262.852 18.824 262.502 18.418 262.012 18.418C261.494 18.418 261.144 18.824 261.144 19.202ZM265.06 13.434C265.214 12.44 265.969 11.264 267.636 11.264C268.812 11.264 269.736 11.768 269.736 13.154C269.736 14.498 268.63 15.744 265.83 17.606L263.701 19.02V20H271.332V18.81H265.914L266.991 18.138C268.672 17.088 270.968 15.45 270.968 13.028C270.968 11.292 269.778 10.074 267.72 10.074C265.522 10.074 264.303 11.446 263.967 13.07L265.06 13.434ZM273.674 19.678L274.598 20.21L281.794 10.536L280.912 9.892L273.674 19.678ZM272.162 12.552C272.162 13.952 273.268 14.932 274.724 14.932C276.166 14.932 277.272 13.952 277.272 12.552C277.272 11.138 276.166 10.158 274.724 10.158C273.268 10.158 272.162 11.138 272.162 12.552ZM273.338 12.552C273.338 11.712 273.982 11.166 274.724 11.166C275.452 11.166 276.096 11.712 276.096 12.552C276.096 13.392 275.452 13.938 274.724 13.938C274.01 13.938 273.338 13.392 273.338 12.552ZM278.168 17.662C278.168 19.062 279.274 20.056 280.73 20.056C282.172 20.056 283.278 19.062 283.278 17.662C283.278 16.262 282.172 15.282 280.73 15.282C279.274 15.282 278.168 16.262 278.168 17.662ZM279.344 17.662C279.344 16.822 279.988 16.276 280.73 16.276C281.458 16.276 282.102 16.822 282.102 17.662C282.102 18.502 281.458 19.048 280.73 19.048C280.016 19.048 279.344 18.502 279.344 17.662Z" fill="#50565E"/>
</svg>
