<svg width="536" height="274" viewBox="0 0 536 274" fill="none" xmlns="http://www.w3.org/2000/svg">
<path d="M62 51V17C62 15.8954 62.8954 15 64 15H462C463.105 15 464 15.8954 464 17V46" stroke="#B4BBC5"/>
<path fill-rule="evenodd" clip-rule="evenodd" d="M459 43L464 52L469 43H459Z" fill="#B4BBC5"/>
<rect x="191.5" y="0.5" width="71" height="29" rx="14.5" fill="#E1E6E6" stroke="#B4BBC5"/>
<path d="M206.985 14.492V13.428H209.631V10.768H210.737V13.428H213.411V14.492H210.737V17.18H209.631V14.492H206.985ZM215.087 14.226L215.661 9.2H221.821V10.39H216.739L216.375 13.022C216.795 12.714 217.551 12.462 218.601 12.462C220.953 12.462 222.269 13.904 222.269 15.752C222.269 17.712 220.645 19.126 218.475 19.126C216.697 19.126 215.115 18.286 214.485 16.732L215.605 16.256C215.983 17.11 216.963 17.936 218.475 17.936C220.211 17.936 221.037 16.942 221.037 15.794C221.037 14.478 219.987 13.652 218.265 13.652C217.285 13.652 216.669 13.918 216.095 14.492L215.087 14.226ZM223.29 18.202C223.29 17.824 223.64 17.418 224.158 17.418C224.648 17.418 224.998 17.824 224.998 18.202C224.998 18.636 224.648 19.028 224.158 19.028C223.64 19.028 223.29 18.636 223.29 18.202ZM226.015 14.1C226.015 11.202 227.345 9.074 230.173 9.074C233.015 9.074 234.345 11.02 234.345 14.1C234.345 16.998 233.057 19.126 230.201 19.126C227.499 19.126 226.015 16.998 226.015 14.1ZM227.247 14.1C227.247 16.48 228.367 17.936 230.201 17.936C232.217 17.936 233.113 16.48 233.113 14.1C233.113 11.706 232.189 10.264 230.173 10.264C228.171 10.264 227.247 11.748 227.247 14.1ZM236.763 18.678L244.001 8.892L244.883 9.536L237.687 19.21L236.763 18.678ZM235.251 11.552C235.251 10.138 236.357 9.158 237.813 9.158C239.255 9.158 240.361 10.138 240.361 11.552C240.361 12.952 239.255 13.932 237.813 13.932C236.357 13.932 235.251 12.952 235.251 11.552ZM236.427 11.552C236.427 12.392 237.099 12.938 237.813 12.938C238.541 12.938 239.185 12.392 239.185 11.552C239.185 10.712 238.541 10.166 237.813 10.166C237.071 10.166 236.427 10.712 236.427 11.552ZM241.257 16.662C241.257 15.262 242.363 14.282 243.819 14.282C245.261 14.282 246.367 15.262 246.367 16.662C246.367 18.062 245.261 19.056 243.819 19.056C242.363 19.056 241.257 18.062 241.257 16.662ZM242.433 16.662C242.433 17.502 243.105 18.048 243.819 18.048C244.547 18.048 245.191 17.502 245.191 16.662C245.191 15.822 244.547 15.276 243.819 15.276C243.077 15.276 242.433 15.822 242.433 16.662Z" fill="#50565E"/>
<rect x="274.5" y="0.5" width="71" height="29" rx="14.5" fill="#CFE7C0" stroke="#5FAF2D"/>
<path d="M290.156 14.492V13.428H292.802V10.768H293.908V13.428H296.582V14.492H293.908V17.18H292.802V14.492H290.156ZM299.028 12.434L297.936 12.07C298.272 10.446 299.49 9.074 301.688 9.074C303.746 9.074 304.936 10.292 304.936 12.028C304.936 14.45 302.64 16.088 300.96 17.138L299.882 17.81H305.3V19H297.67V18.02L299.798 16.606C302.598 14.744 303.704 13.498 303.704 12.154C303.704 10.768 302.78 10.264 301.604 10.264C299.938 10.264 299.182 11.44 299.028 12.434ZM306.228 18.202C306.228 17.824 306.578 17.418 307.096 17.418C307.586 17.418 307.936 17.824 307.936 18.202C307.936 18.636 307.586 19.028 307.096 19.028C306.578 19.028 306.228 18.636 306.228 18.202ZM314.54 19V17.04H308.506V16.144L314.68 9.2H315.716V15.85H317.536V17.04H315.716V19H314.54ZM310.186 15.85H314.54V11.16L310.186 15.85ZM319.592 18.678L326.83 8.892L327.712 9.536L320.516 19.21L319.592 18.678ZM318.08 11.552C318.08 10.138 319.186 9.158 320.642 9.158C322.084 9.158 323.19 10.138 323.19 11.552C323.19 12.952 322.084 13.932 320.642 13.932C319.186 13.932 318.08 12.952 318.08 11.552ZM319.256 11.552C319.256 12.392 319.928 12.938 320.642 12.938C321.37 12.938 322.014 12.392 322.014 11.552C322.014 10.712 321.37 10.166 320.642 10.166C319.9 10.166 319.256 10.712 319.256 11.552ZM324.086 16.662C324.086 15.262 325.192 14.282 326.648 14.282C328.09 14.282 329.196 15.262 329.196 16.662C329.196 18.062 328.09 19.056 326.648 19.056C325.192 19.056 324.086 18.062 324.086 16.662ZM325.262 16.662C325.262 17.502 325.934 18.048 326.648 18.048C327.376 18.048 328.02 17.502 328.02 16.662C328.02 15.822 327.376 15.276 326.648 15.276C325.906 15.276 325.262 15.822 325.262 16.662Z" fill="#50565E"/>
<rect y="253" width="536" height="1" fill="#9299A3"/>
<path d="M51.2628 266.434C51.4168 265.44 52.1728 264.264 53.8388 264.264C55.0148 264.264 55.9388 264.768 55.9388 266.154C55.9388 267.498 54.8328 268.744 52.0328 270.606L49.9048 272.02V273H57.5348V271.81H52.1168L53.1948 271.138C54.8748 270.088 57.1708 268.45 57.1708 266.028C57.1708 264.292 55.9808 263.074 53.9228 263.074C51.7248 263.074 50.5068 264.446 50.1708 266.07L51.2628 266.434ZM58.505 268.1C58.505 270.998 59.989 273.126 62.691 273.126C65.547 273.126 66.835 270.998 66.835 268.1C66.835 265.02 65.505 263.074 62.663 263.074C59.835 263.074 58.505 265.202 58.505 268.1ZM59.737 268.1C59.737 265.748 60.661 264.264 62.663 264.264C64.679 264.264 65.603 265.706 65.603 268.1C65.603 270.48 64.707 271.936 62.691 271.936C60.857 271.936 59.737 270.48 59.737 268.1ZM67.3207 264.754L67.7687 265.804L70.3027 264.642V273H71.4787V263.144H70.6807L67.3207 264.754ZM77.1281 267.414C75.7701 267.414 74.8321 266.728 74.8321 265.818C74.8321 264.838 75.6721 264.264 77.3101 264.264C79.0041 264.264 79.8301 264.824 79.8301 265.818C79.8301 266.756 78.8361 267.414 77.5621 267.414H77.1281ZM77.5341 268.52C79.1021 268.52 80.1381 269.15 80.1381 270.242C80.1381 271.278 79.2281 271.936 77.3241 271.936C75.4621 271.936 74.5101 271.236 74.5101 270.228C74.5101 269.276 75.6021 268.52 77.1841 268.52H77.5341ZM77.3381 273.126C79.8161 273.126 81.3701 272.09 81.3701 270.298C81.3701 269.108 80.8381 268.268 79.5081 267.862C80.4741 267.414 81.0621 266.728 81.0621 265.734C81.0621 264.124 79.7321 263.074 77.3241 263.074C74.9301 263.074 73.6001 264.124 73.6001 265.734C73.6001 266.658 74.0761 267.554 75.2101 267.932C74.0481 268.31 73.2781 269.206 73.2781 270.354C73.2781 272.09 74.8461 273.126 77.3381 273.126Z" fill="#777F8C"/>
<rect x="29" y="133" width="30" height="120" fill="#BFCED4"/>
<rect x="29" y="133" width="30" height="4" fill="#A6B2BC"/>
<path d="M36.6185 124.153C39.2535 124.153 41.3275 122.487 41.3275 120.022C41.3275 117.659 39.6275 116.044 36.8395 116.044C35.1735 116.044 33.5075 116.826 32.8785 118.322C32.8785 118.254 32.8785 118.203 32.8785 118.135C32.9295 115.228 34.3915 113.392 36.6355 113.392C38.0805 113.392 39.1005 114.038 39.7635 115.058L40.9195 114.276C40.2565 112.848 38.7435 111.947 36.7035 111.947C33.8475 111.947 31.4165 114.089 31.4165 118.373C31.4165 122.113 33.4395 124.153 36.6185 124.153ZM36.6015 122.708C34.6465 122.708 33.4395 121.45 33.4395 119.971C33.4395 118.526 34.5955 117.489 36.7545 117.489C38.5395 117.489 39.8315 118.373 39.8315 120.09C39.8315 121.654 38.4885 122.708 36.6015 122.708ZM42.8412 123.031C42.8412 123.558 43.2662 124.034 43.8952 124.034C44.4902 124.034 44.9152 123.558 44.9152 123.031C44.9152 122.572 44.4902 122.079 43.8952 122.079C43.2662 122.079 42.8412 122.572 42.8412 123.031ZM46.4908 118.05C46.4908 121.569 48.2928 124.153 51.5738 124.153C55.0418 124.153 56.6058 121.569 56.6058 118.05C56.6058 114.31 54.9908 111.947 51.5398 111.947C48.1058 111.947 46.4908 114.531 46.4908 118.05ZM47.9868 118.05C47.9868 115.194 49.1088 113.392 51.5398 113.392C53.9878 113.392 55.1098 115.143 55.1098 118.05C55.1098 120.94 54.0218 122.708 51.5738 122.708C49.3468 122.708 47.9868 120.94 47.9868 118.05Z" fill="#222429"/>
<rect x="69" y="88" width="30" height="165" fill="#5FAF2D"/>
<rect x="69" y="88" width="30" height="4" fill="#3D7917"/>
<path d="M76.6232 72.217C74.9742 72.217 73.8352 71.384 73.8352 70.279C73.8352 69.089 74.8552 68.392 76.8442 68.392C78.9012 68.392 79.9042 69.072 79.9042 70.279C79.9042 71.418 78.6972 72.217 77.1502 72.217H76.6232ZM77.1162 73.56C79.0202 73.56 80.2782 74.325 80.2782 75.651C80.2782 76.909 79.1732 77.708 76.8612 77.708C74.6002 77.708 73.4442 76.858 73.4442 75.634C73.4442 74.478 74.7702 73.56 76.6912 73.56H77.1162ZM76.8782 79.153C79.8872 79.153 81.7742 77.895 81.7742 75.719C81.7742 74.274 81.1282 73.254 79.5132 72.761C80.6862 72.217 81.4002 71.384 81.4002 70.177C81.4002 68.222 79.7852 66.947 76.8612 66.947C73.9542 66.947 72.3392 68.222 72.3392 70.177C72.3392 71.299 72.9172 72.387 74.2942 72.846C72.8832 73.305 71.9482 74.393 71.9482 75.787C71.9482 77.895 73.8522 79.153 76.8782 79.153ZM83.3891 78.031C83.3891 78.558 83.8141 79.034 84.4431 79.034C85.0381 79.034 85.4631 78.558 85.4631 78.031C85.4631 77.572 85.0381 77.079 84.4431 77.079C83.8141 77.079 83.3891 77.572 83.3891 78.031ZM88.2116 70.568C88.6196 69.48 89.6736 68.392 91.6116 68.392C93.1926 68.392 94.1956 69.021 94.1956 70.228C94.1956 71.35 93.0226 72.2 91.0676 72.2H90.0136V73.611H91.3396C93.1076 73.611 94.4676 74.07 94.4676 75.583C94.4676 76.943 93.4136 77.708 91.7136 77.708C89.5546 77.708 88.5856 76.603 87.9906 75.362L86.6136 75.957C87.1916 77.844 88.9426 79.153 91.6116 79.153C94.0766 79.153 95.9636 77.878 95.9636 75.566C95.9636 73.662 94.7736 72.812 93.6006 72.727C94.9606 72.336 95.6916 71.316 95.6916 69.939C95.6916 68.103 94.0086 66.947 91.6796 66.947C89.0956 66.947 87.5656 68.239 86.9366 69.99L88.2116 70.568Z" fill="#222429"/>
<path d="M151.263 266.434C151.417 265.44 152.173 264.264 153.839 264.264C155.015 264.264 155.939 264.768 155.939 266.154C155.939 267.498 154.833 268.744 152.033 270.606L149.905 272.02V273H157.535V271.81H152.117L153.195 271.138C154.875 270.088 157.171 268.45 157.171 266.028C157.171 264.292 155.981 263.074 153.923 263.074C151.725 263.074 150.507 264.446 150.171 266.07L151.263 266.434ZM158.505 268.1C158.505 270.998 159.989 273.126 162.691 273.126C165.547 273.126 166.835 270.998 166.835 268.1C166.835 265.02 165.505 263.074 162.663 263.074C159.835 263.074 158.505 265.202 158.505 268.1ZM159.737 268.1C159.737 265.748 160.661 264.264 162.663 264.264C164.679 264.264 165.603 265.706 165.603 268.1C165.603 270.48 164.707 271.936 162.691 271.936C160.857 271.936 159.737 270.48 159.737 268.1ZM167.321 264.754L167.769 265.804L170.303 264.642V273H171.479V263.144H170.681L167.321 264.754ZM177.03 273.126C179.648 273.126 181.412 271.334 181.412 267.918C181.412 264.782 179.872 263.074 177.366 263.074C174.902 263.074 173.222 264.46 173.222 266.644C173.222 268.646 174.804 270.004 176.974 270.004C178.612 270.004 179.704 269.22 180.152 268.156C180.166 268.268 180.166 268.38 180.166 268.492C180.166 270.48 178.906 271.936 177.198 271.936C176.092 271.936 175.084 271.488 174.51 270.69L173.502 271.39C174.09 272.384 175.35 273.126 177.03 273.126ZM177.198 268.814C175.532 268.814 174.454 267.96 174.454 266.546C174.454 265.062 175.504 264.264 177.226 264.264C179.13 264.264 179.83 265.412 179.83 266.602C179.83 267.848 178.822 268.814 177.198 268.814Z" fill="#777F8C"/>
<rect x="129" y="128" width="30" height="125" fill="#BFCED4"/>
<rect x="129" y="128" width="30" height="4" fill="#A6B2BC"/>
<path d="M137.15 119.153C139.785 119.153 141.859 117.487 141.859 115.022C141.859 112.659 140.159 111.044 137.371 111.044C135.705 111.044 134.039 111.826 133.41 113.322C133.41 113.254 133.41 113.203 133.41 113.135C133.461 110.228 134.923 108.392 137.167 108.392C138.612 108.392 139.632 109.038 140.295 110.058L141.451 109.276C140.788 107.848 139.275 106.947 137.235 106.947C134.379 106.947 131.948 109.089 131.948 113.373C131.948 117.113 133.971 119.153 137.15 119.153ZM137.133 117.708C135.178 117.708 133.971 116.45 133.971 114.971C133.971 113.526 135.127 112.489 137.286 112.489C139.071 112.489 140.363 113.373 140.363 115.09C140.363 116.654 139.02 117.708 137.133 117.708ZM143.372 118.031C143.372 118.558 143.797 119.034 144.426 119.034C145.021 119.034 145.446 118.558 145.446 118.031C145.446 117.572 145.021 117.079 144.426 117.079C143.797 117.079 143.372 117.572 143.372 118.031ZM148.195 110.568C148.603 109.48 149.657 108.392 151.595 108.392C153.176 108.392 154.179 109.021 154.179 110.228C154.179 111.35 153.006 112.2 151.051 112.2H149.997V113.611H151.323C153.091 113.611 154.451 114.07 154.451 115.583C154.451 116.943 153.397 117.708 151.697 117.708C149.538 117.708 148.569 116.603 147.974 115.362L146.597 115.957C147.175 117.844 148.926 119.153 151.595 119.153C154.06 119.153 155.947 117.878 155.947 115.566C155.947 113.662 154.757 112.812 153.584 112.727C154.944 112.336 155.675 111.316 155.675 109.939C155.675 108.103 153.992 106.947 151.663 106.947C149.079 106.947 147.549 108.239 146.92 109.99L148.195 110.568Z" fill="#222429"/>
<rect x="169" y="90" width="30" height="163" fill="#5FAF2D"/>
<rect x="169" y="90" width="30" height="4" fill="#3D7917"/>
<path d="M176.665 74.217C175.016 74.217 173.877 73.384 173.877 72.279C173.877 71.089 174.897 70.392 176.886 70.392C178.943 70.392 179.946 71.072 179.946 72.279C179.946 73.418 178.739 74.217 177.192 74.217H176.665ZM177.158 75.56C179.062 75.56 180.32 76.325 180.32 77.651C180.32 78.909 179.215 79.708 176.903 79.708C174.642 79.708 173.486 78.858 173.486 77.634C173.486 76.478 174.812 75.56 176.733 75.56H177.158ZM176.92 81.153C179.929 81.153 181.816 79.895 181.816 77.719C181.816 76.274 181.17 75.254 179.555 74.761C180.728 74.217 181.442 73.384 181.442 72.177C181.442 70.222 179.827 68.947 176.903 68.947C173.996 68.947 172.381 70.222 172.381 72.177C172.381 73.299 172.959 74.387 174.336 74.846C172.925 75.305 171.99 76.393 171.99 77.787C171.99 79.895 173.894 81.153 176.92 81.153ZM183.431 80.031C183.431 80.558 183.856 81.034 184.485 81.034C185.08 81.034 185.505 80.558 185.505 80.031C185.505 79.572 185.08 79.079 184.485 79.079C183.856 79.079 183.431 79.572 183.431 80.031ZM188.525 73.027C188.712 71.82 189.63 70.392 191.653 70.392C193.081 70.392 194.203 71.004 194.203 72.687C194.203 74.319 192.86 75.832 189.46 78.093L186.876 79.81V81H196.141V79.555H189.562L190.871 78.739C192.911 77.464 195.699 75.475 195.699 72.534C195.699 70.426 194.254 68.947 191.755 68.947C189.086 68.947 187.607 70.613 187.199 72.585L188.525 73.027Z" fill="#222429"/>
<path d="M248.036 266.434C248.19 265.44 248.946 264.264 250.612 264.264C251.788 264.264 252.712 264.768 252.712 266.154C252.712 267.498 251.606 268.744 248.806 270.606L246.678 272.02V273H254.308V271.81H248.89L249.968 271.138C251.648 270.088 253.944 268.45 253.944 266.028C253.944 264.292 252.754 263.074 250.696 263.074C248.498 263.074 247.28 264.446 246.944 266.07L248.036 266.434ZM255.278 268.1C255.278 270.998 256.762 273.126 259.464 273.126C262.32 273.126 263.608 270.998 263.608 268.1C263.608 265.02 262.278 263.074 259.436 263.074C256.608 263.074 255.278 265.202 255.278 268.1ZM256.51 268.1C256.51 265.748 257.434 264.264 259.436 264.264C261.452 264.264 262.376 265.706 262.376 268.1C262.376 270.48 261.48 271.936 259.464 271.936C257.63 271.936 256.51 270.48 256.51 268.1ZM265.844 266.434C265.998 265.44 266.754 264.264 268.42 264.264C269.596 264.264 270.52 264.768 270.52 266.154C270.52 267.498 269.414 268.744 266.614 270.606L264.486 272.02V273H272.116V271.81H266.698L267.776 271.138C269.456 270.088 271.752 268.45 271.752 266.028C271.752 264.292 270.562 263.074 268.504 263.074C266.306 263.074 265.088 264.446 264.752 266.07L265.844 266.434ZM273.086 268.1C273.086 270.998 274.57 273.126 277.272 273.126C280.128 273.126 281.416 270.998 281.416 268.1C281.416 265.02 280.086 263.074 277.244 263.074C274.416 263.074 273.086 265.202 273.086 268.1ZM274.318 268.1C274.318 265.748 275.242 264.264 277.244 264.264C279.26 264.264 280.184 265.706 280.184 268.1C280.184 270.48 279.288 271.936 277.272 271.936C275.438 271.936 274.318 270.48 274.318 268.1Z" fill="#777F8C"/>
<rect x="229" y="124" width="30" height="129" fill="#BFCED4"/>
<rect x="229" y="124" width="30" height="4" fill="#A6B2BC"/>
<path d="M237.05 115.153C239.685 115.153 241.759 113.487 241.759 111.022C241.759 108.659 240.059 107.044 237.271 107.044C235.605 107.044 233.939 107.826 233.31 109.322C233.31 109.254 233.31 109.203 233.31 109.135C233.361 106.228 234.823 104.392 237.067 104.392C238.512 104.392 239.532 105.038 240.195 106.058L241.351 105.276C240.688 103.848 239.175 102.947 237.135 102.947C234.279 102.947 231.848 105.089 231.848 109.373C231.848 113.113 233.871 115.153 237.05 115.153ZM237.033 113.708C235.078 113.708 233.871 112.45 233.871 110.971C233.871 109.526 235.027 108.489 237.186 108.489C238.971 108.489 240.263 109.373 240.263 111.09C240.263 112.654 238.92 113.708 237.033 113.708ZM243.273 114.031C243.273 114.558 243.698 115.034 244.327 115.034C244.922 115.034 245.347 114.558 245.347 114.031C245.347 113.572 244.922 113.079 244.327 113.079C243.698 113.079 243.273 113.572 243.273 114.031ZM247.432 109.203L248.656 109.526C249.353 108.829 250.101 108.506 251.291 108.506C253.382 108.506 254.657 109.509 254.657 111.107C254.657 112.501 253.654 113.708 251.546 113.708C249.71 113.708 248.52 112.705 248.061 111.668L246.701 112.246C247.466 114.133 249.387 115.153 251.546 115.153C254.181 115.153 256.153 113.436 256.153 111.056C256.153 108.812 254.555 107.061 251.699 107.061C250.424 107.061 249.506 107.367 248.996 107.741L249.438 104.545H255.609V103.1H248.129L247.432 109.203Z" fill="#222429"/>
<rect x="269" y="88" width="30" height="165" fill="#5FAF2D"/>
<rect x="269" y="88" width="30" height="4" fill="#3D7917"/>
<path d="M276.623 72.217C274.974 72.217 273.835 71.384 273.835 70.279C273.835 69.089 274.855 68.392 276.844 68.392C278.901 68.392 279.904 69.072 279.904 70.279C279.904 71.418 278.697 72.217 277.15 72.217H276.623ZM277.116 73.56C279.02 73.56 280.278 74.325 280.278 75.651C280.278 76.909 279.173 77.708 276.861 77.708C274.6 77.708 273.444 76.858 273.444 75.634C273.444 74.478 274.77 73.56 276.691 73.56H277.116ZM276.878 79.153C279.887 79.153 281.774 77.895 281.774 75.719C281.774 74.274 281.128 73.254 279.513 72.761C280.686 72.217 281.4 71.384 281.4 70.177C281.4 68.222 279.785 66.947 276.861 66.947C273.954 66.947 272.339 68.222 272.339 70.177C272.339 71.299 272.917 72.387 274.294 72.846C272.883 73.305 271.948 74.393 271.948 75.787C271.948 77.895 273.852 79.153 276.878 79.153ZM283.389 78.031C283.389 78.558 283.814 79.034 284.443 79.034C285.038 79.034 285.463 78.558 285.463 78.031C285.463 77.572 285.038 77.079 284.443 77.079C283.814 77.079 283.389 77.572 283.389 78.031ZM288.212 70.568C288.62 69.48 289.674 68.392 291.612 68.392C293.193 68.392 294.196 69.021 294.196 70.228C294.196 71.35 293.023 72.2 291.068 72.2H290.014V73.611H291.34C293.108 73.611 294.468 74.07 294.468 75.583C294.468 76.943 293.414 77.708 291.714 77.708C289.555 77.708 288.586 76.603 287.991 75.362L286.614 75.957C287.192 77.844 288.943 79.153 291.612 79.153C294.077 79.153 295.964 77.878 295.964 75.566C295.964 73.662 294.774 72.812 293.601 72.727C294.961 72.336 295.692 71.316 295.692 69.939C295.692 68.103 294.009 66.947 291.68 66.947C289.096 66.947 287.566 68.239 286.937 69.99L288.212 70.568Z" fill="#222429"/>
<path d="M352.028 266.434C352.182 265.44 352.938 264.264 354.604 264.264C355.78 264.264 356.704 264.768 356.704 266.154C356.704 267.498 355.598 268.744 352.798 270.606L350.67 272.02V273H358.3V271.81H352.882L353.96 271.138C355.64 270.088 357.936 268.45 357.936 266.028C357.936 264.292 356.746 263.074 354.688 263.074C352.49 263.074 351.272 264.446 350.936 266.07L352.028 266.434ZM359.271 268.1C359.271 270.998 360.755 273.126 363.457 273.126C366.313 273.126 367.601 270.998 367.601 268.1C367.601 265.02 366.271 263.074 363.429 263.074C360.601 263.074 359.271 265.202 359.271 268.1ZM360.503 268.1C360.503 265.748 361.427 264.264 363.429 264.264C365.445 264.264 366.369 265.706 366.369 268.1C366.369 270.48 365.473 271.936 363.457 271.936C361.623 271.936 360.503 270.48 360.503 268.1ZM369.836 266.434C369.99 265.44 370.746 264.264 372.412 264.264C373.588 264.264 374.512 264.768 374.512 266.154C374.512 267.498 373.406 268.744 370.606 270.606L368.478 272.02V273H376.108V271.81H370.69L371.768 271.138C373.448 270.088 375.744 268.45 375.744 266.028C375.744 264.292 374.554 263.074 372.496 263.074C370.298 263.074 369.08 264.446 368.744 266.07L369.836 266.434ZM376.519 264.754L376.967 265.804L379.501 264.642V273H380.677V263.144H379.879L376.519 264.754Z" fill="#777F8C"/>
<rect x="329" y="124" width="30" height="129" fill="#BFCED4"/>
<rect x="329" y="124" width="30" height="4" fill="#A6B2BC"/>
<path d="M337.05 115.153C339.685 115.153 341.759 113.487 341.759 111.022C341.759 108.659 340.059 107.044 337.271 107.044C335.605 107.044 333.939 107.826 333.31 109.322C333.31 109.254 333.31 109.203 333.31 109.135C333.361 106.228 334.823 104.392 337.067 104.392C338.512 104.392 339.532 105.038 340.195 106.058L341.351 105.276C340.688 103.848 339.175 102.947 337.135 102.947C334.279 102.947 331.848 105.089 331.848 109.373C331.848 113.113 333.871 115.153 337.05 115.153ZM337.033 113.708C335.078 113.708 333.871 112.45 333.871 110.971C333.871 109.526 335.027 108.489 337.186 108.489C338.971 108.489 340.263 109.373 340.263 111.09C340.263 112.654 338.92 113.708 337.033 113.708ZM343.273 114.031C343.273 114.558 343.698 115.034 344.327 115.034C344.922 115.034 345.347 114.558 345.347 114.031C345.347 113.572 344.922 113.079 344.327 113.079C343.698 113.079 343.273 113.572 343.273 114.031ZM347.432 109.203L348.656 109.526C349.353 108.829 350.101 108.506 351.291 108.506C353.382 108.506 354.657 109.509 354.657 111.107C354.657 112.501 353.654 113.708 351.546 113.708C349.71 113.708 348.52 112.705 348.061 111.668L346.701 112.246C347.466 114.133 349.387 115.153 351.546 115.153C354.181 115.153 356.153 113.436 356.153 111.056C356.153 108.812 354.555 107.061 351.699 107.061C350.424 107.061 349.506 107.367 348.996 107.741L349.438 104.545H355.609V103.1H348.129L347.432 109.203Z" fill="#222429"/>
<rect x="369" y="84" width="30" height="169" fill="#5FAF2D"/>
<rect x="369" y="84" width="30" height="4" fill="#3D7917"/>
<path d="M376.524 68.217C374.875 68.217 373.736 67.384 373.736 66.279C373.736 65.089 374.756 64.392 376.745 64.392C378.802 64.392 379.805 65.072 379.805 66.279C379.805 67.418 378.598 68.217 377.051 68.217H376.524ZM377.017 69.56C378.921 69.56 380.179 70.325 380.179 71.651C380.179 72.909 379.074 73.708 376.762 73.708C374.501 73.708 373.345 72.858 373.345 71.634C373.345 70.478 374.671 69.56 376.592 69.56H377.017ZM376.779 75.153C379.788 75.153 381.675 73.895 381.675 71.719C381.675 70.274 381.029 69.254 379.414 68.761C380.587 68.217 381.301 67.384 381.301 66.177C381.301 64.222 379.686 62.947 376.762 62.947C373.855 62.947 372.24 64.222 372.24 66.177C372.24 67.299 372.818 68.387 374.195 68.846C372.784 69.305 371.849 70.393 371.849 71.787C371.849 73.895 373.753 75.153 376.779 75.153ZM383.289 74.031C383.289 74.558 383.714 75.034 384.343 75.034C384.938 75.034 385.363 74.558 385.363 74.031C385.363 73.572 384.938 73.079 384.343 73.079C383.714 73.079 383.289 73.572 383.289 74.031ZM387.449 69.203L388.673 69.526C389.37 68.829 390.118 68.506 391.308 68.506C393.399 68.506 394.674 69.509 394.674 71.107C394.674 72.501 393.671 73.708 391.563 73.708C389.727 73.708 388.537 72.705 388.078 71.668L386.718 72.246C387.483 74.133 389.404 75.153 391.563 75.153C394.198 75.153 396.17 73.436 396.17 71.056C396.17 68.812 394.572 67.061 391.716 67.061C390.441 67.061 389.523 67.367 389.013 67.741L389.455 64.545H395.626V63.1H388.146L387.449 69.203Z" fill="#222429"/>
<path d="M448.98 266.434C449.134 265.44 449.89 264.264 451.556 264.264C452.732 264.264 453.656 264.768 453.656 266.154C453.656 267.498 452.55 268.744 449.75 270.606L447.622 272.02V273H455.252V271.81H449.834L450.912 271.138C452.592 270.088 454.888 268.45 454.888 266.028C454.888 264.292 453.698 263.074 451.64 263.074C449.442 263.074 448.224 264.446 447.888 266.07L448.98 266.434ZM456.222 268.1C456.222 270.998 457.706 273.126 460.408 273.126C463.264 273.126 464.552 270.998 464.552 268.1C464.552 265.02 463.222 263.074 460.38 263.074C457.552 263.074 456.222 265.202 456.222 268.1ZM457.454 268.1C457.454 265.748 458.378 264.264 460.38 264.264C462.396 264.264 463.32 265.706 463.32 268.1C463.32 270.48 462.424 271.936 460.408 271.936C458.574 271.936 457.454 270.48 457.454 268.1ZM466.787 266.434C466.941 265.44 467.697 264.264 469.363 264.264C470.539 264.264 471.463 264.768 471.463 266.154C471.463 267.498 470.357 268.744 467.557 270.606L465.429 272.02V273H473.059V271.81H467.641L468.719 271.138C470.399 270.088 472.695 268.45 472.695 266.028C472.695 264.292 471.505 263.074 469.447 263.074C467.249 263.074 466.031 264.446 465.695 266.07L466.787 266.434ZM475.22 266.434C475.374 265.44 476.13 264.264 477.796 264.264C478.972 264.264 479.896 264.768 479.896 266.154C479.896 267.498 478.79 268.744 475.99 270.606L473.862 272.02V273H481.492V271.81H476.074L477.152 271.138C478.832 270.088 481.128 268.45 481.128 266.028C481.128 264.292 479.938 263.074 477.88 263.074C475.682 263.074 474.464 264.446 474.128 266.07L475.22 266.434Z" fill="#777F8C"/>
<rect x="429" y="128" width="30" height="125" fill="#BFCED4"/>
<rect x="429" y="128" width="30" height="4" fill="#A6B2BC"/>
<path d="M437.15 119.153C439.785 119.153 441.859 117.487 441.859 115.022C441.859 112.659 440.159 111.044 437.371 111.044C435.705 111.044 434.039 111.826 433.41 113.322C433.41 113.254 433.41 113.203 433.41 113.135C433.461 110.228 434.923 108.392 437.167 108.392C438.612 108.392 439.632 109.038 440.295 110.058L441.451 109.276C440.788 107.848 439.275 106.947 437.235 106.947C434.379 106.947 431.948 109.089 431.948 113.373C431.948 117.113 433.971 119.153 437.15 119.153ZM437.133 117.708C435.178 117.708 433.971 116.45 433.971 114.971C433.971 113.526 435.127 112.489 437.286 112.489C439.071 112.489 440.363 113.373 440.363 115.09C440.363 116.654 439.02 117.708 437.133 117.708ZM443.372 118.031C443.372 118.558 443.797 119.034 444.426 119.034C445.021 119.034 445.446 118.558 445.446 118.031C445.446 117.572 445.021 117.079 444.426 117.079C443.797 117.079 443.372 117.572 443.372 118.031ZM448.195 110.568C448.603 109.48 449.657 108.392 451.595 108.392C453.176 108.392 454.179 109.021 454.179 110.228C454.179 111.35 453.006 112.2 451.051 112.2H449.997V113.611H451.323C453.091 113.611 454.451 114.07 454.451 115.583C454.451 116.943 453.397 117.708 451.697 117.708C449.538 117.708 448.569 116.603 447.974 115.362L446.597 115.957C447.175 117.844 448.926 119.153 451.595 119.153C454.06 119.153 455.947 117.878 455.947 115.566C455.947 113.662 454.757 112.812 453.584 112.727C454.944 112.336 455.675 111.316 455.675 109.939C455.675 108.103 453.992 106.947 451.663 106.947C449.079 106.947 447.549 108.239 446.92 109.99L448.195 110.568Z" fill="#222429"/>
<rect x="469" y="84" width="30" height="169" fill="#5FAF2D"/>
<rect x="469" y="84" width="30" height="4" fill="#3D7917"/>
<path d="M476.524 68.217C474.875 68.217 473.736 67.384 473.736 66.279C473.736 65.089 474.756 64.392 476.745 64.392C478.802 64.392 479.805 65.072 479.805 66.279C479.805 67.418 478.598 68.217 477.051 68.217H476.524ZM477.017 69.56C478.921 69.56 480.179 70.325 480.179 71.651C480.179 72.909 479.074 73.708 476.762 73.708C474.501 73.708 473.345 72.858 473.345 71.634C473.345 70.478 474.671 69.56 476.592 69.56H477.017ZM476.779 75.153C479.788 75.153 481.675 73.895 481.675 71.719C481.675 70.274 481.029 69.254 479.414 68.761C480.587 68.217 481.301 67.384 481.301 66.177C481.301 64.222 479.686 62.947 476.762 62.947C473.855 62.947 472.24 64.222 472.24 66.177C472.24 67.299 472.818 68.387 474.195 68.846C472.784 69.305 471.849 70.393 471.849 71.787C471.849 73.895 473.753 75.153 476.779 75.153ZM483.289 74.031C483.289 74.558 483.714 75.034 484.343 75.034C484.938 75.034 485.363 74.558 485.363 74.031C485.363 73.572 484.938 73.079 484.343 73.079C483.714 73.079 483.289 73.572 483.289 74.031ZM487.449 69.203L488.673 69.526C489.37 68.829 490.118 68.506 491.308 68.506C493.399 68.506 494.674 69.509 494.674 71.107C494.674 72.501 493.671 73.708 491.563 73.708C489.727 73.708 488.537 72.705 488.078 71.668L486.718 72.246C487.483 74.133 489.404 75.153 491.563 75.153C494.198 75.153 496.17 73.436 496.17 71.056C496.17 68.812 494.572 67.061 491.716 67.061C490.441 67.061 489.523 67.367 489.013 67.741L489.455 64.545H495.626V63.1H488.146L487.449 69.203Z" fill="#222429"/>
</svg>
