<svg viewBox="0 0 536 274" fill="none" xmlns="http://www.w3.org/2000/svg">
<path d="M62 51V17C62 15.8954 62.8954 15 64 15H462C463.105 15 464 15.8954 464 17V46" stroke="#B4BBC5"/>
<path fill-rule="evenodd" clip-rule="evenodd" d="M459 43L464 52L469 43H459Z" fill="#B4BBC5"/>
<rect x="191.5" y="0.5" width="71" height="29" rx="14.5" fill="#E1E6E6" stroke="#B4BBC5"/>
<path d="M207.005 13.428H209.651V10.768H210.757V13.428H213.431V14.492H210.757V17.18H209.651V14.492H207.005V13.428ZM215.682 9.2H221.842V10.39H216.76L216.396 13.022C216.61 12.8633 216.9 12.7327 217.264 12.63C217.637 12.518 218.09 12.462 218.622 12.462C219.21 12.462 219.732 12.546 220.19 12.714C220.647 12.882 221.03 13.1153 221.338 13.414C221.646 13.7127 221.879 14.0627 222.038 14.464C222.206 14.8653 222.29 15.2947 222.29 15.752C222.29 16.2467 222.192 16.6993 221.996 17.11C221.809 17.5207 221.543 17.8753 221.198 18.174C220.862 18.4727 220.46 18.706 219.994 18.874C219.536 19.042 219.037 19.126 218.496 19.126C218.048 19.126 217.618 19.0747 217.208 18.972C216.797 18.8693 216.414 18.7153 216.06 18.51C215.714 18.3047 215.406 18.0573 215.136 17.768C214.874 17.4693 214.664 17.124 214.506 16.732L215.626 16.256C215.719 16.4707 215.85 16.6807 216.018 16.886C216.186 17.082 216.391 17.2593 216.634 17.418C216.876 17.5767 217.152 17.7027 217.46 17.796C217.768 17.8893 218.113 17.936 218.496 17.936C218.925 17.936 219.298 17.88 219.616 17.768C219.942 17.6467 220.213 17.488 220.428 17.292C220.642 17.096 220.801 16.872 220.904 16.62C221.006 16.3587 221.058 16.0833 221.058 15.794C221.058 15.1313 220.81 14.6087 220.316 14.226C219.83 13.8433 219.154 13.652 218.286 13.652C217.791 13.652 217.376 13.722 217.04 13.862C216.713 13.9927 216.405 14.2027 216.116 14.492L215.108 14.226L215.682 9.2ZM223.03 20.358C223.152 20.33 223.278 20.2787 223.408 20.204C223.548 20.1293 223.674 20.036 223.786 19.924C223.898 19.812 223.987 19.6907 224.052 19.56C224.127 19.4293 224.164 19.294 224.164 19.154C224.164 19.0887 224.16 19.0373 224.15 19C224.104 19.0093 224.048 19.014 223.982 19.014C223.777 19.014 223.6 18.9487 223.45 18.818C223.31 18.6873 223.24 18.5007 223.24 18.258C223.24 18.0153 223.315 17.824 223.464 17.684C223.614 17.5347 223.824 17.46 224.094 17.46C224.393 17.46 224.636 17.5627 224.822 17.768C225.018 17.964 225.116 18.2627 225.116 18.664C225.116 19.0467 225.065 19.3733 224.962 19.644C224.86 19.9147 224.724 20.1433 224.556 20.33C224.388 20.5167 224.197 20.6613 223.982 20.764C223.768 20.876 223.548 20.96 223.324 21.016L223.03 20.358ZM225.995 14.1C225.995 13.372 226.079 12.7047 226.247 12.098C226.415 11.482 226.667 10.95 227.003 10.502C227.348 10.054 227.782 9.704 228.305 9.452C228.828 9.2 229.444 9.074 230.153 9.074C230.862 9.074 231.478 9.19067 232.001 9.424C232.524 9.65733 232.958 9.99333 233.303 10.432C233.648 10.8707 233.905 11.4027 234.073 12.028C234.241 12.644 234.325 13.3347 234.325 14.1C234.325 14.828 234.241 15.5 234.073 16.116C233.914 16.7227 233.662 17.25 233.317 17.698C232.981 18.146 232.552 18.496 232.029 18.748C231.506 19 230.89 19.126 230.181 19.126C229.509 19.126 228.912 19 228.389 18.748C227.866 18.496 227.428 18.146 227.073 17.698C226.718 17.25 226.448 16.7227 226.261 16.116C226.084 15.5 225.995 14.828 225.995 14.1ZM227.227 14.1C227.227 15.2947 227.488 16.2327 228.011 16.914C228.534 17.5953 229.257 17.936 230.181 17.936C231.189 17.936 231.926 17.5953 232.393 16.914C232.86 16.2327 233.093 15.2947 233.093 14.1C233.093 12.9053 232.855 11.9673 232.379 11.286C231.903 10.6047 231.161 10.264 230.153 10.264C229.649 10.264 229.215 10.3527 228.851 10.53C228.487 10.7073 228.184 10.964 227.941 11.3C227.698 11.636 227.516 12.042 227.395 12.518C227.283 12.9847 227.227 13.512 227.227 14.1ZM243.98 8.892L244.862 9.536L237.666 19.21L236.742 18.678L243.98 8.892ZM235.23 11.552C235.23 11.1973 235.296 10.8753 235.426 10.586C235.557 10.2873 235.734 10.0353 235.958 9.83C236.192 9.61533 236.462 9.452 236.77 9.34C237.088 9.21867 237.428 9.158 237.792 9.158C238.156 9.158 238.492 9.21867 238.8 9.34C239.108 9.452 239.374 9.61533 239.598 9.83C239.832 10.0353 240.014 10.2873 240.144 10.586C240.275 10.8753 240.34 11.1973 240.34 11.552C240.34 11.9067 240.275 12.2287 240.144 12.518C240.014 12.8073 239.832 13.0593 239.598 13.274C239.374 13.4793 239.108 13.6427 238.8 13.764C238.492 13.876 238.156 13.932 237.792 13.932C237.428 13.932 237.088 13.876 236.77 13.764C236.462 13.6427 236.192 13.4793 235.958 13.274C235.734 13.0593 235.557 12.8073 235.426 12.518C235.296 12.2287 235.23 11.9067 235.23 11.552ZM236.406 11.552C236.406 11.7667 236.444 11.958 236.518 12.126C236.602 12.294 236.705 12.4387 236.826 12.56C236.957 12.6813 237.106 12.7747 237.274 12.84C237.442 12.9053 237.615 12.938 237.792 12.938C238.156 12.938 238.474 12.812 238.744 12.56C239.024 12.308 239.164 11.972 239.164 11.552C239.164 11.132 239.024 10.796 238.744 10.544C238.474 10.292 238.156 10.166 237.792 10.166C237.419 10.166 237.092 10.292 236.812 10.544C236.542 10.796 236.406 11.132 236.406 11.552ZM241.236 16.662C241.236 16.3167 241.302 15.9993 241.432 15.71C241.563 15.4113 241.74 15.1593 241.964 14.954C242.198 14.7393 242.468 14.576 242.776 14.464C243.094 14.3427 243.434 14.282 243.798 14.282C244.162 14.282 244.498 14.3427 244.806 14.464C245.114 14.576 245.38 14.7393 245.604 14.954C245.838 15.1593 246.02 15.4113 246.15 15.71C246.281 15.9993 246.346 16.3167 246.346 16.662C246.346 17.0167 246.281 17.3387 246.15 17.628C246.02 17.9173 245.838 18.1693 245.604 18.384C245.38 18.5987 245.114 18.7667 244.806 18.888C244.498 19 244.162 19.056 243.798 19.056C243.434 19.056 243.094 19 242.776 18.888C242.468 18.7667 242.198 18.5987 241.964 18.384C241.74 18.1693 241.563 17.9173 241.432 17.628C241.302 17.3387 241.236 17.0167 241.236 16.662ZM242.412 16.662C242.412 16.8767 242.45 17.068 242.524 17.236C242.608 17.404 242.711 17.5487 242.832 17.67C242.963 17.7913 243.112 17.8847 243.28 17.95C243.448 18.0153 243.621 18.048 243.798 18.048C244.162 18.048 244.48 17.922 244.75 17.67C245.03 17.418 245.17 17.082 245.17 16.662C245.17 16.242 245.03 15.906 244.75 15.654C244.48 15.402 244.162 15.276 243.798 15.276C243.425 15.276 243.098 15.402 242.818 15.654C242.548 15.906 242.412 16.242 242.412 16.662Z" fill="#50565E"/>
<rect x="274.5" y="0.5" width="71" height="29" rx="14.5" fill="#CFE7C0" stroke="#5FAF2D"/>
<path d="M290.176 13.428H292.822V10.768H293.928V13.428H296.602V14.492H293.928V17.18H292.822V14.492H290.176V13.428ZM297.957 12.07C298.041 11.6687 298.181 11.286 298.377 10.922C298.573 10.558 298.825 10.2407 299.133 9.97C299.441 9.69 299.809 9.47067 300.239 9.312C300.668 9.15333 301.158 9.074 301.709 9.074C302.222 9.074 302.679 9.14867 303.081 9.298C303.482 9.438 303.823 9.63867 304.103 9.9C304.383 10.1613 304.593 10.474 304.733 10.838C304.882 11.202 304.957 11.5987 304.957 12.028C304.957 12.6347 304.826 13.1947 304.565 13.708C304.313 14.212 303.991 14.674 303.599 15.094C303.207 15.514 302.777 15.8967 302.311 16.242C301.844 16.578 301.401 16.8767 300.981 17.138L299.903 17.81H305.321V19H297.691V18.02L299.819 16.606C300.519 16.1393 301.116 15.71 301.611 15.318C302.105 14.9167 302.507 14.5387 302.815 14.184C303.132 13.8293 303.361 13.4887 303.501 13.162C303.65 12.826 303.725 12.49 303.725 12.154C303.725 11.8087 303.669 11.5147 303.557 11.272C303.454 11.0293 303.305 10.8333 303.109 10.684C302.922 10.5347 302.698 10.4273 302.437 10.362C302.185 10.2967 301.914 10.264 301.625 10.264C301.205 10.264 300.841 10.3293 300.533 10.46C300.234 10.5907 299.977 10.7633 299.763 10.978C299.557 11.1833 299.394 11.4167 299.273 11.678C299.161 11.93 299.086 12.182 299.049 12.434L297.957 12.07ZM305.969 20.358C306.09 20.33 306.216 20.2787 306.347 20.204C306.487 20.1293 306.613 20.036 306.725 19.924C306.837 19.812 306.925 19.6907 306.991 19.56C307.065 19.4293 307.103 19.294 307.103 19.154C307.103 19.0887 307.098 19.0373 307.089 19C307.042 19.0093 306.986 19.014 306.921 19.014C306.715 19.014 306.538 18.9487 306.389 18.818C306.249 18.6873 306.179 18.5007 306.179 18.258C306.179 18.0153 306.253 17.824 306.403 17.684C306.552 17.5347 306.762 17.46 307.033 17.46C307.331 17.46 307.574 17.5627 307.761 17.768C307.957 17.964 308.055 18.2627 308.055 18.664C308.055 19.0467 308.003 19.3733 307.901 19.644C307.798 19.9147 307.663 20.1433 307.495 20.33C307.327 20.5167 307.135 20.6613 306.921 20.764C306.706 20.876 306.487 20.96 306.263 21.016L305.969 20.358ZM314.519 17.04H308.485V16.144L314.659 9.2H315.695V15.85H317.515V17.04H315.695V19H314.519V17.04ZM314.519 15.85V11.16L310.165 15.85H314.519ZM326.81 8.892L327.692 9.536L320.496 19.21L319.572 18.678L326.81 8.892ZM318.06 11.552C318.06 11.1973 318.125 10.8753 318.256 10.586C318.386 10.2873 318.564 10.0353 318.788 9.83C319.021 9.61533 319.292 9.452 319.6 9.34C319.917 9.21867 320.258 9.158 320.622 9.158C320.986 9.158 321.322 9.21867 321.63 9.34C321.938 9.452 322.204 9.61533 322.428 9.83C322.661 10.0353 322.843 10.2873 322.974 10.586C323.104 10.8753 323.17 11.1973 323.17 11.552C323.17 11.9067 323.104 12.2287 322.974 12.518C322.843 12.8073 322.661 13.0593 322.428 13.274C322.204 13.4793 321.938 13.6427 321.63 13.764C321.322 13.876 320.986 13.932 320.622 13.932C320.258 13.932 319.917 13.876 319.6 13.764C319.292 13.6427 319.021 13.4793 318.788 13.274C318.564 13.0593 318.386 12.8073 318.256 12.518C318.125 12.2287 318.06 11.9067 318.06 11.552ZM319.236 11.552C319.236 11.7667 319.273 11.958 319.348 12.126C319.432 12.294 319.534 12.4387 319.656 12.56C319.786 12.6813 319.936 12.7747 320.104 12.84C320.272 12.9053 320.444 12.938 320.622 12.938C320.986 12.938 321.303 12.812 321.574 12.56C321.854 12.308 321.994 11.972 321.994 11.552C321.994 11.132 321.854 10.796 321.574 10.544C321.303 10.292 320.986 10.166 320.622 10.166C320.248 10.166 319.922 10.292 319.642 10.544C319.371 10.796 319.236 11.132 319.236 11.552ZM324.066 16.662C324.066 16.3167 324.131 15.9993 324.262 15.71C324.392 15.4113 324.57 15.1593 324.794 14.954C325.027 14.7393 325.298 14.576 325.606 14.464C325.923 14.3427 326.264 14.282 326.628 14.282C326.992 14.282 327.328 14.3427 327.636 14.464C327.944 14.576 328.21 14.7393 328.434 14.954C328.667 15.1593 328.849 15.4113 328.98 15.71C329.11 15.9993 329.176 16.3167 329.176 16.662C329.176 17.0167 329.11 17.3387 328.98 17.628C328.849 17.9173 328.667 18.1693 328.434 18.384C328.21 18.5987 327.944 18.7667 327.636 18.888C327.328 19 326.992 19.056 326.628 19.056C326.264 19.056 325.923 19 325.606 18.888C325.298 18.7667 325.027 18.5987 324.794 18.384C324.57 18.1693 324.392 17.9173 324.262 17.628C324.131 17.3387 324.066 17.0167 324.066 16.662ZM325.242 16.662C325.242 16.8767 325.279 17.068 325.354 17.236C325.438 17.404 325.54 17.5487 325.662 17.67C325.792 17.7913 325.942 17.8847 326.11 17.95C326.278 18.0153 326.45 18.048 326.628 18.048C326.992 18.048 327.309 17.922 327.58 17.67C327.86 17.418 328 17.082 328 16.662C328 16.242 327.86 15.906 327.58 15.654C327.309 15.402 326.992 15.276 326.628 15.276C326.254 15.276 325.928 15.402 325.648 15.654C325.377 15.906 325.242 16.242 325.242 16.662Z" fill="#50565E"/>
<rect y="253" width="536" height="1" fill="#9299A3"/>
<path d="M50.1708 266.07C50.2548 265.669 50.3948 265.286 50.5908 264.922C50.7868 264.558 51.0388 264.241 51.3468 263.97C51.6548 263.69 52.0234 263.471 52.4528 263.312C52.8821 263.153 53.3721 263.074 53.9228 263.074C54.4361 263.074 54.8934 263.149 55.2948 263.298C55.6961 263.438 56.0368 263.639 56.3168 263.9C56.5968 264.161 56.8068 264.474 56.9468 264.838C57.0961 265.202 57.1708 265.599 57.1708 266.028C57.1708 266.635 57.0401 267.195 56.7788 267.708C56.5268 268.212 56.2048 268.674 55.8128 269.094C55.4208 269.514 54.9914 269.897 54.5248 270.242C54.0581 270.578 53.6148 270.877 53.1948 271.138L52.1168 271.81H57.5348V273H49.9048V272.02L52.0328 270.606C52.7328 270.139 53.3301 269.71 53.8248 269.318C54.3194 268.917 54.7208 268.539 55.0288 268.184C55.3461 267.829 55.5748 267.489 55.7148 267.162C55.8641 266.826 55.9388 266.49 55.9388 266.154C55.9388 265.809 55.8828 265.515 55.7708 265.272C55.6681 265.029 55.5188 264.833 55.3228 264.684C55.1361 264.535 54.9121 264.427 54.6508 264.362C54.3988 264.297 54.1281 264.264 53.8388 264.264C53.4188 264.264 53.0548 264.329 52.7468 264.46C52.4481 264.591 52.1914 264.763 51.9768 264.978C51.7714 265.183 51.6081 265.417 51.4868 265.678C51.3748 265.93 51.3001 266.182 51.2628 266.434L50.1708 266.07ZM58.505 268.1C58.505 267.372 58.589 266.705 58.757 266.098C58.925 265.482 59.177 264.95 59.513 264.502C59.8584 264.054 60.2924 263.704 60.815 263.452C61.3377 263.2 61.9537 263.074 62.663 263.074C63.3724 263.074 63.9884 263.191 64.511 263.424C65.0337 263.657 65.4677 263.993 65.813 264.432C66.1584 264.871 66.415 265.403 66.583 266.028C66.751 266.644 66.835 267.335 66.835 268.1C66.835 268.828 66.751 269.5 66.583 270.116C66.4244 270.723 66.1724 271.25 65.827 271.698C65.491 272.146 65.0617 272.496 64.539 272.748C64.0164 273 63.4004 273.126 62.691 273.126C62.019 273.126 61.4217 273 60.899 272.748C60.3764 272.496 59.9377 272.146 59.583 271.698C59.2284 271.25 58.9577 270.723 58.771 270.116C58.5937 269.5 58.505 268.828 58.505 268.1ZM59.737 268.1C59.737 269.295 59.9984 270.233 60.521 270.914C61.0437 271.595 61.767 271.936 62.691 271.936C63.699 271.936 64.4364 271.595 64.903 270.914C65.3697 270.233 65.603 269.295 65.603 268.1C65.603 266.905 65.365 265.967 64.889 265.286C64.413 264.605 63.671 264.264 62.663 264.264C62.159 264.264 61.725 264.353 61.361 264.53C60.997 264.707 60.6937 264.964 60.451 265.3C60.2084 265.636 60.0264 266.042 59.905 266.518C59.793 266.985 59.737 267.512 59.737 268.1ZM70.6807 263.144H71.4787V273H70.3027V264.642L67.7687 265.804L67.3207 264.754L70.6807 263.144ZM77.5621 267.414C77.8794 267.414 78.1734 267.377 78.4441 267.302C78.7241 267.218 78.9668 267.106 79.1721 266.966C79.3774 266.826 79.5361 266.658 79.6481 266.462C79.7694 266.266 79.8301 266.051 79.8301 265.818C79.8301 265.314 79.6201 264.931 79.2001 264.67C78.7894 264.399 78.1594 264.264 77.3101 264.264C76.4888 264.264 75.8681 264.399 75.4481 264.67C75.0374 264.941 74.8321 265.323 74.8321 265.818C74.8321 266.042 74.8881 266.252 75.0001 266.448C75.1121 266.644 75.2661 266.817 75.4621 266.966C75.6674 267.106 75.9101 267.218 76.1901 267.302C76.4794 267.377 76.7921 267.414 77.1281 267.414H77.5621ZM77.1841 268.52C76.7921 268.52 76.4281 268.567 76.0921 268.66C75.7654 268.744 75.4854 268.865 75.2521 269.024C75.0188 269.173 74.8368 269.355 74.7061 269.57C74.5754 269.775 74.5101 269.995 74.5101 270.228C74.5101 270.732 74.7434 271.143 75.2101 271.46C75.6861 271.777 76.3908 271.936 77.3241 271.936C78.2854 271.936 78.9948 271.787 79.4521 271.488C79.9094 271.18 80.1381 270.765 80.1381 270.242C80.1381 269.691 79.9001 269.267 79.4241 268.968C78.9574 268.669 78.3274 268.52 77.5341 268.52H77.1841ZM77.3381 273.126C76.7128 273.126 76.1481 273.065 75.6441 272.944C75.1494 272.813 74.7248 272.631 74.3701 272.398C74.0248 272.155 73.7541 271.866 73.5581 271.53C73.3714 271.185 73.2781 270.793 73.2781 270.354C73.2781 269.775 73.4508 269.276 73.7961 268.856C74.1508 268.427 74.6221 268.119 75.2101 267.932C74.9301 267.839 74.6874 267.717 74.4821 267.568C74.2768 267.409 74.1088 267.232 73.9781 267.036C73.8474 266.84 73.7494 266.635 73.6841 266.42C73.6281 266.196 73.6001 265.967 73.6001 265.734C73.6001 264.922 73.9174 264.278 74.5521 263.802C75.1961 263.317 76.1201 263.074 77.3241 263.074C78.5374 263.074 79.4614 263.317 80.0961 263.802C80.7401 264.278 81.0621 264.922 81.0621 265.734C81.0621 266.238 80.9221 266.663 80.6421 267.008C80.3714 267.353 79.9934 267.638 79.5081 267.862C80.1801 268.067 80.6561 268.375 80.9361 268.786C81.2254 269.197 81.3701 269.701 81.3701 270.298C81.3701 270.746 81.2768 271.147 81.0901 271.502C80.9034 271.847 80.6328 272.141 80.2781 272.384C79.9328 272.627 79.5081 272.813 79.0041 272.944C78.5094 273.065 77.9541 273.126 77.3381 273.126Z" fill="#777F8C"/>
<rect x="29" y="133" width="30" height="120" fill="#BFCED4"/>
<rect x="29" y="133" width="30" height="4" fill="#A6B2BC"/>
<path d="M36.6434 124.153C35.8501 124.153 35.1304 124.028 34.4844 123.779C33.8498 123.53 33.3058 123.161 32.8524 122.674C32.3991 122.175 32.0478 121.569 31.7984 120.855C31.5604 120.141 31.4414 119.314 31.4414 118.373C31.4414 117.308 31.5831 116.373 31.8664 115.568C32.1498 114.763 32.5294 114.095 33.0054 113.562C33.4928 113.018 34.0538 112.616 34.6884 112.355C35.3344 112.083 36.0144 111.947 36.7284 111.947C37.7598 111.947 38.6381 112.157 39.3634 112.576C40.0888 112.995 40.6158 113.562 40.9445 114.276L39.7884 115.058C39.4598 114.548 39.0348 114.146 38.5134 113.851C38.0034 113.545 37.3858 113.392 36.6604 113.392C36.0938 113.392 35.5838 113.505 35.1304 113.732C34.6771 113.947 34.2861 114.265 33.9574 114.684C33.6288 115.092 33.3738 115.591 33.1924 116.18C33.0111 116.758 32.9148 117.41 32.9034 118.135V118.322C33.0621 117.948 33.2774 117.619 33.5494 117.336C33.8328 117.053 34.1501 116.815 34.5014 116.622C34.8528 116.429 35.2268 116.288 35.6234 116.197C36.0314 116.095 36.4451 116.044 36.8644 116.044C37.5558 116.044 38.1791 116.14 38.7344 116.333C39.2898 116.526 39.7601 116.798 40.1454 117.149C40.5421 117.5 40.8424 117.92 41.0464 118.407C41.2504 118.894 41.3525 119.433 41.3525 120.022C41.3525 120.634 41.2278 121.195 40.9784 121.705C40.7404 122.215 40.4061 122.651 39.9754 123.014C39.5561 123.377 39.0574 123.66 38.4794 123.864C37.9128 124.057 37.3008 124.153 36.6434 124.153ZM36.6264 122.708C37.1024 122.708 37.5331 122.646 37.9184 122.521C38.3151 122.396 38.6551 122.221 38.9384 121.994C39.2331 121.756 39.4598 121.478 39.6185 121.161C39.7771 120.844 39.8565 120.487 39.8565 120.09C39.8565 119.659 39.7771 119.285 39.6185 118.968C39.4711 118.639 39.2614 118.367 38.9894 118.152C38.7174 117.925 38.3888 117.761 38.0034 117.659C37.6294 117.546 37.2214 117.489 36.7794 117.489C35.6914 117.489 34.8641 117.721 34.2974 118.186C33.7421 118.651 33.4644 119.246 33.4644 119.971C33.4644 120.345 33.5381 120.696 33.6854 121.025C33.8328 121.354 34.0424 121.643 34.3144 121.892C34.5864 122.141 34.9151 122.34 35.3004 122.487C35.6971 122.634 36.1391 122.708 36.6264 122.708ZM42.5261 125.649C42.6734 125.615 42.8264 125.553 42.9851 125.462C43.1551 125.371 43.3081 125.258 43.4441 125.122C43.5801 124.986 43.6878 124.839 43.7671 124.68C43.8578 124.521 43.9031 124.357 43.9031 124.187C43.9031 124.108 43.8974 124.045 43.8861 124C43.8294 124.011 43.7614 124.017 43.6821 124.017C43.4328 124.017 43.2174 123.938 43.0361 123.779C42.8661 123.62 42.7811 123.394 42.7811 123.099C42.7811 122.804 42.8718 122.572 43.0531 122.402C43.2344 122.221 43.4894 122.13 43.8181 122.13C44.1808 122.13 44.4754 122.255 44.7021 122.504C44.9401 122.742 45.0591 123.105 45.0591 123.592C45.0591 124.057 44.9968 124.453 44.8721 124.782C44.7474 125.111 44.5831 125.388 44.3791 125.615C44.1751 125.842 43.9428 126.017 43.6821 126.142C43.4214 126.278 43.1551 126.38 42.8831 126.448L42.5261 125.649ZM46.4659 118.05C46.4659 117.166 46.5679 116.356 46.7719 115.619C46.9759 114.871 47.2819 114.225 47.6899 113.681C48.1092 113.137 48.6362 112.712 49.2709 112.406C49.9055 112.1 50.6535 111.947 51.5149 111.947C52.3762 111.947 53.1242 112.089 53.7589 112.372C54.3935 112.655 54.9205 113.063 55.3399 113.596C55.7592 114.129 56.0709 114.775 56.2749 115.534C56.4789 116.282 56.5809 117.121 56.5809 118.05C56.5809 118.934 56.4789 119.75 56.2749 120.498C56.0822 121.235 55.7762 121.875 55.3569 122.419C54.9489 122.963 54.4275 123.388 53.7929 123.694C53.1582 124 52.4102 124.153 51.5489 124.153C50.7329 124.153 50.0075 124 49.3729 123.694C48.7382 123.388 48.2055 122.963 47.7749 122.419C47.3442 121.875 47.0155 121.235 46.7889 120.498C46.5735 119.75 46.4659 118.934 46.4659 118.05ZM47.9619 118.05C47.9619 119.501 48.2792 120.64 48.9139 121.467C49.5485 122.294 50.4269 122.708 51.5489 122.708C52.7729 122.708 53.6682 122.294 54.2349 121.467C54.8015 120.64 55.0849 119.501 55.0849 118.05C55.0849 116.599 54.7959 115.46 54.2179 114.633C53.6399 113.806 52.7389 113.392 51.5149 113.392C50.9029 113.392 50.3759 113.5 49.9339 113.715C49.4919 113.93 49.1235 114.242 48.8289 114.65C48.5342 115.058 48.3132 115.551 48.1659 116.129C48.0299 116.696 47.9619 117.336 47.9619 118.05Z" fill="#222429"/>
<rect x="69" y="88" width="30" height="165" fill="#5FAF2D"/>
<rect x="69" y="88" width="30" height="4" fill="#3D7917"/>
<path d="M77.1751 72.217C77.5604 72.217 77.9174 72.1717 78.2461 72.081C78.5861 71.979 78.8808 71.843 79.1301 71.673C79.3794 71.503 79.5721 71.299 79.7081 71.061C79.8554 70.823 79.9291 70.5623 79.9291 70.279C79.9291 69.667 79.6741 69.2023 79.1641 68.885C78.6654 68.5563 77.9004 68.392 76.8691 68.392C75.8718 68.392 75.1181 68.5563 74.6081 68.885C74.1094 69.2137 73.8601 69.6783 73.8601 70.279C73.8601 70.551 73.9281 70.806 74.0641 71.044C74.2001 71.282 74.3871 71.4917 74.6251 71.673C74.8744 71.843 75.1691 71.979 75.5091 72.081C75.8604 72.1717 76.2401 72.217 76.6481 72.217H77.1751ZM76.7161 73.56C76.2401 73.56 75.7981 73.6167 75.3901 73.73C74.9934 73.832 74.6534 73.9793 74.3701 74.172C74.0868 74.3533 73.8658 74.5743 73.7071 74.835C73.5484 75.0843 73.4691 75.3507 73.4691 75.634C73.4691 76.246 73.7524 76.7447 74.3191 77.13C74.8971 77.5153 75.7528 77.708 76.8861 77.708C78.0534 77.708 78.9148 77.5267 79.4701 77.164C80.0254 76.79 80.3031 76.2857 80.3031 75.651C80.3031 74.9823 80.0141 74.4667 79.4361 74.104C78.8694 73.7413 78.1044 73.56 77.1411 73.56H76.7161ZM76.9031 79.153C76.1438 79.153 75.4581 79.0793 74.8461 78.932C74.2454 78.7733 73.7298 78.5523 73.2991 78.269C72.8798 77.9743 72.5511 77.623 72.3131 77.215C72.0864 76.7957 71.9731 76.3197 71.9731 75.787C71.9731 75.0843 72.1828 74.478 72.6021 73.968C73.0328 73.4467 73.6051 73.0727 74.3191 72.846C73.9791 72.7327 73.6844 72.5853 73.4351 72.404C73.1858 72.2113 72.9818 71.996 72.8231 71.758C72.6644 71.52 72.5454 71.2707 72.4661 71.01C72.3981 70.738 72.3641 70.4603 72.3641 70.177C72.3641 69.191 72.7494 68.409 73.5201 67.831C74.3021 67.2417 75.4241 66.947 76.8861 66.947C78.3594 66.947 79.4814 67.2417 80.2521 67.831C81.0341 68.409 81.4251 69.191 81.4251 70.177C81.4251 70.789 81.2551 71.3047 80.9151 71.724C80.5864 72.1433 80.1274 72.489 79.5381 72.761C80.3541 73.0103 80.9321 73.3843 81.2721 73.883C81.6234 74.3817 81.7991 74.9937 81.7991 75.719C81.7991 76.263 81.6858 76.7503 81.4591 77.181C81.2324 77.6003 80.9038 77.9573 80.4731 78.252C80.0538 78.5467 79.5381 78.7733 78.9261 78.932C78.3254 79.0793 77.6511 79.153 76.9031 79.153ZM83.074 80.649C83.2213 80.615 83.3743 80.5527 83.533 80.462C83.703 80.3713 83.856 80.258 83.992 80.122C84.128 79.986 84.2356 79.8387 84.315 79.68C84.4056 79.5213 84.451 79.357 84.451 79.187C84.451 79.1077 84.4453 79.0453 84.434 79C84.3773 79.0113 84.3093 79.017 84.23 79.017C83.9806 79.017 83.7653 78.9377 83.584 78.779C83.414 78.6203 83.329 78.3937 83.329 78.099C83.329 77.8043 83.4196 77.572 83.601 77.402C83.7823 77.2207 84.0373 77.13 84.366 77.13C84.7286 77.13 85.0233 77.2547 85.25 77.504C85.488 77.742 85.607 78.1047 85.607 78.592C85.607 79.0567 85.5446 79.4533 85.42 79.782C85.2953 80.1107 85.131 80.3883 84.927 80.615C84.723 80.8417 84.4906 81.0173 84.23 81.142C83.9693 81.278 83.703 81.38 83.431 81.448L83.074 80.649ZM86.9117 69.99C87.0704 69.548 87.2857 69.1457 87.5577 68.783C87.8297 68.409 88.1584 68.086 88.5437 67.814C88.9404 67.542 89.3937 67.3323 89.9037 67.185C90.425 67.0263 91.0087 66.947 91.6547 66.947C92.2327 66.947 92.7654 67.0207 93.2527 67.168C93.7514 67.304 94.1764 67.5023 94.5277 67.763C94.8904 68.0123 95.168 68.324 95.3607 68.698C95.5647 69.072 95.6667 69.4857 95.6667 69.939C95.6667 70.6303 95.4854 71.2197 95.1227 71.707C94.7714 72.1943 94.2557 72.5343 93.5757 72.727C93.8704 72.7497 94.1594 72.8233 94.4427 72.948C94.726 73.0613 94.9754 73.237 95.1907 73.475C95.4174 73.7017 95.5987 73.9907 95.7347 74.342C95.8707 74.682 95.9387 75.09 95.9387 75.566C95.9387 76.144 95.8254 76.6597 95.5987 77.113C95.3834 77.555 95.0774 77.929 94.6807 78.235C94.2954 78.5297 93.8364 78.7563 93.3037 78.915C92.771 79.0737 92.1987 79.153 91.5867 79.153C90.918 79.153 90.306 79.0737 89.7507 78.915C89.2067 78.7563 88.725 78.541 88.3057 78.269C87.8864 77.9857 87.5294 77.6513 87.2347 77.266C86.9514 76.8693 86.736 76.433 86.5887 75.957L87.9657 75.362C88.113 75.668 88.2887 75.9627 88.4927 76.246C88.6967 76.5293 88.946 76.7787 89.2407 76.994C89.5354 77.2093 89.881 77.385 90.2777 77.521C90.6744 77.6457 91.1447 77.708 91.6887 77.708C92.5387 77.708 93.2074 77.5267 93.6947 77.164C94.1934 76.79 94.4427 76.263 94.4427 75.583C94.4427 75.209 94.3634 74.8973 94.2047 74.648C94.046 74.3873 93.825 74.1833 93.5417 74.036C93.2584 73.8773 92.924 73.7697 92.5387 73.713C92.1647 73.645 91.7567 73.611 91.3147 73.611H89.9887V72.2H91.0427C92.0287 72.2 92.7937 72.013 93.3377 71.639C93.893 71.265 94.1707 70.7947 94.1707 70.228C94.1707 69.616 93.9384 69.157 93.4737 68.851C93.009 68.545 92.38 68.392 91.5867 68.392C91.0994 68.392 90.6687 68.4543 90.2947 68.579C89.9207 68.7037 89.592 68.868 89.3087 69.072C89.0367 69.276 88.8044 69.5083 88.6117 69.769C88.4304 70.0297 88.2887 70.296 88.1867 70.568L86.9117 69.99Z" fill="#222429"/>
<path d="M150.171 266.07C150.255 265.669 150.395 265.286 150.591 264.922C150.787 264.558 151.039 264.241 151.347 263.97C151.655 263.69 152.023 263.471 152.453 263.312C152.882 263.153 153.372 263.074 153.923 263.074C154.436 263.074 154.893 263.149 155.295 263.298C155.696 263.438 156.037 263.639 156.317 263.9C156.597 264.161 156.807 264.474 156.947 264.838C157.096 265.202 157.171 265.599 157.171 266.028C157.171 266.635 157.04 267.195 156.779 267.708C156.527 268.212 156.205 268.674 155.813 269.094C155.421 269.514 154.991 269.897 154.525 270.242C154.058 270.578 153.615 270.877 153.195 271.138L152.117 271.81H157.535V273H149.905V272.02L152.033 270.606C152.733 270.139 153.33 269.71 153.825 269.318C154.319 268.917 154.721 268.539 155.029 268.184C155.346 267.829 155.575 267.489 155.715 267.162C155.864 266.826 155.939 266.49 155.939 266.154C155.939 265.809 155.883 265.515 155.771 265.272C155.668 265.029 155.519 264.833 155.323 264.684C155.136 264.535 154.912 264.427 154.651 264.362C154.399 264.297 154.128 264.264 153.839 264.264C153.419 264.264 153.055 264.329 152.747 264.46C152.448 264.591 152.191 264.763 151.977 264.978C151.771 265.183 151.608 265.417 151.487 265.678C151.375 265.93 151.3 266.182 151.263 266.434L150.171 266.07ZM158.505 268.1C158.505 267.372 158.589 266.705 158.757 266.098C158.925 265.482 159.177 264.95 159.513 264.502C159.858 264.054 160.292 263.704 160.815 263.452C161.338 263.2 161.954 263.074 162.663 263.074C163.372 263.074 163.988 263.191 164.511 263.424C165.034 263.657 165.468 263.993 165.813 264.432C166.158 264.871 166.415 265.403 166.583 266.028C166.751 266.644 166.835 267.335 166.835 268.1C166.835 268.828 166.751 269.5 166.583 270.116C166.424 270.723 166.172 271.25 165.827 271.698C165.491 272.146 165.062 272.496 164.539 272.748C164.016 273 163.4 273.126 162.691 273.126C162.019 273.126 161.422 273 160.899 272.748C160.376 272.496 159.938 272.146 159.583 271.698C159.228 271.25 158.958 270.723 158.771 270.116C158.594 269.5 158.505 268.828 158.505 268.1ZM159.737 268.1C159.737 269.295 159.998 270.233 160.521 270.914C161.044 271.595 161.767 271.936 162.691 271.936C163.699 271.936 164.436 271.595 164.903 270.914C165.37 270.233 165.603 269.295 165.603 268.1C165.603 266.905 165.365 265.967 164.889 265.286C164.413 264.605 163.671 264.264 162.663 264.264C162.159 264.264 161.725 264.353 161.361 264.53C160.997 264.707 160.694 264.964 160.451 265.3C160.208 265.636 160.026 266.042 159.905 266.518C159.793 266.985 159.737 267.512 159.737 268.1ZM170.681 263.144H171.479V273H170.303V264.642L167.769 265.804L167.321 264.754L170.681 263.144ZM177.03 273.126C176.181 273.126 175.453 272.963 174.846 272.636C174.249 272.309 173.801 271.894 173.502 271.39L174.51 270.69C174.799 271.091 175.177 271.399 175.644 271.614C176.12 271.829 176.638 271.936 177.198 271.936C177.627 271.936 178.019 271.852 178.374 271.684C178.738 271.507 179.051 271.264 179.312 270.956C179.583 270.648 179.793 270.284 179.942 269.864C180.091 269.444 180.166 268.987 180.166 268.492C180.166 268.436 180.166 268.38 180.166 268.324C180.166 268.268 180.161 268.212 180.152 268.156C179.928 268.688 179.545 269.131 179.004 269.486C178.472 269.831 177.795 270.004 176.974 270.004C176.433 270.004 175.933 269.925 175.476 269.766C175.019 269.598 174.622 269.369 174.286 269.08C173.95 268.781 173.689 268.427 173.502 268.016C173.315 267.605 173.222 267.148 173.222 266.644C173.222 266.103 173.32 265.613 173.516 265.174C173.721 264.726 174.006 264.348 174.37 264.04C174.734 263.732 175.168 263.494 175.672 263.326C176.185 263.158 176.75 263.074 177.366 263.074C177.991 263.074 178.551 263.181 179.046 263.396C179.55 263.601 179.975 263.909 180.32 264.32C180.675 264.731 180.945 265.239 181.132 265.846C181.319 266.443 181.412 267.134 181.412 267.918C181.412 268.777 181.305 269.533 181.09 270.186C180.885 270.83 180.586 271.371 180.194 271.81C179.811 272.239 179.349 272.566 178.808 272.79C178.276 273.014 177.683 273.126 177.03 273.126ZM177.198 268.814C177.599 268.814 177.963 268.758 178.29 268.646C178.617 268.534 178.892 268.38 179.116 268.184C179.349 267.979 179.527 267.741 179.648 267.47C179.769 267.199 179.83 266.91 179.83 266.602C179.83 266.303 179.783 266.014 179.69 265.734C179.597 265.454 179.447 265.207 179.242 264.992C179.037 264.768 178.766 264.591 178.43 264.46C178.103 264.329 177.702 264.264 177.226 264.264C176.358 264.264 175.677 264.46 175.182 264.852C174.697 265.235 174.454 265.799 174.454 266.546C174.454 267.255 174.701 267.811 175.196 268.212C175.691 268.613 176.358 268.814 177.198 268.814Z" fill="#777F8C"/>
<rect x="129" y="128" width="30" height="125" fill="#BFCED4"/>
<rect x="129" y="128" width="30" height="4" fill="#A6B2BC"/>
<path d="M137.175 119.153C136.381 119.153 135.662 119.028 135.016 118.779C134.381 118.53 133.837 118.161 133.384 117.674C132.93 117.175 132.579 116.569 132.33 115.855C132.092 115.141 131.973 114.314 131.973 113.373C131.973 112.308 132.114 111.373 132.398 110.568C132.681 109.763 133.061 109.095 133.537 108.562C134.024 108.018 134.585 107.616 135.22 107.355C135.866 107.083 136.546 106.947 137.26 106.947C138.291 106.947 139.169 107.157 139.895 107.576C140.62 107.995 141.147 108.562 141.476 109.276L140.32 110.058C139.991 109.548 139.566 109.146 139.045 108.851C138.535 108.545 137.917 108.392 137.192 108.392C136.625 108.392 136.115 108.505 135.662 108.732C135.208 108.947 134.817 109.265 134.489 109.684C134.16 110.092 133.905 110.591 133.724 111.18C133.542 111.758 133.446 112.41 133.435 113.135V113.322C133.593 112.948 133.809 112.619 134.081 112.336C134.364 112.053 134.681 111.815 135.033 111.622C135.384 111.429 135.758 111.288 136.155 111.197C136.563 111.095 136.976 111.044 137.396 111.044C138.087 111.044 138.71 111.14 139.266 111.333C139.821 111.526 140.291 111.798 140.677 112.149C141.073 112.5 141.374 112.92 141.578 113.407C141.782 113.894 141.884 114.433 141.884 115.022C141.884 115.634 141.759 116.195 141.51 116.705C141.272 117.215 140.937 117.651 140.507 118.014C140.087 118.377 139.589 118.66 139.011 118.864C138.444 119.057 137.832 119.153 137.175 119.153ZM137.158 117.708C137.634 117.708 138.064 117.646 138.45 117.521C138.846 117.396 139.186 117.221 139.47 116.994C139.764 116.756 139.991 116.478 140.15 116.161C140.308 115.844 140.388 115.487 140.388 115.09C140.388 114.659 140.308 114.285 140.15 113.968C140.002 113.639 139.793 113.367 139.521 113.152C139.249 112.925 138.92 112.761 138.535 112.659C138.161 112.546 137.753 112.489 137.311 112.489C136.223 112.489 135.395 112.721 134.829 113.186C134.273 113.651 133.996 114.246 133.996 114.971C133.996 115.345 134.069 115.696 134.217 116.025C134.364 116.354 134.574 116.643 134.846 116.892C135.118 117.141 135.446 117.34 135.832 117.487C136.228 117.634 136.67 117.708 137.158 117.708ZM143.057 120.649C143.205 120.615 143.358 120.553 143.516 120.462C143.686 120.371 143.839 120.258 143.975 120.122C144.111 119.986 144.219 119.839 144.298 119.68C144.389 119.521 144.434 119.357 144.434 119.187C144.434 119.108 144.429 119.045 144.417 119C144.361 119.011 144.293 119.017 144.213 119.017C143.964 119.017 143.749 118.938 143.567 118.779C143.397 118.62 143.312 118.394 143.312 118.099C143.312 117.804 143.403 117.572 143.584 117.402C143.766 117.221 144.021 117.13 144.349 117.13C144.712 117.13 145.007 117.255 145.233 117.504C145.471 117.742 145.59 118.105 145.59 118.592C145.59 119.057 145.528 119.453 145.403 119.782C145.279 120.111 145.114 120.388 144.91 120.615C144.706 120.842 144.474 121.017 144.213 121.142C143.953 121.278 143.686 121.38 143.414 121.448L143.057 120.649ZM146.895 109.99C147.054 109.548 147.269 109.146 147.541 108.783C147.813 108.409 148.142 108.086 148.527 107.814C148.924 107.542 149.377 107.332 149.887 107.185C150.408 107.026 150.992 106.947 151.638 106.947C152.216 106.947 152.749 107.021 153.236 107.168C153.735 107.304 154.16 107.502 154.511 107.763C154.874 108.012 155.151 108.324 155.344 108.698C155.548 109.072 155.65 109.486 155.65 109.939C155.65 110.63 155.469 111.22 155.106 111.707C154.755 112.194 154.239 112.534 153.559 112.727C153.854 112.75 154.143 112.823 154.426 112.948C154.709 113.061 154.959 113.237 155.174 113.475C155.401 113.702 155.582 113.991 155.718 114.342C155.854 114.682 155.922 115.09 155.922 115.566C155.922 116.144 155.809 116.66 155.582 117.113C155.367 117.555 155.061 117.929 154.664 118.235C154.279 118.53 153.82 118.756 153.287 118.915C152.754 119.074 152.182 119.153 151.57 119.153C150.901 119.153 150.289 119.074 149.734 118.915C149.19 118.756 148.708 118.541 148.289 118.269C147.87 117.986 147.513 117.651 147.218 117.266C146.935 116.869 146.719 116.433 146.572 115.957L147.949 115.362C148.096 115.668 148.272 115.963 148.476 116.246C148.68 116.529 148.929 116.779 149.224 116.994C149.519 117.209 149.864 117.385 150.261 117.521C150.658 117.646 151.128 117.708 151.672 117.708C152.522 117.708 153.191 117.527 153.678 117.164C154.177 116.79 154.426 116.263 154.426 115.583C154.426 115.209 154.347 114.897 154.188 114.648C154.029 114.387 153.808 114.183 153.525 114.036C153.242 113.877 152.907 113.77 152.522 113.713C152.148 113.645 151.74 113.611 151.298 113.611H149.972V112.2H151.026C152.012 112.2 152.777 112.013 153.321 111.639C153.876 111.265 154.154 110.795 154.154 110.228C154.154 109.616 153.922 109.157 153.457 108.851C152.992 108.545 152.363 108.392 151.57 108.392C151.083 108.392 150.652 108.454 150.278 108.579C149.904 108.704 149.575 108.868 149.292 109.072C149.02 109.276 148.788 109.508 148.595 109.769C148.414 110.03 148.272 110.296 148.17 110.568L146.895 109.99Z" fill="#222429"/>
<rect x="169" y="90" width="30" height="163" fill="#5FAF2D"/>
<rect x="169" y="90" width="30" height="4" fill="#3D7917"/>
<path d="M177.217 74.217C177.602 74.217 177.959 74.1717 178.288 74.081C178.628 73.979 178.922 73.843 179.172 73.673C179.421 73.503 179.614 73.299 179.75 73.061C179.897 72.823 179.971 72.5623 179.971 72.279C179.971 71.667 179.716 71.2023 179.206 70.885C178.707 70.5563 177.942 70.392 176.911 70.392C175.913 70.392 175.16 70.5563 174.65 70.885C174.151 71.2137 173.902 71.6783 173.902 72.279C173.902 72.551 173.97 72.806 174.106 73.044C174.242 73.282 174.429 73.4917 174.667 73.673C174.916 73.843 175.211 73.979 175.551 74.081C175.902 74.1717 176.282 74.217 176.69 74.217H177.217ZM176.758 75.56C176.282 75.56 175.84 75.6167 175.432 75.73C175.035 75.832 174.695 75.9793 174.412 76.172C174.128 76.3533 173.907 76.5743 173.749 76.835C173.59 77.0843 173.511 77.3507 173.511 77.634C173.511 78.246 173.794 78.7447 174.361 79.13C174.939 79.5153 175.794 79.708 176.928 79.708C178.095 79.708 178.956 79.5267 179.512 79.164C180.067 78.79 180.345 78.2857 180.345 77.651C180.345 76.9823 180.056 76.4667 179.478 76.104C178.911 75.7413 178.146 75.56 177.183 75.56H176.758ZM176.945 81.153C176.185 81.153 175.5 81.0793 174.888 80.932C174.287 80.7733 173.771 80.5523 173.341 80.269C172.921 79.9743 172.593 79.623 172.355 79.215C172.128 78.7957 172.015 78.3197 172.015 77.787C172.015 77.0843 172.224 76.478 172.644 75.968C173.074 75.4467 173.647 75.0727 174.361 74.846C174.021 74.7327 173.726 74.5853 173.477 74.404C173.227 74.2113 173.023 73.996 172.865 73.758C172.706 73.52 172.587 73.2707 172.508 73.01C172.44 72.738 172.406 72.4603 172.406 72.177C172.406 71.191 172.791 70.409 173.562 69.831C174.344 69.2417 175.466 68.947 176.928 68.947C178.401 68.947 179.523 69.2417 180.294 69.831C181.076 70.409 181.467 71.191 181.467 72.177C181.467 72.789 181.297 73.3047 180.957 73.724C180.628 74.1433 180.169 74.489 179.58 74.761C180.396 75.0103 180.974 75.3843 181.314 75.883C181.665 76.3817 181.841 76.9937 181.841 77.719C181.841 78.263 181.727 78.7503 181.501 79.181C181.274 79.6003 180.945 79.9573 180.515 80.252C180.095 80.5467 179.58 80.7733 178.968 80.932C178.367 81.0793 177.693 81.153 176.945 81.153ZM183.115 82.649C183.263 82.615 183.416 82.5527 183.574 82.462C183.744 82.3713 183.897 82.258 184.033 82.122C184.169 81.986 184.277 81.8387 184.356 81.68C184.447 81.5213 184.492 81.357 184.492 81.187C184.492 81.1077 184.487 81.0453 184.475 81C184.419 81.0113 184.351 81.017 184.271 81.017C184.022 81.017 183.807 80.9377 183.625 80.779C183.455 80.6203 183.37 80.3937 183.37 80.099C183.37 79.8043 183.461 79.572 183.642 79.402C183.824 79.2207 184.079 79.13 184.407 79.13C184.77 79.13 185.065 79.2547 185.291 79.504C185.529 79.742 185.648 80.1047 185.648 80.592C185.648 81.0567 185.586 81.4533 185.461 81.782C185.337 82.1107 185.172 82.3883 184.968 82.615C184.764 82.8417 184.532 83.0173 184.271 83.142C184.011 83.278 183.744 83.38 183.472 83.448L183.115 82.649ZM187.174 72.585C187.276 72.0977 187.446 71.633 187.684 71.191C187.922 70.749 188.228 70.3637 188.602 70.035C188.976 69.695 189.424 69.4287 189.945 69.236C190.467 69.0433 191.062 68.947 191.73 68.947C192.354 68.947 192.909 69.0377 193.396 69.219C193.884 69.389 194.297 69.6327 194.637 69.95C194.977 70.2673 195.232 70.647 195.402 71.089C195.584 71.531 195.674 72.0127 195.674 72.534C195.674 73.2707 195.516 73.9507 195.198 74.574C194.892 75.186 194.501 75.747 194.025 76.257C193.549 76.767 193.028 77.2317 192.461 77.651C191.895 78.059 191.356 78.4217 190.846 78.739L189.537 79.555H196.116V81H186.851V79.81L189.435 78.093C190.285 77.5263 191.011 77.005 191.611 76.529C192.212 76.0417 192.699 75.5827 193.073 75.152C193.459 74.7213 193.736 74.3077 193.906 73.911C194.088 73.503 194.178 73.095 194.178 72.687C194.178 72.2677 194.11 71.9107 193.974 71.616C193.85 71.3213 193.668 71.0833 193.43 70.902C193.204 70.7207 192.932 70.5903 192.614 70.511C192.308 70.4317 191.98 70.392 191.628 70.392C191.118 70.392 190.676 70.4713 190.302 70.63C189.94 70.7887 189.628 70.9983 189.367 71.259C189.118 71.5083 188.92 71.7917 188.772 72.109C188.636 72.415 188.546 72.721 188.5 73.027L187.174 72.585Z" fill="#222429"/>
<path d="M246.944 266.07C247.028 265.669 247.168 265.286 247.364 264.922C247.56 264.558 247.812 264.241 248.12 263.97C248.428 263.69 248.797 263.471 249.226 263.312C249.656 263.153 250.146 263.074 250.696 263.074C251.21 263.074 251.667 263.149 252.068 263.298C252.47 263.438 252.81 263.639 253.09 263.9C253.37 264.161 253.58 264.474 253.72 264.838C253.87 265.202 253.944 265.599 253.944 266.028C253.944 266.635 253.814 267.195 253.552 267.708C253.3 268.212 252.978 268.674 252.586 269.094C252.194 269.514 251.765 269.897 251.298 270.242C250.832 270.578 250.388 270.877 249.968 271.138L248.89 271.81H254.308V273H246.678V272.02L248.806 270.606C249.506 270.139 250.104 269.71 250.598 269.318C251.093 268.917 251.494 268.539 251.802 268.184C252.12 267.829 252.348 267.489 252.488 267.162C252.638 266.826 252.712 266.49 252.712 266.154C252.712 265.809 252.656 265.515 252.544 265.272C252.442 265.029 252.292 264.833 252.096 264.684C251.91 264.535 251.686 264.427 251.424 264.362C251.172 264.297 250.902 264.264 250.612 264.264C250.192 264.264 249.828 264.329 249.52 264.46C249.222 264.591 248.965 264.763 248.75 264.978C248.545 265.183 248.382 265.417 248.26 265.678C248.148 265.93 248.074 266.182 248.036 266.434L246.944 266.07ZM255.278 268.1C255.278 267.372 255.362 266.705 255.53 266.098C255.698 265.482 255.95 264.95 256.286 264.502C256.632 264.054 257.066 263.704 257.588 263.452C258.111 263.2 258.727 263.074 259.436 263.074C260.146 263.074 260.762 263.191 261.284 263.424C261.807 263.657 262.241 263.993 262.586 264.432C262.932 264.871 263.188 265.403 263.356 266.028C263.524 266.644 263.608 267.335 263.608 268.1C263.608 268.828 263.524 269.5 263.356 270.116C263.198 270.723 262.946 271.25 262.6 271.698C262.264 272.146 261.835 272.496 261.312 272.748C260.79 273 260.174 273.126 259.464 273.126C258.792 273.126 258.195 273 257.672 272.748C257.15 272.496 256.711 272.146 256.356 271.698C256.002 271.25 255.731 270.723 255.544 270.116C255.367 269.5 255.278 268.828 255.278 268.1ZM256.51 268.1C256.51 269.295 256.772 270.233 257.294 270.914C257.817 271.595 258.54 271.936 259.464 271.936C260.472 271.936 261.21 271.595 261.676 270.914C262.143 270.233 262.376 269.295 262.376 268.1C262.376 266.905 262.138 265.967 261.662 265.286C261.186 264.605 260.444 264.264 259.436 264.264C258.932 264.264 258.498 264.353 258.134 264.53C257.77 264.707 257.467 264.964 257.224 265.3C256.982 265.636 256.8 266.042 256.678 266.518C256.566 266.985 256.51 267.512 256.51 268.1ZM264.752 266.07C264.836 265.669 264.976 265.286 265.172 264.922C265.368 264.558 265.62 264.241 265.928 263.97C266.236 263.69 266.605 263.471 267.034 263.312C267.463 263.153 267.953 263.074 268.504 263.074C269.017 263.074 269.475 263.149 269.876 263.298C270.277 263.438 270.618 263.639 270.898 263.9C271.178 264.161 271.388 264.474 271.528 264.838C271.677 265.202 271.752 265.599 271.752 266.028C271.752 266.635 271.621 267.195 271.36 267.708C271.108 268.212 270.786 268.674 270.394 269.094C270.002 269.514 269.573 269.897 269.106 270.242C268.639 270.578 268.196 270.877 267.776 271.138L266.698 271.81H272.116V273H264.486V272.02L266.614 270.606C267.314 270.139 267.911 269.71 268.406 269.318C268.901 268.917 269.302 268.539 269.61 268.184C269.927 267.829 270.156 267.489 270.296 267.162C270.445 266.826 270.52 266.49 270.52 266.154C270.52 265.809 270.464 265.515 270.352 265.272C270.249 265.029 270.1 264.833 269.904 264.684C269.717 264.535 269.493 264.427 269.232 264.362C268.98 264.297 268.709 264.264 268.42 264.264C268 264.264 267.636 264.329 267.328 264.46C267.029 264.591 266.773 264.763 266.558 264.978C266.353 265.183 266.189 265.417 266.068 265.678C265.956 265.93 265.881 266.182 265.844 266.434L264.752 266.07ZM273.086 268.1C273.086 267.372 273.17 266.705 273.338 266.098C273.506 265.482 273.758 264.95 274.094 264.502C274.44 264.054 274.874 263.704 275.396 263.452C275.919 263.2 276.535 263.074 277.244 263.074C277.954 263.074 278.57 263.191 279.092 263.424C279.615 263.657 280.049 263.993 280.394 264.432C280.74 264.871 280.996 265.403 281.164 266.028C281.332 266.644 281.416 267.335 281.416 268.1C281.416 268.828 281.332 269.5 281.164 270.116C281.006 270.723 280.754 271.25 280.408 271.698C280.072 272.146 279.643 272.496 279.12 272.748C278.598 273 277.982 273.126 277.272 273.126C276.6 273.126 276.003 273 275.48 272.748C274.958 272.496 274.519 272.146 274.164 271.698C273.81 271.25 273.539 270.723 273.352 270.116C273.175 269.5 273.086 268.828 273.086 268.1ZM274.318 268.1C274.318 269.295 274.58 270.233 275.102 270.914C275.625 271.595 276.348 271.936 277.272 271.936C278.28 271.936 279.018 271.595 279.484 270.914C279.951 270.233 280.184 269.295 280.184 268.1C280.184 266.905 279.946 265.967 279.47 265.286C278.994 264.605 278.252 264.264 277.244 264.264C276.74 264.264 276.306 264.353 275.942 264.53C275.578 264.707 275.275 264.964 275.032 265.3C274.79 265.636 274.608 266.042 274.486 266.518C274.374 266.985 274.318 267.512 274.318 268.1Z" fill="#777F8C"/>
<rect x="229" y="124" width="30" height="129" fill="#BFCED4"/>
<rect x="229" y="124" width="30" height="4" fill="#A6B2BC"/>
<path d="M237.075 115.153C236.282 115.153 235.562 115.028 234.916 114.779C234.281 114.53 233.737 114.161 233.284 113.674C232.831 113.175 232.479 112.569 232.23 111.855C231.992 111.141 231.873 110.314 231.873 109.373C231.873 108.308 232.015 107.373 232.298 106.568C232.581 105.763 232.961 105.095 233.437 104.562C233.924 104.018 234.485 103.616 235.12 103.355C235.766 103.083 236.446 102.947 237.16 102.947C238.191 102.947 239.07 103.157 239.795 103.576C240.52 103.995 241.047 104.562 241.376 105.276L240.22 106.058C239.891 105.548 239.466 105.146 238.945 104.851C238.435 104.545 237.817 104.392 237.092 104.392C236.525 104.392 236.015 104.505 235.562 104.732C235.109 104.947 234.718 105.265 234.389 105.684C234.06 106.092 233.805 106.591 233.624 107.18C233.443 107.758 233.346 108.41 233.335 109.135V109.322C233.494 108.948 233.709 108.619 233.981 108.336C234.264 108.053 234.582 107.815 234.933 107.622C235.284 107.429 235.658 107.288 236.055 107.197C236.463 107.095 236.877 107.044 237.296 107.044C237.987 107.044 238.611 107.14 239.166 107.333C239.721 107.526 240.192 107.798 240.577 108.149C240.974 108.5 241.274 108.92 241.478 109.407C241.682 109.894 241.784 110.433 241.784 111.022C241.784 111.634 241.659 112.195 241.41 112.705C241.172 113.215 240.838 113.651 240.407 114.014C239.988 114.377 239.489 114.66 238.911 114.864C238.344 115.057 237.732 115.153 237.075 115.153ZM237.058 113.708C237.534 113.708 237.965 113.646 238.35 113.521C238.747 113.396 239.087 113.221 239.37 112.994C239.665 112.756 239.891 112.478 240.05 112.161C240.209 111.844 240.288 111.487 240.288 111.09C240.288 110.659 240.209 110.285 240.05 109.968C239.903 109.639 239.693 109.367 239.421 109.152C239.149 108.925 238.82 108.761 238.435 108.659C238.061 108.546 237.653 108.489 237.211 108.489C236.123 108.489 235.296 108.721 234.729 109.186C234.174 109.651 233.896 110.246 233.896 110.971C233.896 111.345 233.97 111.696 234.117 112.025C234.264 112.354 234.474 112.643 234.746 112.892C235.018 113.141 235.347 113.34 235.732 113.487C236.129 113.634 236.571 113.708 237.058 113.708ZM242.958 116.649C243.105 116.615 243.258 116.553 243.417 116.462C243.587 116.371 243.74 116.258 243.876 116.122C244.012 115.986 244.119 115.839 244.199 115.68C244.289 115.521 244.335 115.357 244.335 115.187C244.335 115.108 244.329 115.045 244.318 115C244.261 115.011 244.193 115.017 244.114 115.017C243.864 115.017 243.649 114.938 243.468 114.779C243.298 114.62 243.213 114.394 243.213 114.099C243.213 113.804 243.303 113.572 243.485 113.402C243.666 113.221 243.921 113.13 244.25 113.13C244.612 113.13 244.907 113.255 245.134 113.504C245.372 113.742 245.491 114.105 245.491 114.592C245.491 115.057 245.428 115.453 245.304 115.782C245.179 116.111 245.015 116.388 244.811 116.615C244.607 116.842 244.374 117.017 244.114 117.142C243.853 117.278 243.587 117.38 243.315 117.448L242.958 116.649ZM248.105 103.1H255.585V104.545H249.414L248.972 107.741C249.232 107.548 249.584 107.39 250.026 107.265C250.479 107.129 251.029 107.061 251.675 107.061C252.389 107.061 253.023 107.163 253.579 107.367C254.134 107.571 254.599 107.854 254.973 108.217C255.347 108.58 255.63 109.005 255.823 109.492C256.027 109.979 256.129 110.501 256.129 111.056C256.129 111.657 256.01 112.206 255.772 112.705C255.545 113.204 255.222 113.634 254.803 113.997C254.395 114.36 253.907 114.643 253.341 114.847C252.785 115.051 252.179 115.153 251.522 115.153C250.978 115.153 250.456 115.091 249.958 114.966C249.459 114.841 248.994 114.654 248.564 114.405C248.144 114.156 247.77 113.855 247.442 113.504C247.124 113.141 246.869 112.722 246.677 112.246L248.037 111.668C248.15 111.929 248.309 112.184 248.513 112.433C248.717 112.671 248.966 112.886 249.261 113.079C249.555 113.272 249.89 113.425 250.264 113.538C250.638 113.651 251.057 113.708 251.522 113.708C252.043 113.708 252.496 113.64 252.882 113.504C253.278 113.357 253.607 113.164 253.868 112.926C254.128 112.688 254.321 112.416 254.446 112.11C254.57 111.793 254.633 111.458 254.633 111.107C254.633 110.302 254.332 109.668 253.732 109.203C253.142 108.738 252.321 108.506 251.267 108.506C250.666 108.506 250.162 108.591 249.754 108.761C249.357 108.92 248.983 109.175 248.632 109.526L247.408 109.203L248.105 103.1Z" fill="#222429"/>
<rect x="269" y="88" width="30" height="165" fill="#5FAF2D"/>
<rect x="269" y="88" width="30" height="4" fill="#3D7917"/>
<path d="M277.175 72.217C277.56 72.217 277.917 72.1717 278.246 72.081C278.586 71.979 278.881 71.843 279.13 71.673C279.379 71.503 279.572 71.299 279.708 71.061C279.855 70.823 279.929 70.5623 279.929 70.279C279.929 69.667 279.674 69.2023 279.164 68.885C278.665 68.5563 277.9 68.392 276.869 68.392C275.872 68.392 275.118 68.5563 274.608 68.885C274.109 69.2137 273.86 69.6783 273.86 70.279C273.86 70.551 273.928 70.806 274.064 71.044C274.2 71.282 274.387 71.4917 274.625 71.673C274.874 71.843 275.169 71.979 275.509 72.081C275.86 72.1717 276.24 72.217 276.648 72.217H277.175ZM276.716 73.56C276.24 73.56 275.798 73.6167 275.39 73.73C274.993 73.832 274.653 73.9793 274.37 74.172C274.087 74.3533 273.866 74.5743 273.707 74.835C273.548 75.0843 273.469 75.3507 273.469 75.634C273.469 76.246 273.752 76.7447 274.319 77.13C274.897 77.5153 275.753 77.708 276.886 77.708C278.053 77.708 278.915 77.5267 279.47 77.164C280.025 76.79 280.303 76.2857 280.303 75.651C280.303 74.9823 280.014 74.4667 279.436 74.104C278.869 73.7413 278.104 73.56 277.141 73.56H276.716ZM276.903 79.153C276.144 79.153 275.458 79.0793 274.846 78.932C274.245 78.7733 273.73 78.5523 273.299 78.269C272.88 77.9743 272.551 77.623 272.313 77.215C272.086 76.7957 271.973 76.3197 271.973 75.787C271.973 75.0843 272.183 74.478 272.602 73.968C273.033 73.4467 273.605 73.0727 274.319 72.846C273.979 72.7327 273.684 72.5853 273.435 72.404C273.186 72.2113 272.982 71.996 272.823 71.758C272.664 71.52 272.545 71.2707 272.466 71.01C272.398 70.738 272.364 70.4603 272.364 70.177C272.364 69.191 272.749 68.409 273.52 67.831C274.302 67.2417 275.424 66.947 276.886 66.947C278.359 66.947 279.481 67.2417 280.252 67.831C281.034 68.409 281.425 69.191 281.425 70.177C281.425 70.789 281.255 71.3047 280.915 71.724C280.586 72.1433 280.127 72.489 279.538 72.761C280.354 73.0103 280.932 73.3843 281.272 73.883C281.623 74.3817 281.799 74.9937 281.799 75.719C281.799 76.263 281.686 76.7503 281.459 77.181C281.232 77.6003 280.904 77.9573 280.473 78.252C280.054 78.5467 279.538 78.7733 278.926 78.932C278.325 79.0793 277.651 79.153 276.903 79.153ZM283.074 80.649C283.221 80.615 283.374 80.5527 283.533 80.462C283.703 80.3713 283.856 80.258 283.992 80.122C284.128 79.986 284.236 79.8387 284.315 79.68C284.406 79.5213 284.451 79.357 284.451 79.187C284.451 79.1077 284.445 79.0453 284.434 79C284.377 79.0113 284.309 79.017 284.23 79.017C283.981 79.017 283.765 78.9377 283.584 78.779C283.414 78.6203 283.329 78.3937 283.329 78.099C283.329 77.8043 283.42 77.572 283.601 77.402C283.782 77.2207 284.037 77.13 284.366 77.13C284.729 77.13 285.023 77.2547 285.25 77.504C285.488 77.742 285.607 78.1047 285.607 78.592C285.607 79.0567 285.545 79.4533 285.42 79.782C285.295 80.1107 285.131 80.3883 284.927 80.615C284.723 80.8417 284.491 81.0173 284.23 81.142C283.969 81.278 283.703 81.38 283.431 81.448L283.074 80.649ZM286.912 69.99C287.07 69.548 287.286 69.1457 287.558 68.783C287.83 68.409 288.158 68.086 288.544 67.814C288.94 67.542 289.394 67.3323 289.904 67.185C290.425 67.0263 291.009 66.947 291.655 66.947C292.233 66.947 292.765 67.0207 293.253 67.168C293.751 67.304 294.176 67.5023 294.528 67.763C294.89 68.0123 295.168 68.324 295.361 68.698C295.565 69.072 295.667 69.4857 295.667 69.939C295.667 70.6303 295.485 71.2197 295.123 71.707C294.771 72.1943 294.256 72.5343 293.576 72.727C293.87 72.7497 294.159 72.8233 294.443 72.948C294.726 73.0613 294.975 73.237 295.191 73.475C295.417 73.7017 295.599 73.9907 295.735 74.342C295.871 74.682 295.939 75.09 295.939 75.566C295.939 76.144 295.825 76.6597 295.599 77.113C295.383 77.555 295.077 77.929 294.681 78.235C294.295 78.5297 293.836 78.7563 293.304 78.915C292.771 79.0737 292.199 79.153 291.587 79.153C290.918 79.153 290.306 79.0737 289.751 78.915C289.207 78.7563 288.725 78.541 288.306 78.269C287.886 77.9857 287.529 77.6513 287.235 77.266C286.951 76.8693 286.736 76.433 286.589 75.957L287.966 75.362C288.113 75.668 288.289 75.9627 288.493 76.246C288.697 76.5293 288.946 76.7787 289.241 76.994C289.535 77.2093 289.881 77.385 290.278 77.521C290.674 77.6457 291.145 77.708 291.689 77.708C292.539 77.708 293.207 77.5267 293.695 77.164C294.193 76.79 294.443 76.263 294.443 75.583C294.443 75.209 294.363 74.8973 294.205 74.648C294.046 74.3873 293.825 74.1833 293.542 74.036C293.258 73.8773 292.924 73.7697 292.539 73.713C292.165 73.645 291.757 73.611 291.315 73.611H289.989V72.2H291.043C292.029 72.2 292.794 72.013 293.338 71.639C293.893 71.265 294.171 70.7947 294.171 70.228C294.171 69.616 293.938 69.157 293.474 68.851C293.009 68.545 292.38 68.392 291.587 68.392C291.099 68.392 290.669 68.4543 290.295 68.579C289.921 68.7037 289.592 68.868 289.309 69.072C289.037 69.276 288.804 69.5083 288.612 69.769C288.43 70.0297 288.289 70.296 288.187 70.568L286.912 69.99Z" fill="#222429"/>
<path d="M350.936 266.07C351.02 265.669 351.16 265.286 351.356 264.922C351.552 264.558 351.804 264.241 352.112 263.97C352.42 263.69 352.789 263.471 353.218 263.312C353.648 263.153 354.138 263.074 354.688 263.074C355.202 263.074 355.659 263.149 356.06 263.298C356.462 263.438 356.802 263.639 357.082 263.9C357.362 264.161 357.572 264.474 357.712 264.838C357.862 265.202 357.936 265.599 357.936 266.028C357.936 266.635 357.806 267.195 357.544 267.708C357.292 268.212 356.97 268.674 356.578 269.094C356.186 269.514 355.757 269.897 355.29 270.242C354.824 270.578 354.38 270.877 353.96 271.138L352.882 271.81H358.3V273H350.67V272.02L352.798 270.606C353.498 270.139 354.096 269.71 354.59 269.318C355.085 268.917 355.486 268.539 355.794 268.184C356.112 267.829 356.34 267.489 356.48 267.162C356.63 266.826 356.704 266.49 356.704 266.154C356.704 265.809 356.648 265.515 356.536 265.272C356.434 265.029 356.284 264.833 356.088 264.684C355.902 264.535 355.678 264.427 355.416 264.362C355.164 264.297 354.894 264.264 354.604 264.264C354.184 264.264 353.82 264.329 353.512 264.46C353.214 264.591 352.957 264.763 352.742 264.978C352.537 265.183 352.374 265.417 352.252 265.678C352.14 265.93 352.066 266.182 352.028 266.434L350.936 266.07ZM359.271 268.1C359.271 267.372 359.355 266.705 359.523 266.098C359.691 265.482 359.943 264.95 360.279 264.502C360.624 264.054 361.058 263.704 361.581 263.452C362.103 263.2 362.719 263.074 363.429 263.074C364.138 263.074 364.754 263.191 365.277 263.424C365.799 263.657 366.233 263.993 366.579 264.432C366.924 264.871 367.181 265.403 367.349 266.028C367.517 266.644 367.601 267.335 367.601 268.1C367.601 268.828 367.517 269.5 367.349 270.116C367.19 270.723 366.938 271.25 366.593 271.698C366.257 272.146 365.827 272.496 365.305 272.748C364.782 273 364.166 273.126 363.457 273.126C362.785 273.126 362.187 273 361.665 272.748C361.142 272.496 360.703 272.146 360.349 271.698C359.994 271.25 359.723 270.723 359.537 270.116C359.359 269.5 359.271 268.828 359.271 268.1ZM360.503 268.1C360.503 269.295 360.764 270.233 361.287 270.914C361.809 271.595 362.533 271.936 363.457 271.936C364.465 271.936 365.202 271.595 365.669 270.914C366.135 270.233 366.369 269.295 366.369 268.1C366.369 266.905 366.131 265.967 365.655 265.286C365.179 264.605 364.437 264.264 363.429 264.264C362.925 264.264 362.491 264.353 362.127 264.53C361.763 264.707 361.459 264.964 361.217 265.3C360.974 265.636 360.792 266.042 360.671 266.518C360.559 266.985 360.503 267.512 360.503 268.1ZM368.744 266.07C368.828 265.669 368.968 265.286 369.164 264.922C369.36 264.558 369.612 264.241 369.92 263.97C370.228 263.69 370.597 263.471 371.026 263.312C371.456 263.153 371.946 263.074 372.496 263.074C373.01 263.074 373.467 263.149 373.868 263.298C374.27 263.438 374.61 263.639 374.89 263.9C375.17 264.161 375.38 264.474 375.52 264.838C375.67 265.202 375.744 265.599 375.744 266.028C375.744 266.635 375.614 267.195 375.352 267.708C375.1 268.212 374.778 268.674 374.386 269.094C373.994 269.514 373.565 269.897 373.098 270.242C372.632 270.578 372.188 270.877 371.768 271.138L370.69 271.81H376.108V273H368.478V272.02L370.606 270.606C371.306 270.139 371.904 269.71 372.398 269.318C372.893 268.917 373.294 268.539 373.602 268.184C373.92 267.829 374.148 267.489 374.288 267.162C374.438 266.826 374.512 266.49 374.512 266.154C374.512 265.809 374.456 265.515 374.344 265.272C374.242 265.029 374.092 264.833 373.896 264.684C373.71 264.535 373.486 264.427 373.224 264.362C372.972 264.297 372.702 264.264 372.412 264.264C371.992 264.264 371.628 264.329 371.32 264.46C371.022 264.591 370.765 264.763 370.55 264.978C370.345 265.183 370.182 265.417 370.06 265.678C369.948 265.93 369.874 266.182 369.836 266.434L368.744 266.07ZM379.879 263.144H380.677V273H379.501V264.642L376.967 265.804L376.519 264.754L379.879 263.144Z" fill="#777F8C"/>
<rect x="329" y="124" width="30" height="129" fill="#BFCED4"/>
<rect x="329" y="124" width="30" height="4" fill="#A6B2BC"/>
<path d="M337.075 115.153C336.282 115.153 335.562 115.028 334.916 114.779C334.281 114.53 333.737 114.161 333.284 113.674C332.831 113.175 332.479 112.569 332.23 111.855C331.992 111.141 331.873 110.314 331.873 109.373C331.873 108.308 332.015 107.373 332.298 106.568C332.581 105.763 332.961 105.095 333.437 104.562C333.924 104.018 334.485 103.616 335.12 103.355C335.766 103.083 336.446 102.947 337.16 102.947C338.191 102.947 339.07 103.157 339.795 103.576C340.52 103.995 341.047 104.562 341.376 105.276L340.22 106.058C339.891 105.548 339.466 105.146 338.945 104.851C338.435 104.545 337.817 104.392 337.092 104.392C336.525 104.392 336.015 104.505 335.562 104.732C335.109 104.947 334.718 105.265 334.389 105.684C334.06 106.092 333.805 106.591 333.624 107.18C333.443 107.758 333.346 108.41 333.335 109.135V109.322C333.494 108.948 333.709 108.619 333.981 108.336C334.264 108.053 334.582 107.815 334.933 107.622C335.284 107.429 335.658 107.288 336.055 107.197C336.463 107.095 336.877 107.044 337.296 107.044C337.987 107.044 338.611 107.14 339.166 107.333C339.721 107.526 340.192 107.798 340.577 108.149C340.974 108.5 341.274 108.92 341.478 109.407C341.682 109.894 341.784 110.433 341.784 111.022C341.784 111.634 341.659 112.195 341.41 112.705C341.172 113.215 340.838 113.651 340.407 114.014C339.988 114.377 339.489 114.66 338.911 114.864C338.344 115.057 337.732 115.153 337.075 115.153ZM337.058 113.708C337.534 113.708 337.965 113.646 338.35 113.521C338.747 113.396 339.087 113.221 339.37 112.994C339.665 112.756 339.891 112.478 340.05 112.161C340.209 111.844 340.288 111.487 340.288 111.09C340.288 110.659 340.209 110.285 340.05 109.968C339.903 109.639 339.693 109.367 339.421 109.152C339.149 108.925 338.82 108.761 338.435 108.659C338.061 108.546 337.653 108.489 337.211 108.489C336.123 108.489 335.296 108.721 334.729 109.186C334.174 109.651 333.896 110.246 333.896 110.971C333.896 111.345 333.97 111.696 334.117 112.025C334.264 112.354 334.474 112.643 334.746 112.892C335.018 113.141 335.347 113.34 335.732 113.487C336.129 113.634 336.571 113.708 337.058 113.708ZM342.958 116.649C343.105 116.615 343.258 116.553 343.417 116.462C343.587 116.371 343.74 116.258 343.876 116.122C344.012 115.986 344.119 115.839 344.199 115.68C344.289 115.521 344.335 115.357 344.335 115.187C344.335 115.108 344.329 115.045 344.318 115C344.261 115.011 344.193 115.017 344.114 115.017C343.864 115.017 343.649 114.938 343.468 114.779C343.298 114.62 343.213 114.394 343.213 114.099C343.213 113.804 343.303 113.572 343.485 113.402C343.666 113.221 343.921 113.13 344.25 113.13C344.612 113.13 344.907 113.255 345.134 113.504C345.372 113.742 345.491 114.105 345.491 114.592C345.491 115.057 345.428 115.453 345.304 115.782C345.179 116.111 345.015 116.388 344.811 116.615C344.607 116.842 344.374 117.017 344.114 117.142C343.853 117.278 343.587 117.38 343.315 117.448L342.958 116.649ZM348.105 103.1H355.585V104.545H349.414L348.972 107.741C349.232 107.548 349.584 107.39 350.026 107.265C350.479 107.129 351.029 107.061 351.675 107.061C352.389 107.061 353.023 107.163 353.579 107.367C354.134 107.571 354.599 107.854 354.973 108.217C355.347 108.58 355.63 109.005 355.823 109.492C356.027 109.979 356.129 110.501 356.129 111.056C356.129 111.657 356.01 112.206 355.772 112.705C355.545 113.204 355.222 113.634 354.803 113.997C354.395 114.36 353.907 114.643 353.341 114.847C352.785 115.051 352.179 115.153 351.522 115.153C350.978 115.153 350.456 115.091 349.958 114.966C349.459 114.841 348.994 114.654 348.564 114.405C348.144 114.156 347.77 113.855 347.442 113.504C347.124 113.141 346.869 112.722 346.677 112.246L348.037 111.668C348.15 111.929 348.309 112.184 348.513 112.433C348.717 112.671 348.966 112.886 349.261 113.079C349.555 113.272 349.89 113.425 350.264 113.538C350.638 113.651 351.057 113.708 351.522 113.708C352.043 113.708 352.496 113.64 352.882 113.504C353.278 113.357 353.607 113.164 353.868 112.926C354.128 112.688 354.321 112.416 354.446 112.11C354.57 111.793 354.633 111.458 354.633 111.107C354.633 110.302 354.332 109.668 353.732 109.203C353.142 108.738 352.321 108.506 351.267 108.506C350.666 108.506 350.162 108.591 349.754 108.761C349.357 108.92 348.983 109.175 348.632 109.526L347.408 109.203L348.105 103.1Z" fill="#222429"/>
<rect x="369" y="84" width="30" height="169" fill="#5FAF2D"/>
<rect x="369" y="84" width="30" height="4" fill="#3D7917"/>
<path d="M377.075 68.217C377.461 68.217 377.818 68.1717 378.146 68.081C378.486 67.979 378.781 67.843 379.03 67.673C379.28 67.503 379.472 67.299 379.608 67.061C379.756 66.823 379.829 66.5623 379.829 66.279C379.829 65.667 379.574 65.2023 379.064 64.885C378.566 64.5563 377.801 64.392 376.769 64.392C375.772 64.392 375.018 64.5563 374.508 64.885C374.01 65.2137 373.76 65.6783 373.76 66.279C373.76 66.551 373.828 66.806 373.964 67.044C374.1 67.282 374.287 67.4917 374.525 67.673C374.775 67.843 375.069 67.979 375.409 68.081C375.761 68.1717 376.14 68.217 376.548 68.217H377.075ZM376.616 69.56C376.14 69.56 375.698 69.6167 375.29 69.73C374.894 69.832 374.554 69.9793 374.27 70.172C373.987 70.3533 373.766 70.5743 373.607 70.835C373.449 71.0843 373.369 71.3507 373.369 71.634C373.369 72.246 373.653 72.7447 374.219 73.13C374.797 73.5153 375.653 73.708 376.786 73.708C377.954 73.708 378.815 73.5267 379.37 73.164C379.926 72.79 380.203 72.2857 380.203 71.651C380.203 70.9823 379.914 70.4667 379.336 70.104C378.77 69.7413 378.005 69.56 377.041 69.56H376.616ZM376.803 75.153C376.044 75.153 375.358 75.0793 374.746 74.932C374.146 74.7733 373.63 74.5523 373.199 74.269C372.78 73.9743 372.451 73.623 372.213 73.215C371.987 72.7957 371.873 72.3197 371.873 71.787C371.873 71.0843 372.083 70.478 372.502 69.968C372.933 69.4467 373.505 69.0727 374.219 68.846C373.879 68.7327 373.585 68.5853 373.335 68.404C373.086 68.2113 372.882 67.996 372.723 67.758C372.565 67.52 372.446 67.2707 372.366 67.01C372.298 66.738 372.264 66.4603 372.264 66.177C372.264 65.191 372.65 64.409 373.42 63.831C374.202 63.2417 375.324 62.947 376.786 62.947C378.26 62.947 379.382 63.2417 380.152 63.831C380.934 64.409 381.325 65.191 381.325 66.177C381.325 66.789 381.155 67.3047 380.815 67.724C380.487 68.1433 380.028 68.489 379.438 68.761C380.254 69.0103 380.832 69.3843 381.172 69.883C381.524 70.3817 381.699 70.9937 381.699 71.719C381.699 72.263 381.586 72.7503 381.359 73.181C381.133 73.6003 380.804 73.9573 380.373 74.252C379.954 74.5467 379.438 74.7733 378.826 74.932C378.226 75.0793 377.551 75.153 376.803 75.153ZM382.974 76.649C383.122 76.615 383.275 76.5527 383.433 76.462C383.603 76.3713 383.756 76.258 383.892 76.122C384.028 75.986 384.136 75.8387 384.215 75.68C384.306 75.5213 384.351 75.357 384.351 75.187C384.351 75.1077 384.346 75.0453 384.334 75C384.278 75.0113 384.21 75.017 384.13 75.017C383.881 75.017 383.666 74.9377 383.484 74.779C383.314 74.6203 383.229 74.3937 383.229 74.099C383.229 73.8043 383.32 73.572 383.501 73.402C383.683 73.2207 383.938 73.13 384.266 73.13C384.629 73.13 384.924 73.2547 385.15 73.504C385.388 73.742 385.507 74.1047 385.507 74.592C385.507 75.0567 385.445 75.4533 385.32 75.782C385.196 76.1107 385.031 76.3883 384.827 76.615C384.623 76.8417 384.391 77.0173 384.13 77.142C383.87 77.278 383.603 77.38 383.331 77.448L382.974 76.649ZM388.121 63.1H395.601V64.545H389.43L388.988 67.741C389.249 67.5483 389.6 67.3897 390.042 67.265C390.495 67.129 391.045 67.061 391.691 67.061C392.405 67.061 393.04 67.163 393.595 67.367C394.15 67.571 394.615 67.8543 394.989 68.217C395.363 68.5797 395.646 69.0047 395.839 69.492C396.043 69.9793 396.145 70.5007 396.145 71.056C396.145 71.6567 396.026 72.2063 395.788 72.705C395.561 73.2037 395.238 73.6343 394.819 73.997C394.411 74.3597 393.924 74.643 393.357 74.847C392.802 75.051 392.195 75.153 391.538 75.153C390.994 75.153 390.473 75.0907 389.974 74.966C389.475 74.8413 389.011 74.6543 388.58 74.405C388.161 74.1557 387.787 73.8553 387.458 73.504C387.141 73.1413 386.886 72.722 386.693 72.246L388.053 71.668C388.166 71.9287 388.325 72.1837 388.529 72.433C388.733 72.671 388.982 72.8863 389.277 73.079C389.572 73.2717 389.906 73.4247 390.28 73.538C390.654 73.6513 391.073 73.708 391.538 73.708C392.059 73.708 392.513 73.64 392.898 73.504C393.295 73.3567 393.623 73.164 393.884 72.926C394.145 72.688 394.337 72.416 394.462 72.11C394.587 71.7927 394.649 71.4583 394.649 71.107C394.649 70.3023 394.349 69.6677 393.748 69.203C393.159 68.7383 392.337 68.506 391.283 68.506C390.682 68.506 390.178 68.591 389.77 68.761C389.373 68.9197 388.999 69.1747 388.648 69.526L387.424 69.203L388.121 63.1Z" fill="#222429"/>
<path d="M447.888 266.07C447.972 265.669 448.112 265.286 448.308 264.922C448.504 264.558 448.756 264.241 449.064 263.97C449.372 263.69 449.74 263.471 450.17 263.312C450.599 263.153 451.089 263.074 451.64 263.074C452.153 263.074 452.61 263.149 453.012 263.298C453.413 263.438 453.754 263.639 454.034 263.9C454.314 264.161 454.524 264.474 454.664 264.838C454.813 265.202 454.888 265.599 454.888 266.028C454.888 266.635 454.757 267.195 454.496 267.708C454.244 268.212 453.922 268.674 453.53 269.094C453.138 269.514 452.708 269.897 452.242 270.242C451.775 270.578 451.332 270.877 450.912 271.138L449.834 271.81H455.252V273H447.622V272.02L449.75 270.606C450.45 270.139 451.047 269.71 451.542 269.318C452.036 268.917 452.438 268.539 452.746 268.184C453.063 267.829 453.292 267.489 453.432 267.162C453.581 266.826 453.656 266.49 453.656 266.154C453.656 265.809 453.6 265.515 453.488 265.272C453.385 265.029 453.236 264.833 453.04 264.684C452.853 264.535 452.629 264.427 452.368 264.362C452.116 264.297 451.845 264.264 451.556 264.264C451.136 264.264 450.772 264.329 450.464 264.46C450.165 264.591 449.908 264.763 449.694 264.978C449.488 265.183 449.325 265.417 449.204 265.678C449.092 265.93 449.017 266.182 448.98 266.434L447.888 266.07ZM456.222 268.1C456.222 267.372 456.306 266.705 456.474 266.098C456.642 265.482 456.894 264.95 457.23 264.502C457.575 264.054 458.009 263.704 458.532 263.452C459.055 263.2 459.671 263.074 460.38 263.074C461.089 263.074 461.705 263.191 462.228 263.424C462.751 263.657 463.185 263.993 463.53 264.432C463.875 264.871 464.132 265.403 464.3 266.028C464.468 266.644 464.552 267.335 464.552 268.1C464.552 268.828 464.468 269.5 464.3 270.116C464.141 270.723 463.889 271.25 463.544 271.698C463.208 272.146 462.779 272.496 462.256 272.748C461.733 273 461.117 273.126 460.408 273.126C459.736 273.126 459.139 273 458.616 272.748C458.093 272.496 457.655 272.146 457.3 271.698C456.945 271.25 456.675 270.723 456.488 270.116C456.311 269.5 456.222 268.828 456.222 268.1ZM457.454 268.1C457.454 269.295 457.715 270.233 458.238 270.914C458.761 271.595 459.484 271.936 460.408 271.936C461.416 271.936 462.153 271.595 462.62 270.914C463.087 270.233 463.32 269.295 463.32 268.1C463.32 266.905 463.082 265.967 462.606 265.286C462.13 264.605 461.388 264.264 460.38 264.264C459.876 264.264 459.442 264.353 459.078 264.53C458.714 264.707 458.411 264.964 458.168 265.3C457.925 265.636 457.743 266.042 457.622 266.518C457.51 266.985 457.454 267.512 457.454 268.1ZM465.695 266.07C465.779 265.669 465.919 265.286 466.115 264.922C466.311 264.558 466.563 264.241 466.871 263.97C467.179 263.69 467.548 263.471 467.977 263.312C468.407 263.153 468.897 263.074 469.447 263.074C469.961 263.074 470.418 263.149 470.819 263.298C471.221 263.438 471.561 263.639 471.841 263.9C472.121 264.161 472.331 264.474 472.471 264.838C472.621 265.202 472.695 265.599 472.695 266.028C472.695 266.635 472.565 267.195 472.303 267.708C472.051 268.212 471.729 268.674 471.337 269.094C470.945 269.514 470.516 269.897 470.049 270.242C469.583 270.578 469.139 270.877 468.719 271.138L467.641 271.81H473.059V273H465.429V272.02L467.557 270.606C468.257 270.139 468.855 269.71 469.349 269.318C469.844 268.917 470.245 268.539 470.553 268.184C470.871 267.829 471.099 267.489 471.239 267.162C471.389 266.826 471.463 266.49 471.463 266.154C471.463 265.809 471.407 265.515 471.295 265.272C471.193 265.029 471.043 264.833 470.847 264.684C470.661 264.535 470.437 264.427 470.175 264.362C469.923 264.297 469.653 264.264 469.363 264.264C468.943 264.264 468.579 264.329 468.271 264.46C467.973 264.591 467.716 264.763 467.501 264.978C467.296 265.183 467.133 265.417 467.011 265.678C466.899 265.93 466.825 266.182 466.787 266.434L465.695 266.07ZM474.128 266.07C474.212 265.669 474.352 265.286 474.548 264.922C474.744 264.558 474.996 264.241 475.304 263.97C475.612 263.69 475.98 263.471 476.41 263.312C476.839 263.153 477.329 263.074 477.88 263.074C478.393 263.074 478.85 263.149 479.252 263.298C479.653 263.438 479.994 263.639 480.274 263.9C480.554 264.161 480.764 264.474 480.904 264.838C481.053 265.202 481.128 265.599 481.128 266.028C481.128 266.635 480.997 267.195 480.736 267.708C480.484 268.212 480.162 268.674 479.77 269.094C479.378 269.514 478.948 269.897 478.482 270.242C478.015 270.578 477.572 270.877 477.152 271.138L476.074 271.81H481.492V273H473.862V272.02L475.99 270.606C476.69 270.139 477.287 269.71 477.782 269.318C478.276 268.917 478.678 268.539 478.986 268.184C479.303 267.829 479.532 267.489 479.672 267.162C479.821 266.826 479.896 266.49 479.896 266.154C479.896 265.809 479.84 265.515 479.728 265.272C479.625 265.029 479.476 264.833 479.28 264.684C479.093 264.535 478.869 264.427 478.608 264.362C478.356 264.297 478.085 264.264 477.796 264.264C477.376 264.264 477.012 264.329 476.704 264.46C476.405 264.591 476.148 264.763 475.934 264.978C475.728 265.183 475.565 265.417 475.444 265.678C475.332 265.93 475.257 266.182 475.22 266.434L474.128 266.07Z" fill="#777F8C"/>
<rect x="429" y="128" width="30" height="125" fill="#BFCED4"/>
<rect x="429" y="128" width="30" height="4" fill="#A6B2BC"/>
<path d="M437.175 119.153C436.381 119.153 435.662 119.028 435.016 118.779C434.381 118.53 433.837 118.161 433.384 117.674C432.93 117.175 432.579 116.569 432.33 115.855C432.092 115.141 431.973 114.314 431.973 113.373C431.973 112.308 432.114 111.373 432.398 110.568C432.681 109.763 433.061 109.095 433.537 108.562C434.024 108.018 434.585 107.616 435.22 107.355C435.866 107.083 436.546 106.947 437.26 106.947C438.291 106.947 439.169 107.157 439.895 107.576C440.62 107.995 441.147 108.562 441.476 109.276L440.32 110.058C439.991 109.548 439.566 109.146 439.045 108.851C438.535 108.545 437.917 108.392 437.192 108.392C436.625 108.392 436.115 108.505 435.662 108.732C435.208 108.947 434.817 109.265 434.489 109.684C434.16 110.092 433.905 110.591 433.724 111.18C433.542 111.758 433.446 112.41 433.435 113.135V113.322C433.593 112.948 433.809 112.619 434.081 112.336C434.364 112.053 434.681 111.815 435.033 111.622C435.384 111.429 435.758 111.288 436.155 111.197C436.563 111.095 436.976 111.044 437.396 111.044C438.087 111.044 438.71 111.14 439.266 111.333C439.821 111.526 440.291 111.798 440.677 112.149C441.073 112.5 441.374 112.92 441.578 113.407C441.782 113.894 441.884 114.433 441.884 115.022C441.884 115.634 441.759 116.195 441.51 116.705C441.272 117.215 440.937 117.651 440.507 118.014C440.087 118.377 439.589 118.66 439.011 118.864C438.444 119.057 437.832 119.153 437.175 119.153ZM437.158 117.708C437.634 117.708 438.064 117.646 438.45 117.521C438.846 117.396 439.186 117.221 439.47 116.994C439.764 116.756 439.991 116.478 440.15 116.161C440.308 115.844 440.388 115.487 440.388 115.09C440.388 114.659 440.308 114.285 440.15 113.968C440.002 113.639 439.793 113.367 439.521 113.152C439.249 112.925 438.92 112.761 438.535 112.659C438.161 112.546 437.753 112.489 437.311 112.489C436.223 112.489 435.395 112.721 434.829 113.186C434.273 113.651 433.996 114.246 433.996 114.971C433.996 115.345 434.069 115.696 434.217 116.025C434.364 116.354 434.574 116.643 434.846 116.892C435.118 117.141 435.446 117.34 435.832 117.487C436.228 117.634 436.67 117.708 437.158 117.708ZM443.057 120.649C443.205 120.615 443.358 120.553 443.516 120.462C443.686 120.371 443.839 120.258 443.975 120.122C444.111 119.986 444.219 119.839 444.298 119.68C444.389 119.521 444.434 119.357 444.434 119.187C444.434 119.108 444.429 119.045 444.417 119C444.361 119.011 444.293 119.017 444.213 119.017C443.964 119.017 443.749 118.938 443.567 118.779C443.397 118.62 443.312 118.394 443.312 118.099C443.312 117.804 443.403 117.572 443.584 117.402C443.766 117.221 444.021 117.13 444.349 117.13C444.712 117.13 445.007 117.255 445.233 117.504C445.471 117.742 445.59 118.105 445.59 118.592C445.59 119.057 445.528 119.453 445.403 119.782C445.279 120.111 445.114 120.388 444.91 120.615C444.706 120.842 444.474 121.017 444.213 121.142C443.953 121.278 443.686 121.38 443.414 121.448L443.057 120.649ZM446.895 109.99C447.054 109.548 447.269 109.146 447.541 108.783C447.813 108.409 448.142 108.086 448.527 107.814C448.924 107.542 449.377 107.332 449.887 107.185C450.408 107.026 450.992 106.947 451.638 106.947C452.216 106.947 452.749 107.021 453.236 107.168C453.735 107.304 454.16 107.502 454.511 107.763C454.874 108.012 455.151 108.324 455.344 108.698C455.548 109.072 455.65 109.486 455.65 109.939C455.65 110.63 455.469 111.22 455.106 111.707C454.755 112.194 454.239 112.534 453.559 112.727C453.854 112.75 454.143 112.823 454.426 112.948C454.709 113.061 454.959 113.237 455.174 113.475C455.401 113.702 455.582 113.991 455.718 114.342C455.854 114.682 455.922 115.09 455.922 115.566C455.922 116.144 455.809 116.66 455.582 117.113C455.367 117.555 455.061 117.929 454.664 118.235C454.279 118.53 453.82 118.756 453.287 118.915C452.754 119.074 452.182 119.153 451.57 119.153C450.901 119.153 450.289 119.074 449.734 118.915C449.19 118.756 448.708 118.541 448.289 118.269C447.87 117.986 447.513 117.651 447.218 117.266C446.935 116.869 446.719 116.433 446.572 115.957L447.949 115.362C448.096 115.668 448.272 115.963 448.476 116.246C448.68 116.529 448.929 116.779 449.224 116.994C449.519 117.209 449.864 117.385 450.261 117.521C450.658 117.646 451.128 117.708 451.672 117.708C452.522 117.708 453.191 117.527 453.678 117.164C454.177 116.79 454.426 116.263 454.426 115.583C454.426 115.209 454.347 114.897 454.188 114.648C454.029 114.387 453.808 114.183 453.525 114.036C453.242 113.877 452.907 113.77 452.522 113.713C452.148 113.645 451.74 113.611 451.298 113.611H449.972V112.2H451.026C452.012 112.2 452.777 112.013 453.321 111.639C453.876 111.265 454.154 110.795 454.154 110.228C454.154 109.616 453.922 109.157 453.457 108.851C452.992 108.545 452.363 108.392 451.57 108.392C451.083 108.392 450.652 108.454 450.278 108.579C449.904 108.704 449.575 108.868 449.292 109.072C449.02 109.276 448.788 109.508 448.595 109.769C448.414 110.03 448.272 110.296 448.17 110.568L446.895 109.99Z" fill="#222429"/>
<rect x="469" y="84" width="30" height="169" fill="#5FAF2D"/>
<rect x="469" y="84" width="30" height="4" fill="#3D7917"/>
<path d="M477.075 68.217C477.461 68.217 477.818 68.1717 478.146 68.081C478.486 67.979 478.781 67.843 479.03 67.673C479.28 67.503 479.472 67.299 479.608 67.061C479.756 66.823 479.829 66.5623 479.829 66.279C479.829 65.667 479.574 65.2023 479.064 64.885C478.566 64.5563 477.801 64.392 476.769 64.392C475.772 64.392 475.018 64.5563 474.508 64.885C474.01 65.2137 473.76 65.6783 473.76 66.279C473.76 66.551 473.828 66.806 473.964 67.044C474.1 67.282 474.287 67.4917 474.525 67.673C474.775 67.843 475.069 67.979 475.409 68.081C475.761 68.1717 476.14 68.217 476.548 68.217H477.075ZM476.616 69.56C476.14 69.56 475.698 69.6167 475.29 69.73C474.894 69.832 474.554 69.9793 474.27 70.172C473.987 70.3533 473.766 70.5743 473.607 70.835C473.449 71.0843 473.369 71.3507 473.369 71.634C473.369 72.246 473.653 72.7447 474.219 73.13C474.797 73.5153 475.653 73.708 476.786 73.708C477.954 73.708 478.815 73.5267 479.37 73.164C479.926 72.79 480.203 72.2857 480.203 71.651C480.203 70.9823 479.914 70.4667 479.336 70.104C478.77 69.7413 478.005 69.56 477.041 69.56H476.616ZM476.803 75.153C476.044 75.153 475.358 75.0793 474.746 74.932C474.146 74.7733 473.63 74.5523 473.199 74.269C472.78 73.9743 472.451 73.623 472.213 73.215C471.987 72.7957 471.873 72.3197 471.873 71.787C471.873 71.0843 472.083 70.478 472.502 69.968C472.933 69.4467 473.505 69.0727 474.219 68.846C473.879 68.7327 473.585 68.5853 473.335 68.404C473.086 68.2113 472.882 67.996 472.723 67.758C472.565 67.52 472.446 67.2707 472.366 67.01C472.298 66.738 472.264 66.4603 472.264 66.177C472.264 65.191 472.65 64.409 473.42 63.831C474.202 63.2417 475.324 62.947 476.786 62.947C478.26 62.947 479.382 63.2417 480.152 63.831C480.934 64.409 481.325 65.191 481.325 66.177C481.325 66.789 481.155 67.3047 480.815 67.724C480.487 68.1433 480.028 68.489 479.438 68.761C480.254 69.0103 480.832 69.3843 481.172 69.883C481.524 70.3817 481.699 70.9937 481.699 71.719C481.699 72.263 481.586 72.7503 481.359 73.181C481.133 73.6003 480.804 73.9573 480.373 74.252C479.954 74.5467 479.438 74.7733 478.826 74.932C478.226 75.0793 477.551 75.153 476.803 75.153ZM482.974 76.649C483.122 76.615 483.275 76.5527 483.433 76.462C483.603 76.3713 483.756 76.258 483.892 76.122C484.028 75.986 484.136 75.8387 484.215 75.68C484.306 75.5213 484.351 75.357 484.351 75.187C484.351 75.1077 484.346 75.0453 484.334 75C484.278 75.0113 484.21 75.017 484.13 75.017C483.881 75.017 483.666 74.9377 483.484 74.779C483.314 74.6203 483.229 74.3937 483.229 74.099C483.229 73.8043 483.32 73.572 483.501 73.402C483.683 73.2207 483.938 73.13 484.266 73.13C484.629 73.13 484.924 73.2547 485.15 73.504C485.388 73.742 485.507 74.1047 485.507 74.592C485.507 75.0567 485.445 75.4533 485.32 75.782C485.196 76.1107 485.031 76.3883 484.827 76.615C484.623 76.8417 484.391 77.0173 484.13 77.142C483.87 77.278 483.603 77.38 483.331 77.448L482.974 76.649ZM488.121 63.1H495.601V64.545H489.43L488.988 67.741C489.249 67.5483 489.6 67.3897 490.042 67.265C490.495 67.129 491.045 67.061 491.691 67.061C492.405 67.061 493.04 67.163 493.595 67.367C494.15 67.571 494.615 67.8543 494.989 68.217C495.363 68.5797 495.646 69.0047 495.839 69.492C496.043 69.9793 496.145 70.5007 496.145 71.056C496.145 71.6567 496.026 72.2063 495.788 72.705C495.561 73.2037 495.238 73.6343 494.819 73.997C494.411 74.3597 493.924 74.643 493.357 74.847C492.802 75.051 492.195 75.153 491.538 75.153C490.994 75.153 490.473 75.0907 489.974 74.966C489.475 74.8413 489.011 74.6543 488.58 74.405C488.161 74.1557 487.787 73.8553 487.458 73.504C487.141 73.1413 486.886 72.722 486.693 72.246L488.053 71.668C488.166 71.9287 488.325 72.1837 488.529 72.433C488.733 72.671 488.982 72.8863 489.277 73.079C489.572 73.2717 489.906 73.4247 490.28 73.538C490.654 73.6513 491.073 73.708 491.538 73.708C492.059 73.708 492.513 73.64 492.898 73.504C493.295 73.3567 493.623 73.164 493.884 72.926C494.145 72.688 494.337 72.416 494.462 72.11C494.587 71.7927 494.649 71.4583 494.649 71.107C494.649 70.3023 494.349 69.6677 493.748 69.203C493.159 68.7383 492.337 68.506 491.283 68.506C490.682 68.506 490.178 68.591 489.77 68.761C489.373 68.9197 488.999 69.1747 488.648 69.526L487.424 69.203L488.121 63.1Z" fill="#222429"/>
</svg>
