<svg viewBox="0 0 536 256" fill="none" xmlns="http://www.w3.org/2000/svg">
<path d="M249.822 248.07C249.906 247.669 250.046 247.286 250.242 246.922C250.438 246.558 250.69 246.241 250.998 245.97C251.306 245.69 251.675 245.471 252.104 245.312C252.533 245.153 253.023 245.074 253.574 245.074C254.087 245.074 254.545 245.149 254.946 245.298C255.347 245.438 255.688 245.639 255.968 245.9C256.248 246.161 256.458 246.474 256.598 246.838C256.747 247.202 256.822 247.599 256.822 248.028C256.822 248.635 256.691 249.195 256.43 249.708C256.178 250.212 255.856 250.674 255.464 251.094C255.072 251.514 254.643 251.897 254.176 252.242C253.709 252.578 253.266 252.877 252.846 253.138L251.768 253.81H257.186V255H249.556V254.02L251.684 252.606C252.384 252.139 252.981 251.71 253.476 251.318C253.971 250.917 254.372 250.539 254.68 250.184C254.997 249.829 255.226 249.489 255.366 249.162C255.515 248.826 255.59 248.49 255.59 248.154C255.59 247.809 255.534 247.515 255.422 247.272C255.319 247.029 255.17 246.833 254.974 246.684C254.787 246.535 254.563 246.427 254.302 246.362C254.05 246.297 253.779 246.264 253.49 246.264C253.07 246.264 252.706 246.329 252.398 246.46C252.099 246.591 251.843 246.763 251.628 246.978C251.423 247.183 251.259 247.417 251.138 247.678C251.026 247.93 250.951 248.182 250.914 248.434L249.822 248.07ZM258.156 250.1C258.156 249.372 258.24 248.705 258.408 248.098C258.576 247.482 258.828 246.95 259.164 246.502C259.51 246.054 259.944 245.704 260.466 245.452C260.989 245.2 261.605 245.074 262.314 245.074C263.024 245.074 263.64 245.191 264.162 245.424C264.685 245.657 265.119 245.993 265.464 246.432C265.81 246.871 266.066 247.403 266.234 248.028C266.402 248.644 266.486 249.335 266.486 250.1C266.486 250.828 266.402 251.5 266.234 252.116C266.076 252.723 265.824 253.25 265.478 253.698C265.142 254.146 264.713 254.496 264.19 254.748C263.668 255 263.052 255.126 262.342 255.126C261.67 255.126 261.073 255 260.55 254.748C260.028 254.496 259.589 254.146 259.234 253.698C258.88 253.25 258.609 252.723 258.422 252.116C258.245 251.5 258.156 250.828 258.156 250.1ZM259.388 250.1C259.388 251.295 259.65 252.233 260.172 252.914C260.695 253.595 261.418 253.936 262.342 253.936C263.35 253.936 264.088 253.595 264.554 252.914C265.021 252.233 265.254 251.295 265.254 250.1C265.254 248.905 265.016 247.967 264.54 247.286C264.064 246.605 263.322 246.264 262.314 246.264C261.81 246.264 261.376 246.353 261.012 246.53C260.648 246.707 260.345 246.964 260.102 247.3C259.86 247.636 259.678 248.042 259.556 248.518C259.444 248.985 259.388 249.512 259.388 250.1ZM267.63 248.07C267.714 247.669 267.854 247.286 268.05 246.922C268.246 246.558 268.498 246.241 268.806 245.97C269.114 245.69 269.483 245.471 269.912 245.312C270.341 245.153 270.831 245.074 271.382 245.074C271.895 245.074 272.353 245.149 272.754 245.298C273.155 245.438 273.496 245.639 273.776 245.9C274.056 246.161 274.266 246.474 274.406 246.838C274.555 247.202 274.63 247.599 274.63 248.028C274.63 248.635 274.499 249.195 274.238 249.708C273.986 250.212 273.664 250.674 273.272 251.094C272.88 251.514 272.451 251.897 271.984 252.242C271.517 252.578 271.074 252.877 270.654 253.138L269.576 253.81H274.994V255H267.364V254.02L269.492 252.606C270.192 252.139 270.789 251.71 271.284 251.318C271.779 250.917 272.18 250.539 272.488 250.184C272.805 249.829 273.034 249.489 273.174 249.162C273.323 248.826 273.398 248.49 273.398 248.154C273.398 247.809 273.342 247.515 273.23 247.272C273.127 247.029 272.978 246.833 272.782 246.684C272.595 246.535 272.371 246.427 272.11 246.362C271.858 246.297 271.587 246.264 271.298 246.264C270.878 246.264 270.514 246.329 270.206 246.46C269.907 246.591 269.651 246.763 269.436 246.978C269.231 247.183 269.067 247.417 268.946 247.678C268.834 247.93 268.759 248.182 268.722 248.434L267.63 248.07ZM275.964 250.1C275.964 249.372 276.048 248.705 276.216 248.098C276.384 247.482 276.636 246.95 276.972 246.502C277.318 246.054 277.752 245.704 278.274 245.452C278.797 245.2 279.413 245.074 280.122 245.074C280.832 245.074 281.448 245.191 281.97 245.424C282.493 245.657 282.927 245.993 283.272 246.432C283.618 246.871 283.874 247.403 284.042 248.028C284.21 248.644 284.294 249.335 284.294 250.1C284.294 250.828 284.21 251.5 284.042 252.116C283.884 252.723 283.632 253.25 283.286 253.698C282.95 254.146 282.521 254.496 281.998 254.748C281.476 255 280.86 255.126 280.15 255.126C279.478 255.126 278.881 255 278.358 254.748C277.836 254.496 277.397 254.146 277.042 253.698C276.688 253.25 276.417 252.723 276.23 252.116C276.053 251.5 275.964 250.828 275.964 250.1ZM277.196 250.1C277.196 251.295 277.458 252.233 277.98 252.914C278.503 253.595 279.226 253.936 280.15 253.936C281.158 253.936 281.896 253.595 282.362 252.914C282.829 252.233 283.062 251.295 283.062 250.1C283.062 248.905 282.824 247.967 282.348 247.286C281.872 246.605 281.13 246.264 280.122 246.264C279.618 246.264 279.184 246.353 278.82 246.53C278.456 246.707 278.153 246.964 277.91 247.3C277.668 247.636 277.486 248.042 277.364 248.518C277.252 248.985 277.196 249.512 277.196 250.1Z" fill="#777F8C"/>
<rect x="237" y="93" width="60" height="142" fill="#BFCED4"/>
<rect x="237" y="93" width="60" height="4" fill="#A6B2BC"/>
<path d="M244.301 75.585C244.403 75.0977 244.573 74.633 244.811 74.191C245.049 73.749 245.355 73.3637 245.729 73.035C246.103 72.695 246.55 72.4287 247.072 72.236C247.593 72.0433 248.188 71.947 248.857 71.947C249.48 71.947 250.035 72.0377 250.523 72.219C251.01 72.389 251.424 72.6327 251.764 72.95C252.104 73.2673 252.359 73.647 252.529 74.089C252.71 74.531 252.801 75.0127 252.801 75.534C252.801 76.2707 252.642 76.9507 252.325 77.574C252.019 78.186 251.628 78.747 251.152 79.257C250.676 79.767 250.154 80.2317 249.588 80.651C249.021 81.059 248.483 81.4217 247.973 81.739L246.664 82.555H253.243V84H243.978V82.81L246.562 81.093C247.412 80.5263 248.137 80.005 248.738 79.529C249.338 79.0417 249.826 78.5827 250.2 78.152C250.585 77.7213 250.863 77.3077 251.033 76.911C251.214 76.503 251.305 76.095 251.305 75.687C251.305 75.2677 251.237 74.9107 251.101 74.616C250.976 74.3213 250.795 74.0833 250.557 73.902C250.33 73.7207 250.058 73.5903 249.741 73.511C249.435 73.4317 249.106 73.392 248.755 73.392C248.245 73.392 247.803 73.4713 247.429 73.63C247.066 73.7887 246.754 73.9983 246.494 74.259C246.244 74.5083 246.046 74.7917 245.899 75.109C245.763 75.415 245.672 75.721 245.627 76.027L244.301 75.585ZM254.37 85.649C254.517 85.615 254.67 85.5527 254.829 85.462C254.999 85.3713 255.152 85.258 255.288 85.122C255.424 84.986 255.532 84.8387 255.611 84.68C255.702 84.5213 255.747 84.357 255.747 84.187C255.747 84.1077 255.741 84.0453 255.73 84C255.673 84.0113 255.605 84.017 255.526 84.017C255.277 84.017 255.061 83.9377 254.88 83.779C254.71 83.6203 254.625 83.3937 254.625 83.099C254.625 82.8043 254.716 82.572 254.897 82.402C255.078 82.2207 255.333 82.13 255.662 82.13C256.025 82.13 256.319 82.2547 256.546 82.504C256.784 82.742 256.903 83.1047 256.903 83.592C256.903 84.0567 256.841 84.4533 256.716 84.782C256.591 85.1107 256.427 85.3883 256.223 85.615C256.019 85.8417 255.787 86.0173 255.526 86.142C255.265 86.278 254.999 86.38 254.727 86.448L254.37 85.649ZM263.512 84.153C262.718 84.153 261.999 84.0283 261.353 83.779C260.718 83.5297 260.174 83.1613 259.721 82.674C259.267 82.1753 258.916 81.569 258.667 80.855C258.429 80.141 258.31 79.3137 258.31 78.373C258.31 77.3077 258.451 76.3727 258.735 75.568C259.018 74.7633 259.398 74.0947 259.874 73.562C260.361 73.018 260.922 72.6157 261.557 72.355C262.203 72.083 262.883 71.947 263.597 71.947C264.628 71.947 265.506 72.1567 266.232 72.576C266.957 72.9953 267.484 73.562 267.813 74.276L266.657 75.058C266.328 74.548 265.903 74.1457 265.382 73.851C264.872 73.545 264.254 73.392 263.529 73.392C262.962 73.392 262.452 73.5053 261.999 73.732C261.545 73.9473 261.154 74.2647 260.826 74.684C260.497 75.092 260.242 75.5907 260.061 76.18C259.879 76.758 259.783 77.4097 259.772 78.135V78.322C259.93 77.948 260.146 77.6193 260.418 77.336C260.701 77.0527 261.018 76.8147 261.37 76.622C261.721 76.4293 262.095 76.2877 262.492 76.197C262.9 76.095 263.313 76.044 263.733 76.044C264.424 76.044 265.047 76.1403 265.603 76.333C266.158 76.5257 266.628 76.7977 267.014 77.149C267.41 77.5003 267.711 77.9197 267.915 78.407C268.119 78.8943 268.221 79.4327 268.221 80.022C268.221 80.634 268.096 81.195 267.847 81.705C267.609 82.215 267.274 82.6513 266.844 83.014C266.424 83.3767 265.926 83.66 265.348 83.864C264.781 84.0567 264.169 84.153 263.512 84.153ZM263.495 82.708C263.971 82.708 264.401 82.6457 264.787 82.521C265.183 82.3963 265.523 82.2207 265.807 81.994C266.101 81.756 266.328 81.4783 266.487 81.161C266.645 80.8437 266.725 80.4867 266.725 80.09C266.725 79.6593 266.645 79.2853 266.487 78.968C266.339 78.6393 266.13 78.3673 265.858 78.152C265.586 77.9253 265.257 77.761 264.872 77.659C264.498 77.5457 264.09 77.489 263.648 77.489C262.56 77.489 261.732 77.7213 261.166 78.186C260.61 78.6507 260.333 79.2457 260.333 79.971C260.333 80.345 260.406 80.6963 260.554 81.025C260.701 81.3537 260.911 81.6427 261.183 81.892C261.455 82.1413 261.783 82.3397 262.169 82.487C262.565 82.6343 263.007 82.708 263.495 82.708ZM273.015 72.032H273.984V84H272.556V73.851L269.479 75.262L268.935 73.987L273.015 72.032ZM286.947 71.726L288.018 72.508L279.28 84.255L278.158 83.609L286.947 71.726ZM276.322 74.956C276.322 74.5253 276.402 74.1343 276.56 73.783C276.719 73.4203 276.934 73.1143 277.206 72.865C277.49 72.6043 277.818 72.406 278.192 72.27C278.578 72.1227 278.991 72.049 279.433 72.049C279.875 72.049 280.283 72.1227 280.657 72.27C281.031 72.406 281.354 72.6043 281.626 72.865C281.91 73.1143 282.131 73.4203 282.289 73.783C282.448 74.1343 282.527 74.5253 282.527 74.956C282.527 75.3867 282.448 75.7777 282.289 76.129C282.131 76.4803 281.91 76.7863 281.626 77.047C281.354 77.2963 281.031 77.4947 280.657 77.642C280.283 77.778 279.875 77.846 279.433 77.846C278.991 77.846 278.578 77.778 278.192 77.642C277.818 77.4947 277.49 77.2963 277.206 77.047C276.934 76.7863 276.719 76.4803 276.56 76.129C276.402 75.7777 276.322 75.3867 276.322 74.956ZM277.75 74.956C277.75 75.2167 277.796 75.449 277.886 75.653C277.988 75.857 278.113 76.0327 278.26 76.18C278.419 76.3273 278.6 76.4407 278.804 76.52C279.008 76.5993 279.218 76.639 279.433 76.639C279.875 76.639 280.261 76.486 280.589 76.18C280.929 75.874 281.099 75.466 281.099 74.956C281.099 74.446 280.929 74.038 280.589 73.732C280.261 73.426 279.875 73.273 279.433 73.273C278.98 73.273 278.583 73.426 278.243 73.732C277.915 74.038 277.75 74.446 277.75 74.956ZM283.615 81.161C283.615 80.7417 283.695 80.3563 283.853 80.005C284.012 79.6423 284.227 79.3363 284.499 79.087C284.783 78.8263 285.111 78.628 285.485 78.492C285.871 78.3447 286.284 78.271 286.726 78.271C287.168 78.271 287.576 78.3447 287.95 78.492C288.324 78.628 288.647 78.8263 288.919 79.087C289.203 79.3363 289.424 79.6423 289.582 80.005C289.741 80.3563 289.82 80.7417 289.82 81.161C289.82 81.5917 289.741 81.9827 289.582 82.334C289.424 82.6853 289.203 82.9913 288.919 83.252C288.647 83.5127 288.324 83.7167 287.95 83.864C287.576 84 287.168 84.068 286.726 84.068C286.284 84.068 285.871 84 285.485 83.864C285.111 83.7167 284.783 83.5127 284.499 83.252C284.227 82.9913 284.012 82.6853 283.853 82.334C283.695 81.9827 283.615 81.5917 283.615 81.161ZM285.043 81.161C285.043 81.4217 285.089 81.654 285.179 81.858C285.281 82.062 285.406 82.2377 285.553 82.385C285.712 82.5323 285.893 82.6457 286.097 82.725C286.301 82.8043 286.511 82.844 286.726 82.844C287.168 82.844 287.554 82.691 287.882 82.385C288.222 82.079 288.392 81.671 288.392 81.161C288.392 80.651 288.222 80.243 287.882 79.937C287.554 79.631 287.168 79.478 286.726 79.478C286.273 79.478 285.876 79.631 285.536 79.937C285.208 80.243 285.043 80.651 285.043 81.161Z" fill="#222429"/>
<path d="M351.818 248.07C351.902 247.669 352.042 247.286 352.238 246.922C352.434 246.558 352.686 246.241 352.994 245.97C353.302 245.69 353.671 245.471 354.1 245.312C354.53 245.153 355.02 245.074 355.57 245.074C356.084 245.074 356.541 245.149 356.942 245.298C357.344 245.438 357.684 245.639 357.964 245.9C358.244 246.161 358.454 246.474 358.594 246.838C358.744 247.202 358.818 247.599 358.818 248.028C358.818 248.635 358.688 249.195 358.426 249.708C358.174 250.212 357.852 250.674 357.46 251.094C357.068 251.514 356.639 251.897 356.172 252.242C355.706 252.578 355.262 252.877 354.842 253.138L353.764 253.81H359.182V255H351.552V254.02L353.68 252.606C354.38 252.139 354.978 251.71 355.472 251.318C355.967 250.917 356.368 250.539 356.676 250.184C356.994 249.829 357.222 249.489 357.362 249.162C357.512 248.826 357.586 248.49 357.586 248.154C357.586 247.809 357.53 247.515 357.418 247.272C357.316 247.029 357.166 246.833 356.97 246.684C356.784 246.535 356.56 246.427 356.298 246.362C356.046 246.297 355.776 246.264 355.486 246.264C355.066 246.264 354.702 246.329 354.394 246.46C354.096 246.591 353.839 246.763 353.624 246.978C353.419 247.183 353.256 247.417 353.134 247.678C353.022 247.93 352.948 248.182 352.91 248.434L351.818 248.07ZM360.152 250.1C360.152 249.372 360.236 248.705 360.404 248.098C360.572 247.482 360.824 246.95 361.16 246.502C361.506 246.054 361.94 245.704 362.462 245.452C362.985 245.2 363.601 245.074 364.31 245.074C365.02 245.074 365.636 245.191 366.158 245.424C366.681 245.657 367.115 245.993 367.46 246.432C367.806 246.871 368.062 247.403 368.23 248.028C368.398 248.644 368.482 249.335 368.482 250.1C368.482 250.828 368.398 251.5 368.23 252.116C368.072 252.723 367.82 253.25 367.474 253.698C367.138 254.146 366.709 254.496 366.186 254.748C365.664 255 365.048 255.126 364.338 255.126C363.666 255.126 363.069 255 362.546 254.748C362.024 254.496 361.585 254.146 361.23 253.698C360.876 253.25 360.605 252.723 360.418 252.116C360.241 251.5 360.152 250.828 360.152 250.1ZM361.384 250.1C361.384 251.295 361.646 252.233 362.168 252.914C362.691 253.595 363.414 253.936 364.338 253.936C365.346 253.936 366.084 253.595 366.55 252.914C367.017 252.233 367.25 251.295 367.25 250.1C367.25 248.905 367.012 247.967 366.536 247.286C366.06 246.605 365.318 246.264 364.31 246.264C363.806 246.264 363.372 246.353 363.008 246.53C362.644 246.707 362.341 246.964 362.098 247.3C361.856 247.636 361.674 248.042 361.552 248.518C361.44 248.985 361.384 249.512 361.384 250.1ZM369.626 248.07C369.71 247.669 369.85 247.286 370.046 246.922C370.242 246.558 370.494 246.241 370.802 245.97C371.11 245.69 371.479 245.471 371.908 245.312C372.337 245.153 372.827 245.074 373.378 245.074C373.891 245.074 374.349 245.149 374.75 245.298C375.151 245.438 375.492 245.639 375.772 245.9C376.052 246.161 376.262 246.474 376.402 246.838C376.551 247.202 376.626 247.599 376.626 248.028C376.626 248.635 376.495 249.195 376.234 249.708C375.982 250.212 375.66 250.674 375.268 251.094C374.876 251.514 374.447 251.897 373.98 252.242C373.513 252.578 373.07 252.877 372.65 253.138L371.572 253.81H376.99V255H369.36V254.02L371.488 252.606C372.188 252.139 372.785 251.71 373.28 251.318C373.775 250.917 374.176 250.539 374.484 250.184C374.801 249.829 375.03 249.489 375.17 249.162C375.319 248.826 375.394 248.49 375.394 248.154C375.394 247.809 375.338 247.515 375.226 247.272C375.123 247.029 374.974 246.833 374.778 246.684C374.591 246.535 374.367 246.427 374.106 246.362C373.854 246.297 373.583 246.264 373.294 246.264C372.874 246.264 372.51 246.329 372.202 246.46C371.903 246.591 371.647 246.763 371.432 246.978C371.227 247.183 371.063 247.417 370.942 247.678C370.83 247.93 370.755 248.182 370.718 248.434L369.626 248.07ZM380.76 245.144H381.558V255H380.382V246.642L377.848 247.804L377.4 246.754L380.76 245.144Z" fill="#777F8C"/>
<rect x="337" y="88" width="60" height="147" fill="#BFCED4"/>
<rect x="337" y="88" width="60" height="4" fill="#A6B2BC"/>
<path d="M341.985 70.585C342.087 70.0977 342.257 69.633 342.495 69.191C342.733 68.749 343.039 68.3637 343.413 68.035C343.787 67.695 344.234 67.4287 344.756 67.236C345.277 67.0433 345.872 66.947 346.541 66.947C347.164 66.947 347.719 67.0377 348.207 67.219C348.694 67.389 349.108 67.6327 349.448 67.95C349.788 68.2673 350.043 68.647 350.213 69.089C350.394 69.531 350.485 70.0127 350.485 70.534C350.485 71.2707 350.326 71.9507 350.009 72.574C349.703 73.186 349.312 73.747 348.836 74.257C348.36 74.767 347.838 75.2317 347.272 75.651C346.705 76.059 346.167 76.4217 345.657 76.739L344.348 77.555H350.927V79H341.662V77.81L344.246 76.093C345.096 75.5263 345.821 75.005 346.422 74.529C347.022 74.0417 347.51 73.5827 347.884 73.152C348.269 72.7213 348.547 72.3077 348.717 71.911C348.898 71.503 348.989 71.095 348.989 70.687C348.989 70.2677 348.921 69.9107 348.785 69.616C348.66 69.3213 348.479 69.0833 348.241 68.902C348.014 68.7207 347.742 68.5903 347.425 68.511C347.119 68.4317 346.79 68.392 346.439 68.392C345.929 68.392 345.487 68.4713 345.113 68.63C344.75 68.7887 344.438 68.9983 344.178 69.259C343.928 69.5083 343.73 69.7917 343.583 70.109C343.447 70.415 343.356 70.721 343.311 71.027L341.985 70.585ZM352.054 80.649C352.201 80.615 352.354 80.5527 352.513 80.462C352.683 80.3713 352.836 80.258 352.972 80.122C353.108 79.986 353.216 79.8387 353.295 79.68C353.386 79.5213 353.431 79.357 353.431 79.187C353.431 79.1077 353.425 79.0453 353.414 79C353.357 79.0113 353.289 79.017 353.21 79.017C352.961 79.017 352.745 78.9377 352.564 78.779C352.394 78.6203 352.309 78.3937 352.309 78.099C352.309 77.8043 352.4 77.572 352.581 77.402C352.762 77.2207 353.017 77.13 353.346 77.13C353.709 77.13 354.003 77.2547 354.23 77.504C354.468 77.742 354.587 78.1047 354.587 78.592C354.587 79.0567 354.525 79.4533 354.4 79.782C354.275 80.1107 354.111 80.3883 353.907 80.615C353.703 80.8417 353.471 81.0173 353.21 81.142C352.949 81.278 352.683 81.38 352.411 81.448L352.054 80.649ZM361.196 79.153C360.402 79.153 359.683 79.0283 359.037 78.779C358.402 78.5297 357.858 78.1613 357.405 77.674C356.951 77.1753 356.6 76.569 356.351 75.855C356.113 75.141 355.994 74.3137 355.994 73.373C355.994 72.3077 356.135 71.3727 356.419 70.568C356.702 69.7633 357.082 69.0947 357.558 68.562C358.045 68.018 358.606 67.6157 359.241 67.355C359.887 67.083 360.567 66.947 361.281 66.947C362.312 66.947 363.19 67.1567 363.916 67.576C364.641 67.9953 365.168 68.562 365.497 69.276L364.341 70.058C364.012 69.548 363.587 69.1457 363.066 68.851C362.556 68.545 361.938 68.392 361.213 68.392C360.646 68.392 360.136 68.5053 359.683 68.732C359.229 68.9473 358.838 69.2647 358.51 69.684C358.181 70.092 357.926 70.5907 357.745 71.18C357.563 71.758 357.467 72.4097 357.456 73.135V73.322C357.614 72.948 357.83 72.6193 358.102 72.336C358.385 72.0527 358.702 71.8147 359.054 71.622C359.405 71.4293 359.779 71.2877 360.176 71.197C360.584 71.095 360.997 71.044 361.417 71.044C362.108 71.044 362.731 71.1403 363.287 71.333C363.842 71.5257 364.312 71.7977 364.698 72.149C365.094 72.5003 365.395 72.9197 365.599 73.407C365.803 73.8943 365.905 74.4327 365.905 75.022C365.905 75.634 365.78 76.195 365.531 76.705C365.293 77.215 364.958 77.6513 364.528 78.014C364.108 78.3767 363.61 78.66 363.032 78.864C362.465 79.0567 361.853 79.153 361.196 79.153ZM361.179 77.708C361.655 77.708 362.085 77.6457 362.471 77.521C362.867 77.3963 363.207 77.2207 363.491 76.994C363.785 76.756 364.012 76.4783 364.171 76.161C364.329 75.8437 364.409 75.4867 364.409 75.09C364.409 74.6593 364.329 74.2853 364.171 73.968C364.023 73.6393 363.814 73.3673 363.542 73.152C363.27 72.9253 362.941 72.761 362.556 72.659C362.182 72.5457 361.774 72.489 361.332 72.489C360.244 72.489 359.416 72.7213 358.85 73.186C358.294 73.6507 358.017 74.2457 358.017 74.971C358.017 75.345 358.09 75.6963 358.238 76.025C358.385 76.3537 358.595 76.6427 358.867 76.892C359.139 77.1413 359.467 77.3397 359.853 77.487C360.249 77.6343 360.691 77.708 361.179 77.708ZM372.518 72.217C372.904 72.217 373.261 72.1717 373.589 72.081C373.929 71.979 374.224 71.843 374.473 71.673C374.723 71.503 374.915 71.299 375.051 71.061C375.199 70.823 375.272 70.5623 375.272 70.279C375.272 69.667 375.017 69.2023 374.507 68.885C374.009 68.5563 373.244 68.392 372.212 68.392C371.215 68.392 370.461 68.5563 369.951 68.885C369.453 69.2137 369.203 69.6783 369.203 70.279C369.203 70.551 369.271 70.806 369.407 71.044C369.543 71.282 369.73 71.4917 369.968 71.673C370.218 71.843 370.512 71.979 370.852 72.081C371.204 72.1717 371.583 72.217 371.991 72.217H372.518ZM372.059 73.56C371.583 73.56 371.141 73.6167 370.733 73.73C370.337 73.832 369.997 73.9793 369.713 74.172C369.43 74.3533 369.209 74.5743 369.05 74.835C368.892 75.0843 368.812 75.3507 368.812 75.634C368.812 76.246 369.096 76.7447 369.662 77.13C370.24 77.5153 371.096 77.708 372.229 77.708C373.397 77.708 374.258 77.5267 374.813 77.164C375.369 76.79 375.646 76.2857 375.646 75.651C375.646 74.9823 375.357 74.4667 374.779 74.104C374.213 73.7413 373.448 73.56 372.484 73.56H372.059ZM372.246 79.153C371.487 79.153 370.801 79.0793 370.189 78.932C369.589 78.7733 369.073 78.5523 368.642 78.269C368.223 77.9743 367.894 77.623 367.656 77.215C367.43 76.7957 367.316 76.3197 367.316 75.787C367.316 75.0843 367.526 74.478 367.945 73.968C368.376 73.4467 368.948 73.0727 369.662 72.846C369.322 72.7327 369.028 72.5853 368.778 72.404C368.529 72.2113 368.325 71.996 368.166 71.758C368.008 71.52 367.889 71.2707 367.809 71.01C367.741 70.738 367.707 70.4603 367.707 70.177C367.707 69.191 368.093 68.409 368.863 67.831C369.645 67.2417 370.767 66.947 372.229 66.947C373.703 66.947 374.825 67.2417 375.595 67.831C376.377 68.409 376.768 69.191 376.768 70.177C376.768 70.789 376.598 71.3047 376.258 71.724C375.93 72.1433 375.471 72.489 374.881 72.761C375.697 73.0103 376.275 73.3843 376.615 73.883C376.967 74.3817 377.142 74.9937 377.142 75.719C377.142 76.263 377.029 76.7503 376.802 77.181C376.576 77.6003 376.247 77.9573 375.816 78.252C375.397 78.5467 374.881 78.7733 374.269 78.932C373.669 79.0793 372.994 79.153 372.246 79.153ZM389.263 66.726L390.334 67.508L381.596 79.255L380.474 78.609L389.263 66.726ZM378.638 69.956C378.638 69.5253 378.718 69.1343 378.876 68.783C379.035 68.4203 379.25 68.1143 379.522 67.865C379.806 67.6043 380.134 67.406 380.508 67.27C380.894 67.1227 381.307 67.049 381.749 67.049C382.191 67.049 382.599 67.1227 382.973 67.27C383.347 67.406 383.67 67.6043 383.942 67.865C384.226 68.1143 384.447 68.4203 384.605 68.783C384.764 69.1343 384.843 69.5253 384.843 69.956C384.843 70.3867 384.764 70.7777 384.605 71.129C384.447 71.4803 384.226 71.7863 383.942 72.047C383.67 72.2963 383.347 72.4947 382.973 72.642C382.599 72.778 382.191 72.846 381.749 72.846C381.307 72.846 380.894 72.778 380.508 72.642C380.134 72.4947 379.806 72.2963 379.522 72.047C379.25 71.7863 379.035 71.4803 378.876 71.129C378.718 70.7777 378.638 70.3867 378.638 69.956ZM380.066 69.956C380.066 70.2167 380.112 70.449 380.202 70.653C380.304 70.857 380.429 71.0327 380.576 71.18C380.735 71.3273 380.916 71.4407 381.12 71.52C381.324 71.5993 381.534 71.639 381.749 71.639C382.191 71.639 382.577 71.486 382.905 71.18C383.245 70.874 383.415 70.466 383.415 69.956C383.415 69.446 383.245 69.038 382.905 68.732C382.577 68.426 382.191 68.273 381.749 68.273C381.296 68.273 380.899 68.426 380.559 68.732C380.231 69.038 380.066 69.446 380.066 69.956ZM385.931 76.161C385.931 75.7417 386.011 75.3563 386.169 75.005C386.328 74.6423 386.543 74.3363 386.815 74.087C387.099 73.8263 387.427 73.628 387.801 73.492C388.187 73.3447 388.6 73.271 389.042 73.271C389.484 73.271 389.892 73.3447 390.266 73.492C390.64 73.628 390.963 73.8263 391.235 74.087C391.519 74.3363 391.74 74.6423 391.898 75.005C392.057 75.3563 392.136 75.7417 392.136 76.161C392.136 76.5917 392.057 76.9827 391.898 77.334C391.74 77.6853 391.519 77.9913 391.235 78.252C390.963 78.5127 390.64 78.7167 390.266 78.864C389.892 79 389.484 79.068 389.042 79.068C388.6 79.068 388.187 79 387.801 78.864C387.427 78.7167 387.099 78.5127 386.815 78.252C386.543 77.9913 386.328 77.6853 386.169 77.334C386.011 76.9827 385.931 76.5917 385.931 76.161ZM387.359 76.161C387.359 76.4217 387.405 76.654 387.495 76.858C387.597 77.062 387.722 77.2377 387.869 77.385C388.028 77.5323 388.209 77.6457 388.413 77.725C388.617 77.8043 388.827 77.844 389.042 77.844C389.484 77.844 389.87 77.691 390.198 77.385C390.538 77.079 390.708 76.671 390.708 76.161C390.708 75.651 390.538 75.243 390.198 74.937C389.87 74.631 389.484 74.478 389.042 74.478C388.589 74.478 388.192 74.631 387.852 74.937C387.524 75.243 387.359 75.651 387.359 76.161Z" fill="#222429"/>
<path d="M450.294 248.07C450.378 247.669 450.518 247.286 450.714 246.922C450.91 246.558 451.162 246.241 451.47 245.97C451.778 245.69 452.146 245.471 452.576 245.312C453.005 245.153 453.495 245.074 454.046 245.074C454.559 245.074 455.016 245.149 455.418 245.298C455.819 245.438 456.16 245.639 456.44 245.9C456.72 246.161 456.93 246.474 457.07 246.838C457.219 247.202 457.294 247.599 457.294 248.028C457.294 248.635 457.163 249.195 456.902 249.708C456.65 250.212 456.328 250.674 455.936 251.094C455.544 251.514 455.114 251.897 454.648 252.242C454.181 252.578 453.738 252.877 453.318 253.138L452.24 253.81H457.658V255H450.028V254.02L452.156 252.606C452.856 252.139 453.453 251.71 453.948 251.318C454.442 250.917 454.844 250.539 455.152 250.184C455.469 249.829 455.698 249.489 455.838 249.162C455.987 248.826 456.062 248.49 456.062 248.154C456.062 247.809 456.006 247.515 455.894 247.272C455.791 247.029 455.642 246.833 455.446 246.684C455.259 246.535 455.035 246.427 454.774 246.362C454.522 246.297 454.251 246.264 453.962 246.264C453.542 246.264 453.178 246.329 452.87 246.46C452.571 246.591 452.314 246.763 452.1 246.978C451.894 247.183 451.731 247.417 451.61 247.678C451.498 247.93 451.423 248.182 451.386 248.434L450.294 248.07ZM458.628 250.1C458.628 249.372 458.712 248.705 458.88 248.098C459.048 247.482 459.3 246.95 459.636 246.502C459.981 246.054 460.415 245.704 460.938 245.452C461.461 245.2 462.077 245.074 462.786 245.074C463.495 245.074 464.111 245.191 464.634 245.424C465.157 245.657 465.591 245.993 465.936 246.432C466.281 246.871 466.538 247.403 466.706 248.028C466.874 248.644 466.958 249.335 466.958 250.1C466.958 250.828 466.874 251.5 466.706 252.116C466.547 252.723 466.295 253.25 465.95 253.698C465.614 254.146 465.185 254.496 464.662 254.748C464.139 255 463.523 255.126 462.814 255.126C462.142 255.126 461.545 255 461.022 254.748C460.499 254.496 460.061 254.146 459.706 253.698C459.351 253.25 459.081 252.723 458.894 252.116C458.717 251.5 458.628 250.828 458.628 250.1ZM459.86 250.1C459.86 251.295 460.121 252.233 460.644 252.914C461.167 253.595 461.89 253.936 462.814 253.936C463.822 253.936 464.559 253.595 465.026 252.914C465.493 252.233 465.726 251.295 465.726 250.1C465.726 248.905 465.488 247.967 465.012 247.286C464.536 246.605 463.794 246.264 462.786 246.264C462.282 246.264 461.848 246.353 461.484 246.53C461.12 246.707 460.817 246.964 460.574 247.3C460.331 247.636 460.149 248.042 460.028 248.518C459.916 248.985 459.86 249.512 459.86 250.1ZM468.102 248.07C468.186 247.669 468.326 247.286 468.522 246.922C468.718 246.558 468.97 246.241 469.278 245.97C469.586 245.69 469.954 245.471 470.384 245.312C470.813 245.153 471.303 245.074 471.854 245.074C472.367 245.074 472.824 245.149 473.226 245.298C473.627 245.438 473.968 245.639 474.248 245.9C474.528 246.161 474.738 246.474 474.878 246.838C475.027 247.202 475.102 247.599 475.102 248.028C475.102 248.635 474.971 249.195 474.71 249.708C474.458 250.212 474.136 250.674 473.744 251.094C473.352 251.514 472.922 251.897 472.456 252.242C471.989 252.578 471.546 252.877 471.126 253.138L470.048 253.81H475.466V255H467.836V254.02L469.964 252.606C470.664 252.139 471.261 251.71 471.756 251.318C472.25 250.917 472.652 250.539 472.96 250.184C473.277 249.829 473.506 249.489 473.646 249.162C473.795 248.826 473.87 248.49 473.87 248.154C473.87 247.809 473.814 247.515 473.702 247.272C473.599 247.029 473.45 246.833 473.254 246.684C473.067 246.535 472.843 246.427 472.582 246.362C472.33 246.297 472.059 246.264 471.77 246.264C471.35 246.264 470.986 246.329 470.678 246.46C470.379 246.591 470.122 246.763 469.908 246.978C469.702 247.183 469.539 247.417 469.418 247.678C469.306 247.93 469.231 248.182 469.194 248.434L468.102 248.07ZM476.534 248.07C476.618 247.669 476.758 247.286 476.954 246.922C477.15 246.558 477.402 246.241 477.71 245.97C478.018 245.69 478.387 245.471 478.816 245.312C479.245 245.153 479.735 245.074 480.286 245.074C480.799 245.074 481.257 245.149 481.658 245.298C482.059 245.438 482.4 245.639 482.68 245.9C482.96 246.161 483.17 246.474 483.31 246.838C483.459 247.202 483.534 247.599 483.534 248.028C483.534 248.635 483.403 249.195 483.142 249.708C482.89 250.212 482.568 250.674 482.176 251.094C481.784 251.514 481.355 251.897 480.888 252.242C480.421 252.578 479.978 252.877 479.558 253.138L478.48 253.81H483.898V255H476.268V254.02L478.396 252.606C479.096 252.139 479.693 251.71 480.188 251.318C480.683 250.917 481.084 250.539 481.392 250.184C481.709 249.829 481.938 249.489 482.078 249.162C482.227 248.826 482.302 248.49 482.302 248.154C482.302 247.809 482.246 247.515 482.134 247.272C482.031 247.029 481.882 246.833 481.686 246.684C481.499 246.535 481.275 246.427 481.014 246.362C480.762 246.297 480.491 246.264 480.202 246.264C479.782 246.264 479.418 246.329 479.11 246.46C478.811 246.591 478.555 246.763 478.34 246.978C478.135 247.183 477.971 247.417 477.85 247.678C477.738 247.93 477.663 248.182 477.626 248.434L476.534 248.07Z" fill="#777F8C"/>
<rect x="437" y="98" width="60" height="137" fill="#5FAF2D"/>
<rect x="437" y="98" width="60" height="4" fill="#3D7917"/>
<path d="M444.608 80.585C444.71 80.0977 444.88 79.633 445.118 79.191C445.356 78.749 445.662 78.3637 446.036 78.035C446.41 77.695 446.857 77.4287 447.379 77.236C447.9 77.0433 448.495 76.947 449.164 76.947C449.787 76.947 450.342 77.0377 450.83 77.219C451.317 77.389 451.731 77.6327 452.071 77.95C452.411 78.2673 452.666 78.647 452.836 79.089C453.017 79.531 453.108 80.0127 453.108 80.534C453.108 81.2707 452.949 81.9507 452.632 82.574C452.326 83.186 451.935 83.747 451.459 84.257C450.983 84.767 450.461 85.2317 449.895 85.651C449.328 86.059 448.79 86.4217 448.28 86.739L446.971 87.555H453.55V89H444.285V87.81L446.869 86.093C447.719 85.5263 448.444 85.005 449.045 84.529C449.645 84.0417 450.133 83.5827 450.507 83.152C450.892 82.7213 451.17 82.3077 451.34 81.911C451.521 81.503 451.612 81.095 451.612 80.687C451.612 80.2677 451.544 79.9107 451.408 79.616C451.283 79.3213 451.102 79.0833 450.864 78.902C450.637 78.7207 450.365 78.5903 450.048 78.511C449.742 78.4317 449.413 78.392 449.062 78.392C448.552 78.392 448.11 78.4713 447.736 78.63C447.373 78.7887 447.061 78.9983 446.801 79.259C446.551 79.5083 446.353 79.7917 446.206 80.109C446.07 80.415 445.979 80.721 445.934 81.027L444.608 80.585ZM454.677 90.649C454.824 90.615 454.977 90.5527 455.136 90.462C455.306 90.3713 455.459 90.258 455.595 90.122C455.731 89.986 455.839 89.8387 455.918 89.68C456.009 89.5213 456.054 89.357 456.054 89.187C456.054 89.1077 456.048 89.0453 456.037 89C455.98 89.0113 455.912 89.017 455.833 89.017C455.584 89.017 455.368 88.9377 455.187 88.779C455.017 88.6203 454.932 88.3937 454.932 88.099C454.932 87.8043 455.023 87.572 455.204 87.402C455.385 87.2207 455.64 87.13 455.969 87.13C456.332 87.13 456.626 87.2547 456.853 87.504C457.091 87.742 457.21 88.1047 457.21 88.592C457.21 89.0567 457.148 89.4533 457.023 89.782C456.898 90.1107 456.734 90.3883 456.53 90.615C456.326 90.8417 456.094 91.0173 455.833 91.142C455.572 91.278 455.306 91.38 455.034 91.448L454.677 90.649ZM459.824 77.1H467.304V78.545H461.133L460.691 81.741C460.951 81.5483 461.303 81.3897 461.745 81.265C462.198 81.129 462.748 81.061 463.394 81.061C464.108 81.061 464.742 81.163 465.298 81.367C465.853 81.571 466.318 81.8543 466.692 82.217C467.066 82.5797 467.349 83.0047 467.542 83.492C467.746 83.9793 467.848 84.5007 467.848 85.056C467.848 85.6567 467.729 86.2063 467.491 86.705C467.264 87.2037 466.941 87.6343 466.522 87.997C466.114 88.3597 465.626 88.643 465.06 88.847C464.504 89.051 463.898 89.153 463.241 89.153C462.697 89.153 462.175 89.0907 461.677 88.966C461.178 88.8413 460.713 88.6543 460.283 88.405C459.863 88.1557 459.489 87.8553 459.161 87.504C458.843 87.1413 458.588 86.722 458.396 86.246L459.756 85.668C459.869 85.9287 460.028 86.1837 460.232 86.433C460.436 86.671 460.685 86.8863 460.98 87.079C461.274 87.2717 461.609 87.4247 461.983 87.538C462.357 87.6513 462.776 87.708 463.241 87.708C463.762 87.708 464.215 87.64 464.601 87.504C464.997 87.3567 465.326 87.164 465.587 86.926C465.847 86.688 466.04 86.416 466.165 86.11C466.289 85.7927 466.352 85.4583 466.352 85.107C466.352 84.3023 466.051 83.6677 465.451 83.203C464.861 82.7383 464.04 82.506 462.986 82.506C462.385 82.506 461.881 82.591 461.473 82.761C461.076 82.9197 460.702 83.1747 460.351 83.526L459.127 83.203L459.824 77.1ZM472.708 77.032H473.677V89H472.249V78.851L469.172 80.262L468.628 78.987L472.708 77.032ZM486.64 76.726L487.711 77.508L478.973 89.255L477.851 88.609L486.64 76.726ZM476.015 79.956C476.015 79.5253 476.095 79.1343 476.253 78.783C476.412 78.4203 476.627 78.1143 476.899 77.865C477.183 77.6043 477.511 77.406 477.885 77.27C478.271 77.1227 478.684 77.049 479.126 77.049C479.568 77.049 479.976 77.1227 480.35 77.27C480.724 77.406 481.047 77.6043 481.319 77.865C481.603 78.1143 481.824 78.4203 481.982 78.783C482.141 79.1343 482.22 79.5253 482.22 79.956C482.22 80.3867 482.141 80.7777 481.982 81.129C481.824 81.4803 481.603 81.7863 481.319 82.047C481.047 82.2963 480.724 82.4947 480.35 82.642C479.976 82.778 479.568 82.846 479.126 82.846C478.684 82.846 478.271 82.778 477.885 82.642C477.511 82.4947 477.183 82.2963 476.899 82.047C476.627 81.7863 476.412 81.4803 476.253 81.129C476.095 80.7777 476.015 80.3867 476.015 79.956ZM477.443 79.956C477.443 80.2167 477.489 80.449 477.579 80.653C477.681 80.857 477.806 81.0327 477.953 81.18C478.112 81.3273 478.293 81.4407 478.497 81.52C478.701 81.5993 478.911 81.639 479.126 81.639C479.568 81.639 479.954 81.486 480.282 81.18C480.622 80.874 480.792 80.466 480.792 79.956C480.792 79.446 480.622 79.038 480.282 78.732C479.954 78.426 479.568 78.273 479.126 78.273C478.673 78.273 478.276 78.426 477.936 78.732C477.608 79.038 477.443 79.446 477.443 79.956ZM483.308 86.161C483.308 85.7417 483.388 85.3563 483.546 85.005C483.705 84.6423 483.92 84.3363 484.192 84.087C484.476 83.8263 484.804 83.628 485.178 83.492C485.564 83.3447 485.977 83.271 486.419 83.271C486.861 83.271 487.269 83.3447 487.643 83.492C488.017 83.628 488.34 83.8263 488.612 84.087C488.896 84.3363 489.117 84.6423 489.275 85.005C489.434 85.3563 489.513 85.7417 489.513 86.161C489.513 86.5917 489.434 86.9827 489.275 87.334C489.117 87.6853 488.896 87.9913 488.612 88.252C488.34 88.5127 488.017 88.7167 487.643 88.864C487.269 89 486.861 89.068 486.419 89.068C485.977 89.068 485.564 89 485.178 88.864C484.804 88.7167 484.476 88.5127 484.192 88.252C483.92 87.9913 483.705 87.6853 483.546 87.334C483.388 86.9827 483.308 86.5917 483.308 86.161ZM484.736 86.161C484.736 86.4217 484.782 86.654 484.872 86.858C484.974 87.062 485.099 87.2377 485.246 87.385C485.405 87.5323 485.586 87.6457 485.79 87.725C485.994 87.8043 486.204 87.844 486.419 87.844C486.861 87.844 487.247 87.691 487.575 87.385C487.915 87.079 488.085 86.671 488.085 86.161C488.085 85.651 487.915 85.243 487.575 84.937C487.247 84.631 486.861 84.478 486.419 84.478C485.966 84.478 485.569 84.631 485.229 84.937C484.901 85.243 484.736 85.651 484.736 86.161Z" fill="#222429"/>
<rect y="235" width="536" height="1" fill="#9299A3"/>
<path d="M51.4354 248.07C51.5194 247.669 51.6594 247.286 51.8554 246.922C52.0514 246.558 52.3034 246.241 52.6114 245.97C52.9194 245.69 53.2881 245.471 53.7174 245.312C54.1467 245.153 54.6367 245.074 55.1874 245.074C55.7007 245.074 56.1581 245.149 56.5594 245.298C56.9607 245.438 57.3014 245.639 57.5814 245.9C57.8614 246.161 58.0714 246.474 58.2114 246.838C58.3607 247.202 58.4354 247.599 58.4354 248.028C58.4354 248.635 58.3047 249.195 58.0434 249.708C57.7914 250.212 57.4694 250.674 57.0774 251.094C56.6854 251.514 56.2561 251.897 55.7894 252.242C55.3227 252.578 54.8794 252.877 54.4594 253.138L53.3814 253.81H58.7994V255H51.1694V254.02L53.2974 252.606C53.9974 252.139 54.5947 251.71 55.0894 251.318C55.5841 250.917 55.9854 250.539 56.2934 250.184C56.6107 249.829 56.8394 249.489 56.9794 249.162C57.1287 248.826 57.2034 248.49 57.2034 248.154C57.2034 247.809 57.1474 247.515 57.0354 247.272C56.9327 247.029 56.7834 246.833 56.5874 246.684C56.4007 246.535 56.1767 246.427 55.9154 246.362C55.6634 246.297 55.3927 246.264 55.1034 246.264C54.6834 246.264 54.3194 246.329 54.0114 246.46C53.7127 246.591 53.4561 246.763 53.2414 246.978C53.0361 247.183 52.8727 247.417 52.7514 247.678C52.6394 247.93 52.5647 248.182 52.5274 248.434L51.4354 248.07ZM59.7697 250.1C59.7697 249.372 59.8537 248.705 60.0217 248.098C60.1897 247.482 60.4417 246.95 60.7777 246.502C61.123 246.054 61.557 245.704 62.0797 245.452C62.6023 245.2 63.2183 245.074 63.9277 245.074C64.637 245.074 65.253 245.191 65.7757 245.424C66.2983 245.657 66.7323 245.993 67.0777 246.432C67.423 246.871 67.6797 247.403 67.8477 248.028C68.0157 248.644 68.0997 249.335 68.0997 250.1C68.0997 250.828 68.0157 251.5 67.8477 252.116C67.689 252.723 67.437 253.25 67.0917 253.698C66.7557 254.146 66.3263 254.496 65.8037 254.748C65.281 255 64.665 255.126 63.9557 255.126C63.2837 255.126 62.6863 255 62.1637 254.748C61.641 254.496 61.2023 254.146 60.8477 253.698C60.493 253.25 60.2223 252.723 60.0357 252.116C59.8583 251.5 59.7697 250.828 59.7697 250.1ZM61.0017 250.1C61.0017 251.295 61.263 252.233 61.7857 252.914C62.3083 253.595 63.0317 253.936 63.9557 253.936C64.9637 253.936 65.701 253.595 66.1677 252.914C66.6343 252.233 66.8677 251.295 66.8677 250.1C66.8677 248.905 66.6297 247.967 66.1537 247.286C65.6777 246.605 64.9357 246.264 63.9277 246.264C63.4237 246.264 62.9897 246.353 62.6257 246.53C62.2617 246.707 61.9583 246.964 61.7157 247.3C61.473 247.636 61.291 248.042 61.1697 248.518C61.0577 248.985 61.0017 249.512 61.0017 250.1ZM71.9453 245.144H72.7433V255H71.5673V246.642L69.0333 247.804L68.5853 246.754L71.9453 245.144ZM78.8267 249.414C79.1441 249.414 79.4381 249.377 79.7087 249.302C79.9887 249.218 80.2314 249.106 80.4367 248.966C80.6421 248.826 80.8007 248.658 80.9127 248.462C81.0341 248.266 81.0947 248.051 81.0947 247.818C81.0947 247.314 80.8847 246.931 80.4647 246.67C80.0541 246.399 79.4241 246.264 78.5747 246.264C77.7534 246.264 77.1327 246.399 76.7127 246.67C76.3021 246.941 76.0967 247.323 76.0967 247.818C76.0967 248.042 76.1527 248.252 76.2647 248.448C76.3767 248.644 76.5307 248.817 76.7267 248.966C76.9321 249.106 77.1747 249.218 77.4547 249.302C77.7441 249.377 78.0567 249.414 78.3927 249.414H78.8267ZM78.4487 250.52C78.0567 250.52 77.6927 250.567 77.3567 250.66C77.0301 250.744 76.7501 250.865 76.5167 251.024C76.2834 251.173 76.1014 251.355 75.9707 251.57C75.8401 251.775 75.7747 251.995 75.7747 252.228C75.7747 252.732 76.0081 253.143 76.4747 253.46C76.9507 253.777 77.6554 253.936 78.5887 253.936C79.5501 253.936 80.2594 253.787 80.7167 253.488C81.1741 253.18 81.4027 252.765 81.4027 252.242C81.4027 251.691 81.1647 251.267 80.6887 250.968C80.2221 250.669 79.5921 250.52 78.7987 250.52H78.4487ZM78.6027 255.126C77.9774 255.126 77.4127 255.065 76.9087 254.944C76.4141 254.813 75.9894 254.631 75.6347 254.398C75.2894 254.155 75.0187 253.866 74.8227 253.53C74.6361 253.185 74.5427 252.793 74.5427 252.354C74.5427 251.775 74.7154 251.276 75.0607 250.856C75.4154 250.427 75.8867 250.119 76.4747 249.932C76.1947 249.839 75.9521 249.717 75.7467 249.568C75.5414 249.409 75.3734 249.232 75.2427 249.036C75.1121 248.84 75.0141 248.635 74.9487 248.42C74.8927 248.196 74.8647 247.967 74.8647 247.734C74.8647 246.922 75.1821 246.278 75.8167 245.802C76.4607 245.317 77.3847 245.074 78.5887 245.074C79.8021 245.074 80.7261 245.317 81.3607 245.802C82.0047 246.278 82.3267 246.922 82.3267 247.734C82.3267 248.238 82.1867 248.663 81.9067 249.008C81.6361 249.353 81.2581 249.638 80.7727 249.862C81.4447 250.067 81.9207 250.375 82.2007 250.786C82.4901 251.197 82.6347 251.701 82.6347 252.298C82.6347 252.746 82.5414 253.147 82.3547 253.502C82.1681 253.847 81.8974 254.141 81.5427 254.384C81.1974 254.627 80.7727 254.813 80.2687 254.944C79.7741 255.065 79.2187 255.126 78.6027 255.126Z" fill="#777F8C"/>
<rect x="37" y="79" width="60" height="156" fill="#BFCED4"/>
<rect x="37" y="79" width="60" height="4" fill="#A6B2BC"/>
<path d="M41.9848 61.585C42.0868 61.0977 42.2568 60.633 42.4948 60.191C42.7328 59.749 43.0388 59.3637 43.4128 59.035C43.7868 58.695 44.2344 58.4287 44.7558 58.236C45.2771 58.0433 45.8721 57.947 46.5408 57.947C47.1641 57.947 47.7194 58.0377 48.2068 58.219C48.6941 58.389 49.1078 58.6327 49.4478 58.95C49.7878 59.2673 50.0428 59.647 50.2128 60.089C50.3941 60.531 50.4848 61.0127 50.4848 61.534C50.4848 62.2707 50.3261 62.9507 50.0088 63.574C49.7028 64.186 49.3118 64.747 48.8358 65.257C48.3598 65.767 47.8384 66.2317 47.2718 66.651C46.7051 67.059 46.1668 67.4217 45.6568 67.739L44.3478 68.555H50.9268V70H41.6618V68.81L44.2458 67.093C45.0958 66.5263 45.8211 66.005 46.4218 65.529C47.0224 65.0417 47.5098 64.5827 47.8838 64.152C48.2691 63.7213 48.5468 63.3077 48.7168 62.911C48.8981 62.503 48.9888 62.095 48.9888 61.687C48.9888 61.2677 48.9208 60.9107 48.7848 60.616C48.6601 60.3213 48.4788 60.0833 48.2408 59.902C48.0141 59.7207 47.7421 59.5903 47.4248 59.511C47.1188 59.4317 46.7901 59.392 46.4388 59.392C45.9288 59.392 45.4868 59.4713 45.1128 59.63C44.7501 59.7887 44.4384 59.9983 44.1778 60.259C43.9284 60.5083 43.7301 60.7917 43.5828 61.109C43.4468 61.415 43.3561 61.721 43.3108 62.027L41.9848 61.585ZM52.0539 71.649C52.2013 71.615 52.3543 71.5527 52.5129 71.462C52.6829 71.3713 52.8359 71.258 52.9719 71.122C53.1079 70.986 53.2156 70.8387 53.2949 70.68C53.3856 70.5213 53.4309 70.357 53.4309 70.187C53.4309 70.1077 53.4253 70.0453 53.4139 70C53.3573 70.0113 53.2893 70.017 53.2099 70.017C52.9606 70.017 52.7453 69.9377 52.5639 69.779C52.3939 69.6203 52.3089 69.3937 52.3089 69.099C52.3089 68.8043 52.3996 68.572 52.5809 68.402C52.7623 68.2207 53.0173 68.13 53.3459 68.13C53.7086 68.13 54.0033 68.2547 54.2299 68.504C54.4679 68.742 54.5869 69.1047 54.5869 69.592C54.5869 70.0567 54.5246 70.4533 54.3999 70.782C54.2753 71.1107 54.1109 71.3883 53.9069 71.615C53.7029 71.8417 53.4706 72.0173 53.2099 72.142C52.9493 72.278 52.6829 72.38 52.4109 72.448L52.0539 71.649ZM61.2127 63.217C61.598 63.217 61.955 63.1717 62.2837 63.081C62.6237 62.979 62.9184 62.843 63.1677 62.673C63.417 62.503 63.6097 62.299 63.7457 62.061C63.893 61.823 63.9667 61.5623 63.9667 61.279C63.9667 60.667 63.7117 60.2023 63.2017 59.885C62.703 59.5563 61.938 59.392 60.9067 59.392C59.9094 59.392 59.1557 59.5563 58.6457 59.885C58.147 60.2137 57.8977 60.6783 57.8977 61.279C57.8977 61.551 57.9657 61.806 58.1017 62.044C58.2377 62.282 58.4247 62.4917 58.6627 62.673C58.912 62.843 59.2067 62.979 59.5467 63.081C59.898 63.1717 60.2777 63.217 60.6857 63.217H61.2127ZM60.7537 64.56C60.2777 64.56 59.8357 64.6167 59.4277 64.73C59.031 64.832 58.691 64.9793 58.4077 65.172C58.1244 65.3533 57.9034 65.5743 57.7447 65.835C57.586 66.0843 57.5067 66.3507 57.5067 66.634C57.5067 67.246 57.79 67.7447 58.3567 68.13C58.9347 68.5153 59.7904 68.708 60.9237 68.708C62.091 68.708 62.9524 68.5267 63.5077 68.164C64.063 67.79 64.3407 67.2857 64.3407 66.651C64.3407 65.9823 64.0517 65.4667 63.4737 65.104C62.907 64.7413 62.142 64.56 61.1787 64.56H60.7537ZM60.9407 70.153C60.1814 70.153 59.4957 70.0793 58.8837 69.932C58.283 69.7733 57.7674 69.5523 57.3367 69.269C56.9174 68.9743 56.5887 68.623 56.3507 68.215C56.124 67.7957 56.0107 67.3197 56.0107 66.787C56.0107 66.0843 56.2204 65.478 56.6397 64.968C57.0704 64.4467 57.6427 64.0727 58.3567 63.846C58.0167 63.7327 57.722 63.5853 57.4727 63.404C57.2234 63.2113 57.0194 62.996 56.8607 62.758C56.702 62.52 56.583 62.2707 56.5037 62.01C56.4357 61.738 56.4017 61.4603 56.4017 61.177C56.4017 60.191 56.787 59.409 57.5577 58.831C58.3397 58.2417 59.4617 57.947 60.9237 57.947C62.397 57.947 63.519 58.2417 64.2897 58.831C65.0717 59.409 65.4627 60.191 65.4627 61.177C65.4627 61.789 65.2927 62.3047 64.9527 62.724C64.624 63.1433 64.165 63.489 63.5757 63.761C64.3917 64.0103 64.9697 64.3843 65.3097 64.883C65.661 65.3817 65.8367 65.9937 65.8367 66.719C65.8367 67.263 65.7234 67.7503 65.4967 68.181C65.27 68.6003 64.9414 68.9573 64.5107 69.252C64.0914 69.5467 63.5757 69.7733 62.9637 69.932C62.363 70.0793 61.6887 70.153 60.9407 70.153ZM72.5346 70.153C71.7412 70.153 71.0216 70.0283 70.3756 69.779C69.7409 69.5297 69.1969 69.1613 68.7436 68.674C68.2902 68.1753 67.9389 67.569 67.6896 66.855C67.4516 66.141 67.3326 65.3137 67.3326 64.373C67.3326 63.3077 67.4742 62.3727 67.7576 61.568C68.0409 60.7633 68.4206 60.0947 68.8966 59.562C69.3839 59.018 69.9449 58.6157 70.5796 58.355C71.2256 58.083 71.9056 57.947 72.6196 57.947C73.6509 57.947 74.5292 58.1567 75.2546 58.576C75.9799 58.9953 76.5069 59.562 76.8356 60.276L75.6796 61.058C75.3509 60.548 74.9259 60.1457 74.4046 59.851C73.8946 59.545 73.2769 59.392 72.5516 59.392C71.9849 59.392 71.4749 59.5053 71.0216 59.732C70.5682 59.9473 70.1772 60.2647 69.8486 60.684C69.5199 61.092 69.2649 61.5907 69.0836 62.18C68.9022 62.758 68.8059 63.4097 68.7946 64.135V64.322C68.9532 63.948 69.1686 63.6193 69.4406 63.336C69.7239 63.0527 70.0412 62.8147 70.3926 62.622C70.7439 62.4293 71.1179 62.2877 71.5146 62.197C71.9226 62.095 72.3362 62.044 72.7556 62.044C73.4469 62.044 74.0702 62.1403 74.6256 62.333C75.1809 62.5257 75.6512 62.7977 76.0366 63.149C76.4332 63.5003 76.7336 63.9197 76.9376 64.407C77.1416 64.8943 77.2436 65.4327 77.2436 66.022C77.2436 66.634 77.1189 67.195 76.8696 67.705C76.6316 68.215 76.2972 68.6513 75.8666 69.014C75.4472 69.3767 74.9486 69.66 74.3706 69.864C73.8039 70.0567 73.1919 70.153 72.5346 70.153ZM72.5176 68.708C72.9936 68.708 73.4242 68.6457 73.8096 68.521C74.2062 68.3963 74.5462 68.2207 74.8296 67.994C75.1242 67.756 75.3509 67.4783 75.5096 67.161C75.6682 66.8437 75.7476 66.4867 75.7476 66.09C75.7476 65.6593 75.6682 65.2853 75.5096 64.968C75.3622 64.6393 75.1526 64.3673 74.8806 64.152C74.6086 63.9253 74.2799 63.761 73.8946 63.659C73.5206 63.5457 73.1126 63.489 72.6706 63.489C71.5826 63.489 70.7552 63.7213 70.1886 64.186C69.6332 64.6507 69.3556 65.2457 69.3556 65.971C69.3556 66.345 69.4292 66.6963 69.5766 67.025C69.7239 67.3537 69.9336 67.6427 70.2056 67.892C70.4776 68.1413 70.8062 68.3397 71.1916 68.487C71.5882 68.6343 72.0302 68.708 72.5176 68.708ZM89.2632 57.726L90.3342 58.508L81.5962 70.255L80.4742 69.609L89.2632 57.726ZM78.6382 60.956C78.6382 60.5253 78.7176 60.1343 78.8762 59.783C79.0349 59.4203 79.2502 59.1143 79.5222 58.865C79.8056 58.6043 80.1342 58.406 80.5082 58.27C80.8936 58.1227 81.3072 58.049 81.7492 58.049C82.1912 58.049 82.5992 58.1227 82.9732 58.27C83.3472 58.406 83.6702 58.6043 83.9422 58.865C84.2256 59.1143 84.4466 59.4203 84.6052 59.783C84.7639 60.1343 84.8432 60.5253 84.8432 60.956C84.8432 61.3867 84.7639 61.7777 84.6052 62.129C84.4466 62.4803 84.2256 62.7863 83.9422 63.047C83.6702 63.2963 83.3472 63.4947 82.9732 63.642C82.5992 63.778 82.1912 63.846 81.7492 63.846C81.3072 63.846 80.8936 63.778 80.5082 63.642C80.1342 63.4947 79.8056 63.2963 79.5222 63.047C79.2502 62.7863 79.0349 62.4803 78.8762 62.129C78.7176 61.7777 78.6382 61.3867 78.6382 60.956ZM80.0662 60.956C80.0662 61.2167 80.1116 61.449 80.2022 61.653C80.3042 61.857 80.4289 62.0327 80.5762 62.18C80.7349 62.3273 80.9162 62.4407 81.1202 62.52C81.3242 62.5993 81.5339 62.639 81.7492 62.639C82.1912 62.639 82.5766 62.486 82.9052 62.18C83.2452 61.874 83.4152 61.466 83.4152 60.956C83.4152 60.446 83.2452 60.038 82.9052 59.732C82.5766 59.426 82.1912 59.273 81.7492 59.273C81.2959 59.273 80.8992 59.426 80.5592 59.732C80.2306 60.038 80.0662 60.446 80.0662 60.956ZM85.9312 67.161C85.9312 66.7417 86.0106 66.3563 86.1692 66.005C86.3279 65.6423 86.5432 65.3363 86.8152 65.087C87.0986 64.8263 87.4272 64.628 87.8012 64.492C88.1866 64.3447 88.6002 64.271 89.0422 64.271C89.4842 64.271 89.8922 64.3447 90.2662 64.492C90.6402 64.628 90.9632 64.8263 91.2352 65.087C91.5186 65.3363 91.7396 65.6423 91.8982 66.005C92.0569 66.3563 92.1362 66.7417 92.1362 67.161C92.1362 67.5917 92.0569 67.9827 91.8982 68.334C91.7396 68.6853 91.5186 68.9913 91.2352 69.252C90.9632 69.5127 90.6402 69.7167 90.2662 69.864C89.8922 70 89.4842 70.068 89.0422 70.068C88.6002 70.068 88.1866 70 87.8012 69.864C87.4272 69.7167 87.0986 69.5127 86.8152 69.252C86.5432 68.9913 86.3279 68.6853 86.1692 68.334C86.0106 67.9827 85.9312 67.5917 85.9312 67.161ZM87.3592 67.161C87.3592 67.4217 87.4046 67.654 87.4952 67.858C87.5972 68.062 87.7219 68.2377 87.8692 68.385C88.0279 68.5323 88.2092 68.6457 88.4132 68.725C88.6172 68.8043 88.8269 68.844 89.0422 68.844C89.4842 68.844 89.8696 68.691 90.1982 68.385C90.5382 68.079 90.7082 67.671 90.7082 67.161C90.7082 66.651 90.5382 66.243 90.1982 65.937C89.8696 65.631 89.4842 65.478 89.0422 65.478C88.5889 65.478 88.1922 65.631 87.8522 65.937C87.5236 66.243 87.3592 66.651 87.3592 67.161Z" fill="#222429"/>
<path d="M151.435 248.07C151.519 247.669 151.659 247.286 151.855 246.922C152.051 246.558 152.303 246.241 152.611 245.97C152.919 245.69 153.288 245.471 153.717 245.312C154.147 245.153 154.637 245.074 155.187 245.074C155.701 245.074 156.158 245.149 156.559 245.298C156.961 245.438 157.301 245.639 157.581 245.9C157.861 246.161 158.071 246.474 158.211 246.838C158.361 247.202 158.435 247.599 158.435 248.028C158.435 248.635 158.305 249.195 158.043 249.708C157.791 250.212 157.469 250.674 157.077 251.094C156.685 251.514 156.256 251.897 155.789 252.242C155.323 252.578 154.879 252.877 154.459 253.138L153.381 253.81H158.799V255H151.169V254.02L153.297 252.606C153.997 252.139 154.595 251.71 155.089 251.318C155.584 250.917 155.985 250.539 156.293 250.184C156.611 249.829 156.839 249.489 156.979 249.162C157.129 248.826 157.203 248.49 157.203 248.154C157.203 247.809 157.147 247.515 157.035 247.272C156.933 247.029 156.783 246.833 156.587 246.684C156.401 246.535 156.177 246.427 155.915 246.362C155.663 246.297 155.393 246.264 155.103 246.264C154.683 246.264 154.319 246.329 154.011 246.46C153.713 246.591 153.456 246.763 153.241 246.978C153.036 247.183 152.873 247.417 152.751 247.678C152.639 247.93 152.565 248.182 152.527 248.434L151.435 248.07ZM159.77 250.1C159.77 249.372 159.854 248.705 160.022 248.098C160.19 247.482 160.442 246.95 160.778 246.502C161.123 246.054 161.557 245.704 162.08 245.452C162.602 245.2 163.218 245.074 163.928 245.074C164.637 245.074 165.253 245.191 165.776 245.424C166.298 245.657 166.732 245.993 167.078 246.432C167.423 246.871 167.68 247.403 167.848 248.028C168.016 248.644 168.1 249.335 168.1 250.1C168.1 250.828 168.016 251.5 167.848 252.116C167.689 252.723 167.437 253.25 167.092 253.698C166.756 254.146 166.326 254.496 165.804 254.748C165.281 255 164.665 255.126 163.956 255.126C163.284 255.126 162.686 255 162.164 254.748C161.641 254.496 161.202 254.146 160.848 253.698C160.493 253.25 160.222 252.723 160.036 252.116C159.858 251.5 159.77 250.828 159.77 250.1ZM161.002 250.1C161.002 251.295 161.263 252.233 161.786 252.914C162.308 253.595 163.032 253.936 163.956 253.936C164.964 253.936 165.701 253.595 166.168 252.914C166.634 252.233 166.868 251.295 166.868 250.1C166.868 248.905 166.63 247.967 166.154 247.286C165.678 246.605 164.936 246.264 163.928 246.264C163.424 246.264 162.99 246.353 162.626 246.53C162.262 246.707 161.958 246.964 161.716 247.3C161.473 247.636 161.291 248.042 161.17 248.518C161.058 248.985 161.002 249.512 161.002 250.1ZM171.945 245.144H172.743V255H171.567V246.642L169.033 247.804L168.585 246.754L171.945 245.144ZM178.295 255.126C177.445 255.126 176.717 254.963 176.111 254.636C175.513 254.309 175.065 253.894 174.767 253.39L175.775 252.69C176.064 253.091 176.442 253.399 176.909 253.614C177.385 253.829 177.903 253.936 178.463 253.936C178.892 253.936 179.284 253.852 179.639 253.684C180.003 253.507 180.315 253.264 180.577 252.956C180.847 252.648 181.057 252.284 181.207 251.864C181.356 251.444 181.431 250.987 181.431 250.492C181.431 250.436 181.431 250.38 181.431 250.324C181.431 250.268 181.426 250.212 181.417 250.156C181.193 250.688 180.81 251.131 180.269 251.486C179.737 251.831 179.06 252.004 178.239 252.004C177.697 252.004 177.198 251.925 176.741 251.766C176.283 251.598 175.887 251.369 175.551 251.08C175.215 250.781 174.953 250.427 174.767 250.016C174.58 249.605 174.487 249.148 174.487 248.644C174.487 248.103 174.585 247.613 174.781 247.174C174.986 246.726 175.271 246.348 175.635 246.04C175.999 245.732 176.433 245.494 176.937 245.326C177.45 245.158 178.015 245.074 178.631 245.074C179.256 245.074 179.816 245.181 180.311 245.396C180.815 245.601 181.239 245.909 181.585 246.32C181.939 246.731 182.21 247.239 182.397 247.846C182.583 248.443 182.677 249.134 182.677 249.918C182.677 250.777 182.569 251.533 182.355 252.186C182.149 252.83 181.851 253.371 181.459 253.81C181.076 254.239 180.614 254.566 180.073 254.79C179.541 255.014 178.948 255.126 178.295 255.126ZM178.463 250.814C178.864 250.814 179.228 250.758 179.555 250.646C179.881 250.534 180.157 250.38 180.381 250.184C180.614 249.979 180.791 249.741 180.913 249.47C181.034 249.199 181.095 248.91 181.095 248.602C181.095 248.303 181.048 248.014 180.955 247.734C180.861 247.454 180.712 247.207 180.507 246.992C180.301 246.768 180.031 246.591 179.695 246.46C179.368 246.329 178.967 246.264 178.491 246.264C177.623 246.264 176.941 246.46 176.447 246.852C175.961 247.235 175.719 247.799 175.719 248.546C175.719 249.255 175.966 249.811 176.461 250.212C176.955 250.613 177.623 250.814 178.463 250.814Z" fill="#777F8C"/>
<rect x="137" y="89" width="60" height="146" fill="#BFCED4"/>
<rect x="137" y="89" width="60" height="4" fill="#A6B2BC"/>
<path d="M142.798 71.585C142.9 71.0977 143.07 70.633 143.308 70.191C143.546 69.749 143.852 69.3637 144.226 69.035C144.6 68.695 145.048 68.4287 145.569 68.236C146.091 68.0433 146.686 67.947 147.354 67.947C147.978 67.947 148.533 68.0377 149.02 68.219C149.508 68.389 149.921 68.6327 150.261 68.95C150.601 69.2673 150.856 69.647 151.026 70.089C151.208 70.531 151.298 71.0127 151.298 71.534C151.298 72.2707 151.14 72.9507 150.822 73.574C150.516 74.186 150.125 74.747 149.649 75.257C149.173 75.767 148.652 76.2317 148.085 76.651C147.519 77.059 146.98 77.4217 146.47 77.739L145.161 78.555H151.74V80H142.475V78.81L145.059 77.093C145.909 76.5263 146.635 76.005 147.235 75.529C147.836 75.0417 148.323 74.5827 148.697 74.152C149.083 73.7213 149.36 73.3077 149.53 72.911C149.712 72.503 149.802 72.095 149.802 71.687C149.802 71.2677 149.734 70.9107 149.598 70.616C149.474 70.3213 149.292 70.0833 149.054 69.902C148.828 69.7207 148.556 69.5903 148.238 69.511C147.932 69.4317 147.604 69.392 147.252 69.392C146.742 69.392 146.3 69.4713 145.926 69.63C145.564 69.7887 145.252 69.9983 144.991 70.259C144.742 70.5083 144.544 70.7917 144.396 71.109C144.26 71.415 144.17 71.721 144.124 72.027L142.798 71.585ZM152.867 81.649C153.015 81.615 153.168 81.5527 153.326 81.462C153.496 81.3713 153.649 81.258 153.785 81.122C153.921 80.986 154.029 80.8387 154.108 80.68C154.199 80.5213 154.244 80.357 154.244 80.187C154.244 80.1077 154.239 80.0453 154.227 80C154.171 80.0113 154.103 80.017 154.023 80.017C153.774 80.017 153.559 79.9377 153.377 79.779C153.207 79.6203 153.122 79.3937 153.122 79.099C153.122 78.8043 153.213 78.572 153.394 78.402C153.576 78.2207 153.831 78.13 154.159 78.13C154.522 78.13 154.817 78.2547 155.043 78.504C155.281 78.742 155.4 79.1047 155.4 79.592C155.4 80.0567 155.338 80.4533 155.213 80.782C155.089 81.1107 154.924 81.3883 154.72 81.615C154.516 81.8417 154.284 82.0173 154.023 82.142C153.763 82.278 153.496 82.38 153.224 82.448L152.867 81.649ZM162.009 80.153C161.216 80.153 160.496 80.0283 159.85 79.779C159.216 79.5297 158.672 79.1613 158.218 78.674C157.765 78.1753 157.414 77.569 157.164 76.855C156.926 76.141 156.807 75.3137 156.807 74.373C156.807 73.3077 156.949 72.3727 157.232 71.568C157.516 70.7633 157.895 70.0947 158.371 69.562C158.859 69.018 159.42 68.6157 160.054 68.355C160.7 68.083 161.38 67.947 162.094 67.947C163.126 67.947 164.004 68.1567 164.729 68.576C165.455 68.9953 165.982 69.562 166.31 70.276L165.154 71.058C164.826 70.548 164.401 70.1457 163.879 69.851C163.369 69.545 162.752 69.392 162.026 69.392C161.46 69.392 160.95 69.5053 160.496 69.732C160.043 69.9473 159.652 70.2647 159.323 70.684C158.995 71.092 158.74 71.5907 158.558 72.18C158.377 72.758 158.281 73.4097 158.269 74.135V74.322C158.428 73.948 158.643 73.6193 158.915 73.336C159.199 73.0527 159.516 72.8147 159.867 72.622C160.219 72.4293 160.593 72.2877 160.989 72.197C161.397 72.095 161.811 72.044 162.23 72.044C162.922 72.044 163.545 72.1403 164.1 72.333C164.656 72.5257 165.126 72.7977 165.511 73.149C165.908 73.5003 166.208 73.9197 166.412 74.407C166.616 74.8943 166.718 75.4327 166.718 76.022C166.718 76.634 166.594 77.195 166.344 77.705C166.106 78.215 165.772 78.6513 165.341 79.014C164.922 79.3767 164.423 79.66 163.845 79.864C163.279 80.0567 162.667 80.153 162.009 80.153ZM161.992 78.708C162.468 78.708 162.899 78.6457 163.284 78.521C163.681 78.3963 164.021 78.2207 164.304 77.994C164.599 77.756 164.826 77.4783 164.984 77.161C165.143 76.8437 165.222 76.4867 165.222 76.09C165.222 75.6593 165.143 75.2853 164.984 74.968C164.837 74.6393 164.627 74.3673 164.355 74.152C164.083 73.9253 163.755 73.761 163.369 73.659C162.995 73.5457 162.587 73.489 162.145 73.489C161.057 73.489 160.23 73.7213 159.663 74.186C159.108 74.6507 158.83 75.2457 158.83 75.971C158.83 76.345 158.904 76.6963 159.051 77.025C159.199 77.3537 159.408 77.6427 159.68 77.892C159.952 78.1413 160.281 78.3397 160.666 78.487C161.063 78.6343 161.505 78.708 161.992 78.708ZM167.722 68.1H176.749V69.069L170.833 80H169.218L174.93 69.545H167.722V68.1ZM188.45 67.726L189.521 68.508L180.783 80.255L179.661 79.609L188.45 67.726ZM177.825 70.956C177.825 70.5253 177.904 70.1343 178.063 69.783C178.221 69.4203 178.437 69.1143 178.709 68.865C178.992 68.6043 179.321 68.406 179.695 68.27C180.08 68.1227 180.494 68.049 180.936 68.049C181.378 68.049 181.786 68.1227 182.16 68.27C182.534 68.406 182.857 68.6043 183.129 68.865C183.412 69.1143 183.633 69.4203 183.792 69.783C183.95 70.1343 184.03 70.5253 184.03 70.956C184.03 71.3867 183.95 71.7777 183.792 72.129C183.633 72.4803 183.412 72.7863 183.129 73.047C182.857 73.2963 182.534 73.4947 182.16 73.642C181.786 73.778 181.378 73.846 180.936 73.846C180.494 73.846 180.08 73.778 179.695 73.642C179.321 73.4947 178.992 73.2963 178.709 73.047C178.437 72.7863 178.221 72.4803 178.063 72.129C177.904 71.7777 177.825 71.3867 177.825 70.956ZM179.253 70.956C179.253 71.2167 179.298 71.449 179.389 71.653C179.491 71.857 179.615 72.0327 179.763 72.18C179.921 72.3273 180.103 72.4407 180.307 72.52C180.511 72.5993 180.72 72.639 180.936 72.639C181.378 72.639 181.763 72.486 182.092 72.18C182.432 71.874 182.602 71.466 182.602 70.956C182.602 70.446 182.432 70.038 182.092 69.732C181.763 69.426 181.378 69.273 180.936 69.273C180.482 69.273 180.086 69.426 179.746 69.732C179.417 70.038 179.253 70.446 179.253 70.956ZM185.118 77.161C185.118 76.7417 185.197 76.3563 185.356 76.005C185.514 75.6423 185.73 75.3363 186.002 75.087C186.285 74.8263 186.614 74.628 186.988 74.492C187.373 74.3447 187.787 74.271 188.229 74.271C188.671 74.271 189.079 74.3447 189.453 74.492C189.827 74.628 190.15 74.8263 190.422 75.087C190.705 75.3363 190.926 75.6423 191.085 76.005C191.243 76.3563 191.323 76.7417 191.323 77.161C191.323 77.5917 191.243 77.9827 191.085 78.334C190.926 78.6853 190.705 78.9913 190.422 79.252C190.15 79.5127 189.827 79.7167 189.453 79.864C189.079 80 188.671 80.068 188.229 80.068C187.787 80.068 187.373 80 186.988 79.864C186.614 79.7167 186.285 79.5127 186.002 79.252C185.73 78.9913 185.514 78.6853 185.356 78.334C185.197 77.9827 185.118 77.5917 185.118 77.161ZM186.546 77.161C186.546 77.4217 186.591 77.654 186.682 77.858C186.784 78.062 186.908 78.2377 187.056 78.385C187.214 78.5323 187.396 78.6457 187.6 78.725C187.804 78.8043 188.013 78.844 188.229 78.844C188.671 78.844 189.056 78.691 189.385 78.385C189.725 78.079 189.895 77.671 189.895 77.161C189.895 76.651 189.725 76.243 189.385 75.937C189.056 75.631 188.671 75.478 188.229 75.478C187.775 75.478 187.379 75.631 187.039 75.937C186.71 76.243 186.546 76.651 186.546 77.161Z" fill="#222429"/>
<path d="M67 45.3614V17C67 15.8954 67.8954 15 69 15H467C468.105 15 469 15.8954 469 17V68" stroke="#B4BBC5"/>
<path fill-rule="evenodd" clip-rule="evenodd" d="M464 63L469 72L474 63H464Z" fill="#B4BBC5"/>
<rect x="226.5" y="0.5" width="71" height="29" rx="14.5" fill="white" stroke="#B4BBC5"/>
<path d="M239.926 14.442H246.422V15.492H239.926V14.442ZM250.331 10.144H251.129V20H249.953V11.642L247.419 12.804L246.971 11.754L250.331 10.144ZM252.872 13.07C252.956 12.6687 253.096 12.286 253.292 11.922C253.488 11.558 253.74 11.2407 254.048 10.97C254.356 10.69 254.725 10.4707 255.154 10.312C255.584 10.1533 256.074 10.074 256.624 10.074C257.138 10.074 257.595 10.1487 257.996 10.298C258.398 10.438 258.738 10.6387 259.018 10.9C259.298 11.1613 259.508 11.474 259.648 11.838C259.798 12.202 259.872 12.5987 259.872 13.028C259.872 13.6347 259.742 14.1947 259.48 14.708C259.228 15.212 258.906 15.674 258.514 16.094C258.122 16.514 257.693 16.8967 257.226 17.242C256.76 17.578 256.316 17.8767 255.896 18.138L254.818 18.81H260.236V20H252.606V19.02L254.734 17.606C255.434 17.1393 256.032 16.71 256.526 16.318C257.021 15.9167 257.422 15.5387 257.73 15.184C258.048 14.8293 258.276 14.4887 258.416 14.162C258.566 13.826 258.64 13.49 258.64 13.154C258.64 12.8087 258.584 12.5147 258.472 12.272C258.37 12.0293 258.22 11.8333 258.024 11.684C257.838 11.5347 257.614 11.4273 257.352 11.362C257.1 11.2967 256.83 11.264 256.54 11.264C256.12 11.264 255.756 11.3293 255.448 11.46C255.15 11.5907 254.893 11.7633 254.678 11.978C254.473 12.1833 254.31 12.4167 254.188 12.678C254.076 12.93 254.002 13.182 253.964 13.434L252.872 13.07ZM260.884 21.358C261.006 21.33 261.132 21.2787 261.262 21.204C261.402 21.1293 261.528 21.036 261.64 20.924C261.752 20.812 261.841 20.6907 261.906 20.56C261.981 20.4293 262.018 20.294 262.018 20.154C262.018 20.0887 262.014 20.0373 262.004 20C261.958 20.0093 261.902 20.014 261.836 20.014C261.631 20.014 261.454 19.9487 261.304 19.818C261.164 19.6873 261.094 19.5007 261.094 19.258C261.094 19.0153 261.169 18.824 261.318 18.684C261.468 18.5347 261.678 18.46 261.948 18.46C262.247 18.46 262.49 18.5627 262.676 18.768C262.872 18.964 262.97 19.2627 262.97 19.664C262.97 20.0467 262.919 20.3733 262.816 20.644C262.714 20.9147 262.578 21.1433 262.41 21.33C262.242 21.5167 262.051 21.6613 261.836 21.764C261.622 21.876 261.402 21.96 261.178 22.016L260.884 21.358ZM263.947 13.07C264.031 12.6687 264.171 12.286 264.367 11.922C264.563 11.558 264.815 11.2407 265.123 10.97C265.431 10.69 265.8 10.4707 266.229 10.312C266.658 10.1533 267.148 10.074 267.699 10.074C268.212 10.074 268.67 10.1487 269.071 10.298C269.472 10.438 269.813 10.6387 270.093 10.9C270.373 11.1613 270.583 11.474 270.723 11.838C270.872 12.202 270.947 12.5987 270.947 13.028C270.947 13.6347 270.816 14.1947 270.555 14.708C270.303 15.212 269.981 15.674 269.589 16.094C269.197 16.514 268.768 16.8967 268.301 17.242C267.834 17.578 267.391 17.8767 266.971 18.138L265.893 18.81H271.311V20H263.681V19.02L265.809 17.606C266.509 17.1393 267.106 16.71 267.601 16.318C268.096 15.9167 268.497 15.5387 268.805 15.184C269.122 14.8293 269.351 14.4887 269.491 14.162C269.64 13.826 269.715 13.49 269.715 13.154C269.715 12.8087 269.659 12.5147 269.547 12.272C269.444 12.0293 269.295 11.8333 269.099 11.684C268.912 11.5347 268.688 11.4273 268.427 11.362C268.175 11.2967 267.904 11.264 267.615 11.264C267.195 11.264 266.831 11.3293 266.523 11.46C266.224 11.5907 265.968 11.7633 265.753 11.978C265.548 12.1833 265.384 12.4167 265.263 12.678C265.151 12.93 265.076 13.182 265.039 13.434L263.947 13.07ZM280.891 9.892L281.773 10.536L274.577 20.21L273.653 19.678L280.891 9.892ZM272.141 12.552C272.141 12.1973 272.207 11.8753 272.337 11.586C272.468 11.2873 272.645 11.0353 272.869 10.83C273.103 10.6153 273.373 10.452 273.681 10.34C273.999 10.2187 274.339 10.158 274.703 10.158C275.067 10.158 275.403 10.2187 275.711 10.34C276.019 10.452 276.285 10.6153 276.509 10.83C276.743 11.0353 276.925 11.2873 277.055 11.586C277.186 11.8753 277.251 12.1973 277.251 12.552C277.251 12.9067 277.186 13.2287 277.055 13.518C276.925 13.8073 276.743 14.0593 276.509 14.274C276.285 14.4793 276.019 14.6427 275.711 14.764C275.403 14.876 275.067 14.932 274.703 14.932C274.339 14.932 273.999 14.876 273.681 14.764C273.373 14.6427 273.103 14.4793 272.869 14.274C272.645 14.0593 272.468 13.8073 272.337 13.518C272.207 13.2287 272.141 12.9067 272.141 12.552ZM273.317 12.552C273.317 12.7667 273.355 12.958 273.429 13.126C273.513 13.294 273.616 13.4387 273.737 13.56C273.868 13.6813 274.017 13.7747 274.185 13.84C274.353 13.9053 274.526 13.938 274.703 13.938C275.067 13.938 275.385 13.812 275.655 13.56C275.935 13.308 276.075 12.972 276.075 12.552C276.075 12.132 275.935 11.796 275.655 11.544C275.385 11.292 275.067 11.166 274.703 11.166C274.33 11.166 274.003 11.292 273.723 11.544C273.453 11.796 273.317 12.132 273.317 12.552ZM278.147 17.662C278.147 17.3167 278.213 16.9993 278.343 16.71C278.474 16.4113 278.651 16.1593 278.875 15.954C279.109 15.7393 279.379 15.576 279.687 15.464C280.005 15.3427 280.345 15.282 280.709 15.282C281.073 15.282 281.409 15.3427 281.717 15.464C282.025 15.576 282.291 15.7393 282.515 15.954C282.749 16.1593 282.931 16.4113 283.061 16.71C283.192 16.9993 283.257 17.3167 283.257 17.662C283.257 18.0167 283.192 18.3387 283.061 18.628C282.931 18.9173 282.749 19.1693 282.515 19.384C282.291 19.5987 282.025 19.7667 281.717 19.888C281.409 20 281.073 20.056 280.709 20.056C280.345 20.056 280.005 20 279.687 19.888C279.379 19.7667 279.109 19.5987 278.875 19.384C278.651 19.1693 278.474 18.9173 278.343 18.628C278.213 18.3387 278.147 18.0167 278.147 17.662ZM279.323 17.662C279.323 17.8767 279.361 18.068 279.435 18.236C279.519 18.404 279.622 18.5487 279.743 18.67C279.874 18.7913 280.023 18.8847 280.191 18.95C280.359 19.0153 280.532 19.048 280.709 19.048C281.073 19.048 281.391 18.922 281.661 18.67C281.941 18.418 282.081 18.082 282.081 17.662C282.081 17.242 281.941 16.906 281.661 16.654C281.391 16.402 281.073 16.276 280.709 16.276C280.336 16.276 280.009 16.402 279.729 16.654C279.459 16.906 279.323 17.242 279.323 17.662Z" fill="#50565E"/>
</svg>
