<svg width="536" height="246" viewBox="0 0 536 246" fill="none" xmlns="http://www.w3.org/2000/svg">
<path d="M62 95.3614V17C62 15.8954 62.8954 15 64 15H462C463.105 15 464 15.8954 464 17V46" stroke="#B4BBC5"/>
<path fill-rule="evenodd" clip-rule="evenodd" d="M459 43L464 52L469 43H459Z" fill="#B4BBC5"/>
<rect x="191.5" y="0.5" width="71" height="29" rx="14.5" fill="#E1E6E6" stroke="#B4BBC5"/>
<path d="M206.106 14.428H208.752V11.768H209.858V14.428H212.532V15.492H209.858V18.18H208.752V15.492H206.106V14.428ZM216.589 10.144H217.387V20H216.211V11.642L213.677 12.804L213.229 11.754L216.589 10.144ZM221.832 10.144H222.63V20H221.454V11.642L218.92 12.804L218.472 11.754L221.832 10.144ZM224.373 19.202C224.373 19.0153 224.453 18.838 224.611 18.67C224.77 18.502 224.98 18.418 225.241 18.418C225.484 18.418 225.685 18.502 225.843 18.67C226.002 18.838 226.081 19.0153 226.081 19.202C226.081 19.4167 226.002 19.608 225.843 19.776C225.685 19.944 225.484 20.028 225.241 20.028C224.98 20.028 224.77 19.944 224.611 19.776C224.453 19.608 224.373 19.4167 224.373 19.202ZM231.383 20.126C230.73 20.126 230.137 20.0233 229.605 19.818C229.082 19.6127 228.634 19.3093 228.261 18.908C227.888 18.4973 227.598 17.998 227.393 17.41C227.197 16.822 227.099 16.1407 227.099 15.366C227.099 14.4887 227.216 13.7187 227.449 13.056C227.682 12.3933 227.995 11.8427 228.387 11.404C228.788 10.956 229.25 10.6247 229.773 10.41C230.305 10.186 230.865 10.074 231.453 10.074C232.302 10.074 233.026 10.2467 233.623 10.592C234.22 10.9373 234.654 11.404 234.925 11.992L233.973 12.636C233.702 12.216 233.352 11.8847 232.923 11.642C232.503 11.39 231.994 11.264 231.397 11.264C230.93 11.264 230.51 11.3573 230.137 11.544C229.764 11.7213 229.442 11.9827 229.171 12.328C228.9 12.664 228.69 13.0747 228.541 13.56C228.392 14.036 228.312 14.5727 228.303 15.17V15.324C228.434 15.016 228.611 14.7453 228.835 14.512C229.068 14.2787 229.33 14.0827 229.619 13.924C229.908 13.7653 230.216 13.6487 230.543 13.574C230.879 13.49 231.22 13.448 231.565 13.448C232.134 13.448 232.648 13.5273 233.105 13.686C233.562 13.8447 233.95 14.0687 234.267 14.358C234.594 14.6473 234.841 14.9927 235.009 15.394C235.177 15.7953 235.261 16.2387 235.261 16.724C235.261 17.228 235.158 17.69 234.953 18.11C234.757 18.53 234.482 18.8893 234.127 19.188C233.782 19.4867 233.371 19.72 232.895 19.888C232.428 20.0467 231.924 20.126 231.383 20.126ZM231.369 18.936C231.761 18.936 232.116 18.8847 232.433 18.782C232.76 18.6793 233.04 18.5347 233.273 18.348C233.516 18.152 233.702 17.9233 233.833 17.662C233.964 17.4007 234.029 17.1067 234.029 16.78C234.029 16.4253 233.964 16.1173 233.833 15.856C233.712 15.5853 233.539 15.3613 233.315 15.184C233.091 14.9973 232.82 14.862 232.503 14.778C232.195 14.6847 231.859 14.638 231.495 14.638C230.599 14.638 229.918 14.8293 229.451 15.212C228.994 15.5947 228.765 16.0847 228.765 16.682C228.765 16.99 228.826 17.2793 228.947 17.55C229.068 17.8207 229.241 18.0587 229.465 18.264C229.689 18.4693 229.96 18.6327 230.277 18.754C230.604 18.8753 230.968 18.936 231.369 18.936ZM244.88 9.892L245.762 10.536L238.566 20.21L237.642 19.678L244.88 9.892ZM236.13 12.552C236.13 12.1973 236.195 11.8753 236.326 11.586C236.456 11.2873 236.634 11.0353 236.858 10.83C237.091 10.6153 237.362 10.452 237.67 10.34C237.987 10.2187 238.328 10.158 238.692 10.158C239.056 10.158 239.392 10.2187 239.7 10.34C240.008 10.452 240.274 10.6153 240.498 10.83C240.731 11.0353 240.913 11.2873 241.044 11.586C241.174 11.8753 241.24 12.1973 241.24 12.552C241.24 12.9067 241.174 13.2287 241.044 13.518C240.913 13.8073 240.731 14.0593 240.498 14.274C240.274 14.4793 240.008 14.6427 239.7 14.764C239.392 14.876 239.056 14.932 238.692 14.932C238.328 14.932 237.987 14.876 237.67 14.764C237.362 14.6427 237.091 14.4793 236.858 14.274C236.634 14.0593 236.456 13.8073 236.326 13.518C236.195 13.2287 236.13 12.9067 236.13 12.552ZM237.306 12.552C237.306 12.7667 237.343 12.958 237.418 13.126C237.502 13.294 237.604 13.4387 237.726 13.56C237.856 13.6813 238.006 13.7747 238.174 13.84C238.342 13.9053 238.514 13.938 238.692 13.938C239.056 13.938 239.373 13.812 239.644 13.56C239.924 13.308 240.064 12.972 240.064 12.552C240.064 12.132 239.924 11.796 239.644 11.544C239.373 11.292 239.056 11.166 238.692 11.166C238.318 11.166 237.992 11.292 237.712 11.544C237.441 11.796 237.306 12.132 237.306 12.552ZM242.136 17.662C242.136 17.3167 242.201 16.9993 242.332 16.71C242.462 16.4113 242.64 16.1593 242.864 15.954C243.097 15.7393 243.368 15.576 243.676 15.464C243.993 15.3427 244.334 15.282 244.698 15.282C245.062 15.282 245.398 15.3427 245.706 15.464C246.014 15.576 246.28 15.7393 246.504 15.954C246.737 16.1593 246.919 16.4113 247.05 16.71C247.18 16.9993 247.246 17.3167 247.246 17.662C247.246 18.0167 247.18 18.3387 247.05 18.628C246.919 18.9173 246.737 19.1693 246.504 19.384C246.28 19.5987 246.014 19.7667 245.706 19.888C245.398 20 245.062 20.056 244.698 20.056C244.334 20.056 243.993 20 243.676 19.888C243.368 19.7667 243.097 19.5987 242.864 19.384C242.64 19.1693 242.462 18.9173 242.332 18.628C242.201 18.3387 242.136 18.0167 242.136 17.662ZM243.312 17.662C243.312 17.8767 243.349 18.068 243.424 18.236C243.508 18.404 243.61 18.5487 243.732 18.67C243.862 18.7913 244.012 18.8847 244.18 18.95C244.348 19.0153 244.52 19.048 244.698 19.048C245.062 19.048 245.379 18.922 245.65 18.67C245.93 18.418 246.07 18.082 246.07 17.662C246.07 17.242 245.93 16.906 245.65 16.654C245.379 16.402 245.062 16.276 244.698 16.276C244.324 16.276 243.998 16.402 243.718 16.654C243.447 16.906 243.312 17.242 243.312 17.662Z" fill="#50565E"/>
<rect x="274.5" y="0.5" width="71" height="29" rx="14.5" fill="#CFE7C0" stroke="#5FAF2D"/>
<path d="M287 14.428H289.646V11.768H290.752V14.428H293.426V15.492H290.752V18.18H289.646V15.492H287V14.428ZM297.482 10.144H298.28V20H297.104V11.642L294.57 12.804L294.122 11.754L297.482 10.144ZM305.512 18.04H299.478V17.144L305.652 10.2H306.688V16.85H308.508V18.04H306.688V20H305.512V18.04ZM305.512 16.85V12.16L301.158 16.85H305.512ZM309.15 19.202C309.15 19.0153 309.229 18.838 309.388 18.67C309.547 18.502 309.757 18.418 310.018 18.418C310.261 18.418 310.461 18.502 310.62 18.67C310.779 18.838 310.858 19.0153 310.858 19.202C310.858 19.4167 310.779 19.608 310.62 19.776C310.461 19.944 310.261 20.028 310.018 20.028C309.757 20.028 309.547 19.944 309.388 19.776C309.229 19.608 309.15 19.4167 309.15 19.202ZM311.791 12.58C311.922 12.216 312.099 11.8847 312.323 11.586C312.547 11.278 312.818 11.012 313.135 10.788C313.462 10.564 313.835 10.3913 314.255 10.27C314.685 10.1393 315.165 10.074 315.697 10.074C316.173 10.074 316.612 10.1347 317.013 10.256C317.424 10.368 317.774 10.5313 318.063 10.746C318.362 10.9513 318.591 11.208 318.749 11.516C318.917 11.824 319.001 12.1647 319.001 12.538C319.001 13.1073 318.852 13.5927 318.553 13.994C318.264 14.3953 317.839 14.6753 317.279 14.834C317.522 14.8527 317.76 14.9133 317.993 15.016C318.227 15.1093 318.432 15.254 318.609 15.45C318.796 15.6367 318.945 15.8747 319.057 16.164C319.169 16.444 319.225 16.78 319.225 17.172C319.225 17.648 319.132 18.0727 318.945 18.446C318.768 18.81 318.516 19.118 318.189 19.37C317.872 19.6127 317.494 19.7993 317.055 19.93C316.617 20.0607 316.145 20.126 315.641 20.126C315.091 20.126 314.587 20.0607 314.129 19.93C313.681 19.7993 313.285 19.622 312.939 19.398C312.594 19.1647 312.3 18.8893 312.057 18.572C311.824 18.2453 311.647 17.886 311.525 17.494L312.659 17.004C312.781 17.256 312.925 17.4987 313.093 17.732C313.261 17.9653 313.467 18.1707 313.709 18.348C313.952 18.5253 314.237 18.67 314.563 18.782C314.89 18.8847 315.277 18.936 315.725 18.936C316.425 18.936 316.976 18.7867 317.377 18.488C317.788 18.18 317.993 17.746 317.993 17.186C317.993 16.878 317.928 16.6213 317.797 16.416C317.667 16.2013 317.485 16.0333 317.251 15.912C317.018 15.7813 316.743 15.6927 316.425 15.646C316.117 15.59 315.781 15.562 315.417 15.562H314.325V14.4H315.193C316.005 14.4 316.635 14.246 317.083 13.938C317.541 13.63 317.769 13.2427 317.769 12.776C317.769 12.272 317.578 11.894 317.195 11.642C316.813 11.39 316.295 11.264 315.641 11.264C315.24 11.264 314.885 11.3153 314.577 11.418C314.269 11.5207 313.999 11.656 313.765 11.824C313.541 11.992 313.35 12.1833 313.191 12.398C313.042 12.6127 312.925 12.832 312.841 13.056L311.791 12.58ZM328.986 9.892L329.868 10.536L322.672 20.21L321.748 19.678L328.986 9.892ZM320.236 12.552C320.236 12.1973 320.301 11.8753 320.432 11.586C320.563 11.2873 320.74 11.0353 320.964 10.83C321.197 10.6153 321.468 10.452 321.776 10.34C322.093 10.2187 322.434 10.158 322.798 10.158C323.162 10.158 323.498 10.2187 323.806 10.34C324.114 10.452 324.38 10.6153 324.604 10.83C324.837 11.0353 325.019 11.2873 325.15 11.586C325.281 11.8753 325.346 12.1973 325.346 12.552C325.346 12.9067 325.281 13.2287 325.15 13.518C325.019 13.8073 324.837 14.0593 324.604 14.274C324.38 14.4793 324.114 14.6427 323.806 14.764C323.498 14.876 323.162 14.932 322.798 14.932C322.434 14.932 322.093 14.876 321.776 14.764C321.468 14.6427 321.197 14.4793 320.964 14.274C320.74 14.0593 320.563 13.8073 320.432 13.518C320.301 13.2287 320.236 12.9067 320.236 12.552ZM321.412 12.552C321.412 12.7667 321.449 12.958 321.524 13.126C321.608 13.294 321.711 13.4387 321.832 13.56C321.963 13.6813 322.112 13.7747 322.28 13.84C322.448 13.9053 322.621 13.938 322.798 13.938C323.162 13.938 323.479 13.812 323.75 13.56C324.03 13.308 324.17 12.972 324.17 12.552C324.17 12.132 324.03 11.796 323.75 11.544C323.479 11.292 323.162 11.166 322.798 11.166C322.425 11.166 322.098 11.292 321.818 11.544C321.547 11.796 321.412 12.132 321.412 12.552ZM326.242 17.662C326.242 17.3167 326.307 16.9993 326.438 16.71C326.569 16.4113 326.746 16.1593 326.97 15.954C327.203 15.7393 327.474 15.576 327.782 15.464C328.099 15.3427 328.44 15.282 328.804 15.282C329.168 15.282 329.504 15.3427 329.812 15.464C330.12 15.576 330.386 15.7393 330.61 15.954C330.843 16.1593 331.025 16.4113 331.156 16.71C331.287 16.9993 331.352 17.3167 331.352 17.662C331.352 18.0167 331.287 18.3387 331.156 18.628C331.025 18.9173 330.843 19.1693 330.61 19.384C330.386 19.5987 330.12 19.7667 329.812 19.888C329.504 20 329.168 20.056 328.804 20.056C328.44 20.056 328.099 20 327.782 19.888C327.474 19.7667 327.203 19.5987 326.97 19.384C326.746 19.1693 326.569 18.9173 326.438 18.628C326.307 18.3387 326.242 18.0167 326.242 17.662ZM327.418 17.662C327.418 17.8767 327.455 18.068 327.53 18.236C327.614 18.404 327.717 18.5487 327.838 18.67C327.969 18.7913 328.118 18.8847 328.286 18.95C328.454 19.0153 328.627 19.048 328.804 19.048C329.168 19.048 329.485 18.922 329.756 18.67C330.036 18.418 330.176 18.082 330.176 17.662C330.176 17.242 330.036 16.906 329.756 16.654C329.485 16.402 329.168 16.276 328.804 16.276C328.431 16.276 328.104 16.402 327.824 16.654C327.553 16.906 327.418 17.242 327.418 17.662Z" fill="#50565E"/>
<rect y="225" width="536" height="1" fill="#9299A3"/>
<path d="M51.2628 238.434C51.4168 237.44 52.1728 236.264 53.8388 236.264C55.0148 236.264 55.9388 236.768 55.9388 238.154C55.9388 239.498 54.8328 240.744 52.0328 242.606L49.9048 244.02V245H57.5348V243.81H52.1168L53.1948 243.138C54.8748 242.088 57.1708 240.45 57.1708 238.028C57.1708 236.292 55.9808 235.074 53.9228 235.074C51.7248 235.074 50.5068 236.446 50.1708 238.07L51.2628 238.434ZM58.505 240.1C58.505 242.998 59.989 245.126 62.691 245.126C65.547 245.126 66.835 242.998 66.835 240.1C66.835 237.02 65.505 235.074 62.663 235.074C59.835 235.074 58.505 237.202 58.505 240.1ZM59.737 240.1C59.737 237.748 60.661 236.264 62.663 236.264C64.679 236.264 65.603 237.706 65.603 240.1C65.603 242.48 64.707 243.936 62.691 243.936C60.857 243.936 59.737 242.48 59.737 240.1ZM67.3207 236.754L67.7687 237.804L70.3027 236.642V245H71.4787V235.144H70.6807L67.3207 236.754ZM77.1281 239.414C75.7701 239.414 74.8321 238.728 74.8321 237.818C74.8321 236.838 75.6721 236.264 77.3101 236.264C79.0041 236.264 79.8301 236.824 79.8301 237.818C79.8301 238.756 78.8361 239.414 77.5621 239.414H77.1281ZM77.5341 240.52C79.1021 240.52 80.1381 241.15 80.1381 242.242C80.1381 243.278 79.2281 243.936 77.3241 243.936C75.4621 243.936 74.5101 243.236 74.5101 242.228C74.5101 241.276 75.6021 240.52 77.1841 240.52H77.5341ZM77.3381 245.126C79.8161 245.126 81.3701 244.09 81.3701 242.298C81.3701 241.108 80.8381 240.268 79.5081 239.862C80.4741 239.414 81.0621 238.728 81.0621 237.734C81.0621 236.124 79.7321 235.074 77.3241 235.074C74.9301 235.074 73.6001 236.124 73.6001 237.734C73.6001 238.658 74.0761 239.554 75.2101 239.932C74.0481 240.31 73.2781 241.206 73.2781 242.354C73.2781 244.09 74.8461 245.126 77.3381 245.126Z" fill="#777F8C"/>
<rect x="29" y="120" width="30" height="105" fill="#BFCED4"/>
<rect x="29" y="120" width="30" height="4" fill="#A6B2BC"/>
<path d="M38.1007 104.217C36.4517 104.217 35.3127 103.384 35.3127 102.279C35.3127 101.089 36.3327 100.392 38.3217 100.392C40.3787 100.392 41.3817 101.072 41.3817 102.279C41.3817 103.418 40.1747 104.217 38.6277 104.217H38.1007ZM38.5937 105.56C40.4977 105.56 41.7557 106.325 41.7557 107.651C41.7557 108.909 40.6507 109.708 38.3387 109.708C36.0777 109.708 34.9217 108.858 34.9217 107.634C34.9217 106.478 36.2477 105.56 38.1687 105.56H38.5937ZM38.3557 111.153C41.3647 111.153 43.2517 109.895 43.2517 107.719C43.2517 106.274 42.6057 105.254 40.9907 104.761C42.1637 104.217 42.8777 103.384 42.8777 102.177C42.8777 100.222 41.2627 98.947 38.3387 98.947C35.4317 98.947 33.8167 100.222 33.8167 102.177C33.8167 103.299 34.3947 104.387 35.7717 104.846C34.3607 105.305 33.4257 106.393 33.4257 107.787C33.4257 109.895 35.3297 111.153 38.3557 111.153ZM49.9496 111.153C52.5846 111.153 54.6586 109.487 54.6586 107.022C54.6586 104.659 52.9586 103.044 50.1706 103.044C48.5046 103.044 46.8386 103.826 46.2096 105.322C46.2096 105.254 46.2096 105.203 46.2096 105.135C46.2606 102.228 47.7226 100.392 49.9666 100.392C51.4116 100.392 52.4316 101.038 53.0946 102.058L54.2506 101.276C53.5876 99.848 52.0746 98.947 50.0346 98.947C47.1786 98.947 44.7476 101.089 44.7476 105.373C44.7476 109.113 46.7706 111.153 49.9496 111.153ZM49.9326 109.708C47.9776 109.708 46.7706 108.45 46.7706 106.971C46.7706 105.526 47.9266 104.489 50.0856 104.489C51.8706 104.489 53.1626 105.373 53.1626 107.09C53.1626 108.654 51.8196 109.708 49.9326 109.708Z" fill="#222429"/>
<rect x="69" y="106" width="30" height="119" fill="#5FAF2D"/>
<rect x="69" y="106" width="30" height="4" fill="#3D7917"/>
<path d="M77.9651 97.153C81.1441 97.153 83.2861 94.977 83.2861 90.829C83.2861 87.021 81.4161 84.947 78.3731 84.947C75.3811 84.947 73.3411 86.63 73.3411 89.282C73.3411 91.713 75.2621 93.362 77.8971 93.362C79.8861 93.362 81.2121 92.41 81.7561 91.118C81.7731 91.254 81.7731 91.39 81.7731 91.526C81.7731 93.94 80.2431 95.708 78.1691 95.708C76.8261 95.708 75.6021 95.164 74.9051 94.195L73.6811 95.045C74.3951 96.252 75.9251 97.153 77.9651 97.153ZM78.1691 91.917C76.1461 91.917 74.8371 90.88 74.8371 89.163C74.8371 87.361 76.1121 86.392 78.2031 86.392C80.5151 86.392 81.3651 87.786 81.3651 89.231C81.3651 90.744 80.1411 91.917 78.1691 91.917ZM89.423 90.217C87.774 90.217 86.635 89.384 86.635 88.279C86.635 87.089 87.655 86.392 89.644 86.392C91.701 86.392 92.704 87.072 92.704 88.279C92.704 89.418 91.497 90.217 89.95 90.217H89.423ZM89.916 91.56C91.82 91.56 93.078 92.325 93.078 93.651C93.078 94.909 91.973 95.708 89.661 95.708C87.4 95.708 86.244 94.858 86.244 93.634C86.244 92.478 87.57 91.56 89.491 91.56H89.916ZM89.678 97.153C92.687 97.153 94.574 95.895 94.574 93.719C94.574 92.274 93.928 91.254 92.313 90.761C93.486 90.217 94.2 89.384 94.2 88.177C94.2 86.222 92.585 84.947 89.661 84.947C86.754 84.947 85.139 86.222 85.139 88.177C85.139 89.299 85.717 90.387 87.094 90.846C85.683 91.305 84.748 92.393 84.748 93.787C84.748 95.895 86.652 97.153 89.678 97.153Z" fill="#222429"/>
<path d="M151.263 238.434C151.417 237.44 152.173 236.264 153.839 236.264C155.015 236.264 155.939 236.768 155.939 238.154C155.939 239.498 154.833 240.744 152.033 242.606L149.905 244.02V245H157.535V243.81H152.117L153.195 243.138C154.875 242.088 157.171 240.45 157.171 238.028C157.171 236.292 155.981 235.074 153.923 235.074C151.725 235.074 150.507 236.446 150.171 238.07L151.263 238.434ZM158.505 240.1C158.505 242.998 159.989 245.126 162.691 245.126C165.547 245.126 166.835 242.998 166.835 240.1C166.835 237.02 165.505 235.074 162.663 235.074C159.835 235.074 158.505 237.202 158.505 240.1ZM159.737 240.1C159.737 237.748 160.661 236.264 162.663 236.264C164.679 236.264 165.603 237.706 165.603 240.1C165.603 242.48 164.707 243.936 162.691 243.936C160.857 243.936 159.737 242.48 159.737 240.1ZM167.321 236.754L167.769 237.804L170.303 236.642V245H171.479V235.144H170.681L167.321 236.754ZM177.03 245.126C179.648 245.126 181.412 243.334 181.412 239.918C181.412 236.782 179.872 235.074 177.366 235.074C174.902 235.074 173.222 236.46 173.222 238.644C173.222 240.646 174.804 242.004 176.974 242.004C178.612 242.004 179.704 241.22 180.152 240.156C180.166 240.268 180.166 240.38 180.166 240.492C180.166 242.48 178.906 243.936 177.198 243.936C176.092 243.936 175.084 243.488 174.51 242.69L173.502 243.39C174.09 244.384 175.35 245.126 177.03 245.126ZM177.198 240.814C175.532 240.814 174.454 239.96 174.454 238.546C174.454 237.062 175.504 236.264 177.226 236.264C179.13 236.264 179.83 237.412 179.83 238.602C179.83 239.848 178.822 240.814 177.198 240.814Z" fill="#777F8C"/>
<rect x="129" y="119" width="30" height="106" fill="#BFCED4"/>
<rect x="129" y="119" width="30" height="4" fill="#A6B2BC"/>
<path d="M138.898 103.217C137.249 103.217 136.11 102.384 136.11 101.279C136.11 100.089 137.13 99.392 139.119 99.392C141.176 99.392 142.179 100.072 142.179 101.279C142.179 102.418 140.972 103.217 139.425 103.217H138.898ZM139.391 104.56C141.295 104.56 142.553 105.325 142.553 106.651C142.553 107.909 141.448 108.708 139.136 108.708C136.875 108.708 135.719 107.858 135.719 106.634C135.719 105.478 137.045 104.56 138.966 104.56H139.391ZM139.153 110.153C142.162 110.153 144.049 108.895 144.049 106.719C144.049 105.274 143.403 104.254 141.788 103.761C142.961 103.217 143.675 102.384 143.675 101.177C143.675 99.222 142.06 97.947 139.136 97.947C136.229 97.947 134.614 99.222 134.614 101.177C134.614 102.299 135.192 103.387 136.569 103.846C135.158 104.305 134.223 105.393 134.223 106.787C134.223 108.895 136.127 110.153 139.153 110.153ZM145.153 99.545H152.361L146.649 110H148.264L154.18 99.069V98.1H145.153V99.545Z" fill="#222429"/>
<rect x="169" y="100" width="30" height="125" fill="#5FAF2D"/>
<rect x="169" y="100" width="30" height="4" fill="#3D7917"/>
<path d="M169.674 80.987L170.218 82.262L173.295 80.851V91H174.723V79.032H173.754L169.674 80.987ZM177.061 85.05C177.061 88.569 178.863 91.153 182.144 91.153C185.612 91.153 187.176 88.569 187.176 85.05C187.176 81.31 185.561 78.947 182.11 78.947C178.676 78.947 177.061 81.531 177.061 85.05ZM178.557 85.05C178.557 82.194 179.679 80.392 182.11 80.392C184.558 80.392 185.68 82.143 185.68 85.05C185.68 87.94 184.592 89.708 182.144 89.708C179.917 89.708 178.557 87.94 178.557 85.05ZM189.789 82.568C190.197 81.48 191.251 80.392 193.189 80.392C194.77 80.392 195.773 81.021 195.773 82.228C195.773 83.35 194.6 84.2 192.645 84.2H191.591V85.611H192.917C194.685 85.611 196.045 86.07 196.045 87.583C196.045 88.943 194.991 89.708 193.291 89.708C191.132 89.708 190.163 88.603 189.568 87.362L188.191 87.957C188.769 89.844 190.52 91.153 193.189 91.153C195.654 91.153 197.541 89.878 197.541 87.566C197.541 85.662 196.351 84.812 195.178 84.727C196.538 84.336 197.269 83.316 197.269 81.939C197.269 80.103 195.586 78.947 193.257 78.947C190.673 78.947 189.143 80.239 188.514 81.99L189.789 82.568Z" fill="#222429"/>
<path d="M248.036 238.434C248.19 237.44 248.946 236.264 250.612 236.264C251.788 236.264 252.712 236.768 252.712 238.154C252.712 239.498 251.606 240.744 248.806 242.606L246.678 244.02V245H254.308V243.81H248.89L249.968 243.138C251.648 242.088 253.944 240.45 253.944 238.028C253.944 236.292 252.754 235.074 250.696 235.074C248.498 235.074 247.28 236.446 246.944 238.07L248.036 238.434ZM255.278 240.1C255.278 242.998 256.762 245.126 259.464 245.126C262.32 245.126 263.608 242.998 263.608 240.1C263.608 237.02 262.278 235.074 259.436 235.074C256.608 235.074 255.278 237.202 255.278 240.1ZM256.51 240.1C256.51 237.748 257.434 236.264 259.436 236.264C261.452 236.264 262.376 237.706 262.376 240.1C262.376 242.48 261.48 243.936 259.464 243.936C257.63 243.936 256.51 242.48 256.51 240.1ZM265.844 238.434C265.998 237.44 266.754 236.264 268.42 236.264C269.596 236.264 270.52 236.768 270.52 238.154C270.52 239.498 269.414 240.744 266.614 242.606L264.486 244.02V245H272.116V243.81H266.698L267.776 243.138C269.456 242.088 271.752 240.45 271.752 238.028C271.752 236.292 270.562 235.074 268.504 235.074C266.306 235.074 265.088 236.446 264.752 238.07L265.844 238.434ZM273.086 240.1C273.086 242.998 274.57 245.126 277.272 245.126C280.128 245.126 281.416 242.998 281.416 240.1C281.416 237.02 280.086 235.074 277.244 235.074C274.416 235.074 273.086 237.202 273.086 240.1ZM274.318 240.1C274.318 237.748 275.242 236.264 277.244 236.264C279.26 236.264 280.184 237.706 280.184 240.1C280.184 242.48 279.288 243.936 277.272 243.936C275.438 243.936 274.318 242.48 274.318 240.1Z" fill="#777F8C"/>
<rect x="229" y="115" width="30" height="110" fill="#BFCED4"/>
<rect x="229" y="115" width="30" height="4" fill="#A6B2BC"/>
<path d="M237.857 106.153C241.036 106.153 243.178 103.977 243.178 99.829C243.178 96.021 241.308 93.947 238.265 93.947C235.273 93.947 233.233 95.63 233.233 98.282C233.233 100.713 235.154 102.362 237.789 102.362C239.778 102.362 241.104 101.41 241.648 100.118C241.665 100.254 241.665 100.39 241.665 100.526C241.665 102.94 240.135 104.708 238.061 104.708C236.718 104.708 235.494 104.164 234.797 103.195L233.573 104.045C234.287 105.252 235.817 106.153 237.857 106.153ZM238.061 100.917C236.038 100.917 234.729 99.88 234.729 98.163C234.729 96.361 236.004 95.392 238.095 95.392C240.407 95.392 241.257 96.786 241.257 98.231C241.257 99.744 240.033 100.917 238.061 100.917ZM244.623 100.05C244.623 103.569 246.425 106.153 249.706 106.153C253.174 106.153 254.738 103.569 254.738 100.05C254.738 96.31 253.123 93.947 249.672 93.947C246.238 93.947 244.623 96.531 244.623 100.05ZM246.119 100.05C246.119 97.194 247.241 95.392 249.672 95.392C252.12 95.392 253.242 97.143 253.242 100.05C253.242 102.94 252.154 104.708 249.706 104.708C247.479 104.708 246.119 102.94 246.119 100.05Z" fill="#222429"/>
<rect x="269" y="94" width="30" height="131" fill="#5FAF2D"/>
<rect x="269" y="94" width="30" height="4" fill="#3D7917"/>
<path d="M269.251 74.987L269.795 76.262L272.872 74.851V85H274.3V73.032H273.331L269.251 74.987ZM276.638 79.05C276.638 82.569 278.44 85.153 281.721 85.153C285.189 85.153 286.753 82.569 286.753 79.05C286.753 75.31 285.138 72.947 281.687 72.947C278.253 72.947 276.638 75.531 276.638 79.05ZM278.134 79.05C278.134 76.194 279.256 74.392 281.687 74.392C284.135 74.392 285.257 76.143 285.257 79.05C285.257 81.94 284.169 83.708 281.721 83.708C279.494 83.708 278.134 81.94 278.134 79.05ZM292.884 78.217C291.235 78.217 290.096 77.384 290.096 76.279C290.096 75.089 291.116 74.392 293.105 74.392C295.162 74.392 296.165 75.072 296.165 76.279C296.165 77.418 294.958 78.217 293.411 78.217H292.884ZM293.377 79.56C295.281 79.56 296.539 80.325 296.539 81.651C296.539 82.909 295.434 83.708 293.122 83.708C290.861 83.708 289.705 82.858 289.705 81.634C289.705 80.478 291.031 79.56 292.952 79.56H293.377ZM293.139 85.153C296.148 85.153 298.035 83.895 298.035 81.719C298.035 80.274 297.389 79.254 295.774 78.761C296.947 78.217 297.661 77.384 297.661 76.177C297.661 74.222 296.046 72.947 293.122 72.947C290.215 72.947 288.6 74.222 288.6 76.177C288.6 77.299 289.178 78.387 290.555 78.846C289.144 79.305 288.209 80.393 288.209 81.787C288.209 83.895 290.113 85.153 293.139 85.153Z" fill="#222429"/>
<path d="M352.028 238.434C352.182 237.44 352.938 236.264 354.604 236.264C355.78 236.264 356.704 236.768 356.704 238.154C356.704 239.498 355.598 240.744 352.798 242.606L350.67 244.02V245H358.3V243.81H352.882L353.96 243.138C355.64 242.088 357.936 240.45 357.936 238.028C357.936 236.292 356.746 235.074 354.688 235.074C352.49 235.074 351.272 236.446 350.936 238.07L352.028 238.434ZM359.271 240.1C359.271 242.998 360.755 245.126 363.457 245.126C366.313 245.126 367.601 242.998 367.601 240.1C367.601 237.02 366.271 235.074 363.429 235.074C360.601 235.074 359.271 237.202 359.271 240.1ZM360.503 240.1C360.503 237.748 361.427 236.264 363.429 236.264C365.445 236.264 366.369 237.706 366.369 240.1C366.369 242.48 365.473 243.936 363.457 243.936C361.623 243.936 360.503 242.48 360.503 240.1ZM369.836 238.434C369.99 237.44 370.746 236.264 372.412 236.264C373.588 236.264 374.512 236.768 374.512 238.154C374.512 239.498 373.406 240.744 370.606 242.606L368.478 244.02V245H376.108V243.81H370.69L371.768 243.138C373.448 242.088 375.744 240.45 375.744 238.028C375.744 236.292 374.554 235.074 372.496 235.074C370.298 235.074 369.08 236.446 368.744 238.07L369.836 238.434ZM376.519 236.754L376.967 237.804L379.501 236.642V245H380.677V235.144H379.879L376.519 236.754Z" fill="#777F8C"/>
<rect x="329" y="119" width="30" height="106" fill="#BFCED4"/>
<rect x="329" y="119" width="30" height="4" fill="#A6B2BC"/>
<path d="M338.898 103.217C337.249 103.217 336.11 102.384 336.11 101.279C336.11 100.089 337.13 99.392 339.119 99.392C341.176 99.392 342.179 100.072 342.179 101.279C342.179 102.418 340.972 103.217 339.425 103.217H338.898ZM339.391 104.56C341.295 104.56 342.553 105.325 342.553 106.651C342.553 107.909 341.448 108.708 339.136 108.708C336.875 108.708 335.719 107.858 335.719 106.634C335.719 105.478 337.045 104.56 338.966 104.56H339.391ZM339.153 110.153C342.162 110.153 344.049 108.895 344.049 106.719C344.049 105.274 343.403 104.254 341.788 103.761C342.961 103.217 343.675 102.384 343.675 101.177C343.675 99.222 342.06 97.947 339.136 97.947C336.229 97.947 334.614 99.222 334.614 101.177C334.614 102.299 335.192 103.387 336.569 103.846C335.158 104.305 334.223 105.393 334.223 106.787C334.223 108.895 336.127 110.153 339.153 110.153ZM345.153 99.545H352.361L346.649 110H348.264L354.18 99.069V98.1H345.153V99.545Z" fill="#222429"/>
<rect x="369" y="96" width="30" height="129" fill="#5FAF2D"/>
<rect x="369" y="96" width="30" height="4" fill="#3D7917"/>
<path d="M369.267 76.987L369.811 78.262L372.888 76.851V87H374.316V75.032H373.347L369.267 76.987ZM376.654 81.05C376.654 84.569 378.456 87.153 381.737 87.153C385.205 87.153 386.769 84.569 386.769 81.05C386.769 77.31 385.154 74.947 381.703 74.947C378.269 74.947 376.654 77.531 376.654 81.05ZM378.15 81.05C378.15 78.194 379.272 76.392 381.703 76.392C384.151 76.392 385.273 78.143 385.273 81.05C385.273 83.94 384.185 85.708 381.737 85.708C379.51 85.708 378.15 83.94 378.15 81.05ZM393.411 87.153C396.046 87.153 398.12 85.487 398.12 83.022C398.12 80.659 396.42 79.044 393.632 79.044C391.966 79.044 390.3 79.826 389.671 81.322C389.671 81.254 389.671 81.203 389.671 81.135C389.722 78.228 391.184 76.392 393.428 76.392C394.873 76.392 395.893 77.038 396.556 78.058L397.712 77.276C397.049 75.848 395.536 74.947 393.496 74.947C390.64 74.947 388.209 77.089 388.209 81.373C388.209 85.113 390.232 87.153 393.411 87.153ZM393.394 85.708C391.439 85.708 390.232 84.45 390.232 82.971C390.232 81.526 391.388 80.489 393.547 80.489C395.332 80.489 396.624 81.373 396.624 83.09C396.624 84.654 395.281 85.708 393.394 85.708Z" fill="#222429"/>
<path d="M448.98 238.434C449.134 237.44 449.89 236.264 451.556 236.264C452.732 236.264 453.656 236.768 453.656 238.154C453.656 239.498 452.55 240.744 449.75 242.606L447.622 244.02V245H455.252V243.81H449.834L450.912 243.138C452.592 242.088 454.888 240.45 454.888 238.028C454.888 236.292 453.698 235.074 451.64 235.074C449.442 235.074 448.224 236.446 447.888 238.07L448.98 238.434ZM456.222 240.1C456.222 242.998 457.706 245.126 460.408 245.126C463.264 245.126 464.552 242.998 464.552 240.1C464.552 237.02 463.222 235.074 460.38 235.074C457.552 235.074 456.222 237.202 456.222 240.1ZM457.454 240.1C457.454 237.748 458.378 236.264 460.38 236.264C462.396 236.264 463.32 237.706 463.32 240.1C463.32 242.48 462.424 243.936 460.408 243.936C458.574 243.936 457.454 242.48 457.454 240.1ZM466.787 238.434C466.941 237.44 467.697 236.264 469.363 236.264C470.539 236.264 471.463 236.768 471.463 238.154C471.463 239.498 470.357 240.744 467.557 242.606L465.429 244.02V245H473.059V243.81H467.641L468.719 243.138C470.399 242.088 472.695 240.45 472.695 238.028C472.695 236.292 471.505 235.074 469.447 235.074C467.249 235.074 466.031 236.446 465.695 238.07L466.787 238.434ZM475.22 238.434C475.374 237.44 476.13 236.264 477.796 236.264C478.972 236.264 479.896 236.768 479.896 238.154C479.896 239.498 478.79 240.744 475.99 242.606L473.862 244.02V245H481.492V243.81H476.074L477.152 243.138C478.832 242.088 481.128 240.45 481.128 238.028C481.128 236.292 479.938 235.074 477.88 235.074C475.682 235.074 474.464 236.446 474.128 238.07L475.22 238.434Z" fill="#777F8C"/>
<rect x="429" y="108" width="30" height="117" fill="#BFCED4"/>
<rect x="429" y="108" width="30" height="4" fill="#A6B2BC"/>
<path d="M437.982 99.153C441.161 99.153 443.303 96.977 443.303 92.829C443.303 89.021 441.433 86.947 438.39 86.947C435.398 86.947 433.358 88.63 433.358 91.282C433.358 93.713 435.279 95.362 437.914 95.362C439.903 95.362 441.229 94.41 441.773 93.118C441.79 93.254 441.79 93.39 441.79 93.526C441.79 95.94 440.26 97.708 438.186 97.708C436.843 97.708 435.619 97.164 434.922 96.195L433.698 97.045C434.412 98.252 435.942 99.153 437.982 99.153ZM438.186 93.917C436.163 93.917 434.854 92.88 434.854 91.163C434.854 89.361 436.129 88.392 438.22 88.392C440.532 88.392 441.382 89.786 441.382 91.231C441.382 92.744 440.158 93.917 438.186 93.917ZM449.95 99.153C452.585 99.153 454.659 97.487 454.659 95.022C454.659 92.659 452.959 91.044 450.171 91.044C448.505 91.044 446.839 91.826 446.21 93.322C446.21 93.254 446.21 93.203 446.21 93.135C446.261 90.228 447.723 88.392 449.967 88.392C451.412 88.392 452.432 89.038 453.095 90.058L454.251 89.276C453.588 87.848 452.075 86.947 450.035 86.947C447.179 86.947 444.748 89.089 444.748 93.373C444.748 97.113 446.771 99.153 449.95 99.153ZM449.933 97.708C447.978 97.708 446.771 96.45 446.771 94.971C446.771 93.526 447.927 92.489 450.086 92.489C451.871 92.489 453.163 93.373 453.163 95.09C453.163 96.654 451.82 97.708 449.933 97.708Z" fill="#222429"/>
<rect x="469" y="88" width="30" height="137" fill="#5FAF2D"/>
<rect x="469" y="88" width="30" height="4" fill="#3D7917"/>
<path d="M472.139 68.987L472.683 70.262L475.76 68.851V79H477.188V67.032H476.219L472.139 68.987ZM478.846 68.987L479.39 70.262L482.467 68.851V79H483.895V67.032H482.926L478.846 68.987ZM487.678 71.027C487.865 69.82 488.783 68.392 490.806 68.392C492.234 68.392 493.356 69.004 493.356 70.687C493.356 72.319 492.013 73.832 488.613 76.093L486.029 77.81V79H495.294V77.555H488.715L490.024 76.739C492.064 75.464 494.852 73.475 494.852 70.534C494.852 68.426 493.407 66.947 490.908 66.947C488.239 66.947 486.76 68.613 486.352 70.585L487.678 71.027Z" fill="#222429"/>
</svg>
