<svg viewBox="0 0 536 246" fill="none" xmlns="http://www.w3.org/2000/svg">
<path d="M62 95.3614V17C62 15.8954 62.8954 15 64 15H462C463.105 15 464 15.8954 464 17V46" stroke="#B4BBC5"/>
<path fill-rule="evenodd" clip-rule="evenodd" d="M459 43L464 52L469 43H459Z" fill="#B4BBC5"/>
<rect x="191.5" y="0.5" width="71" height="29" rx="14.5" fill="#E1E6E6" stroke="#B4BBC5"/>
<path d="M206.127 14.428H208.773V11.768H209.879V14.428H212.553V15.492H209.879V18.18H208.773V15.492H206.127V14.428ZM216.609 10.144H217.407V20H216.231V11.642L213.697 12.804L213.249 11.754L216.609 10.144ZM221.853 10.144H222.651V20H221.475V11.642L218.941 12.804L218.493 11.754L221.853 10.144ZM224.114 21.358C224.235 21.33 224.361 21.2787 224.492 21.204C224.632 21.1293 224.758 21.036 224.87 20.924C224.982 20.812 225.071 20.6907 225.136 20.56C225.211 20.4293 225.248 20.294 225.248 20.154C225.248 20.0887 225.243 20.0373 225.234 20C225.187 20.0093 225.131 20.014 225.066 20.014C224.861 20.014 224.683 19.9487 224.534 19.818C224.394 19.6873 224.324 19.5007 224.324 19.258C224.324 19.0153 224.399 18.824 224.548 18.684C224.697 18.5347 224.907 18.46 225.178 18.46C225.477 18.46 225.719 18.5627 225.906 18.768C226.102 18.964 226.2 19.2627 226.2 19.664C226.2 20.0467 226.149 20.3733 226.046 20.644C225.943 20.9147 225.808 21.1433 225.64 21.33C225.472 21.5167 225.281 21.6613 225.066 21.764C224.851 21.876 224.632 21.96 224.408 22.016L224.114 21.358ZM231.362 20.126C230.709 20.126 230.116 20.0233 229.584 19.818C229.062 19.6127 228.614 19.3093 228.24 18.908C227.867 18.4973 227.578 17.998 227.372 17.41C227.176 16.822 227.078 16.1407 227.078 15.366C227.078 14.4887 227.195 13.7187 227.428 13.056C227.662 12.3933 227.974 11.8427 228.366 11.404C228.768 10.956 229.23 10.6247 229.752 10.41C230.284 10.186 230.844 10.074 231.432 10.074C232.282 10.074 233.005 10.2467 233.602 10.592C234.2 10.9373 234.634 11.404 234.904 11.992L233.952 12.636C233.682 12.216 233.332 11.8847 232.902 11.642C232.482 11.39 231.974 11.264 231.376 11.264C230.91 11.264 230.49 11.3573 230.116 11.544C229.743 11.7213 229.421 11.9827 229.15 12.328C228.88 12.664 228.67 13.0747 228.52 13.56C228.371 14.036 228.292 14.5727 228.282 15.17V15.324C228.413 15.016 228.59 14.7453 228.814 14.512C229.048 14.2787 229.309 14.0827 229.598 13.924C229.888 13.7653 230.196 13.6487 230.522 13.574C230.858 13.49 231.199 13.448 231.544 13.448C232.114 13.448 232.627 13.5273 233.084 13.686C233.542 13.8447 233.929 14.0687 234.246 14.358C234.573 14.6473 234.82 14.9927 234.988 15.394C235.156 15.7953 235.24 16.2387 235.24 16.724C235.24 17.228 235.138 17.69 234.932 18.11C234.736 18.53 234.461 18.8893 234.106 19.188C233.761 19.4867 233.35 19.72 232.874 19.888C232.408 20.0467 231.904 20.126 231.362 20.126ZM231.348 18.936C231.74 18.936 232.095 18.8847 232.412 18.782C232.739 18.6793 233.019 18.5347 233.252 18.348C233.495 18.152 233.682 17.9233 233.812 17.662C233.943 17.4007 234.008 17.1067 234.008 16.78C234.008 16.4253 233.943 16.1173 233.812 15.856C233.691 15.5853 233.518 15.3613 233.294 15.184C233.07 14.9973 232.8 14.862 232.482 14.778C232.174 14.6847 231.838 14.638 231.474 14.638C230.578 14.638 229.897 14.8293 229.43 15.212C228.973 15.5947 228.744 16.0847 228.744 16.682C228.744 16.99 228.805 17.2793 228.926 17.55C229.048 17.8207 229.22 18.0587 229.444 18.264C229.668 18.4693 229.939 18.6327 230.256 18.754C230.583 18.8753 230.947 18.936 231.348 18.936ZM244.859 9.892L245.741 10.536L238.545 20.21L237.621 19.678L244.859 9.892ZM236.109 12.552C236.109 12.1973 236.174 11.8753 236.305 11.586C236.436 11.2873 236.613 11.0353 236.837 10.83C237.07 10.6153 237.341 10.452 237.649 10.34C237.966 10.2187 238.307 10.158 238.671 10.158C239.035 10.158 239.371 10.2187 239.679 10.34C239.987 10.452 240.253 10.6153 240.477 10.83C240.71 11.0353 240.892 11.2873 241.023 11.586C241.154 11.8753 241.219 12.1973 241.219 12.552C241.219 12.9067 241.154 13.2287 241.023 13.518C240.892 13.8073 240.71 14.0593 240.477 14.274C240.253 14.4793 239.987 14.6427 239.679 14.764C239.371 14.876 239.035 14.932 238.671 14.932C238.307 14.932 237.966 14.876 237.649 14.764C237.341 14.6427 237.07 14.4793 236.837 14.274C236.613 14.0593 236.436 13.8073 236.305 13.518C236.174 13.2287 236.109 12.9067 236.109 12.552ZM237.285 12.552C237.285 12.7667 237.322 12.958 237.397 13.126C237.481 13.294 237.584 13.4387 237.705 13.56C237.836 13.6813 237.985 13.7747 238.153 13.84C238.321 13.9053 238.494 13.938 238.671 13.938C239.035 13.938 239.352 13.812 239.623 13.56C239.903 13.308 240.043 12.972 240.043 12.552C240.043 12.132 239.903 11.796 239.623 11.544C239.352 11.292 239.035 11.166 238.671 11.166C238.298 11.166 237.971 11.292 237.691 11.544C237.42 11.796 237.285 12.132 237.285 12.552ZM242.115 17.662C242.115 17.3167 242.18 16.9993 242.311 16.71C242.442 16.4113 242.619 16.1593 242.843 15.954C243.076 15.7393 243.347 15.576 243.655 15.464C243.972 15.3427 244.313 15.282 244.677 15.282C245.041 15.282 245.377 15.3427 245.685 15.464C245.993 15.576 246.259 15.7393 246.483 15.954C246.716 16.1593 246.898 16.4113 247.029 16.71C247.16 16.9993 247.225 17.3167 247.225 17.662C247.225 18.0167 247.16 18.3387 247.029 18.628C246.898 18.9173 246.716 19.1693 246.483 19.384C246.259 19.5987 245.993 19.7667 245.685 19.888C245.377 20 245.041 20.056 244.677 20.056C244.313 20.056 243.972 20 243.655 19.888C243.347 19.7667 243.076 19.5987 242.843 19.384C242.619 19.1693 242.442 18.9173 242.311 18.628C242.18 18.3387 242.115 18.0167 242.115 17.662ZM243.291 17.662C243.291 17.8767 243.328 18.068 243.403 18.236C243.487 18.404 243.59 18.5487 243.711 18.67C243.842 18.7913 243.991 18.8847 244.159 18.95C244.327 19.0153 244.5 19.048 244.677 19.048C245.041 19.048 245.358 18.922 245.629 18.67C245.909 18.418 246.049 18.082 246.049 17.662C246.049 17.242 245.909 16.906 245.629 16.654C245.358 16.402 245.041 16.276 244.677 16.276C244.304 16.276 243.977 16.402 243.697 16.654C243.426 16.906 243.291 17.242 243.291 17.662Z" fill="#50565E"/>
<rect x="274.5" y="0.5" width="71" height="29" rx="14.5" fill="#CFE7C0" stroke="#5FAF2D"/>
<path d="M287.02 14.428H289.666V11.768H290.772V14.428H293.446V15.492H290.772V18.18H289.666V15.492H287.02V14.428ZM297.503 10.144H298.301V20H297.125V11.642L294.591 12.804L294.143 11.754L297.503 10.144ZM305.532 18.04H299.498V17.144L305.672 10.2H306.708V16.85H308.528V18.04H306.708V20H305.532V18.04ZM305.532 16.85V12.16L301.178 16.85H305.532ZM308.89 21.358C309.012 21.33 309.138 21.2787 309.268 21.204C309.408 21.1293 309.534 21.036 309.646 20.924C309.758 20.812 309.847 20.6907 309.912 20.56C309.987 20.4293 310.024 20.294 310.024 20.154C310.024 20.0887 310.02 20.0373 310.01 20C309.964 20.0093 309.908 20.014 309.842 20.014C309.637 20.014 309.46 19.9487 309.31 19.818C309.17 19.6873 309.1 19.5007 309.1 19.258C309.1 19.0153 309.175 18.824 309.324 18.684C309.474 18.5347 309.684 18.46 309.954 18.46C310.253 18.46 310.496 18.5627 310.682 18.768C310.878 18.964 310.976 19.2627 310.976 19.664C310.976 20.0467 310.925 20.3733 310.822 20.644C310.72 20.9147 310.584 21.1433 310.416 21.33C310.248 21.5167 310.057 21.6613 309.842 21.764C309.628 21.876 309.408 21.96 309.184 22.016L308.89 21.358ZM311.771 12.58C311.902 12.216 312.079 11.8847 312.303 11.586C312.527 11.278 312.798 11.012 313.115 10.788C313.442 10.564 313.815 10.3913 314.235 10.27C314.664 10.1393 315.145 10.074 315.677 10.074C316.153 10.074 316.592 10.1347 316.993 10.256C317.404 10.368 317.754 10.5313 318.043 10.746C318.342 10.9513 318.57 11.208 318.729 11.516C318.897 11.824 318.981 12.1647 318.981 12.538C318.981 13.1073 318.832 13.5927 318.533 13.994C318.244 14.3953 317.819 14.6753 317.259 14.834C317.502 14.8527 317.74 14.9133 317.973 15.016C318.206 15.1093 318.412 15.254 318.589 15.45C318.776 15.6367 318.925 15.8747 319.037 16.164C319.149 16.444 319.205 16.78 319.205 17.172C319.205 17.648 319.112 18.0727 318.925 18.446C318.748 18.81 318.496 19.118 318.169 19.37C317.852 19.6127 317.474 19.7993 317.035 19.93C316.596 20.0607 316.125 20.126 315.621 20.126C315.07 20.126 314.566 20.0607 314.109 19.93C313.661 19.7993 313.264 19.622 312.919 19.398C312.574 19.1647 312.28 18.8893 312.037 18.572C311.804 18.2453 311.626 17.886 311.505 17.494L312.639 17.004C312.76 17.256 312.905 17.4987 313.073 17.732C313.241 17.9653 313.446 18.1707 313.689 18.348C313.932 18.5253 314.216 18.67 314.543 18.782C314.87 18.8847 315.257 18.936 315.705 18.936C316.405 18.936 316.956 18.7867 317.357 18.488C317.768 18.18 317.973 17.746 317.973 17.186C317.973 16.878 317.908 16.6213 317.777 16.416C317.646 16.2013 317.464 16.0333 317.231 15.912C316.998 15.7813 316.722 15.6927 316.405 15.646C316.097 15.59 315.761 15.562 315.397 15.562H314.305V14.4H315.173C315.985 14.4 316.615 14.246 317.063 13.938C317.52 13.63 317.749 13.2427 317.749 12.776C317.749 12.272 317.558 11.894 317.175 11.642C316.792 11.39 316.274 11.264 315.621 11.264C315.22 11.264 314.865 11.3153 314.557 11.418C314.249 11.5207 313.978 11.656 313.745 11.824C313.521 11.992 313.33 12.1833 313.171 12.398C313.022 12.6127 312.905 12.832 312.821 13.056L311.771 12.58ZM328.965 9.892L329.847 10.536L322.651 20.21L321.727 19.678L328.965 9.892ZM320.215 12.552C320.215 12.1973 320.281 11.8753 320.411 11.586C320.542 11.2873 320.719 11.0353 320.943 10.83C321.177 10.6153 321.447 10.452 321.755 10.34C322.073 10.2187 322.413 10.158 322.777 10.158C323.141 10.158 323.477 10.2187 323.785 10.34C324.093 10.452 324.359 10.6153 324.583 10.83C324.817 11.0353 324.999 11.2873 325.129 11.586C325.26 11.8753 325.325 12.1973 325.325 12.552C325.325 12.9067 325.26 13.2287 325.129 13.518C324.999 13.8073 324.817 14.0593 324.583 14.274C324.359 14.4793 324.093 14.6427 323.785 14.764C323.477 14.876 323.141 14.932 322.777 14.932C322.413 14.932 322.073 14.876 321.755 14.764C321.447 14.6427 321.177 14.4793 320.943 14.274C320.719 14.0593 320.542 13.8073 320.411 13.518C320.281 13.2287 320.215 12.9067 320.215 12.552ZM321.391 12.552C321.391 12.7667 321.429 12.958 321.503 13.126C321.587 13.294 321.69 13.4387 321.811 13.56C321.942 13.6813 322.091 13.7747 322.259 13.84C322.427 13.9053 322.6 13.938 322.777 13.938C323.141 13.938 323.459 13.812 323.729 13.56C324.009 13.308 324.149 12.972 324.149 12.552C324.149 12.132 324.009 11.796 323.729 11.544C323.459 11.292 323.141 11.166 322.777 11.166C322.404 11.166 322.077 11.292 321.797 11.544C321.527 11.796 321.391 12.132 321.391 12.552ZM326.221 17.662C326.221 17.3167 326.287 16.9993 326.417 16.71C326.548 16.4113 326.725 16.1593 326.949 15.954C327.183 15.7393 327.453 15.576 327.761 15.464C328.079 15.3427 328.419 15.282 328.783 15.282C329.147 15.282 329.483 15.3427 329.791 15.464C330.099 15.576 330.365 15.7393 330.589 15.954C330.823 16.1593 331.005 16.4113 331.135 16.71C331.266 16.9993 331.331 17.3167 331.331 17.662C331.331 18.0167 331.266 18.3387 331.135 18.628C331.005 18.9173 330.823 19.1693 330.589 19.384C330.365 19.5987 330.099 19.7667 329.791 19.888C329.483 20 329.147 20.056 328.783 20.056C328.419 20.056 328.079 20 327.761 19.888C327.453 19.7667 327.183 19.5987 326.949 19.384C326.725 19.1693 326.548 18.9173 326.417 18.628C326.287 18.3387 326.221 18.0167 326.221 17.662ZM327.397 17.662C327.397 17.8767 327.435 18.068 327.509 18.236C327.593 18.404 327.696 18.5487 327.817 18.67C327.948 18.7913 328.097 18.8847 328.265 18.95C328.433 19.0153 328.606 19.048 328.783 19.048C329.147 19.048 329.465 18.922 329.735 18.67C330.015 18.418 330.155 18.082 330.155 17.662C330.155 17.242 330.015 16.906 329.735 16.654C329.465 16.402 329.147 16.276 328.783 16.276C328.41 16.276 328.083 16.402 327.803 16.654C327.533 16.906 327.397 17.242 327.397 17.662Z" fill="#50565E"/>
<rect y="225" width="536" height="1" fill="#9299A3"/>
<path d="M50.1708 238.07C50.2548 237.669 50.3948 237.286 50.5908 236.922C50.7868 236.558 51.0388 236.241 51.3468 235.97C51.6548 235.69 52.0234 235.471 52.4528 235.312C52.8821 235.153 53.3721 235.074 53.9228 235.074C54.4361 235.074 54.8934 235.149 55.2948 235.298C55.6961 235.438 56.0368 235.639 56.3168 235.9C56.5968 236.161 56.8068 236.474 56.9468 236.838C57.0961 237.202 57.1708 237.599 57.1708 238.028C57.1708 238.635 57.0401 239.195 56.7788 239.708C56.5268 240.212 56.2048 240.674 55.8128 241.094C55.4208 241.514 54.9914 241.897 54.5248 242.242C54.0581 242.578 53.6148 242.877 53.1948 243.138L52.1168 243.81H57.5348V245H49.9048V244.02L52.0328 242.606C52.7328 242.139 53.3301 241.71 53.8248 241.318C54.3194 240.917 54.7208 240.539 55.0288 240.184C55.3461 239.829 55.5748 239.489 55.7148 239.162C55.8641 238.826 55.9388 238.49 55.9388 238.154C55.9388 237.809 55.8828 237.515 55.7708 237.272C55.6681 237.029 55.5188 236.833 55.3228 236.684C55.1361 236.535 54.9121 236.427 54.6508 236.362C54.3988 236.297 54.1281 236.264 53.8388 236.264C53.4188 236.264 53.0548 236.329 52.7468 236.46C52.4481 236.591 52.1914 236.763 51.9768 236.978C51.7714 237.183 51.6081 237.417 51.4868 237.678C51.3748 237.93 51.3001 238.182 51.2628 238.434L50.1708 238.07ZM58.505 240.1C58.505 239.372 58.589 238.705 58.757 238.098C58.925 237.482 59.177 236.95 59.513 236.502C59.8584 236.054 60.2924 235.704 60.815 235.452C61.3377 235.2 61.9537 235.074 62.663 235.074C63.3724 235.074 63.9884 235.191 64.511 235.424C65.0337 235.657 65.4677 235.993 65.813 236.432C66.1584 236.871 66.415 237.403 66.583 238.028C66.751 238.644 66.835 239.335 66.835 240.1C66.835 240.828 66.751 241.5 66.583 242.116C66.4244 242.723 66.1724 243.25 65.827 243.698C65.491 244.146 65.0617 244.496 64.539 244.748C64.0164 245 63.4004 245.126 62.691 245.126C62.019 245.126 61.4217 245 60.899 244.748C60.3764 244.496 59.9377 244.146 59.583 243.698C59.2284 243.25 58.9577 242.723 58.771 242.116C58.5937 241.5 58.505 240.828 58.505 240.1ZM59.737 240.1C59.737 241.295 59.9984 242.233 60.521 242.914C61.0437 243.595 61.767 243.936 62.691 243.936C63.699 243.936 64.4364 243.595 64.903 242.914C65.3697 242.233 65.603 241.295 65.603 240.1C65.603 238.905 65.365 237.967 64.889 237.286C64.413 236.605 63.671 236.264 62.663 236.264C62.159 236.264 61.725 236.353 61.361 236.53C60.997 236.707 60.6937 236.964 60.451 237.3C60.2084 237.636 60.0264 238.042 59.905 238.518C59.793 238.985 59.737 239.512 59.737 240.1ZM70.6807 235.144H71.4787V245H70.3027V236.642L67.7687 237.804L67.3207 236.754L70.6807 235.144ZM77.5621 239.414C77.8794 239.414 78.1734 239.377 78.4441 239.302C78.7241 239.218 78.9668 239.106 79.1721 238.966C79.3774 238.826 79.5361 238.658 79.6481 238.462C79.7694 238.266 79.8301 238.051 79.8301 237.818C79.8301 237.314 79.6201 236.931 79.2001 236.67C78.7894 236.399 78.1594 236.264 77.3101 236.264C76.4888 236.264 75.8681 236.399 75.4481 236.67C75.0374 236.941 74.8321 237.323 74.8321 237.818C74.8321 238.042 74.8881 238.252 75.0001 238.448C75.1121 238.644 75.2661 238.817 75.4621 238.966C75.6674 239.106 75.9101 239.218 76.1901 239.302C76.4794 239.377 76.7921 239.414 77.1281 239.414H77.5621ZM77.1841 240.52C76.7921 240.52 76.4281 240.567 76.0921 240.66C75.7654 240.744 75.4854 240.865 75.2521 241.024C75.0188 241.173 74.8368 241.355 74.7061 241.57C74.5754 241.775 74.5101 241.995 74.5101 242.228C74.5101 242.732 74.7434 243.143 75.2101 243.46C75.6861 243.777 76.3908 243.936 77.3241 243.936C78.2854 243.936 78.9948 243.787 79.4521 243.488C79.9094 243.18 80.1381 242.765 80.1381 242.242C80.1381 241.691 79.9001 241.267 79.4241 240.968C78.9574 240.669 78.3274 240.52 77.5341 240.52H77.1841ZM77.3381 245.126C76.7128 245.126 76.1481 245.065 75.6441 244.944C75.1494 244.813 74.7248 244.631 74.3701 244.398C74.0248 244.155 73.7541 243.866 73.5581 243.53C73.3714 243.185 73.2781 242.793 73.2781 242.354C73.2781 241.775 73.4508 241.276 73.7961 240.856C74.1508 240.427 74.6221 240.119 75.2101 239.932C74.9301 239.839 74.6874 239.717 74.4821 239.568C74.2768 239.409 74.1088 239.232 73.9781 239.036C73.8474 238.84 73.7494 238.635 73.6841 238.42C73.6281 238.196 73.6001 237.967 73.6001 237.734C73.6001 236.922 73.9174 236.278 74.5521 235.802C75.1961 235.317 76.1201 235.074 77.3241 235.074C78.5374 235.074 79.4614 235.317 80.0961 235.802C80.7401 236.278 81.0621 236.922 81.0621 237.734C81.0621 238.238 80.9221 238.663 80.6421 239.008C80.3714 239.353 79.9934 239.638 79.5081 239.862C80.1801 240.067 80.6561 240.375 80.9361 240.786C81.2254 241.197 81.3701 241.701 81.3701 242.298C81.3701 242.746 81.2768 243.147 81.0901 243.502C80.9034 243.847 80.6328 244.141 80.2781 244.384C79.9328 244.627 79.5081 244.813 79.0041 244.944C78.5094 245.065 77.9541 245.126 77.3381 245.126Z" fill="#777F8C"/>
<rect x="29" y="120" width="30" height="105" fill="#BFCED4"/>
<rect x="29" y="120" width="30" height="4" fill="#A6B2BC"/>
<path d="M38.6277 104.217C39.0131 104.217 39.3701 104.172 39.6987 104.081C40.0387 103.979 40.3334 103.843 40.5827 103.673C40.8321 103.503 41.0247 103.299 41.1607 103.061C41.3081 102.823 41.3817 102.562 41.3817 102.279C41.3817 101.667 41.1267 101.202 40.6167 100.885C40.1181 100.556 39.3531 100.392 38.3217 100.392C37.3244 100.392 36.5707 100.556 36.0607 100.885C35.5621 101.214 35.3127 101.678 35.3127 102.279C35.3127 102.551 35.3807 102.806 35.5167 103.044C35.6527 103.282 35.8397 103.492 36.0777 103.673C36.3271 103.843 36.6217 103.979 36.9617 104.081C37.3131 104.172 37.6927 104.217 38.1007 104.217H38.6277ZM38.1687 105.56C37.6927 105.56 37.2507 105.617 36.8427 105.73C36.4461 105.832 36.1061 105.979 35.8227 106.172C35.5394 106.353 35.3184 106.574 35.1597 106.835C35.0011 107.084 34.9217 107.351 34.9217 107.634C34.9217 108.246 35.2051 108.745 35.7717 109.13C36.3497 109.515 37.2054 109.708 38.3387 109.708C39.5061 109.708 40.3674 109.527 40.9227 109.164C41.4781 108.79 41.7557 108.286 41.7557 107.651C41.7557 106.982 41.4667 106.467 40.8887 106.104C40.3221 105.741 39.5571 105.56 38.5937 105.56H38.1687ZM38.3557 111.153C37.5964 111.153 36.9107 111.079 36.2987 110.932C35.6981 110.773 35.1824 110.552 34.7517 110.269C34.3324 109.974 34.0037 109.623 33.7657 109.215C33.5391 108.796 33.4257 108.32 33.4257 107.787C33.4257 107.084 33.6354 106.478 34.0547 105.968C34.4854 105.447 35.0577 105.073 35.7717 104.846C35.4317 104.733 35.1371 104.585 34.8877 104.404C34.6384 104.211 34.4344 103.996 34.2757 103.758C34.1171 103.52 33.9981 103.271 33.9187 103.01C33.8507 102.738 33.8167 102.46 33.8167 102.177C33.8167 101.191 34.2021 100.409 34.9727 99.831C35.7547 99.2417 36.8767 98.947 38.3387 98.947C39.8121 98.947 40.9341 99.2417 41.7047 99.831C42.4867 100.409 42.8777 101.191 42.8777 102.177C42.8777 102.789 42.7077 103.305 42.3677 103.724C42.0391 104.143 41.5801 104.489 40.9907 104.761C41.8067 105.01 42.3847 105.384 42.7247 105.883C43.0761 106.382 43.2517 106.994 43.2517 107.719C43.2517 108.263 43.1384 108.75 42.9117 109.181C42.6851 109.6 42.3564 109.957 41.9257 110.252C41.5064 110.547 40.9907 110.773 40.3787 110.932C39.7781 111.079 39.1037 111.153 38.3557 111.153ZM49.9496 111.153C49.1563 111.153 48.4366 111.028 47.7906 110.779C47.1559 110.53 46.6119 110.161 46.1586 109.674C45.7053 109.175 45.3539 108.569 45.1046 107.855C44.8666 107.141 44.7476 106.314 44.7476 105.373C44.7476 104.308 44.8893 103.373 45.1726 102.568C45.4559 101.763 45.8356 101.095 46.3116 100.562C46.7989 100.018 47.3599 99.6157 47.9946 99.355C48.6406 99.083 49.3206 98.947 50.0346 98.947C51.0659 98.947 51.9443 99.1567 52.6696 99.576C53.3949 99.9953 53.9219 100.562 54.2506 101.276L53.0946 102.058C52.7659 101.548 52.3409 101.146 51.8196 100.851C51.3096 100.545 50.6919 100.392 49.9666 100.392C49.3999 100.392 48.8899 100.505 48.4366 100.732C47.9833 100.947 47.5923 101.265 47.2636 101.684C46.9349 102.092 46.6799 102.591 46.4986 103.18C46.3173 103.758 46.2209 104.41 46.2096 105.135V105.322C46.3683 104.948 46.5836 104.619 46.8556 104.336C47.1389 104.053 47.4563 103.815 47.8076 103.622C48.1589 103.429 48.5329 103.288 48.9296 103.197C49.3376 103.095 49.7513 103.044 50.1706 103.044C50.8619 103.044 51.4853 103.14 52.0406 103.333C52.5959 103.526 53.0663 103.798 53.4516 104.149C53.8483 104.5 54.1486 104.92 54.3526 105.407C54.5566 105.894 54.6586 106.433 54.6586 107.022C54.6586 107.634 54.5339 108.195 54.2846 108.705C54.0466 109.215 53.7123 109.651 53.2816 110.014C52.8623 110.377 52.3636 110.66 51.7856 110.864C51.2189 111.057 50.6069 111.153 49.9496 111.153ZM49.9326 109.708C50.4086 109.708 50.8393 109.646 51.2246 109.521C51.6213 109.396 51.9613 109.221 52.2446 108.994C52.5393 108.756 52.7659 108.478 52.9246 108.161C53.0833 107.844 53.1626 107.487 53.1626 107.09C53.1626 106.659 53.0833 106.285 52.9246 105.968C52.7773 105.639 52.5676 105.367 52.2956 105.152C52.0236 104.925 51.6949 104.761 51.3096 104.659C50.9356 104.546 50.5276 104.489 50.0856 104.489C48.9976 104.489 48.1703 104.721 47.6036 105.186C47.0483 105.651 46.7706 106.246 46.7706 106.971C46.7706 107.345 46.8443 107.696 46.9916 108.025C47.1389 108.354 47.3486 108.643 47.6206 108.892C47.8926 109.141 48.2213 109.34 48.6066 109.487C49.0033 109.634 49.4453 109.708 49.9326 109.708Z" fill="#222429"/>
<rect x="69" y="106" width="30" height="119" fill="#5FAF2D"/>
<rect x="69" y="106" width="30" height="4" fill="#3D7917"/>
<path d="M77.9651 97.153C76.9338 97.153 76.0498 96.9547 75.3131 96.558C74.5878 96.1613 74.0438 95.657 73.6811 95.045L74.9051 94.195C75.2565 94.6823 75.7155 95.0563 76.2821 95.317C76.8601 95.5777 77.4891 95.708 78.1691 95.708C78.6905 95.708 79.1665 95.606 79.5971 95.402C80.0391 95.1867 80.4188 94.892 80.7361 94.518C81.0648 94.144 81.3198 93.702 81.5011 93.192C81.6825 92.682 81.7731 92.1267 81.7731 91.526C81.7731 91.458 81.7731 91.39 81.7731 91.322C81.7731 91.254 81.7675 91.186 81.7561 91.118C81.4841 91.764 81.0195 92.3023 80.3621 92.733C79.7161 93.1523 78.8945 93.362 77.8971 93.362C77.2398 93.362 76.6335 93.2657 76.0781 93.073C75.5228 92.869 75.0411 92.5913 74.6331 92.24C74.2251 91.8773 73.9078 91.4467 73.6811 90.948C73.4545 90.4493 73.3411 89.894 73.3411 89.282C73.3411 88.6247 73.4601 88.0297 73.6981 87.497C73.9475 86.953 74.2931 86.494 74.7351 86.12C75.1771 85.746 75.7041 85.457 76.3161 85.253C76.9395 85.049 77.6251 84.947 78.3731 84.947C79.1325 84.947 79.8125 85.0773 80.4131 85.338C81.0251 85.5873 81.5408 85.9613 81.9601 86.46C82.3908 86.9587 82.7195 87.5763 82.9461 88.313C83.1728 89.0383 83.2861 89.877 83.2861 90.829C83.2861 91.8717 83.1558 92.7897 82.8951 93.583C82.6458 94.365 82.2831 95.0223 81.8071 95.555C81.3425 96.0763 80.7815 96.473 80.1241 96.745C79.4781 97.017 78.7585 97.153 77.9651 97.153ZM78.1691 91.917C78.6565 91.917 79.0985 91.849 79.4951 91.713C79.8918 91.577 80.2261 91.39 80.4981 91.152C80.7815 90.9027 80.9968 90.6137 81.1441 90.285C81.2915 89.9563 81.3651 89.605 81.3651 89.231C81.3651 88.8683 81.3085 88.517 81.1951 88.177C81.0818 87.837 80.9005 87.5367 80.6511 87.276C80.4018 87.004 80.0731 86.7887 79.6651 86.63C79.2685 86.4713 78.7811 86.392 78.2031 86.392C77.1491 86.392 76.3218 86.63 75.7211 87.106C75.1318 87.5707 74.8371 88.2563 74.8371 89.163C74.8371 90.0243 75.1375 90.6987 75.7381 91.186C76.3388 91.6733 77.1491 91.917 78.1691 91.917ZM89.95 90.217C90.3353 90.217 90.6923 90.1717 91.021 90.081C91.361 89.979 91.6557 89.843 91.905 89.673C92.1543 89.503 92.347 89.299 92.483 89.061C92.6303 88.823 92.704 88.5623 92.704 88.279C92.704 87.667 92.449 87.2023 91.939 86.885C91.4403 86.5563 90.6753 86.392 89.644 86.392C88.6467 86.392 87.893 86.5563 87.383 86.885C86.8843 87.2137 86.635 87.6783 86.635 88.279C86.635 88.551 86.703 88.806 86.839 89.044C86.975 89.282 87.162 89.4917 87.4 89.673C87.6493 89.843 87.944 89.979 88.284 90.081C88.6353 90.1717 89.015 90.217 89.423 90.217H89.95ZM89.491 91.56C89.015 91.56 88.573 91.6167 88.165 91.73C87.7683 91.832 87.4283 91.9793 87.145 92.172C86.8617 92.3533 86.6407 92.5743 86.482 92.835C86.3233 93.0843 86.244 93.3507 86.244 93.634C86.244 94.246 86.5273 94.7447 87.094 95.13C87.672 95.5153 88.5277 95.708 89.661 95.708C90.8283 95.708 91.6897 95.5267 92.245 95.164C92.8003 94.79 93.078 94.2857 93.078 93.651C93.078 92.9823 92.789 92.4667 92.211 92.104C91.6443 91.7413 90.8793 91.56 89.916 91.56H89.491ZM89.678 97.153C88.9187 97.153 88.233 97.0793 87.621 96.932C87.0203 96.7733 86.5047 96.5523 86.074 96.269C85.6547 95.9743 85.326 95.623 85.088 95.215C84.8613 94.7957 84.748 94.3197 84.748 93.787C84.748 93.0843 84.9577 92.478 85.377 91.968C85.8077 91.4467 86.38 91.0727 87.094 90.846C86.754 90.7327 86.4593 90.5853 86.21 90.404C85.9607 90.2113 85.7567 89.996 85.598 89.758C85.4393 89.52 85.3203 89.2707 85.241 89.01C85.173 88.738 85.139 88.4603 85.139 88.177C85.139 87.191 85.5243 86.409 86.295 85.831C87.077 85.2417 88.199 84.947 89.661 84.947C91.1343 84.947 92.2563 85.2417 93.027 85.831C93.809 86.409 94.2 87.191 94.2 88.177C94.2 88.789 94.03 89.3047 93.69 89.724C93.3613 90.1433 92.9023 90.489 92.313 90.761C93.129 91.0103 93.707 91.3843 94.047 91.883C94.3983 92.3817 94.574 92.9937 94.574 93.719C94.574 94.263 94.4607 94.7503 94.234 95.181C94.0073 95.6003 93.6787 95.9573 93.248 96.252C92.8287 96.5467 92.313 96.7733 91.701 96.932C91.1003 97.0793 90.426 97.153 89.678 97.153Z" fill="#222429"/>
<path d="M150.171 238.07C150.255 237.669 150.395 237.286 150.591 236.922C150.787 236.558 151.039 236.241 151.347 235.97C151.655 235.69 152.023 235.471 152.453 235.312C152.882 235.153 153.372 235.074 153.923 235.074C154.436 235.074 154.893 235.149 155.295 235.298C155.696 235.438 156.037 235.639 156.317 235.9C156.597 236.161 156.807 236.474 156.947 236.838C157.096 237.202 157.171 237.599 157.171 238.028C157.171 238.635 157.04 239.195 156.779 239.708C156.527 240.212 156.205 240.674 155.813 241.094C155.421 241.514 154.991 241.897 154.525 242.242C154.058 242.578 153.615 242.877 153.195 243.138L152.117 243.81H157.535V245H149.905V244.02L152.033 242.606C152.733 242.139 153.33 241.71 153.825 241.318C154.319 240.917 154.721 240.539 155.029 240.184C155.346 239.829 155.575 239.489 155.715 239.162C155.864 238.826 155.939 238.49 155.939 238.154C155.939 237.809 155.883 237.515 155.771 237.272C155.668 237.029 155.519 236.833 155.323 236.684C155.136 236.535 154.912 236.427 154.651 236.362C154.399 236.297 154.128 236.264 153.839 236.264C153.419 236.264 153.055 236.329 152.747 236.46C152.448 236.591 152.191 236.763 151.977 236.978C151.771 237.183 151.608 237.417 151.487 237.678C151.375 237.93 151.3 238.182 151.263 238.434L150.171 238.07ZM158.505 240.1C158.505 239.372 158.589 238.705 158.757 238.098C158.925 237.482 159.177 236.95 159.513 236.502C159.858 236.054 160.292 235.704 160.815 235.452C161.338 235.2 161.954 235.074 162.663 235.074C163.372 235.074 163.988 235.191 164.511 235.424C165.034 235.657 165.468 235.993 165.813 236.432C166.158 236.871 166.415 237.403 166.583 238.028C166.751 238.644 166.835 239.335 166.835 240.1C166.835 240.828 166.751 241.5 166.583 242.116C166.424 242.723 166.172 243.25 165.827 243.698C165.491 244.146 165.062 244.496 164.539 244.748C164.016 245 163.4 245.126 162.691 245.126C162.019 245.126 161.422 245 160.899 244.748C160.376 244.496 159.938 244.146 159.583 243.698C159.228 243.25 158.958 242.723 158.771 242.116C158.594 241.5 158.505 240.828 158.505 240.1ZM159.737 240.1C159.737 241.295 159.998 242.233 160.521 242.914C161.044 243.595 161.767 243.936 162.691 243.936C163.699 243.936 164.436 243.595 164.903 242.914C165.37 242.233 165.603 241.295 165.603 240.1C165.603 238.905 165.365 237.967 164.889 237.286C164.413 236.605 163.671 236.264 162.663 236.264C162.159 236.264 161.725 236.353 161.361 236.53C160.997 236.707 160.694 236.964 160.451 237.3C160.208 237.636 160.026 238.042 159.905 238.518C159.793 238.985 159.737 239.512 159.737 240.1ZM170.681 235.144H171.479V245H170.303V236.642L167.769 237.804L167.321 236.754L170.681 235.144ZM177.03 245.126C176.181 245.126 175.453 244.963 174.846 244.636C174.249 244.309 173.801 243.894 173.502 243.39L174.51 242.69C174.799 243.091 175.177 243.399 175.644 243.614C176.12 243.829 176.638 243.936 177.198 243.936C177.627 243.936 178.019 243.852 178.374 243.684C178.738 243.507 179.051 243.264 179.312 242.956C179.583 242.648 179.793 242.284 179.942 241.864C180.091 241.444 180.166 240.987 180.166 240.492C180.166 240.436 180.166 240.38 180.166 240.324C180.166 240.268 180.161 240.212 180.152 240.156C179.928 240.688 179.545 241.131 179.004 241.486C178.472 241.831 177.795 242.004 176.974 242.004C176.433 242.004 175.933 241.925 175.476 241.766C175.019 241.598 174.622 241.369 174.286 241.08C173.95 240.781 173.689 240.427 173.502 240.016C173.315 239.605 173.222 239.148 173.222 238.644C173.222 238.103 173.32 237.613 173.516 237.174C173.721 236.726 174.006 236.348 174.37 236.04C174.734 235.732 175.168 235.494 175.672 235.326C176.185 235.158 176.75 235.074 177.366 235.074C177.991 235.074 178.551 235.181 179.046 235.396C179.55 235.601 179.975 235.909 180.32 236.32C180.675 236.731 180.945 237.239 181.132 237.846C181.319 238.443 181.412 239.134 181.412 239.918C181.412 240.777 181.305 241.533 181.09 242.186C180.885 242.83 180.586 243.371 180.194 243.81C179.811 244.239 179.349 244.566 178.808 244.79C178.276 245.014 177.683 245.126 177.03 245.126ZM177.198 240.814C177.599 240.814 177.963 240.758 178.29 240.646C178.617 240.534 178.892 240.38 179.116 240.184C179.349 239.979 179.527 239.741 179.648 239.47C179.769 239.199 179.83 238.91 179.83 238.602C179.83 238.303 179.783 238.014 179.69 237.734C179.597 237.454 179.447 237.207 179.242 236.992C179.037 236.768 178.766 236.591 178.43 236.46C178.103 236.329 177.702 236.264 177.226 236.264C176.358 236.264 175.677 236.46 175.182 236.852C174.697 237.235 174.454 237.799 174.454 238.546C174.454 239.255 174.701 239.811 175.196 240.212C175.691 240.613 176.358 240.814 177.198 240.814Z" fill="#777F8C"/>
<rect x="129" y="119" width="30" height="106" fill="#BFCED4"/>
<rect x="129" y="119" width="30" height="4" fill="#A6B2BC"/>
<path d="M139.425 103.217C139.81 103.217 140.167 103.172 140.496 103.081C140.836 102.979 141.13 102.843 141.38 102.673C141.629 102.503 141.822 102.299 141.958 102.061C142.105 101.823 142.179 101.562 142.179 101.279C142.179 100.667 141.924 100.202 141.414 99.885C140.915 99.5563 140.15 99.392 139.119 99.392C138.121 99.392 137.368 99.5563 136.858 99.885C136.359 100.214 136.11 100.678 136.11 101.279C136.11 101.551 136.178 101.806 136.314 102.044C136.45 102.282 136.637 102.492 136.875 102.673C137.124 102.843 137.419 102.979 137.759 103.081C138.11 103.172 138.49 103.217 138.898 103.217H139.425ZM138.966 104.56C138.49 104.56 138.048 104.617 137.64 104.73C137.243 104.832 136.903 104.979 136.62 105.172C136.336 105.353 136.115 105.574 135.957 105.835C135.798 106.084 135.719 106.351 135.719 106.634C135.719 107.246 136.002 107.745 136.569 108.13C137.147 108.515 138.002 108.708 139.136 108.708C140.303 108.708 141.164 108.527 141.72 108.164C142.275 107.79 142.553 107.286 142.553 106.651C142.553 105.982 142.264 105.467 141.686 105.104C141.119 104.741 140.354 104.56 139.391 104.56H138.966ZM139.153 110.153C138.393 110.153 137.708 110.079 137.096 109.932C136.495 109.773 135.979 109.552 135.549 109.269C135.129 108.974 134.801 108.623 134.563 108.215C134.336 107.796 134.223 107.32 134.223 106.787C134.223 106.084 134.432 105.478 134.852 104.968C135.282 104.447 135.855 104.073 136.569 103.846C136.229 103.733 135.934 103.585 135.685 103.404C135.435 103.211 135.231 102.996 135.073 102.758C134.914 102.52 134.795 102.271 134.716 102.01C134.648 101.738 134.614 101.46 134.614 101.177C134.614 100.191 134.999 99.409 135.77 98.831C136.552 98.2417 137.674 97.947 139.136 97.947C140.609 97.947 141.731 98.2417 142.502 98.831C143.284 99.409 143.675 100.191 143.675 101.177C143.675 101.789 143.505 102.305 143.165 102.724C142.836 103.143 142.377 103.489 141.788 103.761C142.604 104.01 143.182 104.384 143.522 104.883C143.873 105.382 144.049 105.994 144.049 106.719C144.049 107.263 143.935 107.75 143.709 108.181C143.482 108.6 143.153 108.957 142.723 109.252C142.303 109.547 141.788 109.773 141.176 109.932C140.575 110.079 139.901 110.153 139.153 110.153ZM145.153 98.1H154.18V99.069L148.264 110H146.649L152.361 99.545H145.153V98.1Z" fill="#222429"/>
<rect x="169" y="100" width="30" height="125" fill="#5FAF2D"/>
<rect x="169" y="100" width="30" height="4" fill="#3D7917"/>
<path d="M173.754 79.032H174.723V91H173.295V80.851L170.218 82.262L169.674 80.987L173.754 79.032ZM177.061 85.05C177.061 84.166 177.163 83.3557 177.367 82.619C177.571 81.871 177.877 81.225 178.285 80.681C178.704 80.137 179.231 79.712 179.866 79.406C180.501 79.1 181.249 78.947 182.11 78.947C182.971 78.947 183.719 79.0887 184.354 79.372C184.989 79.6553 185.516 80.0633 185.935 80.596C186.354 81.1287 186.666 81.7747 186.87 82.534C187.074 83.282 187.176 84.1207 187.176 85.05C187.176 85.934 187.074 86.75 186.87 87.498C186.677 88.2347 186.371 88.875 185.952 89.419C185.544 89.963 185.023 90.388 184.388 90.694C183.753 91 183.005 91.153 182.144 91.153C181.328 91.153 180.603 91 179.968 90.694C179.333 90.388 178.801 89.963 178.37 89.419C177.939 88.875 177.611 88.2347 177.384 87.498C177.169 86.75 177.061 85.934 177.061 85.05ZM178.557 85.05C178.557 86.5007 178.874 87.6397 179.509 88.467C180.144 89.2943 181.022 89.708 182.144 89.708C183.368 89.708 184.263 89.2943 184.83 88.467C185.397 87.6397 185.68 86.5007 185.68 85.05C185.68 83.5993 185.391 82.4603 184.813 81.633C184.235 80.8057 183.334 80.392 182.11 80.392C181.498 80.392 180.971 80.4997 180.529 80.715C180.087 80.9303 179.719 81.242 179.424 81.65C179.129 82.058 178.908 82.551 178.761 83.129C178.625 83.6957 178.557 84.336 178.557 85.05ZM188.514 81.99C188.672 81.548 188.888 81.1457 189.16 80.783C189.432 80.409 189.76 80.086 190.146 79.814C190.542 79.542 190.996 79.3323 191.506 79.185C192.027 79.0263 192.611 78.947 193.257 78.947C193.835 78.947 194.367 79.0207 194.855 79.168C195.353 79.304 195.778 79.5023 196.13 79.763C196.492 80.0123 196.77 80.324 196.963 80.698C197.167 81.072 197.269 81.4857 197.269 81.939C197.269 82.6303 197.087 83.2197 196.725 83.707C196.373 84.1943 195.858 84.5343 195.178 84.727C195.472 84.7497 195.761 84.8233 196.045 84.948C196.328 85.0613 196.577 85.237 196.793 85.475C197.019 85.7017 197.201 85.9907 197.337 86.342C197.473 86.682 197.541 87.09 197.541 87.566C197.541 88.144 197.427 88.6597 197.201 89.113C196.985 89.555 196.679 89.929 196.283 90.235C195.897 90.5297 195.438 90.7563 194.906 90.915C194.373 91.0737 193.801 91.153 193.189 91.153C192.52 91.153 191.908 91.0737 191.353 90.915C190.809 90.7563 190.327 90.541 189.908 90.269C189.488 89.9857 189.131 89.6513 188.837 89.266C188.553 88.8693 188.338 88.433 188.191 87.957L189.568 87.362C189.715 87.668 189.891 87.9627 190.095 88.246C190.299 88.5293 190.548 88.7787 190.843 88.994C191.137 89.2093 191.483 89.385 191.88 89.521C192.276 89.6457 192.747 89.708 193.291 89.708C194.141 89.708 194.809 89.5267 195.297 89.164C195.795 88.79 196.045 88.263 196.045 87.583C196.045 87.209 195.965 86.8973 195.807 86.648C195.648 86.3873 195.427 86.1833 195.144 86.036C194.86 85.8773 194.526 85.7697 194.141 85.713C193.767 85.645 193.359 85.611 192.917 85.611H191.591V84.2H192.645C193.631 84.2 194.396 84.013 194.94 83.639C195.495 83.265 195.773 82.7947 195.773 82.228C195.773 81.616 195.54 81.157 195.076 80.851C194.611 80.545 193.982 80.392 193.189 80.392C192.701 80.392 192.271 80.4543 191.897 80.579C191.523 80.7037 191.194 80.868 190.911 81.072C190.639 81.276 190.406 81.5083 190.214 81.769C190.032 82.0297 189.891 82.296 189.789 82.568L188.514 81.99Z" fill="#222429"/>
<path d="M246.944 238.07C247.028 237.669 247.168 237.286 247.364 236.922C247.56 236.558 247.812 236.241 248.12 235.97C248.428 235.69 248.797 235.471 249.226 235.312C249.656 235.153 250.146 235.074 250.696 235.074C251.21 235.074 251.667 235.149 252.068 235.298C252.47 235.438 252.81 235.639 253.09 235.9C253.37 236.161 253.58 236.474 253.72 236.838C253.87 237.202 253.944 237.599 253.944 238.028C253.944 238.635 253.814 239.195 253.552 239.708C253.3 240.212 252.978 240.674 252.586 241.094C252.194 241.514 251.765 241.897 251.298 242.242C250.832 242.578 250.388 242.877 249.968 243.138L248.89 243.81H254.308V245H246.678V244.02L248.806 242.606C249.506 242.139 250.104 241.71 250.598 241.318C251.093 240.917 251.494 240.539 251.802 240.184C252.12 239.829 252.348 239.489 252.488 239.162C252.638 238.826 252.712 238.49 252.712 238.154C252.712 237.809 252.656 237.515 252.544 237.272C252.442 237.029 252.292 236.833 252.096 236.684C251.91 236.535 251.686 236.427 251.424 236.362C251.172 236.297 250.902 236.264 250.612 236.264C250.192 236.264 249.828 236.329 249.52 236.46C249.222 236.591 248.965 236.763 248.75 236.978C248.545 237.183 248.382 237.417 248.26 237.678C248.148 237.93 248.074 238.182 248.036 238.434L246.944 238.07ZM255.278 240.1C255.278 239.372 255.362 238.705 255.53 238.098C255.698 237.482 255.95 236.95 256.286 236.502C256.632 236.054 257.066 235.704 257.588 235.452C258.111 235.2 258.727 235.074 259.436 235.074C260.146 235.074 260.762 235.191 261.284 235.424C261.807 235.657 262.241 235.993 262.586 236.432C262.932 236.871 263.188 237.403 263.356 238.028C263.524 238.644 263.608 239.335 263.608 240.1C263.608 240.828 263.524 241.5 263.356 242.116C263.198 242.723 262.946 243.25 262.6 243.698C262.264 244.146 261.835 244.496 261.312 244.748C260.79 245 260.174 245.126 259.464 245.126C258.792 245.126 258.195 245 257.672 244.748C257.15 244.496 256.711 244.146 256.356 243.698C256.002 243.25 255.731 242.723 255.544 242.116C255.367 241.5 255.278 240.828 255.278 240.1ZM256.51 240.1C256.51 241.295 256.772 242.233 257.294 242.914C257.817 243.595 258.54 243.936 259.464 243.936C260.472 243.936 261.21 243.595 261.676 242.914C262.143 242.233 262.376 241.295 262.376 240.1C262.376 238.905 262.138 237.967 261.662 237.286C261.186 236.605 260.444 236.264 259.436 236.264C258.932 236.264 258.498 236.353 258.134 236.53C257.77 236.707 257.467 236.964 257.224 237.3C256.982 237.636 256.8 238.042 256.678 238.518C256.566 238.985 256.51 239.512 256.51 240.1ZM264.752 238.07C264.836 237.669 264.976 237.286 265.172 236.922C265.368 236.558 265.62 236.241 265.928 235.97C266.236 235.69 266.605 235.471 267.034 235.312C267.463 235.153 267.953 235.074 268.504 235.074C269.017 235.074 269.475 235.149 269.876 235.298C270.277 235.438 270.618 235.639 270.898 235.9C271.178 236.161 271.388 236.474 271.528 236.838C271.677 237.202 271.752 237.599 271.752 238.028C271.752 238.635 271.621 239.195 271.36 239.708C271.108 240.212 270.786 240.674 270.394 241.094C270.002 241.514 269.573 241.897 269.106 242.242C268.639 242.578 268.196 242.877 267.776 243.138L266.698 243.81H272.116V245H264.486V244.02L266.614 242.606C267.314 242.139 267.911 241.71 268.406 241.318C268.901 240.917 269.302 240.539 269.61 240.184C269.927 239.829 270.156 239.489 270.296 239.162C270.445 238.826 270.52 238.49 270.52 238.154C270.52 237.809 270.464 237.515 270.352 237.272C270.249 237.029 270.1 236.833 269.904 236.684C269.717 236.535 269.493 236.427 269.232 236.362C268.98 236.297 268.709 236.264 268.42 236.264C268 236.264 267.636 236.329 267.328 236.46C267.029 236.591 266.773 236.763 266.558 236.978C266.353 237.183 266.189 237.417 266.068 237.678C265.956 237.93 265.881 238.182 265.844 238.434L264.752 238.07ZM273.086 240.1C273.086 239.372 273.17 238.705 273.338 238.098C273.506 237.482 273.758 236.95 274.094 236.502C274.44 236.054 274.874 235.704 275.396 235.452C275.919 235.2 276.535 235.074 277.244 235.074C277.954 235.074 278.57 235.191 279.092 235.424C279.615 235.657 280.049 235.993 280.394 236.432C280.74 236.871 280.996 237.403 281.164 238.028C281.332 238.644 281.416 239.335 281.416 240.1C281.416 240.828 281.332 241.5 281.164 242.116C281.006 242.723 280.754 243.25 280.408 243.698C280.072 244.146 279.643 244.496 279.12 244.748C278.598 245 277.982 245.126 277.272 245.126C276.6 245.126 276.003 245 275.48 244.748C274.958 244.496 274.519 244.146 274.164 243.698C273.81 243.25 273.539 242.723 273.352 242.116C273.175 241.5 273.086 240.828 273.086 240.1ZM274.318 240.1C274.318 241.295 274.58 242.233 275.102 242.914C275.625 243.595 276.348 243.936 277.272 243.936C278.28 243.936 279.018 243.595 279.484 242.914C279.951 242.233 280.184 241.295 280.184 240.1C280.184 238.905 279.946 237.967 279.47 237.286C278.994 236.605 278.252 236.264 277.244 236.264C276.74 236.264 276.306 236.353 275.942 236.53C275.578 236.707 275.275 236.964 275.032 237.3C274.79 237.636 274.608 238.042 274.486 238.518C274.374 238.985 274.318 239.512 274.318 240.1Z" fill="#777F8C"/>
<rect x="229" y="115" width="30" height="110" fill="#BFCED4"/>
<rect x="229" y="115" width="30" height="4" fill="#A6B2BC"/>
<path d="M237.857 106.153C236.826 106.153 235.942 105.955 235.205 105.558C234.48 105.161 233.936 104.657 233.573 104.045L234.797 103.195C235.149 103.682 235.608 104.056 236.174 104.317C236.752 104.578 237.381 104.708 238.061 104.708C238.583 104.708 239.059 104.606 239.489 104.402C239.931 104.187 240.311 103.892 240.628 103.518C240.957 103.144 241.212 102.702 241.393 102.192C241.575 101.682 241.665 101.127 241.665 100.526C241.665 100.458 241.665 100.39 241.665 100.322C241.665 100.254 241.66 100.186 241.648 100.118C241.376 100.764 240.912 101.302 240.254 101.733C239.608 102.152 238.787 102.362 237.789 102.362C237.132 102.362 236.526 102.266 235.97 102.073C235.415 101.869 234.933 101.591 234.525 101.24C234.117 100.877 233.8 100.447 233.573 99.948C233.347 99.4493 233.233 98.894 233.233 98.282C233.233 97.6247 233.352 97.0297 233.59 96.497C233.84 95.953 234.185 95.494 234.627 95.12C235.069 94.746 235.596 94.457 236.208 94.253C236.832 94.049 237.517 93.947 238.265 93.947C239.025 93.947 239.705 94.0773 240.305 94.338C240.917 94.5873 241.433 94.9613 241.852 95.46C242.283 95.9587 242.612 96.5763 242.838 97.313C243.065 98.0383 243.178 98.877 243.178 99.829C243.178 100.872 243.048 101.79 242.787 102.583C242.538 103.365 242.175 104.022 241.699 104.555C241.235 105.076 240.674 105.473 240.016 105.745C239.37 106.017 238.651 106.153 237.857 106.153ZM238.061 100.917C238.549 100.917 238.991 100.849 239.387 100.713C239.784 100.577 240.118 100.39 240.39 100.152C240.674 99.9027 240.889 99.6137 241.036 99.285C241.184 98.9563 241.257 98.605 241.257 98.231C241.257 97.8683 241.201 97.517 241.087 97.177C240.974 96.837 240.793 96.5367 240.543 96.276C240.294 96.004 239.965 95.7887 239.557 95.63C239.161 95.4713 238.673 95.392 238.095 95.392C237.041 95.392 236.214 95.63 235.613 96.106C235.024 96.5707 234.729 97.2563 234.729 98.163C234.729 99.0243 235.03 99.6987 235.63 100.186C236.231 100.673 237.041 100.917 238.061 100.917ZM244.623 100.05C244.623 99.166 244.725 98.3557 244.929 97.619C245.133 96.871 245.439 96.225 245.847 95.681C246.266 95.137 246.793 94.712 247.428 94.406C248.063 94.1 248.811 93.947 249.672 93.947C250.533 93.947 251.281 94.0887 251.916 94.372C252.551 94.6553 253.078 95.0633 253.497 95.596C253.916 96.1287 254.228 96.7747 254.432 97.534C254.636 98.282 254.738 99.1207 254.738 100.05C254.738 100.934 254.636 101.75 254.432 102.498C254.239 103.235 253.933 103.875 253.514 104.419C253.106 104.963 252.585 105.388 251.95 105.694C251.315 106 250.567 106.153 249.706 106.153C248.89 106.153 248.165 106 247.53 105.694C246.895 105.388 246.363 104.963 245.932 104.419C245.501 103.875 245.173 103.235 244.946 102.498C244.731 101.75 244.623 100.934 244.623 100.05ZM246.119 100.05C246.119 101.501 246.436 102.64 247.071 103.467C247.706 104.294 248.584 104.708 249.706 104.708C250.93 104.708 251.825 104.294 252.392 103.467C252.959 102.64 253.242 101.501 253.242 100.05C253.242 98.5993 252.953 97.4603 252.375 96.633C251.797 95.8057 250.896 95.392 249.672 95.392C249.06 95.392 248.533 95.4997 248.091 95.715C247.649 95.9303 247.281 96.242 246.986 96.65C246.691 97.058 246.47 97.551 246.323 98.129C246.187 98.6957 246.119 99.336 246.119 100.05Z" fill="#222429"/>
<rect x="269" y="94" width="30" height="131" fill="#5FAF2D"/>
<rect x="269" y="94" width="30" height="4" fill="#3D7917"/>
<path d="M273.331 73.032H274.3V85H272.872V74.851L269.795 76.262L269.251 74.987L273.331 73.032ZM276.638 79.05C276.638 78.166 276.74 77.3557 276.944 76.619C277.148 75.871 277.454 75.225 277.862 74.681C278.281 74.137 278.808 73.712 279.443 73.406C280.077 73.1 280.825 72.947 281.687 72.947C282.548 72.947 283.296 73.0887 283.931 73.372C284.565 73.6553 285.092 74.0633 285.512 74.596C285.931 75.1287 286.243 75.7747 286.447 76.534C286.651 77.282 286.753 78.1207 286.753 79.05C286.753 79.934 286.651 80.75 286.447 81.498C286.254 82.2347 285.948 82.875 285.529 83.419C285.121 83.963 284.599 84.388 283.965 84.694C283.33 85 282.582 85.153 281.721 85.153C280.905 85.153 280.179 85 279.545 84.694C278.91 84.388 278.377 83.963 277.947 83.419C277.516 82.875 277.187 82.2347 276.961 81.498C276.745 80.75 276.638 79.934 276.638 79.05ZM278.134 79.05C278.134 80.5007 278.451 81.6397 279.086 82.467C279.72 83.2943 280.599 83.708 281.721 83.708C282.945 83.708 283.84 83.2943 284.407 82.467C284.973 81.6397 285.257 80.5007 285.257 79.05C285.257 77.5993 284.968 76.4603 284.39 75.633C283.812 74.8057 282.911 74.392 281.687 74.392C281.075 74.392 280.548 74.4997 280.106 74.715C279.664 74.9303 279.295 75.242 279.001 75.65C278.706 76.058 278.485 76.551 278.338 77.129C278.202 77.6957 278.134 78.336 278.134 79.05ZM293.411 78.217C293.797 78.217 294.154 78.1717 294.482 78.081C294.822 77.979 295.117 77.843 295.366 77.673C295.616 77.503 295.808 77.299 295.944 77.061C296.092 76.823 296.165 76.5623 296.165 76.279C296.165 75.667 295.91 75.2023 295.4 74.885C294.902 74.5563 294.137 74.392 293.105 74.392C292.108 74.392 291.354 74.5563 290.844 74.885C290.346 75.2137 290.096 75.6783 290.096 76.279C290.096 76.551 290.164 76.806 290.3 77.044C290.436 77.282 290.623 77.4917 290.861 77.673C291.111 77.843 291.405 77.979 291.745 78.081C292.097 78.1717 292.476 78.217 292.884 78.217H293.411ZM292.952 79.56C292.476 79.56 292.034 79.6167 291.626 79.73C291.23 79.832 290.89 79.9793 290.606 80.172C290.323 80.3533 290.102 80.5743 289.943 80.835C289.785 81.0843 289.705 81.3507 289.705 81.634C289.705 82.246 289.989 82.7447 290.555 83.13C291.133 83.5153 291.989 83.708 293.122 83.708C294.29 83.708 295.151 83.5267 295.706 83.164C296.262 82.79 296.539 82.2857 296.539 81.651C296.539 80.9823 296.25 80.4667 295.672 80.104C295.106 79.7413 294.341 79.56 293.377 79.56H292.952ZM293.139 85.153C292.38 85.153 291.694 85.0793 291.082 84.932C290.482 84.7733 289.966 84.5523 289.535 84.269C289.116 83.9743 288.787 83.623 288.549 83.215C288.323 82.7957 288.209 82.3197 288.209 81.787C288.209 81.0843 288.419 80.478 288.838 79.968C289.269 79.4467 289.841 79.0727 290.555 78.846C290.215 78.7327 289.921 78.5853 289.671 78.404C289.422 78.2113 289.218 77.996 289.059 77.758C288.901 77.52 288.782 77.2707 288.702 77.01C288.634 76.738 288.6 76.4603 288.6 76.177C288.6 75.191 288.986 74.409 289.756 73.831C290.538 73.2417 291.66 72.947 293.122 72.947C294.596 72.947 295.718 73.2417 296.488 73.831C297.27 74.409 297.661 75.191 297.661 76.177C297.661 76.789 297.491 77.3047 297.151 77.724C296.823 78.1433 296.364 78.489 295.774 78.761C296.59 79.0103 297.168 79.3843 297.508 79.883C297.86 80.3817 298.035 80.9937 298.035 81.719C298.035 82.263 297.922 82.7503 297.695 83.181C297.469 83.6003 297.14 83.9573 296.709 84.252C296.29 84.5467 295.774 84.7733 295.162 84.932C294.562 85.0793 293.887 85.153 293.139 85.153Z" fill="#222429"/>
<path d="M350.936 238.07C351.02 237.669 351.16 237.286 351.356 236.922C351.552 236.558 351.804 236.241 352.112 235.97C352.42 235.69 352.789 235.471 353.218 235.312C353.648 235.153 354.138 235.074 354.688 235.074C355.202 235.074 355.659 235.149 356.06 235.298C356.462 235.438 356.802 235.639 357.082 235.9C357.362 236.161 357.572 236.474 357.712 236.838C357.862 237.202 357.936 237.599 357.936 238.028C357.936 238.635 357.806 239.195 357.544 239.708C357.292 240.212 356.97 240.674 356.578 241.094C356.186 241.514 355.757 241.897 355.29 242.242C354.824 242.578 354.38 242.877 353.96 243.138L352.882 243.81H358.3V245H350.67V244.02L352.798 242.606C353.498 242.139 354.096 241.71 354.59 241.318C355.085 240.917 355.486 240.539 355.794 240.184C356.112 239.829 356.34 239.489 356.48 239.162C356.63 238.826 356.704 238.49 356.704 238.154C356.704 237.809 356.648 237.515 356.536 237.272C356.434 237.029 356.284 236.833 356.088 236.684C355.902 236.535 355.678 236.427 355.416 236.362C355.164 236.297 354.894 236.264 354.604 236.264C354.184 236.264 353.82 236.329 353.512 236.46C353.214 236.591 352.957 236.763 352.742 236.978C352.537 237.183 352.374 237.417 352.252 237.678C352.14 237.93 352.066 238.182 352.028 238.434L350.936 238.07ZM359.271 240.1C359.271 239.372 359.355 238.705 359.523 238.098C359.691 237.482 359.943 236.95 360.279 236.502C360.624 236.054 361.058 235.704 361.581 235.452C362.103 235.2 362.719 235.074 363.429 235.074C364.138 235.074 364.754 235.191 365.277 235.424C365.799 235.657 366.233 235.993 366.579 236.432C366.924 236.871 367.181 237.403 367.349 238.028C367.517 238.644 367.601 239.335 367.601 240.1C367.601 240.828 367.517 241.5 367.349 242.116C367.19 242.723 366.938 243.25 366.593 243.698C366.257 244.146 365.827 244.496 365.305 244.748C364.782 245 364.166 245.126 363.457 245.126C362.785 245.126 362.187 245 361.665 244.748C361.142 244.496 360.703 244.146 360.349 243.698C359.994 243.25 359.723 242.723 359.537 242.116C359.359 241.5 359.271 240.828 359.271 240.1ZM360.503 240.1C360.503 241.295 360.764 242.233 361.287 242.914C361.809 243.595 362.533 243.936 363.457 243.936C364.465 243.936 365.202 243.595 365.669 242.914C366.135 242.233 366.369 241.295 366.369 240.1C366.369 238.905 366.131 237.967 365.655 237.286C365.179 236.605 364.437 236.264 363.429 236.264C362.925 236.264 362.491 236.353 362.127 236.53C361.763 236.707 361.459 236.964 361.217 237.3C360.974 237.636 360.792 238.042 360.671 238.518C360.559 238.985 360.503 239.512 360.503 240.1ZM368.744 238.07C368.828 237.669 368.968 237.286 369.164 236.922C369.36 236.558 369.612 236.241 369.92 235.97C370.228 235.69 370.597 235.471 371.026 235.312C371.456 235.153 371.946 235.074 372.496 235.074C373.01 235.074 373.467 235.149 373.868 235.298C374.27 235.438 374.61 235.639 374.89 235.9C375.17 236.161 375.38 236.474 375.52 236.838C375.67 237.202 375.744 237.599 375.744 238.028C375.744 238.635 375.614 239.195 375.352 239.708C375.1 240.212 374.778 240.674 374.386 241.094C373.994 241.514 373.565 241.897 373.098 242.242C372.632 242.578 372.188 242.877 371.768 243.138L370.69 243.81H376.108V245H368.478V244.02L370.606 242.606C371.306 242.139 371.904 241.71 372.398 241.318C372.893 240.917 373.294 240.539 373.602 240.184C373.92 239.829 374.148 239.489 374.288 239.162C374.438 238.826 374.512 238.49 374.512 238.154C374.512 237.809 374.456 237.515 374.344 237.272C374.242 237.029 374.092 236.833 373.896 236.684C373.71 236.535 373.486 236.427 373.224 236.362C372.972 236.297 372.702 236.264 372.412 236.264C371.992 236.264 371.628 236.329 371.32 236.46C371.022 236.591 370.765 236.763 370.55 236.978C370.345 237.183 370.182 237.417 370.06 237.678C369.948 237.93 369.874 238.182 369.836 238.434L368.744 238.07ZM379.879 235.144H380.677V245H379.501V236.642L376.967 237.804L376.519 236.754L379.879 235.144Z" fill="#777F8C"/>
<rect x="329" y="119" width="30" height="106" fill="#BFCED4"/>
<rect x="329" y="119" width="30" height="4" fill="#A6B2BC"/>
<path d="M339.425 103.217C339.81 103.217 340.167 103.172 340.496 103.081C340.836 102.979 341.13 102.843 341.38 102.673C341.629 102.503 341.822 102.299 341.958 102.061C342.105 101.823 342.179 101.562 342.179 101.279C342.179 100.667 341.924 100.202 341.414 99.885C340.915 99.5563 340.15 99.392 339.119 99.392C338.121 99.392 337.368 99.5563 336.858 99.885C336.359 100.214 336.11 100.678 336.11 101.279C336.11 101.551 336.178 101.806 336.314 102.044C336.45 102.282 336.637 102.492 336.875 102.673C337.124 102.843 337.419 102.979 337.759 103.081C338.11 103.172 338.49 103.217 338.898 103.217H339.425ZM338.966 104.56C338.49 104.56 338.048 104.617 337.64 104.73C337.243 104.832 336.903 104.979 336.62 105.172C336.336 105.353 336.115 105.574 335.957 105.835C335.798 106.084 335.719 106.351 335.719 106.634C335.719 107.246 336.002 107.745 336.569 108.13C337.147 108.515 338.002 108.708 339.136 108.708C340.303 108.708 341.164 108.527 341.72 108.164C342.275 107.79 342.553 107.286 342.553 106.651C342.553 105.982 342.264 105.467 341.686 105.104C341.119 104.741 340.354 104.56 339.391 104.56H338.966ZM339.153 110.153C338.393 110.153 337.708 110.079 337.096 109.932C336.495 109.773 335.979 109.552 335.549 109.269C335.129 108.974 334.801 108.623 334.563 108.215C334.336 107.796 334.223 107.32 334.223 106.787C334.223 106.084 334.432 105.478 334.852 104.968C335.282 104.447 335.855 104.073 336.569 103.846C336.229 103.733 335.934 103.585 335.685 103.404C335.435 103.211 335.231 102.996 335.073 102.758C334.914 102.52 334.795 102.271 334.716 102.01C334.648 101.738 334.614 101.46 334.614 101.177C334.614 100.191 334.999 99.409 335.77 98.831C336.552 98.2417 337.674 97.947 339.136 97.947C340.609 97.947 341.731 98.2417 342.502 98.831C343.284 99.409 343.675 100.191 343.675 101.177C343.675 101.789 343.505 102.305 343.165 102.724C342.836 103.143 342.377 103.489 341.788 103.761C342.604 104.01 343.182 104.384 343.522 104.883C343.873 105.382 344.049 105.994 344.049 106.719C344.049 107.263 343.935 107.75 343.709 108.181C343.482 108.6 343.153 108.957 342.723 109.252C342.303 109.547 341.788 109.773 341.176 109.932C340.575 110.079 339.901 110.153 339.153 110.153ZM345.153 98.1H354.18V99.069L348.264 110H346.649L352.361 99.545H345.153V98.1Z" fill="#222429"/>
<rect x="369" y="96" width="30" height="129" fill="#5FAF2D"/>
<rect x="369" y="96" width="30" height="4" fill="#3D7917"/>
<path d="M373.347 75.032H374.316V87H372.888V76.851L369.811 78.262L369.267 76.987L373.347 75.032ZM376.654 81.05C376.654 80.166 376.756 79.3557 376.96 78.619C377.164 77.871 377.47 77.225 377.878 76.681C378.298 76.137 378.825 75.712 379.459 75.406C380.094 75.1 380.842 74.947 381.703 74.947C382.565 74.947 383.313 75.0887 383.947 75.372C384.582 75.6553 385.109 76.0633 385.528 76.596C385.948 77.1287 386.259 77.7747 386.463 78.534C386.667 79.282 386.769 80.1207 386.769 81.05C386.769 81.934 386.667 82.75 386.463 83.498C386.271 84.2347 385.965 84.875 385.545 85.419C385.137 85.963 384.616 86.388 383.981 86.694C383.347 87 382.599 87.153 381.737 87.153C380.921 87.153 380.196 87 379.561 86.694C378.927 86.388 378.394 85.963 377.963 85.419C377.533 84.875 377.204 84.2347 376.977 83.498C376.762 82.75 376.654 81.934 376.654 81.05ZM378.15 81.05C378.15 82.5007 378.468 83.6397 379.102 84.467C379.737 85.2943 380.615 85.708 381.737 85.708C382.961 85.708 383.857 85.2943 384.423 84.467C384.99 83.6397 385.273 82.5007 385.273 81.05C385.273 79.5993 384.984 78.4603 384.406 77.633C383.828 76.8057 382.927 76.392 381.703 76.392C381.091 76.392 380.564 76.4997 380.122 76.715C379.68 76.9303 379.312 77.242 379.017 77.65C378.723 78.058 378.502 78.551 378.354 79.129C378.218 79.6957 378.15 80.336 378.15 81.05ZM393.411 87.153C392.618 87.153 391.898 87.0283 391.252 86.779C390.617 86.5297 390.073 86.1613 389.62 85.674C389.167 85.1753 388.815 84.569 388.566 83.855C388.328 83.141 388.209 82.3137 388.209 81.373C388.209 80.3077 388.351 79.3727 388.634 78.568C388.917 77.7633 389.297 77.0947 389.773 76.562C390.26 76.018 390.821 75.6157 391.456 75.355C392.102 75.083 392.782 74.947 393.496 74.947C394.527 74.947 395.406 75.1567 396.131 75.576C396.856 75.9953 397.383 76.562 397.712 77.276L396.556 78.058C396.227 77.548 395.802 77.1457 395.281 76.851C394.771 76.545 394.153 76.392 393.428 76.392C392.861 76.392 392.351 76.5053 391.898 76.732C391.445 76.9473 391.054 77.2647 390.725 77.684C390.396 78.092 390.141 78.5907 389.96 79.18C389.779 79.758 389.682 80.4097 389.671 81.135V81.322C389.83 80.948 390.045 80.6193 390.317 80.336C390.6 80.0527 390.918 79.8147 391.269 79.622C391.62 79.4293 391.994 79.2877 392.391 79.197C392.799 79.095 393.213 79.044 393.632 79.044C394.323 79.044 394.947 79.1403 395.502 79.333C396.057 79.5257 396.528 79.7977 396.913 80.149C397.31 80.5003 397.61 80.9197 397.814 81.407C398.018 81.8943 398.12 82.4327 398.12 83.022C398.12 83.634 397.995 84.195 397.746 84.705C397.508 85.215 397.174 85.6513 396.743 86.014C396.324 86.3767 395.825 86.66 395.247 86.864C394.68 87.0567 394.068 87.153 393.411 87.153ZM393.394 85.708C393.87 85.708 394.301 85.6457 394.686 85.521C395.083 85.3963 395.423 85.2207 395.706 84.994C396.001 84.756 396.227 84.4783 396.386 84.161C396.545 83.8437 396.624 83.4867 396.624 83.09C396.624 82.6593 396.545 82.2853 396.386 81.968C396.239 81.6393 396.029 81.3673 395.757 81.152C395.485 80.9253 395.156 80.761 394.771 80.659C394.397 80.5457 393.989 80.489 393.547 80.489C392.459 80.489 391.632 80.7213 391.065 81.186C390.51 81.6507 390.232 82.2457 390.232 82.971C390.232 83.345 390.306 83.6963 390.453 84.025C390.6 84.3537 390.81 84.6427 391.082 84.892C391.354 85.1413 391.683 85.3397 392.068 85.487C392.465 85.6343 392.907 85.708 393.394 85.708Z" fill="#222429"/>
<path d="M447.888 238.07C447.972 237.669 448.112 237.286 448.308 236.922C448.504 236.558 448.756 236.241 449.064 235.97C449.372 235.69 449.74 235.471 450.17 235.312C450.599 235.153 451.089 235.074 451.64 235.074C452.153 235.074 452.61 235.149 453.012 235.298C453.413 235.438 453.754 235.639 454.034 235.9C454.314 236.161 454.524 236.474 454.664 236.838C454.813 237.202 454.888 237.599 454.888 238.028C454.888 238.635 454.757 239.195 454.496 239.708C454.244 240.212 453.922 240.674 453.53 241.094C453.138 241.514 452.708 241.897 452.242 242.242C451.775 242.578 451.332 242.877 450.912 243.138L449.834 243.81H455.252V245H447.622V244.02L449.75 242.606C450.45 242.139 451.047 241.71 451.542 241.318C452.036 240.917 452.438 240.539 452.746 240.184C453.063 239.829 453.292 239.489 453.432 239.162C453.581 238.826 453.656 238.49 453.656 238.154C453.656 237.809 453.6 237.515 453.488 237.272C453.385 237.029 453.236 236.833 453.04 236.684C452.853 236.535 452.629 236.427 452.368 236.362C452.116 236.297 451.845 236.264 451.556 236.264C451.136 236.264 450.772 236.329 450.464 236.46C450.165 236.591 449.908 236.763 449.694 236.978C449.488 237.183 449.325 237.417 449.204 237.678C449.092 237.93 449.017 238.182 448.98 238.434L447.888 238.07ZM456.222 240.1C456.222 239.372 456.306 238.705 456.474 238.098C456.642 237.482 456.894 236.95 457.23 236.502C457.575 236.054 458.009 235.704 458.532 235.452C459.055 235.2 459.671 235.074 460.38 235.074C461.089 235.074 461.705 235.191 462.228 235.424C462.751 235.657 463.185 235.993 463.53 236.432C463.875 236.871 464.132 237.403 464.3 238.028C464.468 238.644 464.552 239.335 464.552 240.1C464.552 240.828 464.468 241.5 464.3 242.116C464.141 242.723 463.889 243.25 463.544 243.698C463.208 244.146 462.779 244.496 462.256 244.748C461.733 245 461.117 245.126 460.408 245.126C459.736 245.126 459.139 245 458.616 244.748C458.093 244.496 457.655 244.146 457.3 243.698C456.945 243.25 456.675 242.723 456.488 242.116C456.311 241.5 456.222 240.828 456.222 240.1ZM457.454 240.1C457.454 241.295 457.715 242.233 458.238 242.914C458.761 243.595 459.484 243.936 460.408 243.936C461.416 243.936 462.153 243.595 462.62 242.914C463.087 242.233 463.32 241.295 463.32 240.1C463.32 238.905 463.082 237.967 462.606 237.286C462.13 236.605 461.388 236.264 460.38 236.264C459.876 236.264 459.442 236.353 459.078 236.53C458.714 236.707 458.411 236.964 458.168 237.3C457.925 237.636 457.743 238.042 457.622 238.518C457.51 238.985 457.454 239.512 457.454 240.1ZM465.695 238.07C465.779 237.669 465.919 237.286 466.115 236.922C466.311 236.558 466.563 236.241 466.871 235.97C467.179 235.69 467.548 235.471 467.977 235.312C468.407 235.153 468.897 235.074 469.447 235.074C469.961 235.074 470.418 235.149 470.819 235.298C471.221 235.438 471.561 235.639 471.841 235.9C472.121 236.161 472.331 236.474 472.471 236.838C472.621 237.202 472.695 237.599 472.695 238.028C472.695 238.635 472.565 239.195 472.303 239.708C472.051 240.212 471.729 240.674 471.337 241.094C470.945 241.514 470.516 241.897 470.049 242.242C469.583 242.578 469.139 242.877 468.719 243.138L467.641 243.81H473.059V245H465.429V244.02L467.557 242.606C468.257 242.139 468.855 241.71 469.349 241.318C469.844 240.917 470.245 240.539 470.553 240.184C470.871 239.829 471.099 239.489 471.239 239.162C471.389 238.826 471.463 238.49 471.463 238.154C471.463 237.809 471.407 237.515 471.295 237.272C471.193 237.029 471.043 236.833 470.847 236.684C470.661 236.535 470.437 236.427 470.175 236.362C469.923 236.297 469.653 236.264 469.363 236.264C468.943 236.264 468.579 236.329 468.271 236.46C467.973 236.591 467.716 236.763 467.501 236.978C467.296 237.183 467.133 237.417 467.011 237.678C466.899 237.93 466.825 238.182 466.787 238.434L465.695 238.07ZM474.128 238.07C474.212 237.669 474.352 237.286 474.548 236.922C474.744 236.558 474.996 236.241 475.304 235.97C475.612 235.69 475.98 235.471 476.41 235.312C476.839 235.153 477.329 235.074 477.88 235.074C478.393 235.074 478.85 235.149 479.252 235.298C479.653 235.438 479.994 235.639 480.274 235.9C480.554 236.161 480.764 236.474 480.904 236.838C481.053 237.202 481.128 237.599 481.128 238.028C481.128 238.635 480.997 239.195 480.736 239.708C480.484 240.212 480.162 240.674 479.77 241.094C479.378 241.514 478.948 241.897 478.482 242.242C478.015 242.578 477.572 242.877 477.152 243.138L476.074 243.81H481.492V245H473.862V244.02L475.99 242.606C476.69 242.139 477.287 241.71 477.782 241.318C478.276 240.917 478.678 240.539 478.986 240.184C479.303 239.829 479.532 239.489 479.672 239.162C479.821 238.826 479.896 238.49 479.896 238.154C479.896 237.809 479.84 237.515 479.728 237.272C479.625 237.029 479.476 236.833 479.28 236.684C479.093 236.535 478.869 236.427 478.608 236.362C478.356 236.297 478.085 236.264 477.796 236.264C477.376 236.264 477.012 236.329 476.704 236.46C476.405 236.591 476.148 236.763 475.934 236.978C475.728 237.183 475.565 237.417 475.444 237.678C475.332 237.93 475.257 238.182 475.22 238.434L474.128 238.07Z" fill="#777F8C"/>
<rect x="429" y="108" width="30" height="117" fill="#BFCED4"/>
<rect x="429" y="108" width="30" height="4" fill="#A6B2BC"/>
<path d="M437.982 99.153C436.95 99.153 436.066 98.9547 435.33 98.558C434.604 98.1613 434.06 97.657 433.698 97.045L434.922 96.195C435.273 96.6823 435.732 97.0563 436.299 97.317C436.877 97.5777 437.506 97.708 438.186 97.708C438.707 97.708 439.183 97.606 439.614 97.402C440.056 97.1867 440.435 96.892 440.753 96.518C441.081 96.144 441.336 95.702 441.518 95.192C441.699 94.682 441.79 94.1267 441.79 93.526C441.79 93.458 441.79 93.39 441.79 93.322C441.79 93.254 441.784 93.186 441.773 93.118C441.501 93.764 441.036 94.3023 440.379 94.733C439.733 95.1523 438.911 95.362 437.914 95.362C437.256 95.362 436.65 95.2657 436.095 95.073C435.539 94.869 435.058 94.5913 434.65 94.24C434.242 93.8773 433.924 93.4467 433.698 92.948C433.471 92.4493 433.358 91.894 433.358 91.282C433.358 90.6247 433.477 90.0297 433.715 89.497C433.964 88.953 434.31 88.494 434.752 88.12C435.194 87.746 435.721 87.457 436.333 87.253C436.956 87.049 437.642 86.947 438.39 86.947C439.149 86.947 439.829 87.0773 440.43 87.338C441.042 87.5873 441.557 87.9613 441.977 88.46C442.407 88.9587 442.736 89.5763 442.963 90.313C443.189 91.0383 443.303 91.877 443.303 92.829C443.303 93.8717 443.172 94.7897 442.912 95.583C442.662 96.365 442.3 97.0223 441.824 97.555C441.359 98.0763 440.798 98.473 440.141 98.745C439.495 99.017 438.775 99.153 437.982 99.153ZM438.186 93.917C438.673 93.917 439.115 93.849 439.512 93.713C439.908 93.577 440.243 93.39 440.515 93.152C440.798 92.9027 441.013 92.6137 441.161 92.285C441.308 91.9563 441.382 91.605 441.382 91.231C441.382 90.8683 441.325 90.517 441.212 90.177C441.098 89.837 440.917 89.5367 440.668 89.276C440.418 89.004 440.09 88.7887 439.682 88.63C439.285 88.4713 438.798 88.392 438.22 88.392C437.166 88.392 436.338 88.63 435.738 89.106C435.148 89.5707 434.854 90.2563 434.854 91.163C434.854 92.0243 435.154 92.6987 435.755 93.186C436.355 93.6733 437.166 93.917 438.186 93.917ZM449.95 99.153C449.156 99.153 448.437 99.0283 447.791 98.779C447.156 98.5297 446.612 98.1613 446.159 97.674C445.705 97.1753 445.354 96.569 445.105 95.855C444.867 95.141 444.748 94.3137 444.748 93.373C444.748 92.3077 444.889 91.3727 445.173 90.568C445.456 89.7633 445.836 89.0947 446.312 88.562C446.799 88.018 447.36 87.6157 447.995 87.355C448.641 87.083 449.321 86.947 450.035 86.947C451.066 86.947 451.944 87.1567 452.67 87.576C453.395 87.9953 453.922 88.562 454.251 89.276L453.095 90.058C452.766 89.548 452.341 89.1457 451.82 88.851C451.31 88.545 450.692 88.392 449.967 88.392C449.4 88.392 448.89 88.5053 448.437 88.732C447.983 88.9473 447.592 89.2647 447.264 89.684C446.935 90.092 446.68 90.5907 446.499 91.18C446.317 91.758 446.221 92.4097 446.21 93.135V93.322C446.368 92.948 446.584 92.6193 446.856 92.336C447.139 92.0527 447.456 91.8147 447.808 91.622C448.159 91.4293 448.533 91.2877 448.93 91.197C449.338 91.095 449.751 91.044 450.171 91.044C450.862 91.044 451.485 91.1403 452.041 91.333C452.596 91.5257 453.066 91.7977 453.452 92.149C453.848 92.5003 454.149 92.9197 454.353 93.407C454.557 93.8943 454.659 94.4327 454.659 95.022C454.659 95.634 454.534 96.195 454.285 96.705C454.047 97.215 453.712 97.6513 453.282 98.014C452.862 98.3767 452.364 98.66 451.786 98.864C451.219 99.0567 450.607 99.153 449.95 99.153ZM449.933 97.708C450.409 97.708 450.839 97.6457 451.225 97.521C451.621 97.3963 451.961 97.2207 452.245 96.994C452.539 96.756 452.766 96.4783 452.925 96.161C453.083 95.8437 453.163 95.4867 453.163 95.09C453.163 94.6593 453.083 94.2853 452.925 93.968C452.777 93.6393 452.568 93.3673 452.296 93.152C452.024 92.9253 451.695 92.761 451.31 92.659C450.936 92.5457 450.528 92.489 450.086 92.489C448.998 92.489 448.17 92.7213 447.604 93.186C447.048 93.6507 446.771 94.2457 446.771 94.971C446.771 95.345 446.844 95.6963 446.992 96.025C447.139 96.3537 447.349 96.6427 447.621 96.892C447.893 97.1413 448.221 97.3397 448.607 97.487C449.003 97.6343 449.445 97.708 449.933 97.708Z" fill="#222429"/>
<rect x="469" y="88" width="30" height="137" fill="#5FAF2D"/>
<rect x="469" y="88" width="30" height="4" fill="#3D7917"/>
<path d="M476.219 67.032H477.188V79H475.76V68.851L472.683 70.262L472.139 68.987L476.219 67.032ZM482.926 67.032H483.895V79H482.467V68.851L479.39 70.262L478.846 68.987L482.926 67.032ZM486.352 70.585C486.454 70.0977 486.624 69.633 486.862 69.191C487.1 68.749 487.406 68.3637 487.78 68.035C488.154 67.695 488.602 67.4287 489.123 67.236C489.645 67.0433 490.24 66.947 490.908 66.947C491.532 66.947 492.087 67.0377 492.574 67.219C493.062 67.389 493.475 67.6327 493.815 67.95C494.155 68.2673 494.41 68.647 494.58 69.089C494.762 69.531 494.852 70.0127 494.852 70.534C494.852 71.2707 494.694 71.9507 494.376 72.574C494.07 73.186 493.679 73.747 493.203 74.257C492.727 74.767 492.206 75.2317 491.639 75.651C491.073 76.059 490.534 76.4217 490.024 76.739L488.715 77.555H495.294V79H486.029V77.81L488.613 76.093C489.463 75.5263 490.189 75.005 490.789 74.529C491.39 74.0417 491.877 73.5827 492.251 73.152C492.637 72.7213 492.914 72.3077 493.084 71.911C493.266 71.503 493.356 71.095 493.356 70.687C493.356 70.2677 493.288 69.9107 493.152 69.616C493.028 69.3213 492.846 69.0833 492.608 68.902C492.382 68.7207 492.11 68.5903 491.792 68.511C491.486 68.4317 491.158 68.392 490.806 68.392C490.296 68.392 489.854 68.4713 489.48 68.63C489.118 68.7887 488.806 68.9983 488.545 69.259C488.296 69.5083 488.098 69.7917 487.95 70.109C487.814 70.415 487.724 70.721 487.678 71.027L486.352 70.585Z" fill="#222429"/>
</svg>
