<svg viewBox="0 0 535 214" fill="none" xmlns="http://www.w3.org/2000/svg">
<line x1="-3.16332e-08" y1="192.5" x2="535" y2="192.5" stroke="#CBCFD6"/>
<path d="M431.294 206.07C431.378 205.669 431.518 205.286 431.714 204.922C431.91 204.558 432.162 204.241 432.47 203.97C432.778 203.69 433.146 203.471 433.576 203.312C434.005 203.153 434.495 203.074 435.046 203.074C435.559 203.074 436.016 203.149 436.418 203.298C436.819 203.438 437.16 203.639 437.44 203.9C437.72 204.161 437.93 204.474 438.07 204.838C438.219 205.202 438.294 205.599 438.294 206.028C438.294 206.635 438.163 207.195 437.902 207.708C437.65 208.212 437.328 208.674 436.936 209.094C436.544 209.514 436.114 209.897 435.648 210.242C435.181 210.578 434.738 210.877 434.318 211.138L433.24 211.81H438.658V213H431.028V212.02L433.156 210.606C433.856 210.139 434.453 209.71 434.948 209.318C435.442 208.917 435.844 208.539 436.152 208.184C436.469 207.829 436.698 207.489 436.838 207.162C436.987 206.826 437.062 206.49 437.062 206.154C437.062 205.809 437.006 205.515 436.894 205.272C436.791 205.029 436.642 204.833 436.446 204.684C436.259 204.535 436.035 204.427 435.774 204.362C435.522 204.297 435.251 204.264 434.962 204.264C434.542 204.264 434.178 204.329 433.87 204.46C433.571 204.591 433.314 204.763 433.1 204.978C432.894 205.183 432.731 205.417 432.61 205.678C432.498 205.93 432.423 206.182 432.386 206.434L431.294 206.07ZM439.628 208.1C439.628 207.372 439.712 206.705 439.88 206.098C440.048 205.482 440.3 204.95 440.636 204.502C440.981 204.054 441.415 203.704 441.938 203.452C442.461 203.2 443.077 203.074 443.786 203.074C444.495 203.074 445.111 203.191 445.634 203.424C446.157 203.657 446.591 203.993 446.936 204.432C447.281 204.871 447.538 205.403 447.706 206.028C447.874 206.644 447.958 207.335 447.958 208.1C447.958 208.828 447.874 209.5 447.706 210.116C447.547 210.723 447.295 211.25 446.95 211.698C446.614 212.146 446.185 212.496 445.662 212.748C445.139 213 444.523 213.126 443.814 213.126C443.142 213.126 442.545 213 442.022 212.748C441.499 212.496 441.061 212.146 440.706 211.698C440.351 211.25 440.081 210.723 439.894 210.116C439.717 209.5 439.628 208.828 439.628 208.1ZM440.86 208.1C440.86 209.295 441.121 210.233 441.644 210.914C442.167 211.595 442.89 211.936 443.814 211.936C444.822 211.936 445.559 211.595 446.026 210.914C446.493 210.233 446.726 209.295 446.726 208.1C446.726 206.905 446.488 205.967 446.012 205.286C445.536 204.605 444.794 204.264 443.786 204.264C443.282 204.264 442.848 204.353 442.484 204.53C442.12 204.707 441.817 204.964 441.574 205.3C441.331 205.636 441.149 206.042 441.028 206.518C440.916 206.985 440.86 207.512 440.86 208.1ZM449.102 206.07C449.186 205.669 449.326 205.286 449.522 204.922C449.718 204.558 449.97 204.241 450.278 203.97C450.586 203.69 450.954 203.471 451.384 203.312C451.813 203.153 452.303 203.074 452.854 203.074C453.367 203.074 453.824 203.149 454.226 203.298C454.627 203.438 454.968 203.639 455.248 203.9C455.528 204.161 455.738 204.474 455.878 204.838C456.027 205.202 456.102 205.599 456.102 206.028C456.102 206.635 455.971 207.195 455.71 207.708C455.458 208.212 455.136 208.674 454.744 209.094C454.352 209.514 453.922 209.897 453.456 210.242C452.989 210.578 452.546 210.877 452.126 211.138L451.048 211.81H456.466V213H448.836V212.02L450.964 210.606C451.664 210.139 452.261 209.71 452.756 209.318C453.25 208.917 453.652 208.539 453.96 208.184C454.277 207.829 454.506 207.489 454.646 207.162C454.795 206.826 454.87 206.49 454.87 206.154C454.87 205.809 454.814 205.515 454.702 205.272C454.599 205.029 454.45 204.833 454.254 204.684C454.067 204.535 453.843 204.427 453.582 204.362C453.33 204.297 453.059 204.264 452.77 204.264C452.35 204.264 451.986 204.329 451.678 204.46C451.379 204.591 451.122 204.763 450.908 204.978C450.702 205.183 450.539 205.417 450.418 205.678C450.306 205.93 450.231 206.182 450.194 206.434L449.102 206.07ZM457.534 206.07C457.618 205.669 457.758 205.286 457.954 204.922C458.15 204.558 458.402 204.241 458.71 203.97C459.018 203.69 459.387 203.471 459.816 203.312C460.245 203.153 460.735 203.074 461.286 203.074C461.799 203.074 462.257 203.149 462.658 203.298C463.059 203.438 463.4 203.639 463.68 203.9C463.96 204.161 464.17 204.474 464.31 204.838C464.459 205.202 464.534 205.599 464.534 206.028C464.534 206.635 464.403 207.195 464.142 207.708C463.89 208.212 463.568 208.674 463.176 209.094C462.784 209.514 462.355 209.897 461.888 210.242C461.421 210.578 460.978 210.877 460.558 211.138L459.48 211.81H464.898V213H457.268V212.02L459.396 210.606C460.096 210.139 460.693 209.71 461.188 209.318C461.683 208.917 462.084 208.539 462.392 208.184C462.709 207.829 462.938 207.489 463.078 207.162C463.227 206.826 463.302 206.49 463.302 206.154C463.302 205.809 463.246 205.515 463.134 205.272C463.031 205.029 462.882 204.833 462.686 204.684C462.499 204.535 462.275 204.427 462.014 204.362C461.762 204.297 461.491 204.264 461.202 204.264C460.782 204.264 460.418 204.329 460.11 204.46C459.811 204.591 459.555 204.763 459.34 204.978C459.135 205.183 458.971 205.417 458.85 205.678C458.738 205.93 458.663 206.182 458.626 206.434L457.534 206.07Z" fill="#5FAF2D"/>
<rect x="423" y="22" width="50" height="171" fill="#5FAF2D"/>
<rect x="423" y="22" width="50" height="4" fill="#3D7917"/>
<path d="M425.118 4.585C425.22 4.09767 425.39 3.633 425.628 3.191C425.866 2.749 426.172 2.36367 426.546 2.035C426.92 1.695 427.368 1.42867 427.889 1.236C428.41 1.04333 429.005 0.946999 429.674 0.946999C430.297 0.946999 430.853 1.03767 431.34 1.219C431.827 1.389 432.241 1.63267 432.581 1.95C432.921 2.26733 433.176 2.647 433.346 3.089C433.527 3.531 433.618 4.01267 433.618 4.534C433.618 5.27067 433.459 5.95067 433.142 6.574C432.836 7.186 432.445 7.747 431.969 8.257C431.493 8.767 430.972 9.23167 430.405 9.651C429.838 10.059 429.3 10.4217 428.79 10.739L427.481 11.555H434.06V13H424.795V11.81L427.379 10.093C428.229 9.52633 428.954 9.005 429.555 8.529C430.156 8.04167 430.643 7.58267 431.017 7.152C431.402 6.72133 431.68 6.30767 431.85 5.911C432.031 5.503 432.122 5.095 432.122 4.687C432.122 4.26767 432.054 3.91067 431.918 3.616C431.793 3.32133 431.612 3.08333 431.374 2.902C431.147 2.72067 430.875 2.59033 430.558 2.511C430.252 2.43167 429.923 2.392 429.572 2.392C429.062 2.392 428.62 2.47133 428.246 2.63C427.883 2.78867 427.572 2.99833 427.311 3.259C427.062 3.50833 426.863 3.79167 426.716 4.109C426.58 4.415 426.489 4.721 426.444 5.027L425.118 4.585ZM435.187 14.649C435.335 14.615 435.488 14.5527 435.646 14.462C435.816 14.3713 435.969 14.258 436.105 14.122C436.241 13.986 436.349 13.8387 436.428 13.68C436.519 13.5213 436.564 13.357 436.564 13.187C436.564 13.1077 436.559 13.0453 436.547 13C436.491 13.0113 436.423 13.017 436.343 13.017C436.094 13.017 435.879 12.9377 435.697 12.779C435.527 12.6203 435.442 12.3937 435.442 12.099C435.442 11.8043 435.533 11.572 435.714 11.402C435.896 11.2207 436.151 11.13 436.479 11.13C436.842 11.13 437.137 11.2547 437.363 11.504C437.601 11.742 437.72 12.1047 437.72 12.592C437.72 13.0567 437.658 13.4533 437.533 13.782C437.409 14.1107 437.244 14.3883 437.04 14.615C436.836 14.8417 436.604 15.0173 436.343 15.142C436.083 15.278 435.816 15.38 435.544 15.448L435.187 14.649ZM440.334 1.1H447.814V2.545H441.643L441.201 5.741C441.462 5.54833 441.813 5.38967 442.255 5.265C442.708 5.129 443.258 5.061 443.904 5.061C444.618 5.061 445.253 5.163 445.808 5.367C446.363 5.571 446.828 5.85433 447.202 6.217C447.576 6.57967 447.859 7.00467 448.052 7.492C448.256 7.97933 448.358 8.50067 448.358 9.056C448.358 9.65667 448.239 10.2063 448.001 10.705C447.774 11.2037 447.451 11.6343 447.032 11.997C446.624 12.3597 446.137 12.643 445.57 12.847C445.015 13.051 444.408 13.153 443.751 13.153C443.207 13.153 442.686 13.0907 442.187 12.966C441.688 12.8413 441.224 12.6543 440.793 12.405C440.374 12.1557 440 11.8553 439.671 11.504C439.354 11.1413 439.099 10.722 438.906 10.246L440.266 9.668C440.379 9.92867 440.538 10.1837 440.742 10.433C440.946 10.671 441.195 10.8863 441.49 11.079C441.785 11.2717 442.119 11.4247 442.493 11.538C442.867 11.6513 443.286 11.708 443.751 11.708C444.272 11.708 444.726 11.64 445.111 11.504C445.508 11.3567 445.836 11.164 446.097 10.926C446.358 10.688 446.55 10.416 446.675 10.11C446.8 9.79267 446.862 9.45833 446.862 9.107C446.862 8.30233 446.562 7.66767 445.961 7.203C445.372 6.73833 444.55 6.506 443.496 6.506C442.895 6.506 442.391 6.591 441.983 6.761C441.586 6.91967 441.212 7.17467 440.861 7.526L439.637 7.203L440.334 1.1ZM454.391 13.153C453.36 13.153 452.476 12.9547 451.739 12.558C451.014 12.1613 450.47 11.657 450.107 11.045L451.331 10.195C451.683 10.6823 452.142 11.0563 452.708 11.317C453.286 11.5777 453.915 11.708 454.595 11.708C455.117 11.708 455.593 11.606 456.023 11.402C456.465 11.1867 456.845 10.892 457.162 10.518C457.491 10.144 457.746 9.702 457.927 9.192C458.109 8.682 458.199 8.12667 458.199 7.526C458.199 7.458 458.199 7.39 458.199 7.322C458.199 7.254 458.194 7.186 458.182 7.118C457.91 7.764 457.446 8.30233 456.788 8.733C456.142 9.15233 455.321 9.362 454.323 9.362C453.666 9.362 453.06 9.26567 452.504 9.073C451.949 8.869 451.467 8.59133 451.059 8.24C450.651 7.87733 450.334 7.44667 450.107 6.948C449.881 6.44933 449.767 5.894 449.767 5.282C449.767 4.62467 449.886 4.02967 450.124 3.497C450.374 2.953 450.719 2.494 451.161 2.12C451.603 1.746 452.13 1.457 452.742 1.253C453.366 1.049 454.051 0.946999 454.799 0.946999C455.559 0.946999 456.239 1.07733 456.839 1.338C457.451 1.58733 457.967 1.96133 458.386 2.46C458.817 2.95867 459.146 3.57633 459.372 4.313C459.599 5.03833 459.712 5.877 459.712 6.829C459.712 7.87167 459.582 8.78967 459.321 9.583C459.072 10.365 458.709 11.0223 458.233 11.555C457.769 12.0763 457.208 12.473 456.55 12.745C455.904 13.017 455.185 13.153 454.391 13.153ZM454.595 7.917C455.083 7.917 455.525 7.849 455.921 7.713C456.318 7.577 456.652 7.39 456.924 7.152C457.208 6.90267 457.423 6.61367 457.57 6.285C457.718 5.95633 457.791 5.605 457.791 5.231C457.791 4.86833 457.735 4.517 457.621 4.177C457.508 3.837 457.327 3.53667 457.077 3.276C456.828 3.004 456.499 2.78867 456.091 2.63C455.695 2.47133 455.207 2.392 454.629 2.392C453.575 2.392 452.748 2.63 452.147 3.106C451.558 3.57067 451.263 4.25633 451.263 5.163C451.263 6.02433 451.564 6.69867 452.164 7.186C452.765 7.67333 453.575 7.917 454.595 7.917ZM466.359 13.153C465.566 13.153 464.846 13.0283 464.2 12.779C463.566 12.5297 463.022 12.1613 462.568 11.674C462.115 11.1753 461.764 10.569 461.514 9.855C461.276 9.141 461.157 8.31367 461.157 7.373C461.157 6.30767 461.299 5.37267 461.582 4.568C461.866 3.76333 462.245 3.09467 462.721 2.562C463.209 2.018 463.77 1.61567 464.404 1.355C465.05 1.083 465.73 0.946999 466.444 0.946999C467.476 0.946999 468.354 1.15667 469.079 1.576C469.805 1.99533 470.332 2.562 470.66 3.276L469.504 4.058C469.176 3.548 468.751 3.14567 468.229 2.851C467.719 2.545 467.102 2.392 466.376 2.392C465.81 2.392 465.3 2.50533 464.846 2.732C464.393 2.94733 464.002 3.26467 463.673 3.684C463.345 4.092 463.09 4.59067 462.908 5.18C462.727 5.758 462.631 6.40967 462.619 7.135V7.322C462.778 6.948 462.993 6.61933 463.265 6.336C463.549 6.05267 463.866 5.81467 464.217 5.622C464.569 5.42933 464.943 5.28767 465.339 5.197C465.747 5.095 466.161 5.044 466.58 5.044C467.272 5.044 467.895 5.14033 468.45 5.333C469.006 5.52567 469.476 5.79767 469.861 6.149C470.258 6.50033 470.558 6.91967 470.762 7.407C470.966 7.89433 471.068 8.43267 471.068 9.022C471.068 9.634 470.944 10.195 470.694 10.705C470.456 11.215 470.122 11.6513 469.691 12.014C469.272 12.3767 468.773 12.66 468.195 12.864C467.629 13.0567 467.017 13.153 466.359 13.153ZM466.342 11.708C466.818 11.708 467.249 11.6457 467.634 11.521C468.031 11.3963 468.371 11.2207 468.654 10.994C468.949 10.756 469.176 10.4783 469.334 10.161C469.493 9.84367 469.572 9.48667 469.572 9.09C469.572 8.65933 469.493 8.28533 469.334 7.968C469.187 7.63933 468.977 7.36733 468.705 7.152C468.433 6.92533 468.105 6.761 467.719 6.659C467.345 6.54567 466.937 6.489 466.495 6.489C465.407 6.489 464.58 6.72133 464.013 7.186C463.458 7.65067 463.18 8.24567 463.18 8.971C463.18 9.345 463.254 9.69633 463.401 10.025C463.549 10.3537 463.758 10.6427 464.03 10.892C464.302 11.1413 464.631 11.3397 465.016 11.487C465.413 11.6343 465.855 11.708 466.342 11.708Z" fill="#222429"/>
<path d="M162.435 206.07C162.519 205.669 162.659 205.286 162.855 204.922C163.051 204.558 163.303 204.241 163.611 203.97C163.919 203.69 164.288 203.471 164.717 203.312C165.147 203.153 165.637 203.074 166.187 203.074C166.701 203.074 167.158 203.149 167.559 203.298C167.961 203.438 168.301 203.639 168.581 203.9C168.861 204.161 169.071 204.474 169.211 204.838C169.361 205.202 169.435 205.599 169.435 206.028C169.435 206.635 169.305 207.195 169.043 207.708C168.791 208.212 168.469 208.674 168.077 209.094C167.685 209.514 167.256 209.897 166.789 210.242C166.323 210.578 165.879 210.877 165.459 211.138L164.381 211.81H169.799V213H162.169V212.02L164.297 210.606C164.997 210.139 165.595 209.71 166.089 209.318C166.584 208.917 166.985 208.539 167.293 208.184C167.611 207.829 167.839 207.489 167.979 207.162C168.129 206.826 168.203 206.49 168.203 206.154C168.203 205.809 168.147 205.515 168.035 205.272C167.933 205.029 167.783 204.833 167.587 204.684C167.401 204.535 167.177 204.427 166.915 204.362C166.663 204.297 166.393 204.264 166.103 204.264C165.683 204.264 165.319 204.329 165.011 204.46C164.713 204.591 164.456 204.763 164.241 204.978C164.036 205.183 163.873 205.417 163.751 205.678C163.639 205.93 163.565 206.182 163.527 206.434L162.435 206.07ZM170.77 208.1C170.77 207.372 170.854 206.705 171.022 206.098C171.19 205.482 171.442 204.95 171.778 204.502C172.123 204.054 172.557 203.704 173.08 203.452C173.602 203.2 174.218 203.074 174.928 203.074C175.637 203.074 176.253 203.191 176.776 203.424C177.298 203.657 177.732 203.993 178.078 204.432C178.423 204.871 178.68 205.403 178.848 206.028C179.016 206.644 179.1 207.335 179.1 208.1C179.1 208.828 179.016 209.5 178.848 210.116C178.689 210.723 178.437 211.25 178.092 211.698C177.756 212.146 177.326 212.496 176.804 212.748C176.281 213 175.665 213.126 174.956 213.126C174.284 213.126 173.686 213 173.164 212.748C172.641 212.496 172.202 212.146 171.848 211.698C171.493 211.25 171.222 210.723 171.036 210.116C170.858 209.5 170.77 208.828 170.77 208.1ZM172.002 208.1C172.002 209.295 172.263 210.233 172.786 210.914C173.308 211.595 174.032 211.936 174.956 211.936C175.964 211.936 176.701 211.595 177.168 210.914C177.634 210.233 177.868 209.295 177.868 208.1C177.868 206.905 177.63 205.967 177.154 205.286C176.678 204.605 175.936 204.264 174.928 204.264C174.424 204.264 173.99 204.353 173.626 204.53C173.262 204.707 172.958 204.964 172.716 205.3C172.473 205.636 172.291 206.042 172.17 206.518C172.058 206.985 172.002 207.512 172.002 208.1ZM182.945 203.144H183.743V213H182.567V204.642L180.033 205.804L179.585 204.754L182.945 203.144ZM189.295 213.126C188.445 213.126 187.717 212.963 187.111 212.636C186.513 212.309 186.065 211.894 185.767 211.39L186.775 210.69C187.064 211.091 187.442 211.399 187.909 211.614C188.385 211.829 188.903 211.936 189.463 211.936C189.892 211.936 190.284 211.852 190.639 211.684C191.003 211.507 191.315 211.264 191.577 210.956C191.847 210.648 192.057 210.284 192.207 209.864C192.356 209.444 192.431 208.987 192.431 208.492C192.431 208.436 192.431 208.38 192.431 208.324C192.431 208.268 192.426 208.212 192.417 208.156C192.193 208.688 191.81 209.131 191.269 209.486C190.737 209.831 190.06 210.004 189.239 210.004C188.697 210.004 188.198 209.925 187.741 209.766C187.283 209.598 186.887 209.369 186.551 209.08C186.215 208.781 185.953 208.427 185.767 208.016C185.58 207.605 185.487 207.148 185.487 206.644C185.487 206.103 185.585 205.613 185.781 205.174C185.986 204.726 186.271 204.348 186.635 204.04C186.999 203.732 187.433 203.494 187.937 203.326C188.45 203.158 189.015 203.074 189.631 203.074C190.256 203.074 190.816 203.181 191.311 203.396C191.815 203.601 192.239 203.909 192.585 204.32C192.939 204.731 193.21 205.239 193.397 205.846C193.583 206.443 193.677 207.134 193.677 207.918C193.677 208.777 193.569 209.533 193.355 210.186C193.149 210.83 192.851 211.371 192.459 211.81C192.076 212.239 191.614 212.566 191.073 212.79C190.541 213.014 189.948 213.126 189.295 213.126ZM189.463 208.814C189.864 208.814 190.228 208.758 190.555 208.646C190.881 208.534 191.157 208.38 191.381 208.184C191.614 207.979 191.791 207.741 191.913 207.47C192.034 207.199 192.095 206.91 192.095 206.602C192.095 206.303 192.048 206.014 191.955 205.734C191.861 205.454 191.712 205.207 191.507 204.992C191.301 204.768 191.031 204.591 190.695 204.46C190.368 204.329 189.967 204.264 189.491 204.264C188.623 204.264 187.941 204.46 187.447 204.852C186.961 205.235 186.719 205.799 186.719 206.546C186.719 207.255 186.966 207.811 187.461 208.212C187.955 208.613 188.623 208.814 189.463 208.814Z" fill="#777F8C"/>
<rect x="153" y="79" width="50" height="114" fill="#BFCED4"/>
<rect x="153" y="79" width="50" height="4" fill="#A6B2BC"/>
<path d="M161.188 58.032H162.157V70H160.729V59.851L157.652 61.262L157.108 59.987L161.188 58.032ZM164.274 71.649C164.421 71.615 164.574 71.5527 164.733 71.462C164.903 71.3713 165.056 71.258 165.192 71.122C165.328 70.986 165.436 70.8387 165.515 70.68C165.606 70.5213 165.651 70.357 165.651 70.187C165.651 70.1077 165.645 70.0453 165.634 70C165.577 70.0113 165.509 70.017 165.43 70.017C165.181 70.017 164.965 69.9377 164.784 69.779C164.614 69.6203 164.529 69.3937 164.529 69.099C164.529 68.8043 164.62 68.572 164.801 68.402C164.982 68.2207 165.237 68.13 165.566 68.13C165.929 68.13 166.223 68.2547 166.45 68.504C166.688 68.742 166.807 69.1047 166.807 69.592C166.807 70.0567 166.745 70.4533 166.62 70.782C166.495 71.1107 166.331 71.3883 166.127 71.615C165.923 71.8417 165.691 72.0173 165.43 72.142C165.169 72.278 164.903 72.38 164.631 72.448L164.274 71.649ZM167.823 58.1H176.85V59.069L170.934 70H169.319L175.031 59.545H167.823V58.1ZM178.045 61.585C178.147 61.0977 178.317 60.633 178.555 60.191C178.793 59.749 179.099 59.3637 179.473 59.035C179.847 58.695 180.294 58.4287 180.816 58.236C181.337 58.0433 181.932 57.947 182.601 57.947C183.224 57.947 183.779 58.0377 184.267 58.219C184.754 58.389 185.168 58.6327 185.508 58.95C185.848 59.2673 186.103 59.647 186.273 60.089C186.454 60.531 186.545 61.0127 186.545 61.534C186.545 62.2707 186.386 62.9507 186.069 63.574C185.763 64.186 185.372 64.747 184.896 65.257C184.42 65.767 183.898 66.2317 183.332 66.651C182.765 67.059 182.227 67.4217 181.717 67.739L180.408 68.555H186.987V70H177.722V68.81L180.306 67.093C181.156 66.5263 181.881 66.005 182.482 65.529C183.082 65.0417 183.57 64.5827 183.944 64.152C184.329 63.7213 184.607 63.3077 184.777 62.911C184.958 62.503 185.049 62.095 185.049 61.687C185.049 61.2677 184.981 60.9107 184.845 60.616C184.72 60.3213 184.539 60.0833 184.301 59.902C184.074 59.7207 183.802 59.5903 183.485 59.511C183.179 59.4317 182.85 59.392 182.499 59.392C181.989 59.392 181.547 59.4713 181.173 59.63C180.81 59.7887 180.498 59.9983 180.238 60.259C179.988 60.5083 179.79 60.7917 179.643 61.109C179.507 61.415 179.416 61.721 179.371 62.027L178.045 61.585ZM193.554 63.217C193.939 63.217 194.296 63.1717 194.625 63.081C194.965 62.979 195.26 62.843 195.509 62.673C195.758 62.503 195.951 62.299 196.087 62.061C196.234 61.823 196.308 61.5623 196.308 61.279C196.308 60.667 196.053 60.2023 195.543 59.885C195.044 59.5563 194.279 59.392 193.248 59.392C192.251 59.392 191.497 59.5563 190.987 59.885C190.488 60.2137 190.239 60.6783 190.239 61.279C190.239 61.551 190.307 61.806 190.443 62.044C190.579 62.282 190.766 62.4917 191.004 62.673C191.253 62.843 191.548 62.979 191.888 63.081C192.239 63.1717 192.619 63.217 193.027 63.217H193.554ZM193.095 64.56C192.619 64.56 192.177 64.6167 191.769 64.73C191.372 64.832 191.032 64.9793 190.749 65.172C190.466 65.3533 190.245 65.5743 190.086 65.835C189.927 66.0843 189.848 66.3507 189.848 66.634C189.848 67.246 190.131 67.7447 190.698 68.13C191.276 68.5153 192.132 68.708 193.265 68.708C194.432 68.708 195.294 68.5267 195.849 68.164C196.404 67.79 196.682 67.2857 196.682 66.651C196.682 65.9823 196.393 65.4667 195.815 65.104C195.248 64.7413 194.483 64.56 193.52 64.56H193.095ZM193.282 70.153C192.523 70.153 191.837 70.0793 191.225 69.932C190.624 69.7733 190.109 69.5523 189.678 69.269C189.259 68.9743 188.93 68.623 188.692 68.215C188.465 67.7957 188.352 67.3197 188.352 66.787C188.352 66.0843 188.562 65.478 188.981 64.968C189.412 64.4467 189.984 64.0727 190.698 63.846C190.358 63.7327 190.063 63.5853 189.814 63.404C189.565 63.2113 189.361 62.996 189.202 62.758C189.043 62.52 188.924 62.2707 188.845 62.01C188.777 61.738 188.743 61.4603 188.743 61.177C188.743 60.191 189.128 59.409 189.899 58.831C190.681 58.2417 191.803 57.947 193.265 57.947C194.738 57.947 195.86 58.2417 196.631 58.831C197.413 59.409 197.804 60.191 197.804 61.177C197.804 61.789 197.634 62.3047 197.294 62.724C196.965 63.1433 196.506 63.489 195.917 63.761C196.733 64.0103 197.311 64.3843 197.651 64.883C198.002 65.3817 198.178 65.9937 198.178 66.719C198.178 67.263 198.065 67.7503 197.838 68.181C197.611 68.6003 197.283 68.9573 196.852 69.252C196.433 69.5467 195.917 69.7733 195.305 69.932C194.704 70.0793 194.03 70.153 193.282 70.153Z" fill="#222429"/>
<path d="M72.4354 206.07C72.5194 205.669 72.6594 205.286 72.8554 204.922C73.0514 204.558 73.3034 204.241 73.6114 203.97C73.9194 203.69 74.2881 203.471 74.7174 203.312C75.1467 203.153 75.6367 203.074 76.1874 203.074C76.7007 203.074 77.1581 203.149 77.5594 203.298C77.9607 203.438 78.3014 203.639 78.5814 203.9C78.8614 204.161 79.0714 204.474 79.2114 204.838C79.3607 205.202 79.4354 205.599 79.4354 206.028C79.4354 206.635 79.3047 207.195 79.0434 207.708C78.7914 208.212 78.4694 208.674 78.0774 209.094C77.6854 209.514 77.2561 209.897 76.7894 210.242C76.3227 210.578 75.8794 210.877 75.4594 211.138L74.3814 211.81H79.7994V213H72.1694V212.02L74.2974 210.606C74.9974 210.139 75.5947 209.71 76.0894 209.318C76.5841 208.917 76.9854 208.539 77.2934 208.184C77.6107 207.829 77.8394 207.489 77.9794 207.162C78.1287 206.826 78.2034 206.49 78.2034 206.154C78.2034 205.809 78.1474 205.515 78.0354 205.272C77.9327 205.029 77.7834 204.833 77.5874 204.684C77.4007 204.535 77.1767 204.427 76.9154 204.362C76.6634 204.297 76.3927 204.264 76.1034 204.264C75.6834 204.264 75.3194 204.329 75.0114 204.46C74.7127 204.591 74.4561 204.763 74.2414 204.978C74.0361 205.183 73.8727 205.417 73.7514 205.678C73.6394 205.93 73.5647 206.182 73.5274 206.434L72.4354 206.07ZM80.7697 208.1C80.7697 207.372 80.8537 206.705 81.0217 206.098C81.1897 205.482 81.4417 204.95 81.7777 204.502C82.123 204.054 82.557 203.704 83.0797 203.452C83.6023 203.2 84.2183 203.074 84.9277 203.074C85.637 203.074 86.253 203.191 86.7757 203.424C87.2983 203.657 87.7323 203.993 88.0777 204.432C88.423 204.871 88.6797 205.403 88.8477 206.028C89.0157 206.644 89.0997 207.335 89.0997 208.1C89.0997 208.828 89.0157 209.5 88.8477 210.116C88.689 210.723 88.437 211.25 88.0917 211.698C87.7557 212.146 87.3263 212.496 86.8037 212.748C86.281 213 85.665 213.126 84.9557 213.126C84.2837 213.126 83.6863 213 83.1637 212.748C82.641 212.496 82.2023 212.146 81.8477 211.698C81.493 211.25 81.2223 210.723 81.0357 210.116C80.8583 209.5 80.7697 208.828 80.7697 208.1ZM82.0017 208.1C82.0017 209.295 82.263 210.233 82.7857 210.914C83.3083 211.595 84.0317 211.936 84.9557 211.936C85.9637 211.936 86.701 211.595 87.1677 210.914C87.6343 210.233 87.8677 209.295 87.8677 208.1C87.8677 206.905 87.6297 205.967 87.1537 205.286C86.6777 204.605 85.9357 204.264 84.9277 204.264C84.4237 204.264 83.9897 204.353 83.6257 204.53C83.2617 204.707 82.9583 204.964 82.7157 205.3C82.473 205.636 82.291 206.042 82.1697 206.518C82.0577 206.985 82.0017 207.512 82.0017 208.1ZM92.9453 203.144H93.7433V213H92.5673V204.642L90.0333 205.804L89.5853 204.754L92.9453 203.144ZM99.8267 207.414C100.144 207.414 100.438 207.377 100.709 207.302C100.989 207.218 101.231 207.106 101.437 206.966C101.642 206.826 101.801 206.658 101.913 206.462C102.034 206.266 102.095 206.051 102.095 205.818C102.095 205.314 101.885 204.931 101.465 204.67C101.054 204.399 100.424 204.264 99.5747 204.264C98.7534 204.264 98.1327 204.399 97.7127 204.67C97.3021 204.941 97.0967 205.323 97.0967 205.818C97.0967 206.042 97.1527 206.252 97.2647 206.448C97.3767 206.644 97.5307 206.817 97.7267 206.966C97.9321 207.106 98.1747 207.218 98.4547 207.302C98.7441 207.377 99.0567 207.414 99.3927 207.414H99.8267ZM99.4487 208.52C99.0567 208.52 98.6927 208.567 98.3567 208.66C98.0301 208.744 97.7501 208.865 97.5167 209.024C97.2834 209.173 97.1014 209.355 96.9707 209.57C96.8401 209.775 96.7747 209.995 96.7747 210.228C96.7747 210.732 97.0081 211.143 97.4747 211.46C97.9507 211.777 98.6554 211.936 99.5887 211.936C100.55 211.936 101.259 211.787 101.717 211.488C102.174 211.18 102.403 210.765 102.403 210.242C102.403 209.691 102.165 209.267 101.689 208.968C101.222 208.669 100.592 208.52 99.7987 208.52H99.4487ZM99.6027 213.126C98.9774 213.126 98.4127 213.065 97.9087 212.944C97.4141 212.813 96.9894 212.631 96.6347 212.398C96.2894 212.155 96.0187 211.866 95.8227 211.53C95.6361 211.185 95.5427 210.793 95.5427 210.354C95.5427 209.775 95.7154 209.276 96.0607 208.856C96.4154 208.427 96.8867 208.119 97.4747 207.932C97.1947 207.839 96.9521 207.717 96.7467 207.568C96.5414 207.409 96.3734 207.232 96.2427 207.036C96.1121 206.84 96.0141 206.635 95.9487 206.42C95.8927 206.196 95.8647 205.967 95.8647 205.734C95.8647 204.922 96.1821 204.278 96.8167 203.802C97.4607 203.317 98.3847 203.074 99.5887 203.074C100.802 203.074 101.726 203.317 102.361 203.802C103.005 204.278 103.327 204.922 103.327 205.734C103.327 206.238 103.187 206.663 102.907 207.008C102.636 207.353 102.258 207.638 101.773 207.862C102.445 208.067 102.921 208.375 103.201 208.786C103.49 209.197 103.635 209.701 103.635 210.298C103.635 210.746 103.541 211.147 103.355 211.502C103.168 211.847 102.897 212.141 102.543 212.384C102.197 212.627 101.773 212.813 101.269 212.944C100.774 213.065 100.219 213.126 99.6027 213.126Z" fill="#777F8C"/>
<rect x="63" y="92" width="50" height="101" fill="#BFCED4"/>
<rect x="63" y="92" width="50" height="4" fill="#A6B2BC"/>
<path d="M71.0221 71.032H71.9911V83H70.5631V72.851L67.4861 74.262L66.9421 72.987L71.0221 71.032ZM74.1081 84.649C74.2555 84.615 74.4085 84.5527 74.5671 84.462C74.7371 84.3713 74.8901 84.258 75.0261 84.122C75.1621 83.986 75.2698 83.8387 75.3491 83.68C75.4398 83.5213 75.4851 83.357 75.4851 83.187C75.4851 83.1077 75.4795 83.0453 75.4681 83C75.4115 83.0113 75.3435 83.017 75.2641 83.017C75.0148 83.017 74.7995 82.9377 74.6181 82.779C74.4481 82.6203 74.3631 82.3937 74.3631 82.099C74.3631 81.8043 74.4538 81.572 74.6351 81.402C74.8165 81.2207 75.0715 81.13 75.4001 81.13C75.7628 81.13 76.0575 81.2547 76.2841 81.504C76.5221 81.742 76.6411 82.1047 76.6411 82.592C76.6411 83.0567 76.5788 83.4533 76.4541 83.782C76.3295 84.1107 76.1651 84.3883 75.9611 84.615C75.7571 84.8417 75.5248 85.0173 75.2641 85.142C75.0035 85.278 74.7371 85.38 74.4651 85.448L74.1081 84.649ZM79.2549 71.1H86.7349V72.545H80.5639L80.1219 75.741C80.3826 75.5483 80.7339 75.3897 81.1759 75.265C81.6292 75.129 82.1789 75.061 82.8249 75.061C83.5389 75.061 84.1736 75.163 84.7289 75.367C85.2842 75.571 85.7489 75.8543 86.1229 76.217C86.4969 76.5797 86.7802 77.0047 86.9729 77.492C87.1769 77.9793 87.2789 78.5007 87.2789 79.056C87.2789 79.6567 87.1599 80.2063 86.9219 80.705C86.6952 81.2037 86.3722 81.6343 85.9529 81.997C85.5449 82.3597 85.0576 82.643 84.4909 82.847C83.9356 83.051 83.3292 83.153 82.6719 83.153C82.1279 83.153 81.6066 83.0907 81.1079 82.966C80.6092 82.8413 80.1446 82.6543 79.7139 82.405C79.2946 82.1557 78.9206 81.8553 78.5919 81.504C78.2746 81.1413 78.0196 80.722 77.8269 80.246L79.1869 79.668C79.3002 79.9287 79.4589 80.1837 79.6629 80.433C79.8669 80.671 80.1162 80.8863 80.4109 81.079C80.7056 81.2717 81.0399 81.4247 81.4139 81.538C81.7879 81.6513 82.2072 81.708 82.6719 81.708C83.1932 81.708 83.6466 81.64 84.0319 81.504C84.4286 81.3567 84.7572 81.164 85.0179 80.926C85.2786 80.688 85.4712 80.416 85.5959 80.11C85.7206 79.7927 85.7829 79.4583 85.7829 79.107C85.7829 78.3023 85.4826 77.6677 84.8819 77.203C84.2926 76.7383 83.4709 76.506 82.4169 76.506C81.8162 76.506 81.3119 76.591 80.9039 76.761C80.5072 76.9197 80.1332 77.1747 79.7819 77.526L78.5579 77.203L79.2549 71.1ZM88.8583 74.585C88.9603 74.0977 89.1303 73.633 89.3683 73.191C89.6063 72.749 89.9123 72.3637 90.2863 72.035C90.6603 71.695 91.108 71.4287 91.6293 71.236C92.1506 71.0433 92.7456 70.947 93.4143 70.947C94.0376 70.947 94.593 71.0377 95.0803 71.219C95.5676 71.389 95.9813 71.6327 96.3213 71.95C96.6613 72.2673 96.9163 72.647 97.0863 73.089C97.2676 73.531 97.3583 74.0127 97.3583 74.534C97.3583 75.2707 97.1996 75.9507 96.8823 76.574C96.5763 77.186 96.1853 77.747 95.7093 78.257C95.2333 78.767 94.712 79.2317 94.1453 79.651C93.5786 80.059 93.0403 80.4217 92.5303 80.739L91.2213 81.555H97.8003V83H88.5353V81.81L91.1193 80.093C91.9693 79.5263 92.6946 79.005 93.2953 78.529C93.896 78.0417 94.3833 77.5827 94.7573 77.152C95.1426 76.7213 95.4203 76.3077 95.5903 75.911C95.7716 75.503 95.8623 75.095 95.8623 74.687C95.8623 74.2677 95.7943 73.9107 95.6583 73.616C95.5336 73.3213 95.3523 73.0833 95.1143 72.902C94.8876 72.7207 94.6156 72.5903 94.2983 72.511C93.9923 72.4317 93.6636 72.392 93.3123 72.392C92.8023 72.392 92.3603 72.4713 91.9863 72.63C91.6236 72.7887 91.312 72.9983 91.0513 73.259C90.802 73.5083 90.6036 73.7917 90.4563 74.109C90.3203 74.415 90.2296 74.721 90.1843 75.027L88.8583 74.585ZM100.355 71.1H107.835V72.545H101.664L101.222 75.741C101.483 75.5483 101.834 75.3897 102.276 75.265C102.73 75.129 103.279 75.061 103.925 75.061C104.639 75.061 105.274 75.163 105.829 75.367C106.385 75.571 106.849 75.8543 107.223 76.217C107.597 76.5797 107.881 77.0047 108.073 77.492C108.277 77.9793 108.379 78.5007 108.379 79.056C108.379 79.6567 108.26 80.2063 108.022 80.705C107.796 81.2037 107.473 81.6343 107.053 81.997C106.645 82.3597 106.158 82.643 105.591 82.847C105.036 83.051 104.43 83.153 103.772 83.153C103.228 83.153 102.707 83.0907 102.208 82.966C101.71 82.8413 101.245 82.6543 100.814 82.405C100.395 82.1557 100.021 81.8553 99.6925 81.504C99.3751 81.1413 99.1201 80.722 98.9275 80.246L100.287 79.668C100.401 79.9287 100.559 80.1837 100.763 80.433C100.967 80.671 101.217 80.8863 101.511 81.079C101.806 81.2717 102.14 81.4247 102.514 81.538C102.888 81.6513 103.308 81.708 103.772 81.708C104.294 81.708 104.747 81.64 105.132 81.504C105.529 81.3567 105.858 81.164 106.118 80.926C106.379 80.688 106.572 80.416 106.696 80.11C106.821 79.7927 106.883 79.4583 106.883 79.107C106.883 78.3023 106.583 77.6677 105.982 77.203C105.393 76.7383 104.571 76.506 103.517 76.506C102.917 76.506 102.412 76.591 102.004 76.761C101.608 76.9197 101.234 77.1747 100.882 77.526L99.6585 77.203L100.355 71.1Z" fill="#222429"/>
<path d="M250.822 206.07C250.906 205.669 251.046 205.286 251.242 204.922C251.438 204.558 251.69 204.241 251.998 203.97C252.306 203.69 252.675 203.471 253.104 203.312C253.533 203.153 254.023 203.074 254.574 203.074C255.087 203.074 255.545 203.149 255.946 203.298C256.347 203.438 256.688 203.639 256.968 203.9C257.248 204.161 257.458 204.474 257.598 204.838C257.747 205.202 257.822 205.599 257.822 206.028C257.822 206.635 257.691 207.195 257.43 207.708C257.178 208.212 256.856 208.674 256.464 209.094C256.072 209.514 255.643 209.897 255.176 210.242C254.709 210.578 254.266 210.877 253.846 211.138L252.768 211.81H258.186V213H250.556V212.02L252.684 210.606C253.384 210.139 253.981 209.71 254.476 209.318C254.971 208.917 255.372 208.539 255.68 208.184C255.997 207.829 256.226 207.489 256.366 207.162C256.515 206.826 256.59 206.49 256.59 206.154C256.59 205.809 256.534 205.515 256.422 205.272C256.319 205.029 256.17 204.833 255.974 204.684C255.787 204.535 255.563 204.427 255.302 204.362C255.05 204.297 254.779 204.264 254.49 204.264C254.07 204.264 253.706 204.329 253.398 204.46C253.099 204.591 252.843 204.763 252.628 204.978C252.423 205.183 252.259 205.417 252.138 205.678C252.026 205.93 251.951 206.182 251.914 206.434L250.822 206.07ZM259.156 208.1C259.156 207.372 259.24 206.705 259.408 206.098C259.576 205.482 259.828 204.95 260.164 204.502C260.51 204.054 260.944 203.704 261.466 203.452C261.989 203.2 262.605 203.074 263.314 203.074C264.024 203.074 264.64 203.191 265.162 203.424C265.685 203.657 266.119 203.993 266.464 204.432C266.81 204.871 267.066 205.403 267.234 206.028C267.402 206.644 267.486 207.335 267.486 208.1C267.486 208.828 267.402 209.5 267.234 210.116C267.076 210.723 266.824 211.25 266.478 211.698C266.142 212.146 265.713 212.496 265.19 212.748C264.668 213 264.052 213.126 263.342 213.126C262.67 213.126 262.073 213 261.55 212.748C261.028 212.496 260.589 212.146 260.234 211.698C259.88 211.25 259.609 210.723 259.422 210.116C259.245 209.5 259.156 208.828 259.156 208.1ZM260.388 208.1C260.388 209.295 260.65 210.233 261.172 210.914C261.695 211.595 262.418 211.936 263.342 211.936C264.35 211.936 265.088 211.595 265.554 210.914C266.021 210.233 266.254 209.295 266.254 208.1C266.254 206.905 266.016 205.967 265.54 205.286C265.064 204.605 264.322 204.264 263.314 204.264C262.81 204.264 262.376 204.353 262.012 204.53C261.648 204.707 261.345 204.964 261.102 205.3C260.86 205.636 260.678 206.042 260.556 206.518C260.444 206.985 260.388 207.512 260.388 208.1ZM268.63 206.07C268.714 205.669 268.854 205.286 269.05 204.922C269.246 204.558 269.498 204.241 269.806 203.97C270.114 203.69 270.483 203.471 270.912 203.312C271.341 203.153 271.831 203.074 272.382 203.074C272.895 203.074 273.353 203.149 273.754 203.298C274.155 203.438 274.496 203.639 274.776 203.9C275.056 204.161 275.266 204.474 275.406 204.838C275.555 205.202 275.63 205.599 275.63 206.028C275.63 206.635 275.499 207.195 275.238 207.708C274.986 208.212 274.664 208.674 274.272 209.094C273.88 209.514 273.451 209.897 272.984 210.242C272.517 210.578 272.074 210.877 271.654 211.138L270.576 211.81H275.994V213H268.364V212.02L270.492 210.606C271.192 210.139 271.789 209.71 272.284 209.318C272.779 208.917 273.18 208.539 273.488 208.184C273.805 207.829 274.034 207.489 274.174 207.162C274.323 206.826 274.398 206.49 274.398 206.154C274.398 205.809 274.342 205.515 274.23 205.272C274.127 205.029 273.978 204.833 273.782 204.684C273.595 204.535 273.371 204.427 273.11 204.362C272.858 204.297 272.587 204.264 272.298 204.264C271.878 204.264 271.514 204.329 271.206 204.46C270.907 204.591 270.651 204.763 270.436 204.978C270.231 205.183 270.067 205.417 269.946 205.678C269.834 205.93 269.759 206.182 269.722 206.434L268.63 206.07ZM276.964 208.1C276.964 207.372 277.048 206.705 277.216 206.098C277.384 205.482 277.636 204.95 277.972 204.502C278.318 204.054 278.752 203.704 279.274 203.452C279.797 203.2 280.413 203.074 281.122 203.074C281.832 203.074 282.448 203.191 282.97 203.424C283.493 203.657 283.927 203.993 284.272 204.432C284.618 204.871 284.874 205.403 285.042 206.028C285.21 206.644 285.294 207.335 285.294 208.1C285.294 208.828 285.21 209.5 285.042 210.116C284.884 210.723 284.632 211.25 284.286 211.698C283.95 212.146 283.521 212.496 282.998 212.748C282.476 213 281.86 213.126 281.15 213.126C280.478 213.126 279.881 213 279.358 212.748C278.836 212.496 278.397 212.146 278.042 211.698C277.688 211.25 277.417 210.723 277.23 210.116C277.053 209.5 276.964 208.828 276.964 208.1ZM278.196 208.1C278.196 209.295 278.458 210.233 278.98 210.914C279.503 211.595 280.226 211.936 281.15 211.936C282.158 211.936 282.896 211.595 283.362 210.914C283.829 210.233 284.062 209.295 284.062 208.1C284.062 206.905 283.824 205.967 283.348 205.286C282.872 204.605 282.13 204.264 281.122 204.264C280.618 204.264 280.184 204.353 279.82 204.53C279.456 204.707 279.153 204.964 278.91 205.3C278.668 205.636 278.486 206.042 278.364 206.518C278.252 206.985 278.196 207.512 278.196 208.1Z" fill="#777F8C"/>
<rect x="243" y="62" width="50" height="131" fill="#BFCED4"/>
<rect x="243" y="62" width="50" height="4" fill="#A6B2BC"/>
<path d="M251.147 41.032H252.116V53H250.688V42.851L247.611 44.262L247.067 42.987L251.147 41.032ZM254.233 54.649C254.38 54.615 254.533 54.5527 254.692 54.462C254.862 54.3713 255.015 54.258 255.151 54.122C255.287 53.986 255.394 53.8387 255.474 53.68C255.564 53.5213 255.61 53.357 255.61 53.187C255.61 53.1077 255.604 53.0453 255.593 53C255.536 53.0113 255.468 53.017 255.389 53.017C255.139 53.017 254.924 52.9377 254.743 52.779C254.573 52.6203 254.488 52.3937 254.488 52.099C254.488 51.8043 254.578 51.572 254.76 51.402C254.941 51.2207 255.196 51.13 255.525 51.13C255.887 51.13 256.182 51.2547 256.409 51.504C256.647 51.742 256.766 52.1047 256.766 52.592C256.766 53.0567 256.703 53.4533 256.579 53.782C256.454 54.1107 256.29 54.3883 256.086 54.615C255.882 54.8417 255.649 55.0173 255.389 55.142C255.128 55.278 254.862 55.38 254.59 55.448L254.233 54.649ZM262.745 53.153C261.714 53.153 260.83 52.9547 260.093 52.558C259.368 52.1613 258.824 51.657 258.461 51.045L259.685 50.195C260.037 50.6823 260.496 51.0563 261.062 51.317C261.64 51.5777 262.269 51.708 262.949 51.708C263.471 51.708 263.947 51.606 264.377 51.402C264.819 51.1867 265.199 50.892 265.516 50.518C265.845 50.144 266.1 49.702 266.281 49.192C266.463 48.682 266.553 48.1267 266.553 47.526C266.553 47.458 266.553 47.39 266.553 47.322C266.553 47.254 266.548 47.186 266.536 47.118C266.264 47.764 265.8 48.3023 265.142 48.733C264.496 49.1523 263.675 49.362 262.677 49.362C262.02 49.362 261.414 49.2657 260.858 49.073C260.303 48.869 259.821 48.5913 259.413 48.24C259.005 47.8773 258.688 47.4467 258.461 46.948C258.235 46.4493 258.121 45.894 258.121 45.282C258.121 44.6247 258.24 44.0297 258.478 43.497C258.728 42.953 259.073 42.494 259.515 42.12C259.957 41.746 260.484 41.457 261.096 41.253C261.72 41.049 262.405 40.947 263.153 40.947C263.913 40.947 264.593 41.0773 265.193 41.338C265.805 41.5873 266.321 41.9613 266.74 42.46C267.171 42.9587 267.5 43.5763 267.726 44.313C267.953 45.0383 268.066 45.877 268.066 46.829C268.066 47.8717 267.936 48.7897 267.675 49.583C267.426 50.365 267.063 51.0223 266.587 51.555C266.123 52.0763 265.562 52.473 264.904 52.745C264.258 53.017 263.539 53.153 262.745 53.153ZM262.949 47.917C263.437 47.917 263.879 47.849 264.275 47.713C264.672 47.577 265.006 47.39 265.278 47.152C265.562 46.9027 265.777 46.6137 265.924 46.285C266.072 45.9563 266.145 45.605 266.145 45.231C266.145 44.8683 266.089 44.517 265.975 44.177C265.862 43.837 265.681 43.5367 265.431 43.276C265.182 43.004 264.853 42.7887 264.445 42.63C264.049 42.4713 263.561 42.392 262.983 42.392C261.929 42.392 261.102 42.63 260.501 43.106C259.912 43.5707 259.617 44.2563 259.617 45.163C259.617 46.0243 259.918 46.6987 260.518 47.186C261.119 47.6733 261.929 47.917 262.949 47.917ZM269.12 41.1H278.147V42.069L272.231 53H270.616L276.328 42.545H269.12V41.1ZM279.121 43.99C279.28 43.548 279.495 43.1457 279.767 42.783C280.039 42.409 280.368 42.086 280.753 41.814C281.15 41.542 281.603 41.3323 282.113 41.185C282.635 41.0263 283.218 40.947 283.864 40.947C284.442 40.947 284.975 41.0207 285.462 41.168C285.961 41.304 286.386 41.5023 286.737 41.763C287.1 42.0123 287.378 42.324 287.57 42.698C287.774 43.072 287.876 43.4857 287.876 43.939C287.876 44.6303 287.695 45.2197 287.332 45.707C286.981 46.1943 286.465 46.5343 285.785 46.727C286.08 46.7497 286.369 46.8233 286.652 46.948C286.936 47.0613 287.185 47.237 287.4 47.475C287.627 47.7017 287.808 47.9907 287.944 48.342C288.08 48.682 288.148 49.09 288.148 49.566C288.148 50.144 288.035 50.6597 287.808 51.113C287.593 51.555 287.287 51.929 286.89 52.235C286.505 52.5297 286.046 52.7563 285.513 52.915C284.981 53.0737 284.408 53.153 283.796 53.153C283.128 53.153 282.516 53.0737 281.96 52.915C281.416 52.7563 280.935 52.541 280.515 52.269C280.096 51.9857 279.739 51.6513 279.444 51.266C279.161 50.8693 278.946 50.433 278.798 49.957L280.175 49.362C280.323 49.668 280.498 49.9627 280.702 50.246C280.906 50.5293 281.156 50.7787 281.45 50.994C281.745 51.2093 282.091 51.385 282.487 51.521C282.884 51.6457 283.354 51.708 283.898 51.708C284.748 51.708 285.417 51.5267 285.904 51.164C286.403 50.79 286.652 50.263 286.652 49.583C286.652 49.209 286.573 48.8973 286.414 48.648C286.256 48.3873 286.035 48.1833 285.751 48.036C285.468 47.8773 285.134 47.7697 284.748 47.713C284.374 47.645 283.966 47.611 283.524 47.611H282.198V46.2H283.252C284.238 46.2 285.003 46.013 285.547 45.639C286.103 45.265 286.38 44.7947 286.38 44.228C286.38 43.616 286.148 43.157 285.683 42.851C285.219 42.545 284.59 42.392 283.796 42.392C283.309 42.392 282.878 42.4543 282.504 42.579C282.13 42.7037 281.802 42.868 281.518 43.072C281.246 43.276 281.014 43.5083 280.821 43.769C280.64 44.0297 280.498 44.296 280.396 44.568L279.121 43.99Z" fill="#222429"/>
<path d="M342.818 206.07C342.902 205.669 343.042 205.286 343.238 204.922C343.434 204.558 343.686 204.241 343.994 203.97C344.302 203.69 344.671 203.471 345.1 203.312C345.53 203.153 346.02 203.074 346.57 203.074C347.084 203.074 347.541 203.149 347.942 203.298C348.344 203.438 348.684 203.639 348.964 203.9C349.244 204.161 349.454 204.474 349.594 204.838C349.744 205.202 349.818 205.599 349.818 206.028C349.818 206.635 349.688 207.195 349.426 207.708C349.174 208.212 348.852 208.674 348.46 209.094C348.068 209.514 347.639 209.897 347.172 210.242C346.706 210.578 346.262 210.877 345.842 211.138L344.764 211.81H350.182V213H342.552V212.02L344.68 210.606C345.38 210.139 345.978 209.71 346.472 209.318C346.967 208.917 347.368 208.539 347.676 208.184C347.994 207.829 348.222 207.489 348.362 207.162C348.512 206.826 348.586 206.49 348.586 206.154C348.586 205.809 348.53 205.515 348.418 205.272C348.316 205.029 348.166 204.833 347.97 204.684C347.784 204.535 347.56 204.427 347.298 204.362C347.046 204.297 346.776 204.264 346.486 204.264C346.066 204.264 345.702 204.329 345.394 204.46C345.096 204.591 344.839 204.763 344.624 204.978C344.419 205.183 344.256 205.417 344.134 205.678C344.022 205.93 343.948 206.182 343.91 206.434L342.818 206.07ZM351.152 208.1C351.152 207.372 351.236 206.705 351.404 206.098C351.572 205.482 351.824 204.95 352.16 204.502C352.506 204.054 352.94 203.704 353.462 203.452C353.985 203.2 354.601 203.074 355.31 203.074C356.02 203.074 356.636 203.191 357.158 203.424C357.681 203.657 358.115 203.993 358.46 204.432C358.806 204.871 359.062 205.403 359.23 206.028C359.398 206.644 359.482 207.335 359.482 208.1C359.482 208.828 359.398 209.5 359.23 210.116C359.072 210.723 358.82 211.25 358.474 211.698C358.138 212.146 357.709 212.496 357.186 212.748C356.664 213 356.048 213.126 355.338 213.126C354.666 213.126 354.069 213 353.546 212.748C353.024 212.496 352.585 212.146 352.23 211.698C351.876 211.25 351.605 210.723 351.418 210.116C351.241 209.5 351.152 208.828 351.152 208.1ZM352.384 208.1C352.384 209.295 352.646 210.233 353.168 210.914C353.691 211.595 354.414 211.936 355.338 211.936C356.346 211.936 357.084 211.595 357.55 210.914C358.017 210.233 358.25 209.295 358.25 208.1C358.25 206.905 358.012 205.967 357.536 205.286C357.06 204.605 356.318 204.264 355.31 204.264C354.806 204.264 354.372 204.353 354.008 204.53C353.644 204.707 353.341 204.964 353.098 205.3C352.856 205.636 352.674 206.042 352.552 206.518C352.44 206.985 352.384 207.512 352.384 208.1ZM360.626 206.07C360.71 205.669 360.85 205.286 361.046 204.922C361.242 204.558 361.494 204.241 361.802 203.97C362.11 203.69 362.479 203.471 362.908 203.312C363.337 203.153 363.827 203.074 364.378 203.074C364.891 203.074 365.349 203.149 365.75 203.298C366.151 203.438 366.492 203.639 366.772 203.9C367.052 204.161 367.262 204.474 367.402 204.838C367.551 205.202 367.626 205.599 367.626 206.028C367.626 206.635 367.495 207.195 367.234 207.708C366.982 208.212 366.66 208.674 366.268 209.094C365.876 209.514 365.447 209.897 364.98 210.242C364.513 210.578 364.07 210.877 363.65 211.138L362.572 211.81H367.99V213H360.36V212.02L362.488 210.606C363.188 210.139 363.785 209.71 364.28 209.318C364.775 208.917 365.176 208.539 365.484 208.184C365.801 207.829 366.03 207.489 366.17 207.162C366.319 206.826 366.394 206.49 366.394 206.154C366.394 205.809 366.338 205.515 366.226 205.272C366.123 205.029 365.974 204.833 365.778 204.684C365.591 204.535 365.367 204.427 365.106 204.362C364.854 204.297 364.583 204.264 364.294 204.264C363.874 204.264 363.51 204.329 363.202 204.46C362.903 204.591 362.647 204.763 362.432 204.978C362.227 205.183 362.063 205.417 361.942 205.678C361.83 205.93 361.755 206.182 361.718 206.434L360.626 206.07ZM371.76 203.144H372.558V213H371.382V204.642L368.848 205.804L368.4 204.754L371.76 203.144Z" fill="#777F8C"/>
<rect x="333" y="49" width="50" height="144" fill="#BFCED4"/>
<rect x="333" y="49" width="50" height="4" fill="#A6B2BC"/>
<path d="M337.052 31.585C337.154 31.0977 337.324 30.633 337.562 30.191C337.8 29.749 338.106 29.3637 338.48 29.035C338.854 28.695 339.302 28.4287 339.823 28.236C340.344 28.0433 340.939 27.947 341.608 27.947C342.231 27.947 342.787 28.0377 343.274 28.219C343.761 28.389 344.175 28.6327 344.515 28.95C344.855 29.2673 345.11 29.647 345.28 30.089C345.461 30.531 345.552 31.0127 345.552 31.534C345.552 32.2707 345.393 32.9507 345.076 33.574C344.77 34.186 344.379 34.747 343.903 35.257C343.427 35.767 342.906 36.2317 342.339 36.651C341.772 37.059 341.234 37.4217 340.724 37.739L339.415 38.555H345.994V40H336.729V38.81L339.313 37.093C340.163 36.5263 340.888 36.005 341.489 35.529C342.09 35.0417 342.577 34.5827 342.951 34.152C343.336 33.7213 343.614 33.3077 343.784 32.911C343.965 32.503 344.056 32.095 344.056 31.687C344.056 31.2677 343.988 30.9107 343.852 30.616C343.727 30.3213 343.546 30.0833 343.308 29.902C343.081 29.7207 342.809 29.5903 342.492 29.511C342.186 29.4317 341.857 29.392 341.506 29.392C340.996 29.392 340.554 29.4713 340.18 29.63C339.817 29.7887 339.506 29.9983 339.245 30.259C338.996 30.5083 338.797 30.7917 338.65 31.109C338.514 31.415 338.423 31.721 338.378 32.027L337.052 31.585ZM347.121 41.649C347.269 41.615 347.422 41.5527 347.58 41.462C347.75 41.3713 347.903 41.258 348.039 41.122C348.175 40.986 348.283 40.8387 348.362 40.68C348.453 40.5213 348.498 40.357 348.498 40.187C348.498 40.1077 348.493 40.0453 348.481 40C348.425 40.0113 348.357 40.017 348.277 40.017C348.028 40.017 347.813 39.9377 347.631 39.779C347.461 39.6203 347.376 39.3937 347.376 39.099C347.376 38.8043 347.467 38.572 347.648 38.402C347.83 38.2207 348.085 38.13 348.413 38.13C348.776 38.13 349.071 38.2547 349.297 38.504C349.535 38.742 349.654 39.1047 349.654 39.592C349.654 40.0567 349.592 40.4533 349.467 40.782C349.343 41.1107 349.178 41.3883 348.974 41.615C348.77 41.8417 348.538 42.0173 348.277 42.142C348.017 42.278 347.75 42.38 347.478 42.448L347.121 41.649ZM354.461 28.032H355.43V40H354.002V29.851L350.925 31.262L350.381 29.987L354.461 28.032ZM362.341 40.153C361.31 40.153 360.426 39.9547 359.689 39.558C358.964 39.1613 358.42 38.657 358.057 38.045L359.281 37.195C359.632 37.6823 360.091 38.0563 360.658 38.317C361.236 38.5777 361.865 38.708 362.545 38.708C363.066 38.708 363.542 38.606 363.973 38.402C364.415 38.1867 364.795 37.892 365.112 37.518C365.441 37.144 365.696 36.702 365.877 36.192C366.058 35.682 366.149 35.1267 366.149 34.526C366.149 34.458 366.149 34.39 366.149 34.322C366.149 34.254 366.143 34.186 366.132 34.118C365.86 34.764 365.395 35.3023 364.738 35.733C364.092 36.1523 363.27 36.362 362.273 36.362C361.616 36.362 361.009 36.2657 360.454 36.073C359.899 35.869 359.417 35.5913 359.009 35.24C358.601 34.8773 358.284 34.4467 358.057 33.948C357.83 33.4493 357.717 32.894 357.717 32.282C357.717 31.6247 357.836 31.0297 358.074 30.497C358.323 29.953 358.669 29.494 359.111 29.12C359.553 28.746 360.08 28.457 360.692 28.253C361.315 28.049 362.001 27.947 362.749 27.947C363.508 27.947 364.188 28.0773 364.789 28.338C365.401 28.5873 365.917 28.9613 366.336 29.46C366.767 29.9587 367.095 30.5763 367.322 31.313C367.549 32.0383 367.662 32.877 367.662 33.829C367.662 34.8717 367.532 35.7897 367.271 36.583C367.022 37.365 366.659 38.0223 366.183 38.555C365.718 39.0763 365.157 39.473 364.5 39.745C363.854 40.017 363.134 40.153 362.341 40.153ZM362.545 34.917C363.032 34.917 363.474 34.849 363.871 34.713C364.268 34.577 364.602 34.39 364.874 34.152C365.157 33.9027 365.373 33.6137 365.52 33.285C365.667 32.9563 365.741 32.605 365.741 32.231C365.741 31.8683 365.684 31.517 365.571 31.177C365.458 30.837 365.276 30.5367 365.027 30.276C364.778 30.004 364.449 29.7887 364.041 29.63C363.644 29.4713 363.157 29.392 362.579 29.392C361.525 29.392 360.698 29.63 360.097 30.106C359.508 30.5707 359.213 31.2563 359.213 32.163C359.213 33.0243 359.513 33.6987 360.114 34.186C360.715 34.6733 361.525 34.917 362.545 34.917ZM375.89 37.62H368.563V36.532L376.06 28.1H377.318V36.175H379.528V37.62H377.318V40H375.89V37.62ZM375.89 36.175V30.48L370.603 36.175H375.89Z" fill="#222429"/>
</svg>
