<svg viewBox="0 0 536 253" fill="none" xmlns="http://www.w3.org/2000/svg">
<line x1="2" y1="193.5" x2="536" y2="193.5" stroke="#CBCFD6"/>
<path d="M163.435 206.07C163.519 205.669 163.659 205.286 163.855 204.922C164.051 204.558 164.303 204.241 164.611 203.97C164.919 203.69 165.288 203.471 165.717 203.312C166.147 203.153 166.637 203.074 167.187 203.074C167.701 203.074 168.158 203.149 168.559 203.298C168.961 203.438 169.301 203.639 169.581 203.9C169.861 204.161 170.071 204.474 170.211 204.838C170.361 205.202 170.435 205.599 170.435 206.028C170.435 206.635 170.305 207.195 170.043 207.708C169.791 208.212 169.469 208.674 169.077 209.094C168.685 209.514 168.256 209.897 167.789 210.242C167.323 210.578 166.879 210.877 166.459 211.138L165.381 211.81H170.799V213H163.169V212.02L165.297 210.606C165.997 210.139 166.595 209.71 167.089 209.318C167.584 208.917 167.985 208.539 168.293 208.184C168.611 207.829 168.839 207.489 168.979 207.162C169.129 206.826 169.203 206.49 169.203 206.154C169.203 205.809 169.147 205.515 169.035 205.272C168.933 205.029 168.783 204.833 168.587 204.684C168.401 204.535 168.177 204.427 167.915 204.362C167.663 204.297 167.393 204.264 167.103 204.264C166.683 204.264 166.319 204.329 166.011 204.46C165.713 204.591 165.456 204.763 165.241 204.978C165.036 205.183 164.873 205.417 164.751 205.678C164.639 205.93 164.565 206.182 164.527 206.434L163.435 206.07ZM171.77 208.1C171.77 207.372 171.854 206.705 172.022 206.098C172.19 205.482 172.442 204.95 172.778 204.502C173.123 204.054 173.557 203.704 174.08 203.452C174.602 203.2 175.218 203.074 175.928 203.074C176.637 203.074 177.253 203.191 177.776 203.424C178.298 203.657 178.732 203.993 179.078 204.432C179.423 204.871 179.68 205.403 179.848 206.028C180.016 206.644 180.1 207.335 180.1 208.1C180.1 208.828 180.016 209.5 179.848 210.116C179.689 210.723 179.437 211.25 179.092 211.698C178.756 212.146 178.326 212.496 177.804 212.748C177.281 213 176.665 213.126 175.956 213.126C175.284 213.126 174.686 213 174.164 212.748C173.641 212.496 173.202 212.146 172.848 211.698C172.493 211.25 172.222 210.723 172.036 210.116C171.858 209.5 171.77 208.828 171.77 208.1ZM173.002 208.1C173.002 209.295 173.263 210.233 173.786 210.914C174.308 211.595 175.032 211.936 175.956 211.936C176.964 211.936 177.701 211.595 178.168 210.914C178.634 210.233 178.868 209.295 178.868 208.1C178.868 206.905 178.63 205.967 178.154 205.286C177.678 204.605 176.936 204.264 175.928 204.264C175.424 204.264 174.99 204.353 174.626 204.53C174.262 204.707 173.958 204.964 173.716 205.3C173.473 205.636 173.291 206.042 173.17 206.518C173.058 206.985 173.002 207.512 173.002 208.1ZM183.945 203.144H184.743V213H183.567V204.642L181.033 205.804L180.585 204.754L183.945 203.144ZM190.295 213.126C189.445 213.126 188.717 212.963 188.111 212.636C187.513 212.309 187.065 211.894 186.767 211.39L187.775 210.69C188.064 211.091 188.442 211.399 188.909 211.614C189.385 211.829 189.903 211.936 190.463 211.936C190.892 211.936 191.284 211.852 191.639 211.684C192.003 211.507 192.315 211.264 192.577 210.956C192.847 210.648 193.057 210.284 193.207 209.864C193.356 209.444 193.431 208.987 193.431 208.492C193.431 208.436 193.431 208.38 193.431 208.324C193.431 208.268 193.426 208.212 193.417 208.156C193.193 208.688 192.81 209.131 192.269 209.486C191.737 209.831 191.06 210.004 190.239 210.004C189.697 210.004 189.198 209.925 188.741 209.766C188.283 209.598 187.887 209.369 187.551 209.08C187.215 208.781 186.953 208.427 186.767 208.016C186.58 207.605 186.487 207.148 186.487 206.644C186.487 206.103 186.585 205.613 186.781 205.174C186.986 204.726 187.271 204.348 187.635 204.04C187.999 203.732 188.433 203.494 188.937 203.326C189.45 203.158 190.015 203.074 190.631 203.074C191.256 203.074 191.816 203.181 192.311 203.396C192.815 203.601 193.239 203.909 193.585 204.32C193.939 204.731 194.21 205.239 194.397 205.846C194.583 206.443 194.677 207.134 194.677 207.918C194.677 208.777 194.569 209.533 194.355 210.186C194.149 210.83 193.851 211.371 193.459 211.81C193.076 212.239 192.614 212.566 192.073 212.79C191.541 213.014 190.948 213.126 190.295 213.126ZM190.463 208.814C190.864 208.814 191.228 208.758 191.555 208.646C191.881 208.534 192.157 208.38 192.381 208.184C192.614 207.979 192.791 207.741 192.913 207.47C193.034 207.199 193.095 206.91 193.095 206.602C193.095 206.303 193.048 206.014 192.955 205.734C192.861 205.454 192.712 205.207 192.507 204.992C192.301 204.768 192.031 204.591 191.695 204.46C191.368 204.329 190.967 204.264 190.491 204.264C189.623 204.264 188.941 204.46 188.447 204.852C187.961 205.235 187.719 205.799 187.719 206.546C187.719 207.255 187.966 207.811 188.461 208.212C188.955 208.613 189.623 208.814 190.463 208.814Z" fill="#777F8C"/>
<rect x="154" y="111" width="50" height="82" fill="#BFCED4"/>
<rect x="154" y="111" width="50" height="4" fill="#A6B2BC"/>
<path d="M159.364 93.585C159.466 93.0977 159.636 92.633 159.874 92.191C160.112 91.749 160.418 91.3637 160.792 91.035C161.166 90.695 161.613 90.4287 162.135 90.236C162.656 90.0433 163.251 89.947 163.92 89.947C164.543 89.947 165.098 90.0377 165.586 90.219C166.073 90.389 166.487 90.6327 166.827 90.95C167.167 91.2673 167.422 91.647 167.592 92.089C167.773 92.531 167.864 93.0127 167.864 93.534C167.864 94.2707 167.705 94.9507 167.388 95.574C167.082 96.186 166.691 96.747 166.215 97.257C165.739 97.767 165.217 98.2317 164.651 98.651C164.084 99.059 163.546 99.4217 163.036 99.739L161.727 100.555H168.306V102H159.041V100.81L161.625 99.093C162.475 98.5263 163.2 98.005 163.801 97.529C164.401 97.0417 164.889 96.5827 165.263 96.152C165.648 95.7213 165.926 95.3077 166.096 94.911C166.277 94.503 166.368 94.095 166.368 93.687C166.368 93.2677 166.3 92.9107 166.164 92.616C166.039 92.3213 165.858 92.0833 165.62 91.902C165.393 91.7207 165.121 91.5903 164.804 91.511C164.498 91.4317 164.169 91.392 163.818 91.392C163.308 91.392 162.866 91.4713 162.492 91.63C162.129 91.7887 161.817 91.9983 161.557 92.259C161.307 92.5083 161.109 92.7917 160.962 93.109C160.826 93.415 160.735 93.721 160.69 94.027L159.364 93.585ZM170.861 90.1H178.341V91.545H172.17L171.728 94.741C171.989 94.5483 172.34 94.3897 172.782 94.265C173.235 94.129 173.785 94.061 174.431 94.061C175.145 94.061 175.78 94.163 176.335 94.367C176.89 94.571 177.355 94.8543 177.729 95.217C178.103 95.5797 178.386 96.0047 178.579 96.492C178.783 96.9793 178.885 97.5007 178.885 98.056C178.885 98.6567 178.766 99.2063 178.528 99.705C178.301 100.204 177.978 100.634 177.559 100.997C177.151 101.36 176.664 101.643 176.097 101.847C175.542 102.051 174.935 102.153 174.278 102.153C173.734 102.153 173.213 102.091 172.714 101.966C172.215 101.841 171.751 101.654 171.32 101.405C170.901 101.156 170.527 100.855 170.198 100.504C169.881 100.141 169.626 99.722 169.433 99.246L170.793 98.668C170.906 98.9287 171.065 99.1837 171.269 99.433C171.473 99.671 171.722 99.8863 172.017 100.079C172.312 100.272 172.646 100.425 173.02 100.538C173.394 100.651 173.813 100.708 174.278 100.708C174.799 100.708 175.253 100.64 175.638 100.504C176.035 100.357 176.363 100.164 176.624 99.926C176.885 99.688 177.077 99.416 177.202 99.11C177.327 98.7927 177.389 98.4583 177.389 98.107C177.389 97.3023 177.089 96.6677 176.488 96.203C175.899 95.7383 175.077 95.506 174.023 95.506C173.422 95.506 172.918 95.591 172.51 95.761C172.113 95.9197 171.739 96.1747 171.388 96.526L170.164 96.203L170.861 90.1ZM180.464 101.031C180.464 100.804 180.561 100.589 180.753 100.385C180.946 100.181 181.201 100.079 181.518 100.079C181.813 100.079 182.057 100.181 182.249 100.385C182.442 100.589 182.538 100.804 182.538 101.031C182.538 101.292 182.442 101.524 182.249 101.728C182.057 101.932 181.813 102.034 181.518 102.034C181.201 102.034 180.946 101.932 180.753 101.728C180.561 101.524 180.464 101.292 180.464 101.031ZM188.687 102.153C187.655 102.153 186.771 101.955 186.035 101.558C185.309 101.161 184.765 100.657 184.403 100.045L185.627 99.195C185.978 99.6823 186.437 100.056 187.004 100.317C187.582 100.578 188.211 100.708 188.891 100.708C189.412 100.708 189.888 100.606 190.319 100.402C190.761 100.187 191.14 99.892 191.458 99.518C191.786 99.144 192.041 98.702 192.223 98.192C192.404 97.682 192.495 97.1267 192.495 96.526C192.495 96.458 192.495 96.39 192.495 96.322C192.495 96.254 192.489 96.186 192.478 96.118C192.206 96.764 191.741 97.3023 191.084 97.733C190.438 98.1523 189.616 98.362 188.619 98.362C187.961 98.362 187.355 98.2657 186.8 98.073C186.244 97.869 185.763 97.5913 185.355 97.24C184.947 96.8773 184.629 96.4467 184.403 95.948C184.176 95.4493 184.063 94.894 184.063 94.282C184.063 93.6247 184.182 93.0297 184.42 92.497C184.669 91.953 185.015 91.494 185.457 91.12C185.899 90.746 186.426 90.457 187.038 90.253C187.661 90.049 188.347 89.947 189.095 89.947C189.854 89.947 190.534 90.0773 191.135 90.338C191.747 90.5873 192.262 90.9613 192.682 91.46C193.112 91.9587 193.441 92.5763 193.668 93.313C193.894 94.0383 194.008 94.877 194.008 95.829C194.008 96.8717 193.877 97.7897 193.617 98.583C193.367 99.365 193.005 100.022 192.529 100.555C192.064 101.076 191.503 101.473 190.846 101.745C190.2 102.017 189.48 102.153 188.687 102.153ZM188.891 96.917C189.378 96.917 189.82 96.849 190.217 96.713C190.613 96.577 190.948 96.39 191.22 96.152C191.503 95.9027 191.718 95.6137 191.866 95.285C192.013 94.9563 192.087 94.605 192.087 94.231C192.087 93.8683 192.03 93.517 191.917 93.177C191.803 92.837 191.622 92.5367 191.373 92.276C191.123 92.004 190.795 91.7887 190.387 91.63C189.99 91.4713 189.503 91.392 188.925 91.392C187.871 91.392 187.043 91.63 186.443 92.106C185.853 92.5707 185.559 93.2563 185.559 94.163C185.559 95.0243 185.859 95.6987 186.46 96.186C187.06 96.6733 187.871 96.917 188.891 96.917Z" fill="#222429"/>
<path d="M73.4354 206.07C73.5194 205.669 73.6594 205.286 73.8554 204.922C74.0514 204.558 74.3034 204.241 74.6114 203.97C74.9194 203.69 75.2881 203.471 75.7174 203.312C76.1467 203.153 76.6367 203.074 77.1874 203.074C77.7007 203.074 78.1581 203.149 78.5594 203.298C78.9607 203.438 79.3014 203.639 79.5814 203.9C79.8614 204.161 80.0714 204.474 80.2114 204.838C80.3607 205.202 80.4354 205.599 80.4354 206.028C80.4354 206.635 80.3047 207.195 80.0434 207.708C79.7914 208.212 79.4694 208.674 79.0774 209.094C78.6854 209.514 78.2561 209.897 77.7894 210.242C77.3227 210.578 76.8794 210.877 76.4594 211.138L75.3814 211.81H80.7994V213H73.1694V212.02L75.2974 210.606C75.9974 210.139 76.5947 209.71 77.0894 209.318C77.5841 208.917 77.9854 208.539 78.2934 208.184C78.6107 207.829 78.8394 207.489 78.9794 207.162C79.1287 206.826 79.2034 206.49 79.2034 206.154C79.2034 205.809 79.1474 205.515 79.0354 205.272C78.9327 205.029 78.7834 204.833 78.5874 204.684C78.4007 204.535 78.1767 204.427 77.9154 204.362C77.6634 204.297 77.3927 204.264 77.1034 204.264C76.6834 204.264 76.3194 204.329 76.0114 204.46C75.7127 204.591 75.4561 204.763 75.2414 204.978C75.0361 205.183 74.8727 205.417 74.7514 205.678C74.6394 205.93 74.5647 206.182 74.5274 206.434L73.4354 206.07ZM81.7697 208.1C81.7697 207.372 81.8537 206.705 82.0217 206.098C82.1897 205.482 82.4417 204.95 82.7777 204.502C83.123 204.054 83.557 203.704 84.0797 203.452C84.6023 203.2 85.2183 203.074 85.9277 203.074C86.637 203.074 87.253 203.191 87.7757 203.424C88.2983 203.657 88.7323 203.993 89.0777 204.432C89.423 204.871 89.6797 205.403 89.8477 206.028C90.0157 206.644 90.0997 207.335 90.0997 208.1C90.0997 208.828 90.0157 209.5 89.8477 210.116C89.689 210.723 89.437 211.25 89.0917 211.698C88.7557 212.146 88.3263 212.496 87.8037 212.748C87.281 213 86.665 213.126 85.9557 213.126C85.2837 213.126 84.6863 213 84.1637 212.748C83.641 212.496 83.2023 212.146 82.8477 211.698C82.493 211.25 82.2223 210.723 82.0357 210.116C81.8583 209.5 81.7697 208.828 81.7697 208.1ZM83.0017 208.1C83.0017 209.295 83.263 210.233 83.7857 210.914C84.3083 211.595 85.0317 211.936 85.9557 211.936C86.9637 211.936 87.701 211.595 88.1677 210.914C88.6343 210.233 88.8677 209.295 88.8677 208.1C88.8677 206.905 88.6297 205.967 88.1537 205.286C87.6777 204.605 86.9357 204.264 85.9277 204.264C85.4237 204.264 84.9897 204.353 84.6257 204.53C84.2617 204.707 83.9583 204.964 83.7157 205.3C83.473 205.636 83.291 206.042 83.1697 206.518C83.0577 206.985 83.0017 207.512 83.0017 208.1ZM93.9453 203.144H94.7433V213H93.5673V204.642L91.0333 205.804L90.5853 204.754L93.9453 203.144ZM100.827 207.414C101.144 207.414 101.438 207.377 101.709 207.302C101.989 207.218 102.231 207.106 102.437 206.966C102.642 206.826 102.801 206.658 102.913 206.462C103.034 206.266 103.095 206.051 103.095 205.818C103.095 205.314 102.885 204.931 102.465 204.67C102.054 204.399 101.424 204.264 100.575 204.264C99.7534 204.264 99.1327 204.399 98.7127 204.67C98.3021 204.941 98.0967 205.323 98.0967 205.818C98.0967 206.042 98.1527 206.252 98.2647 206.448C98.3767 206.644 98.5307 206.817 98.7267 206.966C98.9321 207.106 99.1747 207.218 99.4547 207.302C99.7441 207.377 100.057 207.414 100.393 207.414H100.827ZM100.449 208.52C100.057 208.52 99.6927 208.567 99.3567 208.66C99.0301 208.744 98.7501 208.865 98.5167 209.024C98.2834 209.173 98.1014 209.355 97.9707 209.57C97.8401 209.775 97.7747 209.995 97.7747 210.228C97.7747 210.732 98.0081 211.143 98.4747 211.46C98.9507 211.777 99.6554 211.936 100.589 211.936C101.55 211.936 102.259 211.787 102.717 211.488C103.174 211.18 103.403 210.765 103.403 210.242C103.403 209.691 103.165 209.267 102.689 208.968C102.222 208.669 101.592 208.52 100.799 208.52H100.449ZM100.603 213.126C99.9774 213.126 99.4127 213.065 98.9087 212.944C98.4141 212.813 97.9894 212.631 97.6347 212.398C97.2894 212.155 97.0187 211.866 96.8227 211.53C96.6361 211.185 96.5427 210.793 96.5427 210.354C96.5427 209.775 96.7154 209.276 97.0607 208.856C97.4154 208.427 97.8867 208.119 98.4747 207.932C98.1947 207.839 97.9521 207.717 97.7467 207.568C97.5414 207.409 97.3734 207.232 97.2427 207.036C97.1121 206.84 97.0141 206.635 96.9487 206.42C96.8927 206.196 96.8647 205.967 96.8647 205.734C96.8647 204.922 97.1821 204.278 97.8167 203.802C98.4607 203.317 99.3847 203.074 100.589 203.074C101.802 203.074 102.726 203.317 103.361 203.802C104.005 204.278 104.327 204.922 104.327 205.734C104.327 206.238 104.187 206.663 103.907 207.008C103.636 207.353 103.258 207.638 102.773 207.862C103.445 208.067 103.921 208.375 104.201 208.786C104.49 209.197 104.635 209.701 104.635 210.298C104.635 210.746 104.541 211.147 104.355 211.502C104.168 211.847 103.897 212.141 103.543 212.384C103.197 212.627 102.773 212.813 102.269 212.944C101.774 213.065 101.219 213.126 100.603 213.126Z" fill="#777F8C"/>
<rect x="64" y="101" width="50" height="92" fill="#BFCED4"/>
<rect x="64" y="101" width="50" height="4" fill="#A6B2BC"/>
<path d="M69.0565 83.585C69.1585 83.0977 69.3285 82.633 69.5665 82.191C69.8045 81.749 70.1105 81.3637 70.4845 81.035C70.8585 80.695 71.3062 80.4287 71.8275 80.236C72.3489 80.0433 72.9439 79.947 73.6125 79.947C74.2359 79.947 74.7912 80.0377 75.2785 80.219C75.7659 80.389 76.1795 80.6327 76.5195 80.95C76.8595 81.2673 77.1145 81.647 77.2845 82.089C77.4659 82.531 77.5565 83.0127 77.5565 83.534C77.5565 84.2707 77.3979 84.9507 77.0805 85.574C76.7745 86.186 76.3835 86.747 75.9075 87.257C75.4315 87.767 74.9102 88.2317 74.3435 88.651C73.7769 89.059 73.2385 89.4217 72.7285 89.739L71.4195 90.555H77.9985V92H68.7335V90.81L71.3175 89.093C72.1675 88.5263 72.8929 88.005 73.4935 87.529C74.0942 87.0417 74.5815 86.5827 74.9555 86.152C75.3409 85.7213 75.6185 85.3077 75.7885 84.911C75.9699 84.503 76.0605 84.095 76.0605 83.687C76.0605 83.2677 75.9925 82.9107 75.8565 82.616C75.7319 82.3213 75.5505 82.0833 75.3125 81.902C75.0859 81.7207 74.8139 81.5903 74.4965 81.511C74.1905 81.4317 73.8619 81.392 73.5105 81.392C73.0005 81.392 72.5585 81.4713 72.1845 81.63C71.8219 81.7887 71.5102 81.9983 71.2495 82.259C71.0002 82.5083 70.8019 82.7917 70.6545 83.109C70.5185 83.415 70.4279 83.721 70.3825 84.027L69.0565 83.585ZM84.5657 85.217C84.9511 85.217 85.3081 85.1717 85.6367 85.081C85.9767 84.979 86.2714 84.843 86.5207 84.673C86.7701 84.503 86.9627 84.299 87.0987 84.061C87.2461 83.823 87.3197 83.5623 87.3197 83.279C87.3197 82.667 87.0647 82.2023 86.5547 81.885C86.0561 81.5563 85.2911 81.392 84.2597 81.392C83.2624 81.392 82.5087 81.5563 81.9987 81.885C81.5001 82.2137 81.2507 82.6783 81.2507 83.279C81.2507 83.551 81.3187 83.806 81.4547 84.044C81.5907 84.282 81.7777 84.4917 82.0157 84.673C82.2651 84.843 82.5597 84.979 82.8997 85.081C83.2511 85.1717 83.6307 85.217 84.0387 85.217H84.5657ZM84.1067 86.56C83.6307 86.56 83.1887 86.6167 82.7807 86.73C82.3841 86.832 82.0441 86.9793 81.7607 87.172C81.4774 87.3533 81.2564 87.5743 81.0977 87.835C80.9391 88.0843 80.8597 88.3507 80.8597 88.634C80.8597 89.246 81.1431 89.7447 81.7097 90.13C82.2877 90.5153 83.1434 90.708 84.2767 90.708C85.4441 90.708 86.3054 90.5267 86.8607 90.164C87.4161 89.79 87.6937 89.2857 87.6937 88.651C87.6937 87.9823 87.4047 87.4667 86.8267 87.104C86.2601 86.7413 85.4951 86.56 84.5317 86.56H84.1067ZM84.2937 92.153C83.5344 92.153 82.8487 92.0793 82.2367 91.932C81.6361 91.7733 81.1204 91.5523 80.6897 91.269C80.2704 90.9743 79.9417 90.623 79.7037 90.215C79.4771 89.7957 79.3637 89.3197 79.3637 88.787C79.3637 88.0843 79.5734 87.478 79.9927 86.968C80.4234 86.4467 80.9957 86.0727 81.7097 85.846C81.3697 85.7327 81.0751 85.5853 80.8257 85.404C80.5764 85.2113 80.3724 84.996 80.2137 84.758C80.0551 84.52 79.9361 84.2707 79.8567 84.01C79.7887 83.738 79.7547 83.4603 79.7547 83.177C79.7547 82.191 80.1401 81.409 80.9107 80.831C81.6927 80.2417 82.8147 79.947 84.2767 79.947C85.7501 79.947 86.8721 80.2417 87.6427 80.831C88.4247 81.409 88.8157 82.191 88.8157 83.177C88.8157 83.789 88.6457 84.3047 88.3057 84.724C87.9771 85.1433 87.5181 85.489 86.9287 85.761C87.7447 86.0103 88.3227 86.3843 88.6627 86.883C89.0141 87.3817 89.1897 87.9937 89.1897 88.719C89.1897 89.263 89.0764 89.7503 88.8497 90.181C88.6231 90.6003 88.2944 90.9573 87.8637 91.252C87.4444 91.5467 86.9287 91.7733 86.3167 91.932C85.7161 92.0793 85.0417 92.153 84.2937 92.153ZM90.8046 91.031C90.8046 90.8043 90.9009 90.589 91.0936 90.385C91.2863 90.181 91.5413 90.079 91.8586 90.079C92.1533 90.079 92.3969 90.181 92.5896 90.385C92.7823 90.589 92.8786 90.8043 92.8786 91.031C92.8786 91.2917 92.7823 91.524 92.5896 91.728C92.3969 91.932 92.1533 92.034 91.8586 92.034C91.5413 92.034 91.2863 91.932 91.0936 91.728C90.9009 91.524 90.8046 91.2917 90.8046 91.031ZM99.6561 92.153C98.8628 92.153 98.1431 92.0283 97.4971 91.779C96.8625 91.5297 96.3185 91.1613 95.8651 90.674C95.4118 90.1753 95.0605 89.569 94.8111 88.855C94.5731 88.141 94.4541 87.3137 94.4541 86.373C94.4541 85.3077 94.5958 84.3727 94.8791 83.568C95.1625 82.7633 95.5421 82.0947 96.0181 81.562C96.5055 81.018 97.0665 80.6157 97.7011 80.355C98.3471 80.083 99.0271 79.947 99.7411 79.947C100.772 79.947 101.651 80.1567 102.376 80.576C103.101 80.9953 103.628 81.562 103.957 82.276L102.801 83.058C102.472 82.548 102.047 82.1457 101.526 81.851C101.016 81.545 100.398 81.392 99.6731 81.392C99.1065 81.392 98.5965 81.5053 98.1431 81.732C97.6898 81.9473 97.2988 82.2647 96.9701 82.684C96.6415 83.092 96.3865 83.5907 96.2051 84.18C96.0238 84.758 95.9275 85.4097 95.9161 86.135V86.322C96.0748 85.948 96.2901 85.6193 96.5621 85.336C96.8455 85.0527 97.1628 84.8147 97.5141 84.622C97.8655 84.4293 98.2395 84.2877 98.6361 84.197C99.0441 84.095 99.4578 84.044 99.8771 84.044C100.568 84.044 101.192 84.1403 101.747 84.333C102.302 84.5257 102.773 84.7977 103.158 85.149C103.555 85.5003 103.855 85.9197 104.059 86.407C104.263 86.8943 104.365 87.4327 104.365 88.022C104.365 88.634 104.24 89.195 103.991 89.705C103.753 90.215 103.419 90.6513 102.988 91.014C102.569 91.3767 102.07 91.66 101.492 91.864C100.925 92.0567 100.313 92.153 99.6561 92.153ZM99.6391 90.708C100.115 90.708 100.546 90.6457 100.931 90.521C101.328 90.3963 101.668 90.2207 101.951 89.994C102.246 89.756 102.472 89.4783 102.631 89.161C102.79 88.8437 102.869 88.4867 102.869 88.09C102.869 87.6593 102.79 87.2853 102.631 86.968C102.484 86.6393 102.274 86.3673 102.002 86.152C101.73 85.9253 101.401 85.761 101.016 85.659C100.642 85.5457 100.234 85.489 99.7921 85.489C98.7041 85.489 97.8768 85.7213 97.3101 86.186C96.7548 86.6507 96.4771 87.2457 96.4771 87.971C96.4771 88.345 96.5508 88.6963 96.6981 89.025C96.8455 89.3537 97.0551 89.6427 97.3271 89.892C97.5991 90.1413 97.9278 90.3397 98.3131 90.487C98.7098 90.6343 99.1518 90.708 99.6391 90.708Z" fill="#222429"/>
<path d="M251.822 206.07C251.906 205.669 252.046 205.286 252.242 204.922C252.438 204.558 252.69 204.241 252.998 203.97C253.306 203.69 253.675 203.471 254.104 203.312C254.533 203.153 255.023 203.074 255.574 203.074C256.087 203.074 256.545 203.149 256.946 203.298C257.347 203.438 257.688 203.639 257.968 203.9C258.248 204.161 258.458 204.474 258.598 204.838C258.747 205.202 258.822 205.599 258.822 206.028C258.822 206.635 258.691 207.195 258.43 207.708C258.178 208.212 257.856 208.674 257.464 209.094C257.072 209.514 256.643 209.897 256.176 210.242C255.709 210.578 255.266 210.877 254.846 211.138L253.768 211.81H259.186V213H251.556V212.02L253.684 210.606C254.384 210.139 254.981 209.71 255.476 209.318C255.971 208.917 256.372 208.539 256.68 208.184C256.997 207.829 257.226 207.489 257.366 207.162C257.515 206.826 257.59 206.49 257.59 206.154C257.59 205.809 257.534 205.515 257.422 205.272C257.319 205.029 257.17 204.833 256.974 204.684C256.787 204.535 256.563 204.427 256.302 204.362C256.05 204.297 255.779 204.264 255.49 204.264C255.07 204.264 254.706 204.329 254.398 204.46C254.099 204.591 253.843 204.763 253.628 204.978C253.423 205.183 253.259 205.417 253.138 205.678C253.026 205.93 252.951 206.182 252.914 206.434L251.822 206.07ZM260.156 208.1C260.156 207.372 260.24 206.705 260.408 206.098C260.576 205.482 260.828 204.95 261.164 204.502C261.51 204.054 261.944 203.704 262.466 203.452C262.989 203.2 263.605 203.074 264.314 203.074C265.024 203.074 265.64 203.191 266.162 203.424C266.685 203.657 267.119 203.993 267.464 204.432C267.81 204.871 268.066 205.403 268.234 206.028C268.402 206.644 268.486 207.335 268.486 208.1C268.486 208.828 268.402 209.5 268.234 210.116C268.076 210.723 267.824 211.25 267.478 211.698C267.142 212.146 266.713 212.496 266.19 212.748C265.668 213 265.052 213.126 264.342 213.126C263.67 213.126 263.073 213 262.55 212.748C262.028 212.496 261.589 212.146 261.234 211.698C260.88 211.25 260.609 210.723 260.422 210.116C260.245 209.5 260.156 208.828 260.156 208.1ZM261.388 208.1C261.388 209.295 261.65 210.233 262.172 210.914C262.695 211.595 263.418 211.936 264.342 211.936C265.35 211.936 266.088 211.595 266.554 210.914C267.021 210.233 267.254 209.295 267.254 208.1C267.254 206.905 267.016 205.967 266.54 205.286C266.064 204.605 265.322 204.264 264.314 204.264C263.81 204.264 263.376 204.353 263.012 204.53C262.648 204.707 262.345 204.964 262.102 205.3C261.86 205.636 261.678 206.042 261.556 206.518C261.444 206.985 261.388 207.512 261.388 208.1ZM269.63 206.07C269.714 205.669 269.854 205.286 270.05 204.922C270.246 204.558 270.498 204.241 270.806 203.97C271.114 203.69 271.483 203.471 271.912 203.312C272.341 203.153 272.831 203.074 273.382 203.074C273.895 203.074 274.353 203.149 274.754 203.298C275.155 203.438 275.496 203.639 275.776 203.9C276.056 204.161 276.266 204.474 276.406 204.838C276.555 205.202 276.63 205.599 276.63 206.028C276.63 206.635 276.499 207.195 276.238 207.708C275.986 208.212 275.664 208.674 275.272 209.094C274.88 209.514 274.451 209.897 273.984 210.242C273.517 210.578 273.074 210.877 272.654 211.138L271.576 211.81H276.994V213H269.364V212.02L271.492 210.606C272.192 210.139 272.789 209.71 273.284 209.318C273.779 208.917 274.18 208.539 274.488 208.184C274.805 207.829 275.034 207.489 275.174 207.162C275.323 206.826 275.398 206.49 275.398 206.154C275.398 205.809 275.342 205.515 275.23 205.272C275.127 205.029 274.978 204.833 274.782 204.684C274.595 204.535 274.371 204.427 274.11 204.362C273.858 204.297 273.587 204.264 273.298 204.264C272.878 204.264 272.514 204.329 272.206 204.46C271.907 204.591 271.651 204.763 271.436 204.978C271.231 205.183 271.067 205.417 270.946 205.678C270.834 205.93 270.759 206.182 270.722 206.434L269.63 206.07ZM277.964 208.1C277.964 207.372 278.048 206.705 278.216 206.098C278.384 205.482 278.636 204.95 278.972 204.502C279.318 204.054 279.752 203.704 280.274 203.452C280.797 203.2 281.413 203.074 282.122 203.074C282.832 203.074 283.448 203.191 283.97 203.424C284.493 203.657 284.927 203.993 285.272 204.432C285.618 204.871 285.874 205.403 286.042 206.028C286.21 206.644 286.294 207.335 286.294 208.1C286.294 208.828 286.21 209.5 286.042 210.116C285.884 210.723 285.632 211.25 285.286 211.698C284.95 212.146 284.521 212.496 283.998 212.748C283.476 213 282.86 213.126 282.15 213.126C281.478 213.126 280.881 213 280.358 212.748C279.836 212.496 279.397 212.146 279.042 211.698C278.688 211.25 278.417 210.723 278.23 210.116C278.053 209.5 277.964 208.828 277.964 208.1ZM279.196 208.1C279.196 209.295 279.458 210.233 279.98 210.914C280.503 211.595 281.226 211.936 282.15 211.936C283.158 211.936 283.896 211.595 284.362 210.914C284.829 210.233 285.062 209.295 285.062 208.1C285.062 206.905 284.824 205.967 284.348 205.286C283.872 204.605 283.13 204.264 282.122 204.264C281.618 204.264 281.184 204.353 280.82 204.53C280.456 204.707 280.153 204.964 279.91 205.3C279.668 205.636 279.486 206.042 279.364 206.518C279.252 206.985 279.196 207.512 279.196 208.1Z" fill="#777F8C"/>
<rect x="244" y="65" width="50" height="128" fill="#BFCED4"/>
<rect x="244" y="65" width="50" height="4" fill="#A6B2BC"/>
<path d="M249.242 46.99C249.401 46.548 249.616 46.1457 249.888 45.783C250.16 45.409 250.489 45.086 250.874 44.814C251.271 44.542 251.724 44.3323 252.234 44.185C252.756 44.0263 253.339 43.947 253.985 43.947C254.563 43.947 255.096 44.0207 255.583 44.168C256.082 44.304 256.507 44.5023 256.858 44.763C257.221 45.0123 257.499 45.324 257.691 45.698C257.895 46.072 257.997 46.4857 257.997 46.939C257.997 47.6303 257.816 48.2197 257.453 48.707C257.102 49.1943 256.586 49.5343 255.906 49.727C256.201 49.7497 256.49 49.8233 256.773 49.948C257.057 50.0613 257.306 50.237 257.521 50.475C257.748 50.7017 257.929 50.9907 258.065 51.342C258.201 51.682 258.269 52.09 258.269 52.566C258.269 53.144 258.156 53.6597 257.929 54.113C257.714 54.555 257.408 54.929 257.011 55.235C256.626 55.5297 256.167 55.7563 255.634 55.915C255.102 56.0737 254.529 56.153 253.917 56.153C253.249 56.153 252.637 56.0737 252.081 55.915C251.537 55.7563 251.056 55.541 250.636 55.269C250.217 54.9857 249.86 54.6513 249.565 54.266C249.282 53.8693 249.067 53.433 248.919 52.957L250.296 52.362C250.444 52.668 250.619 52.9627 250.823 53.246C251.027 53.5293 251.277 53.7787 251.571 53.994C251.866 54.2093 252.212 54.385 252.608 54.521C253.005 54.6457 253.475 54.708 254.019 54.708C254.869 54.708 255.538 54.5267 256.025 54.164C256.524 53.79 256.773 53.263 256.773 52.583C256.773 52.209 256.694 51.8973 256.535 51.648C256.377 51.3873 256.156 51.1833 255.872 51.036C255.589 50.8773 255.255 50.7697 254.869 50.713C254.495 50.645 254.087 50.611 253.645 50.611H252.319V49.2H253.373C254.359 49.2 255.124 49.013 255.668 48.639C256.224 48.265 256.501 47.7947 256.501 47.228C256.501 46.616 256.269 46.157 255.804 45.851C255.34 45.545 254.711 45.392 253.917 45.392C253.43 45.392 252.999 45.4543 252.625 45.579C252.251 45.7037 251.923 45.868 251.639 46.072C251.367 46.276 251.135 46.5083 250.942 46.769C250.761 47.0297 250.619 47.296 250.517 47.568L249.242 46.99ZM264.409 56.153C263.378 56.153 262.494 55.9547 261.757 55.558C261.032 55.1613 260.488 54.657 260.125 54.045L261.349 53.195C261.701 53.6823 262.16 54.0563 262.726 54.317C263.304 54.5777 263.933 54.708 264.613 54.708C265.135 54.708 265.611 54.606 266.041 54.402C266.483 54.1867 266.863 53.892 267.18 53.518C267.509 53.144 267.764 52.702 267.945 52.192C268.127 51.682 268.217 51.1267 268.217 50.526C268.217 50.458 268.217 50.39 268.217 50.322C268.217 50.254 268.212 50.186 268.2 50.118C267.928 50.764 267.464 51.3023 266.806 51.733C266.16 52.1523 265.339 52.362 264.341 52.362C263.684 52.362 263.078 52.2657 262.522 52.073C261.967 51.869 261.485 51.5913 261.077 51.24C260.669 50.8773 260.352 50.4467 260.125 49.948C259.899 49.4493 259.785 48.894 259.785 48.282C259.785 47.6247 259.904 47.0297 260.142 46.497C260.392 45.953 260.737 45.494 261.179 45.12C261.621 44.746 262.148 44.457 262.76 44.253C263.384 44.049 264.069 43.947 264.817 43.947C265.577 43.947 266.257 44.0773 266.857 44.338C267.469 44.5873 267.985 44.9613 268.404 45.46C268.835 45.9587 269.164 46.5763 269.39 47.313C269.617 48.0383 269.73 48.877 269.73 49.829C269.73 50.8717 269.6 51.7897 269.339 52.583C269.09 53.365 268.727 54.0223 268.251 54.555C267.787 55.0763 267.226 55.473 266.568 55.745C265.922 56.017 265.203 56.153 264.409 56.153ZM264.613 50.917C265.101 50.917 265.543 50.849 265.939 50.713C266.336 50.577 266.67 50.39 266.942 50.152C267.226 49.9027 267.441 49.6137 267.588 49.285C267.736 48.9563 267.809 48.605 267.809 48.231C267.809 47.8683 267.753 47.517 267.639 47.177C267.526 46.837 267.345 46.5367 267.095 46.276C266.846 46.004 266.517 45.7887 266.109 45.63C265.713 45.4713 265.225 45.392 264.647 45.392C263.593 45.392 262.766 45.63 262.165 46.106C261.576 46.5707 261.281 47.2563 261.281 48.163C261.281 49.0243 261.582 49.6987 262.182 50.186C262.783 50.6733 263.593 50.917 264.613 50.917ZM271.294 55.031C271.294 54.8043 271.391 54.589 271.583 54.385C271.776 54.181 272.031 54.079 272.348 54.079C272.643 54.079 272.887 54.181 273.079 54.385C273.272 54.589 273.368 54.8043 273.368 55.031C273.368 55.2917 273.272 55.524 273.079 55.728C272.887 55.932 272.643 56.034 272.348 56.034C272.031 56.034 271.776 55.932 271.583 55.728C271.391 55.524 271.294 55.2917 271.294 55.031ZM275.063 47.585C275.165 47.0977 275.335 46.633 275.573 46.191C275.811 45.749 276.117 45.3637 276.491 45.035C276.865 44.695 277.313 44.4287 277.834 44.236C278.355 44.0433 278.95 43.947 279.619 43.947C280.242 43.947 280.798 44.0377 281.285 44.219C281.772 44.389 282.186 44.6327 282.526 44.95C282.866 45.2673 283.121 45.647 283.291 46.089C283.472 46.531 283.563 47.0127 283.563 47.534C283.563 48.2707 283.404 48.9507 283.087 49.574C282.781 50.186 282.39 50.747 281.914 51.257C281.438 51.767 280.917 52.2317 280.35 52.651C279.783 53.059 279.245 53.4217 278.735 53.739L277.426 54.555H284.005V56H274.74V54.81L277.324 53.093C278.174 52.5263 278.899 52.005 279.5 51.529C280.101 51.0417 280.588 50.5827 280.962 50.152C281.347 49.7213 281.625 49.3077 281.795 48.911C281.976 48.503 282.067 48.095 282.067 47.687C282.067 47.2677 281.999 46.9107 281.863 46.616C281.738 46.3213 281.557 46.0833 281.319 45.902C281.092 45.7207 280.82 45.5903 280.503 45.511C280.197 45.4317 279.868 45.392 279.517 45.392C279.007 45.392 278.565 45.4713 278.191 45.63C277.828 45.7887 277.517 45.9983 277.256 46.259C277.007 46.5083 276.808 46.7917 276.661 47.109C276.525 47.415 276.434 47.721 276.389 48.027L275.063 47.585Z" fill="#222429"/>
<path d="M343.818 206.07C343.902 205.669 344.042 205.286 344.238 204.922C344.434 204.558 344.686 204.241 344.994 203.97C345.302 203.69 345.671 203.471 346.1 203.312C346.53 203.153 347.02 203.074 347.57 203.074C348.084 203.074 348.541 203.149 348.942 203.298C349.344 203.438 349.684 203.639 349.964 203.9C350.244 204.161 350.454 204.474 350.594 204.838C350.744 205.202 350.818 205.599 350.818 206.028C350.818 206.635 350.688 207.195 350.426 207.708C350.174 208.212 349.852 208.674 349.46 209.094C349.068 209.514 348.639 209.897 348.172 210.242C347.706 210.578 347.262 210.877 346.842 211.138L345.764 211.81H351.182V213H343.552V212.02L345.68 210.606C346.38 210.139 346.978 209.71 347.472 209.318C347.967 208.917 348.368 208.539 348.676 208.184C348.994 207.829 349.222 207.489 349.362 207.162C349.512 206.826 349.586 206.49 349.586 206.154C349.586 205.809 349.53 205.515 349.418 205.272C349.316 205.029 349.166 204.833 348.97 204.684C348.784 204.535 348.56 204.427 348.298 204.362C348.046 204.297 347.776 204.264 347.486 204.264C347.066 204.264 346.702 204.329 346.394 204.46C346.096 204.591 345.839 204.763 345.624 204.978C345.419 205.183 345.256 205.417 345.134 205.678C345.022 205.93 344.948 206.182 344.91 206.434L343.818 206.07ZM352.152 208.1C352.152 207.372 352.236 206.705 352.404 206.098C352.572 205.482 352.824 204.95 353.16 204.502C353.506 204.054 353.94 203.704 354.462 203.452C354.985 203.2 355.601 203.074 356.31 203.074C357.02 203.074 357.636 203.191 358.158 203.424C358.681 203.657 359.115 203.993 359.46 204.432C359.806 204.871 360.062 205.403 360.23 206.028C360.398 206.644 360.482 207.335 360.482 208.1C360.482 208.828 360.398 209.5 360.23 210.116C360.072 210.723 359.82 211.25 359.474 211.698C359.138 212.146 358.709 212.496 358.186 212.748C357.664 213 357.048 213.126 356.338 213.126C355.666 213.126 355.069 213 354.546 212.748C354.024 212.496 353.585 212.146 353.23 211.698C352.876 211.25 352.605 210.723 352.418 210.116C352.241 209.5 352.152 208.828 352.152 208.1ZM353.384 208.1C353.384 209.295 353.646 210.233 354.168 210.914C354.691 211.595 355.414 211.936 356.338 211.936C357.346 211.936 358.084 211.595 358.55 210.914C359.017 210.233 359.25 209.295 359.25 208.1C359.25 206.905 359.012 205.967 358.536 205.286C358.06 204.605 357.318 204.264 356.31 204.264C355.806 204.264 355.372 204.353 355.008 204.53C354.644 204.707 354.341 204.964 354.098 205.3C353.856 205.636 353.674 206.042 353.552 206.518C353.44 206.985 353.384 207.512 353.384 208.1ZM361.626 206.07C361.71 205.669 361.85 205.286 362.046 204.922C362.242 204.558 362.494 204.241 362.802 203.97C363.11 203.69 363.479 203.471 363.908 203.312C364.337 203.153 364.827 203.074 365.378 203.074C365.891 203.074 366.349 203.149 366.75 203.298C367.151 203.438 367.492 203.639 367.772 203.9C368.052 204.161 368.262 204.474 368.402 204.838C368.551 205.202 368.626 205.599 368.626 206.028C368.626 206.635 368.495 207.195 368.234 207.708C367.982 208.212 367.66 208.674 367.268 209.094C366.876 209.514 366.447 209.897 365.98 210.242C365.513 210.578 365.07 210.877 364.65 211.138L363.572 211.81H368.99V213H361.36V212.02L363.488 210.606C364.188 210.139 364.785 209.71 365.28 209.318C365.775 208.917 366.176 208.539 366.484 208.184C366.801 207.829 367.03 207.489 367.17 207.162C367.319 206.826 367.394 206.49 367.394 206.154C367.394 205.809 367.338 205.515 367.226 205.272C367.123 205.029 366.974 204.833 366.778 204.684C366.591 204.535 366.367 204.427 366.106 204.362C365.854 204.297 365.583 204.264 365.294 204.264C364.874 204.264 364.51 204.329 364.202 204.46C363.903 204.591 363.647 204.763 363.432 204.978C363.227 205.183 363.063 205.417 362.942 205.678C362.83 205.93 362.755 206.182 362.718 206.434L361.626 206.07ZM372.76 203.144H373.558V213H372.382V204.642L369.848 205.804L369.4 204.754L372.76 203.144Z" fill="#777F8C"/>
<rect x="334" y="35" width="50" height="158" fill="#BFCED4"/>
<rect x="334" y="35" width="50" height="4" fill="#A6B2BC"/>
<path d="M347.904 23.62H340.577V22.532L348.074 14.1H349.332V22.175H351.542V23.62H349.332V26H347.904V23.62ZM347.904 22.175V16.48L342.617 22.175H347.904ZM357.762 19.217C358.147 19.217 358.504 19.1717 358.833 19.081C359.173 18.979 359.467 18.843 359.717 18.673C359.966 18.503 360.159 18.299 360.295 18.061C360.442 17.823 360.516 17.5623 360.516 17.279C360.516 16.667 360.261 16.2023 359.751 15.885C359.252 15.5563 358.487 15.392 357.456 15.392C356.458 15.392 355.705 15.5563 355.195 15.885C354.696 16.2137 354.447 16.6783 354.447 17.279C354.447 17.551 354.515 17.806 354.651 18.044C354.787 18.282 354.974 18.4917 355.212 18.673C355.461 18.843 355.756 18.979 356.096 19.081C356.447 19.1717 356.827 19.217 357.235 19.217H357.762ZM357.303 20.56C356.827 20.56 356.385 20.6167 355.977 20.73C355.58 20.832 355.24 20.9793 354.957 21.172C354.673 21.3533 354.452 21.5743 354.294 21.835C354.135 22.0843 354.056 22.3507 354.056 22.634C354.056 23.246 354.339 23.7447 354.906 24.13C355.484 24.5153 356.339 24.708 357.473 24.708C358.64 24.708 359.501 24.5267 360.057 24.164C360.612 23.79 360.89 23.2857 360.89 22.651C360.89 21.9823 360.601 21.4667 360.023 21.104C359.456 20.7413 358.691 20.56 357.728 20.56H357.303ZM357.49 26.153C356.73 26.153 356.045 26.0793 355.433 25.932C354.832 25.7733 354.316 25.5523 353.886 25.269C353.466 24.9743 353.138 24.623 352.9 24.215C352.673 23.7957 352.56 23.3197 352.56 22.787C352.56 22.0843 352.769 21.478 353.189 20.968C353.619 20.4467 354.192 20.0727 354.906 19.846C354.566 19.7327 354.271 19.5853 354.022 19.404C353.772 19.2113 353.568 18.996 353.41 18.758C353.251 18.52 353.132 18.2707 353.053 18.01C352.985 17.738 352.951 17.4603 352.951 17.177C352.951 16.191 353.336 15.409 354.107 14.831C354.889 14.2417 356.011 13.947 357.473 13.947C358.946 13.947 360.068 14.2417 360.839 14.831C361.621 15.409 362.012 16.191 362.012 17.177C362.012 17.789 361.842 18.3047 361.502 18.724C361.173 19.1433 360.714 19.489 360.125 19.761C360.941 20.0103 361.519 20.3843 361.859 20.883C362.21 21.3817 362.386 21.9937 362.386 22.719C362.386 23.263 362.272 23.7503 362.046 24.181C361.819 24.6003 361.49 24.9573 361.06 25.252C360.64 25.5467 360.125 25.7733 359.513 25.932C358.912 26.0793 358.238 26.153 357.49 26.153ZM364 25.031C364 24.8043 364.097 24.589 364.289 24.385C364.482 24.181 364.737 24.079 365.054 24.079C365.349 24.079 365.593 24.181 365.785 24.385C365.978 24.589 366.074 24.8043 366.074 25.031C366.074 25.2917 365.978 25.524 365.785 25.728C365.593 25.932 365.349 26.034 365.054 26.034C364.737 26.034 364.482 25.932 364.289 25.728C364.097 25.524 364 25.2917 364 25.031ZM368.857 14.1H376.337V15.545H370.166L369.724 18.741C369.985 18.5483 370.336 18.3897 370.778 18.265C371.231 18.129 371.781 18.061 372.427 18.061C373.141 18.061 373.776 18.163 374.331 18.367C374.886 18.571 375.351 18.8543 375.725 19.217C376.099 19.5797 376.382 20.0047 376.575 20.492C376.779 20.9793 376.881 21.5007 376.881 22.056C376.881 22.6567 376.762 23.2063 376.524 23.705C376.297 24.2037 375.974 24.6343 375.555 24.997C375.147 25.3597 374.66 25.643 374.093 25.847C373.538 26.051 372.931 26.153 372.274 26.153C371.73 26.153 371.209 26.0907 370.71 25.966C370.211 25.8413 369.747 25.6543 369.316 25.405C368.897 25.1557 368.523 24.8553 368.194 24.504C367.877 24.1413 367.622 23.722 367.429 23.246L368.789 22.668C368.902 22.9287 369.061 23.1837 369.265 23.433C369.469 23.671 369.718 23.8863 370.013 24.079C370.308 24.2717 370.642 24.4247 371.016 24.538C371.39 24.6513 371.809 24.708 372.274 24.708C372.795 24.708 373.249 24.64 373.634 24.504C374.031 24.3567 374.359 24.164 374.62 23.926C374.881 23.688 375.073 23.416 375.198 23.11C375.323 22.7927 375.385 22.4583 375.385 22.107C375.385 21.3023 375.085 20.6677 374.484 20.203C373.895 19.7383 373.073 19.506 372.019 19.506C371.418 19.506 370.914 19.591 370.506 19.761C370.109 19.9197 369.735 20.1747 369.384 20.526L368.16 20.203L368.857 14.1Z" fill="#222429"/>
<path d="M432.294 206.07C432.378 205.669 432.518 205.286 432.714 204.922C432.91 204.558 433.162 204.241 433.47 203.97C433.778 203.69 434.146 203.471 434.576 203.312C435.005 203.153 435.495 203.074 436.046 203.074C436.559 203.074 437.016 203.149 437.418 203.298C437.819 203.438 438.16 203.639 438.44 203.9C438.72 204.161 438.93 204.474 439.07 204.838C439.219 205.202 439.294 205.599 439.294 206.028C439.294 206.635 439.163 207.195 438.902 207.708C438.65 208.212 438.328 208.674 437.936 209.094C437.544 209.514 437.114 209.897 436.648 210.242C436.181 210.578 435.738 210.877 435.318 211.138L434.24 211.81H439.658V213H432.028V212.02L434.156 210.606C434.856 210.139 435.453 209.71 435.948 209.318C436.442 208.917 436.844 208.539 437.152 208.184C437.469 207.829 437.698 207.489 437.838 207.162C437.987 206.826 438.062 206.49 438.062 206.154C438.062 205.809 438.006 205.515 437.894 205.272C437.791 205.029 437.642 204.833 437.446 204.684C437.259 204.535 437.035 204.427 436.774 204.362C436.522 204.297 436.251 204.264 435.962 204.264C435.542 204.264 435.178 204.329 434.87 204.46C434.571 204.591 434.314 204.763 434.1 204.978C433.894 205.183 433.731 205.417 433.61 205.678C433.498 205.93 433.423 206.182 433.386 206.434L432.294 206.07ZM440.628 208.1C440.628 207.372 440.712 206.705 440.88 206.098C441.048 205.482 441.3 204.95 441.636 204.502C441.981 204.054 442.415 203.704 442.938 203.452C443.461 203.2 444.077 203.074 444.786 203.074C445.495 203.074 446.111 203.191 446.634 203.424C447.157 203.657 447.591 203.993 447.936 204.432C448.281 204.871 448.538 205.403 448.706 206.028C448.874 206.644 448.958 207.335 448.958 208.1C448.958 208.828 448.874 209.5 448.706 210.116C448.547 210.723 448.295 211.25 447.95 211.698C447.614 212.146 447.185 212.496 446.662 212.748C446.139 213 445.523 213.126 444.814 213.126C444.142 213.126 443.545 213 443.022 212.748C442.499 212.496 442.061 212.146 441.706 211.698C441.351 211.25 441.081 210.723 440.894 210.116C440.717 209.5 440.628 208.828 440.628 208.1ZM441.86 208.1C441.86 209.295 442.121 210.233 442.644 210.914C443.167 211.595 443.89 211.936 444.814 211.936C445.822 211.936 446.559 211.595 447.026 210.914C447.493 210.233 447.726 209.295 447.726 208.1C447.726 206.905 447.488 205.967 447.012 205.286C446.536 204.605 445.794 204.264 444.786 204.264C444.282 204.264 443.848 204.353 443.484 204.53C443.12 204.707 442.817 204.964 442.574 205.3C442.331 205.636 442.149 206.042 442.028 206.518C441.916 206.985 441.86 207.512 441.86 208.1ZM450.102 206.07C450.186 205.669 450.326 205.286 450.522 204.922C450.718 204.558 450.97 204.241 451.278 203.97C451.586 203.69 451.954 203.471 452.384 203.312C452.813 203.153 453.303 203.074 453.854 203.074C454.367 203.074 454.824 203.149 455.226 203.298C455.627 203.438 455.968 203.639 456.248 203.9C456.528 204.161 456.738 204.474 456.878 204.838C457.027 205.202 457.102 205.599 457.102 206.028C457.102 206.635 456.971 207.195 456.71 207.708C456.458 208.212 456.136 208.674 455.744 209.094C455.352 209.514 454.922 209.897 454.456 210.242C453.989 210.578 453.546 210.877 453.126 211.138L452.048 211.81H457.466V213H449.836V212.02L451.964 210.606C452.664 210.139 453.261 209.71 453.756 209.318C454.25 208.917 454.652 208.539 454.96 208.184C455.277 207.829 455.506 207.489 455.646 207.162C455.795 206.826 455.87 206.49 455.87 206.154C455.87 205.809 455.814 205.515 455.702 205.272C455.599 205.029 455.45 204.833 455.254 204.684C455.067 204.535 454.843 204.427 454.582 204.362C454.33 204.297 454.059 204.264 453.77 204.264C453.35 204.264 452.986 204.329 452.678 204.46C452.379 204.591 452.122 204.763 451.908 204.978C451.702 205.183 451.539 205.417 451.418 205.678C451.306 205.93 451.231 206.182 451.194 206.434L450.102 206.07ZM458.534 206.07C458.618 205.669 458.758 205.286 458.954 204.922C459.15 204.558 459.402 204.241 459.71 203.97C460.018 203.69 460.387 203.471 460.816 203.312C461.245 203.153 461.735 203.074 462.286 203.074C462.799 203.074 463.257 203.149 463.658 203.298C464.059 203.438 464.4 203.639 464.68 203.9C464.96 204.161 465.17 204.474 465.31 204.838C465.459 205.202 465.534 205.599 465.534 206.028C465.534 206.635 465.403 207.195 465.142 207.708C464.89 208.212 464.568 208.674 464.176 209.094C463.784 209.514 463.355 209.897 462.888 210.242C462.421 210.578 461.978 210.877 461.558 211.138L460.48 211.81H465.898V213H458.268V212.02L460.396 210.606C461.096 210.139 461.693 209.71 462.188 209.318C462.683 208.917 463.084 208.539 463.392 208.184C463.709 207.829 463.938 207.489 464.078 207.162C464.227 206.826 464.302 206.49 464.302 206.154C464.302 205.809 464.246 205.515 464.134 205.272C464.031 205.029 463.882 204.833 463.686 204.684C463.499 204.535 463.275 204.427 463.014 204.362C462.762 204.297 462.491 204.264 462.202 204.264C461.782 204.264 461.418 204.329 461.11 204.46C460.811 204.591 460.555 204.763 460.34 204.978C460.135 205.183 459.971 205.417 459.85 205.678C459.738 205.93 459.663 206.182 459.626 206.434L458.534 206.07Z" fill="#5FAF2D"/>
<rect x="424" y="22" width="50" height="171" fill="#5FAF2D"/>
<rect x="424" y="22" width="50" height="4" fill="#3D7917"/>
<path d="M430.917 1.1H438.397V2.545H432.226L431.784 5.741C432.044 5.54833 432.396 5.38967 432.838 5.265C433.291 5.129 433.841 5.061 434.487 5.061C435.201 5.061 435.835 5.163 436.391 5.367C436.946 5.571 437.411 5.85433 437.785 6.217C438.159 6.57967 438.442 7.00467 438.635 7.492C438.839 7.97933 438.941 8.50067 438.941 9.056C438.941 9.65667 438.822 10.2063 438.584 10.705C438.357 11.2037 438.034 11.6343 437.615 11.997C437.207 12.3597 436.719 12.643 436.153 12.847C435.597 13.051 434.991 13.153 434.334 13.153C433.79 13.153 433.268 13.0907 432.77 12.966C432.271 12.8413 431.806 12.6543 431.376 12.405C430.956 12.1557 430.582 11.8553 430.254 11.504C429.936 11.1413 429.681 10.722 429.489 10.246L430.849 9.668C430.962 9.92867 431.121 10.1837 431.325 10.433C431.529 10.671 431.778 10.8863 432.073 11.079C432.367 11.2717 432.702 11.4247 433.076 11.538C433.45 11.6513 433.869 11.708 434.334 11.708C434.855 11.708 435.308 11.64 435.694 11.504C436.09 11.3567 436.419 11.164 436.68 10.926C436.94 10.688 437.133 10.416 437.258 10.11C437.382 9.79267 437.445 9.45833 437.445 9.107C437.445 8.30233 437.144 7.66767 436.544 7.203C435.954 6.73833 435.133 6.506 434.079 6.506C433.478 6.506 432.974 6.591 432.566 6.761C432.169 6.91967 431.795 7.17467 431.444 7.526L430.22 7.203L430.917 1.1ZM440.52 4.585C440.622 4.09767 440.792 3.633 441.03 3.191C441.268 2.749 441.574 2.36367 441.948 2.035C442.322 1.695 442.77 1.42867 443.291 1.236C443.812 1.04333 444.407 0.946999 445.076 0.946999C445.699 0.946999 446.255 1.03767 446.742 1.219C447.229 1.389 447.643 1.63267 447.983 1.95C448.323 2.26733 448.578 2.647 448.748 3.089C448.929 3.531 449.02 4.01267 449.02 4.534C449.02 5.27067 448.861 5.95067 448.544 6.574C448.238 7.186 447.847 7.747 447.371 8.257C446.895 8.767 446.374 9.23167 445.807 9.651C445.24 10.059 444.702 10.4217 444.192 10.739L442.883 11.555H449.462V13H440.197V11.81L442.781 10.093C443.631 9.52633 444.356 9.005 444.957 8.529C445.558 8.04167 446.045 7.58267 446.419 7.152C446.804 6.72133 447.082 6.30767 447.252 5.911C447.433 5.503 447.524 5.095 447.524 4.687C447.524 4.26767 447.456 3.91067 447.32 3.616C447.195 3.32133 447.014 3.08333 446.776 2.902C446.549 2.72067 446.277 2.59033 445.96 2.511C445.654 2.43167 445.325 2.392 444.974 2.392C444.464 2.392 444.022 2.47133 443.648 2.63C443.285 2.78867 442.974 2.99833 442.713 3.259C442.464 3.50833 442.265 3.79167 442.118 4.109C441.982 4.415 441.891 4.721 441.846 5.027L440.52 4.585ZM450.929 12.031C450.929 11.8043 451.025 11.589 451.218 11.385C451.411 11.181 451.666 11.079 451.983 11.079C452.278 11.079 452.521 11.181 452.714 11.385C452.907 11.589 453.003 11.8043 453.003 12.031C453.003 12.2917 452.907 12.524 452.714 12.728C452.521 12.932 452.278 13.034 451.983 13.034C451.666 13.034 451.411 12.932 451.218 12.728C451.025 12.524 450.929 12.2917 450.929 12.031ZM454.698 4.585C454.8 4.09767 454.97 3.633 455.208 3.191C455.446 2.749 455.752 2.36367 456.126 2.035C456.5 1.695 456.947 1.42867 457.469 1.236C457.99 1.04333 458.585 0.946999 459.254 0.946999C459.877 0.946999 460.432 1.03767 460.92 1.219C461.407 1.389 461.821 1.63267 462.161 1.95C462.501 2.26733 462.756 2.647 462.926 3.089C463.107 3.531 463.198 4.01267 463.198 4.534C463.198 5.27067 463.039 5.95067 462.722 6.574C462.416 7.186 462.025 7.747 461.549 8.257C461.073 8.767 460.551 9.23167 459.985 9.651C459.418 10.059 458.88 10.4217 458.37 10.739L457.061 11.555H463.64V13H454.375V11.81L456.959 10.093C457.809 9.52633 458.534 9.005 459.135 8.529C459.735 8.04167 460.223 7.58267 460.597 7.152C460.982 6.72133 461.26 6.30767 461.43 5.911C461.611 5.503 461.702 5.095 461.702 4.687C461.702 4.26767 461.634 3.91067 461.498 3.616C461.373 3.32133 461.192 3.08333 460.954 2.902C460.727 2.72067 460.455 2.59033 460.138 2.511C459.832 2.43167 459.503 2.392 459.152 2.392C458.642 2.392 458.2 2.47133 457.826 2.63C457.463 2.78867 457.151 2.99833 456.891 3.259C456.641 3.50833 456.443 3.79167 456.296 4.109C456.16 4.415 456.069 4.721 456.024 5.027L454.698 4.585Z" fill="#222429"/>
<path d="M77.0975 147.932L77.4815 148.832L79.6535 147.836V155H80.6615V146.552H79.9775L77.0975 147.932ZM82.0359 154.316C82.0359 154.688 82.3359 155.024 82.7799 155.024C83.1999 155.024 83.4999 154.688 83.4999 154.316C83.4999 153.992 83.1999 153.644 82.7799 153.644C82.3359 153.644 82.0359 153.992 82.0359 154.316ZM87.48 155.108C89.724 155.108 91.236 153.572 91.236 150.644C91.236 147.956 89.916 146.492 87.768 146.492C85.656 146.492 84.216 147.68 84.216 149.552C84.216 151.268 85.572 152.432 87.432 152.432C88.836 152.432 89.772 151.76 90.156 150.848C90.168 150.944 90.168 151.04 90.168 151.136C90.168 152.84 89.088 154.088 87.624 154.088C86.676 154.088 85.812 153.704 85.32 153.02L84.456 153.62C84.96 154.472 86.04 155.108 87.48 155.108ZM87.624 151.412C86.196 151.412 85.272 150.68 85.272 149.468C85.272 148.196 86.172 147.512 87.648 147.512C89.28 147.512 89.88 148.496 89.88 149.516C89.88 150.584 89.016 151.412 87.624 151.412ZM93.1919 154.724L93.9839 155.18L100.152 146.888L99.3959 146.336L93.1919 154.724ZM91.8959 148.616C91.8959 149.816 92.8439 150.656 94.0919 150.656C95.3279 150.656 96.2759 149.816 96.2759 148.616C96.2759 147.404 95.3279 146.564 94.0919 146.564C92.8439 146.564 91.8959 147.404 91.8959 148.616ZM92.9039 148.616C92.9039 147.896 93.4559 147.428 94.0919 147.428C94.7159 147.428 95.2679 147.896 95.2679 148.616C95.2679 149.336 94.7159 149.804 94.0919 149.804C93.4799 149.804 92.9039 149.336 92.9039 148.616ZM97.0439 152.996C97.0439 154.196 97.9919 155.048 99.2399 155.048C100.476 155.048 101.424 154.196 101.424 152.996C101.424 151.796 100.476 150.956 99.2399 150.956C97.9919 150.956 97.0439 151.796 97.0439 152.996ZM98.0519 152.996C98.0519 152.276 98.6039 151.808 99.2399 151.808C99.8639 151.808 100.416 152.276 100.416 152.996C100.416 153.716 99.8639 154.184 99.2399 154.184C98.6279 154.184 98.0519 153.716 98.0519 152.996Z" fill="#50565E"/>
<rect x="64" y="165" width="50" height="1" fill="#9299A3"/>
<path d="M167.326 154.932L167.71 155.832L169.882 154.836V162H170.89V153.552H170.206L167.326 154.932ZM172.264 161.316C172.264 161.688 172.564 162.024 173.008 162.024C173.428 162.024 173.728 161.688 173.728 161.316C173.728 160.992 173.428 160.644 173.008 160.644C172.564 160.644 172.264 160.992 172.264 161.316ZM174.841 157.908L175.705 158.136C176.197 157.644 176.725 157.416 177.565 157.416C179.041 157.416 179.941 158.124 179.941 159.252C179.941 160.236 179.233 161.088 177.745 161.088C176.449 161.088 175.609 160.38 175.285 159.648L174.325 160.056C174.865 161.388 176.221 162.108 177.745 162.108C179.605 162.108 180.997 160.896 180.997 159.216C180.997 157.632 179.869 156.396 177.853 156.396C176.953 156.396 176.305 156.612 175.945 156.876L176.257 154.62H180.613V153.6H175.333L174.841 157.908ZM182.963 161.724L183.755 162.18L189.923 153.888L189.167 153.336L182.963 161.724ZM181.667 155.616C181.667 156.816 182.615 157.656 183.863 157.656C185.099 157.656 186.047 156.816 186.047 155.616C186.047 154.404 185.099 153.564 183.863 153.564C182.615 153.564 181.667 154.404 181.667 155.616ZM182.675 155.616C182.675 154.896 183.227 154.428 183.863 154.428C184.487 154.428 185.039 154.896 185.039 155.616C185.039 156.336 184.487 156.804 183.863 156.804C183.251 156.804 182.675 156.336 182.675 155.616ZM186.815 159.996C186.815 161.196 187.763 162.048 189.011 162.048C190.247 162.048 191.195 161.196 191.195 159.996C191.195 158.796 190.247 157.956 189.011 157.956C187.763 157.956 186.815 158.796 186.815 159.996ZM187.823 159.996C187.823 159.276 188.375 158.808 189.011 158.808C189.635 158.808 190.187 159.276 190.187 159.996C190.187 160.716 189.635 161.184 189.011 161.184C188.399 161.184 187.823 160.716 187.823 159.996Z" fill="#50565E"/>
<rect x="154" y="172" width="50" height="1" fill="#9299A3"/>
<path d="M256.715 145.372C256.847 144.52 257.495 143.512 258.923 143.512C259.931 143.512 260.723 143.944 260.723 145.132C260.723 146.284 259.775 147.352 257.375 148.948L255.551 150.16V151H262.091V149.98H257.447L258.371 149.404C259.811 148.504 261.779 147.1 261.779 145.024C261.779 143.536 260.759 142.492 258.995 142.492C257.111 142.492 256.067 143.668 255.779 145.06L256.715 145.372ZM262.766 150.316C262.766 150.688 263.066 151.024 263.51 151.024C263.93 151.024 264.23 150.688 264.23 150.316C264.23 149.992 263.93 149.644 263.51 149.644C263.066 149.644 262.766 149.992 262.766 150.316ZM264.982 146.8C264.982 149.284 266.254 151.108 268.57 151.108C271.018 151.108 272.122 149.284 272.122 146.8C272.122 144.16 270.982 142.492 268.546 142.492C266.122 142.492 264.982 144.316 264.982 146.8ZM266.038 146.8C266.038 144.784 266.83 143.512 268.546 143.512C270.274 143.512 271.066 144.748 271.066 146.8C271.066 148.84 270.298 150.088 268.57 150.088C266.998 150.088 266.038 148.84 266.038 146.8ZM274.075 150.724L274.867 151.18L281.035 142.888L280.279 142.336L274.075 150.724ZM272.779 144.616C272.779 145.816 273.727 146.656 274.975 146.656C276.211 146.656 277.159 145.816 277.159 144.616C277.159 143.404 276.211 142.564 274.975 142.564C273.727 142.564 272.779 143.404 272.779 144.616ZM273.787 144.616C273.787 143.896 274.339 143.428 274.975 143.428C275.599 143.428 276.151 143.896 276.151 144.616C276.151 145.336 275.599 145.804 274.975 145.804C274.363 145.804 273.787 145.336 273.787 144.616ZM277.927 148.996C277.927 150.196 278.875 151.048 280.123 151.048C281.359 151.048 282.307 150.196 282.307 148.996C282.307 147.796 281.359 146.956 280.123 146.956C278.875 146.956 277.927 147.796 277.927 148.996ZM278.935 148.996C278.935 148.276 279.487 147.808 280.123 147.808C280.747 147.808 281.299 148.276 281.299 148.996C281.299 149.716 280.747 150.184 280.123 150.184C279.511 150.184 278.935 149.716 278.935 148.996Z" fill="#50565E"/>
<rect x="244" y="161" width="50" height="1" fill="#9299A3"/>
<path d="M347.619 139.372C347.751 138.52 348.399 137.512 349.827 137.512C350.835 137.512 351.627 137.944 351.627 139.132C351.627 140.284 350.679 141.352 348.279 142.948L346.455 144.16V145H352.995V143.98H348.351L349.275 143.404C350.715 142.504 352.683 141.1 352.683 139.024C352.683 137.536 351.663 136.492 349.899 136.492C348.015 136.492 346.971 137.668 346.683 139.06L347.619 139.372ZM353.671 144.316C353.671 144.688 353.971 145.024 354.415 145.024C354.835 145.024 355.135 144.688 355.135 144.316C355.135 143.992 354.835 143.644 354.415 143.644C353.971 143.644 353.671 143.992 353.671 144.316ZM356.907 139.372C357.039 138.52 357.687 137.512 359.115 137.512C360.123 137.512 360.915 137.944 360.915 139.132C360.915 140.284 359.967 141.352 357.567 142.948L355.743 144.16V145H362.283V143.98H357.639L358.563 143.404C360.003 142.504 361.971 141.1 361.971 139.024C361.971 137.536 360.951 136.492 359.187 136.492C357.303 136.492 356.259 137.668 355.971 139.06L356.907 139.372ZM364.17 144.724L364.962 145.18L371.13 136.888L370.374 136.336L364.17 144.724ZM362.874 138.616C362.874 139.816 363.822 140.656 365.07 140.656C366.306 140.656 367.254 139.816 367.254 138.616C367.254 137.404 366.306 136.564 365.07 136.564C363.822 136.564 362.874 137.404 362.874 138.616ZM363.882 138.616C363.882 137.896 364.434 137.428 365.07 137.428C365.694 137.428 366.246 137.896 366.246 138.616C366.246 139.336 365.694 139.804 365.07 139.804C364.458 139.804 363.882 139.336 363.882 138.616ZM368.022 142.996C368.022 144.196 368.97 145.048 370.218 145.048C371.454 145.048 372.402 144.196 372.402 142.996C372.402 141.796 371.454 140.956 370.218 140.956C368.97 140.956 368.022 141.796 368.022 142.996ZM369.03 142.996C369.03 142.276 369.582 141.808 370.218 141.808C370.842 141.808 371.394 142.276 371.394 142.996C371.394 143.716 370.842 144.184 370.218 144.184C369.606 144.184 369.03 143.716 369.03 142.996Z" fill="#50565E"/>
<rect x="334" y="155" width="50" height="1" fill="#9299A3"/>
<path d="M436.715 144.372C436.847 143.52 437.495 142.512 438.923 142.512C439.931 142.512 440.723 142.944 440.723 144.132C440.723 145.284 439.775 146.352 437.375 147.948L435.551 149.16V150H442.091V148.98H437.447L438.371 148.404C439.811 147.504 441.779 146.1 441.779 144.024C441.779 142.536 440.759 141.492 438.995 141.492C437.111 141.492 436.067 142.668 435.779 144.06L436.715 144.372ZM442.766 149.316C442.766 149.688 443.066 150.024 443.51 150.024C443.93 150.024 444.23 149.688 444.23 149.316C444.23 148.992 443.93 148.644 443.51 148.644C443.066 148.644 442.766 148.992 442.766 149.316ZM444.982 145.8C444.982 148.284 446.254 150.108 448.57 150.108C451.018 150.108 452.122 148.284 452.122 145.8C452.122 143.16 450.982 141.492 448.546 141.492C446.122 141.492 444.982 143.316 444.982 145.8ZM446.038 145.8C446.038 143.784 446.83 142.512 448.546 142.512C450.274 142.512 451.066 143.748 451.066 145.8C451.066 147.84 450.298 149.088 448.57 149.088C446.998 149.088 446.038 147.84 446.038 145.8ZM454.075 149.724L454.867 150.18L461.035 141.888L460.279 141.336L454.075 149.724ZM452.779 143.616C452.779 144.816 453.727 145.656 454.975 145.656C456.211 145.656 457.159 144.816 457.159 143.616C457.159 142.404 456.211 141.564 454.975 141.564C453.727 141.564 452.779 142.404 452.779 143.616ZM453.787 143.616C453.787 142.896 454.339 142.428 454.975 142.428C455.599 142.428 456.151 142.896 456.151 143.616C456.151 144.336 455.599 144.804 454.975 144.804C454.363 144.804 453.787 144.336 453.787 143.616ZM457.927 147.996C457.927 149.196 458.875 150.048 460.123 150.048C461.359 150.048 462.307 149.196 462.307 147.996C462.307 146.796 461.359 145.956 460.123 145.956C458.875 145.956 457.927 146.796 457.927 147.996ZM458.935 147.996C458.935 147.276 459.487 146.808 460.123 146.808C460.747 146.808 461.299 147.276 461.299 147.996C461.299 148.716 460.747 149.184 460.123 149.184C459.511 149.184 458.935 148.716 458.935 147.996Z" fill="#003E14"/>
<rect x="424" y="160" width="50" height="1" fill="#003E14"/>
<circle cx="7.5" cy="245.5" r="7.5" fill="#BFCED4"/>
<path d="M32.904 250L27.353 243.058L27.353 250H26.17L26.17 240.9H27.145L32.683 247.868L32.683 240.9L33.866 240.9L33.866 250L32.904 250ZM38.838 250.117C38.318 250.117 37.8413 250.03 37.408 249.857C36.9833 249.684 36.615 249.445 36.303 249.142C35.9997 248.83 35.7613 248.462 35.588 248.037C35.4147 247.604 35.328 247.127 35.328 246.607C35.328 246.104 35.4147 245.641 35.588 245.216C35.77 244.783 36.017 244.41 36.329 244.098C36.641 243.777 37.0093 243.53 37.434 243.357C37.8673 243.175 38.3353 243.084 38.838 243.084C39.3407 243.084 39.7957 243.166 40.203 243.331C40.619 243.487 40.9743 243.712 41.269 244.007C41.5723 244.302 41.8063 244.653 41.971 245.06C42.1357 245.467 42.218 245.918 42.218 246.412C42.218 246.507 42.2137 246.607 42.205 246.711C42.205 246.815 42.2007 246.91 42.192 246.997H36.446C36.4633 247.3 36.5327 247.582 36.654 247.842C36.784 248.093 36.953 248.314 37.161 248.505C37.3777 248.687 37.629 248.83 37.915 248.934C38.201 249.038 38.5087 249.09 38.838 249.09C39.332 249.09 39.7437 248.999 40.073 248.817C40.411 248.626 40.71 248.323 40.97 247.907L41.958 248.271C41.6807 248.869 41.2777 249.328 40.749 249.649C40.229 249.961 39.592 250.117 38.838 250.117ZM38.838 244.111C38.5347 244.111 38.2487 244.159 37.98 244.254C37.7113 244.341 37.473 244.466 37.265 244.631C37.057 244.796 36.8837 244.995 36.745 245.229C36.615 245.454 36.5327 245.701 36.498 245.97H41.1C41.0913 245.71 41.0263 245.467 40.905 245.242C40.7837 245.017 40.619 244.822 40.411 244.657C40.2117 244.484 39.9733 244.349 39.696 244.254C39.4273 244.159 39.1413 244.111 38.838 244.111ZM42.7039 243.24H43.8479L43.8479 241.511H44.9399L44.9399 243.24H46.7989V244.267H44.9399V248.063C44.9399 248.444 45.0049 248.713 45.1349 248.869C45.2735 249.016 45.5032 249.09 45.8239 249.09C46.1099 249.09 46.4349 249.042 46.7989 248.947L46.7989 249.974C46.6255 250.017 46.4219 250.052 46.1879 250.078C45.9625 250.104 45.7502 250.117 45.5509 250.117C44.9355 250.117 44.4979 249.957 44.2379 249.636C43.9779 249.307 43.8479 248.748 43.8479 247.959V244.267H42.7039V243.24ZM55.0444 250.117C54.4291 250.117 53.9221 250.017 53.5234 249.818C53.1334 249.619 52.8171 249.337 52.5744 248.973L52.5744 252.6H51.4824L51.4824 243.24H52.5744V244.449C52.7998 244.05 53.1248 243.73 53.5494 243.487C53.9828 243.244 54.5114 243.123 55.1354 243.123C55.5948 243.123 56.0238 243.205 56.4224 243.37C56.8211 243.526 57.1634 243.751 57.4494 244.046C57.7441 244.341 57.9738 244.705 58.1384 245.138C58.3118 245.563 58.3984 246.039 58.3984 246.568C58.3984 247.097 58.3161 247.578 58.1514 248.011C57.9868 248.444 57.7571 248.817 57.4624 249.129C57.1678 249.441 56.8124 249.684 56.3964 249.857C55.9891 250.03 55.5384 250.117 55.0444 250.117ZM54.9534 249.09C55.3001 249.09 55.6121 249.034 55.8894 248.921C56.1754 248.8 56.4181 248.631 56.6174 248.414C56.8168 248.197 56.9728 247.937 57.0854 247.634C57.1981 247.322 57.2544 246.975 57.2544 246.594C57.2544 246.221 57.1938 245.883 57.0724 245.58C56.9598 245.277 56.7994 245.021 56.5914 244.813C56.3834 244.596 56.1364 244.432 55.8504 244.319C55.5644 244.206 55.2524 244.15 54.9144 244.15C54.1951 244.15 53.6231 244.362 53.1984 244.787C52.7824 245.203 52.5744 245.779 52.5744 246.516V246.763C52.5744 247.153 52.6351 247.495 52.7564 247.79C52.8864 248.085 53.0554 248.327 53.2634 248.518C53.4801 248.709 53.7314 248.852 54.0174 248.947C54.3121 249.042 54.6241 249.09 54.9534 249.09ZM59.7283 243.24H60.8203V244.02C60.9156 243.743 61.0976 243.526 61.3663 243.37C61.6349 243.205 61.9686 243.123 62.3673 243.123C62.4799 243.123 62.5969 243.132 62.7183 243.149C62.8483 243.158 62.9393 243.171 62.9913 243.188L62.9913 244.241C62.9046 244.206 62.8093 244.185 62.7053 244.176C62.6013 244.159 62.4929 244.15 62.3803 244.15C61.8689 244.15 61.4789 244.28 61.2103 244.54C60.9503 244.8 60.8203 245.168 60.8203 245.645L60.8203 250H59.7283L59.7283 243.24ZM63.4684 246.607C63.4684 246.104 63.5551 245.641 63.7284 245.216C63.9018 244.791 64.1444 244.423 64.4564 244.111C64.7771 243.799 65.1541 243.556 65.5874 243.383C66.0294 243.21 66.5191 243.123 67.0564 243.123C67.5851 243.123 68.0661 243.21 68.4994 243.383C68.9414 243.556 69.3184 243.799 69.6304 244.111C69.9511 244.423 70.1981 244.791 70.3714 245.216C70.5534 245.641 70.6444 246.104 70.6444 246.607C70.6444 247.118 70.5578 247.591 70.3844 248.024C70.2111 248.449 69.9641 248.817 69.6434 249.129C69.3228 249.441 68.9414 249.684 68.4994 249.857C68.0574 250.03 67.5721 250.117 67.0434 250.117C66.5234 250.117 66.0424 250.03 65.6004 249.857C65.1671 249.684 64.7901 249.441 64.4694 249.129C64.1574 248.817 63.9104 248.449 63.7284 248.024C63.5551 247.591 63.4684 247.118 63.4684 246.607ZM64.6124 246.607C64.6124 246.971 64.6688 247.305 64.7814 247.608C64.9028 247.911 65.0718 248.176 65.2884 248.401C65.5051 248.618 65.7608 248.787 66.0554 248.908C66.3588 249.029 66.6881 249.09 67.0434 249.09C67.4074 249.09 67.7411 249.029 68.0444 248.908C68.3478 248.787 68.6034 248.618 68.8114 248.401C69.0281 248.184 69.1971 247.924 69.3184 247.621C69.4398 247.309 69.5004 246.971 69.5004 246.607C69.5004 246.243 69.4354 245.909 69.3054 245.606C69.1841 245.303 69.0151 245.047 68.7984 244.839C68.5818 244.622 68.3218 244.453 68.0184 244.332C67.7151 244.211 67.3901 244.15 67.0434 244.15C66.6881 244.15 66.3631 244.211 66.0684 244.332C65.7738 244.445 65.5181 244.609 65.3014 244.826C65.0848 245.043 64.9158 245.303 64.7944 245.606C64.6731 245.909 64.6124 246.243 64.6124 246.607ZM70.9531 243.24H72.2011V242.928C72.2011 242.451 72.2661 242.053 72.3961 241.732C72.5347 241.403 72.7081 241.143 72.9161 240.952C73.1327 240.753 73.3754 240.614 73.6441 240.536C73.9127 240.449 74.1857 240.406 74.4631 240.406C74.6364 240.406 74.8097 240.428 74.9831 240.471C75.1564 240.506 75.2994 240.562 75.4121 240.64L75.0091 241.576C74.9311 241.515 74.8487 241.481 74.7621 241.472C74.6754 241.455 74.5931 241.446 74.5151 241.446C74.1597 241.446 73.8651 241.563 73.6311 241.797C73.4057 242.022 73.2931 242.43 73.2931 243.019V243.24H75.2951L75.2951 244.28H73.2931L73.2931 250H72.2011L72.2011 244.28H70.9531L70.9531 243.24ZM76.1921 243.24H77.2841L77.2841 250H76.1921L76.1921 243.24ZM76.0491 241.173C76.0491 240.991 76.1141 240.839 76.2441 240.718C76.3827 240.597 76.5517 240.536 76.7511 240.536C76.9331 240.536 77.0891 240.597 77.2191 240.718C77.3577 240.839 77.4271 240.991 77.4271 241.173C77.4271 241.372 77.3577 241.537 77.2191 241.667C77.0891 241.788 76.9331 241.849 76.7511 241.849C76.5517 241.849 76.3827 241.788 76.2441 241.667C76.1141 241.537 76.0491 241.372 76.0491 241.173ZM78.2142 243.24H79.3582V241.511H80.4502V243.24H82.3092L82.3092 244.267H80.4502V248.063C80.4502 248.444 80.5152 248.713 80.6452 248.869C80.7838 249.016 81.0135 249.09 81.3342 249.09C81.6202 249.09 81.9452 249.042 82.3092 248.947V249.974C82.1358 250.017 81.9322 250.052 81.6982 250.078C81.4728 250.104 81.2605 250.117 81.0612 250.117C80.4458 250.117 80.0082 249.957 79.7482 249.636C79.4882 249.307 79.3582 248.748 79.3582 247.959V244.267H78.2142L78.2142 243.24Z" fill="#222429"/>
<rect x="100" y="245" width="15" height="1" fill="#003E14"/>
<path d="M132.904 250L127.353 243.058V250H126.17L126.17 240.9H127.145L132.683 247.868L132.683 240.9L133.866 240.9L133.866 250L132.904 250ZM138.838 250.117C138.318 250.117 137.841 250.03 137.408 249.857C136.983 249.684 136.615 249.445 136.303 249.142C136 248.83 135.761 248.462 135.588 248.037C135.415 247.604 135.328 247.127 135.328 246.607C135.328 246.104 135.415 245.641 135.588 245.216C135.77 244.783 136.017 244.41 136.329 244.098C136.641 243.777 137.009 243.53 137.434 243.357C137.867 243.175 138.335 243.084 138.838 243.084C139.341 243.084 139.796 243.166 140.203 243.331C140.619 243.487 140.974 243.712 141.269 244.007C141.572 244.302 141.806 244.653 141.971 245.06C142.136 245.467 142.218 245.918 142.218 246.412C142.218 246.507 142.214 246.607 142.205 246.711C142.205 246.815 142.201 246.91 142.192 246.997H136.446C136.463 247.3 136.533 247.582 136.654 247.842C136.784 248.093 136.953 248.314 137.161 248.505C137.378 248.687 137.629 248.83 137.915 248.934C138.201 249.038 138.509 249.09 138.838 249.09C139.332 249.09 139.744 248.999 140.073 248.817C140.411 248.626 140.71 248.323 140.97 247.907L141.958 248.271C141.681 248.869 141.278 249.328 140.749 249.649C140.229 249.961 139.592 250.117 138.838 250.117ZM138.838 244.111C138.535 244.111 138.249 244.159 137.98 244.254C137.711 244.341 137.473 244.466 137.265 244.631C137.057 244.796 136.884 244.995 136.745 245.229C136.615 245.454 136.533 245.701 136.498 245.97H141.1C141.091 245.71 141.026 245.467 140.905 245.242C140.784 245.017 140.619 244.822 140.411 244.657C140.212 244.484 139.973 244.349 139.696 244.254C139.427 244.159 139.141 244.111 138.838 244.111ZM142.704 243.24H143.848V241.511H144.94V243.24H146.799V244.267H144.94L144.94 248.063C144.94 248.444 145.005 248.713 145.135 248.869C145.274 249.016 145.503 249.09 145.824 249.09C146.11 249.09 146.435 249.042 146.799 248.947V249.974C146.626 250.017 146.422 250.052 146.188 250.078C145.963 250.104 145.75 250.117 145.551 250.117C144.936 250.117 144.498 249.957 144.238 249.636C143.978 249.307 143.848 248.748 143.848 247.959L143.848 244.267H142.704V243.24ZM155.044 250.117C154.429 250.117 153.922 250.017 153.523 249.818C153.133 249.619 152.817 249.337 152.574 248.973V252.6H151.482L151.482 243.24H152.574V244.449C152.8 244.05 153.125 243.73 153.549 243.487C153.983 243.244 154.511 243.123 155.135 243.123C155.595 243.123 156.024 243.205 156.422 243.37C156.821 243.526 157.163 243.751 157.449 244.046C157.744 244.341 157.974 244.705 158.138 245.138C158.312 245.563 158.398 246.039 158.398 246.568C158.398 247.097 158.316 247.578 158.151 248.011C157.987 248.444 157.757 248.817 157.462 249.129C157.168 249.441 156.812 249.684 156.396 249.857C155.989 250.03 155.538 250.117 155.044 250.117ZM154.953 249.09C155.3 249.09 155.612 249.034 155.889 248.921C156.175 248.8 156.418 248.631 156.617 248.414C156.817 248.197 156.973 247.937 157.085 247.634C157.198 247.322 157.254 246.975 157.254 246.594C157.254 246.221 157.194 245.883 157.072 245.58C156.96 245.277 156.799 245.021 156.591 244.813C156.383 244.596 156.136 244.432 155.85 244.319C155.564 244.206 155.252 244.15 154.914 244.15C154.195 244.15 153.623 244.362 153.198 244.787C152.782 245.203 152.574 245.779 152.574 246.516V246.763C152.574 247.153 152.635 247.495 152.756 247.79C152.886 248.085 153.055 248.327 153.263 248.518C153.48 248.709 153.731 248.852 154.017 248.947C154.312 249.042 154.624 249.09 154.953 249.09ZM159.728 243.24H160.82V244.02C160.916 243.743 161.098 243.526 161.366 243.37C161.635 243.205 161.969 243.123 162.367 243.123C162.48 243.123 162.597 243.132 162.718 243.149C162.848 243.158 162.939 243.171 162.991 243.188V244.241C162.905 244.206 162.809 244.185 162.705 244.176C162.601 244.159 162.493 244.15 162.38 244.15C161.869 244.15 161.479 244.28 161.21 244.54C160.95 244.8 160.82 245.168 160.82 245.645L160.82 250H159.728L159.728 243.24ZM163.468 246.607C163.468 246.104 163.555 245.641 163.728 245.216C163.902 244.791 164.144 244.423 164.456 244.111C164.777 243.799 165.154 243.556 165.587 243.383C166.029 243.21 166.519 243.123 167.056 243.123C167.585 243.123 168.066 243.21 168.499 243.383C168.941 243.556 169.318 243.799 169.63 244.111C169.951 244.423 170.198 244.791 170.371 245.216C170.553 245.641 170.644 246.104 170.644 246.607C170.644 247.118 170.558 247.591 170.384 248.024C170.211 248.449 169.964 248.817 169.643 249.129C169.323 249.441 168.941 249.684 168.499 249.857C168.057 250.03 167.572 250.117 167.043 250.117C166.523 250.117 166.042 250.03 165.6 249.857C165.167 249.684 164.79 249.441 164.469 249.129C164.157 248.817 163.91 248.449 163.728 248.024C163.555 247.591 163.468 247.118 163.468 246.607ZM164.612 246.607C164.612 246.971 164.669 247.305 164.781 247.608C164.903 247.911 165.072 248.176 165.288 248.401C165.505 248.618 165.761 248.787 166.055 248.908C166.359 249.029 166.688 249.09 167.043 249.09C167.407 249.09 167.741 249.029 168.044 248.908C168.348 248.787 168.603 248.618 168.811 248.401C169.028 248.184 169.197 247.924 169.318 247.621C169.44 247.309 169.5 246.971 169.5 246.607C169.5 246.243 169.435 245.909 169.305 245.606C169.184 245.303 169.015 245.047 168.798 244.839C168.582 244.622 168.322 244.453 168.018 244.332C167.715 244.211 167.39 244.15 167.043 244.15C166.688 244.15 166.363 244.211 166.068 244.332C165.774 244.445 165.518 244.609 165.301 244.826C165.085 245.043 164.916 245.303 164.794 245.606C164.673 245.909 164.612 246.243 164.612 246.607ZM170.953 243.24H172.201V242.928C172.201 242.451 172.266 242.053 172.396 241.732C172.535 241.403 172.708 241.143 172.916 240.952C173.133 240.753 173.375 240.614 173.644 240.536C173.913 240.449 174.186 240.406 174.463 240.406C174.636 240.406 174.81 240.428 174.983 240.471C175.156 240.506 175.299 240.562 175.412 240.64L175.009 241.576C174.931 241.515 174.849 241.481 174.762 241.472C174.675 241.455 174.593 241.446 174.515 241.446C174.16 241.446 173.865 241.563 173.631 241.797C173.406 242.022 173.293 242.43 173.293 243.019V243.24H175.295V244.28H173.293L173.293 250H172.201L172.201 244.28H170.953V243.24ZM176.192 243.24H177.284L177.284 250H176.192L176.192 243.24ZM176.049 241.173C176.049 240.991 176.114 240.839 176.244 240.718C176.383 240.597 176.552 240.536 176.751 240.536C176.933 240.536 177.089 240.597 177.219 240.718C177.358 240.839 177.427 240.991 177.427 241.173C177.427 241.372 177.358 241.537 177.219 241.667C177.089 241.788 176.933 241.849 176.751 241.849C176.552 241.849 176.383 241.788 176.244 241.667C176.114 241.537 176.049 241.372 176.049 241.173ZM178.214 243.24H179.358V241.511H180.45V243.24H182.309V244.267H180.45V248.063C180.45 248.444 180.515 248.713 180.645 248.869C180.784 249.016 181.014 249.09 181.334 249.09C181.62 249.09 181.945 249.042 182.309 248.947V249.974C182.136 250.017 181.932 250.052 181.698 250.078C181.473 250.104 181.261 250.117 181.061 250.117C180.446 250.117 180.008 249.957 179.748 249.636C179.488 249.307 179.358 248.748 179.358 247.959V244.267H178.214V243.24ZM186.993 243.24H188.085V244.228C188.284 243.873 188.561 243.6 188.917 243.409C189.272 243.218 189.684 243.123 190.152 243.123C190.628 243.123 191.031 243.223 191.361 243.422C191.699 243.613 191.98 243.899 192.206 244.28C192.448 243.864 192.752 243.569 193.116 243.396C193.48 243.214 193.896 243.123 194.364 243.123C194.719 243.123 195.044 243.166 195.339 243.253C195.642 243.34 195.898 243.483 196.106 243.682C196.322 243.873 196.491 244.124 196.613 244.436C196.734 244.739 196.795 245.108 196.795 245.541V250H195.703V245.879C195.703 245.636 195.677 245.411 195.625 245.203C195.573 244.986 195.486 244.8 195.365 244.644C195.243 244.488 195.079 244.367 194.871 244.28C194.671 244.193 194.416 244.15 194.104 244.15C193.818 244.15 193.571 244.202 193.363 244.306C193.155 244.401 192.981 244.527 192.843 244.683C192.704 244.839 192.6 245.017 192.531 245.216C192.47 245.415 192.44 245.615 192.44 245.814V250H191.348V245.775C191.348 245.246 191.218 244.843 190.958 244.566C190.698 244.289 190.308 244.15 189.788 244.15C189.294 244.15 188.886 244.306 188.566 244.618C188.245 244.921 188.085 245.363 188.085 245.944L188.085 250H186.993L186.993 243.24ZM198.151 244.969C198.368 244.371 198.732 243.916 199.243 243.604C199.755 243.283 200.379 243.123 201.115 243.123C202.953 243.123 203.871 244.085 203.871 246.009V250H202.779V248.83C202.693 249.012 202.563 249.181 202.389 249.337C202.225 249.493 202.03 249.632 201.804 249.753C201.588 249.866 201.349 249.952 201.089 250.013C200.829 250.082 200.565 250.117 200.296 250.117C199.941 250.117 199.62 250.069 199.334 249.974C199.048 249.879 198.801 249.744 198.593 249.571C198.385 249.389 198.225 249.177 198.112 248.934C198 248.683 197.943 248.405 197.943 248.102C197.943 247.712 198.03 247.383 198.203 247.114C198.385 246.845 198.667 246.629 199.048 246.464C199.438 246.291 199.937 246.165 200.543 246.087C201.159 246.009 201.904 245.97 202.779 245.97C202.779 245.346 202.641 244.887 202.363 244.592C202.095 244.297 201.67 244.15 201.089 244.15C200.067 244.15 199.417 244.544 199.139 245.333L198.151 244.969ZM200.517 249.09C200.847 249.09 201.15 249.042 201.427 248.947C201.705 248.852 201.943 248.717 202.142 248.544C202.342 248.362 202.498 248.15 202.61 247.907C202.723 247.664 202.779 247.4 202.779 247.114V246.867C202.086 246.867 201.501 246.889 201.024 246.932C200.556 246.975 200.179 247.045 199.893 247.14C199.607 247.235 199.399 247.361 199.269 247.517C199.148 247.673 199.087 247.868 199.087 248.102C199.087 248.405 199.213 248.648 199.464 248.83C199.724 249.003 200.075 249.09 200.517 249.09ZM205.541 243.24H206.633V244.02C206.728 243.743 206.91 243.526 207.179 243.37C207.448 243.205 207.781 243.123 208.18 243.123C208.293 243.123 208.41 243.132 208.531 243.149C208.661 243.158 208.752 243.171 208.804 243.188V244.241C208.717 244.206 208.622 244.185 208.518 244.176C208.414 244.159 208.306 244.15 208.193 244.15C207.682 244.15 207.292 244.28 207.023 244.54C206.763 244.8 206.633 245.168 206.633 245.645V250H205.541V243.24ZM212.544 250.117C212.085 250.117 211.656 250.039 211.257 249.883C210.859 249.718 210.512 249.489 210.217 249.194C209.931 248.891 209.702 248.527 209.528 248.102C209.364 247.669 209.281 247.179 209.281 246.633C209.281 246.113 209.368 245.641 209.541 245.216C209.723 244.783 209.97 244.414 210.282 244.111C210.594 243.799 210.958 243.556 211.374 243.383C211.79 243.21 212.232 243.123 212.7 243.123C213.324 243.123 213.831 243.223 214.221 243.422C214.611 243.621 214.906 243.89 215.105 244.228V243.24L216.197 243.24V249.48C216.197 250.052 216.119 250.542 215.963 250.949C215.816 251.356 215.604 251.69 215.326 251.95C215.058 252.219 214.737 252.414 214.364 252.535C214 252.656 213.606 252.717 213.181 252.717C212.427 252.717 211.782 252.57 211.244 252.275C210.716 251.98 210.356 251.582 210.165 251.079L211.14 250.65C211.27 250.919 211.496 251.157 211.816 251.365C212.137 251.582 212.57 251.69 213.116 251.69C213.775 251.69 214.269 251.512 214.598 251.157C214.936 250.802 215.105 250.308 215.105 249.675V248.752C214.88 249.168 214.568 249.502 214.169 249.753C213.771 249.996 213.229 250.117 212.544 250.117ZM212.765 249.09C213.485 249.09 214.052 248.882 214.468 248.466C214.893 248.041 215.105 247.448 215.105 246.685V246.438C215.105 246.074 215.049 245.753 214.936 245.476C214.824 245.19 214.663 244.952 214.455 244.761C214.256 244.562 214.018 244.41 213.74 244.306C213.463 244.202 213.16 244.15 212.83 244.15C212.501 244.15 212.189 244.211 211.894 244.332C211.608 244.445 211.357 244.609 211.14 244.826C210.924 245.043 210.75 245.303 210.62 245.606C210.49 245.901 210.425 246.234 210.425 246.607C210.425 246.997 210.482 247.344 210.594 247.647C210.716 247.95 210.88 248.21 211.088 248.427C211.296 248.644 211.543 248.808 211.829 248.921C212.115 249.034 212.427 249.09 212.765 249.09ZM217.891 243.24H218.983V250H217.891V243.24ZM217.761 241.29C217.761 241.108 217.822 240.956 217.943 240.835C218.073 240.705 218.238 240.64 218.437 240.64C218.636 240.64 218.797 240.705 218.918 240.835C219.048 240.956 219.113 241.108 219.113 241.29C219.113 241.472 219.048 241.628 218.918 241.758C218.797 241.879 218.636 241.94 218.437 241.94C218.238 241.94 218.073 241.879 217.943 241.758C217.822 241.628 217.761 241.472 217.761 241.29ZM220.668 243.24H221.76V244.28C221.968 243.907 222.259 243.621 222.631 243.422C223.013 243.223 223.455 243.123 223.957 243.123C224.876 243.123 225.578 243.37 226.063 243.864C226.557 244.349 226.804 245.125 226.804 246.191V250H225.712V246.295C225.712 245.558 225.552 245.012 225.231 244.657C224.919 244.302 224.425 244.124 223.749 244.124C223.472 244.124 223.212 244.167 222.969 244.254C222.727 244.341 222.514 244.471 222.332 244.644C222.159 244.809 222.02 245.021 221.916 245.281C221.812 245.532 221.76 245.823 221.76 246.152V250H220.668V243.24Z" fill="#222429"/>
</svg>
