<svg viewBox="0 0 535 214" fill="none" xmlns="http://www.w3.org/2000/svg">
<line x1="-3.16332e-08" y1="192.5" x2="535" y2="192.5" stroke="#CBCFD6"/>
<path d="M431.294 206.07C431.378 205.669 431.518 205.286 431.714 204.922C431.91 204.558 432.162 204.241 432.47 203.97C432.778 203.69 433.146 203.471 433.576 203.312C434.005 203.153 434.495 203.074 435.046 203.074C435.559 203.074 436.016 203.149 436.418 203.298C436.819 203.438 437.16 203.639 437.44 203.9C437.72 204.161 437.93 204.474 438.07 204.838C438.219 205.202 438.294 205.599 438.294 206.028C438.294 206.635 438.163 207.195 437.902 207.708C437.65 208.212 437.328 208.674 436.936 209.094C436.544 209.514 436.114 209.897 435.648 210.242C435.181 210.578 434.738 210.877 434.318 211.138L433.24 211.81H438.658V213H431.028V212.02L433.156 210.606C433.856 210.139 434.453 209.71 434.948 209.318C435.442 208.917 435.844 208.539 436.152 208.184C436.469 207.829 436.698 207.489 436.838 207.162C436.987 206.826 437.062 206.49 437.062 206.154C437.062 205.809 437.006 205.515 436.894 205.272C436.791 205.029 436.642 204.833 436.446 204.684C436.259 204.535 436.035 204.427 435.774 204.362C435.522 204.297 435.251 204.264 434.962 204.264C434.542 204.264 434.178 204.329 433.87 204.46C433.571 204.591 433.314 204.763 433.1 204.978C432.894 205.183 432.731 205.417 432.61 205.678C432.498 205.93 432.423 206.182 432.386 206.434L431.294 206.07ZM439.628 208.1C439.628 207.372 439.712 206.705 439.88 206.098C440.048 205.482 440.3 204.95 440.636 204.502C440.981 204.054 441.415 203.704 441.938 203.452C442.461 203.2 443.077 203.074 443.786 203.074C444.495 203.074 445.111 203.191 445.634 203.424C446.157 203.657 446.591 203.993 446.936 204.432C447.281 204.871 447.538 205.403 447.706 206.028C447.874 206.644 447.958 207.335 447.958 208.1C447.958 208.828 447.874 209.5 447.706 210.116C447.547 210.723 447.295 211.25 446.95 211.698C446.614 212.146 446.185 212.496 445.662 212.748C445.139 213 444.523 213.126 443.814 213.126C443.142 213.126 442.545 213 442.022 212.748C441.499 212.496 441.061 212.146 440.706 211.698C440.351 211.25 440.081 210.723 439.894 210.116C439.717 209.5 439.628 208.828 439.628 208.1ZM440.86 208.1C440.86 209.295 441.121 210.233 441.644 210.914C442.167 211.595 442.89 211.936 443.814 211.936C444.822 211.936 445.559 211.595 446.026 210.914C446.493 210.233 446.726 209.295 446.726 208.1C446.726 206.905 446.488 205.967 446.012 205.286C445.536 204.605 444.794 204.264 443.786 204.264C443.282 204.264 442.848 204.353 442.484 204.53C442.12 204.707 441.817 204.964 441.574 205.3C441.331 205.636 441.149 206.042 441.028 206.518C440.916 206.985 440.86 207.512 440.86 208.1ZM449.102 206.07C449.186 205.669 449.326 205.286 449.522 204.922C449.718 204.558 449.97 204.241 450.278 203.97C450.586 203.69 450.954 203.471 451.384 203.312C451.813 203.153 452.303 203.074 452.854 203.074C453.367 203.074 453.824 203.149 454.226 203.298C454.627 203.438 454.968 203.639 455.248 203.9C455.528 204.161 455.738 204.474 455.878 204.838C456.027 205.202 456.102 205.599 456.102 206.028C456.102 206.635 455.971 207.195 455.71 207.708C455.458 208.212 455.136 208.674 454.744 209.094C454.352 209.514 453.922 209.897 453.456 210.242C452.989 210.578 452.546 210.877 452.126 211.138L451.048 211.81H456.466V213H448.836V212.02L450.964 210.606C451.664 210.139 452.261 209.71 452.756 209.318C453.25 208.917 453.652 208.539 453.96 208.184C454.277 207.829 454.506 207.489 454.646 207.162C454.795 206.826 454.87 206.49 454.87 206.154C454.87 205.809 454.814 205.515 454.702 205.272C454.599 205.029 454.45 204.833 454.254 204.684C454.067 204.535 453.843 204.427 453.582 204.362C453.33 204.297 453.059 204.264 452.77 204.264C452.35 204.264 451.986 204.329 451.678 204.46C451.379 204.591 451.122 204.763 450.908 204.978C450.702 205.183 450.539 205.417 450.418 205.678C450.306 205.93 450.231 206.182 450.194 206.434L449.102 206.07ZM457.534 206.07C457.618 205.669 457.758 205.286 457.954 204.922C458.15 204.558 458.402 204.241 458.71 203.97C459.018 203.69 459.387 203.471 459.816 203.312C460.245 203.153 460.735 203.074 461.286 203.074C461.799 203.074 462.257 203.149 462.658 203.298C463.059 203.438 463.4 203.639 463.68 203.9C463.96 204.161 464.17 204.474 464.31 204.838C464.459 205.202 464.534 205.599 464.534 206.028C464.534 206.635 464.403 207.195 464.142 207.708C463.89 208.212 463.568 208.674 463.176 209.094C462.784 209.514 462.355 209.897 461.888 210.242C461.421 210.578 460.978 210.877 460.558 211.138L459.48 211.81H464.898V213H457.268V212.02L459.396 210.606C460.096 210.139 460.693 209.71 461.188 209.318C461.683 208.917 462.084 208.539 462.392 208.184C462.709 207.829 462.938 207.489 463.078 207.162C463.227 206.826 463.302 206.49 463.302 206.154C463.302 205.809 463.246 205.515 463.134 205.272C463.031 205.029 462.882 204.833 462.686 204.684C462.499 204.535 462.275 204.427 462.014 204.362C461.762 204.297 461.491 204.264 461.202 204.264C460.782 204.264 460.418 204.329 460.11 204.46C459.811 204.591 459.555 204.763 459.34 204.978C459.135 205.183 458.971 205.417 458.85 205.678C458.738 205.93 458.663 206.182 458.626 206.434L457.534 206.07Z" fill="#5FAF2D"/>
<rect x="423" y="22" width="50" height="171" fill="#5FAF2D"/>
<rect x="423" y="22" width="50" height="4" fill="#3D7917"/>
<path d="M424.595 4.585C424.697 4.09767 424.867 3.633 425.105 3.191C425.343 2.749 425.649 2.36367 426.023 2.035C426.397 1.695 426.845 1.42867 427.366 1.236C427.887 1.04333 428.482 0.946999 429.151 0.946999C429.774 0.946999 430.33 1.03767 430.817 1.219C431.304 1.389 431.718 1.63267 432.058 1.95C432.398 2.26733 432.653 2.647 432.823 3.089C433.004 3.531 433.095 4.01267 433.095 4.534C433.095 5.27067 432.936 5.95067 432.619 6.574C432.313 7.186 431.922 7.747 431.446 8.257C430.97 8.767 430.449 9.23167 429.882 9.651C429.315 10.059 428.777 10.4217 428.267 10.739L426.958 11.555H433.537V13H424.272V11.81L426.856 10.093C427.706 9.52633 428.431 9.005 429.032 8.529C429.633 8.04167 430.12 7.58267 430.494 7.152C430.879 6.72133 431.157 6.30767 431.327 5.911C431.508 5.503 431.599 5.095 431.599 4.687C431.599 4.26767 431.531 3.91067 431.395 3.616C431.27 3.32133 431.089 3.08333 430.851 2.902C430.624 2.72067 430.352 2.59033 430.035 2.511C429.729 2.43167 429.4 2.392 429.049 2.392C428.539 2.392 428.097 2.47133 427.723 2.63C427.36 2.78867 427.049 2.99833 426.788 3.259C426.539 3.50833 426.34 3.79167 426.193 4.109C426.057 4.415 425.966 4.721 425.921 5.027L424.595 4.585ZM440.857 1.1H448.337V2.545H442.166L441.724 5.741C441.985 5.54833 442.336 5.38967 442.778 5.265C443.231 5.129 443.781 5.061 444.427 5.061C445.141 5.061 445.776 5.163 446.331 5.367C446.886 5.571 447.351 5.85433 447.725 6.217C448.099 6.57967 448.382 7.00467 448.575 7.492C448.779 7.97933 448.881 8.50067 448.881 9.056C448.881 9.65667 448.762 10.2063 448.524 10.705C448.297 11.2037 447.974 11.6343 447.555 11.997C447.147 12.3597 446.66 12.643 446.093 12.847C445.538 13.051 444.931 13.153 444.274 13.153C443.73 13.153 443.209 13.0907 442.71 12.966C442.211 12.8413 441.747 12.6543 441.316 12.405C440.897 12.1557 440.523 11.8553 440.194 11.504C439.877 11.1413 439.622 10.722 439.429 10.246L440.789 9.668C440.902 9.92867 441.061 10.1837 441.265 10.433C441.469 10.671 441.718 10.8863 442.013 11.079C442.308 11.2717 442.642 11.4247 443.016 11.538C443.39 11.6513 443.809 11.708 444.274 11.708C444.795 11.708 445.249 11.64 445.634 11.504C446.031 11.3567 446.359 11.164 446.62 10.926C446.881 10.688 447.073 10.416 447.198 10.11C447.323 9.79267 447.385 9.45833 447.385 9.107C447.385 8.30233 447.085 7.66767 446.484 7.203C445.895 6.73833 445.073 6.506 444.019 6.506C443.418 6.506 442.914 6.591 442.506 6.761C442.109 6.91967 441.735 7.17467 441.384 7.526L440.16 7.203L440.857 1.1ZM454.914 13.153C453.883 13.153 452.999 12.9547 452.262 12.558C451.537 12.1613 450.993 11.657 450.63 11.045L451.854 10.195C452.206 10.6823 452.665 11.0563 453.231 11.317C453.809 11.5777 454.438 11.708 455.118 11.708C455.64 11.708 456.116 11.606 456.546 11.402C456.988 11.1867 457.368 10.892 457.685 10.518C458.014 10.144 458.269 9.702 458.45 9.192C458.632 8.682 458.722 8.12667 458.722 7.526C458.722 7.458 458.722 7.39 458.722 7.322C458.722 7.254 458.717 7.186 458.705 7.118C458.433 7.764 457.969 8.30233 457.311 8.733C456.665 9.15233 455.844 9.362 454.846 9.362C454.189 9.362 453.583 9.26567 453.027 9.073C452.472 8.869 451.99 8.59133 451.582 8.24C451.174 7.87733 450.857 7.44667 450.63 6.948C450.404 6.44933 450.29 5.894 450.29 5.282C450.29 4.62467 450.409 4.02967 450.647 3.497C450.897 2.953 451.242 2.494 451.684 2.12C452.126 1.746 452.653 1.457 453.265 1.253C453.889 1.049 454.574 0.946999 455.322 0.946999C456.082 0.946999 456.762 1.07733 457.362 1.338C457.974 1.58733 458.49 1.96133 458.909 2.46C459.34 2.95867 459.669 3.57633 459.895 4.313C460.122 5.03833 460.235 5.877 460.235 6.829C460.235 7.87167 460.105 8.78967 459.844 9.583C459.595 10.365 459.232 11.0223 458.756 11.555C458.292 12.0763 457.731 12.473 457.073 12.745C456.427 13.017 455.708 13.153 454.914 13.153ZM455.118 7.917C455.606 7.917 456.048 7.849 456.444 7.713C456.841 7.577 457.175 7.39 457.447 7.152C457.731 6.90267 457.946 6.61367 458.093 6.285C458.241 5.95633 458.314 5.605 458.314 5.231C458.314 4.86833 458.258 4.517 458.144 4.177C458.031 3.837 457.85 3.53667 457.6 3.276C457.351 3.004 457.022 2.78867 456.614 2.63C456.218 2.47133 455.73 2.392 455.152 2.392C454.098 2.392 453.271 2.63 452.67 3.106C452.081 3.57067 451.786 4.25633 451.786 5.163C451.786 6.02433 452.087 6.69867 452.687 7.186C453.288 7.67333 454.098 7.917 455.118 7.917ZM466.882 13.153C466.089 13.153 465.369 13.0283 464.723 12.779C464.089 12.5297 463.545 12.1613 463.091 11.674C462.638 11.1753 462.287 10.569 462.037 9.855C461.799 9.141 461.68 8.31367 461.68 7.373C461.68 6.30767 461.822 5.37267 462.105 4.568C462.389 3.76333 462.768 3.09467 463.244 2.562C463.732 2.018 464.293 1.61567 464.927 1.355C465.573 1.083 466.253 0.946999 466.967 0.946999C467.999 0.946999 468.877 1.15667 469.602 1.576C470.328 1.99533 470.855 2.562 471.183 3.276L470.027 4.058C469.699 3.548 469.274 3.14567 468.752 2.851C468.242 2.545 467.625 2.392 466.899 2.392C466.333 2.392 465.823 2.50533 465.369 2.732C464.916 2.94733 464.525 3.26467 464.196 3.684C463.868 4.092 463.613 4.59067 463.431 5.18C463.25 5.758 463.154 6.40967 463.142 7.135V7.322C463.301 6.948 463.516 6.61933 463.788 6.336C464.072 6.05267 464.389 5.81467 464.74 5.622C465.092 5.42933 465.466 5.28767 465.862 5.197C466.27 5.095 466.684 5.044 467.103 5.044C467.795 5.044 468.418 5.14033 468.973 5.333C469.529 5.52567 469.999 5.79767 470.384 6.149C470.781 6.50033 471.081 6.91967 471.285 7.407C471.489 7.89433 471.591 8.43267 471.591 9.022C471.591 9.634 471.467 10.195 471.217 10.705C470.979 11.215 470.645 11.6513 470.214 12.014C469.795 12.3767 469.296 12.66 468.718 12.864C468.152 13.0567 467.54 13.153 466.882 13.153ZM466.865 11.708C467.341 11.708 467.772 11.6457 468.157 11.521C468.554 11.3963 468.894 11.2207 469.177 10.994C469.472 10.756 469.699 10.4783 469.857 10.161C470.016 9.84367 470.095 9.48667 470.095 9.09C470.095 8.65933 470.016 8.28533 469.857 7.968C469.71 7.63933 469.5 7.36733 469.228 7.152C468.956 6.92533 468.628 6.761 468.242 6.659C467.868 6.54567 467.46 6.489 467.018 6.489C465.93 6.489 465.103 6.72133 464.536 7.186C463.981 7.65067 463.703 8.24567 463.703 8.971C463.703 9.345 463.777 9.69633 463.924 10.025C464.072 10.3537 464.281 10.6427 464.553 10.892C464.825 11.1413 465.154 11.3397 465.539 11.487C465.936 11.6343 466.378 11.708 466.865 11.708Z" fill="#222429"/>
<path d="M162.435 206.07C162.519 205.669 162.659 205.286 162.855 204.922C163.051 204.558 163.303 204.241 163.611 203.97C163.919 203.69 164.288 203.471 164.717 203.312C165.147 203.153 165.637 203.074 166.187 203.074C166.701 203.074 167.158 203.149 167.559 203.298C167.961 203.438 168.301 203.639 168.581 203.9C168.861 204.161 169.071 204.474 169.211 204.838C169.361 205.202 169.435 205.599 169.435 206.028C169.435 206.635 169.305 207.195 169.043 207.708C168.791 208.212 168.469 208.674 168.077 209.094C167.685 209.514 167.256 209.897 166.789 210.242C166.323 210.578 165.879 210.877 165.459 211.138L164.381 211.81H169.799V213H162.169V212.02L164.297 210.606C164.997 210.139 165.595 209.71 166.089 209.318C166.584 208.917 166.985 208.539 167.293 208.184C167.611 207.829 167.839 207.489 167.979 207.162C168.129 206.826 168.203 206.49 168.203 206.154C168.203 205.809 168.147 205.515 168.035 205.272C167.933 205.029 167.783 204.833 167.587 204.684C167.401 204.535 167.177 204.427 166.915 204.362C166.663 204.297 166.393 204.264 166.103 204.264C165.683 204.264 165.319 204.329 165.011 204.46C164.713 204.591 164.456 204.763 164.241 204.978C164.036 205.183 163.873 205.417 163.751 205.678C163.639 205.93 163.565 206.182 163.527 206.434L162.435 206.07ZM170.77 208.1C170.77 207.372 170.854 206.705 171.022 206.098C171.19 205.482 171.442 204.95 171.778 204.502C172.123 204.054 172.557 203.704 173.08 203.452C173.602 203.2 174.218 203.074 174.928 203.074C175.637 203.074 176.253 203.191 176.776 203.424C177.298 203.657 177.732 203.993 178.078 204.432C178.423 204.871 178.68 205.403 178.848 206.028C179.016 206.644 179.1 207.335 179.1 208.1C179.1 208.828 179.016 209.5 178.848 210.116C178.689 210.723 178.437 211.25 178.092 211.698C177.756 212.146 177.326 212.496 176.804 212.748C176.281 213 175.665 213.126 174.956 213.126C174.284 213.126 173.686 213 173.164 212.748C172.641 212.496 172.202 212.146 171.848 211.698C171.493 211.25 171.222 210.723 171.036 210.116C170.858 209.5 170.77 208.828 170.77 208.1ZM172.002 208.1C172.002 209.295 172.263 210.233 172.786 210.914C173.308 211.595 174.032 211.936 174.956 211.936C175.964 211.936 176.701 211.595 177.168 210.914C177.634 210.233 177.868 209.295 177.868 208.1C177.868 206.905 177.63 205.967 177.154 205.286C176.678 204.605 175.936 204.264 174.928 204.264C174.424 204.264 173.99 204.353 173.626 204.53C173.262 204.707 172.958 204.964 172.716 205.3C172.473 205.636 172.291 206.042 172.17 206.518C172.058 206.985 172.002 207.512 172.002 208.1ZM182.945 203.144H183.743V213H182.567V204.642L180.033 205.804L179.585 204.754L182.945 203.144ZM189.295 213.126C188.445 213.126 187.717 212.963 187.111 212.636C186.513 212.309 186.065 211.894 185.767 211.39L186.775 210.69C187.064 211.091 187.442 211.399 187.909 211.614C188.385 211.829 188.903 211.936 189.463 211.936C189.892 211.936 190.284 211.852 190.639 211.684C191.003 211.507 191.315 211.264 191.577 210.956C191.847 210.648 192.057 210.284 192.207 209.864C192.356 209.444 192.431 208.987 192.431 208.492C192.431 208.436 192.431 208.38 192.431 208.324C192.431 208.268 192.426 208.212 192.417 208.156C192.193 208.688 191.81 209.131 191.269 209.486C190.737 209.831 190.06 210.004 189.239 210.004C188.697 210.004 188.198 209.925 187.741 209.766C187.283 209.598 186.887 209.369 186.551 209.08C186.215 208.781 185.953 208.427 185.767 208.016C185.58 207.605 185.487 207.148 185.487 206.644C185.487 206.103 185.585 205.613 185.781 205.174C185.986 204.726 186.271 204.348 186.635 204.04C186.999 203.732 187.433 203.494 187.937 203.326C188.45 203.158 189.015 203.074 189.631 203.074C190.256 203.074 190.816 203.181 191.311 203.396C191.815 203.601 192.239 203.909 192.585 204.32C192.939 204.731 193.21 205.239 193.397 205.846C193.583 206.443 193.677 207.134 193.677 207.918C193.677 208.777 193.569 209.533 193.355 210.186C193.149 210.83 192.851 211.371 192.459 211.81C192.076 212.239 191.614 212.566 191.073 212.79C190.541 213.014 189.948 213.126 189.295 213.126ZM189.463 208.814C189.864 208.814 190.228 208.758 190.555 208.646C190.881 208.534 191.157 208.38 191.381 208.184C191.614 207.979 191.791 207.741 191.913 207.47C192.034 207.199 192.095 206.91 192.095 206.602C192.095 206.303 192.048 206.014 191.955 205.734C191.861 205.454 191.712 205.207 191.507 204.992C191.301 204.768 191.031 204.591 190.695 204.46C190.368 204.329 189.967 204.264 189.491 204.264C188.623 204.264 187.941 204.46 187.447 204.852C186.961 205.235 186.719 205.799 186.719 206.546C186.719 207.255 186.966 207.811 187.461 208.212C187.955 208.613 188.623 208.814 189.463 208.814Z" fill="#777F8C"/>
<rect x="153" y="79" width="50" height="114" fill="#BFCED4"/>
<rect x="153" y="79" width="50" height="4" fill="#A6B2BC"/>
<path d="M160.665 58.032H161.634V70H160.206V59.851L157.129 61.262L156.585 59.987L160.665 58.032ZM168.346 58.1H177.373V59.069L171.457 70H169.842L175.554 59.545H168.346V58.1ZM178.568 61.585C178.67 61.0977 178.84 60.633 179.078 60.191C179.316 59.749 179.622 59.3637 179.996 59.035C180.37 58.695 180.817 58.4287 181.339 58.236C181.86 58.0433 182.455 57.947 183.124 57.947C183.747 57.947 184.302 58.0377 184.79 58.219C185.277 58.389 185.691 58.6327 186.031 58.95C186.371 59.2673 186.626 59.647 186.796 60.089C186.977 60.531 187.068 61.0127 187.068 61.534C187.068 62.2707 186.909 62.9507 186.592 63.574C186.286 64.186 185.895 64.747 185.419 65.257C184.943 65.767 184.421 66.2317 183.855 66.651C183.288 67.059 182.75 67.4217 182.24 67.739L180.931 68.555H187.51V70H178.245V68.81L180.829 67.093C181.679 66.5263 182.404 66.005 183.005 65.529C183.605 65.0417 184.093 64.5827 184.467 64.152C184.852 63.7213 185.13 63.3077 185.3 62.911C185.481 62.503 185.572 62.095 185.572 61.687C185.572 61.2677 185.504 60.9107 185.368 60.616C185.243 60.3213 185.062 60.0833 184.824 59.902C184.597 59.7207 184.325 59.5903 184.008 59.511C183.702 59.4317 183.373 59.392 183.022 59.392C182.512 59.392 182.07 59.4713 181.696 59.63C181.333 59.7887 181.021 59.9983 180.761 60.259C180.511 60.5083 180.313 60.7917 180.166 61.109C180.03 61.415 179.939 61.721 179.894 62.027L178.568 61.585ZM194.077 63.217C194.462 63.217 194.819 63.1717 195.148 63.081C195.488 62.979 195.783 62.843 196.032 62.673C196.281 62.503 196.474 62.299 196.61 62.061C196.757 61.823 196.831 61.5623 196.831 61.279C196.831 60.667 196.576 60.2023 196.066 59.885C195.567 59.5563 194.802 59.392 193.771 59.392C192.774 59.392 192.02 59.5563 191.51 59.885C191.011 60.2137 190.762 60.6783 190.762 61.279C190.762 61.551 190.83 61.806 190.966 62.044C191.102 62.282 191.289 62.4917 191.527 62.673C191.776 62.843 192.071 62.979 192.411 63.081C192.762 63.1717 193.142 63.217 193.55 63.217H194.077ZM193.618 64.56C193.142 64.56 192.7 64.6167 192.292 64.73C191.895 64.832 191.555 64.9793 191.272 65.172C190.989 65.3533 190.768 65.5743 190.609 65.835C190.45 66.0843 190.371 66.3507 190.371 66.634C190.371 67.246 190.654 67.7447 191.221 68.13C191.799 68.5153 192.655 68.708 193.788 68.708C194.955 68.708 195.817 68.5267 196.372 68.164C196.927 67.79 197.205 67.2857 197.205 66.651C197.205 65.9823 196.916 65.4667 196.338 65.104C195.771 64.7413 195.006 64.56 194.043 64.56H193.618ZM193.805 70.153C193.046 70.153 192.36 70.0793 191.748 69.932C191.147 69.7733 190.632 69.5523 190.201 69.269C189.782 68.9743 189.453 68.623 189.215 68.215C188.988 67.7957 188.875 67.3197 188.875 66.787C188.875 66.0843 189.085 65.478 189.504 64.968C189.935 64.4467 190.507 64.0727 191.221 63.846C190.881 63.7327 190.586 63.5853 190.337 63.404C190.088 63.2113 189.884 62.996 189.725 62.758C189.566 62.52 189.447 62.2707 189.368 62.01C189.3 61.738 189.266 61.4603 189.266 61.177C189.266 60.191 189.651 59.409 190.422 58.831C191.204 58.2417 192.326 57.947 193.788 57.947C195.261 57.947 196.383 58.2417 197.154 58.831C197.936 59.409 198.327 60.191 198.327 61.177C198.327 61.789 198.157 62.3047 197.817 62.724C197.488 63.1433 197.029 63.489 196.44 63.761C197.256 64.0103 197.834 64.3843 198.174 64.883C198.525 65.3817 198.701 65.9937 198.701 66.719C198.701 67.263 198.588 67.7503 198.361 68.181C198.134 68.6003 197.806 68.9573 197.375 69.252C196.956 69.5467 196.44 69.7733 195.828 69.932C195.227 70.0793 194.553 70.153 193.805 70.153Z" fill="#222429"/>
<path d="M72.4354 206.07C72.5194 205.669 72.6594 205.286 72.8554 204.922C73.0514 204.558 73.3034 204.241 73.6114 203.97C73.9194 203.69 74.2881 203.471 74.7174 203.312C75.1467 203.153 75.6367 203.074 76.1874 203.074C76.7007 203.074 77.1581 203.149 77.5594 203.298C77.9607 203.438 78.3014 203.639 78.5814 203.9C78.8614 204.161 79.0714 204.474 79.2114 204.838C79.3607 205.202 79.4354 205.599 79.4354 206.028C79.4354 206.635 79.3047 207.195 79.0434 207.708C78.7914 208.212 78.4694 208.674 78.0774 209.094C77.6854 209.514 77.2561 209.897 76.7894 210.242C76.3227 210.578 75.8794 210.877 75.4594 211.138L74.3814 211.81H79.7994V213H72.1694V212.02L74.2974 210.606C74.9974 210.139 75.5947 209.71 76.0894 209.318C76.5841 208.917 76.9854 208.539 77.2934 208.184C77.6107 207.829 77.8394 207.489 77.9794 207.162C78.1287 206.826 78.2034 206.49 78.2034 206.154C78.2034 205.809 78.1474 205.515 78.0354 205.272C77.9327 205.029 77.7834 204.833 77.5874 204.684C77.4007 204.535 77.1767 204.427 76.9154 204.362C76.6634 204.297 76.3927 204.264 76.1034 204.264C75.6834 204.264 75.3194 204.329 75.0114 204.46C74.7127 204.591 74.4561 204.763 74.2414 204.978C74.0361 205.183 73.8727 205.417 73.7514 205.678C73.6394 205.93 73.5647 206.182 73.5274 206.434L72.4354 206.07ZM80.7697 208.1C80.7697 207.372 80.8537 206.705 81.0217 206.098C81.1897 205.482 81.4417 204.95 81.7777 204.502C82.123 204.054 82.557 203.704 83.0797 203.452C83.6023 203.2 84.2183 203.074 84.9277 203.074C85.637 203.074 86.253 203.191 86.7757 203.424C87.2983 203.657 87.7323 203.993 88.0777 204.432C88.423 204.871 88.6797 205.403 88.8477 206.028C89.0157 206.644 89.0997 207.335 89.0997 208.1C89.0997 208.828 89.0157 209.5 88.8477 210.116C88.689 210.723 88.437 211.25 88.0917 211.698C87.7557 212.146 87.3263 212.496 86.8037 212.748C86.281 213 85.665 213.126 84.9557 213.126C84.2837 213.126 83.6863 213 83.1637 212.748C82.641 212.496 82.2023 212.146 81.8477 211.698C81.493 211.25 81.2223 210.723 81.0357 210.116C80.8583 209.5 80.7697 208.828 80.7697 208.1ZM82.0017 208.1C82.0017 209.295 82.263 210.233 82.7857 210.914C83.3083 211.595 84.0317 211.936 84.9557 211.936C85.9637 211.936 86.701 211.595 87.1677 210.914C87.6343 210.233 87.8677 209.295 87.8677 208.1C87.8677 206.905 87.6297 205.967 87.1537 205.286C86.6777 204.605 85.9357 204.264 84.9277 204.264C84.4237 204.264 83.9897 204.353 83.6257 204.53C83.2617 204.707 82.9583 204.964 82.7157 205.3C82.473 205.636 82.291 206.042 82.1697 206.518C82.0577 206.985 82.0017 207.512 82.0017 208.1ZM92.9453 203.144H93.7433V213H92.5673V204.642L90.0333 205.804L89.5853 204.754L92.9453 203.144ZM99.8267 207.414C100.144 207.414 100.438 207.377 100.709 207.302C100.989 207.218 101.231 207.106 101.437 206.966C101.642 206.826 101.801 206.658 101.913 206.462C102.034 206.266 102.095 206.051 102.095 205.818C102.095 205.314 101.885 204.931 101.465 204.67C101.054 204.399 100.424 204.264 99.5747 204.264C98.7534 204.264 98.1327 204.399 97.7127 204.67C97.3021 204.941 97.0967 205.323 97.0967 205.818C97.0967 206.042 97.1527 206.252 97.2647 206.448C97.3767 206.644 97.5307 206.817 97.7267 206.966C97.9321 207.106 98.1747 207.218 98.4547 207.302C98.7441 207.377 99.0567 207.414 99.3927 207.414H99.8267ZM99.4487 208.52C99.0567 208.52 98.6927 208.567 98.3567 208.66C98.0301 208.744 97.7501 208.865 97.5167 209.024C97.2834 209.173 97.1014 209.355 96.9707 209.57C96.8401 209.775 96.7747 209.995 96.7747 210.228C96.7747 210.732 97.0081 211.143 97.4747 211.46C97.9507 211.777 98.6554 211.936 99.5887 211.936C100.55 211.936 101.259 211.787 101.717 211.488C102.174 211.18 102.403 210.765 102.403 210.242C102.403 209.691 102.165 209.267 101.689 208.968C101.222 208.669 100.592 208.52 99.7987 208.52H99.4487ZM99.6027 213.126C98.9774 213.126 98.4127 213.065 97.9087 212.944C97.4141 212.813 96.9894 212.631 96.6347 212.398C96.2894 212.155 96.0187 211.866 95.8227 211.53C95.6361 211.185 95.5427 210.793 95.5427 210.354C95.5427 209.775 95.7154 209.276 96.0607 208.856C96.4154 208.427 96.8867 208.119 97.4747 207.932C97.1947 207.839 96.9521 207.717 96.7467 207.568C96.5414 207.409 96.3734 207.232 96.2427 207.036C96.1121 206.84 96.0141 206.635 95.9487 206.42C95.8927 206.196 95.8647 205.967 95.8647 205.734C95.8647 204.922 96.1821 204.278 96.8167 203.802C97.4607 203.317 98.3847 203.074 99.5887 203.074C100.802 203.074 101.726 203.317 102.361 203.802C103.005 204.278 103.327 204.922 103.327 205.734C103.327 206.238 103.187 206.663 102.907 207.008C102.636 207.353 102.258 207.638 101.773 207.862C102.445 208.067 102.921 208.375 103.201 208.786C103.49 209.197 103.635 209.701 103.635 210.298C103.635 210.746 103.541 211.147 103.355 211.502C103.168 211.847 102.897 212.141 102.543 212.384C102.197 212.627 101.773 212.813 101.269 212.944C100.774 213.065 100.219 213.126 99.6027 213.126Z" fill="#777F8C"/>
<rect x="63" y="92" width="50" height="101" fill="#BFCED4"/>
<rect x="63" y="92" width="50" height="4" fill="#A6B2BC"/>
<path d="M70.4992 71.032H71.4682V83H70.0402V72.851L66.9632 74.262L66.4192 72.987L70.4992 71.032ZM79.7778 71.1H87.2578V72.545H81.0868L80.6448 75.741C80.9055 75.5483 81.2568 75.3897 81.6988 75.265C82.1522 75.129 82.7018 75.061 83.3478 75.061C84.0618 75.061 84.6965 75.163 85.2518 75.367C85.8072 75.571 86.2718 75.8543 86.6458 76.217C87.0198 76.5797 87.3032 77.0047 87.4958 77.492C87.6998 77.9793 87.8018 78.5007 87.8018 79.056C87.8018 79.6567 87.6828 80.2063 87.4448 80.705C87.2182 81.2037 86.8952 81.6343 86.4758 81.997C86.0678 82.3597 85.5805 82.643 85.0138 82.847C84.4585 83.051 83.8522 83.153 83.1948 83.153C82.6508 83.153 82.1295 83.0907 81.6308 82.966C81.1322 82.8413 80.6675 82.6543 80.2368 82.405C79.8175 82.1557 79.4435 81.8553 79.1148 81.504C78.7975 81.1413 78.5425 80.722 78.3498 80.246L79.7098 79.668C79.8232 79.9287 79.9818 80.1837 80.1858 80.433C80.3898 80.671 80.6392 80.8863 80.9338 81.079C81.2285 81.2717 81.5628 81.4247 81.9368 81.538C82.3108 81.6513 82.7302 81.708 83.1948 81.708C83.7162 81.708 84.1695 81.64 84.5548 81.504C84.9515 81.3567 85.2802 81.164 85.5408 80.926C85.8015 80.688 85.9942 80.416 86.1188 80.11C86.2435 79.7927 86.3058 79.4583 86.3058 79.107C86.3058 78.3023 86.0055 77.6677 85.4048 77.203C84.8155 76.7383 83.9938 76.506 82.9398 76.506C82.3392 76.506 81.8348 76.591 81.4268 76.761C81.0302 76.9197 80.6562 77.1747 80.3048 77.526L79.0808 77.203L79.7778 71.1ZM89.3813 74.585C89.4833 74.0977 89.6533 73.633 89.8913 73.191C90.1293 72.749 90.4353 72.3637 90.8093 72.035C91.1833 71.695 91.6309 71.4287 92.1523 71.236C92.6736 71.0433 93.2686 70.947 93.9373 70.947C94.5606 70.947 95.1159 71.0377 95.6033 71.219C96.0906 71.389 96.5043 71.6327 96.8443 71.95C97.1843 72.2673 97.4393 72.647 97.6093 73.089C97.7906 73.531 97.8813 74.0127 97.8813 74.534C97.8813 75.2707 97.7226 75.9507 97.4053 76.574C97.0993 77.186 96.7083 77.747 96.2323 78.257C95.7563 78.767 95.2349 79.2317 94.6683 79.651C94.1016 80.059 93.5633 80.4217 93.0533 80.739L91.7443 81.555H98.3233V83H89.0583V81.81L91.6423 80.093C92.4923 79.5263 93.2176 79.005 93.8183 78.529C94.4189 78.0417 94.9063 77.5827 95.2803 77.152C95.6656 76.7213 95.9433 76.3077 96.1133 75.911C96.2946 75.503 96.3853 75.095 96.3853 74.687C96.3853 74.2677 96.3173 73.9107 96.1813 73.616C96.0566 73.3213 95.8753 73.0833 95.6373 72.902C95.4106 72.7207 95.1386 72.5903 94.8213 72.511C94.5153 72.4317 94.1866 72.392 93.8353 72.392C93.3253 72.392 92.8833 72.4713 92.5093 72.63C92.1466 72.7887 91.8349 72.9983 91.5743 73.259C91.3249 73.5083 91.1266 73.7917 90.9793 74.109C90.8433 74.415 90.7526 74.721 90.7073 75.027L89.3813 74.585ZM100.878 71.1H108.358V72.545H102.187L101.745 75.741C102.006 75.5483 102.357 75.3897 102.799 75.265C103.253 75.129 103.802 75.061 104.448 75.061C105.162 75.061 105.797 75.163 106.352 75.367C106.908 75.571 107.372 75.8543 107.746 76.217C108.12 76.5797 108.404 77.0047 108.596 77.492C108.8 77.9793 108.902 78.5007 108.902 79.056C108.902 79.6567 108.783 80.2063 108.545 80.705C108.319 81.2037 107.996 81.6343 107.576 81.997C107.168 82.3597 106.681 82.643 106.114 82.847C105.559 83.051 104.953 83.153 104.295 83.153C103.751 83.153 103.23 83.0907 102.731 82.966C102.233 82.8413 101.768 82.6543 101.337 82.405C100.918 82.1557 100.544 81.8553 100.215 81.504C99.8981 81.1413 99.6431 80.722 99.4504 80.246L100.81 79.668C100.924 79.9287 101.082 80.1837 101.286 80.433C101.49 80.671 101.74 80.8863 102.034 81.079C102.329 81.2717 102.663 81.4247 103.037 81.538C103.411 81.6513 103.831 81.708 104.295 81.708C104.817 81.708 105.27 81.64 105.655 81.504C106.052 81.3567 106.381 81.164 106.641 80.926C106.902 80.688 107.095 80.416 107.219 80.11C107.344 79.7927 107.406 79.4583 107.406 79.107C107.406 78.3023 107.106 77.6677 106.505 77.203C105.916 76.7383 105.094 76.506 104.04 76.506C103.44 76.506 102.935 76.591 102.527 76.761C102.131 76.9197 101.757 77.1747 101.405 77.526L100.181 77.203L100.878 71.1Z" fill="#222429"/>
<path d="M250.822 206.07C250.906 205.669 251.046 205.286 251.242 204.922C251.438 204.558 251.69 204.241 251.998 203.97C252.306 203.69 252.675 203.471 253.104 203.312C253.533 203.153 254.023 203.074 254.574 203.074C255.087 203.074 255.545 203.149 255.946 203.298C256.347 203.438 256.688 203.639 256.968 203.9C257.248 204.161 257.458 204.474 257.598 204.838C257.747 205.202 257.822 205.599 257.822 206.028C257.822 206.635 257.691 207.195 257.43 207.708C257.178 208.212 256.856 208.674 256.464 209.094C256.072 209.514 255.643 209.897 255.176 210.242C254.709 210.578 254.266 210.877 253.846 211.138L252.768 211.81H258.186V213H250.556V212.02L252.684 210.606C253.384 210.139 253.981 209.71 254.476 209.318C254.971 208.917 255.372 208.539 255.68 208.184C255.997 207.829 256.226 207.489 256.366 207.162C256.515 206.826 256.59 206.49 256.59 206.154C256.59 205.809 256.534 205.515 256.422 205.272C256.319 205.029 256.17 204.833 255.974 204.684C255.787 204.535 255.563 204.427 255.302 204.362C255.05 204.297 254.779 204.264 254.49 204.264C254.07 204.264 253.706 204.329 253.398 204.46C253.099 204.591 252.843 204.763 252.628 204.978C252.423 205.183 252.259 205.417 252.138 205.678C252.026 205.93 251.951 206.182 251.914 206.434L250.822 206.07ZM259.156 208.1C259.156 207.372 259.24 206.705 259.408 206.098C259.576 205.482 259.828 204.95 260.164 204.502C260.51 204.054 260.944 203.704 261.466 203.452C261.989 203.2 262.605 203.074 263.314 203.074C264.024 203.074 264.64 203.191 265.162 203.424C265.685 203.657 266.119 203.993 266.464 204.432C266.81 204.871 267.066 205.403 267.234 206.028C267.402 206.644 267.486 207.335 267.486 208.1C267.486 208.828 267.402 209.5 267.234 210.116C267.076 210.723 266.824 211.25 266.478 211.698C266.142 212.146 265.713 212.496 265.19 212.748C264.668 213 264.052 213.126 263.342 213.126C262.67 213.126 262.073 213 261.55 212.748C261.028 212.496 260.589 212.146 260.234 211.698C259.88 211.25 259.609 210.723 259.422 210.116C259.245 209.5 259.156 208.828 259.156 208.1ZM260.388 208.1C260.388 209.295 260.65 210.233 261.172 210.914C261.695 211.595 262.418 211.936 263.342 211.936C264.35 211.936 265.088 211.595 265.554 210.914C266.021 210.233 266.254 209.295 266.254 208.1C266.254 206.905 266.016 205.967 265.54 205.286C265.064 204.605 264.322 204.264 263.314 204.264C262.81 204.264 262.376 204.353 262.012 204.53C261.648 204.707 261.345 204.964 261.102 205.3C260.86 205.636 260.678 206.042 260.556 206.518C260.444 206.985 260.388 207.512 260.388 208.1ZM268.63 206.07C268.714 205.669 268.854 205.286 269.05 204.922C269.246 204.558 269.498 204.241 269.806 203.97C270.114 203.69 270.483 203.471 270.912 203.312C271.341 203.153 271.831 203.074 272.382 203.074C272.895 203.074 273.353 203.149 273.754 203.298C274.155 203.438 274.496 203.639 274.776 203.9C275.056 204.161 275.266 204.474 275.406 204.838C275.555 205.202 275.63 205.599 275.63 206.028C275.63 206.635 275.499 207.195 275.238 207.708C274.986 208.212 274.664 208.674 274.272 209.094C273.88 209.514 273.451 209.897 272.984 210.242C272.517 210.578 272.074 210.877 271.654 211.138L270.576 211.81H275.994V213H268.364V212.02L270.492 210.606C271.192 210.139 271.789 209.71 272.284 209.318C272.779 208.917 273.18 208.539 273.488 208.184C273.805 207.829 274.034 207.489 274.174 207.162C274.323 206.826 274.398 206.49 274.398 206.154C274.398 205.809 274.342 205.515 274.23 205.272C274.127 205.029 273.978 204.833 273.782 204.684C273.595 204.535 273.371 204.427 273.11 204.362C272.858 204.297 272.587 204.264 272.298 204.264C271.878 204.264 271.514 204.329 271.206 204.46C270.907 204.591 270.651 204.763 270.436 204.978C270.231 205.183 270.067 205.417 269.946 205.678C269.834 205.93 269.759 206.182 269.722 206.434L268.63 206.07ZM276.964 208.1C276.964 207.372 277.048 206.705 277.216 206.098C277.384 205.482 277.636 204.95 277.972 204.502C278.318 204.054 278.752 203.704 279.274 203.452C279.797 203.2 280.413 203.074 281.122 203.074C281.832 203.074 282.448 203.191 282.97 203.424C283.493 203.657 283.927 203.993 284.272 204.432C284.618 204.871 284.874 205.403 285.042 206.028C285.21 206.644 285.294 207.335 285.294 208.1C285.294 208.828 285.21 209.5 285.042 210.116C284.884 210.723 284.632 211.25 284.286 211.698C283.95 212.146 283.521 212.496 282.998 212.748C282.476 213 281.86 213.126 281.15 213.126C280.478 213.126 279.881 213 279.358 212.748C278.836 212.496 278.397 212.146 278.042 211.698C277.688 211.25 277.417 210.723 277.23 210.116C277.053 209.5 276.964 208.828 276.964 208.1ZM278.196 208.1C278.196 209.295 278.458 210.233 278.98 210.914C279.503 211.595 280.226 211.936 281.15 211.936C282.158 211.936 282.896 211.595 283.362 210.914C283.829 210.233 284.062 209.295 284.062 208.1C284.062 206.905 283.824 205.967 283.348 205.286C282.872 204.605 282.13 204.264 281.122 204.264C280.618 204.264 280.184 204.353 279.82 204.53C279.456 204.707 279.153 204.964 278.91 205.3C278.668 205.636 278.486 206.042 278.364 206.518C278.252 206.985 278.196 207.512 278.196 208.1Z" fill="#777F8C"/>
<rect x="243" y="62" width="50" height="131" fill="#BFCED4"/>
<rect x="243" y="62" width="50" height="4" fill="#A6B2BC"/>
<path d="M250.624 41.032H251.593V53H250.165V42.851L247.088 44.262L246.544 42.987L250.624 41.032ZM263.268 53.153C262.237 53.153 261.353 52.9547 260.616 52.558C259.891 52.1613 259.347 51.657 258.984 51.045L260.208 50.195C260.56 50.6823 261.019 51.0563 261.585 51.317C262.163 51.5777 262.792 51.708 263.472 51.708C263.994 51.708 264.47 51.606 264.9 51.402C265.342 51.1867 265.722 50.892 266.039 50.518C266.368 50.144 266.623 49.702 266.804 49.192C266.986 48.682 267.076 48.1267 267.076 47.526C267.076 47.458 267.076 47.39 267.076 47.322C267.076 47.254 267.071 47.186 267.059 47.118C266.787 47.764 266.323 48.3023 265.665 48.733C265.019 49.1523 264.198 49.362 263.2 49.362C262.543 49.362 261.937 49.2657 261.381 49.073C260.826 48.869 260.344 48.5913 259.936 48.24C259.528 47.8773 259.211 47.4467 258.984 46.948C258.758 46.4493 258.644 45.894 258.644 45.282C258.644 44.6247 258.763 44.0297 259.001 43.497C259.251 42.953 259.596 42.494 260.038 42.12C260.48 41.746 261.007 41.457 261.619 41.253C262.243 41.049 262.928 40.947 263.676 40.947C264.436 40.947 265.116 41.0773 265.716 41.338C266.328 41.5873 266.844 41.9613 267.263 42.46C267.694 42.9587 268.023 43.5763 268.249 44.313C268.476 45.0383 268.589 45.877 268.589 46.829C268.589 47.8717 268.459 48.7897 268.198 49.583C267.949 50.365 267.586 51.0223 267.11 51.555C266.646 52.0763 266.085 52.473 265.427 52.745C264.781 53.017 264.062 53.153 263.268 53.153ZM263.472 47.917C263.96 47.917 264.402 47.849 264.798 47.713C265.195 47.577 265.529 47.39 265.801 47.152C266.085 46.9027 266.3 46.6137 266.447 46.285C266.595 45.9563 266.668 45.605 266.668 45.231C266.668 44.8683 266.612 44.517 266.498 44.177C266.385 43.837 266.204 43.5367 265.954 43.276C265.705 43.004 265.376 42.7887 264.968 42.63C264.572 42.4713 264.084 42.392 263.506 42.392C262.452 42.392 261.625 42.63 261.024 43.106C260.435 43.5707 260.14 44.2563 260.14 45.163C260.14 46.0243 260.441 46.6987 261.041 47.186C261.642 47.6733 262.452 47.917 263.472 47.917ZM269.643 41.1H278.67V42.069L272.754 53H271.139L276.851 42.545H269.643V41.1ZM279.644 43.99C279.803 43.548 280.018 43.1457 280.29 42.783C280.562 42.409 280.891 42.086 281.276 41.814C281.673 41.542 282.126 41.3323 282.636 41.185C283.157 41.0263 283.741 40.947 284.387 40.947C284.965 40.947 285.498 41.0207 285.985 41.168C286.484 41.304 286.909 41.5023 287.26 41.763C287.623 42.0123 287.9 42.324 288.093 42.698C288.297 43.072 288.399 43.4857 288.399 43.939C288.399 44.6303 288.218 45.2197 287.855 45.707C287.504 46.1943 286.988 46.5343 286.308 46.727C286.603 46.7497 286.892 46.8233 287.175 46.948C287.458 47.0613 287.708 47.237 287.923 47.475C288.15 47.7017 288.331 47.9907 288.467 48.342C288.603 48.682 288.671 49.09 288.671 49.566C288.671 50.144 288.558 50.6597 288.331 51.113C288.116 51.555 287.81 51.929 287.413 52.235C287.028 52.5297 286.569 52.7563 286.036 52.915C285.503 53.0737 284.931 53.153 284.319 53.153C283.65 53.153 283.038 53.0737 282.483 52.915C281.939 52.7563 281.457 52.541 281.038 52.269C280.619 51.9857 280.262 51.6513 279.967 51.266C279.684 50.8693 279.468 50.433 279.321 49.957L280.698 49.362C280.845 49.668 281.021 49.9627 281.225 50.246C281.429 50.5293 281.678 50.7787 281.973 50.994C282.268 51.2093 282.613 51.385 283.01 51.521C283.407 51.6457 283.877 51.708 284.421 51.708C285.271 51.708 285.94 51.5267 286.427 51.164C286.926 50.79 287.175 50.263 287.175 49.583C287.175 49.209 287.096 48.8973 286.937 48.648C286.778 48.3873 286.557 48.1833 286.274 48.036C285.991 47.8773 285.656 47.7697 285.271 47.713C284.897 47.645 284.489 47.611 284.047 47.611H282.721V46.2H283.775C284.761 46.2 285.526 46.013 286.07 45.639C286.625 45.265 286.903 44.7947 286.903 44.228C286.903 43.616 286.671 43.157 286.206 42.851C285.741 42.545 285.112 42.392 284.319 42.392C283.832 42.392 283.401 42.4543 283.027 42.579C282.653 42.7037 282.324 42.868 282.041 43.072C281.769 43.276 281.537 43.5083 281.344 43.769C281.163 44.0297 281.021 44.296 280.919 44.568L279.644 43.99Z" fill="#222429"/>
<path d="M342.818 206.07C342.902 205.669 343.042 205.286 343.238 204.922C343.434 204.558 343.686 204.241 343.994 203.97C344.302 203.69 344.671 203.471 345.1 203.312C345.53 203.153 346.02 203.074 346.57 203.074C347.084 203.074 347.541 203.149 347.942 203.298C348.344 203.438 348.684 203.639 348.964 203.9C349.244 204.161 349.454 204.474 349.594 204.838C349.744 205.202 349.818 205.599 349.818 206.028C349.818 206.635 349.688 207.195 349.426 207.708C349.174 208.212 348.852 208.674 348.46 209.094C348.068 209.514 347.639 209.897 347.172 210.242C346.706 210.578 346.262 210.877 345.842 211.138L344.764 211.81H350.182V213H342.552V212.02L344.68 210.606C345.38 210.139 345.978 209.71 346.472 209.318C346.967 208.917 347.368 208.539 347.676 208.184C347.994 207.829 348.222 207.489 348.362 207.162C348.512 206.826 348.586 206.49 348.586 206.154C348.586 205.809 348.53 205.515 348.418 205.272C348.316 205.029 348.166 204.833 347.97 204.684C347.784 204.535 347.56 204.427 347.298 204.362C347.046 204.297 346.776 204.264 346.486 204.264C346.066 204.264 345.702 204.329 345.394 204.46C345.096 204.591 344.839 204.763 344.624 204.978C344.419 205.183 344.256 205.417 344.134 205.678C344.022 205.93 343.948 206.182 343.91 206.434L342.818 206.07ZM351.152 208.1C351.152 207.372 351.236 206.705 351.404 206.098C351.572 205.482 351.824 204.95 352.16 204.502C352.506 204.054 352.94 203.704 353.462 203.452C353.985 203.2 354.601 203.074 355.31 203.074C356.02 203.074 356.636 203.191 357.158 203.424C357.681 203.657 358.115 203.993 358.46 204.432C358.806 204.871 359.062 205.403 359.23 206.028C359.398 206.644 359.482 207.335 359.482 208.1C359.482 208.828 359.398 209.5 359.23 210.116C359.072 210.723 358.82 211.25 358.474 211.698C358.138 212.146 357.709 212.496 357.186 212.748C356.664 213 356.048 213.126 355.338 213.126C354.666 213.126 354.069 213 353.546 212.748C353.024 212.496 352.585 212.146 352.23 211.698C351.876 211.25 351.605 210.723 351.418 210.116C351.241 209.5 351.152 208.828 351.152 208.1ZM352.384 208.1C352.384 209.295 352.646 210.233 353.168 210.914C353.691 211.595 354.414 211.936 355.338 211.936C356.346 211.936 357.084 211.595 357.55 210.914C358.017 210.233 358.25 209.295 358.25 208.1C358.25 206.905 358.012 205.967 357.536 205.286C357.06 204.605 356.318 204.264 355.31 204.264C354.806 204.264 354.372 204.353 354.008 204.53C353.644 204.707 353.341 204.964 353.098 205.3C352.856 205.636 352.674 206.042 352.552 206.518C352.44 206.985 352.384 207.512 352.384 208.1ZM360.626 206.07C360.71 205.669 360.85 205.286 361.046 204.922C361.242 204.558 361.494 204.241 361.802 203.97C362.11 203.69 362.479 203.471 362.908 203.312C363.337 203.153 363.827 203.074 364.378 203.074C364.891 203.074 365.349 203.149 365.75 203.298C366.151 203.438 366.492 203.639 366.772 203.9C367.052 204.161 367.262 204.474 367.402 204.838C367.551 205.202 367.626 205.599 367.626 206.028C367.626 206.635 367.495 207.195 367.234 207.708C366.982 208.212 366.66 208.674 366.268 209.094C365.876 209.514 365.447 209.897 364.98 210.242C364.513 210.578 364.07 210.877 363.65 211.138L362.572 211.81H367.99V213H360.36V212.02L362.488 210.606C363.188 210.139 363.785 209.71 364.28 209.318C364.775 208.917 365.176 208.539 365.484 208.184C365.801 207.829 366.03 207.489 366.17 207.162C366.319 206.826 366.394 206.49 366.394 206.154C366.394 205.809 366.338 205.515 366.226 205.272C366.123 205.029 365.974 204.833 365.778 204.684C365.591 204.535 365.367 204.427 365.106 204.362C364.854 204.297 364.583 204.264 364.294 204.264C363.874 204.264 363.51 204.329 363.202 204.46C362.903 204.591 362.647 204.763 362.432 204.978C362.227 205.183 362.063 205.417 361.942 205.678C361.83 205.93 361.755 206.182 361.718 206.434L360.626 206.07ZM371.76 203.144H372.558V213H371.382V204.642L368.848 205.804L368.4 204.754L371.76 203.144Z" fill="#777F8C"/>
<rect x="333" y="49" width="50" height="144" fill="#BFCED4"/>
<rect x="333" y="49" width="50" height="4" fill="#A6B2BC"/>
<path d="M336.529 31.585C336.631 31.0977 336.801 30.633 337.039 30.191C337.277 29.749 337.583 29.3637 337.957 29.035C338.331 28.695 338.779 28.4287 339.3 28.236C339.822 28.0433 340.417 27.947 341.085 27.947C341.709 27.947 342.264 28.0377 342.751 28.219C343.239 28.389 343.652 28.6327 343.992 28.95C344.332 29.2673 344.587 29.647 344.757 30.089C344.939 30.531 345.029 31.0127 345.029 31.534C345.029 32.2707 344.871 32.9507 344.553 33.574C344.247 34.186 343.856 34.747 343.38 35.257C342.904 35.767 342.383 36.2317 341.816 36.651C341.25 37.059 340.711 37.4217 340.201 37.739L338.892 38.555H345.471V40H336.206V38.81L338.79 37.093C339.64 36.5263 340.366 36.005 340.966 35.529C341.567 35.0417 342.054 34.5827 342.428 34.152C342.814 33.7213 343.091 33.3077 343.261 32.911C343.443 32.503 343.533 32.095 343.533 31.687C343.533 31.2677 343.465 30.9107 343.329 30.616C343.205 30.3213 343.023 30.0833 342.785 29.902C342.559 29.7207 342.287 29.5903 341.969 29.511C341.663 29.4317 341.335 29.392 340.983 29.392C340.473 29.392 340.031 29.4713 339.657 29.63C339.295 29.7887 338.983 29.9983 338.722 30.259C338.473 30.5083 338.275 30.7917 338.127 31.109C337.991 31.415 337.901 31.721 337.855 32.027L336.529 31.585ZM354.984 28.032H355.953V40H354.525V29.851L351.448 31.262L350.904 29.987L354.984 28.032ZM362.864 40.153C361.833 40.153 360.949 39.9547 360.212 39.558C359.487 39.1613 358.943 38.657 358.58 38.045L359.804 37.195C360.155 37.6823 360.614 38.0563 361.181 38.317C361.759 38.5777 362.388 38.708 363.068 38.708C363.589 38.708 364.065 38.606 364.496 38.402C364.938 38.1867 365.318 37.892 365.635 37.518C365.964 37.144 366.219 36.702 366.4 36.192C366.581 35.682 366.672 35.1267 366.672 34.526C366.672 34.458 366.672 34.39 366.672 34.322C366.672 34.254 366.666 34.186 366.655 34.118C366.383 34.764 365.918 35.3023 365.261 35.733C364.615 36.1523 363.793 36.362 362.796 36.362C362.139 36.362 361.532 36.2657 360.977 36.073C360.422 35.869 359.94 35.5913 359.532 35.24C359.124 34.8773 358.807 34.4467 358.58 33.948C358.353 33.4493 358.24 32.894 358.24 32.282C358.24 31.6247 358.359 31.0297 358.597 30.497C358.846 29.953 359.192 29.494 359.634 29.12C360.076 28.746 360.603 28.457 361.215 28.253C361.838 28.049 362.524 27.947 363.272 27.947C364.031 27.947 364.711 28.0773 365.312 28.338C365.924 28.5873 366.44 28.9613 366.859 29.46C367.29 29.9587 367.618 30.5763 367.845 31.313C368.072 32.0383 368.185 32.877 368.185 33.829C368.185 34.8717 368.055 35.7897 367.794 36.583C367.545 37.365 367.182 38.0223 366.706 38.555C366.241 39.0763 365.68 39.473 365.023 39.745C364.377 40.017 363.657 40.153 362.864 40.153ZM363.068 34.917C363.555 34.917 363.997 34.849 364.394 34.713C364.791 34.577 365.125 34.39 365.397 34.152C365.68 33.9027 365.896 33.6137 366.043 33.285C366.19 32.9563 366.264 32.605 366.264 32.231C366.264 31.8683 366.207 31.517 366.094 31.177C365.981 30.837 365.799 30.5367 365.55 30.276C365.301 30.004 364.972 29.7887 364.564 29.63C364.167 29.4713 363.68 29.392 363.102 29.392C362.048 29.392 361.221 29.63 360.62 30.106C360.031 30.5707 359.736 31.2563 359.736 32.163C359.736 33.0243 360.036 33.6987 360.637 34.186C361.238 34.6733 362.048 34.917 363.068 34.917ZM376.413 37.62H369.086V36.532L376.583 28.1H377.841V36.175H380.051V37.62H377.841V40H376.413V37.62ZM376.413 36.175V30.48L371.126 36.175H376.413Z" fill="#222429"/>
</svg>
