<svg viewBox="0 0 535 213" fill="none" xmlns="http://www.w3.org/2000/svg">
<line x1="-3.16332e-08" y1="192.5" x2="535" y2="192.5" stroke="#CBCFD6"/>
<path d="M431.294 205.07C431.378 204.669 431.518 204.286 431.714 203.922C431.91 203.558 432.162 203.241 432.47 202.97C432.778 202.69 433.146 202.471 433.576 202.312C434.005 202.153 434.495 202.074 435.046 202.074C435.559 202.074 436.016 202.149 436.418 202.298C436.819 202.438 437.16 202.639 437.44 202.9C437.72 203.161 437.93 203.474 438.07 203.838C438.219 204.202 438.294 204.599 438.294 205.028C438.294 205.635 438.163 206.195 437.902 206.708C437.65 207.212 437.328 207.674 436.936 208.094C436.544 208.514 436.114 208.897 435.648 209.242C435.181 209.578 434.738 209.877 434.318 210.138L433.24 210.81H438.658V212H431.028V211.02L433.156 209.606C433.856 209.139 434.453 208.71 434.948 208.318C435.442 207.917 435.844 207.539 436.152 207.184C436.469 206.829 436.698 206.489 436.838 206.162C436.987 205.826 437.062 205.49 437.062 205.154C437.062 204.809 437.006 204.515 436.894 204.272C436.791 204.029 436.642 203.833 436.446 203.684C436.259 203.535 436.035 203.427 435.774 203.362C435.522 203.297 435.251 203.264 434.962 203.264C434.542 203.264 434.178 203.329 433.87 203.46C433.571 203.591 433.314 203.763 433.1 203.978C432.894 204.183 432.731 204.417 432.61 204.678C432.498 204.93 432.423 205.182 432.386 205.434L431.294 205.07ZM439.628 207.1C439.628 206.372 439.712 205.705 439.88 205.098C440.048 204.482 440.3 203.95 440.636 203.502C440.981 203.054 441.415 202.704 441.938 202.452C442.461 202.2 443.077 202.074 443.786 202.074C444.495 202.074 445.111 202.191 445.634 202.424C446.157 202.657 446.591 202.993 446.936 203.432C447.281 203.871 447.538 204.403 447.706 205.028C447.874 205.644 447.958 206.335 447.958 207.1C447.958 207.828 447.874 208.5 447.706 209.116C447.547 209.723 447.295 210.25 446.95 210.698C446.614 211.146 446.185 211.496 445.662 211.748C445.139 212 444.523 212.126 443.814 212.126C443.142 212.126 442.545 212 442.022 211.748C441.499 211.496 441.061 211.146 440.706 210.698C440.351 210.25 440.081 209.723 439.894 209.116C439.717 208.5 439.628 207.828 439.628 207.1ZM440.86 207.1C440.86 208.295 441.121 209.233 441.644 209.914C442.167 210.595 442.89 210.936 443.814 210.936C444.822 210.936 445.559 210.595 446.026 209.914C446.493 209.233 446.726 208.295 446.726 207.1C446.726 205.905 446.488 204.967 446.012 204.286C445.536 203.605 444.794 203.264 443.786 203.264C443.282 203.264 442.848 203.353 442.484 203.53C442.12 203.707 441.817 203.964 441.574 204.3C441.331 204.636 441.149 205.042 441.028 205.518C440.916 205.985 440.86 206.512 440.86 207.1ZM449.102 205.07C449.186 204.669 449.326 204.286 449.522 203.922C449.718 203.558 449.97 203.241 450.278 202.97C450.586 202.69 450.954 202.471 451.384 202.312C451.813 202.153 452.303 202.074 452.854 202.074C453.367 202.074 453.824 202.149 454.226 202.298C454.627 202.438 454.968 202.639 455.248 202.9C455.528 203.161 455.738 203.474 455.878 203.838C456.027 204.202 456.102 204.599 456.102 205.028C456.102 205.635 455.971 206.195 455.71 206.708C455.458 207.212 455.136 207.674 454.744 208.094C454.352 208.514 453.922 208.897 453.456 209.242C452.989 209.578 452.546 209.877 452.126 210.138L451.048 210.81H456.466V212H448.836V211.02L450.964 209.606C451.664 209.139 452.261 208.71 452.756 208.318C453.25 207.917 453.652 207.539 453.96 207.184C454.277 206.829 454.506 206.489 454.646 206.162C454.795 205.826 454.87 205.49 454.87 205.154C454.87 204.809 454.814 204.515 454.702 204.272C454.599 204.029 454.45 203.833 454.254 203.684C454.067 203.535 453.843 203.427 453.582 203.362C453.33 203.297 453.059 203.264 452.77 203.264C452.35 203.264 451.986 203.329 451.678 203.46C451.379 203.591 451.122 203.763 450.908 203.978C450.702 204.183 450.539 204.417 450.418 204.678C450.306 204.93 450.231 205.182 450.194 205.434L449.102 205.07ZM457.534 205.07C457.618 204.669 457.758 204.286 457.954 203.922C458.15 203.558 458.402 203.241 458.71 202.97C459.018 202.69 459.387 202.471 459.816 202.312C460.245 202.153 460.735 202.074 461.286 202.074C461.799 202.074 462.257 202.149 462.658 202.298C463.059 202.438 463.4 202.639 463.68 202.9C463.96 203.161 464.17 203.474 464.31 203.838C464.459 204.202 464.534 204.599 464.534 205.028C464.534 205.635 464.403 206.195 464.142 206.708C463.89 207.212 463.568 207.674 463.176 208.094C462.784 208.514 462.355 208.897 461.888 209.242C461.421 209.578 460.978 209.877 460.558 210.138L459.48 210.81H464.898V212H457.268V211.02L459.396 209.606C460.096 209.139 460.693 208.71 461.188 208.318C461.683 207.917 462.084 207.539 462.392 207.184C462.709 206.829 462.938 206.489 463.078 206.162C463.227 205.826 463.302 205.49 463.302 205.154C463.302 204.809 463.246 204.515 463.134 204.272C463.031 204.029 462.882 203.833 462.686 203.684C462.499 203.535 462.275 203.427 462.014 203.362C461.762 203.297 461.491 203.264 461.202 203.264C460.782 203.264 460.418 203.329 460.11 203.46C459.811 203.591 459.555 203.763 459.34 203.978C459.135 204.183 458.971 204.417 458.85 204.678C458.738 204.93 458.663 205.182 458.626 205.434L457.534 205.07Z" fill="#5FAF2D"/>
<rect x="423" y="22" width="50" height="170" fill="#5FAF2D"/>
<rect x="423" y="22" width="50" height="4" fill="#3D7917"/>
<path d="M422.213 4.585C422.315 4.09767 422.485 3.633 422.723 3.191C422.961 2.749 423.267 2.36367 423.641 2.035C424.015 1.695 424.462 1.42867 424.984 1.236C425.505 1.04333 426.1 0.946999 426.769 0.946999C427.392 0.946999 427.947 1.03767 428.435 1.219C428.922 1.389 429.336 1.63267 429.676 1.95C430.016 2.26733 430.271 2.647 430.441 3.089C430.622 3.531 430.713 4.01267 430.713 4.534C430.713 5.27067 430.554 5.95067 430.237 6.574C429.931 7.186 429.54 7.747 429.064 8.257C428.588 8.767 428.066 9.23167 427.5 9.651C426.933 10.059 426.395 10.4217 425.885 10.739L424.576 11.555H431.155V13H421.89V11.81L424.474 10.093C425.324 9.52633 426.049 9.005 426.65 8.529C427.25 8.04167 427.738 7.58267 428.112 7.152C428.497 6.72133 428.775 6.30767 428.945 5.911C429.126 5.503 429.217 5.095 429.217 4.687C429.217 4.26767 429.149 3.91067 429.013 3.616C428.888 3.32133 428.707 3.08333 428.469 2.902C428.242 2.72067 427.97 2.59033 427.653 2.511C427.347 2.43167 427.018 2.392 426.667 2.392C426.157 2.392 425.715 2.47133 425.341 2.63C424.978 2.78867 424.666 2.99833 424.406 3.259C424.156 3.50833 423.958 3.79167 423.811 4.109C423.675 4.415 423.584 4.721 423.539 5.027L422.213 4.585ZM435.903 1.032H436.872V13H435.444V2.851L432.367 4.262L431.823 2.987L435.903 1.032ZM443.873 3.99C444.031 3.548 444.247 3.14567 444.519 2.783C444.791 2.409 445.119 2.086 445.505 1.814C445.901 1.542 446.355 1.33233 446.865 1.185C447.386 1.02633 447.97 0.946999 448.616 0.946999C449.194 0.946999 449.726 1.02067 450.214 1.168C450.712 1.304 451.137 1.50233 451.489 1.763C451.851 2.01233 452.129 2.324 452.322 2.698C452.526 3.072 452.628 3.48567 452.628 3.939C452.628 4.63033 452.446 5.21967 452.084 5.707C451.732 6.19433 451.217 6.53433 450.537 6.727C450.831 6.74967 451.12 6.82333 451.404 6.948C451.687 7.06133 451.936 7.237 452.152 7.475C452.378 7.70167 452.56 7.99067 452.696 8.342C452.832 8.682 452.9 9.09 452.9 9.566C452.9 10.144 452.786 10.6597 452.56 11.113C452.344 11.555 452.038 11.929 451.642 12.235C451.256 12.5297 450.797 12.7563 450.265 12.915C449.732 13.0737 449.16 13.153 448.548 13.153C447.879 13.153 447.267 13.0737 446.712 12.915C446.168 12.7563 445.686 12.541 445.267 12.269C444.847 11.9857 444.49 11.6513 444.196 11.266C443.912 10.8693 443.697 10.433 443.55 9.957L444.927 9.362C445.074 9.668 445.25 9.96267 445.454 10.246C445.658 10.5293 445.907 10.7787 446.202 10.994C446.496 11.2093 446.842 11.385 447.239 11.521C447.635 11.6457 448.106 11.708 448.65 11.708C449.5 11.708 450.168 11.5267 450.656 11.164C451.154 10.79 451.404 10.263 451.404 9.583C451.404 9.209 451.324 8.89733 451.166 8.648C451.007 8.38733 450.786 8.18333 450.503 8.036C450.219 7.87733 449.885 7.76967 449.5 7.713C449.126 7.645 448.718 7.611 448.276 7.611H446.95V6.2H448.004C448.99 6.2 449.755 6.013 450.299 5.639C450.854 5.265 451.132 4.79467 451.132 4.228C451.132 3.616 450.899 3.157 450.435 2.851C449.97 2.545 449.341 2.392 448.548 2.392C448.06 2.392 447.63 2.45433 447.256 2.579C446.882 2.70367 446.553 2.868 446.27 3.072C445.998 3.276 445.765 3.50833 445.573 3.769C445.391 4.02967 445.25 4.296 445.148 4.568L443.873 3.99ZM454.586 4.585C454.688 4.09767 454.858 3.633 455.096 3.191C455.334 2.749 455.64 2.36367 456.014 2.035C456.388 1.695 456.836 1.42867 457.357 1.236C457.878 1.04333 458.473 0.946999 459.142 0.946999C459.765 0.946999 460.321 1.03767 460.808 1.219C461.295 1.389 461.709 1.63267 462.049 1.95C462.389 2.26733 462.644 2.647 462.814 3.089C462.995 3.531 463.086 4.01267 463.086 4.534C463.086 5.27067 462.927 5.95067 462.61 6.574C462.304 7.186 461.913 7.747 461.437 8.257C460.961 8.767 460.44 9.23167 459.873 9.651C459.306 10.059 458.768 10.4217 458.258 10.739L456.949 11.555H463.528V13H454.263V11.81L456.847 10.093C457.697 9.52633 458.422 9.005 459.023 8.529C459.624 8.04167 460.111 7.58267 460.485 7.152C460.87 6.72133 461.148 6.30767 461.318 5.911C461.499 5.503 461.59 5.095 461.59 4.687C461.59 4.26767 461.522 3.91067 461.386 3.616C461.261 3.32133 461.08 3.08333 460.842 2.902C460.615 2.72067 460.343 2.59033 460.026 2.511C459.72 2.43167 459.391 2.392 459.04 2.392C458.53 2.392 458.088 2.47133 457.714 2.63C457.351 2.78867 457.04 2.99833 456.779 3.259C456.53 3.50833 456.331 3.79167 456.184 4.109C456.048 4.415 455.957 4.721 455.912 5.027L454.586 4.585ZM464.774 3.99C464.933 3.548 465.148 3.14567 465.42 2.783C465.692 2.409 466.021 2.086 466.406 1.814C466.803 1.542 467.256 1.33233 467.766 1.185C468.287 1.02633 468.871 0.946999 469.517 0.946999C470.095 0.946999 470.628 1.02067 471.115 1.168C471.614 1.304 472.039 1.50233 472.39 1.763C472.753 2.01233 473.03 2.324 473.223 2.698C473.427 3.072 473.529 3.48567 473.529 3.939C473.529 4.63033 473.348 5.21967 472.985 5.707C472.634 6.19433 472.118 6.53433 471.438 6.727C471.733 6.74967 472.022 6.82333 472.305 6.948C472.588 7.06133 472.838 7.237 473.053 7.475C473.28 7.70167 473.461 7.99067 473.597 8.342C473.733 8.682 473.801 9.09 473.801 9.566C473.801 10.144 473.688 10.6597 473.461 11.113C473.246 11.555 472.94 11.929 472.543 12.235C472.158 12.5297 471.699 12.7563 471.166 12.915C470.633 13.0737 470.061 13.153 469.449 13.153C468.78 13.153 468.168 13.0737 467.613 12.915C467.069 12.7563 466.587 12.541 466.168 12.269C465.749 11.9857 465.392 11.6513 465.097 11.266C464.814 10.8693 464.598 10.433 464.451 9.957L465.828 9.362C465.975 9.668 466.151 9.96267 466.355 10.246C466.559 10.5293 466.808 10.7787 467.103 10.994C467.398 11.2093 467.743 11.385 468.14 11.521C468.537 11.6457 469.007 11.708 469.551 11.708C470.401 11.708 471.07 11.5267 471.557 11.164C472.056 10.79 472.305 10.263 472.305 9.583C472.305 9.209 472.226 8.89733 472.067 8.648C471.908 8.38733 471.687 8.18333 471.404 8.036C471.121 7.87733 470.786 7.76967 470.401 7.713C470.027 7.645 469.619 7.611 469.177 7.611H467.851V6.2H468.905C469.891 6.2 470.656 6.013 471.2 5.639C471.755 5.265 472.033 4.79467 472.033 4.228C472.033 3.616 471.801 3.157 471.336 2.851C470.871 2.545 470.242 2.392 469.449 2.392C468.962 2.392 468.531 2.45433 468.157 2.579C467.783 2.70367 467.454 2.868 467.171 3.072C466.899 3.276 466.667 3.50833 466.474 3.769C466.293 4.02967 466.151 4.296 466.049 4.568L464.774 3.99Z" fill="#222429"/>
<path d="M162.435 205.07C162.519 204.669 162.659 204.286 162.855 203.922C163.051 203.558 163.303 203.241 163.611 202.97C163.919 202.69 164.288 202.471 164.717 202.312C165.147 202.153 165.637 202.074 166.187 202.074C166.701 202.074 167.158 202.149 167.559 202.298C167.961 202.438 168.301 202.639 168.581 202.9C168.861 203.161 169.071 203.474 169.211 203.838C169.361 204.202 169.435 204.599 169.435 205.028C169.435 205.635 169.305 206.195 169.043 206.708C168.791 207.212 168.469 207.674 168.077 208.094C167.685 208.514 167.256 208.897 166.789 209.242C166.323 209.578 165.879 209.877 165.459 210.138L164.381 210.81H169.799V212H162.169V211.02L164.297 209.606C164.997 209.139 165.595 208.71 166.089 208.318C166.584 207.917 166.985 207.539 167.293 207.184C167.611 206.829 167.839 206.489 167.979 206.162C168.129 205.826 168.203 205.49 168.203 205.154C168.203 204.809 168.147 204.515 168.035 204.272C167.933 204.029 167.783 203.833 167.587 203.684C167.401 203.535 167.177 203.427 166.915 203.362C166.663 203.297 166.393 203.264 166.103 203.264C165.683 203.264 165.319 203.329 165.011 203.46C164.713 203.591 164.456 203.763 164.241 203.978C164.036 204.183 163.873 204.417 163.751 204.678C163.639 204.93 163.565 205.182 163.527 205.434L162.435 205.07ZM170.77 207.1C170.77 206.372 170.854 205.705 171.022 205.098C171.19 204.482 171.442 203.95 171.778 203.502C172.123 203.054 172.557 202.704 173.08 202.452C173.602 202.2 174.218 202.074 174.928 202.074C175.637 202.074 176.253 202.191 176.776 202.424C177.298 202.657 177.732 202.993 178.078 203.432C178.423 203.871 178.68 204.403 178.848 205.028C179.016 205.644 179.1 206.335 179.1 207.1C179.1 207.828 179.016 208.5 178.848 209.116C178.689 209.723 178.437 210.25 178.092 210.698C177.756 211.146 177.326 211.496 176.804 211.748C176.281 212 175.665 212.126 174.956 212.126C174.284 212.126 173.686 212 173.164 211.748C172.641 211.496 172.202 211.146 171.848 210.698C171.493 210.25 171.222 209.723 171.036 209.116C170.858 208.5 170.77 207.828 170.77 207.1ZM172.002 207.1C172.002 208.295 172.263 209.233 172.786 209.914C173.308 210.595 174.032 210.936 174.956 210.936C175.964 210.936 176.701 210.595 177.168 209.914C177.634 209.233 177.868 208.295 177.868 207.1C177.868 205.905 177.63 204.967 177.154 204.286C176.678 203.605 175.936 203.264 174.928 203.264C174.424 203.264 173.99 203.353 173.626 203.53C173.262 203.707 172.958 203.964 172.716 204.3C172.473 204.636 172.291 205.042 172.17 205.518C172.058 205.985 172.002 206.512 172.002 207.1ZM182.945 202.144H183.743V212H182.567V203.642L180.033 204.804L179.585 203.754L182.945 202.144ZM189.295 212.126C188.445 212.126 187.717 211.963 187.111 211.636C186.513 211.309 186.065 210.894 185.767 210.39L186.775 209.69C187.064 210.091 187.442 210.399 187.909 210.614C188.385 210.829 188.903 210.936 189.463 210.936C189.892 210.936 190.284 210.852 190.639 210.684C191.003 210.507 191.315 210.264 191.577 209.956C191.847 209.648 192.057 209.284 192.207 208.864C192.356 208.444 192.431 207.987 192.431 207.492C192.431 207.436 192.431 207.38 192.431 207.324C192.431 207.268 192.426 207.212 192.417 207.156C192.193 207.688 191.81 208.131 191.269 208.486C190.737 208.831 190.06 209.004 189.239 209.004C188.697 209.004 188.198 208.925 187.741 208.766C187.283 208.598 186.887 208.369 186.551 208.08C186.215 207.781 185.953 207.427 185.767 207.016C185.58 206.605 185.487 206.148 185.487 205.644C185.487 205.103 185.585 204.613 185.781 204.174C185.986 203.726 186.271 203.348 186.635 203.04C186.999 202.732 187.433 202.494 187.937 202.326C188.45 202.158 189.015 202.074 189.631 202.074C190.256 202.074 190.816 202.181 191.311 202.396C191.815 202.601 192.239 202.909 192.585 203.32C192.939 203.731 193.21 204.239 193.397 204.846C193.583 205.443 193.677 206.134 193.677 206.918C193.677 207.777 193.569 208.533 193.355 209.186C193.149 209.83 192.851 210.371 192.459 210.81C192.076 211.239 191.614 211.566 191.073 211.79C190.541 212.014 189.948 212.126 189.295 212.126ZM189.463 207.814C189.864 207.814 190.228 207.758 190.555 207.646C190.881 207.534 191.157 207.38 191.381 207.184C191.614 206.979 191.791 206.741 191.913 206.47C192.034 206.199 192.095 205.91 192.095 205.602C192.095 205.303 192.048 205.014 191.955 204.734C191.861 204.454 191.712 204.207 191.507 203.992C191.301 203.768 191.031 203.591 190.695 203.46C190.368 203.329 189.967 203.264 189.491 203.264C188.623 203.264 187.941 203.46 187.447 203.852C186.961 204.235 186.719 204.799 186.719 205.546C186.719 206.255 186.966 206.811 187.461 207.212C187.955 207.613 188.623 207.814 189.463 207.814Z" fill="#777F8C"/>
<rect x="153" y="63" width="50" height="129" fill="#BFCED4"/>
<rect x="153" y="63" width="50" height="4" fill="#A6B2BC"/>
<path d="M155.012 42.032H155.981V54H154.553V43.851L151.476 45.262L150.932 43.987L155.012 42.032ZM163.521 54.153C162.728 54.153 162.008 54.0283 161.362 53.779C160.728 53.5297 160.184 53.1613 159.73 52.674C159.277 52.1753 158.926 51.569 158.676 50.855C158.438 50.141 158.319 49.3137 158.319 48.373C158.319 47.3077 158.461 46.3727 158.744 45.568C159.028 44.7633 159.407 44.0947 159.883 43.562C160.371 43.018 160.932 42.6157 161.566 42.355C162.212 42.083 162.892 41.947 163.606 41.947C164.638 41.947 165.516 42.1567 166.241 42.576C166.967 42.9953 167.494 43.562 167.822 44.276L166.666 45.058C166.338 44.548 165.913 44.1457 165.391 43.851C164.881 43.545 164.264 43.392 163.538 43.392C162.972 43.392 162.462 43.5053 162.008 43.732C161.555 43.9473 161.164 44.2647 160.835 44.684C160.507 45.092 160.252 45.5907 160.07 46.18C159.889 46.758 159.793 47.4097 159.781 48.135V48.322C159.94 47.948 160.155 47.6193 160.427 47.336C160.711 47.0527 161.028 46.8147 161.379 46.622C161.731 46.4293 162.105 46.2877 162.501 46.197C162.909 46.095 163.323 46.044 163.742 46.044C164.434 46.044 165.057 46.1403 165.612 46.333C166.168 46.5257 166.638 46.7977 167.023 47.149C167.42 47.5003 167.72 47.9197 167.924 48.407C168.128 48.8943 168.23 49.4327 168.23 50.022C168.23 50.634 168.106 51.195 167.856 51.705C167.618 52.215 167.284 52.6513 166.853 53.014C166.434 53.3767 165.935 53.66 165.357 53.864C164.791 54.0567 164.179 54.153 163.521 54.153ZM163.504 52.708C163.98 52.708 164.411 52.6457 164.796 52.521C165.193 52.3963 165.533 52.2207 165.816 51.994C166.111 51.756 166.338 51.4783 166.496 51.161C166.655 50.8437 166.734 50.4867 166.734 50.09C166.734 49.6593 166.655 49.2853 166.496 48.968C166.349 48.6393 166.139 48.3673 165.867 48.152C165.595 47.9253 165.267 47.761 164.881 47.659C164.507 47.5457 164.099 47.489 163.657 47.489C162.569 47.489 161.742 47.7213 161.175 48.186C160.62 48.6507 160.342 49.2457 160.342 49.971C160.342 50.345 160.416 50.6963 160.563 51.025C160.711 51.3537 160.92 51.6427 161.192 51.892C161.464 52.1413 161.793 52.3397 162.178 52.487C162.575 52.6343 163.017 52.708 163.504 52.708ZM174.509 45.585C174.611 45.0977 174.781 44.633 175.019 44.191C175.257 43.749 175.563 43.3637 175.937 43.035C176.311 42.695 176.758 42.4287 177.28 42.236C177.801 42.0433 178.396 41.947 179.065 41.947C179.688 41.947 180.243 42.0377 180.731 42.219C181.218 42.389 181.632 42.6327 181.972 42.95C182.312 43.2673 182.567 43.647 182.737 44.089C182.918 44.531 183.009 45.0127 183.009 45.534C183.009 46.2707 182.85 46.9507 182.533 47.574C182.227 48.186 181.836 48.747 181.36 49.257C180.884 49.767 180.362 50.2317 179.796 50.651C179.229 51.059 178.691 51.4217 178.181 51.739L176.872 52.555H183.451V54H174.186V52.81L176.77 51.093C177.62 50.5263 178.345 50.005 178.946 49.529C179.546 49.0417 180.034 48.5827 180.408 48.152C180.793 47.7213 181.071 47.3077 181.241 46.911C181.422 46.503 181.513 46.095 181.513 45.687C181.513 45.2677 181.445 44.9107 181.309 44.616C181.184 44.3213 181.003 44.0833 180.765 43.902C180.538 43.7207 180.266 43.5903 179.949 43.511C179.643 43.4317 179.314 43.392 178.963 43.392C178.453 43.392 178.011 43.4713 177.637 43.63C177.274 43.7887 176.962 43.9983 176.702 44.259C176.452 44.5083 176.254 44.7917 176.107 45.109C175.971 45.415 175.88 45.721 175.835 46.027L174.509 45.585ZM189.372 54.153C188.341 54.153 187.457 53.9547 186.72 53.558C185.995 53.1613 185.451 52.657 185.088 52.045L186.312 51.195C186.663 51.6823 187.122 52.0563 187.689 52.317C188.267 52.5777 188.896 52.708 189.576 52.708C190.097 52.708 190.573 52.606 191.004 52.402C191.446 52.1867 191.826 51.892 192.143 51.518C192.472 51.144 192.727 50.702 192.908 50.192C193.089 49.682 193.18 49.1267 193.18 48.526C193.18 48.458 193.18 48.39 193.18 48.322C193.18 48.254 193.174 48.186 193.163 48.118C192.891 48.764 192.426 49.3023 191.769 49.733C191.123 50.1523 190.301 50.362 189.304 50.362C188.647 50.362 188.04 50.2657 187.485 50.073C186.93 49.869 186.448 49.5913 186.04 49.24C185.632 48.8773 185.315 48.4467 185.088 47.948C184.861 47.4493 184.748 46.894 184.748 46.282C184.748 45.6247 184.867 45.0297 185.105 44.497C185.354 43.953 185.7 43.494 186.142 43.12C186.584 42.746 187.111 42.457 187.723 42.253C188.346 42.049 189.032 41.947 189.78 41.947C190.539 41.947 191.219 42.0773 191.82 42.338C192.432 42.5873 192.948 42.9613 193.367 43.46C193.798 43.9587 194.126 44.5763 194.353 45.313C194.58 46.0383 194.693 46.877 194.693 47.829C194.693 48.8717 194.563 49.7897 194.302 50.583C194.053 51.365 193.69 52.0223 193.214 52.555C192.749 53.0763 192.188 53.473 191.531 53.745C190.885 54.017 190.165 54.153 189.372 54.153ZM189.576 48.917C190.063 48.917 190.505 48.849 190.902 48.713C191.299 48.577 191.633 48.39 191.905 48.152C192.188 47.9027 192.404 47.6137 192.551 47.285C192.698 46.9563 192.772 46.605 192.772 46.231C192.772 45.8683 192.715 45.517 192.602 45.177C192.489 44.837 192.307 44.5367 192.058 44.276C191.809 44.004 191.48 43.7887 191.072 43.63C190.675 43.4713 190.188 43.392 189.61 43.392C188.556 43.392 187.729 43.63 187.128 44.106C186.539 44.5707 186.244 45.2563 186.244 46.163C186.244 47.0243 186.544 47.6987 187.145 48.186C187.746 48.6733 188.556 48.917 189.576 48.917ZM195.747 42.1H204.774V43.069L198.858 54H197.243L202.955 43.545H195.747V42.1Z" fill="#222429"/>
<path d="M72.4354 205.07C72.5194 204.669 72.6594 204.286 72.8554 203.922C73.0514 203.558 73.3034 203.241 73.6114 202.97C73.9194 202.69 74.2881 202.471 74.7174 202.312C75.1467 202.153 75.6367 202.074 76.1874 202.074C76.7007 202.074 77.1581 202.149 77.5594 202.298C77.9607 202.438 78.3014 202.639 78.5814 202.9C78.8614 203.161 79.0714 203.474 79.2114 203.838C79.3607 204.202 79.4354 204.599 79.4354 205.028C79.4354 205.635 79.3047 206.195 79.0434 206.708C78.7914 207.212 78.4694 207.674 78.0774 208.094C77.6854 208.514 77.2561 208.897 76.7894 209.242C76.3227 209.578 75.8794 209.877 75.4594 210.138L74.3814 210.81H79.7994V212H72.1694V211.02L74.2974 209.606C74.9974 209.139 75.5947 208.71 76.0894 208.318C76.5841 207.917 76.9854 207.539 77.2934 207.184C77.6107 206.829 77.8394 206.489 77.9794 206.162C78.1287 205.826 78.2034 205.49 78.2034 205.154C78.2034 204.809 78.1474 204.515 78.0354 204.272C77.9327 204.029 77.7834 203.833 77.5874 203.684C77.4007 203.535 77.1767 203.427 76.9154 203.362C76.6634 203.297 76.3927 203.264 76.1034 203.264C75.6834 203.264 75.3194 203.329 75.0114 203.46C74.7127 203.591 74.4561 203.763 74.2414 203.978C74.0361 204.183 73.8727 204.417 73.7514 204.678C73.6394 204.93 73.5647 205.182 73.5274 205.434L72.4354 205.07ZM80.7697 207.1C80.7697 206.372 80.8537 205.705 81.0217 205.098C81.1897 204.482 81.4417 203.95 81.7777 203.502C82.123 203.054 82.557 202.704 83.0797 202.452C83.6023 202.2 84.2183 202.074 84.9277 202.074C85.637 202.074 86.253 202.191 86.7757 202.424C87.2983 202.657 87.7323 202.993 88.0777 203.432C88.423 203.871 88.6797 204.403 88.8477 205.028C89.0157 205.644 89.0997 206.335 89.0997 207.1C89.0997 207.828 89.0157 208.5 88.8477 209.116C88.689 209.723 88.437 210.25 88.0917 210.698C87.7557 211.146 87.3263 211.496 86.8037 211.748C86.281 212 85.665 212.126 84.9557 212.126C84.2837 212.126 83.6863 212 83.1637 211.748C82.641 211.496 82.2023 211.146 81.8477 210.698C81.493 210.25 81.2223 209.723 81.0357 209.116C80.8583 208.5 80.7697 207.828 80.7697 207.1ZM82.0017 207.1C82.0017 208.295 82.263 209.233 82.7857 209.914C83.3083 210.595 84.0317 210.936 84.9557 210.936C85.9637 210.936 86.701 210.595 87.1677 209.914C87.6343 209.233 87.8677 208.295 87.8677 207.1C87.8677 205.905 87.6297 204.967 87.1537 204.286C86.6777 203.605 85.9357 203.264 84.9277 203.264C84.4237 203.264 83.9897 203.353 83.6257 203.53C83.2617 203.707 82.9583 203.964 82.7157 204.3C82.473 204.636 82.291 205.042 82.1697 205.518C82.0577 205.985 82.0017 206.512 82.0017 207.1ZM92.9453 202.144H93.7433V212H92.5673V203.642L90.0333 204.804L89.5853 203.754L92.9453 202.144ZM99.8267 206.414C100.144 206.414 100.438 206.377 100.709 206.302C100.989 206.218 101.231 206.106 101.437 205.966C101.642 205.826 101.801 205.658 101.913 205.462C102.034 205.266 102.095 205.051 102.095 204.818C102.095 204.314 101.885 203.931 101.465 203.67C101.054 203.399 100.424 203.264 99.5747 203.264C98.7534 203.264 98.1327 203.399 97.7127 203.67C97.3021 203.941 97.0967 204.323 97.0967 204.818C97.0967 205.042 97.1527 205.252 97.2647 205.448C97.3767 205.644 97.5307 205.817 97.7267 205.966C97.9321 206.106 98.1747 206.218 98.4547 206.302C98.7441 206.377 99.0567 206.414 99.3927 206.414H99.8267ZM99.4487 207.52C99.0567 207.52 98.6927 207.567 98.3567 207.66C98.0301 207.744 97.7501 207.865 97.5167 208.024C97.2834 208.173 97.1014 208.355 96.9707 208.57C96.8401 208.775 96.7747 208.995 96.7747 209.228C96.7747 209.732 97.0081 210.143 97.4747 210.46C97.9507 210.777 98.6554 210.936 99.5887 210.936C100.55 210.936 101.259 210.787 101.717 210.488C102.174 210.18 102.403 209.765 102.403 209.242C102.403 208.691 102.165 208.267 101.689 207.968C101.222 207.669 100.592 207.52 99.7987 207.52H99.4487ZM99.6027 212.126C98.9774 212.126 98.4127 212.065 97.9087 211.944C97.4141 211.813 96.9894 211.631 96.6347 211.398C96.2894 211.155 96.0187 210.866 95.8227 210.53C95.6361 210.185 95.5427 209.793 95.5427 209.354C95.5427 208.775 95.7154 208.276 96.0607 207.856C96.4154 207.427 96.8867 207.119 97.4747 206.932C97.1947 206.839 96.9521 206.717 96.7467 206.568C96.5414 206.409 96.3734 206.232 96.2427 206.036C96.1121 205.84 96.0141 205.635 95.9487 205.42C95.8927 205.196 95.8647 204.967 95.8647 204.734C95.8647 203.922 96.1821 203.278 96.8167 202.802C97.4607 202.317 98.3847 202.074 99.5887 202.074C100.802 202.074 101.726 202.317 102.361 202.802C103.005 203.278 103.327 203.922 103.327 204.734C103.327 205.238 103.187 205.663 102.907 206.008C102.636 206.353 102.258 206.638 101.773 206.862C102.445 207.067 102.921 207.375 103.201 207.786C103.49 208.197 103.635 208.701 103.635 209.298C103.635 209.746 103.541 210.147 103.355 210.502C103.168 210.847 102.897 211.141 102.543 211.384C102.197 211.627 101.773 211.813 101.269 211.944C100.774 212.065 100.219 212.126 99.6027 212.126Z" fill="#777F8C"/>
<rect x="63" y="77" width="50" height="115" fill="#BFCED4"/>
<rect x="63" y="77" width="50" height="4" fill="#A6B2BC"/>
<path d="M63.9914 56.032H64.9604V68H63.5324V57.851L60.4554 59.262L59.9114 57.987L63.9914 56.032ZM74.0814 65.62H66.7544V64.532L74.2514 56.1H75.5094V64.175H77.7194V65.62H75.5094V68H74.0814V65.62ZM74.0814 64.175V58.48L68.7944 64.175H74.0814ZM90.2679 65.62H82.9409V64.532L90.4379 56.1H91.6959V64.175H93.9059V65.62H91.6959V68H90.2679V65.62ZM90.2679 64.175V58.48L84.9809 64.175H90.2679ZM94.8048 58.99C94.9634 58.548 95.1788 58.1457 95.4508 57.783C95.7228 57.409 96.0514 57.086 96.4368 56.814C96.8334 56.542 97.2868 56.3323 97.7968 56.185C98.3181 56.0263 98.9018 55.947 99.5478 55.947C100.126 55.947 100.658 56.0207 101.146 56.168C101.644 56.304 102.069 56.5023 102.421 56.763C102.783 57.0123 103.061 57.324 103.254 57.698C103.458 58.072 103.56 58.4857 103.56 58.939C103.56 59.6303 103.378 60.2197 103.016 60.707C102.664 61.1943 102.149 61.5343 101.469 61.727C101.763 61.7497 102.052 61.8233 102.336 61.948C102.619 62.0613 102.868 62.237 103.084 62.475C103.31 62.7017 103.492 62.9907 103.628 63.342C103.764 63.682 103.832 64.09 103.832 64.566C103.832 65.144 103.718 65.6597 103.492 66.113C103.276 66.555 102.97 66.929 102.574 67.235C102.188 67.5297 101.729 67.7563 101.197 67.915C100.664 68.0737 100.092 68.153 99.4798 68.153C98.8111 68.153 98.1991 68.0737 97.6438 67.915C97.0998 67.7563 96.6181 67.541 96.1988 67.269C95.7794 66.9857 95.4224 66.6513 95.1278 66.266C94.8444 65.8693 94.6291 65.433 94.4818 64.957L95.8588 64.362C96.0061 64.668 96.1818 64.9627 96.3858 65.246C96.5898 65.5293 96.8391 65.7787 97.1338 65.994C97.4284 66.2093 97.7741 66.385 98.1708 66.521C98.5674 66.6457 99.0378 66.708 99.5818 66.708C100.432 66.708 101.1 66.5267 101.588 66.164C102.086 65.79 102.336 65.263 102.336 64.583C102.336 64.209 102.256 63.8973 102.098 63.648C101.939 63.3873 101.718 63.1833 101.435 63.036C101.151 62.8773 100.817 62.7697 100.432 62.713C100.058 62.645 99.6498 62.611 99.2078 62.611H97.8818V61.2H98.9358C99.9218 61.2 100.687 61.013 101.231 60.639C101.786 60.265 102.064 59.7947 102.064 59.228C102.064 58.616 101.831 58.157 101.367 57.851C100.902 57.545 100.273 57.392 99.4798 57.392C98.9924 57.392 98.5618 57.4543 98.1878 57.579C97.8138 57.7037 97.4851 57.868 97.2018 58.072C96.9298 58.276 96.6974 58.5083 96.5048 58.769C96.3234 59.0297 96.1818 59.296 96.0798 59.568L94.8048 58.99ZM108.799 56.032H109.768V68H108.34V57.851L105.263 59.262L104.719 57.987L108.799 56.032Z" fill="#222429"/>
<path d="M250.822 205.07C250.906 204.669 251.046 204.286 251.242 203.922C251.438 203.558 251.69 203.241 251.998 202.97C252.306 202.69 252.675 202.471 253.104 202.312C253.533 202.153 254.023 202.074 254.574 202.074C255.087 202.074 255.545 202.149 255.946 202.298C256.347 202.438 256.688 202.639 256.968 202.9C257.248 203.161 257.458 203.474 257.598 203.838C257.747 204.202 257.822 204.599 257.822 205.028C257.822 205.635 257.691 206.195 257.43 206.708C257.178 207.212 256.856 207.674 256.464 208.094C256.072 208.514 255.643 208.897 255.176 209.242C254.709 209.578 254.266 209.877 253.846 210.138L252.768 210.81H258.186V212H250.556V211.02L252.684 209.606C253.384 209.139 253.981 208.71 254.476 208.318C254.971 207.917 255.372 207.539 255.68 207.184C255.997 206.829 256.226 206.489 256.366 206.162C256.515 205.826 256.59 205.49 256.59 205.154C256.59 204.809 256.534 204.515 256.422 204.272C256.319 204.029 256.17 203.833 255.974 203.684C255.787 203.535 255.563 203.427 255.302 203.362C255.05 203.297 254.779 203.264 254.49 203.264C254.07 203.264 253.706 203.329 253.398 203.46C253.099 203.591 252.843 203.763 252.628 203.978C252.423 204.183 252.259 204.417 252.138 204.678C252.026 204.93 251.951 205.182 251.914 205.434L250.822 205.07ZM259.156 207.1C259.156 206.372 259.24 205.705 259.408 205.098C259.576 204.482 259.828 203.95 260.164 203.502C260.51 203.054 260.944 202.704 261.466 202.452C261.989 202.2 262.605 202.074 263.314 202.074C264.024 202.074 264.64 202.191 265.162 202.424C265.685 202.657 266.119 202.993 266.464 203.432C266.81 203.871 267.066 204.403 267.234 205.028C267.402 205.644 267.486 206.335 267.486 207.1C267.486 207.828 267.402 208.5 267.234 209.116C267.076 209.723 266.824 210.25 266.478 210.698C266.142 211.146 265.713 211.496 265.19 211.748C264.668 212 264.052 212.126 263.342 212.126C262.67 212.126 262.073 212 261.55 211.748C261.028 211.496 260.589 211.146 260.234 210.698C259.88 210.25 259.609 209.723 259.422 209.116C259.245 208.5 259.156 207.828 259.156 207.1ZM260.388 207.1C260.388 208.295 260.65 209.233 261.172 209.914C261.695 210.595 262.418 210.936 263.342 210.936C264.35 210.936 265.088 210.595 265.554 209.914C266.021 209.233 266.254 208.295 266.254 207.1C266.254 205.905 266.016 204.967 265.54 204.286C265.064 203.605 264.322 203.264 263.314 203.264C262.81 203.264 262.376 203.353 262.012 203.53C261.648 203.707 261.345 203.964 261.102 204.3C260.86 204.636 260.678 205.042 260.556 205.518C260.444 205.985 260.388 206.512 260.388 207.1ZM268.63 205.07C268.714 204.669 268.854 204.286 269.05 203.922C269.246 203.558 269.498 203.241 269.806 202.97C270.114 202.69 270.483 202.471 270.912 202.312C271.341 202.153 271.831 202.074 272.382 202.074C272.895 202.074 273.353 202.149 273.754 202.298C274.155 202.438 274.496 202.639 274.776 202.9C275.056 203.161 275.266 203.474 275.406 203.838C275.555 204.202 275.63 204.599 275.63 205.028C275.63 205.635 275.499 206.195 275.238 206.708C274.986 207.212 274.664 207.674 274.272 208.094C273.88 208.514 273.451 208.897 272.984 209.242C272.517 209.578 272.074 209.877 271.654 210.138L270.576 210.81H275.994V212H268.364V211.02L270.492 209.606C271.192 209.139 271.789 208.71 272.284 208.318C272.779 207.917 273.18 207.539 273.488 207.184C273.805 206.829 274.034 206.489 274.174 206.162C274.323 205.826 274.398 205.49 274.398 205.154C274.398 204.809 274.342 204.515 274.23 204.272C274.127 204.029 273.978 203.833 273.782 203.684C273.595 203.535 273.371 203.427 273.11 203.362C272.858 203.297 272.587 203.264 272.298 203.264C271.878 203.264 271.514 203.329 271.206 203.46C270.907 203.591 270.651 203.763 270.436 203.978C270.231 204.183 270.067 204.417 269.946 204.678C269.834 204.93 269.759 205.182 269.722 205.434L268.63 205.07ZM276.964 207.1C276.964 206.372 277.048 205.705 277.216 205.098C277.384 204.482 277.636 203.95 277.972 203.502C278.318 203.054 278.752 202.704 279.274 202.452C279.797 202.2 280.413 202.074 281.122 202.074C281.832 202.074 282.448 202.191 282.97 202.424C283.493 202.657 283.927 202.993 284.272 203.432C284.618 203.871 284.874 204.403 285.042 205.028C285.21 205.644 285.294 206.335 285.294 207.1C285.294 207.828 285.21 208.5 285.042 209.116C284.884 209.723 284.632 210.25 284.286 210.698C283.95 211.146 283.521 211.496 282.998 211.748C282.476 212 281.86 212.126 281.15 212.126C280.478 212.126 279.881 212 279.358 211.748C278.836 211.496 278.397 211.146 278.042 210.698C277.688 210.25 277.417 209.723 277.23 209.116C277.053 208.5 276.964 207.828 276.964 207.1ZM278.196 207.1C278.196 208.295 278.458 209.233 278.98 209.914C279.503 210.595 280.226 210.936 281.15 210.936C282.158 210.936 282.896 210.595 283.362 209.914C283.829 209.233 284.062 208.295 284.062 207.1C284.062 205.905 283.824 204.967 283.348 204.286C282.872 203.605 282.13 203.264 281.122 203.264C280.618 203.264 280.184 203.353 279.82 203.53C279.456 203.707 279.153 203.964 278.91 204.3C278.668 204.636 278.486 205.042 278.364 205.518C278.252 205.985 278.196 206.512 278.196 207.1Z" fill="#777F8C"/>
<rect x="243" y="51" width="50" height="141" fill="#BFCED4"/>
<rect x="243" y="51" width="50" height="4" fill="#A6B2BC"/>
<path d="M246.05 30.032H247.019V42H245.591V31.851L242.514 33.262L241.97 31.987L246.05 30.032ZM248.966 30.1H257.993V31.069L252.077 42H250.462L256.174 31.545H248.966V30.1ZM263.443 30.1H272.47V31.069L266.554 42H264.939L270.651 31.545H263.443V30.1ZM273.545 36.05C273.545 35.166 273.647 34.3557 273.851 33.619C274.055 32.871 274.361 32.225 274.769 31.681C275.189 31.137 275.716 30.712 276.35 30.406C276.985 30.1 277.733 29.947 278.594 29.947C279.456 29.947 280.204 30.0887 280.838 30.372C281.473 30.6553 282 31.0633 282.419 31.596C282.839 32.1287 283.15 32.7747 283.354 33.534C283.558 34.282 283.66 35.1207 283.66 36.05C283.66 36.934 283.558 37.75 283.354 38.498C283.162 39.2347 282.856 39.875 282.436 40.419C282.028 40.963 281.507 41.388 280.872 41.694C280.238 42 279.49 42.153 278.628 42.153C277.812 42.153 277.087 42 276.452 41.694C275.818 41.388 275.285 40.963 274.854 40.419C274.424 39.875 274.095 39.2347 273.868 38.498C273.653 37.75 273.545 36.934 273.545 36.05ZM275.041 36.05C275.041 37.5007 275.359 38.6397 275.993 39.467C276.628 40.2943 277.506 40.708 278.628 40.708C279.852 40.708 280.748 40.2943 281.314 39.467C281.881 38.6397 282.164 37.5007 282.164 36.05C282.164 34.5993 281.875 33.4603 281.297 32.633C280.719 31.8057 279.818 31.392 278.594 31.392C277.982 31.392 277.455 31.4997 277.013 31.715C276.571 31.9303 276.203 32.242 275.908 32.65C275.614 33.058 275.393 33.551 275.245 34.129C275.109 34.6957 275.041 35.336 275.041 36.05ZM284.709 30.1H293.736V31.069L287.82 42H286.205L291.917 31.545H284.709V30.1Z" fill="#222429"/>
<path d="M342.818 205.07C342.902 204.669 343.042 204.286 343.238 203.922C343.434 203.558 343.686 203.241 343.994 202.97C344.302 202.69 344.671 202.471 345.1 202.312C345.53 202.153 346.02 202.074 346.57 202.074C347.084 202.074 347.541 202.149 347.942 202.298C348.344 202.438 348.684 202.639 348.964 202.9C349.244 203.161 349.454 203.474 349.594 203.838C349.744 204.202 349.818 204.599 349.818 205.028C349.818 205.635 349.688 206.195 349.426 206.708C349.174 207.212 348.852 207.674 348.46 208.094C348.068 208.514 347.639 208.897 347.172 209.242C346.706 209.578 346.262 209.877 345.842 210.138L344.764 210.81H350.182V212H342.552V211.02L344.68 209.606C345.38 209.139 345.978 208.71 346.472 208.318C346.967 207.917 347.368 207.539 347.676 207.184C347.994 206.829 348.222 206.489 348.362 206.162C348.512 205.826 348.586 205.49 348.586 205.154C348.586 204.809 348.53 204.515 348.418 204.272C348.316 204.029 348.166 203.833 347.97 203.684C347.784 203.535 347.56 203.427 347.298 203.362C347.046 203.297 346.776 203.264 346.486 203.264C346.066 203.264 345.702 203.329 345.394 203.46C345.096 203.591 344.839 203.763 344.624 203.978C344.419 204.183 344.256 204.417 344.134 204.678C344.022 204.93 343.948 205.182 343.91 205.434L342.818 205.07ZM351.152 207.1C351.152 206.372 351.236 205.705 351.404 205.098C351.572 204.482 351.824 203.95 352.16 203.502C352.506 203.054 352.94 202.704 353.462 202.452C353.985 202.2 354.601 202.074 355.31 202.074C356.02 202.074 356.636 202.191 357.158 202.424C357.681 202.657 358.115 202.993 358.46 203.432C358.806 203.871 359.062 204.403 359.23 205.028C359.398 205.644 359.482 206.335 359.482 207.1C359.482 207.828 359.398 208.5 359.23 209.116C359.072 209.723 358.82 210.25 358.474 210.698C358.138 211.146 357.709 211.496 357.186 211.748C356.664 212 356.048 212.126 355.338 212.126C354.666 212.126 354.069 212 353.546 211.748C353.024 211.496 352.585 211.146 352.23 210.698C351.876 210.25 351.605 209.723 351.418 209.116C351.241 208.5 351.152 207.828 351.152 207.1ZM352.384 207.1C352.384 208.295 352.646 209.233 353.168 209.914C353.691 210.595 354.414 210.936 355.338 210.936C356.346 210.936 357.084 210.595 357.55 209.914C358.017 209.233 358.25 208.295 358.25 207.1C358.25 205.905 358.012 204.967 357.536 204.286C357.06 203.605 356.318 203.264 355.31 203.264C354.806 203.264 354.372 203.353 354.008 203.53C353.644 203.707 353.341 203.964 353.098 204.3C352.856 204.636 352.674 205.042 352.552 205.518C352.44 205.985 352.384 206.512 352.384 207.1ZM360.626 205.07C360.71 204.669 360.85 204.286 361.046 203.922C361.242 203.558 361.494 203.241 361.802 202.97C362.11 202.69 362.479 202.471 362.908 202.312C363.337 202.153 363.827 202.074 364.378 202.074C364.891 202.074 365.349 202.149 365.75 202.298C366.151 202.438 366.492 202.639 366.772 202.9C367.052 203.161 367.262 203.474 367.402 203.838C367.551 204.202 367.626 204.599 367.626 205.028C367.626 205.635 367.495 206.195 367.234 206.708C366.982 207.212 366.66 207.674 366.268 208.094C365.876 208.514 365.447 208.897 364.98 209.242C364.513 209.578 364.07 209.877 363.65 210.138L362.572 210.81H367.99V212H360.36V211.02L362.488 209.606C363.188 209.139 363.785 208.71 364.28 208.318C364.775 207.917 365.176 207.539 365.484 207.184C365.801 206.829 366.03 206.489 366.17 206.162C366.319 205.826 366.394 205.49 366.394 205.154C366.394 204.809 366.338 204.515 366.226 204.272C366.123 204.029 365.974 203.833 365.778 203.684C365.591 203.535 365.367 203.427 365.106 203.362C364.854 203.297 364.583 203.264 364.294 203.264C363.874 203.264 363.51 203.329 363.202 203.46C362.903 203.591 362.647 203.763 362.432 203.978C362.227 204.183 362.063 204.417 361.942 204.678C361.83 204.93 361.755 205.182 361.718 205.434L360.626 205.07ZM371.76 202.144H372.558V212H371.382V203.642L368.848 204.804L368.4 203.754L371.76 202.144Z" fill="#777F8C"/>
<rect x="333" y="40" width="50" height="152" fill="#BFCED4"/>
<rect x="333" y="40" width="50" height="4" fill="#A6B2BC"/>
<path d="M338.814 19.032H339.783V31H338.355V20.851L335.278 22.262L334.734 20.987L338.814 19.032ZM346.694 31.153C345.663 31.153 344.779 30.9547 344.042 30.558C343.317 30.1613 342.773 29.657 342.41 29.045L343.634 28.195C343.985 28.6823 344.444 29.0563 345.011 29.317C345.589 29.5777 346.218 29.708 346.898 29.708C347.419 29.708 347.895 29.606 348.326 29.402C348.768 29.1867 349.148 28.892 349.465 28.518C349.794 28.144 350.049 27.702 350.23 27.192C350.411 26.682 350.502 26.1267 350.502 25.526C350.502 25.458 350.502 25.39 350.502 25.322C350.502 25.254 350.496 25.186 350.485 25.118C350.213 25.764 349.748 26.3023 349.091 26.733C348.445 27.1523 347.623 27.362 346.626 27.362C345.969 27.362 345.362 27.2657 344.807 27.073C344.252 26.869 343.77 26.5913 343.362 26.24C342.954 25.8773 342.637 25.4467 342.41 24.948C342.183 24.4493 342.07 23.894 342.07 23.282C342.07 22.6247 342.189 22.0297 342.427 21.497C342.676 20.953 343.022 20.494 343.464 20.12C343.906 19.746 344.433 19.457 345.045 19.253C345.668 19.049 346.354 18.947 347.102 18.947C347.861 18.947 348.541 19.0773 349.142 19.338C349.754 19.5873 350.27 19.9613 350.689 20.46C351.12 20.9587 351.448 21.5763 351.675 22.313C351.902 23.0383 352.015 23.877 352.015 24.829C352.015 25.8717 351.885 26.7897 351.624 27.583C351.375 28.365 351.012 29.0223 350.536 29.555C350.071 30.0763 349.51 30.473 348.853 30.745C348.207 31.017 347.487 31.153 346.694 31.153ZM346.898 25.917C347.385 25.917 347.827 25.849 348.224 25.713C348.621 25.577 348.955 25.39 349.227 25.152C349.51 24.9027 349.726 24.6137 349.873 24.285C350.02 23.9563 350.094 23.605 350.094 23.231C350.094 22.8683 350.037 22.517 349.924 22.177C349.811 21.837 349.629 21.5367 349.38 21.276C349.131 21.004 348.802 20.7887 348.394 20.63C347.997 20.4713 347.51 20.392 346.932 20.392C345.878 20.392 345.051 20.63 344.45 21.106C343.861 21.5707 343.566 22.2563 343.566 23.163C343.566 24.0243 343.866 24.6987 344.467 25.186C345.068 25.6733 345.878 25.917 346.898 25.917ZM361.625 19.032H362.594V31H361.166V20.851L358.089 22.262L357.545 20.987L361.625 19.032ZM365.051 22.585C365.153 22.0977 365.323 21.633 365.561 21.191C365.799 20.749 366.105 20.3637 366.479 20.035C366.853 19.695 367.3 19.4287 367.822 19.236C368.343 19.0433 368.938 18.947 369.607 18.947C370.23 18.947 370.785 19.0377 371.273 19.219C371.76 19.389 372.174 19.6327 372.514 19.95C372.854 20.2673 373.109 20.647 373.279 21.089C373.46 21.531 373.551 22.0127 373.551 22.534C373.551 23.2707 373.392 23.9507 373.075 24.574C372.769 25.186 372.378 25.747 371.902 26.257C371.426 26.767 370.904 27.2317 370.338 27.651C369.771 28.059 369.233 28.4217 368.723 28.739L367.414 29.555H373.993V31H364.728V29.81L367.312 28.093C368.162 27.5263 368.887 27.005 369.488 26.529C370.088 26.0417 370.576 25.5827 370.95 25.152C371.335 24.7213 371.613 24.3077 371.783 23.911C371.964 23.503 372.055 23.095 372.055 22.687C372.055 22.2677 371.987 21.9107 371.851 21.616C371.726 21.3213 371.545 21.0833 371.307 20.902C371.08 20.7207 370.808 20.5903 370.491 20.511C370.185 20.4317 369.856 20.392 369.505 20.392C368.995 20.392 368.553 20.4713 368.179 20.63C367.816 20.7887 367.504 20.9983 367.244 21.259C366.994 21.5083 366.796 21.7917 366.649 22.109C366.513 22.415 366.422 22.721 366.377 23.027L365.051 22.585ZM378.741 19.032H379.71V31H378.282V20.851L375.205 22.262L374.661 20.987L378.741 19.032Z" fill="#222429"/>
</svg>
