<svg viewBox="0 0 535 213" fill="none" xmlns="http://www.w3.org/2000/svg">
<line x1="-3.16332e-08" y1="192.5" x2="535" y2="192.5" stroke="#CBCFD6"/>
<path d="M431.294 205.07C431.378 204.669 431.518 204.286 431.714 203.922C431.91 203.558 432.162 203.241 432.47 202.97C432.778 202.69 433.146 202.471 433.576 202.312C434.005 202.153 434.495 202.074 435.046 202.074C435.559 202.074 436.016 202.149 436.418 202.298C436.819 202.438 437.16 202.639 437.44 202.9C437.72 203.161 437.93 203.474 438.07 203.838C438.219 204.202 438.294 204.599 438.294 205.028C438.294 205.635 438.163 206.195 437.902 206.708C437.65 207.212 437.328 207.674 436.936 208.094C436.544 208.514 436.114 208.897 435.648 209.242C435.181 209.578 434.738 209.877 434.318 210.138L433.24 210.81H438.658V212H431.028V211.02L433.156 209.606C433.856 209.139 434.453 208.71 434.948 208.318C435.442 207.917 435.844 207.539 436.152 207.184C436.469 206.829 436.698 206.489 436.838 206.162C436.987 205.826 437.062 205.49 437.062 205.154C437.062 204.809 437.006 204.515 436.894 204.272C436.791 204.029 436.642 203.833 436.446 203.684C436.259 203.535 436.035 203.427 435.774 203.362C435.522 203.297 435.251 203.264 434.962 203.264C434.542 203.264 434.178 203.329 433.87 203.46C433.571 203.591 433.314 203.763 433.1 203.978C432.894 204.183 432.731 204.417 432.61 204.678C432.498 204.93 432.423 205.182 432.386 205.434L431.294 205.07ZM439.628 207.1C439.628 206.372 439.712 205.705 439.88 205.098C440.048 204.482 440.3 203.95 440.636 203.502C440.981 203.054 441.415 202.704 441.938 202.452C442.461 202.2 443.077 202.074 443.786 202.074C444.495 202.074 445.111 202.191 445.634 202.424C446.157 202.657 446.591 202.993 446.936 203.432C447.281 203.871 447.538 204.403 447.706 205.028C447.874 205.644 447.958 206.335 447.958 207.1C447.958 207.828 447.874 208.5 447.706 209.116C447.547 209.723 447.295 210.25 446.95 210.698C446.614 211.146 446.185 211.496 445.662 211.748C445.139 212 444.523 212.126 443.814 212.126C443.142 212.126 442.545 212 442.022 211.748C441.499 211.496 441.061 211.146 440.706 210.698C440.351 210.25 440.081 209.723 439.894 209.116C439.717 208.5 439.628 207.828 439.628 207.1ZM440.86 207.1C440.86 208.295 441.121 209.233 441.644 209.914C442.167 210.595 442.89 210.936 443.814 210.936C444.822 210.936 445.559 210.595 446.026 209.914C446.493 209.233 446.726 208.295 446.726 207.1C446.726 205.905 446.488 204.967 446.012 204.286C445.536 203.605 444.794 203.264 443.786 203.264C443.282 203.264 442.848 203.353 442.484 203.53C442.12 203.707 441.817 203.964 441.574 204.3C441.331 204.636 441.149 205.042 441.028 205.518C440.916 205.985 440.86 206.512 440.86 207.1ZM449.102 205.07C449.186 204.669 449.326 204.286 449.522 203.922C449.718 203.558 449.97 203.241 450.278 202.97C450.586 202.69 450.954 202.471 451.384 202.312C451.813 202.153 452.303 202.074 452.854 202.074C453.367 202.074 453.824 202.149 454.226 202.298C454.627 202.438 454.968 202.639 455.248 202.9C455.528 203.161 455.738 203.474 455.878 203.838C456.027 204.202 456.102 204.599 456.102 205.028C456.102 205.635 455.971 206.195 455.71 206.708C455.458 207.212 455.136 207.674 454.744 208.094C454.352 208.514 453.922 208.897 453.456 209.242C452.989 209.578 452.546 209.877 452.126 210.138L451.048 210.81H456.466V212H448.836V211.02L450.964 209.606C451.664 209.139 452.261 208.71 452.756 208.318C453.25 207.917 453.652 207.539 453.96 207.184C454.277 206.829 454.506 206.489 454.646 206.162C454.795 205.826 454.87 205.49 454.87 205.154C454.87 204.809 454.814 204.515 454.702 204.272C454.599 204.029 454.45 203.833 454.254 203.684C454.067 203.535 453.843 203.427 453.582 203.362C453.33 203.297 453.059 203.264 452.77 203.264C452.35 203.264 451.986 203.329 451.678 203.46C451.379 203.591 451.122 203.763 450.908 203.978C450.702 204.183 450.539 204.417 450.418 204.678C450.306 204.93 450.231 205.182 450.194 205.434L449.102 205.07ZM457.534 205.07C457.618 204.669 457.758 204.286 457.954 203.922C458.15 203.558 458.402 203.241 458.71 202.97C459.018 202.69 459.387 202.471 459.816 202.312C460.245 202.153 460.735 202.074 461.286 202.074C461.799 202.074 462.257 202.149 462.658 202.298C463.059 202.438 463.4 202.639 463.68 202.9C463.96 203.161 464.17 203.474 464.31 203.838C464.459 204.202 464.534 204.599 464.534 205.028C464.534 205.635 464.403 206.195 464.142 206.708C463.89 207.212 463.568 207.674 463.176 208.094C462.784 208.514 462.355 208.897 461.888 209.242C461.421 209.578 460.978 209.877 460.558 210.138L459.48 210.81H464.898V212H457.268V211.02L459.396 209.606C460.096 209.139 460.693 208.71 461.188 208.318C461.683 207.917 462.084 207.539 462.392 207.184C462.709 206.829 462.938 206.489 463.078 206.162C463.227 205.826 463.302 205.49 463.302 205.154C463.302 204.809 463.246 204.515 463.134 204.272C463.031 204.029 462.882 203.833 462.686 203.684C462.499 203.535 462.275 203.427 462.014 203.362C461.762 203.297 461.491 203.264 461.202 203.264C460.782 203.264 460.418 203.329 460.11 203.46C459.811 203.591 459.555 203.763 459.34 203.978C459.135 204.183 458.971 204.417 458.85 204.678C458.738 204.93 458.663 205.182 458.626 205.434L457.534 205.07Z" fill="#5FAF2D"/>
<rect x="423" y="22" width="50" height="170" fill="#5FAF2D"/>
<rect x="423" y="22" width="50" height="4" fill="#3D7917"/>
<path d="M422.736 4.585C422.838 4.09767 423.008 3.633 423.246 3.191C423.484 2.749 423.79 2.36367 424.164 2.035C424.538 1.695 424.985 1.42867 425.507 1.236C426.028 1.04333 426.623 0.946999 427.292 0.946999C427.915 0.946999 428.47 1.03767 428.958 1.219C429.445 1.389 429.859 1.63267 430.199 1.95C430.539 2.26733 430.794 2.647 430.964 3.089C431.145 3.531 431.236 4.01267 431.236 4.534C431.236 5.27067 431.077 5.95067 430.76 6.574C430.454 7.186 430.063 7.747 429.587 8.257C429.111 8.767 428.589 9.23167 428.023 9.651C427.456 10.059 426.918 10.4217 426.408 10.739L425.099 11.555H431.678V13H422.413V11.81L424.997 10.093C425.847 9.52633 426.572 9.005 427.173 8.529C427.773 8.04167 428.261 7.58267 428.635 7.152C429.02 6.72133 429.298 6.30767 429.468 5.911C429.649 5.503 429.74 5.095 429.74 4.687C429.74 4.26767 429.672 3.91067 429.536 3.616C429.411 3.32133 429.23 3.08333 428.992 2.902C428.765 2.72067 428.493 2.59033 428.176 2.511C427.87 2.43167 427.541 2.392 427.19 2.392C426.68 2.392 426.238 2.47133 425.864 2.63C425.501 2.78867 425.189 2.99833 424.929 3.259C424.679 3.50833 424.481 3.79167 424.334 4.109C424.198 4.415 424.107 4.721 424.062 5.027L422.736 4.585ZM436.426 1.032H437.395V13H435.967V2.851L432.89 4.262L432.346 2.987L436.426 1.032ZM439.512 14.649C439.659 14.615 439.812 14.5527 439.971 14.462C440.141 14.3713 440.294 14.258 440.43 14.122C440.566 13.986 440.674 13.8387 440.753 13.68C440.844 13.5213 440.889 13.357 440.889 13.187C440.889 13.1077 440.883 13.0453 440.872 13C440.815 13.0113 440.747 13.017 440.668 13.017C440.419 13.017 440.203 12.9377 440.022 12.779C439.852 12.6203 439.767 12.3937 439.767 12.099C439.767 11.8043 439.858 11.572 440.039 11.402C440.22 11.2207 440.475 11.13 440.804 11.13C441.167 11.13 441.461 11.2547 441.688 11.504C441.926 11.742 442.045 12.1047 442.045 12.592C442.045 13.0567 441.983 13.4533 441.858 13.782C441.733 14.1107 441.569 14.3883 441.365 14.615C441.161 14.8417 440.929 15.0173 440.668 15.142C440.407 15.278 440.141 15.38 439.869 15.448L439.512 14.649ZM443.35 3.99C443.508 3.548 443.724 3.14567 443.996 2.783C444.268 2.409 444.596 2.086 444.982 1.814C445.378 1.542 445.832 1.33233 446.342 1.185C446.863 1.02633 447.447 0.946999 448.093 0.946999C448.671 0.946999 449.203 1.02067 449.691 1.168C450.189 1.304 450.614 1.50233 450.966 1.763C451.328 2.01233 451.606 2.324 451.799 2.698C452.003 3.072 452.105 3.48567 452.105 3.939C452.105 4.63033 451.923 5.21967 451.561 5.707C451.209 6.19433 450.694 6.53433 450.014 6.727C450.308 6.74967 450.597 6.82333 450.881 6.948C451.164 7.06133 451.413 7.237 451.629 7.475C451.855 7.70167 452.037 7.99067 452.173 8.342C452.309 8.682 452.377 9.09 452.377 9.566C452.377 10.144 452.263 10.6597 452.037 11.113C451.821 11.555 451.515 11.929 451.119 12.235C450.733 12.5297 450.274 12.7563 449.742 12.915C449.209 13.0737 448.637 13.153 448.025 13.153C447.356 13.153 446.744 13.0737 446.189 12.915C445.645 12.7563 445.163 12.541 444.744 12.269C444.324 11.9857 443.967 11.6513 443.673 11.266C443.389 10.8693 443.174 10.433 443.027 9.957L444.404 9.362C444.551 9.668 444.727 9.96267 444.931 10.246C445.135 10.5293 445.384 10.7787 445.679 10.994C445.973 11.2093 446.319 11.385 446.716 11.521C447.112 11.6457 447.583 11.708 448.127 11.708C448.977 11.708 449.645 11.5267 450.133 11.164C450.631 10.79 450.881 10.263 450.881 9.583C450.881 9.209 450.801 8.89733 450.643 8.648C450.484 8.38733 450.263 8.18333 449.98 8.036C449.696 7.87733 449.362 7.76967 448.977 7.713C448.603 7.645 448.195 7.611 447.753 7.611H446.427V6.2H447.481C448.467 6.2 449.232 6.013 449.776 5.639C450.331 5.265 450.609 4.79467 450.609 4.228C450.609 3.616 450.376 3.157 449.912 2.851C449.447 2.545 448.818 2.392 448.025 2.392C447.537 2.392 447.107 2.45433 446.733 2.579C446.359 2.70367 446.03 2.868 445.747 3.072C445.475 3.276 445.242 3.50833 445.05 3.769C444.868 4.02967 444.727 4.296 444.625 4.568L443.35 3.99ZM454.063 4.585C454.165 4.09767 454.335 3.633 454.573 3.191C454.811 2.749 455.117 2.36367 455.491 2.035C455.865 1.695 456.313 1.42867 456.834 1.236C457.355 1.04333 457.95 0.946999 458.619 0.946999C459.242 0.946999 459.798 1.03767 460.285 1.219C460.772 1.389 461.186 1.63267 461.526 1.95C461.866 2.26733 462.121 2.647 462.291 3.089C462.472 3.531 462.563 4.01267 462.563 4.534C462.563 5.27067 462.404 5.95067 462.087 6.574C461.781 7.186 461.39 7.747 460.914 8.257C460.438 8.767 459.917 9.23167 459.35 9.651C458.783 10.059 458.245 10.4217 457.735 10.739L456.426 11.555H463.005V13H453.74V11.81L456.324 10.093C457.174 9.52633 457.899 9.005 458.5 8.529C459.101 8.04167 459.588 7.58267 459.962 7.152C460.347 6.72133 460.625 6.30767 460.795 5.911C460.976 5.503 461.067 5.095 461.067 4.687C461.067 4.26767 460.999 3.91067 460.863 3.616C460.738 3.32133 460.557 3.08333 460.319 2.902C460.092 2.72067 459.82 2.59033 459.503 2.511C459.197 2.43167 458.868 2.392 458.517 2.392C458.007 2.392 457.565 2.47133 457.191 2.63C456.828 2.78867 456.517 2.99833 456.256 3.259C456.007 3.50833 455.808 3.79167 455.661 4.109C455.525 4.415 455.434 4.721 455.389 5.027L454.063 4.585ZM464.251 3.99C464.41 3.548 464.625 3.14567 464.897 2.783C465.169 2.409 465.498 2.086 465.883 1.814C466.28 1.542 466.733 1.33233 467.243 1.185C467.764 1.02633 468.348 0.946999 468.994 0.946999C469.572 0.946999 470.105 1.02067 470.592 1.168C471.091 1.304 471.516 1.50233 471.867 1.763C472.23 2.01233 472.507 2.324 472.7 2.698C472.904 3.072 473.006 3.48567 473.006 3.939C473.006 4.63033 472.825 5.21967 472.462 5.707C472.111 6.19433 471.595 6.53433 470.915 6.727C471.21 6.74967 471.499 6.82333 471.782 6.948C472.065 7.06133 472.315 7.237 472.53 7.475C472.757 7.70167 472.938 7.99067 473.074 8.342C473.21 8.682 473.278 9.09 473.278 9.566C473.278 10.144 473.165 10.6597 472.938 11.113C472.723 11.555 472.417 11.929 472.02 12.235C471.635 12.5297 471.176 12.7563 470.643 12.915C470.11 13.0737 469.538 13.153 468.926 13.153C468.257 13.153 467.645 13.0737 467.09 12.915C466.546 12.7563 466.064 12.541 465.645 12.269C465.226 11.9857 464.869 11.6513 464.574 11.266C464.291 10.8693 464.075 10.433 463.928 9.957L465.305 9.362C465.452 9.668 465.628 9.96267 465.832 10.246C466.036 10.5293 466.285 10.7787 466.58 10.994C466.875 11.2093 467.22 11.385 467.617 11.521C468.014 11.6457 468.484 11.708 469.028 11.708C469.878 11.708 470.547 11.5267 471.034 11.164C471.533 10.79 471.782 10.263 471.782 9.583C471.782 9.209 471.703 8.89733 471.544 8.648C471.385 8.38733 471.164 8.18333 470.881 8.036C470.598 7.87733 470.263 7.76967 469.878 7.713C469.504 7.645 469.096 7.611 468.654 7.611H467.328V6.2H468.382C469.368 6.2 470.133 6.013 470.677 5.639C471.232 5.265 471.51 4.79467 471.51 4.228C471.51 3.616 471.278 3.157 470.813 2.851C470.348 2.545 469.719 2.392 468.926 2.392C468.439 2.392 468.008 2.45433 467.634 2.579C467.26 2.70367 466.931 2.868 466.648 3.072C466.376 3.276 466.144 3.50833 465.951 3.769C465.77 4.02967 465.628 4.296 465.526 4.568L464.251 3.99Z" fill="#222429"/>
<path d="M162.435 205.07C162.519 204.669 162.659 204.286 162.855 203.922C163.051 203.558 163.303 203.241 163.611 202.97C163.919 202.69 164.288 202.471 164.717 202.312C165.147 202.153 165.637 202.074 166.187 202.074C166.701 202.074 167.158 202.149 167.559 202.298C167.961 202.438 168.301 202.639 168.581 202.9C168.861 203.161 169.071 203.474 169.211 203.838C169.361 204.202 169.435 204.599 169.435 205.028C169.435 205.635 169.305 206.195 169.043 206.708C168.791 207.212 168.469 207.674 168.077 208.094C167.685 208.514 167.256 208.897 166.789 209.242C166.323 209.578 165.879 209.877 165.459 210.138L164.381 210.81H169.799V212H162.169V211.02L164.297 209.606C164.997 209.139 165.595 208.71 166.089 208.318C166.584 207.917 166.985 207.539 167.293 207.184C167.611 206.829 167.839 206.489 167.979 206.162C168.129 205.826 168.203 205.49 168.203 205.154C168.203 204.809 168.147 204.515 168.035 204.272C167.933 204.029 167.783 203.833 167.587 203.684C167.401 203.535 167.177 203.427 166.915 203.362C166.663 203.297 166.393 203.264 166.103 203.264C165.683 203.264 165.319 203.329 165.011 203.46C164.713 203.591 164.456 203.763 164.241 203.978C164.036 204.183 163.873 204.417 163.751 204.678C163.639 204.93 163.565 205.182 163.527 205.434L162.435 205.07ZM170.77 207.1C170.77 206.372 170.854 205.705 171.022 205.098C171.19 204.482 171.442 203.95 171.778 203.502C172.123 203.054 172.557 202.704 173.08 202.452C173.602 202.2 174.218 202.074 174.928 202.074C175.637 202.074 176.253 202.191 176.776 202.424C177.298 202.657 177.732 202.993 178.078 203.432C178.423 203.871 178.68 204.403 178.848 205.028C179.016 205.644 179.1 206.335 179.1 207.1C179.1 207.828 179.016 208.5 178.848 209.116C178.689 209.723 178.437 210.25 178.092 210.698C177.756 211.146 177.326 211.496 176.804 211.748C176.281 212 175.665 212.126 174.956 212.126C174.284 212.126 173.686 212 173.164 211.748C172.641 211.496 172.202 211.146 171.848 210.698C171.493 210.25 171.222 209.723 171.036 209.116C170.858 208.5 170.77 207.828 170.77 207.1ZM172.002 207.1C172.002 208.295 172.263 209.233 172.786 209.914C173.308 210.595 174.032 210.936 174.956 210.936C175.964 210.936 176.701 210.595 177.168 209.914C177.634 209.233 177.868 208.295 177.868 207.1C177.868 205.905 177.63 204.967 177.154 204.286C176.678 203.605 175.936 203.264 174.928 203.264C174.424 203.264 173.99 203.353 173.626 203.53C173.262 203.707 172.958 203.964 172.716 204.3C172.473 204.636 172.291 205.042 172.17 205.518C172.058 205.985 172.002 206.512 172.002 207.1ZM182.945 202.144H183.743V212H182.567V203.642L180.033 204.804L179.585 203.754L182.945 202.144ZM189.295 212.126C188.445 212.126 187.717 211.963 187.111 211.636C186.513 211.309 186.065 210.894 185.767 210.39L186.775 209.69C187.064 210.091 187.442 210.399 187.909 210.614C188.385 210.829 188.903 210.936 189.463 210.936C189.892 210.936 190.284 210.852 190.639 210.684C191.003 210.507 191.315 210.264 191.577 209.956C191.847 209.648 192.057 209.284 192.207 208.864C192.356 208.444 192.431 207.987 192.431 207.492C192.431 207.436 192.431 207.38 192.431 207.324C192.431 207.268 192.426 207.212 192.417 207.156C192.193 207.688 191.81 208.131 191.269 208.486C190.737 208.831 190.06 209.004 189.239 209.004C188.697 209.004 188.198 208.925 187.741 208.766C187.283 208.598 186.887 208.369 186.551 208.08C186.215 207.781 185.953 207.427 185.767 207.016C185.58 206.605 185.487 206.148 185.487 205.644C185.487 205.103 185.585 204.613 185.781 204.174C185.986 203.726 186.271 203.348 186.635 203.04C186.999 202.732 187.433 202.494 187.937 202.326C188.45 202.158 189.015 202.074 189.631 202.074C190.256 202.074 190.816 202.181 191.311 202.396C191.815 202.601 192.239 202.909 192.585 203.32C192.939 203.731 193.21 204.239 193.397 204.846C193.583 205.443 193.677 206.134 193.677 206.918C193.677 207.777 193.569 208.533 193.355 209.186C193.149 209.83 192.851 210.371 192.459 210.81C192.076 211.239 191.614 211.566 191.073 211.79C190.541 212.014 189.948 212.126 189.295 212.126ZM189.463 207.814C189.864 207.814 190.228 207.758 190.555 207.646C190.881 207.534 191.157 207.38 191.381 207.184C191.614 206.979 191.791 206.741 191.913 206.47C192.034 206.199 192.095 205.91 192.095 205.602C192.095 205.303 192.048 205.014 191.955 204.734C191.861 204.454 191.712 204.207 191.507 203.992C191.301 203.768 191.031 203.591 190.695 203.46C190.368 203.329 189.967 203.264 189.491 203.264C188.623 203.264 187.941 203.46 187.447 203.852C186.961 204.235 186.719 204.799 186.719 205.546C186.719 206.255 186.966 206.811 187.461 207.212C187.955 207.613 188.623 207.814 189.463 207.814Z" fill="#777F8C"/>
<rect x="153" y="63" width="50" height="129" fill="#BFCED4"/>
<rect x="153" y="63" width="50" height="4" fill="#A6B2BC"/>
<path d="M155.535 42.032H156.504V54H155.076V43.851L151.999 45.262L151.455 43.987L155.535 42.032ZM164.044 54.153C163.251 54.153 162.531 54.0283 161.885 53.779C161.251 53.5297 160.707 53.1613 160.253 52.674C159.8 52.1753 159.449 51.569 159.199 50.855C158.961 50.141 158.842 49.3137 158.842 48.373C158.842 47.3077 158.984 46.3727 159.267 45.568C159.551 44.7633 159.93 44.0947 160.406 43.562C160.894 43.018 161.455 42.6157 162.089 42.355C162.735 42.083 163.415 41.947 164.129 41.947C165.161 41.947 166.039 42.1567 166.764 42.576C167.49 42.9953 168.017 43.562 168.345 44.276L167.189 45.058C166.861 44.548 166.436 44.1457 165.914 43.851C165.404 43.545 164.787 43.392 164.061 43.392C163.495 43.392 162.985 43.5053 162.531 43.732C162.078 43.9473 161.687 44.2647 161.358 44.684C161.03 45.092 160.775 45.5907 160.593 46.18C160.412 46.758 160.316 47.4097 160.304 48.135V48.322C160.463 47.948 160.678 47.6193 160.95 47.336C161.234 47.0527 161.551 46.8147 161.902 46.622C162.254 46.4293 162.628 46.2877 163.024 46.197C163.432 46.095 163.846 46.044 164.265 46.044C164.957 46.044 165.58 46.1403 166.135 46.333C166.691 46.5257 167.161 46.7977 167.546 47.149C167.943 47.5003 168.243 47.9197 168.447 48.407C168.651 48.8943 168.753 49.4327 168.753 50.022C168.753 50.634 168.629 51.195 168.379 51.705C168.141 52.215 167.807 52.6513 167.376 53.014C166.957 53.3767 166.458 53.66 165.88 53.864C165.314 54.0567 164.702 54.153 164.044 54.153ZM164.027 52.708C164.503 52.708 164.934 52.6457 165.319 52.521C165.716 52.3963 166.056 52.2207 166.339 51.994C166.634 51.756 166.861 51.4783 167.019 51.161C167.178 50.8437 167.257 50.4867 167.257 50.09C167.257 49.6593 167.178 49.2853 167.019 48.968C166.872 48.6393 166.662 48.3673 166.39 48.152C166.118 47.9253 165.79 47.761 165.404 47.659C165.03 47.5457 164.622 47.489 164.18 47.489C163.092 47.489 162.265 47.7213 161.698 48.186C161.143 48.6507 160.865 49.2457 160.865 49.971C160.865 50.345 160.939 50.6963 161.086 51.025C161.234 51.3537 161.443 51.6427 161.715 51.892C161.987 52.1413 162.316 52.3397 162.701 52.487C163.098 52.6343 163.54 52.708 164.027 52.708ZM169.927 55.649C170.074 55.615 170.227 55.5527 170.386 55.462C170.556 55.3713 170.709 55.258 170.845 55.122C170.981 54.986 171.089 54.8387 171.168 54.68C171.259 54.5213 171.304 54.357 171.304 54.187C171.304 54.1077 171.298 54.0453 171.287 54C171.23 54.0113 171.162 54.017 171.083 54.017C170.834 54.017 170.618 53.9377 170.437 53.779C170.267 53.6203 170.182 53.3937 170.182 53.099C170.182 52.8043 170.273 52.572 170.454 52.402C170.635 52.2207 170.89 52.13 171.219 52.13C171.582 52.13 171.876 52.2547 172.103 52.504C172.341 52.742 172.46 53.1047 172.46 53.592C172.46 54.0567 172.398 54.4533 172.273 54.782C172.148 55.1107 171.984 55.3883 171.78 55.615C171.576 55.8417 171.344 56.0173 171.083 56.142C170.822 56.278 170.556 56.38 170.284 56.448L169.927 55.649ZM173.986 45.585C174.088 45.0977 174.258 44.633 174.496 44.191C174.734 43.749 175.04 43.3637 175.414 43.035C175.788 42.695 176.235 42.4287 176.757 42.236C177.278 42.0433 177.873 41.947 178.542 41.947C179.165 41.947 179.72 42.0377 180.208 42.219C180.695 42.389 181.109 42.6327 181.449 42.95C181.789 43.2673 182.044 43.647 182.214 44.089C182.395 44.531 182.486 45.0127 182.486 45.534C182.486 46.2707 182.327 46.9507 182.01 47.574C181.704 48.186 181.313 48.747 180.837 49.257C180.361 49.767 179.839 50.2317 179.273 50.651C178.706 51.059 178.168 51.4217 177.658 51.739L176.349 52.555H182.928V54H173.663V52.81L176.247 51.093C177.097 50.5263 177.822 50.005 178.423 49.529C179.023 49.0417 179.511 48.5827 179.885 48.152C180.27 47.7213 180.548 47.3077 180.718 46.911C180.899 46.503 180.99 46.095 180.99 45.687C180.99 45.2677 180.922 44.9107 180.786 44.616C180.661 44.3213 180.48 44.0833 180.242 43.902C180.015 43.7207 179.743 43.5903 179.426 43.511C179.12 43.4317 178.791 43.392 178.44 43.392C177.93 43.392 177.488 43.4713 177.114 43.63C176.751 43.7887 176.439 43.9983 176.179 44.259C175.929 44.5083 175.731 44.7917 175.584 45.109C175.448 45.415 175.357 45.721 175.312 46.027L173.986 45.585ZM188.849 54.153C187.818 54.153 186.934 53.9547 186.197 53.558C185.472 53.1613 184.928 52.657 184.565 52.045L185.789 51.195C186.14 51.6823 186.599 52.0563 187.166 52.317C187.744 52.5777 188.373 52.708 189.053 52.708C189.574 52.708 190.05 52.606 190.481 52.402C190.923 52.1867 191.303 51.892 191.62 51.518C191.949 51.144 192.204 50.702 192.385 50.192C192.566 49.682 192.657 49.1267 192.657 48.526C192.657 48.458 192.657 48.39 192.657 48.322C192.657 48.254 192.651 48.186 192.64 48.118C192.368 48.764 191.903 49.3023 191.246 49.733C190.6 50.1523 189.778 50.362 188.781 50.362C188.124 50.362 187.517 50.2657 186.962 50.073C186.407 49.869 185.925 49.5913 185.517 49.24C185.109 48.8773 184.792 48.4467 184.565 47.948C184.338 47.4493 184.225 46.894 184.225 46.282C184.225 45.6247 184.344 45.0297 184.582 44.497C184.831 43.953 185.177 43.494 185.619 43.12C186.061 42.746 186.588 42.457 187.2 42.253C187.823 42.049 188.509 41.947 189.257 41.947C190.016 41.947 190.696 42.0773 191.297 42.338C191.909 42.5873 192.425 42.9613 192.844 43.46C193.275 43.9587 193.603 44.5763 193.83 45.313C194.057 46.0383 194.17 46.877 194.17 47.829C194.17 48.8717 194.04 49.7897 193.779 50.583C193.53 51.365 193.167 52.0223 192.691 52.555C192.226 53.0763 191.665 53.473 191.008 53.745C190.362 54.017 189.642 54.153 188.849 54.153ZM189.053 48.917C189.54 48.917 189.982 48.849 190.379 48.713C190.776 48.577 191.11 48.39 191.382 48.152C191.665 47.9027 191.881 47.6137 192.028 47.285C192.175 46.9563 192.249 46.605 192.249 46.231C192.249 45.8683 192.192 45.517 192.079 45.177C191.966 44.837 191.784 44.5367 191.535 44.276C191.286 44.004 190.957 43.7887 190.549 43.63C190.152 43.4713 189.665 43.392 189.087 43.392C188.033 43.392 187.206 43.63 186.605 44.106C186.016 44.5707 185.721 45.2563 185.721 46.163C185.721 47.0243 186.021 47.6987 186.622 48.186C187.223 48.6733 188.033 48.917 189.053 48.917ZM195.224 42.1H204.251V43.069L198.335 54H196.72L202.432 43.545H195.224V42.1Z" fill="#222429"/>
<path d="M72.4354 205.07C72.5194 204.669 72.6594 204.286 72.8554 203.922C73.0514 203.558 73.3034 203.241 73.6114 202.97C73.9194 202.69 74.2881 202.471 74.7174 202.312C75.1467 202.153 75.6367 202.074 76.1874 202.074C76.7007 202.074 77.1581 202.149 77.5594 202.298C77.9607 202.438 78.3014 202.639 78.5814 202.9C78.8614 203.161 79.0714 203.474 79.2114 203.838C79.3607 204.202 79.4354 204.599 79.4354 205.028C79.4354 205.635 79.3047 206.195 79.0434 206.708C78.7914 207.212 78.4694 207.674 78.0774 208.094C77.6854 208.514 77.2561 208.897 76.7894 209.242C76.3227 209.578 75.8794 209.877 75.4594 210.138L74.3814 210.81H79.7994V212H72.1694V211.02L74.2974 209.606C74.9974 209.139 75.5947 208.71 76.0894 208.318C76.5841 207.917 76.9854 207.539 77.2934 207.184C77.6107 206.829 77.8394 206.489 77.9794 206.162C78.1287 205.826 78.2034 205.49 78.2034 205.154C78.2034 204.809 78.1474 204.515 78.0354 204.272C77.9327 204.029 77.7834 203.833 77.5874 203.684C77.4007 203.535 77.1767 203.427 76.9154 203.362C76.6634 203.297 76.3927 203.264 76.1034 203.264C75.6834 203.264 75.3194 203.329 75.0114 203.46C74.7127 203.591 74.4561 203.763 74.2414 203.978C74.0361 204.183 73.8727 204.417 73.7514 204.678C73.6394 204.93 73.5647 205.182 73.5274 205.434L72.4354 205.07ZM80.7697 207.1C80.7697 206.372 80.8537 205.705 81.0217 205.098C81.1897 204.482 81.4417 203.95 81.7777 203.502C82.123 203.054 82.557 202.704 83.0797 202.452C83.6023 202.2 84.2183 202.074 84.9277 202.074C85.637 202.074 86.253 202.191 86.7757 202.424C87.2983 202.657 87.7323 202.993 88.0777 203.432C88.423 203.871 88.6797 204.403 88.8477 205.028C89.0157 205.644 89.0997 206.335 89.0997 207.1C89.0997 207.828 89.0157 208.5 88.8477 209.116C88.689 209.723 88.437 210.25 88.0917 210.698C87.7557 211.146 87.3263 211.496 86.8037 211.748C86.281 212 85.665 212.126 84.9557 212.126C84.2837 212.126 83.6863 212 83.1637 211.748C82.641 211.496 82.2023 211.146 81.8477 210.698C81.493 210.25 81.2223 209.723 81.0357 209.116C80.8583 208.5 80.7697 207.828 80.7697 207.1ZM82.0017 207.1C82.0017 208.295 82.263 209.233 82.7857 209.914C83.3083 210.595 84.0317 210.936 84.9557 210.936C85.9637 210.936 86.701 210.595 87.1677 209.914C87.6343 209.233 87.8677 208.295 87.8677 207.1C87.8677 205.905 87.6297 204.967 87.1537 204.286C86.6777 203.605 85.9357 203.264 84.9277 203.264C84.4237 203.264 83.9897 203.353 83.6257 203.53C83.2617 203.707 82.9583 203.964 82.7157 204.3C82.473 204.636 82.291 205.042 82.1697 205.518C82.0577 205.985 82.0017 206.512 82.0017 207.1ZM92.9453 202.144H93.7433V212H92.5673V203.642L90.0333 204.804L89.5853 203.754L92.9453 202.144ZM99.8267 206.414C100.144 206.414 100.438 206.377 100.709 206.302C100.989 206.218 101.231 206.106 101.437 205.966C101.642 205.826 101.801 205.658 101.913 205.462C102.034 205.266 102.095 205.051 102.095 204.818C102.095 204.314 101.885 203.931 101.465 203.67C101.054 203.399 100.424 203.264 99.5747 203.264C98.7534 203.264 98.1327 203.399 97.7127 203.67C97.3021 203.941 97.0967 204.323 97.0967 204.818C97.0967 205.042 97.1527 205.252 97.2647 205.448C97.3767 205.644 97.5307 205.817 97.7267 205.966C97.9321 206.106 98.1747 206.218 98.4547 206.302C98.7441 206.377 99.0567 206.414 99.3927 206.414H99.8267ZM99.4487 207.52C99.0567 207.52 98.6927 207.567 98.3567 207.66C98.0301 207.744 97.7501 207.865 97.5167 208.024C97.2834 208.173 97.1014 208.355 96.9707 208.57C96.8401 208.775 96.7747 208.995 96.7747 209.228C96.7747 209.732 97.0081 210.143 97.4747 210.46C97.9507 210.777 98.6554 210.936 99.5887 210.936C100.55 210.936 101.259 210.787 101.717 210.488C102.174 210.18 102.403 209.765 102.403 209.242C102.403 208.691 102.165 208.267 101.689 207.968C101.222 207.669 100.592 207.52 99.7987 207.52H99.4487ZM99.6027 212.126C98.9774 212.126 98.4127 212.065 97.9087 211.944C97.4141 211.813 96.9894 211.631 96.6347 211.398C96.2894 211.155 96.0187 210.866 95.8227 210.53C95.6361 210.185 95.5427 209.793 95.5427 209.354C95.5427 208.775 95.7154 208.276 96.0607 207.856C96.4154 207.427 96.8867 207.119 97.4747 206.932C97.1947 206.839 96.9521 206.717 96.7467 206.568C96.5414 206.409 96.3734 206.232 96.2427 206.036C96.1121 205.84 96.0141 205.635 95.9487 205.42C95.8927 205.196 95.8647 204.967 95.8647 204.734C95.8647 203.922 96.1821 203.278 96.8167 202.802C97.4607 202.317 98.3847 202.074 99.5887 202.074C100.802 202.074 101.726 202.317 102.361 202.802C103.005 203.278 103.327 203.922 103.327 204.734C103.327 205.238 103.187 205.663 102.907 206.008C102.636 206.353 102.258 206.638 101.773 206.862C102.445 207.067 102.921 207.375 103.201 207.786C103.49 208.197 103.635 208.701 103.635 209.298C103.635 209.746 103.541 210.147 103.355 210.502C103.168 210.847 102.897 211.141 102.543 211.384C102.197 211.627 101.773 211.813 101.269 211.944C100.774 212.065 100.219 212.126 99.6027 212.126Z" fill="#777F8C"/>
<rect x="63" y="77" width="50" height="115" fill="#BFCED4"/>
<rect x="63" y="77" width="50" height="4" fill="#A6B2BC"/>
<path d="M64.5143 56.032H65.4833V68H64.0553V57.851L60.9783 59.262L60.4343 57.987L64.5143 56.032ZM74.6043 65.62H67.2773V64.532L74.7743 56.1H76.0323V64.175H78.2423V65.62H76.0323V68H74.6043V65.62ZM74.6043 64.175V58.48L69.3173 64.175H74.6043ZM79.0222 69.649C79.1695 69.615 79.3225 69.5527 79.4812 69.462C79.6512 69.3713 79.8042 69.258 79.9402 69.122C80.0762 68.986 80.1839 68.8387 80.2632 68.68C80.3539 68.5213 80.3992 68.357 80.3992 68.187C80.3992 68.1077 80.3935 68.0453 80.3822 68C80.3255 68.0113 80.2575 68.017 80.1782 68.017C79.9289 68.017 79.7135 67.9377 79.5322 67.779C79.3622 67.6203 79.2772 67.3937 79.2772 67.099C79.2772 66.8043 79.3679 66.572 79.5492 66.402C79.7305 66.2207 79.9855 66.13 80.3142 66.13C80.6769 66.13 80.9715 66.2547 81.1982 66.504C81.4362 66.742 81.5552 67.1047 81.5552 67.592C81.5552 68.0567 81.4929 68.4533 81.3682 68.782C81.2435 69.1107 81.0792 69.3883 80.8752 69.615C80.6712 69.8417 80.4389 70.0173 80.1782 70.142C79.9175 70.278 79.6512 70.38 79.3792 70.448L79.0222 69.649ZM89.745 65.62H82.418V64.532L89.915 56.1H91.173V64.175H93.383V65.62H91.173V68H89.745V65.62ZM89.745 64.175V58.48L84.458 64.175H89.745ZM94.2818 58.99C94.4405 58.548 94.6558 58.1457 94.9278 57.783C95.1998 57.409 95.5285 57.086 95.9138 56.814C96.3105 56.542 96.7638 56.3323 97.2738 56.185C97.7952 56.0263 98.3788 55.947 99.0248 55.947C99.6028 55.947 100.135 56.0207 100.623 56.168C101.121 56.304 101.546 56.5023 101.898 56.763C102.26 57.0123 102.538 57.324 102.731 57.698C102.935 58.072 103.037 58.4857 103.037 58.939C103.037 59.6303 102.855 60.2197 102.493 60.707C102.141 61.1943 101.626 61.5343 100.946 61.727C101.24 61.7497 101.529 61.8233 101.813 61.948C102.096 62.0613 102.345 62.237 102.561 62.475C102.787 62.7017 102.969 62.9907 103.105 63.342C103.241 63.682 103.309 64.09 103.309 64.566C103.309 65.144 103.195 65.6597 102.969 66.113C102.753 66.555 102.447 66.929 102.051 67.235C101.665 67.5297 101.206 67.7563 100.674 67.915C100.141 68.0737 99.5688 68.153 98.9568 68.153C98.2882 68.153 97.6762 68.0737 97.1208 67.915C96.5768 67.7563 96.0952 67.541 95.6758 67.269C95.2565 66.9857 94.8995 66.6513 94.6048 66.266C94.3215 65.8693 94.1062 65.433 93.9588 64.957L95.3358 64.362C95.4832 64.668 95.6588 64.9627 95.8628 65.246C96.0668 65.5293 96.3162 65.7787 96.6108 65.994C96.9055 66.2093 97.2512 66.385 97.6478 66.521C98.0445 66.6457 98.5148 66.708 99.0588 66.708C99.9088 66.708 100.577 66.5267 101.065 66.164C101.563 65.79 101.813 65.263 101.813 64.583C101.813 64.209 101.733 63.8973 101.575 63.648C101.416 63.3873 101.195 63.1833 100.912 63.036C100.628 62.8773 100.294 62.7697 99.9088 62.713C99.5348 62.645 99.1268 62.611 98.6848 62.611H97.3588V61.2H98.4128C99.3988 61.2 100.164 61.013 100.708 60.639C101.263 60.265 101.541 59.7947 101.541 59.228C101.541 58.616 101.308 58.157 100.844 57.851C100.379 57.545 99.7502 57.392 98.9568 57.392C98.4695 57.392 98.0388 57.4543 97.6648 57.579C97.2908 57.7037 96.9622 57.868 96.6788 58.072C96.4068 58.276 96.1745 58.5083 95.9818 58.769C95.8005 59.0297 95.6588 59.296 95.5568 59.568L94.2818 58.99ZM108.276 56.032H109.245V68H107.817V57.851L104.74 59.262L104.196 57.987L108.276 56.032Z" fill="#222429"/>
<path d="M250.822 205.07C250.906 204.669 251.046 204.286 251.242 203.922C251.438 203.558 251.69 203.241 251.998 202.97C252.306 202.69 252.675 202.471 253.104 202.312C253.533 202.153 254.023 202.074 254.574 202.074C255.087 202.074 255.545 202.149 255.946 202.298C256.347 202.438 256.688 202.639 256.968 202.9C257.248 203.161 257.458 203.474 257.598 203.838C257.747 204.202 257.822 204.599 257.822 205.028C257.822 205.635 257.691 206.195 257.43 206.708C257.178 207.212 256.856 207.674 256.464 208.094C256.072 208.514 255.643 208.897 255.176 209.242C254.709 209.578 254.266 209.877 253.846 210.138L252.768 210.81H258.186V212H250.556V211.02L252.684 209.606C253.384 209.139 253.981 208.71 254.476 208.318C254.971 207.917 255.372 207.539 255.68 207.184C255.997 206.829 256.226 206.489 256.366 206.162C256.515 205.826 256.59 205.49 256.59 205.154C256.59 204.809 256.534 204.515 256.422 204.272C256.319 204.029 256.17 203.833 255.974 203.684C255.787 203.535 255.563 203.427 255.302 203.362C255.05 203.297 254.779 203.264 254.49 203.264C254.07 203.264 253.706 203.329 253.398 203.46C253.099 203.591 252.843 203.763 252.628 203.978C252.423 204.183 252.259 204.417 252.138 204.678C252.026 204.93 251.951 205.182 251.914 205.434L250.822 205.07ZM259.156 207.1C259.156 206.372 259.24 205.705 259.408 205.098C259.576 204.482 259.828 203.95 260.164 203.502C260.51 203.054 260.944 202.704 261.466 202.452C261.989 202.2 262.605 202.074 263.314 202.074C264.024 202.074 264.64 202.191 265.162 202.424C265.685 202.657 266.119 202.993 266.464 203.432C266.81 203.871 267.066 204.403 267.234 205.028C267.402 205.644 267.486 206.335 267.486 207.1C267.486 207.828 267.402 208.5 267.234 209.116C267.076 209.723 266.824 210.25 266.478 210.698C266.142 211.146 265.713 211.496 265.19 211.748C264.668 212 264.052 212.126 263.342 212.126C262.67 212.126 262.073 212 261.55 211.748C261.028 211.496 260.589 211.146 260.234 210.698C259.88 210.25 259.609 209.723 259.422 209.116C259.245 208.5 259.156 207.828 259.156 207.1ZM260.388 207.1C260.388 208.295 260.65 209.233 261.172 209.914C261.695 210.595 262.418 210.936 263.342 210.936C264.35 210.936 265.088 210.595 265.554 209.914C266.021 209.233 266.254 208.295 266.254 207.1C266.254 205.905 266.016 204.967 265.54 204.286C265.064 203.605 264.322 203.264 263.314 203.264C262.81 203.264 262.376 203.353 262.012 203.53C261.648 203.707 261.345 203.964 261.102 204.3C260.86 204.636 260.678 205.042 260.556 205.518C260.444 205.985 260.388 206.512 260.388 207.1ZM268.63 205.07C268.714 204.669 268.854 204.286 269.05 203.922C269.246 203.558 269.498 203.241 269.806 202.97C270.114 202.69 270.483 202.471 270.912 202.312C271.341 202.153 271.831 202.074 272.382 202.074C272.895 202.074 273.353 202.149 273.754 202.298C274.155 202.438 274.496 202.639 274.776 202.9C275.056 203.161 275.266 203.474 275.406 203.838C275.555 204.202 275.63 204.599 275.63 205.028C275.63 205.635 275.499 206.195 275.238 206.708C274.986 207.212 274.664 207.674 274.272 208.094C273.88 208.514 273.451 208.897 272.984 209.242C272.517 209.578 272.074 209.877 271.654 210.138L270.576 210.81H275.994V212H268.364V211.02L270.492 209.606C271.192 209.139 271.789 208.71 272.284 208.318C272.779 207.917 273.18 207.539 273.488 207.184C273.805 206.829 274.034 206.489 274.174 206.162C274.323 205.826 274.398 205.49 274.398 205.154C274.398 204.809 274.342 204.515 274.23 204.272C274.127 204.029 273.978 203.833 273.782 203.684C273.595 203.535 273.371 203.427 273.11 203.362C272.858 203.297 272.587 203.264 272.298 203.264C271.878 203.264 271.514 203.329 271.206 203.46C270.907 203.591 270.651 203.763 270.436 203.978C270.231 204.183 270.067 204.417 269.946 204.678C269.834 204.93 269.759 205.182 269.722 205.434L268.63 205.07ZM276.964 207.1C276.964 206.372 277.048 205.705 277.216 205.098C277.384 204.482 277.636 203.95 277.972 203.502C278.318 203.054 278.752 202.704 279.274 202.452C279.797 202.2 280.413 202.074 281.122 202.074C281.832 202.074 282.448 202.191 282.97 202.424C283.493 202.657 283.927 202.993 284.272 203.432C284.618 203.871 284.874 204.403 285.042 205.028C285.21 205.644 285.294 206.335 285.294 207.1C285.294 207.828 285.21 208.5 285.042 209.116C284.884 209.723 284.632 210.25 284.286 210.698C283.95 211.146 283.521 211.496 282.998 211.748C282.476 212 281.86 212.126 281.15 212.126C280.478 212.126 279.881 212 279.358 211.748C278.836 211.496 278.397 211.146 278.042 210.698C277.688 210.25 277.417 209.723 277.23 209.116C277.053 208.5 276.964 207.828 276.964 207.1ZM278.196 207.1C278.196 208.295 278.458 209.233 278.98 209.914C279.503 210.595 280.226 210.936 281.15 210.936C282.158 210.936 282.896 210.595 283.362 209.914C283.829 209.233 284.062 208.295 284.062 207.1C284.062 205.905 283.824 204.967 283.348 204.286C282.872 203.605 282.13 203.264 281.122 203.264C280.618 203.264 280.184 203.353 279.82 203.53C279.456 203.707 279.153 203.964 278.91 204.3C278.668 204.636 278.486 205.042 278.364 205.518C278.252 205.985 278.196 206.512 278.196 207.1Z" fill="#777F8C"/>
<rect x="243" y="51" width="50" height="141" fill="#BFCED4"/>
<rect x="243" y="51" width="50" height="4" fill="#A6B2BC"/>
<path d="M247.088 30.032H248.057V42H246.629V31.851L243.552 33.262L243.008 31.987L247.088 30.032ZM250.004 30.1H259.031V31.069L253.115 42H251.5L257.212 31.545H250.004V30.1ZM258.856 43.649C259.004 43.615 259.157 43.5527 259.315 43.462C259.485 43.3713 259.638 43.258 259.774 43.122C259.91 42.986 260.018 42.8387 260.097 42.68C260.188 42.5213 260.233 42.357 260.233 42.187C260.233 42.1077 260.228 42.0453 260.216 42C260.16 42.0113 260.092 42.017 260.012 42.017C259.763 42.017 259.548 41.9377 259.366 41.779C259.196 41.6203 259.111 41.3937 259.111 41.099C259.111 40.8043 259.202 40.572 259.383 40.402C259.565 40.2207 259.82 40.13 260.148 40.13C260.511 40.13 260.806 40.2547 261.032 40.504C261.27 40.742 261.389 41.1047 261.389 41.592C261.389 42.0567 261.327 42.4533 261.202 42.782C261.078 43.1107 260.913 43.3883 260.709 43.615C260.505 43.8417 260.273 44.0173 260.012 44.142C259.752 44.278 259.485 44.38 259.213 44.448L258.856 43.649ZM262.405 30.1H271.432V31.069L265.516 42H263.901L269.613 31.545H262.405V30.1ZM272.508 36.05C272.508 35.166 272.61 34.3557 272.814 33.619C273.018 32.871 273.324 32.225 273.732 31.681C274.151 31.137 274.678 30.712 275.313 30.406C275.948 30.1 276.696 29.947 277.557 29.947C278.418 29.947 279.166 30.0887 279.801 30.372C280.436 30.6553 280.963 31.0633 281.382 31.596C281.801 32.1287 282.113 32.7747 282.317 33.534C282.521 34.282 282.623 35.1207 282.623 36.05C282.623 36.934 282.521 37.75 282.317 38.498C282.124 39.2347 281.818 39.875 281.399 40.419C280.991 40.963 280.47 41.388 279.835 41.694C279.2 42 278.452 42.153 277.591 42.153C276.775 42.153 276.05 42 275.415 41.694C274.78 41.388 274.248 40.963 273.817 40.419C273.386 39.875 273.058 39.2347 272.831 38.498C272.616 37.75 272.508 36.934 272.508 36.05ZM274.004 36.05C274.004 37.5007 274.321 38.6397 274.956 39.467C275.591 40.2943 276.469 40.708 277.591 40.708C278.815 40.708 279.71 40.2943 280.277 39.467C280.844 38.6397 281.127 37.5007 281.127 36.05C281.127 34.5993 280.838 33.4603 280.26 32.633C279.682 31.8057 278.781 31.392 277.557 31.392C276.945 31.392 276.418 31.4997 275.976 31.715C275.534 31.9303 275.166 32.242 274.871 32.65C274.576 33.058 274.355 33.551 274.208 34.129C274.072 34.6957 274.004 35.336 274.004 36.05ZM283.672 30.1H292.699V31.069L286.783 42H285.168L290.88 31.545H283.672V30.1Z" fill="#222429"/>
<path d="M342.818 205.07C342.902 204.669 343.042 204.286 343.238 203.922C343.434 203.558 343.686 203.241 343.994 202.97C344.302 202.69 344.671 202.471 345.1 202.312C345.53 202.153 346.02 202.074 346.57 202.074C347.084 202.074 347.541 202.149 347.942 202.298C348.344 202.438 348.684 202.639 348.964 202.9C349.244 203.161 349.454 203.474 349.594 203.838C349.744 204.202 349.818 204.599 349.818 205.028C349.818 205.635 349.688 206.195 349.426 206.708C349.174 207.212 348.852 207.674 348.46 208.094C348.068 208.514 347.639 208.897 347.172 209.242C346.706 209.578 346.262 209.877 345.842 210.138L344.764 210.81H350.182V212H342.552V211.02L344.68 209.606C345.38 209.139 345.978 208.71 346.472 208.318C346.967 207.917 347.368 207.539 347.676 207.184C347.994 206.829 348.222 206.489 348.362 206.162C348.512 205.826 348.586 205.49 348.586 205.154C348.586 204.809 348.53 204.515 348.418 204.272C348.316 204.029 348.166 203.833 347.97 203.684C347.784 203.535 347.56 203.427 347.298 203.362C347.046 203.297 346.776 203.264 346.486 203.264C346.066 203.264 345.702 203.329 345.394 203.46C345.096 203.591 344.839 203.763 344.624 203.978C344.419 204.183 344.256 204.417 344.134 204.678C344.022 204.93 343.948 205.182 343.91 205.434L342.818 205.07ZM351.152 207.1C351.152 206.372 351.236 205.705 351.404 205.098C351.572 204.482 351.824 203.95 352.16 203.502C352.506 203.054 352.94 202.704 353.462 202.452C353.985 202.2 354.601 202.074 355.31 202.074C356.02 202.074 356.636 202.191 357.158 202.424C357.681 202.657 358.115 202.993 358.46 203.432C358.806 203.871 359.062 204.403 359.23 205.028C359.398 205.644 359.482 206.335 359.482 207.1C359.482 207.828 359.398 208.5 359.23 209.116C359.072 209.723 358.82 210.25 358.474 210.698C358.138 211.146 357.709 211.496 357.186 211.748C356.664 212 356.048 212.126 355.338 212.126C354.666 212.126 354.069 212 353.546 211.748C353.024 211.496 352.585 211.146 352.23 210.698C351.876 210.25 351.605 209.723 351.418 209.116C351.241 208.5 351.152 207.828 351.152 207.1ZM352.384 207.1C352.384 208.295 352.646 209.233 353.168 209.914C353.691 210.595 354.414 210.936 355.338 210.936C356.346 210.936 357.084 210.595 357.55 209.914C358.017 209.233 358.25 208.295 358.25 207.1C358.25 205.905 358.012 204.967 357.536 204.286C357.06 203.605 356.318 203.264 355.31 203.264C354.806 203.264 354.372 203.353 354.008 203.53C353.644 203.707 353.341 203.964 353.098 204.3C352.856 204.636 352.674 205.042 352.552 205.518C352.44 205.985 352.384 206.512 352.384 207.1ZM360.626 205.07C360.71 204.669 360.85 204.286 361.046 203.922C361.242 203.558 361.494 203.241 361.802 202.97C362.11 202.69 362.479 202.471 362.908 202.312C363.337 202.153 363.827 202.074 364.378 202.074C364.891 202.074 365.349 202.149 365.75 202.298C366.151 202.438 366.492 202.639 366.772 202.9C367.052 203.161 367.262 203.474 367.402 203.838C367.551 204.202 367.626 204.599 367.626 205.028C367.626 205.635 367.495 206.195 367.234 206.708C366.982 207.212 366.66 207.674 366.268 208.094C365.876 208.514 365.447 208.897 364.98 209.242C364.513 209.578 364.07 209.877 363.65 210.138L362.572 210.81H367.99V212H360.36V211.02L362.488 209.606C363.188 209.139 363.785 208.71 364.28 208.318C364.775 207.917 365.176 207.539 365.484 207.184C365.801 206.829 366.03 206.489 366.17 206.162C366.319 205.826 366.394 205.49 366.394 205.154C366.394 204.809 366.338 204.515 366.226 204.272C366.123 204.029 365.974 203.833 365.778 203.684C365.591 203.535 365.367 203.427 365.106 203.362C364.854 203.297 364.583 203.264 364.294 203.264C363.874 203.264 363.51 203.329 363.202 203.46C362.903 203.591 362.647 203.763 362.432 203.978C362.227 204.183 362.063 204.417 361.942 204.678C361.83 204.93 361.755 205.182 361.718 205.434L360.626 205.07ZM371.76 202.144H372.558V212H371.382V203.642L368.848 204.804L368.4 203.754L371.76 202.144Z" fill="#777F8C"/>
<rect x="333" y="40" width="50" height="152" fill="#BFCED4"/>
<rect x="333" y="40" width="50" height="4" fill="#A6B2BC"/>
<path d="M339.337 19.032H340.306V31H338.878V20.851L335.801 22.262L335.257 20.987L339.337 19.032ZM347.217 31.153C346.186 31.153 345.302 30.9547 344.565 30.558C343.84 30.1613 343.296 29.657 342.933 29.045L344.157 28.195C344.508 28.6823 344.967 29.0563 345.534 29.317C346.112 29.5777 346.741 29.708 347.421 29.708C347.942 29.708 348.418 29.606 348.849 29.402C349.291 29.1867 349.671 28.892 349.988 28.518C350.317 28.144 350.572 27.702 350.753 27.192C350.934 26.682 351.025 26.1267 351.025 25.526C351.025 25.458 351.025 25.39 351.025 25.322C351.025 25.254 351.019 25.186 351.008 25.118C350.736 25.764 350.271 26.3023 349.614 26.733C348.968 27.1523 348.146 27.362 347.149 27.362C346.492 27.362 345.885 27.2657 345.33 27.073C344.775 26.869 344.293 26.5913 343.885 26.24C343.477 25.8773 343.16 25.4467 342.933 24.948C342.706 24.4493 342.593 23.894 342.593 23.282C342.593 22.6247 342.712 22.0297 342.95 21.497C343.199 20.953 343.545 20.494 343.987 20.12C344.429 19.746 344.956 19.457 345.568 19.253C346.191 19.049 346.877 18.947 347.625 18.947C348.384 18.947 349.064 19.0773 349.665 19.338C350.277 19.5873 350.793 19.9613 351.212 20.46C351.643 20.9587 351.971 21.5763 352.198 22.313C352.425 23.0383 352.538 23.877 352.538 24.829C352.538 25.8717 352.408 26.7897 352.147 27.583C351.898 28.365 351.535 29.0223 351.059 29.555C350.594 30.0763 350.033 30.473 349.376 30.745C348.73 31.017 348.01 31.153 347.217 31.153ZM347.421 25.917C347.908 25.917 348.35 25.849 348.747 25.713C349.144 25.577 349.478 25.39 349.75 25.152C350.033 24.9027 350.249 24.6137 350.396 24.285C350.543 23.9563 350.617 23.605 350.617 23.231C350.617 22.8683 350.56 22.517 350.447 22.177C350.334 21.837 350.152 21.5367 349.903 21.276C349.654 21.004 349.325 20.7887 348.917 20.63C348.52 20.4713 348.033 20.392 347.455 20.392C346.401 20.392 345.574 20.63 344.973 21.106C344.384 21.5707 344.089 22.2563 344.089 23.163C344.089 24.0243 344.389 24.6987 344.99 25.186C345.591 25.6733 346.401 25.917 347.421 25.917ZM353.762 32.649C353.909 32.615 354.062 32.5527 354.221 32.462C354.391 32.3713 354.544 32.258 354.68 32.122C354.816 31.986 354.924 31.8387 355.003 31.68C355.094 31.5213 355.139 31.357 355.139 31.187C355.139 31.1077 355.133 31.0453 355.122 31C355.065 31.0113 354.997 31.017 354.918 31.017C354.669 31.017 354.453 30.9377 354.272 30.779C354.102 30.6203 354.017 30.3937 354.017 30.099C354.017 29.8043 354.108 29.572 354.289 29.402C354.47 29.2207 354.725 29.13 355.054 29.13C355.417 29.13 355.711 29.2547 355.938 29.504C356.176 29.742 356.295 30.1047 356.295 30.592C356.295 31.0567 356.233 31.4533 356.108 31.782C355.983 32.1107 355.819 32.3883 355.615 32.615C355.411 32.8417 355.179 33.0173 354.918 33.142C354.657 33.278 354.391 33.38 354.119 33.448L353.762 32.649ZM361.102 19.032H362.071V31H360.643V20.851L357.566 22.262L357.022 20.987L361.102 19.032ZM364.528 22.585C364.63 22.0977 364.8 21.633 365.038 21.191C365.276 20.749 365.582 20.3637 365.956 20.035C366.33 19.695 366.777 19.4287 367.299 19.236C367.82 19.0433 368.415 18.947 369.084 18.947C369.707 18.947 370.262 19.0377 370.75 19.219C371.237 19.389 371.651 19.6327 371.991 19.95C372.331 20.2673 372.586 20.647 372.756 21.089C372.937 21.531 373.028 22.0127 373.028 22.534C373.028 23.2707 372.869 23.9507 372.552 24.574C372.246 25.186 371.855 25.747 371.379 26.257C370.903 26.767 370.381 27.2317 369.815 27.651C369.248 28.059 368.71 28.4217 368.2 28.739L366.891 29.555H373.47V31H364.205V29.81L366.789 28.093C367.639 27.5263 368.364 27.005 368.965 26.529C369.565 26.0417 370.053 25.5827 370.427 25.152C370.812 24.7213 371.09 24.3077 371.26 23.911C371.441 23.503 371.532 23.095 371.532 22.687C371.532 22.2677 371.464 21.9107 371.328 21.616C371.203 21.3213 371.022 21.0833 370.784 20.902C370.557 20.7207 370.285 20.5903 369.968 20.511C369.662 20.4317 369.333 20.392 368.982 20.392C368.472 20.392 368.03 20.4713 367.656 20.63C367.293 20.7887 366.981 20.9983 366.721 21.259C366.471 21.5083 366.273 21.7917 366.126 22.109C365.99 22.415 365.899 22.721 365.854 23.027L364.528 22.585ZM378.218 19.032H379.187V31H377.759V20.851L374.682 22.262L374.138 20.987L378.218 19.032Z" fill="#222429"/>
</svg>
