<svg viewBox="0 0 535 213" fill="none" xmlns="http://www.w3.org/2000/svg">
<line x1="-3.16332e-08" y1="192.5" x2="535" y2="192.5" stroke="#CBCFD6"/>
<path d="M431.294 205.07C431.378 204.669 431.518 204.286 431.714 203.922C431.91 203.558 432.162 203.241 432.47 202.97C432.778 202.69 433.146 202.471 433.576 202.312C434.005 202.153 434.495 202.074 435.046 202.074C435.559 202.074 436.016 202.149 436.418 202.298C436.819 202.438 437.16 202.639 437.44 202.9C437.72 203.161 437.93 203.474 438.07 203.838C438.219 204.202 438.294 204.599 438.294 205.028C438.294 205.635 438.163 206.195 437.902 206.708C437.65 207.212 437.328 207.674 436.936 208.094C436.544 208.514 436.114 208.897 435.648 209.242C435.181 209.578 434.738 209.877 434.318 210.138L433.24 210.81H438.658V212H431.028V211.02L433.156 209.606C433.856 209.139 434.453 208.71 434.948 208.318C435.442 207.917 435.844 207.539 436.152 207.184C436.469 206.829 436.698 206.489 436.838 206.162C436.987 205.826 437.062 205.49 437.062 205.154C437.062 204.809 437.006 204.515 436.894 204.272C436.791 204.029 436.642 203.833 436.446 203.684C436.259 203.535 436.035 203.427 435.774 203.362C435.522 203.297 435.251 203.264 434.962 203.264C434.542 203.264 434.178 203.329 433.87 203.46C433.571 203.591 433.314 203.763 433.1 203.978C432.894 204.183 432.731 204.417 432.61 204.678C432.498 204.93 432.423 205.182 432.386 205.434L431.294 205.07ZM439.628 207.1C439.628 206.372 439.712 205.705 439.88 205.098C440.048 204.482 440.3 203.95 440.636 203.502C440.981 203.054 441.415 202.704 441.938 202.452C442.461 202.2 443.077 202.074 443.786 202.074C444.495 202.074 445.111 202.191 445.634 202.424C446.157 202.657 446.591 202.993 446.936 203.432C447.281 203.871 447.538 204.403 447.706 205.028C447.874 205.644 447.958 206.335 447.958 207.1C447.958 207.828 447.874 208.5 447.706 209.116C447.547 209.723 447.295 210.25 446.95 210.698C446.614 211.146 446.185 211.496 445.662 211.748C445.139 212 444.523 212.126 443.814 212.126C443.142 212.126 442.545 212 442.022 211.748C441.499 211.496 441.061 211.146 440.706 210.698C440.351 210.25 440.081 209.723 439.894 209.116C439.717 208.5 439.628 207.828 439.628 207.1ZM440.86 207.1C440.86 208.295 441.121 209.233 441.644 209.914C442.167 210.595 442.89 210.936 443.814 210.936C444.822 210.936 445.559 210.595 446.026 209.914C446.493 209.233 446.726 208.295 446.726 207.1C446.726 205.905 446.488 204.967 446.012 204.286C445.536 203.605 444.794 203.264 443.786 203.264C443.282 203.264 442.848 203.353 442.484 203.53C442.12 203.707 441.817 203.964 441.574 204.3C441.331 204.636 441.149 205.042 441.028 205.518C440.916 205.985 440.86 206.512 440.86 207.1ZM449.102 205.07C449.186 204.669 449.326 204.286 449.522 203.922C449.718 203.558 449.97 203.241 450.278 202.97C450.586 202.69 450.954 202.471 451.384 202.312C451.813 202.153 452.303 202.074 452.854 202.074C453.367 202.074 453.824 202.149 454.226 202.298C454.627 202.438 454.968 202.639 455.248 202.9C455.528 203.161 455.738 203.474 455.878 203.838C456.027 204.202 456.102 204.599 456.102 205.028C456.102 205.635 455.971 206.195 455.71 206.708C455.458 207.212 455.136 207.674 454.744 208.094C454.352 208.514 453.922 208.897 453.456 209.242C452.989 209.578 452.546 209.877 452.126 210.138L451.048 210.81H456.466V212H448.836V211.02L450.964 209.606C451.664 209.139 452.261 208.71 452.756 208.318C453.25 207.917 453.652 207.539 453.96 207.184C454.277 206.829 454.506 206.489 454.646 206.162C454.795 205.826 454.87 205.49 454.87 205.154C454.87 204.809 454.814 204.515 454.702 204.272C454.599 204.029 454.45 203.833 454.254 203.684C454.067 203.535 453.843 203.427 453.582 203.362C453.33 203.297 453.059 203.264 452.77 203.264C452.35 203.264 451.986 203.329 451.678 203.46C451.379 203.591 451.122 203.763 450.908 203.978C450.702 204.183 450.539 204.417 450.418 204.678C450.306 204.93 450.231 205.182 450.194 205.434L449.102 205.07ZM457.534 205.07C457.618 204.669 457.758 204.286 457.954 203.922C458.15 203.558 458.402 203.241 458.71 202.97C459.018 202.69 459.387 202.471 459.816 202.312C460.245 202.153 460.735 202.074 461.286 202.074C461.799 202.074 462.257 202.149 462.658 202.298C463.059 202.438 463.4 202.639 463.68 202.9C463.96 203.161 464.17 203.474 464.31 203.838C464.459 204.202 464.534 204.599 464.534 205.028C464.534 205.635 464.403 206.195 464.142 206.708C463.89 207.212 463.568 207.674 463.176 208.094C462.784 208.514 462.355 208.897 461.888 209.242C461.421 209.578 460.978 209.877 460.558 210.138L459.48 210.81H464.898V212H457.268V211.02L459.396 209.606C460.096 209.139 460.693 208.71 461.188 208.318C461.683 207.917 462.084 207.539 462.392 207.184C462.709 206.829 462.938 206.489 463.078 206.162C463.227 205.826 463.302 205.49 463.302 205.154C463.302 204.809 463.246 204.515 463.134 204.272C463.031 204.029 462.882 203.833 462.686 203.684C462.499 203.535 462.275 203.427 462.014 203.362C461.762 203.297 461.491 203.264 461.202 203.264C460.782 203.264 460.418 203.329 460.11 203.46C459.811 203.591 459.555 203.763 459.34 203.978C459.135 204.183 458.971 204.417 458.85 204.678C458.738 204.93 458.663 205.182 458.626 205.434L457.534 205.07Z" fill="#5FAF2D"/>
<rect x="423" y="22" width="50" height="170" fill="#5FAF2D"/>
<rect x="423" y="22" width="50" height="4" fill="#3D7917"/>
<path d="M419.294 3.99C419.453 3.548 419.668 3.14567 419.94 2.783C420.212 2.409 420.541 2.086 420.926 1.814C421.323 1.542 421.776 1.33233 422.286 1.185C422.807 1.02633 423.391 0.946999 424.037 0.946999C424.615 0.946999 425.148 1.02067 425.635 1.168C426.134 1.304 426.559 1.50233 426.91 1.763C427.273 2.01233 427.55 2.324 427.743 2.698C427.947 3.072 428.049 3.48567 428.049 3.939C428.049 4.63033 427.868 5.21967 427.505 5.707C427.154 6.19433 426.638 6.53433 425.958 6.727C426.253 6.74967 426.542 6.82333 426.825 6.948C427.108 7.06133 427.358 7.237 427.573 7.475C427.8 7.70167 427.981 7.99067 428.117 8.342C428.253 8.682 428.321 9.09 428.321 9.566C428.321 10.144 428.208 10.6597 427.981 11.113C427.766 11.555 427.46 11.929 427.063 12.235C426.678 12.5297 426.219 12.7563 425.686 12.915C425.153 13.0737 424.581 13.153 423.969 13.153C423.3 13.153 422.688 13.0737 422.133 12.915C421.589 12.7563 421.107 12.541 420.688 12.269C420.269 11.9857 419.912 11.6513 419.617 11.266C419.334 10.8693 419.118 10.433 418.971 9.957L420.348 9.362C420.495 9.668 420.671 9.96267 420.875 10.246C421.079 10.5293 421.328 10.7787 421.623 10.994C421.918 11.2093 422.263 11.385 422.66 11.521C423.057 11.6457 423.527 11.708 424.071 11.708C424.921 11.708 425.59 11.5267 426.077 11.164C426.576 10.79 426.825 10.263 426.825 9.583C426.825 9.209 426.746 8.89733 426.587 8.648C426.428 8.38733 426.207 8.18333 425.924 8.036C425.641 7.87733 425.306 7.76967 424.921 7.713C424.547 7.645 424.139 7.611 423.697 7.611H422.371V6.2H423.425C424.411 6.2 425.176 6.013 425.72 5.639C426.275 5.265 426.553 4.79467 426.553 4.228C426.553 3.616 426.321 3.157 425.856 2.851C425.391 2.545 424.762 2.392 423.969 2.392C423.482 2.392 423.051 2.45433 422.677 2.579C422.303 2.70367 421.974 2.868 421.691 3.072C421.419 3.276 421.187 3.50833 420.994 3.769C420.813 4.02967 420.671 4.296 420.569 4.568L419.294 3.99ZM431.095 1.1H438.575V2.545H432.404L431.962 5.741C432.223 5.54833 432.574 5.38967 433.016 5.265C433.47 5.129 434.019 5.061 434.665 5.061C435.379 5.061 436.014 5.163 436.569 5.367C437.125 5.571 437.589 5.85433 437.963 6.217C438.337 6.57967 438.621 7.00467 438.813 7.492C439.017 7.97933 439.119 8.50067 439.119 9.056C439.119 9.65667 439 10.2063 438.762 10.705C438.536 11.2037 438.213 11.6343 437.793 11.997C437.385 12.3597 436.898 12.643 436.331 12.847C435.776 13.051 435.17 13.153 434.512 13.153C433.968 13.153 433.447 13.0907 432.948 12.966C432.45 12.8413 431.985 12.6543 431.554 12.405C431.135 12.1557 430.761 11.8553 430.432 11.504C430.115 11.1413 429.86 10.722 429.667 10.246L431.027 9.668C431.141 9.92867 431.299 10.1837 431.503 10.433C431.707 10.671 431.957 10.8863 432.251 11.079C432.546 11.2717 432.88 11.4247 433.254 11.538C433.628 11.6513 434.048 11.708 434.512 11.708C435.034 11.708 435.487 11.64 435.872 11.504C436.269 11.3567 436.598 11.164 436.858 10.926C437.119 10.688 437.312 10.416 437.436 10.11C437.561 9.79267 437.623 9.45833 437.623 9.107C437.623 8.30233 437.323 7.66767 436.722 7.203C436.133 6.73833 435.311 6.506 434.257 6.506C433.657 6.506 433.152 6.591 432.744 6.761C432.348 6.91967 431.974 7.17467 431.622 7.526L430.398 7.203L431.095 1.1ZM450.563 6.217C450.949 6.217 451.306 6.17167 451.634 6.081C451.974 5.979 452.269 5.843 452.518 5.673C452.768 5.503 452.96 5.299 453.096 5.061C453.244 4.823 453.317 4.56233 453.317 4.279C453.317 3.667 453.062 3.20233 452.552 2.885C452.054 2.55633 451.289 2.392 450.257 2.392C449.26 2.392 448.506 2.55633 447.996 2.885C447.498 3.21367 447.248 3.67833 447.248 4.279C447.248 4.551 447.316 4.806 447.452 5.044C447.588 5.282 447.775 5.49167 448.013 5.673C448.263 5.843 448.557 5.979 448.897 6.081C449.249 6.17167 449.628 6.217 450.036 6.217H450.563ZM450.104 7.56C449.628 7.56 449.186 7.61667 448.778 7.73C448.382 7.832 448.042 7.97933 447.758 8.172C447.475 8.35333 447.254 8.57433 447.095 8.835C446.937 9.08433 446.857 9.35067 446.857 9.634C446.857 10.246 447.141 10.7447 447.707 11.13C448.285 11.5153 449.141 11.708 450.274 11.708C451.442 11.708 452.303 11.5267 452.858 11.164C453.414 10.79 453.691 10.2857 453.691 9.651C453.691 8.98233 453.402 8.46667 452.824 8.104C452.258 7.74133 451.493 7.56 450.529 7.56H450.104ZM450.291 13.153C449.532 13.153 448.846 13.0793 448.234 12.932C447.634 12.7733 447.118 12.5523 446.687 12.269C446.268 11.9743 445.939 11.623 445.701 11.215C445.475 10.7957 445.361 10.3197 445.361 9.787C445.361 9.08433 445.571 8.478 445.99 7.968C446.421 7.44667 446.993 7.07267 447.707 6.846C447.367 6.73267 447.073 6.58533 446.823 6.404C446.574 6.21133 446.37 5.996 446.211 5.758C446.053 5.52 445.934 5.27067 445.854 5.01C445.786 4.738 445.752 4.46033 445.752 4.177C445.752 3.191 446.138 2.409 446.908 1.831C447.69 1.24167 448.812 0.946999 450.274 0.946999C451.748 0.946999 452.87 1.24167 453.64 1.831C454.422 2.409 454.813 3.191 454.813 4.177C454.813 4.789 454.643 5.30467 454.303 5.724C453.975 6.14333 453.516 6.489 452.926 6.761C453.742 7.01033 454.32 7.38433 454.66 7.883C455.012 8.38167 455.187 8.99367 455.187 9.719C455.187 10.263 455.074 10.7503 454.847 11.181C454.621 11.6003 454.292 11.9573 453.861 12.252C453.442 12.5467 452.926 12.7733 452.314 12.932C451.714 13.0793 451.039 13.153 450.291 13.153ZM457.89 1.1H465.37V2.545H459.199L458.757 5.741C459.018 5.54833 459.369 5.38967 459.811 5.265C460.264 5.129 460.814 5.061 461.46 5.061C462.174 5.061 462.809 5.163 463.364 5.367C463.919 5.571 464.384 5.85433 464.758 6.217C465.132 6.57967 465.415 7.00467 465.608 7.492C465.812 7.97933 465.914 8.50067 465.914 9.056C465.914 9.65667 465.795 10.2063 465.557 10.705C465.33 11.2037 465.007 11.6343 464.588 11.997C464.18 12.3597 463.693 12.643 463.126 12.847C462.571 13.051 461.964 13.153 461.307 13.153C460.763 13.153 460.242 13.0907 459.743 12.966C459.244 12.8413 458.78 12.6543 458.349 12.405C457.93 12.1557 457.556 11.8553 457.227 11.504C456.91 11.1413 456.655 10.722 456.462 10.246L457.822 9.668C457.935 9.92867 458.094 10.1837 458.298 10.433C458.502 10.671 458.751 10.8863 459.046 11.079C459.341 11.2717 459.675 11.4247 460.049 11.538C460.423 11.6513 460.842 11.708 461.307 11.708C461.828 11.708 462.282 11.64 462.667 11.504C463.064 11.3567 463.392 11.164 463.653 10.926C463.914 10.688 464.106 10.416 464.231 10.11C464.356 9.79267 464.418 9.45833 464.418 9.107C464.418 8.30233 464.118 7.66767 463.517 7.203C462.928 6.73833 462.106 6.506 461.052 6.506C460.451 6.506 459.947 6.591 459.539 6.761C459.142 6.91967 458.768 7.17467 458.417 7.526L457.193 7.203L457.89 1.1ZM468.582 1.1H476.062V2.545H469.891L469.449 5.741C469.709 5.54833 470.061 5.38967 470.503 5.265C470.956 5.129 471.506 5.061 472.152 5.061C472.866 5.061 473.5 5.163 474.056 5.367C474.611 5.571 475.076 5.85433 475.45 6.217C475.824 6.57967 476.107 7.00467 476.3 7.492C476.504 7.97933 476.606 8.50067 476.606 9.056C476.606 9.65667 476.487 10.2063 476.249 10.705C476.022 11.2037 475.699 11.6343 475.28 11.997C474.872 12.3597 474.384 12.643 473.818 12.847C473.262 13.051 472.656 13.153 471.999 13.153C471.455 13.153 470.933 13.0907 470.435 12.966C469.936 12.8413 469.471 12.6543 469.041 12.405C468.621 12.1557 468.247 11.8553 467.919 11.504C467.601 11.1413 467.346 10.722 467.154 10.246L468.514 9.668C468.627 9.92867 468.786 10.1837 468.99 10.433C469.194 10.671 469.443 10.8863 469.738 11.079C470.032 11.2717 470.367 11.4247 470.741 11.538C471.115 11.6513 471.534 11.708 471.999 11.708C472.52 11.708 472.973 11.64 473.359 11.504C473.755 11.3567 474.084 11.164 474.345 10.926C474.605 10.688 474.798 10.416 474.923 10.11C475.047 9.79267 475.11 9.45833 475.11 9.107C475.11 8.30233 474.809 7.66767 474.209 7.203C473.619 6.73833 472.798 6.506 471.744 6.506C471.143 6.506 470.639 6.591 470.231 6.761C469.834 6.91967 469.46 7.17467 469.109 7.526L467.885 7.203L468.582 1.1Z" fill="#222429"/>
<path d="M162.435 205.07C162.519 204.669 162.659 204.286 162.855 203.922C163.051 203.558 163.303 203.241 163.611 202.97C163.919 202.69 164.288 202.471 164.717 202.312C165.147 202.153 165.637 202.074 166.187 202.074C166.701 202.074 167.158 202.149 167.559 202.298C167.961 202.438 168.301 202.639 168.581 202.9C168.861 203.161 169.071 203.474 169.211 203.838C169.361 204.202 169.435 204.599 169.435 205.028C169.435 205.635 169.305 206.195 169.043 206.708C168.791 207.212 168.469 207.674 168.077 208.094C167.685 208.514 167.256 208.897 166.789 209.242C166.323 209.578 165.879 209.877 165.459 210.138L164.381 210.81H169.799V212H162.169V211.02L164.297 209.606C164.997 209.139 165.595 208.71 166.089 208.318C166.584 207.917 166.985 207.539 167.293 207.184C167.611 206.829 167.839 206.489 167.979 206.162C168.129 205.826 168.203 205.49 168.203 205.154C168.203 204.809 168.147 204.515 168.035 204.272C167.933 204.029 167.783 203.833 167.587 203.684C167.401 203.535 167.177 203.427 166.915 203.362C166.663 203.297 166.393 203.264 166.103 203.264C165.683 203.264 165.319 203.329 165.011 203.46C164.713 203.591 164.456 203.763 164.241 203.978C164.036 204.183 163.873 204.417 163.751 204.678C163.639 204.93 163.565 205.182 163.527 205.434L162.435 205.07ZM170.77 207.1C170.77 206.372 170.854 205.705 171.022 205.098C171.19 204.482 171.442 203.95 171.778 203.502C172.123 203.054 172.557 202.704 173.08 202.452C173.602 202.2 174.218 202.074 174.928 202.074C175.637 202.074 176.253 202.191 176.776 202.424C177.298 202.657 177.732 202.993 178.078 203.432C178.423 203.871 178.68 204.403 178.848 205.028C179.016 205.644 179.1 206.335 179.1 207.1C179.1 207.828 179.016 208.5 178.848 209.116C178.689 209.723 178.437 210.25 178.092 210.698C177.756 211.146 177.326 211.496 176.804 211.748C176.281 212 175.665 212.126 174.956 212.126C174.284 212.126 173.686 212 173.164 211.748C172.641 211.496 172.202 211.146 171.848 210.698C171.493 210.25 171.222 209.723 171.036 209.116C170.858 208.5 170.77 207.828 170.77 207.1ZM172.002 207.1C172.002 208.295 172.263 209.233 172.786 209.914C173.308 210.595 174.032 210.936 174.956 210.936C175.964 210.936 176.701 210.595 177.168 209.914C177.634 209.233 177.868 208.295 177.868 207.1C177.868 205.905 177.63 204.967 177.154 204.286C176.678 203.605 175.936 203.264 174.928 203.264C174.424 203.264 173.99 203.353 173.626 203.53C173.262 203.707 172.958 203.964 172.716 204.3C172.473 204.636 172.291 205.042 172.17 205.518C172.058 205.985 172.002 206.512 172.002 207.1ZM182.945 202.144H183.743V212H182.567V203.642L180.033 204.804L179.585 203.754L182.945 202.144ZM189.295 212.126C188.445 212.126 187.717 211.963 187.111 211.636C186.513 211.309 186.065 210.894 185.767 210.39L186.775 209.69C187.064 210.091 187.442 210.399 187.909 210.614C188.385 210.829 188.903 210.936 189.463 210.936C189.892 210.936 190.284 210.852 190.639 210.684C191.003 210.507 191.315 210.264 191.577 209.956C191.847 209.648 192.057 209.284 192.207 208.864C192.356 208.444 192.431 207.987 192.431 207.492C192.431 207.436 192.431 207.38 192.431 207.324C192.431 207.268 192.426 207.212 192.417 207.156C192.193 207.688 191.81 208.131 191.269 208.486C190.737 208.831 190.06 209.004 189.239 209.004C188.697 209.004 188.198 208.925 187.741 208.766C187.283 208.598 186.887 208.369 186.551 208.08C186.215 207.781 185.953 207.427 185.767 207.016C185.58 206.605 185.487 206.148 185.487 205.644C185.487 205.103 185.585 204.613 185.781 204.174C185.986 203.726 186.271 203.348 186.635 203.04C186.999 202.732 187.433 202.494 187.937 202.326C188.45 202.158 189.015 202.074 189.631 202.074C190.256 202.074 190.816 202.181 191.311 202.396C191.815 202.601 192.239 202.909 192.585 203.32C192.939 203.731 193.21 204.239 193.397 204.846C193.583 205.443 193.677 206.134 193.677 206.918C193.677 207.777 193.569 208.533 193.355 209.186C193.149 209.83 192.851 210.371 192.459 210.81C192.076 211.239 191.614 211.566 191.073 211.79C190.541 212.014 189.948 212.126 189.295 212.126ZM189.463 207.814C189.864 207.814 190.228 207.758 190.555 207.646C190.881 207.534 191.157 207.38 191.381 207.184C191.614 206.979 191.791 206.741 191.913 206.47C192.034 206.199 192.095 205.91 192.095 205.602C192.095 205.303 192.048 205.014 191.955 204.734C191.861 204.454 191.712 204.207 191.507 203.992C191.301 203.768 191.031 203.591 190.695 203.46C190.368 203.329 189.967 203.264 189.491 203.264C188.623 203.264 187.941 203.46 187.447 203.852C186.961 204.235 186.719 204.799 186.719 205.546C186.719 206.255 186.966 206.811 187.461 207.212C187.955 207.613 188.623 207.814 189.463 207.814Z" fill="#777F8C"/>
<rect x="153" y="186" width="50" height="6" fill="#BFCED4"/>
<rect x="153" y="186" width="50" height="4" fill="#A6B2BC"/>
<path d="M157.893 165.032H158.862V177H157.434V166.851L154.357 168.262L153.813 166.987L157.893 165.032ZM165.862 167.99C166.021 167.548 166.236 167.146 166.508 166.783C166.78 166.409 167.109 166.086 167.494 165.814C167.891 165.542 168.344 165.332 168.854 165.185C169.376 165.026 169.959 164.947 170.605 164.947C171.183 164.947 171.716 165.021 172.203 165.168C172.702 165.304 173.127 165.502 173.478 165.763C173.841 166.012 174.119 166.324 174.311 166.698C174.515 167.072 174.617 167.486 174.617 167.939C174.617 168.63 174.436 169.22 174.073 169.707C173.722 170.194 173.206 170.534 172.526 170.727C172.821 170.75 173.11 170.823 173.393 170.948C173.677 171.061 173.926 171.237 174.141 171.475C174.368 171.702 174.549 171.991 174.685 172.342C174.821 172.682 174.889 173.09 174.889 173.566C174.889 174.144 174.776 174.66 174.549 175.113C174.334 175.555 174.028 175.929 173.631 176.235C173.246 176.53 172.787 176.756 172.254 176.915C171.722 177.074 171.149 177.153 170.537 177.153C169.869 177.153 169.257 177.074 168.701 176.915C168.157 176.756 167.676 176.541 167.256 176.269C166.837 175.986 166.48 175.651 166.185 175.266C165.902 174.869 165.687 174.433 165.539 173.957L166.916 173.362C167.064 173.668 167.239 173.963 167.443 174.246C167.647 174.529 167.897 174.779 168.191 174.994C168.486 175.209 168.832 175.385 169.228 175.521C169.625 175.646 170.095 175.708 170.639 175.708C171.489 175.708 172.158 175.527 172.645 175.164C173.144 174.79 173.393 174.263 173.393 173.583C173.393 173.209 173.314 172.897 173.155 172.648C172.997 172.387 172.776 172.183 172.492 172.036C172.209 171.877 171.875 171.77 171.489 171.713C171.115 171.645 170.707 171.611 170.265 171.611H168.939V170.2H169.993C170.979 170.2 171.744 170.013 172.288 169.639C172.844 169.265 173.121 168.795 173.121 168.228C173.121 167.616 172.889 167.157 172.424 166.851C171.96 166.545 171.331 166.392 170.537 166.392C170.05 166.392 169.619 166.454 169.245 166.579C168.871 166.704 168.543 166.868 168.259 167.072C167.987 167.276 167.755 167.508 167.562 167.769C167.381 168.03 167.239 168.296 167.137 168.568L165.862 167.99ZM181.676 170.217C182.061 170.217 182.418 170.172 182.747 170.081C183.087 169.979 183.381 169.843 183.631 169.673C183.88 169.503 184.073 169.299 184.209 169.061C184.356 168.823 184.43 168.562 184.43 168.279C184.43 167.667 184.175 167.202 183.665 166.885C183.166 166.556 182.401 166.392 181.37 166.392C180.372 166.392 179.619 166.556 179.109 166.885C178.61 167.214 178.361 167.678 178.361 168.279C178.361 168.551 178.429 168.806 178.565 169.044C178.701 169.282 178.888 169.492 179.126 169.673C179.375 169.843 179.67 169.979 180.01 170.081C180.361 170.172 180.741 170.217 181.149 170.217H181.676ZM181.217 171.56C180.741 171.56 180.299 171.617 179.891 171.73C179.494 171.832 179.154 171.979 178.871 172.172C178.587 172.353 178.366 172.574 178.208 172.835C178.049 173.084 177.97 173.351 177.97 173.634C177.97 174.246 178.253 174.745 178.82 175.13C179.398 175.515 180.253 175.708 181.387 175.708C182.554 175.708 183.415 175.527 183.971 175.164C184.526 174.79 184.804 174.286 184.804 173.651C184.804 172.982 184.515 172.467 183.937 172.104C183.37 171.741 182.605 171.56 181.642 171.56H181.217ZM181.404 177.153C180.644 177.153 179.959 177.079 179.347 176.932C178.746 176.773 178.23 176.552 177.8 176.269C177.38 175.974 177.052 175.623 176.814 175.215C176.587 174.796 176.474 174.32 176.474 173.787C176.474 173.084 176.683 172.478 177.103 171.968C177.533 171.447 178.106 171.073 178.82 170.846C178.48 170.733 178.185 170.585 177.936 170.404C177.686 170.211 177.482 169.996 177.324 169.758C177.165 169.52 177.046 169.271 176.967 169.01C176.899 168.738 176.865 168.46 176.865 168.177C176.865 167.191 177.25 166.409 178.021 165.831C178.803 165.242 179.925 164.947 181.387 164.947C182.86 164.947 183.982 165.242 184.753 165.831C185.535 166.409 185.926 167.191 185.926 168.177C185.926 168.789 185.756 169.305 185.416 169.724C185.087 170.143 184.628 170.489 184.039 170.761C184.855 171.01 185.433 171.384 185.773 171.883C186.124 172.382 186.3 172.994 186.3 173.719C186.3 174.263 186.186 174.75 185.96 175.181C185.733 175.6 185.404 175.957 184.974 176.252C184.554 176.547 184.039 176.773 183.427 176.932C182.826 177.079 182.152 177.153 181.404 177.153ZM187.914 168.585C188.016 168.098 188.186 167.633 188.424 167.191C188.662 166.749 188.968 166.364 189.342 166.035C189.716 165.695 190.164 165.429 190.685 165.236C191.207 165.043 191.802 164.947 192.47 164.947C193.094 164.947 193.649 165.038 194.136 165.219C194.624 165.389 195.037 165.633 195.377 165.95C195.717 166.267 195.972 166.647 196.142 167.089C196.324 167.531 196.414 168.013 196.414 168.534C196.414 169.271 196.256 169.951 195.938 170.574C195.632 171.186 195.241 171.747 194.765 172.257C194.289 172.767 193.768 173.232 193.201 173.651C192.635 174.059 192.096 174.422 191.586 174.739L190.277 175.555H196.856V177H187.591V175.81L190.175 174.093C191.025 173.526 191.751 173.005 192.351 172.529C192.952 172.042 193.439 171.583 193.813 171.152C194.199 170.721 194.476 170.308 194.646 169.911C194.828 169.503 194.918 169.095 194.918 168.687C194.918 168.268 194.85 167.911 194.714 167.616C194.59 167.321 194.408 167.083 194.17 166.902C193.944 166.721 193.672 166.59 193.354 166.511C193.048 166.432 192.72 166.392 192.368 166.392C191.858 166.392 191.416 166.471 191.042 166.63C190.68 166.789 190.368 166.998 190.107 167.259C189.858 167.508 189.66 167.792 189.512 168.109C189.376 168.415 189.286 168.721 189.24 169.027L187.914 168.585Z" fill="#222429"/>
<path d="M72.4354 204.07C72.5194 203.669 72.6594 203.286 72.8554 202.922C73.0514 202.558 73.3034 202.241 73.6114 201.97C73.9194 201.69 74.2881 201.471 74.7174 201.312C75.1467 201.153 75.6367 201.074 76.1874 201.074C76.7007 201.074 77.1581 201.149 77.5594 201.298C77.9607 201.438 78.3014 201.639 78.5814 201.9C78.8614 202.161 79.0714 202.474 79.2114 202.838C79.3607 203.202 79.4354 203.599 79.4354 204.028C79.4354 204.635 79.3047 205.195 79.0434 205.708C78.7914 206.212 78.4694 206.674 78.0774 207.094C77.6854 207.514 77.2561 207.897 76.7894 208.242C76.3227 208.578 75.8794 208.877 75.4594 209.138L74.3814 209.81H79.7994V211H72.1694V210.02L74.2974 208.606C74.9974 208.139 75.5947 207.71 76.0894 207.318C76.5841 206.917 76.9854 206.539 77.2934 206.184C77.6107 205.829 77.8394 205.489 77.9794 205.162C78.1287 204.826 78.2034 204.49 78.2034 204.154C78.2034 203.809 78.1474 203.515 78.0354 203.272C77.9327 203.029 77.7834 202.833 77.5874 202.684C77.4007 202.535 77.1767 202.427 76.9154 202.362C76.6634 202.297 76.3927 202.264 76.1034 202.264C75.6834 202.264 75.3194 202.329 75.0114 202.46C74.7127 202.591 74.4561 202.763 74.2414 202.978C74.0361 203.183 73.8727 203.417 73.7514 203.678C73.6394 203.93 73.5647 204.182 73.5274 204.434L72.4354 204.07ZM80.7697 206.1C80.7697 205.372 80.8537 204.705 81.0217 204.098C81.1897 203.482 81.4417 202.95 81.7777 202.502C82.123 202.054 82.557 201.704 83.0797 201.452C83.6023 201.2 84.2183 201.074 84.9277 201.074C85.637 201.074 86.253 201.191 86.7757 201.424C87.2983 201.657 87.7323 201.993 88.0777 202.432C88.423 202.871 88.6797 203.403 88.8477 204.028C89.0157 204.644 89.0997 205.335 89.0997 206.1C89.0997 206.828 89.0157 207.5 88.8477 208.116C88.689 208.723 88.437 209.25 88.0917 209.698C87.7557 210.146 87.3263 210.496 86.8037 210.748C86.281 211 85.665 211.126 84.9557 211.126C84.2837 211.126 83.6863 211 83.1637 210.748C82.641 210.496 82.2023 210.146 81.8477 209.698C81.493 209.25 81.2223 208.723 81.0357 208.116C80.8583 207.5 80.7697 206.828 80.7697 206.1ZM82.0017 206.1C82.0017 207.295 82.263 208.233 82.7857 208.914C83.3083 209.595 84.0317 209.936 84.9557 209.936C85.9637 209.936 86.701 209.595 87.1677 208.914C87.6343 208.233 87.8677 207.295 87.8677 206.1C87.8677 204.905 87.6297 203.967 87.1537 203.286C86.6777 202.605 85.9357 202.264 84.9277 202.264C84.4237 202.264 83.9897 202.353 83.6257 202.53C83.2617 202.707 82.9583 202.964 82.7157 203.3C82.473 203.636 82.291 204.042 82.1697 204.518C82.0577 204.985 82.0017 205.512 82.0017 206.1ZM92.9453 201.144H93.7433V211H92.5673V202.642L90.0333 203.804L89.5853 202.754L92.9453 201.144ZM99.8267 205.414C100.144 205.414 100.438 205.377 100.709 205.302C100.989 205.218 101.231 205.106 101.437 204.966C101.642 204.826 101.801 204.658 101.913 204.462C102.034 204.266 102.095 204.051 102.095 203.818C102.095 203.314 101.885 202.931 101.465 202.67C101.054 202.399 100.424 202.264 99.5747 202.264C98.7534 202.264 98.1327 202.399 97.7127 202.67C97.3021 202.941 97.0967 203.323 97.0967 203.818C97.0967 204.042 97.1527 204.252 97.2647 204.448C97.3767 204.644 97.5307 204.817 97.7267 204.966C97.9321 205.106 98.1747 205.218 98.4547 205.302C98.7441 205.377 99.0567 205.414 99.3927 205.414H99.8267ZM99.4487 206.52C99.0567 206.52 98.6927 206.567 98.3567 206.66C98.0301 206.744 97.7501 206.865 97.5167 207.024C97.2834 207.173 97.1014 207.355 96.9707 207.57C96.8401 207.775 96.7747 207.995 96.7747 208.228C96.7747 208.732 97.0081 209.143 97.4747 209.46C97.9507 209.777 98.6554 209.936 99.5887 209.936C100.55 209.936 101.259 209.787 101.717 209.488C102.174 209.18 102.403 208.765 102.403 208.242C102.403 207.691 102.165 207.267 101.689 206.968C101.222 206.669 100.592 206.52 99.7987 206.52H99.4487ZM99.6027 211.126C98.9774 211.126 98.4127 211.065 97.9087 210.944C97.4141 210.813 96.9894 210.631 96.6347 210.398C96.2894 210.155 96.0187 209.866 95.8227 209.53C95.6361 209.185 95.5427 208.793 95.5427 208.354C95.5427 207.775 95.7154 207.276 96.0607 206.856C96.4154 206.427 96.8867 206.119 97.4747 205.932C97.1947 205.839 96.9521 205.717 96.7467 205.568C96.5414 205.409 96.3734 205.232 96.2427 205.036C96.1121 204.84 96.0141 204.635 95.9487 204.42C95.8927 204.196 95.8647 203.967 95.8647 203.734C95.8647 202.922 96.1821 202.278 96.8167 201.802C97.4607 201.317 98.3847 201.074 99.5887 201.074C100.802 201.074 101.726 201.317 102.361 201.802C103.005 202.278 103.327 202.922 103.327 203.734C103.327 204.238 103.187 204.663 102.907 205.008C102.636 205.353 102.258 205.638 101.773 205.862C102.445 206.067 102.921 206.375 103.201 206.786C103.49 207.197 103.635 207.701 103.635 208.298C103.635 208.746 103.541 209.147 103.355 209.502C103.168 209.847 102.897 210.141 102.543 210.384C102.197 210.627 101.773 210.813 101.269 210.944C100.774 211.065 100.219 211.126 99.6027 211.126Z" fill="#777F8C"/>
<rect x="63" y="189" width="50" height="2" fill="#BFCED4"/>
<rect x="63" y="189" width="50" height="4" fill="#A6B2BC"/>
<path d="M78.3563 177.62H71.0293V176.532L78.5263 168.1H79.7843V176.175H81.9943V177.62H79.7843V180H78.3563V177.62ZM78.3563 176.175V170.48L73.0693 176.175H78.3563ZM82.9952 174.05C82.9952 173.166 83.0972 172.356 83.3012 171.619C83.5052 170.871 83.8112 170.225 84.2192 169.681C84.6385 169.137 85.1655 168.712 85.8002 168.406C86.4348 168.1 87.1828 167.947 88.0442 167.947C88.9055 167.947 89.6535 168.089 90.2882 168.372C90.9228 168.655 91.4498 169.063 91.8692 169.596C92.2885 170.129 92.6002 170.775 92.8042 171.534C93.0082 172.282 93.1102 173.121 93.1102 174.05C93.1102 174.934 93.0082 175.75 92.8042 176.498C92.6115 177.235 92.3055 177.875 91.8862 178.419C91.4782 178.963 90.9568 179.388 90.3222 179.694C89.6875 180 88.9395 180.153 88.0782 180.153C87.2622 180.153 86.5368 180 85.9022 179.694C85.2675 179.388 84.7348 178.963 84.3042 178.419C83.8735 177.875 83.5448 177.235 83.3182 176.498C83.1028 175.75 82.9952 174.934 82.9952 174.05ZM84.4912 174.05C84.4912 175.501 84.8085 176.64 85.4432 177.467C86.0778 178.294 86.9562 178.708 88.0782 178.708C89.3022 178.708 90.1975 178.294 90.7642 177.467C91.3308 176.64 91.6142 175.501 91.6142 174.05C91.6142 172.599 91.3252 171.46 90.7472 170.633C90.1692 169.806 89.2682 169.392 88.0442 169.392C87.4322 169.392 86.9052 169.5 86.4632 169.715C86.0212 169.93 85.6528 170.242 85.3582 170.65C85.0635 171.058 84.8425 171.551 84.6952 172.129C84.5592 172.696 84.4912 173.336 84.4912 174.05ZM99.1228 180.153C98.0915 180.153 97.2075 179.955 96.4708 179.558C95.7455 179.161 95.2015 178.657 94.8388 178.045L96.0628 177.195C96.4142 177.682 96.8732 178.056 97.4398 178.317C98.0178 178.578 98.6468 178.708 99.3268 178.708C99.8482 178.708 100.324 178.606 100.755 178.402C101.197 178.187 101.577 177.892 101.894 177.518C102.223 177.144 102.478 176.702 102.659 176.192C102.84 175.682 102.931 175.127 102.931 174.526C102.931 174.458 102.931 174.39 102.931 174.322C102.931 174.254 102.925 174.186 102.914 174.118C102.642 174.764 102.177 175.302 101.52 175.733C100.874 176.152 100.052 176.362 99.0548 176.362C98.3975 176.362 97.7912 176.266 97.2358 176.073C96.6805 175.869 96.1988 175.591 95.7908 175.24C95.3828 174.877 95.0655 174.447 94.8388 173.948C94.6122 173.449 94.4988 172.894 94.4988 172.282C94.4988 171.625 94.6178 171.03 94.8558 170.497C95.1052 169.953 95.4508 169.494 95.8928 169.12C96.3348 168.746 96.8618 168.457 97.4738 168.253C98.0972 168.049 98.7828 167.947 99.5308 167.947C100.29 167.947 100.97 168.077 101.571 168.338C102.183 168.587 102.699 168.961 103.118 169.46C103.549 169.959 103.877 170.576 104.104 171.313C104.331 172.038 104.444 172.877 104.444 173.829C104.444 174.872 104.314 175.79 104.053 176.583C103.804 177.365 103.441 178.022 102.965 178.555C102.5 179.076 101.939 179.473 101.282 179.745C100.636 180.017 99.9162 180.153 99.1228 180.153ZM99.3268 174.917C99.8142 174.917 100.256 174.849 100.653 174.713C101.05 174.577 101.384 174.39 101.656 174.152C101.939 173.903 102.155 173.614 102.302 173.285C102.449 172.956 102.523 172.605 102.523 172.231C102.523 171.868 102.466 171.517 102.353 171.177C102.24 170.837 102.058 170.537 101.809 170.276C101.56 170.004 101.231 169.789 100.823 169.63C100.426 169.471 99.9388 169.392 99.3608 169.392C98.3068 169.392 97.4795 169.63 96.8788 170.106C96.2895 170.571 95.9948 171.256 95.9948 172.163C95.9948 173.024 96.2952 173.699 96.8958 174.186C97.4965 174.673 98.3068 174.917 99.3268 174.917Z" fill="#222429"/>
<path d="M250.822 205.07C250.906 204.669 251.046 204.286 251.242 203.922C251.438 203.558 251.69 203.241 251.998 202.97C252.306 202.69 252.675 202.471 253.104 202.312C253.533 202.153 254.023 202.074 254.574 202.074C255.087 202.074 255.545 202.149 255.946 202.298C256.347 202.438 256.688 202.639 256.968 202.9C257.248 203.161 257.458 203.474 257.598 203.838C257.747 204.202 257.822 204.599 257.822 205.028C257.822 205.635 257.691 206.195 257.43 206.708C257.178 207.212 256.856 207.674 256.464 208.094C256.072 208.514 255.643 208.897 255.176 209.242C254.709 209.578 254.266 209.877 253.846 210.138L252.768 210.81H258.186V212H250.556V211.02L252.684 209.606C253.384 209.139 253.981 208.71 254.476 208.318C254.971 207.917 255.372 207.539 255.68 207.184C255.997 206.829 256.226 206.489 256.366 206.162C256.515 205.826 256.59 205.49 256.59 205.154C256.59 204.809 256.534 204.515 256.422 204.272C256.319 204.029 256.17 203.833 255.974 203.684C255.787 203.535 255.563 203.427 255.302 203.362C255.05 203.297 254.779 203.264 254.49 203.264C254.07 203.264 253.706 203.329 253.398 203.46C253.099 203.591 252.843 203.763 252.628 203.978C252.423 204.183 252.259 204.417 252.138 204.678C252.026 204.93 251.951 205.182 251.914 205.434L250.822 205.07ZM259.156 207.1C259.156 206.372 259.24 205.705 259.408 205.098C259.576 204.482 259.828 203.95 260.164 203.502C260.51 203.054 260.944 202.704 261.466 202.452C261.989 202.2 262.605 202.074 263.314 202.074C264.024 202.074 264.64 202.191 265.162 202.424C265.685 202.657 266.119 202.993 266.464 203.432C266.81 203.871 267.066 204.403 267.234 205.028C267.402 205.644 267.486 206.335 267.486 207.1C267.486 207.828 267.402 208.5 267.234 209.116C267.076 209.723 266.824 210.25 266.478 210.698C266.142 211.146 265.713 211.496 265.19 211.748C264.668 212 264.052 212.126 263.342 212.126C262.67 212.126 262.073 212 261.55 211.748C261.028 211.496 260.589 211.146 260.234 210.698C259.88 210.25 259.609 209.723 259.422 209.116C259.245 208.5 259.156 207.828 259.156 207.1ZM260.388 207.1C260.388 208.295 260.65 209.233 261.172 209.914C261.695 210.595 262.418 210.936 263.342 210.936C264.35 210.936 265.088 210.595 265.554 209.914C266.021 209.233 266.254 208.295 266.254 207.1C266.254 205.905 266.016 204.967 265.54 204.286C265.064 203.605 264.322 203.264 263.314 203.264C262.81 203.264 262.376 203.353 262.012 203.53C261.648 203.707 261.345 203.964 261.102 204.3C260.86 204.636 260.678 205.042 260.556 205.518C260.444 205.985 260.388 206.512 260.388 207.1ZM268.63 205.07C268.714 204.669 268.854 204.286 269.05 203.922C269.246 203.558 269.498 203.241 269.806 202.97C270.114 202.69 270.483 202.471 270.912 202.312C271.341 202.153 271.831 202.074 272.382 202.074C272.895 202.074 273.353 202.149 273.754 202.298C274.155 202.438 274.496 202.639 274.776 202.9C275.056 203.161 275.266 203.474 275.406 203.838C275.555 204.202 275.63 204.599 275.63 205.028C275.63 205.635 275.499 206.195 275.238 206.708C274.986 207.212 274.664 207.674 274.272 208.094C273.88 208.514 273.451 208.897 272.984 209.242C272.517 209.578 272.074 209.877 271.654 210.138L270.576 210.81H275.994V212H268.364V211.02L270.492 209.606C271.192 209.139 271.789 208.71 272.284 208.318C272.779 207.917 273.18 207.539 273.488 207.184C273.805 206.829 274.034 206.489 274.174 206.162C274.323 205.826 274.398 205.49 274.398 205.154C274.398 204.809 274.342 204.515 274.23 204.272C274.127 204.029 273.978 203.833 273.782 203.684C273.595 203.535 273.371 203.427 273.11 203.362C272.858 203.297 272.587 203.264 272.298 203.264C271.878 203.264 271.514 203.329 271.206 203.46C270.907 203.591 270.651 203.763 270.436 203.978C270.231 204.183 270.067 204.417 269.946 204.678C269.834 204.93 269.759 205.182 269.722 205.434L268.63 205.07ZM276.964 207.1C276.964 206.372 277.048 205.705 277.216 205.098C277.384 204.482 277.636 203.95 277.972 203.502C278.318 203.054 278.752 202.704 279.274 202.452C279.797 202.2 280.413 202.074 281.122 202.074C281.832 202.074 282.448 202.191 282.97 202.424C283.493 202.657 283.927 202.993 284.272 203.432C284.618 203.871 284.874 204.403 285.042 205.028C285.21 205.644 285.294 206.335 285.294 207.1C285.294 207.828 285.21 208.5 285.042 209.116C284.884 209.723 284.632 210.25 284.286 210.698C283.95 211.146 283.521 211.496 282.998 211.748C282.476 212 281.86 212.126 281.15 212.126C280.478 212.126 279.881 212 279.358 211.748C278.836 211.496 278.397 211.146 278.042 210.698C277.688 210.25 277.417 209.723 277.23 209.116C277.053 208.5 276.964 207.828 276.964 207.1ZM278.196 207.1C278.196 208.295 278.458 209.233 278.98 209.914C279.503 210.595 280.226 210.936 281.15 210.936C282.158 210.936 282.896 210.595 283.362 209.914C283.829 209.233 284.062 208.295 284.062 207.1C284.062 205.905 283.824 204.967 283.348 204.286C282.872 203.605 282.13 203.264 281.122 203.264C280.618 203.264 280.184 203.353 279.82 203.53C279.456 203.707 279.153 203.964 278.91 204.3C278.668 204.636 278.486 205.042 278.364 205.518C278.252 205.985 278.196 206.512 278.196 207.1Z" fill="#777F8C"/>
<rect x="243" y="154" width="50" height="38" fill="#BFCED4"/>
<rect x="243" y="154" width="50" height="4" fill="#A6B2BC"/>
<path d="M244.517 133.1H253.544V134.069L247.628 145H246.013L251.725 134.545H244.517V133.1ZM263.957 145.153C262.926 145.153 262.042 144.955 261.305 144.558C260.58 144.161 260.036 143.657 259.673 143.045L260.897 142.195C261.249 142.682 261.708 143.056 262.274 143.317C262.852 143.578 263.481 143.708 264.161 143.708C264.683 143.708 265.159 143.606 265.589 143.402C266.031 143.187 266.411 142.892 266.728 142.518C267.057 142.144 267.312 141.702 267.493 141.192C267.675 140.682 267.765 140.127 267.765 139.526C267.765 139.458 267.765 139.39 267.765 139.322C267.765 139.254 267.76 139.186 267.748 139.118C267.476 139.764 267.012 140.302 266.354 140.733C265.708 141.152 264.887 141.362 263.889 141.362C263.232 141.362 262.626 141.266 262.07 141.073C261.515 140.869 261.033 140.591 260.625 140.24C260.217 139.877 259.9 139.447 259.673 138.948C259.447 138.449 259.333 137.894 259.333 137.282C259.333 136.625 259.452 136.03 259.69 135.497C259.94 134.953 260.285 134.494 260.727 134.12C261.169 133.746 261.696 133.457 262.308 133.253C262.932 133.049 263.617 132.947 264.365 132.947C265.125 132.947 265.805 133.077 266.405 133.338C267.017 133.587 267.533 133.961 267.952 134.46C268.383 134.959 268.712 135.576 268.938 136.313C269.165 137.038 269.278 137.877 269.278 138.829C269.278 139.872 269.148 140.79 268.887 141.583C268.638 142.365 268.275 143.022 267.799 143.555C267.335 144.076 266.774 144.473 266.116 144.745C265.47 145.017 264.751 145.153 263.957 145.153ZM264.161 139.917C264.649 139.917 265.091 139.849 265.487 139.713C265.884 139.577 266.218 139.39 266.49 139.152C266.774 138.903 266.989 138.614 267.136 138.285C267.284 137.956 267.357 137.605 267.357 137.231C267.357 136.868 267.301 136.517 267.187 136.177C267.074 135.837 266.893 135.537 266.643 135.276C266.394 135.004 266.065 134.789 265.657 134.63C265.261 134.471 264.773 134.392 264.195 134.392C263.141 134.392 262.314 134.63 261.713 135.106C261.124 135.571 260.829 136.256 260.829 137.163C260.829 138.024 261.13 138.699 261.73 139.186C262.331 139.673 263.141 139.917 264.161 139.917ZM277.506 142.62H270.179V141.532L277.676 133.1H278.934V141.175H281.144V142.62H278.934V145H277.506V142.62ZM277.506 141.175V135.48L272.219 141.175H277.506ZM282.264 136.585C282.366 136.098 282.536 135.633 282.774 135.191C283.012 134.749 283.318 134.364 283.692 134.035C284.066 133.695 284.514 133.429 285.035 133.236C285.556 133.043 286.151 132.947 286.82 132.947C287.443 132.947 287.999 133.038 288.486 133.219C288.973 133.389 289.387 133.633 289.727 133.95C290.067 134.267 290.322 134.647 290.492 135.089C290.673 135.531 290.764 136.013 290.764 136.534C290.764 137.271 290.605 137.951 290.288 138.574C289.982 139.186 289.591 139.747 289.115 140.257C288.639 140.767 288.118 141.232 287.551 141.651C286.984 142.059 286.446 142.422 285.936 142.739L284.627 143.555H291.206V145H281.941V143.81L284.525 142.093C285.375 141.526 286.1 141.005 286.701 140.529C287.302 140.042 287.789 139.583 288.163 139.152C288.548 138.721 288.826 138.308 288.996 137.911C289.177 137.503 289.268 137.095 289.268 136.687C289.268 136.268 289.2 135.911 289.064 135.616C288.939 135.321 288.758 135.083 288.52 134.902C288.293 134.721 288.021 134.59 287.704 134.511C287.398 134.432 287.069 134.392 286.718 134.392C286.208 134.392 285.766 134.471 285.392 134.63C285.029 134.789 284.718 134.998 284.457 135.259C284.208 135.508 284.009 135.792 283.862 136.109C283.726 136.415 283.635 136.721 283.59 137.027L282.264 136.585Z" fill="#222429"/>
<path d="M342.818 205.07C342.902 204.669 343.042 204.286 343.238 203.922C343.434 203.558 343.686 203.241 343.994 202.97C344.302 202.69 344.671 202.471 345.1 202.312C345.53 202.153 346.02 202.074 346.57 202.074C347.084 202.074 347.541 202.149 347.942 202.298C348.344 202.438 348.684 202.639 348.964 202.9C349.244 203.161 349.454 203.474 349.594 203.838C349.744 204.202 349.818 204.599 349.818 205.028C349.818 205.635 349.688 206.195 349.426 206.708C349.174 207.212 348.852 207.674 348.46 208.094C348.068 208.514 347.639 208.897 347.172 209.242C346.706 209.578 346.262 209.877 345.842 210.138L344.764 210.81H350.182V212H342.552V211.02L344.68 209.606C345.38 209.139 345.978 208.71 346.472 208.318C346.967 207.917 347.368 207.539 347.676 207.184C347.994 206.829 348.222 206.489 348.362 206.162C348.512 205.826 348.586 205.49 348.586 205.154C348.586 204.809 348.53 204.515 348.418 204.272C348.316 204.029 348.166 203.833 347.97 203.684C347.784 203.535 347.56 203.427 347.298 203.362C347.046 203.297 346.776 203.264 346.486 203.264C346.066 203.264 345.702 203.329 345.394 203.46C345.096 203.591 344.839 203.763 344.624 203.978C344.419 204.183 344.256 204.417 344.134 204.678C344.022 204.93 343.948 205.182 343.91 205.434L342.818 205.07ZM351.152 207.1C351.152 206.372 351.236 205.705 351.404 205.098C351.572 204.482 351.824 203.95 352.16 203.502C352.506 203.054 352.94 202.704 353.462 202.452C353.985 202.2 354.601 202.074 355.31 202.074C356.02 202.074 356.636 202.191 357.158 202.424C357.681 202.657 358.115 202.993 358.46 203.432C358.806 203.871 359.062 204.403 359.23 205.028C359.398 205.644 359.482 206.335 359.482 207.1C359.482 207.828 359.398 208.5 359.23 209.116C359.072 209.723 358.82 210.25 358.474 210.698C358.138 211.146 357.709 211.496 357.186 211.748C356.664 212 356.048 212.126 355.338 212.126C354.666 212.126 354.069 212 353.546 211.748C353.024 211.496 352.585 211.146 352.23 210.698C351.876 210.25 351.605 209.723 351.418 209.116C351.241 208.5 351.152 207.828 351.152 207.1ZM352.384 207.1C352.384 208.295 352.646 209.233 353.168 209.914C353.691 210.595 354.414 210.936 355.338 210.936C356.346 210.936 357.084 210.595 357.55 209.914C358.017 209.233 358.25 208.295 358.25 207.1C358.25 205.905 358.012 204.967 357.536 204.286C357.06 203.605 356.318 203.264 355.31 203.264C354.806 203.264 354.372 203.353 354.008 203.53C353.644 203.707 353.341 203.964 353.098 204.3C352.856 204.636 352.674 205.042 352.552 205.518C352.44 205.985 352.384 206.512 352.384 207.1ZM360.626 205.07C360.71 204.669 360.85 204.286 361.046 203.922C361.242 203.558 361.494 203.241 361.802 202.97C362.11 202.69 362.479 202.471 362.908 202.312C363.337 202.153 363.827 202.074 364.378 202.074C364.891 202.074 365.349 202.149 365.75 202.298C366.151 202.438 366.492 202.639 366.772 202.9C367.052 203.161 367.262 203.474 367.402 203.838C367.551 204.202 367.626 204.599 367.626 205.028C367.626 205.635 367.495 206.195 367.234 206.708C366.982 207.212 366.66 207.674 366.268 208.094C365.876 208.514 365.447 208.897 364.98 209.242C364.513 209.578 364.07 209.877 363.65 210.138L362.572 210.81H367.99V212H360.36V211.02L362.488 209.606C363.188 209.139 363.785 208.71 364.28 208.318C364.775 207.917 365.176 207.539 365.484 207.184C365.801 206.829 366.03 206.489 366.17 206.162C366.319 205.826 366.394 205.49 366.394 205.154C366.394 204.809 366.338 204.515 366.226 204.272C366.123 204.029 365.974 203.833 365.778 203.684C365.591 203.535 365.367 203.427 365.106 203.362C364.854 203.297 364.583 203.264 364.294 203.264C363.874 203.264 363.51 203.329 363.202 203.46C362.903 203.591 362.647 203.763 362.432 203.978C362.227 204.183 362.063 204.417 361.942 204.678C361.83 204.93 361.755 205.182 361.718 205.434L360.626 205.07ZM371.76 202.144H372.558V212H371.382V203.642L368.848 204.804L368.4 203.754L371.76 202.144Z" fill="#777F8C"/>
<rect x="333" y="75" width="50" height="117" fill="#BFCED4"/>
<rect x="333" y="75" width="50" height="4" fill="#A6B2BC"/>
<path d="M329.407 57.585C329.509 57.0977 329.679 56.633 329.917 56.191C330.155 55.749 330.461 55.3637 330.835 55.035C331.209 54.695 331.657 54.4287 332.178 54.236C332.699 54.0433 333.294 53.947 333.963 53.947C334.586 53.947 335.142 54.0377 335.629 54.219C336.116 54.389 336.53 54.6327 336.87 54.95C337.21 55.2673 337.465 55.647 337.635 56.089C337.816 56.531 337.907 57.0127 337.907 57.534C337.907 58.2707 337.748 58.9507 337.431 59.574C337.125 60.186 336.734 60.747 336.258 61.257C335.782 61.767 335.261 62.2317 334.694 62.651C334.127 63.059 333.589 63.4217 333.079 63.739L331.77 64.555H338.349V66H329.084V64.81L331.668 63.093C332.518 62.5263 333.243 62.005 333.844 61.529C334.445 61.0417 334.932 60.5827 335.306 60.152C335.691 59.7213 335.969 59.3077 336.139 58.911C336.32 58.503 336.411 58.095 336.411 57.687C336.411 57.2677 336.343 56.9107 336.207 56.616C336.082 56.3213 335.901 56.0833 335.663 55.902C335.436 55.7207 335.164 55.5903 334.847 55.511C334.541 55.4317 334.212 55.392 333.861 55.392C333.351 55.392 332.909 55.4713 332.535 55.63C332.172 55.7887 331.861 55.9983 331.6 56.259C331.351 56.5083 331.152 56.7917 331.005 57.109C330.869 57.415 330.778 57.721 330.733 58.027L329.407 57.585ZM346.48 63.62H339.153V62.532L346.65 54.1H347.908V62.175H350.118V63.62H347.908V66H346.48V63.62ZM346.48 62.175V56.48L341.193 62.175H346.48ZM361.086 66.153C360.292 66.153 359.573 66.0283 358.927 65.779C358.292 65.5297 357.748 65.1613 357.295 64.674C356.841 64.1753 356.49 63.569 356.241 62.855C356.003 62.141 355.884 61.3137 355.884 60.373C355.884 59.3077 356.025 58.3727 356.309 57.568C356.592 56.7633 356.972 56.0947 357.448 55.562C357.935 55.018 358.496 54.6157 359.131 54.355C359.777 54.083 360.457 53.947 361.171 53.947C362.202 53.947 363.08 54.1567 363.806 54.576C364.531 54.9953 365.058 55.562 365.387 56.276L364.231 57.058C363.902 56.548 363.477 56.1457 362.956 55.851C362.446 55.545 361.828 55.392 361.103 55.392C360.536 55.392 360.026 55.5053 359.573 55.732C359.119 55.9473 358.728 56.2647 358.4 56.684C358.071 57.092 357.816 57.5907 357.635 58.18C357.453 58.758 357.357 59.4097 357.346 60.135V60.322C357.504 59.948 357.72 59.6193 357.992 59.336C358.275 59.0527 358.592 58.8147 358.944 58.622C359.295 58.4293 359.669 58.2877 360.066 58.197C360.474 58.095 360.887 58.044 361.307 58.044C361.998 58.044 362.621 58.1403 363.177 58.333C363.732 58.5257 364.202 58.7977 364.588 59.149C364.984 59.5003 365.285 59.9197 365.489 60.407C365.693 60.8943 365.795 61.4327 365.795 62.022C365.795 62.634 365.67 63.195 365.421 63.705C365.183 64.215 364.848 64.6513 364.418 65.014C363.998 65.3767 363.5 65.66 362.922 65.864C362.355 66.0567 361.743 66.153 361.086 66.153ZM361.069 64.708C361.545 64.708 361.975 64.6457 362.361 64.521C362.757 64.3963 363.097 64.2207 363.381 63.994C363.675 63.756 363.902 63.4783 364.061 63.161C364.219 62.8437 364.299 62.4867 364.299 62.09C364.299 61.6593 364.219 61.2853 364.061 60.968C363.913 60.6393 363.704 60.3673 363.432 60.152C363.16 59.9253 362.831 59.761 362.446 59.659C362.072 59.5457 361.664 59.489 361.222 59.489C360.134 59.489 359.306 59.7213 358.74 60.186C358.184 60.6507 357.907 61.2457 357.907 61.971C357.907 62.345 357.98 62.6963 358.128 63.025C358.275 63.3537 358.485 63.6427 358.757 63.892C359.029 64.1413 359.357 64.3397 359.743 64.487C360.139 64.6343 360.581 64.708 361.069 64.708ZM367.087 56.99C367.246 56.548 367.461 56.1457 367.733 55.783C368.005 55.409 368.334 55.086 368.719 54.814C369.116 54.542 369.569 54.3323 370.079 54.185C370.601 54.0263 371.184 53.947 371.83 53.947C372.408 53.947 372.941 54.0207 373.428 54.168C373.927 54.304 374.352 54.5023 374.703 54.763C375.066 55.0123 375.344 55.324 375.536 55.698C375.74 56.072 375.842 56.4857 375.842 56.939C375.842 57.6303 375.661 58.2197 375.298 58.707C374.947 59.1943 374.431 59.5343 373.751 59.727C374.046 59.7497 374.335 59.8233 374.618 59.948C374.902 60.0613 375.151 60.237 375.366 60.475C375.593 60.7017 375.774 60.9907 375.91 61.342C376.046 61.682 376.114 62.09 376.114 62.566C376.114 63.144 376.001 63.6597 375.774 64.113C375.559 64.555 375.253 64.929 374.856 65.235C374.471 65.5297 374.012 65.7563 373.479 65.915C372.947 66.0737 372.374 66.153 371.762 66.153C371.094 66.153 370.482 66.0737 369.926 65.915C369.382 65.7563 368.901 65.541 368.481 65.269C368.062 64.9857 367.705 64.6513 367.41 64.266C367.127 63.8693 366.912 63.433 366.764 62.957L368.141 62.362C368.289 62.668 368.464 62.9627 368.668 63.246C368.872 63.5293 369.122 63.7787 369.416 63.994C369.711 64.2093 370.057 64.385 370.453 64.521C370.85 64.6457 371.32 64.708 371.864 64.708C372.714 64.708 373.383 64.5267 373.87 64.164C374.369 63.79 374.618 63.263 374.618 62.583C374.618 62.209 374.539 61.8973 374.38 61.648C374.222 61.3873 374.001 61.1833 373.717 61.036C373.434 60.8773 373.1 60.7697 372.714 60.713C372.34 60.645 371.932 60.611 371.49 60.611H370.164V59.2H371.218C372.204 59.2 372.969 59.013 373.513 58.639C374.069 58.265 374.346 57.7947 374.346 57.228C374.346 56.616 374.114 56.157 373.649 55.851C373.185 55.545 372.556 55.392 371.762 55.392C371.275 55.392 370.844 55.4543 370.47 55.579C370.096 55.7037 369.768 55.868 369.484 56.072C369.212 56.276 368.98 56.5083 368.787 56.769C368.606 57.0297 368.464 57.296 368.362 57.568L367.087 56.99ZM377.58 56.99C377.738 56.548 377.954 56.1457 378.226 55.783C378.498 55.409 378.826 55.086 379.212 54.814C379.608 54.542 380.062 54.3323 380.572 54.185C381.093 54.0263 381.677 53.947 382.323 53.947C382.901 53.947 383.433 54.0207 383.921 54.168C384.419 54.304 384.844 54.5023 385.196 54.763C385.558 55.0123 385.836 55.324 386.029 55.698C386.233 56.072 386.335 56.4857 386.335 56.939C386.335 57.6303 386.153 58.2197 385.791 58.707C385.439 59.1943 384.924 59.5343 384.244 59.727C384.538 59.7497 384.827 59.8233 385.111 59.948C385.394 60.0613 385.643 60.237 385.859 60.475C386.085 60.7017 386.267 60.9907 386.403 61.342C386.539 61.682 386.607 62.09 386.607 62.566C386.607 63.144 386.493 63.6597 386.267 64.113C386.051 64.555 385.745 64.929 385.349 65.235C384.963 65.5297 384.504 65.7563 383.972 65.915C383.439 66.0737 382.867 66.153 382.255 66.153C381.586 66.153 380.974 66.0737 380.419 65.915C379.875 65.7563 379.393 65.541 378.974 65.269C378.554 64.9857 378.197 64.6513 377.903 64.266C377.619 63.8693 377.404 63.433 377.257 62.957L378.634 62.362C378.781 62.668 378.957 62.9627 379.161 63.246C379.365 63.5293 379.614 63.7787 379.909 63.994C380.203 64.2093 380.549 64.385 380.946 64.521C381.342 64.6457 381.813 64.708 382.357 64.708C383.207 64.708 383.875 64.5267 384.363 64.164C384.861 63.79 385.111 63.263 385.111 62.583C385.111 62.209 385.031 61.8973 384.873 61.648C384.714 61.3873 384.493 61.1833 384.21 61.036C383.926 60.8773 383.592 60.7697 383.207 60.713C382.833 60.645 382.425 60.611 381.983 60.611H380.657V59.2H381.711C382.697 59.2 383.462 59.013 384.006 58.639C384.561 58.265 384.839 57.7947 384.839 57.228C384.839 56.616 384.606 56.157 384.142 55.851C383.677 55.545 383.048 55.392 382.255 55.392C381.767 55.392 381.337 55.4543 380.963 55.579C380.589 55.7037 380.26 55.868 379.977 56.072C379.705 56.276 379.472 56.5083 379.28 56.769C379.098 57.0297 378.957 57.296 378.855 57.568L377.58 56.99Z" fill="#222429"/>
</svg>
