<svg viewBox="0 0 535 213" fill="none" xmlns="http://www.w3.org/2000/svg">
<line x1="-3.16332e-08" y1="192.5" x2="535" y2="192.5" stroke="#CBCFD6"/>
<path d="M431.294 205.07C431.378 204.669 431.518 204.286 431.714 203.922C431.91 203.558 432.162 203.241 432.47 202.97C432.778 202.69 433.146 202.471 433.576 202.312C434.005 202.153 434.495 202.074 435.046 202.074C435.559 202.074 436.016 202.149 436.418 202.298C436.819 202.438 437.16 202.639 437.44 202.9C437.72 203.161 437.93 203.474 438.07 203.838C438.219 204.202 438.294 204.599 438.294 205.028C438.294 205.635 438.163 206.195 437.902 206.708C437.65 207.212 437.328 207.674 436.936 208.094C436.544 208.514 436.114 208.897 435.648 209.242C435.181 209.578 434.738 209.877 434.318 210.138L433.24 210.81H438.658V212H431.028V211.02L433.156 209.606C433.856 209.139 434.453 208.71 434.948 208.318C435.442 207.917 435.844 207.539 436.152 207.184C436.469 206.829 436.698 206.489 436.838 206.162C436.987 205.826 437.062 205.49 437.062 205.154C437.062 204.809 437.006 204.515 436.894 204.272C436.791 204.029 436.642 203.833 436.446 203.684C436.259 203.535 436.035 203.427 435.774 203.362C435.522 203.297 435.251 203.264 434.962 203.264C434.542 203.264 434.178 203.329 433.87 203.46C433.571 203.591 433.314 203.763 433.1 203.978C432.894 204.183 432.731 204.417 432.61 204.678C432.498 204.93 432.423 205.182 432.386 205.434L431.294 205.07ZM439.628 207.1C439.628 206.372 439.712 205.705 439.88 205.098C440.048 204.482 440.3 203.95 440.636 203.502C440.981 203.054 441.415 202.704 441.938 202.452C442.461 202.2 443.077 202.074 443.786 202.074C444.495 202.074 445.111 202.191 445.634 202.424C446.157 202.657 446.591 202.993 446.936 203.432C447.281 203.871 447.538 204.403 447.706 205.028C447.874 205.644 447.958 206.335 447.958 207.1C447.958 207.828 447.874 208.5 447.706 209.116C447.547 209.723 447.295 210.25 446.95 210.698C446.614 211.146 446.185 211.496 445.662 211.748C445.139 212 444.523 212.126 443.814 212.126C443.142 212.126 442.545 212 442.022 211.748C441.499 211.496 441.061 211.146 440.706 210.698C440.351 210.25 440.081 209.723 439.894 209.116C439.717 208.5 439.628 207.828 439.628 207.1ZM440.86 207.1C440.86 208.295 441.121 209.233 441.644 209.914C442.167 210.595 442.89 210.936 443.814 210.936C444.822 210.936 445.559 210.595 446.026 209.914C446.493 209.233 446.726 208.295 446.726 207.1C446.726 205.905 446.488 204.967 446.012 204.286C445.536 203.605 444.794 203.264 443.786 203.264C443.282 203.264 442.848 203.353 442.484 203.53C442.12 203.707 441.817 203.964 441.574 204.3C441.331 204.636 441.149 205.042 441.028 205.518C440.916 205.985 440.86 206.512 440.86 207.1ZM449.102 205.07C449.186 204.669 449.326 204.286 449.522 203.922C449.718 203.558 449.97 203.241 450.278 202.97C450.586 202.69 450.954 202.471 451.384 202.312C451.813 202.153 452.303 202.074 452.854 202.074C453.367 202.074 453.824 202.149 454.226 202.298C454.627 202.438 454.968 202.639 455.248 202.9C455.528 203.161 455.738 203.474 455.878 203.838C456.027 204.202 456.102 204.599 456.102 205.028C456.102 205.635 455.971 206.195 455.71 206.708C455.458 207.212 455.136 207.674 454.744 208.094C454.352 208.514 453.922 208.897 453.456 209.242C452.989 209.578 452.546 209.877 452.126 210.138L451.048 210.81H456.466V212H448.836V211.02L450.964 209.606C451.664 209.139 452.261 208.71 452.756 208.318C453.25 207.917 453.652 207.539 453.96 207.184C454.277 206.829 454.506 206.489 454.646 206.162C454.795 205.826 454.87 205.49 454.87 205.154C454.87 204.809 454.814 204.515 454.702 204.272C454.599 204.029 454.45 203.833 454.254 203.684C454.067 203.535 453.843 203.427 453.582 203.362C453.33 203.297 453.059 203.264 452.77 203.264C452.35 203.264 451.986 203.329 451.678 203.46C451.379 203.591 451.122 203.763 450.908 203.978C450.702 204.183 450.539 204.417 450.418 204.678C450.306 204.93 450.231 205.182 450.194 205.434L449.102 205.07ZM457.534 205.07C457.618 204.669 457.758 204.286 457.954 203.922C458.15 203.558 458.402 203.241 458.71 202.97C459.018 202.69 459.387 202.471 459.816 202.312C460.245 202.153 460.735 202.074 461.286 202.074C461.799 202.074 462.257 202.149 462.658 202.298C463.059 202.438 463.4 202.639 463.68 202.9C463.96 203.161 464.17 203.474 464.31 203.838C464.459 204.202 464.534 204.599 464.534 205.028C464.534 205.635 464.403 206.195 464.142 206.708C463.89 207.212 463.568 207.674 463.176 208.094C462.784 208.514 462.355 208.897 461.888 209.242C461.421 209.578 460.978 209.877 460.558 210.138L459.48 210.81H464.898V212H457.268V211.02L459.396 209.606C460.096 209.139 460.693 208.71 461.188 208.318C461.683 207.917 462.084 207.539 462.392 207.184C462.709 206.829 462.938 206.489 463.078 206.162C463.227 205.826 463.302 205.49 463.302 205.154C463.302 204.809 463.246 204.515 463.134 204.272C463.031 204.029 462.882 203.833 462.686 203.684C462.499 203.535 462.275 203.427 462.014 203.362C461.762 203.297 461.491 203.264 461.202 203.264C460.782 203.264 460.418 203.329 460.11 203.46C459.811 203.591 459.555 203.763 459.34 203.978C459.135 204.183 458.971 204.417 458.85 204.678C458.738 204.93 458.663 205.182 458.626 205.434L457.534 205.07Z" fill="#5FAF2D"/>
<rect x="423" y="22" width="50" height="170" fill="#5FAF2D"/>
<rect x="423" y="22" width="50" height="4" fill="#3D7917"/>
<path d="M419.817 3.99C419.976 3.548 420.191 3.14567 420.463 2.783C420.735 2.409 421.064 2.086 421.449 1.814C421.846 1.542 422.299 1.33233 422.809 1.185C423.33 1.02633 423.914 0.946999 424.56 0.946999C425.138 0.946999 425.671 1.02067 426.158 1.168C426.657 1.304 427.082 1.50233 427.433 1.763C427.796 2.01233 428.073 2.324 428.266 2.698C428.47 3.072 428.572 3.48567 428.572 3.939C428.572 4.63033 428.391 5.21967 428.028 5.707C427.677 6.19433 427.161 6.53433 426.481 6.727C426.776 6.74967 427.065 6.82333 427.348 6.948C427.631 7.06133 427.881 7.237 428.096 7.475C428.323 7.70167 428.504 7.99067 428.64 8.342C428.776 8.682 428.844 9.09 428.844 9.566C428.844 10.144 428.731 10.6597 428.504 11.113C428.289 11.555 427.983 11.929 427.586 12.235C427.201 12.5297 426.742 12.7563 426.209 12.915C425.676 13.0737 425.104 13.153 424.492 13.153C423.823 13.153 423.211 13.0737 422.656 12.915C422.112 12.7563 421.63 12.541 421.211 12.269C420.792 11.9857 420.435 11.6513 420.14 11.266C419.857 10.8693 419.641 10.433 419.494 9.957L420.871 9.362C421.018 9.668 421.194 9.96267 421.398 10.246C421.602 10.5293 421.851 10.7787 422.146 10.994C422.441 11.2093 422.786 11.385 423.183 11.521C423.58 11.6457 424.05 11.708 424.594 11.708C425.444 11.708 426.113 11.5267 426.6 11.164C427.099 10.79 427.348 10.263 427.348 9.583C427.348 9.209 427.269 8.89733 427.11 8.648C426.951 8.38733 426.73 8.18333 426.447 8.036C426.164 7.87733 425.829 7.76967 425.444 7.713C425.07 7.645 424.662 7.611 424.22 7.611H422.894V6.2H423.948C424.934 6.2 425.699 6.013 426.243 5.639C426.798 5.265 427.076 4.79467 427.076 4.228C427.076 3.616 426.844 3.157 426.379 2.851C425.914 2.545 425.285 2.392 424.492 2.392C424.005 2.392 423.574 2.45433 423.2 2.579C422.826 2.70367 422.497 2.868 422.214 3.072C421.942 3.276 421.71 3.50833 421.517 3.769C421.336 4.02967 421.194 4.296 421.092 4.568L419.817 3.99ZM431.618 1.1H439.098V2.545H432.927L432.485 5.741C432.746 5.54833 433.097 5.38967 433.539 5.265C433.993 5.129 434.542 5.061 435.188 5.061C435.902 5.061 436.537 5.163 437.092 5.367C437.648 5.571 438.112 5.85433 438.486 6.217C438.86 6.57967 439.144 7.00467 439.336 7.492C439.54 7.97933 439.642 8.50067 439.642 9.056C439.642 9.65667 439.523 10.2063 439.285 10.705C439.059 11.2037 438.736 11.6343 438.316 11.997C437.908 12.3597 437.421 12.643 436.854 12.847C436.299 13.051 435.693 13.153 435.035 13.153C434.491 13.153 433.97 13.0907 433.471 12.966C432.973 12.8413 432.508 12.6543 432.077 12.405C431.658 12.1557 431.284 11.8553 430.955 11.504C430.638 11.1413 430.383 10.722 430.19 10.246L431.55 9.668C431.664 9.92867 431.822 10.1837 432.026 10.433C432.23 10.671 432.48 10.8863 432.774 11.079C433.069 11.2717 433.403 11.4247 433.777 11.538C434.151 11.6513 434.571 11.708 435.035 11.708C435.557 11.708 436.01 11.64 436.395 11.504C436.792 11.3567 437.121 11.164 437.381 10.926C437.642 10.688 437.835 10.416 437.959 10.11C438.084 9.79267 438.146 9.45833 438.146 9.107C438.146 8.30233 437.846 7.66767 437.245 7.203C436.656 6.73833 435.834 6.506 434.78 6.506C434.18 6.506 433.675 6.591 433.267 6.761C432.871 6.91967 432.497 7.17467 432.145 7.526L430.921 7.203L431.618 1.1ZM440.882 14.649C441.029 14.615 441.182 14.5527 441.341 14.462C441.511 14.3713 441.664 14.258 441.8 14.122C441.936 13.986 442.043 13.8387 442.123 13.68C442.213 13.5213 442.259 13.357 442.259 13.187C442.259 13.1077 442.253 13.0453 442.242 13C442.185 13.0113 442.117 13.017 442.038 13.017C441.788 13.017 441.573 12.9377 441.392 12.779C441.222 12.6203 441.137 12.3937 441.137 12.099C441.137 11.8043 441.227 11.572 441.409 11.402C441.59 11.2207 441.845 11.13 442.174 11.13C442.536 11.13 442.831 11.2547 443.058 11.504C443.296 11.742 443.415 12.1047 443.415 12.592C443.415 13.0567 443.352 13.4533 443.228 13.782C443.103 14.1107 442.939 14.3883 442.735 14.615C442.531 14.8417 442.298 15.0173 442.038 15.142C441.777 15.278 441.511 15.38 441.239 15.448L440.882 14.649ZM450.04 6.217C450.426 6.217 450.783 6.17167 451.111 6.081C451.451 5.979 451.746 5.843 451.995 5.673C452.245 5.503 452.437 5.299 452.573 5.061C452.721 4.823 452.794 4.56233 452.794 4.279C452.794 3.667 452.539 3.20233 452.029 2.885C451.531 2.55633 450.766 2.392 449.734 2.392C448.737 2.392 447.983 2.55633 447.473 2.885C446.975 3.21367 446.725 3.67833 446.725 4.279C446.725 4.551 446.793 4.806 446.929 5.044C447.065 5.282 447.252 5.49167 447.49 5.673C447.74 5.843 448.034 5.979 448.374 6.081C448.726 6.17167 449.105 6.217 449.513 6.217H450.04ZM449.581 7.56C449.105 7.56 448.663 7.61667 448.255 7.73C447.859 7.832 447.519 7.97933 447.235 8.172C446.952 8.35333 446.731 8.57433 446.572 8.835C446.414 9.08433 446.334 9.35067 446.334 9.634C446.334 10.246 446.618 10.7447 447.184 11.13C447.762 11.5153 448.618 11.708 449.751 11.708C450.919 11.708 451.78 11.5267 452.335 11.164C452.891 10.79 453.168 10.2857 453.168 9.651C453.168 8.98233 452.879 8.46667 452.301 8.104C451.735 7.74133 450.97 7.56 450.006 7.56H449.581ZM449.768 13.153C449.009 13.153 448.323 13.0793 447.711 12.932C447.111 12.7733 446.595 12.5523 446.164 12.269C445.745 11.9743 445.416 11.623 445.178 11.215C444.952 10.7957 444.838 10.3197 444.838 9.787C444.838 9.08433 445.048 8.478 445.467 7.968C445.898 7.44667 446.47 7.07267 447.184 6.846C446.844 6.73267 446.55 6.58533 446.3 6.404C446.051 6.21133 445.847 5.996 445.688 5.758C445.53 5.52 445.411 5.27067 445.331 5.01C445.263 4.738 445.229 4.46033 445.229 4.177C445.229 3.191 445.615 2.409 446.385 1.831C447.167 1.24167 448.289 0.946999 449.751 0.946999C451.225 0.946999 452.347 1.24167 453.117 1.831C453.899 2.409 454.29 3.191 454.29 4.177C454.29 4.789 454.12 5.30467 453.78 5.724C453.452 6.14333 452.993 6.489 452.403 6.761C453.219 7.01033 453.797 7.38433 454.137 7.883C454.489 8.38167 454.664 8.99367 454.664 9.719C454.664 10.263 454.551 10.7503 454.324 11.181C454.098 11.6003 453.769 11.9573 453.338 12.252C452.919 12.5467 452.403 12.7733 451.791 12.932C451.191 13.0793 450.516 13.153 449.768 13.153ZM457.367 1.1H464.847V2.545H458.676L458.234 5.741C458.495 5.54833 458.846 5.38967 459.288 5.265C459.742 5.129 460.291 5.061 460.937 5.061C461.651 5.061 462.286 5.163 462.841 5.367C463.397 5.571 463.861 5.85433 464.235 6.217C464.609 6.57967 464.893 7.00467 465.085 7.492C465.289 7.97933 465.391 8.50067 465.391 9.056C465.391 9.65667 465.272 10.2063 465.034 10.705C464.808 11.2037 464.485 11.6343 464.065 11.997C463.657 12.3597 463.17 12.643 462.603 12.847C462.048 13.051 461.442 13.153 460.784 13.153C460.24 13.153 459.719 13.0907 459.22 12.966C458.722 12.8413 458.257 12.6543 457.826 12.405C457.407 12.1557 457.033 11.8553 456.704 11.504C456.387 11.1413 456.132 10.722 455.939 10.246L457.299 9.668C457.413 9.92867 457.571 10.1837 457.775 10.433C457.979 10.671 458.229 10.8863 458.523 11.079C458.818 11.2717 459.152 11.4247 459.526 11.538C459.9 11.6513 460.32 11.708 460.784 11.708C461.306 11.708 461.759 11.64 462.144 11.504C462.541 11.3567 462.87 11.164 463.13 10.926C463.391 10.688 463.584 10.416 463.708 10.11C463.833 9.79267 463.895 9.45833 463.895 9.107C463.895 8.30233 463.595 7.66767 462.994 7.203C462.405 6.73833 461.583 6.506 460.529 6.506C459.929 6.506 459.424 6.591 459.016 6.761C458.62 6.91967 458.246 7.17467 457.894 7.526L456.67 7.203L457.367 1.1ZM468.059 1.1H475.539V2.545H469.368L468.926 5.741C469.186 5.54833 469.538 5.38967 469.98 5.265C470.433 5.129 470.983 5.061 471.629 5.061C472.343 5.061 472.977 5.163 473.533 5.367C474.088 5.571 474.553 5.85433 474.927 6.217C475.301 6.57967 475.584 7.00467 475.777 7.492C475.981 7.97933 476.083 8.50067 476.083 9.056C476.083 9.65667 475.964 10.2063 475.726 10.705C475.499 11.2037 475.176 11.6343 474.757 11.997C474.349 12.3597 473.861 12.643 473.295 12.847C472.739 13.051 472.133 13.153 471.476 13.153C470.932 13.153 470.41 13.0907 469.912 12.966C469.413 12.8413 468.948 12.6543 468.518 12.405C468.098 12.1557 467.724 11.8553 467.396 11.504C467.078 11.1413 466.823 10.722 466.631 10.246L467.991 9.668C468.104 9.92867 468.263 10.1837 468.467 10.433C468.671 10.671 468.92 10.8863 469.215 11.079C469.509 11.2717 469.844 11.4247 470.218 11.538C470.592 11.6513 471.011 11.708 471.476 11.708C471.997 11.708 472.45 11.64 472.836 11.504C473.232 11.3567 473.561 11.164 473.822 10.926C474.082 10.688 474.275 10.416 474.4 10.11C474.524 9.79267 474.587 9.45833 474.587 9.107C474.587 8.30233 474.286 7.66767 473.686 7.203C473.096 6.73833 472.275 6.506 471.221 6.506C470.62 6.506 470.116 6.591 469.708 6.761C469.311 6.91967 468.937 7.17467 468.586 7.526L467.362 7.203L468.059 1.1Z" fill="#222429"/>
<path d="M162.435 205.07C162.519 204.669 162.659 204.286 162.855 203.922C163.051 203.558 163.303 203.241 163.611 202.97C163.919 202.69 164.288 202.471 164.717 202.312C165.147 202.153 165.637 202.074 166.187 202.074C166.701 202.074 167.158 202.149 167.559 202.298C167.961 202.438 168.301 202.639 168.581 202.9C168.861 203.161 169.071 203.474 169.211 203.838C169.361 204.202 169.435 204.599 169.435 205.028C169.435 205.635 169.305 206.195 169.043 206.708C168.791 207.212 168.469 207.674 168.077 208.094C167.685 208.514 167.256 208.897 166.789 209.242C166.323 209.578 165.879 209.877 165.459 210.138L164.381 210.81H169.799V212H162.169V211.02L164.297 209.606C164.997 209.139 165.595 208.71 166.089 208.318C166.584 207.917 166.985 207.539 167.293 207.184C167.611 206.829 167.839 206.489 167.979 206.162C168.129 205.826 168.203 205.49 168.203 205.154C168.203 204.809 168.147 204.515 168.035 204.272C167.933 204.029 167.783 203.833 167.587 203.684C167.401 203.535 167.177 203.427 166.915 203.362C166.663 203.297 166.393 203.264 166.103 203.264C165.683 203.264 165.319 203.329 165.011 203.46C164.713 203.591 164.456 203.763 164.241 203.978C164.036 204.183 163.873 204.417 163.751 204.678C163.639 204.93 163.565 205.182 163.527 205.434L162.435 205.07ZM170.77 207.1C170.77 206.372 170.854 205.705 171.022 205.098C171.19 204.482 171.442 203.95 171.778 203.502C172.123 203.054 172.557 202.704 173.08 202.452C173.602 202.2 174.218 202.074 174.928 202.074C175.637 202.074 176.253 202.191 176.776 202.424C177.298 202.657 177.732 202.993 178.078 203.432C178.423 203.871 178.68 204.403 178.848 205.028C179.016 205.644 179.1 206.335 179.1 207.1C179.1 207.828 179.016 208.5 178.848 209.116C178.689 209.723 178.437 210.25 178.092 210.698C177.756 211.146 177.326 211.496 176.804 211.748C176.281 212 175.665 212.126 174.956 212.126C174.284 212.126 173.686 212 173.164 211.748C172.641 211.496 172.202 211.146 171.848 210.698C171.493 210.25 171.222 209.723 171.036 209.116C170.858 208.5 170.77 207.828 170.77 207.1ZM172.002 207.1C172.002 208.295 172.263 209.233 172.786 209.914C173.308 210.595 174.032 210.936 174.956 210.936C175.964 210.936 176.701 210.595 177.168 209.914C177.634 209.233 177.868 208.295 177.868 207.1C177.868 205.905 177.63 204.967 177.154 204.286C176.678 203.605 175.936 203.264 174.928 203.264C174.424 203.264 173.99 203.353 173.626 203.53C173.262 203.707 172.958 203.964 172.716 204.3C172.473 204.636 172.291 205.042 172.17 205.518C172.058 205.985 172.002 206.512 172.002 207.1ZM182.945 202.144H183.743V212H182.567V203.642L180.033 204.804L179.585 203.754L182.945 202.144ZM189.295 212.126C188.445 212.126 187.717 211.963 187.111 211.636C186.513 211.309 186.065 210.894 185.767 210.39L186.775 209.69C187.064 210.091 187.442 210.399 187.909 210.614C188.385 210.829 188.903 210.936 189.463 210.936C189.892 210.936 190.284 210.852 190.639 210.684C191.003 210.507 191.315 210.264 191.577 209.956C191.847 209.648 192.057 209.284 192.207 208.864C192.356 208.444 192.431 207.987 192.431 207.492C192.431 207.436 192.431 207.38 192.431 207.324C192.431 207.268 192.426 207.212 192.417 207.156C192.193 207.688 191.81 208.131 191.269 208.486C190.737 208.831 190.06 209.004 189.239 209.004C188.697 209.004 188.198 208.925 187.741 208.766C187.283 208.598 186.887 208.369 186.551 208.08C186.215 207.781 185.953 207.427 185.767 207.016C185.58 206.605 185.487 206.148 185.487 205.644C185.487 205.103 185.585 204.613 185.781 204.174C185.986 203.726 186.271 203.348 186.635 203.04C186.999 202.732 187.433 202.494 187.937 202.326C188.45 202.158 189.015 202.074 189.631 202.074C190.256 202.074 190.816 202.181 191.311 202.396C191.815 202.601 192.239 202.909 192.585 203.32C192.939 203.731 193.21 204.239 193.397 204.846C193.583 205.443 193.677 206.134 193.677 206.918C193.677 207.777 193.569 208.533 193.355 209.186C193.149 209.83 192.851 210.371 192.459 210.81C192.076 211.239 191.614 211.566 191.073 211.79C190.541 212.014 189.948 212.126 189.295 212.126ZM189.463 207.814C189.864 207.814 190.228 207.758 190.555 207.646C190.881 207.534 191.157 207.38 191.381 207.184C191.614 206.979 191.791 206.741 191.913 206.47C192.034 206.199 192.095 205.91 192.095 205.602C192.095 205.303 192.048 205.014 191.955 204.734C191.861 204.454 191.712 204.207 191.507 203.992C191.301 203.768 191.031 203.591 190.695 203.46C190.368 203.329 189.967 203.264 189.491 203.264C188.623 203.264 187.941 203.46 187.447 203.852C186.961 204.235 186.719 204.799 186.719 205.546C186.719 206.255 186.966 206.811 187.461 207.212C187.955 207.613 188.623 207.814 189.463 207.814Z" fill="#777F8C"/>
<rect x="153" y="186" width="50" height="6" fill="#BFCED4"/>
<rect x="153" y="186" width="50" height="4" fill="#A6B2BC"/>
<path d="M158.416 165.032H159.385V177H157.957V166.851L154.88 168.262L154.336 166.987L158.416 165.032ZM161.502 178.649C161.649 178.615 161.802 178.553 161.961 178.462C162.131 178.371 162.284 178.258 162.42 178.122C162.556 177.986 162.663 177.839 162.743 177.68C162.833 177.521 162.879 177.357 162.879 177.187C162.879 177.108 162.873 177.045 162.862 177C162.805 177.011 162.737 177.017 162.658 177.017C162.408 177.017 162.193 176.938 162.012 176.779C161.842 176.62 161.757 176.394 161.757 176.099C161.757 175.804 161.847 175.572 162.029 175.402C162.21 175.221 162.465 175.13 162.794 175.13C163.156 175.13 163.451 175.255 163.678 175.504C163.916 175.742 164.035 176.105 164.035 176.592C164.035 177.057 163.972 177.453 163.848 177.782C163.723 178.111 163.559 178.388 163.355 178.615C163.151 178.842 162.918 179.017 162.658 179.142C162.397 179.278 162.131 179.38 161.859 179.448L161.502 178.649ZM165.339 167.99C165.498 167.548 165.713 167.146 165.985 166.783C166.257 166.409 166.586 166.086 166.971 165.814C167.368 165.542 167.821 165.332 168.331 165.185C168.853 165.026 169.436 164.947 170.082 164.947C170.66 164.947 171.193 165.021 171.68 165.168C172.179 165.304 172.604 165.502 172.955 165.763C173.318 166.012 173.596 166.324 173.788 166.698C173.992 167.072 174.094 167.486 174.094 167.939C174.094 168.63 173.913 169.22 173.55 169.707C173.199 170.194 172.683 170.534 172.003 170.727C172.298 170.75 172.587 170.823 172.87 170.948C173.154 171.061 173.403 171.237 173.618 171.475C173.845 171.702 174.026 171.991 174.162 172.342C174.298 172.682 174.366 173.09 174.366 173.566C174.366 174.144 174.253 174.66 174.026 175.113C173.811 175.555 173.505 175.929 173.108 176.235C172.723 176.53 172.264 176.756 171.731 176.915C171.199 177.074 170.626 177.153 170.014 177.153C169.346 177.153 168.734 177.074 168.178 176.915C167.634 176.756 167.153 176.541 166.733 176.269C166.314 175.986 165.957 175.651 165.662 175.266C165.379 174.869 165.164 174.433 165.016 173.957L166.393 173.362C166.541 173.668 166.716 173.963 166.92 174.246C167.124 174.529 167.374 174.779 167.668 174.994C167.963 175.209 168.309 175.385 168.705 175.521C169.102 175.646 169.572 175.708 170.116 175.708C170.966 175.708 171.635 175.527 172.122 175.164C172.621 174.79 172.87 174.263 172.87 173.583C172.87 173.209 172.791 172.897 172.632 172.648C172.474 172.387 172.253 172.183 171.969 172.036C171.686 171.877 171.352 171.77 170.966 171.713C170.592 171.645 170.184 171.611 169.742 171.611H168.416V170.2H169.47C170.456 170.2 171.221 170.013 171.765 169.639C172.321 169.265 172.598 168.795 172.598 168.228C172.598 167.616 172.366 167.157 171.901 166.851C171.437 166.545 170.808 166.392 170.014 166.392C169.527 166.392 169.096 166.454 168.722 166.579C168.348 166.704 168.02 166.868 167.736 167.072C167.464 167.276 167.232 167.508 167.039 167.769C166.858 168.03 166.716 168.296 166.614 168.568L165.339 167.99ZM181.153 170.217C181.538 170.217 181.895 170.172 182.224 170.081C182.564 169.979 182.858 169.843 183.108 169.673C183.357 169.503 183.55 169.299 183.686 169.061C183.833 168.823 183.907 168.562 183.907 168.279C183.907 167.667 183.652 167.202 183.142 166.885C182.643 166.556 181.878 166.392 180.847 166.392C179.849 166.392 179.096 166.556 178.586 166.885C178.087 167.214 177.838 167.678 177.838 168.279C177.838 168.551 177.906 168.806 178.042 169.044C178.178 169.282 178.365 169.492 178.603 169.673C178.852 169.843 179.147 169.979 179.487 170.081C179.838 170.172 180.218 170.217 180.626 170.217H181.153ZM180.694 171.56C180.218 171.56 179.776 171.617 179.368 171.73C178.971 171.832 178.631 171.979 178.348 172.172C178.064 172.353 177.843 172.574 177.685 172.835C177.526 173.084 177.447 173.351 177.447 173.634C177.447 174.246 177.73 174.745 178.297 175.13C178.875 175.515 179.73 175.708 180.864 175.708C182.031 175.708 182.892 175.527 183.448 175.164C184.003 174.79 184.281 174.286 184.281 173.651C184.281 172.982 183.992 172.467 183.414 172.104C182.847 171.741 182.082 171.56 181.119 171.56H180.694ZM180.881 177.153C180.121 177.153 179.436 177.079 178.824 176.932C178.223 176.773 177.707 176.552 177.277 176.269C176.857 175.974 176.529 175.623 176.291 175.215C176.064 174.796 175.951 174.32 175.951 173.787C175.951 173.084 176.16 172.478 176.58 171.968C177.01 171.447 177.583 171.073 178.297 170.846C177.957 170.733 177.662 170.585 177.413 170.404C177.163 170.211 176.959 169.996 176.801 169.758C176.642 169.52 176.523 169.271 176.444 169.01C176.376 168.738 176.342 168.46 176.342 168.177C176.342 167.191 176.727 166.409 177.498 165.831C178.28 165.242 179.402 164.947 180.864 164.947C182.337 164.947 183.459 165.242 184.23 165.831C185.012 166.409 185.403 167.191 185.403 168.177C185.403 168.789 185.233 169.305 184.893 169.724C184.564 170.143 184.105 170.489 183.516 170.761C184.332 171.01 184.91 171.384 185.25 171.883C185.601 172.382 185.777 172.994 185.777 173.719C185.777 174.263 185.663 174.75 185.437 175.181C185.21 175.6 184.881 175.957 184.451 176.252C184.031 176.547 183.516 176.773 182.904 176.932C182.303 177.079 181.629 177.153 180.881 177.153ZM187.392 168.585C187.494 168.098 187.664 167.633 187.902 167.191C188.14 166.749 188.446 166.364 188.82 166.035C189.194 165.695 189.641 165.429 190.163 165.236C190.684 165.043 191.279 164.947 191.948 164.947C192.571 164.947 193.126 165.038 193.614 165.219C194.101 165.389 194.515 165.633 194.855 165.95C195.195 166.267 195.45 166.647 195.62 167.089C195.801 167.531 195.892 168.013 195.892 168.534C195.892 169.271 195.733 169.951 195.416 170.574C195.11 171.186 194.719 171.747 194.243 172.257C193.767 172.767 193.245 173.232 192.679 173.651C192.112 174.059 191.574 174.422 191.064 174.739L189.755 175.555H196.334V177H187.069V175.81L189.653 174.093C190.503 173.526 191.228 173.005 191.829 172.529C192.429 172.042 192.917 171.583 193.291 171.152C193.676 170.721 193.954 170.308 194.124 169.911C194.305 169.503 194.396 169.095 194.396 168.687C194.396 168.268 194.328 167.911 194.192 167.616C194.067 167.321 193.886 167.083 193.648 166.902C193.421 166.721 193.149 166.59 192.832 166.511C192.526 166.432 192.197 166.392 191.846 166.392C191.336 166.392 190.894 166.471 190.52 166.63C190.157 166.789 189.845 166.998 189.585 167.259C189.335 167.508 189.137 167.792 188.99 168.109C188.854 168.415 188.763 168.721 188.718 169.027L187.392 168.585Z" fill="#222429"/>
<path d="M72.4354 204.07C72.5194 203.669 72.6594 203.286 72.8554 202.922C73.0514 202.558 73.3034 202.241 73.6114 201.97C73.9194 201.69 74.2881 201.471 74.7174 201.312C75.1467 201.153 75.6367 201.074 76.1874 201.074C76.7007 201.074 77.1581 201.149 77.5594 201.298C77.9607 201.438 78.3014 201.639 78.5814 201.9C78.8614 202.161 79.0714 202.474 79.2114 202.838C79.3607 203.202 79.4354 203.599 79.4354 204.028C79.4354 204.635 79.3047 205.195 79.0434 205.708C78.7914 206.212 78.4694 206.674 78.0774 207.094C77.6854 207.514 77.2561 207.897 76.7894 208.242C76.3227 208.578 75.8794 208.877 75.4594 209.138L74.3814 209.81H79.7994V211H72.1694V210.02L74.2974 208.606C74.9974 208.139 75.5947 207.71 76.0894 207.318C76.5841 206.917 76.9854 206.539 77.2934 206.184C77.6107 205.829 77.8394 205.489 77.9794 205.162C78.1287 204.826 78.2034 204.49 78.2034 204.154C78.2034 203.809 78.1474 203.515 78.0354 203.272C77.9327 203.029 77.7834 202.833 77.5874 202.684C77.4007 202.535 77.1767 202.427 76.9154 202.362C76.6634 202.297 76.3927 202.264 76.1034 202.264C75.6834 202.264 75.3194 202.329 75.0114 202.46C74.7127 202.591 74.4561 202.763 74.2414 202.978C74.0361 203.183 73.8727 203.417 73.7514 203.678C73.6394 203.93 73.5647 204.182 73.5274 204.434L72.4354 204.07ZM80.7697 206.1C80.7697 205.372 80.8537 204.705 81.0217 204.098C81.1897 203.482 81.4417 202.95 81.7777 202.502C82.123 202.054 82.557 201.704 83.0797 201.452C83.6023 201.2 84.2183 201.074 84.9277 201.074C85.637 201.074 86.253 201.191 86.7757 201.424C87.2983 201.657 87.7323 201.993 88.0777 202.432C88.423 202.871 88.6797 203.403 88.8477 204.028C89.0157 204.644 89.0997 205.335 89.0997 206.1C89.0997 206.828 89.0157 207.5 88.8477 208.116C88.689 208.723 88.437 209.25 88.0917 209.698C87.7557 210.146 87.3263 210.496 86.8037 210.748C86.281 211 85.665 211.126 84.9557 211.126C84.2837 211.126 83.6863 211 83.1637 210.748C82.641 210.496 82.2023 210.146 81.8477 209.698C81.493 209.25 81.2223 208.723 81.0357 208.116C80.8583 207.5 80.7697 206.828 80.7697 206.1ZM82.0017 206.1C82.0017 207.295 82.263 208.233 82.7857 208.914C83.3083 209.595 84.0317 209.936 84.9557 209.936C85.9637 209.936 86.701 209.595 87.1677 208.914C87.6343 208.233 87.8677 207.295 87.8677 206.1C87.8677 204.905 87.6297 203.967 87.1537 203.286C86.6777 202.605 85.9357 202.264 84.9277 202.264C84.4237 202.264 83.9897 202.353 83.6257 202.53C83.2617 202.707 82.9583 202.964 82.7157 203.3C82.473 203.636 82.291 204.042 82.1697 204.518C82.0577 204.985 82.0017 205.512 82.0017 206.1ZM92.9453 201.144H93.7433V211H92.5673V202.642L90.0333 203.804L89.5853 202.754L92.9453 201.144ZM99.8267 205.414C100.144 205.414 100.438 205.377 100.709 205.302C100.989 205.218 101.231 205.106 101.437 204.966C101.642 204.826 101.801 204.658 101.913 204.462C102.034 204.266 102.095 204.051 102.095 203.818C102.095 203.314 101.885 202.931 101.465 202.67C101.054 202.399 100.424 202.264 99.5747 202.264C98.7534 202.264 98.1327 202.399 97.7127 202.67C97.3021 202.941 97.0967 203.323 97.0967 203.818C97.0967 204.042 97.1527 204.252 97.2647 204.448C97.3767 204.644 97.5307 204.817 97.7267 204.966C97.9321 205.106 98.1747 205.218 98.4547 205.302C98.7441 205.377 99.0567 205.414 99.3927 205.414H99.8267ZM99.4487 206.52C99.0567 206.52 98.6927 206.567 98.3567 206.66C98.0301 206.744 97.7501 206.865 97.5167 207.024C97.2834 207.173 97.1014 207.355 96.9707 207.57C96.8401 207.775 96.7747 207.995 96.7747 208.228C96.7747 208.732 97.0081 209.143 97.4747 209.46C97.9507 209.777 98.6554 209.936 99.5887 209.936C100.55 209.936 101.259 209.787 101.717 209.488C102.174 209.18 102.403 208.765 102.403 208.242C102.403 207.691 102.165 207.267 101.689 206.968C101.222 206.669 100.592 206.52 99.7987 206.52H99.4487ZM99.6027 211.126C98.9774 211.126 98.4127 211.065 97.9087 210.944C97.4141 210.813 96.9894 210.631 96.6347 210.398C96.2894 210.155 96.0187 209.866 95.8227 209.53C95.6361 209.185 95.5427 208.793 95.5427 208.354C95.5427 207.775 95.7154 207.276 96.0607 206.856C96.4154 206.427 96.8867 206.119 97.4747 205.932C97.1947 205.839 96.9521 205.717 96.7467 205.568C96.5414 205.409 96.3734 205.232 96.2427 205.036C96.1121 204.84 96.0141 204.635 95.9487 204.42C95.8927 204.196 95.8647 203.967 95.8647 203.734C95.8647 202.922 96.1821 202.278 96.8167 201.802C97.4607 201.317 98.3847 201.074 99.5887 201.074C100.802 201.074 101.726 201.317 102.361 201.802C103.005 202.278 103.327 202.922 103.327 203.734C103.327 204.238 103.187 204.663 102.907 205.008C102.636 205.353 102.258 205.638 101.773 205.862C102.445 206.067 102.921 206.375 103.201 206.786C103.49 207.197 103.635 207.701 103.635 208.298C103.635 208.746 103.541 209.147 103.355 209.502C103.168 209.847 102.897 210.141 102.543 210.384C102.197 210.627 101.773 210.813 101.269 210.944C100.774 211.065 100.219 211.126 99.6027 211.126Z" fill="#777F8C"/>
<rect x="63" y="189" width="50" height="2" fill="#BFCED4"/>
<rect x="63" y="189" width="50" height="4" fill="#A6B2BC"/>
<path d="M78.3563 177.62H71.0293V176.532L78.5263 168.1H79.7843V176.175H81.9943V177.62H79.7843V180H78.3563V177.62ZM78.3563 176.175V170.48L73.0693 176.175H78.3563ZM82.9952 174.05C82.9952 173.166 83.0972 172.356 83.3012 171.619C83.5052 170.871 83.8112 170.225 84.2192 169.681C84.6385 169.137 85.1655 168.712 85.8002 168.406C86.4348 168.1 87.1828 167.947 88.0442 167.947C88.9055 167.947 89.6535 168.089 90.2882 168.372C90.9228 168.655 91.4498 169.063 91.8692 169.596C92.2885 170.129 92.6002 170.775 92.8042 171.534C93.0082 172.282 93.1102 173.121 93.1102 174.05C93.1102 174.934 93.0082 175.75 92.8042 176.498C92.6115 177.235 92.3055 177.875 91.8862 178.419C91.4782 178.963 90.9568 179.388 90.3222 179.694C89.6875 180 88.9395 180.153 88.0782 180.153C87.2622 180.153 86.5368 180 85.9022 179.694C85.2675 179.388 84.7348 178.963 84.3042 178.419C83.8735 177.875 83.5448 177.235 83.3182 176.498C83.1028 175.75 82.9952 174.934 82.9952 174.05ZM84.4912 174.05C84.4912 175.501 84.8085 176.64 85.4432 177.467C86.0778 178.294 86.9562 178.708 88.0782 178.708C89.3022 178.708 90.1975 178.294 90.7642 177.467C91.3308 176.64 91.6142 175.501 91.6142 174.05C91.6142 172.599 91.3252 171.46 90.7472 170.633C90.1692 169.806 89.2682 169.392 88.0442 169.392C87.4322 169.392 86.9052 169.5 86.4632 169.715C86.0212 169.93 85.6528 170.242 85.3582 170.65C85.0635 171.058 84.8425 171.551 84.6952 172.129C84.5592 172.696 84.4912 173.336 84.4912 174.05ZM99.1228 180.153C98.0915 180.153 97.2075 179.955 96.4708 179.558C95.7455 179.161 95.2015 178.657 94.8388 178.045L96.0628 177.195C96.4142 177.682 96.8732 178.056 97.4398 178.317C98.0178 178.578 98.6468 178.708 99.3268 178.708C99.8482 178.708 100.324 178.606 100.755 178.402C101.197 178.187 101.577 177.892 101.894 177.518C102.223 177.144 102.478 176.702 102.659 176.192C102.84 175.682 102.931 175.127 102.931 174.526C102.931 174.458 102.931 174.39 102.931 174.322C102.931 174.254 102.925 174.186 102.914 174.118C102.642 174.764 102.177 175.302 101.52 175.733C100.874 176.152 100.052 176.362 99.0548 176.362C98.3975 176.362 97.7912 176.266 97.2358 176.073C96.6805 175.869 96.1988 175.591 95.7908 175.24C95.3828 174.877 95.0655 174.447 94.8388 173.948C94.6122 173.449 94.4988 172.894 94.4988 172.282C94.4988 171.625 94.6178 171.03 94.8558 170.497C95.1052 169.953 95.4508 169.494 95.8928 169.12C96.3348 168.746 96.8618 168.457 97.4738 168.253C98.0972 168.049 98.7828 167.947 99.5308 167.947C100.29 167.947 100.97 168.077 101.571 168.338C102.183 168.587 102.699 168.961 103.118 169.46C103.549 169.959 103.877 170.576 104.104 171.313C104.331 172.038 104.444 172.877 104.444 173.829C104.444 174.872 104.314 175.79 104.053 176.583C103.804 177.365 103.441 178.022 102.965 178.555C102.5 179.076 101.939 179.473 101.282 179.745C100.636 180.017 99.9162 180.153 99.1228 180.153ZM99.3268 174.917C99.8142 174.917 100.256 174.849 100.653 174.713C101.05 174.577 101.384 174.39 101.656 174.152C101.939 173.903 102.155 173.614 102.302 173.285C102.449 172.956 102.523 172.605 102.523 172.231C102.523 171.868 102.466 171.517 102.353 171.177C102.24 170.837 102.058 170.537 101.809 170.276C101.56 170.004 101.231 169.789 100.823 169.63C100.426 169.471 99.9388 169.392 99.3608 169.392C98.3068 169.392 97.4795 169.63 96.8788 170.106C96.2895 170.571 95.9948 171.256 95.9948 172.163C95.9948 173.024 96.2952 173.699 96.8958 174.186C97.4965 174.673 98.3068 174.917 99.3268 174.917Z" fill="#222429"/>
<path d="M250.822 205.07C250.906 204.669 251.046 204.286 251.242 203.922C251.438 203.558 251.69 203.241 251.998 202.97C252.306 202.69 252.675 202.471 253.104 202.312C253.533 202.153 254.023 202.074 254.574 202.074C255.087 202.074 255.545 202.149 255.946 202.298C256.347 202.438 256.688 202.639 256.968 202.9C257.248 203.161 257.458 203.474 257.598 203.838C257.747 204.202 257.822 204.599 257.822 205.028C257.822 205.635 257.691 206.195 257.43 206.708C257.178 207.212 256.856 207.674 256.464 208.094C256.072 208.514 255.643 208.897 255.176 209.242C254.709 209.578 254.266 209.877 253.846 210.138L252.768 210.81H258.186V212H250.556V211.02L252.684 209.606C253.384 209.139 253.981 208.71 254.476 208.318C254.971 207.917 255.372 207.539 255.68 207.184C255.997 206.829 256.226 206.489 256.366 206.162C256.515 205.826 256.59 205.49 256.59 205.154C256.59 204.809 256.534 204.515 256.422 204.272C256.319 204.029 256.17 203.833 255.974 203.684C255.787 203.535 255.563 203.427 255.302 203.362C255.05 203.297 254.779 203.264 254.49 203.264C254.07 203.264 253.706 203.329 253.398 203.46C253.099 203.591 252.843 203.763 252.628 203.978C252.423 204.183 252.259 204.417 252.138 204.678C252.026 204.93 251.951 205.182 251.914 205.434L250.822 205.07ZM259.156 207.1C259.156 206.372 259.24 205.705 259.408 205.098C259.576 204.482 259.828 203.95 260.164 203.502C260.51 203.054 260.944 202.704 261.466 202.452C261.989 202.2 262.605 202.074 263.314 202.074C264.024 202.074 264.64 202.191 265.162 202.424C265.685 202.657 266.119 202.993 266.464 203.432C266.81 203.871 267.066 204.403 267.234 205.028C267.402 205.644 267.486 206.335 267.486 207.1C267.486 207.828 267.402 208.5 267.234 209.116C267.076 209.723 266.824 210.25 266.478 210.698C266.142 211.146 265.713 211.496 265.19 211.748C264.668 212 264.052 212.126 263.342 212.126C262.67 212.126 262.073 212 261.55 211.748C261.028 211.496 260.589 211.146 260.234 210.698C259.88 210.25 259.609 209.723 259.422 209.116C259.245 208.5 259.156 207.828 259.156 207.1ZM260.388 207.1C260.388 208.295 260.65 209.233 261.172 209.914C261.695 210.595 262.418 210.936 263.342 210.936C264.35 210.936 265.088 210.595 265.554 209.914C266.021 209.233 266.254 208.295 266.254 207.1C266.254 205.905 266.016 204.967 265.54 204.286C265.064 203.605 264.322 203.264 263.314 203.264C262.81 203.264 262.376 203.353 262.012 203.53C261.648 203.707 261.345 203.964 261.102 204.3C260.86 204.636 260.678 205.042 260.556 205.518C260.444 205.985 260.388 206.512 260.388 207.1ZM268.63 205.07C268.714 204.669 268.854 204.286 269.05 203.922C269.246 203.558 269.498 203.241 269.806 202.97C270.114 202.69 270.483 202.471 270.912 202.312C271.341 202.153 271.831 202.074 272.382 202.074C272.895 202.074 273.353 202.149 273.754 202.298C274.155 202.438 274.496 202.639 274.776 202.9C275.056 203.161 275.266 203.474 275.406 203.838C275.555 204.202 275.63 204.599 275.63 205.028C275.63 205.635 275.499 206.195 275.238 206.708C274.986 207.212 274.664 207.674 274.272 208.094C273.88 208.514 273.451 208.897 272.984 209.242C272.517 209.578 272.074 209.877 271.654 210.138L270.576 210.81H275.994V212H268.364V211.02L270.492 209.606C271.192 209.139 271.789 208.71 272.284 208.318C272.779 207.917 273.18 207.539 273.488 207.184C273.805 206.829 274.034 206.489 274.174 206.162C274.323 205.826 274.398 205.49 274.398 205.154C274.398 204.809 274.342 204.515 274.23 204.272C274.127 204.029 273.978 203.833 273.782 203.684C273.595 203.535 273.371 203.427 273.11 203.362C272.858 203.297 272.587 203.264 272.298 203.264C271.878 203.264 271.514 203.329 271.206 203.46C270.907 203.591 270.651 203.763 270.436 203.978C270.231 204.183 270.067 204.417 269.946 204.678C269.834 204.93 269.759 205.182 269.722 205.434L268.63 205.07ZM276.964 207.1C276.964 206.372 277.048 205.705 277.216 205.098C277.384 204.482 277.636 203.95 277.972 203.502C278.318 203.054 278.752 202.704 279.274 202.452C279.797 202.2 280.413 202.074 281.122 202.074C281.832 202.074 282.448 202.191 282.97 202.424C283.493 202.657 283.927 202.993 284.272 203.432C284.618 203.871 284.874 204.403 285.042 205.028C285.21 205.644 285.294 206.335 285.294 207.1C285.294 207.828 285.21 208.5 285.042 209.116C284.884 209.723 284.632 210.25 284.286 210.698C283.95 211.146 283.521 211.496 282.998 211.748C282.476 212 281.86 212.126 281.15 212.126C280.478 212.126 279.881 212 279.358 211.748C278.836 211.496 278.397 211.146 278.042 210.698C277.688 210.25 277.417 209.723 277.23 209.116C277.053 208.5 276.964 207.828 276.964 207.1ZM278.196 207.1C278.196 208.295 278.458 209.233 278.98 209.914C279.503 210.595 280.226 210.936 281.15 210.936C282.158 210.936 282.896 210.595 283.362 209.914C283.829 209.233 284.062 208.295 284.062 207.1C284.062 205.905 283.824 204.967 283.348 204.286C282.872 203.605 282.13 203.264 281.122 203.264C280.618 203.264 280.184 203.353 279.82 203.53C279.456 203.707 279.153 203.964 278.91 204.3C278.668 204.636 278.486 205.042 278.364 205.518C278.252 205.985 278.196 206.512 278.196 207.1Z" fill="#777F8C"/>
<rect x="243" y="154" width="50" height="38" fill="#BFCED4"/>
<rect x="243" y="154" width="50" height="4" fill="#A6B2BC"/>
<path d="M245.554 133.1H254.581V134.069L248.665 145H247.05L252.762 134.545H245.554V133.1ZM254.407 146.649C254.554 146.615 254.707 146.553 254.866 146.462C255.036 146.371 255.189 146.258 255.325 146.122C255.461 145.986 255.569 145.839 255.648 145.68C255.739 145.521 255.784 145.357 255.784 145.187C255.784 145.108 255.778 145.045 255.767 145C255.71 145.011 255.642 145.017 255.563 145.017C255.314 145.017 255.098 144.938 254.917 144.779C254.747 144.62 254.662 144.394 254.662 144.099C254.662 143.804 254.753 143.572 254.934 143.402C255.115 143.221 255.37 143.13 255.699 143.13C256.062 143.13 256.356 143.255 256.583 143.504C256.821 143.742 256.94 144.105 256.94 144.592C256.94 145.057 256.878 145.453 256.753 145.782C256.628 146.111 256.464 146.388 256.26 146.615C256.056 146.842 255.824 147.017 255.563 147.142C255.302 147.278 255.036 147.38 254.764 147.448L254.407 146.649ZM262.92 145.153C261.888 145.153 261.004 144.955 260.268 144.558C259.542 144.161 258.998 143.657 258.636 143.045L259.86 142.195C260.211 142.682 260.67 143.056 261.237 143.317C261.815 143.578 262.444 143.708 263.124 143.708C263.645 143.708 264.121 143.606 264.552 143.402C264.994 143.187 265.373 142.892 265.691 142.518C266.019 142.144 266.274 141.702 266.456 141.192C266.637 140.682 266.728 140.127 266.728 139.526C266.728 139.458 266.728 139.39 266.728 139.322C266.728 139.254 266.722 139.186 266.711 139.118C266.439 139.764 265.974 140.302 265.317 140.733C264.671 141.152 263.849 141.362 262.852 141.362C262.194 141.362 261.588 141.266 261.033 141.073C260.477 140.869 259.996 140.591 259.588 140.24C259.18 139.877 258.862 139.447 258.636 138.948C258.409 138.449 258.296 137.894 258.296 137.282C258.296 136.625 258.415 136.03 258.653 135.497C258.902 134.953 259.248 134.494 259.69 134.12C260.132 133.746 260.659 133.457 261.271 133.253C261.894 133.049 262.58 132.947 263.328 132.947C264.087 132.947 264.767 133.077 265.368 133.338C265.98 133.587 266.495 133.961 266.915 134.46C267.345 134.959 267.674 135.576 267.901 136.313C268.127 137.038 268.241 137.877 268.241 138.829C268.241 139.872 268.11 140.79 267.85 141.583C267.6 142.365 267.238 143.022 266.762 143.555C266.297 144.076 265.736 144.473 265.079 144.745C264.433 145.017 263.713 145.153 262.92 145.153ZM263.124 139.917C263.611 139.917 264.053 139.849 264.45 139.713C264.846 139.577 265.181 139.39 265.453 139.152C265.736 138.903 265.951 138.614 266.099 138.285C266.246 137.956 266.32 137.605 266.32 137.231C266.32 136.868 266.263 136.517 266.15 136.177C266.036 135.837 265.855 135.537 265.606 135.276C265.356 135.004 265.028 134.789 264.62 134.63C264.223 134.471 263.736 134.392 263.158 134.392C262.104 134.392 261.276 134.63 260.676 135.106C260.086 135.571 259.792 136.256 259.792 137.163C259.792 138.024 260.092 138.699 260.693 139.186C261.293 139.673 262.104 139.917 263.124 139.917ZM276.469 142.62H269.142V141.532L276.639 133.1H277.897V141.175H280.107V142.62H277.897V145H276.469V142.62ZM276.469 141.175V135.48L271.182 141.175H276.469ZM281.226 136.585C281.328 136.098 281.498 135.633 281.736 135.191C281.974 134.749 282.28 134.364 282.654 134.035C283.028 133.695 283.476 133.429 283.997 133.236C284.519 133.043 285.114 132.947 285.782 132.947C286.406 132.947 286.961 133.038 287.448 133.219C287.936 133.389 288.349 133.633 288.689 133.95C289.029 134.267 289.284 134.647 289.454 135.089C289.636 135.531 289.726 136.013 289.726 136.534C289.726 137.271 289.568 137.951 289.25 138.574C288.944 139.186 288.553 139.747 288.077 140.257C287.601 140.767 287.08 141.232 286.513 141.651C285.947 142.059 285.408 142.422 284.898 142.739L283.589 143.555H290.168V145H280.903V143.81L283.487 142.093C284.337 141.526 285.063 141.005 285.663 140.529C286.264 140.042 286.751 139.583 287.125 139.152C287.511 138.721 287.788 138.308 287.958 137.911C288.14 137.503 288.23 137.095 288.23 136.687C288.23 136.268 288.162 135.911 288.026 135.616C287.902 135.321 287.72 135.083 287.482 134.902C287.256 134.721 286.984 134.59 286.666 134.511C286.36 134.432 286.032 134.392 285.68 134.392C285.17 134.392 284.728 134.471 284.354 134.63C283.992 134.789 283.68 134.998 283.419 135.259C283.17 135.508 282.972 135.792 282.824 136.109C282.688 136.415 282.598 136.721 282.552 137.027L281.226 136.585Z" fill="#222429"/>
<path d="M342.818 205.07C342.902 204.669 343.042 204.286 343.238 203.922C343.434 203.558 343.686 203.241 343.994 202.97C344.302 202.69 344.671 202.471 345.1 202.312C345.53 202.153 346.02 202.074 346.57 202.074C347.084 202.074 347.541 202.149 347.942 202.298C348.344 202.438 348.684 202.639 348.964 202.9C349.244 203.161 349.454 203.474 349.594 203.838C349.744 204.202 349.818 204.599 349.818 205.028C349.818 205.635 349.688 206.195 349.426 206.708C349.174 207.212 348.852 207.674 348.46 208.094C348.068 208.514 347.639 208.897 347.172 209.242C346.706 209.578 346.262 209.877 345.842 210.138L344.764 210.81H350.182V212H342.552V211.02L344.68 209.606C345.38 209.139 345.978 208.71 346.472 208.318C346.967 207.917 347.368 207.539 347.676 207.184C347.994 206.829 348.222 206.489 348.362 206.162C348.512 205.826 348.586 205.49 348.586 205.154C348.586 204.809 348.53 204.515 348.418 204.272C348.316 204.029 348.166 203.833 347.97 203.684C347.784 203.535 347.56 203.427 347.298 203.362C347.046 203.297 346.776 203.264 346.486 203.264C346.066 203.264 345.702 203.329 345.394 203.46C345.096 203.591 344.839 203.763 344.624 203.978C344.419 204.183 344.256 204.417 344.134 204.678C344.022 204.93 343.948 205.182 343.91 205.434L342.818 205.07ZM351.152 207.1C351.152 206.372 351.236 205.705 351.404 205.098C351.572 204.482 351.824 203.95 352.16 203.502C352.506 203.054 352.94 202.704 353.462 202.452C353.985 202.2 354.601 202.074 355.31 202.074C356.02 202.074 356.636 202.191 357.158 202.424C357.681 202.657 358.115 202.993 358.46 203.432C358.806 203.871 359.062 204.403 359.23 205.028C359.398 205.644 359.482 206.335 359.482 207.1C359.482 207.828 359.398 208.5 359.23 209.116C359.072 209.723 358.82 210.25 358.474 210.698C358.138 211.146 357.709 211.496 357.186 211.748C356.664 212 356.048 212.126 355.338 212.126C354.666 212.126 354.069 212 353.546 211.748C353.024 211.496 352.585 211.146 352.23 210.698C351.876 210.25 351.605 209.723 351.418 209.116C351.241 208.5 351.152 207.828 351.152 207.1ZM352.384 207.1C352.384 208.295 352.646 209.233 353.168 209.914C353.691 210.595 354.414 210.936 355.338 210.936C356.346 210.936 357.084 210.595 357.55 209.914C358.017 209.233 358.25 208.295 358.25 207.1C358.25 205.905 358.012 204.967 357.536 204.286C357.06 203.605 356.318 203.264 355.31 203.264C354.806 203.264 354.372 203.353 354.008 203.53C353.644 203.707 353.341 203.964 353.098 204.3C352.856 204.636 352.674 205.042 352.552 205.518C352.44 205.985 352.384 206.512 352.384 207.1ZM360.626 205.07C360.71 204.669 360.85 204.286 361.046 203.922C361.242 203.558 361.494 203.241 361.802 202.97C362.11 202.69 362.479 202.471 362.908 202.312C363.337 202.153 363.827 202.074 364.378 202.074C364.891 202.074 365.349 202.149 365.75 202.298C366.151 202.438 366.492 202.639 366.772 202.9C367.052 203.161 367.262 203.474 367.402 203.838C367.551 204.202 367.626 204.599 367.626 205.028C367.626 205.635 367.495 206.195 367.234 206.708C366.982 207.212 366.66 207.674 366.268 208.094C365.876 208.514 365.447 208.897 364.98 209.242C364.513 209.578 364.07 209.877 363.65 210.138L362.572 210.81H367.99V212H360.36V211.02L362.488 209.606C363.188 209.139 363.785 208.71 364.28 208.318C364.775 207.917 365.176 207.539 365.484 207.184C365.801 206.829 366.03 206.489 366.17 206.162C366.319 205.826 366.394 205.49 366.394 205.154C366.394 204.809 366.338 204.515 366.226 204.272C366.123 204.029 365.974 203.833 365.778 203.684C365.591 203.535 365.367 203.427 365.106 203.362C364.854 203.297 364.583 203.264 364.294 203.264C363.874 203.264 363.51 203.329 363.202 203.46C362.903 203.591 362.647 203.763 362.432 203.978C362.227 204.183 362.063 204.417 361.942 204.678C361.83 204.93 361.755 205.182 361.718 205.434L360.626 205.07ZM371.76 202.144H372.558V212H371.382V203.642L368.848 204.804L368.4 203.754L371.76 202.144Z" fill="#777F8C"/>
<rect x="333" y="75" width="50" height="117" fill="#BFCED4"/>
<rect x="333" y="75" width="50" height="4" fill="#A6B2BC"/>
<path d="M329.93 57.585C330.032 57.0977 330.202 56.633 330.44 56.191C330.678 55.749 330.984 55.3637 331.358 55.035C331.732 54.695 332.18 54.4287 332.701 54.236C333.222 54.0433 333.817 53.947 334.486 53.947C335.109 53.947 335.665 54.0377 336.152 54.219C336.639 54.389 337.053 54.6327 337.393 54.95C337.733 55.2673 337.988 55.647 338.158 56.089C338.339 56.531 338.43 57.0127 338.43 57.534C338.43 58.2707 338.271 58.9507 337.954 59.574C337.648 60.186 337.257 60.747 336.781 61.257C336.305 61.767 335.784 62.2317 335.217 62.651C334.65 63.059 334.112 63.4217 333.602 63.739L332.293 64.555H338.872V66H329.607V64.81L332.191 63.093C333.041 62.5263 333.766 62.005 334.367 61.529C334.968 61.0417 335.455 60.5827 335.829 60.152C336.214 59.7213 336.492 59.3077 336.662 58.911C336.843 58.503 336.934 58.095 336.934 57.687C336.934 57.2677 336.866 56.9107 336.73 56.616C336.605 56.3213 336.424 56.0833 336.186 55.902C335.959 55.7207 335.687 55.5903 335.37 55.511C335.064 55.4317 334.735 55.392 334.384 55.392C333.874 55.392 333.432 55.4713 333.058 55.63C332.695 55.7887 332.384 55.9983 332.123 56.259C331.874 56.5083 331.675 56.7917 331.528 57.109C331.392 57.415 331.301 57.721 331.256 58.027L329.93 57.585ZM347.003 63.62H339.676V62.532L347.173 54.1H348.431V62.175H350.641V63.62H348.431V66H347.003V63.62ZM347.003 62.175V56.48L341.716 62.175H347.003ZM351.421 67.649C351.568 67.615 351.721 67.5527 351.88 67.462C352.05 67.3713 352.203 67.258 352.339 67.122C352.475 66.986 352.583 66.8387 352.662 66.68C352.753 66.5213 352.798 66.357 352.798 66.187C352.798 66.1077 352.792 66.0453 352.781 66C352.724 66.0113 352.656 66.017 352.577 66.017C352.328 66.017 352.112 65.9377 351.931 65.779C351.761 65.6203 351.676 65.3937 351.676 65.099C351.676 64.8043 351.767 64.572 351.948 64.402C352.129 64.2207 352.384 64.13 352.713 64.13C353.076 64.13 353.37 64.2547 353.597 64.504C353.835 64.742 353.954 65.1047 353.954 65.592C353.954 66.0567 353.892 66.4533 353.767 66.782C353.642 67.1107 353.478 67.3883 353.274 67.615C353.07 67.8417 352.838 68.0173 352.577 68.142C352.316 68.278 352.05 68.38 351.778 68.448L351.421 67.649ZM360.563 66.153C359.77 66.153 359.05 66.0283 358.404 65.779C357.769 65.5297 357.225 65.1613 356.772 64.674C356.319 64.1753 355.967 63.569 355.718 62.855C355.48 62.141 355.361 61.3137 355.361 60.373C355.361 59.3077 355.503 58.3727 355.786 57.568C356.069 56.7633 356.449 56.0947 356.925 55.562C357.412 55.018 357.973 54.6157 358.608 54.355C359.254 54.083 359.934 53.947 360.648 53.947C361.679 53.947 362.558 54.1567 363.283 54.576C364.008 54.9953 364.535 55.562 364.864 56.276L363.708 57.058C363.379 56.548 362.954 56.1457 362.433 55.851C361.923 55.545 361.305 55.392 360.58 55.392C360.013 55.392 359.503 55.5053 359.05 55.732C358.597 55.9473 358.206 56.2647 357.877 56.684C357.548 57.092 357.293 57.5907 357.112 58.18C356.931 58.758 356.834 59.4097 356.823 60.135V60.322C356.982 59.948 357.197 59.6193 357.469 59.336C357.752 59.0527 358.07 58.8147 358.421 58.622C358.772 58.4293 359.146 58.2877 359.543 58.197C359.951 58.095 360.365 58.044 360.784 58.044C361.475 58.044 362.099 58.1403 362.654 58.333C363.209 58.5257 363.68 58.7977 364.065 59.149C364.462 59.5003 364.762 59.9197 364.966 60.407C365.17 60.8943 365.272 61.4327 365.272 62.022C365.272 62.634 365.147 63.195 364.898 63.705C364.66 64.215 364.326 64.6513 363.895 65.014C363.476 65.3767 362.977 65.66 362.399 65.864C361.832 66.0567 361.22 66.153 360.563 66.153ZM360.546 64.708C361.022 64.708 361.453 64.6457 361.838 64.521C362.235 64.3963 362.575 64.2207 362.858 63.994C363.153 63.756 363.379 63.4783 363.538 63.161C363.697 62.8437 363.776 62.4867 363.776 62.09C363.776 61.6593 363.697 61.2853 363.538 60.968C363.391 60.6393 363.181 60.3673 362.909 60.152C362.637 59.9253 362.308 59.761 361.923 59.659C361.549 59.5457 361.141 59.489 360.699 59.489C359.611 59.489 358.784 59.7213 358.217 60.186C357.662 60.6507 357.384 61.2457 357.384 61.971C357.384 62.345 357.458 62.6963 357.605 63.025C357.752 63.3537 357.962 63.6427 358.234 63.892C358.506 64.1413 358.835 64.3397 359.22 64.487C359.617 64.6343 360.059 64.708 360.546 64.708ZM366.565 56.99C366.723 56.548 366.939 56.1457 367.211 55.783C367.483 55.409 367.811 55.086 368.197 54.814C368.593 54.542 369.047 54.3323 369.557 54.185C370.078 54.0263 370.662 53.947 371.308 53.947C371.886 53.947 372.418 54.0207 372.906 54.168C373.404 54.304 373.829 54.5023 374.181 54.763C374.543 55.0123 374.821 55.324 375.014 55.698C375.218 56.072 375.32 56.4857 375.32 56.939C375.32 57.6303 375.138 58.2197 374.776 58.707C374.424 59.1943 373.909 59.5343 373.229 59.727C373.523 59.7497 373.812 59.8233 374.096 59.948C374.379 60.0613 374.628 60.237 374.844 60.475C375.07 60.7017 375.252 60.9907 375.388 61.342C375.524 61.682 375.592 62.09 375.592 62.566C375.592 63.144 375.478 63.6597 375.252 64.113C375.036 64.555 374.73 64.929 374.334 65.235C373.948 65.5297 373.489 65.7563 372.957 65.915C372.424 66.0737 371.852 66.153 371.24 66.153C370.571 66.153 369.959 66.0737 369.404 65.915C368.86 65.7563 368.378 65.541 367.959 65.269C367.539 64.9857 367.182 64.6513 366.888 64.266C366.604 63.8693 366.389 63.433 366.242 62.957L367.619 62.362C367.766 62.668 367.942 62.9627 368.146 63.246C368.35 63.5293 368.599 63.7787 368.894 63.994C369.188 64.2093 369.534 64.385 369.931 64.521C370.327 64.6457 370.798 64.708 371.342 64.708C372.192 64.708 372.86 64.5267 373.348 64.164C373.846 63.79 374.096 63.263 374.096 62.583C374.096 62.209 374.016 61.8973 373.858 61.648C373.699 61.3873 373.478 61.1833 373.195 61.036C372.911 60.8773 372.577 60.7697 372.192 60.713C371.818 60.645 371.41 60.611 370.968 60.611H369.642V59.2H370.696C371.682 59.2 372.447 59.013 372.991 58.639C373.546 58.265 373.824 57.7947 373.824 57.228C373.824 56.616 373.591 56.157 373.127 55.851C372.662 55.545 372.033 55.392 371.24 55.392C370.752 55.392 370.322 55.4543 369.948 55.579C369.574 55.7037 369.245 55.868 368.962 56.072C368.69 56.276 368.457 56.5083 368.265 56.769C368.083 57.0297 367.942 57.296 367.84 57.568L366.565 56.99ZM377.057 56.99C377.215 56.548 377.431 56.1457 377.703 55.783C377.975 55.409 378.303 55.086 378.689 54.814C379.085 54.542 379.539 54.3323 380.049 54.185C380.57 54.0263 381.154 53.947 381.8 53.947C382.378 53.947 382.91 54.0207 383.398 54.168C383.896 54.304 384.321 54.5023 384.673 54.763C385.035 55.0123 385.313 55.324 385.506 55.698C385.71 56.072 385.812 56.4857 385.812 56.939C385.812 57.6303 385.63 58.2197 385.268 58.707C384.916 59.1943 384.401 59.5343 383.721 59.727C384.015 59.7497 384.304 59.8233 384.588 59.948C384.871 60.0613 385.12 60.237 385.336 60.475C385.562 60.7017 385.744 60.9907 385.88 61.342C386.016 61.682 386.084 62.09 386.084 62.566C386.084 63.144 385.97 63.6597 385.744 64.113C385.528 64.555 385.222 64.929 384.826 65.235C384.44 65.5297 383.981 65.7563 383.449 65.915C382.916 66.0737 382.344 66.153 381.732 66.153C381.063 66.153 380.451 66.0737 379.896 65.915C379.352 65.7563 378.87 65.541 378.451 65.269C378.031 64.9857 377.674 64.6513 377.38 64.266C377.096 63.8693 376.881 63.433 376.734 62.957L378.111 62.362C378.258 62.668 378.434 62.9627 378.638 63.246C378.842 63.5293 379.091 63.7787 379.386 63.994C379.68 64.2093 380.026 64.385 380.423 64.521C380.819 64.6457 381.29 64.708 381.834 64.708C382.684 64.708 383.352 64.5267 383.84 64.164C384.338 63.79 384.588 63.263 384.588 62.583C384.588 62.209 384.508 61.8973 384.35 61.648C384.191 61.3873 383.97 61.1833 383.687 61.036C383.403 60.8773 383.069 60.7697 382.684 60.713C382.31 60.645 381.902 60.611 381.46 60.611H380.134V59.2H381.188C382.174 59.2 382.939 59.013 383.483 58.639C384.038 58.265 384.316 57.7947 384.316 57.228C384.316 56.616 384.083 56.157 383.619 55.851C383.154 55.545 382.525 55.392 381.732 55.392C381.244 55.392 380.814 55.4543 380.44 55.579C380.066 55.7037 379.737 55.868 379.454 56.072C379.182 56.276 378.949 56.5083 378.757 56.769C378.575 57.0297 378.434 57.296 378.332 57.568L377.057 56.99Z" fill="#222429"/>
</svg>
