<svg viewBox="0 0 362 335" fill="none" xmlns="http://www.w3.org/2000/svg">
<path d="M155.171 163.027C155.358 161.82 156.276 160.392 158.299 160.392C159.727 160.392 160.849 161.004 160.849 162.687C160.849 164.319 159.506 165.832 156.106 168.093L153.522 169.81V171H162.787V169.555H156.208L157.517 168.739C159.557 167.464 162.345 165.475 162.345 162.534C162.345 160.426 160.9 158.947 158.401 158.947C155.732 158.947 154.253 160.613 153.845 162.585L155.171 163.027ZM164.135 165.05C164.135 168.569 165.937 171.153 169.218 171.153C172.686 171.153 174.25 168.569 174.25 165.05C174.25 161.31 172.635 158.947 169.184 158.947C165.75 158.947 164.135 161.531 164.135 165.05ZM165.631 165.05C165.631 162.194 166.753 160.392 169.184 160.392C171.632 160.392 172.754 162.143 172.754 165.05C172.754 167.94 171.666 169.708 169.218 169.708C166.991 169.708 165.631 167.94 165.631 165.05ZM177.135 163.027C177.322 161.82 178.24 160.392 180.263 160.392C181.691 160.392 182.813 161.004 182.813 162.687C182.813 164.319 181.47 165.832 178.07 168.093L175.486 169.81V171H184.751V169.555H178.172L179.481 168.739C181.521 167.464 184.309 165.475 184.309 162.534C184.309 160.426 182.864 158.947 180.365 158.947C177.696 158.947 176.217 160.613 175.809 162.585L177.135 163.027ZM185.419 160.987L185.963 162.262L189.04 160.851V171H190.468V159.032H189.499L185.419 160.987Z" fill="#222429"/>
<path d="M174.414 29.8672C206.591 29.8672 237.736 41.2186 262.367 61.9229C286.998 82.6273 303.535 111.357 309.067 143.055C314.599 174.753 308.772 207.386 292.61 235.21C276.449 263.033 250.99 284.264 220.716 295.163L213.77 275.872C239.504 266.607 261.144 248.562 274.881 224.911C288.618 201.261 293.571 173.523 288.869 146.58C284.167 119.637 270.11 95.2165 249.174 77.6178C228.238 60.0191 201.764 50.3704 174.414 50.3704V29.8672Z" fill="#BFCED4"/>
<path d="M220.712 295.164C192.004 305.499 160.663 305.931 131.681 296.392C102.698 286.853 77.7409 267.892 60.7825 242.527L77.8272 231.131C92.2419 252.691 113.456 268.809 138.091 276.917C162.726 285.025 189.365 284.658 213.768 275.873L220.712 295.164Z" fill="#003E14"/>
<path d="M41.2448 135.739C46.4321 113.323 57.1938 92.5791 72.5326 75.4298L87.8148 89.0987C74.7768 103.676 65.6293 121.308 61.2202 140.361L41.2448 135.739Z" fill="#A3CF46"/>
<path d="M72.5122 75.4527C87.6637 58.5052 106.803 45.6043 128.197 37.9178L135.129 57.2135C116.944 63.747 100.676 74.7128 87.7975 89.1181L72.5122 75.4527Z" fill="#648494"/>
<path d="M127.976 37.9973C140.531 33.4622 153.682 30.7907 167.012 30.0678L168.122 50.5409C156.792 51.1554 145.613 53.4262 134.942 57.281L127.976 37.9973Z" fill="#4B5366"/>
<path d="M166.8 30.0794C169.858 29.9088 172.921 29.841 175.984 29.8762L175.748 50.3781C173.145 50.3482 170.542 50.4058 167.942 50.5508L166.8 30.0794Z" fill="#222429"/>
<path d="M60.7931 242.543C50.4125 227.021 43.3223 209.537 39.9598 191.169C36.5974 172.801 37.0342 153.939 41.243 135.746L61.2187 140.368C57.6411 155.831 57.2699 171.864 60.128 187.477C62.986 203.089 69.0127 217.951 77.8362 231.145L60.7931 242.543Z" fill="#5FAF2D"/>
<path d="M319.759 222.714H313.294V221.754L319.909 214.314H321.019V221.439H322.969V222.714H321.019V224.814H319.759V222.714ZM319.759 221.439V216.414L315.094 221.439H319.759ZM329.687 222.714H323.222V221.754L329.837 214.314H330.947V221.439H332.897V222.714H330.947V224.814H329.687V222.714ZM329.687 221.439V216.414L325.022 221.439H329.687ZM333.435 226.269C333.565 226.239 333.7 226.184 333.84 226.104C333.99 226.024 334.125 225.924 334.245 225.804C334.365 225.684 334.46 225.554 334.53 225.414C334.61 225.274 334.65 225.129 334.65 224.979C334.65 224.909 334.645 224.854 334.635 224.814C334.585 224.824 334.525 224.829 334.455 224.829C334.235 224.829 334.045 224.759 333.885 224.619C333.735 224.479 333.66 224.279 333.66 224.019C333.66 223.759 333.74 223.554 333.9 223.404C334.06 223.244 334.285 223.164 334.575 223.164C334.895 223.164 335.155 223.274 335.355 223.494C335.565 223.704 335.67 224.024 335.67 224.454C335.67 224.864 335.615 225.214 335.505 225.504C335.395 225.794 335.25 226.039 335.07 226.239C334.89 226.439 334.685 226.594 334.455 226.704C334.225 226.824 333.99 226.914 333.75 226.974L333.435 226.269ZM337.826 214.314H344.426V215.589H338.981L338.591 218.409C338.821 218.239 339.131 218.099 339.521 217.989C339.921 217.869 340.406 217.809 340.976 217.809C341.606 217.809 342.166 217.899 342.656 218.079C343.146 218.259 343.556 218.509 343.886 218.829C344.216 219.149 344.466 219.524 344.636 219.954C344.816 220.384 344.906 220.844 344.906 221.334C344.906 221.864 344.801 222.349 344.591 222.789C344.391 223.229 344.106 223.609 343.736 223.929C343.376 224.249 342.946 224.499 342.446 224.679C341.956 224.859 341.421 224.949 340.841 224.949C340.361 224.949 339.901 224.894 339.461 224.784C339.021 224.674 338.611 224.509 338.231 224.289C337.861 224.069 337.531 223.804 337.241 223.494C336.961 223.174 336.736 222.804 336.566 222.384L337.766 221.874C337.866 222.104 338.006 222.329 338.186 222.549C338.366 222.759 338.586 222.949 338.846 223.119C339.106 223.289 339.401 223.424 339.731 223.524C340.061 223.624 340.431 223.674 340.841 223.674C341.301 223.674 341.701 223.614 342.041 223.494C342.391 223.364 342.681 223.194 342.911 222.984C343.141 222.774 343.311 222.534 343.421 222.264C343.531 221.984 343.586 221.689 343.586 221.379C343.586 220.669 343.321 220.109 342.791 219.699C342.271 219.289 341.546 219.084 340.616 219.084C340.086 219.084 339.641 219.159 339.281 219.309C338.931 219.449 338.601 219.674 338.291 219.984L337.211 219.699L337.826 214.314Z" fill="#777F8C"/>
<path d="M125.119 316.325C125.209 315.895 125.359 315.485 125.569 315.095C125.779 314.705 126.049 314.365 126.379 314.075C126.709 313.775 127.104 313.54 127.564 313.37C128.024 313.2 128.549 313.115 129.139 313.115C129.689 313.115 130.179 313.195 130.609 313.355C131.039 313.505 131.404 313.72 131.704 314C132.004 314.28 132.229 314.615 132.379 315.005C132.539 315.395 132.619 315.82 132.619 316.28C132.619 316.93 132.479 317.53 132.199 318.08C131.929 318.62 131.584 319.115 131.164 319.565C130.744 320.015 130.284 320.425 129.784 320.795C129.284 321.155 128.809 321.475 128.359 321.755L127.204 322.475H133.009V323.75H124.834V322.7L127.114 321.185C127.864 320.685 128.504 320.225 129.034 319.805C129.564 319.375 129.994 318.97 130.324 318.59C130.664 318.21 130.909 317.845 131.059 317.495C131.219 317.135 131.299 316.775 131.299 316.415C131.299 316.045 131.239 315.73 131.119 315.47C131.009 315.21 130.849 315 130.639 314.84C130.439 314.68 130.199 314.565 129.919 314.495C129.649 314.425 129.359 314.39 129.049 314.39C128.599 314.39 128.209 314.46 127.879 314.6C127.559 314.74 127.284 314.925 127.054 315.155C126.834 315.375 126.659 315.625 126.529 315.905C126.409 316.175 126.329 316.445 126.289 316.715L125.119 316.325ZM137.048 313.19H137.903V323.75H136.643V314.795L133.928 316.04L133.448 314.915L137.048 313.19ZM139.621 325.205C139.751 325.175 139.886 325.12 140.026 325.04C140.176 324.96 140.311 324.86 140.431 324.74C140.551 324.62 140.646 324.49 140.716 324.35C140.796 324.21 140.836 324.065 140.836 323.915C140.836 323.845 140.831 323.79 140.821 323.75C140.771 323.76 140.711 323.765 140.641 323.765C140.421 323.765 140.231 323.695 140.071 323.555C139.921 323.415 139.846 323.215 139.846 322.955C139.846 322.695 139.926 322.49 140.086 322.34C140.246 322.18 140.471 322.1 140.761 322.1C141.081 322.1 141.341 322.21 141.541 322.43C141.751 322.64 141.856 322.96 141.856 323.39C141.856 323.8 141.801 324.15 141.691 324.44C141.581 324.73 141.436 324.975 141.256 325.175C141.076 325.375 140.871 325.53 140.641 325.64C140.411 325.76 140.176 325.85 139.936 325.91L139.621 325.205ZM145.947 313.19H146.802V323.75H145.542V314.795L142.827 316.04L142.347 314.915L145.947 313.19Z" fill="#777F8C"/>
<path d="M3.645 194.44H4.5V205H3.24V196.045L0.525 197.29L0.045 196.165L3.645 194.44ZM6.32297 197.05C6.46297 196.66 6.65297 196.305 6.89297 195.985C7.13297 195.655 7.42297 195.37 7.76297 195.13C8.11297 194.89 8.51297 194.705 8.96297 194.575C9.42297 194.435 9.93797 194.365 10.508 194.365C11.018 194.365 11.488 194.43 11.918 194.56C12.358 194.68 12.733 194.855 13.043 195.085C13.363 195.305 13.608 195.58 13.778 195.91C13.958 196.24 14.048 196.605 14.048 197.005C14.048 197.615 13.888 198.135 13.568 198.565C13.258 198.995 12.803 199.295 12.203 199.465C12.463 199.485 12.718 199.55 12.968 199.66C13.218 199.76 13.438 199.915 13.628 200.125C13.828 200.325 13.988 200.58 14.108 200.89C14.228 201.19 14.288 201.55 14.288 201.97C14.288 202.48 14.188 202.935 13.988 203.335C13.798 203.725 13.528 204.055 13.178 204.325C12.838 204.585 12.433 204.785 11.963 204.925C11.493 205.065 10.988 205.135 10.448 205.135C9.85797 205.135 9.31797 205.065 8.82797 204.925C8.34797 204.785 7.92297 204.595 7.55297 204.355C7.18297 204.105 6.86797 203.81 6.60797 203.47C6.35797 203.12 6.16797 202.735 6.03797 202.315L7.25297 201.79C7.38297 202.06 7.53797 202.32 7.71797 202.57C7.89797 202.82 8.11797 203.04 8.37797 203.23C8.63797 203.42 8.94297 203.575 9.29297 203.695C9.64297 203.805 10.058 203.86 10.538 203.86C11.288 203.86 11.878 203.7 12.308 203.38C12.748 203.05 12.968 202.585 12.968 201.985C12.968 201.655 12.898 201.38 12.758 201.16C12.618 200.93 12.423 200.75 12.173 200.62C11.923 200.48 11.628 200.385 11.288 200.335C10.958 200.275 10.598 200.245 10.208 200.245H9.03797V199H9.96797C10.838 199 11.513 198.835 11.993 198.505C12.483 198.175 12.728 197.76 12.728 197.26C12.728 196.72 12.523 196.315 12.113 196.045C11.703 195.775 11.148 195.64 10.448 195.64C10.018 195.64 9.63797 195.695 9.30797 195.805C8.97797 195.915 8.68797 196.06 8.43797 196.24C8.19797 196.42 7.99297 196.625 7.82297 196.855C7.66297 197.085 7.53797 197.32 7.44797 197.56L6.32297 197.05ZM15.3258 206.455C15.4558 206.425 15.5908 206.37 15.7308 206.29C15.8808 206.21 16.0158 206.11 16.1358 205.99C16.2558 205.87 16.3508 205.74 16.4208 205.6C16.5008 205.46 16.5408 205.315 16.5408 205.165C16.5408 205.095 16.5358 205.04 16.5258 205C16.4758 205.01 16.4158 205.015 16.3458 205.015C16.1258 205.015 15.9358 204.945 15.7758 204.805C15.6258 204.665 15.5508 204.465 15.5508 204.205C15.5508 203.945 15.6308 203.74 15.7908 203.59C15.9508 203.43 16.1758 203.35 16.4658 203.35C16.7858 203.35 17.0458 203.46 17.2458 203.68C17.4558 203.89 17.5608 204.21 17.5608 204.64C17.5608 205.05 17.5058 205.4 17.3958 205.69C17.2858 205.98 17.1408 206.225 16.9608 206.425C16.7808 206.625 16.5758 206.78 16.3458 206.89C16.1158 207.01 15.8808 207.1 15.6408 207.16L15.3258 206.455ZM18.652 199.75C18.652 198.97 18.742 198.255 18.922 197.605C19.102 196.945 19.372 196.375 19.732 195.895C20.102 195.415 20.567 195.04 21.127 194.77C21.687 194.5 22.347 194.365 23.107 194.365C23.867 194.365 24.527 194.49 25.087 194.74C25.647 194.99 26.112 195.35 26.482 195.82C26.852 196.29 27.127 196.86 27.307 197.53C27.487 198.19 27.577 198.93 27.577 199.75C27.577 200.53 27.487 201.25 27.307 201.91C27.137 202.56 26.867 203.125 26.497 203.605C26.137 204.085 25.677 204.46 25.117 204.73C24.557 205 23.897 205.135 23.137 205.135C22.417 205.135 21.777 205 21.217 204.73C20.657 204.46 20.187 204.085 19.807 203.605C19.427 203.125 19.137 202.56 18.937 201.91C18.747 201.25 18.652 200.53 18.652 199.75ZM19.972 199.75C19.972 201.03 20.252 202.035 20.812 202.765C21.372 203.495 22.147 203.86 23.137 203.86C24.217 203.86 25.007 203.495 25.507 202.765C26.007 202.035 26.257 201.03 26.257 199.75C26.257 198.47 26.002 197.465 25.492 196.735C24.982 196.005 24.187 195.64 23.107 195.64C22.567 195.64 22.102 195.735 21.712 195.925C21.322 196.115 20.997 196.39 20.737 196.75C20.477 197.11 20.282 197.545 20.152 198.055C20.032 198.555 19.972 199.12 19.972 199.75Z" fill="#777F8C"/>
<path d="M20.3 89.5H28.265V90.355L23.045 100H21.62L26.66 90.775H20.3V89.5ZM27.9611 101.455C28.0911 101.425 28.2261 101.37 28.3661 101.29C28.5161 101.21 28.6511 101.11 28.7711 100.99C28.8911 100.87 28.9861 100.74 29.0561 100.6C29.1361 100.46 29.1761 100.315 29.1761 100.165C29.1761 100.095 29.1711 100.04 29.1611 100C29.1111 100.01 29.0511 100.015 28.9811 100.015C28.7611 100.015 28.5711 99.945 28.4111 99.805C28.2611 99.665 28.1861 99.465 28.1861 99.205C28.1861 98.945 28.2661 98.74 28.4261 98.59C28.5861 98.43 28.8111 98.35 29.1011 98.35C29.4211 98.35 29.6811 98.46 29.8811 98.68C30.0911 98.89 30.1961 99.21 30.1961 99.64C30.1961 100.05 30.1411 100.4 30.0311 100.69C29.9211 100.98 29.7761 101.225 29.5961 101.425C29.4161 101.625 29.2111 101.78 28.9811 101.89C28.7511 102.01 28.5161 102.1 28.2761 102.16L27.9611 101.455ZM35.3224 100.135C34.4124 100.135 33.6324 99.96 32.9824 99.61C32.3424 99.26 31.8624 98.815 31.5424 98.275L32.6224 97.525C32.9324 97.955 33.3374 98.285 33.8374 98.515C34.3474 98.745 34.9024 98.86 35.5024 98.86C35.9624 98.86 36.3824 98.77 36.7624 98.59C37.1524 98.4 37.4874 98.14 37.7674 97.81C38.0574 97.48 38.2824 97.09 38.4424 96.64C38.6024 96.19 38.6824 95.7 38.6824 95.17C38.6824 95.11 38.6824 95.05 38.6824 94.99C38.6824 94.93 38.6774 94.87 38.6674 94.81C38.4274 95.38 38.0174 95.855 37.4374 96.235C36.8674 96.605 36.1424 96.79 35.2624 96.79C34.6824 96.79 34.1474 96.705 33.6574 96.535C33.1674 96.355 32.7424 96.11 32.3824 95.8C32.0224 95.48 31.7424 95.1 31.5424 94.66C31.3424 94.22 31.2424 93.73 31.2424 93.19C31.2424 92.61 31.3474 92.085 31.5574 91.615C31.7774 91.135 32.0824 90.73 32.4724 90.4C32.8624 90.07 33.3274 89.815 33.8674 89.635C34.4174 89.455 35.0224 89.365 35.6824 89.365C36.3524 89.365 36.9524 89.48 37.4824 89.71C38.0224 89.93 38.4774 90.26 38.8474 90.7C39.2274 91.14 39.5174 91.685 39.7174 92.335C39.9174 92.975 40.0174 93.715 40.0174 94.555C40.0174 95.475 39.9024 96.285 39.6724 96.985C39.4524 97.675 39.1324 98.255 38.7124 98.725C38.3024 99.185 37.8074 99.535 37.2274 99.775C36.6574 100.015 36.0224 100.135 35.3224 100.135ZM35.5024 95.515C35.9324 95.515 36.3224 95.455 36.6724 95.335C37.0224 95.215 37.3174 95.05 37.5574 94.84C37.8074 94.62 37.9974 94.365 38.1274 94.075C38.2574 93.785 38.3224 93.475 38.3224 93.145C38.3224 92.825 38.2724 92.515 38.1724 92.215C38.0724 91.915 37.9124 91.65 37.6924 91.42C37.4724 91.18 37.1824 90.99 36.8224 90.85C36.4724 90.71 36.0424 90.64 35.5324 90.64C34.6024 90.64 33.8724 90.85 33.3424 91.27C32.8224 91.68 32.5624 92.285 32.5624 93.085C32.5624 93.845 32.8274 94.44 33.3574 94.87C33.8874 95.3 34.6024 95.515 35.5024 95.515Z" fill="#777F8C"/>
<path d="M75.3 28.5H83.265V29.355L78.045 39H76.62L81.66 29.775H75.3V28.5ZM82.9611 40.455C83.0911 40.425 83.2261 40.37 83.3661 40.29C83.5161 40.21 83.6511 40.11 83.7711 39.99C83.8911 39.87 83.9861 39.74 84.0561 39.6C84.1361 39.46 84.1761 39.315 84.1761 39.165C84.1761 39.095 84.1711 39.04 84.1611 39C84.1111 39.01 84.0511 39.015 83.9811 39.015C83.7611 39.015 83.5711 38.945 83.4111 38.805C83.2611 38.665 83.1861 38.465 83.1861 38.205C83.1861 37.945 83.2661 37.74 83.4261 37.59C83.5861 37.43 83.8111 37.35 84.1011 37.35C84.4211 37.35 84.6811 37.46 84.8811 37.68C85.0911 37.89 85.1961 38.21 85.1961 38.64C85.1961 39.05 85.1411 39.4 85.0311 39.69C84.9211 39.98 84.7761 40.225 84.5961 40.425C84.4161 40.625 84.2111 40.78 83.9811 40.89C83.7511 41.01 83.5161 41.1 83.2761 41.16L82.9611 40.455ZM90.3224 39.135C89.4124 39.135 88.6324 38.96 87.9824 38.61C87.3424 38.26 86.8624 37.815 86.5424 37.275L87.6224 36.525C87.9324 36.955 88.3374 37.285 88.8374 37.515C89.3474 37.745 89.9024 37.86 90.5024 37.86C90.9624 37.86 91.3824 37.77 91.7624 37.59C92.1524 37.4 92.4874 37.14 92.7674 36.81C93.0574 36.48 93.2824 36.09 93.4424 35.64C93.6024 35.19 93.6824 34.7 93.6824 34.17C93.6824 34.11 93.6824 34.05 93.6824 33.99C93.6824 33.93 93.6774 33.87 93.6674 33.81C93.4274 34.38 93.0174 34.855 92.4374 35.235C91.8674 35.605 91.1424 35.79 90.2624 35.79C89.6824 35.79 89.1474 35.705 88.6574 35.535C88.1674 35.355 87.7424 35.11 87.3824 34.8C87.0224 34.48 86.7424 34.1 86.5424 33.66C86.3424 33.22 86.2424 32.73 86.2424 32.19C86.2424 31.61 86.3474 31.085 86.5574 30.615C86.7774 30.135 87.0824 29.73 87.4724 29.4C87.8624 29.07 88.3274 28.815 88.8674 28.635C89.4174 28.455 90.0224 28.365 90.6824 28.365C91.3524 28.365 91.9524 28.48 92.4824 28.71C93.0224 28.93 93.4774 29.26 93.8474 29.7C94.2274 30.14 94.5174 30.685 94.7174 31.335C94.9174 31.975 95.0174 32.715 95.0174 33.555C95.0174 34.475 94.9024 35.285 94.6724 35.985C94.4524 36.675 94.1324 37.255 93.7124 37.725C93.3024 38.185 92.8074 38.535 92.2274 38.775C91.6574 39.015 91.0224 39.135 90.3224 39.135ZM90.5024 34.515C90.9324 34.515 91.3224 34.455 91.6724 34.335C92.0224 34.215 92.3174 34.05 92.5574 33.84C92.8074 33.62 92.9974 33.365 93.1274 33.075C93.2574 32.785 93.3224 32.475 93.3224 32.145C93.3224 31.825 93.2724 31.515 93.1724 31.215C93.0724 30.915 92.9124 30.65 92.6924 30.42C92.4724 30.18 92.1824 29.99 91.8224 29.85C91.4724 29.71 91.0424 29.64 90.5324 29.64C89.6024 29.64 88.8724 29.85 88.3424 30.27C87.8224 30.68 87.5624 31.285 87.5624 32.085C87.5624 32.845 87.8274 33.44 88.3574 33.87C88.8874 34.3 89.6024 34.515 90.5024 34.515Z" fill="#777F8C"/>
<path d="M133.63 16.9H127.165V15.94L133.78 8.5H134.89V15.625H136.84V16.9H134.89V19H133.63V16.9ZM133.63 15.625V10.6L128.965 15.625H133.63ZM137.378 20.455C137.508 20.425 137.643 20.37 137.783 20.29C137.933 20.21 138.068 20.11 138.188 19.99C138.308 19.87 138.403 19.74 138.473 19.6C138.553 19.46 138.593 19.315 138.593 19.165C138.593 19.095 138.588 19.04 138.578 19C138.528 19.01 138.468 19.015 138.398 19.015C138.178 19.015 137.988 18.945 137.828 18.805C137.678 18.665 137.603 18.465 137.603 18.205C137.603 17.945 137.683 17.74 137.843 17.59C138.003 17.43 138.228 17.35 138.518 17.35C138.838 17.35 139.098 17.46 139.298 17.68C139.508 17.89 139.613 18.21 139.613 18.64C139.613 19.05 139.558 19.4 139.448 19.69C139.338 19.98 139.193 20.225 139.013 20.425C138.833 20.625 138.628 20.78 138.398 20.89C138.168 21.01 137.933 21.1 137.693 21.16L137.378 20.455ZM140.614 11.05C140.754 10.66 140.944 10.305 141.184 9.985C141.424 9.655 141.714 9.37 142.054 9.13C142.404 8.89 142.804 8.705 143.254 8.575C143.714 8.435 144.229 8.365 144.799 8.365C145.309 8.365 145.779 8.43 146.209 8.56C146.649 8.68 147.024 8.855 147.334 9.085C147.654 9.305 147.899 9.58 148.069 9.91C148.249 10.24 148.339 10.605 148.339 11.005C148.339 11.615 148.179 12.135 147.859 12.565C147.549 12.995 147.094 13.295 146.494 13.465C146.754 13.485 147.009 13.55 147.259 13.66C147.509 13.76 147.729 13.915 147.919 14.125C148.119 14.325 148.279 14.58 148.399 14.89C148.519 15.19 148.579 15.55 148.579 15.97C148.579 16.48 148.479 16.935 148.279 17.335C148.089 17.725 147.819 18.055 147.469 18.325C147.129 18.585 146.724 18.785 146.254 18.925C145.784 19.065 145.279 19.135 144.739 19.135C144.149 19.135 143.609 19.065 143.119 18.925C142.639 18.785 142.214 18.595 141.844 18.355C141.474 18.105 141.159 17.81 140.899 17.47C140.649 17.12 140.459 16.735 140.329 16.315L141.544 15.79C141.674 16.06 141.829 16.32 142.009 16.57C142.189 16.82 142.409 17.04 142.669 17.23C142.929 17.42 143.234 17.575 143.584 17.695C143.934 17.805 144.349 17.86 144.829 17.86C145.579 17.86 146.169 17.7 146.599 17.38C147.039 17.05 147.259 16.585 147.259 15.985C147.259 15.655 147.189 15.38 147.049 15.16C146.909 14.93 146.714 14.75 146.464 14.62C146.214 14.48 145.919 14.385 145.579 14.335C145.249 14.275 144.889 14.245 144.499 14.245H143.329V13H144.259C145.129 13 145.804 12.835 146.284 12.505C146.774 12.175 147.019 11.76 147.019 11.26C147.019 10.72 146.814 10.315 146.404 10.045C145.994 9.775 145.439 9.64 144.739 9.64C144.309 9.64 143.929 9.695 143.599 9.805C143.269 9.915 142.979 10.06 142.729 10.24C142.489 10.42 142.284 10.625 142.114 10.855C141.954 11.085 141.829 11.32 141.739 11.56L140.614 11.05Z" fill="#777F8C"/>
<path d="M167.645 4.44H168.5V15H167.24V6.045L164.525 7.29L164.045 6.165L167.645 4.44ZM170.218 16.455C170.348 16.425 170.483 16.37 170.623 16.29C170.773 16.21 170.908 16.11 171.028 15.99C171.148 15.87 171.243 15.74 171.313 15.6C171.393 15.46 171.433 15.315 171.433 15.165C171.433 15.095 171.428 15.04 171.418 15C171.368 15.01 171.308 15.015 171.238 15.015C171.018 15.015 170.828 14.945 170.668 14.805C170.518 14.665 170.443 14.465 170.443 14.205C170.443 13.945 170.523 13.74 170.683 13.59C170.843 13.43 171.068 13.35 171.358 13.35C171.678 13.35 171.938 13.46 172.138 13.68C172.348 13.89 172.453 14.21 172.453 14.64C172.453 15.05 172.398 15.4 172.288 15.69C172.178 15.98 172.033 16.225 171.853 16.425C171.673 16.625 171.468 16.78 171.238 16.89C171.008 17.01 170.773 17.1 170.533 17.16L170.218 16.455ZM173.454 7.05C173.594 6.66 173.784 6.305 174.024 5.985C174.264 5.655 174.554 5.37 174.894 5.13C175.244 4.89 175.644 4.705 176.094 4.575C176.554 4.435 177.069 4.365 177.639 4.365C178.149 4.365 178.619 4.43 179.049 4.56C179.489 4.68 179.864 4.855 180.174 5.085C180.494 5.305 180.739 5.58 180.909 5.91C181.089 6.24 181.179 6.605 181.179 7.005C181.179 7.615 181.019 8.135 180.699 8.565C180.389 8.995 179.934 9.295 179.334 9.465C179.594 9.485 179.849 9.55 180.099 9.66C180.349 9.76 180.569 9.915 180.759 10.125C180.959 10.325 181.119 10.58 181.239 10.89C181.359 11.19 181.419 11.55 181.419 11.97C181.419 12.48 181.319 12.935 181.119 13.335C180.929 13.725 180.659 14.055 180.309 14.325C179.969 14.585 179.564 14.785 179.094 14.925C178.624 15.065 178.119 15.135 177.579 15.135C176.989 15.135 176.449 15.065 175.959 14.925C175.479 14.785 175.054 14.595 174.684 14.355C174.314 14.105 173.999 13.81 173.739 13.47C173.489 13.12 173.299 12.735 173.169 12.315L174.384 11.79C174.514 12.06 174.669 12.32 174.849 12.57C175.029 12.82 175.249 13.04 175.509 13.23C175.769 13.42 176.074 13.575 176.424 13.695C176.774 13.805 177.189 13.86 177.669 13.86C178.419 13.86 179.009 13.7 179.439 13.38C179.879 13.05 180.099 12.585 180.099 11.985C180.099 11.655 180.029 11.38 179.889 11.16C179.749 10.93 179.554 10.75 179.304 10.62C179.054 10.48 178.759 10.385 178.419 10.335C178.089 10.275 177.729 10.245 177.339 10.245H176.169V9H177.099C177.969 9 178.644 8.835 179.124 8.505C179.614 8.175 179.859 7.76 179.859 7.26C179.859 6.72 179.654 6.315 179.244 6.045C178.834 5.775 178.279 5.64 177.579 5.64C177.149 5.64 176.769 5.695 176.439 5.805C176.109 5.915 175.819 6.06 175.569 6.24C175.329 6.42 175.124 6.625 174.954 6.855C174.794 7.085 174.669 7.32 174.579 7.56L173.454 7.05Z" fill="#777F8C"/>
</svg>
