<svg viewBox="0 0 362 335" fill="none" xmlns="http://www.w3.org/2000/svg">
<path d="M153.32 163.027C153.507 161.82 154.425 160.392 156.448 160.392C157.876 160.392 158.998 161.004 158.998 162.687C158.998 164.319 157.655 165.832 154.255 168.093L151.671 169.81V171H160.936V169.555H154.357L155.666 168.739C157.706 167.464 160.494 165.475 160.494 162.534C160.494 160.426 159.049 158.947 156.55 158.947C153.881 158.947 152.402 160.613 151.994 162.585L153.32 163.027ZM162.284 165.05C162.284 168.569 164.086 171.153 167.367 171.153C170.835 171.153 172.399 168.569 172.399 165.05C172.399 161.31 170.784 158.947 167.333 158.947C163.899 158.947 162.284 161.531 162.284 165.05ZM163.78 165.05C163.78 162.194 164.902 160.392 167.333 160.392C169.781 160.392 170.903 162.143 170.903 165.05C170.903 167.94 169.815 169.708 167.367 169.708C165.14 169.708 163.78 167.94 163.78 165.05ZM175.284 163.027C175.471 161.82 176.389 160.392 178.412 160.392C179.84 160.392 180.962 161.004 180.962 162.687C180.962 164.319 179.619 165.832 176.219 168.093L173.635 169.81V171H182.9V169.555H176.321L177.63 168.739C179.67 167.464 182.458 165.475 182.458 162.534C182.458 160.426 181.013 158.947 178.514 158.947C175.845 158.947 174.366 160.613 173.958 162.585L175.284 163.027ZM185.693 163.027C185.88 161.82 186.798 160.392 188.821 160.392C190.249 160.392 191.371 161.004 191.371 162.687C191.371 164.319 190.028 165.832 186.628 168.093L184.044 169.81V171H193.309V169.555H186.73L188.039 168.739C190.079 167.464 192.867 165.475 192.867 162.534C192.867 160.426 191.422 158.947 188.923 158.947C186.254 158.947 184.775 160.613 184.367 162.585L185.693 163.027Z" fill="#222429"/>
<path d="M174.414 29.8672C206.028 29.8672 236.665 40.8258 261.107 60.8769C285.549 80.928 302.286 108.832 308.465 139.836C314.645 170.84 309.887 203.028 295.001 230.919C280.114 258.809 256.02 280.676 226.822 292.798L218.961 273.862C243.779 263.558 264.259 244.971 276.913 221.264C289.566 197.558 293.611 170.198 288.358 143.844C283.105 117.49 268.879 93.7721 248.103 76.7287C227.327 59.6853 201.286 50.3704 174.414 50.3704V29.8672Z" fill="#BFCED4"/>
<path d="M226.434 292.958C198.983 304.255 168.601 306.309 139.879 298.809C111.158 291.31 85.6582 274.663 67.2353 251.387L83.3121 238.663C98.9716 258.447 120.646 272.596 145.059 278.971C169.473 285.346 195.298 283.6 218.631 273.998L226.434 292.958Z" fill="#003E14"/>
<path d="M39.0692 147.437C42.5569 122.747 52.7322 99.4807 68.4935 80.1579L84.3815 93.1176C70.9845 109.542 62.3355 129.318 59.3709 150.305L39.0692 147.437Z" fill="#A3CF46"/>
<path d="M68.5157 80.1307C83.073 62.2933 101.9 48.422 123.25 39.804L130.925 58.8167C112.777 66.142 96.7741 77.9326 84.4004 93.0944L68.5157 80.1307Z" fill="#648494"/>
<path d="M123.094 39.8672C137.132 34.1805 152.018 30.8665 167.143 30.0607L168.233 50.535C155.377 51.2198 142.724 54.0367 130.792 58.8705L123.094 39.8672Z" fill="#4B5366"/>
<path d="M166.8 30.0794C169.858 29.9088 172.921 29.841 175.984 29.8762L175.748 50.3781C173.145 50.3482 170.542 50.4058 167.942 50.5508L166.8 30.0794Z" fill="#222429"/>
<path d="M67.2439 251.398C55.7517 236.882 47.3285 220.182 42.4852 202.312C37.6419 184.442 36.4796 165.774 39.0687 147.441L59.3705 150.308C57.1697 165.891 58.1577 181.759 62.2745 196.948C66.3913 212.138 73.5511 226.333 83.3194 238.672L67.2439 251.398Z" fill="#5FAF2D"/>
<path d="M319.759 222.712H313.294V221.752L319.909 214.312H321.019V221.437H322.969V222.712H321.019V224.812H319.759V222.712ZM319.759 221.437V216.412L315.094 221.437H319.759ZM323.612 216.862C323.752 216.472 323.942 216.117 324.182 215.797C324.422 215.467 324.712 215.182 325.052 214.942C325.402 214.702 325.802 214.517 326.252 214.387C326.712 214.247 327.227 214.177 327.797 214.177C328.307 214.177 328.777 214.242 329.207 214.372C329.647 214.492 330.022 214.667 330.332 214.897C330.652 215.117 330.897 215.392 331.067 215.722C331.247 216.052 331.337 216.417 331.337 216.817C331.337 217.427 331.177 217.947 330.857 218.377C330.547 218.807 330.092 219.107 329.492 219.277C329.752 219.297 330.007 219.362 330.257 219.472C330.507 219.572 330.727 219.727 330.917 219.937C331.117 220.137 331.277 220.392 331.397 220.702C331.517 221.002 331.577 221.362 331.577 221.782C331.577 222.292 331.477 222.747 331.277 223.147C331.087 223.537 330.817 223.867 330.467 224.137C330.127 224.397 329.722 224.597 329.252 224.737C328.782 224.878 328.277 224.948 327.737 224.948C327.147 224.948 326.607 224.878 326.117 224.737C325.637 224.597 325.212 224.407 324.842 224.167C324.472 223.917 324.157 223.622 323.897 223.282C323.647 222.932 323.457 222.547 323.327 222.127L324.542 221.602C324.672 221.872 324.827 222.132 325.007 222.382C325.187 222.632 325.407 222.852 325.667 223.042C325.927 223.232 326.232 223.387 326.582 223.507C326.932 223.617 327.347 223.672 327.827 223.672C328.577 223.672 329.167 223.512 329.597 223.192C330.037 222.862 330.257 222.397 330.257 221.797C330.257 221.467 330.187 221.192 330.047 220.972C329.907 220.742 329.712 220.562 329.462 220.432C329.212 220.292 328.917 220.197 328.577 220.147C328.247 220.087 327.887 220.057 327.497 220.057H326.327V218.812H327.257C328.127 218.812 328.802 218.647 329.282 218.317C329.772 217.987 330.017 217.572 330.017 217.072C330.017 216.532 329.812 216.127 329.402 215.857C328.992 215.587 328.437 215.452 327.737 215.452C327.307 215.452 326.927 215.507 326.597 215.617C326.267 215.727 325.977 215.872 325.727 216.052C325.487 216.232 325.282 216.437 325.112 216.667C324.952 216.897 324.827 217.132 324.737 217.372L323.612 216.862ZM332.915 223.957C332.915 223.757 333 223.567 333.17 223.387C333.34 223.207 333.565 223.117 333.845 223.117C334.105 223.117 334.32 223.207 334.49 223.387C334.66 223.567 334.745 223.757 334.745 223.957C334.745 224.187 334.66 224.392 334.49 224.572C334.32 224.752 334.105 224.843 333.845 224.843C333.565 224.843 333.34 224.752 333.17 224.572C333 224.392 332.915 224.187 332.915 223.957ZM340.59 218.827C340.93 218.827 341.245 218.787 341.535 218.707C341.835 218.617 342.095 218.497 342.315 218.347C342.535 218.197 342.705 218.017 342.825 217.807C342.955 217.597 343.02 217.367 343.02 217.117C343.02 216.577 342.795 216.167 342.345 215.887C341.905 215.597 341.23 215.452 340.32 215.452C339.44 215.452 338.775 215.597 338.325 215.887C337.885 216.177 337.665 216.587 337.665 217.117C337.665 217.357 337.725 217.582 337.845 217.792C337.965 218.002 338.13 218.187 338.34 218.347C338.56 218.497 338.82 218.617 339.12 218.707C339.43 218.787 339.765 218.827 340.125 218.827H340.59ZM340.185 220.012C339.765 220.012 339.375 220.062 339.015 220.162C338.665 220.252 338.365 220.382 338.115 220.552C337.865 220.712 337.67 220.907 337.53 221.137C337.39 221.357 337.32 221.592 337.32 221.842C337.32 222.382 337.57 222.822 338.07 223.162C338.58 223.502 339.335 223.672 340.335 223.672C341.365 223.672 342.125 223.512 342.615 223.192C343.105 222.862 343.35 222.417 343.35 221.857C343.35 221.267 343.095 220.812 342.585 220.492C342.085 220.172 341.41 220.012 340.56 220.012H340.185ZM340.35 224.948C339.68 224.948 339.075 224.883 338.535 224.752C338.005 224.612 337.55 224.417 337.17 224.167C336.8 223.907 336.51 223.597 336.3 223.237C336.1 222.867 336 222.447 336 221.977C336 221.357 336.185 220.822 336.555 220.372C336.935 219.912 337.44 219.582 338.07 219.382C337.77 219.282 337.51 219.152 337.29 218.992C337.07 218.822 336.89 218.632 336.75 218.422C336.61 218.212 336.505 217.992 336.435 217.762C336.375 217.522 336.345 217.277 336.345 217.027C336.345 216.157 336.685 215.467 337.365 214.957C338.055 214.437 339.045 214.177 340.335 214.177C341.635 214.177 342.625 214.437 343.305 214.957C343.995 215.467 344.34 216.157 344.34 217.027C344.34 217.567 344.19 218.022 343.89 218.392C343.6 218.762 343.195 219.067 342.675 219.307C343.395 219.527 343.905 219.857 344.205 220.297C344.515 220.737 344.67 221.277 344.67 221.917C344.67 222.397 344.57 222.827 344.37 223.207C344.17 223.577 343.88 223.892 343.5 224.152C343.13 224.412 342.675 224.612 342.135 224.752C341.605 224.883 341.01 224.948 340.35 224.948Z" fill="#777F8C"/>
<path d="M125.119 316.325C125.209 315.895 125.359 315.485 125.569 315.095C125.779 314.705 126.049 314.365 126.379 314.075C126.709 313.775 127.104 313.54 127.564 313.37C128.024 313.2 128.549 313.115 129.139 313.115C129.689 313.115 130.179 313.195 130.609 313.355C131.039 313.505 131.404 313.72 131.704 314C132.004 314.28 132.229 314.615 132.379 315.005C132.539 315.395 132.619 315.82 132.619 316.28C132.619 316.93 132.479 317.53 132.199 318.08C131.929 318.62 131.584 319.115 131.164 319.565C130.744 320.015 130.284 320.425 129.784 320.795C129.284 321.155 128.809 321.475 128.359 321.755L127.204 322.475H133.009V323.75H124.834V322.7L127.114 321.185C127.864 320.685 128.504 320.225 129.034 319.805C129.564 319.375 129.994 318.97 130.324 318.59C130.664 318.21 130.909 317.845 131.059 317.495C131.219 317.135 131.299 316.775 131.299 316.415C131.299 316.045 131.239 315.73 131.119 315.47C131.009 315.21 130.849 315 130.639 314.84C130.439 314.68 130.199 314.565 129.919 314.495C129.649 314.425 129.359 314.39 129.049 314.39C128.599 314.39 128.209 314.46 127.879 314.6C127.559 314.74 127.284 314.925 127.054 315.155C126.834 315.375 126.659 315.625 126.529 315.905C126.409 316.175 126.329 316.445 126.289 316.715L125.119 316.325ZM134.048 318.5C134.048 317.72 134.138 317.005 134.318 316.355C134.498 315.695 134.768 315.125 135.128 314.645C135.498 314.165 135.963 313.79 136.523 313.52C137.083 313.25 137.743 313.115 138.503 313.115C139.263 313.115 139.923 313.24 140.483 313.49C141.043 313.74 141.508 314.1 141.878 314.57C142.248 315.04 142.523 315.61 142.703 316.28C142.883 316.94 142.973 317.68 142.973 318.5C142.973 319.28 142.883 320 142.703 320.66C142.533 321.31 142.263 321.875 141.893 322.355C141.533 322.835 141.073 323.21 140.513 323.48C139.953 323.75 139.293 323.885 138.533 323.885C137.813 323.885 137.173 323.75 136.613 323.48C136.053 323.21 135.583 322.835 135.203 322.355C134.823 321.875 134.533 321.31 134.333 320.66C134.143 320 134.048 319.28 134.048 318.5ZM135.368 318.5C135.368 319.78 135.648 320.785 136.208 321.515C136.768 322.245 137.543 322.61 138.533 322.61C139.613 322.61 140.403 322.245 140.903 321.515C141.403 320.785 141.653 319.78 141.653 318.5C141.653 317.22 141.398 316.215 140.888 315.485C140.378 314.755 139.583 314.39 138.503 314.39C137.963 314.39 137.498 314.485 137.108 314.675C136.718 314.865 136.393 315.14 136.133 315.5C135.873 315.86 135.678 316.295 135.548 316.805C135.428 317.305 135.368 317.87 135.368 318.5ZM144.199 322.895C144.199 322.695 144.284 322.505 144.454 322.325C144.624 322.145 144.849 322.055 145.129 322.055C145.389 322.055 145.604 322.145 145.774 322.325C145.944 322.505 146.029 322.695 146.029 322.895C146.029 323.125 145.944 323.33 145.774 323.51C145.604 323.69 145.389 323.78 145.129 323.78C144.849 323.78 144.624 323.69 144.454 323.51C144.284 323.33 144.199 323.125 144.199 322.895ZM146.924 313.25H154.889V314.105L149.669 323.75H148.244L153.284 314.525H146.924V313.25Z" fill="#777F8C"/>
<path d="M3.645 194.44H4.5V205H3.24V196.045L0.525 197.29L0.045 196.165L3.645 194.44ZM6.51797 197.575C6.60797 197.145 6.75797 196.735 6.96797 196.345C7.17797 195.955 7.44797 195.615 7.77797 195.325C8.10797 195.025 8.50297 194.79 8.96297 194.62C9.42297 194.45 9.94797 194.365 10.538 194.365C11.088 194.365 11.578 194.445 12.008 194.605C12.438 194.755 12.803 194.97 13.103 195.25C13.403 195.53 13.628 195.865 13.778 196.255C13.938 196.645 14.018 197.07 14.018 197.53C14.018 198.18 13.878 198.78 13.598 199.33C13.328 199.87 12.983 200.365 12.563 200.815C12.143 201.265 11.683 201.675 11.183 202.045C10.683 202.405 10.208 202.725 9.75797 203.005L8.60297 203.725H14.408V205H6.23297V203.95L8.51297 202.435C9.26297 201.935 9.90297 201.475 10.433 201.055C10.963 200.625 11.393 200.22 11.723 199.84C12.063 199.46 12.308 199.095 12.458 198.745C12.618 198.385 12.698 198.025 12.698 197.665C12.698 197.295 12.638 196.98 12.518 196.72C12.408 196.46 12.248 196.25 12.038 196.09C11.838 195.93 11.598 195.815 11.318 195.745C11.048 195.675 10.758 195.64 10.448 195.64C9.99797 195.64 9.60797 195.71 9.27797 195.85C8.95797 195.99 8.68297 196.175 8.45297 196.405C8.23297 196.625 8.05797 196.875 7.92797 197.155C7.80797 197.425 7.72797 197.695 7.68797 197.965L6.51797 197.575ZM15.5525 204.145C15.5525 203.945 15.6375 203.755 15.8075 203.575C15.9775 203.395 16.2025 203.305 16.4825 203.305C16.7425 203.305 16.9575 203.395 17.1275 203.575C17.2975 203.755 17.3825 203.945 17.3825 204.145C17.3825 204.375 17.2975 204.58 17.1275 204.76C16.9575 204.94 16.7425 205.03 16.4825 205.03C16.2025 205.03 15.9775 204.94 15.8075 204.76C15.6375 204.58 15.5525 204.375 15.5525 204.145ZM23.2277 199.015C23.5677 199.015 23.8827 198.975 24.1727 198.895C24.4727 198.805 24.7327 198.685 24.9527 198.535C25.1727 198.385 25.3427 198.205 25.4627 197.995C25.5927 197.785 25.6577 197.555 25.6577 197.305C25.6577 196.765 25.4327 196.355 24.9827 196.075C24.5427 195.785 23.8677 195.64 22.9577 195.64C22.0777 195.64 21.4127 195.785 20.9627 196.075C20.5227 196.365 20.3027 196.775 20.3027 197.305C20.3027 197.545 20.3627 197.77 20.4827 197.98C20.6027 198.19 20.7677 198.375 20.9777 198.535C21.1977 198.685 21.4577 198.805 21.7577 198.895C22.0677 198.975 22.4027 199.015 22.7627 199.015H23.2277ZM22.8227 200.2C22.4027 200.2 22.0127 200.25 21.6527 200.35C21.3027 200.44 21.0027 200.57 20.7527 200.74C20.5027 200.9 20.3077 201.095 20.1677 201.325C20.0277 201.545 19.9577 201.78 19.9577 202.03C19.9577 202.57 20.2077 203.01 20.7077 203.35C21.2177 203.69 21.9727 203.86 22.9727 203.86C24.0027 203.86 24.7627 203.7 25.2527 203.38C25.7427 203.05 25.9877 202.605 25.9877 202.045C25.9877 201.455 25.7327 201 25.2227 200.68C24.7227 200.36 24.0477 200.2 23.1977 200.2H22.8227ZM22.9877 205.135C22.3177 205.135 21.7127 205.07 21.1727 204.94C20.6427 204.8 20.1877 204.605 19.8077 204.355C19.4377 204.095 19.1477 203.785 18.9377 203.425C18.7377 203.055 18.6377 202.635 18.6377 202.165C18.6377 201.545 18.8227 201.01 19.1927 200.56C19.5727 200.1 20.0777 199.77 20.7077 199.57C20.4077 199.47 20.1477 199.34 19.9277 199.18C19.7077 199.01 19.5277 198.82 19.3877 198.61C19.2477 198.4 19.1427 198.18 19.0727 197.95C19.0127 197.71 18.9827 197.465 18.9827 197.215C18.9827 196.345 19.3227 195.655 20.0027 195.145C20.6927 194.625 21.6827 194.365 22.9727 194.365C24.2727 194.365 25.2627 194.625 25.9427 195.145C26.6327 195.655 26.9777 196.345 26.9777 197.215C26.9777 197.755 26.8277 198.21 26.5277 198.58C26.2377 198.95 25.8327 199.255 25.3127 199.495C26.0327 199.715 26.5427 200.045 26.8427 200.485C27.1527 200.925 27.3077 201.465 27.3077 202.105C27.3077 202.585 27.2077 203.015 27.0077 203.395C26.8077 203.765 26.5177 204.08 26.1377 204.34C25.7677 204.6 25.3127 204.8 24.7727 204.94C24.2427 205.07 23.6477 205.135 22.9877 205.135Z" fill="#777F8C"/>
<path d="M25.25 94.015C25.59 94.015 25.905 93.975 26.195 93.895C26.495 93.805 26.755 93.685 26.975 93.535C27.195 93.385 27.365 93.205 27.485 92.995C27.615 92.785 27.68 92.555 27.68 92.305C27.68 91.765 27.455 91.355 27.005 91.075C26.565 90.785 25.89 90.64 24.98 90.64C24.1 90.64 23.435 90.785 22.985 91.075C22.545 91.365 22.325 91.775 22.325 92.305C22.325 92.545 22.385 92.77 22.505 92.98C22.625 93.19 22.79 93.375 23 93.535C23.22 93.685 23.48 93.805 23.78 93.895C24.09 93.975 24.425 94.015 24.785 94.015H25.25ZM24.845 95.2C24.425 95.2 24.035 95.25 23.675 95.35C23.325 95.44 23.025 95.57 22.775 95.74C22.525 95.9 22.33 96.095 22.19 96.325C22.05 96.545 21.98 96.78 21.98 97.03C21.98 97.57 22.23 98.01 22.73 98.35C23.24 98.69 23.995 98.86 24.995 98.86C26.025 98.86 26.785 98.7 27.275 98.38C27.765 98.05 28.01 97.605 28.01 97.045C28.01 96.455 27.755 96 27.245 95.68C26.745 95.36 26.07 95.2 25.22 95.2H24.845ZM25.01 100.135C24.34 100.135 23.735 100.07 23.195 99.94C22.665 99.8 22.21 99.605 21.83 99.355C21.46 99.095 21.17 98.785 20.96 98.425C20.76 98.055 20.66 97.635 20.66 97.165C20.66 96.545 20.845 96.01 21.215 95.56C21.595 95.1 22.1 94.77 22.73 94.57C22.43 94.47 22.17 94.34 21.95 94.18C21.73 94.01 21.55 93.82 21.41 93.61C21.27 93.4 21.165 93.18 21.095 92.95C21.035 92.71 21.005 92.465 21.005 92.215C21.005 91.345 21.345 90.655 22.025 90.145C22.715 89.625 23.705 89.365 24.995 89.365C26.295 89.365 27.285 89.625 27.965 90.145C28.655 90.655 29 91.345 29 92.215C29 92.755 28.85 93.21 28.55 93.58C28.26 93.95 27.855 94.255 27.335 94.495C28.055 94.715 28.565 95.045 28.865 95.485C29.175 95.925 29.33 96.465 29.33 97.105C29.33 97.585 29.23 98.015 29.03 98.395C28.83 98.765 28.54 99.08 28.16 99.34C27.79 99.6 27.335 99.8 26.795 99.94C26.265 100.07 25.67 100.135 25.01 100.135ZM30.6049 99.145C30.6049 98.945 30.6899 98.755 30.8599 98.575C31.0299 98.395 31.2549 98.305 31.5349 98.305C31.7949 98.305 32.0099 98.395 32.1799 98.575C32.3499 98.755 32.4349 98.945 32.4349 99.145C32.4349 99.375 32.3499 99.58 32.1799 99.76C32.0099 99.94 31.7949 100.03 31.5349 100.03C31.2549 100.03 31.0299 99.94 30.8599 99.76C30.6899 99.58 30.6049 99.375 30.6049 99.145ZM34.7401 89.5H41.3401V90.775H35.8951L35.5051 93.595C35.7351 93.425 36.0451 93.285 36.4351 93.175C36.8351 93.055 37.3201 92.995 37.8901 92.995C38.5201 92.995 39.0801 93.085 39.5701 93.265C40.0601 93.445 40.4701 93.695 40.8001 94.015C41.1301 94.335 41.3801 94.71 41.5501 95.14C41.7301 95.57 41.8201 96.03 41.8201 96.52C41.8201 97.05 41.7151 97.535 41.5051 97.975C41.3051 98.415 41.0201 98.795 40.6501 99.115C40.2901 99.435 39.8601 99.685 39.3601 99.865C38.8701 100.045 38.3351 100.135 37.7551 100.135C37.2751 100.135 36.8151 100.08 36.3751 99.97C35.9351 99.86 35.5251 99.695 35.1451 99.475C34.7751 99.255 34.4451 98.99 34.1551 98.68C33.8751 98.36 33.6501 97.99 33.4801 97.57L34.6801 97.06C34.7801 97.29 34.9201 97.515 35.1001 97.735C35.2801 97.945 35.5001 98.135 35.7601 98.305C36.0201 98.475 36.3151 98.61 36.6451 98.71C36.9751 98.81 37.3451 98.86 37.7551 98.86C38.2151 98.86 38.6151 98.8 38.9551 98.68C39.3051 98.55 39.5951 98.38 39.8251 98.17C40.0551 97.96 40.2251 97.72 40.3351 97.45C40.4451 97.17 40.5001 96.875 40.5001 96.565C40.5001 95.855 40.2351 95.295 39.7051 94.885C39.1851 94.475 38.4601 94.27 37.5301 94.27C37.0001 94.27 36.5551 94.345 36.1951 94.495C35.8451 94.635 35.5151 94.86 35.2051 95.17L34.1251 94.885L34.7401 89.5Z" fill="#777F8C"/>
<path d="M80.25 33.015C80.59 33.015 80.905 32.975 81.195 32.895C81.495 32.805 81.755 32.685 81.975 32.535C82.195 32.385 82.365 32.205 82.485 31.995C82.615 31.785 82.68 31.555 82.68 31.305C82.68 30.765 82.455 30.355 82.005 30.075C81.565 29.785 80.89 29.64 79.98 29.64C79.1 29.64 78.435 29.785 77.985 30.075C77.545 30.365 77.325 30.775 77.325 31.305C77.325 31.545 77.385 31.77 77.505 31.98C77.625 32.19 77.79 32.375 78 32.535C78.22 32.685 78.48 32.805 78.78 32.895C79.09 32.975 79.425 33.015 79.785 33.015H80.25ZM79.845 34.2C79.425 34.2 79.035 34.25 78.675 34.35C78.325 34.44 78.025 34.57 77.775 34.74C77.525 34.9 77.33 35.095 77.19 35.325C77.05 35.545 76.98 35.78 76.98 36.03C76.98 36.57 77.23 37.01 77.73 37.35C78.24 37.69 78.995 37.86 79.995 37.86C81.025 37.86 81.785 37.7 82.275 37.38C82.765 37.05 83.01 36.605 83.01 36.045C83.01 35.455 82.755 35 82.245 34.68C81.745 34.36 81.07 34.2 80.22 34.2H79.845ZM80.01 39.135C79.34 39.135 78.735 39.07 78.195 38.94C77.665 38.8 77.21 38.605 76.83 38.355C76.46 38.095 76.17 37.785 75.96 37.425C75.76 37.055 75.66 36.635 75.66 36.165C75.66 35.545 75.845 35.01 76.215 34.56C76.595 34.1 77.1 33.77 77.73 33.57C77.43 33.47 77.17 33.34 76.95 33.18C76.73 33.01 76.55 32.82 76.41 32.61C76.27 32.4 76.165 32.18 76.095 31.95C76.035 31.71 76.005 31.465 76.005 31.215C76.005 30.345 76.345 29.655 77.025 29.145C77.715 28.625 78.705 28.365 79.995 28.365C81.295 28.365 82.285 28.625 82.965 29.145C83.655 29.655 84 30.345 84 31.215C84 31.755 83.85 32.21 83.55 32.58C83.26 32.95 82.855 33.255 82.335 33.495C83.055 33.715 83.565 34.045 83.865 34.485C84.175 34.925 84.33 35.465 84.33 36.105C84.33 36.585 84.23 37.015 84.03 37.395C83.83 37.765 83.54 38.08 83.16 38.34C82.79 38.6 82.335 38.8 81.795 38.94C81.265 39.07 80.67 39.135 80.01 39.135ZM85.6049 38.145C85.6049 37.945 85.6899 37.755 85.8599 37.575C86.0299 37.395 86.2549 37.305 86.5349 37.305C86.7949 37.305 87.0099 37.395 87.1799 37.575C87.3499 37.755 87.4349 37.945 87.4349 38.145C87.4349 38.375 87.3499 38.58 87.1799 38.76C87.0099 38.94 86.7949 39.03 86.5349 39.03C86.2549 39.03 86.0299 38.94 85.8599 38.76C85.6899 38.58 85.6049 38.375 85.6049 38.145ZM88.6751 33.75C88.6751 32.97 88.7651 32.255 88.9451 31.605C89.1251 30.945 89.3951 30.375 89.7551 29.895C90.1251 29.415 90.5901 29.04 91.1501 28.77C91.7101 28.5 92.3701 28.365 93.1301 28.365C93.8901 28.365 94.5501 28.49 95.1101 28.74C95.6701 28.99 96.1351 29.35 96.5051 29.82C96.8751 30.29 97.1501 30.86 97.3301 31.53C97.5101 32.19 97.6001 32.93 97.6001 33.75C97.6001 34.53 97.5101 35.25 97.3301 35.91C97.1601 36.56 96.8901 37.125 96.5201 37.605C96.1601 38.085 95.7001 38.46 95.1401 38.73C94.5801 39 93.9201 39.135 93.1601 39.135C92.4401 39.135 91.8001 39 91.2401 38.73C90.6801 38.46 90.2101 38.085 89.8301 37.605C89.4501 37.125 89.1601 36.56 88.9601 35.91C88.7701 35.25 88.6751 34.53 88.6751 33.75ZM89.9951 33.75C89.9951 35.03 90.2751 36.035 90.8351 36.765C91.3951 37.495 92.1701 37.86 93.1601 37.86C94.2401 37.86 95.0301 37.495 95.5301 36.765C96.0301 36.035 96.2801 35.03 96.2801 33.75C96.2801 32.47 96.0251 31.465 95.5151 30.735C95.0051 30.005 94.2101 29.64 93.1301 29.64C92.5901 29.64 92.1251 29.735 91.7351 29.925C91.3451 30.115 91.0201 30.39 90.7601 30.75C90.5001 31.11 90.3051 31.545 90.1751 32.055C90.0551 32.555 89.9951 33.12 89.9951 33.75Z" fill="#777F8C"/>
<path d="M133.63 16.9H127.165V15.94L133.78 8.5H134.89V15.625H136.84V16.9H134.89V19H133.63V16.9ZM133.63 15.625V10.6L128.965 15.625H133.63ZM137.678 18.145C137.678 17.945 137.763 17.755 137.933 17.575C138.103 17.395 138.328 17.305 138.608 17.305C138.868 17.305 139.083 17.395 139.253 17.575C139.423 17.755 139.508 17.945 139.508 18.145C139.508 18.375 139.423 18.58 139.253 18.76C139.083 18.94 138.868 19.03 138.608 19.03C138.328 19.03 138.103 18.94 137.933 18.76C137.763 18.58 137.678 18.375 137.678 18.145ZM145.353 13.015C145.693 13.015 146.008 12.975 146.298 12.895C146.598 12.805 146.858 12.685 147.078 12.535C147.298 12.385 147.468 12.205 147.588 11.995C147.718 11.785 147.783 11.555 147.783 11.305C147.783 10.765 147.558 10.355 147.108 10.075C146.668 9.785 145.993 9.64 145.083 9.64C144.203 9.64 143.538 9.785 143.088 10.075C142.648 10.365 142.428 10.775 142.428 11.305C142.428 11.545 142.488 11.77 142.608 11.98C142.728 12.19 142.893 12.375 143.103 12.535C143.323 12.685 143.583 12.805 143.883 12.895C144.193 12.975 144.528 13.015 144.888 13.015H145.353ZM144.948 14.2C144.528 14.2 144.138 14.25 143.778 14.35C143.428 14.44 143.128 14.57 142.878 14.74C142.628 14.9 142.433 15.095 142.293 15.325C142.153 15.545 142.083 15.78 142.083 16.03C142.083 16.57 142.333 17.01 142.833 17.35C143.343 17.69 144.098 17.86 145.098 17.86C146.128 17.86 146.888 17.7 147.378 17.38C147.868 17.05 148.113 16.605 148.113 16.045C148.113 15.455 147.858 15 147.348 14.68C146.848 14.36 146.173 14.2 145.323 14.2H144.948ZM145.113 19.135C144.443 19.135 143.838 19.07 143.298 18.94C142.768 18.8 142.313 18.605 141.933 18.355C141.563 18.095 141.273 17.785 141.063 17.425C140.863 17.055 140.763 16.635 140.763 16.165C140.763 15.545 140.948 15.01 141.318 14.56C141.698 14.1 142.203 13.77 142.833 13.57C142.533 13.47 142.273 13.34 142.053 13.18C141.833 13.01 141.653 12.82 141.513 12.61C141.373 12.4 141.268 12.18 141.198 11.95C141.138 11.71 141.108 11.465 141.108 11.215C141.108 10.345 141.448 9.655 142.128 9.145C142.818 8.625 143.808 8.365 145.098 8.365C146.398 8.365 147.388 8.625 148.068 9.145C148.758 9.655 149.103 10.345 149.103 11.215C149.103 11.755 148.953 12.21 148.653 12.58C148.363 12.95 147.958 13.255 147.438 13.495C148.158 13.715 148.668 14.045 148.968 14.485C149.278 14.925 149.433 15.465 149.433 16.105C149.433 16.585 149.333 17.015 149.133 17.395C148.933 17.765 148.643 18.08 148.263 18.34C147.893 18.6 147.438 18.8 146.898 18.94C146.368 19.07 145.773 19.135 145.113 19.135Z" fill="#777F8C"/>
<path d="M167.645 4.44H168.5V15H167.24V6.045L164.525 7.29L164.045 6.165L167.645 4.44ZM170.518 14.145C170.518 13.945 170.603 13.755 170.773 13.575C170.943 13.395 171.168 13.305 171.448 13.305C171.708 13.305 171.923 13.395 172.093 13.575C172.263 13.755 172.348 13.945 172.348 14.145C172.348 14.375 172.263 14.58 172.093 14.76C171.923 14.94 171.708 15.03 171.448 15.03C171.168 15.03 170.943 14.94 170.773 14.76C170.603 14.58 170.518 14.375 170.518 14.145ZM179.573 12.9H173.108V11.94L179.723 4.5H180.833V11.625H182.783V12.9H180.833V15H179.573V12.9ZM179.573 11.625V6.6L174.908 11.625H179.573Z" fill="#777F8C"/>
</svg>
