<svg viewBox="0 0 536 287" fill="none" xmlns="http://www.w3.org/2000/svg">
<path d="M92.8221 279.07C92.9061 278.669 93.0461 278.286 93.2421 277.922C93.4381 277.558 93.6901 277.241 93.9981 276.97C94.3061 276.69 94.6748 276.471 95.1041 276.312C95.5334 276.153 96.0234 276.074 96.5741 276.074C97.0874 276.074 97.5448 276.149 97.9461 276.298C98.3474 276.438 98.6881 276.639 98.9681 276.9C99.2481 277.161 99.4581 277.474 99.5981 277.838C99.7474 278.202 99.8221 278.599 99.8221 279.028C99.8221 279.635 99.6914 280.195 99.4301 280.708C99.1781 281.212 98.8561 281.674 98.4641 282.094C98.0721 282.514 97.6428 282.897 97.1761 283.242C96.7094 283.578 96.2661 283.877 95.8461 284.138L94.7681 284.81H100.186V286H92.5561V285.02L94.6841 283.606C95.3841 283.139 95.9814 282.71 96.4761 282.318C96.9708 281.917 97.3721 281.539 97.6801 281.184C97.9974 280.829 98.2261 280.489 98.3661 280.162C98.5154 279.826 98.5901 279.49 98.5901 279.154C98.5901 278.809 98.5341 278.515 98.4221 278.272C98.3194 278.029 98.1701 277.833 97.9741 277.684C97.7874 277.535 97.5634 277.427 97.3021 277.362C97.0501 277.297 96.7794 277.264 96.4901 277.264C96.0701 277.264 95.7061 277.329 95.3981 277.46C95.0994 277.591 94.8428 277.763 94.6281 277.978C94.4228 278.183 94.2594 278.417 94.1381 278.678C94.0261 278.93 93.9514 279.182 93.9141 279.434L92.8221 279.07ZM101.156 281.1C101.156 280.372 101.24 279.705 101.408 279.098C101.576 278.482 101.828 277.95 102.164 277.502C102.51 277.054 102.944 276.704 103.466 276.452C103.989 276.2 104.605 276.074 105.314 276.074C106.024 276.074 106.64 276.191 107.162 276.424C107.685 276.657 108.119 276.993 108.464 277.432C108.81 277.871 109.066 278.403 109.234 279.028C109.402 279.644 109.486 280.335 109.486 281.1C109.486 281.828 109.402 282.5 109.234 283.116C109.076 283.723 108.824 284.25 108.478 284.698C108.142 285.146 107.713 285.496 107.19 285.748C106.668 286 106.052 286.126 105.342 286.126C104.67 286.126 104.073 286 103.55 285.748C103.028 285.496 102.589 285.146 102.234 284.698C101.88 284.25 101.609 283.723 101.422 283.116C101.245 282.5 101.156 281.828 101.156 281.1ZM102.388 281.1C102.388 282.295 102.65 283.233 103.172 283.914C103.695 284.595 104.418 284.936 105.342 284.936C106.35 284.936 107.088 284.595 107.554 283.914C108.021 283.233 108.254 282.295 108.254 281.1C108.254 279.905 108.016 278.967 107.54 278.286C107.064 277.605 106.322 277.264 105.314 277.264C104.81 277.264 104.376 277.353 104.012 277.53C103.648 277.707 103.345 277.964 103.102 278.3C102.86 278.636 102.678 279.042 102.556 279.518C102.444 279.985 102.388 280.512 102.388 281.1ZM110.63 279.07C110.714 278.669 110.854 278.286 111.05 277.922C111.246 277.558 111.498 277.241 111.806 276.97C112.114 276.69 112.483 276.471 112.912 276.312C113.341 276.153 113.831 276.074 114.382 276.074C114.895 276.074 115.353 276.149 115.754 276.298C116.155 276.438 116.496 276.639 116.776 276.9C117.056 277.161 117.266 277.474 117.406 277.838C117.555 278.202 117.63 278.599 117.63 279.028C117.63 279.635 117.499 280.195 117.238 280.708C116.986 281.212 116.664 281.674 116.272 282.094C115.88 282.514 115.451 282.897 114.984 283.242C114.517 283.578 114.074 283.877 113.654 284.138L112.576 284.81H117.994V286H110.364V285.02L112.492 283.606C113.192 283.139 113.789 282.71 114.284 282.318C114.779 281.917 115.18 281.539 115.488 281.184C115.805 280.829 116.034 280.489 116.174 280.162C116.323 279.826 116.398 279.49 116.398 279.154C116.398 278.809 116.342 278.515 116.23 278.272C116.127 278.029 115.978 277.833 115.782 277.684C115.595 277.535 115.371 277.427 115.11 277.362C114.858 277.297 114.587 277.264 114.298 277.264C113.878 277.264 113.514 277.329 113.206 277.46C112.907 277.591 112.651 277.763 112.436 277.978C112.231 278.183 112.067 278.417 111.946 278.678C111.834 278.93 111.759 279.182 111.722 279.434L110.63 279.07ZM118.964 281.1C118.964 280.372 119.048 279.705 119.216 279.098C119.384 278.482 119.636 277.95 119.972 277.502C120.318 277.054 120.752 276.704 121.274 276.452C121.797 276.2 122.413 276.074 123.122 276.074C123.832 276.074 124.448 276.191 124.97 276.424C125.493 276.657 125.927 276.993 126.272 277.432C126.618 277.871 126.874 278.403 127.042 279.028C127.21 279.644 127.294 280.335 127.294 281.1C127.294 281.828 127.21 282.5 127.042 283.116C126.884 283.723 126.632 284.25 126.286 284.698C125.95 285.146 125.521 285.496 124.998 285.748C124.476 286 123.86 286.126 123.15 286.126C122.478 286.126 121.881 286 121.358 285.748C120.836 285.496 120.397 285.146 120.042 284.698C119.688 284.25 119.417 283.723 119.23 283.116C119.053 282.5 118.964 281.828 118.964 281.1ZM120.196 281.1C120.196 282.295 120.458 283.233 120.98 283.914C121.503 284.595 122.226 284.936 123.15 284.936C124.158 284.936 124.896 284.595 125.362 283.914C125.829 283.233 126.062 282.295 126.062 281.1C126.062 279.905 125.824 278.967 125.348 278.286C124.872 277.605 124.13 277.264 123.122 277.264C122.618 277.264 122.184 277.353 121.82 277.53C121.456 277.707 121.153 277.964 120.91 278.3C120.668 278.636 120.486 279.042 120.364 279.518C120.252 279.985 120.196 280.512 120.196 281.1Z" fill="#777F8C"/>
<rect x="80" y="67" width="60" height="199" fill="#BFCED4"/>
<rect x="80" y="67" width="60" height="4" fill="#A6B2BC"/>
<path d="M244.818 279.07C244.902 278.669 245.042 278.286 245.238 277.922C245.434 277.558 245.686 277.241 245.994 276.97C246.302 276.69 246.671 276.471 247.1 276.312C247.53 276.153 248.02 276.074 248.57 276.074C249.084 276.074 249.541 276.149 249.942 276.298C250.344 276.438 250.684 276.639 250.964 276.9C251.244 277.161 251.454 277.474 251.594 277.838C251.744 278.202 251.818 278.599 251.818 279.028C251.818 279.635 251.688 280.195 251.426 280.708C251.174 281.212 250.852 281.674 250.46 282.094C250.068 282.514 249.639 282.897 249.172 283.242C248.706 283.578 248.262 283.877 247.842 284.138L246.764 284.81H252.182V286H244.552V285.02L246.68 283.606C247.38 283.139 247.978 282.71 248.472 282.318C248.967 281.917 249.368 281.539 249.676 281.184C249.994 280.829 250.222 280.489 250.362 280.162C250.512 279.826 250.586 279.49 250.586 279.154C250.586 278.809 250.53 278.515 250.418 278.272C250.316 278.029 250.166 277.833 249.97 277.684C249.784 277.535 249.56 277.427 249.298 277.362C249.046 277.297 248.776 277.264 248.486 277.264C248.066 277.264 247.702 277.329 247.394 277.46C247.096 277.591 246.839 277.763 246.624 277.978C246.419 278.183 246.256 278.417 246.134 278.678C246.022 278.93 245.948 279.182 245.91 279.434L244.818 279.07ZM253.152 281.1C253.152 280.372 253.236 279.705 253.404 279.098C253.572 278.482 253.824 277.95 254.16 277.502C254.506 277.054 254.94 276.704 255.462 276.452C255.985 276.2 256.601 276.074 257.31 276.074C258.02 276.074 258.636 276.191 259.158 276.424C259.681 276.657 260.115 276.993 260.46 277.432C260.806 277.871 261.062 278.403 261.23 279.028C261.398 279.644 261.482 280.335 261.482 281.1C261.482 281.828 261.398 282.5 261.23 283.116C261.072 283.723 260.82 284.25 260.474 284.698C260.138 285.146 259.709 285.496 259.186 285.748C258.664 286 258.048 286.126 257.338 286.126C256.666 286.126 256.069 286 255.546 285.748C255.024 285.496 254.585 285.146 254.23 284.698C253.876 284.25 253.605 283.723 253.418 283.116C253.241 282.5 253.152 281.828 253.152 281.1ZM254.384 281.1C254.384 282.295 254.646 283.233 255.168 283.914C255.691 284.595 256.414 284.936 257.338 284.936C258.346 284.936 259.084 284.595 259.55 283.914C260.017 283.233 260.25 282.295 260.25 281.1C260.25 279.905 260.012 278.967 259.536 278.286C259.06 277.605 258.318 277.264 257.31 277.264C256.806 277.264 256.372 277.353 256.008 277.53C255.644 277.707 255.341 277.964 255.098 278.3C254.856 278.636 254.674 279.042 254.552 279.518C254.44 279.985 254.384 280.512 254.384 281.1ZM262.626 279.07C262.71 278.669 262.85 278.286 263.046 277.922C263.242 277.558 263.494 277.241 263.802 276.97C264.11 276.69 264.479 276.471 264.908 276.312C265.337 276.153 265.827 276.074 266.378 276.074C266.891 276.074 267.349 276.149 267.75 276.298C268.151 276.438 268.492 276.639 268.772 276.9C269.052 277.161 269.262 277.474 269.402 277.838C269.551 278.202 269.626 278.599 269.626 279.028C269.626 279.635 269.495 280.195 269.234 280.708C268.982 281.212 268.66 281.674 268.268 282.094C267.876 282.514 267.447 282.897 266.98 283.242C266.513 283.578 266.07 283.877 265.65 284.138L264.572 284.81H269.99V286H262.36V285.02L264.488 283.606C265.188 283.139 265.785 282.71 266.28 282.318C266.775 281.917 267.176 281.539 267.484 281.184C267.801 280.829 268.03 280.489 268.17 280.162C268.319 279.826 268.394 279.49 268.394 279.154C268.394 278.809 268.338 278.515 268.226 278.272C268.123 278.029 267.974 277.833 267.778 277.684C267.591 277.535 267.367 277.427 267.106 277.362C266.854 277.297 266.583 277.264 266.294 277.264C265.874 277.264 265.51 277.329 265.202 277.46C264.903 277.591 264.647 277.763 264.432 277.978C264.227 278.183 264.063 278.417 263.942 278.678C263.83 278.93 263.755 279.182 263.718 279.434L262.626 279.07ZM273.76 276.144H274.558V286H273.382V277.642L270.848 278.804L270.4 277.754L273.76 276.144Z" fill="#777F8C"/>
<rect x="230" y="110" width="60" height="156" fill="#BFCED4"/>
<rect x="230" y="110" width="60" height="4" fill="#A6B2BC"/>
<path d="M393.294 279.07C393.378 278.669 393.518 278.286 393.714 277.922C393.91 277.558 394.162 277.241 394.47 276.97C394.778 276.69 395.146 276.471 395.576 276.312C396.005 276.153 396.495 276.074 397.046 276.074C397.559 276.074 398.016 276.149 398.418 276.298C398.819 276.438 399.16 276.639 399.44 276.9C399.72 277.161 399.93 277.474 400.07 277.838C400.219 278.202 400.294 278.599 400.294 279.028C400.294 279.635 400.163 280.195 399.902 280.708C399.65 281.212 399.328 281.674 398.936 282.094C398.544 282.514 398.114 282.897 397.648 283.242C397.181 283.578 396.738 283.877 396.318 284.138L395.24 284.81H400.658V286H393.028V285.02L395.156 283.606C395.856 283.139 396.453 282.71 396.948 282.318C397.442 281.917 397.844 281.539 398.152 281.184C398.469 280.829 398.698 280.489 398.838 280.162C398.987 279.826 399.062 279.49 399.062 279.154C399.062 278.809 399.006 278.515 398.894 278.272C398.791 278.029 398.642 277.833 398.446 277.684C398.259 277.535 398.035 277.427 397.774 277.362C397.522 277.297 397.251 277.264 396.962 277.264C396.542 277.264 396.178 277.329 395.87 277.46C395.571 277.591 395.314 277.763 395.1 277.978C394.894 278.183 394.731 278.417 394.61 278.678C394.498 278.93 394.423 279.182 394.386 279.434L393.294 279.07ZM401.628 281.1C401.628 280.372 401.712 279.705 401.88 279.098C402.048 278.482 402.3 277.95 402.636 277.502C402.981 277.054 403.415 276.704 403.938 276.452C404.461 276.2 405.077 276.074 405.786 276.074C406.495 276.074 407.111 276.191 407.634 276.424C408.157 276.657 408.591 276.993 408.936 277.432C409.281 277.871 409.538 278.403 409.706 279.028C409.874 279.644 409.958 280.335 409.958 281.1C409.958 281.828 409.874 282.5 409.706 283.116C409.547 283.723 409.295 284.25 408.95 284.698C408.614 285.146 408.185 285.496 407.662 285.748C407.139 286 406.523 286.126 405.814 286.126C405.142 286.126 404.545 286 404.022 285.748C403.499 285.496 403.061 285.146 402.706 284.698C402.351 284.25 402.081 283.723 401.894 283.116C401.717 282.5 401.628 281.828 401.628 281.1ZM402.86 281.1C402.86 282.295 403.121 283.233 403.644 283.914C404.167 284.595 404.89 284.936 405.814 284.936C406.822 284.936 407.559 284.595 408.026 283.914C408.493 283.233 408.726 282.295 408.726 281.1C408.726 279.905 408.488 278.967 408.012 278.286C407.536 277.605 406.794 277.264 405.786 277.264C405.282 277.264 404.848 277.353 404.484 277.53C404.12 277.707 403.817 277.964 403.574 278.3C403.331 278.636 403.149 279.042 403.028 279.518C402.916 279.985 402.86 280.512 402.86 281.1ZM411.102 279.07C411.186 278.669 411.326 278.286 411.522 277.922C411.718 277.558 411.97 277.241 412.278 276.97C412.586 276.69 412.954 276.471 413.384 276.312C413.813 276.153 414.303 276.074 414.854 276.074C415.367 276.074 415.824 276.149 416.226 276.298C416.627 276.438 416.968 276.639 417.248 276.9C417.528 277.161 417.738 277.474 417.878 277.838C418.027 278.202 418.102 278.599 418.102 279.028C418.102 279.635 417.971 280.195 417.71 280.708C417.458 281.212 417.136 281.674 416.744 282.094C416.352 282.514 415.922 282.897 415.456 283.242C414.989 283.578 414.546 283.877 414.126 284.138L413.048 284.81H418.466V286H410.836V285.02L412.964 283.606C413.664 283.139 414.261 282.71 414.756 282.318C415.25 281.917 415.652 281.539 415.96 281.184C416.277 280.829 416.506 280.489 416.646 280.162C416.795 279.826 416.87 279.49 416.87 279.154C416.87 278.809 416.814 278.515 416.702 278.272C416.599 278.029 416.45 277.833 416.254 277.684C416.067 277.535 415.843 277.427 415.582 277.362C415.33 277.297 415.059 277.264 414.77 277.264C414.35 277.264 413.986 277.329 413.678 277.46C413.379 277.591 413.122 277.763 412.908 277.978C412.702 278.183 412.539 278.417 412.418 278.678C412.306 278.93 412.231 279.182 412.194 279.434L411.102 279.07ZM419.534 279.07C419.618 278.669 419.758 278.286 419.954 277.922C420.15 277.558 420.402 277.241 420.71 276.97C421.018 276.69 421.387 276.471 421.816 276.312C422.245 276.153 422.735 276.074 423.286 276.074C423.799 276.074 424.257 276.149 424.658 276.298C425.059 276.438 425.4 276.639 425.68 276.9C425.96 277.161 426.17 277.474 426.31 277.838C426.459 278.202 426.534 278.599 426.534 279.028C426.534 279.635 426.403 280.195 426.142 280.708C425.89 281.212 425.568 281.674 425.176 282.094C424.784 282.514 424.355 282.897 423.888 283.242C423.421 283.578 422.978 283.877 422.558 284.138L421.48 284.81H426.898V286H419.268V285.02L421.396 283.606C422.096 283.139 422.693 282.71 423.188 282.318C423.683 281.917 424.084 281.539 424.392 281.184C424.709 280.829 424.938 280.489 425.078 280.162C425.227 279.826 425.302 279.49 425.302 279.154C425.302 278.809 425.246 278.515 425.134 278.272C425.031 278.029 424.882 277.833 424.686 277.684C424.499 277.535 424.275 277.427 424.014 277.362C423.762 277.297 423.491 277.264 423.202 277.264C422.782 277.264 422.418 277.329 422.11 277.46C421.811 277.591 421.555 277.763 421.34 277.978C421.135 278.183 420.971 278.417 420.85 278.678C420.738 278.93 420.663 279.182 420.626 279.434L419.534 279.07Z" fill="#5FAF2D"/>
<rect x="380" y="135" width="60" height="131" fill="#5FAF2D"/>
<rect x="380" y="135" width="60" height="4" fill="#3D7917"/>
<rect y="266" width="536" height="1" fill="#9299A3"/>
<path d="M123 55V17C123 15.8954 123.895 15 125 15H248C249.105 15 250 15.8954 250 17V98" stroke="#B4BBC5"/>
<path d="M270 98V47C270 45.8954 270.895 45 272 45H395C396.105 45 397 45.8954 397 47V121" stroke="#B4BBC5"/>
<path fill-rule="evenodd" clip-rule="evenodd" d="M245 95L250 104L255 95H245Z" fill="#B4BBC5"/>
<path fill-rule="evenodd" clip-rule="evenodd" d="M392 120L397 129L402 120H392Z" fill="#B4BBC5"/>
<rect x="153.5" y="0.5" width="71" height="29" rx="14.5" fill="white" stroke="#B4BBC5"/>
<path d="M165.244 13.442H171.74V14.492H165.244V13.442ZM175.649 9.144H176.447V19H175.271V10.642L172.737 11.804L172.289 10.754L175.649 9.144ZM177.77 9.2H185.204V9.998L180.332 19H179.002L183.706 10.39H177.77V9.2ZM193.808 19.126C193.146 19.126 192.6 19.0187 192.17 18.804C191.75 18.5893 191.41 18.286 191.148 17.894V19H189.972V8.78H191.148V13.022C191.391 12.5927 191.741 12.2473 192.198 11.986C192.665 11.7247 193.234 11.594 193.906 11.594C194.401 11.594 194.863 11.6827 195.292 11.86C195.722 12.028 196.09 12.2707 196.398 12.588C196.716 12.9053 196.963 13.2973 197.14 13.764C197.327 14.2213 197.42 14.7347 197.42 15.304C197.42 15.8733 197.332 16.3913 197.154 16.858C196.977 17.3247 196.73 17.726 196.412 18.062C196.095 18.398 195.712 18.6593 195.264 18.846C194.826 19.0327 194.34 19.126 193.808 19.126ZM193.71 18.02C194.084 18.02 194.42 17.9593 194.718 17.838C195.026 17.7073 195.288 17.5253 195.502 17.292C195.717 17.0587 195.885 16.7787 196.006 16.452C196.128 16.116 196.188 15.7427 196.188 15.332C196.188 14.9307 196.123 14.5667 195.992 14.24C195.871 13.9133 195.698 13.638 195.474 13.414C195.25 13.1807 194.984 13.0033 194.676 12.882C194.368 12.7607 194.032 12.7 193.668 12.7C192.894 12.7 192.278 12.9287 191.82 13.386C191.372 13.834 191.148 14.4547 191.148 15.248V15.514C191.148 15.934 191.214 16.3027 191.344 16.62C191.484 16.9373 191.666 17.1987 191.89 17.404C192.124 17.6093 192.394 17.7633 192.702 17.866C193.02 17.9687 193.356 18.02 193.71 18.02ZM198.432 18.202C198.432 18.0153 198.512 17.838 198.67 17.67C198.829 17.502 199.039 17.418 199.3 17.418C199.543 17.418 199.744 17.502 199.902 17.67C200.061 17.838 200.14 18.0153 200.14 18.202C200.14 18.4167 200.061 18.608 199.902 18.776C199.744 18.944 199.543 19.028 199.3 19.028C199.039 19.028 198.829 18.944 198.67 18.776C198.512 18.608 198.432 18.4167 198.432 18.202ZM205.512 19.126C204.849 19.126 204.303 19.0187 203.874 18.804C203.454 18.5893 203.113 18.286 202.852 17.894V21.8H201.676V11.72H202.852V13.022C203.095 12.5927 203.445 12.2473 203.902 11.986C204.369 11.7247 204.938 11.594 205.61 11.594C206.105 11.594 206.567 11.6827 206.996 11.86C207.425 12.028 207.794 12.2707 208.102 12.588C208.419 12.9053 208.667 13.2973 208.844 13.764C209.031 14.2213 209.124 14.7347 209.124 15.304C209.124 15.8733 209.035 16.3913 208.858 16.858C208.681 17.3247 208.433 17.726 208.116 18.062C207.799 18.398 207.416 18.6593 206.968 18.846C206.529 19.0327 206.044 19.126 205.512 19.126ZM205.414 18.02C205.787 18.02 206.123 17.9593 206.422 17.838C206.73 17.7073 206.991 17.5253 207.206 17.292C207.421 17.0587 207.589 16.7787 207.71 16.452C207.831 16.116 207.892 15.7427 207.892 15.332C207.892 14.9307 207.827 14.5667 207.696 14.24C207.575 13.9133 207.402 13.638 207.178 13.414C206.954 13.1807 206.688 13.0033 206.38 12.882C206.072 12.7607 205.736 12.7 205.372 12.7C204.597 12.7 203.981 12.9287 203.524 13.386C203.076 13.834 202.852 14.4547 202.852 15.248V15.514C202.852 15.934 202.917 16.3027 203.048 16.62C203.188 16.9373 203.37 17.1987 203.594 17.404C203.827 17.6093 204.098 17.7633 204.406 17.866C204.723 17.9687 205.059 18.02 205.414 18.02ZM210.136 18.202C210.136 18.0153 210.215 17.838 210.374 17.67C210.533 17.502 210.743 17.418 211.004 17.418C211.247 17.418 211.447 17.502 211.606 17.67C211.765 17.838 211.844 18.0153 211.844 18.202C211.844 18.4167 211.765 18.608 211.606 18.776C211.447 18.944 211.247 19.028 211.004 19.028C210.743 19.028 210.533 18.944 210.374 18.776C210.215 18.608 210.136 18.4167 210.136 18.202Z" fill="#50565E"/>
<rect x="300.5" y="31.5" width="71" height="29" rx="14.5" fill="white" stroke="#B4BBC5"/>
<path d="M314.866 44.442H321.362V45.492H314.866V44.442ZM322.149 40.2H329.583V40.998L324.711 50H323.381L328.085 41.39H322.149V40.2ZM338.186 50.126C337.524 50.126 336.978 50.0187 336.548 49.804C336.128 49.5893 335.788 49.286 335.526 48.894V50H334.35V39.78H335.526V44.022C335.769 43.5927 336.119 43.2473 336.576 42.986C337.043 42.7247 337.612 42.594 338.284 42.594C338.779 42.594 339.241 42.6827 339.67 42.86C340.1 43.028 340.468 43.2707 340.776 43.588C341.094 43.9053 341.341 44.2973 341.518 44.764C341.705 45.2213 341.798 45.7347 341.798 46.304C341.798 46.8733 341.71 47.3913 341.532 47.858C341.355 48.3247 341.108 48.726 340.79 49.062C340.473 49.398 340.09 49.6593 339.642 49.846C339.204 50.0327 338.718 50.126 338.186 50.126ZM338.088 49.02C338.462 49.02 338.798 48.9593 339.096 48.838C339.404 48.7073 339.666 48.5253 339.88 48.292C340.095 48.0587 340.263 47.7787 340.384 47.452C340.506 47.116 340.566 46.7427 340.566 46.332C340.566 45.9307 340.501 45.5667 340.37 45.24C340.249 44.9133 340.076 44.638 339.852 44.414C339.628 44.1807 339.362 44.0033 339.054 43.882C338.746 43.7607 338.41 43.7 338.046 43.7C337.272 43.7 336.656 43.9287 336.198 44.386C335.75 44.834 335.526 45.4547 335.526 46.248V46.514C335.526 46.934 335.592 47.3027 335.722 47.62C335.862 47.9373 336.044 48.1987 336.268 48.404C336.502 48.6093 336.772 48.7633 337.08 48.866C337.398 48.9687 337.734 49.02 338.088 49.02ZM342.811 49.202C342.811 49.0153 342.89 48.838 343.049 48.67C343.207 48.502 343.417 48.418 343.679 48.418C343.921 48.418 344.122 48.502 344.281 48.67C344.439 48.838 344.519 49.0153 344.519 49.202C344.519 49.4167 344.439 49.608 344.281 49.776C344.122 49.944 343.921 50.028 343.679 50.028C343.417 50.028 343.207 49.944 343.049 49.776C342.89 49.608 342.811 49.4167 342.811 49.202ZM349.89 50.126C349.227 50.126 348.681 50.0187 348.252 49.804C347.832 49.5893 347.491 49.286 347.23 48.894V52.8H346.054V42.72H347.23V44.022C347.473 43.5927 347.823 43.2473 348.28 42.986C348.747 42.7247 349.316 42.594 349.988 42.594C350.483 42.594 350.945 42.6827 351.374 42.86C351.803 43.028 352.172 43.2707 352.48 43.588C352.797 43.9053 353.045 44.2973 353.222 44.764C353.409 45.2213 353.502 45.7347 353.502 46.304C353.502 46.8733 353.413 47.3913 353.236 47.858C353.059 48.3247 352.811 48.726 352.494 49.062C352.177 49.398 351.794 49.6593 351.346 49.846C350.907 50.0327 350.422 50.126 349.89 50.126ZM349.792 49.02C350.165 49.02 350.501 48.9593 350.8 48.838C351.108 48.7073 351.369 48.5253 351.584 48.292C351.799 48.0587 351.967 47.7787 352.088 47.452C352.209 47.116 352.27 46.7427 352.27 46.332C352.27 45.9307 352.205 45.5667 352.074 45.24C351.953 44.9133 351.78 44.638 351.556 44.414C351.332 44.1807 351.066 44.0033 350.758 43.882C350.45 43.7607 350.114 43.7 349.75 43.7C348.975 43.7 348.359 43.9287 347.902 44.386C347.454 44.834 347.23 45.4547 347.23 46.248V46.514C347.23 46.934 347.295 47.3027 347.426 47.62C347.566 47.9373 347.748 48.1987 347.972 48.404C348.205 48.6093 348.476 48.7633 348.784 48.866C349.101 48.9687 349.437 49.02 349.792 49.02ZM354.514 49.202C354.514 49.0153 354.594 48.838 354.752 48.67C354.911 48.502 355.121 48.418 355.382 48.418C355.625 48.418 355.826 48.502 355.984 48.67C356.143 48.838 356.222 49.0153 356.222 49.202C356.222 49.4167 356.143 49.608 355.984 49.776C355.826 49.944 355.625 50.028 355.382 50.028C355.121 50.028 354.911 49.944 354.752 49.776C354.594 49.608 354.514 49.4167 354.514 49.202Z" fill="#50565E"/>
</svg>
