<svg viewBox="0 0 362 335" fill="none" xmlns="http://www.w3.org/2000/svg">
<path d="M153.32 163.027C153.507 161.82 154.425 160.392 156.448 160.392C157.876 160.392 158.998 161.004 158.998 162.687C158.998 164.319 157.655 165.832 154.255 168.093L151.671 169.81V171H160.936V169.555H154.357L155.666 168.739C157.706 167.464 160.494 165.475 160.494 162.534C160.494 160.426 159.049 158.947 156.55 158.947C153.881 158.947 152.402 160.613 151.994 162.585L153.32 163.027ZM162.284 165.05C162.284 168.569 164.086 171.153 167.367 171.153C170.835 171.153 172.399 168.569 172.399 165.05C172.399 161.31 170.784 158.947 167.333 158.947C163.899 158.947 162.284 161.531 162.284 165.05ZM163.78 165.05C163.78 162.194 164.902 160.392 167.333 160.392C169.781 160.392 170.903 162.143 170.903 165.05C170.903 167.94 169.815 169.708 167.367 169.708C165.14 169.708 163.78 167.94 163.78 165.05ZM175.284 163.027C175.471 161.82 176.389 160.392 178.412 160.392C179.84 160.392 180.962 161.004 180.962 162.687C180.962 164.319 179.619 165.832 176.219 168.093L173.635 169.81V171H182.9V169.555H176.321L177.63 168.739C179.67 167.464 182.458 165.475 182.458 162.534C182.458 160.426 181.013 158.947 178.514 158.947C175.845 158.947 174.366 160.613 173.958 162.585L175.284 163.027ZM185.693 163.027C185.88 161.82 186.798 160.392 188.821 160.392C190.249 160.392 191.371 161.004 191.371 162.687C191.371 164.319 190.028 165.832 186.628 168.093L184.044 169.81V171H193.309V169.555H186.73L188.039 168.739C190.079 167.464 192.867 165.475 192.867 162.534C192.867 160.426 191.422 158.947 188.923 158.947C186.254 158.947 184.775 160.613 184.367 162.585L185.693 163.027Z" fill="#222429"/>
<path d="M174.414 29.8672C206.028 29.8672 236.665 40.8258 261.107 60.8769C285.549 80.928 302.286 108.832 308.465 139.836C314.645 170.84 309.887 203.028 295.001 230.919C280.114 258.809 256.02 280.676 226.822 292.798L218.961 273.862C243.779 263.558 264.259 244.971 276.913 221.264C289.566 197.558 293.611 170.198 288.358 143.844C283.105 117.49 268.879 93.7721 248.103 76.7287C227.327 59.6853 201.286 50.3704 174.414 50.3704V29.8672Z" fill="#BFCED4"/>
<path d="M226.434 292.958C198.983 304.255 168.601 306.309 139.879 298.809C111.158 291.31 85.6582 274.663 67.2353 251.387L83.3121 238.663C98.9716 258.447 120.646 272.596 145.059 278.971C169.473 285.346 195.298 283.6 218.631 273.998L226.434 292.958Z" fill="#003E14"/>
<path d="M39.0692 147.437C42.5569 122.747 52.7322 99.4807 68.4935 80.1579L84.3815 93.1176C70.9845 109.542 62.3355 129.318 59.3709 150.305L39.0692 147.437Z" fill="#A3CF46"/>
<path d="M68.5157 80.1307C83.073 62.2933 101.9 48.422 123.25 39.804L130.925 58.8167C112.777 66.142 96.7741 77.9326 84.4004 93.0944L68.5157 80.1307Z" fill="#648494"/>
<path d="M123.094 39.8672C137.132 34.1805 152.018 30.8665 167.143 30.0607L168.233 50.535C155.377 51.2198 142.724 54.0367 130.792 58.8705L123.094 39.8672Z" fill="#4B5366"/>
<path d="M166.8 30.0794C169.858 29.9088 172.921 29.841 175.984 29.8762L175.748 50.3781C173.145 50.3482 170.542 50.4058 167.942 50.5508L166.8 30.0794Z" fill="#222429"/>
<path d="M67.2439 251.398C55.7517 236.882 47.3285 220.182 42.4852 202.312C37.6419 184.442 36.4796 165.774 39.0687 147.441L59.3705 150.308C57.1697 165.891 58.1577 181.759 62.2745 196.948C66.3913 212.138 73.5511 226.333 83.3194 238.672L67.2439 251.398Z" fill="#5FAF2D"/>
<path d="M319.759 222.714H313.294V221.754L319.909 214.314H321.019V221.439H322.969V222.714H321.019V224.814H319.759V222.714ZM319.759 221.439V216.414L315.094 221.439H319.759ZM323.612 216.864C323.752 216.474 323.942 216.119 324.182 215.799C324.422 215.469 324.712 215.184 325.052 214.944C325.402 214.704 325.802 214.519 326.252 214.389C326.712 214.249 327.227 214.179 327.797 214.179C328.307 214.179 328.777 214.244 329.207 214.374C329.647 214.494 330.022 214.669 330.332 214.899C330.652 215.119 330.897 215.394 331.067 215.724C331.247 216.054 331.337 216.419 331.337 216.819C331.337 217.429 331.177 217.949 330.857 218.379C330.547 218.809 330.092 219.109 329.492 219.279C329.752 219.299 330.007 219.364 330.257 219.474C330.507 219.574 330.727 219.729 330.917 219.939C331.117 220.139 331.277 220.394 331.397 220.704C331.517 221.004 331.577 221.364 331.577 221.784C331.577 222.294 331.477 222.749 331.277 223.149C331.087 223.539 330.817 223.869 330.467 224.139C330.127 224.399 329.722 224.599 329.252 224.739C328.782 224.879 328.277 224.949 327.737 224.949C327.147 224.949 326.607 224.879 326.117 224.739C325.637 224.599 325.212 224.409 324.842 224.169C324.472 223.919 324.157 223.624 323.897 223.284C323.647 222.934 323.457 222.549 323.327 222.129L324.542 221.604C324.672 221.874 324.827 222.134 325.007 222.384C325.187 222.634 325.407 222.854 325.667 223.044C325.927 223.234 326.232 223.389 326.582 223.509C326.932 223.619 327.347 223.674 327.827 223.674C328.577 223.674 329.167 223.514 329.597 223.194C330.037 222.864 330.257 222.399 330.257 221.799C330.257 221.469 330.187 221.194 330.047 220.974C329.907 220.744 329.712 220.564 329.462 220.434C329.212 220.294 328.917 220.199 328.577 220.149C328.247 220.089 327.887 220.059 327.497 220.059H326.327V218.814H327.257C328.127 218.814 328.802 218.649 329.282 218.319C329.772 217.989 330.017 217.574 330.017 217.074C330.017 216.534 329.812 216.129 329.402 215.859C328.992 215.589 328.437 215.454 327.737 215.454C327.307 215.454 326.927 215.509 326.597 215.619C326.267 215.729 325.977 215.874 325.727 216.054C325.487 216.234 325.282 216.439 325.112 216.669C324.952 216.899 324.827 217.134 324.737 217.374L323.612 216.864ZM332.615 226.269C332.745 226.239 332.88 226.184 333.02 226.104C333.17 226.024 333.305 225.924 333.425 225.804C333.545 225.684 333.64 225.554 333.71 225.414C333.79 225.274 333.83 225.129 333.83 224.979C333.83 224.909 333.825 224.854 333.815 224.814C333.765 224.824 333.705 224.829 333.635 224.829C333.415 224.829 333.225 224.759 333.065 224.619C332.915 224.479 332.84 224.279 332.84 224.019C332.84 223.759 332.92 223.554 333.08 223.404C333.24 223.244 333.465 223.164 333.755 223.164C334.075 223.164 334.335 223.274 334.535 223.494C334.745 223.704 334.85 224.024 334.85 224.454C334.85 224.864 334.795 225.214 334.685 225.504C334.575 225.794 334.43 226.039 334.25 226.239C334.07 226.439 333.865 226.594 333.635 226.704C333.405 226.824 333.17 226.914 332.93 226.974L332.615 226.269ZM340.546 218.829C340.886 218.829 341.201 218.789 341.491 218.709C341.791 218.619 342.051 218.499 342.271 218.349C342.491 218.199 342.661 218.019 342.781 217.809C342.911 217.599 342.976 217.369 342.976 217.119C342.976 216.579 342.751 216.169 342.301 215.889C341.861 215.599 341.186 215.454 340.276 215.454C339.396 215.454 338.731 215.599 338.281 215.889C337.841 216.179 337.621 216.589 337.621 217.119C337.621 217.359 337.681 217.584 337.801 217.794C337.921 218.004 338.086 218.189 338.296 218.349C338.516 218.499 338.776 218.619 339.076 218.709C339.386 218.789 339.721 218.829 340.081 218.829H340.546ZM340.141 220.014C339.721 220.014 339.331 220.064 338.971 220.164C338.621 220.254 338.321 220.384 338.071 220.554C337.821 220.714 337.626 220.909 337.486 221.139C337.346 221.359 337.276 221.594 337.276 221.844C337.276 222.384 337.526 222.824 338.026 223.164C338.536 223.504 339.291 223.674 340.291 223.674C341.321 223.674 342.081 223.514 342.571 223.194C343.061 222.864 343.306 222.419 343.306 221.859C343.306 221.269 343.051 220.814 342.541 220.494C342.041 220.174 341.366 220.014 340.516 220.014H340.141ZM340.306 224.949C339.636 224.949 339.031 224.884 338.491 224.754C337.961 224.614 337.506 224.419 337.126 224.169C336.756 223.909 336.466 223.599 336.256 223.239C336.056 222.869 335.956 222.449 335.956 221.979C335.956 221.359 336.141 220.824 336.511 220.374C336.891 219.914 337.396 219.584 338.026 219.384C337.726 219.284 337.466 219.154 337.246 218.994C337.026 218.824 336.846 218.634 336.706 218.424C336.566 218.214 336.461 217.994 336.391 217.764C336.331 217.524 336.301 217.279 336.301 217.029C336.301 216.159 336.641 215.469 337.321 214.959C338.011 214.439 339.001 214.179 340.291 214.179C341.591 214.179 342.581 214.439 343.261 214.959C343.951 215.469 344.296 216.159 344.296 217.029C344.296 217.569 344.146 218.024 343.846 218.394C343.556 218.764 343.151 219.069 342.631 219.309C343.351 219.529 343.861 219.859 344.161 220.299C344.471 220.739 344.626 221.279 344.626 221.919C344.626 222.399 344.526 222.829 344.326 223.209C344.126 223.579 343.836 223.894 343.456 224.154C343.086 224.414 342.631 224.614 342.091 224.754C341.561 224.884 340.966 224.949 340.306 224.949Z" fill="#777F8C"/>
<path d="M125.119 316.325C125.209 315.895 125.359 315.485 125.569 315.095C125.779 314.705 126.049 314.365 126.379 314.075C126.709 313.775 127.104 313.54 127.564 313.37C128.024 313.2 128.549 313.115 129.139 313.115C129.689 313.115 130.179 313.195 130.609 313.355C131.039 313.505 131.404 313.72 131.704 314C132.004 314.28 132.229 314.615 132.379 315.005C132.539 315.395 132.619 315.82 132.619 316.28C132.619 316.93 132.479 317.53 132.199 318.08C131.929 318.62 131.584 319.115 131.164 319.565C130.744 320.015 130.284 320.425 129.784 320.795C129.284 321.155 128.809 321.475 128.359 321.755L127.204 322.475H133.009V323.75H124.834V322.7L127.114 321.185C127.864 320.685 128.504 320.225 129.034 319.805C129.564 319.375 129.994 318.97 130.324 318.59C130.664 318.21 130.909 317.845 131.059 317.495C131.219 317.135 131.299 316.775 131.299 316.415C131.299 316.045 131.239 315.73 131.119 315.47C131.009 315.21 130.849 315 130.639 314.84C130.439 314.68 130.199 314.565 129.919 314.495C129.649 314.425 129.359 314.39 129.049 314.39C128.599 314.39 128.209 314.46 127.879 314.6C127.559 314.74 127.284 314.925 127.054 315.155C126.834 315.375 126.659 315.625 126.529 315.905C126.409 316.175 126.329 316.445 126.289 316.715L125.119 316.325ZM134.048 318.5C134.048 317.72 134.138 317.005 134.318 316.355C134.498 315.695 134.768 315.125 135.128 314.645C135.498 314.165 135.963 313.79 136.523 313.52C137.083 313.25 137.743 313.115 138.503 313.115C139.263 313.115 139.923 313.24 140.483 313.49C141.043 313.74 141.508 314.1 141.878 314.57C142.248 315.04 142.523 315.61 142.703 316.28C142.883 316.94 142.973 317.68 142.973 318.5C142.973 319.28 142.883 320 142.703 320.66C142.533 321.31 142.263 321.875 141.893 322.355C141.533 322.835 141.073 323.21 140.513 323.48C139.953 323.75 139.293 323.885 138.533 323.885C137.813 323.885 137.173 323.75 136.613 323.48C136.053 323.21 135.583 322.835 135.203 322.355C134.823 321.875 134.533 321.31 134.333 320.66C134.143 320 134.048 319.28 134.048 318.5ZM135.368 318.5C135.368 319.78 135.648 320.785 136.208 321.515C136.768 322.245 137.543 322.61 138.533 322.61C139.613 322.61 140.403 322.245 140.903 321.515C141.403 320.785 141.653 319.78 141.653 318.5C141.653 317.22 141.398 316.215 140.888 315.485C140.378 314.755 139.583 314.39 138.503 314.39C137.963 314.39 137.498 314.485 137.108 314.675C136.718 314.865 136.393 315.14 136.133 315.5C135.873 315.86 135.678 316.295 135.548 316.805C135.428 317.305 135.368 317.87 135.368 318.5ZM143.899 325.205C144.029 325.175 144.164 325.12 144.304 325.04C144.454 324.96 144.589 324.86 144.709 324.74C144.829 324.62 144.924 324.49 144.994 324.35C145.074 324.21 145.114 324.065 145.114 323.915C145.114 323.845 145.109 323.79 145.099 323.75C145.049 323.76 144.989 323.765 144.919 323.765C144.699 323.765 144.509 323.695 144.349 323.555C144.199 323.415 144.124 323.215 144.124 322.955C144.124 322.695 144.204 322.49 144.364 322.34C144.524 322.18 144.749 322.1 145.039 322.1C145.359 322.1 145.619 322.21 145.819 322.43C146.029 322.64 146.134 322.96 146.134 323.39C146.134 323.8 146.079 324.15 145.969 324.44C145.859 324.73 145.714 324.975 145.534 325.175C145.354 325.375 145.149 325.53 144.919 325.64C144.689 325.76 144.454 325.85 144.214 325.91L143.899 325.205ZM146.88 313.25H154.845V314.105L149.625 323.75H148.2L153.24 314.525H146.88V313.25Z" fill="#777F8C"/>
<path d="M3.645 194.44H4.5V205H3.24V196.045L0.525 197.29L0.045 196.165L3.645 194.44ZM6.51797 197.575C6.60797 197.145 6.75797 196.735 6.96797 196.345C7.17797 195.955 7.44797 195.615 7.77797 195.325C8.10797 195.025 8.50297 194.79 8.96297 194.62C9.42297 194.45 9.94797 194.365 10.538 194.365C11.088 194.365 11.578 194.445 12.008 194.605C12.438 194.755 12.803 194.97 13.103 195.25C13.403 195.53 13.628 195.865 13.778 196.255C13.938 196.645 14.018 197.07 14.018 197.53C14.018 198.18 13.878 198.78 13.598 199.33C13.328 199.87 12.983 200.365 12.563 200.815C12.143 201.265 11.683 201.675 11.183 202.045C10.683 202.405 10.208 202.725 9.75797 203.005L8.60297 203.725H14.408V205H6.23297V203.95L8.51297 202.435C9.26297 201.935 9.90297 201.475 10.433 201.055C10.963 200.625 11.393 200.22 11.723 199.84C12.063 199.46 12.308 199.095 12.458 198.745C12.618 198.385 12.698 198.025 12.698 197.665C12.698 197.295 12.638 196.98 12.518 196.72C12.408 196.46 12.248 196.25 12.038 196.09C11.838 195.93 11.598 195.815 11.318 195.745C11.048 195.675 10.758 195.64 10.448 195.64C9.99797 195.64 9.60797 195.71 9.27797 195.85C8.95797 195.99 8.68297 196.175 8.45297 196.405C8.23297 196.625 8.05797 196.875 7.92797 197.155C7.80797 197.425 7.72797 197.695 7.68797 197.965L6.51797 197.575ZM15.2525 206.455C15.3825 206.425 15.5175 206.37 15.6575 206.29C15.8075 206.21 15.9425 206.11 16.0625 205.99C16.1825 205.87 16.2775 205.74 16.3475 205.6C16.4275 205.46 16.4675 205.315 16.4675 205.165C16.4675 205.095 16.4625 205.04 16.4525 205C16.4025 205.01 16.3425 205.015 16.2725 205.015C16.0525 205.015 15.8625 204.945 15.7025 204.805C15.5525 204.665 15.4775 204.465 15.4775 204.205C15.4775 203.945 15.5575 203.74 15.7175 203.59C15.8775 203.43 16.1025 203.35 16.3925 203.35C16.7125 203.35 16.9725 203.46 17.1725 203.68C17.3825 203.89 17.4875 204.21 17.4875 204.64C17.4875 205.05 17.4325 205.4 17.3225 205.69C17.2125 205.98 17.0675 206.225 16.8875 206.425C16.7075 206.625 16.5025 206.78 16.2725 206.89C16.0425 207.01 15.8075 207.1 15.5675 207.16L15.2525 206.455ZM23.1838 199.015C23.5238 199.015 23.8388 198.975 24.1288 198.895C24.4288 198.805 24.6888 198.685 24.9088 198.535C25.1288 198.385 25.2988 198.205 25.4188 197.995C25.5488 197.785 25.6138 197.555 25.6138 197.305C25.6138 196.765 25.3888 196.355 24.9388 196.075C24.4988 195.785 23.8238 195.64 22.9138 195.64C22.0338 195.64 21.3688 195.785 20.9188 196.075C20.4788 196.365 20.2588 196.775 20.2588 197.305C20.2588 197.545 20.3188 197.77 20.4388 197.98C20.5588 198.19 20.7238 198.375 20.9338 198.535C21.1538 198.685 21.4138 198.805 21.7138 198.895C22.0238 198.975 22.3588 199.015 22.7188 199.015H23.1838ZM22.7788 200.2C22.3588 200.2 21.9688 200.25 21.6088 200.35C21.2588 200.44 20.9588 200.57 20.7088 200.74C20.4588 200.9 20.2638 201.095 20.1238 201.325C19.9838 201.545 19.9138 201.78 19.9138 202.03C19.9138 202.57 20.1638 203.01 20.6638 203.35C21.1738 203.69 21.9288 203.86 22.9288 203.86C23.9588 203.86 24.7188 203.7 25.2088 203.38C25.6988 203.05 25.9438 202.605 25.9438 202.045C25.9438 201.455 25.6888 201 25.1788 200.68C24.6788 200.36 24.0038 200.2 23.1538 200.2H22.7788ZM22.9438 205.135C22.2738 205.135 21.6688 205.07 21.1288 204.94C20.5988 204.8 20.1438 204.605 19.7638 204.355C19.3938 204.095 19.1038 203.785 18.8938 203.425C18.6938 203.055 18.5938 202.635 18.5938 202.165C18.5938 201.545 18.7788 201.01 19.1488 200.56C19.5288 200.1 20.0338 199.77 20.6638 199.57C20.3638 199.47 20.1038 199.34 19.8838 199.18C19.6638 199.01 19.4838 198.82 19.3438 198.61C19.2038 198.4 19.0988 198.18 19.0288 197.95C18.9688 197.71 18.9388 197.465 18.9388 197.215C18.9388 196.345 19.2788 195.655 19.9588 195.145C20.6488 194.625 21.6388 194.365 22.9288 194.365C24.2288 194.365 25.2188 194.625 25.8988 195.145C26.5888 195.655 26.9338 196.345 26.9338 197.215C26.9338 197.755 26.7838 198.21 26.4838 198.58C26.1938 198.95 25.7888 199.255 25.2688 199.495C25.9888 199.715 26.4988 200.045 26.7988 200.485C27.1088 200.925 27.2638 201.465 27.2638 202.105C27.2638 202.585 27.1638 203.015 26.9638 203.395C26.7638 203.765 26.4738 204.08 26.0938 204.34C25.7238 204.6 25.2688 204.8 24.7288 204.94C24.1988 205.07 23.6038 205.135 22.9438 205.135Z" fill="#777F8C"/>
<path d="M25.25 94.015C25.59 94.015 25.905 93.975 26.195 93.895C26.495 93.805 26.755 93.685 26.975 93.535C27.195 93.385 27.365 93.205 27.485 92.995C27.615 92.785 27.68 92.555 27.68 92.305C27.68 91.765 27.455 91.355 27.005 91.075C26.565 90.785 25.89 90.64 24.98 90.64C24.1 90.64 23.435 90.785 22.985 91.075C22.545 91.365 22.325 91.775 22.325 92.305C22.325 92.545 22.385 92.77 22.505 92.98C22.625 93.19 22.79 93.375 23 93.535C23.22 93.685 23.48 93.805 23.78 93.895C24.09 93.975 24.425 94.015 24.785 94.015H25.25ZM24.845 95.2C24.425 95.2 24.035 95.25 23.675 95.35C23.325 95.44 23.025 95.57 22.775 95.74C22.525 95.9 22.33 96.095 22.19 96.325C22.05 96.545 21.98 96.78 21.98 97.03C21.98 97.57 22.23 98.01 22.73 98.35C23.24 98.69 23.995 98.86 24.995 98.86C26.025 98.86 26.785 98.7 27.275 98.38C27.765 98.05 28.01 97.605 28.01 97.045C28.01 96.455 27.755 96 27.245 95.68C26.745 95.36 26.07 95.2 25.22 95.2H24.845ZM25.01 100.135C24.34 100.135 23.735 100.07 23.195 99.94C22.665 99.8 22.21 99.605 21.83 99.355C21.46 99.095 21.17 98.785 20.96 98.425C20.76 98.055 20.66 97.635 20.66 97.165C20.66 96.545 20.845 96.01 21.215 95.56C21.595 95.1 22.1 94.77 22.73 94.57C22.43 94.47 22.17 94.34 21.95 94.18C21.73 94.01 21.55 93.82 21.41 93.61C21.27 93.4 21.165 93.18 21.095 92.95C21.035 92.71 21.005 92.465 21.005 92.215C21.005 91.345 21.345 90.655 22.025 90.145C22.715 89.625 23.705 89.365 24.995 89.365C26.295 89.365 27.285 89.625 27.965 90.145C28.655 90.655 29 91.345 29 92.215C29 92.755 28.85 93.21 28.55 93.58C28.26 93.95 27.855 94.255 27.335 94.495C28.055 94.715 28.565 95.045 28.865 95.485C29.175 95.925 29.33 96.465 29.33 97.105C29.33 97.585 29.23 98.015 29.03 98.395C28.83 98.765 28.54 99.08 28.16 99.34C27.79 99.6 27.335 99.8 26.795 99.94C26.265 100.07 25.67 100.135 25.01 100.135ZM30.3049 101.455C30.4349 101.425 30.5699 101.37 30.7099 101.29C30.8599 101.21 30.9949 101.11 31.1149 100.99C31.2349 100.87 31.3299 100.74 31.3999 100.6C31.4799 100.46 31.5199 100.315 31.5199 100.165C31.5199 100.095 31.5149 100.04 31.5049 100C31.4549 100.01 31.3949 100.015 31.3249 100.015C31.1049 100.015 30.9149 99.945 30.7549 99.805C30.6049 99.665 30.5299 99.465 30.5299 99.205C30.5299 98.945 30.6099 98.74 30.7699 98.59C30.9299 98.43 31.1549 98.35 31.4449 98.35C31.7649 98.35 32.0249 98.46 32.2249 98.68C32.4349 98.89 32.5399 99.21 32.5399 99.64C32.5399 100.05 32.4849 100.4 32.3749 100.69C32.2649 100.98 32.1199 101.225 31.9399 101.425C31.7599 101.625 31.5549 101.78 31.3249 101.89C31.0949 102.01 30.8599 102.1 30.6199 102.16L30.3049 101.455ZM34.6961 89.5H41.2961V90.775H35.8511L35.4611 93.595C35.6911 93.425 36.0011 93.285 36.3911 93.175C36.7911 93.055 37.2761 92.995 37.8461 92.995C38.4761 92.995 39.0361 93.085 39.5261 93.265C40.0161 93.445 40.4261 93.695 40.7561 94.015C41.0861 94.335 41.3361 94.71 41.5061 95.14C41.6861 95.57 41.7761 96.03 41.7761 96.52C41.7761 97.05 41.6711 97.535 41.4611 97.975C41.2611 98.415 40.9761 98.795 40.6061 99.115C40.2461 99.435 39.8161 99.685 39.3161 99.865C38.8261 100.045 38.2911 100.135 37.7111 100.135C37.2311 100.135 36.7711 100.08 36.3311 99.97C35.8911 99.86 35.4811 99.695 35.1011 99.475C34.7311 99.255 34.4011 98.99 34.1111 98.68C33.8311 98.36 33.6061 97.99 33.4361 97.57L34.6361 97.06C34.7361 97.29 34.8761 97.515 35.0561 97.735C35.2361 97.945 35.4561 98.135 35.7161 98.305C35.9761 98.475 36.2711 98.61 36.6011 98.71C36.9311 98.81 37.3011 98.86 37.7111 98.86C38.1711 98.86 38.5711 98.8 38.9111 98.68C39.2611 98.55 39.5511 98.38 39.7811 98.17C40.0111 97.96 40.1811 97.72 40.2911 97.45C40.4011 97.17 40.4561 96.875 40.4561 96.565C40.4561 95.855 40.1911 95.295 39.6611 94.885C39.1411 94.475 38.4161 94.27 37.4861 94.27C36.9561 94.27 36.5111 94.345 36.1511 94.495C35.8011 94.635 35.4711 94.86 35.1611 95.17L34.0811 94.885L34.6961 89.5Z" fill="#777F8C"/>
<path d="M80.25 33.015C80.59 33.015 80.905 32.975 81.195 32.895C81.495 32.805 81.755 32.685 81.975 32.535C82.195 32.385 82.365 32.205 82.485 31.995C82.615 31.785 82.68 31.555 82.68 31.305C82.68 30.765 82.455 30.355 82.005 30.075C81.565 29.785 80.89 29.64 79.98 29.64C79.1 29.64 78.435 29.785 77.985 30.075C77.545 30.365 77.325 30.775 77.325 31.305C77.325 31.545 77.385 31.77 77.505 31.98C77.625 32.19 77.79 32.375 78 32.535C78.22 32.685 78.48 32.805 78.78 32.895C79.09 32.975 79.425 33.015 79.785 33.015H80.25ZM79.845 34.2C79.425 34.2 79.035 34.25 78.675 34.35C78.325 34.44 78.025 34.57 77.775 34.74C77.525 34.9 77.33 35.095 77.19 35.325C77.05 35.545 76.98 35.78 76.98 36.03C76.98 36.57 77.23 37.01 77.73 37.35C78.24 37.69 78.995 37.86 79.995 37.86C81.025 37.86 81.785 37.7 82.275 37.38C82.765 37.05 83.01 36.605 83.01 36.045C83.01 35.455 82.755 35 82.245 34.68C81.745 34.36 81.07 34.2 80.22 34.2H79.845ZM80.01 39.135C79.34 39.135 78.735 39.07 78.195 38.94C77.665 38.8 77.21 38.605 76.83 38.355C76.46 38.095 76.17 37.785 75.96 37.425C75.76 37.055 75.66 36.635 75.66 36.165C75.66 35.545 75.845 35.01 76.215 34.56C76.595 34.1 77.1 33.77 77.73 33.57C77.43 33.47 77.17 33.34 76.95 33.18C76.73 33.01 76.55 32.82 76.41 32.61C76.27 32.4 76.165 32.18 76.095 31.95C76.035 31.71 76.005 31.465 76.005 31.215C76.005 30.345 76.345 29.655 77.025 29.145C77.715 28.625 78.705 28.365 79.995 28.365C81.295 28.365 82.285 28.625 82.965 29.145C83.655 29.655 84 30.345 84 31.215C84 31.755 83.85 32.21 83.55 32.58C83.26 32.95 82.855 33.255 82.335 33.495C83.055 33.715 83.565 34.045 83.865 34.485C84.175 34.925 84.33 35.465 84.33 36.105C84.33 36.585 84.23 37.015 84.03 37.395C83.83 37.765 83.54 38.08 83.16 38.34C82.79 38.6 82.335 38.8 81.795 38.94C81.265 39.07 80.67 39.135 80.01 39.135ZM85.3049 40.455C85.4349 40.425 85.5699 40.37 85.7099 40.29C85.8599 40.21 85.9949 40.11 86.1149 39.99C86.2349 39.87 86.3299 39.74 86.3999 39.6C86.4799 39.46 86.5199 39.315 86.5199 39.165C86.5199 39.095 86.5149 39.04 86.5049 39C86.4549 39.01 86.3949 39.015 86.3249 39.015C86.1049 39.015 85.9149 38.945 85.7549 38.805C85.6049 38.665 85.5299 38.465 85.5299 38.205C85.5299 37.945 85.6099 37.74 85.7699 37.59C85.9299 37.43 86.1549 37.35 86.4449 37.35C86.7649 37.35 87.0249 37.46 87.2249 37.68C87.4349 37.89 87.5399 38.21 87.5399 38.64C87.5399 39.05 87.4849 39.4 87.3749 39.69C87.2649 39.98 87.1199 40.225 86.9399 40.425C86.7599 40.625 86.5549 40.78 86.3249 40.89C86.0949 41.01 85.8599 41.1 85.6199 41.16L85.3049 40.455ZM88.6311 33.75C88.6311 32.97 88.7211 32.255 88.9011 31.605C89.0811 30.945 89.3511 30.375 89.7111 29.895C90.0811 29.415 90.5461 29.04 91.1061 28.77C91.6661 28.5 92.3261 28.365 93.0861 28.365C93.8461 28.365 94.5061 28.49 95.0661 28.74C95.6261 28.99 96.0911 29.35 96.4611 29.82C96.8311 30.29 97.1061 30.86 97.2861 31.53C97.4661 32.19 97.5561 32.93 97.5561 33.75C97.5561 34.53 97.4661 35.25 97.2861 35.91C97.1161 36.56 96.8461 37.125 96.4761 37.605C96.1161 38.085 95.6561 38.46 95.0961 38.73C94.5361 39 93.8761 39.135 93.1161 39.135C92.3961 39.135 91.7561 39 91.1961 38.73C90.6361 38.46 90.1661 38.085 89.7861 37.605C89.4061 37.125 89.1161 36.56 88.9161 35.91C88.7261 35.25 88.6311 34.53 88.6311 33.75ZM89.9511 33.75C89.9511 35.03 90.2311 36.035 90.7911 36.765C91.3511 37.495 92.1261 37.86 93.1161 37.86C94.1961 37.86 94.9861 37.495 95.4861 36.765C95.9861 36.035 96.2361 35.03 96.2361 33.75C96.2361 32.47 95.9811 31.465 95.4711 30.735C94.9611 30.005 94.1661 29.64 93.0861 29.64C92.5461 29.64 92.0811 29.735 91.6911 29.925C91.3011 30.115 90.9761 30.39 90.7161 30.75C90.4561 31.11 90.2611 31.545 90.1311 32.055C90.0111 32.555 89.9511 33.12 89.9511 33.75Z" fill="#777F8C"/>
<path d="M133.63 16.9H127.165V15.94L133.78 8.5H134.89V15.625H136.84V16.9H134.89V19H133.63V16.9ZM133.63 15.625V10.6L128.965 15.625H133.63ZM137.378 20.455C137.508 20.425 137.643 20.37 137.783 20.29C137.933 20.21 138.068 20.11 138.188 19.99C138.308 19.87 138.403 19.74 138.473 19.6C138.553 19.46 138.593 19.315 138.593 19.165C138.593 19.095 138.588 19.04 138.578 19C138.528 19.01 138.468 19.015 138.398 19.015C138.178 19.015 137.988 18.945 137.828 18.805C137.678 18.665 137.603 18.465 137.603 18.205C137.603 17.945 137.683 17.74 137.843 17.59C138.003 17.43 138.228 17.35 138.518 17.35C138.838 17.35 139.098 17.46 139.298 17.68C139.508 17.89 139.613 18.21 139.613 18.64C139.613 19.05 139.558 19.4 139.448 19.69C139.338 19.98 139.193 20.225 139.013 20.425C138.833 20.625 138.628 20.78 138.398 20.89C138.168 21.01 137.933 21.1 137.693 21.16L137.378 20.455ZM145.309 13.015C145.649 13.015 145.964 12.975 146.254 12.895C146.554 12.805 146.814 12.685 147.034 12.535C147.254 12.385 147.424 12.205 147.544 11.995C147.674 11.785 147.739 11.555 147.739 11.305C147.739 10.765 147.514 10.355 147.064 10.075C146.624 9.785 145.949 9.64 145.039 9.64C144.159 9.64 143.494 9.785 143.044 10.075C142.604 10.365 142.384 10.775 142.384 11.305C142.384 11.545 142.444 11.77 142.564 11.98C142.684 12.19 142.849 12.375 143.059 12.535C143.279 12.685 143.539 12.805 143.839 12.895C144.149 12.975 144.484 13.015 144.844 13.015H145.309ZM144.904 14.2C144.484 14.2 144.094 14.25 143.734 14.35C143.384 14.44 143.084 14.57 142.834 14.74C142.584 14.9 142.389 15.095 142.249 15.325C142.109 15.545 142.039 15.78 142.039 16.03C142.039 16.57 142.289 17.01 142.789 17.35C143.299 17.69 144.054 17.86 145.054 17.86C146.084 17.86 146.844 17.7 147.334 17.38C147.824 17.05 148.069 16.605 148.069 16.045C148.069 15.455 147.814 15 147.304 14.68C146.804 14.36 146.129 14.2 145.279 14.2H144.904ZM145.069 19.135C144.399 19.135 143.794 19.07 143.254 18.94C142.724 18.8 142.269 18.605 141.889 18.355C141.519 18.095 141.229 17.785 141.019 17.425C140.819 17.055 140.719 16.635 140.719 16.165C140.719 15.545 140.904 15.01 141.274 14.56C141.654 14.1 142.159 13.77 142.789 13.57C142.489 13.47 142.229 13.34 142.009 13.18C141.789 13.01 141.609 12.82 141.469 12.61C141.329 12.4 141.224 12.18 141.154 11.95C141.094 11.71 141.064 11.465 141.064 11.215C141.064 10.345 141.404 9.655 142.084 9.145C142.774 8.625 143.764 8.365 145.054 8.365C146.354 8.365 147.344 8.625 148.024 9.145C148.714 9.655 149.059 10.345 149.059 11.215C149.059 11.755 148.909 12.21 148.609 12.58C148.319 12.95 147.914 13.255 147.394 13.495C148.114 13.715 148.624 14.045 148.924 14.485C149.234 14.925 149.389 15.465 149.389 16.105C149.389 16.585 149.289 17.015 149.089 17.395C148.889 17.765 148.599 18.08 148.219 18.34C147.849 18.6 147.394 18.8 146.854 18.94C146.324 19.07 145.729 19.135 145.069 19.135Z" fill="#777F8C"/>
<path d="M167.645 4.44H168.5V15H167.24V6.045L164.525 7.29L164.045 6.165L167.645 4.44ZM170.218 16.455C170.348 16.425 170.483 16.37 170.623 16.29C170.773 16.21 170.908 16.11 171.028 15.99C171.148 15.87 171.243 15.74 171.313 15.6C171.393 15.46 171.433 15.315 171.433 15.165C171.433 15.095 171.428 15.04 171.418 15C171.368 15.01 171.308 15.015 171.238 15.015C171.018 15.015 170.828 14.945 170.668 14.805C170.518 14.665 170.443 14.465 170.443 14.205C170.443 13.945 170.523 13.74 170.683 13.59C170.843 13.43 171.068 13.35 171.358 13.35C171.678 13.35 171.938 13.46 172.138 13.68C172.348 13.89 172.453 14.21 172.453 14.64C172.453 15.05 172.398 15.4 172.288 15.69C172.178 15.98 172.033 16.225 171.853 16.425C171.673 16.625 171.468 16.78 171.238 16.89C171.008 17.01 170.773 17.1 170.533 17.16L170.218 16.455ZM179.529 12.9H173.064V11.94L179.679 4.5H180.789V11.625H182.739V12.9H180.789V15H179.529V12.9ZM179.529 11.625V6.6L174.864 11.625H179.529Z" fill="#777F8C"/>
</svg>
