<svg viewBox="0 0 362 335" fill="none" xmlns="http://www.w3.org/2000/svg">
<path d="M155.171 163.027C155.358 161.82 156.276 160.392 158.299 160.392C159.727 160.392 160.849 161.004 160.849 162.687C160.849 164.319 159.506 165.832 156.106 168.093L153.522 169.81V171H162.787V169.555H156.208L157.517 168.739C159.557 167.464 162.345 165.475 162.345 162.534C162.345 160.426 160.9 158.947 158.401 158.947C155.732 158.947 154.253 160.613 153.845 162.585L155.171 163.027ZM164.135 165.05C164.135 168.569 165.937 171.153 169.218 171.153C172.686 171.153 174.25 168.569 174.25 165.05C174.25 161.31 172.635 158.947 169.184 158.947C165.75 158.947 164.135 161.531 164.135 165.05ZM165.631 165.05C165.631 162.194 166.753 160.392 169.184 160.392C171.632 160.392 172.754 162.143 172.754 165.05C172.754 167.94 171.666 169.708 169.218 169.708C166.991 169.708 165.631 167.94 165.631 165.05ZM177.135 163.027C177.322 161.82 178.24 160.392 180.263 160.392C181.691 160.392 182.813 161.004 182.813 162.687C182.813 164.319 181.47 165.832 178.07 168.093L175.486 169.81V171H184.751V169.555H178.172L179.481 168.739C181.521 167.464 184.309 165.475 184.309 162.534C184.309 160.426 182.864 158.947 180.365 158.947C177.696 158.947 176.217 160.613 175.809 162.585L177.135 163.027ZM185.419 160.987L185.963 162.262L189.04 160.851V171H190.468V159.032H189.499L185.419 160.987Z" fill="#222429"/>
<path d="M174.414 29.8672C206.591 29.8672 237.736 41.2186 262.367 61.9229C286.998 82.6273 303.535 111.357 309.067 143.055C314.599 174.753 308.772 207.386 292.61 235.21C276.449 263.033 250.99 284.264 220.716 295.163L213.77 275.872C239.504 266.607 261.144 248.562 274.881 224.911C288.618 201.261 293.571 173.523 288.869 146.58C284.167 119.637 270.11 95.2165 249.174 77.6178C228.238 60.0191 201.764 50.3704 174.414 50.3704V29.8672Z" fill="#BFCED4"/>
<path d="M220.712 295.164C192.004 305.499 160.663 305.931 131.681 296.392C102.698 286.853 77.7409 267.892 60.7825 242.527L77.8272 231.131C92.2419 252.691 113.456 268.809 138.091 276.917C162.726 285.025 189.365 284.658 213.768 275.873L220.712 295.164Z" fill="#003E14"/>
<path d="M41.2448 135.739C46.4321 113.323 57.1938 92.5791 72.5326 75.4298L87.8148 89.0987C74.7768 103.676 65.6293 121.308 61.2202 140.361L41.2448 135.739Z" fill="#A3CF46"/>
<path d="M72.5122 75.4527C87.6637 58.5052 106.803 45.6043 128.197 37.9178L135.129 57.2135C116.944 63.747 100.676 74.7128 87.7975 89.1181L72.5122 75.4527Z" fill="#648494"/>
<path d="M127.976 37.9973C140.531 33.4622 153.682 30.7907 167.012 30.0678L168.122 50.5409C156.792 51.1554 145.613 53.4262 134.942 57.281L127.976 37.9973Z" fill="#4B5366"/>
<path d="M166.8 30.0794C169.858 29.9088 172.921 29.841 175.984 29.8762L175.748 50.3781C173.145 50.3482 170.542 50.4058 167.942 50.5508L166.8 30.0794Z" fill="#222429"/>
<path d="M60.7931 242.543C50.4125 227.021 43.3223 209.537 39.9598 191.169C36.5974 172.801 37.0342 153.939 41.243 135.746L61.2187 140.368C57.6411 155.831 57.2699 171.864 60.128 187.477C62.986 203.089 69.0127 217.951 77.8362 231.145L60.7931 242.543Z" fill="#5FAF2D"/>
<path d="M319.759 222.712H313.294V221.752L319.909 214.312H321.019V221.437H322.969V222.712H321.019V224.812H319.759V222.712ZM319.759 221.437V216.412L315.094 221.437H319.759ZM329.687 222.712H323.222V221.752L329.837 214.312H330.947V221.437H332.897V222.712H330.947V224.812H329.687V222.712ZM329.687 221.437V216.412L325.022 221.437H329.687ZM333.735 223.957C333.735 223.757 333.82 223.567 333.99 223.387C334.16 223.207 334.385 223.117 334.665 223.117C334.925 223.117 335.14 223.207 335.31 223.387C335.48 223.567 335.565 223.757 335.565 223.957C335.565 224.187 335.48 224.392 335.31 224.572C335.14 224.752 334.925 224.843 334.665 224.843C334.385 224.843 334.16 224.752 333.99 224.572C333.82 224.392 333.735 224.187 333.735 223.957ZM337.87 214.312H344.47V215.587H339.025L338.635 218.407C338.865 218.237 339.175 218.097 339.565 217.987C339.965 217.867 340.45 217.807 341.02 217.807C341.65 217.807 342.21 217.897 342.7 218.077C343.19 218.257 343.6 218.507 343.93 218.827C344.26 219.147 344.51 219.522 344.68 219.952C344.86 220.382 344.95 220.842 344.95 221.332C344.95 221.862 344.845 222.347 344.635 222.787C344.435 223.227 344.15 223.607 343.78 223.927C343.42 224.247 342.99 224.497 342.49 224.677C342 224.858 341.465 224.948 340.885 224.948C340.405 224.948 339.945 224.893 339.505 224.782C339.065 224.672 338.655 224.507 338.275 224.287C337.905 224.067 337.575 223.802 337.285 223.492C337.005 223.172 336.78 222.802 336.61 222.382L337.81 221.872C337.91 222.102 338.05 222.327 338.23 222.547C338.41 222.757 338.63 222.947 338.89 223.117C339.15 223.287 339.445 223.422 339.775 223.522C340.105 223.622 340.475 223.672 340.885 223.672C341.345 223.672 341.745 223.612 342.085 223.492C342.435 223.362 342.725 223.192 342.955 222.982C343.185 222.772 343.355 222.532 343.465 222.262C343.575 221.982 343.63 221.687 343.63 221.377C343.63 220.667 343.365 220.107 342.835 219.697C342.315 219.287 341.59 219.082 340.66 219.082C340.13 219.082 339.685 219.157 339.325 219.307C338.975 219.447 338.645 219.672 338.335 219.982L337.255 219.697L337.87 214.312Z" fill="#777F8C"/>
<path d="M125.119 316.325C125.209 315.895 125.359 315.485 125.569 315.095C125.779 314.705 126.049 314.365 126.379 314.075C126.709 313.775 127.104 313.54 127.564 313.37C128.024 313.2 128.549 313.115 129.139 313.115C129.689 313.115 130.179 313.195 130.609 313.355C131.039 313.505 131.404 313.72 131.704 314C132.004 314.28 132.229 314.615 132.379 315.005C132.539 315.395 132.619 315.82 132.619 316.28C132.619 316.93 132.479 317.53 132.199 318.08C131.929 318.62 131.584 319.115 131.164 319.565C130.744 320.015 130.284 320.425 129.784 320.795C129.284 321.155 128.809 321.475 128.359 321.755L127.204 322.475H133.009V323.75H124.834V322.7L127.114 321.185C127.864 320.685 128.504 320.225 129.034 319.805C129.564 319.375 129.994 318.97 130.324 318.59C130.664 318.21 130.909 317.845 131.059 317.495C131.219 317.135 131.299 316.775 131.299 316.415C131.299 316.045 131.239 315.73 131.119 315.47C131.009 315.21 130.849 315 130.639 314.84C130.439 314.68 130.199 314.565 129.919 314.495C129.649 314.425 129.359 314.39 129.049 314.39C128.599 314.39 128.209 314.46 127.879 314.6C127.559 314.74 127.284 314.925 127.054 315.155C126.834 315.375 126.659 315.625 126.529 315.905C126.409 316.175 126.329 316.445 126.289 316.715L125.119 316.325ZM137.048 313.19H137.903V323.75H136.643V314.795L133.928 316.04L133.448 314.915L137.048 313.19ZM139.921 322.895C139.921 322.695 140.006 322.505 140.176 322.325C140.346 322.145 140.571 322.055 140.851 322.055C141.111 322.055 141.326 322.145 141.496 322.325C141.666 322.505 141.751 322.695 141.751 322.895C141.751 323.125 141.666 323.33 141.496 323.51C141.326 323.69 141.111 323.78 140.851 323.78C140.571 323.78 140.346 323.69 140.176 323.51C140.006 323.33 139.921 323.125 139.921 322.895ZM145.991 313.19H146.846V323.75H145.586V314.795L142.871 316.04L142.391 314.915L145.991 313.19Z" fill="#777F8C"/>
<path d="M3.645 194.44H4.5V205H3.24V196.045L0.525 197.29L0.045 196.165L3.645 194.44ZM6.32297 197.05C6.46297 196.66 6.65297 196.305 6.89297 195.985C7.13297 195.655 7.42297 195.37 7.76297 195.13C8.11297 194.89 8.51297 194.705 8.96297 194.575C9.42297 194.435 9.93797 194.365 10.508 194.365C11.018 194.365 11.488 194.43 11.918 194.56C12.358 194.68 12.733 194.855 13.043 195.085C13.363 195.305 13.608 195.58 13.778 195.91C13.958 196.24 14.048 196.605 14.048 197.005C14.048 197.615 13.888 198.135 13.568 198.565C13.258 198.995 12.803 199.295 12.203 199.465C12.463 199.485 12.718 199.55 12.968 199.66C13.218 199.76 13.438 199.915 13.628 200.125C13.828 200.325 13.988 200.58 14.108 200.89C14.228 201.19 14.288 201.55 14.288 201.97C14.288 202.48 14.188 202.935 13.988 203.335C13.798 203.725 13.528 204.055 13.178 204.325C12.838 204.585 12.433 204.785 11.963 204.925C11.493 205.065 10.988 205.135 10.448 205.135C9.85797 205.135 9.31797 205.065 8.82797 204.925C8.34797 204.785 7.92297 204.595 7.55297 204.355C7.18297 204.105 6.86797 203.81 6.60797 203.47C6.35797 203.12 6.16797 202.735 6.03797 202.315L7.25297 201.79C7.38297 202.06 7.53797 202.32 7.71797 202.57C7.89797 202.82 8.11797 203.04 8.37797 203.23C8.63797 203.42 8.94297 203.575 9.29297 203.695C9.64297 203.805 10.058 203.86 10.538 203.86C11.288 203.86 11.878 203.7 12.308 203.38C12.748 203.05 12.968 202.585 12.968 201.985C12.968 201.655 12.898 201.38 12.758 201.16C12.618 200.93 12.423 200.75 12.173 200.62C11.923 200.48 11.628 200.385 11.288 200.335C10.958 200.275 10.598 200.245 10.208 200.245H9.03797V199H9.96797C10.838 199 11.513 198.835 11.993 198.505C12.483 198.175 12.728 197.76 12.728 197.26C12.728 196.72 12.523 196.315 12.113 196.045C11.703 195.775 11.148 195.64 10.448 195.64C10.018 195.64 9.63797 195.695 9.30797 195.805C8.97797 195.915 8.68797 196.06 8.43797 196.24C8.19797 196.42 7.99297 196.625 7.82297 196.855C7.66297 197.085 7.53797 197.32 7.44797 197.56L6.32297 197.05ZM15.6258 204.145C15.6258 203.945 15.7108 203.755 15.8808 203.575C16.0508 203.395 16.2758 203.305 16.5558 203.305C16.8158 203.305 17.0308 203.395 17.2008 203.575C17.3708 203.755 17.4558 203.945 17.4558 204.145C17.4558 204.375 17.3708 204.58 17.2008 204.76C17.0308 204.94 16.8158 205.03 16.5558 205.03C16.2758 205.03 16.0508 204.94 15.8808 204.76C15.7108 204.58 15.6258 204.375 15.6258 204.145ZM18.696 199.75C18.696 198.97 18.786 198.255 18.966 197.605C19.146 196.945 19.416 196.375 19.776 195.895C20.146 195.415 20.611 195.04 21.171 194.77C21.731 194.5 22.391 194.365 23.151 194.365C23.911 194.365 24.571 194.49 25.131 194.74C25.691 194.99 26.156 195.35 26.526 195.82C26.896 196.29 27.171 196.86 27.351 197.53C27.531 198.19 27.621 198.93 27.621 199.75C27.621 200.53 27.531 201.25 27.351 201.91C27.181 202.56 26.911 203.125 26.541 203.605C26.181 204.085 25.721 204.46 25.161 204.73C24.601 205 23.941 205.135 23.181 205.135C22.461 205.135 21.821 205 21.261 204.73C20.701 204.46 20.231 204.085 19.851 203.605C19.471 203.125 19.181 202.56 18.981 201.91C18.791 201.25 18.696 200.53 18.696 199.75ZM20.016 199.75C20.016 201.03 20.296 202.035 20.856 202.765C21.416 203.495 22.191 203.86 23.181 203.86C24.261 203.86 25.051 203.495 25.551 202.765C26.051 202.035 26.301 201.03 26.301 199.75C26.301 198.47 26.046 197.465 25.536 196.735C25.026 196.005 24.231 195.64 23.151 195.64C22.611 195.64 22.146 195.735 21.756 195.925C21.366 196.115 21.041 196.39 20.781 196.75C20.521 197.11 20.326 197.545 20.196 198.055C20.076 198.555 20.016 199.12 20.016 199.75Z" fill="#777F8C"/>
<path d="M20.3 89.5H28.265V90.355L23.045 100H21.62L26.66 90.775H20.3V89.5ZM28.2611 99.145C28.2611 98.945 28.3461 98.755 28.5161 98.575C28.6861 98.395 28.9111 98.305 29.1911 98.305C29.4511 98.305 29.6661 98.395 29.8361 98.575C30.0061 98.755 30.0911 98.945 30.0911 99.145C30.0911 99.375 30.0061 99.58 29.8361 99.76C29.6661 99.94 29.4511 100.03 29.1911 100.03C28.9111 100.03 28.6861 99.94 28.5161 99.76C28.3461 99.58 28.2611 99.375 28.2611 99.145ZM35.3663 100.135C34.4563 100.135 33.6763 99.96 33.0263 99.61C32.3863 99.26 31.9063 98.815 31.5863 98.275L32.6663 97.525C32.9763 97.955 33.3813 98.285 33.8813 98.515C34.3913 98.745 34.9463 98.86 35.5463 98.86C36.0063 98.86 36.4263 98.77 36.8063 98.59C37.1963 98.4 37.5313 98.14 37.8113 97.81C38.1013 97.48 38.3263 97.09 38.4863 96.64C38.6463 96.19 38.7263 95.7 38.7263 95.17C38.7263 95.11 38.7263 95.05 38.7263 94.99C38.7263 94.93 38.7213 94.87 38.7113 94.81C38.4713 95.38 38.0613 95.855 37.4813 96.235C36.9113 96.605 36.1863 96.79 35.3063 96.79C34.7263 96.79 34.1913 96.705 33.7013 96.535C33.2113 96.355 32.7863 96.11 32.4263 95.8C32.0663 95.48 31.7863 95.1 31.5863 94.66C31.3863 94.22 31.2863 93.73 31.2863 93.19C31.2863 92.61 31.3913 92.085 31.6013 91.615C31.8213 91.135 32.1263 90.73 32.5163 90.4C32.9063 90.07 33.3713 89.815 33.9113 89.635C34.4613 89.455 35.0663 89.365 35.7263 89.365C36.3963 89.365 36.9963 89.48 37.5263 89.71C38.0663 89.93 38.5213 90.26 38.8913 90.7C39.2713 91.14 39.5613 91.685 39.7613 92.335C39.9613 92.975 40.0613 93.715 40.0613 94.555C40.0613 95.475 39.9463 96.285 39.7163 96.985C39.4963 97.675 39.1763 98.255 38.7563 98.725C38.3463 99.185 37.8513 99.535 37.2713 99.775C36.7013 100.015 36.0663 100.135 35.3663 100.135ZM35.5463 95.515C35.9763 95.515 36.3663 95.455 36.7163 95.335C37.0663 95.215 37.3613 95.05 37.6013 94.84C37.8513 94.62 38.0413 94.365 38.1713 94.075C38.3013 93.785 38.3663 93.475 38.3663 93.145C38.3663 92.825 38.3163 92.515 38.2163 92.215C38.1163 91.915 37.9563 91.65 37.7363 91.42C37.5163 91.18 37.2263 90.99 36.8663 90.85C36.5163 90.71 36.0863 90.64 35.5763 90.64C34.6463 90.64 33.9163 90.85 33.3863 91.27C32.8663 91.68 32.6063 92.285 32.6063 93.085C32.6063 93.845 32.8713 94.44 33.4013 94.87C33.9313 95.3 34.6463 95.515 35.5463 95.515Z" fill="#777F8C"/>
<path d="M75.3 28.5H83.265V29.355L78.045 39H76.62L81.66 29.775H75.3V28.5ZM83.2611 38.145C83.2611 37.945 83.3461 37.755 83.5161 37.575C83.6861 37.395 83.9111 37.305 84.1911 37.305C84.4511 37.305 84.6661 37.395 84.8361 37.575C85.0061 37.755 85.0911 37.945 85.0911 38.145C85.0911 38.375 85.0061 38.58 84.8361 38.76C84.6661 38.94 84.4511 39.03 84.1911 39.03C83.9111 39.03 83.6861 38.94 83.5161 38.76C83.3461 38.58 83.2611 38.375 83.2611 38.145ZM90.3663 39.135C89.4563 39.135 88.6763 38.96 88.0263 38.61C87.3863 38.26 86.9063 37.815 86.5863 37.275L87.6663 36.525C87.9763 36.955 88.3813 37.285 88.8813 37.515C89.3913 37.745 89.9463 37.86 90.5463 37.86C91.0063 37.86 91.4263 37.77 91.8063 37.59C92.1963 37.4 92.5313 37.14 92.8113 36.81C93.1013 36.48 93.3263 36.09 93.4863 35.64C93.6463 35.19 93.7263 34.7 93.7263 34.17C93.7263 34.11 93.7263 34.05 93.7263 33.99C93.7263 33.93 93.7213 33.87 93.7113 33.81C93.4713 34.38 93.0613 34.855 92.4813 35.235C91.9113 35.605 91.1863 35.79 90.3063 35.79C89.7263 35.79 89.1913 35.705 88.7013 35.535C88.2113 35.355 87.7863 35.11 87.4263 34.8C87.0663 34.48 86.7863 34.1 86.5863 33.66C86.3863 33.22 86.2863 32.73 86.2863 32.19C86.2863 31.61 86.3913 31.085 86.6013 30.615C86.8213 30.135 87.1263 29.73 87.5163 29.4C87.9063 29.07 88.3713 28.815 88.9113 28.635C89.4613 28.455 90.0663 28.365 90.7263 28.365C91.3963 28.365 91.9963 28.48 92.5263 28.71C93.0663 28.93 93.5213 29.26 93.8913 29.7C94.2713 30.14 94.5613 30.685 94.7613 31.335C94.9613 31.975 95.0613 32.715 95.0613 33.555C95.0613 34.475 94.9463 35.285 94.7163 35.985C94.4963 36.675 94.1763 37.255 93.7563 37.725C93.3463 38.185 92.8513 38.535 92.2713 38.775C91.7013 39.015 91.0663 39.135 90.3663 39.135ZM90.5463 34.515C90.9763 34.515 91.3663 34.455 91.7163 34.335C92.0663 34.215 92.3613 34.05 92.6013 33.84C92.8513 33.62 93.0413 33.365 93.1713 33.075C93.3013 32.785 93.3663 32.475 93.3663 32.145C93.3663 31.825 93.3163 31.515 93.2163 31.215C93.1163 30.915 92.9563 30.65 92.7363 30.42C92.5163 30.18 92.2263 29.99 91.8663 29.85C91.5163 29.71 91.0863 29.64 90.5763 29.64C89.6463 29.64 88.9163 29.85 88.3863 30.27C87.8663 30.68 87.6063 31.285 87.6063 32.085C87.6063 32.845 87.8713 33.44 88.4013 33.87C88.9313 34.3 89.6463 34.515 90.5463 34.515Z" fill="#777F8C"/>
<path d="M133.63 16.9H127.165V15.94L133.78 8.5H134.89V15.625H136.84V16.9H134.89V19H133.63V16.9ZM133.63 15.625V10.6L128.965 15.625H133.63ZM137.678 18.145C137.678 17.945 137.763 17.755 137.933 17.575C138.103 17.395 138.328 17.305 138.608 17.305C138.868 17.305 139.083 17.395 139.253 17.575C139.423 17.755 139.508 17.945 139.508 18.145C139.508 18.375 139.423 18.58 139.253 18.76C139.083 18.94 138.868 19.03 138.608 19.03C138.328 19.03 138.103 18.94 137.933 18.76C137.763 18.58 137.678 18.375 137.678 18.145ZM140.658 11.05C140.798 10.66 140.988 10.305 141.228 9.985C141.468 9.655 141.758 9.37 142.098 9.13C142.448 8.89 142.848 8.705 143.298 8.575C143.758 8.435 144.273 8.365 144.843 8.365C145.353 8.365 145.823 8.43 146.253 8.56C146.693 8.68 147.068 8.855 147.378 9.085C147.698 9.305 147.943 9.58 148.113 9.91C148.293 10.24 148.383 10.605 148.383 11.005C148.383 11.615 148.223 12.135 147.903 12.565C147.593 12.995 147.138 13.295 146.538 13.465C146.798 13.485 147.053 13.55 147.303 13.66C147.553 13.76 147.773 13.915 147.963 14.125C148.163 14.325 148.323 14.58 148.443 14.89C148.563 15.19 148.623 15.55 148.623 15.97C148.623 16.48 148.523 16.935 148.323 17.335C148.133 17.725 147.863 18.055 147.513 18.325C147.173 18.585 146.768 18.785 146.298 18.925C145.828 19.065 145.323 19.135 144.783 19.135C144.193 19.135 143.653 19.065 143.163 18.925C142.683 18.785 142.258 18.595 141.888 18.355C141.518 18.105 141.203 17.81 140.943 17.47C140.693 17.12 140.503 16.735 140.373 16.315L141.588 15.79C141.718 16.06 141.873 16.32 142.053 16.57C142.233 16.82 142.453 17.04 142.713 17.23C142.973 17.42 143.278 17.575 143.628 17.695C143.978 17.805 144.393 17.86 144.873 17.86C145.623 17.86 146.213 17.7 146.643 17.38C147.083 17.05 147.303 16.585 147.303 15.985C147.303 15.655 147.233 15.38 147.093 15.16C146.953 14.93 146.758 14.75 146.508 14.62C146.258 14.48 145.963 14.385 145.623 14.335C145.293 14.275 144.933 14.245 144.543 14.245H143.373V13H144.303C145.173 13 145.848 12.835 146.328 12.505C146.818 12.175 147.063 11.76 147.063 11.26C147.063 10.72 146.858 10.315 146.448 10.045C146.038 9.775 145.483 9.64 144.783 9.64C144.353 9.64 143.973 9.695 143.643 9.805C143.313 9.915 143.023 10.06 142.773 10.24C142.533 10.42 142.328 10.625 142.158 10.855C141.998 11.085 141.873 11.32 141.783 11.56L140.658 11.05Z" fill="#777F8C"/>
<path d="M167.645 4.44H168.5V15H167.24V6.045L164.525 7.29L164.045 6.165L167.645 4.44ZM170.518 14.145C170.518 13.945 170.603 13.755 170.773 13.575C170.943 13.395 171.168 13.305 171.448 13.305C171.708 13.305 171.923 13.395 172.093 13.575C172.263 13.755 172.348 13.945 172.348 14.145C172.348 14.375 172.263 14.58 172.093 14.76C171.923 14.94 171.708 15.03 171.448 15.03C171.168 15.03 170.943 14.94 170.773 14.76C170.603 14.58 170.518 14.375 170.518 14.145ZM173.498 7.05C173.638 6.66 173.828 6.305 174.068 5.985C174.308 5.655 174.598 5.37 174.938 5.13C175.288 4.89 175.688 4.705 176.138 4.575C176.598 4.435 177.113 4.365 177.683 4.365C178.193 4.365 178.663 4.43 179.093 4.56C179.533 4.68 179.908 4.855 180.218 5.085C180.538 5.305 180.783 5.58 180.953 5.91C181.133 6.24 181.223 6.605 181.223 7.005C181.223 7.615 181.063 8.135 180.743 8.565C180.433 8.995 179.978 9.295 179.378 9.465C179.638 9.485 179.893 9.55 180.143 9.66C180.393 9.76 180.613 9.915 180.803 10.125C181.003 10.325 181.163 10.58 181.283 10.89C181.403 11.19 181.463 11.55 181.463 11.97C181.463 12.48 181.363 12.935 181.163 13.335C180.973 13.725 180.703 14.055 180.353 14.325C180.013 14.585 179.608 14.785 179.138 14.925C178.668 15.065 178.163 15.135 177.623 15.135C177.033 15.135 176.493 15.065 176.003 14.925C175.523 14.785 175.098 14.595 174.728 14.355C174.358 14.105 174.043 13.81 173.783 13.47C173.533 13.12 173.343 12.735 173.213 12.315L174.428 11.79C174.558 12.06 174.713 12.32 174.893 12.57C175.073 12.82 175.293 13.04 175.553 13.23C175.813 13.42 176.118 13.575 176.468 13.695C176.818 13.805 177.233 13.86 177.713 13.86C178.463 13.86 179.053 13.7 179.483 13.38C179.923 13.05 180.143 12.585 180.143 11.985C180.143 11.655 180.073 11.38 179.933 11.16C179.793 10.93 179.598 10.75 179.348 10.62C179.098 10.48 178.803 10.385 178.463 10.335C178.133 10.275 177.773 10.245 177.383 10.245H176.213V9H177.143C178.013 9 178.688 8.835 179.168 8.505C179.658 8.175 179.903 7.76 179.903 7.26C179.903 6.72 179.698 6.315 179.288 6.045C178.878 5.775 178.323 5.64 177.623 5.64C177.193 5.64 176.813 5.695 176.483 5.805C176.153 5.915 175.863 6.06 175.613 6.24C175.373 6.42 175.168 6.625 174.998 6.855C174.838 7.085 174.713 7.32 174.623 7.56L173.498 7.05Z" fill="#777F8C"/>
</svg>
