<svg viewBox="0 0 536 269" fill="none" xmlns="http://www.w3.org/2000/svg">
<path d="M72.8221 261.07C72.9061 260.669 73.0461 260.286 73.2421 259.922C73.4381 259.558 73.6901 259.241 73.9981 258.97C74.3061 258.69 74.6748 258.471 75.1041 258.312C75.5334 258.153 76.0234 258.074 76.5741 258.074C77.0874 258.074 77.5448 258.149 77.9461 258.298C78.3474 258.438 78.6881 258.639 78.9681 258.9C79.2481 259.161 79.4581 259.474 79.5981 259.838C79.7474 260.202 79.8221 260.599 79.8221 261.028C79.8221 261.635 79.6914 262.195 79.4301 262.708C79.1781 263.212 78.8561 263.674 78.4641 264.094C78.0721 264.514 77.6428 264.897 77.1761 265.242C76.7094 265.578 76.2661 265.877 75.8461 266.138L74.7681 266.81H80.1861V268H72.5561V267.02L74.6841 265.606C75.3841 265.139 75.9814 264.71 76.4761 264.318C76.9708 263.917 77.3721 263.539 77.6801 263.184C77.9974 262.829 78.2261 262.489 78.3661 262.162C78.5154 261.826 78.5901 261.49 78.5901 261.154C78.5901 260.809 78.5341 260.515 78.4221 260.272C78.3194 260.029 78.1701 259.833 77.9741 259.684C77.7874 259.535 77.5634 259.427 77.3021 259.362C77.0501 259.297 76.7794 259.264 76.4901 259.264C76.0701 259.264 75.7061 259.329 75.3981 259.46C75.0994 259.591 74.8428 259.763 74.6281 259.978C74.4228 260.183 74.2594 260.417 74.1381 260.678C74.0261 260.93 73.9514 261.182 73.9141 261.434L72.8221 261.07ZM81.1564 263.1C81.1564 262.372 81.2404 261.705 81.4084 261.098C81.5764 260.482 81.8284 259.95 82.1644 259.502C82.5097 259.054 82.9437 258.704 83.4664 258.452C83.989 258.2 84.605 258.074 85.3144 258.074C86.0237 258.074 86.6397 258.191 87.1624 258.424C87.685 258.657 88.119 258.993 88.4644 259.432C88.8097 259.871 89.0664 260.403 89.2344 261.028C89.4024 261.644 89.4864 262.335 89.4864 263.1C89.4864 263.828 89.4024 264.5 89.2344 265.116C89.0757 265.723 88.8237 266.25 88.4784 266.698C88.1424 267.146 87.713 267.496 87.1904 267.748C86.6677 268 86.0517 268.126 85.3424 268.126C84.6704 268.126 84.073 268 83.5504 267.748C83.0277 267.496 82.589 267.146 82.2344 266.698C81.8797 266.25 81.609 265.723 81.4224 265.116C81.245 264.5 81.1564 263.828 81.1564 263.1ZM82.3884 263.1C82.3884 264.295 82.6497 265.233 83.1724 265.914C83.695 266.595 84.4184 266.936 85.3424 266.936C86.3504 266.936 87.0877 266.595 87.5544 265.914C88.021 265.233 88.2544 264.295 88.2544 263.1C88.2544 261.905 88.0164 260.967 87.5404 260.286C87.0644 259.605 86.3224 259.264 85.3144 259.264C84.8104 259.264 84.3764 259.353 84.0124 259.53C83.6484 259.707 83.345 259.964 83.1024 260.3C82.8597 260.636 82.6777 261.042 82.5564 261.518C82.4444 261.985 82.3884 262.512 82.3884 263.1ZM90.63 261.07C90.714 260.669 90.854 260.286 91.05 259.922C91.246 259.558 91.498 259.241 91.806 258.97C92.114 258.69 92.4827 258.471 92.912 258.312C93.3413 258.153 93.8313 258.074 94.382 258.074C94.8953 258.074 95.3527 258.149 95.754 258.298C96.1553 258.438 96.496 258.639 96.776 258.9C97.056 259.161 97.266 259.474 97.406 259.838C97.5553 260.202 97.63 260.599 97.63 261.028C97.63 261.635 97.4993 262.195 97.238 262.708C96.986 263.212 96.664 263.674 96.272 264.094C95.88 264.514 95.4507 264.897 94.984 265.242C94.5173 265.578 94.074 265.877 93.654 266.138L92.576 266.81H97.994V268H90.364V267.02L92.492 265.606C93.192 265.139 93.7893 264.71 94.284 264.318C94.7787 263.917 95.18 263.539 95.488 263.184C95.8053 262.829 96.034 262.489 96.174 262.162C96.3233 261.826 96.398 261.49 96.398 261.154C96.398 260.809 96.342 260.515 96.23 260.272C96.1273 260.029 95.978 259.833 95.782 259.684C95.5953 259.535 95.3713 259.427 95.11 259.362C94.858 259.297 94.5873 259.264 94.298 259.264C93.878 259.264 93.514 259.329 93.206 259.46C92.9073 259.591 92.6507 259.763 92.436 259.978C92.2307 260.183 92.0673 260.417 91.946 260.678C91.834 260.93 91.7593 261.182 91.722 261.434L90.63 261.07ZM98.9643 263.1C98.9643 262.372 99.0483 261.705 99.2163 261.098C99.3843 260.482 99.6363 259.95 99.9723 259.502C100.318 259.054 100.752 258.704 101.274 258.452C101.797 258.2 102.413 258.074 103.122 258.074C103.832 258.074 104.448 258.191 104.97 258.424C105.493 258.657 105.927 258.993 106.272 259.432C106.618 259.871 106.874 260.403 107.042 261.028C107.21 261.644 107.294 262.335 107.294 263.1C107.294 263.828 107.21 264.5 107.042 265.116C106.884 265.723 106.632 266.25 106.286 266.698C105.95 267.146 105.521 267.496 104.998 267.748C104.476 268 103.86 268.126 103.15 268.126C102.478 268.126 101.881 268 101.358 267.748C100.836 267.496 100.397 267.146 100.042 266.698C99.6876 266.25 99.4169 265.723 99.2303 265.116C99.0529 264.5 98.9643 263.828 98.9643 263.1ZM100.196 263.1C100.196 264.295 100.458 265.233 100.98 265.914C101.503 266.595 102.226 266.936 103.15 266.936C104.158 266.936 104.896 266.595 105.362 265.914C105.829 265.233 106.062 264.295 106.062 263.1C106.062 261.905 105.824 260.967 105.348 260.286C104.872 259.605 104.13 259.264 103.122 259.264C102.618 259.264 102.184 259.353 101.82 259.53C101.456 259.707 101.153 259.964 100.91 260.3C100.668 260.636 100.486 261.042 100.364 261.518C100.252 261.985 100.196 262.512 100.196 263.1Z" fill="#777F8C"/>
<rect x="60" y="89" width="60" height="159" fill="#BFCED4"/>
<rect x="60" y="89" width="60" height="4" fill="#A6B2BC"/>
<path d="M77.629 68.032H78.598V80H77.17V69.851L74.093 71.262L73.549 69.987L77.629 68.032ZM85.5091 80.153C84.4777 80.153 83.5937 79.9547 82.8571 79.558C82.1317 79.1613 81.5877 78.657 81.2251 78.045L82.4491 77.195C82.8004 77.6823 83.2594 78.0563 83.8261 78.317C84.4041 78.5777 85.0331 78.708 85.7131 78.708C86.2344 78.708 86.7104 78.606 87.1411 78.402C87.5831 78.1867 87.9627 77.892 88.2801 77.518C88.6087 77.144 88.8637 76.702 89.0451 76.192C89.2264 75.682 89.3171 75.1267 89.3171 74.526C89.3171 74.458 89.3171 74.39 89.3171 74.322C89.3171 74.254 89.3114 74.186 89.3001 74.118C89.0281 74.764 88.5634 75.3023 87.9061 75.733C87.2601 76.1523 86.4384 76.362 85.4411 76.362C84.7837 76.362 84.1774 76.2657 83.6221 76.073C83.0667 75.869 82.5851 75.5913 82.1771 75.24C81.7691 74.8773 81.4517 74.4467 81.2251 73.948C80.9984 73.4493 80.8851 72.894 80.8851 72.282C80.8851 71.6247 81.0041 71.0297 81.2421 70.497C81.4914 69.953 81.8371 69.494 82.2791 69.12C82.7211 68.746 83.2481 68.457 83.8601 68.253C84.4834 68.049 85.1691 67.947 85.9171 67.947C86.6764 67.947 87.3564 68.0773 87.9571 68.338C88.5691 68.5873 89.0847 68.9613 89.5041 69.46C89.9347 69.9587 90.2634 70.5763 90.4901 71.313C90.7167 72.0383 90.8301 72.877 90.8301 73.829C90.8301 74.8717 90.6997 75.7897 90.4391 76.583C90.1897 77.365 89.8271 78.0223 89.3511 78.555C88.8864 79.0763 88.3254 79.473 87.6681 79.745C87.0221 80.017 86.3024 80.153 85.5091 80.153ZM85.7131 74.917C86.2004 74.917 86.6424 74.849 87.0391 74.713C87.4357 74.577 87.7701 74.39 88.0421 74.152C88.3254 73.9027 88.5407 73.6137 88.6881 73.285C88.8354 72.9563 88.9091 72.605 88.9091 72.231C88.9091 71.8683 88.8524 71.517 88.7391 71.177C88.6257 70.837 88.4444 70.5367 88.1951 70.276C87.9457 70.004 87.6171 69.7887 87.2091 69.63C86.8124 69.4713 86.3251 69.392 85.7471 69.392C84.6931 69.392 83.8657 69.63 83.2651 70.106C82.6757 70.5707 82.3811 71.2563 82.3811 72.163C82.3811 73.0243 82.6814 73.6987 83.2821 74.186C83.8827 74.6733 84.6931 74.917 85.7131 74.917ZM102.9 67.726L103.971 68.508L95.2329 80.255L94.1109 79.609L102.9 67.726ZM92.2749 70.956C92.2749 70.5253 92.3543 70.1343 92.5129 69.783C92.6716 69.4203 92.8869 69.1143 93.1589 68.865C93.4423 68.6043 93.7709 68.406 94.1449 68.27C94.5303 68.1227 94.9439 68.049 95.3859 68.049C95.8279 68.049 96.2359 68.1227 96.6099 68.27C96.9839 68.406 97.3069 68.6043 97.5789 68.865C97.8623 69.1143 98.0833 69.4203 98.2419 69.783C98.4006 70.1343 98.4799 70.5253 98.4799 70.956C98.4799 71.3867 98.4006 71.7777 98.2419 72.129C98.0833 72.4803 97.8623 72.7863 97.5789 73.047C97.3069 73.2963 96.9839 73.4947 96.6099 73.642C96.2359 73.778 95.8279 73.846 95.3859 73.846C94.9439 73.846 94.5303 73.778 94.1449 73.642C93.7709 73.4947 93.4423 73.2963 93.1589 73.047C92.8869 72.7863 92.6716 72.4803 92.5129 72.129C92.3543 71.7777 92.2749 71.3867 92.2749 70.956ZM93.7029 70.956C93.7029 71.2167 93.7483 71.449 93.8389 71.653C93.9409 71.857 94.0656 72.0327 94.2129 72.18C94.3716 72.3273 94.5529 72.4407 94.7569 72.52C94.9609 72.5993 95.1706 72.639 95.3859 72.639C95.8279 72.639 96.2133 72.486 96.5419 72.18C96.8819 71.874 97.0519 71.466 97.0519 70.956C97.0519 70.446 96.8819 70.038 96.5419 69.732C96.2133 69.426 95.8279 69.273 95.3859 69.273C94.9326 69.273 94.5359 69.426 94.1959 69.732C93.8673 70.038 93.7029 70.446 93.7029 70.956ZM99.5679 77.161C99.5679 76.7417 99.6473 76.3563 99.8059 76.005C99.9646 75.6423 100.18 75.3363 100.452 75.087C100.735 74.8263 101.064 74.628 101.438 74.492C101.823 74.3447 102.237 74.271 102.679 74.271C103.121 74.271 103.529 74.3447 103.903 74.492C104.277 74.628 104.6 74.8263 104.872 75.087C105.155 75.3363 105.376 75.6423 105.535 76.005C105.694 76.3563 105.773 76.7417 105.773 77.161C105.773 77.5917 105.694 77.9827 105.535 78.334C105.376 78.6853 105.155 78.9913 104.872 79.252C104.6 79.5127 104.277 79.7167 103.903 79.864C103.529 80 103.121 80.068 102.679 80.068C102.237 80.068 101.823 80 101.438 79.864C101.064 79.7167 100.735 79.5127 100.452 79.252C100.18 78.9913 99.9646 78.6853 99.8059 78.334C99.6473 77.9827 99.5679 77.5917 99.5679 77.161ZM100.996 77.161C100.996 77.4217 101.041 77.654 101.132 77.858C101.234 78.062 101.359 78.2377 101.506 78.385C101.665 78.5323 101.846 78.6457 102.05 78.725C102.254 78.8043 102.464 78.844 102.679 78.844C103.121 78.844 103.506 78.691 103.835 78.385C104.175 78.079 104.345 77.671 104.345 77.161C104.345 76.651 104.175 76.243 103.835 75.937C103.506 75.631 103.121 75.478 102.679 75.478C102.226 75.478 101.829 75.631 101.489 75.937C101.16 76.243 100.996 76.651 100.996 77.161Z" fill="#222429"/>
<path d="M184.818 261.07C184.902 260.669 185.042 260.286 185.238 259.922C185.434 259.558 185.686 259.241 185.994 258.97C186.302 258.69 186.671 258.471 187.1 258.312C187.53 258.153 188.02 258.074 188.57 258.074C189.084 258.074 189.541 258.149 189.942 258.298C190.344 258.438 190.684 258.639 190.964 258.9C191.244 259.161 191.454 259.474 191.594 259.838C191.744 260.202 191.818 260.599 191.818 261.028C191.818 261.635 191.688 262.195 191.426 262.708C191.174 263.212 190.852 263.674 190.46 264.094C190.068 264.514 189.639 264.897 189.172 265.242C188.706 265.578 188.262 265.877 187.842 266.138L186.764 266.81H192.182V268H184.552V267.02L186.68 265.606C187.38 265.139 187.978 264.71 188.472 264.318C188.967 263.917 189.368 263.539 189.676 263.184C189.994 262.829 190.222 262.489 190.362 262.162C190.512 261.826 190.586 261.49 190.586 261.154C190.586 260.809 190.53 260.515 190.418 260.272C190.316 260.029 190.166 259.833 189.97 259.684C189.784 259.535 189.56 259.427 189.298 259.362C189.046 259.297 188.776 259.264 188.486 259.264C188.066 259.264 187.702 259.329 187.394 259.46C187.096 259.591 186.839 259.763 186.624 259.978C186.419 260.183 186.256 260.417 186.134 260.678C186.022 260.93 185.948 261.182 185.91 261.434L184.818 261.07ZM193.152 263.1C193.152 262.372 193.236 261.705 193.404 261.098C193.572 260.482 193.824 259.95 194.16 259.502C194.506 259.054 194.94 258.704 195.462 258.452C195.985 258.2 196.601 258.074 197.31 258.074C198.02 258.074 198.636 258.191 199.158 258.424C199.681 258.657 200.115 258.993 200.46 259.432C200.806 259.871 201.062 260.403 201.23 261.028C201.398 261.644 201.482 262.335 201.482 263.1C201.482 263.828 201.398 264.5 201.23 265.116C201.072 265.723 200.82 266.25 200.474 266.698C200.138 267.146 199.709 267.496 199.186 267.748C198.664 268 198.048 268.126 197.338 268.126C196.666 268.126 196.069 268 195.546 267.748C195.024 267.496 194.585 267.146 194.23 266.698C193.876 266.25 193.605 265.723 193.418 265.116C193.241 264.5 193.152 263.828 193.152 263.1ZM194.384 263.1C194.384 264.295 194.646 265.233 195.168 265.914C195.691 266.595 196.414 266.936 197.338 266.936C198.346 266.936 199.084 266.595 199.55 265.914C200.017 265.233 200.25 264.295 200.25 263.1C200.25 261.905 200.012 260.967 199.536 260.286C199.06 259.605 198.318 259.264 197.31 259.264C196.806 259.264 196.372 259.353 196.008 259.53C195.644 259.707 195.341 259.964 195.098 260.3C194.856 260.636 194.674 261.042 194.552 261.518C194.44 261.985 194.384 262.512 194.384 263.1ZM202.626 261.07C202.71 260.669 202.85 260.286 203.046 259.922C203.242 259.558 203.494 259.241 203.802 258.97C204.11 258.69 204.479 258.471 204.908 258.312C205.337 258.153 205.827 258.074 206.378 258.074C206.891 258.074 207.349 258.149 207.75 258.298C208.151 258.438 208.492 258.639 208.772 258.9C209.052 259.161 209.262 259.474 209.402 259.838C209.551 260.202 209.626 260.599 209.626 261.028C209.626 261.635 209.495 262.195 209.234 262.708C208.982 263.212 208.66 263.674 208.268 264.094C207.876 264.514 207.447 264.897 206.98 265.242C206.513 265.578 206.07 265.877 205.65 266.138L204.572 266.81H209.99V268H202.36V267.02L204.488 265.606C205.188 265.139 205.785 264.71 206.28 264.318C206.775 263.917 207.176 263.539 207.484 263.184C207.801 262.829 208.03 262.489 208.17 262.162C208.319 261.826 208.394 261.49 208.394 261.154C208.394 260.809 208.338 260.515 208.226 260.272C208.123 260.029 207.974 259.833 207.778 259.684C207.591 259.535 207.367 259.427 207.106 259.362C206.854 259.297 206.583 259.264 206.294 259.264C205.874 259.264 205.51 259.329 205.202 259.46C204.903 259.591 204.647 259.763 204.432 259.978C204.227 260.183 204.063 260.417 203.942 260.678C203.83 260.93 203.755 261.182 203.718 261.434L202.626 261.07ZM213.76 258.144H214.558V268H213.382V259.642L210.848 260.804L210.4 259.754L213.76 258.144Z" fill="#777F8C"/>
<rect x="170" y="72" width="60" height="176" fill="#BFCED4"/>
<rect x="170" y="72" width="60" height="4" fill="#A6B2BC"/>
<path d="M184.813 54.585C184.915 54.0977 185.085 53.633 185.323 53.191C185.561 52.749 185.867 52.3637 186.241 52.035C186.615 51.695 187.063 51.4287 187.584 51.236C188.105 51.0433 188.7 50.947 189.369 50.947C189.992 50.947 190.548 51.0377 191.035 51.219C191.522 51.389 191.936 51.6327 192.276 51.95C192.616 52.2673 192.871 52.647 193.041 53.089C193.222 53.531 193.313 54.0127 193.313 54.534C193.313 55.2707 193.154 55.9507 192.837 56.574C192.531 57.186 192.14 57.747 191.664 58.257C191.188 58.767 190.667 59.2317 190.1 59.651C189.533 60.059 188.995 60.4217 188.485 60.739L187.176 61.555H193.755V63H184.49V61.81L187.074 60.093C187.924 59.5263 188.649 59.005 189.25 58.529C189.851 58.0417 190.338 57.5827 190.712 57.152C191.097 56.7213 191.375 56.3077 191.545 55.911C191.726 55.503 191.817 55.095 191.817 54.687C191.817 54.2677 191.749 53.9107 191.613 53.616C191.488 53.3213 191.307 53.0833 191.069 52.902C190.842 52.7207 190.57 52.5903 190.253 52.511C189.947 52.4317 189.618 52.392 189.267 52.392C188.757 52.392 188.315 52.4713 187.941 52.63C187.578 52.7887 187.267 52.9983 187.006 53.259C186.757 53.5083 186.558 53.7917 186.411 54.109C186.275 54.415 186.184 54.721 186.139 55.027L184.813 54.585ZM198.503 51.032H199.472V63H198.044V52.851L194.967 54.262L194.423 52.987L198.503 51.032ZM212.435 50.726L213.506 51.508L204.768 63.255L203.646 62.609L212.435 50.726ZM201.81 53.956C201.81 53.5253 201.889 53.1343 202.048 52.783C202.207 52.4203 202.422 52.1143 202.694 51.865C202.977 51.6043 203.306 51.406 203.68 51.27C204.065 51.1227 204.479 51.049 204.921 51.049C205.363 51.049 205.771 51.1227 206.145 51.27C206.519 51.406 206.842 51.6043 207.114 51.865C207.397 52.1143 207.618 52.4203 207.777 52.783C207.936 53.1343 208.015 53.5253 208.015 53.956C208.015 54.3867 207.936 54.7777 207.777 55.129C207.618 55.4803 207.397 55.7863 207.114 56.047C206.842 56.2963 206.519 56.4947 206.145 56.642C205.771 56.778 205.363 56.846 204.921 56.846C204.479 56.846 204.065 56.778 203.68 56.642C203.306 56.4947 202.977 56.2963 202.694 56.047C202.422 55.7863 202.207 55.4803 202.048 55.129C201.889 54.7777 201.81 54.3867 201.81 53.956ZM203.238 53.956C203.238 54.2167 203.283 54.449 203.374 54.653C203.476 54.857 203.601 55.0327 203.748 55.18C203.907 55.3273 204.088 55.4407 204.292 55.52C204.496 55.5993 204.706 55.639 204.921 55.639C205.363 55.639 205.748 55.486 206.077 55.18C206.417 54.874 206.587 54.466 206.587 53.956C206.587 53.446 206.417 53.038 206.077 52.732C205.748 52.426 205.363 52.273 204.921 52.273C204.468 52.273 204.071 52.426 203.731 52.732C203.402 53.038 203.238 53.446 203.238 53.956ZM209.103 60.161C209.103 59.7417 209.182 59.3563 209.341 59.005C209.5 58.6423 209.715 58.3363 209.987 58.087C210.27 57.8263 210.599 57.628 210.973 57.492C211.358 57.3447 211.772 57.271 212.214 57.271C212.656 57.271 213.064 57.3447 213.438 57.492C213.812 57.628 214.135 57.8263 214.407 58.087C214.69 58.3363 214.911 58.6423 215.07 59.005C215.229 59.3563 215.308 59.7417 215.308 60.161C215.308 60.5917 215.229 60.9827 215.07 61.334C214.911 61.6853 214.69 61.9913 214.407 62.252C214.135 62.5127 213.812 62.7167 213.438 62.864C213.064 63 212.656 63.068 212.214 63.068C211.772 63.068 211.358 63 210.973 62.864C210.599 62.7167 210.27 62.5127 209.987 62.252C209.715 61.9913 209.5 61.6853 209.341 61.334C209.182 60.9827 209.103 60.5917 209.103 60.161ZM210.531 60.161C210.531 60.4217 210.576 60.654 210.667 60.858C210.769 61.062 210.894 61.2377 211.041 61.385C211.2 61.5323 211.381 61.6457 211.585 61.725C211.789 61.8043 211.999 61.844 212.214 61.844C212.656 61.844 213.041 61.691 213.37 61.385C213.71 61.079 213.88 60.671 213.88 60.161C213.88 59.651 213.71 59.243 213.37 58.937C213.041 58.631 212.656 58.478 212.214 58.478C211.761 58.478 211.364 58.631 211.024 58.937C210.695 59.243 210.531 59.651 210.531 60.161Z" fill="#222429"/>
<path d="M293.294 261.07C293.378 260.669 293.518 260.286 293.714 259.922C293.91 259.558 294.162 259.241 294.47 258.97C294.778 258.69 295.146 258.471 295.576 258.312C296.005 258.153 296.495 258.074 297.046 258.074C297.559 258.074 298.016 258.149 298.418 258.298C298.819 258.438 299.16 258.639 299.44 258.9C299.72 259.161 299.93 259.474 300.07 259.838C300.219 260.202 300.294 260.599 300.294 261.028C300.294 261.635 300.163 262.195 299.902 262.708C299.65 263.212 299.328 263.674 298.936 264.094C298.544 264.514 298.114 264.897 297.648 265.242C297.181 265.578 296.738 265.877 296.318 266.138L295.24 266.81H300.658V268H293.028V267.02L295.156 265.606C295.856 265.139 296.453 264.71 296.948 264.318C297.442 263.917 297.844 263.539 298.152 263.184C298.469 262.829 298.698 262.489 298.838 262.162C298.987 261.826 299.062 261.49 299.062 261.154C299.062 260.809 299.006 260.515 298.894 260.272C298.791 260.029 298.642 259.833 298.446 259.684C298.259 259.535 298.035 259.427 297.774 259.362C297.522 259.297 297.251 259.264 296.962 259.264C296.542 259.264 296.178 259.329 295.87 259.46C295.571 259.591 295.314 259.763 295.1 259.978C294.894 260.183 294.731 260.417 294.61 260.678C294.498 260.93 294.423 261.182 294.386 261.434L293.294 261.07ZM301.628 263.1C301.628 262.372 301.712 261.705 301.88 261.098C302.048 260.482 302.3 259.95 302.636 259.502C302.981 259.054 303.415 258.704 303.938 258.452C304.461 258.2 305.077 258.074 305.786 258.074C306.495 258.074 307.111 258.191 307.634 258.424C308.157 258.657 308.591 258.993 308.936 259.432C309.281 259.871 309.538 260.403 309.706 261.028C309.874 261.644 309.958 262.335 309.958 263.1C309.958 263.828 309.874 264.5 309.706 265.116C309.547 265.723 309.295 266.25 308.95 266.698C308.614 267.146 308.185 267.496 307.662 267.748C307.139 268 306.523 268.126 305.814 268.126C305.142 268.126 304.545 268 304.022 267.748C303.499 267.496 303.061 267.146 302.706 266.698C302.351 266.25 302.081 265.723 301.894 265.116C301.717 264.5 301.628 263.828 301.628 263.1ZM302.86 263.1C302.86 264.295 303.121 265.233 303.644 265.914C304.167 266.595 304.89 266.936 305.814 266.936C306.822 266.936 307.559 266.595 308.026 265.914C308.493 265.233 308.726 264.295 308.726 263.1C308.726 261.905 308.488 260.967 308.012 260.286C307.536 259.605 306.794 259.264 305.786 259.264C305.282 259.264 304.848 259.353 304.484 259.53C304.12 259.707 303.817 259.964 303.574 260.3C303.331 260.636 303.149 261.042 303.028 261.518C302.916 261.985 302.86 262.512 302.86 263.1ZM311.102 261.07C311.186 260.669 311.326 260.286 311.522 259.922C311.718 259.558 311.97 259.241 312.278 258.97C312.586 258.69 312.954 258.471 313.384 258.312C313.813 258.153 314.303 258.074 314.854 258.074C315.367 258.074 315.824 258.149 316.226 258.298C316.627 258.438 316.968 258.639 317.248 258.9C317.528 259.161 317.738 259.474 317.878 259.838C318.027 260.202 318.102 260.599 318.102 261.028C318.102 261.635 317.971 262.195 317.71 262.708C317.458 263.212 317.136 263.674 316.744 264.094C316.352 264.514 315.922 264.897 315.456 265.242C314.989 265.578 314.546 265.877 314.126 266.138L313.048 266.81H318.466V268H310.836V267.02L312.964 265.606C313.664 265.139 314.261 264.71 314.756 264.318C315.25 263.917 315.652 263.539 315.96 263.184C316.277 262.829 316.506 262.489 316.646 262.162C316.795 261.826 316.87 261.49 316.87 261.154C316.87 260.809 316.814 260.515 316.702 260.272C316.599 260.029 316.45 259.833 316.254 259.684C316.067 259.535 315.843 259.427 315.582 259.362C315.33 259.297 315.059 259.264 314.77 259.264C314.35 259.264 313.986 259.329 313.678 259.46C313.379 259.591 313.122 259.763 312.908 259.978C312.702 260.183 312.539 260.417 312.418 260.678C312.306 260.93 312.231 261.182 312.194 261.434L311.102 261.07ZM319.534 261.07C319.618 260.669 319.758 260.286 319.954 259.922C320.15 259.558 320.402 259.241 320.71 258.97C321.018 258.69 321.387 258.471 321.816 258.312C322.245 258.153 322.735 258.074 323.286 258.074C323.799 258.074 324.257 258.149 324.658 258.298C325.059 258.438 325.4 258.639 325.68 258.9C325.96 259.161 326.17 259.474 326.31 259.838C326.459 260.202 326.534 260.599 326.534 261.028C326.534 261.635 326.403 262.195 326.142 262.708C325.89 263.212 325.568 263.674 325.176 264.094C324.784 264.514 324.355 264.897 323.888 265.242C323.421 265.578 322.978 265.877 322.558 266.138L321.48 266.81H326.898V268H319.268V267.02L321.396 265.606C322.096 265.139 322.693 264.71 323.188 264.318C323.683 263.917 324.084 263.539 324.392 263.184C324.709 262.829 324.938 262.489 325.078 262.162C325.227 261.826 325.302 261.49 325.302 261.154C325.302 260.809 325.246 260.515 325.134 260.272C325.031 260.029 324.882 259.833 324.686 259.684C324.499 259.535 324.275 259.427 324.014 259.362C323.762 259.297 323.491 259.264 323.202 259.264C322.782 259.264 322.418 259.329 322.11 259.46C321.811 259.591 321.555 259.763 321.34 259.978C321.135 260.183 320.971 260.417 320.85 260.678C320.738 260.93 320.663 261.182 320.626 261.434L319.534 261.07Z" fill="#777F8C"/>
<rect x="280" y="48" width="60" height="200" fill="#BFCED4"/>
<rect x="280" y="48" width="60" height="4" fill="#A6B2BC"/>
<path d="M292.455 30.585C292.557 30.0977 292.727 29.633 292.965 29.191C293.203 28.749 293.509 28.3637 293.883 28.035C294.257 27.695 294.705 27.4287 295.226 27.236C295.748 27.0433 296.343 26.947 297.011 26.947C297.635 26.947 298.19 27.0377 298.677 27.219C299.165 27.389 299.578 27.6327 299.918 27.95C300.258 28.2673 300.513 28.647 300.683 29.089C300.865 29.531 300.955 30.0127 300.955 30.534C300.955 31.2707 300.797 31.9507 300.479 32.574C300.173 33.186 299.782 33.747 299.306 34.257C298.83 34.767 298.309 35.2317 297.742 35.651C297.176 36.059 296.637 36.4217 296.127 36.739L294.818 37.555H301.397V39H292.132V37.81L294.716 36.093C295.566 35.5263 296.292 35.005 296.892 34.529C297.493 34.0417 297.98 33.5827 298.354 33.152C298.74 32.7213 299.017 32.3077 299.187 31.911C299.369 31.503 299.459 31.095 299.459 30.687C299.459 30.2677 299.391 29.9107 299.255 29.616C299.131 29.3213 298.949 29.0833 298.711 28.902C298.485 28.7207 298.213 28.5903 297.895 28.511C297.589 28.4317 297.261 28.392 296.909 28.392C296.399 28.392 295.957 28.4713 295.583 28.63C295.221 28.7887 294.909 28.9983 294.648 29.259C294.399 29.5083 294.201 29.7917 294.053 30.109C293.917 30.415 293.827 30.721 293.781 31.027L292.455 30.585ZM309.529 36.62H302.202V35.532L309.699 27.1H310.957V35.175H313.167V36.62H310.957V39H309.529V36.62ZM309.529 35.175V29.48L304.242 35.175H309.529ZM324.793 26.726L325.864 27.508L317.126 39.255L316.004 38.609L324.793 26.726ZM314.168 29.956C314.168 29.5253 314.247 29.1343 314.406 28.783C314.564 28.4203 314.78 28.1143 315.052 27.865C315.335 27.6043 315.664 27.406 316.038 27.27C316.423 27.1227 316.837 27.049 317.279 27.049C317.721 27.049 318.129 27.1227 318.503 27.27C318.877 27.406 319.2 27.6043 319.472 27.865C319.755 28.1143 319.976 28.4203 320.135 28.783C320.293 29.1343 320.373 29.5253 320.373 29.956C320.373 30.3867 320.293 30.7777 320.135 31.129C319.976 31.4803 319.755 31.7863 319.472 32.047C319.2 32.2963 318.877 32.4947 318.503 32.642C318.129 32.778 317.721 32.846 317.279 32.846C316.837 32.846 316.423 32.778 316.038 32.642C315.664 32.4947 315.335 32.2963 315.052 32.047C314.78 31.7863 314.564 31.4803 314.406 31.129C314.247 30.7777 314.168 30.3867 314.168 29.956ZM315.596 29.956C315.596 30.2167 315.641 30.449 315.732 30.653C315.834 30.857 315.958 31.0327 316.106 31.18C316.264 31.3273 316.446 31.4407 316.65 31.52C316.854 31.5993 317.063 31.639 317.279 31.639C317.721 31.639 318.106 31.486 318.435 31.18C318.775 30.874 318.945 30.466 318.945 29.956C318.945 29.446 318.775 29.038 318.435 28.732C318.106 28.426 317.721 28.273 317.279 28.273C316.825 28.273 316.429 28.426 316.089 28.732C315.76 29.038 315.596 29.446 315.596 29.956ZM321.461 36.161C321.461 35.7417 321.54 35.3563 321.699 35.005C321.857 34.6423 322.073 34.3363 322.345 34.087C322.628 33.8263 322.957 33.628 323.331 33.492C323.716 33.3447 324.13 33.271 324.572 33.271C325.014 33.271 325.422 33.3447 325.796 33.492C326.17 33.628 326.493 33.8263 326.765 34.087C327.048 34.3363 327.269 34.6423 327.428 35.005C327.586 35.3563 327.666 35.7417 327.666 36.161C327.666 36.5917 327.586 36.9827 327.428 37.334C327.269 37.6853 327.048 37.9913 326.765 38.252C326.493 38.5127 326.17 38.7167 325.796 38.864C325.422 39 325.014 39.068 324.572 39.068C324.13 39.068 323.716 39 323.331 38.864C322.957 38.7167 322.628 38.5127 322.345 38.252C322.073 37.9913 321.857 37.6853 321.699 37.334C321.54 36.9827 321.461 36.5917 321.461 36.161ZM322.889 36.161C322.889 36.4217 322.934 36.654 323.025 36.858C323.127 37.062 323.251 37.2377 323.399 37.385C323.557 37.5323 323.739 37.6457 323.943 37.725C324.147 37.8043 324.356 37.844 324.572 37.844C325.014 37.844 325.399 37.691 325.728 37.385C326.068 37.079 326.238 36.671 326.238 36.161C326.238 35.651 326.068 35.243 325.728 34.937C325.399 34.631 325.014 34.478 324.572 34.478C324.118 34.478 323.722 34.631 323.382 34.937C323.053 35.243 322.889 35.651 322.889 36.161Z" fill="#222429"/>
<path d="M397.902 261.07C397.986 260.669 398.126 260.286 398.322 259.922C398.518 259.558 398.77 259.241 399.078 258.97C399.386 258.69 399.755 258.471 400.184 258.312C400.613 258.153 401.103 258.074 401.654 258.074C402.167 258.074 402.625 258.149 403.026 258.298C403.427 258.438 403.768 258.639 404.048 258.9C404.328 259.161 404.538 259.474 404.678 259.838C404.827 260.202 404.902 260.599 404.902 261.028C404.902 261.635 404.771 262.195 404.51 262.708C404.258 263.212 403.936 263.674 403.544 264.094C403.152 264.514 402.723 264.897 402.256 265.242C401.789 265.578 401.346 265.877 400.926 266.138L399.848 266.81H405.266V268H397.636V267.02L399.764 265.606C400.464 265.139 401.061 264.71 401.556 264.318C402.051 263.917 402.452 263.539 402.76 263.184C403.077 262.829 403.306 262.489 403.446 262.162C403.595 261.826 403.67 261.49 403.67 261.154C403.67 260.809 403.614 260.515 403.502 260.272C403.399 260.029 403.25 259.833 403.054 259.684C402.867 259.535 402.643 259.427 402.382 259.362C402.13 259.297 401.859 259.264 401.57 259.264C401.15 259.264 400.786 259.329 400.478 259.46C400.179 259.591 399.923 259.763 399.708 259.978C399.503 260.183 399.339 260.417 399.218 260.678C399.106 260.93 399.031 261.182 398.994 261.434L397.902 261.07ZM406.236 263.1C406.236 262.372 406.32 261.705 406.488 261.098C406.656 260.482 406.908 259.95 407.244 259.502C407.589 259.054 408.023 258.704 408.546 258.452C409.069 258.2 409.685 258.074 410.394 258.074C411.103 258.074 411.719 258.191 412.242 258.424C412.765 258.657 413.199 258.993 413.544 259.432C413.889 259.871 414.146 260.403 414.314 261.028C414.482 261.644 414.566 262.335 414.566 263.1C414.566 263.828 414.482 264.5 414.314 265.116C414.155 265.723 413.903 266.25 413.558 266.698C413.222 267.146 412.793 267.496 412.27 267.748C411.747 268 411.131 268.126 410.422 268.126C409.75 268.126 409.153 268 408.63 267.748C408.107 267.496 407.669 267.146 407.314 266.698C406.959 266.25 406.689 265.723 406.502 265.116C406.325 264.5 406.236 263.828 406.236 263.1ZM407.468 263.1C407.468 264.295 407.729 265.233 408.252 265.914C408.775 266.595 409.498 266.936 410.422 266.936C411.43 266.936 412.167 266.595 412.634 265.914C413.101 265.233 413.334 264.295 413.334 263.1C413.334 261.905 413.096 260.967 412.62 260.286C412.144 259.605 411.402 259.264 410.394 259.264C409.89 259.264 409.456 259.353 409.092 259.53C408.728 259.707 408.425 259.964 408.182 260.3C407.939 260.636 407.757 261.042 407.636 261.518C407.524 261.985 407.468 262.512 407.468 263.1ZM415.71 261.07C415.794 260.669 415.934 260.286 416.13 259.922C416.326 259.558 416.578 259.241 416.886 258.97C417.194 258.69 417.562 258.471 417.992 258.312C418.421 258.153 418.911 258.074 419.462 258.074C419.975 258.074 420.432 258.149 420.834 258.298C421.235 258.438 421.576 258.639 421.856 258.9C422.136 259.161 422.346 259.474 422.486 259.838C422.635 260.202 422.71 260.599 422.71 261.028C422.71 261.635 422.579 262.195 422.318 262.708C422.066 263.212 421.744 263.674 421.352 264.094C420.96 264.514 420.53 264.897 420.064 265.242C419.597 265.578 419.154 265.877 418.734 266.138L417.656 266.81H423.074V268H415.444V267.02L417.572 265.606C418.272 265.139 418.869 264.71 419.364 264.318C419.858 263.917 420.26 263.539 420.568 263.184C420.885 262.829 421.114 262.489 421.254 262.162C421.403 261.826 421.478 261.49 421.478 261.154C421.478 260.809 421.422 260.515 421.31 260.272C421.207 260.029 421.058 259.833 420.862 259.684C420.675 259.535 420.451 259.427 420.19 259.362C419.938 259.297 419.667 259.264 419.378 259.264C418.958 259.264 418.594 259.329 418.286 259.46C417.987 259.591 417.73 259.763 417.516 259.978C417.31 260.183 417.147 260.417 417.026 260.678C416.914 260.93 416.839 261.182 416.802 261.434L415.71 261.07ZM423.96 260.58C424.091 260.216 424.268 259.885 424.492 259.586C424.716 259.278 424.987 259.012 425.304 258.788C425.631 258.564 426.004 258.391 426.424 258.27C426.853 258.139 427.334 258.074 427.866 258.074C428.342 258.074 428.781 258.135 429.182 258.256C429.593 258.368 429.943 258.531 430.232 258.746C430.531 258.951 430.759 259.208 430.918 259.516C431.086 259.824 431.17 260.165 431.17 260.538C431.17 261.107 431.021 261.593 430.722 261.994C430.433 262.395 430.008 262.675 429.448 262.834C429.691 262.853 429.929 262.913 430.162 263.016C430.395 263.109 430.601 263.254 430.778 263.45C430.965 263.637 431.114 263.875 431.226 264.164C431.338 264.444 431.394 264.78 431.394 265.172C431.394 265.648 431.301 266.073 431.114 266.446C430.937 266.81 430.685 267.118 430.358 267.37C430.041 267.613 429.663 267.799 429.224 267.93C428.785 268.061 428.314 268.126 427.81 268.126C427.259 268.126 426.755 268.061 426.298 267.93C425.85 267.799 425.453 267.622 425.108 267.398C424.763 267.165 424.469 266.889 424.226 266.572C423.993 266.245 423.815 265.886 423.694 265.494L424.828 265.004C424.949 265.256 425.094 265.499 425.262 265.732C425.43 265.965 425.635 266.171 425.878 266.348C426.121 266.525 426.405 266.67 426.732 266.782C427.059 266.885 427.446 266.936 427.894 266.936C428.594 266.936 429.145 266.787 429.546 266.488C429.957 266.18 430.162 265.746 430.162 265.186C430.162 264.878 430.097 264.621 429.966 264.416C429.835 264.201 429.653 264.033 429.42 263.912C429.187 263.781 428.911 263.693 428.594 263.646C428.286 263.59 427.95 263.562 427.586 263.562H426.494V262.4H427.362C428.174 262.4 428.804 262.246 429.252 261.938C429.709 261.63 429.938 261.243 429.938 260.776C429.938 260.272 429.747 259.894 429.364 259.642C428.981 259.39 428.463 259.264 427.81 259.264C427.409 259.264 427.054 259.315 426.746 259.418C426.438 259.521 426.167 259.656 425.934 259.824C425.71 259.992 425.519 260.183 425.36 260.398C425.211 260.613 425.094 260.832 425.01 261.056L423.96 260.58ZM440.259 259.39H434.477V268H433.203V258.2H441.533V268H440.259V259.39Z" fill="#5FAF2D"/>
<rect x="390" y="22" width="60" height="226" fill="#5FAF2D"/>
<rect x="390" y="22" width="60" height="4" fill="#3D7917"/>
<path d="M403.31 4.585C403.412 4.09767 403.582 3.633 403.82 3.191C404.058 2.749 404.364 2.36367 404.738 2.035C405.112 1.695 405.56 1.42867 406.081 1.236C406.603 1.04333 407.198 0.946999 407.866 0.946999C408.49 0.946999 409.045 1.03767 409.532 1.219C410.02 1.389 410.433 1.63267 410.773 1.95C411.113 2.26733 411.368 2.647 411.538 3.089C411.72 3.531 411.81 4.01267 411.81 4.534C411.81 5.27067 411.652 5.95067 411.334 6.574C411.028 7.186 410.637 7.747 410.161 8.257C409.685 8.767 409.164 9.23167 408.597 9.651C408.031 10.059 407.492 10.4217 406.982 10.739L405.673 11.555H412.252V13H402.987V11.81L405.571 10.093C406.421 9.52633 407.147 9.005 407.747 8.529C408.348 8.04167 408.835 7.58267 409.209 7.152C409.595 6.72133 409.872 6.30767 410.042 5.911C410.224 5.503 410.314 5.095 410.314 4.687C410.314 4.26767 410.246 3.91067 410.11 3.616C409.986 3.32133 409.804 3.08333 409.566 2.902C409.34 2.72067 409.068 2.59033 408.75 2.511C408.444 2.43167 408.116 2.392 407.764 2.392C407.254 2.392 406.812 2.47133 406.438 2.63C406.076 2.78867 405.764 2.99833 405.503 3.259C405.254 3.50833 405.056 3.79167 404.908 4.109C404.772 4.415 404.682 4.721 404.636 5.027L403.31 4.585ZM413.21 1.1H422.237V2.069L416.321 13H414.706L420.418 2.545H413.21V1.1ZM433.938 0.725999L435.009 1.508L426.271 13.255L425.149 12.609L433.938 0.725999ZM423.313 3.956C423.313 3.52533 423.392 3.13433 423.551 2.783C423.709 2.42033 423.925 2.11433 424.197 1.865C424.48 1.60433 424.809 1.406 425.183 1.27C425.568 1.12267 425.982 1.049 426.424 1.049C426.866 1.049 427.274 1.12267 427.648 1.27C428.022 1.406 428.345 1.60433 428.617 1.865C428.9 2.11433 429.121 2.42033 429.28 2.783C429.438 3.13433 429.518 3.52533 429.518 3.956C429.518 4.38667 429.438 4.77767 429.28 5.129C429.121 5.48033 428.9 5.78633 428.617 6.047C428.345 6.29633 428.022 6.49467 427.648 6.642C427.274 6.778 426.866 6.846 426.424 6.846C425.982 6.846 425.568 6.778 425.183 6.642C424.809 6.49467 424.48 6.29633 424.197 6.047C423.925 5.78633 423.709 5.48033 423.551 5.129C423.392 4.77767 423.313 4.38667 423.313 3.956ZM424.741 3.956C424.741 4.21667 424.786 4.449 424.877 4.653C424.979 4.857 425.103 5.03267 425.251 5.18C425.409 5.32733 425.591 5.44067 425.795 5.52C425.999 5.59933 426.208 5.639 426.424 5.639C426.866 5.639 427.251 5.486 427.58 5.18C427.92 4.874 428.09 4.466 428.09 3.956C428.09 3.446 427.92 3.038 427.58 2.732C427.251 2.426 426.866 2.273 426.424 2.273C425.97 2.273 425.574 2.426 425.234 2.732C424.905 3.038 424.741 3.446 424.741 3.956ZM430.606 10.161C430.606 9.74167 430.685 9.35633 430.844 9.005C431.002 8.64233 431.218 8.33633 431.49 8.087C431.773 7.82633 432.102 7.628 432.476 7.492C432.861 7.34467 433.275 7.271 433.717 7.271C434.159 7.271 434.567 7.34467 434.941 7.492C435.315 7.628 435.638 7.82633 435.91 8.087C436.193 8.33633 436.414 8.64233 436.573 9.005C436.731 9.35633 436.811 9.74167 436.811 10.161C436.811 10.5917 436.731 10.9827 436.573 11.334C436.414 11.6853 436.193 11.9913 435.91 12.252C435.638 12.5127 435.315 12.7167 434.941 12.864C434.567 13 434.159 13.068 433.717 13.068C433.275 13.068 432.861 13 432.476 12.864C432.102 12.7167 431.773 12.5127 431.49 12.252C431.218 11.9913 431.002 11.6853 430.844 11.334C430.685 10.9827 430.606 10.5917 430.606 10.161ZM432.034 10.161C432.034 10.4217 432.079 10.654 432.17 10.858C432.272 11.062 432.396 11.2377 432.544 11.385C432.702 11.5323 432.884 11.6457 433.088 11.725C433.292 11.8043 433.501 11.844 433.717 11.844C434.159 11.844 434.544 11.691 434.873 11.385C435.213 11.079 435.383 10.671 435.383 10.161C435.383 9.651 435.213 9.243 434.873 8.937C434.544 8.631 434.159 8.478 433.717 8.478C433.263 8.478 432.867 8.631 432.527 8.937C432.198 9.243 432.034 9.651 432.034 10.161Z" fill="#222429"/>
<rect y="248" width="536" height="1" fill="#9299A3"/>
</svg>
