<svg viewBox="0 0 536 267" fill="none" xmlns="http://www.w3.org/2000/svg">
<g clip-path="url(#clip0_1415_18792)">
<rect x="80" y="67" width="60" height="199" fill="#BFCED4"/>
<rect x="80" y="67" width="60" height="4" fill="#A6B2BC"/>
<rect x="230" y="110" width="60" height="156" fill="#BFCED4"/>
<rect x="230" y="110" width="60" height="4" fill="#A6B2BC"/>
<rect x="380" y="135" width="60" height="131" fill="#5FAF2D"/>
<rect x="380" y="135" width="60" height="4" fill="#3D7917"/>
<rect y="266" width="536" height="1" fill="#9299A3"/>
<path d="M123 55V17C123 15.8954 123.895 15 125 15H248C249.105 15 250 15.8954 250 17V98" stroke="#B4BBC5"/>
<path d="M270 98V47C270 45.8954 270.895 45 272 45H395C396.105 45 397 45.8954 397 47V121" stroke="#B4BBC5"/>
<path fill-rule="evenodd" clip-rule="evenodd" d="M245 95L250 104L255 95H245Z" fill="#B4BBC5"/>
<path fill-rule="evenodd" clip-rule="evenodd" d="M392 120L397 129L402 120H392Z" fill="#B4BBC5"/>
<rect x="153.5" y="0.5" width="71" height="29" rx="14.5" fill="white" stroke="#B4BBC5"/>
<path d="M165.114 13.442H171.61V14.492H165.114V13.442ZM175.518 9.144H176.316V19H175.14V10.642L172.606 11.804L172.158 10.754L175.518 9.144ZM177.639 9.2H185.073V9.998L180.201 19H178.871L183.575 10.39H177.639V9.2ZM193.313 19.126C192.735 19.126 192.207 19.0327 191.731 18.846C191.265 18.65 190.863 18.37 190.527 18.006C190.191 17.6327 189.93 17.1753 189.743 16.634C189.566 16.0927 189.477 15.472 189.477 14.772C189.477 13.8853 189.501 13.134 189.547 12.518C189.603 11.902 189.692 11.384 189.813 10.964C189.935 10.544 190.089 10.2033 190.275 9.942C190.471 9.68067 190.709 9.466 190.989 9.298C191.251 9.13933 191.517 9.02733 191.787 8.962C192.058 8.89667 192.329 8.85933 192.599 8.85C192.879 8.83133 193.155 8.83133 193.425 8.85C193.705 8.85933 193.985 8.864 194.265 8.864C194.713 8.864 195.017 8.83133 195.175 8.766C195.343 8.70067 195.427 8.57467 195.427 8.388H196.477C196.477 8.68667 196.44 8.93867 196.365 9.144C196.3 9.34 196.183 9.50333 196.015 9.634C195.847 9.75533 195.628 9.844 195.357 9.9C195.087 9.94667 194.755 9.97 194.363 9.97C194.158 9.97 193.934 9.96067 193.691 9.942C193.458 9.92333 193.22 9.91867 192.977 9.928C192.735 9.928 192.492 9.95133 192.249 9.998C192.016 10.0447 191.797 10.1287 191.591 10.25C191.414 10.3527 191.265 10.4787 191.143 10.628C191.031 10.7773 190.938 10.9733 190.863 11.216C190.789 11.4493 190.733 11.7433 190.695 12.098C190.658 12.4433 190.63 12.868 190.611 13.372C190.938 12.868 191.363 12.49 191.885 12.238C192.408 11.986 192.977 11.86 193.593 11.86C194.097 11.86 194.559 11.944 194.979 12.112C195.399 12.2707 195.759 12.504 196.057 12.812C196.356 13.12 196.589 13.4933 196.757 13.932C196.925 14.3707 197.009 14.8653 197.009 15.416C197.009 15.9387 196.921 16.424 196.743 16.872C196.566 17.32 196.314 17.712 195.987 18.048C195.661 18.384 195.269 18.65 194.811 18.846C194.363 19.0327 193.864 19.126 193.313 19.126ZM193.299 18.02C193.71 18.02 194.069 17.9547 194.377 17.824C194.695 17.6933 194.956 17.516 195.161 17.292C195.367 17.0587 195.521 16.788 195.623 16.48C195.726 16.172 195.777 15.8407 195.777 15.486C195.777 15.122 195.721 14.786 195.609 14.478C195.507 14.17 195.353 13.904 195.147 13.68C194.942 13.456 194.685 13.2833 194.377 13.162C194.079 13.0313 193.733 12.966 193.341 12.966C192.903 12.966 192.52 13.0313 192.193 13.162C191.867 13.2927 191.591 13.4653 191.367 13.68C191.153 13.8853 190.989 14.128 190.877 14.408C190.765 14.6787 190.709 14.9587 190.709 15.248C190.709 15.6587 190.77 16.0367 190.891 16.382C191.022 16.718 191.199 17.0073 191.423 17.25C191.657 17.4927 191.932 17.684 192.249 17.824C192.567 17.9547 192.917 18.02 193.299 18.02ZM198.014 18.202C198.014 18.0153 198.094 17.838 198.252 17.67C198.411 17.502 198.621 17.418 198.882 17.418C199.125 17.418 199.326 17.502 199.484 17.67C199.643 17.838 199.722 18.0153 199.722 18.202C199.722 18.4167 199.643 18.608 199.484 18.776C199.326 18.944 199.125 19.028 198.882 19.028C198.621 19.028 198.411 18.944 198.252 18.776C198.094 18.608 198.014 18.4167 198.014 18.202ZM206.55 12.826H202.434V19H201.258V11.72H207.726V19H206.55V12.826ZM209.267 18.202C209.267 18.0153 209.346 17.838 209.505 17.67C209.664 17.502 209.874 17.418 210.135 17.418C210.378 17.418 210.578 17.502 210.737 17.67C210.896 17.838 210.975 18.0153 210.975 18.202C210.975 18.4167 210.896 18.608 210.737 18.776C210.578 18.944 210.378 19.028 210.135 19.028C209.874 19.028 209.664 18.944 209.505 18.776C209.346 18.608 209.267 18.4167 209.267 18.202Z" fill="#50565E"/>
<rect x="300.5" y="31.5" width="71" height="29" rx="14.5" fill="white" stroke="#B4BBC5"/>
<path d="M315.235 44.442H321.731V45.492H315.235V44.442ZM322.518 40.2H329.952V40.998L325.08 50H323.75L328.454 41.39H322.518V40.2ZM338.192 50.126C337.613 50.126 337.086 50.0327 336.61 49.846C336.143 49.65 335.742 49.37 335.406 49.006C335.07 48.6327 334.808 48.1753 334.622 47.634C334.444 47.0927 334.356 46.472 334.356 45.772C334.356 44.8853 334.379 44.134 334.426 43.518C334.482 42.902 334.57 42.384 334.692 41.964C334.813 41.544 334.967 41.2033 335.154 40.942C335.35 40.6807 335.588 40.466 335.868 40.298C336.129 40.1393 336.395 40.0273 336.666 39.962C336.936 39.8967 337.207 39.8593 337.478 39.85C337.758 39.8313 338.033 39.8313 338.304 39.85C338.584 39.8593 338.864 39.864 339.144 39.864C339.592 39.864 339.895 39.8313 340.054 39.766C340.222 39.7007 340.306 39.5747 340.306 39.388H341.356C341.356 39.6867 341.318 39.9387 341.244 40.144C341.178 40.34 341.062 40.5033 340.894 40.634C340.726 40.7553 340.506 40.844 340.236 40.9C339.965 40.9467 339.634 40.97 339.242 40.97C339.036 40.97 338.812 40.9607 338.57 40.942C338.336 40.9233 338.098 40.9187 337.856 40.928C337.613 40.928 337.37 40.9513 337.128 40.998C336.894 41.0447 336.675 41.1287 336.47 41.25C336.292 41.3527 336.143 41.4787 336.022 41.628C335.91 41.7773 335.816 41.9733 335.742 42.216C335.667 42.4493 335.611 42.7433 335.574 43.098C335.536 43.4433 335.508 43.868 335.49 44.372C335.816 43.868 336.241 43.49 336.764 43.238C337.286 42.986 337.856 42.86 338.472 42.86C338.976 42.86 339.438 42.944 339.858 43.112C340.278 43.2707 340.637 43.504 340.936 43.812C341.234 44.12 341.468 44.4933 341.636 44.932C341.804 45.3707 341.888 45.8653 341.888 46.416C341.888 46.9387 341.799 47.424 341.622 47.872C341.444 48.32 341.192 48.712 340.866 49.048C340.539 49.384 340.147 49.65 339.69 49.846C339.242 50.0327 338.742 50.126 338.192 50.126ZM338.178 49.02C338.588 49.02 338.948 48.9547 339.256 48.824C339.573 48.6933 339.834 48.516 340.04 48.292C340.245 48.0587 340.399 47.788 340.502 47.48C340.604 47.172 340.656 46.8407 340.656 46.486C340.656 46.122 340.6 45.786 340.488 45.478C340.385 45.17 340.231 44.904 340.026 44.68C339.82 44.456 339.564 44.2833 339.256 44.162C338.957 44.0313 338.612 43.966 338.22 43.966C337.781 43.966 337.398 44.0313 337.072 44.162C336.745 44.2927 336.47 44.4653 336.246 44.68C336.031 44.8853 335.868 45.128 335.756 45.408C335.644 45.6787 335.588 45.9587 335.588 46.248C335.588 46.6587 335.648 47.0367 335.77 47.382C335.9 47.718 336.078 48.0073 336.302 48.25C336.535 48.4927 336.81 48.684 337.128 48.824C337.445 48.9547 337.795 49.02 338.178 49.02ZM342.893 49.202C342.893 49.0153 342.972 48.838 343.131 48.67C343.289 48.502 343.499 48.418 343.761 48.418C344.003 48.418 344.204 48.502 344.363 48.67C344.521 48.838 344.601 49.0153 344.601 49.202C344.601 49.4167 344.521 49.608 344.363 49.776C344.204 49.944 344.003 50.028 343.761 50.028C343.499 50.028 343.289 49.944 343.131 49.776C342.972 49.608 342.893 49.4167 342.893 49.202ZM351.428 43.826H347.312V50H346.136V42.72H352.604V50H351.428V43.826ZM354.145 49.202C354.145 49.0153 354.224 48.838 354.383 48.67C354.542 48.502 354.752 48.418 355.013 48.418C355.256 48.418 355.456 48.502 355.615 48.67C355.774 48.838 355.853 49.0153 355.853 49.202C355.853 49.4167 355.774 49.608 355.615 49.776C355.456 49.944 355.256 50.028 355.013 50.028C354.752 50.028 354.542 49.944 354.383 49.776C354.224 49.608 354.145 49.4167 354.145 49.202Z" fill="#50565E"/>
</g>
<defs>
<clipPath id="clip0_1415_18792">
<rect width="536" height="267" fill="white"/>
</clipPath>
</defs>
</svg>
