<svg viewBox="0 0 535 255" fill="none" xmlns="http://www.w3.org/2000/svg">
<line x1="-3.16332e-08" y1="194.5" x2="535" y2="194.5" stroke="#CBCFD6"/>
<path d="M431.294 208.07C431.378 207.669 431.518 207.286 431.714 206.922C431.91 206.558 432.162 206.241 432.47 205.97C432.778 205.69 433.146 205.471 433.576 205.312C434.005 205.153 434.495 205.074 435.046 205.074C435.559 205.074 436.016 205.149 436.418 205.298C436.819 205.438 437.16 205.639 437.44 205.9C437.72 206.161 437.93 206.474 438.07 206.838C438.219 207.202 438.294 207.599 438.294 208.028C438.294 208.635 438.163 209.195 437.902 209.708C437.65 210.212 437.328 210.674 436.936 211.094C436.544 211.514 436.114 211.897 435.648 212.242C435.181 212.578 434.738 212.877 434.318 213.138L433.24 213.81H438.658V215H431.028V214.02L433.156 212.606C433.856 212.139 434.453 211.71 434.948 211.318C435.442 210.917 435.844 210.539 436.152 210.184C436.469 209.829 436.698 209.489 436.838 209.162C436.987 208.826 437.062 208.49 437.062 208.154C437.062 207.809 437.006 207.515 436.894 207.272C436.791 207.029 436.642 206.833 436.446 206.684C436.259 206.535 436.035 206.427 435.774 206.362C435.522 206.297 435.251 206.264 434.962 206.264C434.542 206.264 434.178 206.329 433.87 206.46C433.571 206.591 433.314 206.763 433.1 206.978C432.894 207.183 432.731 207.417 432.61 207.678C432.498 207.93 432.423 208.182 432.386 208.434L431.294 208.07ZM439.628 210.1C439.628 209.372 439.712 208.705 439.88 208.098C440.048 207.482 440.3 206.95 440.636 206.502C440.981 206.054 441.415 205.704 441.938 205.452C442.461 205.2 443.077 205.074 443.786 205.074C444.495 205.074 445.111 205.191 445.634 205.424C446.157 205.657 446.591 205.993 446.936 206.432C447.281 206.871 447.538 207.403 447.706 208.028C447.874 208.644 447.958 209.335 447.958 210.1C447.958 210.828 447.874 211.5 447.706 212.116C447.547 212.723 447.295 213.25 446.95 213.698C446.614 214.146 446.185 214.496 445.662 214.748C445.139 215 444.523 215.126 443.814 215.126C443.142 215.126 442.545 215 442.022 214.748C441.499 214.496 441.061 214.146 440.706 213.698C440.351 213.25 440.081 212.723 439.894 212.116C439.717 211.5 439.628 210.828 439.628 210.1ZM440.86 210.1C440.86 211.295 441.121 212.233 441.644 212.914C442.167 213.595 442.89 213.936 443.814 213.936C444.822 213.936 445.559 213.595 446.026 212.914C446.493 212.233 446.726 211.295 446.726 210.1C446.726 208.905 446.488 207.967 446.012 207.286C445.536 206.605 444.794 206.264 443.786 206.264C443.282 206.264 442.848 206.353 442.484 206.53C442.12 206.707 441.817 206.964 441.574 207.3C441.331 207.636 441.149 208.042 441.028 208.518C440.916 208.985 440.86 209.512 440.86 210.1ZM449.102 208.07C449.186 207.669 449.326 207.286 449.522 206.922C449.718 206.558 449.97 206.241 450.278 205.97C450.586 205.69 450.954 205.471 451.384 205.312C451.813 205.153 452.303 205.074 452.854 205.074C453.367 205.074 453.824 205.149 454.226 205.298C454.627 205.438 454.968 205.639 455.248 205.9C455.528 206.161 455.738 206.474 455.878 206.838C456.027 207.202 456.102 207.599 456.102 208.028C456.102 208.635 455.971 209.195 455.71 209.708C455.458 210.212 455.136 210.674 454.744 211.094C454.352 211.514 453.922 211.897 453.456 212.242C452.989 212.578 452.546 212.877 452.126 213.138L451.048 213.81H456.466V215H448.836V214.02L450.964 212.606C451.664 212.139 452.261 211.71 452.756 211.318C453.25 210.917 453.652 210.539 453.96 210.184C454.277 209.829 454.506 209.489 454.646 209.162C454.795 208.826 454.87 208.49 454.87 208.154C454.87 207.809 454.814 207.515 454.702 207.272C454.599 207.029 454.45 206.833 454.254 206.684C454.067 206.535 453.843 206.427 453.582 206.362C453.33 206.297 453.059 206.264 452.77 206.264C452.35 206.264 451.986 206.329 451.678 206.46C451.379 206.591 451.122 206.763 450.908 206.978C450.702 207.183 450.539 207.417 450.418 207.678C450.306 207.93 450.231 208.182 450.194 208.434L449.102 208.07ZM457.534 208.07C457.618 207.669 457.758 207.286 457.954 206.922C458.15 206.558 458.402 206.241 458.71 205.97C459.018 205.69 459.387 205.471 459.816 205.312C460.245 205.153 460.735 205.074 461.286 205.074C461.799 205.074 462.257 205.149 462.658 205.298C463.059 205.438 463.4 205.639 463.68 205.9C463.96 206.161 464.17 206.474 464.31 206.838C464.459 207.202 464.534 207.599 464.534 208.028C464.534 208.635 464.403 209.195 464.142 209.708C463.89 210.212 463.568 210.674 463.176 211.094C462.784 211.514 462.355 211.897 461.888 212.242C461.421 212.578 460.978 212.877 460.558 213.138L459.48 213.81H464.898V215H457.268V214.02L459.396 212.606C460.096 212.139 460.693 211.71 461.188 211.318C461.683 210.917 462.084 210.539 462.392 210.184C462.709 209.829 462.938 209.489 463.078 209.162C463.227 208.826 463.302 208.49 463.302 208.154C463.302 207.809 463.246 207.515 463.134 207.272C463.031 207.029 462.882 206.833 462.686 206.684C462.499 206.535 462.275 206.427 462.014 206.362C461.762 206.297 461.491 206.264 461.202 206.264C460.782 206.264 460.418 206.329 460.11 206.46C459.811 206.591 459.555 206.763 459.34 206.978C459.135 207.183 458.971 207.417 458.85 207.678C458.738 207.93 458.663 208.182 458.626 208.434L457.534 208.07Z" fill="#5FAF2D"/>
<rect x="423" y="25" width="50" height="170" fill="#5FAF2D"/>
<rect x="423" y="25" width="50" height="4" fill="#3D7917"/>
<path d="M422.105 7.585C422.207 7.09767 422.377 6.633 422.615 6.191C422.853 5.749 423.159 5.36367 423.533 5.035C423.907 4.695 424.355 4.42867 424.876 4.236C425.397 4.04333 425.992 3.947 426.661 3.947C427.284 3.947 427.84 4.03767 428.327 4.219C428.814 4.389 429.228 4.63267 429.568 4.95C429.908 5.26733 430.163 5.647 430.333 6.089C430.514 6.531 430.605 7.01267 430.605 7.534C430.605 8.27067 430.446 8.95067 430.129 9.574C429.823 10.186 429.432 10.747 428.956 11.257C428.48 11.767 427.959 12.2317 427.392 12.651C426.825 13.059 426.287 13.4217 425.777 13.739L424.468 14.555H431.047V16H421.782V14.81L424.366 13.093C425.216 12.5263 425.941 12.005 426.542 11.529C427.143 11.0417 427.63 10.5827 428.004 10.152C428.389 9.72133 428.667 9.30767 428.837 8.911C429.018 8.503 429.109 8.095 429.109 7.687C429.109 7.26767 429.041 6.91067 428.905 6.616C428.78 6.32133 428.599 6.08333 428.361 5.902C428.134 5.72067 427.862 5.59033 427.545 5.511C427.239 5.43167 426.91 5.392 426.559 5.392C426.049 5.392 425.607 5.47133 425.233 5.63C424.87 5.78867 424.559 5.99833 424.298 6.259C424.049 6.50833 423.85 6.79167 423.703 7.109C423.567 7.415 423.476 7.721 423.431 8.027L422.105 7.585ZM442.362 16.153C441.568 16.153 440.849 16.0283 440.203 15.779C439.568 15.5297 439.024 15.1613 438.571 14.674C438.117 14.1753 437.766 13.569 437.517 12.855C437.279 12.141 437.16 11.3137 437.16 10.373C437.16 9.30767 437.301 8.37267 437.585 7.568C437.868 6.76333 438.248 6.09467 438.724 5.562C439.211 5.018 439.772 4.61567 440.407 4.355C441.053 4.083 441.733 3.947 442.447 3.947C443.478 3.947 444.356 4.15667 445.082 4.576C445.807 4.99533 446.334 5.562 446.663 6.276L445.507 7.058C445.178 6.548 444.753 6.14567 444.232 5.851C443.722 5.545 443.104 5.392 442.379 5.392C441.812 5.392 441.302 5.50533 440.849 5.732C440.395 5.94733 440.004 6.26467 439.676 6.684C439.347 7.092 439.092 7.59067 438.911 8.18C438.729 8.758 438.633 9.40967 438.622 10.135V10.322C438.78 9.948 438.996 9.61933 439.268 9.336C439.551 9.05267 439.868 8.81467 440.22 8.622C440.571 8.42933 440.945 8.28767 441.342 8.197C441.75 8.095 442.163 8.044 442.583 8.044C443.274 8.044 443.897 8.14033 444.453 8.333C445.008 8.52567 445.478 8.79767 445.864 9.149C446.26 9.50033 446.561 9.91967 446.765 10.407C446.969 10.8943 447.071 11.4327 447.071 12.022C447.071 12.634 446.946 13.195 446.697 13.705C446.459 14.215 446.124 14.6513 445.694 15.014C445.274 15.3767 444.776 15.66 444.198 15.864C443.631 16.0567 443.019 16.153 442.362 16.153ZM442.345 14.708C442.821 14.708 443.251 14.6457 443.637 14.521C444.033 14.3963 444.373 14.2207 444.657 13.994C444.951 13.756 445.178 13.4783 445.337 13.161C445.495 12.8437 445.575 12.4867 445.575 12.09C445.575 11.6593 445.495 11.2853 445.337 10.968C445.189 10.6393 444.98 10.3673 444.708 10.152C444.436 9.92533 444.107 9.761 443.722 9.659C443.348 9.54567 442.94 9.489 442.498 9.489C441.41 9.489 440.582 9.72133 440.016 10.186C439.46 10.6507 439.183 11.2457 439.183 11.971C439.183 12.345 439.256 12.6963 439.404 13.025C439.551 13.3537 439.761 13.6427 440.033 13.892C440.305 14.1413 440.633 14.3397 441.019 14.487C441.415 14.6343 441.857 14.708 442.345 14.708ZM448.465 10.05C448.465 9.166 448.567 8.35567 448.771 7.619C448.975 6.871 449.281 6.225 449.689 5.681C450.109 5.137 450.636 4.712 451.27 4.406C451.905 4.1 452.653 3.947 453.514 3.947C454.376 3.947 455.124 4.08867 455.758 4.372C456.393 4.65533 456.92 5.06333 457.339 5.596C457.759 6.12867 458.07 6.77467 458.274 7.534C458.478 8.282 458.58 9.12067 458.58 10.05C458.58 10.934 458.478 11.75 458.274 12.498C458.082 13.2347 457.776 13.875 457.356 14.419C456.948 14.963 456.427 15.388 455.792 15.694C455.158 16 454.41 16.153 453.548 16.153C452.732 16.153 452.007 16 451.372 15.694C450.738 15.388 450.205 14.963 449.774 14.419C449.344 13.875 449.015 13.2347 448.788 12.498C448.573 11.75 448.465 10.934 448.465 10.05ZM449.961 10.05C449.961 11.5007 450.279 12.6397 450.913 13.467C451.548 14.2943 452.426 14.708 453.548 14.708C454.772 14.708 455.668 14.2943 456.234 13.467C456.801 12.6397 457.084 11.5007 457.084 10.05C457.084 8.59933 456.795 7.46033 456.217 6.633C455.639 5.80567 454.738 5.392 453.514 5.392C452.902 5.392 452.375 5.49967 451.933 5.715C451.491 5.93033 451.123 6.242 450.828 6.65C450.534 7.058 450.313 7.551 450.165 8.129C450.029 8.69567 449.961 9.336 449.961 10.05ZM461.227 4.1H468.707V5.545H462.536L462.094 8.741C462.355 8.54833 462.706 8.38967 463.148 8.265C463.601 8.129 464.151 8.061 464.797 8.061C465.511 8.061 466.146 8.163 466.701 8.367C467.256 8.571 467.721 8.85433 468.095 9.217C468.469 9.57967 468.752 10.0047 468.945 10.492C469.149 10.9793 469.251 11.5007 469.251 12.056C469.251 12.6567 469.132 13.2063 468.894 13.705C468.667 14.2037 468.344 14.6343 467.925 14.997C467.517 15.3597 467.03 15.643 466.463 15.847C465.908 16.051 465.301 16.153 464.644 16.153C464.1 16.153 463.579 16.0907 463.08 15.966C462.581 15.8413 462.117 15.6543 461.686 15.405C461.267 15.1557 460.893 14.8553 460.564 14.504C460.247 14.1413 459.992 13.722 459.799 13.246L461.159 12.668C461.272 12.9287 461.431 13.1837 461.635 13.433C461.839 13.671 462.088 13.8863 462.383 14.079C462.678 14.2717 463.012 14.4247 463.386 14.538C463.76 14.6513 464.179 14.708 464.644 14.708C465.165 14.708 465.619 14.64 466.004 14.504C466.401 14.3567 466.729 14.164 466.99 13.926C467.251 13.688 467.443 13.416 467.568 13.11C467.693 12.7927 467.755 12.4583 467.755 12.107C467.755 11.3023 467.455 10.6677 466.854 10.203C466.265 9.73833 465.443 9.506 464.389 9.506C463.788 9.506 463.284 9.591 462.876 9.761C462.479 9.91967 462.105 10.1747 461.754 10.526L460.53 10.203L461.227 4.1Z" fill="#222429"/>
<path d="M162.435 208.07C162.519 207.669 162.659 207.286 162.855 206.922C163.051 206.558 163.303 206.241 163.611 205.97C163.919 205.69 164.288 205.471 164.717 205.312C165.147 205.153 165.637 205.074 166.187 205.074C166.701 205.074 167.158 205.149 167.559 205.298C167.961 205.438 168.301 205.639 168.581 205.9C168.861 206.161 169.071 206.474 169.211 206.838C169.361 207.202 169.435 207.599 169.435 208.028C169.435 208.635 169.305 209.195 169.043 209.708C168.791 210.212 168.469 210.674 168.077 211.094C167.685 211.514 167.256 211.897 166.789 212.242C166.323 212.578 165.879 212.877 165.459 213.138L164.381 213.81H169.799V215H162.169V214.02L164.297 212.606C164.997 212.139 165.595 211.71 166.089 211.318C166.584 210.917 166.985 210.539 167.293 210.184C167.611 209.829 167.839 209.489 167.979 209.162C168.129 208.826 168.203 208.49 168.203 208.154C168.203 207.809 168.147 207.515 168.035 207.272C167.933 207.029 167.783 206.833 167.587 206.684C167.401 206.535 167.177 206.427 166.915 206.362C166.663 206.297 166.393 206.264 166.103 206.264C165.683 206.264 165.319 206.329 165.011 206.46C164.713 206.591 164.456 206.763 164.241 206.978C164.036 207.183 163.873 207.417 163.751 207.678C163.639 207.93 163.565 208.182 163.527 208.434L162.435 208.07ZM170.77 210.1C170.77 209.372 170.854 208.705 171.022 208.098C171.19 207.482 171.442 206.95 171.778 206.502C172.123 206.054 172.557 205.704 173.08 205.452C173.602 205.2 174.218 205.074 174.928 205.074C175.637 205.074 176.253 205.191 176.776 205.424C177.298 205.657 177.732 205.993 178.078 206.432C178.423 206.871 178.68 207.403 178.848 208.028C179.016 208.644 179.1 209.335 179.1 210.1C179.1 210.828 179.016 211.5 178.848 212.116C178.689 212.723 178.437 213.25 178.092 213.698C177.756 214.146 177.326 214.496 176.804 214.748C176.281 215 175.665 215.126 174.956 215.126C174.284 215.126 173.686 215 173.164 214.748C172.641 214.496 172.202 214.146 171.848 213.698C171.493 213.25 171.222 212.723 171.036 212.116C170.858 211.5 170.77 210.828 170.77 210.1ZM172.002 210.1C172.002 211.295 172.263 212.233 172.786 212.914C173.308 213.595 174.032 213.936 174.956 213.936C175.964 213.936 176.701 213.595 177.168 212.914C177.634 212.233 177.868 211.295 177.868 210.1C177.868 208.905 177.63 207.967 177.154 207.286C176.678 206.605 175.936 206.264 174.928 206.264C174.424 206.264 173.99 206.353 173.626 206.53C173.262 206.707 172.958 206.964 172.716 207.3C172.473 207.636 172.291 208.042 172.17 208.518C172.058 208.985 172.002 209.512 172.002 210.1ZM182.945 205.144H183.743V215H182.567V206.642L180.033 207.804L179.585 206.754L182.945 205.144ZM189.295 215.126C188.445 215.126 187.717 214.963 187.111 214.636C186.513 214.309 186.065 213.894 185.767 213.39L186.775 212.69C187.064 213.091 187.442 213.399 187.909 213.614C188.385 213.829 188.903 213.936 189.463 213.936C189.892 213.936 190.284 213.852 190.639 213.684C191.003 213.507 191.315 213.264 191.577 212.956C191.847 212.648 192.057 212.284 192.207 211.864C192.356 211.444 192.431 210.987 192.431 210.492C192.431 210.436 192.431 210.38 192.431 210.324C192.431 210.268 192.426 210.212 192.417 210.156C192.193 210.688 191.81 211.131 191.269 211.486C190.737 211.831 190.06 212.004 189.239 212.004C188.697 212.004 188.198 211.925 187.741 211.766C187.283 211.598 186.887 211.369 186.551 211.08C186.215 210.781 185.953 210.427 185.767 210.016C185.58 209.605 185.487 209.148 185.487 208.644C185.487 208.103 185.585 207.613 185.781 207.174C185.986 206.726 186.271 206.348 186.635 206.04C186.999 205.732 187.433 205.494 187.937 205.326C188.45 205.158 189.015 205.074 189.631 205.074C190.256 205.074 190.816 205.181 191.311 205.396C191.815 205.601 192.239 205.909 192.585 206.32C192.939 206.731 193.21 207.239 193.397 207.846C193.583 208.443 193.677 209.134 193.677 209.918C193.677 210.777 193.569 211.533 193.355 212.186C193.149 212.83 192.851 213.371 192.459 213.81C192.076 214.239 191.614 214.566 191.073 214.79C190.541 215.014 189.948 215.126 189.295 215.126ZM189.463 210.814C189.864 210.814 190.228 210.758 190.555 210.646C190.881 210.534 191.157 210.38 191.381 210.184C191.614 209.979 191.791 209.741 191.913 209.47C192.034 209.199 192.095 208.91 192.095 208.602C192.095 208.303 192.048 208.014 191.955 207.734C191.861 207.454 191.712 207.207 191.507 206.992C191.301 206.768 191.031 206.591 190.695 206.46C190.368 206.329 189.967 206.264 189.491 206.264C188.623 206.264 187.941 206.46 187.447 206.852C186.961 207.235 186.719 207.799 186.719 208.546C186.719 209.255 186.966 209.811 187.461 210.212C187.955 210.613 188.623 210.814 189.463 210.814Z" fill="#777F8C"/>
<rect x="153" y="82" width="50" height="113" fill="#BFCED4"/>
<rect x="153" y="82" width="50" height="4" fill="#A6B2BC"/>
<path d="M158.2 61.032H159.169V73H157.741V62.851L154.664 64.262L154.12 62.987L158.2 61.032ZM165.881 61.1H174.908V62.069L168.992 73H167.377L173.089 62.545H165.881V61.1ZM175.881 63.99C176.04 63.548 176.255 63.1457 176.527 62.783C176.799 62.409 177.128 62.086 177.513 61.814C177.91 61.542 178.363 61.3323 178.873 61.185C179.395 61.0263 179.978 60.947 180.624 60.947C181.202 60.947 181.735 61.0207 182.222 61.168C182.721 61.304 183.146 61.5023 183.497 61.763C183.86 62.0123 184.138 62.324 184.33 62.698C184.534 63.072 184.636 63.4857 184.636 63.939C184.636 64.6303 184.455 65.2197 184.092 65.707C183.741 66.1943 183.225 66.5343 182.545 66.727C182.84 66.7497 183.129 66.8233 183.412 66.948C183.696 67.0613 183.945 67.237 184.16 67.475C184.387 67.7017 184.568 67.9907 184.704 68.342C184.84 68.682 184.908 69.09 184.908 69.566C184.908 70.144 184.795 70.6597 184.568 71.113C184.353 71.555 184.047 71.929 183.65 72.235C183.265 72.5297 182.806 72.7563 182.273 72.915C181.741 73.0737 181.168 73.153 180.556 73.153C179.888 73.153 179.276 73.0737 178.72 72.915C178.176 72.7563 177.695 72.541 177.275 72.269C176.856 71.9857 176.499 71.6513 176.204 71.266C175.921 70.8693 175.706 70.433 175.558 69.957L176.935 69.362C177.083 69.668 177.258 69.9627 177.462 70.246C177.666 70.5293 177.916 70.7787 178.21 70.994C178.505 71.2093 178.851 71.385 179.247 71.521C179.644 71.6457 180.114 71.708 180.658 71.708C181.508 71.708 182.177 71.5267 182.664 71.164C183.163 70.79 183.412 70.263 183.412 69.583C183.412 69.209 183.333 68.8973 183.174 68.648C183.016 68.3873 182.795 68.1833 182.511 68.036C182.228 67.8773 181.894 67.7697 181.508 67.713C181.134 67.645 180.726 67.611 180.284 67.611H178.958V66.2H180.012C180.998 66.2 181.763 66.013 182.307 65.639C182.863 65.265 183.14 64.7947 183.14 64.228C183.14 63.616 182.908 63.157 182.443 62.851C181.979 62.545 181.35 62.392 180.556 62.392C180.069 62.392 179.638 62.4543 179.264 62.579C178.89 62.7037 178.562 62.868 178.278 63.072C178.006 63.276 177.774 63.5083 177.581 63.769C177.4 64.0297 177.258 64.296 177.156 64.568L175.881 63.99ZM193.259 70.62H185.932V69.532L193.429 61.1H194.687V69.175H196.897V70.62H194.687V73H193.259V70.62ZM193.259 69.175V63.48L187.972 69.175H193.259Z" fill="#222429"/>
<path d="M72.4354 208.07C72.5194 207.669 72.6594 207.286 72.8554 206.922C73.0514 206.558 73.3034 206.241 73.6114 205.97C73.9194 205.69 74.2881 205.471 74.7174 205.312C75.1467 205.153 75.6367 205.074 76.1874 205.074C76.7007 205.074 77.1581 205.149 77.5594 205.298C77.9607 205.438 78.3014 205.639 78.5814 205.9C78.8614 206.161 79.0714 206.474 79.2114 206.838C79.3607 207.202 79.4354 207.599 79.4354 208.028C79.4354 208.635 79.3047 209.195 79.0434 209.708C78.7914 210.212 78.4694 210.674 78.0774 211.094C77.6854 211.514 77.2561 211.897 76.7894 212.242C76.3227 212.578 75.8794 212.877 75.4594 213.138L74.3814 213.81H79.7994V215H72.1694V214.02L74.2974 212.606C74.9974 212.139 75.5947 211.71 76.0894 211.318C76.5841 210.917 76.9854 210.539 77.2934 210.184C77.6107 209.829 77.8394 209.489 77.9794 209.162C78.1287 208.826 78.2034 208.49 78.2034 208.154C78.2034 207.809 78.1474 207.515 78.0354 207.272C77.9327 207.029 77.7834 206.833 77.5874 206.684C77.4007 206.535 77.1767 206.427 76.9154 206.362C76.6634 206.297 76.3927 206.264 76.1034 206.264C75.6834 206.264 75.3194 206.329 75.0114 206.46C74.7127 206.591 74.4561 206.763 74.2414 206.978C74.0361 207.183 73.8727 207.417 73.7514 207.678C73.6394 207.93 73.5647 208.182 73.5274 208.434L72.4354 208.07ZM80.7697 210.1C80.7697 209.372 80.8537 208.705 81.0217 208.098C81.1897 207.482 81.4417 206.95 81.7777 206.502C82.123 206.054 82.557 205.704 83.0797 205.452C83.6023 205.2 84.2183 205.074 84.9277 205.074C85.637 205.074 86.253 205.191 86.7757 205.424C87.2983 205.657 87.7323 205.993 88.0777 206.432C88.423 206.871 88.6797 207.403 88.8477 208.028C89.0157 208.644 89.0997 209.335 89.0997 210.1C89.0997 210.828 89.0157 211.5 88.8477 212.116C88.689 212.723 88.437 213.25 88.0917 213.698C87.7557 214.146 87.3263 214.496 86.8037 214.748C86.281 215 85.665 215.126 84.9557 215.126C84.2837 215.126 83.6863 215 83.1637 214.748C82.641 214.496 82.2023 214.146 81.8477 213.698C81.493 213.25 81.2223 212.723 81.0357 212.116C80.8583 211.5 80.7697 210.828 80.7697 210.1ZM82.0017 210.1C82.0017 211.295 82.263 212.233 82.7857 212.914C83.3083 213.595 84.0317 213.936 84.9557 213.936C85.9637 213.936 86.701 213.595 87.1677 212.914C87.6343 212.233 87.8677 211.295 87.8677 210.1C87.8677 208.905 87.6297 207.967 87.1537 207.286C86.6777 206.605 85.9357 206.264 84.9277 206.264C84.4237 206.264 83.9897 206.353 83.6257 206.53C83.2617 206.707 82.9583 206.964 82.7157 207.3C82.473 207.636 82.291 208.042 82.1697 208.518C82.0577 208.985 82.0017 209.512 82.0017 210.1ZM92.9453 205.144H93.7433V215H92.5673V206.642L90.0333 207.804L89.5853 206.754L92.9453 205.144ZM99.8267 209.414C100.144 209.414 100.438 209.377 100.709 209.302C100.989 209.218 101.231 209.106 101.437 208.966C101.642 208.826 101.801 208.658 101.913 208.462C102.034 208.266 102.095 208.051 102.095 207.818C102.095 207.314 101.885 206.931 101.465 206.67C101.054 206.399 100.424 206.264 99.5747 206.264C98.7534 206.264 98.1327 206.399 97.7127 206.67C97.3021 206.941 97.0967 207.323 97.0967 207.818C97.0967 208.042 97.1527 208.252 97.2647 208.448C97.3767 208.644 97.5307 208.817 97.7267 208.966C97.9321 209.106 98.1747 209.218 98.4547 209.302C98.7441 209.377 99.0567 209.414 99.3927 209.414H99.8267ZM99.4487 210.52C99.0567 210.52 98.6927 210.567 98.3567 210.66C98.0301 210.744 97.7501 210.865 97.5167 211.024C97.2834 211.173 97.1014 211.355 96.9707 211.57C96.8401 211.775 96.7747 211.995 96.7747 212.228C96.7747 212.732 97.0081 213.143 97.4747 213.46C97.9507 213.777 98.6554 213.936 99.5887 213.936C100.55 213.936 101.259 213.787 101.717 213.488C102.174 213.18 102.403 212.765 102.403 212.242C102.403 211.691 102.165 211.267 101.689 210.968C101.222 210.669 100.592 210.52 99.7987 210.52H99.4487ZM99.6027 215.126C98.9774 215.126 98.4127 215.065 97.9087 214.944C97.4141 214.813 96.9894 214.631 96.6347 214.398C96.2894 214.155 96.0187 213.866 95.8227 213.53C95.6361 213.185 95.5427 212.793 95.5427 212.354C95.5427 211.775 95.7154 211.276 96.0607 210.856C96.4154 210.427 96.8867 210.119 97.4747 209.932C97.1947 209.839 96.9521 209.717 96.7467 209.568C96.5414 209.409 96.3734 209.232 96.2427 209.036C96.1121 208.84 96.0141 208.635 95.9487 208.42C95.8927 208.196 95.8647 207.967 95.8647 207.734C95.8647 206.922 96.1821 206.278 96.8167 205.802C97.4607 205.317 98.3847 205.074 99.5887 205.074C100.802 205.074 101.726 205.317 102.361 205.802C103.005 206.278 103.327 206.922 103.327 207.734C103.327 208.238 103.187 208.663 102.907 209.008C102.636 209.353 102.258 209.638 101.773 209.862C102.445 210.067 102.921 210.375 103.201 210.786C103.49 211.197 103.635 211.701 103.635 212.298C103.635 212.746 103.541 213.147 103.355 213.502C103.168 213.847 102.897 214.141 102.543 214.384C102.197 214.627 101.773 214.813 101.269 214.944C100.774 215.065 100.219 215.126 99.6027 215.126Z" fill="#777F8C"/>
<rect x="63" y="95" width="50" height="100" fill="#BFCED4"/>
<rect x="63" y="95" width="50" height="4" fill="#A6B2BC"/>
<path d="M68.1749 74.032H69.1439V86H67.7159V75.851L64.6389 77.262L64.0949 75.987L68.1749 74.032ZM77.4536 74.1H84.9336V75.545H78.7626L78.3206 78.741C78.5813 78.5483 78.9326 78.3897 79.3746 78.265C79.828 78.129 80.3776 78.061 81.0236 78.061C81.7376 78.061 82.3723 78.163 82.9276 78.367C83.483 78.571 83.9476 78.8543 84.3216 79.217C84.6956 79.5797 84.979 80.0047 85.1716 80.492C85.3756 80.9793 85.4776 81.5007 85.4776 82.056C85.4776 82.6567 85.3586 83.2063 85.1206 83.705C84.894 84.2037 84.571 84.6343 84.1516 84.997C83.7436 85.3597 83.2563 85.643 82.6896 85.847C82.1343 86.051 81.528 86.153 80.8706 86.153C80.3266 86.153 79.8053 86.0907 79.3066 85.966C78.808 85.8413 78.3433 85.6543 77.9126 85.405C77.4933 85.1557 77.1193 84.8553 76.7906 84.504C76.4733 84.1413 76.2183 83.722 76.0256 83.246L77.3856 82.668C77.499 82.9287 77.6576 83.1837 77.8616 83.433C78.0656 83.671 78.315 83.8863 78.6096 84.079C78.9043 84.2717 79.2386 84.4247 79.6126 84.538C79.9866 84.6513 80.406 84.708 80.8706 84.708C81.392 84.708 81.8453 84.64 82.2306 84.504C82.6273 84.3567 82.956 84.164 83.2166 83.926C83.4773 83.688 83.67 83.416 83.7946 83.11C83.9193 82.7927 83.9816 82.4583 83.9816 82.107C83.9816 81.3023 83.6813 80.6677 83.0806 80.203C82.4913 79.7383 81.6696 79.506 80.6156 79.506C80.015 79.506 79.5106 79.591 79.1026 79.761C78.706 79.9197 78.332 80.1747 77.9806 80.526L76.7566 80.203L77.4536 74.1ZM86.836 76.99C86.9947 76.548 87.21 76.1457 87.482 75.783C87.754 75.409 88.0827 75.086 88.468 74.814C88.8647 74.542 89.318 74.3323 89.828 74.185C90.3494 74.0263 90.933 73.947 91.579 73.947C92.157 73.947 92.6897 74.0207 93.177 74.168C93.6757 74.304 94.1007 74.5023 94.452 74.763C94.8147 75.0123 95.0924 75.324 95.285 75.698C95.489 76.072 95.591 76.4857 95.591 76.939C95.591 77.6303 95.4097 78.2197 95.047 78.707C94.6957 79.1943 94.18 79.5343 93.5 79.727C93.7947 79.7497 94.0837 79.8233 94.367 79.948C94.6504 80.0613 94.8997 80.237 95.115 80.475C95.3417 80.7017 95.523 80.9907 95.659 81.342C95.795 81.682 95.863 82.09 95.863 82.566C95.863 83.144 95.7497 83.6597 95.523 84.113C95.3077 84.555 95.0017 84.929 94.605 85.235C94.2197 85.5297 93.7607 85.7563 93.228 85.915C92.6954 86.0737 92.123 86.153 91.511 86.153C90.8424 86.153 90.2304 86.0737 89.675 85.915C89.131 85.7563 88.6494 85.541 88.23 85.269C87.8107 84.9857 87.4537 84.6513 87.159 84.266C86.8757 83.8693 86.6604 83.433 86.513 82.957L87.89 82.362C88.0374 82.668 88.213 82.9627 88.417 83.246C88.621 83.5293 88.8704 83.7787 89.165 83.994C89.4597 84.2093 89.8054 84.385 90.202 84.521C90.5987 84.6457 91.069 84.708 91.613 84.708C92.463 84.708 93.1317 84.5267 93.619 84.164C94.1177 83.79 94.367 83.263 94.367 82.583C94.367 82.209 94.2877 81.8973 94.129 81.648C93.9704 81.3873 93.7494 81.1833 93.466 81.036C93.1827 80.8773 92.8484 80.7697 92.463 80.713C92.089 80.645 91.681 80.611 91.239 80.611H89.913V79.2H90.967C91.953 79.2 92.718 79.013 93.262 78.639C93.8174 78.265 94.095 77.7947 94.095 77.228C94.095 76.616 93.8627 76.157 93.398 75.851C92.9334 75.545 92.3044 75.392 91.511 75.392C91.0237 75.392 90.593 75.4543 90.219 75.579C89.845 75.7037 89.5164 75.868 89.233 76.072C88.961 76.276 88.7287 76.5083 88.536 76.769C88.3547 77.0297 88.213 77.296 88.111 77.568L86.836 76.99ZM97.3282 76.99C97.4869 76.548 97.7022 76.1457 97.9742 75.783C98.2462 75.409 98.5749 75.086 98.9602 74.814C99.3569 74.542 99.8102 74.3323 100.32 74.185C100.842 74.0263 101.425 73.947 102.071 73.947C102.649 73.947 103.182 74.0207 103.669 74.168C104.168 74.304 104.593 74.5023 104.944 74.763C105.307 75.0123 105.585 75.324 105.777 75.698C105.981 76.072 106.083 76.4857 106.083 76.939C106.083 77.6303 105.902 78.2197 105.539 78.707C105.188 79.1943 104.672 79.5343 103.992 79.727C104.287 79.7497 104.576 79.8233 104.859 79.948C105.143 80.0613 105.392 80.237 105.607 80.475C105.834 80.7017 106.015 80.9907 106.151 81.342C106.287 81.682 106.355 82.09 106.355 82.566C106.355 83.144 106.242 83.6597 106.015 84.113C105.8 84.555 105.494 84.929 105.097 85.235C104.712 85.5297 104.253 85.7563 103.72 85.915C103.188 86.0737 102.615 86.153 102.003 86.153C101.335 86.153 100.723 86.0737 100.167 85.915C99.6232 85.7563 99.1416 85.541 98.7222 85.269C98.3029 84.9857 97.9459 84.6513 97.6512 84.266C97.3679 83.8693 97.1526 83.433 97.0052 82.957L98.3822 82.362C98.5296 82.668 98.7052 82.9627 98.9092 83.246C99.1132 83.5293 99.3626 83.7787 99.6572 83.994C99.9519 84.2093 100.298 84.385 100.694 84.521C101.091 84.6457 101.561 84.708 102.105 84.708C102.955 84.708 103.624 84.5267 104.111 84.164C104.61 83.79 104.859 83.263 104.859 82.583C104.859 82.209 104.78 81.8973 104.621 81.648C104.463 81.3873 104.242 81.1833 103.958 81.036C103.675 80.8773 103.341 80.7697 102.955 80.713C102.581 80.645 102.173 80.611 101.731 80.611H100.405V79.2H101.459C102.445 79.2 103.21 79.013 103.754 78.639C104.31 78.265 104.587 77.7947 104.587 77.228C104.587 76.616 104.355 76.157 103.89 75.851C103.426 75.545 102.797 75.392 102.003 75.392C101.516 75.392 101.085 75.4543 100.711 75.579C100.337 75.7037 100.009 75.868 99.7252 76.072C99.4532 76.276 99.2209 76.5083 99.0282 76.769C98.8469 77.0297 98.7052 77.296 98.6032 77.568L97.3282 76.99Z" fill="#222429"/>
<path d="M250.822 208.07C250.906 207.669 251.046 207.286 251.242 206.922C251.438 206.558 251.69 206.241 251.998 205.97C252.306 205.69 252.675 205.471 253.104 205.312C253.533 205.153 254.023 205.074 254.574 205.074C255.087 205.074 255.545 205.149 255.946 205.298C256.347 205.438 256.688 205.639 256.968 205.9C257.248 206.161 257.458 206.474 257.598 206.838C257.747 207.202 257.822 207.599 257.822 208.028C257.822 208.635 257.691 209.195 257.43 209.708C257.178 210.212 256.856 210.674 256.464 211.094C256.072 211.514 255.643 211.897 255.176 212.242C254.709 212.578 254.266 212.877 253.846 213.138L252.768 213.81H258.186V215H250.556V214.02L252.684 212.606C253.384 212.139 253.981 211.71 254.476 211.318C254.971 210.917 255.372 210.539 255.68 210.184C255.997 209.829 256.226 209.489 256.366 209.162C256.515 208.826 256.59 208.49 256.59 208.154C256.59 207.809 256.534 207.515 256.422 207.272C256.319 207.029 256.17 206.833 255.974 206.684C255.787 206.535 255.563 206.427 255.302 206.362C255.05 206.297 254.779 206.264 254.49 206.264C254.07 206.264 253.706 206.329 253.398 206.46C253.099 206.591 252.843 206.763 252.628 206.978C252.423 207.183 252.259 207.417 252.138 207.678C252.026 207.93 251.951 208.182 251.914 208.434L250.822 208.07ZM259.156 210.1C259.156 209.372 259.24 208.705 259.408 208.098C259.576 207.482 259.828 206.95 260.164 206.502C260.51 206.054 260.944 205.704 261.466 205.452C261.989 205.2 262.605 205.074 263.314 205.074C264.024 205.074 264.64 205.191 265.162 205.424C265.685 205.657 266.119 205.993 266.464 206.432C266.81 206.871 267.066 207.403 267.234 208.028C267.402 208.644 267.486 209.335 267.486 210.1C267.486 210.828 267.402 211.5 267.234 212.116C267.076 212.723 266.824 213.25 266.478 213.698C266.142 214.146 265.713 214.496 265.19 214.748C264.668 215 264.052 215.126 263.342 215.126C262.67 215.126 262.073 215 261.55 214.748C261.028 214.496 260.589 214.146 260.234 213.698C259.88 213.25 259.609 212.723 259.422 212.116C259.245 211.5 259.156 210.828 259.156 210.1ZM260.388 210.1C260.388 211.295 260.65 212.233 261.172 212.914C261.695 213.595 262.418 213.936 263.342 213.936C264.35 213.936 265.088 213.595 265.554 212.914C266.021 212.233 266.254 211.295 266.254 210.1C266.254 208.905 266.016 207.967 265.54 207.286C265.064 206.605 264.322 206.264 263.314 206.264C262.81 206.264 262.376 206.353 262.012 206.53C261.648 206.707 261.345 206.964 261.102 207.3C260.86 207.636 260.678 208.042 260.556 208.518C260.444 208.985 260.388 209.512 260.388 210.1ZM268.63 208.07C268.714 207.669 268.854 207.286 269.05 206.922C269.246 206.558 269.498 206.241 269.806 205.97C270.114 205.69 270.483 205.471 270.912 205.312C271.341 205.153 271.831 205.074 272.382 205.074C272.895 205.074 273.353 205.149 273.754 205.298C274.155 205.438 274.496 205.639 274.776 205.9C275.056 206.161 275.266 206.474 275.406 206.838C275.555 207.202 275.63 207.599 275.63 208.028C275.63 208.635 275.499 209.195 275.238 209.708C274.986 210.212 274.664 210.674 274.272 211.094C273.88 211.514 273.451 211.897 272.984 212.242C272.517 212.578 272.074 212.877 271.654 213.138L270.576 213.81H275.994V215H268.364V214.02L270.492 212.606C271.192 212.139 271.789 211.71 272.284 211.318C272.779 210.917 273.18 210.539 273.488 210.184C273.805 209.829 274.034 209.489 274.174 209.162C274.323 208.826 274.398 208.49 274.398 208.154C274.398 207.809 274.342 207.515 274.23 207.272C274.127 207.029 273.978 206.833 273.782 206.684C273.595 206.535 273.371 206.427 273.11 206.362C272.858 206.297 272.587 206.264 272.298 206.264C271.878 206.264 271.514 206.329 271.206 206.46C270.907 206.591 270.651 206.763 270.436 206.978C270.231 207.183 270.067 207.417 269.946 207.678C269.834 207.93 269.759 208.182 269.722 208.434L268.63 208.07ZM276.964 210.1C276.964 209.372 277.048 208.705 277.216 208.098C277.384 207.482 277.636 206.95 277.972 206.502C278.318 206.054 278.752 205.704 279.274 205.452C279.797 205.2 280.413 205.074 281.122 205.074C281.832 205.074 282.448 205.191 282.97 205.424C283.493 205.657 283.927 205.993 284.272 206.432C284.618 206.871 284.874 207.403 285.042 208.028C285.21 208.644 285.294 209.335 285.294 210.1C285.294 210.828 285.21 211.5 285.042 212.116C284.884 212.723 284.632 213.25 284.286 213.698C283.95 214.146 283.521 214.496 282.998 214.748C282.476 215 281.86 215.126 281.15 215.126C280.478 215.126 279.881 215 279.358 214.748C278.836 214.496 278.397 214.146 278.042 213.698C277.688 213.25 277.417 212.723 277.23 212.116C277.053 211.5 276.964 210.828 276.964 210.1ZM278.196 210.1C278.196 211.295 278.458 212.233 278.98 212.914C279.503 213.595 280.226 213.936 281.15 213.936C282.158 213.936 282.896 213.595 283.362 212.914C283.829 212.233 284.062 211.295 284.062 210.1C284.062 208.905 283.824 207.967 283.348 207.286C282.872 206.605 282.13 206.264 281.122 206.264C280.618 206.264 280.184 206.353 279.82 206.53C279.456 206.707 279.153 206.964 278.91 207.3C278.668 207.636 278.486 208.042 278.364 208.518C278.252 208.985 278.196 209.512 278.196 210.1Z" fill="#777F8C"/>
<rect x="243" y="66" width="50" height="129" fill="#BFCED4"/>
<rect x="243" y="66" width="50" height="4" fill="#A6B2BC"/>
<path d="M245.436 45.032H246.405V57H244.977V46.851L241.9 48.262L241.356 46.987L245.436 45.032ZM258.08 57.153C257.049 57.153 256.165 56.9547 255.428 56.558C254.703 56.1613 254.159 55.657 253.796 55.045L255.02 54.195C255.372 54.6823 255.831 55.0563 256.397 55.317C256.975 55.5777 257.604 55.708 258.284 55.708C258.806 55.708 259.282 55.606 259.712 55.402C260.154 55.1867 260.534 54.892 260.851 54.518C261.18 54.144 261.435 53.702 261.616 53.192C261.798 52.682 261.888 52.1267 261.888 51.526C261.888 51.458 261.888 51.39 261.888 51.322C261.888 51.254 261.883 51.186 261.871 51.118C261.599 51.764 261.135 52.3023 260.477 52.733C259.831 53.1523 259.01 53.362 258.012 53.362C257.355 53.362 256.749 53.2657 256.193 53.073C255.638 52.869 255.156 52.5913 254.748 52.24C254.34 51.8773 254.023 51.4467 253.796 50.948C253.57 50.4493 253.456 49.894 253.456 49.282C253.456 48.6247 253.575 48.0297 253.813 47.497C254.063 46.953 254.408 46.494 254.85 46.12C255.292 45.746 255.819 45.457 256.431 45.253C257.055 45.049 257.74 44.947 258.488 44.947C259.248 44.947 259.928 45.0773 260.528 45.338C261.14 45.5873 261.656 45.9613 262.075 46.46C262.506 46.9587 262.835 47.5763 263.061 48.313C263.288 49.0383 263.401 49.877 263.401 50.829C263.401 51.8717 263.271 52.7897 263.01 53.583C262.761 54.365 262.398 55.0223 261.922 55.555C261.458 56.0763 260.897 56.473 260.239 56.745C259.593 57.017 258.874 57.153 258.08 57.153ZM258.284 51.917C258.772 51.917 259.214 51.849 259.61 51.713C260.007 51.577 260.341 51.39 260.613 51.152C260.897 50.9027 261.112 50.6137 261.259 50.285C261.407 49.9563 261.48 49.605 261.48 49.231C261.48 48.8683 261.424 48.517 261.31 48.177C261.197 47.837 261.016 47.5367 260.766 47.276C260.517 47.004 260.188 46.7887 259.78 46.63C259.384 46.4713 258.896 46.392 258.318 46.392C257.264 46.392 256.437 46.63 255.836 47.106C255.247 47.5707 254.952 48.2563 254.952 49.163C254.952 50.0243 255.253 50.6987 255.853 51.186C256.454 51.6733 257.264 51.917 258.284 51.917ZM264.455 45.1H273.482V46.069L267.566 57H265.951L271.663 46.545H264.455V45.1ZM279.777 50.217C280.162 50.217 280.519 50.1717 280.848 50.081C281.188 49.979 281.483 49.843 281.732 49.673C281.981 49.503 282.174 49.299 282.31 49.061C282.457 48.823 282.531 48.5623 282.531 48.279C282.531 47.667 282.276 47.2023 281.766 46.885C281.267 46.5563 280.502 46.392 279.471 46.392C278.474 46.392 277.72 46.5563 277.21 46.885C276.711 47.2137 276.462 47.6783 276.462 48.279C276.462 48.551 276.53 48.806 276.666 49.044C276.802 49.282 276.989 49.4917 277.227 49.673C277.476 49.843 277.771 49.979 278.111 50.081C278.462 50.1717 278.842 50.217 279.25 50.217H279.777ZM279.318 51.56C278.842 51.56 278.4 51.6167 277.992 51.73C277.595 51.832 277.255 51.9793 276.972 52.172C276.689 52.3533 276.468 52.5743 276.309 52.835C276.15 53.0843 276.071 53.3507 276.071 53.634C276.071 54.246 276.354 54.7447 276.921 55.13C277.499 55.5153 278.355 55.708 279.488 55.708C280.655 55.708 281.517 55.5267 282.072 55.164C282.627 54.79 282.905 54.2857 282.905 53.651C282.905 52.9823 282.616 52.4667 282.038 52.104C281.471 51.7413 280.706 51.56 279.743 51.56H279.318ZM279.505 57.153C278.746 57.153 278.06 57.0793 277.448 56.932C276.847 56.7733 276.332 56.5523 275.901 56.269C275.482 55.9743 275.153 55.623 274.915 55.215C274.688 54.7957 274.575 54.3197 274.575 53.787C274.575 53.0843 274.785 52.478 275.204 51.968C275.635 51.4467 276.207 51.0727 276.921 50.846C276.581 50.7327 276.286 50.5853 276.037 50.404C275.788 50.2113 275.584 49.996 275.425 49.758C275.266 49.52 275.147 49.2707 275.068 49.01C275 48.738 274.966 48.4603 274.966 48.177C274.966 47.191 275.351 46.409 276.122 45.831C276.904 45.2417 278.026 44.947 279.488 44.947C280.961 44.947 282.083 45.2417 282.854 45.831C283.636 46.409 284.027 47.191 284.027 48.177C284.027 48.789 283.857 49.3047 283.517 49.724C283.188 50.1433 282.729 50.489 282.14 50.761C282.956 51.0103 283.534 51.3843 283.874 51.883C284.225 52.3817 284.401 52.9937 284.401 53.719C284.401 54.263 284.288 54.7503 284.061 55.181C283.834 55.6003 283.506 55.9573 283.075 56.252C282.656 56.5467 282.14 56.7733 281.528 56.932C280.927 57.0793 280.253 57.153 279.505 57.153Z" fill="#222429"/>
<path d="M342.818 208.07C342.902 207.669 343.042 207.286 343.238 206.922C343.434 206.558 343.686 206.241 343.994 205.97C344.302 205.69 344.671 205.471 345.1 205.312C345.53 205.153 346.02 205.074 346.57 205.074C347.084 205.074 347.541 205.149 347.942 205.298C348.344 205.438 348.684 205.639 348.964 205.9C349.244 206.161 349.454 206.474 349.594 206.838C349.744 207.202 349.818 207.599 349.818 208.028C349.818 208.635 349.688 209.195 349.426 209.708C349.174 210.212 348.852 210.674 348.46 211.094C348.068 211.514 347.639 211.897 347.172 212.242C346.706 212.578 346.262 212.877 345.842 213.138L344.764 213.81H350.182V215H342.552V214.02L344.68 212.606C345.38 212.139 345.978 211.71 346.472 211.318C346.967 210.917 347.368 210.539 347.676 210.184C347.994 209.829 348.222 209.489 348.362 209.162C348.512 208.826 348.586 208.49 348.586 208.154C348.586 207.809 348.53 207.515 348.418 207.272C348.316 207.029 348.166 206.833 347.97 206.684C347.784 206.535 347.56 206.427 347.298 206.362C347.046 206.297 346.776 206.264 346.486 206.264C346.066 206.264 345.702 206.329 345.394 206.46C345.096 206.591 344.839 206.763 344.624 206.978C344.419 207.183 344.256 207.417 344.134 207.678C344.022 207.93 343.948 208.182 343.91 208.434L342.818 208.07ZM351.152 210.1C351.152 209.372 351.236 208.705 351.404 208.098C351.572 207.482 351.824 206.95 352.16 206.502C352.506 206.054 352.94 205.704 353.462 205.452C353.985 205.2 354.601 205.074 355.31 205.074C356.02 205.074 356.636 205.191 357.158 205.424C357.681 205.657 358.115 205.993 358.46 206.432C358.806 206.871 359.062 207.403 359.23 208.028C359.398 208.644 359.482 209.335 359.482 210.1C359.482 210.828 359.398 211.5 359.23 212.116C359.072 212.723 358.82 213.25 358.474 213.698C358.138 214.146 357.709 214.496 357.186 214.748C356.664 215 356.048 215.126 355.338 215.126C354.666 215.126 354.069 215 353.546 214.748C353.024 214.496 352.585 214.146 352.23 213.698C351.876 213.25 351.605 212.723 351.418 212.116C351.241 211.5 351.152 210.828 351.152 210.1ZM352.384 210.1C352.384 211.295 352.646 212.233 353.168 212.914C353.691 213.595 354.414 213.936 355.338 213.936C356.346 213.936 357.084 213.595 357.55 212.914C358.017 212.233 358.25 211.295 358.25 210.1C358.25 208.905 358.012 207.967 357.536 207.286C357.06 206.605 356.318 206.264 355.31 206.264C354.806 206.264 354.372 206.353 354.008 206.53C353.644 206.707 353.341 206.964 353.098 207.3C352.856 207.636 352.674 208.042 352.552 208.518C352.44 208.985 352.384 209.512 352.384 210.1ZM360.626 208.07C360.71 207.669 360.85 207.286 361.046 206.922C361.242 206.558 361.494 206.241 361.802 205.97C362.11 205.69 362.479 205.471 362.908 205.312C363.337 205.153 363.827 205.074 364.378 205.074C364.891 205.074 365.349 205.149 365.75 205.298C366.151 205.438 366.492 205.639 366.772 205.9C367.052 206.161 367.262 206.474 367.402 206.838C367.551 207.202 367.626 207.599 367.626 208.028C367.626 208.635 367.495 209.195 367.234 209.708C366.982 210.212 366.66 210.674 366.268 211.094C365.876 211.514 365.447 211.897 364.98 212.242C364.513 212.578 364.07 212.877 363.65 213.138L362.572 213.81H367.99V215H360.36V214.02L362.488 212.606C363.188 212.139 363.785 211.71 364.28 211.318C364.775 210.917 365.176 210.539 365.484 210.184C365.801 209.829 366.03 209.489 366.17 209.162C366.319 208.826 366.394 208.49 366.394 208.154C366.394 207.809 366.338 207.515 366.226 207.272C366.123 207.029 365.974 206.833 365.778 206.684C365.591 206.535 365.367 206.427 365.106 206.362C364.854 206.297 364.583 206.264 364.294 206.264C363.874 206.264 363.51 206.329 363.202 206.46C362.903 206.591 362.647 206.763 362.432 206.978C362.227 207.183 362.063 207.417 361.942 207.678C361.83 207.93 361.755 208.182 361.718 208.434L360.626 208.07ZM371.76 205.144H372.558V215H371.382V206.642L368.848 207.804L368.4 206.754L371.76 205.144Z" fill="#777F8C"/>
<rect x="333" y="51" width="50" height="144" fill="#BFCED4"/>
<rect x="333" y="51" width="50" height="4" fill="#A6B2BC"/>
<path d="M332.553 33.585C332.655 33.0977 332.825 32.633 333.063 32.191C333.301 31.749 333.607 31.3637 333.981 31.035C334.355 30.695 334.803 30.4287 335.324 30.236C335.845 30.0433 336.44 29.947 337.109 29.947C337.732 29.947 338.288 30.0377 338.775 30.219C339.262 30.389 339.676 30.6327 340.016 30.95C340.356 31.2673 340.611 31.647 340.781 32.089C340.962 32.531 341.053 33.0127 341.053 33.534C341.053 34.2707 340.894 34.9507 340.577 35.574C340.271 36.186 339.88 36.747 339.404 37.257C338.928 37.767 338.407 38.2317 337.84 38.651C337.273 39.059 336.735 39.4217 336.225 39.739L334.916 40.555H341.495V42H332.23V40.81L334.814 39.093C335.664 38.5263 336.389 38.005 336.99 37.529C337.591 37.0417 338.078 36.5827 338.452 36.152C338.837 35.7213 339.115 35.3077 339.285 34.911C339.466 34.503 339.557 34.095 339.557 33.687C339.557 33.2677 339.489 32.9107 339.353 32.616C339.228 32.3213 339.047 32.0833 338.809 31.902C338.582 31.7207 338.31 31.5903 337.993 31.511C337.687 31.4317 337.358 31.392 337.007 31.392C336.497 31.392 336.055 31.4713 335.681 31.63C335.318 31.7887 335.007 31.9983 334.746 32.259C334.497 32.5083 334.298 32.7917 334.151 33.109C334.015 33.415 333.924 33.721 333.879 34.027L332.553 33.585ZM347.727 33.585C347.829 33.0977 347.999 32.633 348.237 32.191C348.475 31.749 348.781 31.3637 349.155 31.035C349.529 30.695 349.977 30.4287 350.498 30.236C351.019 30.0433 351.614 29.947 352.283 29.947C352.906 29.947 353.462 30.0377 353.949 30.219C354.436 30.389 354.85 30.6327 355.19 30.95C355.53 31.2673 355.785 31.647 355.955 32.089C356.136 32.531 356.227 33.0127 356.227 33.534C356.227 34.2707 356.068 34.9507 355.751 35.574C355.445 36.186 355.054 36.747 354.578 37.257C354.102 37.767 353.581 38.2317 353.014 38.651C352.447 39.059 351.909 39.4217 351.399 39.739L350.09 40.555H356.669V42H347.404V40.81L349.988 39.093C350.838 38.5263 351.563 38.005 352.164 37.529C352.765 37.0417 353.252 36.5827 353.626 36.152C354.011 35.7213 354.289 35.3077 354.459 34.911C354.64 34.503 354.731 34.095 354.731 33.687C354.731 33.2677 354.663 32.9107 354.527 32.616C354.402 32.3213 354.221 32.0833 353.983 31.902C353.756 31.7207 353.484 31.5903 353.167 31.511C352.861 31.4317 352.532 31.392 352.181 31.392C351.671 31.392 351.229 31.4713 350.855 31.63C350.492 31.7887 350.181 31.9983 349.92 32.259C349.671 32.5083 349.472 32.7917 349.325 33.109C349.189 33.415 349.098 33.721 349.053 34.027L347.727 33.585ZM358.017 36.05C358.017 35.166 358.119 34.3557 358.323 33.619C358.527 32.871 358.833 32.225 359.241 31.681C359.66 31.137 360.187 30.712 360.822 30.406C361.457 30.1 362.205 29.947 363.066 29.947C363.927 29.947 364.675 30.0887 365.31 30.372C365.945 30.6553 366.472 31.0633 366.891 31.596C367.31 32.1287 367.622 32.7747 367.826 33.534C368.03 34.282 368.132 35.1207 368.132 36.05C368.132 36.934 368.03 37.75 367.826 38.498C367.633 39.2347 367.327 39.875 366.908 40.419C366.5 40.963 365.979 41.388 365.344 41.694C364.709 42 363.961 42.153 363.1 42.153C362.284 42.153 361.559 42 360.924 41.694C360.289 41.388 359.757 40.963 359.326 40.419C358.895 39.875 358.567 39.2347 358.34 38.498C358.125 37.75 358.017 36.934 358.017 36.05ZM359.513 36.05C359.513 37.5007 359.83 38.6397 360.465 39.467C361.1 40.2943 361.978 40.708 363.1 40.708C364.324 40.708 365.219 40.2943 365.786 39.467C366.353 38.6397 366.636 37.5007 366.636 36.05C366.636 34.5993 366.347 33.4603 365.769 32.633C365.191 31.8057 364.29 31.392 363.066 31.392C362.454 31.392 361.927 31.4997 361.485 31.715C361.043 31.9303 360.675 32.242 360.38 32.65C360.085 33.058 359.864 33.551 359.717 34.129C359.581 34.6957 359.513 35.336 359.513 36.05ZM370.779 30.1H378.259V31.545H372.088L371.646 34.741C371.906 34.5483 372.258 34.3897 372.7 34.265C373.153 34.129 373.703 34.061 374.349 34.061C375.063 34.061 375.697 34.163 376.253 34.367C376.808 34.571 377.273 34.8543 377.647 35.217C378.021 35.5797 378.304 36.0047 378.497 36.492C378.701 36.9793 378.803 37.5007 378.803 38.056C378.803 38.6567 378.684 39.2063 378.446 39.705C378.219 40.2037 377.896 40.6343 377.477 40.997C377.069 41.3597 376.581 41.643 376.015 41.847C375.459 42.051 374.853 42.153 374.196 42.153C373.652 42.153 373.13 42.0907 372.632 41.966C372.133 41.8413 371.668 41.6543 371.238 41.405C370.818 41.1557 370.444 40.8553 370.116 40.504C369.798 40.1413 369.543 39.722 369.351 39.246L370.711 38.668C370.824 38.9287 370.983 39.1837 371.187 39.433C371.391 39.671 371.64 39.8863 371.935 40.079C372.229 40.2717 372.564 40.4247 372.938 40.538C373.312 40.6513 373.731 40.708 374.196 40.708C374.717 40.708 375.17 40.64 375.556 40.504C375.952 40.3567 376.281 40.164 376.542 39.926C376.802 39.688 376.995 39.416 377.12 39.11C377.244 38.7927 377.307 38.4583 377.307 38.107C377.307 37.3023 377.006 36.6677 376.406 36.203C375.816 35.7383 374.995 35.506 373.941 35.506C373.34 35.506 372.836 35.591 372.428 35.761C372.031 35.9197 371.657 36.1747 371.306 36.526L370.082 36.203L370.779 30.1Z" fill="#222429"/>
</svg>
