<svg viewBox="0 0 535 252" fill="none" xmlns="http://www.w3.org/2000/svg">
<line x1="-3.16332e-08" y1="191.5" x2="535" y2="191.5" stroke="#CBCFD6"/>
<path d="M431.294 205.07C431.378 204.669 431.518 204.286 431.714 203.922C431.91 203.558 432.162 203.241 432.47 202.97C432.778 202.69 433.146 202.471 433.576 202.312C434.005 202.153 434.495 202.074 435.046 202.074C435.559 202.074 436.016 202.149 436.418 202.298C436.819 202.438 437.16 202.639 437.44 202.9C437.72 203.161 437.93 203.474 438.07 203.838C438.219 204.202 438.294 204.599 438.294 205.028C438.294 205.635 438.163 206.195 437.902 206.708C437.65 207.212 437.328 207.674 436.936 208.094C436.544 208.514 436.114 208.897 435.648 209.242C435.181 209.578 434.738 209.877 434.318 210.138L433.24 210.81H438.658V212H431.028V211.02L433.156 209.606C433.856 209.139 434.453 208.71 434.948 208.318C435.442 207.917 435.844 207.539 436.152 207.184C436.469 206.829 436.698 206.489 436.838 206.162C436.987 205.826 437.062 205.49 437.062 205.154C437.062 204.809 437.006 204.515 436.894 204.272C436.791 204.029 436.642 203.833 436.446 203.684C436.259 203.535 436.035 203.427 435.774 203.362C435.522 203.297 435.251 203.264 434.962 203.264C434.542 203.264 434.178 203.329 433.87 203.46C433.571 203.591 433.314 203.763 433.1 203.978C432.894 204.183 432.731 204.417 432.61 204.678C432.498 204.93 432.423 205.182 432.386 205.434L431.294 205.07ZM439.628 207.1C439.628 206.372 439.712 205.705 439.88 205.098C440.048 204.482 440.3 203.95 440.636 203.502C440.981 203.054 441.415 202.704 441.938 202.452C442.461 202.2 443.077 202.074 443.786 202.074C444.495 202.074 445.111 202.191 445.634 202.424C446.157 202.657 446.591 202.993 446.936 203.432C447.281 203.871 447.538 204.403 447.706 205.028C447.874 205.644 447.958 206.335 447.958 207.1C447.958 207.828 447.874 208.5 447.706 209.116C447.547 209.723 447.295 210.25 446.95 210.698C446.614 211.146 446.185 211.496 445.662 211.748C445.139 212 444.523 212.126 443.814 212.126C443.142 212.126 442.545 212 442.022 211.748C441.499 211.496 441.061 211.146 440.706 210.698C440.351 210.25 440.081 209.723 439.894 209.116C439.717 208.5 439.628 207.828 439.628 207.1ZM440.86 207.1C440.86 208.295 441.121 209.233 441.644 209.914C442.167 210.595 442.89 210.936 443.814 210.936C444.822 210.936 445.559 210.595 446.026 209.914C446.493 209.233 446.726 208.295 446.726 207.1C446.726 205.905 446.488 204.967 446.012 204.286C445.536 203.605 444.794 203.264 443.786 203.264C443.282 203.264 442.848 203.353 442.484 203.53C442.12 203.707 441.817 203.964 441.574 204.3C441.331 204.636 441.149 205.042 441.028 205.518C440.916 205.985 440.86 206.512 440.86 207.1ZM449.102 205.07C449.186 204.669 449.326 204.286 449.522 203.922C449.718 203.558 449.97 203.241 450.278 202.97C450.586 202.69 450.954 202.471 451.384 202.312C451.813 202.153 452.303 202.074 452.854 202.074C453.367 202.074 453.824 202.149 454.226 202.298C454.627 202.438 454.968 202.639 455.248 202.9C455.528 203.161 455.738 203.474 455.878 203.838C456.027 204.202 456.102 204.599 456.102 205.028C456.102 205.635 455.971 206.195 455.71 206.708C455.458 207.212 455.136 207.674 454.744 208.094C454.352 208.514 453.922 208.897 453.456 209.242C452.989 209.578 452.546 209.877 452.126 210.138L451.048 210.81H456.466V212H448.836V211.02L450.964 209.606C451.664 209.139 452.261 208.71 452.756 208.318C453.25 207.917 453.652 207.539 453.96 207.184C454.277 206.829 454.506 206.489 454.646 206.162C454.795 205.826 454.87 205.49 454.87 205.154C454.87 204.809 454.814 204.515 454.702 204.272C454.599 204.029 454.45 203.833 454.254 203.684C454.067 203.535 453.843 203.427 453.582 203.362C453.33 203.297 453.059 203.264 452.77 203.264C452.35 203.264 451.986 203.329 451.678 203.46C451.379 203.591 451.122 203.763 450.908 203.978C450.702 204.183 450.539 204.417 450.418 204.678C450.306 204.93 450.231 205.182 450.194 205.434L449.102 205.07ZM457.534 205.07C457.618 204.669 457.758 204.286 457.954 203.922C458.15 203.558 458.402 203.241 458.71 202.97C459.018 202.69 459.387 202.471 459.816 202.312C460.245 202.153 460.735 202.074 461.286 202.074C461.799 202.074 462.257 202.149 462.658 202.298C463.059 202.438 463.4 202.639 463.68 202.9C463.96 203.161 464.17 203.474 464.31 203.838C464.459 204.202 464.534 204.599 464.534 205.028C464.534 205.635 464.403 206.195 464.142 206.708C463.89 207.212 463.568 207.674 463.176 208.094C462.784 208.514 462.355 208.897 461.888 209.242C461.421 209.578 460.978 209.877 460.558 210.138L459.48 210.81H464.898V212H457.268V211.02L459.396 209.606C460.096 209.139 460.693 208.71 461.188 208.318C461.683 207.917 462.084 207.539 462.392 207.184C462.709 206.829 462.938 206.489 463.078 206.162C463.227 205.826 463.302 205.49 463.302 205.154C463.302 204.809 463.246 204.515 463.134 204.272C463.031 204.029 462.882 203.833 462.686 203.684C462.499 203.535 462.275 203.427 462.014 203.362C461.762 203.297 461.491 203.264 461.202 203.264C460.782 203.264 460.418 203.329 460.11 203.46C459.811 203.591 459.555 203.763 459.34 203.978C459.135 204.183 458.971 204.417 458.85 204.678C458.738 204.93 458.663 205.182 458.626 205.434L457.534 205.07Z" fill="#5FAF2D"/>
<rect x="423" y="22" width="50" height="170" fill="#5FAF2D"/>
<rect x="423" y="22" width="50" height="4" fill="#3D7917"/>
<path d="M422.628 4.585C422.73 4.09767 422.9 3.633 423.138 3.191C423.376 2.749 423.682 2.36367 424.056 2.035C424.43 1.695 424.877 1.42867 425.399 1.236C425.92 1.04333 426.515 0.946999 427.184 0.946999C427.807 0.946999 428.362 1.03767 428.85 1.219C429.337 1.389 429.751 1.63267 430.091 1.95C430.431 2.26733 430.686 2.647 430.856 3.089C431.037 3.531 431.128 4.01267 431.128 4.534C431.128 5.27067 430.969 5.95067 430.652 6.574C430.346 7.186 429.955 7.747 429.479 8.257C429.003 8.767 428.481 9.23167 427.915 9.651C427.348 10.059 426.81 10.4217 426.3 10.739L424.991 11.555H431.57V13H422.305V11.81L424.889 10.093C425.739 9.52633 426.464 9.005 427.065 8.529C427.665 8.04167 428.153 7.58267 428.527 7.152C428.912 6.72133 429.19 6.30767 429.36 5.911C429.541 5.503 429.632 5.095 429.632 4.687C429.632 4.26767 429.564 3.91067 429.428 3.616C429.303 3.32133 429.122 3.08333 428.884 2.902C428.657 2.72067 428.385 2.59033 428.068 2.511C427.762 2.43167 427.433 2.392 427.082 2.392C426.572 2.392 426.13 2.47133 425.756 2.63C425.393 2.78867 425.081 2.99833 424.821 3.259C424.571 3.50833 424.373 3.79167 424.226 4.109C424.09 4.415 423.999 4.721 423.954 5.027L422.628 4.585ZM432.697 14.649C432.844 14.615 432.997 14.5527 433.156 14.462C433.326 14.3713 433.479 14.258 433.615 14.122C433.751 13.986 433.859 13.8387 433.938 13.68C434.029 13.5213 434.074 13.357 434.074 13.187C434.074 13.1077 434.068 13.0453 434.057 13C434 13.0113 433.932 13.017 433.853 13.017C433.604 13.017 433.388 12.9377 433.207 12.779C433.037 12.6203 432.952 12.3937 432.952 12.099C432.952 11.8043 433.043 11.572 433.224 11.402C433.405 11.2207 433.66 11.13 433.989 11.13C434.352 11.13 434.646 11.2547 434.873 11.504C435.111 11.742 435.23 12.1047 435.23 12.592C435.23 13.0567 435.168 13.4533 435.043 13.782C434.918 14.1107 434.754 14.3883 434.55 14.615C434.346 14.8417 434.114 15.0173 433.853 15.142C433.592 15.278 433.326 15.38 433.054 15.448L432.697 14.649ZM441.839 13.153C441.045 13.153 440.326 13.0283 439.68 12.779C439.045 12.5297 438.501 12.1613 438.048 11.674C437.594 11.1753 437.243 10.569 436.994 9.855C436.756 9.141 436.637 8.31367 436.637 7.373C436.637 6.30767 436.778 5.37267 437.062 4.568C437.345 3.76333 437.725 3.09467 438.201 2.562C438.688 2.018 439.249 1.61567 439.884 1.355C440.53 1.083 441.21 0.946999 441.924 0.946999C442.955 0.946999 443.833 1.15667 444.559 1.576C445.284 1.99533 445.811 2.562 446.14 3.276L444.984 4.058C444.655 3.548 444.23 3.14567 443.709 2.851C443.199 2.545 442.581 2.392 441.856 2.392C441.289 2.392 440.779 2.50533 440.326 2.732C439.872 2.94733 439.481 3.26467 439.153 3.684C438.824 4.092 438.569 4.59067 438.388 5.18C438.206 5.758 438.11 6.40967 438.099 7.135V7.322C438.257 6.948 438.473 6.61933 438.745 6.336C439.028 6.05267 439.345 5.81467 439.697 5.622C440.048 5.42933 440.422 5.28767 440.819 5.197C441.227 5.095 441.64 5.044 442.06 5.044C442.751 5.044 443.374 5.14033 443.93 5.333C444.485 5.52567 444.955 5.79767 445.341 6.149C445.737 6.50033 446.038 6.91967 446.242 7.407C446.446 7.89433 446.548 8.43267 446.548 9.022C446.548 9.634 446.423 10.195 446.174 10.705C445.936 11.215 445.601 11.6513 445.171 12.014C444.751 12.3767 444.253 12.66 443.675 12.864C443.108 13.0567 442.496 13.153 441.839 13.153ZM441.822 11.708C442.298 11.708 442.728 11.6457 443.114 11.521C443.51 11.3963 443.85 11.2207 444.134 10.994C444.428 10.756 444.655 10.4783 444.814 10.161C444.972 9.84367 445.052 9.48667 445.052 9.09C445.052 8.65933 444.972 8.28533 444.814 7.968C444.666 7.63933 444.457 7.36733 444.185 7.152C443.913 6.92533 443.584 6.761 443.199 6.659C442.825 6.54567 442.417 6.489 441.975 6.489C440.887 6.489 440.059 6.72133 439.493 7.186C438.937 7.65067 438.66 8.24567 438.66 8.971C438.66 9.345 438.733 9.69633 438.881 10.025C439.028 10.3537 439.238 10.6427 439.51 10.892C439.782 11.1413 440.11 11.3397 440.496 11.487C440.892 11.6343 441.334 11.708 441.822 11.708ZM447.942 7.05C447.942 6.166 448.044 5.35567 448.248 4.619C448.452 3.871 448.758 3.225 449.166 2.681C449.586 2.137 450.113 1.712 450.747 1.406C451.382 1.1 452.13 0.946999 452.991 0.946999C453.853 0.946999 454.601 1.08867 455.235 1.372C455.87 1.65533 456.397 2.06333 456.816 2.596C457.236 3.12867 457.547 3.77467 457.751 4.534C457.955 5.282 458.057 6.12067 458.057 7.05C458.057 7.934 457.955 8.75 457.751 9.498C457.559 10.2347 457.253 10.875 456.833 11.419C456.425 11.963 455.904 12.388 455.269 12.694C454.635 13 453.887 13.153 453.025 13.153C452.209 13.153 451.484 13 450.849 12.694C450.215 12.388 449.682 11.963 449.251 11.419C448.821 10.875 448.492 10.2347 448.265 9.498C448.05 8.75 447.942 7.934 447.942 7.05ZM449.438 7.05C449.438 8.50067 449.756 9.63967 450.39 10.467C451.025 11.2943 451.903 11.708 453.025 11.708C454.249 11.708 455.145 11.2943 455.711 10.467C456.278 9.63967 456.561 8.50067 456.561 7.05C456.561 5.59933 456.272 4.46033 455.694 3.633C455.116 2.80567 454.215 2.392 452.991 2.392C452.379 2.392 451.852 2.49967 451.41 2.715C450.968 2.93033 450.6 3.242 450.305 3.65C450.011 4.058 449.79 4.551 449.642 5.129C449.506 5.69567 449.438 6.336 449.438 7.05ZM460.704 1.1H468.184V2.545H462.013L461.571 5.741C461.832 5.54833 462.183 5.38967 462.625 5.265C463.078 5.129 463.628 5.061 464.274 5.061C464.988 5.061 465.623 5.163 466.178 5.367C466.733 5.571 467.198 5.85433 467.572 6.217C467.946 6.57967 468.229 7.00467 468.422 7.492C468.626 7.97933 468.728 8.50067 468.728 9.056C468.728 9.65667 468.609 10.2063 468.371 10.705C468.144 11.2037 467.821 11.6343 467.402 11.997C466.994 12.3597 466.507 12.643 465.94 12.847C465.385 13.051 464.778 13.153 464.121 13.153C463.577 13.153 463.056 13.0907 462.557 12.966C462.058 12.8413 461.594 12.6543 461.163 12.405C460.744 12.1557 460.37 11.8553 460.041 11.504C459.724 11.1413 459.469 10.722 459.276 10.246L460.636 9.668C460.749 9.92867 460.908 10.1837 461.112 10.433C461.316 10.671 461.565 10.8863 461.86 11.079C462.155 11.2717 462.489 11.4247 462.863 11.538C463.237 11.6513 463.656 11.708 464.121 11.708C464.642 11.708 465.096 11.64 465.481 11.504C465.878 11.3567 466.206 11.164 466.467 10.926C466.728 10.688 466.92 10.416 467.045 10.11C467.17 9.79267 467.232 9.45833 467.232 9.107C467.232 8.30233 466.932 7.66767 466.331 7.203C465.742 6.73833 464.92 6.506 463.866 6.506C463.265 6.506 462.761 6.591 462.353 6.761C461.956 6.91967 461.582 7.17467 461.231 7.526L460.007 7.203L460.704 1.1Z" fill="#222429"/>
<path d="M162.435 205.07C162.519 204.669 162.659 204.286 162.855 203.922C163.051 203.558 163.303 203.241 163.611 202.97C163.919 202.69 164.288 202.471 164.717 202.312C165.147 202.153 165.637 202.074 166.187 202.074C166.701 202.074 167.158 202.149 167.559 202.298C167.961 202.438 168.301 202.639 168.581 202.9C168.861 203.161 169.071 203.474 169.211 203.838C169.361 204.202 169.435 204.599 169.435 205.028C169.435 205.635 169.305 206.195 169.043 206.708C168.791 207.212 168.469 207.674 168.077 208.094C167.685 208.514 167.256 208.897 166.789 209.242C166.323 209.578 165.879 209.877 165.459 210.138L164.381 210.81H169.799V212H162.169V211.02L164.297 209.606C164.997 209.139 165.595 208.71 166.089 208.318C166.584 207.917 166.985 207.539 167.293 207.184C167.611 206.829 167.839 206.489 167.979 206.162C168.129 205.826 168.203 205.49 168.203 205.154C168.203 204.809 168.147 204.515 168.035 204.272C167.933 204.029 167.783 203.833 167.587 203.684C167.401 203.535 167.177 203.427 166.915 203.362C166.663 203.297 166.393 203.264 166.103 203.264C165.683 203.264 165.319 203.329 165.011 203.46C164.713 203.591 164.456 203.763 164.241 203.978C164.036 204.183 163.873 204.417 163.751 204.678C163.639 204.93 163.565 205.182 163.527 205.434L162.435 205.07ZM170.77 207.1C170.77 206.372 170.854 205.705 171.022 205.098C171.19 204.482 171.442 203.95 171.778 203.502C172.123 203.054 172.557 202.704 173.08 202.452C173.602 202.2 174.218 202.074 174.928 202.074C175.637 202.074 176.253 202.191 176.776 202.424C177.298 202.657 177.732 202.993 178.078 203.432C178.423 203.871 178.68 204.403 178.848 205.028C179.016 205.644 179.1 206.335 179.1 207.1C179.1 207.828 179.016 208.5 178.848 209.116C178.689 209.723 178.437 210.25 178.092 210.698C177.756 211.146 177.326 211.496 176.804 211.748C176.281 212 175.665 212.126 174.956 212.126C174.284 212.126 173.686 212 173.164 211.748C172.641 211.496 172.202 211.146 171.848 210.698C171.493 210.25 171.222 209.723 171.036 209.116C170.858 208.5 170.77 207.828 170.77 207.1ZM172.002 207.1C172.002 208.295 172.263 209.233 172.786 209.914C173.308 210.595 174.032 210.936 174.956 210.936C175.964 210.936 176.701 210.595 177.168 209.914C177.634 209.233 177.868 208.295 177.868 207.1C177.868 205.905 177.63 204.967 177.154 204.286C176.678 203.605 175.936 203.264 174.928 203.264C174.424 203.264 173.99 203.353 173.626 203.53C173.262 203.707 172.958 203.964 172.716 204.3C172.473 204.636 172.291 205.042 172.17 205.518C172.058 205.985 172.002 206.512 172.002 207.1ZM182.945 202.144H183.743V212H182.567V203.642L180.033 204.804L179.585 203.754L182.945 202.144ZM189.295 212.126C188.445 212.126 187.717 211.963 187.111 211.636C186.513 211.309 186.065 210.894 185.767 210.39L186.775 209.69C187.064 210.091 187.442 210.399 187.909 210.614C188.385 210.829 188.903 210.936 189.463 210.936C189.892 210.936 190.284 210.852 190.639 210.684C191.003 210.507 191.315 210.264 191.577 209.956C191.847 209.648 192.057 209.284 192.207 208.864C192.356 208.444 192.431 207.987 192.431 207.492C192.431 207.436 192.431 207.38 192.431 207.324C192.431 207.268 192.426 207.212 192.417 207.156C192.193 207.688 191.81 208.131 191.269 208.486C190.737 208.831 190.06 209.004 189.239 209.004C188.697 209.004 188.198 208.925 187.741 208.766C187.283 208.598 186.887 208.369 186.551 208.08C186.215 207.781 185.953 207.427 185.767 207.016C185.58 206.605 185.487 206.148 185.487 205.644C185.487 205.103 185.585 204.613 185.781 204.174C185.986 203.726 186.271 203.348 186.635 203.04C186.999 202.732 187.433 202.494 187.937 202.326C188.45 202.158 189.015 202.074 189.631 202.074C190.256 202.074 190.816 202.181 191.311 202.396C191.815 202.601 192.239 202.909 192.585 203.32C192.939 203.731 193.21 204.239 193.397 204.846C193.583 205.443 193.677 206.134 193.677 206.918C193.677 207.777 193.569 208.533 193.355 209.186C193.149 209.83 192.851 210.371 192.459 210.81C192.076 211.239 191.614 211.566 191.073 211.79C190.541 212.014 189.948 212.126 189.295 212.126ZM189.463 207.814C189.864 207.814 190.228 207.758 190.555 207.646C190.881 207.534 191.157 207.38 191.381 207.184C191.614 206.979 191.791 206.741 191.913 206.47C192.034 206.199 192.095 205.91 192.095 205.602C192.095 205.303 192.048 205.014 191.955 204.734C191.861 204.454 191.712 204.207 191.507 203.992C191.301 203.768 191.031 203.591 190.695 203.46C190.368 203.329 189.967 203.264 189.491 203.264C188.623 203.264 187.941 203.46 187.447 203.852C186.961 204.235 186.719 204.799 186.719 205.546C186.719 206.255 186.966 206.811 187.461 207.212C187.955 207.613 188.623 207.814 189.463 207.814Z" fill="#777F8C"/>
<rect x="153" y="79" width="50" height="113" fill="#BFCED4"/>
<rect x="153" y="79" width="50" height="4" fill="#A6B2BC"/>
<path d="M158.723 58.032H159.692V70H158.264V59.851L155.187 61.262L154.643 59.987L158.723 58.032ZM161.809 71.649C161.956 71.615 162.109 71.5527 162.268 71.462C162.438 71.3713 162.591 71.258 162.727 71.122C162.863 70.986 162.97 70.8387 163.05 70.68C163.14 70.5213 163.186 70.357 163.186 70.187C163.186 70.1077 163.18 70.0453 163.169 70C163.112 70.0113 163.044 70.017 162.965 70.017C162.715 70.017 162.5 69.9377 162.319 69.779C162.149 69.6203 162.064 69.3937 162.064 69.099C162.064 68.8043 162.154 68.572 162.336 68.402C162.517 68.2207 162.772 68.13 163.101 68.13C163.463 68.13 163.758 68.2547 163.985 68.504C164.223 68.742 164.342 69.1047 164.342 69.592C164.342 70.0567 164.279 70.4533 164.155 70.782C164.03 71.1107 163.866 71.3883 163.662 71.615C163.458 71.8417 163.225 72.0173 162.965 72.142C162.704 72.278 162.438 72.38 162.166 72.448L161.809 71.649ZM165.358 58.1H174.385V59.069L168.469 70H166.854L172.566 59.545H165.358V58.1ZM175.358 60.99C175.517 60.548 175.732 60.1457 176.004 59.783C176.276 59.409 176.605 59.086 176.99 58.814C177.387 58.542 177.84 58.3323 178.35 58.185C178.872 58.0263 179.455 57.947 180.101 57.947C180.679 57.947 181.212 58.0207 181.699 58.168C182.198 58.304 182.623 58.5023 182.974 58.763C183.337 59.0123 183.615 59.324 183.807 59.698C184.011 60.072 184.113 60.4857 184.113 60.939C184.113 61.6303 183.932 62.2197 183.569 62.707C183.218 63.1943 182.702 63.5343 182.022 63.727C182.317 63.7497 182.606 63.8233 182.889 63.948C183.173 64.0613 183.422 64.237 183.637 64.475C183.864 64.7017 184.045 64.9907 184.181 65.342C184.317 65.682 184.385 66.09 184.385 66.566C184.385 67.144 184.272 67.6597 184.045 68.113C183.83 68.555 183.524 68.929 183.127 69.235C182.742 69.5297 182.283 69.7563 181.75 69.915C181.218 70.0737 180.645 70.153 180.033 70.153C179.365 70.153 178.753 70.0737 178.197 69.915C177.653 69.7563 177.172 69.541 176.752 69.269C176.333 68.9857 175.976 68.6513 175.681 68.266C175.398 67.8693 175.183 67.433 175.035 66.957L176.412 66.362C176.56 66.668 176.735 66.9627 176.939 67.246C177.143 67.5293 177.393 67.7787 177.687 67.994C177.982 68.2093 178.328 68.385 178.724 68.521C179.121 68.6457 179.591 68.708 180.135 68.708C180.985 68.708 181.654 68.5267 182.141 68.164C182.64 67.79 182.889 67.263 182.889 66.583C182.889 66.209 182.81 65.8973 182.651 65.648C182.493 65.3873 182.272 65.1833 181.988 65.036C181.705 64.8773 181.371 64.7697 180.985 64.713C180.611 64.645 180.203 64.611 179.761 64.611H178.435V63.2H179.489C180.475 63.2 181.24 63.013 181.784 62.639C182.34 62.265 182.617 61.7947 182.617 61.228C182.617 60.616 182.385 60.157 181.92 59.851C181.456 59.545 180.827 59.392 180.033 59.392C179.546 59.392 179.115 59.4543 178.741 59.579C178.367 59.7037 178.039 59.868 177.755 60.072C177.483 60.276 177.251 60.5083 177.058 60.769C176.877 61.0297 176.735 61.296 176.633 61.568L175.358 60.99ZM192.736 67.62H185.409V66.532L192.906 58.1H194.164V66.175H196.374V67.62H194.164V70H192.736V67.62ZM192.736 66.175V60.48L187.449 66.175H192.736Z" fill="#222429"/>
<path d="M72.4354 205.07C72.5194 204.669 72.6594 204.286 72.8554 203.922C73.0514 203.558 73.3034 203.241 73.6114 202.97C73.9194 202.69 74.2881 202.471 74.7174 202.312C75.1467 202.153 75.6367 202.074 76.1874 202.074C76.7007 202.074 77.1581 202.149 77.5594 202.298C77.9607 202.438 78.3014 202.639 78.5814 202.9C78.8614 203.161 79.0714 203.474 79.2114 203.838C79.3607 204.202 79.4354 204.599 79.4354 205.028C79.4354 205.635 79.3047 206.195 79.0434 206.708C78.7914 207.212 78.4694 207.674 78.0774 208.094C77.6854 208.514 77.2561 208.897 76.7894 209.242C76.3227 209.578 75.8794 209.877 75.4594 210.138L74.3814 210.81H79.7994V212H72.1694V211.02L74.2974 209.606C74.9974 209.139 75.5947 208.71 76.0894 208.318C76.5841 207.917 76.9854 207.539 77.2934 207.184C77.6107 206.829 77.8394 206.489 77.9794 206.162C78.1287 205.826 78.2034 205.49 78.2034 205.154C78.2034 204.809 78.1474 204.515 78.0354 204.272C77.9327 204.029 77.7834 203.833 77.5874 203.684C77.4007 203.535 77.1767 203.427 76.9154 203.362C76.6634 203.297 76.3927 203.264 76.1034 203.264C75.6834 203.264 75.3194 203.329 75.0114 203.46C74.7127 203.591 74.4561 203.763 74.2414 203.978C74.0361 204.183 73.8727 204.417 73.7514 204.678C73.6394 204.93 73.5647 205.182 73.5274 205.434L72.4354 205.07ZM80.7697 207.1C80.7697 206.372 80.8537 205.705 81.0217 205.098C81.1897 204.482 81.4417 203.95 81.7777 203.502C82.123 203.054 82.557 202.704 83.0797 202.452C83.6023 202.2 84.2183 202.074 84.9277 202.074C85.637 202.074 86.253 202.191 86.7757 202.424C87.2983 202.657 87.7323 202.993 88.0777 203.432C88.423 203.871 88.6797 204.403 88.8477 205.028C89.0157 205.644 89.0997 206.335 89.0997 207.1C89.0997 207.828 89.0157 208.5 88.8477 209.116C88.689 209.723 88.437 210.25 88.0917 210.698C87.7557 211.146 87.3263 211.496 86.8037 211.748C86.281 212 85.665 212.126 84.9557 212.126C84.2837 212.126 83.6863 212 83.1637 211.748C82.641 211.496 82.2023 211.146 81.8477 210.698C81.493 210.25 81.2223 209.723 81.0357 209.116C80.8583 208.5 80.7697 207.828 80.7697 207.1ZM82.0017 207.1C82.0017 208.295 82.263 209.233 82.7857 209.914C83.3083 210.595 84.0317 210.936 84.9557 210.936C85.9637 210.936 86.701 210.595 87.1677 209.914C87.6343 209.233 87.8677 208.295 87.8677 207.1C87.8677 205.905 87.6297 204.967 87.1537 204.286C86.6777 203.605 85.9357 203.264 84.9277 203.264C84.4237 203.264 83.9897 203.353 83.6257 203.53C83.2617 203.707 82.9583 203.964 82.7157 204.3C82.473 204.636 82.291 205.042 82.1697 205.518C82.0577 205.985 82.0017 206.512 82.0017 207.1ZM92.9453 202.144H93.7433V212H92.5673V203.642L90.0333 204.804L89.5853 203.754L92.9453 202.144ZM99.8267 206.414C100.144 206.414 100.438 206.377 100.709 206.302C100.989 206.218 101.231 206.106 101.437 205.966C101.642 205.826 101.801 205.658 101.913 205.462C102.034 205.266 102.095 205.051 102.095 204.818C102.095 204.314 101.885 203.931 101.465 203.67C101.054 203.399 100.424 203.264 99.5747 203.264C98.7534 203.264 98.1327 203.399 97.7127 203.67C97.3021 203.941 97.0967 204.323 97.0967 204.818C97.0967 205.042 97.1527 205.252 97.2647 205.448C97.3767 205.644 97.5307 205.817 97.7267 205.966C97.9321 206.106 98.1747 206.218 98.4547 206.302C98.7441 206.377 99.0567 206.414 99.3927 206.414H99.8267ZM99.4487 207.52C99.0567 207.52 98.6927 207.567 98.3567 207.66C98.0301 207.744 97.7501 207.865 97.5167 208.024C97.2834 208.173 97.1014 208.355 96.9707 208.57C96.8401 208.775 96.7747 208.995 96.7747 209.228C96.7747 209.732 97.0081 210.143 97.4747 210.46C97.9507 210.777 98.6554 210.936 99.5887 210.936C100.55 210.936 101.259 210.787 101.717 210.488C102.174 210.18 102.403 209.765 102.403 209.242C102.403 208.691 102.165 208.267 101.689 207.968C101.222 207.669 100.592 207.52 99.7987 207.52H99.4487ZM99.6027 212.126C98.9774 212.126 98.4127 212.065 97.9087 211.944C97.4141 211.813 96.9894 211.631 96.6347 211.398C96.2894 211.155 96.0187 210.866 95.8227 210.53C95.6361 210.185 95.5427 209.793 95.5427 209.354C95.5427 208.775 95.7154 208.276 96.0607 207.856C96.4154 207.427 96.8867 207.119 97.4747 206.932C97.1947 206.839 96.9521 206.717 96.7467 206.568C96.5414 206.409 96.3734 206.232 96.2427 206.036C96.1121 205.84 96.0141 205.635 95.9487 205.42C95.8927 205.196 95.8647 204.967 95.8647 204.734C95.8647 203.922 96.1821 203.278 96.8167 202.802C97.4607 202.317 98.3847 202.074 99.5887 202.074C100.802 202.074 101.726 202.317 102.361 202.802C103.005 203.278 103.327 203.922 103.327 204.734C103.327 205.238 103.187 205.663 102.907 206.008C102.636 206.353 102.258 206.638 101.773 206.862C102.445 207.067 102.921 207.375 103.201 207.786C103.49 208.197 103.635 208.701 103.635 209.298C103.635 209.746 103.541 210.147 103.355 210.502C103.168 210.847 102.897 211.141 102.543 211.384C102.197 211.627 101.773 211.813 101.269 211.944C100.774 212.065 100.219 212.126 99.6027 212.126Z" fill="#777F8C"/>
<rect x="63" y="92" width="50" height="100" fill="#BFCED4"/>
<rect x="63" y="92" width="50" height="4" fill="#A6B2BC"/>
<path d="M68.6979 71.032H69.6669V83H68.2389V72.851L65.1619 74.262L64.6179 72.987L68.6979 71.032ZM71.7839 84.649C71.9313 84.615 72.0843 84.5527 72.2429 84.462C72.4129 84.3713 72.5659 84.258 72.7019 84.122C72.8379 83.986 72.9456 83.8387 73.0249 83.68C73.1156 83.5213 73.1609 83.357 73.1609 83.187C73.1609 83.1077 73.1553 83.0453 73.1439 83C73.0873 83.0113 73.0193 83.017 72.9399 83.017C72.6906 83.017 72.4753 82.9377 72.2939 82.779C72.1239 82.6203 72.0389 82.3937 72.0389 82.099C72.0389 81.8043 72.1296 81.572 72.3109 81.402C72.4923 81.2207 72.7473 81.13 73.0759 81.13C73.4386 81.13 73.7333 81.2547 73.9599 81.504C74.1979 81.742 74.3169 82.1047 74.3169 82.592C74.3169 83.0567 74.2546 83.4533 74.1299 83.782C74.0053 84.1107 73.8409 84.3883 73.6369 84.615C73.4329 84.8417 73.2006 85.0173 72.9399 85.142C72.6793 85.278 72.4129 85.38 72.1409 85.448L71.7839 84.649ZM76.9307 71.1H84.4107V72.545H78.2397L77.7977 75.741C78.0583 75.5483 78.4097 75.3897 78.8517 75.265C79.305 75.129 79.8547 75.061 80.5007 75.061C81.2147 75.061 81.8493 75.163 82.4047 75.367C82.96 75.571 83.4247 75.8543 83.7987 76.217C84.1727 76.5797 84.456 77.0047 84.6487 77.492C84.8527 77.9793 84.9547 78.5007 84.9547 79.056C84.9547 79.6567 84.8357 80.2063 84.5977 80.705C84.371 81.2037 84.048 81.6343 83.6287 81.997C83.2207 82.3597 82.7333 82.643 82.1667 82.847C81.6113 83.051 81.005 83.153 80.3477 83.153C79.8037 83.153 79.2823 83.0907 78.7837 82.966C78.285 82.8413 77.8203 82.6543 77.3897 82.405C76.9703 82.1557 76.5963 81.8553 76.2677 81.504C75.9503 81.1413 75.6953 80.722 75.5027 80.246L76.8627 79.668C76.976 79.9287 77.1347 80.1837 77.3387 80.433C77.5427 80.671 77.792 80.8863 78.0867 81.079C78.3813 81.2717 78.7157 81.4247 79.0897 81.538C79.4637 81.6513 79.883 81.708 80.3477 81.708C80.869 81.708 81.3223 81.64 81.7077 81.504C82.1043 81.3567 82.433 81.164 82.6937 80.926C82.9543 80.688 83.147 80.416 83.2717 80.11C83.3963 79.7927 83.4587 79.4583 83.4587 79.107C83.4587 78.3023 83.1583 77.6677 82.5577 77.203C81.9683 76.7383 81.1467 76.506 80.0927 76.506C79.492 76.506 78.9877 76.591 78.5797 76.761C78.183 76.9197 77.809 77.1747 77.4577 77.526L76.2337 77.203L76.9307 71.1ZM86.3131 73.99C86.4717 73.548 86.6871 73.1457 86.9591 72.783C87.2311 72.409 87.5597 72.086 87.9451 71.814C88.3417 71.542 88.7951 71.3323 89.3051 71.185C89.8264 71.0263 90.4101 70.947 91.0561 70.947C91.6341 70.947 92.1667 71.0207 92.6541 71.168C93.1527 71.304 93.5777 71.5023 93.9291 71.763C94.2917 72.0123 94.5694 72.324 94.7621 72.698C94.9661 73.072 95.0681 73.4857 95.0681 73.939C95.0681 74.6303 94.8867 75.2197 94.5241 75.707C94.1727 76.1943 93.6571 76.5343 92.9771 76.727C93.2717 76.7497 93.5607 76.8233 93.8441 76.948C94.1274 77.0613 94.3767 77.237 94.5921 77.475C94.8187 77.7017 95.0001 77.9907 95.1361 78.342C95.2721 78.682 95.3401 79.09 95.3401 79.566C95.3401 80.144 95.2267 80.6597 95.0001 81.113C94.7847 81.555 94.4787 81.929 94.0821 82.235C93.6967 82.5297 93.2377 82.7563 92.7051 82.915C92.1724 83.0737 91.6001 83.153 90.9881 83.153C90.3194 83.153 89.7074 83.0737 89.1521 82.915C88.6081 82.7563 88.1264 82.541 87.7071 82.269C87.2877 81.9857 86.9307 81.6513 86.6361 81.266C86.3527 80.8693 86.1374 80.433 85.9901 79.957L87.3671 79.362C87.5144 79.668 87.6901 79.9627 87.8941 80.246C88.0981 80.5293 88.3474 80.7787 88.6421 80.994C88.9367 81.2093 89.2824 81.385 89.6791 81.521C90.0757 81.6457 90.5461 81.708 91.0901 81.708C91.9401 81.708 92.6087 81.5267 93.0961 81.164C93.5947 80.79 93.8441 80.263 93.8441 79.583C93.8441 79.209 93.7647 78.8973 93.6061 78.648C93.4474 78.3873 93.2264 78.1833 92.9431 78.036C92.6597 77.8773 92.3254 77.7697 91.9401 77.713C91.5661 77.645 91.1581 77.611 90.7161 77.611H89.3901V76.2H90.4441C91.4301 76.2 92.1951 76.013 92.7391 75.639C93.2944 75.265 93.5721 74.7947 93.5721 74.228C93.5721 73.616 93.3397 73.157 92.8751 72.851C92.4104 72.545 91.7814 72.392 90.9881 72.392C90.5007 72.392 90.0701 72.4543 89.6961 72.579C89.3221 72.7037 88.9934 72.868 88.7101 73.072C88.4381 73.276 88.2057 73.5083 88.0131 73.769C87.8317 74.0297 87.6901 74.296 87.5881 74.568L86.3131 73.99ZM96.8053 73.99C96.9639 73.548 97.1793 73.1457 97.4513 72.783C97.7233 72.409 98.0519 72.086 98.4373 71.814C98.8339 71.542 99.2873 71.3323 99.7973 71.185C100.319 71.0263 100.902 70.947 101.548 70.947C102.126 70.947 102.659 71.0207 103.146 71.168C103.645 71.304 104.07 71.5023 104.421 71.763C104.784 72.0123 105.062 72.324 105.254 72.698C105.458 73.072 105.56 73.4857 105.56 73.939C105.56 74.6303 105.379 75.2197 105.016 75.707C104.665 76.1943 104.149 76.5343 103.469 76.727C103.764 76.7497 104.053 76.8233 104.336 76.948C104.62 77.0613 104.869 77.237 105.084 77.475C105.311 77.7017 105.492 77.9907 105.628 78.342C105.764 78.682 105.832 79.09 105.832 79.566C105.832 80.144 105.719 80.6597 105.492 81.113C105.277 81.555 104.971 81.929 104.574 82.235C104.189 82.5297 103.73 82.7563 103.197 82.915C102.665 83.0737 102.092 83.153 101.48 83.153C100.812 83.153 100.2 83.0737 99.6443 82.915C99.1003 82.7563 98.6186 82.541 98.1993 82.269C97.7799 81.9857 97.4229 81.6513 97.1283 81.266C96.8449 80.8693 96.6296 80.433 96.4823 79.957L97.8593 79.362C98.0066 79.668 98.1823 79.9627 98.3863 80.246C98.5903 80.5293 98.8396 80.7787 99.1343 80.994C99.4289 81.2093 99.7746 81.385 100.171 81.521C100.568 81.6457 101.038 81.708 101.582 81.708C102.432 81.708 103.101 81.5267 103.588 81.164C104.087 80.79 104.336 80.263 104.336 79.583C104.336 79.209 104.257 78.8973 104.098 78.648C103.94 78.3873 103.719 78.1833 103.435 78.036C103.152 77.8773 102.818 77.7697 102.432 77.713C102.058 77.645 101.65 77.611 101.208 77.611H99.8823V76.2H100.936C101.922 76.2 102.687 76.013 103.231 75.639C103.787 75.265 104.064 74.7947 104.064 74.228C104.064 73.616 103.832 73.157 103.367 72.851C102.903 72.545 102.274 72.392 101.48 72.392C100.993 72.392 100.562 72.4543 100.188 72.579C99.8143 72.7037 99.4856 72.868 99.2023 73.072C98.9303 73.276 98.6979 73.5083 98.5053 73.769C98.3239 74.0297 98.1823 74.296 98.0803 74.568L96.8053 73.99Z" fill="#222429"/>
<path d="M250.822 205.07C250.906 204.669 251.046 204.286 251.242 203.922C251.438 203.558 251.69 203.241 251.998 202.97C252.306 202.69 252.675 202.471 253.104 202.312C253.533 202.153 254.023 202.074 254.574 202.074C255.087 202.074 255.545 202.149 255.946 202.298C256.347 202.438 256.688 202.639 256.968 202.9C257.248 203.161 257.458 203.474 257.598 203.838C257.747 204.202 257.822 204.599 257.822 205.028C257.822 205.635 257.691 206.195 257.43 206.708C257.178 207.212 256.856 207.674 256.464 208.094C256.072 208.514 255.643 208.897 255.176 209.242C254.709 209.578 254.266 209.877 253.846 210.138L252.768 210.81H258.186V212H250.556V211.02L252.684 209.606C253.384 209.139 253.981 208.71 254.476 208.318C254.971 207.917 255.372 207.539 255.68 207.184C255.997 206.829 256.226 206.489 256.366 206.162C256.515 205.826 256.59 205.49 256.59 205.154C256.59 204.809 256.534 204.515 256.422 204.272C256.319 204.029 256.17 203.833 255.974 203.684C255.787 203.535 255.563 203.427 255.302 203.362C255.05 203.297 254.779 203.264 254.49 203.264C254.07 203.264 253.706 203.329 253.398 203.46C253.099 203.591 252.843 203.763 252.628 203.978C252.423 204.183 252.259 204.417 252.138 204.678C252.026 204.93 251.951 205.182 251.914 205.434L250.822 205.07ZM259.156 207.1C259.156 206.372 259.24 205.705 259.408 205.098C259.576 204.482 259.828 203.95 260.164 203.502C260.51 203.054 260.944 202.704 261.466 202.452C261.989 202.2 262.605 202.074 263.314 202.074C264.024 202.074 264.64 202.191 265.162 202.424C265.685 202.657 266.119 202.993 266.464 203.432C266.81 203.871 267.066 204.403 267.234 205.028C267.402 205.644 267.486 206.335 267.486 207.1C267.486 207.828 267.402 208.5 267.234 209.116C267.076 209.723 266.824 210.25 266.478 210.698C266.142 211.146 265.713 211.496 265.19 211.748C264.668 212 264.052 212.126 263.342 212.126C262.67 212.126 262.073 212 261.55 211.748C261.028 211.496 260.589 211.146 260.234 210.698C259.88 210.25 259.609 209.723 259.422 209.116C259.245 208.5 259.156 207.828 259.156 207.1ZM260.388 207.1C260.388 208.295 260.65 209.233 261.172 209.914C261.695 210.595 262.418 210.936 263.342 210.936C264.35 210.936 265.088 210.595 265.554 209.914C266.021 209.233 266.254 208.295 266.254 207.1C266.254 205.905 266.016 204.967 265.54 204.286C265.064 203.605 264.322 203.264 263.314 203.264C262.81 203.264 262.376 203.353 262.012 203.53C261.648 203.707 261.345 203.964 261.102 204.3C260.86 204.636 260.678 205.042 260.556 205.518C260.444 205.985 260.388 206.512 260.388 207.1ZM268.63 205.07C268.714 204.669 268.854 204.286 269.05 203.922C269.246 203.558 269.498 203.241 269.806 202.97C270.114 202.69 270.483 202.471 270.912 202.312C271.341 202.153 271.831 202.074 272.382 202.074C272.895 202.074 273.353 202.149 273.754 202.298C274.155 202.438 274.496 202.639 274.776 202.9C275.056 203.161 275.266 203.474 275.406 203.838C275.555 204.202 275.63 204.599 275.63 205.028C275.63 205.635 275.499 206.195 275.238 206.708C274.986 207.212 274.664 207.674 274.272 208.094C273.88 208.514 273.451 208.897 272.984 209.242C272.517 209.578 272.074 209.877 271.654 210.138L270.576 210.81H275.994V212H268.364V211.02L270.492 209.606C271.192 209.139 271.789 208.71 272.284 208.318C272.779 207.917 273.18 207.539 273.488 207.184C273.805 206.829 274.034 206.489 274.174 206.162C274.323 205.826 274.398 205.49 274.398 205.154C274.398 204.809 274.342 204.515 274.23 204.272C274.127 204.029 273.978 203.833 273.782 203.684C273.595 203.535 273.371 203.427 273.11 203.362C272.858 203.297 272.587 203.264 272.298 203.264C271.878 203.264 271.514 203.329 271.206 203.46C270.907 203.591 270.651 203.763 270.436 203.978C270.231 204.183 270.067 204.417 269.946 204.678C269.834 204.93 269.759 205.182 269.722 205.434L268.63 205.07ZM276.964 207.1C276.964 206.372 277.048 205.705 277.216 205.098C277.384 204.482 277.636 203.95 277.972 203.502C278.318 203.054 278.752 202.704 279.274 202.452C279.797 202.2 280.413 202.074 281.122 202.074C281.832 202.074 282.448 202.191 282.97 202.424C283.493 202.657 283.927 202.993 284.272 203.432C284.618 203.871 284.874 204.403 285.042 205.028C285.21 205.644 285.294 206.335 285.294 207.1C285.294 207.828 285.21 208.5 285.042 209.116C284.884 209.723 284.632 210.25 284.286 210.698C283.95 211.146 283.521 211.496 282.998 211.748C282.476 212 281.86 212.126 281.15 212.126C280.478 212.126 279.881 212 279.358 211.748C278.836 211.496 278.397 211.146 278.042 210.698C277.688 210.25 277.417 209.723 277.23 209.116C277.053 208.5 276.964 207.828 276.964 207.1ZM278.196 207.1C278.196 208.295 278.458 209.233 278.98 209.914C279.503 210.595 280.226 210.936 281.15 210.936C282.158 210.936 282.896 210.595 283.362 209.914C283.829 209.233 284.062 208.295 284.062 207.1C284.062 205.905 283.824 204.967 283.348 204.286C282.872 203.605 282.13 203.264 281.122 203.264C280.618 203.264 280.184 203.353 279.82 203.53C279.456 203.707 279.153 203.964 278.91 204.3C278.668 204.636 278.486 205.042 278.364 205.518C278.252 205.985 278.196 206.512 278.196 207.1Z" fill="#777F8C"/>
<rect x="243" y="63" width="50" height="129" fill="#BFCED4"/>
<rect x="243" y="63" width="50" height="4" fill="#A6B2BC"/>
<path d="M245.959 42.032H246.928V54H245.5V43.851L242.423 45.262L241.879 43.987L245.959 42.032ZM249.045 55.649C249.192 55.615 249.345 55.5527 249.504 55.462C249.674 55.3713 249.827 55.258 249.963 55.122C250.099 54.986 250.206 54.8387 250.286 54.68C250.376 54.5213 250.422 54.357 250.422 54.187C250.422 54.1077 250.416 54.0453 250.405 54C250.348 54.0113 250.28 54.017 250.201 54.017C249.951 54.017 249.736 53.9377 249.555 53.779C249.385 53.6203 249.3 53.3937 249.3 53.099C249.3 52.8043 249.39 52.572 249.572 52.402C249.753 52.2207 250.008 52.13 250.337 52.13C250.699 52.13 250.994 52.2547 251.221 52.504C251.459 52.742 251.578 53.1047 251.578 53.592C251.578 54.0567 251.515 54.4533 251.391 54.782C251.266 55.1107 251.102 55.3883 250.898 55.615C250.694 55.8417 250.461 56.0173 250.201 56.142C249.94 56.278 249.674 56.38 249.402 56.448L249.045 55.649ZM257.557 54.153C256.526 54.153 255.642 53.9547 254.905 53.558C254.18 53.1613 253.636 52.657 253.273 52.045L254.497 51.195C254.849 51.6823 255.308 52.0563 255.874 52.317C256.452 52.5777 257.081 52.708 257.761 52.708C258.283 52.708 258.759 52.606 259.189 52.402C259.631 52.1867 260.011 51.892 260.328 51.518C260.657 51.144 260.912 50.702 261.093 50.192C261.275 49.682 261.365 49.1267 261.365 48.526C261.365 48.458 261.365 48.39 261.365 48.322C261.365 48.254 261.36 48.186 261.348 48.118C261.076 48.764 260.612 49.3023 259.954 49.733C259.308 50.1523 258.487 50.362 257.489 50.362C256.832 50.362 256.226 50.2657 255.67 50.073C255.115 49.869 254.633 49.5913 254.225 49.24C253.817 48.8773 253.5 48.4467 253.273 47.948C253.047 47.4493 252.933 46.894 252.933 46.282C252.933 45.6247 253.052 45.0297 253.29 44.497C253.54 43.953 253.885 43.494 254.327 43.12C254.769 42.746 255.296 42.457 255.908 42.253C256.532 42.049 257.217 41.947 257.965 41.947C258.725 41.947 259.405 42.0773 260.005 42.338C260.617 42.5873 261.133 42.9613 261.552 43.46C261.983 43.9587 262.312 44.5763 262.538 45.313C262.765 46.0383 262.878 46.877 262.878 47.829C262.878 48.8717 262.748 49.7897 262.487 50.583C262.238 51.365 261.875 52.0223 261.399 52.555C260.935 53.0763 260.374 53.473 259.716 53.745C259.07 54.017 258.351 54.153 257.557 54.153ZM257.761 48.917C258.249 48.917 258.691 48.849 259.087 48.713C259.484 48.577 259.818 48.39 260.09 48.152C260.374 47.9027 260.589 47.6137 260.736 47.285C260.884 46.9563 260.957 46.605 260.957 46.231C260.957 45.8683 260.901 45.517 260.787 45.177C260.674 44.837 260.493 44.5367 260.243 44.276C259.994 44.004 259.665 43.7887 259.257 43.63C258.861 43.4713 258.373 43.392 257.795 43.392C256.741 43.392 255.914 43.63 255.313 44.106C254.724 44.5707 254.429 45.2563 254.429 46.163C254.429 47.0243 254.73 47.6987 255.33 48.186C255.931 48.6733 256.741 48.917 257.761 48.917ZM263.932 42.1H272.959V43.069L267.043 54H265.428L271.14 43.545H263.932V42.1ZM279.254 47.217C279.64 47.217 279.997 47.1717 280.325 47.081C280.665 46.979 280.96 46.843 281.209 46.673C281.459 46.503 281.651 46.299 281.787 46.061C281.935 45.823 282.008 45.5623 282.008 45.279C282.008 44.667 281.753 44.2023 281.243 43.885C280.745 43.5563 279.98 43.392 278.948 43.392C277.951 43.392 277.197 43.5563 276.687 43.885C276.189 44.2137 275.939 44.6783 275.939 45.279C275.939 45.551 276.007 45.806 276.143 46.044C276.279 46.282 276.466 46.4917 276.704 46.673C276.954 46.843 277.248 46.979 277.588 47.081C277.94 47.1717 278.319 47.217 278.727 47.217H279.254ZM278.795 48.56C278.319 48.56 277.877 48.6167 277.469 48.73C277.073 48.832 276.733 48.9793 276.449 49.172C276.166 49.3533 275.945 49.5743 275.786 49.835C275.628 50.0843 275.548 50.3507 275.548 50.634C275.548 51.246 275.832 51.7447 276.398 52.13C276.976 52.5153 277.832 52.708 278.965 52.708C280.133 52.708 280.994 52.5267 281.549 52.164C282.105 51.79 282.382 51.2857 282.382 50.651C282.382 49.9823 282.093 49.4667 281.515 49.104C280.949 48.7413 280.184 48.56 279.22 48.56H278.795ZM278.982 54.153C278.223 54.153 277.537 54.0793 276.925 53.932C276.325 53.7733 275.809 53.5523 275.378 53.269C274.959 52.9743 274.63 52.623 274.392 52.215C274.166 51.7957 274.052 51.3197 274.052 50.787C274.052 50.0843 274.262 49.478 274.681 48.968C275.112 48.4467 275.684 48.0727 276.398 47.846C276.058 47.7327 275.764 47.5853 275.514 47.404C275.265 47.2113 275.061 46.996 274.902 46.758C274.744 46.52 274.625 46.2707 274.545 46.01C274.477 45.738 274.443 45.4603 274.443 45.177C274.443 44.191 274.829 43.409 275.599 42.831C276.381 42.2417 277.503 41.947 278.965 41.947C280.439 41.947 281.561 42.2417 282.331 42.831C283.113 43.409 283.504 44.191 283.504 45.177C283.504 45.789 283.334 46.3047 282.994 46.724C282.666 47.1433 282.207 47.489 281.617 47.761C282.433 48.0103 283.011 48.3843 283.351 48.883C283.703 49.3817 283.878 49.9937 283.878 50.719C283.878 51.263 283.765 51.7503 283.538 52.181C283.312 52.6003 282.983 52.9573 282.552 53.252C282.133 53.5467 281.617 53.7733 281.005 53.932C280.405 54.0793 279.73 54.153 278.982 54.153Z" fill="#222429"/>
<path d="M342.818 205.07C342.902 204.669 343.042 204.286 343.238 203.922C343.434 203.558 343.686 203.241 343.994 202.97C344.302 202.69 344.671 202.471 345.1 202.312C345.53 202.153 346.02 202.074 346.57 202.074C347.084 202.074 347.541 202.149 347.942 202.298C348.344 202.438 348.684 202.639 348.964 202.9C349.244 203.161 349.454 203.474 349.594 203.838C349.744 204.202 349.818 204.599 349.818 205.028C349.818 205.635 349.688 206.195 349.426 206.708C349.174 207.212 348.852 207.674 348.46 208.094C348.068 208.514 347.639 208.897 347.172 209.242C346.706 209.578 346.262 209.877 345.842 210.138L344.764 210.81H350.182V212H342.552V211.02L344.68 209.606C345.38 209.139 345.978 208.71 346.472 208.318C346.967 207.917 347.368 207.539 347.676 207.184C347.994 206.829 348.222 206.489 348.362 206.162C348.512 205.826 348.586 205.49 348.586 205.154C348.586 204.809 348.53 204.515 348.418 204.272C348.316 204.029 348.166 203.833 347.97 203.684C347.784 203.535 347.56 203.427 347.298 203.362C347.046 203.297 346.776 203.264 346.486 203.264C346.066 203.264 345.702 203.329 345.394 203.46C345.096 203.591 344.839 203.763 344.624 203.978C344.419 204.183 344.256 204.417 344.134 204.678C344.022 204.93 343.948 205.182 343.91 205.434L342.818 205.07ZM351.152 207.1C351.152 206.372 351.236 205.705 351.404 205.098C351.572 204.482 351.824 203.95 352.16 203.502C352.506 203.054 352.94 202.704 353.462 202.452C353.985 202.2 354.601 202.074 355.31 202.074C356.02 202.074 356.636 202.191 357.158 202.424C357.681 202.657 358.115 202.993 358.46 203.432C358.806 203.871 359.062 204.403 359.23 205.028C359.398 205.644 359.482 206.335 359.482 207.1C359.482 207.828 359.398 208.5 359.23 209.116C359.072 209.723 358.82 210.25 358.474 210.698C358.138 211.146 357.709 211.496 357.186 211.748C356.664 212 356.048 212.126 355.338 212.126C354.666 212.126 354.069 212 353.546 211.748C353.024 211.496 352.585 211.146 352.23 210.698C351.876 210.25 351.605 209.723 351.418 209.116C351.241 208.5 351.152 207.828 351.152 207.1ZM352.384 207.1C352.384 208.295 352.646 209.233 353.168 209.914C353.691 210.595 354.414 210.936 355.338 210.936C356.346 210.936 357.084 210.595 357.55 209.914C358.017 209.233 358.25 208.295 358.25 207.1C358.25 205.905 358.012 204.967 357.536 204.286C357.06 203.605 356.318 203.264 355.31 203.264C354.806 203.264 354.372 203.353 354.008 203.53C353.644 203.707 353.341 203.964 353.098 204.3C352.856 204.636 352.674 205.042 352.552 205.518C352.44 205.985 352.384 206.512 352.384 207.1ZM360.626 205.07C360.71 204.669 360.85 204.286 361.046 203.922C361.242 203.558 361.494 203.241 361.802 202.97C362.11 202.69 362.479 202.471 362.908 202.312C363.337 202.153 363.827 202.074 364.378 202.074C364.891 202.074 365.349 202.149 365.75 202.298C366.151 202.438 366.492 202.639 366.772 202.9C367.052 203.161 367.262 203.474 367.402 203.838C367.551 204.202 367.626 204.599 367.626 205.028C367.626 205.635 367.495 206.195 367.234 206.708C366.982 207.212 366.66 207.674 366.268 208.094C365.876 208.514 365.447 208.897 364.98 209.242C364.513 209.578 364.07 209.877 363.65 210.138L362.572 210.81H367.99V212H360.36V211.02L362.488 209.606C363.188 209.139 363.785 208.71 364.28 208.318C364.775 207.917 365.176 207.539 365.484 207.184C365.801 206.829 366.03 206.489 366.17 206.162C366.319 205.826 366.394 205.49 366.394 205.154C366.394 204.809 366.338 204.515 366.226 204.272C366.123 204.029 365.974 203.833 365.778 203.684C365.591 203.535 365.367 203.427 365.106 203.362C364.854 203.297 364.583 203.264 364.294 203.264C363.874 203.264 363.51 203.329 363.202 203.46C362.903 203.591 362.647 203.763 362.432 203.978C362.227 204.183 362.063 204.417 361.942 204.678C361.83 204.93 361.755 205.182 361.718 205.434L360.626 205.07ZM371.76 202.144H372.558V212H371.382V203.642L368.848 204.804L368.4 203.754L371.76 202.144Z" fill="#777F8C"/>
<rect x="333" y="48" width="50" height="144" fill="#BFCED4"/>
<rect x="333" y="48" width="50" height="4" fill="#A6B2BC"/>
<path d="M333.076 30.585C333.178 30.0977 333.348 29.633 333.586 29.191C333.824 28.749 334.13 28.3637 334.504 28.035C334.878 27.695 335.326 27.4287 335.847 27.236C336.368 27.0433 336.963 26.947 337.632 26.947C338.255 26.947 338.811 27.0377 339.298 27.219C339.785 27.389 340.199 27.6327 340.539 27.95C340.879 28.2673 341.134 28.647 341.304 29.089C341.485 29.531 341.576 30.0127 341.576 30.534C341.576 31.2707 341.417 31.9507 341.1 32.574C340.794 33.186 340.403 33.747 339.927 34.257C339.451 34.767 338.93 35.2317 338.363 35.651C337.796 36.059 337.258 36.4217 336.748 36.739L335.439 37.555H342.018V39H332.753V37.81L335.337 36.093C336.187 35.5263 336.912 35.005 337.513 34.529C338.114 34.0417 338.601 33.5827 338.975 33.152C339.36 32.7213 339.638 32.3077 339.808 31.911C339.989 31.503 340.08 31.095 340.08 30.687C340.08 30.2677 340.012 29.9107 339.876 29.616C339.751 29.3213 339.57 29.0833 339.332 28.902C339.105 28.7207 338.833 28.5903 338.516 28.511C338.21 28.4317 337.881 28.392 337.53 28.392C337.02 28.392 336.578 28.4713 336.204 28.63C335.841 28.7887 335.53 28.9983 335.269 29.259C335.02 29.5083 334.821 29.7917 334.674 30.109C334.538 30.415 334.447 30.721 334.402 31.027L333.076 30.585ZM343.145 40.649C343.293 40.615 343.446 40.5527 343.604 40.462C343.774 40.3713 343.927 40.258 344.063 40.122C344.199 39.986 344.307 39.8387 344.386 39.68C344.477 39.5213 344.522 39.357 344.522 39.187C344.522 39.1077 344.517 39.0453 344.505 39C344.449 39.0113 344.381 39.017 344.301 39.017C344.052 39.017 343.837 38.9377 343.655 38.779C343.485 38.6203 343.4 38.3937 343.4 38.099C343.4 37.8043 343.491 37.572 343.672 37.402C343.854 37.2207 344.109 37.13 344.437 37.13C344.8 37.13 345.095 37.2547 345.321 37.504C345.559 37.742 345.678 38.1047 345.678 38.592C345.678 39.0567 345.616 39.4533 345.491 39.782C345.367 40.1107 345.202 40.3883 344.998 40.615C344.794 40.8417 344.562 41.0173 344.301 41.142C344.041 41.278 343.774 41.38 343.502 41.448L343.145 40.649ZM347.204 30.585C347.306 30.0977 347.476 29.633 347.714 29.191C347.952 28.749 348.258 28.3637 348.632 28.035C349.006 27.695 349.454 27.4287 349.975 27.236C350.496 27.0433 351.091 26.947 351.76 26.947C352.383 26.947 352.939 27.0377 353.426 27.219C353.913 27.389 354.327 27.6327 354.667 27.95C355.007 28.2673 355.262 28.647 355.432 29.089C355.613 29.531 355.704 30.0127 355.704 30.534C355.704 31.2707 355.545 31.9507 355.228 32.574C354.922 33.186 354.531 33.747 354.055 34.257C353.579 34.767 353.058 35.2317 352.491 35.651C351.924 36.059 351.386 36.4217 350.876 36.739L349.567 37.555H356.146V39H346.881V37.81L349.465 36.093C350.315 35.5263 351.04 35.005 351.641 34.529C352.242 34.0417 352.729 33.5827 353.103 33.152C353.488 32.7213 353.766 32.3077 353.936 31.911C354.117 31.503 354.208 31.095 354.208 30.687C354.208 30.2677 354.14 29.9107 354.004 29.616C353.879 29.3213 353.698 29.0833 353.46 28.902C353.233 28.7207 352.961 28.5903 352.644 28.511C352.338 28.4317 352.009 28.392 351.658 28.392C351.148 28.392 350.706 28.4713 350.332 28.63C349.969 28.7887 349.658 28.9983 349.397 29.259C349.148 29.5083 348.949 29.7917 348.802 30.109C348.666 30.415 348.575 30.721 348.53 31.027L347.204 30.585ZM357.494 33.05C357.494 32.166 357.596 31.3557 357.8 30.619C358.004 29.871 358.31 29.225 358.718 28.681C359.138 28.137 359.665 27.712 360.299 27.406C360.934 27.1 361.682 26.947 362.543 26.947C363.405 26.947 364.153 27.0887 364.787 27.372C365.422 27.6553 365.949 28.0633 366.368 28.596C366.788 29.1287 367.099 29.7747 367.303 30.534C367.507 31.282 367.609 32.1207 367.609 33.05C367.609 33.934 367.507 34.75 367.303 35.498C367.111 36.2347 366.805 36.875 366.385 37.419C365.977 37.963 365.456 38.388 364.821 38.694C364.187 39 363.439 39.153 362.577 39.153C361.761 39.153 361.036 39 360.401 38.694C359.767 38.388 359.234 37.963 358.803 37.419C358.373 36.875 358.044 36.2347 357.817 35.498C357.602 34.75 357.494 33.934 357.494 33.05ZM358.99 33.05C358.99 34.5007 359.308 35.6397 359.942 36.467C360.577 37.2943 361.455 37.708 362.577 37.708C363.801 37.708 364.697 37.2943 365.263 36.467C365.83 35.6397 366.113 34.5007 366.113 33.05C366.113 31.5993 365.824 30.4603 365.246 29.633C364.668 28.8057 363.767 28.392 362.543 28.392C361.931 28.392 361.404 28.4997 360.962 28.715C360.52 28.9303 360.152 29.242 359.857 29.65C359.563 30.058 359.342 30.551 359.194 31.129C359.058 31.6957 358.99 32.336 358.99 33.05ZM370.256 27.1H377.736V28.545H371.565L371.123 31.741C371.384 31.5483 371.735 31.3897 372.177 31.265C372.63 31.129 373.18 31.061 373.826 31.061C374.54 31.061 375.175 31.163 375.73 31.367C376.285 31.571 376.75 31.8543 377.124 32.217C377.498 32.5797 377.781 33.0047 377.974 33.492C378.178 33.9793 378.28 34.5007 378.28 35.056C378.28 35.6567 378.161 36.2063 377.923 36.705C377.696 37.2037 377.373 37.6343 376.954 37.997C376.546 38.3597 376.059 38.643 375.492 38.847C374.937 39.051 374.33 39.153 373.673 39.153C373.129 39.153 372.608 39.0907 372.109 38.966C371.61 38.8413 371.146 38.6543 370.715 38.405C370.296 38.1557 369.922 37.8553 369.593 37.504C369.276 37.1413 369.021 36.722 368.828 36.246L370.188 35.668C370.301 35.9287 370.46 36.1837 370.664 36.433C370.868 36.671 371.117 36.8863 371.412 37.079C371.707 37.2717 372.041 37.4247 372.415 37.538C372.789 37.6513 373.208 37.708 373.673 37.708C374.194 37.708 374.648 37.64 375.033 37.504C375.43 37.3567 375.758 37.164 376.019 36.926C376.28 36.688 376.472 36.416 376.597 36.11C376.722 35.7927 376.784 35.4583 376.784 35.107C376.784 34.3023 376.484 33.6677 375.883 33.203C375.294 32.7383 374.472 32.506 373.418 32.506C372.817 32.506 372.313 32.591 371.905 32.761C371.508 32.9197 371.134 33.1747 370.783 33.526L369.559 33.203L370.256 27.1Z" fill="#222429"/>
</svg>
