<svg viewBox="0 0 536 645" fill="none" xmlns="http://www.w3.org/2000/svg">
<rect x="55" width="72" height="148" fill="#BFCED4"/>
<path d="M80.8025 71.585C80.9158 71.041 81.1085 70.5423 81.3805 70.089C81.6638 69.6357 82.0095 69.2503 82.4175 68.933C82.8255 68.6043 83.2901 68.3493 83.8115 68.168C84.3441 67.9867 84.9221 67.896 85.5455 67.896C86.2028 67.896 86.7921 67.9923 87.3135 68.185C87.8348 68.3663 88.2711 68.6213 88.6225 68.95C88.9738 69.2787 89.2401 69.681 89.4215 70.157C89.6141 70.6217 89.7105 71.1317 89.7105 71.687C89.7105 72.6957 89.3421 73.6477 88.6055 74.543C87.8801 75.427 86.7411 76.362 85.1885 77.348L84.0665 78.062H90.0335V80H80.6665V78.419L82.8255 76.991C83.7661 76.3677 84.5481 75.8237 85.1715 75.359C85.8061 74.883 86.3105 74.4523 86.6845 74.067C87.0585 73.6817 87.3191 73.3133 87.4665 72.962C87.6251 72.6107 87.7045 72.2423 87.7045 71.857C87.7045 71.5057 87.6421 71.1997 87.5175 70.939C87.3928 70.6783 87.2228 70.4687 87.0075 70.31C86.8035 70.1513 86.5598 70.0323 86.2765 69.953C86.0045 69.8737 85.7155 69.834 85.4095 69.834C84.9675 69.834 84.5821 69.902 84.2535 70.038C83.9248 70.174 83.6415 70.3553 83.4035 70.582C83.1768 70.7973 82.9898 71.0467 82.8425 71.33C82.6951 71.602 82.5818 71.8853 82.5025 72.18L80.8025 71.585ZM97.5827 77.79H90.5957V76.447L97.8547 68.083H99.4867V75.971H101.527V77.79H99.4867V80H97.5827V77.79ZM97.5827 75.971V71.126L93.1797 75.971H97.5827Z" fill="#222429"/>
<path d="M75.6454 632.07C75.7294 631.669 75.8694 631.286 76.0654 630.922C76.2614 630.558 76.5134 630.241 76.8214 629.97C77.1294 629.69 77.4981 629.471 77.9274 629.312C78.3567 629.153 78.8467 629.074 79.3974 629.074C79.9107 629.074 80.3681 629.149 80.7694 629.298C81.1707 629.438 81.5114 629.639 81.7914 629.9C82.0714 630.161 82.2814 630.474 82.4214 630.838C82.5707 631.202 82.6454 631.599 82.6454 632.028C82.6454 632.635 82.5147 633.195 82.2534 633.708C82.0014 634.212 81.6794 634.674 81.2874 635.094C80.8954 635.514 80.4661 635.897 79.9994 636.242C79.5327 636.578 79.0894 636.877 78.6694 637.138L77.5914 637.81H83.0094V639H75.3794V638.02L77.5074 636.606C78.2074 636.139 78.8047 635.71 79.2994 635.318C79.7941 634.917 80.1954 634.539 80.5034 634.184C80.8207 633.829 81.0494 633.489 81.1894 633.162C81.3387 632.826 81.4134 632.49 81.4134 632.154C81.4134 631.809 81.3574 631.515 81.2454 631.272C81.1427 631.029 80.9934 630.833 80.7974 630.684C80.6107 630.535 80.3867 630.427 80.1254 630.362C79.8734 630.297 79.6027 630.264 79.3134 630.264C78.8934 630.264 78.5294 630.329 78.2214 630.46C77.9227 630.591 77.6661 630.763 77.4514 630.978C77.2461 631.183 77.0827 631.417 76.9614 631.678C76.8494 631.93 76.7747 632.182 76.7374 632.434L75.6454 632.07ZM83.8397 634.1C83.8397 633.372 83.9237 632.705 84.0917 632.098C84.2597 631.482 84.5117 630.95 84.8477 630.502C85.193 630.054 85.627 629.704 86.1497 629.452C86.6723 629.2 87.2883 629.074 87.9977 629.074C88.707 629.074 89.323 629.191 89.8457 629.424C90.3683 629.657 90.8023 629.993 91.1477 630.432C91.493 630.871 91.7497 631.403 91.9177 632.028C92.0857 632.644 92.1697 633.335 92.1697 634.1C92.1697 634.828 92.0857 635.5 91.9177 636.116C91.759 636.723 91.507 637.25 91.1617 637.698C90.8257 638.146 90.3963 638.496 89.8737 638.748C89.351 639 88.735 639.126 88.0257 639.126C87.3537 639.126 86.7563 639 86.2337 638.748C85.711 638.496 85.2723 638.146 84.9177 637.698C84.563 637.25 84.2923 636.723 84.1057 636.116C83.9283 635.5 83.8397 634.828 83.8397 634.1ZM85.0717 634.1C85.0717 635.295 85.333 636.233 85.8557 636.914C86.3783 637.595 87.1017 637.936 88.0257 637.936C89.0337 637.936 89.771 637.595 90.2377 636.914C90.7043 636.233 90.9377 635.295 90.9377 634.1C90.9377 632.905 90.6997 631.967 90.2237 631.286C89.7477 630.605 89.0057 630.264 87.9977 630.264C87.4937 630.264 87.0597 630.353 86.6957 630.53C86.3317 630.707 86.0283 630.964 85.7857 631.3C85.543 631.636 85.361 632.042 85.2397 632.518C85.1277 632.985 85.0717 633.512 85.0717 634.1ZM95.8753 629.144H96.6733V639H95.4973V630.642L92.9633 631.804L92.5153 630.754L95.8753 629.144ZM102.085 639.126C101.235 639.126 100.507 638.963 99.9007 638.636C99.3034 638.309 98.8554 637.894 98.5567 637.39L99.5647 636.69C99.8541 637.091 100.232 637.399 100.699 637.614C101.175 637.829 101.693 637.936 102.253 637.936C102.682 637.936 103.074 637.852 103.429 637.684C103.793 637.507 104.105 637.264 104.367 636.956C104.637 636.648 104.847 636.284 104.997 635.864C105.146 635.444 105.221 634.987 105.221 634.492C105.221 634.436 105.221 634.38 105.221 634.324C105.221 634.268 105.216 634.212 105.207 634.156C104.983 634.688 104.6 635.131 104.059 635.486C103.527 635.831 102.85 636.004 102.029 636.004C101.487 636.004 100.988 635.925 100.531 635.766C100.073 635.598 99.6767 635.369 99.3407 635.08C99.0047 634.781 98.7434 634.427 98.5567 634.016C98.3701 633.605 98.2767 633.148 98.2767 632.644C98.2767 632.103 98.3747 631.613 98.5707 631.174C98.7761 630.726 99.0607 630.348 99.4247 630.04C99.7887 629.732 100.223 629.494 100.727 629.326C101.24 629.158 101.805 629.074 102.421 629.074C103.046 629.074 103.606 629.181 104.101 629.396C104.605 629.601 105.029 629.909 105.375 630.32C105.729 630.731 106 631.239 106.187 631.846C106.373 632.443 106.467 633.134 106.467 633.918C106.467 634.777 106.359 635.533 106.145 636.186C105.939 636.83 105.641 637.371 105.249 637.81C104.866 638.239 104.404 638.566 103.863 638.79C103.331 639.014 102.738 639.126 102.085 639.126ZM102.253 634.814C102.654 634.814 103.018 634.758 103.345 634.646C103.671 634.534 103.947 634.38 104.171 634.184C104.404 633.979 104.581 633.741 104.703 633.47C104.824 633.199 104.885 632.91 104.885 632.602C104.885 632.303 104.838 632.014 104.745 631.734C104.651 631.454 104.502 631.207 104.297 630.992C104.091 630.768 103.821 630.591 103.485 630.46C103.158 630.329 102.757 630.264 102.281 630.264C101.413 630.264 100.731 630.46 100.237 630.852C99.7514 631.235 99.5087 631.799 99.5087 632.546C99.5087 633.255 99.7561 633.811 100.251 634.212C100.745 634.613 101.413 634.814 102.253 634.814Z" fill="#777F8C"/>
<rect x="55" y="148" width="72" height="278" fill="#648494"/>
<path d="M87.2561 290.79H80.2691V289.447L87.5281 281.083H89.1601V288.971H91.2001V290.79H89.1601V293H87.2561V290.79ZM87.2561 288.971V284.126L82.8531 288.971H87.2561ZM93.064 281.1H100.867V283.038H94.73L94.458 285.588C94.6507 285.441 94.9567 285.316 95.376 285.214C95.8067 285.112 96.2997 285.061 96.855 285.061C97.5804 285.061 98.2264 285.163 98.793 285.367C99.3597 285.56 99.8357 285.837 100.221 286.2C100.606 286.551 100.895 286.971 101.088 287.458C101.292 287.945 101.394 288.478 101.394 289.056C101.394 289.668 101.275 290.229 101.037 290.739C100.799 291.249 100.47 291.691 100.051 292.065C99.643 292.428 99.1557 292.711 98.589 292.915C98.0224 293.108 97.4104 293.204 96.753 293.204C95.5857 293.204 94.5714 292.966 93.71 292.49C92.8487 292.014 92.1857 291.289 91.721 290.314L93.455 289.413C93.7157 289.957 94.1124 290.405 94.645 290.756C95.1777 291.096 95.8464 291.266 96.651 291.266C97.569 291.266 98.2547 291.068 98.708 290.671C99.1614 290.263 99.388 289.73 99.388 289.073C99.388 288.37 99.1274 287.826 98.606 287.441C98.096 287.044 97.416 286.846 96.566 286.846C95.9314 286.846 95.4044 286.931 94.985 287.101C94.577 287.271 94.1917 287.492 93.829 287.764L92.401 287.169L93.064 281.1Z" fill="white"/>
<rect x="271" y="136" width="72" height="253" fill="#648494"/>
<path d="M305.199 265.79H298.212V264.447L305.471 256.083H307.103V263.971H309.143V265.79H307.103V268H305.199V265.79ZM305.199 263.971V259.126L300.796 263.971H305.199ZM313.182 256.066H314.559V268H312.655V258.446L310.02 259.636L309.272 257.987L313.182 256.066Z" fill="white"/>
<rect x="55" y="426" width="72" height="191" fill="#5FAF2D"/>
<path d="M82.9737 517.99C83.1323 517.548 83.3533 517.14 83.6367 516.766C83.92 516.381 84.26 516.052 84.6567 515.78C85.0647 515.497 85.535 515.281 86.0677 515.134C86.6003 514.975 87.201 514.896 87.8697 514.896C88.459 514.896 89.0087 514.97 89.5187 515.117C90.0287 515.264 90.465 515.474 90.8277 515.746C91.2017 516.007 91.4907 516.33 91.6947 516.715C91.91 517.1 92.0177 517.531 92.0177 518.007C92.0177 518.653 91.842 519.208 91.4907 519.673C91.1507 520.126 90.6747 520.461 90.0627 520.676C90.3573 520.733 90.6407 520.829 90.9127 520.965C91.1847 521.09 91.4283 521.265 91.6437 521.492C91.859 521.719 92.029 521.996 92.1537 522.325C92.2783 522.654 92.3407 523.033 92.3407 523.464C92.3407 524.042 92.2273 524.563 92.0007 525.028C91.774 525.493 91.4623 525.889 91.0657 526.218C90.669 526.535 90.193 526.779 89.6377 526.949C89.0937 527.119 88.4987 527.204 87.8527 527.204C86.5493 527.204 85.45 526.932 84.5547 526.388C83.6707 525.844 83.053 525.039 82.7017 523.974L84.4867 523.209C84.6 523.504 84.7473 523.781 84.9287 524.042C85.1213 524.303 85.348 524.535 85.6087 524.739C85.8807 524.932 86.198 525.085 86.5607 525.198C86.9233 525.311 87.337 525.368 87.8017 525.368C88.629 525.368 89.258 525.204 89.6887 524.875C90.1193 524.546 90.3347 524.082 90.3347 523.481C90.3347 523.164 90.2667 522.897 90.1307 522.682C90.006 522.467 89.8247 522.297 89.5867 522.172C89.36 522.036 89.0823 521.94 88.7537 521.883C88.4363 521.826 88.085 521.798 87.6997 521.798H86.1527V520.03H87.4277C88.2777 520.03 88.918 519.871 89.3487 519.554C89.7907 519.225 90.0117 518.823 90.0117 518.347C90.0117 517.871 89.8077 517.503 89.3997 517.242C89.003 516.97 88.4307 516.834 87.6827 516.834C87.252 516.834 86.8667 516.891 86.5267 517.004C86.198 517.106 85.909 517.248 85.6597 517.429C85.4217 517.61 85.212 517.814 85.0307 518.041C84.8607 518.256 84.7247 518.483 84.6227 518.721L82.9737 517.99ZM96.7093 515.066H98.0863V527H96.1823V517.446L93.5473 518.636L92.7993 516.987L96.7093 515.066Z" fill="white"/>
<rect x="163" width="72" height="129" fill="#BFCED4"/>
<path d="M191.16 61.585C191.273 61.041 191.466 60.5423 191.738 60.089C192.021 59.6357 192.367 59.2503 192.775 58.933C193.183 58.6043 193.648 58.3493 194.169 58.168C194.702 57.9867 195.28 57.896 195.903 57.896C196.56 57.896 197.15 57.9923 197.671 58.185C198.192 58.3663 198.629 58.6213 198.98 58.95C199.331 59.2787 199.598 59.681 199.779 60.157C199.972 60.6217 200.068 61.1317 200.068 61.687C200.068 62.6957 199.7 63.6477 198.963 64.543C198.238 65.427 197.099 66.362 195.546 67.348L194.424 68.062H200.391V70H191.024V68.419L193.183 66.991C194.124 66.3677 194.906 65.8237 195.529 65.359C196.164 64.883 196.668 64.4523 197.042 64.067C197.416 63.6817 197.677 63.3133 197.824 62.962C197.983 62.6107 198.062 62.2423 198.062 61.857C198.062 61.5057 198 61.1997 197.875 60.939C197.75 60.6783 197.58 60.4687 197.365 60.31C197.161 60.1513 196.917 60.0323 196.634 59.953C196.362 59.8737 196.073 59.834 195.767 59.834C195.325 59.834 194.94 59.902 194.611 60.038C194.282 60.174 193.999 60.3553 193.761 60.582C193.534 60.7973 193.347 61.0467 193.2 61.33C193.053 61.602 192.939 61.8853 192.86 62.18L191.16 61.585ZM204.676 58.066H206.053V70H204.149V60.446L201.514 61.636L200.766 59.987L204.676 58.066Z" fill="#222429"/>
<path d="M182.032 632.07C182.116 631.669 182.256 631.286 182.452 630.922C182.648 630.558 182.9 630.241 183.208 629.97C183.516 629.69 183.885 629.471 184.314 629.312C184.743 629.153 185.233 629.074 185.784 629.074C186.297 629.074 186.755 629.149 187.156 629.298C187.557 629.438 187.898 629.639 188.178 629.9C188.458 630.161 188.668 630.474 188.808 630.838C188.957 631.202 189.032 631.599 189.032 632.028C189.032 632.635 188.901 633.195 188.64 633.708C188.388 634.212 188.066 634.674 187.674 635.094C187.282 635.514 186.853 635.897 186.386 636.242C185.919 636.578 185.476 636.877 185.056 637.138L183.978 637.81H189.396V639H181.766V638.02L183.894 636.606C184.594 636.139 185.191 635.71 185.686 635.318C186.181 634.917 186.582 634.539 186.89 634.184C187.207 633.829 187.436 633.489 187.576 633.162C187.725 632.826 187.8 632.49 187.8 632.154C187.8 631.809 187.744 631.515 187.632 631.272C187.529 631.029 187.38 630.833 187.184 630.684C186.997 630.535 186.773 630.427 186.512 630.362C186.26 630.297 185.989 630.264 185.7 630.264C185.28 630.264 184.916 630.329 184.608 630.46C184.309 630.591 184.053 630.763 183.838 630.978C183.633 631.183 183.469 631.417 183.348 631.678C183.236 631.93 183.161 632.182 183.124 632.434L182.032 632.07ZM190.226 634.1C190.226 633.372 190.31 632.705 190.478 632.098C190.646 631.482 190.898 630.95 191.234 630.502C191.58 630.054 192.014 629.704 192.536 629.452C193.059 629.2 193.675 629.074 194.384 629.074C195.094 629.074 195.71 629.191 196.232 629.424C196.755 629.657 197.189 629.993 197.534 630.432C197.88 630.871 198.136 631.403 198.304 632.028C198.472 632.644 198.556 633.335 198.556 634.1C198.556 634.828 198.472 635.5 198.304 636.116C198.146 636.723 197.894 637.25 197.548 637.698C197.212 638.146 196.783 638.496 196.26 638.748C195.738 639 195.122 639.126 194.412 639.126C193.74 639.126 193.143 639 192.62 638.748C192.098 638.496 191.659 638.146 191.304 637.698C190.95 637.25 190.679 636.723 190.492 636.116C190.315 635.5 190.226 634.828 190.226 634.1ZM191.458 634.1C191.458 635.295 191.72 636.233 192.242 636.914C192.765 637.595 193.488 637.936 194.412 637.936C195.42 637.936 196.158 637.595 196.624 636.914C197.091 636.233 197.324 635.295 197.324 634.1C197.324 632.905 197.086 631.967 196.61 631.286C196.134 630.605 195.392 630.264 194.384 630.264C193.88 630.264 193.446 630.353 193.082 630.53C192.718 630.707 192.415 630.964 192.172 631.3C191.93 631.636 191.748 632.042 191.626 632.518C191.514 632.985 191.458 633.512 191.458 634.1ZM199.56 632.07C199.644 631.669 199.784 631.286 199.98 630.922C200.176 630.558 200.428 630.241 200.736 629.97C201.044 629.69 201.413 629.471 201.842 629.312C202.271 629.153 202.761 629.074 203.312 629.074C203.825 629.074 204.283 629.149 204.684 629.298C205.085 629.438 205.426 629.639 205.706 629.9C205.986 630.161 206.196 630.474 206.336 630.838C206.485 631.202 206.56 631.599 206.56 632.028C206.56 632.635 206.429 633.195 206.168 633.708C205.916 634.212 205.594 634.674 205.202 635.094C204.81 635.514 204.381 635.897 203.914 636.242C203.447 636.578 203.004 636.877 202.584 637.138L201.506 637.81H206.924V639H199.294V638.02L201.422 636.606C202.122 636.139 202.719 635.71 203.214 635.318C203.709 634.917 204.11 634.539 204.418 634.184C204.735 633.829 204.964 633.489 205.104 633.162C205.253 632.826 205.328 632.49 205.328 632.154C205.328 631.809 205.272 631.515 205.16 631.272C205.057 631.029 204.908 630.833 204.712 630.684C204.525 630.535 204.301 630.427 204.04 630.362C203.788 630.297 203.517 630.264 203.228 630.264C202.808 630.264 202.444 630.329 202.136 630.46C201.837 630.591 201.581 630.763 201.366 630.978C201.161 631.183 200.997 631.417 200.876 631.678C200.764 631.93 200.689 632.182 200.652 632.434L199.56 632.07ZM207.754 634.1C207.754 633.372 207.838 632.705 208.006 632.098C208.174 631.482 208.426 630.95 208.762 630.502C209.108 630.054 209.542 629.704 210.064 629.452C210.587 629.2 211.203 629.074 211.912 629.074C212.622 629.074 213.238 629.191 213.76 629.424C214.283 629.657 214.717 629.993 215.062 630.432C215.408 630.871 215.664 631.403 215.832 632.028C216 632.644 216.084 633.335 216.084 634.1C216.084 634.828 216 635.5 215.832 636.116C215.674 636.723 215.422 637.25 215.076 637.698C214.74 638.146 214.311 638.496 213.788 638.748C213.266 639 212.65 639.126 211.94 639.126C211.268 639.126 210.671 639 210.148 638.748C209.626 638.496 209.187 638.146 208.832 637.698C208.478 637.25 208.207 636.723 208.02 636.116C207.843 635.5 207.754 634.828 207.754 634.1ZM208.986 634.1C208.986 635.295 209.248 636.233 209.77 636.914C210.293 637.595 211.016 637.936 211.94 637.936C212.948 637.936 213.686 637.595 214.152 636.914C214.619 636.233 214.852 635.295 214.852 634.1C214.852 632.905 214.614 631.967 214.138 631.286C213.662 630.605 212.92 630.264 211.912 630.264C211.408 630.264 210.974 630.353 210.61 630.53C210.246 630.707 209.943 630.964 209.7 631.3C209.458 631.636 209.276 632.042 209.154 632.518C209.042 632.985 208.986 633.512 208.986 634.1Z" fill="#777F8C"/>
<rect x="163" y="129" width="72" height="266" fill="#648494"/>
<path d="M195.347 265.79H188.36V264.447L195.619 256.083H197.251V263.971H199.291V265.79H197.251V268H195.347V265.79ZM195.347 263.971V259.126L190.944 263.971H195.347ZM200.05 259.585C200.164 259.041 200.356 258.542 200.628 258.089C200.912 257.636 201.257 257.25 201.665 256.933C202.073 256.604 202.538 256.349 203.059 256.168C203.592 255.987 204.17 255.896 204.793 255.896C205.451 255.896 206.04 255.992 206.561 256.185C207.083 256.366 207.519 256.621 207.87 256.95C208.222 257.279 208.488 257.681 208.669 258.157C208.862 258.622 208.958 259.132 208.958 259.687C208.958 260.696 208.59 261.648 207.853 262.543C207.128 263.427 205.989 264.362 204.436 265.348L203.314 266.062H209.281V268H199.914V266.419L202.073 264.991C203.014 264.368 203.796 263.824 204.419 263.359C205.054 262.883 205.558 262.452 205.932 262.067C206.306 261.682 206.567 261.313 206.714 260.962C206.873 260.611 206.952 260.242 206.952 259.857C206.952 259.506 206.89 259.2 206.765 258.939C206.641 258.678 206.471 258.469 206.255 258.31C206.051 258.151 205.808 258.032 205.524 257.953C205.252 257.874 204.963 257.834 204.657 257.834C204.215 257.834 203.83 257.902 203.501 258.038C203.173 258.174 202.889 258.355 202.651 258.582C202.425 258.797 202.238 259.047 202.09 259.33C201.943 259.602 201.83 259.885 201.75 260.18L200.05 259.585Z" fill="white"/>
<rect x="163" y="395" width="72" height="222" fill="#5FAF2D"/>
<path d="M188.649 502.99C188.808 502.548 189.029 502.14 189.312 501.766C189.596 501.381 189.936 501.052 190.332 500.78C190.74 500.497 191.211 500.281 191.743 500.134C192.276 499.975 192.877 499.896 193.545 499.896C194.135 499.896 194.684 499.97 195.194 500.117C195.704 500.264 196.141 500.474 196.503 500.746C196.877 501.007 197.166 501.33 197.37 501.715C197.586 502.1 197.693 502.531 197.693 503.007C197.693 503.653 197.518 504.208 197.166 504.673C196.826 505.126 196.35 505.461 195.738 505.676C196.033 505.733 196.316 505.829 196.588 505.965C196.86 506.09 197.104 506.265 197.319 506.492C197.535 506.719 197.705 506.996 197.829 507.325C197.954 507.654 198.016 508.033 198.016 508.464C198.016 509.042 197.903 509.563 197.676 510.028C197.45 510.493 197.138 510.889 196.741 511.218C196.345 511.535 195.869 511.779 195.313 511.949C194.769 512.119 194.174 512.204 193.528 512.204C192.225 512.204 191.126 511.932 190.23 511.388C189.346 510.844 188.729 510.039 188.377 508.974L190.162 508.209C190.276 508.504 190.423 508.781 190.604 509.042C190.797 509.303 191.024 509.535 191.284 509.739C191.556 509.932 191.874 510.085 192.236 510.198C192.599 510.311 193.013 510.368 193.477 510.368C194.305 510.368 194.934 510.204 195.364 509.875C195.795 509.546 196.01 509.082 196.01 508.481C196.01 508.164 195.942 507.897 195.806 507.682C195.682 507.467 195.5 507.297 195.262 507.172C195.036 507.036 194.758 506.94 194.429 506.883C194.112 506.826 193.761 506.798 193.375 506.798H191.828V505.03H193.103C193.953 505.03 194.594 504.871 195.024 504.554C195.466 504.225 195.687 503.823 195.687 503.347C195.687 502.871 195.483 502.503 195.075 502.242C194.679 501.97 194.106 501.834 193.358 501.834C192.928 501.834 192.542 501.891 192.202 502.004C191.874 502.106 191.585 502.248 191.335 502.429C191.097 502.61 190.888 502.814 190.706 503.041C190.536 503.256 190.4 503.483 190.298 503.721L188.649 502.99ZM204.459 512.204C203.654 512.204 202.923 512.079 202.266 511.83C201.609 511.569 201.042 511.19 200.566 510.691C200.101 510.192 199.739 509.575 199.478 508.838C199.229 508.09 199.104 507.229 199.104 506.254C199.104 505.2 199.24 504.276 199.512 503.483C199.795 502.69 200.181 502.027 200.668 501.494C201.155 500.961 201.728 500.565 202.385 500.304C203.054 500.032 203.773 499.896 204.544 499.896C205.575 499.896 206.465 500.1 207.213 500.508C207.961 500.916 208.522 501.477 208.896 502.191L207.57 503.296C206.913 502.321 205.893 501.834 204.51 501.834C203.411 501.834 202.561 502.191 201.96 502.905C201.371 503.619 201.065 504.577 201.042 505.778V505.931C201.337 505.319 201.818 504.832 202.487 504.469C203.167 504.106 203.926 503.925 204.765 503.925C205.456 503.925 206.08 504.021 206.635 504.214C207.202 504.407 207.683 504.679 208.08 505.03C208.477 505.37 208.777 505.789 208.981 506.288C209.196 506.787 209.304 507.342 209.304 507.954C209.304 508.589 209.185 509.167 208.947 509.688C208.709 510.209 208.375 510.657 207.944 511.031C207.513 511.405 206.998 511.694 206.397 511.898C205.808 512.102 205.162 512.204 204.459 512.204ZM204.391 510.266C205.275 510.266 205.978 510.068 206.499 509.671C207.032 509.274 207.298 508.719 207.298 508.005C207.298 507.268 207.043 506.73 206.533 506.39C206.034 506.039 205.377 505.863 204.561 505.863C203.598 505.863 202.861 506.044 202.351 506.407C201.852 506.77 201.603 507.28 201.603 507.937C201.603 508.617 201.841 509.178 202.317 509.62C202.804 510.051 203.496 510.266 204.391 510.266Z" fill="white"/>
<rect x="271" width="72" height="136" fill="#BFCED4"/>
<path d="M297.309 65.585C297.422 65.041 297.615 64.5423 297.887 64.089C298.17 63.6357 298.516 63.2503 298.924 62.933C299.332 62.6043 299.796 62.3493 300.318 62.168C300.85 61.9867 301.428 61.896 302.052 61.896C302.709 61.896 303.298 61.9923 303.82 62.185C304.341 62.3663 304.777 62.6213 305.129 62.95C305.48 63.2787 305.746 63.681 305.928 64.157C306.12 64.6217 306.217 65.1317 306.217 65.687C306.217 66.6957 305.848 67.6477 305.112 68.543C304.386 69.427 303.247 70.362 301.695 71.348L300.573 72.062H306.54V74H297.173V72.419L299.332 70.991C300.272 70.3677 301.054 69.8237 301.678 69.359C302.312 68.883 302.817 68.4523 303.191 68.067C303.565 67.6817 303.825 67.3133 303.973 66.962C304.131 66.6107 304.211 66.2423 304.211 65.857C304.211 65.5057 304.148 65.1997 304.024 64.939C303.899 64.6783 303.729 64.4687 303.514 64.31C303.31 64.1513 303.066 64.0323 302.783 63.953C302.511 63.8737 302.222 63.834 301.916 63.834C301.474 63.834 301.088 63.902 300.76 64.038C300.431 64.174 300.148 64.3553 299.91 64.582C299.683 64.7973 299.496 65.0467 299.349 65.33C299.201 65.602 299.088 65.8853 299.009 66.18L297.309 65.585ZM307.544 65.585C307.657 65.041 307.85 64.5423 308.122 64.089C308.405 63.6357 308.751 63.2503 309.159 62.933C309.567 62.6043 310.032 62.3493 310.553 62.168C311.086 61.9867 311.664 61.896 312.287 61.896C312.944 61.896 313.534 61.9923 314.055 62.185C314.576 62.3663 315.013 62.6213 315.364 62.95C315.715 63.2787 315.982 63.681 316.163 64.157C316.356 64.6217 316.452 65.1317 316.452 65.687C316.452 66.6957 316.084 67.6477 315.347 68.543C314.622 69.427 313.483 70.362 311.93 71.348L310.808 72.062H316.775V74H307.408V72.419L309.567 70.991C310.508 70.3677 311.29 69.8237 311.913 69.359C312.548 68.883 313.052 68.4523 313.426 68.067C313.8 67.6817 314.061 67.3133 314.208 66.962C314.367 66.6107 314.446 66.2423 314.446 65.857C314.446 65.5057 314.384 65.1997 314.259 64.939C314.134 64.6783 313.964 64.4687 313.749 64.31C313.545 64.1513 313.301 64.0323 313.018 63.953C312.746 63.8737 312.457 63.834 312.151 63.834C311.709 63.834 311.324 63.902 310.995 64.038C310.666 64.174 310.383 64.3553 310.145 64.582C309.918 64.7973 309.731 65.0467 309.584 65.33C309.437 65.602 309.323 65.8853 309.244 66.18L307.544 65.585Z" fill="#222429"/>
<path d="M292.278 632.07C292.362 631.669 292.502 631.286 292.698 630.922C292.894 630.558 293.146 630.241 293.454 629.97C293.762 629.69 294.131 629.471 294.56 629.312C294.99 629.153 295.48 629.074 296.03 629.074C296.544 629.074 297.001 629.149 297.402 629.298C297.804 629.438 298.144 629.639 298.424 629.9C298.704 630.161 298.914 630.474 299.054 630.838C299.204 631.202 299.278 631.599 299.278 632.028C299.278 632.635 299.148 633.195 298.886 633.708C298.634 634.212 298.312 634.674 297.92 635.094C297.528 635.514 297.099 635.897 296.632 636.242C296.166 636.578 295.722 636.877 295.302 637.138L294.224 637.81H299.642V639H292.012V638.02L294.14 636.606C294.84 636.139 295.438 635.71 295.932 635.318C296.427 634.917 296.828 634.539 297.136 634.184C297.454 633.829 297.682 633.489 297.822 633.162C297.972 632.826 298.046 632.49 298.046 632.154C298.046 631.809 297.99 631.515 297.878 631.272C297.776 631.029 297.626 630.833 297.43 630.684C297.244 630.535 297.02 630.427 296.758 630.362C296.506 630.297 296.236 630.264 295.946 630.264C295.526 630.264 295.162 630.329 294.854 630.46C294.556 630.591 294.299 630.763 294.084 630.978C293.879 631.183 293.716 631.417 293.594 631.678C293.482 631.93 293.408 632.182 293.37 632.434L292.278 632.07ZM300.472 634.1C300.472 633.372 300.556 632.705 300.724 632.098C300.892 631.482 301.144 630.95 301.48 630.502C301.826 630.054 302.26 629.704 302.782 629.452C303.305 629.2 303.921 629.074 304.63 629.074C305.34 629.074 305.956 629.191 306.478 629.424C307.001 629.657 307.435 629.993 307.78 630.432C308.126 630.871 308.382 631.403 308.55 632.028C308.718 632.644 308.802 633.335 308.802 634.1C308.802 634.828 308.718 635.5 308.55 636.116C308.392 636.723 308.14 637.25 307.794 637.698C307.458 638.146 307.029 638.496 306.506 638.748C305.984 639 305.368 639.126 304.658 639.126C303.986 639.126 303.389 639 302.866 638.748C302.344 638.496 301.905 638.146 301.55 637.698C301.196 637.25 300.925 636.723 300.738 636.116C300.561 635.5 300.472 634.828 300.472 634.1ZM301.704 634.1C301.704 635.295 301.966 636.233 302.488 636.914C303.011 637.595 303.734 637.936 304.658 637.936C305.666 637.936 306.404 637.595 306.87 636.914C307.337 636.233 307.57 635.295 307.57 634.1C307.57 632.905 307.332 631.967 306.856 631.286C306.38 630.605 305.638 630.264 304.63 630.264C304.126 630.264 303.692 630.353 303.328 630.53C302.964 630.707 302.661 630.964 302.418 631.3C302.176 631.636 301.994 632.042 301.872 632.518C301.76 632.985 301.704 633.512 301.704 634.1ZM309.806 632.07C309.89 631.669 310.03 631.286 310.226 630.922C310.422 630.558 310.674 630.241 310.982 629.97C311.29 629.69 311.659 629.471 312.088 629.312C312.517 629.153 313.007 629.074 313.558 629.074C314.071 629.074 314.529 629.149 314.93 629.298C315.331 629.438 315.672 629.639 315.952 629.9C316.232 630.161 316.442 630.474 316.582 630.838C316.731 631.202 316.806 631.599 316.806 632.028C316.806 632.635 316.675 633.195 316.414 633.708C316.162 634.212 315.84 634.674 315.448 635.094C315.056 635.514 314.627 635.897 314.16 636.242C313.693 636.578 313.25 636.877 312.83 637.138L311.752 637.81H317.17V639H309.54V638.02L311.668 636.606C312.368 636.139 312.965 635.71 313.46 635.318C313.955 634.917 314.356 634.539 314.664 634.184C314.981 633.829 315.21 633.489 315.35 633.162C315.499 632.826 315.574 632.49 315.574 632.154C315.574 631.809 315.518 631.515 315.406 631.272C315.303 631.029 315.154 630.833 314.958 630.684C314.771 630.535 314.547 630.427 314.286 630.362C314.034 630.297 313.763 630.264 313.474 630.264C313.054 630.264 312.69 630.329 312.382 630.46C312.083 630.591 311.827 630.763 311.612 630.978C311.407 631.183 311.243 631.417 311.122 631.678C311.01 631.93 310.935 632.182 310.898 632.434L309.806 632.07ZM320.8 629.144H321.598V639H320.422V630.642L317.888 631.804L317.44 630.754L320.8 629.144Z" fill="#777F8C"/>
<rect x="271" y="389" width="72" height="228" fill="#5FAF2D"/>
<path d="M297.587 499.99C297.746 499.548 297.967 499.14 298.25 498.766C298.534 498.381 298.874 498.052 299.27 497.78C299.678 497.497 300.149 497.281 300.681 497.134C301.214 496.975 301.815 496.896 302.483 496.896C303.073 496.896 303.622 496.97 304.132 497.117C304.642 497.264 305.079 497.474 305.441 497.746C305.815 498.007 306.104 498.33 306.308 498.715C306.524 499.1 306.631 499.531 306.631 500.007C306.631 500.653 306.456 501.208 306.104 501.673C305.764 502.126 305.288 502.461 304.676 502.676C304.971 502.733 305.254 502.829 305.526 502.965C305.798 503.09 306.042 503.265 306.257 503.492C306.473 503.719 306.643 503.996 306.767 504.325C306.892 504.654 306.954 505.033 306.954 505.464C306.954 506.042 306.841 506.563 306.614 507.028C306.388 507.493 306.076 507.889 305.679 508.218C305.283 508.535 304.807 508.779 304.251 508.949C303.707 509.119 303.112 509.204 302.466 509.204C301.163 509.204 300.064 508.932 299.168 508.388C298.284 507.844 297.667 507.039 297.315 505.974L299.1 505.209C299.214 505.504 299.361 505.781 299.542 506.042C299.735 506.303 299.962 506.535 300.222 506.739C300.494 506.932 300.812 507.085 301.174 507.198C301.537 507.311 301.951 507.368 302.415 507.368C303.243 507.368 303.872 507.204 304.302 506.875C304.733 506.546 304.948 506.082 304.948 505.481C304.948 505.164 304.88 504.897 304.744 504.682C304.62 504.467 304.438 504.297 304.2 504.172C303.974 504.036 303.696 503.94 303.367 503.883C303.05 503.826 302.699 503.798 302.313 503.798H300.766V502.03H302.041C302.891 502.03 303.532 501.871 303.962 501.554C304.404 501.225 304.625 500.823 304.625 500.347C304.625 499.871 304.421 499.503 304.013 499.242C303.617 498.97 303.044 498.834 302.296 498.834C301.866 498.834 301.48 498.891 301.14 499.004C300.812 499.106 300.523 499.248 300.273 499.429C300.035 499.61 299.826 499.814 299.644 500.041C299.474 500.256 299.338 500.483 299.236 500.721L297.587 499.99ZM307.6 497.1H316.695V498.443L311.187 509H309.096L314.383 499.038H307.6V497.1Z" fill="white"/>
<rect x="379" width="72" height="123" fill="#BFCED4"/>
<path d="M404.761 58.585C404.874 58.041 405.067 57.5423 405.339 57.089C405.622 56.6357 405.968 56.2503 406.376 55.933C406.784 55.6043 407.249 55.3493 407.77 55.168C408.303 54.9867 408.881 54.896 409.504 54.896C410.161 54.896 410.751 54.9923 411.272 55.185C411.793 55.3663 412.23 55.6213 412.581 55.95C412.932 56.2787 413.199 56.681 413.38 57.157C413.573 57.6217 413.669 58.1317 413.669 58.687C413.669 59.6957 413.301 60.6477 412.564 61.543C411.839 62.427 410.7 63.362 409.147 64.348L408.025 65.062H413.992V67H404.625V65.419L406.784 63.991C407.725 63.3677 408.507 62.8237 409.13 62.359C409.765 61.883 410.269 61.4523 410.643 61.067C411.017 60.6817 411.278 60.3133 411.425 59.962C411.584 59.6107 411.663 59.2423 411.663 58.857C411.663 58.5057 411.601 58.1997 411.476 57.939C411.351 57.6783 411.181 57.4687 410.966 57.31C410.762 57.1513 410.518 57.0323 410.235 56.953C409.963 56.8737 409.674 56.834 409.368 56.834C408.926 56.834 408.541 56.902 408.212 57.038C407.883 57.174 407.6 57.3553 407.362 57.582C407.135 57.7973 406.948 58.0467 406.801 58.33C406.654 58.602 406.54 58.8853 406.461 59.18L404.761 58.585ZM414.962 61.05C414.962 60.1547 415.07 59.333 415.285 58.585C415.5 57.8257 415.818 57.174 416.237 56.63C416.668 56.086 417.206 55.661 417.852 55.355C418.498 55.049 419.252 54.896 420.113 54.896C420.974 54.896 421.728 55.0433 422.374 55.338C423.031 55.6327 423.575 56.0463 424.006 56.579C424.437 57.1117 424.76 57.7577 424.975 58.517C425.19 59.2763 425.298 60.1207 425.298 61.05C425.298 61.9453 425.19 62.7727 424.975 63.532C424.76 64.28 424.437 64.926 424.006 65.47C423.587 66.014 423.054 66.439 422.408 66.745C421.762 67.051 421.008 67.204 420.147 67.204C419.308 67.204 418.566 67.051 417.92 66.745C417.274 66.439 416.73 66.014 416.288 65.47C415.857 64.926 415.529 64.28 415.302 63.532C415.075 62.7727 414.962 61.9453 414.962 61.05ZM416.968 61.05C416.968 62.3873 417.24 63.4243 417.784 64.161C418.339 64.8977 419.127 65.266 420.147 65.266C421.258 65.266 422.057 64.8977 422.544 64.161C423.043 63.4243 423.292 62.3873 423.292 61.05C423.292 59.7127 423.043 58.6757 422.544 57.939C422.045 57.2023 421.235 56.834 420.113 56.834C419.036 56.834 418.243 57.208 417.733 57.956C417.223 58.6927 416.968 59.724 416.968 61.05Z" fill="#222429"/>
<path d="M398.504 632.07C398.588 631.669 398.728 631.286 398.924 630.922C399.12 630.558 399.372 630.241 399.68 629.97C399.988 629.69 400.356 629.471 400.786 629.312C401.215 629.153 401.705 629.074 402.256 629.074C402.769 629.074 403.226 629.149 403.628 629.298C404.029 629.438 404.37 629.639 404.65 629.9C404.93 630.161 405.14 630.474 405.28 630.838C405.429 631.202 405.504 631.599 405.504 632.028C405.504 632.635 405.373 633.195 405.112 633.708C404.86 634.212 404.538 634.674 404.146 635.094C403.754 635.514 403.324 635.897 402.858 636.242C402.391 636.578 401.948 636.877 401.528 637.138L400.45 637.81H405.868V639H398.238V638.02L400.366 636.606C401.066 636.139 401.663 635.71 402.158 635.318C402.652 634.917 403.054 634.539 403.362 634.184C403.679 633.829 403.908 633.489 404.048 633.162C404.197 632.826 404.272 632.49 404.272 632.154C404.272 631.809 404.216 631.515 404.104 631.272C404.001 631.029 403.852 630.833 403.656 630.684C403.469 630.535 403.245 630.427 402.984 630.362C402.732 630.297 402.461 630.264 402.172 630.264C401.752 630.264 401.388 630.329 401.08 630.46C400.781 630.591 400.524 630.763 400.31 630.978C400.104 631.183 399.941 631.417 399.82 631.678C399.708 631.93 399.633 632.182 399.596 632.434L398.504 632.07ZM406.698 634.1C406.698 633.372 406.782 632.705 406.95 632.098C407.118 631.482 407.37 630.95 407.706 630.502C408.051 630.054 408.485 629.704 409.008 629.452C409.531 629.2 410.147 629.074 410.856 629.074C411.565 629.074 412.181 629.191 412.704 629.424C413.227 629.657 413.661 629.993 414.006 630.432C414.351 630.871 414.608 631.403 414.776 632.028C414.944 632.644 415.028 633.335 415.028 634.1C415.028 634.828 414.944 635.5 414.776 636.116C414.617 636.723 414.365 637.25 414.02 637.698C413.684 638.146 413.255 638.496 412.732 638.748C412.209 639 411.593 639.126 410.884 639.126C410.212 639.126 409.615 639 409.092 638.748C408.569 638.496 408.131 638.146 407.776 637.698C407.421 637.25 407.151 636.723 406.964 636.116C406.787 635.5 406.698 634.828 406.698 634.1ZM407.93 634.1C407.93 635.295 408.191 636.233 408.714 636.914C409.237 637.595 409.96 637.936 410.884 637.936C411.892 637.936 412.629 637.595 413.096 636.914C413.563 636.233 413.796 635.295 413.796 634.1C413.796 632.905 413.558 631.967 413.082 631.286C412.606 630.605 411.864 630.264 410.856 630.264C410.352 630.264 409.918 630.353 409.554 630.53C409.19 630.707 408.887 630.964 408.644 631.3C408.401 631.636 408.219 632.042 408.098 632.518C407.986 632.985 407.93 633.512 407.93 634.1ZM416.032 632.07C416.116 631.669 416.256 631.286 416.452 630.922C416.648 630.558 416.9 630.241 417.208 629.97C417.516 629.69 417.884 629.471 418.314 629.312C418.743 629.153 419.233 629.074 419.784 629.074C420.297 629.074 420.754 629.149 421.156 629.298C421.557 629.438 421.898 629.639 422.178 629.9C422.458 630.161 422.668 630.474 422.808 630.838C422.957 631.202 423.032 631.599 423.032 632.028C423.032 632.635 422.901 633.195 422.64 633.708C422.388 634.212 422.066 634.674 421.674 635.094C421.282 635.514 420.852 635.897 420.386 636.242C419.919 636.578 419.476 636.877 419.056 637.138L417.978 637.81H423.396V639H415.766V638.02L417.894 636.606C418.594 636.139 419.191 635.71 419.686 635.318C420.18 634.917 420.582 634.539 420.89 634.184C421.207 633.829 421.436 633.489 421.576 633.162C421.725 632.826 421.8 632.49 421.8 632.154C421.8 631.809 421.744 631.515 421.632 631.272C421.529 631.029 421.38 630.833 421.184 630.684C420.997 630.535 420.773 630.427 420.512 630.362C420.26 630.297 419.989 630.264 419.7 630.264C419.28 630.264 418.916 630.329 418.608 630.46C418.309 630.591 418.052 630.763 417.838 630.978C417.632 631.183 417.469 631.417 417.348 631.678C417.236 631.93 417.161 632.182 417.124 632.434L416.032 632.07ZM424.324 632.07C424.408 631.669 424.548 631.286 424.744 630.922C424.94 630.558 425.192 630.241 425.5 629.97C425.808 629.69 426.177 629.471 426.606 629.312C427.035 629.153 427.525 629.074 428.076 629.074C428.589 629.074 429.047 629.149 429.448 629.298C429.849 629.438 430.19 629.639 430.47 629.9C430.75 630.161 430.96 630.474 431.1 630.838C431.249 631.202 431.324 631.599 431.324 632.028C431.324 632.635 431.193 633.195 430.932 633.708C430.68 634.212 430.358 634.674 429.966 635.094C429.574 635.514 429.145 635.897 428.678 636.242C428.211 636.578 427.768 636.877 427.348 637.138L426.27 637.81H431.688V639H424.058V638.02L426.186 636.606C426.886 636.139 427.483 635.71 427.978 635.318C428.473 634.917 428.874 634.539 429.182 634.184C429.499 633.829 429.728 633.489 429.868 633.162C430.017 632.826 430.092 632.49 430.092 632.154C430.092 631.809 430.036 631.515 429.924 631.272C429.821 631.029 429.672 630.833 429.476 630.684C429.289 630.535 429.065 630.427 428.804 630.362C428.552 630.297 428.281 630.264 427.992 630.264C427.572 630.264 427.208 630.329 426.9 630.46C426.601 630.591 426.345 630.763 426.13 630.978C425.925 631.183 425.761 631.417 425.64 631.678C425.528 631.93 425.453 632.182 425.416 632.434L424.324 632.07Z" fill="#222429"/>
<rect x="379" y="123" width="72" height="253" fill="#648494"/>
<path d="M413.199 252.79H406.212V251.447L413.471 243.083H415.103V250.971H417.143V252.79H415.103V255H413.199V252.79ZM413.199 250.971V246.126L408.796 250.971H413.199ZM421.182 243.066H422.559V255H420.655V245.446L418.02 246.636L417.272 244.987L421.182 243.066Z" fill="white"/>
<rect x="379" y="376" width="72" height="241" fill="#5FAF2D"/>
<path d="M404.641 492.99C404.8 492.548 405.021 492.14 405.304 491.766C405.587 491.381 405.927 491.052 406.324 490.78C406.732 490.497 407.202 490.281 407.735 490.134C408.268 489.975 408.868 489.896 409.537 489.896C410.126 489.896 410.676 489.97 411.186 490.117C411.696 490.264 412.132 490.474 412.495 490.746C412.869 491.007 413.158 491.33 413.362 491.715C413.577 492.1 413.685 492.531 413.685 493.007C413.685 493.653 413.509 494.208 413.158 494.673C412.818 495.126 412.342 495.461 411.73 495.676C412.025 495.733 412.308 495.829 412.58 495.965C412.852 496.09 413.096 496.265 413.311 496.492C413.526 496.719 413.696 496.996 413.821 497.325C413.946 497.654 414.008 498.033 414.008 498.464C414.008 499.042 413.895 499.563 413.668 500.028C413.441 500.493 413.13 500.889 412.733 501.218C412.336 501.535 411.86 501.779 411.305 501.949C410.761 502.119 410.166 502.204 409.52 502.204C408.217 502.204 407.117 501.932 406.222 501.388C405.338 500.844 404.72 500.039 404.369 498.974L406.154 498.209C406.267 498.504 406.415 498.781 406.596 499.042C406.789 499.303 407.015 499.535 407.276 499.739C407.548 499.932 407.865 500.085 408.228 500.198C408.591 500.311 409.004 500.368 409.469 500.368C410.296 500.368 410.925 500.204 411.356 499.875C411.787 499.546 412.002 499.082 412.002 498.481C412.002 498.164 411.934 497.897 411.798 497.682C411.673 497.467 411.492 497.297 411.254 497.172C411.027 497.036 410.75 496.94 410.421 496.883C410.104 496.826 409.752 496.798 409.367 496.798H407.82V495.03H409.095C409.945 495.03 410.585 494.871 411.016 494.554C411.458 494.225 411.679 493.823 411.679 493.347C411.679 492.871 411.475 492.503 411.067 492.242C410.67 491.97 410.098 491.834 409.35 491.834C408.919 491.834 408.534 491.891 408.194 492.004C407.865 492.106 407.576 492.248 407.327 492.429C407.089 492.61 406.879 492.814 406.698 493.041C406.528 493.256 406.392 493.483 406.29 493.721L404.641 492.99ZM419.754 502.204C419.289 502.204 418.836 502.153 418.394 502.051C417.963 501.96 417.555 501.83 417.17 501.66C416.784 501.479 416.433 501.263 416.116 501.014C415.798 500.765 415.532 500.487 415.317 500.181L416.626 498.923C416.977 499.342 417.436 499.671 418.003 499.909C418.581 500.147 419.21 500.266 419.89 500.266C420.388 500.266 420.842 500.181 421.25 500.011C421.669 499.83 422.026 499.58 422.321 499.263C422.615 498.946 422.842 498.566 423.001 498.124C423.171 497.682 423.256 497.195 423.256 496.662V496.39C422.984 496.945 422.542 497.41 421.93 497.784C421.318 498.147 420.536 498.328 419.584 498.328C418.904 498.328 418.28 498.237 417.714 498.056C417.158 497.863 416.677 497.591 416.269 497.24C415.872 496.889 415.56 496.464 415.334 495.965C415.107 495.466 414.994 494.905 414.994 494.282C414.994 493.625 415.113 493.03 415.351 492.497C415.589 491.953 415.929 491.488 416.371 491.103C416.813 490.718 417.345 490.423 417.969 490.219C418.592 490.004 419.283 489.896 420.043 489.896C420.825 489.896 421.533 490.026 422.168 490.287C422.814 490.548 423.358 490.933 423.8 491.443C424.253 491.953 424.604 492.582 424.854 493.33C425.103 494.078 425.228 494.934 425.228 495.897C425.228 496.917 425.097 497.824 424.837 498.617C424.576 499.399 424.208 500.056 423.732 500.589C423.256 501.122 422.678 501.524 421.998 501.796C421.329 502.068 420.581 502.204 419.754 502.204ZM419.907 496.526C420.779 496.526 421.476 496.316 421.998 495.897C422.519 495.478 422.78 494.917 422.78 494.214C422.78 493.489 422.53 492.911 422.032 492.48C421.533 492.049 420.859 491.834 420.009 491.834C419.068 491.834 418.331 492.044 417.799 492.463C417.266 492.882 417 493.46 417 494.197C417 494.922 417.255 495.495 417.765 495.914C418.286 496.322 419 496.526 419.907 496.526Z" fill="white"/>
<line x1="-4.37114e-08" y1="616.5" x2="536" y2="616.5" stroke="#B4BBC5"/>
</svg>
