<svg viewBox="0 0 535 213" fill="none" xmlns="http://www.w3.org/2000/svg">
<line x1="-3.16332e-08" y1="192.5" x2="535" y2="192.5" stroke="#CBCFD6"/>
<path d="M431.294 205.07C431.378 204.669 431.518 204.286 431.714 203.922C431.91 203.558 432.162 203.241 432.47 202.97C432.778 202.69 433.146 202.471 433.576 202.312C434.005 202.153 434.495 202.074 435.046 202.074C435.559 202.074 436.016 202.149 436.418 202.298C436.819 202.438 437.16 202.639 437.44 202.9C437.72 203.161 437.93 203.474 438.07 203.838C438.219 204.202 438.294 204.599 438.294 205.028C438.294 205.635 438.163 206.195 437.902 206.708C437.65 207.212 437.328 207.674 436.936 208.094C436.544 208.514 436.114 208.897 435.648 209.242C435.181 209.578 434.738 209.877 434.318 210.138L433.24 210.81H438.658V212H431.028V211.02L433.156 209.606C433.856 209.139 434.453 208.71 434.948 208.318C435.442 207.917 435.844 207.539 436.152 207.184C436.469 206.829 436.698 206.489 436.838 206.162C436.987 205.826 437.062 205.49 437.062 205.154C437.062 204.809 437.006 204.515 436.894 204.272C436.791 204.029 436.642 203.833 436.446 203.684C436.259 203.535 436.035 203.427 435.774 203.362C435.522 203.297 435.251 203.264 434.962 203.264C434.542 203.264 434.178 203.329 433.87 203.46C433.571 203.591 433.314 203.763 433.1 203.978C432.894 204.183 432.731 204.417 432.61 204.678C432.498 204.93 432.423 205.182 432.386 205.434L431.294 205.07ZM439.628 207.1C439.628 206.372 439.712 205.705 439.88 205.098C440.048 204.482 440.3 203.95 440.636 203.502C440.981 203.054 441.415 202.704 441.938 202.452C442.461 202.2 443.077 202.074 443.786 202.074C444.495 202.074 445.111 202.191 445.634 202.424C446.157 202.657 446.591 202.993 446.936 203.432C447.281 203.871 447.538 204.403 447.706 205.028C447.874 205.644 447.958 206.335 447.958 207.1C447.958 207.828 447.874 208.5 447.706 209.116C447.547 209.723 447.295 210.25 446.95 210.698C446.614 211.146 446.185 211.496 445.662 211.748C445.139 212 444.523 212.126 443.814 212.126C443.142 212.126 442.545 212 442.022 211.748C441.499 211.496 441.061 211.146 440.706 210.698C440.351 210.25 440.081 209.723 439.894 209.116C439.717 208.5 439.628 207.828 439.628 207.1ZM440.86 207.1C440.86 208.295 441.121 209.233 441.644 209.914C442.167 210.595 442.89 210.936 443.814 210.936C444.822 210.936 445.559 210.595 446.026 209.914C446.493 209.233 446.726 208.295 446.726 207.1C446.726 205.905 446.488 204.967 446.012 204.286C445.536 203.605 444.794 203.264 443.786 203.264C443.282 203.264 442.848 203.353 442.484 203.53C442.12 203.707 441.817 203.964 441.574 204.3C441.331 204.636 441.149 205.042 441.028 205.518C440.916 205.985 440.86 206.512 440.86 207.1ZM449.102 205.07C449.186 204.669 449.326 204.286 449.522 203.922C449.718 203.558 449.97 203.241 450.278 202.97C450.586 202.69 450.954 202.471 451.384 202.312C451.813 202.153 452.303 202.074 452.854 202.074C453.367 202.074 453.824 202.149 454.226 202.298C454.627 202.438 454.968 202.639 455.248 202.9C455.528 203.161 455.738 203.474 455.878 203.838C456.027 204.202 456.102 204.599 456.102 205.028C456.102 205.635 455.971 206.195 455.71 206.708C455.458 207.212 455.136 207.674 454.744 208.094C454.352 208.514 453.922 208.897 453.456 209.242C452.989 209.578 452.546 209.877 452.126 210.138L451.048 210.81H456.466V212H448.836V211.02L450.964 209.606C451.664 209.139 452.261 208.71 452.756 208.318C453.25 207.917 453.652 207.539 453.96 207.184C454.277 206.829 454.506 206.489 454.646 206.162C454.795 205.826 454.87 205.49 454.87 205.154C454.87 204.809 454.814 204.515 454.702 204.272C454.599 204.029 454.45 203.833 454.254 203.684C454.067 203.535 453.843 203.427 453.582 203.362C453.33 203.297 453.059 203.264 452.77 203.264C452.35 203.264 451.986 203.329 451.678 203.46C451.379 203.591 451.122 203.763 450.908 203.978C450.702 204.183 450.539 204.417 450.418 204.678C450.306 204.93 450.231 205.182 450.194 205.434L449.102 205.07ZM457.534 205.07C457.618 204.669 457.758 204.286 457.954 203.922C458.15 203.558 458.402 203.241 458.71 202.97C459.018 202.69 459.387 202.471 459.816 202.312C460.245 202.153 460.735 202.074 461.286 202.074C461.799 202.074 462.257 202.149 462.658 202.298C463.059 202.438 463.4 202.639 463.68 202.9C463.96 203.161 464.17 203.474 464.31 203.838C464.459 204.202 464.534 204.599 464.534 205.028C464.534 205.635 464.403 206.195 464.142 206.708C463.89 207.212 463.568 207.674 463.176 208.094C462.784 208.514 462.355 208.897 461.888 209.242C461.421 209.578 460.978 209.877 460.558 210.138L459.48 210.81H464.898V212H457.268V211.02L459.396 209.606C460.096 209.139 460.693 208.71 461.188 208.318C461.683 207.917 462.084 207.539 462.392 207.184C462.709 206.829 462.938 206.489 463.078 206.162C463.227 205.826 463.302 205.49 463.302 205.154C463.302 204.809 463.246 204.515 463.134 204.272C463.031 204.029 462.882 203.833 462.686 203.684C462.499 203.535 462.275 203.427 462.014 203.362C461.762 203.297 461.491 203.264 461.202 203.264C460.782 203.264 460.418 203.329 460.11 203.46C459.811 203.591 459.555 203.763 459.34 203.978C459.135 204.183 458.971 204.417 458.85 204.678C458.738 204.93 458.663 205.182 458.626 205.434L457.534 205.07Z" fill="#5FAF2D"/>
<rect x="423" y="22" width="50" height="170" fill="#5FAF2D"/>
<rect x="423" y="22" width="50" height="4" fill="#3D7917"/>
<path d="M431.265 13.153C430.234 13.153 429.35 12.9547 428.613 12.558C427.888 12.1613 427.344 11.657 426.981 11.045L428.205 10.195C428.557 10.6823 429.016 11.0563 429.582 11.317C430.16 11.5777 430.789 11.708 431.469 11.708C431.991 11.708 432.467 11.606 432.897 11.402C433.339 11.1867 433.719 10.892 434.036 10.518C434.365 10.144 434.62 9.702 434.801 9.192C434.983 8.682 435.073 8.12667 435.073 7.526C435.073 7.458 435.073 7.39 435.073 7.322C435.073 7.254 435.068 7.186 435.056 7.118C434.784 7.764 434.32 8.30233 433.662 8.733C433.016 9.15233 432.195 9.362 431.197 9.362C430.54 9.362 429.934 9.26567 429.378 9.073C428.823 8.869 428.341 8.59133 427.933 8.24C427.525 7.87733 427.208 7.44667 426.981 6.948C426.755 6.44933 426.641 5.894 426.641 5.282C426.641 4.62467 426.76 4.02967 426.998 3.497C427.248 2.953 427.593 2.494 428.035 2.12C428.477 1.746 429.004 1.457 429.616 1.253C430.24 1.049 430.925 0.946999 431.673 0.946999C432.433 0.946999 433.113 1.07733 433.713 1.338C434.325 1.58733 434.841 1.96133 435.26 2.46C435.691 2.95867 436.02 3.57633 436.246 4.313C436.473 5.03833 436.586 5.877 436.586 6.829C436.586 7.87167 436.456 8.78967 436.195 9.583C435.946 10.365 435.583 11.0223 435.107 11.555C434.643 12.0763 434.082 12.473 433.424 12.745C432.778 13.017 432.059 13.153 431.265 13.153ZM431.469 7.917C431.957 7.917 432.399 7.849 432.795 7.713C433.192 7.577 433.526 7.39 433.798 7.152C434.082 6.90267 434.297 6.61367 434.444 6.285C434.592 5.95633 434.665 5.605 434.665 5.231C434.665 4.86833 434.609 4.517 434.495 4.177C434.382 3.837 434.201 3.53667 433.951 3.276C433.702 3.004 433.373 2.78867 432.965 2.63C432.569 2.47133 432.081 2.392 431.503 2.392C430.449 2.392 429.622 2.63 429.021 3.106C428.432 3.57067 428.137 4.25633 428.137 5.163C428.137 6.02433 428.438 6.69867 429.038 7.186C429.639 7.67333 430.449 7.917 431.469 7.917ZM446.196 1.032H447.165V13H445.737V2.851L442.66 4.262L442.116 2.987L446.196 1.032ZM449.503 7.05C449.503 6.166 449.605 5.35567 449.809 4.619C450.013 3.871 450.319 3.225 450.727 2.681C451.146 2.137 451.673 1.712 452.308 1.406C452.943 1.1 453.691 0.946999 454.552 0.946999C455.413 0.946999 456.161 1.08867 456.796 1.372C457.431 1.65533 457.958 2.06333 458.377 2.596C458.796 3.12867 459.108 3.77467 459.312 4.534C459.516 5.282 459.618 6.12067 459.618 7.05C459.618 7.934 459.516 8.75 459.312 9.498C459.119 10.2347 458.813 10.875 458.394 11.419C457.986 11.963 457.465 12.388 456.83 12.694C456.195 13 455.447 13.153 454.586 13.153C453.77 13.153 453.045 13 452.41 12.694C451.775 12.388 451.243 11.963 450.812 11.419C450.381 10.875 450.053 10.2347 449.826 9.498C449.611 8.75 449.503 7.934 449.503 7.05ZM450.999 7.05C450.999 8.50067 451.316 9.63967 451.951 10.467C452.586 11.2943 453.464 11.708 454.586 11.708C455.81 11.708 456.705 11.2943 457.272 10.467C457.839 9.63967 458.122 8.50067 458.122 7.05C458.122 5.59933 457.833 4.46033 457.255 3.633C456.677 2.80567 455.776 2.392 454.552 2.392C453.94 2.392 453.413 2.49967 452.971 2.715C452.529 2.93033 452.161 3.242 451.866 3.65C451.571 4.058 451.35 4.551 451.203 5.129C451.067 5.69567 450.999 6.336 450.999 7.05ZM460.667 1.1H469.694V2.069L463.778 13H462.163L467.875 2.545H460.667V1.1Z" fill="#222429"/>
<path d="M162.435 205.07C162.519 204.669 162.659 204.286 162.855 203.922C163.051 203.558 163.303 203.241 163.611 202.97C163.919 202.69 164.288 202.471 164.717 202.312C165.147 202.153 165.637 202.074 166.187 202.074C166.701 202.074 167.158 202.149 167.559 202.298C167.961 202.438 168.301 202.639 168.581 202.9C168.861 203.161 169.071 203.474 169.211 203.838C169.361 204.202 169.435 204.599 169.435 205.028C169.435 205.635 169.305 206.195 169.043 206.708C168.791 207.212 168.469 207.674 168.077 208.094C167.685 208.514 167.256 208.897 166.789 209.242C166.323 209.578 165.879 209.877 165.459 210.138L164.381 210.81H169.799V212H162.169V211.02L164.297 209.606C164.997 209.139 165.595 208.71 166.089 208.318C166.584 207.917 166.985 207.539 167.293 207.184C167.611 206.829 167.839 206.489 167.979 206.162C168.129 205.826 168.203 205.49 168.203 205.154C168.203 204.809 168.147 204.515 168.035 204.272C167.933 204.029 167.783 203.833 167.587 203.684C167.401 203.535 167.177 203.427 166.915 203.362C166.663 203.297 166.393 203.264 166.103 203.264C165.683 203.264 165.319 203.329 165.011 203.46C164.713 203.591 164.456 203.763 164.241 203.978C164.036 204.183 163.873 204.417 163.751 204.678C163.639 204.93 163.565 205.182 163.527 205.434L162.435 205.07ZM170.77 207.1C170.77 206.372 170.854 205.705 171.022 205.098C171.19 204.482 171.442 203.95 171.778 203.502C172.123 203.054 172.557 202.704 173.08 202.452C173.602 202.2 174.218 202.074 174.928 202.074C175.637 202.074 176.253 202.191 176.776 202.424C177.298 202.657 177.732 202.993 178.078 203.432C178.423 203.871 178.68 204.403 178.848 205.028C179.016 205.644 179.1 206.335 179.1 207.1C179.1 207.828 179.016 208.5 178.848 209.116C178.689 209.723 178.437 210.25 178.092 210.698C177.756 211.146 177.326 211.496 176.804 211.748C176.281 212 175.665 212.126 174.956 212.126C174.284 212.126 173.686 212 173.164 211.748C172.641 211.496 172.202 211.146 171.848 210.698C171.493 210.25 171.222 209.723 171.036 209.116C170.858 208.5 170.77 207.828 170.77 207.1ZM172.002 207.1C172.002 208.295 172.263 209.233 172.786 209.914C173.308 210.595 174.032 210.936 174.956 210.936C175.964 210.936 176.701 210.595 177.168 209.914C177.634 209.233 177.868 208.295 177.868 207.1C177.868 205.905 177.63 204.967 177.154 204.286C176.678 203.605 175.936 203.264 174.928 203.264C174.424 203.264 173.99 203.353 173.626 203.53C173.262 203.707 172.958 203.964 172.716 204.3C172.473 204.636 172.291 205.042 172.17 205.518C172.058 205.985 172.002 206.512 172.002 207.1ZM182.945 202.144H183.743V212H182.567V203.642L180.033 204.804L179.585 203.754L182.945 202.144ZM189.295 212.126C188.445 212.126 187.717 211.963 187.111 211.636C186.513 211.309 186.065 210.894 185.767 210.39L186.775 209.69C187.064 210.091 187.442 210.399 187.909 210.614C188.385 210.829 188.903 210.936 189.463 210.936C189.892 210.936 190.284 210.852 190.639 210.684C191.003 210.507 191.315 210.264 191.577 209.956C191.847 209.648 192.057 209.284 192.207 208.864C192.356 208.444 192.431 207.987 192.431 207.492C192.431 207.436 192.431 207.38 192.431 207.324C192.431 207.268 192.426 207.212 192.417 207.156C192.193 207.688 191.81 208.131 191.269 208.486C190.737 208.831 190.06 209.004 189.239 209.004C188.697 209.004 188.198 208.925 187.741 208.766C187.283 208.598 186.887 208.369 186.551 208.08C186.215 207.781 185.953 207.427 185.767 207.016C185.58 206.605 185.487 206.148 185.487 205.644C185.487 205.103 185.585 204.613 185.781 204.174C185.986 203.726 186.271 203.348 186.635 203.04C186.999 202.732 187.433 202.494 187.937 202.326C188.45 202.158 189.015 202.074 189.631 202.074C190.256 202.074 190.816 202.181 191.311 202.396C191.815 202.601 192.239 202.909 192.585 203.32C192.939 203.731 193.21 204.239 193.397 204.846C193.583 205.443 193.677 206.134 193.677 206.918C193.677 207.777 193.569 208.533 193.355 209.186C193.149 209.83 192.851 210.371 192.459 210.81C192.076 211.239 191.614 211.566 191.073 211.79C190.541 212.014 189.948 212.126 189.295 212.126ZM189.463 207.814C189.864 207.814 190.228 207.758 190.555 207.646C190.881 207.534 191.157 207.38 191.381 207.184C191.614 206.979 191.791 206.741 191.913 206.47C192.034 206.199 192.095 205.91 192.095 205.602C192.095 205.303 192.048 205.014 191.955 204.734C191.861 204.454 191.712 204.207 191.507 203.992C191.301 203.768 191.031 203.591 190.695 203.46C190.368 203.329 189.967 203.264 189.491 203.264C188.623 203.264 187.941 203.46 187.447 203.852C186.961 204.235 186.719 204.799 186.719 205.546C186.719 206.255 186.966 206.811 187.461 207.212C187.955 207.613 188.623 207.814 189.463 207.814Z" fill="#777F8C"/>
<rect x="153" y="58" width="50" height="134" fill="#BFCED4"/>
<rect x="153" y="58" width="50" height="4" fill="#A6B2BC"/>
<path d="M154.982 37.1H164.009V38.069L158.093 49H156.478L162.19 38.545H154.982V37.1ZM169.968 40.585C170.07 40.0977 170.24 39.633 170.478 39.191C170.716 38.749 171.022 38.3637 171.396 38.035C171.77 37.695 172.218 37.4287 172.739 37.236C173.26 37.0433 173.855 36.947 174.524 36.947C175.147 36.947 175.703 37.0377 176.19 37.219C176.677 37.389 177.091 37.6327 177.431 37.95C177.771 38.2673 178.026 38.647 178.196 39.089C178.377 39.531 178.468 40.0127 178.468 40.534C178.468 41.2707 178.309 41.9507 177.992 42.574C177.686 43.186 177.295 43.747 176.819 44.257C176.343 44.767 175.822 45.2317 175.255 45.651C174.688 46.059 174.15 46.4217 173.64 46.739L172.331 47.555H178.91V49H169.645V47.81L172.229 46.093C173.079 45.5263 173.804 45.005 174.405 44.529C175.006 44.0417 175.493 43.5827 175.867 43.152C176.252 42.7213 176.53 42.3077 176.7 41.911C176.881 41.503 176.972 41.095 176.972 40.687C176.972 40.2677 176.904 39.9107 176.768 39.616C176.643 39.3213 176.462 39.0833 176.224 38.902C175.997 38.7207 175.725 38.5903 175.408 38.511C175.102 38.4317 174.773 38.392 174.422 38.392C173.912 38.392 173.47 38.4713 173.096 38.63C172.733 38.7887 172.422 38.9983 172.161 39.259C171.912 39.5083 171.713 39.7917 171.566 40.109C171.43 40.415 171.339 40.721 171.294 41.027L169.968 40.585ZM180.156 39.99C180.315 39.548 180.53 39.1457 180.802 38.783C181.074 38.409 181.403 38.086 181.788 37.814C182.185 37.542 182.638 37.3323 183.148 37.185C183.67 37.0263 184.253 36.947 184.899 36.947C185.477 36.947 186.01 37.0207 186.497 37.168C186.996 37.304 187.421 37.5023 187.772 37.763C188.135 38.0123 188.413 38.324 188.605 38.698C188.809 39.072 188.911 39.4857 188.911 39.939C188.911 40.6303 188.73 41.2197 188.367 41.707C188.016 42.1943 187.5 42.5343 186.82 42.727C187.115 42.7497 187.404 42.8233 187.687 42.948C187.971 43.0613 188.22 43.237 188.435 43.475C188.662 43.7017 188.843 43.9907 188.979 44.342C189.115 44.682 189.183 45.09 189.183 45.566C189.183 46.144 189.07 46.6597 188.843 47.113C188.628 47.555 188.322 47.929 187.925 48.235C187.54 48.5297 187.081 48.7563 186.548 48.915C186.016 49.0737 185.443 49.153 184.831 49.153C184.163 49.153 183.551 49.0737 182.995 48.915C182.451 48.7563 181.97 48.541 181.55 48.269C181.131 47.9857 180.774 47.6513 180.479 47.266C180.196 46.8693 179.981 46.433 179.833 45.957L181.21 45.362C181.358 45.668 181.533 45.9627 181.737 46.246C181.941 46.5293 182.191 46.7787 182.485 46.994C182.78 47.2093 183.126 47.385 183.522 47.521C183.919 47.6457 184.389 47.708 184.933 47.708C185.783 47.708 186.452 47.5267 186.939 47.164C187.438 46.79 187.687 46.263 187.687 45.583C187.687 45.209 187.608 44.8973 187.449 44.648C187.291 44.3873 187.07 44.1833 186.786 44.036C186.503 43.8773 186.169 43.7697 185.783 43.713C185.409 43.645 185.001 43.611 184.559 43.611H183.233V42.2H184.287C185.273 42.2 186.038 42.013 186.582 41.639C187.138 41.265 187.415 40.7947 187.415 40.228C187.415 39.616 187.183 39.157 186.718 38.851C186.254 38.545 185.625 38.392 184.831 38.392C184.344 38.392 183.913 38.4543 183.539 38.579C183.165 38.7037 182.837 38.868 182.553 39.072C182.281 39.276 182.049 39.5083 181.856 39.769C181.675 40.0297 181.533 40.296 181.431 40.568L180.156 39.99ZM195.324 49.153C194.292 49.153 193.408 48.9547 192.672 48.558C191.946 48.1613 191.402 47.657 191.04 47.045L192.264 46.195C192.615 46.6823 193.074 47.0563 193.641 47.317C194.219 47.5777 194.848 47.708 195.528 47.708C196.049 47.708 196.525 47.606 196.956 47.402C197.398 47.1867 197.777 46.892 198.095 46.518C198.423 46.144 198.678 45.702 198.86 45.192C199.041 44.682 199.132 44.1267 199.132 43.526C199.132 43.458 199.132 43.39 199.132 43.322C199.132 43.254 199.126 43.186 199.115 43.118C198.843 43.764 198.378 44.3023 197.721 44.733C197.075 45.1523 196.253 45.362 195.256 45.362C194.598 45.362 193.992 45.2657 193.437 45.073C192.881 44.869 192.4 44.5913 191.992 44.24C191.584 43.8773 191.266 43.4467 191.04 42.948C190.813 42.4493 190.7 41.894 190.7 41.282C190.7 40.6247 190.819 40.0297 191.057 39.497C191.306 38.953 191.652 38.494 192.094 38.12C192.536 37.746 193.063 37.457 193.675 37.253C194.298 37.049 194.984 36.947 195.732 36.947C196.491 36.947 197.171 37.0773 197.772 37.338C198.384 37.5873 198.899 37.9613 199.319 38.46C199.749 38.9587 200.078 39.5763 200.305 40.313C200.531 41.0383 200.645 41.877 200.645 42.829C200.645 43.8717 200.514 44.7897 200.254 45.583C200.004 46.365 199.642 47.0223 199.166 47.555C198.701 48.0763 198.14 48.473 197.483 48.745C196.837 49.017 196.117 49.153 195.324 49.153ZM195.528 43.917C196.015 43.917 196.457 43.849 196.854 43.713C197.25 43.577 197.585 43.39 197.857 43.152C198.14 42.9027 198.355 42.6137 198.503 42.285C198.65 41.9563 198.724 41.605 198.724 41.231C198.724 40.8683 198.667 40.517 198.554 40.177C198.44 39.837 198.259 39.5367 198.01 39.276C197.76 39.004 197.432 38.7887 197.024 38.63C196.627 38.4713 196.14 38.392 195.562 38.392C194.508 38.392 193.68 38.63 193.08 39.106C192.49 39.5707 192.196 40.2563 192.196 41.163C192.196 42.0243 192.496 42.6987 193.097 43.186C193.697 43.6733 194.508 43.917 195.528 43.917Z" fill="#222429"/>
<path d="M72.4354 205.07C72.5194 204.669 72.6594 204.286 72.8554 203.922C73.0514 203.558 73.3034 203.241 73.6114 202.97C73.9194 202.69 74.2881 202.471 74.7174 202.312C75.1467 202.153 75.6367 202.074 76.1874 202.074C76.7007 202.074 77.1581 202.149 77.5594 202.298C77.9607 202.438 78.3014 202.639 78.5814 202.9C78.8614 203.161 79.0714 203.474 79.2114 203.838C79.3607 204.202 79.4354 204.599 79.4354 205.028C79.4354 205.635 79.3047 206.195 79.0434 206.708C78.7914 207.212 78.4694 207.674 78.0774 208.094C77.6854 208.514 77.2561 208.897 76.7894 209.242C76.3227 209.578 75.8794 209.877 75.4594 210.138L74.3814 210.81H79.7994V212H72.1694V211.02L74.2974 209.606C74.9974 209.139 75.5947 208.71 76.0894 208.318C76.5841 207.917 76.9854 207.539 77.2934 207.184C77.6107 206.829 77.8394 206.489 77.9794 206.162C78.1287 205.826 78.2034 205.49 78.2034 205.154C78.2034 204.809 78.1474 204.515 78.0354 204.272C77.9327 204.029 77.7834 203.833 77.5874 203.684C77.4007 203.535 77.1767 203.427 76.9154 203.362C76.6634 203.297 76.3927 203.264 76.1034 203.264C75.6834 203.264 75.3194 203.329 75.0114 203.46C74.7127 203.591 74.4561 203.763 74.2414 203.978C74.0361 204.183 73.8727 204.417 73.7514 204.678C73.6394 204.93 73.5647 205.182 73.5274 205.434L72.4354 205.07ZM80.7697 207.1C80.7697 206.372 80.8537 205.705 81.0217 205.098C81.1897 204.482 81.4417 203.95 81.7777 203.502C82.123 203.054 82.557 202.704 83.0797 202.452C83.6023 202.2 84.2183 202.074 84.9277 202.074C85.637 202.074 86.253 202.191 86.7757 202.424C87.2983 202.657 87.7323 202.993 88.0777 203.432C88.423 203.871 88.6797 204.403 88.8477 205.028C89.0157 205.644 89.0997 206.335 89.0997 207.1C89.0997 207.828 89.0157 208.5 88.8477 209.116C88.689 209.723 88.437 210.25 88.0917 210.698C87.7557 211.146 87.3263 211.496 86.8037 211.748C86.281 212 85.665 212.126 84.9557 212.126C84.2837 212.126 83.6863 212 83.1637 211.748C82.641 211.496 82.2023 211.146 81.8477 210.698C81.493 210.25 81.2223 209.723 81.0357 209.116C80.8583 208.5 80.7697 207.828 80.7697 207.1ZM82.0017 207.1C82.0017 208.295 82.263 209.233 82.7857 209.914C83.3083 210.595 84.0317 210.936 84.9557 210.936C85.9637 210.936 86.701 210.595 87.1677 209.914C87.6343 209.233 87.8677 208.295 87.8677 207.1C87.8677 205.905 87.6297 204.967 87.1537 204.286C86.6777 203.605 85.9357 203.264 84.9277 203.264C84.4237 203.264 83.9897 203.353 83.6257 203.53C83.2617 203.707 82.9583 203.964 82.7157 204.3C82.473 204.636 82.291 205.042 82.1697 205.518C82.0577 205.985 82.0017 206.512 82.0017 207.1ZM92.9453 202.144H93.7433V212H92.5673V203.642L90.0333 204.804L89.5853 203.754L92.9453 202.144ZM99.8267 206.414C100.144 206.414 100.438 206.377 100.709 206.302C100.989 206.218 101.231 206.106 101.437 205.966C101.642 205.826 101.801 205.658 101.913 205.462C102.034 205.266 102.095 205.051 102.095 204.818C102.095 204.314 101.885 203.931 101.465 203.67C101.054 203.399 100.424 203.264 99.5747 203.264C98.7534 203.264 98.1327 203.399 97.7127 203.67C97.3021 203.941 97.0967 204.323 97.0967 204.818C97.0967 205.042 97.1527 205.252 97.2647 205.448C97.3767 205.644 97.5307 205.817 97.7267 205.966C97.9321 206.106 98.1747 206.218 98.4547 206.302C98.7441 206.377 99.0567 206.414 99.3927 206.414H99.8267ZM99.4487 207.52C99.0567 207.52 98.6927 207.567 98.3567 207.66C98.0301 207.744 97.7501 207.865 97.5167 208.024C97.2834 208.173 97.1014 208.355 96.9707 208.57C96.8401 208.775 96.7747 208.995 96.7747 209.228C96.7747 209.732 97.0081 210.143 97.4747 210.46C97.9507 210.777 98.6554 210.936 99.5887 210.936C100.55 210.936 101.259 210.787 101.717 210.488C102.174 210.18 102.403 209.765 102.403 209.242C102.403 208.691 102.165 208.267 101.689 207.968C101.222 207.669 100.592 207.52 99.7987 207.52H99.4487ZM99.6027 212.126C98.9774 212.126 98.4127 212.065 97.9087 211.944C97.4141 211.813 96.9894 211.631 96.6347 211.398C96.2894 211.155 96.0187 210.866 95.8227 210.53C95.6361 210.185 95.5427 209.793 95.5427 209.354C95.5427 208.775 95.7154 208.276 96.0607 207.856C96.4154 207.427 96.8867 207.119 97.4747 206.932C97.1947 206.839 96.9521 206.717 96.7467 206.568C96.5414 206.409 96.3734 206.232 96.2427 206.036C96.1121 205.84 96.0141 205.635 95.9487 205.42C95.8927 205.196 95.8647 204.967 95.8647 204.734C95.8647 203.922 96.1821 203.278 96.8167 202.802C97.4607 202.317 98.3847 202.074 99.5887 202.074C100.802 202.074 101.726 202.317 102.361 202.802C103.005 203.278 103.327 203.922 103.327 204.734C103.327 205.238 103.187 205.663 102.907 206.008C102.636 206.353 102.258 206.638 101.773 206.862C102.445 207.067 102.921 207.375 103.201 207.786C103.49 208.197 103.635 208.701 103.635 209.298C103.635 209.746 103.541 210.147 103.355 210.502C103.168 210.847 102.897 211.141 102.543 211.384C102.197 211.627 101.773 211.813 101.269 211.944C100.774 212.065 100.219 212.126 99.6027 212.126Z" fill="#777F8C"/>
<rect x="63" y="72" width="50" height="120" fill="#BFCED4"/>
<rect x="63" y="72" width="50" height="4" fill="#A6B2BC"/>
<path d="M68.8231 63.153C68.0298 63.153 67.3101 63.0283 66.6641 62.779C66.0295 62.5297 65.4855 62.1613 65.0321 61.674C64.5788 61.1753 64.2275 60.569 63.9781 59.855C63.7401 59.141 63.6211 58.3137 63.6211 57.373C63.6211 56.3077 63.7628 55.3727 64.0461 54.568C64.3295 53.7633 64.7091 53.0947 65.1851 52.562C65.6725 52.018 66.2335 51.6157 66.8681 51.355C67.5141 51.083 68.1941 50.947 68.9081 50.947C69.9395 50.947 70.8178 51.1567 71.5431 51.576C72.2685 51.9953 72.7955 52.562 73.1241 53.276L71.9681 54.058C71.6395 53.548 71.2145 53.1457 70.6931 52.851C70.1831 52.545 69.5655 52.392 68.8401 52.392C68.2735 52.392 67.7635 52.5053 67.3101 52.732C66.8568 52.9473 66.4658 53.2647 66.1371 53.684C65.8085 54.092 65.5535 54.5907 65.3721 55.18C65.1908 55.758 65.0945 56.4097 65.0831 57.135V57.322C65.2418 56.948 65.4571 56.6193 65.7291 56.336C66.0125 56.0527 66.3298 55.8147 66.6811 55.622C67.0325 55.4293 67.4065 55.2877 67.8031 55.197C68.2111 55.095 68.6248 55.044 69.0441 55.044C69.7355 55.044 70.3588 55.1403 70.9141 55.333C71.4695 55.5257 71.9398 55.7977 72.3251 56.149C72.7218 56.5003 73.0221 56.9197 73.2261 57.407C73.4301 57.8943 73.5321 58.4327 73.5321 59.022C73.5321 59.634 73.4075 60.195 73.1581 60.705C72.9201 61.215 72.5858 61.6513 72.1551 62.014C71.7358 62.3767 71.2371 62.66 70.6591 62.864C70.0925 63.0567 69.4805 63.153 68.8231 63.153ZM68.8061 61.708C69.2821 61.708 69.7128 61.6457 70.0981 61.521C70.4948 61.3963 70.8348 61.2207 71.1181 60.994C71.4128 60.756 71.6395 60.4783 71.7981 60.161C71.9568 59.8437 72.0361 59.4867 72.0361 59.09C72.0361 58.6593 71.9568 58.2853 71.7981 57.968C71.6508 57.6393 71.4411 57.3673 71.1691 57.152C70.8971 56.9253 70.5685 56.761 70.1831 56.659C69.8091 56.5457 69.4011 56.489 68.9591 56.489C67.8711 56.489 67.0438 56.7213 66.4771 57.186C65.9218 57.6507 65.6441 58.2457 65.6441 58.971C65.6441 59.345 65.7178 59.6963 65.8651 60.025C66.0125 60.3537 66.2221 60.6427 66.4941 60.892C66.7661 61.1413 67.0948 61.3397 67.4801 61.487C67.8768 61.6343 68.3188 61.708 68.8061 61.708ZM86.4744 60.62H79.1474V59.532L86.6444 51.1H87.9024V59.175H90.1124V60.62H87.9024V63H86.4744V60.62ZM86.4744 59.175V53.48L81.1874 59.175H86.4744ZM96.3153 63.153C95.522 63.153 94.8023 63.0283 94.1563 62.779C93.5217 62.5297 92.9777 62.1613 92.5243 61.674C92.071 61.1753 91.7197 60.569 91.4703 59.855C91.2323 59.141 91.1133 58.3137 91.1133 57.373C91.1133 56.3077 91.255 55.3727 91.5383 54.568C91.8217 53.7633 92.2013 53.0947 92.6773 52.562C93.1647 52.018 93.7257 51.6157 94.3603 51.355C95.0063 51.083 95.6863 50.947 96.4003 50.947C97.4317 50.947 98.31 51.1567 99.0353 51.576C99.7607 51.9953 100.288 52.562 100.616 53.276L99.4603 54.058C99.1317 53.548 98.7067 53.1457 98.1853 52.851C97.6753 52.545 97.0577 52.392 96.3323 52.392C95.7657 52.392 95.2557 52.5053 94.8023 52.732C94.349 52.9473 93.958 53.2647 93.6293 53.684C93.3007 54.092 93.0457 54.5907 92.8643 55.18C92.683 55.758 92.5867 56.4097 92.5753 57.135V57.322C92.734 56.948 92.9493 56.6193 93.2213 56.336C93.5047 56.0527 93.822 55.8147 94.1733 55.622C94.5247 55.4293 94.8987 55.2877 95.2953 55.197C95.7033 55.095 96.117 55.044 96.5363 55.044C97.2277 55.044 97.851 55.1403 98.4063 55.333C98.9617 55.5257 99.432 55.7977 99.8173 56.149C100.214 56.5003 100.514 56.9197 100.718 57.407C100.922 57.8943 101.024 58.4327 101.024 59.022C101.024 59.634 100.9 60.195 100.65 60.705C100.412 61.215 100.078 61.6513 99.6473 62.014C99.228 62.3767 98.7293 62.66 98.1513 62.864C97.5847 63.0567 96.9727 63.153 96.3153 63.153ZM96.2983 61.708C96.7743 61.708 97.205 61.6457 97.5903 61.521C97.987 61.3963 98.327 61.2207 98.6103 60.994C98.905 60.756 99.1317 60.4783 99.2903 60.161C99.449 59.8437 99.5283 59.4867 99.5283 59.09C99.5283 58.6593 99.449 58.2853 99.2903 57.968C99.143 57.6393 98.9333 57.3673 98.6613 57.152C98.3893 56.9253 98.0607 56.761 97.6753 56.659C97.3013 56.5457 96.8933 56.489 96.4513 56.489C95.3633 56.489 94.536 56.7213 93.9693 57.186C93.414 57.6507 93.1363 58.2457 93.1363 58.971C93.1363 59.345 93.21 59.6963 93.3573 60.025C93.5047 60.3537 93.7143 60.6427 93.9863 60.892C94.2583 61.1413 94.587 61.3397 94.9723 61.487C95.369 61.6343 95.811 61.708 96.2983 61.708ZM109.202 60.62H101.875V59.532L109.372 51.1H110.63V59.175H112.84V60.62H110.63V63H109.202V60.62ZM109.202 59.175V53.48L103.915 59.175H109.202Z" fill="#222429"/>
<path d="M250.822 205.07C250.906 204.669 251.046 204.286 251.242 203.922C251.438 203.558 251.69 203.241 251.998 202.97C252.306 202.69 252.675 202.471 253.104 202.312C253.533 202.153 254.023 202.074 254.574 202.074C255.087 202.074 255.545 202.149 255.946 202.298C256.347 202.438 256.688 202.639 256.968 202.9C257.248 203.161 257.458 203.474 257.598 203.838C257.747 204.202 257.822 204.599 257.822 205.028C257.822 205.635 257.691 206.195 257.43 206.708C257.178 207.212 256.856 207.674 256.464 208.094C256.072 208.514 255.643 208.897 255.176 209.242C254.709 209.578 254.266 209.877 253.846 210.138L252.768 210.81H258.186V212H250.556V211.02L252.684 209.606C253.384 209.139 253.981 208.71 254.476 208.318C254.971 207.917 255.372 207.539 255.68 207.184C255.997 206.829 256.226 206.489 256.366 206.162C256.515 205.826 256.59 205.49 256.59 205.154C256.59 204.809 256.534 204.515 256.422 204.272C256.319 204.029 256.17 203.833 255.974 203.684C255.787 203.535 255.563 203.427 255.302 203.362C255.05 203.297 254.779 203.264 254.49 203.264C254.07 203.264 253.706 203.329 253.398 203.46C253.099 203.591 252.843 203.763 252.628 203.978C252.423 204.183 252.259 204.417 252.138 204.678C252.026 204.93 251.951 205.182 251.914 205.434L250.822 205.07ZM259.156 207.1C259.156 206.372 259.24 205.705 259.408 205.098C259.576 204.482 259.828 203.95 260.164 203.502C260.51 203.054 260.944 202.704 261.466 202.452C261.989 202.2 262.605 202.074 263.314 202.074C264.024 202.074 264.64 202.191 265.162 202.424C265.685 202.657 266.119 202.993 266.464 203.432C266.81 203.871 267.066 204.403 267.234 205.028C267.402 205.644 267.486 206.335 267.486 207.1C267.486 207.828 267.402 208.5 267.234 209.116C267.076 209.723 266.824 210.25 266.478 210.698C266.142 211.146 265.713 211.496 265.19 211.748C264.668 212 264.052 212.126 263.342 212.126C262.67 212.126 262.073 212 261.55 211.748C261.028 211.496 260.589 211.146 260.234 210.698C259.88 210.25 259.609 209.723 259.422 209.116C259.245 208.5 259.156 207.828 259.156 207.1ZM260.388 207.1C260.388 208.295 260.65 209.233 261.172 209.914C261.695 210.595 262.418 210.936 263.342 210.936C264.35 210.936 265.088 210.595 265.554 209.914C266.021 209.233 266.254 208.295 266.254 207.1C266.254 205.905 266.016 204.967 265.54 204.286C265.064 203.605 264.322 203.264 263.314 203.264C262.81 203.264 262.376 203.353 262.012 203.53C261.648 203.707 261.345 203.964 261.102 204.3C260.86 204.636 260.678 205.042 260.556 205.518C260.444 205.985 260.388 206.512 260.388 207.1ZM268.63 205.07C268.714 204.669 268.854 204.286 269.05 203.922C269.246 203.558 269.498 203.241 269.806 202.97C270.114 202.69 270.483 202.471 270.912 202.312C271.341 202.153 271.831 202.074 272.382 202.074C272.895 202.074 273.353 202.149 273.754 202.298C274.155 202.438 274.496 202.639 274.776 202.9C275.056 203.161 275.266 203.474 275.406 203.838C275.555 204.202 275.63 204.599 275.63 205.028C275.63 205.635 275.499 206.195 275.238 206.708C274.986 207.212 274.664 207.674 274.272 208.094C273.88 208.514 273.451 208.897 272.984 209.242C272.517 209.578 272.074 209.877 271.654 210.138L270.576 210.81H275.994V212H268.364V211.02L270.492 209.606C271.192 209.139 271.789 208.71 272.284 208.318C272.779 207.917 273.18 207.539 273.488 207.184C273.805 206.829 274.034 206.489 274.174 206.162C274.323 205.826 274.398 205.49 274.398 205.154C274.398 204.809 274.342 204.515 274.23 204.272C274.127 204.029 273.978 203.833 273.782 203.684C273.595 203.535 273.371 203.427 273.11 203.362C272.858 203.297 272.587 203.264 272.298 203.264C271.878 203.264 271.514 203.329 271.206 203.46C270.907 203.591 270.651 203.763 270.436 203.978C270.231 204.183 270.067 204.417 269.946 204.678C269.834 204.93 269.759 205.182 269.722 205.434L268.63 205.07ZM276.964 207.1C276.964 206.372 277.048 205.705 277.216 205.098C277.384 204.482 277.636 203.95 277.972 203.502C278.318 203.054 278.752 202.704 279.274 202.452C279.797 202.2 280.413 202.074 281.122 202.074C281.832 202.074 282.448 202.191 282.97 202.424C283.493 202.657 283.927 202.993 284.272 203.432C284.618 203.871 284.874 204.403 285.042 205.028C285.21 205.644 285.294 206.335 285.294 207.1C285.294 207.828 285.21 208.5 285.042 209.116C284.884 209.723 284.632 210.25 284.286 210.698C283.95 211.146 283.521 211.496 282.998 211.748C282.476 212 281.86 212.126 281.15 212.126C280.478 212.126 279.881 212 279.358 211.748C278.836 211.496 278.397 211.146 278.042 210.698C277.688 210.25 277.417 209.723 277.23 209.116C277.053 208.5 276.964 207.828 276.964 207.1ZM278.196 207.1C278.196 208.295 278.458 209.233 278.98 209.914C279.503 210.595 280.226 210.936 281.15 210.936C282.158 210.936 282.896 210.595 283.362 209.914C283.829 209.233 284.062 208.295 284.062 207.1C284.062 205.905 283.824 204.967 283.348 204.286C282.872 203.605 282.13 203.264 281.122 203.264C280.618 203.264 280.184 203.353 279.82 203.53C279.456 203.707 279.153 203.964 278.91 204.3C278.668 204.636 278.486 205.042 278.364 205.518C278.252 205.985 278.196 206.512 278.196 207.1Z" fill="#777F8C"/>
<rect x="243" y="47" width="50" height="145" fill="#BFCED4"/>
<rect x="243" y="47" width="50" height="4" fill="#A6B2BC"/>
<path d="M243.944 26.1H252.971V27.069L247.055 38H245.44L251.152 27.545H243.944V26.1ZM264.031 31.217C264.416 31.217 264.773 31.1717 265.102 31.081C265.442 30.979 265.736 30.843 265.986 30.673C266.235 30.503 266.428 30.299 266.564 30.061C266.711 29.823 266.785 29.5623 266.785 29.279C266.785 28.667 266.53 28.2023 266.02 27.885C265.521 27.5563 264.756 27.392 263.725 27.392C262.727 27.392 261.974 27.5563 261.464 27.885C260.965 28.2137 260.716 28.6783 260.716 29.279C260.716 29.551 260.784 29.806 260.92 30.044C261.056 30.282 261.243 30.4917 261.481 30.673C261.73 30.843 262.025 30.979 262.365 31.081C262.716 31.1717 263.096 31.217 263.504 31.217H264.031ZM263.572 32.56C263.096 32.56 262.654 32.6167 262.246 32.73C261.849 32.832 261.509 32.9793 261.226 33.172C260.942 33.3533 260.721 33.5743 260.563 33.835C260.404 34.0843 260.325 34.3507 260.325 34.634C260.325 35.246 260.608 35.7447 261.175 36.13C261.753 36.5153 262.608 36.708 263.742 36.708C264.909 36.708 265.77 36.5267 266.326 36.164C266.881 35.79 267.159 35.2857 267.159 34.651C267.159 33.9823 266.87 33.4667 266.292 33.104C265.725 32.7413 264.96 32.56 263.997 32.56H263.572ZM263.759 38.153C262.999 38.153 262.314 38.0793 261.702 37.932C261.101 37.7733 260.585 37.5523 260.155 37.269C259.735 36.9743 259.407 36.623 259.169 36.215C258.942 35.7957 258.829 35.3197 258.829 34.787C258.829 34.0843 259.038 33.478 259.458 32.968C259.888 32.4467 260.461 32.0727 261.175 31.846C260.835 31.7327 260.54 31.5853 260.291 31.404C260.041 31.2113 259.837 30.996 259.679 30.758C259.52 30.52 259.401 30.2707 259.322 30.01C259.254 29.738 259.22 29.4603 259.22 29.177C259.22 28.191 259.605 27.409 260.376 26.831C261.158 26.2417 262.28 25.947 263.742 25.947C265.215 25.947 266.337 26.2417 267.108 26.831C267.89 27.409 268.281 28.191 268.281 29.177C268.281 29.789 268.111 30.3047 267.771 30.724C267.442 31.1433 266.983 31.489 266.394 31.761C267.21 32.0103 267.788 32.3843 268.128 32.883C268.479 33.3817 268.655 33.9937 268.655 34.719C268.655 35.263 268.541 35.7503 268.315 36.181C268.088 36.6003 267.759 36.9573 267.329 37.252C266.909 37.5467 266.394 37.7733 265.782 37.932C265.181 38.0793 264.507 38.153 263.759 38.153ZM276.933 35.62H269.606V34.532L277.103 26.1H278.361V34.175H280.571V35.62H278.361V38H276.933V35.62ZM276.933 34.175V28.48L271.646 34.175H276.933ZM281.572 32.05C281.572 31.166 281.674 30.3557 281.878 29.619C282.082 28.871 282.388 28.225 282.796 27.681C283.216 27.137 283.743 26.712 284.377 26.406C285.012 26.1 285.76 25.947 286.621 25.947C287.483 25.947 288.231 26.0887 288.865 26.372C289.5 26.6553 290.027 27.0633 290.446 27.596C290.866 28.1287 291.177 28.7747 291.381 29.534C291.585 30.282 291.687 31.1207 291.687 32.05C291.687 32.934 291.585 33.75 291.381 34.498C291.189 35.2347 290.883 35.875 290.463 36.419C290.055 36.963 289.534 37.388 288.899 37.694C288.265 38 287.517 38.153 286.655 38.153C285.839 38.153 285.114 38 284.479 37.694C283.845 37.388 283.312 36.963 282.881 36.419C282.451 35.875 282.122 35.2347 281.895 34.498C281.68 33.75 281.572 32.934 281.572 32.05ZM283.068 32.05C283.068 33.5007 283.386 34.6397 284.02 35.467C284.655 36.2943 285.533 36.708 286.655 36.708C287.879 36.708 288.775 36.2943 289.341 35.467C289.908 34.6397 290.191 33.5007 290.191 32.05C290.191 30.5993 289.902 29.4603 289.324 28.633C288.746 27.8057 287.845 27.392 286.621 27.392C286.009 27.392 285.482 27.4997 285.04 27.715C284.598 27.9303 284.23 28.242 283.935 28.65C283.641 29.058 283.42 29.551 283.272 30.129C283.136 30.6957 283.068 31.336 283.068 32.05Z" fill="#222429"/>
<path d="M342.818 205.07C342.902 204.669 343.042 204.286 343.238 203.922C343.434 203.558 343.686 203.241 343.994 202.97C344.302 202.69 344.671 202.471 345.1 202.312C345.53 202.153 346.02 202.074 346.57 202.074C347.084 202.074 347.541 202.149 347.942 202.298C348.344 202.438 348.684 202.639 348.964 202.9C349.244 203.161 349.454 203.474 349.594 203.838C349.744 204.202 349.818 204.599 349.818 205.028C349.818 205.635 349.688 206.195 349.426 206.708C349.174 207.212 348.852 207.674 348.46 208.094C348.068 208.514 347.639 208.897 347.172 209.242C346.706 209.578 346.262 209.877 345.842 210.138L344.764 210.81H350.182V212H342.552V211.02L344.68 209.606C345.38 209.139 345.978 208.71 346.472 208.318C346.967 207.917 347.368 207.539 347.676 207.184C347.994 206.829 348.222 206.489 348.362 206.162C348.512 205.826 348.586 205.49 348.586 205.154C348.586 204.809 348.53 204.515 348.418 204.272C348.316 204.029 348.166 203.833 347.97 203.684C347.784 203.535 347.56 203.427 347.298 203.362C347.046 203.297 346.776 203.264 346.486 203.264C346.066 203.264 345.702 203.329 345.394 203.46C345.096 203.591 344.839 203.763 344.624 203.978C344.419 204.183 344.256 204.417 344.134 204.678C344.022 204.93 343.948 205.182 343.91 205.434L342.818 205.07ZM351.152 207.1C351.152 206.372 351.236 205.705 351.404 205.098C351.572 204.482 351.824 203.95 352.16 203.502C352.506 203.054 352.94 202.704 353.462 202.452C353.985 202.2 354.601 202.074 355.31 202.074C356.02 202.074 356.636 202.191 357.158 202.424C357.681 202.657 358.115 202.993 358.46 203.432C358.806 203.871 359.062 204.403 359.23 205.028C359.398 205.644 359.482 206.335 359.482 207.1C359.482 207.828 359.398 208.5 359.23 209.116C359.072 209.723 358.82 210.25 358.474 210.698C358.138 211.146 357.709 211.496 357.186 211.748C356.664 212 356.048 212.126 355.338 212.126C354.666 212.126 354.069 212 353.546 211.748C353.024 211.496 352.585 211.146 352.23 210.698C351.876 210.25 351.605 209.723 351.418 209.116C351.241 208.5 351.152 207.828 351.152 207.1ZM352.384 207.1C352.384 208.295 352.646 209.233 353.168 209.914C353.691 210.595 354.414 210.936 355.338 210.936C356.346 210.936 357.084 210.595 357.55 209.914C358.017 209.233 358.25 208.295 358.25 207.1C358.25 205.905 358.012 204.967 357.536 204.286C357.06 203.605 356.318 203.264 355.31 203.264C354.806 203.264 354.372 203.353 354.008 203.53C353.644 203.707 353.341 203.964 353.098 204.3C352.856 204.636 352.674 205.042 352.552 205.518C352.44 205.985 352.384 206.512 352.384 207.1ZM360.626 205.07C360.71 204.669 360.85 204.286 361.046 203.922C361.242 203.558 361.494 203.241 361.802 202.97C362.11 202.69 362.479 202.471 362.908 202.312C363.337 202.153 363.827 202.074 364.378 202.074C364.891 202.074 365.349 202.149 365.75 202.298C366.151 202.438 366.492 202.639 366.772 202.9C367.052 203.161 367.262 203.474 367.402 203.838C367.551 204.202 367.626 204.599 367.626 205.028C367.626 205.635 367.495 206.195 367.234 206.708C366.982 207.212 366.66 207.674 366.268 208.094C365.876 208.514 365.447 208.897 364.98 209.242C364.513 209.578 364.07 209.877 363.65 210.138L362.572 210.81H367.99V212H360.36V211.02L362.488 209.606C363.188 209.139 363.785 208.71 364.28 208.318C364.775 207.917 365.176 207.539 365.484 207.184C365.801 206.829 366.03 206.489 366.17 206.162C366.319 205.826 366.394 205.49 366.394 205.154C366.394 204.809 366.338 204.515 366.226 204.272C366.123 204.029 365.974 203.833 365.778 203.684C365.591 203.535 365.367 203.427 365.106 203.362C364.854 203.297 364.583 203.264 364.294 203.264C363.874 203.264 363.51 203.329 363.202 203.46C362.903 203.591 362.647 203.763 362.432 203.978C362.227 204.183 362.063 204.417 361.942 204.678C361.83 204.93 361.755 205.182 361.718 205.434L360.626 205.07ZM371.76 202.144H372.558V212H371.382V203.642L368.848 204.804L368.4 203.754L371.76 202.144Z" fill="#777F8C"/>
<rect x="333" y="35" width="50" height="157" fill="#BFCED4"/>
<rect x="333" y="35" width="50" height="4" fill="#A6B2BC"/>
<path d="M341.056 19.217C341.442 19.217 341.799 19.1717 342.127 19.081C342.467 18.979 342.762 18.843 343.011 18.673C343.261 18.503 343.453 18.299 343.589 18.061C343.737 17.823 343.81 17.5623 343.81 17.279C343.81 16.667 343.555 16.2023 343.045 15.885C342.547 15.5563 341.782 15.392 340.75 15.392C339.753 15.392 338.999 15.5563 338.489 15.885C337.991 16.2137 337.741 16.6783 337.741 17.279C337.741 17.551 337.809 17.806 337.945 18.044C338.081 18.282 338.268 18.4917 338.506 18.673C338.756 18.843 339.05 18.979 339.39 19.081C339.742 19.1717 340.121 19.217 340.529 19.217H341.056ZM340.597 20.56C340.121 20.56 339.679 20.6167 339.271 20.73C338.875 20.832 338.535 20.9793 338.251 21.172C337.968 21.3533 337.747 21.5743 337.588 21.835C337.43 22.0843 337.35 22.3507 337.35 22.634C337.35 23.246 337.634 23.7447 338.2 24.13C338.778 24.5153 339.634 24.708 340.767 24.708C341.935 24.708 342.796 24.5267 343.351 24.164C343.907 23.79 344.184 23.2857 344.184 22.651C344.184 21.9823 343.895 21.4667 343.317 21.104C342.751 20.7413 341.986 20.56 341.022 20.56H340.597ZM340.784 26.153C340.025 26.153 339.339 26.0793 338.727 25.932C338.127 25.7733 337.611 25.5523 337.18 25.269C336.761 24.9743 336.432 24.623 336.194 24.215C335.968 23.7957 335.854 23.3197 335.854 22.787C335.854 22.0843 336.064 21.478 336.483 20.968C336.914 20.4467 337.486 20.0727 338.2 19.846C337.86 19.7327 337.566 19.5853 337.316 19.404C337.067 19.2113 336.863 18.996 336.704 18.758C336.546 18.52 336.427 18.2707 336.347 18.01C336.279 17.738 336.245 17.4603 336.245 17.177C336.245 16.191 336.631 15.409 337.401 14.831C338.183 14.2417 339.305 13.947 340.767 13.947C342.241 13.947 343.363 14.2417 344.133 14.831C344.915 15.409 345.306 16.191 345.306 17.177C345.306 17.789 345.136 18.3047 344.796 18.724C344.468 19.1433 344.009 19.489 343.419 19.761C344.235 20.0103 344.813 20.3843 345.153 20.883C345.505 21.3817 345.68 21.9937 345.68 22.719C345.68 23.263 345.567 23.7503 345.34 24.181C345.114 24.6003 344.785 24.9573 344.354 25.252C343.935 25.5467 343.419 25.7733 342.807 25.932C342.207 26.0793 341.532 26.153 340.784 26.153ZM358.724 23.62H351.397V22.532L358.894 14.1H360.152V22.175H362.362V23.62H360.152V26H358.724V23.62ZM358.724 22.175V16.48L353.437 22.175H358.724ZM366.763 14.032H367.732V26H366.304V15.851L363.227 17.262L362.683 15.987L366.763 14.032ZM370.07 20.05C370.07 19.166 370.172 18.3557 370.376 17.619C370.58 16.871 370.886 16.225 371.294 15.681C371.713 15.137 372.24 14.712 372.875 14.406C373.51 14.1 374.258 13.947 375.119 13.947C375.98 13.947 376.728 14.0887 377.363 14.372C377.998 14.6553 378.525 15.0633 378.944 15.596C379.363 16.1287 379.675 16.7747 379.879 17.534C380.083 18.282 380.185 19.1207 380.185 20.05C380.185 20.934 380.083 21.75 379.879 22.498C379.686 23.2347 379.38 23.875 378.961 24.419C378.553 24.963 378.032 25.388 377.397 25.694C376.762 26 376.014 26.153 375.153 26.153C374.337 26.153 373.612 26 372.977 25.694C372.342 25.388 371.81 24.963 371.379 24.419C370.948 23.875 370.62 23.2347 370.393 22.498C370.178 21.75 370.07 20.934 370.07 20.05ZM371.566 20.05C371.566 21.5007 371.883 22.6397 372.518 23.467C373.153 24.2943 374.031 24.708 375.153 24.708C376.377 24.708 377.272 24.2943 377.839 23.467C378.406 22.6397 378.689 21.5007 378.689 20.05C378.689 18.5993 378.4 17.4603 377.822 16.633C377.244 15.8057 376.343 15.392 375.119 15.392C374.507 15.392 373.98 15.4997 373.538 15.715C373.096 15.9303 372.728 16.242 372.433 16.65C372.138 17.058 371.917 17.551 371.77 18.129C371.634 18.6957 371.566 19.336 371.566 20.05Z" fill="#222429"/>
</svg>
