<svg viewBox="0 0 535 213" fill="none" xmlns="http://www.w3.org/2000/svg">
<line x1="-3.16332e-08" y1="192.5" x2="535" y2="192.5" stroke="#CBCFD6"/>
<path d="M431.294 205.07C431.378 204.669 431.518 204.286 431.714 203.922C431.91 203.558 432.162 203.241 432.47 202.97C432.778 202.69 433.146 202.471 433.576 202.312C434.005 202.153 434.495 202.074 435.046 202.074C435.559 202.074 436.016 202.149 436.418 202.298C436.819 202.438 437.16 202.639 437.44 202.9C437.72 203.161 437.93 203.474 438.07 203.838C438.219 204.202 438.294 204.599 438.294 205.028C438.294 205.635 438.163 206.195 437.902 206.708C437.65 207.212 437.328 207.674 436.936 208.094C436.544 208.514 436.114 208.897 435.648 209.242C435.181 209.578 434.738 209.877 434.318 210.138L433.24 210.81H438.658V212H431.028V211.02L433.156 209.606C433.856 209.139 434.453 208.71 434.948 208.318C435.442 207.917 435.844 207.539 436.152 207.184C436.469 206.829 436.698 206.489 436.838 206.162C436.987 205.826 437.062 205.49 437.062 205.154C437.062 204.809 437.006 204.515 436.894 204.272C436.791 204.029 436.642 203.833 436.446 203.684C436.259 203.535 436.035 203.427 435.774 203.362C435.522 203.297 435.251 203.264 434.962 203.264C434.542 203.264 434.178 203.329 433.87 203.46C433.571 203.591 433.314 203.763 433.1 203.978C432.894 204.183 432.731 204.417 432.61 204.678C432.498 204.93 432.423 205.182 432.386 205.434L431.294 205.07ZM439.628 207.1C439.628 206.372 439.712 205.705 439.88 205.098C440.048 204.482 440.3 203.95 440.636 203.502C440.981 203.054 441.415 202.704 441.938 202.452C442.461 202.2 443.077 202.074 443.786 202.074C444.495 202.074 445.111 202.191 445.634 202.424C446.157 202.657 446.591 202.993 446.936 203.432C447.281 203.871 447.538 204.403 447.706 205.028C447.874 205.644 447.958 206.335 447.958 207.1C447.958 207.828 447.874 208.5 447.706 209.116C447.547 209.723 447.295 210.25 446.95 210.698C446.614 211.146 446.185 211.496 445.662 211.748C445.139 212 444.523 212.126 443.814 212.126C443.142 212.126 442.545 212 442.022 211.748C441.499 211.496 441.061 211.146 440.706 210.698C440.351 210.25 440.081 209.723 439.894 209.116C439.717 208.5 439.628 207.828 439.628 207.1ZM440.86 207.1C440.86 208.295 441.121 209.233 441.644 209.914C442.167 210.595 442.89 210.936 443.814 210.936C444.822 210.936 445.559 210.595 446.026 209.914C446.493 209.233 446.726 208.295 446.726 207.1C446.726 205.905 446.488 204.967 446.012 204.286C445.536 203.605 444.794 203.264 443.786 203.264C443.282 203.264 442.848 203.353 442.484 203.53C442.12 203.707 441.817 203.964 441.574 204.3C441.331 204.636 441.149 205.042 441.028 205.518C440.916 205.985 440.86 206.512 440.86 207.1ZM449.102 205.07C449.186 204.669 449.326 204.286 449.522 203.922C449.718 203.558 449.97 203.241 450.278 202.97C450.586 202.69 450.954 202.471 451.384 202.312C451.813 202.153 452.303 202.074 452.854 202.074C453.367 202.074 453.824 202.149 454.226 202.298C454.627 202.438 454.968 202.639 455.248 202.9C455.528 203.161 455.738 203.474 455.878 203.838C456.027 204.202 456.102 204.599 456.102 205.028C456.102 205.635 455.971 206.195 455.71 206.708C455.458 207.212 455.136 207.674 454.744 208.094C454.352 208.514 453.922 208.897 453.456 209.242C452.989 209.578 452.546 209.877 452.126 210.138L451.048 210.81H456.466V212H448.836V211.02L450.964 209.606C451.664 209.139 452.261 208.71 452.756 208.318C453.25 207.917 453.652 207.539 453.96 207.184C454.277 206.829 454.506 206.489 454.646 206.162C454.795 205.826 454.87 205.49 454.87 205.154C454.87 204.809 454.814 204.515 454.702 204.272C454.599 204.029 454.45 203.833 454.254 203.684C454.067 203.535 453.843 203.427 453.582 203.362C453.33 203.297 453.059 203.264 452.77 203.264C452.35 203.264 451.986 203.329 451.678 203.46C451.379 203.591 451.122 203.763 450.908 203.978C450.702 204.183 450.539 204.417 450.418 204.678C450.306 204.93 450.231 205.182 450.194 205.434L449.102 205.07ZM457.534 205.07C457.618 204.669 457.758 204.286 457.954 203.922C458.15 203.558 458.402 203.241 458.71 202.97C459.018 202.69 459.387 202.471 459.816 202.312C460.245 202.153 460.735 202.074 461.286 202.074C461.799 202.074 462.257 202.149 462.658 202.298C463.059 202.438 463.4 202.639 463.68 202.9C463.96 203.161 464.17 203.474 464.31 203.838C464.459 204.202 464.534 204.599 464.534 205.028C464.534 205.635 464.403 206.195 464.142 206.708C463.89 207.212 463.568 207.674 463.176 208.094C462.784 208.514 462.355 208.897 461.888 209.242C461.421 209.578 460.978 209.877 460.558 210.138L459.48 210.81H464.898V212H457.268V211.02L459.396 209.606C460.096 209.139 460.693 208.71 461.188 208.318C461.683 207.917 462.084 207.539 462.392 207.184C462.709 206.829 462.938 206.489 463.078 206.162C463.227 205.826 463.302 205.49 463.302 205.154C463.302 204.809 463.246 204.515 463.134 204.272C463.031 204.029 462.882 203.833 462.686 203.684C462.499 203.535 462.275 203.427 462.014 203.362C461.762 203.297 461.491 203.264 461.202 203.264C460.782 203.264 460.418 203.329 460.11 203.46C459.811 203.591 459.555 203.763 459.34 203.978C459.135 204.183 458.971 204.417 458.85 204.678C458.738 204.93 458.663 205.182 458.626 205.434L457.534 205.07Z" fill="#5FAF2D"/>
<rect x="423" y="22" width="50" height="170" fill="#5FAF2D"/>
<rect x="423" y="22" width="50" height="4" fill="#3D7917"/>
<path d="M431.788 13.153C430.757 13.153 429.873 12.9547 429.136 12.558C428.411 12.1613 427.867 11.657 427.504 11.045L428.728 10.195C429.08 10.6823 429.539 11.0563 430.105 11.317C430.683 11.5777 431.312 11.708 431.992 11.708C432.514 11.708 432.99 11.606 433.42 11.402C433.862 11.1867 434.242 10.892 434.559 10.518C434.888 10.144 435.143 9.702 435.324 9.192C435.506 8.682 435.596 8.12667 435.596 7.526C435.596 7.458 435.596 7.39 435.596 7.322C435.596 7.254 435.591 7.186 435.579 7.118C435.307 7.764 434.843 8.30233 434.185 8.733C433.539 9.15233 432.718 9.362 431.72 9.362C431.063 9.362 430.457 9.26567 429.901 9.073C429.346 8.869 428.864 8.59133 428.456 8.24C428.048 7.87733 427.731 7.44667 427.504 6.948C427.278 6.44933 427.164 5.894 427.164 5.282C427.164 4.62467 427.283 4.02967 427.521 3.497C427.771 2.953 428.116 2.494 428.558 2.12C429 1.746 429.527 1.457 430.139 1.253C430.763 1.049 431.448 0.946999 432.196 0.946999C432.956 0.946999 433.636 1.07733 434.236 1.338C434.848 1.58733 435.364 1.96133 435.783 2.46C436.214 2.95867 436.543 3.57633 436.769 4.313C436.996 5.03833 437.109 5.877 437.109 6.829C437.109 7.87167 436.979 8.78967 436.718 9.583C436.469 10.365 436.106 11.0223 435.63 11.555C435.166 12.0763 434.605 12.473 433.947 12.745C433.301 13.017 432.582 13.153 431.788 13.153ZM431.992 7.917C432.48 7.917 432.922 7.849 433.318 7.713C433.715 7.577 434.049 7.39 434.321 7.152C434.605 6.90267 434.82 6.61367 434.967 6.285C435.115 5.95633 435.188 5.605 435.188 5.231C435.188 4.86833 435.132 4.517 435.018 4.177C434.905 3.837 434.724 3.53667 434.474 3.276C434.225 3.004 433.896 2.78867 433.488 2.63C433.092 2.47133 432.604 2.392 432.026 2.392C430.972 2.392 430.145 2.63 429.544 3.106C428.955 3.57067 428.66 4.25633 428.66 5.163C428.66 6.02433 428.961 6.69867 429.561 7.186C430.162 7.67333 430.972 7.917 431.992 7.917ZM438.333 14.649C438.481 14.615 438.634 14.5527 438.792 14.462C438.962 14.3713 439.115 14.258 439.251 14.122C439.387 13.986 439.495 13.8387 439.574 13.68C439.665 13.5213 439.71 13.357 439.71 13.187C439.71 13.1077 439.705 13.0453 439.693 13C439.637 13.0113 439.569 13.017 439.489 13.017C439.24 13.017 439.025 12.9377 438.843 12.779C438.673 12.6203 438.588 12.3937 438.588 12.099C438.588 11.8043 438.679 11.572 438.86 11.402C439.042 11.2207 439.297 11.13 439.625 11.13C439.988 11.13 440.283 11.2547 440.509 11.504C440.747 11.742 440.866 12.1047 440.866 12.592C440.866 13.0567 440.804 13.4533 440.679 13.782C440.555 14.1107 440.39 14.3883 440.186 14.615C439.982 14.8417 439.75 15.0173 439.489 15.142C439.229 15.278 438.962 15.38 438.69 15.448L438.333 14.649ZM445.673 1.032H446.642V13H445.214V2.851L442.137 4.262L441.593 2.987L445.673 1.032ZM448.98 7.05C448.98 6.166 449.082 5.35567 449.286 4.619C449.49 3.871 449.796 3.225 450.204 2.681C450.623 2.137 451.15 1.712 451.785 1.406C452.42 1.1 453.168 0.946999 454.029 0.946999C454.89 0.946999 455.638 1.08867 456.273 1.372C456.908 1.65533 457.435 2.06333 457.854 2.596C458.273 3.12867 458.585 3.77467 458.789 4.534C458.993 5.282 459.095 6.12067 459.095 7.05C459.095 7.934 458.993 8.75 458.789 9.498C458.596 10.2347 458.29 10.875 457.871 11.419C457.463 11.963 456.942 12.388 456.307 12.694C455.672 13 454.924 13.153 454.063 13.153C453.247 13.153 452.522 13 451.887 12.694C451.252 12.388 450.72 11.963 450.289 11.419C449.858 10.875 449.53 10.2347 449.303 9.498C449.088 8.75 448.98 7.934 448.98 7.05ZM450.476 7.05C450.476 8.50067 450.793 9.63967 451.428 10.467C452.063 11.2943 452.941 11.708 454.063 11.708C455.287 11.708 456.182 11.2943 456.749 10.467C457.316 9.63967 457.599 8.50067 457.599 7.05C457.599 5.59933 457.31 4.46033 456.732 3.633C456.154 2.80567 455.253 2.392 454.029 2.392C453.417 2.392 452.89 2.49967 452.448 2.715C452.006 2.93033 451.638 3.242 451.343 3.65C451.048 4.058 450.827 4.551 450.68 5.129C450.544 5.69567 450.476 6.336 450.476 7.05ZM460.144 1.1H469.171V2.069L463.255 13H461.64L467.352 2.545H460.144V1.1Z" fill="#222429"/>
<path d="M162.435 205.07C162.519 204.669 162.659 204.286 162.855 203.922C163.051 203.558 163.303 203.241 163.611 202.97C163.919 202.69 164.288 202.471 164.717 202.312C165.147 202.153 165.637 202.074 166.187 202.074C166.701 202.074 167.158 202.149 167.559 202.298C167.961 202.438 168.301 202.639 168.581 202.9C168.861 203.161 169.071 203.474 169.211 203.838C169.361 204.202 169.435 204.599 169.435 205.028C169.435 205.635 169.305 206.195 169.043 206.708C168.791 207.212 168.469 207.674 168.077 208.094C167.685 208.514 167.256 208.897 166.789 209.242C166.323 209.578 165.879 209.877 165.459 210.138L164.381 210.81H169.799V212H162.169V211.02L164.297 209.606C164.997 209.139 165.595 208.71 166.089 208.318C166.584 207.917 166.985 207.539 167.293 207.184C167.611 206.829 167.839 206.489 167.979 206.162C168.129 205.826 168.203 205.49 168.203 205.154C168.203 204.809 168.147 204.515 168.035 204.272C167.933 204.029 167.783 203.833 167.587 203.684C167.401 203.535 167.177 203.427 166.915 203.362C166.663 203.297 166.393 203.264 166.103 203.264C165.683 203.264 165.319 203.329 165.011 203.46C164.713 203.591 164.456 203.763 164.241 203.978C164.036 204.183 163.873 204.417 163.751 204.678C163.639 204.93 163.565 205.182 163.527 205.434L162.435 205.07ZM170.77 207.1C170.77 206.372 170.854 205.705 171.022 205.098C171.19 204.482 171.442 203.95 171.778 203.502C172.123 203.054 172.557 202.704 173.08 202.452C173.602 202.2 174.218 202.074 174.928 202.074C175.637 202.074 176.253 202.191 176.776 202.424C177.298 202.657 177.732 202.993 178.078 203.432C178.423 203.871 178.68 204.403 178.848 205.028C179.016 205.644 179.1 206.335 179.1 207.1C179.1 207.828 179.016 208.5 178.848 209.116C178.689 209.723 178.437 210.25 178.092 210.698C177.756 211.146 177.326 211.496 176.804 211.748C176.281 212 175.665 212.126 174.956 212.126C174.284 212.126 173.686 212 173.164 211.748C172.641 211.496 172.202 211.146 171.848 210.698C171.493 210.25 171.222 209.723 171.036 209.116C170.858 208.5 170.77 207.828 170.77 207.1ZM172.002 207.1C172.002 208.295 172.263 209.233 172.786 209.914C173.308 210.595 174.032 210.936 174.956 210.936C175.964 210.936 176.701 210.595 177.168 209.914C177.634 209.233 177.868 208.295 177.868 207.1C177.868 205.905 177.63 204.967 177.154 204.286C176.678 203.605 175.936 203.264 174.928 203.264C174.424 203.264 173.99 203.353 173.626 203.53C173.262 203.707 172.958 203.964 172.716 204.3C172.473 204.636 172.291 205.042 172.17 205.518C172.058 205.985 172.002 206.512 172.002 207.1ZM182.945 202.144H183.743V212H182.567V203.642L180.033 204.804L179.585 203.754L182.945 202.144ZM189.295 212.126C188.445 212.126 187.717 211.963 187.111 211.636C186.513 211.309 186.065 210.894 185.767 210.39L186.775 209.69C187.064 210.091 187.442 210.399 187.909 210.614C188.385 210.829 188.903 210.936 189.463 210.936C189.892 210.936 190.284 210.852 190.639 210.684C191.003 210.507 191.315 210.264 191.577 209.956C191.847 209.648 192.057 209.284 192.207 208.864C192.356 208.444 192.431 207.987 192.431 207.492C192.431 207.436 192.431 207.38 192.431 207.324C192.431 207.268 192.426 207.212 192.417 207.156C192.193 207.688 191.81 208.131 191.269 208.486C190.737 208.831 190.06 209.004 189.239 209.004C188.697 209.004 188.198 208.925 187.741 208.766C187.283 208.598 186.887 208.369 186.551 208.08C186.215 207.781 185.953 207.427 185.767 207.016C185.58 206.605 185.487 206.148 185.487 205.644C185.487 205.103 185.585 204.613 185.781 204.174C185.986 203.726 186.271 203.348 186.635 203.04C186.999 202.732 187.433 202.494 187.937 202.326C188.45 202.158 189.015 202.074 189.631 202.074C190.256 202.074 190.816 202.181 191.311 202.396C191.815 202.601 192.239 202.909 192.585 203.32C192.939 203.731 193.21 204.239 193.397 204.846C193.583 205.443 193.677 206.134 193.677 206.918C193.677 207.777 193.569 208.533 193.355 209.186C193.149 209.83 192.851 210.371 192.459 210.81C192.076 211.239 191.614 211.566 191.073 211.79C190.541 212.014 189.948 212.126 189.295 212.126ZM189.463 207.814C189.864 207.814 190.228 207.758 190.555 207.646C190.881 207.534 191.157 207.38 191.381 207.184C191.614 206.979 191.791 206.741 191.913 206.47C192.034 206.199 192.095 205.91 192.095 205.602C192.095 205.303 192.048 205.014 191.955 204.734C191.861 204.454 191.712 204.207 191.507 203.992C191.301 203.768 191.031 203.591 190.695 203.46C190.368 203.329 189.967 203.264 189.491 203.264C188.623 203.264 187.941 203.46 187.447 203.852C186.961 204.235 186.719 204.799 186.719 205.546C186.719 206.255 186.966 206.811 187.461 207.212C187.955 207.613 188.623 207.814 189.463 207.814Z" fill="#777F8C"/>
<rect x="153" y="58" width="50" height="134" fill="#BFCED4"/>
<rect x="153" y="58" width="50" height="4" fill="#A6B2BC"/>
<path d="M156.019 37.1H165.046V38.069L159.13 49H157.515L163.227 38.545H156.019V37.1ZM164.872 50.649C165.019 50.615 165.172 50.5527 165.331 50.462C165.501 50.3713 165.654 50.258 165.79 50.122C165.926 49.986 166.033 49.8387 166.113 49.68C166.203 49.5213 166.249 49.357 166.249 49.187C166.249 49.1077 166.243 49.0453 166.232 49C166.175 49.0113 166.107 49.017 166.028 49.017C165.778 49.017 165.563 48.9377 165.382 48.779C165.212 48.6203 165.127 48.3937 165.127 48.099C165.127 47.8043 165.217 47.572 165.399 47.402C165.58 47.2207 165.835 47.13 166.164 47.13C166.526 47.13 166.821 47.2547 167.048 47.504C167.286 47.742 167.405 48.1047 167.405 48.592C167.405 49.0567 167.342 49.4533 167.218 49.782C167.093 50.1107 166.929 50.3883 166.725 50.615C166.521 50.8417 166.288 51.0173 166.028 51.142C165.767 51.278 165.501 51.38 165.229 51.448L164.872 50.649ZM168.931 40.585C169.033 40.0977 169.203 39.633 169.441 39.191C169.679 38.749 169.985 38.3637 170.359 38.035C170.733 37.695 171.18 37.4287 171.702 37.236C172.223 37.0433 172.818 36.947 173.487 36.947C174.11 36.947 174.665 37.0377 175.153 37.219C175.64 37.389 176.054 37.6327 176.394 37.95C176.734 38.2673 176.989 38.647 177.159 39.089C177.34 39.531 177.431 40.0127 177.431 40.534C177.431 41.2707 177.272 41.9507 176.955 42.574C176.649 43.186 176.258 43.747 175.782 44.257C175.306 44.767 174.784 45.2317 174.218 45.651C173.651 46.059 173.113 46.4217 172.603 46.739L171.294 47.555H177.873V49H168.608V47.81L171.192 46.093C172.042 45.5263 172.767 45.005 173.368 44.529C173.968 44.0417 174.456 43.5827 174.83 43.152C175.215 42.7213 175.493 42.3077 175.663 41.911C175.844 41.503 175.935 41.095 175.935 40.687C175.935 40.2677 175.867 39.9107 175.731 39.616C175.606 39.3213 175.425 39.0833 175.187 38.902C174.96 38.7207 174.688 38.5903 174.371 38.511C174.065 38.4317 173.736 38.392 173.385 38.392C172.875 38.392 172.433 38.4713 172.059 38.63C171.696 38.7887 171.384 38.9983 171.124 39.259C170.874 39.5083 170.676 39.7917 170.529 40.109C170.393 40.415 170.302 40.721 170.257 41.027L168.931 40.585ZM179.119 39.99C179.277 39.548 179.493 39.1457 179.765 38.783C180.037 38.409 180.365 38.086 180.751 37.814C181.147 37.542 181.601 37.3323 182.111 37.185C182.632 37.0263 183.216 36.947 183.862 36.947C184.44 36.947 184.972 37.0207 185.46 37.168C185.958 37.304 186.383 37.5023 186.735 37.763C187.097 38.0123 187.375 38.324 187.568 38.698C187.772 39.072 187.874 39.4857 187.874 39.939C187.874 40.6303 187.692 41.2197 187.33 41.707C186.978 42.1943 186.463 42.5343 185.783 42.727C186.077 42.7497 186.366 42.8233 186.65 42.948C186.933 43.0613 187.182 43.237 187.398 43.475C187.624 43.7017 187.806 43.9907 187.942 44.342C188.078 44.682 188.146 45.09 188.146 45.566C188.146 46.144 188.032 46.6597 187.806 47.113C187.59 47.555 187.284 47.929 186.888 48.235C186.502 48.5297 186.043 48.7563 185.511 48.915C184.978 49.0737 184.406 49.153 183.794 49.153C183.125 49.153 182.513 49.0737 181.958 48.915C181.414 48.7563 180.932 48.541 180.513 48.269C180.093 47.9857 179.736 47.6513 179.442 47.266C179.158 46.8693 178.943 46.433 178.796 45.957L180.173 45.362C180.32 45.668 180.496 45.9627 180.7 46.246C180.904 46.5293 181.153 46.7787 181.448 46.994C181.742 47.2093 182.088 47.385 182.485 47.521C182.881 47.6457 183.352 47.708 183.896 47.708C184.746 47.708 185.414 47.5267 185.902 47.164C186.4 46.79 186.65 46.263 186.65 45.583C186.65 45.209 186.57 44.8973 186.412 44.648C186.253 44.3873 186.032 44.1833 185.749 44.036C185.465 43.8773 185.131 43.7697 184.746 43.713C184.372 43.645 183.964 43.611 183.522 43.611H182.196V42.2H183.25C184.236 42.2 185.001 42.013 185.545 41.639C186.1 41.265 186.378 40.7947 186.378 40.228C186.378 39.616 186.145 39.157 185.681 38.851C185.216 38.545 184.587 38.392 183.794 38.392C183.306 38.392 182.876 38.4543 182.502 38.579C182.128 38.7037 181.799 38.868 181.516 39.072C181.244 39.276 181.011 39.5083 180.819 39.769C180.637 40.0297 180.496 40.296 180.394 40.568L179.119 39.99ZM194.286 49.153C193.255 49.153 192.371 48.9547 191.634 48.558C190.909 48.1613 190.365 47.657 190.002 47.045L191.226 46.195C191.577 46.6823 192.036 47.0563 192.603 47.317C193.181 47.5777 193.81 47.708 194.49 47.708C195.011 47.708 195.487 47.606 195.918 47.402C196.36 47.1867 196.74 46.892 197.057 46.518C197.386 46.144 197.641 45.702 197.822 45.192C198.003 44.682 198.094 44.1267 198.094 43.526C198.094 43.458 198.094 43.39 198.094 43.322C198.094 43.254 198.088 43.186 198.077 43.118C197.805 43.764 197.34 44.3023 196.683 44.733C196.037 45.1523 195.215 45.362 194.218 45.362C193.561 45.362 192.954 45.2657 192.399 45.073C191.844 44.869 191.362 44.5913 190.954 44.24C190.546 43.8773 190.229 43.4467 190.002 42.948C189.775 42.4493 189.662 41.894 189.662 41.282C189.662 40.6247 189.781 40.0297 190.019 39.497C190.268 38.953 190.614 38.494 191.056 38.12C191.498 37.746 192.025 37.457 192.637 37.253C193.26 37.049 193.946 36.947 194.694 36.947C195.453 36.947 196.133 37.0773 196.734 37.338C197.346 37.5873 197.862 37.9613 198.281 38.46C198.712 38.9587 199.04 39.5763 199.267 40.313C199.494 41.0383 199.607 41.877 199.607 42.829C199.607 43.8717 199.477 44.7897 199.216 45.583C198.967 46.365 198.604 47.0223 198.128 47.555C197.663 48.0763 197.102 48.473 196.445 48.745C195.799 49.017 195.079 49.153 194.286 49.153ZM194.49 43.917C194.977 43.917 195.419 43.849 195.816 43.713C196.213 43.577 196.547 43.39 196.819 43.152C197.102 42.9027 197.318 42.6137 197.465 42.285C197.612 41.9563 197.686 41.605 197.686 41.231C197.686 40.8683 197.629 40.517 197.516 40.177C197.403 39.837 197.221 39.5367 196.972 39.276C196.723 39.004 196.394 38.7887 195.986 38.63C195.589 38.4713 195.102 38.392 194.524 38.392C193.47 38.392 192.643 38.63 192.042 39.106C191.453 39.5707 191.158 40.2563 191.158 41.163C191.158 42.0243 191.458 42.6987 192.059 43.186C192.66 43.6733 193.47 43.917 194.49 43.917Z" fill="#222429"/>
<path d="M72.4354 205.07C72.5194 204.669 72.6594 204.286 72.8554 203.922C73.0514 203.558 73.3034 203.241 73.6114 202.97C73.9194 202.69 74.2881 202.471 74.7174 202.312C75.1467 202.153 75.6367 202.074 76.1874 202.074C76.7007 202.074 77.1581 202.149 77.5594 202.298C77.9607 202.438 78.3014 202.639 78.5814 202.9C78.8614 203.161 79.0714 203.474 79.2114 203.838C79.3607 204.202 79.4354 204.599 79.4354 205.028C79.4354 205.635 79.3047 206.195 79.0434 206.708C78.7914 207.212 78.4694 207.674 78.0774 208.094C77.6854 208.514 77.2561 208.897 76.7894 209.242C76.3227 209.578 75.8794 209.877 75.4594 210.138L74.3814 210.81H79.7994V212H72.1694V211.02L74.2974 209.606C74.9974 209.139 75.5947 208.71 76.0894 208.318C76.5841 207.917 76.9854 207.539 77.2934 207.184C77.6107 206.829 77.8394 206.489 77.9794 206.162C78.1287 205.826 78.2034 205.49 78.2034 205.154C78.2034 204.809 78.1474 204.515 78.0354 204.272C77.9327 204.029 77.7834 203.833 77.5874 203.684C77.4007 203.535 77.1767 203.427 76.9154 203.362C76.6634 203.297 76.3927 203.264 76.1034 203.264C75.6834 203.264 75.3194 203.329 75.0114 203.46C74.7127 203.591 74.4561 203.763 74.2414 203.978C74.0361 204.183 73.8727 204.417 73.7514 204.678C73.6394 204.93 73.5647 205.182 73.5274 205.434L72.4354 205.07ZM80.7697 207.1C80.7697 206.372 80.8537 205.705 81.0217 205.098C81.1897 204.482 81.4417 203.95 81.7777 203.502C82.123 203.054 82.557 202.704 83.0797 202.452C83.6023 202.2 84.2183 202.074 84.9277 202.074C85.637 202.074 86.253 202.191 86.7757 202.424C87.2983 202.657 87.7323 202.993 88.0777 203.432C88.423 203.871 88.6797 204.403 88.8477 205.028C89.0157 205.644 89.0997 206.335 89.0997 207.1C89.0997 207.828 89.0157 208.5 88.8477 209.116C88.689 209.723 88.437 210.25 88.0917 210.698C87.7557 211.146 87.3263 211.496 86.8037 211.748C86.281 212 85.665 212.126 84.9557 212.126C84.2837 212.126 83.6863 212 83.1637 211.748C82.641 211.496 82.2023 211.146 81.8477 210.698C81.493 210.25 81.2223 209.723 81.0357 209.116C80.8583 208.5 80.7697 207.828 80.7697 207.1ZM82.0017 207.1C82.0017 208.295 82.263 209.233 82.7857 209.914C83.3083 210.595 84.0317 210.936 84.9557 210.936C85.9637 210.936 86.701 210.595 87.1677 209.914C87.6343 209.233 87.8677 208.295 87.8677 207.1C87.8677 205.905 87.6297 204.967 87.1537 204.286C86.6777 203.605 85.9357 203.264 84.9277 203.264C84.4237 203.264 83.9897 203.353 83.6257 203.53C83.2617 203.707 82.9583 203.964 82.7157 204.3C82.473 204.636 82.291 205.042 82.1697 205.518C82.0577 205.985 82.0017 206.512 82.0017 207.1ZM92.9453 202.144H93.7433V212H92.5673V203.642L90.0333 204.804L89.5853 203.754L92.9453 202.144ZM99.8267 206.414C100.144 206.414 100.438 206.377 100.709 206.302C100.989 206.218 101.231 206.106 101.437 205.966C101.642 205.826 101.801 205.658 101.913 205.462C102.034 205.266 102.095 205.051 102.095 204.818C102.095 204.314 101.885 203.931 101.465 203.67C101.054 203.399 100.424 203.264 99.5747 203.264C98.7534 203.264 98.1327 203.399 97.7127 203.67C97.3021 203.941 97.0967 204.323 97.0967 204.818C97.0967 205.042 97.1527 205.252 97.2647 205.448C97.3767 205.644 97.5307 205.817 97.7267 205.966C97.9321 206.106 98.1747 206.218 98.4547 206.302C98.7441 206.377 99.0567 206.414 99.3927 206.414H99.8267ZM99.4487 207.52C99.0567 207.52 98.6927 207.567 98.3567 207.66C98.0301 207.744 97.7501 207.865 97.5167 208.024C97.2834 208.173 97.1014 208.355 96.9707 208.57C96.8401 208.775 96.7747 208.995 96.7747 209.228C96.7747 209.732 97.0081 210.143 97.4747 210.46C97.9507 210.777 98.6554 210.936 99.5887 210.936C100.55 210.936 101.259 210.787 101.717 210.488C102.174 210.18 102.403 209.765 102.403 209.242C102.403 208.691 102.165 208.267 101.689 207.968C101.222 207.669 100.592 207.52 99.7987 207.52H99.4487ZM99.6027 212.126C98.9774 212.126 98.4127 212.065 97.9087 211.944C97.4141 211.813 96.9894 211.631 96.6347 211.398C96.2894 211.155 96.0187 210.866 95.8227 210.53C95.6361 210.185 95.5427 209.793 95.5427 209.354C95.5427 208.775 95.7154 208.276 96.0607 207.856C96.4154 207.427 96.8867 207.119 97.4747 206.932C97.1947 206.839 96.9521 206.717 96.7467 206.568C96.5414 206.409 96.3734 206.232 96.2427 206.036C96.1121 205.84 96.0141 205.635 95.9487 205.42C95.8927 205.196 95.8647 204.967 95.8647 204.734C95.8647 203.922 96.1821 203.278 96.8167 202.802C97.4607 202.317 98.3847 202.074 99.5887 202.074C100.802 202.074 101.726 202.317 102.361 202.802C103.005 203.278 103.327 203.922 103.327 204.734C103.327 205.238 103.187 205.663 102.907 206.008C102.636 206.353 102.258 206.638 101.773 206.862C102.445 207.067 102.921 207.375 103.201 207.786C103.49 208.197 103.635 208.701 103.635 209.298C103.635 209.746 103.541 210.147 103.355 210.502C103.168 210.847 102.897 211.141 102.543 211.384C102.197 211.627 101.773 211.813 101.269 211.944C100.774 212.065 100.219 212.126 99.6027 212.126Z" fill="#777F8C"/>
<rect x="63" y="72" width="50" height="120" fill="#BFCED4"/>
<rect x="63" y="72" width="50" height="4" fill="#A6B2BC"/>
<path d="M69.3461 63.153C68.5528 63.153 67.8331 63.0283 67.1871 62.779C66.5524 62.5297 66.0084 62.1613 65.5551 61.674C65.1018 61.1753 64.7504 60.569 64.5011 59.855C64.2631 59.141 64.1441 58.3137 64.1441 57.373C64.1441 56.3077 64.2858 55.3727 64.5691 54.568C64.8524 53.7633 65.2321 53.0947 65.7081 52.562C66.1954 52.018 66.7564 51.6157 67.3911 51.355C68.0371 51.083 68.7171 50.947 69.4311 50.947C70.4624 50.947 71.3408 51.1567 72.0661 51.576C72.7914 51.9953 73.3184 52.562 73.6471 53.276L72.4911 54.058C72.1624 53.548 71.7374 53.1457 71.2161 52.851C70.7061 52.545 70.0884 52.392 69.3631 52.392C68.7964 52.392 68.2864 52.5053 67.8331 52.732C67.3798 52.9473 66.9888 53.2647 66.6601 53.684C66.3314 54.092 66.0764 54.5907 65.8951 55.18C65.7138 55.758 65.6174 56.4097 65.6061 57.135V57.322C65.7648 56.948 65.9801 56.6193 66.2521 56.336C66.5354 56.0527 66.8528 55.8147 67.2041 55.622C67.5554 55.4293 67.9294 55.2877 68.3261 55.197C68.7341 55.095 69.1478 55.044 69.5671 55.044C70.2584 55.044 70.8818 55.1403 71.4371 55.333C71.9924 55.5257 72.4628 55.7977 72.8481 56.149C73.2448 56.5003 73.5451 56.9197 73.7491 57.407C73.9531 57.8943 74.0551 58.4327 74.0551 59.022C74.0551 59.634 73.9304 60.195 73.6811 60.705C73.4431 61.215 73.1088 61.6513 72.6781 62.014C72.2588 62.3767 71.7601 62.66 71.1821 62.864C70.6154 63.0567 70.0034 63.153 69.3461 63.153ZM69.3291 61.708C69.8051 61.708 70.2358 61.6457 70.6211 61.521C71.0178 61.3963 71.3578 61.2207 71.6411 60.994C71.9358 60.756 72.1624 60.4783 72.3211 60.161C72.4798 59.8437 72.5591 59.4867 72.5591 59.09C72.5591 58.6593 72.4798 58.2853 72.3211 57.968C72.1738 57.6393 71.9641 57.3673 71.6921 57.152C71.4201 56.9253 71.0914 56.761 70.7061 56.659C70.3321 56.5457 69.9241 56.489 69.4821 56.489C68.3941 56.489 67.5668 56.7213 67.0001 57.186C66.4448 57.6507 66.1671 58.2457 66.1671 58.971C66.1671 59.345 66.2408 59.6963 66.3881 60.025C66.5354 60.3537 66.7451 60.6427 67.0171 60.892C67.2891 61.1413 67.6178 61.3397 68.0031 61.487C68.3998 61.6343 68.8418 61.708 69.3291 61.708ZM75.2288 64.649C75.3761 64.615 75.5291 64.5527 75.6878 64.462C75.8578 64.3713 76.0108 64.258 76.1468 64.122C76.2828 63.986 76.3904 63.8387 76.4698 63.68C76.5604 63.5213 76.6058 63.357 76.6058 63.187C76.6058 63.1077 76.6001 63.0453 76.5888 63C76.5321 63.0113 76.4641 63.017 76.3848 63.017C76.1354 63.017 75.9201 62.9377 75.7388 62.779C75.5688 62.6203 75.4838 62.3937 75.4838 62.099C75.4838 61.8043 75.5744 61.572 75.7558 61.402C75.9371 61.2207 76.1921 61.13 76.5208 61.13C76.8834 61.13 77.1781 61.2547 77.4048 61.504C77.6428 61.742 77.7618 62.1047 77.7618 62.592C77.7618 63.0567 77.6994 63.4533 77.5748 63.782C77.4501 64.1107 77.2858 64.3883 77.0818 64.615C76.8778 64.8417 76.6454 65.0173 76.3848 65.142C76.1241 65.278 75.8578 65.38 75.5858 65.448L75.2288 64.649ZM85.9515 60.62H78.6245V59.532L86.1215 51.1H87.3795V59.175H89.5895V60.62H87.3795V63H85.9515V60.62ZM85.9515 59.175V53.48L80.6645 59.175H85.9515ZM95.7924 63.153C94.999 63.153 94.2794 63.0283 93.6334 62.779C92.9987 62.5297 92.4547 62.1613 92.0014 61.674C91.548 61.1753 91.1967 60.569 90.9474 59.855C90.7094 59.141 90.5904 58.3137 90.5904 57.373C90.5904 56.3077 90.732 55.3727 91.0154 54.568C91.2987 53.7633 91.6784 53.0947 92.1544 52.562C92.6417 52.018 93.2027 51.6157 93.8374 51.355C94.4834 51.083 95.1634 50.947 95.8774 50.947C96.9087 50.947 97.787 51.1567 98.5124 51.576C99.2377 51.9953 99.7647 52.562 100.093 53.276L98.9374 54.058C98.6087 53.548 98.1837 53.1457 97.6624 52.851C97.1524 52.545 96.5347 52.392 95.8094 52.392C95.2427 52.392 94.7327 52.5053 94.2794 52.732C93.826 52.9473 93.435 53.2647 93.1064 53.684C92.7777 54.092 92.5227 54.5907 92.3414 55.18C92.16 55.758 92.0637 56.4097 92.0524 57.135V57.322C92.211 56.948 92.4264 56.6193 92.6984 56.336C92.9817 56.0527 93.299 55.8147 93.6504 55.622C94.0017 55.4293 94.3757 55.2877 94.7724 55.197C95.1804 55.095 95.594 55.044 96.0134 55.044C96.7047 55.044 97.328 55.1403 97.8834 55.333C98.4387 55.5257 98.909 55.7977 99.2944 56.149C99.691 56.5003 99.9914 56.9197 100.195 57.407C100.399 57.8943 100.501 58.4327 100.501 59.022C100.501 59.634 100.377 60.195 100.127 60.705C99.8894 61.215 99.555 61.6513 99.1244 62.014C98.705 62.3767 98.2064 62.66 97.6284 62.864C97.0617 63.0567 96.4497 63.153 95.7924 63.153ZM95.7754 61.708C96.2514 61.708 96.682 61.6457 97.0674 61.521C97.464 61.3963 97.804 61.2207 98.0874 60.994C98.382 60.756 98.6087 60.4783 98.7674 60.161C98.926 59.8437 99.0054 59.4867 99.0054 59.09C99.0054 58.6593 98.926 58.2853 98.7674 57.968C98.62 57.6393 98.4104 57.3673 98.1384 57.152C97.8664 56.9253 97.5377 56.761 97.1524 56.659C96.7784 56.5457 96.3704 56.489 95.9284 56.489C94.8404 56.489 94.013 56.7213 93.4464 57.186C92.891 57.6507 92.6134 58.2457 92.6134 58.971C92.6134 59.345 92.687 59.6963 92.8344 60.025C92.9817 60.3537 93.1914 60.6427 93.4634 60.892C93.7354 61.1413 94.064 61.3397 94.4494 61.487C94.846 61.6343 95.288 61.708 95.7754 61.708ZM108.679 60.62H101.352V59.532L108.849 51.1H110.107V59.175H112.317V60.62H110.107V63H108.679V60.62ZM108.679 59.175V53.48L103.392 59.175H108.679Z" fill="#222429"/>
<path d="M250.822 205.07C250.906 204.669 251.046 204.286 251.242 203.922C251.438 203.558 251.69 203.241 251.998 202.97C252.306 202.69 252.675 202.471 253.104 202.312C253.533 202.153 254.023 202.074 254.574 202.074C255.087 202.074 255.545 202.149 255.946 202.298C256.347 202.438 256.688 202.639 256.968 202.9C257.248 203.161 257.458 203.474 257.598 203.838C257.747 204.202 257.822 204.599 257.822 205.028C257.822 205.635 257.691 206.195 257.43 206.708C257.178 207.212 256.856 207.674 256.464 208.094C256.072 208.514 255.643 208.897 255.176 209.242C254.709 209.578 254.266 209.877 253.846 210.138L252.768 210.81H258.186V212H250.556V211.02L252.684 209.606C253.384 209.139 253.981 208.71 254.476 208.318C254.971 207.917 255.372 207.539 255.68 207.184C255.997 206.829 256.226 206.489 256.366 206.162C256.515 205.826 256.59 205.49 256.59 205.154C256.59 204.809 256.534 204.515 256.422 204.272C256.319 204.029 256.17 203.833 255.974 203.684C255.787 203.535 255.563 203.427 255.302 203.362C255.05 203.297 254.779 203.264 254.49 203.264C254.07 203.264 253.706 203.329 253.398 203.46C253.099 203.591 252.843 203.763 252.628 203.978C252.423 204.183 252.259 204.417 252.138 204.678C252.026 204.93 251.951 205.182 251.914 205.434L250.822 205.07ZM259.156 207.1C259.156 206.372 259.24 205.705 259.408 205.098C259.576 204.482 259.828 203.95 260.164 203.502C260.51 203.054 260.944 202.704 261.466 202.452C261.989 202.2 262.605 202.074 263.314 202.074C264.024 202.074 264.64 202.191 265.162 202.424C265.685 202.657 266.119 202.993 266.464 203.432C266.81 203.871 267.066 204.403 267.234 205.028C267.402 205.644 267.486 206.335 267.486 207.1C267.486 207.828 267.402 208.5 267.234 209.116C267.076 209.723 266.824 210.25 266.478 210.698C266.142 211.146 265.713 211.496 265.19 211.748C264.668 212 264.052 212.126 263.342 212.126C262.67 212.126 262.073 212 261.55 211.748C261.028 211.496 260.589 211.146 260.234 210.698C259.88 210.25 259.609 209.723 259.422 209.116C259.245 208.5 259.156 207.828 259.156 207.1ZM260.388 207.1C260.388 208.295 260.65 209.233 261.172 209.914C261.695 210.595 262.418 210.936 263.342 210.936C264.35 210.936 265.088 210.595 265.554 209.914C266.021 209.233 266.254 208.295 266.254 207.1C266.254 205.905 266.016 204.967 265.54 204.286C265.064 203.605 264.322 203.264 263.314 203.264C262.81 203.264 262.376 203.353 262.012 203.53C261.648 203.707 261.345 203.964 261.102 204.3C260.86 204.636 260.678 205.042 260.556 205.518C260.444 205.985 260.388 206.512 260.388 207.1ZM268.63 205.07C268.714 204.669 268.854 204.286 269.05 203.922C269.246 203.558 269.498 203.241 269.806 202.97C270.114 202.69 270.483 202.471 270.912 202.312C271.341 202.153 271.831 202.074 272.382 202.074C272.895 202.074 273.353 202.149 273.754 202.298C274.155 202.438 274.496 202.639 274.776 202.9C275.056 203.161 275.266 203.474 275.406 203.838C275.555 204.202 275.63 204.599 275.63 205.028C275.63 205.635 275.499 206.195 275.238 206.708C274.986 207.212 274.664 207.674 274.272 208.094C273.88 208.514 273.451 208.897 272.984 209.242C272.517 209.578 272.074 209.877 271.654 210.138L270.576 210.81H275.994V212H268.364V211.02L270.492 209.606C271.192 209.139 271.789 208.71 272.284 208.318C272.779 207.917 273.18 207.539 273.488 207.184C273.805 206.829 274.034 206.489 274.174 206.162C274.323 205.826 274.398 205.49 274.398 205.154C274.398 204.809 274.342 204.515 274.23 204.272C274.127 204.029 273.978 203.833 273.782 203.684C273.595 203.535 273.371 203.427 273.11 203.362C272.858 203.297 272.587 203.264 272.298 203.264C271.878 203.264 271.514 203.329 271.206 203.46C270.907 203.591 270.651 203.763 270.436 203.978C270.231 204.183 270.067 204.417 269.946 204.678C269.834 204.93 269.759 205.182 269.722 205.434L268.63 205.07ZM276.964 207.1C276.964 206.372 277.048 205.705 277.216 205.098C277.384 204.482 277.636 203.95 277.972 203.502C278.318 203.054 278.752 202.704 279.274 202.452C279.797 202.2 280.413 202.074 281.122 202.074C281.832 202.074 282.448 202.191 282.97 202.424C283.493 202.657 283.927 202.993 284.272 203.432C284.618 203.871 284.874 204.403 285.042 205.028C285.21 205.644 285.294 206.335 285.294 207.1C285.294 207.828 285.21 208.5 285.042 209.116C284.884 209.723 284.632 210.25 284.286 210.698C283.95 211.146 283.521 211.496 282.998 211.748C282.476 212 281.86 212.126 281.15 212.126C280.478 212.126 279.881 212 279.358 211.748C278.836 211.496 278.397 211.146 278.042 210.698C277.688 210.25 277.417 209.723 277.23 209.116C277.053 208.5 276.964 207.828 276.964 207.1ZM278.196 207.1C278.196 208.295 278.458 209.233 278.98 209.914C279.503 210.595 280.226 210.936 281.15 210.936C282.158 210.936 282.896 210.595 283.362 209.914C283.829 209.233 284.062 208.295 284.062 207.1C284.062 205.905 283.824 204.967 283.348 204.286C282.872 203.605 282.13 203.264 281.122 203.264C280.618 203.264 280.184 203.353 279.82 203.53C279.456 203.707 279.153 203.964 278.91 204.3C278.668 204.636 278.486 205.042 278.364 205.518C278.252 205.985 278.196 206.512 278.196 207.1Z" fill="#777F8C"/>
<rect x="243" y="47" width="50" height="145" fill="#BFCED4"/>
<rect x="243" y="47" width="50" height="4" fill="#A6B2BC"/>
<path d="M244.982 26.1H254.009V27.069L248.093 38H246.478L252.19 27.545H244.982V26.1ZM253.834 39.649C253.982 39.615 254.135 39.5527 254.293 39.462C254.463 39.3713 254.616 39.258 254.752 39.122C254.888 38.986 254.996 38.8387 255.075 38.68C255.166 38.5213 255.211 38.357 255.211 38.187C255.211 38.1077 255.206 38.0453 255.194 38C255.138 38.0113 255.07 38.017 254.99 38.017C254.741 38.017 254.526 37.9377 254.344 37.779C254.174 37.6203 254.089 37.3937 254.089 37.099C254.089 36.8043 254.18 36.572 254.361 36.402C254.543 36.2207 254.798 36.13 255.126 36.13C255.489 36.13 255.784 36.2547 256.01 36.504C256.248 36.742 256.367 37.1047 256.367 37.592C256.367 38.0567 256.305 38.4533 256.18 38.782C256.056 39.1107 255.891 39.3883 255.687 39.615C255.483 39.8417 255.251 40.0173 254.99 40.142C254.73 40.278 254.463 40.38 254.191 40.448L253.834 39.649ZM262.993 31.217C263.378 31.217 263.735 31.1717 264.064 31.081C264.404 30.979 264.699 30.843 264.948 30.673C265.197 30.503 265.39 30.299 265.526 30.061C265.673 29.823 265.747 29.5623 265.747 29.279C265.747 28.667 265.492 28.2023 264.982 27.885C264.483 27.5563 263.718 27.392 262.687 27.392C261.69 27.392 260.936 27.5563 260.426 27.885C259.927 28.2137 259.678 28.6783 259.678 29.279C259.678 29.551 259.746 29.806 259.882 30.044C260.018 30.282 260.205 30.4917 260.443 30.673C260.692 30.843 260.987 30.979 261.327 31.081C261.678 31.1717 262.058 31.217 262.466 31.217H262.993ZM262.534 32.56C262.058 32.56 261.616 32.6167 261.208 32.73C260.811 32.832 260.471 32.9793 260.188 33.172C259.905 33.3533 259.684 33.5743 259.525 33.835C259.366 34.0843 259.287 34.3507 259.287 34.634C259.287 35.246 259.57 35.7447 260.137 36.13C260.715 36.5153 261.571 36.708 262.704 36.708C263.871 36.708 264.733 36.5267 265.288 36.164C265.843 35.79 266.121 35.2857 266.121 34.651C266.121 33.9823 265.832 33.4667 265.254 33.104C264.687 32.7413 263.922 32.56 262.959 32.56H262.534ZM262.721 38.153C261.962 38.153 261.276 38.0793 260.664 37.932C260.063 37.7733 259.548 37.5523 259.117 37.269C258.698 36.9743 258.369 36.623 258.131 36.215C257.904 35.7957 257.791 35.3197 257.791 34.787C257.791 34.0843 258.001 33.478 258.42 32.968C258.851 32.4467 259.423 32.0727 260.137 31.846C259.797 31.7327 259.502 31.5853 259.253 31.404C259.004 31.2113 258.8 30.996 258.641 30.758C258.482 30.52 258.363 30.2707 258.284 30.01C258.216 29.738 258.182 29.4603 258.182 29.177C258.182 28.191 258.567 27.409 259.338 26.831C260.12 26.2417 261.242 25.947 262.704 25.947C264.177 25.947 265.299 26.2417 266.07 26.831C266.852 27.409 267.243 28.191 267.243 29.177C267.243 29.789 267.073 30.3047 266.733 30.724C266.404 31.1433 265.945 31.489 265.356 31.761C266.172 32.0103 266.75 32.3843 267.09 32.883C267.441 33.3817 267.617 33.9937 267.617 34.719C267.617 35.263 267.504 35.7503 267.277 36.181C267.05 36.6003 266.722 36.9573 266.291 37.252C265.872 37.5467 265.356 37.7733 264.744 37.932C264.143 38.0793 263.469 38.153 262.721 38.153ZM275.896 35.62H268.569V34.532L276.066 26.1H277.324V34.175H279.534V35.62H277.324V38H275.896V35.62ZM275.896 34.175V28.48L270.609 34.175H275.896ZM280.535 32.05C280.535 31.166 280.637 30.3557 280.841 29.619C281.045 28.871 281.351 28.225 281.759 27.681C282.178 27.137 282.705 26.712 283.34 26.406C283.974 26.1 284.722 25.947 285.584 25.947C286.445 25.947 287.193 26.0887 287.828 26.372C288.462 26.6553 288.989 27.0633 289.409 27.596C289.828 28.1287 290.14 28.7747 290.344 29.534C290.548 30.282 290.65 31.1207 290.65 32.05C290.65 32.934 290.548 33.75 290.344 34.498C290.151 35.2347 289.845 35.875 289.426 36.419C289.018 36.963 288.496 37.388 287.862 37.694C287.227 38 286.479 38.153 285.618 38.153C284.802 38.153 284.076 38 283.442 37.694C282.807 37.388 282.274 36.963 281.844 36.419C281.413 35.875 281.084 35.2347 280.858 34.498C280.642 33.75 280.535 32.934 280.535 32.05ZM282.031 32.05C282.031 33.5007 282.348 34.6397 282.983 35.467C283.617 36.2943 284.496 36.708 285.618 36.708C286.842 36.708 287.737 36.2943 288.304 35.467C288.87 34.6397 289.154 33.5007 289.154 32.05C289.154 30.5993 288.865 29.4603 288.287 28.633C287.709 27.8057 286.808 27.392 285.584 27.392C284.972 27.392 284.445 27.4997 284.003 27.715C283.561 27.9303 283.192 28.242 282.898 28.65C282.603 29.058 282.382 29.551 282.235 30.129C282.099 30.6957 282.031 31.336 282.031 32.05Z" fill="#222429"/>
<path d="M342.818 205.07C342.902 204.669 343.042 204.286 343.238 203.922C343.434 203.558 343.686 203.241 343.994 202.97C344.302 202.69 344.671 202.471 345.1 202.312C345.53 202.153 346.02 202.074 346.57 202.074C347.084 202.074 347.541 202.149 347.942 202.298C348.344 202.438 348.684 202.639 348.964 202.9C349.244 203.161 349.454 203.474 349.594 203.838C349.744 204.202 349.818 204.599 349.818 205.028C349.818 205.635 349.688 206.195 349.426 206.708C349.174 207.212 348.852 207.674 348.46 208.094C348.068 208.514 347.639 208.897 347.172 209.242C346.706 209.578 346.262 209.877 345.842 210.138L344.764 210.81H350.182V212H342.552V211.02L344.68 209.606C345.38 209.139 345.978 208.71 346.472 208.318C346.967 207.917 347.368 207.539 347.676 207.184C347.994 206.829 348.222 206.489 348.362 206.162C348.512 205.826 348.586 205.49 348.586 205.154C348.586 204.809 348.53 204.515 348.418 204.272C348.316 204.029 348.166 203.833 347.97 203.684C347.784 203.535 347.56 203.427 347.298 203.362C347.046 203.297 346.776 203.264 346.486 203.264C346.066 203.264 345.702 203.329 345.394 203.46C345.096 203.591 344.839 203.763 344.624 203.978C344.419 204.183 344.256 204.417 344.134 204.678C344.022 204.93 343.948 205.182 343.91 205.434L342.818 205.07ZM351.152 207.1C351.152 206.372 351.236 205.705 351.404 205.098C351.572 204.482 351.824 203.95 352.16 203.502C352.506 203.054 352.94 202.704 353.462 202.452C353.985 202.2 354.601 202.074 355.31 202.074C356.02 202.074 356.636 202.191 357.158 202.424C357.681 202.657 358.115 202.993 358.46 203.432C358.806 203.871 359.062 204.403 359.23 205.028C359.398 205.644 359.482 206.335 359.482 207.1C359.482 207.828 359.398 208.5 359.23 209.116C359.072 209.723 358.82 210.25 358.474 210.698C358.138 211.146 357.709 211.496 357.186 211.748C356.664 212 356.048 212.126 355.338 212.126C354.666 212.126 354.069 212 353.546 211.748C353.024 211.496 352.585 211.146 352.23 210.698C351.876 210.25 351.605 209.723 351.418 209.116C351.241 208.5 351.152 207.828 351.152 207.1ZM352.384 207.1C352.384 208.295 352.646 209.233 353.168 209.914C353.691 210.595 354.414 210.936 355.338 210.936C356.346 210.936 357.084 210.595 357.55 209.914C358.017 209.233 358.25 208.295 358.25 207.1C358.25 205.905 358.012 204.967 357.536 204.286C357.06 203.605 356.318 203.264 355.31 203.264C354.806 203.264 354.372 203.353 354.008 203.53C353.644 203.707 353.341 203.964 353.098 204.3C352.856 204.636 352.674 205.042 352.552 205.518C352.44 205.985 352.384 206.512 352.384 207.1ZM360.626 205.07C360.71 204.669 360.85 204.286 361.046 203.922C361.242 203.558 361.494 203.241 361.802 202.97C362.11 202.69 362.479 202.471 362.908 202.312C363.337 202.153 363.827 202.074 364.378 202.074C364.891 202.074 365.349 202.149 365.75 202.298C366.151 202.438 366.492 202.639 366.772 202.9C367.052 203.161 367.262 203.474 367.402 203.838C367.551 204.202 367.626 204.599 367.626 205.028C367.626 205.635 367.495 206.195 367.234 206.708C366.982 207.212 366.66 207.674 366.268 208.094C365.876 208.514 365.447 208.897 364.98 209.242C364.513 209.578 364.07 209.877 363.65 210.138L362.572 210.81H367.99V212H360.36V211.02L362.488 209.606C363.188 209.139 363.785 208.71 364.28 208.318C364.775 207.917 365.176 207.539 365.484 207.184C365.801 206.829 366.03 206.489 366.17 206.162C366.319 205.826 366.394 205.49 366.394 205.154C366.394 204.809 366.338 204.515 366.226 204.272C366.123 204.029 365.974 203.833 365.778 203.684C365.591 203.535 365.367 203.427 365.106 203.362C364.854 203.297 364.583 203.264 364.294 203.264C363.874 203.264 363.51 203.329 363.202 203.46C362.903 203.591 362.647 203.763 362.432 203.978C362.227 204.183 362.063 204.417 361.942 204.678C361.83 204.93 361.755 205.182 361.718 205.434L360.626 205.07ZM371.76 202.144H372.558V212H371.382V203.642L368.848 204.804L368.4 203.754L371.76 202.144Z" fill="#777F8C"/>
<rect x="333" y="35" width="50" height="157" fill="#BFCED4"/>
<rect x="333" y="35" width="50" height="4" fill="#A6B2BC"/>
<path d="M341.579 19.217C341.965 19.217 342.322 19.1717 342.65 19.081C342.99 18.979 343.285 18.843 343.534 18.673C343.784 18.503 343.976 18.299 344.112 18.061C344.26 17.823 344.333 17.5623 344.333 17.279C344.333 16.667 344.078 16.2023 343.568 15.885C343.07 15.5563 342.305 15.392 341.273 15.392C340.276 15.392 339.522 15.5563 339.012 15.885C338.514 16.2137 338.264 16.6783 338.264 17.279C338.264 17.551 338.332 17.806 338.468 18.044C338.604 18.282 338.791 18.4917 339.029 18.673C339.279 18.843 339.573 18.979 339.913 19.081C340.265 19.1717 340.644 19.217 341.052 19.217H341.579ZM341.12 20.56C340.644 20.56 340.202 20.6167 339.794 20.73C339.398 20.832 339.058 20.9793 338.774 21.172C338.491 21.3533 338.27 21.5743 338.111 21.835C337.953 22.0843 337.873 22.3507 337.873 22.634C337.873 23.246 338.157 23.7447 338.723 24.13C339.301 24.5153 340.157 24.708 341.29 24.708C342.458 24.708 343.319 24.5267 343.874 24.164C344.43 23.79 344.707 23.2857 344.707 22.651C344.707 21.9823 344.418 21.4667 343.84 21.104C343.274 20.7413 342.509 20.56 341.545 20.56H341.12ZM341.307 26.153C340.548 26.153 339.862 26.0793 339.25 25.932C338.65 25.7733 338.134 25.5523 337.703 25.269C337.284 24.9743 336.955 24.623 336.717 24.215C336.491 23.7957 336.377 23.3197 336.377 22.787C336.377 22.0843 336.587 21.478 337.006 20.968C337.437 20.4467 338.009 20.0727 338.723 19.846C338.383 19.7327 338.089 19.5853 337.839 19.404C337.59 19.2113 337.386 18.996 337.227 18.758C337.069 18.52 336.95 18.2707 336.87 18.01C336.802 17.738 336.768 17.4603 336.768 17.177C336.768 16.191 337.154 15.409 337.924 14.831C338.706 14.2417 339.828 13.947 341.29 13.947C342.764 13.947 343.886 14.2417 344.656 14.831C345.438 15.409 345.829 16.191 345.829 17.177C345.829 17.789 345.659 18.3047 345.319 18.724C344.991 19.1433 344.532 19.489 343.942 19.761C344.758 20.0103 345.336 20.3843 345.676 20.883C346.028 21.3817 346.203 21.9937 346.203 22.719C346.203 23.263 346.09 23.7503 345.863 24.181C345.637 24.6003 345.308 24.9573 344.877 25.252C344.458 25.5467 343.942 25.7733 343.33 25.932C342.73 26.0793 342.055 26.153 341.307 26.153ZM347.478 27.649C347.626 27.615 347.779 27.5527 347.937 27.462C348.107 27.3713 348.26 27.258 348.396 27.122C348.532 26.986 348.64 26.8387 348.719 26.68C348.81 26.5213 348.855 26.357 348.855 26.187C348.855 26.1077 348.85 26.0453 348.838 26C348.782 26.0113 348.714 26.017 348.634 26.017C348.385 26.017 348.17 25.9377 347.988 25.779C347.818 25.6203 347.733 25.3937 347.733 25.099C347.733 24.8043 347.824 24.572 348.005 24.402C348.187 24.2207 348.442 24.13 348.77 24.13C349.133 24.13 349.428 24.2547 349.654 24.504C349.892 24.742 350.011 25.1047 350.011 25.592C350.011 26.0567 349.949 26.4533 349.824 26.782C349.7 27.1107 349.535 27.3883 349.331 27.615C349.127 27.8417 348.895 28.0173 348.634 28.142C348.374 28.278 348.107 28.38 347.835 28.448L347.478 27.649ZM358.201 23.62H350.874V22.532L358.371 14.1H359.629V22.175H361.839V23.62H359.629V26H358.201V23.62ZM358.201 22.175V16.48L352.914 22.175H358.201ZM366.24 14.032H367.209V26H365.781V15.851L362.704 17.262L362.16 15.987L366.24 14.032ZM369.547 20.05C369.547 19.166 369.649 18.3557 369.853 17.619C370.057 16.871 370.363 16.225 370.771 15.681C371.19 15.137 371.717 14.712 372.352 14.406C372.987 14.1 373.735 13.947 374.596 13.947C375.457 13.947 376.205 14.0887 376.84 14.372C377.475 14.6553 378.002 15.0633 378.421 15.596C378.84 16.1287 379.152 16.7747 379.356 17.534C379.56 18.282 379.662 19.1207 379.662 20.05C379.662 20.934 379.56 21.75 379.356 22.498C379.163 23.2347 378.857 23.875 378.438 24.419C378.03 24.963 377.509 25.388 376.874 25.694C376.239 26 375.491 26.153 374.63 26.153C373.814 26.153 373.089 26 372.454 25.694C371.819 25.388 371.287 24.963 370.856 24.419C370.425 23.875 370.097 23.2347 369.87 22.498C369.655 21.75 369.547 20.934 369.547 20.05ZM371.043 20.05C371.043 21.5007 371.36 22.6397 371.995 23.467C372.63 24.2943 373.508 24.708 374.63 24.708C375.854 24.708 376.749 24.2943 377.316 23.467C377.883 22.6397 378.166 21.5007 378.166 20.05C378.166 18.5993 377.877 17.4603 377.299 16.633C376.721 15.8057 375.82 15.392 374.596 15.392C373.984 15.392 373.457 15.4997 373.015 15.715C372.573 15.9303 372.205 16.242 371.91 16.65C371.615 17.058 371.394 17.551 371.247 18.129C371.111 18.6957 371.043 19.336 371.043 20.05Z" fill="#222429"/>
</svg>
