<svg viewBox="0 0 483 352" fill="none" xmlns="http://www.w3.org/2000/svg">
<path d="M42.9 16.39C43.65 14.74 45.27 13.06 48.3 13.06C50.94 13.06 52.41 14.08 52.41 15.73C52.41 17.41 50.85 18.7 47.85 18.7H45.6V21.82H48.33C51.03 21.82 52.98 22.57 52.98 24.79C52.98 26.89 51.42 28.12 48.51 28.12C45.21 28.12 43.5 26.38 42.66 24.31L39.51 25.66C40.74 29.41 44.04 31.36 48.6 31.36C53.16 31.36 56.52 28.87 56.52 24.76C56.52 21.7 54.57 20.2 52.5 19.84C54.66 19.09 55.95 17.41 55.95 15.13C55.95 11.77 52.83 9.64 48.63 9.64C43.92 9.64 41.13 11.95 39.99 15.1L42.9 16.39ZM66.6593 18.76C63.9593 18.76 62.3093 17.47 62.3093 15.76C62.3093 13.87 63.8993 12.76 67.0493 12.76C70.3493 12.76 71.8493 13.87 71.8493 15.76C71.8493 17.62 70.0193 18.76 67.5593 18.76H66.6593ZM67.4993 21.7C70.6493 21.7 72.4793 22.9 72.4793 24.94C72.4793 26.95 70.7093 28.24 67.0793 28.24C63.4493 28.24 61.6493 26.86 61.6493 24.88C61.6493 23.11 63.5393 21.7 66.7793 21.7H67.4993ZM67.1093 31.36C72.6593 31.36 76.0193 29.02 76.0193 25.09C76.0193 22.72 74.9693 20.89 72.2693 19.99C74.2493 19.03 75.3893 17.53 75.3893 15.58C75.3893 12.07 72.5393 9.64 67.0793 9.64C61.7693 9.64 58.7693 12.07 58.7693 15.58C58.7693 17.41 59.7893 19.27 61.9793 20.11C59.6093 20.95 58.1093 22.9 58.1093 25.21C58.1093 28.99 61.4093 31.36 67.1093 31.36ZM81.6301 30.28L82.8941 31.256L91.7101 20.568L90.4781 19.544L81.6301 30.28ZM80.3661 22.456C80.3661 24.04 81.6301 25.16 83.2941 25.16C84.9421 25.16 86.2061 24.04 86.2061 22.456C86.2061 20.856 84.9421 19.736 83.2941 19.736C81.6301 19.736 80.3661 20.856 80.3661 22.456ZM81.9981 22.456C81.9981 21.64 82.5901 21.176 83.2941 21.176C83.9661 21.176 84.5741 21.64 84.5741 22.456C84.5741 23.256 83.9821 23.736 83.2941 23.736C82.6221 23.736 81.9981 23.256 81.9981 22.456ZM87.1341 28.36C87.1341 29.944 88.3981 31.08 90.0621 31.08C91.7101 31.08 92.9741 29.944 92.9741 28.36C92.9741 26.76 91.7101 25.656 90.0621 25.656C88.3981 25.656 87.1341 26.76 87.1341 28.36ZM88.7661 28.36C88.7661 27.56 89.3581 27.08 90.0621 27.08C90.7341 27.08 91.3421 27.56 91.3421 28.36C91.3421 29.176 90.7501 29.64 90.0621 29.64C89.3901 29.64 88.7661 29.176 88.7661 28.36Z" fill="#5FAF2D"/>
<path d="M4.784 46.032L0.224 40.8H2.608L6.864 45.616V40.8H8.816V45.632L13.04 40.8H15.456L10.864 45.936L15.504 52H13.168L9.344 46.976L8.816 47.536V52H6.864V47.536L6.304 46.96L2.416 52H0.176L4.784 46.032ZM17.0315 40.8H25.3835V42.624H18.9835V45.456H24.7915V47.184H18.9835V50.176H25.5435V52H17.0315V40.8ZM35.6379 47.232H29.7179V52H27.7659V40.8H29.7179V45.408H35.6379V40.8H37.5899V52H35.6379V47.232ZM40.2815 40.8H42.2335V50.176H45.8975V40.8H47.8495V50.176H51.5135V40.8H53.4655V50.176H54.8895V54H53.0335V52H40.2815V40.8ZM56.4846 52V40.8H58.4366V48.72L64.6446 40.8H66.3086V52H64.3566V44.08L58.1326 52H56.4846ZM76.8879 47.232H70.9679V52H69.0159V40.8H70.9679V45.408H76.8879V40.8H78.8399V52H76.8879V47.232ZM91.4195 40.8H93.3715V52H91.4195V40.8ZM83.4835 46.56V50.176H85.6275C87.3448 50.176 88.2035 49.5467 88.2035 48.288C88.2035 47.136 87.3555 46.56 85.6595 46.56H83.4835ZM81.5315 40.8H83.4835V44.736H85.7075C87.2222 44.736 88.3528 45.0453 89.0995 45.664C89.8462 46.2827 90.2195 47.152 90.2195 48.272C90.2195 49.5093 89.8142 50.4427 89.0035 51.072C88.2035 51.6907 87.0622 52 85.5795 52H81.5315V40.8Z" fill="#5FAF2D"/>
<path d="M113.492 143.8H115.444V149.016L120.596 143.8H123.108L118.148 148.776L123.412 155H120.884L116.644 150.04L115.444 151.256V155H113.492V143.8ZM128.639 143.784H130.351L135.215 155H133.167L132.111 152.552H126.815L125.759 155H123.759L128.639 143.784ZM131.407 150.824L129.455 146.28L127.519 150.824H131.407ZM135.712 153.176H136.912C137.35 152.419 137.68 151.432 137.904 150.216C138.139 148.989 138.256 147.597 138.256 146.04V143.8H146.16V153.176H147.568V157H145.712V155H137.568V157H135.712V153.176ZM140.112 146.04C140.112 146.765 140.086 147.475 140.032 148.168C139.979 148.861 139.899 149.517 139.792 150.136C139.696 150.755 139.574 151.325 139.424 151.848C139.286 152.371 139.126 152.813 138.944 153.176H144.208V145.624H140.112V146.04ZM149.18 155V143.8H153.756C154.695 143.8 155.468 143.907 156.076 144.12C156.684 144.333 157.159 144.616 157.5 144.968C157.841 145.309 158.076 145.699 158.204 146.136C158.343 146.563 158.412 146.995 158.412 147.432C158.412 147.923 158.332 148.397 158.172 148.856C158.012 149.304 157.745 149.704 157.372 150.056C156.999 150.408 156.508 150.691 155.9 150.904C155.292 151.107 154.545 151.208 153.66 151.208H151.132V155H149.18ZM151.132 145.624V149.384H153.708C154.636 149.384 155.313 149.208 155.74 148.856C156.177 148.504 156.396 148.045 156.396 147.48C156.396 147.213 156.348 146.968 156.252 146.744C156.156 146.509 156.001 146.312 155.788 146.152C155.585 145.981 155.319 145.853 154.988 145.768C154.657 145.672 154.252 145.624 153.772 145.624H151.132ZM159.617 149.4C159.617 148.568 159.761 147.8 160.049 147.096C160.348 146.392 160.753 145.784 161.265 145.272C161.788 144.749 162.401 144.344 163.105 144.056C163.82 143.757 164.593 143.608 165.425 143.608C166.246 143.608 167.009 143.752 167.713 144.04C168.417 144.317 169.03 144.712 169.553 145.224C170.076 145.736 170.481 146.349 170.769 147.064C171.068 147.768 171.217 148.547 171.217 149.4C171.217 150.243 171.068 151.021 170.769 151.736C170.481 152.44 170.076 153.048 169.553 153.56C169.03 154.072 168.417 154.472 167.713 154.76C167.009 155.048 166.246 155.192 165.425 155.192C164.593 155.192 163.825 155.053 163.121 154.776C162.417 154.488 161.804 154.088 161.281 153.576C160.758 153.064 160.348 152.456 160.049 151.752C159.761 151.037 159.617 150.253 159.617 149.4ZM161.633 149.4C161.633 149.976 161.729 150.509 161.921 151C162.124 151.48 162.396 151.896 162.737 152.248C163.078 152.6 163.478 152.877 163.937 153.08C164.396 153.272 164.892 153.368 165.425 153.368C165.969 153.368 166.47 153.272 166.929 153.08C167.398 152.877 167.798 152.6 168.129 152.248C168.47 151.896 168.732 151.48 168.913 151C169.105 150.509 169.201 149.976 169.201 149.4C169.201 148.824 169.1 148.296 168.897 147.816C168.705 147.325 168.438 146.904 168.097 146.552C167.756 146.2 167.356 145.928 166.897 145.736C166.438 145.533 165.948 145.432 165.425 145.432C164.892 145.432 164.396 145.533 163.937 145.736C163.478 145.928 163.078 146.2 162.737 146.552C162.396 146.904 162.124 147.325 161.921 147.816C161.729 148.296 161.633 148.824 161.633 149.4ZM173.227 143.8H178.107C178.853 143.8 179.477 143.869 179.979 144.008C180.491 144.147 180.896 144.344 181.195 144.6C181.504 144.845 181.723 145.139 181.851 145.48C181.979 145.821 182.043 146.2 182.043 146.616C182.043 147.213 181.909 147.72 181.643 148.136C181.376 148.541 180.987 148.856 180.475 149.08C181.083 149.229 181.557 149.533 181.899 149.992C182.251 150.44 182.427 151.027 182.427 151.752C182.427 152.328 182.32 152.824 182.107 153.24C181.893 153.645 181.589 153.981 181.195 154.248C180.811 154.504 180.347 154.696 179.803 154.824C179.259 154.941 178.661 155 178.011 155H173.227V143.8ZM175.179 150.136V153.272H177.963C178.805 153.272 179.424 153.149 179.819 152.904C180.213 152.648 180.411 152.232 180.411 151.656C180.411 151.144 180.224 150.765 179.851 150.52C179.488 150.264 178.891 150.136 178.059 150.136H175.179ZM175.179 145.528V148.472H178.027C178.667 148.472 179.157 148.339 179.499 148.072C179.851 147.805 180.027 147.443 180.027 146.984C180.027 146.483 179.867 146.115 179.547 145.88C179.237 145.645 178.677 145.528 177.867 145.528H175.179ZM194.38 143.8H196.332V155H194.38V143.8ZM186.444 149.56V153.176H188.588C190.306 153.176 191.164 152.547 191.164 151.288C191.164 150.136 190.316 149.56 188.62 149.56H186.444ZM184.492 143.8H186.444V147.736H188.668C190.183 147.736 191.314 148.045 192.06 148.664C192.807 149.283 193.18 150.152 193.18 151.272C193.18 152.509 192.775 153.443 191.964 154.072C191.164 154.691 190.023 155 188.54 155H184.492V143.8ZM199.024 155V143.8H200.976V151.72L207.184 143.8H208.848V155H206.896V147.08L200.672 155H199.024ZM202.544 140.68C202.746 141.363 203.216 141.704 203.952 141.704C204.293 141.704 204.592 141.619 204.848 141.448C205.104 141.277 205.258 141.021 205.312 140.68H207.008C206.976 141.021 206.885 141.341 206.736 141.64C206.586 141.928 206.378 142.184 206.112 142.408C205.856 142.621 205.546 142.792 205.184 142.92C204.832 143.048 204.432 143.112 203.984 143.112C203.504 143.112 203.082 143.053 202.72 142.936C202.357 142.808 202.048 142.637 201.792 142.424C201.536 142.2 201.328 141.939 201.168 141.64C201.018 141.341 200.917 141.021 200.864 140.68H202.544ZM226.075 151.96C225.862 152.461 225.585 152.915 225.243 153.32C224.902 153.715 224.507 154.051 224.059 154.328C223.622 154.605 223.137 154.819 222.603 154.968C222.07 155.117 221.51 155.192 220.923 155.192C220.091 155.192 219.323 155.048 218.619 154.76C217.915 154.472 217.307 154.072 216.795 153.56C216.283 153.048 215.883 152.44 215.595 151.736C215.318 151.021 215.179 150.243 215.179 149.4C215.179 148.568 215.323 147.8 215.611 147.096C215.899 146.381 216.299 145.768 216.811 145.256C217.334 144.733 217.953 144.328 218.667 144.04C219.382 143.752 220.161 143.608 221.003 143.608C221.579 143.608 222.129 143.688 222.651 143.848C223.174 143.997 223.654 144.216 224.091 144.504C224.539 144.781 224.923 145.123 225.243 145.528C225.574 145.923 225.825 146.36 225.995 146.84L224.299 147.448C223.574 146.104 222.475 145.432 221.003 145.432C220.438 145.432 219.921 145.528 219.451 145.72C218.993 145.912 218.593 146.184 218.251 146.536C217.921 146.888 217.659 147.309 217.467 147.8C217.286 148.28 217.195 148.813 217.195 149.4C217.195 149.976 217.291 150.509 217.483 151C217.675 151.48 217.937 151.896 218.267 152.248C218.609 152.6 219.009 152.877 219.467 153.08C219.937 153.272 220.449 153.368 221.003 153.368C221.761 153.368 222.433 153.192 223.019 152.84C223.606 152.488 224.059 151.992 224.379 151.352L226.075 151.96ZM227.07 149.4C227.07 148.568 227.214 147.8 227.502 147.096C227.801 146.392 228.206 145.784 228.718 145.272C229.241 144.749 229.854 144.344 230.558 144.056C231.273 143.757 232.046 143.608 232.878 143.608C233.699 143.608 234.462 143.752 235.166 144.04C235.87 144.317 236.483 144.712 237.006 145.224C237.529 145.736 237.934 146.349 238.222 147.064C238.521 147.768 238.67 148.547 238.67 149.4C238.67 150.243 238.521 151.021 238.222 151.736C237.934 152.44 237.529 153.048 237.006 153.56C236.483 154.072 235.87 154.472 235.166 154.76C234.462 155.048 233.699 155.192 232.878 155.192C232.046 155.192 231.278 155.053 230.574 154.776C229.87 154.488 229.257 154.088 228.734 153.576C228.211 153.064 227.801 152.456 227.502 151.752C227.214 151.037 227.07 150.253 227.07 149.4ZM229.086 149.4C229.086 149.976 229.182 150.509 229.374 151C229.577 151.48 229.849 151.896 230.19 152.248C230.531 152.6 230.931 152.877 231.39 153.08C231.849 153.272 232.345 153.368 232.878 153.368C233.422 153.368 233.923 153.272 234.382 153.08C234.851 152.877 235.251 152.6 235.582 152.248C235.923 151.896 236.185 151.48 236.366 151C236.558 150.509 236.654 149.976 236.654 149.4C236.654 148.824 236.553 148.296 236.35 147.816C236.158 147.325 235.891 146.904 235.55 146.552C235.209 146.2 234.809 145.928 234.35 145.736C233.891 145.533 233.401 145.432 232.878 145.432C232.345 145.432 231.849 145.533 231.39 145.736C230.931 145.928 230.531 146.2 230.19 146.552C229.849 146.904 229.577 147.325 229.374 147.816C229.182 148.296 229.086 148.824 229.086 149.4ZM251.044 151.96C250.831 152.461 250.554 152.915 250.212 153.32C249.871 153.715 249.476 154.051 249.028 154.328C248.591 154.605 248.106 154.819 247.572 154.968C247.039 155.117 246.479 155.192 245.892 155.192C245.06 155.192 244.292 155.048 243.588 154.76C242.884 154.472 242.276 154.072 241.764 153.56C241.252 153.048 240.852 152.44 240.564 151.736C240.287 151.021 240.148 150.243 240.148 149.4C240.148 148.568 240.292 147.8 240.58 147.096C240.868 146.381 241.268 145.768 241.78 145.256C242.303 144.733 242.922 144.328 243.636 144.04C244.351 143.752 245.13 143.608 245.972 143.608C246.548 143.608 247.098 143.688 247.62 143.848C248.143 143.997 248.623 144.216 249.06 144.504C249.508 144.781 249.892 145.123 250.212 145.528C250.543 145.923 250.794 146.36 250.964 146.84L249.268 147.448C248.543 146.104 247.444 145.432 245.972 145.432C245.407 145.432 244.89 145.528 244.42 145.72C243.962 145.912 243.562 146.184 243.22 146.536C242.89 146.888 242.628 147.309 242.436 147.8C242.255 148.28 242.164 148.813 242.164 149.4C242.164 149.976 242.26 150.509 242.452 151C242.644 151.48 242.906 151.896 243.236 152.248C243.578 152.6 243.978 152.877 244.436 153.08C244.906 153.272 245.418 153.368 245.972 153.368C246.73 153.368 247.402 153.192 247.988 152.84C248.575 152.488 249.028 151.992 249.348 151.352L251.044 151.96ZM251.529 143.8H260.921V145.624H257.193V155H255.241V145.624H251.529V143.8ZM264.749 143.784H266.461L271.325 155H269.277L268.221 152.552H262.925L261.869 155H259.869L264.749 143.784ZM267.517 150.824L265.565 146.28L263.629 150.824H267.517ZM272.727 143.8H277.607C278.353 143.8 278.977 143.869 279.479 144.008C279.991 144.147 280.396 144.344 280.695 144.6C281.004 144.845 281.223 145.139 281.351 145.48C281.479 145.821 281.543 146.2 281.543 146.616C281.543 147.213 281.409 147.72 281.143 148.136C280.876 148.541 280.487 148.856 279.975 149.08C280.583 149.229 281.057 149.533 281.399 149.992C281.751 150.44 281.927 151.027 281.927 151.752C281.927 152.328 281.82 152.824 281.607 153.24C281.393 153.645 281.089 153.981 280.695 154.248C280.311 154.504 279.847 154.696 279.303 154.824C278.759 154.941 278.161 155 277.511 155H272.727V143.8ZM274.679 150.136V153.272H277.463C278.305 153.272 278.924 153.149 279.319 152.904C279.713 152.648 279.911 152.232 279.911 151.656C279.911 151.144 279.724 150.765 279.351 150.52C278.988 150.264 278.391 150.136 277.559 150.136H274.679ZM274.679 145.528V148.472H277.527C278.167 148.472 278.657 148.339 278.999 148.072C279.351 147.805 279.527 147.443 279.527 146.984C279.527 146.483 279.367 146.115 279.047 145.88C278.737 145.645 278.177 145.528 277.367 145.528H274.679ZM288.305 143.8H293.185C293.932 143.8 294.556 143.869 295.057 144.008C295.569 144.147 295.974 144.344 296.273 144.6C296.582 144.845 296.801 145.139 296.929 145.48C297.057 145.821 297.121 146.2 297.121 146.616C297.121 147.213 296.988 147.72 296.721 148.136C296.454 148.541 296.065 148.856 295.553 149.08C296.161 149.229 296.636 149.533 296.977 149.992C297.329 150.44 297.505 151.027 297.505 151.752C297.505 152.328 297.398 152.824 297.185 153.24C296.972 153.645 296.668 153.981 296.273 154.248C295.889 154.504 295.425 154.696 294.881 154.824C294.337 154.941 293.74 155 293.089 155H288.305V143.8ZM290.257 150.136V153.272H293.041C293.884 153.272 294.502 153.149 294.897 152.904C295.292 152.648 295.489 152.232 295.489 151.656C295.489 151.144 295.302 150.765 294.929 150.52C294.566 150.264 293.969 150.136 293.137 150.136H290.257ZM290.257 145.528V148.472H293.105C293.745 148.472 294.236 148.339 294.577 148.072C294.929 147.805 295.105 147.443 295.105 146.984C295.105 146.483 294.945 146.115 294.625 145.88C294.316 145.645 293.756 145.528 292.945 145.528H290.257ZM309.459 143.8H311.411V155H309.459V143.8ZM301.523 149.56V153.176H303.667C305.384 153.176 306.243 152.547 306.243 151.288C306.243 150.136 305.395 149.56 303.699 149.56H301.523ZM299.571 143.8H301.523V147.736H303.747C305.261 147.736 306.392 148.045 307.139 148.664C307.885 149.283 308.259 150.152 308.259 151.272C308.259 152.509 307.853 153.443 307.043 154.072C306.243 154.691 305.101 155 303.619 155H299.571V143.8ZM324.31 151.96C324.096 152.461 323.819 152.915 323.478 153.32C323.136 153.715 322.742 154.051 322.294 154.328C321.856 154.605 321.371 154.819 320.838 154.968C320.304 155.117 319.744 155.192 319.158 155.192C318.326 155.192 317.558 155.048 316.854 154.76C316.15 154.472 315.542 154.072 315.03 153.56C314.518 153.048 314.118 152.44 313.83 151.736C313.552 151.021 313.414 150.243 313.414 149.4C313.414 148.568 313.558 147.8 313.846 147.096C314.134 146.381 314.534 145.768 315.046 145.256C315.568 144.733 316.187 144.328 316.902 144.04C317.616 143.752 318.395 143.608 319.238 143.608C319.814 143.608 320.363 143.688 320.886 143.848C321.408 143.997 321.888 144.216 322.326 144.504C322.774 144.781 323.158 145.123 323.478 145.528C323.808 145.923 324.059 146.36 324.23 146.84L322.534 147.448C321.808 146.104 320.71 145.432 319.238 145.432C318.672 145.432 318.155 145.528 317.686 145.72C317.227 145.912 316.827 146.184 316.486 146.536C316.155 146.888 315.894 147.309 315.702 147.8C315.52 148.28 315.43 148.813 315.43 149.4C315.43 149.976 315.526 150.509 315.718 151C315.91 151.48 316.171 151.896 316.502 152.248C316.843 152.6 317.243 152.877 317.702 153.08C318.171 153.272 318.683 153.368 319.238 153.368C319.995 153.368 320.667 153.192 321.254 152.84C321.84 152.488 322.294 151.992 322.614 151.352L324.31 151.96ZM326.149 143.8H328.101V153.176H331.765V143.8H333.717V153.176H337.381V143.8H339.333V155H326.149V143.8ZM342.024 143.8H350.376V145.624H343.976V148.456H349.784V150.184H343.976V153.176H350.536V155H342.024V143.8ZM352.758 143.8H360.95V145.624H354.71V155H352.758V143.8ZM361.586 149.4C361.586 148.568 361.73 147.8 362.018 147.096C362.316 146.392 362.722 145.784 363.234 145.272C363.756 144.749 364.37 144.344 365.074 144.056C365.788 143.757 366.562 143.608 367.394 143.608C368.215 143.608 368.978 143.752 369.682 144.04C370.386 144.317 370.999 144.712 371.522 145.224C372.044 145.736 372.45 146.349 372.738 147.064C373.036 147.768 373.186 148.547 373.186 149.4C373.186 150.243 373.036 151.021 372.738 151.736C372.45 152.44 372.044 153.048 371.522 153.56C370.999 154.072 370.386 154.472 369.682 154.76C368.978 155.048 368.215 155.192 367.394 155.192C366.562 155.192 365.794 155.053 365.09 154.776C364.386 154.488 363.772 154.088 363.25 153.576C362.727 153.064 362.316 152.456 362.018 151.752C361.73 151.037 361.586 150.253 361.586 149.4ZM363.602 149.4C363.602 149.976 363.698 150.509 363.89 151C364.092 151.48 364.364 151.896 364.706 152.248C365.047 152.6 365.447 152.877 365.906 153.08C366.364 153.272 366.86 153.368 367.394 153.368C367.938 153.368 368.439 153.272 368.898 153.08C369.367 152.877 369.767 152.6 370.098 152.248C370.439 151.896 370.7 151.48 370.882 151C371.074 150.509 371.17 149.976 371.17 149.4C371.17 148.824 371.068 148.296 370.866 147.816C370.674 147.325 370.407 146.904 370.066 146.552C369.724 146.2 369.324 145.928 368.866 145.736C368.407 145.533 367.916 145.432 367.394 145.432C366.86 145.432 366.364 145.533 365.906 145.736C365.447 145.928 365.047 146.2 364.706 146.552C364.364 146.904 364.092 147.325 363.89 147.816C363.698 148.296 363.602 148.824 363.602 149.4ZM142.547 173V161.8H147.123C148.062 161.8 148.835 161.907 149.443 162.12C150.051 162.333 150.526 162.616 150.867 162.968C151.208 163.309 151.443 163.699 151.571 164.136C151.71 164.563 151.779 164.995 151.779 165.432C151.779 165.923 151.699 166.397 151.539 166.856C151.379 167.304 151.112 167.704 150.739 168.056C150.366 168.408 149.875 168.691 149.267 168.904C148.659 169.107 147.912 169.208 147.027 169.208H144.499V173H142.547ZM144.499 163.624V167.384H147.075C148.003 167.384 148.68 167.208 149.107 166.856C149.544 166.504 149.763 166.045 149.763 165.48C149.763 165.213 149.715 164.968 149.619 164.744C149.523 164.509 149.368 164.312 149.155 164.152C148.952 163.981 148.686 163.853 148.355 163.768C148.024 163.672 147.619 163.624 147.139 163.624H144.499ZM155.922 173.192C155.772 173.192 155.602 173.181 155.41 173.16C155.228 173.149 155.058 173.128 154.898 173.096V171.224C155.068 171.267 155.234 171.304 155.394 171.336C155.564 171.357 155.708 171.368 155.826 171.368C155.943 171.368 156.05 171.352 156.146 171.32C156.242 171.277 156.332 171.213 156.418 171.128C156.503 171.032 156.588 170.904 156.674 170.744C156.759 170.584 156.86 170.381 156.978 170.136L151.986 161.8H154.354L157.954 168.136L160.962 161.8H162.978L158.53 171.048C158.338 171.453 158.151 171.795 157.97 172.072C157.788 172.339 157.596 172.557 157.394 172.728C157.191 172.888 156.967 173.005 156.722 173.08C156.487 173.155 156.22 173.192 155.922 173.192ZM164.407 161.8H166.359V167.016L171.51 161.8H174.023L169.063 166.776L174.327 173H171.799L167.559 168.04L166.359 169.256V173H164.407V161.8ZM174.312 167.4C174.312 166.568 174.456 165.8 174.744 165.096C175.043 164.392 175.448 163.784 175.96 163.272C176.483 162.749 177.096 162.344 177.8 162.056C178.515 161.757 179.288 161.608 180.12 161.608C180.942 161.608 181.704 161.752 182.408 162.04C183.112 162.317 183.726 162.712 184.248 163.224C184.771 163.736 185.176 164.349 185.464 165.064C185.763 165.768 185.912 166.547 185.912 167.4C185.912 168.243 185.763 169.021 185.464 169.736C185.176 170.44 184.771 171.048 184.248 171.56C183.726 172.072 183.112 172.472 182.408 172.76C181.704 173.048 180.942 173.192 180.12 173.192C179.288 173.192 178.52 173.053 177.816 172.776C177.112 172.488 176.499 172.088 175.976 171.576C175.454 171.064 175.043 170.456 174.744 169.752C174.456 169.037 174.312 168.253 174.312 167.4ZM176.328 167.4C176.328 167.976 176.424 168.509 176.616 169C176.819 169.48 177.091 169.896 177.432 170.248C177.774 170.6 178.174 170.877 178.632 171.08C179.091 171.272 179.587 171.368 180.12 171.368C180.664 171.368 181.166 171.272 181.624 171.08C182.094 170.877 182.494 170.6 182.824 170.248C183.166 169.896 183.427 169.48 183.608 169C183.8 168.509 183.896 167.976 183.896 167.4C183.896 166.824 183.795 166.296 183.592 165.816C183.4 165.325 183.134 164.904 182.792 164.552C182.451 164.2 182.051 163.928 181.592 163.736C181.134 163.533 180.643 163.432 180.12 163.432C179.587 163.432 179.091 163.533 178.632 163.736C178.174 163.928 177.774 164.2 177.432 164.552C177.091 164.904 176.819 165.325 176.616 165.816C176.424 166.296 176.328 166.824 176.328 167.4ZM187.922 161.8H192.802C193.549 161.8 194.173 161.869 194.674 162.008C195.186 162.147 195.591 162.344 195.89 162.6C196.199 162.845 196.418 163.139 196.546 163.48C196.674 163.821 196.738 164.2 196.738 164.616C196.738 165.213 196.605 165.72 196.338 166.136C196.071 166.541 195.682 166.856 195.17 167.08C195.778 167.229 196.253 167.533 196.594 167.992C196.946 168.44 197.122 169.027 197.122 169.752C197.122 170.328 197.015 170.824 196.802 171.24C196.589 171.645 196.285 171.981 195.89 172.248C195.506 172.504 195.042 172.696 194.498 172.824C193.954 172.941 193.357 173 192.706 173H187.922V161.8ZM189.874 168.136V171.272H192.658C193.501 171.272 194.119 171.149 194.514 170.904C194.909 170.648 195.106 170.232 195.106 169.656C195.106 169.144 194.919 168.765 194.546 168.52C194.183 168.264 193.586 168.136 192.754 168.136H189.874ZM189.874 163.528V166.472H192.722C193.362 166.472 193.853 166.339 194.194 166.072C194.546 165.805 194.722 165.443 194.722 164.984C194.722 164.483 194.562 164.115 194.242 163.88C193.933 163.645 193.373 163.528 192.562 163.528H189.874ZM198.5 167.4C198.5 166.568 198.644 165.8 198.932 165.096C199.23 164.392 199.636 163.784 200.148 163.272C200.67 162.749 201.284 162.344 201.988 162.056C202.702 161.757 203.476 161.608 204.308 161.608C205.129 161.608 205.892 161.752 206.596 162.04C207.3 162.317 207.913 162.712 208.436 163.224C208.958 163.736 209.364 164.349 209.652 165.064C209.95 165.768 210.1 166.547 210.1 167.4C210.1 168.243 209.95 169.021 209.652 169.736C209.364 170.44 208.958 171.048 208.436 171.56C207.913 172.072 207.3 172.472 206.596 172.76C205.892 173.048 205.129 173.192 204.308 173.192C203.476 173.192 202.708 173.053 202.004 172.776C201.3 172.488 200.686 172.088 200.164 171.576C199.641 171.064 199.23 170.456 198.932 169.752C198.644 169.037 198.5 168.253 198.5 167.4ZM200.516 167.4C200.516 167.976 200.612 168.509 200.804 169C201.006 169.48 201.278 169.896 201.62 170.248C201.961 170.6 202.361 170.877 202.82 171.08C203.278 171.272 203.774 171.368 204.308 171.368C204.852 171.368 205.353 171.272 205.812 171.08C206.281 170.877 206.681 170.6 207.012 170.248C207.353 169.896 207.614 169.48 207.796 169C207.988 168.509 208.084 167.976 208.084 167.4C208.084 166.824 207.982 166.296 207.78 165.816C207.588 165.325 207.321 164.904 206.98 164.552C206.638 164.2 206.238 163.928 205.78 163.736C205.321 163.533 204.83 163.432 204.308 163.432C203.774 163.432 203.278 163.533 202.82 163.736C202.361 163.928 201.961 164.2 201.62 164.552C201.278 164.904 201.006 165.325 200.804 165.816C200.612 166.296 200.516 166.824 200.516 167.4ZM210.455 171.176H211.655C212.092 170.419 212.423 169.432 212.647 168.216C212.881 166.989 212.999 165.597 212.999 164.04V161.8H220.903V171.176H222.311V175H220.455V173H212.311V175H210.455V171.176ZM214.855 164.04C214.855 164.765 214.828 165.475 214.775 166.168C214.721 166.861 214.641 167.517 214.535 168.136C214.439 168.755 214.316 169.325 214.167 169.848C214.028 170.371 213.868 170.813 213.687 171.176H218.951V163.624H214.855V164.04ZM231.021 169.08H228.269L225.389 173H223.101L226.285 168.76C225.485 168.547 224.861 168.157 224.413 167.592C223.976 167.016 223.757 166.312 223.757 165.48C223.757 164.925 223.848 164.424 224.029 163.976C224.221 163.517 224.504 163.128 224.877 162.808C225.251 162.488 225.715 162.243 226.269 162.072C226.835 161.891 227.491 161.8 228.237 161.8H232.973V173H231.021V169.08ZM231.021 167.256V163.624H228.141C227.704 163.624 227.336 163.672 227.037 163.768C226.739 163.853 226.493 163.981 226.301 164.152C226.12 164.312 225.987 164.509 225.901 164.744C225.816 164.968 225.773 165.213 225.773 165.48C225.773 165.971 225.955 166.392 226.317 166.744C226.691 167.085 227.245 167.256 227.981 167.256H231.021ZM235.657 161.8H237.609V171.176H241.273V161.8H243.225V171.176H246.889V161.8H248.841V171.176H250.265V175H248.409V173H235.657V161.8ZM251.86 161.8H260.212V163.624H253.812V166.456H259.62V168.184H253.812V171.176H260.372V173H251.86V161.8ZM262.594 161.8H270.786V163.624H264.546V173H262.594V161.8ZM271.422 167.4C271.422 166.568 271.566 165.8 271.854 165.096C272.152 164.392 272.558 163.784 273.07 163.272C273.592 162.749 274.206 162.344 274.91 162.056C275.624 161.757 276.398 161.608 277.23 161.608C278.051 161.608 278.814 161.752 279.518 162.04C280.222 162.317 280.835 162.712 281.358 163.224C281.88 163.736 282.286 164.349 282.574 165.064C282.872 165.768 283.022 166.547 283.022 167.4C283.022 168.243 282.872 169.021 282.574 169.736C282.286 170.44 281.88 171.048 281.358 171.56C280.835 172.072 280.222 172.472 279.518 172.76C278.814 173.048 278.051 173.192 277.23 173.192C276.398 173.192 275.63 173.053 274.926 172.776C274.222 172.488 273.608 172.088 273.086 171.576C272.563 171.064 272.152 170.456 271.854 169.752C271.566 169.037 271.422 168.253 271.422 167.4ZM273.438 167.4C273.438 167.976 273.534 168.509 273.726 169C273.928 169.48 274.2 169.896 274.542 170.248C274.883 170.6 275.283 170.877 275.742 171.08C276.2 171.272 276.696 171.368 277.23 171.368C277.774 171.368 278.275 171.272 278.734 171.08C279.203 170.877 279.603 170.6 279.934 170.248C280.275 169.896 280.536 169.48 280.718 169C280.91 168.509 281.006 167.976 281.006 167.4C281.006 166.824 280.904 166.296 280.702 165.816C280.51 165.325 280.243 164.904 279.902 164.552C279.56 164.2 279.16 163.928 278.702 163.736C278.243 163.533 277.752 163.432 277.23 163.432C276.696 163.432 276.2 163.533 275.742 163.736C275.283 163.928 274.883 164.2 274.542 164.552C274.2 164.904 273.928 165.325 273.726 165.816C273.534 166.296 273.438 166.824 273.438 167.4ZM293.552 173.192C292.176 173.192 291.061 172.92 290.208 172.376C289.355 171.832 288.779 171.027 288.48 169.96L290.176 169.352C290.453 170.045 290.843 170.557 291.344 170.888C291.856 171.208 292.523 171.368 293.344 171.368C295.104 171.368 295.984 170.792 295.984 169.64C295.984 169.128 295.787 168.76 295.392 168.536C295.008 168.301 294.395 168.184 293.552 168.184H291.76V166.36H293.248C293.995 166.36 294.571 166.237 294.976 165.992C295.381 165.747 295.584 165.389 295.584 164.92C295.584 163.928 294.773 163.432 293.152 163.432C292.416 163.432 291.803 163.597 291.312 163.928C290.832 164.248 290.475 164.755 290.24 165.448L288.544 164.84C288.843 163.805 289.419 163.011 290.272 162.456C291.125 161.891 292.155 161.608 293.36 161.608C294.693 161.608 295.733 161.88 296.48 162.424C297.227 162.957 297.6 163.709 297.6 164.68C297.6 165.245 297.435 165.741 297.104 166.168C296.773 166.595 296.315 166.915 295.728 167.128C296.464 167.288 297.024 167.581 297.408 168.008C297.803 168.435 298 168.984 298 169.656C298 170.765 297.605 171.635 296.816 172.264C296.037 172.883 294.949 173.192 293.552 173.192ZM300.047 161.8H304.927C305.674 161.8 306.298 161.869 306.799 162.008C307.311 162.147 307.716 162.344 308.015 162.6C308.324 162.845 308.543 163.139 308.671 163.48C308.799 163.821 308.863 164.2 308.863 164.616C308.863 165.213 308.73 165.72 308.463 166.136C308.196 166.541 307.807 166.856 307.295 167.08C307.903 167.229 308.378 167.533 308.719 167.992C309.071 168.44 309.247 169.027 309.247 169.752C309.247 170.328 309.14 170.824 308.927 171.24C308.714 171.645 308.41 171.981 308.015 172.248C307.631 172.504 307.167 172.696 306.623 172.824C306.079 172.941 305.482 173 304.831 173H300.047V161.8ZM301.999 168.136V171.272H304.783C305.626 171.272 306.244 171.149 306.639 170.904C307.034 170.648 307.231 170.232 307.231 169.656C307.231 169.144 307.044 168.765 306.671 168.52C306.308 168.264 305.711 168.136 304.879 168.136H301.999ZM301.999 163.528V166.472H304.847C305.487 166.472 305.978 166.339 306.319 166.072C306.671 165.805 306.847 165.443 306.847 164.984C306.847 164.483 306.687 164.115 306.367 163.88C306.058 163.645 305.498 163.528 304.687 163.528H301.999ZM311.313 161.8H319.665V163.624H313.265V166.456H319.073V168.184H313.265V171.176H319.825V173H311.313V161.8ZM329.919 168.232H323.999V173H322.047V161.8H323.999V166.408H329.919V161.8H331.871V173H329.919V168.232ZM338.163 161.784H339.875L344.739 173H342.691L341.635 170.552H336.339L335.283 173H333.283L338.163 161.784ZM340.931 168.824L338.979 164.28L337.043 168.824H340.931ZM152.012 189.96C151.799 190.461 151.521 190.915 151.18 191.32C150.839 191.715 150.444 192.051 149.996 192.328C149.559 192.605 149.073 192.819 148.54 192.968C148.007 193.117 147.447 193.192 146.86 193.192C146.028 193.192 145.26 193.048 144.556 192.76C143.852 192.472 143.244 192.072 142.732 191.56C142.22 191.048 141.82 190.44 141.532 189.736C141.255 189.021 141.116 188.243 141.116 187.4C141.116 186.568 141.26 185.8 141.548 185.096C141.836 184.381 142.236 183.768 142.748 183.256C143.271 182.733 143.889 182.328 144.604 182.04C145.319 181.752 146.097 181.608 146.94 181.608C147.516 181.608 148.065 181.688 148.588 181.848C149.111 181.997 149.591 182.216 150.028 182.504C150.476 182.781 150.86 183.123 151.18 183.528C151.511 183.923 151.761 184.36 151.932 184.84L150.236 185.448C149.511 184.104 148.412 183.432 146.94 183.432C146.375 183.432 145.857 183.528 145.388 183.72C144.929 183.912 144.529 184.184 144.188 184.536C143.857 184.888 143.596 185.309 143.404 185.8C143.223 186.28 143.132 186.813 143.132 187.4C143.132 187.976 143.228 188.509 143.42 189C143.612 189.48 143.873 189.896 144.204 190.248C144.545 190.6 144.945 190.877 145.404 191.08C145.873 191.272 146.385 191.368 146.94 191.368C147.697 191.368 148.369 191.192 148.956 190.84C149.543 190.488 149.996 189.992 150.316 189.352L152.012 189.96ZM158.163 193V181.8H162.739C163.678 181.8 164.451 181.907 165.059 182.12C165.667 182.333 166.142 182.616 166.483 182.968C166.825 183.309 167.059 183.699 167.187 184.136C167.326 184.563 167.395 184.995 167.395 185.432C167.395 185.923 167.315 186.397 167.155 186.856C166.995 187.304 166.729 187.704 166.355 188.056C165.982 188.408 165.491 188.691 164.883 188.904C164.275 189.107 163.529 189.208 162.643 189.208H160.115V193H158.163ZM160.115 183.624V187.384H162.691C163.619 187.384 164.297 187.208 164.723 186.856C165.161 186.504 165.379 186.045 165.379 185.48C165.379 185.213 165.331 184.968 165.235 184.744C165.139 184.509 164.985 184.312 164.771 184.152C164.569 183.981 164.302 183.853 163.971 183.768C163.641 183.672 163.235 183.624 162.755 183.624H160.115ZM171.685 181.784H173.397L178.261 193H176.213L175.157 190.552H169.861L168.805 193H166.805L171.685 181.784ZM174.453 188.824L172.501 184.28L170.565 188.824H174.453ZM183.653 193.192C182.277 193.192 181.162 192.92 180.309 192.376C179.455 191.832 178.879 191.027 178.581 189.96L180.277 189.352C180.554 190.045 180.943 190.557 181.445 190.888C181.957 191.208 182.623 191.368 183.445 191.368C185.205 191.368 186.085 190.792 186.085 189.64C186.085 189.128 185.887 188.76 185.493 188.536C185.109 188.301 184.495 188.184 183.653 188.184H181.861V186.36H183.349C184.095 186.36 184.671 186.237 185.077 185.992C185.482 185.747 185.685 185.389 185.685 184.92C185.685 183.928 184.874 183.432 183.253 183.432C182.517 183.432 181.903 183.597 181.413 183.928C180.933 184.248 180.575 184.755 180.341 185.448L178.645 184.84C178.943 183.805 179.519 183.011 180.373 182.456C181.226 181.891 182.255 181.608 183.461 181.608C184.794 181.608 185.834 181.88 186.581 182.424C187.327 182.957 187.701 183.709 187.701 184.68C187.701 185.245 187.535 185.741 187.205 186.168C186.874 186.595 186.415 186.915 185.829 187.128C186.565 187.288 187.125 187.581 187.509 188.008C187.903 188.435 188.101 188.984 188.101 189.656C188.101 190.765 187.706 191.635 186.917 192.264C186.138 192.883 185.05 193.192 183.653 193.192ZM198.5 183.608H192.1V186.184H195.188C196.585 186.184 197.62 186.477 198.292 187.064C198.964 187.64 199.3 188.456 199.3 189.512C199.3 190.12 199.193 190.643 198.98 191.08C198.766 191.517 198.462 191.88 198.068 192.168C197.673 192.445 197.193 192.653 196.628 192.792C196.073 192.931 195.449 193 194.756 193H190.148V181.8H198.5V183.608ZM192.1 187.928V191.192H194.932C195.678 191.192 196.254 191.064 196.66 190.808C197.076 190.541 197.284 190.104 197.284 189.496C197.284 188.451 196.521 187.928 194.996 187.928H192.1ZM201.226 193V181.8H203.178V189.72L209.386 181.8H211.05V193H209.098V185.08L202.874 193H201.226ZM213.757 181.8H218.637C219.384 181.8 220.008 181.869 220.509 182.008C221.021 182.147 221.426 182.344 221.725 182.6C222.034 182.845 222.253 183.139 222.381 183.48C222.509 183.821 222.573 184.2 222.573 184.616C222.573 185.213 222.44 185.72 222.173 186.136C221.906 186.541 221.517 186.856 221.005 187.08C221.613 187.229 222.088 187.533 222.429 187.992C222.781 188.44 222.957 189.027 222.957 189.752C222.957 190.328 222.85 190.824 222.637 191.24C222.424 191.645 222.12 191.981 221.725 192.248C221.341 192.504 220.877 192.696 220.333 192.824C219.789 192.941 219.192 193 218.541 193H213.757V181.8ZM215.709 188.136V191.272H218.493C219.336 191.272 219.954 191.149 220.349 190.904C220.744 190.648 220.941 190.232 220.941 189.656C220.941 189.144 220.754 188.765 220.381 188.52C220.018 188.264 219.421 188.136 218.589 188.136H215.709ZM215.709 183.528V186.472H218.557C219.197 186.472 219.688 186.339 220.029 186.072C220.381 185.805 220.557 185.443 220.557 184.984C220.557 184.483 220.397 184.115 220.077 183.88C219.768 183.645 219.208 183.528 218.397 183.528H215.709ZM225.023 181.8H226.975V187.016L232.127 181.8H234.639L229.679 186.776L234.943 193H232.415L228.175 188.04L226.975 189.256V193H225.023V181.8ZM234.928 187.4C234.928 186.568 235.072 185.8 235.36 185.096C235.659 184.392 236.064 183.784 236.576 183.272C237.099 182.749 237.712 182.344 238.416 182.056C239.131 181.757 239.904 181.608 240.736 181.608C241.558 181.608 242.32 181.752 243.024 182.04C243.728 182.317 244.342 182.712 244.864 183.224C245.387 183.736 245.792 184.349 246.08 185.064C246.379 185.768 246.528 186.547 246.528 187.4C246.528 188.243 246.379 189.021 246.08 189.736C245.792 190.44 245.387 191.048 244.864 191.56C244.342 192.072 243.728 192.472 243.024 192.76C242.32 193.048 241.558 193.192 240.736 193.192C239.904 193.192 239.136 193.053 238.432 192.776C237.728 192.488 237.115 192.088 236.592 191.576C236.07 191.064 235.659 190.456 235.36 189.752C235.072 189.037 234.928 188.253 234.928 187.4ZM236.944 187.4C236.944 187.976 237.04 188.509 237.232 189C237.435 189.48 237.707 189.896 238.048 190.248C238.39 190.6 238.79 190.877 239.248 191.08C239.707 191.272 240.203 191.368 240.736 191.368C241.28 191.368 241.782 191.272 242.24 191.08C242.71 190.877 243.11 190.6 243.44 190.248C243.782 189.896 244.043 189.48 244.224 189C244.416 188.509 244.512 187.976 244.512 187.4C244.512 186.824 244.411 186.296 244.208 185.816C244.016 185.325 243.75 184.904 243.408 184.552C243.067 184.2 242.667 183.928 242.208 183.736C241.75 183.533 241.259 183.432 240.736 183.432C240.203 183.432 239.707 183.533 239.248 183.736C238.79 183.928 238.39 184.2 238.048 184.552C237.707 184.904 237.435 185.325 237.232 185.816C237.04 186.296 236.944 186.824 236.944 187.4ZM248.538 193V181.8H250.49V189.72L256.698 181.8H258.362V193H256.41V185.08L250.186 193H248.538ZM252.058 178.68C252.261 179.363 252.73 179.704 253.466 179.704C253.808 179.704 254.106 179.619 254.362 179.448C254.618 179.277 254.773 179.021 254.826 178.68H256.522C256.49 179.021 256.4 179.341 256.25 179.64C256.101 179.928 255.893 180.184 255.626 180.408C255.37 180.621 255.061 180.792 254.698 180.92C254.346 181.048 253.946 181.112 253.498 181.112C253.018 181.112 252.597 181.053 252.234 180.936C251.872 180.808 251.562 180.637 251.306 180.424C251.05 180.2 250.842 179.939 250.682 179.64C250.533 179.341 250.432 179.021 250.378 178.68H252.058ZM273.126 183.624H267.334V193H265.382V181.8H275.078V193H273.126V183.624ZM277.1 187.4C277.1 186.568 277.244 185.8 277.532 185.096C277.831 184.392 278.236 183.784 278.748 183.272C279.271 182.749 279.884 182.344 280.588 182.056C281.303 181.757 282.076 181.608 282.908 181.608C283.73 181.608 284.492 181.752 285.196 182.04C285.9 182.317 286.514 182.712 287.036 183.224C287.559 183.736 287.964 184.349 288.252 185.064C288.551 185.768 288.7 186.547 288.7 187.4C288.7 188.243 288.551 189.021 288.252 189.736C287.964 190.44 287.559 191.048 287.036 191.56C286.514 192.072 285.9 192.472 285.196 192.76C284.492 193.048 283.73 193.192 282.908 193.192C282.076 193.192 281.308 193.053 280.604 192.776C279.9 192.488 279.287 192.088 278.764 191.576C278.242 191.064 277.831 190.456 277.532 189.752C277.244 189.037 277.1 188.253 277.1 187.4ZM279.116 187.4C279.116 187.976 279.212 188.509 279.404 189C279.607 189.48 279.879 189.896 280.22 190.248C280.562 190.6 280.962 190.877 281.42 191.08C281.879 191.272 282.375 191.368 282.908 191.368C283.452 191.368 283.954 191.272 284.412 191.08C284.882 190.877 285.282 190.6 285.612 190.248C285.954 189.896 286.215 189.48 286.396 189C286.588 188.509 286.684 187.976 286.684 187.4C286.684 186.824 286.583 186.296 286.38 185.816C286.188 185.325 285.922 184.904 285.58 184.552C285.239 184.2 284.839 183.928 284.38 183.736C283.922 183.533 283.431 183.432 282.908 183.432C282.375 183.432 281.879 183.533 281.42 183.736C280.962 183.928 280.562 184.2 280.22 184.552C279.879 184.904 279.607 185.325 279.404 185.816C279.212 186.296 279.116 186.824 279.116 187.4ZM302.767 183.624H296.975V193H295.023V181.8H304.719V193H302.767V183.624ZM306.741 187.4C306.741 186.568 306.885 185.8 307.173 185.096C307.472 184.392 307.877 183.784 308.389 183.272C308.912 182.749 309.525 182.344 310.229 182.056C310.944 181.757 311.717 181.608 312.549 181.608C313.37 181.608 314.133 181.752 314.837 182.04C315.541 182.317 316.154 182.712 316.677 183.224C317.2 183.736 317.605 184.349 317.893 185.064C318.192 185.768 318.341 186.547 318.341 187.4C318.341 188.243 318.192 189.021 317.893 189.736C317.605 190.44 317.2 191.048 316.677 191.56C316.154 192.072 315.541 192.472 314.837 192.76C314.133 193.048 313.37 193.192 312.549 193.192C311.717 193.192 310.949 193.053 310.245 192.776C309.541 192.488 308.928 192.088 308.405 191.576C307.882 191.064 307.472 190.456 307.173 189.752C306.885 189.037 306.741 188.253 306.741 187.4ZM308.757 187.4C308.757 187.976 308.853 188.509 309.045 189C309.248 189.48 309.52 189.896 309.861 190.248C310.202 190.6 310.602 190.877 311.061 191.08C311.52 191.272 312.016 191.368 312.549 191.368C313.093 191.368 313.594 191.272 314.053 191.08C314.522 190.877 314.922 190.6 315.253 190.248C315.594 189.896 315.856 189.48 316.037 189C316.229 188.509 316.325 187.976 316.325 187.4C316.325 186.824 316.224 186.296 316.021 185.816C315.829 185.325 315.562 184.904 315.221 184.552C314.88 184.2 314.48 183.928 314.021 183.736C313.562 183.533 313.072 183.432 312.549 183.432C312.016 183.432 311.52 183.533 311.061 183.736C310.602 183.928 310.202 184.2 309.861 184.552C309.52 184.904 309.248 185.325 309.045 185.816C308.853 186.296 308.757 186.824 308.757 187.4ZM327.177 183.624H322.953V184.04C322.953 187.133 322.665 189.432 322.089 190.936C321.523 192.44 320.654 193.192 319.481 193.192C319.395 193.192 319.283 193.187 319.145 193.176C319.006 193.165 318.862 193.149 318.713 193.128V191.256C318.766 191.267 318.819 191.272 318.873 191.272C318.926 191.272 318.979 191.272 319.033 191.272C319.395 191.272 319.699 191.139 319.945 190.872C320.201 190.605 320.409 190.184 320.569 189.608C320.729 189.032 320.846 188.285 320.921 187.368C320.995 186.451 321.033 185.341 321.033 184.04V181.8H329.129V193H327.177V183.624ZM334.475 193.192C334.326 193.192 334.155 193.181 333.963 193.16C333.782 193.149 333.611 193.128 333.451 193.096V191.224C333.622 191.267 333.787 191.304 333.947 191.336C334.118 191.357 334.262 191.368 334.379 191.368C334.497 191.368 334.603 191.352 334.699 191.32C334.795 191.277 334.886 191.213 334.971 191.128C335.057 191.032 335.142 190.904 335.227 190.744C335.313 190.584 335.414 190.381 335.531 190.136L330.539 181.8H332.907L336.507 188.136L339.515 181.8H341.531L337.083 191.048C336.891 191.453 336.705 191.795 336.523 192.072C336.342 192.339 336.15 192.557 335.947 192.728C335.745 192.888 335.521 193.005 335.275 193.08C335.041 193.155 334.774 193.192 334.475 193.192Z" fill="#222429"/>
<path d="M116.582 206.826H112.466V213H111.29V205.72H117.758V213H116.582V206.826ZM119.187 209.346C119.187 208.805 119.28 208.305 119.467 207.848C119.653 207.391 119.915 206.994 120.251 206.658C120.596 206.322 121.002 206.061 121.469 205.874C121.945 205.687 122.472 205.594 123.051 205.594C123.62 205.594 124.138 205.687 124.605 205.874C125.081 206.061 125.487 206.322 125.823 206.658C126.168 206.994 126.434 207.391 126.621 207.848C126.817 208.305 126.915 208.805 126.915 209.346C126.915 209.897 126.821 210.405 126.635 210.872C126.448 211.329 126.182 211.726 125.837 212.062C125.491 212.398 125.081 212.659 124.605 212.846C124.129 213.033 123.606 213.126 123.037 213.126C122.477 213.126 121.959 213.033 121.483 212.846C121.016 212.659 120.61 212.398 120.265 212.062C119.929 211.726 119.663 211.329 119.467 210.872C119.28 210.405 119.187 209.897 119.187 209.346ZM120.419 209.346C120.419 209.738 120.479 210.097 120.601 210.424C120.731 210.751 120.913 211.035 121.147 211.278C121.38 211.511 121.655 211.693 121.973 211.824C122.299 211.955 122.654 212.02 123.037 212.02C123.429 212.02 123.788 211.955 124.115 211.824C124.441 211.693 124.717 211.511 124.941 211.278C125.174 211.045 125.356 210.765 125.487 210.438C125.617 210.102 125.683 209.738 125.683 209.346C125.683 208.954 125.613 208.595 125.473 208.268C125.342 207.941 125.16 207.666 124.927 207.442C124.693 207.209 124.413 207.027 124.087 206.896C123.76 206.765 123.41 206.7 123.037 206.7C122.654 206.7 122.304 206.765 121.987 206.896C121.669 207.017 121.394 207.195 121.161 207.428C120.927 207.661 120.745 207.941 120.615 208.268C120.484 208.595 120.419 208.954 120.419 209.346ZM138.605 211.138C138.306 211.782 137.877 212.277 137.317 212.622C136.757 212.958 136.085 213.126 135.301 213.126C134.741 213.126 134.223 213.033 133.747 212.846C133.28 212.659 132.874 212.398 132.529 212.062C132.193 211.726 131.927 211.329 131.731 210.872C131.544 210.405 131.451 209.897 131.451 209.346C131.451 208.795 131.544 208.291 131.731 207.834C131.927 207.377 132.193 206.985 132.529 206.658C132.874 206.322 133.28 206.061 133.747 205.874C134.223 205.687 134.741 205.594 135.301 205.594C136.094 205.594 136.771 205.767 137.331 206.112C137.9 206.448 138.334 206.938 138.633 207.582L137.569 207.974C137.317 207.554 136.999 207.237 136.617 207.022C136.234 206.807 135.795 206.7 135.301 206.7C134.918 206.7 134.563 206.765 134.237 206.896C133.919 207.027 133.644 207.209 133.411 207.442C133.177 207.675 132.995 207.955 132.865 208.282C132.743 208.599 132.683 208.954 132.683 209.346C132.683 209.738 132.743 210.097 132.865 210.424C132.995 210.751 133.177 211.035 133.411 211.278C133.644 211.511 133.919 211.693 134.237 211.824C134.563 211.955 134.918 212.02 135.301 212.02C135.805 212.02 136.234 211.917 136.589 211.712C136.953 211.507 137.27 211.185 137.541 210.746L138.605 211.138ZM139.305 209.346C139.305 208.805 139.399 208.305 139.585 207.848C139.772 207.391 140.033 206.994 140.369 206.658C140.715 206.322 141.121 206.061 141.587 205.874C142.063 205.687 142.591 205.594 143.169 205.594C143.739 205.594 144.257 205.687 144.723 205.874C145.199 206.061 145.605 206.322 145.941 206.658C146.287 206.994 146.553 207.391 146.739 207.848C146.935 208.305 147.033 208.805 147.033 209.346C147.033 209.897 146.94 210.405 146.753 210.872C146.567 211.329 146.301 211.726 145.955 212.062C145.61 212.398 145.199 212.659 144.723 212.846C144.247 213.033 143.725 213.126 143.155 213.126C142.595 213.126 142.077 213.033 141.601 212.846C141.135 212.659 140.729 212.398 140.383 212.062C140.047 211.726 139.781 211.329 139.585 210.872C139.399 210.405 139.305 209.897 139.305 209.346ZM140.537 209.346C140.537 209.738 140.598 210.097 140.719 210.424C140.85 210.751 141.032 211.035 141.265 211.278C141.499 211.511 141.774 211.693 142.091 211.824C142.418 211.955 142.773 212.02 143.155 212.02C143.547 212.02 143.907 211.955 144.233 211.824C144.56 211.693 144.835 211.511 145.059 211.278C145.293 211.045 145.475 210.765 145.605 210.438C145.736 210.102 145.801 209.738 145.801 209.346C145.801 208.954 145.731 208.595 145.591 208.268C145.461 207.941 145.279 207.666 145.045 207.442C144.812 207.209 144.532 207.027 144.205 206.896C143.879 206.765 143.529 206.7 143.155 206.7C142.773 206.7 142.423 206.765 142.105 206.896C141.788 207.017 141.513 207.195 141.279 207.428C141.046 207.661 140.864 207.941 140.733 208.268C140.603 208.595 140.537 208.954 140.537 209.346ZM155.08 211.138C154.781 211.782 154.352 212.277 153.792 212.622C153.232 212.958 152.56 213.126 151.776 213.126C151.216 213.126 150.698 213.033 150.222 212.846C149.755 212.659 149.349 212.398 149.004 212.062C148.668 211.726 148.402 211.329 148.206 210.872C148.019 210.405 147.926 209.897 147.926 209.346C147.926 208.795 148.019 208.291 148.206 207.834C148.402 207.377 148.668 206.985 149.004 206.658C149.349 206.322 149.755 206.061 150.222 205.874C150.698 205.687 151.216 205.594 151.776 205.594C152.569 205.594 153.246 205.767 153.806 206.112C154.375 206.448 154.809 206.938 155.108 207.582L154.044 207.974C153.792 207.554 153.475 207.237 153.092 207.022C152.709 206.807 152.271 206.7 151.776 206.7C151.393 206.7 151.039 206.765 150.712 206.896C150.395 207.027 150.119 207.209 149.886 207.442C149.653 207.675 149.471 207.955 149.34 208.282C149.219 208.599 149.158 208.954 149.158 209.346C149.158 209.738 149.219 210.097 149.34 210.424C149.471 210.751 149.653 211.035 149.886 211.278C150.119 211.511 150.395 211.693 150.712 211.824C151.039 211.955 151.393 212.02 151.776 212.02C152.28 212.02 152.709 211.917 153.064 211.712C153.428 211.507 153.745 211.185 154.016 210.746L155.08 211.138ZM155.471 205.72H161.967V206.826H159.293V213H158.117V206.826H155.471V205.72ZM162.214 209.346C162.214 208.805 162.307 208.305 162.494 207.848C162.68 207.391 162.942 206.994 163.278 206.658C163.623 206.322 164.029 206.061 164.496 205.874C164.972 205.687 165.499 205.594 166.078 205.594C166.647 205.594 167.165 205.687 167.632 205.874C168.108 206.061 168.514 206.322 168.85 206.658C169.195 206.994 169.461 207.391 169.648 207.848C169.844 208.305 169.942 208.805 169.942 209.346C169.942 209.897 169.848 210.405 169.662 210.872C169.475 211.329 169.209 211.726 168.864 212.062C168.518 212.398 168.108 212.659 167.632 212.846C167.156 213.033 166.633 213.126 166.064 213.126C165.504 213.126 164.986 213.033 164.51 212.846C164.043 212.659 163.637 212.398 163.292 212.062C162.956 211.726 162.69 211.329 162.494 210.872C162.307 210.405 162.214 209.897 162.214 209.346ZM163.446 209.346C163.446 209.738 163.506 210.097 163.628 210.424C163.758 210.751 163.94 211.035 164.174 211.278C164.407 211.511 164.682 211.693 165 211.824C165.326 211.955 165.681 212.02 166.064 212.02C166.456 212.02 166.815 211.955 167.142 211.824C167.468 211.693 167.744 211.511 167.968 211.278C168.201 211.045 168.383 210.765 168.514 210.438C168.644 210.102 168.71 209.738 168.71 209.346C168.71 208.954 168.64 208.595 168.5 208.268C168.369 207.941 168.187 207.666 167.954 207.442C167.72 207.209 167.44 207.027 167.114 206.896C166.787 206.765 166.437 206.7 166.064 206.7C165.681 206.7 165.331 206.765 165.014 206.896C164.696 207.017 164.421 207.195 164.188 207.428C163.954 207.661 163.772 207.941 163.642 208.268C163.511 208.595 163.446 208.954 163.446 209.346ZM176.983 205.72V213H175.807V210.424H174.029L171.873 213H170.445L172.769 210.242C172.209 210.149 171.757 209.901 171.411 209.5C171.075 209.099 170.907 208.618 170.907 208.058C170.907 207.75 170.959 207.456 171.061 207.176C171.173 206.887 171.351 206.635 171.593 206.42C171.845 206.205 172.172 206.037 172.573 205.916C172.975 205.785 173.469 205.72 174.057 205.72H176.983ZM172.139 208.086C172.139 208.45 172.293 208.749 172.601 208.982C172.909 209.206 173.339 209.318 173.889 209.318H175.807V206.826H173.917C173.273 206.826 172.816 206.943 172.545 207.176C172.275 207.409 172.139 207.713 172.139 208.086ZM184.393 209.85H180.123V213H178.947V205.72H180.123V208.744H184.393V205.72H185.569V213H184.393V209.85ZM187.527 213V205.72H188.703V211.18L193.169 205.72H194.219V213H193.043V207.554L188.577 213H187.527ZM196.174 205.72H197.35V208.702H198.806C198.881 208.245 199.021 207.829 199.226 207.456C199.432 207.073 199.693 206.747 200.01 206.476C200.328 206.196 200.696 205.981 201.116 205.832C201.536 205.673 201.994 205.594 202.488 205.594C203.039 205.594 203.543 205.687 204 205.874C204.458 206.061 204.85 206.322 205.176 206.658C205.512 206.994 205.769 207.391 205.946 207.848C206.133 208.305 206.226 208.805 206.226 209.346C206.226 209.897 206.133 210.405 205.946 210.872C205.769 211.329 205.512 211.726 205.176 212.062C204.85 212.398 204.458 212.659 204 212.846C203.543 213.033 203.039 213.126 202.488 213.126C201.966 213.126 201.49 213.047 201.06 212.888C200.64 212.72 200.267 212.491 199.94 212.202C199.623 211.913 199.366 211.567 199.17 211.166C198.974 210.755 198.848 210.303 198.792 209.808H197.35V213H196.174V205.72ZM200.01 209.346C200.01 209.757 200.071 210.13 200.192 210.466C200.323 210.793 200.5 211.073 200.724 211.306C200.948 211.53 201.21 211.707 201.508 211.838C201.816 211.959 202.148 212.02 202.502 212.02C202.866 212.02 203.202 211.959 203.51 211.838C203.818 211.707 204.08 211.53 204.294 211.306C204.518 211.073 204.691 210.793 204.812 210.466C204.934 210.13 204.994 209.757 204.994 209.346C204.994 208.954 204.934 208.595 204.812 208.268C204.691 207.941 204.518 207.661 204.294 207.428C204.08 207.195 203.818 207.017 203.51 206.896C203.202 206.765 202.866 206.7 202.502 206.7C202.157 206.7 201.83 206.765 201.522 206.896C201.224 207.017 200.962 207.195 200.738 207.428C200.514 207.661 200.337 207.941 200.206 208.268C200.076 208.595 200.01 208.954 200.01 209.346ZM216.742 209.85H212.472V213H211.296V205.72H212.472V208.744H216.742V205.72H217.918V213H216.742V209.85ZM219.539 207.582C219.773 206.938 220.165 206.448 220.715 206.112C221.266 205.767 221.938 205.594 222.731 205.594C224.71 205.594 225.699 206.63 225.699 208.702V213H224.523V211.74C224.43 211.936 224.29 212.118 224.103 212.286C223.926 212.454 223.716 212.603 223.473 212.734C223.24 212.855 222.983 212.949 222.703 213.014C222.423 213.089 222.139 213.126 221.849 213.126C221.467 213.126 221.121 213.075 220.813 212.972C220.505 212.869 220.239 212.725 220.015 212.538C219.791 212.342 219.619 212.113 219.497 211.852C219.376 211.581 219.315 211.283 219.315 210.956C219.315 210.536 219.409 210.181 219.595 209.892C219.791 209.603 220.095 209.369 220.505 209.192C220.925 209.005 221.462 208.87 222.115 208.786C222.778 208.702 223.581 208.66 224.523 208.66C224.523 207.988 224.374 207.493 224.075 207.176C223.786 206.859 223.329 206.7 222.703 206.7C221.602 206.7 220.902 207.125 220.603 207.974L219.539 207.582ZM222.087 212.02C222.442 212.02 222.769 211.969 223.067 211.866C223.366 211.763 223.623 211.619 223.837 211.432C224.052 211.236 224.22 211.007 224.341 210.746C224.463 210.485 224.523 210.2 224.523 209.892V209.626C223.777 209.626 223.147 209.649 222.633 209.696C222.129 209.743 221.723 209.817 221.415 209.92C221.107 210.023 220.883 210.158 220.743 210.326C220.613 210.494 220.547 210.704 220.547 210.956C220.547 211.283 220.683 211.544 220.953 211.74C221.233 211.927 221.611 212.02 222.087 212.02ZM230.54 205.58C230.67 205.216 230.848 204.885 231.072 204.586C231.296 204.278 231.566 204.012 231.884 203.788C232.21 203.564 232.584 203.391 233.004 203.27C233.433 203.139 233.914 203.074 234.446 203.074C234.922 203.074 235.36 203.135 235.762 203.256C236.172 203.368 236.522 203.531 236.812 203.746C237.11 203.951 237.339 204.208 237.498 204.516C237.666 204.824 237.75 205.165 237.75 205.538C237.75 206.107 237.6 206.593 237.302 206.994C237.012 207.395 236.588 207.675 236.028 207.834C236.27 207.853 236.508 207.913 236.742 208.016C236.975 208.109 237.18 208.254 237.358 208.45C237.544 208.637 237.694 208.875 237.806 209.164C237.918 209.444 237.974 209.78 237.974 210.172C237.974 210.648 237.88 211.073 237.694 211.446C237.516 211.81 237.264 212.118 236.938 212.37C236.62 212.613 236.242 212.799 235.804 212.93C235.365 213.061 234.894 213.126 234.39 213.126C233.839 213.126 233.335 213.061 232.878 212.93C232.43 212.799 232.033 212.622 231.688 212.398C231.342 212.165 231.048 211.889 230.806 211.572C230.572 211.245 230.395 210.886 230.274 210.494L231.408 210.004C231.529 210.256 231.674 210.499 231.842 210.732C232.01 210.965 232.215 211.171 232.458 211.348C232.7 211.525 232.985 211.67 233.312 211.782C233.638 211.885 234.026 211.936 234.474 211.936C235.174 211.936 235.724 211.787 236.126 211.488C236.536 211.18 236.742 210.746 236.742 210.186C236.742 209.878 236.676 209.621 236.546 209.416C236.415 209.201 236.233 209.033 236 208.912C235.766 208.781 235.491 208.693 235.174 208.646C234.866 208.59 234.53 208.562 234.166 208.562H233.074V207.4H233.942C234.754 207.4 235.384 207.246 235.832 206.938C236.289 206.63 236.518 206.243 236.518 205.776C236.518 205.272 236.326 204.894 235.944 204.642C235.561 204.39 235.043 204.264 234.39 204.264C233.988 204.264 233.634 204.315 233.326 204.418C233.018 204.521 232.747 204.656 232.514 204.824C232.29 204.992 232.098 205.183 231.94 205.398C231.79 205.613 231.674 205.832 231.59 206.056L230.54 205.58ZM241.784 203.144H242.582V213H241.406V204.642L238.872 205.804L238.424 204.754L241.784 203.144ZM247.409 211.894H248.221C248.576 211.325 248.833 210.653 248.991 209.878C249.159 209.094 249.243 208.175 249.243 207.12V205.72H254.591V211.894H255.641V214.764H254.521V213H248.529V214.764H247.409V211.894ZM250.363 207.26C250.363 208.184 250.289 209.043 250.139 209.836C249.99 210.62 249.775 211.306 249.495 211.894H253.415V206.826H250.363V207.26ZM259.807 213.126C259.247 213.126 258.733 213.033 258.267 212.846C257.809 212.659 257.413 212.403 257.077 212.076C256.75 211.74 256.493 211.343 256.307 210.886C256.12 210.419 256.027 209.906 256.027 209.346C256.027 208.805 256.12 208.305 256.307 207.848C256.503 207.381 256.769 206.98 257.105 206.644C257.441 206.299 257.837 206.033 258.295 205.846C258.761 205.65 259.265 205.552 259.807 205.552C260.348 205.552 260.838 205.641 261.277 205.818C261.725 205.986 262.107 206.229 262.425 206.546C262.751 206.863 263.003 207.241 263.181 207.68C263.358 208.119 263.447 208.604 263.447 209.136C263.447 209.239 263.442 209.346 263.433 209.458C263.433 209.57 263.428 209.673 263.419 209.766H257.231C257.249 210.093 257.324 210.396 257.455 210.676C257.595 210.947 257.777 211.185 258.001 211.39C258.234 211.586 258.505 211.74 258.813 211.852C259.121 211.964 259.452 212.02 259.807 212.02C260.339 212.02 260.782 211.922 261.137 211.726C261.501 211.521 261.823 211.194 262.103 210.746L263.167 211.138C262.868 211.782 262.434 212.277 261.865 212.622C261.305 212.958 260.619 213.126 259.807 213.126ZM259.807 206.658C259.48 206.658 259.172 206.709 258.883 206.812C258.593 206.905 258.337 207.041 258.113 207.218C257.889 207.395 257.702 207.61 257.553 207.862C257.413 208.105 257.324 208.371 257.287 208.66H262.243C262.233 208.38 262.163 208.119 262.033 207.876C261.902 207.633 261.725 207.423 261.501 207.246C261.286 207.059 261.029 206.915 260.731 206.812C260.441 206.709 260.133 206.658 259.807 206.658ZM264.81 205.72H265.986V208.982L269.598 205.72H271.25L267.484 209.066L271.432 213H269.78L266.588 209.794L265.986 210.354V213H264.81V205.72ZM271.809 207.582C272.042 206.938 272.434 206.448 272.985 206.112C273.536 205.767 274.208 205.594 275.001 205.594C276.98 205.594 277.969 206.63 277.969 208.702V213H276.793V211.74C276.7 211.936 276.56 212.118 276.373 212.286C276.196 212.454 275.986 212.603 275.743 212.734C275.51 212.855 275.253 212.949 274.973 213.014C274.693 213.089 274.408 213.126 274.119 213.126C273.736 213.126 273.391 213.075 273.083 212.972C272.775 212.869 272.509 212.725 272.285 212.538C272.061 212.342 271.888 212.113 271.767 211.852C271.646 211.581 271.585 211.283 271.585 210.956C271.585 210.536 271.678 210.181 271.865 209.892C272.061 209.603 272.364 209.369 272.775 209.192C273.195 209.005 273.732 208.87 274.385 208.786C275.048 208.702 275.85 208.66 276.793 208.66C276.793 207.988 276.644 207.493 276.345 207.176C276.056 206.859 275.598 206.7 274.973 206.7C273.872 206.7 273.172 207.125 272.873 207.974L271.809 207.582ZM274.357 212.02C274.712 212.02 275.038 211.969 275.337 211.866C275.636 211.763 275.892 211.619 276.107 211.432C276.322 211.236 276.49 211.007 276.611 210.746C276.732 210.485 276.793 210.2 276.793 209.892V209.626C276.046 209.626 275.416 209.649 274.903 209.696C274.399 209.743 273.993 209.817 273.685 209.92C273.377 210.023 273.153 210.158 273.013 210.326C272.882 210.494 272.817 210.704 272.817 210.956C272.817 211.283 272.952 211.544 273.223 211.74C273.503 211.927 273.881 212.02 274.357 212.02ZM283.239 213.126C282.661 213.126 282.133 213.033 281.657 212.846C281.191 212.65 280.789 212.37 280.453 212.006C280.117 211.633 279.856 211.175 279.669 210.634C279.492 210.093 279.403 209.472 279.403 208.772C279.403 207.885 279.427 207.134 279.473 206.518C279.529 205.902 279.618 205.384 279.739 204.964C279.861 204.544 280.015 204.203 280.201 203.942C280.397 203.681 280.635 203.466 280.915 203.298C281.177 203.139 281.443 203.027 281.713 202.962C281.984 202.897 282.255 202.859 282.525 202.85C282.805 202.831 283.081 202.831 283.351 202.85C283.631 202.859 283.911 202.864 284.191 202.864C284.639 202.864 284.943 202.831 285.101 202.766C285.269 202.701 285.353 202.575 285.353 202.388H286.403C286.403 202.687 286.366 202.939 286.291 203.144C286.226 203.34 286.109 203.503 285.941 203.634C285.773 203.755 285.554 203.844 285.283 203.9C285.013 203.947 284.681 203.97 284.289 203.97C284.084 203.97 283.86 203.961 283.617 203.942C283.384 203.923 283.146 203.919 282.903 203.928C282.661 203.928 282.418 203.951 282.175 203.998C281.942 204.045 281.723 204.129 281.517 204.25C281.34 204.353 281.191 204.479 281.069 204.628C280.957 204.777 280.864 204.973 280.789 205.216C280.715 205.449 280.659 205.743 280.621 206.098C280.584 206.443 280.556 206.868 280.537 207.372C280.864 206.868 281.289 206.49 281.811 206.238C282.334 205.986 282.903 205.86 283.519 205.86C284.023 205.86 284.485 205.944 284.905 206.112C285.325 206.271 285.685 206.504 285.983 206.812C286.282 207.12 286.515 207.493 286.683 207.932C286.851 208.371 286.935 208.865 286.935 209.416C286.935 209.939 286.847 210.424 286.669 210.872C286.492 211.32 286.24 211.712 285.913 212.048C285.587 212.384 285.195 212.65 284.737 212.846C284.289 213.033 283.79 213.126 283.239 213.126ZM283.225 212.02C283.636 212.02 283.995 211.955 284.303 211.824C284.621 211.693 284.882 211.516 285.087 211.292C285.293 211.059 285.447 210.788 285.549 210.48C285.652 210.172 285.703 209.841 285.703 209.486C285.703 209.122 285.647 208.786 285.535 208.478C285.433 208.17 285.279 207.904 285.073 207.68C284.868 207.456 284.611 207.283 284.303 207.162C284.005 207.031 283.659 206.966 283.267 206.966C282.829 206.966 282.446 207.031 282.119 207.162C281.793 207.293 281.517 207.465 281.293 207.68C281.079 207.885 280.915 208.128 280.803 208.408C280.691 208.679 280.635 208.959 280.635 209.248C280.635 209.659 280.696 210.037 280.817 210.382C280.948 210.718 281.125 211.007 281.349 211.25C281.583 211.493 281.858 211.684 282.175 211.824C282.493 211.955 282.843 212.02 283.225 212.02ZM292.197 213.126C291.534 213.126 290.988 213.019 290.559 212.804C290.139 212.589 289.798 212.286 289.537 211.894V215.8H288.361V205.72H289.537V207.022C289.779 206.593 290.129 206.247 290.587 205.986C291.053 205.725 291.623 205.594 292.295 205.594C292.789 205.594 293.251 205.683 293.681 205.86C294.11 206.028 294.479 206.271 294.787 206.588C295.104 206.905 295.351 207.297 295.529 207.764C295.715 208.221 295.809 208.735 295.809 209.304C295.809 209.873 295.72 210.391 295.543 210.858C295.365 211.325 295.118 211.726 294.801 212.062C294.483 212.398 294.101 212.659 293.653 212.846C293.214 213.033 292.729 213.126 292.197 213.126ZM292.099 212.02C292.472 212.02 292.808 211.959 293.107 211.838C293.415 211.707 293.676 211.525 293.891 211.292C294.105 211.059 294.273 210.779 294.395 210.452C294.516 210.116 294.577 209.743 294.577 209.332C294.577 208.931 294.511 208.567 294.381 208.24C294.259 207.913 294.087 207.638 293.863 207.414C293.639 207.181 293.373 207.003 293.065 206.882C292.757 206.761 292.421 206.7 292.057 206.7C291.282 206.7 290.666 206.929 290.209 207.386C289.761 207.834 289.537 208.455 289.537 209.248V209.514C289.537 209.934 289.602 210.303 289.733 210.62C289.873 210.937 290.055 211.199 290.279 211.404C290.512 211.609 290.783 211.763 291.091 211.866C291.408 211.969 291.744 212.02 292.099 212.02ZM302.858 205.72V213H301.682V210.424H299.904L297.748 213H296.32L298.644 210.242C298.084 210.149 297.631 209.901 297.286 209.5C296.95 209.099 296.782 208.618 296.782 208.058C296.782 207.75 296.833 207.456 296.936 207.176C297.048 206.887 297.225 206.635 297.468 206.42C297.72 206.205 298.047 206.037 298.448 205.916C298.849 205.785 299.344 205.72 299.932 205.72H302.858ZM298.014 208.086C298.014 208.45 298.168 208.749 298.476 208.982C298.784 209.206 299.213 209.318 299.764 209.318H301.682V206.826H299.792C299.148 206.826 298.691 206.943 298.42 207.176C298.149 207.409 298.014 207.713 298.014 208.086ZM308.046 206.07C308.13 205.669 308.27 205.286 308.466 204.922C308.662 204.558 308.914 204.241 309.222 203.97C309.53 203.69 309.899 203.471 310.328 203.312C310.757 203.153 311.247 203.074 311.798 203.074C312.311 203.074 312.769 203.149 313.17 203.298C313.571 203.438 313.912 203.639 314.192 203.9C314.472 204.161 314.682 204.474 314.822 204.838C314.971 205.202 315.046 205.599 315.046 206.028C315.046 206.635 314.915 207.195 314.654 207.708C314.402 208.212 314.08 208.674 313.688 209.094C313.296 209.514 312.867 209.897 312.4 210.242C311.933 210.578 311.49 210.877 311.07 211.138L309.992 211.81H315.41V213H307.78V212.02L309.908 210.606C310.608 210.139 311.205 209.71 311.7 209.318C312.195 208.917 312.596 208.539 312.904 208.184C313.221 207.829 313.45 207.489 313.59 207.162C313.739 206.826 313.814 206.49 313.814 206.154C313.814 205.809 313.758 205.515 313.646 205.272C313.543 205.029 313.394 204.833 313.198 204.684C313.011 204.535 312.787 204.427 312.526 204.362C312.274 204.297 312.003 204.264 311.714 204.264C311.294 204.264 310.93 204.329 310.622 204.46C310.323 204.591 310.067 204.763 309.852 204.978C309.647 205.183 309.483 205.417 309.362 205.678C309.25 205.93 309.175 206.182 309.138 206.434L308.046 206.07ZM316.24 208.1C316.24 207.372 316.324 206.705 316.492 206.098C316.66 205.482 316.912 204.95 317.248 204.502C317.593 204.054 318.027 203.704 318.55 203.452C319.073 203.2 319.689 203.074 320.398 203.074C321.107 203.074 321.723 203.191 322.246 203.424C322.769 203.657 323.203 203.993 323.548 204.432C323.893 204.871 324.15 205.403 324.318 206.028C324.486 206.644 324.57 207.335 324.57 208.1C324.57 208.828 324.486 209.5 324.318 210.116C324.159 210.723 323.907 211.25 323.562 211.698C323.226 212.146 322.797 212.496 322.274 212.748C321.751 213 321.135 213.126 320.426 213.126C319.754 213.126 319.157 213 318.634 212.748C318.111 212.496 317.673 212.146 317.318 211.698C316.963 211.25 316.693 210.723 316.506 210.116C316.329 209.5 316.24 208.828 316.24 208.1ZM317.472 208.1C317.472 209.295 317.733 210.233 318.256 210.914C318.779 211.595 319.502 211.936 320.426 211.936C321.434 211.936 322.171 211.595 322.638 210.914C323.105 210.233 323.338 209.295 323.338 208.1C323.338 206.905 323.1 205.967 322.624 205.286C322.148 204.605 321.406 204.264 320.398 204.264C319.894 204.264 319.46 204.353 319.096 204.53C318.732 204.707 318.429 204.964 318.186 205.3C317.943 205.636 317.761 206.042 317.64 206.518C317.528 206.985 317.472 207.512 317.472 208.1ZM325.574 206.07C325.658 205.669 325.798 205.286 325.994 204.922C326.19 204.558 326.442 204.241 326.75 203.97C327.058 203.69 327.426 203.471 327.856 203.312C328.285 203.153 328.775 203.074 329.326 203.074C329.839 203.074 330.296 203.149 330.698 203.298C331.099 203.438 331.44 203.639 331.72 203.9C332 204.161 332.21 204.474 332.35 204.838C332.499 205.202 332.574 205.599 332.574 206.028C332.574 206.635 332.443 207.195 332.182 207.708C331.93 208.212 331.608 208.674 331.216 209.094C330.824 209.514 330.394 209.897 329.928 210.242C329.461 210.578 329.018 210.877 328.598 211.138L327.52 211.81H332.938V213H325.308V212.02L327.436 210.606C328.136 210.139 328.733 209.71 329.228 209.318C329.722 208.917 330.124 208.539 330.432 208.184C330.749 207.829 330.978 207.489 331.118 207.162C331.267 206.826 331.342 206.49 331.342 206.154C331.342 205.809 331.286 205.515 331.174 205.272C331.071 205.029 330.922 204.833 330.726 204.684C330.539 204.535 330.315 204.427 330.054 204.362C329.802 204.297 329.531 204.264 329.242 204.264C328.822 204.264 328.458 204.329 328.15 204.46C327.851 204.591 327.594 204.763 327.38 204.978C327.174 205.183 327.011 205.417 326.89 205.678C326.778 205.93 326.703 206.182 326.666 206.434L325.574 206.07ZM333.866 206.07C333.95 205.669 334.09 205.286 334.286 204.922C334.482 204.558 334.734 204.241 335.042 203.97C335.35 203.69 335.719 203.471 336.148 203.312C336.577 203.153 337.067 203.074 337.618 203.074C338.131 203.074 338.589 203.149 338.99 203.298C339.391 203.438 339.732 203.639 340.012 203.9C340.292 204.161 340.502 204.474 340.642 204.838C340.791 205.202 340.866 205.599 340.866 206.028C340.866 206.635 340.735 207.195 340.474 207.708C340.222 208.212 339.9 208.674 339.508 209.094C339.116 209.514 338.687 209.897 338.22 210.242C337.753 210.578 337.31 210.877 336.89 211.138L335.812 211.81H341.23V213H333.6V212.02L335.728 210.606C336.428 210.139 337.025 209.71 337.52 209.318C338.015 208.917 338.416 208.539 338.724 208.184C339.041 207.829 339.27 207.489 339.41 207.162C339.559 206.826 339.634 206.49 339.634 206.154C339.634 205.809 339.578 205.515 339.466 205.272C339.363 205.029 339.214 204.833 339.018 204.684C338.831 204.535 338.607 204.427 338.346 204.362C338.094 204.297 337.823 204.264 337.534 204.264C337.114 204.264 336.75 204.329 336.442 204.46C336.143 204.591 335.887 204.763 335.672 204.978C335.467 205.183 335.303 205.417 335.182 205.678C335.07 205.93 334.995 206.182 334.958 206.434L333.866 206.07ZM346.222 205.72H351.416V206.826H347.398V213H346.222V205.72ZM351.727 209.346C351.727 208.805 351.82 208.305 352.007 207.848C352.193 207.391 352.455 206.994 352.791 206.658C353.136 206.322 353.542 206.061 354.009 205.874C354.485 205.687 355.012 205.594 355.591 205.594C356.16 205.594 356.678 205.687 357.145 205.874C357.621 206.061 358.027 206.322 358.363 206.658C358.708 206.994 358.974 207.391 359.161 207.848C359.357 208.305 359.455 208.805 359.455 209.346C359.455 209.897 359.361 210.405 359.175 210.872C358.988 211.329 358.722 211.726 358.377 212.062C358.031 212.398 357.621 212.659 357.145 212.846C356.669 213.033 356.146 213.126 355.577 213.126C355.017 213.126 354.499 213.033 354.023 212.846C353.556 212.659 353.15 212.398 352.805 212.062C352.469 211.726 352.203 211.329 352.007 210.872C351.82 210.405 351.727 209.897 351.727 209.346ZM352.959 209.346C352.959 209.738 353.019 210.097 353.141 210.424C353.271 210.751 353.453 211.035 353.687 211.278C353.92 211.511 354.195 211.693 354.513 211.824C354.839 211.955 355.194 212.02 355.577 212.02C355.969 212.02 356.328 211.955 356.655 211.824C356.981 211.693 357.257 211.511 357.481 211.278C357.714 211.045 357.896 210.765 358.027 210.438C358.157 210.102 358.223 209.738 358.223 209.346C358.223 208.954 358.153 208.595 358.013 208.268C357.882 207.941 357.7 207.666 357.467 207.442C357.233 207.209 356.953 207.027 356.627 206.896C356.3 206.765 355.95 206.7 355.577 206.7C355.194 206.7 354.844 206.765 354.527 206.896C354.209 207.017 353.934 207.195 353.701 207.428C353.467 207.661 353.285 207.941 353.155 208.268C353.024 208.595 352.959 208.954 352.959 209.346ZM359.694 211.894H360.506C360.86 211.325 361.117 210.653 361.276 209.878C361.444 209.094 361.528 208.175 361.528 207.12V205.72H366.876V211.894H367.926V214.764H366.806V213H360.814V214.764H359.694V211.894ZM362.648 207.26C362.648 208.184 362.573 209.043 362.424 209.836C362.274 210.62 362.06 211.306 361.78 211.894H365.7V206.826H362.648V207.26ZM368.712 207.582C368.945 206.938 369.337 206.448 369.888 206.112C370.439 205.767 371.111 205.594 371.904 205.594C373.883 205.594 374.872 206.63 374.872 208.702V213H373.696V211.74C373.603 211.936 373.463 212.118 373.276 212.286C373.099 212.454 372.889 212.603 372.646 212.734C372.413 212.855 372.156 212.949 371.876 213.014C371.596 213.089 371.311 213.126 371.022 213.126C370.639 213.126 370.294 213.075 369.986 212.972C369.678 212.869 369.412 212.725 369.188 212.538C368.964 212.342 368.791 212.113 368.67 211.852C368.549 211.581 368.488 211.283 368.488 210.956C368.488 210.536 368.581 210.181 368.768 209.892C368.964 209.603 369.267 209.369 369.678 209.192C370.098 209.005 370.635 208.87 371.288 208.786C371.951 208.702 372.753 208.66 373.696 208.66C373.696 207.988 373.547 207.493 373.248 207.176C372.959 206.859 372.501 206.7 371.876 206.7C370.775 206.7 370.075 207.125 369.776 207.974L368.712 207.582ZM371.26 212.02C371.615 212.02 371.941 211.969 372.24 211.866C372.539 211.763 372.795 211.619 373.01 211.432C373.225 211.236 373.393 211.007 373.514 210.746C373.635 210.485 373.696 210.2 373.696 209.892V209.626C372.949 209.626 372.319 209.649 371.806 209.696C371.302 209.743 370.896 209.817 370.588 209.92C370.28 210.023 370.056 210.158 369.916 210.326C369.785 210.494 369.72 210.704 369.72 210.956C369.72 211.283 369.855 211.544 370.126 211.74C370.406 211.927 370.784 212.02 371.26 212.02Z" fill="#777F8C"/>
<path d="M243 0C271.71 3.42358e-07 299.983 7.02321 325.356 20.4572C350.728 33.8913 372.429 53.3282 388.566 77.0733C404.703 100.818 414.787 128.151 417.937 156.687C421.088 185.223 417.209 214.096 406.641 240.79C396.072 267.483 379.134 291.186 357.303 309.831C335.472 328.477 309.411 341.499 281.393 347.761C253.375 354.024 224.25 353.338 196.558 345.762C168.866 338.186 143.448 323.952 122.52 304.299L140.592 285.054C158.381 301.759 179.986 313.858 203.525 320.298C227.063 326.737 251.819 327.321 275.634 321.997C299.45 316.674 321.601 305.605 340.157 289.757C358.714 273.908 373.111 253.761 382.095 231.071C391.078 208.382 394.374 183.839 391.697 159.584C389.019 135.328 380.448 112.096 366.731 91.9123C353.015 71.729 334.569 55.2076 313.002 43.7887C291.436 32.3697 267.403 26.4 243 26.4V0Z" fill="#003E14"/>
<path d="M122.651 304.422C96.9083 280.297 79.0097 248.992 71.2782 214.57C63.5466 180.147 66.339 144.194 79.2929 111.378C92.2468 78.5618 114.764 50.396 143.924 30.5355C173.083 10.6749 207.539 0.0363293 242.819 9.28334e-05L242.846 26.4001C212.858 26.4309 183.571 35.4737 158.785 52.3552C134 69.2366 114.86 93.1775 103.849 121.071C92.8381 148.965 90.4646 179.525 97.0364 208.784C103.608 238.044 118.822 264.653 140.704 285.159L122.651 304.422Z" fill="#5FAF2D"/>
<path d="M401.71 328.36C406.69 328.36 410.26 325.33 410.26 320.86C410.26 316.54 407.17 313.75 402.25 313.75C399.28 313.75 396.73 315.13 395.68 317.29C395.68 317.2 395.68 317.11 395.68 317.02C395.74 312.79 397.96 310.06 401.8 310.06C404.29 310.06 406.03 310.9 407.2 312.64L409.54 310.69C408.22 308.2 405.49 306.64 401.86 306.64C396.4 306.64 392.26 310.42 392.26 317.86C392.26 324.76 396.04 328.36 401.71 328.36ZM401.59 324.94C398.44 324.94 396.67 323.2 396.67 320.83C396.67 318.52 398.53 317.17 401.89 317.17C404.77 317.17 406.72 318.37 406.72 320.95C406.72 323.47 404.71 324.94 401.59 324.94ZM414.692 314.2C415.232 312.13 416.702 310.06 419.822 310.06C422.012 310.06 423.872 311.11 423.872 313.63C423.872 316.36 421.922 318.28 415.262 322.69L411.452 325.21V328H427.982V324.58H417.452L419.432 323.32C424.922 319.84 427.412 316.9 427.412 313.33C427.412 309.37 424.742 306.64 420.062 306.64C415.682 306.64 412.532 309.31 411.692 313.15L414.692 314.2ZM433.484 327.28L434.748 328.256L443.564 317.568L442.332 316.544L433.484 327.28ZM432.22 319.456C432.22 321.04 433.484 322.16 435.148 322.16C436.796 322.16 438.06 321.04 438.06 319.456C438.06 317.856 436.796 316.736 435.148 316.736C433.484 316.736 432.22 317.856 432.22 319.456ZM433.852 319.456C433.852 318.64 434.444 318.176 435.148 318.176C435.82 318.176 436.428 318.64 436.428 319.456C436.428 320.256 435.836 320.736 435.148 320.736C434.476 320.736 433.852 320.256 433.852 319.456ZM438.988 325.36C438.988 326.944 440.252 328.08 441.916 328.08C443.564 328.08 444.828 326.944 444.828 325.36C444.828 323.76 443.564 322.656 441.916 322.656C440.252 322.656 438.988 323.76 438.988 325.36ZM440.62 325.36C440.62 324.56 441.212 324.08 441.916 324.08C442.588 324.08 443.196 324.56 443.196 325.36C443.196 326.176 442.604 326.64 441.916 326.64C441.244 326.64 440.62 326.176 440.62 325.36Z" fill="#003E14"/>
<path d="M392.344 337.8H395.24L398.2 345.912L400.984 337.8H403.8V349H401.848V340.264L398.712 349H397.544L394.296 340.296V349H392.344V337.8ZM409.125 349.192C408.975 349.192 408.805 349.181 408.613 349.16C408.431 349.149 408.261 349.128 408.101 349.096V347.224C408.271 347.267 408.437 347.304 408.597 347.336C408.767 347.357 408.911 347.368 409.029 347.368C409.146 347.368 409.253 347.352 409.349 347.32C409.445 347.277 409.535 347.213 409.621 347.128C409.706 347.032 409.791 346.904 409.877 346.744C409.962 346.584 410.063 346.381 410.181 346.136L405.189 337.8H407.557L411.157 344.136L414.165 337.8H416.181L411.733 347.048C411.541 347.453 411.354 347.795 411.173 348.072C410.991 348.339 410.799 348.557 410.597 348.728C410.394 348.888 410.17 349.005 409.925 349.08C409.69 349.155 409.423 349.192 409.125 349.192ZM420.972 343.032L416.412 337.8H418.796L423.052 342.616V337.8H425.003V342.632L429.228 337.8H431.644L427.052 342.936L431.692 349H429.356L425.532 343.976L425.003 344.536V349H423.052V344.536L422.492 343.96L418.604 349H416.364L420.972 343.032ZM441.66 349H439.708V344.504C439.548 344.6 439.346 344.691 439.1 344.776C438.866 344.851 438.604 344.92 438.316 344.984C438.039 345.037 437.751 345.08 437.452 345.112C437.164 345.144 436.882 345.16 436.604 345.16C435.207 345.16 434.146 344.829 433.42 344.168C432.695 343.496 432.332 342.531 432.332 341.272V337.8H434.284V340.952C434.284 341.763 434.508 342.365 434.956 342.76C435.404 343.144 436.098 343.336 437.036 343.336C437.484 343.336 437.938 343.277 438.396 343.16C438.866 343.032 439.303 342.861 439.708 342.648V337.8H441.66V349ZM444.344 349V337.8H446.296V345.72L452.504 337.8H454.168V349H452.216V341.08L445.992 349H444.344ZM464.747 344.232H458.827V349H456.875V337.8H458.827V342.408H464.747V337.8H466.699V349H464.747V344.232ZM479.279 337.8H481.231V349H479.279V337.8ZM471.343 343.56V347.176H473.487C475.204 347.176 476.063 346.547 476.063 345.288C476.063 344.136 475.215 343.56 473.519 343.56H471.343ZM469.391 337.8H471.343V341.736H473.567C475.082 341.736 476.212 342.045 476.959 342.664C477.706 343.283 478.079 344.152 478.079 345.272C478.079 346.509 477.674 347.443 476.863 348.072C476.063 348.691 474.922 349 473.439 349H469.391V337.8Z" fill="#003E14"/>
</svg>
