<svg viewBox="0 0 420 352" fill="none" xmlns="http://www.w3.org/2000/svg">
<path d="M14.9 16.39C15.65 14.74 17.27 13.06 20.3 13.06C22.94 13.06 24.41 14.08 24.41 15.73C24.41 17.41 22.85 18.7 19.85 18.7H17.6V21.82H20.33C23.03 21.82 24.98 22.57 24.98 24.79C24.98 26.89 23.42 28.12 20.51 28.12C17.21 28.12 15.5 26.38 14.66 24.31L11.51 25.66C12.74 29.41 16.04 31.36 20.6 31.36C25.16 31.36 28.52 28.87 28.52 24.76C28.52 21.7 26.57 20.2 24.5 19.84C26.66 19.09 27.95 17.41 27.95 15.13C27.95 11.77 24.83 9.64 20.63 9.64C15.92 9.64 13.13 11.95 11.99 15.1L14.9 16.39ZM38.6593 18.76C35.9593 18.76 34.3093 17.47 34.3093 15.76C34.3093 13.87 35.8993 12.76 39.0493 12.76C42.3493 12.76 43.8493 13.87 43.8493 15.76C43.8493 17.62 42.0193 18.76 39.5593 18.76H38.6593ZM39.4993 21.7C42.6493 21.7 44.4793 22.9 44.4793 24.94C44.4793 26.95 42.7093 28.24 39.0793 28.24C35.4493 28.24 33.6493 26.86 33.6493 24.88C33.6493 23.11 35.5393 21.7 38.7793 21.7H39.4993ZM39.1093 31.36C44.6593 31.36 48.0193 29.02 48.0193 25.09C48.0193 22.72 46.9693 20.89 44.2693 19.99C46.2493 19.03 47.3893 17.53 47.3893 15.58C47.3893 12.07 44.5393 9.64 39.0793 9.64C33.7693 9.64 30.7693 12.07 30.7693 15.58C30.7693 17.41 31.7893 19.27 33.9793 20.11C31.6093 20.95 30.1093 22.9 30.1093 25.21C30.1093 28.99 33.4093 31.36 39.1093 31.36ZM53.6301 30.28L54.8941 31.256L63.7101 20.568L62.4781 19.544L53.6301 30.28ZM52.3661 22.456C52.3661 24.04 53.6301 25.16 55.2941 25.16C56.9421 25.16 58.2061 24.04 58.2061 22.456C58.2061 20.856 56.9421 19.736 55.2941 19.736C53.6301 19.736 52.3661 20.856 52.3661 22.456ZM53.9981 22.456C53.9981 21.64 54.5901 21.176 55.2941 21.176C55.9661 21.176 56.5741 21.64 56.5741 22.456C56.5741 23.256 55.9821 23.736 55.2941 23.736C54.6221 23.736 53.9981 23.256 53.9981 22.456ZM59.1341 28.36C59.1341 29.944 60.3981 31.08 62.0621 31.08C63.7101 31.08 64.9741 29.944 64.9741 28.36C64.9741 26.76 63.7101 25.656 62.0621 25.656C60.3981 25.656 59.1341 26.76 59.1341 28.36ZM60.7661 28.36C60.7661 27.56 61.3581 27.08 62.0621 27.08C62.7341 27.08 63.3421 27.56 63.3421 28.36C63.3421 29.176 62.7501 29.64 62.0621 29.64C61.3901 29.64 60.7661 29.176 60.7661 28.36Z" fill="#5FAF2D"/>
<path d="M14.912 40.8H13.024L11.008 48.736L8.336 40.8H6.832L4.272 48.768L2.096 40.8H0.128L3.296 52H4.896L7.568 44L10.32 52H11.904L14.912 40.8ZM15.5935 46.4C15.5935 49.808 18.0895 52.192 21.4015 52.192C24.6815 52.192 27.1935 49.76 27.1935 46.4C27.1935 42.992 24.6815 40.608 21.4015 40.608C18.0575 40.608 15.5935 43.088 15.5935 46.4ZM17.6095 46.4C17.6095 44.08 19.2735 42.432 21.4015 42.432C23.4815 42.432 25.1775 44.08 25.1775 46.4C25.1775 48.72 23.5935 50.368 21.4015 50.368C19.2895 50.368 17.6095 48.72 17.6095 46.4ZM29.2034 52H31.1554V43.296L34.4034 52H35.5714L38.7074 43.264V52H40.6594V40.8H37.8434L35.0594 48.912L32.0994 40.8H29.2034V52ZM43.344 52H51.856V50.176H45.296V47.184H51.104V45.456H45.296V42.624H51.696V40.8H43.344V52ZM63.9984 52V40.8H62.0464V48.64L55.7744 40.8H54.0784V52H56.0304V44.16L62.3024 52H63.9984Z" fill="#5FAF2D"/>
<path d="M108.621 156.8H118.013V158.624H114.285V168H112.333V158.624H108.621V156.8ZM118.319 162.4C118.319 161.568 118.463 160.8 118.751 160.096C119.049 159.392 119.455 158.784 119.967 158.272C120.489 157.749 121.103 157.344 121.807 157.056C122.521 156.757 123.295 156.608 124.127 156.608C124.948 156.608 125.711 156.752 126.415 157.04C127.119 157.317 127.732 157.712 128.255 158.224C128.777 158.736 129.183 159.349 129.471 160.064C129.769 160.768 129.919 161.547 129.919 162.4C129.919 163.243 129.769 164.021 129.471 164.736C129.183 165.44 128.777 166.048 128.255 166.56C127.732 167.072 127.119 167.472 126.415 167.76C125.711 168.048 124.948 168.192 124.127 168.192C123.295 168.192 122.527 168.053 121.823 167.776C121.119 167.488 120.505 167.088 119.983 166.576C119.46 166.064 119.049 165.456 118.751 164.752C118.463 164.037 118.319 163.253 118.319 162.4ZM120.335 162.4C120.335 162.976 120.431 163.509 120.623 164C120.825 164.48 121.097 164.896 121.439 165.248C121.78 165.6 122.18 165.877 122.639 166.08C123.097 166.272 123.593 166.368 124.127 166.368C124.671 166.368 125.172 166.272 125.631 166.08C126.1 165.877 126.5 165.6 126.831 165.248C127.172 164.896 127.433 164.48 127.615 164C127.807 163.509 127.903 162.976 127.903 162.4C127.903 161.824 127.801 161.296 127.599 160.816C127.407 160.325 127.14 159.904 126.799 159.552C126.457 159.2 126.057 158.928 125.599 158.736C125.14 158.533 124.649 158.432 124.127 158.432C123.593 158.432 123.097 158.533 122.639 158.736C122.18 158.928 121.78 159.2 121.439 159.552C121.097 159.904 120.825 160.325 120.623 160.816C120.431 161.296 120.335 161.824 120.335 162.4ZM131.929 168V156.8H136.505C137.443 156.8 138.217 156.907 138.825 157.12C139.433 157.333 139.907 157.616 140.249 157.968C140.59 158.309 140.825 158.699 140.953 159.136C141.091 159.563 141.161 159.995 141.161 160.432C141.161 160.923 141.081 161.397 140.921 161.856C140.761 162.304 140.494 162.704 140.121 163.056C139.747 163.408 139.257 163.691 138.649 163.904C138.041 164.107 137.294 164.208 136.409 164.208H133.881V168H131.929ZM133.881 158.624V162.384H136.457C137.385 162.384 138.062 162.208 138.489 161.856C138.926 161.504 139.145 161.045 139.145 160.48C139.145 160.213 139.097 159.968 139.001 159.744C138.905 159.509 138.75 159.312 138.537 159.152C138.334 158.981 138.067 158.853 137.737 158.768C137.406 158.672 137.001 158.624 136.521 158.624H133.881ZM147.366 156.8H150.262L153.222 164.912L156.006 156.8H158.822V168H156.87V159.264L153.734 168H152.566L149.318 159.296V168H147.366V156.8ZM165.107 156.784H166.819L171.683 168H169.635L168.579 165.552H163.283L162.227 168H160.227L165.107 156.784ZM167.875 163.824L165.923 159.28L163.987 163.824H167.875ZM181.309 168L175.037 160.16V168H173.085V156.8H174.781L181.053 164.64V156.8H183.005V168H181.309ZM189.294 156.784H191.006L195.87 168H193.822L192.766 165.552H187.47L186.414 168H184.414L189.294 156.784ZM192.062 163.824L190.11 159.28L188.174 163.824H192.062ZM201.381 161.936H207.317C207.328 162.085 207.333 162.229 207.333 162.368C207.333 162.496 207.333 162.613 207.333 162.72C207.333 163.637 207.179 164.437 206.869 165.12C206.571 165.803 206.165 166.373 205.653 166.832C205.152 167.28 204.571 167.621 203.909 167.856C203.259 168.08 202.581 168.192 201.877 168.192C201.024 168.192 200.24 168.053 199.525 167.776C198.811 167.488 198.192 167.088 197.669 166.576C197.157 166.064 196.757 165.456 196.469 164.752C196.181 164.037 196.037 163.253 196.037 162.4C196.037 161.568 196.181 160.8 196.469 160.096C196.757 159.392 197.157 158.784 197.669 158.272C198.181 157.749 198.795 157.344 199.509 157.056C200.224 156.757 201.008 156.608 201.861 156.608C203.024 156.608 204.053 156.896 204.949 157.472C205.845 158.037 206.517 158.827 206.965 159.84L205.269 160.448C204.907 159.84 204.453 159.355 203.909 158.992C203.376 158.619 202.693 158.432 201.861 158.432C201.307 158.432 200.795 158.528 200.325 158.72C199.856 158.912 199.451 159.184 199.109 159.536C198.779 159.888 198.517 160.309 198.325 160.8C198.144 161.28 198.053 161.813 198.053 162.4C198.053 162.987 198.149 163.525 198.341 164.016C198.533 164.496 198.8 164.912 199.141 165.264C199.493 165.616 199.904 165.888 200.373 166.08C200.843 166.272 201.36 166.368 201.925 166.368C202.853 166.368 203.643 166.139 204.293 165.68C204.944 165.211 205.344 164.539 205.493 163.664H201.381V161.936ZM209.272 156.8H217.624V158.624H211.224V161.456H217.032V163.184H211.224V166.176H217.784V168H209.272V156.8ZM220.007 156.8H222.903L225.863 164.912L228.647 156.8H231.463V168H229.511V159.264L226.375 168H225.207L221.959 159.296V168H220.007V156.8ZM234.147 156.8H242.499V158.624H236.099V161.456H241.907V163.184H236.099V166.176H242.659V168H234.147V156.8ZM253.106 168L246.834 160.16V168H244.882V156.8H246.578L252.85 164.64V156.8H254.802V168H253.106ZM256.371 156.8H265.763V158.624H262.035V168H260.083V158.624H256.371V156.8ZM270.527 156.8H279.919V158.624H276.191V168H274.239V158.624H270.527V156.8ZM281.491 156.8H289.843V158.624H283.443V161.456H289.251V163.184H283.443V166.176H290.003V168H281.491V156.8ZM295.825 156.784H297.537L302.401 168H300.353L299.297 165.552H294.001L292.945 168H290.945L295.825 156.784ZM298.593 163.824L296.641 159.28L294.705 163.824H298.593ZM303.804 156.8H306.7L309.66 164.912L312.444 156.8H315.26V168H313.308V159.264L310.172 168H309.004L305.756 159.296V168H303.804V156.8ZM124.896 181.936H130.832C130.843 182.085 130.848 182.229 130.848 182.368C130.848 182.496 130.848 182.613 130.848 182.72C130.848 183.637 130.693 184.437 130.384 185.12C130.085 185.803 129.68 186.373 129.168 186.832C128.667 187.28 128.085 187.621 127.424 187.856C126.773 188.08 126.096 188.192 125.392 188.192C124.539 188.192 123.755 188.053 123.04 187.776C122.325 187.488 121.707 187.088 121.184 186.576C120.672 186.064 120.272 185.456 119.984 184.752C119.696 184.037 119.552 183.253 119.552 182.4C119.552 181.568 119.696 180.8 119.984 180.096C120.272 179.392 120.672 178.784 121.184 178.272C121.696 177.749 122.309 177.344 123.024 177.056C123.739 176.757 124.523 176.608 125.376 176.608C126.539 176.608 127.568 176.896 128.464 177.472C129.36 178.037 130.032 178.827 130.48 179.84L128.784 180.448C128.421 179.84 127.968 179.355 127.424 178.992C126.891 178.619 126.208 178.432 125.376 178.432C124.821 178.432 124.309 178.528 123.84 178.72C123.371 178.912 122.965 179.184 122.624 179.536C122.293 179.888 122.032 180.309 121.84 180.8C121.659 181.28 121.568 181.813 121.568 182.4C121.568 182.987 121.664 183.525 121.856 184.016C122.048 184.496 122.315 184.912 122.656 185.264C123.008 185.616 123.419 185.888 123.888 186.08C124.357 186.272 124.875 186.368 125.44 186.368C126.368 186.368 127.157 186.139 127.808 185.68C128.459 185.211 128.859 184.539 129.008 183.664H124.896V181.936ZM132.787 176.8H141.139V178.624H134.739V181.456H140.547V183.184H134.739V186.176H141.299V188H132.787V176.8ZM151.745 188L145.473 180.16V188H143.521V176.8H145.217L151.489 184.64V176.8H153.441V188H151.745ZM156.131 176.8H159.939C161.059 176.8 162.008 176.944 162.787 177.232C163.576 177.52 164.211 177.909 164.691 178.4C165.181 178.891 165.533 179.467 165.747 180.128C165.971 180.789 166.083 181.493 166.083 182.24C166.083 183.061 165.955 183.824 165.699 184.528C165.453 185.232 165.064 185.84 164.531 186.352C164.008 186.864 163.336 187.269 162.515 187.568C161.704 187.856 160.733 188 159.603 188H156.131V176.8ZM158.083 178.624V186.176H159.731C160.477 186.176 161.123 186.08 161.667 185.888C162.211 185.696 162.659 185.435 163.011 185.104C163.373 184.763 163.64 184.357 163.811 183.888C163.981 183.419 164.067 182.901 164.067 182.336C164.067 181.792 163.987 181.296 163.827 180.848C163.677 180.389 163.432 179.995 163.091 179.664C162.76 179.333 162.328 179.077 161.795 178.896C161.272 178.715 160.632 178.624 159.875 178.624H158.083ZM168.099 176.8H176.451V178.624H170.051V181.456H175.859V183.184H170.051V186.176H176.611V188H168.099V176.8ZM178.834 188V176.8H183.602C184.413 176.8 185.09 176.896 185.634 177.088C186.178 177.269 186.615 177.52 186.946 177.84C187.277 178.16 187.511 178.533 187.65 178.96C187.799 179.376 187.874 179.813 187.874 180.272C187.874 181.104 187.645 181.803 187.186 182.368C186.727 182.933 186.13 183.328 185.394 183.552L188.626 188H186.274L183.394 183.936H180.786V188H178.834ZM180.786 178.624V182.112H183.49C184.194 182.112 184.765 181.963 185.202 181.664C185.639 181.355 185.858 180.923 185.858 180.368C185.858 180.112 185.815 179.877 185.73 179.664C185.655 179.451 185.522 179.269 185.33 179.12C185.138 178.96 184.887 178.837 184.578 178.752C184.269 178.667 183.89 178.624 183.442 178.624H180.786ZM194.553 176.8H199.433C200.179 176.8 200.803 176.869 201.305 177.008C201.817 177.147 202.222 177.344 202.521 177.6C202.83 177.845 203.049 178.139 203.177 178.48C203.305 178.821 203.369 179.2 203.369 179.616C203.369 180.213 203.235 180.72 202.969 181.136C202.702 181.541 202.313 181.856 201.801 182.08C202.409 182.229 202.883 182.533 203.225 182.992C203.577 183.44 203.753 184.027 203.753 184.752C203.753 185.328 203.646 185.824 203.433 186.24C203.219 186.645 202.915 186.981 202.521 187.248C202.137 187.504 201.673 187.696 201.129 187.824C200.585 187.941 199.987 188 199.337 188H194.553V176.8ZM196.505 183.136V186.272H199.289C200.131 186.272 200.75 186.149 201.145 185.904C201.539 185.648 201.737 185.232 201.737 184.656C201.737 184.144 201.55 183.765 201.177 183.52C200.814 183.264 200.217 183.136 199.385 183.136H196.505ZM196.505 178.528V181.472H199.353C199.993 181.472 200.483 181.339 200.825 181.072C201.177 180.805 201.353 180.443 201.353 179.984C201.353 179.483 201.193 179.115 200.873 178.88C200.563 178.645 200.003 178.528 199.193 178.528H196.505ZM205.818 188V176.8H210.586C211.397 176.8 212.074 176.896 212.618 177.088C213.162 177.269 213.6 177.52 213.93 177.84C214.261 178.16 214.496 178.533 214.634 178.96C214.784 179.376 214.858 179.813 214.858 180.272C214.858 181.104 214.629 181.803 214.17 182.368C213.712 182.933 213.114 183.328 212.378 183.552L215.61 188H213.258L210.378 183.936H207.77V188H205.818ZM207.77 178.624V182.112H210.474C211.178 182.112 211.749 181.963 212.186 181.664C212.624 181.355 212.842 180.923 212.842 180.368C212.842 180.112 212.8 179.877 212.714 179.664C212.64 179.451 212.506 179.269 212.314 179.12C212.122 178.96 211.872 178.837 211.562 178.752C211.253 178.667 210.874 178.624 210.426 178.624H207.77ZM217.224 176.8H225.576V178.624H219.176V181.456H224.984V183.184H219.176V186.176H225.736V188H217.224V176.8ZM231.559 176.784H233.271L238.135 188H236.087L235.031 185.552H229.735L228.679 188H226.679L231.559 176.784ZM234.327 183.824L232.375 179.28L230.439 183.824H234.327ZM239.537 176.8H241.489V182.016L246.641 176.8H249.153L244.193 181.776L249.457 188H246.929L242.689 183.04L241.489 184.256V188H239.537V176.8ZM250.928 176.8H254.736C255.856 176.8 256.805 176.944 257.584 177.232C258.373 177.52 259.008 177.909 259.488 178.4C259.978 178.891 260.33 179.467 260.544 180.128C260.768 180.789 260.88 181.493 260.88 182.24C260.88 183.061 260.752 183.824 260.496 184.528C260.25 185.232 259.861 185.84 259.328 186.352C258.805 186.864 258.133 187.269 257.312 187.568C256.501 187.856 255.53 188 254.4 188H250.928V176.8ZM252.88 178.624V186.176H254.528C255.274 186.176 255.92 186.08 256.464 185.888C257.008 185.696 257.456 185.435 257.808 185.104C258.17 184.763 258.437 184.357 258.608 183.888C258.778 183.419 258.864 182.901 258.864 182.336C258.864 181.792 258.784 181.296 258.624 180.848C258.474 180.389 258.229 179.995 257.888 179.664C257.557 179.333 257.125 179.077 256.592 178.896C256.069 178.715 255.429 178.624 254.672 178.624H252.88ZM262.365 182.4C262.365 181.568 262.509 180.8 262.797 180.096C263.095 179.392 263.501 178.784 264.013 178.272C264.535 177.749 265.149 177.344 265.853 177.056C266.567 176.757 267.341 176.608 268.173 176.608C268.994 176.608 269.757 176.752 270.461 177.04C271.165 177.317 271.778 177.712 272.301 178.224C272.823 178.736 273.229 179.349 273.517 180.064C273.815 180.768 273.965 181.547 273.965 182.4C273.965 183.243 273.815 184.021 273.517 184.736C273.229 185.44 272.823 186.048 272.301 186.56C271.778 187.072 271.165 187.472 270.461 187.76C269.757 188.048 268.994 188.192 268.173 188.192C267.341 188.192 266.573 188.053 265.869 187.776C265.165 187.488 264.551 187.088 264.029 186.576C263.506 186.064 263.095 185.456 262.797 184.752C262.509 184.037 262.365 183.253 262.365 182.4ZM264.381 182.4C264.381 182.976 264.477 183.509 264.669 184C264.871 184.48 265.143 184.896 265.485 185.248C265.826 185.6 266.226 185.877 266.685 186.08C267.143 186.272 267.639 186.368 268.173 186.368C268.717 186.368 269.218 186.272 269.677 186.08C270.146 185.877 270.546 185.6 270.877 185.248C271.218 184.896 271.479 184.48 271.661 184C271.853 183.509 271.949 182.976 271.949 182.4C271.949 181.824 271.847 181.296 271.645 180.816C271.453 180.325 271.186 179.904 270.845 179.552C270.503 179.2 270.103 178.928 269.645 178.736C269.186 178.533 268.695 178.432 268.173 178.432C267.639 178.432 267.143 178.533 266.685 178.736C266.226 178.928 265.826 179.2 265.485 179.552C265.143 179.904 264.871 180.325 264.669 180.816C264.477 181.296 264.381 181.824 264.381 182.4ZM286.425 188H284.841L282.089 180L279.417 188H277.817L274.649 176.8H276.617L278.793 184.768L281.353 176.8H282.857L285.529 184.736L287.545 176.8H289.433L286.425 188ZM299.136 188L292.864 180.16V188H290.912V176.8H292.608L298.88 184.64V176.8H300.832V188H299.136Z" fill="#222429"/>
<path d="M134.178 202.582C134.411 201.938 134.803 201.448 135.354 201.112C135.904 200.767 136.576 200.594 137.37 200.594C139.348 200.594 140.338 201.63 140.338 203.702V208H139.162V206.74C139.068 206.936 138.928 207.118 138.742 207.286C138.564 207.454 138.354 207.603 138.112 207.734C137.878 207.855 137.622 207.949 137.342 208.014C137.062 208.089 136.777 208.126 136.488 208.126C136.105 208.126 135.76 208.075 135.452 207.972C135.144 207.869 134.878 207.725 134.654 207.538C134.43 207.342 134.257 207.113 134.136 206.852C134.014 206.581 133.954 206.283 133.954 205.956C133.954 205.536 134.047 205.181 134.234 204.892C134.43 204.603 134.733 204.369 135.144 204.192C135.564 204.005 136.1 203.87 136.754 203.786C137.416 203.702 138.219 203.66 139.162 203.66C139.162 202.988 139.012 202.493 138.714 202.176C138.424 201.859 137.967 201.7 137.342 201.7C136.24 201.7 135.54 202.125 135.242 202.974L134.178 202.582ZM136.726 207.02C137.08 207.02 137.407 206.969 137.706 206.866C138.004 206.763 138.261 206.619 138.476 206.432C138.69 206.236 138.858 206.007 138.98 205.746C139.101 205.485 139.162 205.2 139.162 204.892V204.626C138.415 204.626 137.785 204.649 137.272 204.696C136.768 204.743 136.362 204.817 136.054 204.92C135.746 205.023 135.522 205.158 135.382 205.326C135.251 205.494 135.186 205.704 135.186 205.956C135.186 206.283 135.321 206.544 135.592 206.74C135.872 206.927 136.25 207.02 136.726 207.02ZM146.476 206.012C146.476 205.723 146.364 205.503 146.14 205.354C145.916 205.195 145.636 205.069 145.3 204.976C144.973 204.873 144.614 204.78 144.222 204.696C143.839 204.603 143.48 204.481 143.144 204.332C142.817 204.173 142.542 203.963 142.318 203.702C142.094 203.441 141.982 203.086 141.982 202.638C141.982 202.33 142.043 202.05 142.164 201.798C142.295 201.546 142.477 201.331 142.71 201.154C142.953 200.977 143.237 200.841 143.564 200.748C143.9 200.645 144.273 200.594 144.684 200.594C145.505 200.594 146.182 200.771 146.714 201.126C147.255 201.471 147.601 201.957 147.75 202.582L146.686 202.974C146.565 202.545 146.327 202.218 145.972 201.994C145.627 201.77 145.188 201.658 144.656 201.658C144.227 201.658 143.877 201.747 143.606 201.924C143.345 202.092 143.214 202.311 143.214 202.582C143.214 202.862 143.326 203.077 143.55 203.226C143.774 203.366 144.049 203.483 144.376 203.576C144.712 203.669 145.071 203.763 145.454 203.856C145.846 203.94 146.205 204.061 146.532 204.22C146.868 204.379 147.148 204.598 147.372 204.878C147.596 205.149 147.708 205.522 147.708 205.998C147.708 206.651 147.456 207.169 146.952 207.552C146.457 207.935 145.785 208.126 144.936 208.126C143.107 208.126 141.987 207.463 141.576 206.138L142.64 205.746C142.995 206.623 143.732 207.062 144.852 207.062C145.384 207.062 145.785 206.973 146.056 206.796C146.336 206.609 146.476 206.348 146.476 206.012ZM152.492 202.582C152.725 201.938 153.117 201.448 153.668 201.112C154.219 200.767 154.891 200.594 155.684 200.594C157.663 200.594 158.652 201.63 158.652 203.702V208H157.476V206.74C157.383 206.936 157.243 207.118 157.056 207.286C156.879 207.454 156.669 207.603 156.426 207.734C156.193 207.855 155.936 207.949 155.656 208.014C155.376 208.089 155.091 208.126 154.802 208.126C154.419 208.126 154.074 208.075 153.766 207.972C153.458 207.869 153.192 207.725 152.968 207.538C152.744 207.342 152.571 207.113 152.45 206.852C152.329 206.581 152.268 206.283 152.268 205.956C152.268 205.536 152.361 205.181 152.548 204.892C152.744 204.603 153.047 204.369 153.458 204.192C153.878 204.005 154.415 203.87 155.068 203.786C155.731 203.702 156.533 203.66 157.476 203.66C157.476 202.988 157.327 202.493 157.028 202.176C156.739 201.859 156.281 201.7 155.656 201.7C154.555 201.7 153.855 202.125 153.556 202.974L152.492 202.582ZM155.04 207.02C155.395 207.02 155.721 206.969 156.02 206.866C156.319 206.763 156.575 206.619 156.79 206.432C157.005 206.236 157.173 206.007 157.294 205.746C157.415 205.485 157.476 205.2 157.476 204.892V204.626C156.729 204.626 156.099 204.649 155.586 204.696C155.082 204.743 154.676 204.817 154.368 204.92C154.06 205.023 153.836 205.158 153.696 205.326C153.565 205.494 153.5 205.704 153.5 205.956C153.5 206.283 153.635 206.544 153.906 206.74C154.186 206.927 154.564 207.02 155.04 207.02ZM159.474 200.72H160.706V198.858H161.882V200.72H163.884V201.826H161.882V205.914C161.882 206.325 161.952 206.614 162.092 206.782C162.241 206.941 162.488 207.02 162.834 207.02C163.142 207.02 163.492 206.969 163.884 206.866V207.972C163.697 208.019 163.478 208.056 163.226 208.084C162.983 208.112 162.754 208.126 162.54 208.126C161.877 208.126 161.406 207.953 161.126 207.608C160.846 207.253 160.706 206.651 160.706 205.802V201.826H159.474V200.72ZM168.325 200.58C168.456 200.216 168.633 199.885 168.857 199.586C169.081 199.278 169.352 199.012 169.669 198.788C169.996 198.564 170.369 198.391 170.789 198.27C171.219 198.139 171.699 198.074 172.231 198.074C172.707 198.074 173.146 198.135 173.547 198.256C173.958 198.368 174.308 198.531 174.597 198.746C174.896 198.951 175.125 199.208 175.283 199.516C175.451 199.824 175.535 200.165 175.535 200.538C175.535 201.107 175.386 201.593 175.087 201.994C174.798 202.395 174.373 202.675 173.813 202.834C174.056 202.853 174.294 202.913 174.527 203.016C174.761 203.109 174.966 203.254 175.143 203.45C175.33 203.637 175.479 203.875 175.591 204.164C175.703 204.444 175.759 204.78 175.759 205.172C175.759 205.648 175.666 206.073 175.479 206.446C175.302 206.81 175.05 207.118 174.723 207.37C174.406 207.613 174.028 207.799 173.589 207.93C173.151 208.061 172.679 208.126 172.175 208.126C171.625 208.126 171.121 208.061 170.663 207.93C170.215 207.799 169.819 207.622 169.473 207.398C169.128 207.165 168.834 206.889 168.591 206.572C168.358 206.245 168.181 205.886 168.059 205.494L169.193 205.004C169.315 205.256 169.459 205.499 169.627 205.732C169.795 205.965 170.001 206.171 170.243 206.348C170.486 206.525 170.771 206.67 171.097 206.782C171.424 206.885 171.811 206.936 172.259 206.936C172.959 206.936 173.51 206.787 173.911 206.488C174.322 206.18 174.527 205.746 174.527 205.186C174.527 204.878 174.462 204.621 174.331 204.416C174.201 204.201 174.019 204.033 173.785 203.912C173.552 203.781 173.277 203.693 172.959 203.646C172.651 203.59 172.315 203.562 171.951 203.562H170.859V202.4H171.727C172.539 202.4 173.169 202.246 173.617 201.938C174.075 201.63 174.303 201.243 174.303 200.776C174.303 200.272 174.112 199.894 173.729 199.642C173.347 199.39 172.829 199.264 172.175 199.264C171.774 199.264 171.419 199.315 171.111 199.418C170.803 199.521 170.533 199.656 170.299 199.824C170.075 199.992 169.884 200.183 169.725 200.398C169.576 200.613 169.459 200.832 169.375 201.056L168.325 200.58ZM179.57 198.144H180.368V208H179.192V199.642L176.658 200.804L176.21 199.754L179.57 198.144ZM186.315 198.2H189.339C190.329 198.2 191.169 198.331 191.859 198.592C192.55 198.844 193.105 199.189 193.525 199.628C193.955 200.057 194.263 200.561 194.449 201.14C194.645 201.719 194.743 202.325 194.743 202.96C194.743 203.66 194.631 204.318 194.407 204.934C194.193 205.541 193.857 206.073 193.399 206.53C192.951 206.987 192.377 207.347 191.677 207.608C190.987 207.869 190.161 208 189.199 208H186.315V198.2ZM187.589 199.39V206.81H189.283C190.011 206.81 190.632 206.717 191.145 206.53C191.668 206.334 192.097 206.063 192.433 205.718C192.769 205.373 193.017 204.967 193.175 204.5C193.334 204.033 193.413 203.52 193.413 202.96C193.413 202.447 193.339 201.975 193.189 201.546C193.049 201.107 192.816 200.729 192.489 200.412C192.163 200.095 191.738 199.847 191.215 199.67C190.702 199.483 190.067 199.39 189.311 199.39H187.589ZM199.466 208.126C198.906 208.126 198.392 208.033 197.926 207.846C197.468 207.659 197.072 207.403 196.736 207.076C196.409 206.74 196.152 206.343 195.966 205.886C195.779 205.419 195.686 204.906 195.686 204.346C195.686 203.805 195.779 203.305 195.966 202.848C196.162 202.381 196.428 201.98 196.764 201.644C197.1 201.299 197.496 201.033 197.954 200.846C198.42 200.65 198.924 200.552 199.466 200.552C200.007 200.552 200.497 200.641 200.936 200.818C201.384 200.986 201.766 201.229 202.084 201.546C202.41 201.863 202.662 202.241 202.84 202.68C203.017 203.119 203.106 203.604 203.106 204.136C203.106 204.239 203.101 204.346 203.092 204.458C203.092 204.57 203.087 204.673 203.078 204.766H196.89C196.908 205.093 196.983 205.396 197.114 205.676C197.254 205.947 197.436 206.185 197.66 206.39C197.893 206.586 198.164 206.74 198.472 206.852C198.78 206.964 199.111 207.02 199.466 207.02C199.998 207.02 200.441 206.922 200.796 206.726C201.16 206.521 201.482 206.194 201.762 205.746L202.826 206.138C202.527 206.782 202.093 207.277 201.524 207.622C200.964 207.958 200.278 208.126 199.466 208.126ZM199.466 201.658C199.139 201.658 198.831 201.709 198.542 201.812C198.252 201.905 197.996 202.041 197.772 202.218C197.548 202.395 197.361 202.61 197.212 202.862C197.072 203.105 196.983 203.371 196.946 203.66H201.902C201.892 203.38 201.822 203.119 201.692 202.876C201.561 202.633 201.384 202.423 201.16 202.246C200.945 202.059 200.688 201.915 200.39 201.812C200.1 201.709 199.792 201.658 199.466 201.658ZM211.023 206.138C210.724 206.782 210.295 207.277 209.735 207.622C209.175 207.958 208.503 208.126 207.719 208.126C207.159 208.126 206.641 208.033 206.165 207.846C205.698 207.659 205.292 207.398 204.947 207.062C204.611 206.726 204.345 206.329 204.149 205.872C203.962 205.405 203.869 204.897 203.869 204.346C203.869 203.795 203.962 203.291 204.149 202.834C204.345 202.377 204.611 201.985 204.947 201.658C205.292 201.322 205.698 201.061 206.165 200.874C206.641 200.687 207.159 200.594 207.719 200.594C208.512 200.594 209.189 200.767 209.749 201.112C210.318 201.448 210.752 201.938 211.051 202.582L209.987 202.974C209.735 202.554 209.417 202.237 209.035 202.022C208.652 201.807 208.213 201.7 207.719 201.7C207.336 201.7 206.981 201.765 206.655 201.896C206.337 202.027 206.062 202.209 205.829 202.442C205.595 202.675 205.413 202.955 205.283 203.282C205.161 203.599 205.101 203.954 205.101 204.346C205.101 204.738 205.161 205.097 205.283 205.424C205.413 205.751 205.595 206.035 205.829 206.278C206.062 206.511 206.337 206.693 206.655 206.824C206.981 206.955 207.336 207.02 207.719 207.02C208.223 207.02 208.652 206.917 209.007 206.712C209.371 206.507 209.688 206.185 209.959 205.746L211.023 206.138ZM215.503 208.126C214.943 208.126 214.43 208.033 213.963 207.846C213.506 207.659 213.109 207.403 212.773 207.076C212.447 206.74 212.19 206.343 212.003 205.886C211.817 205.419 211.723 204.906 211.723 204.346C211.723 203.805 211.817 203.305 212.003 202.848C212.199 202.381 212.465 201.98 212.801 201.644C213.137 201.299 213.534 201.033 213.991 200.846C214.458 200.65 214.962 200.552 215.503 200.552C216.045 200.552 216.535 200.641 216.973 200.818C217.421 200.986 217.804 201.229 218.121 201.546C218.448 201.863 218.7 202.241 218.877 202.68C219.055 203.119 219.143 203.604 219.143 204.136C219.143 204.239 219.139 204.346 219.129 204.458C219.129 204.57 219.125 204.673 219.115 204.766H212.927C212.946 205.093 213.021 205.396 213.151 205.676C213.291 205.947 213.473 206.185 213.697 206.39C213.931 206.586 214.201 206.74 214.509 206.852C214.817 206.964 215.149 207.02 215.503 207.02C216.035 207.02 216.479 206.922 216.833 206.726C217.197 206.521 217.519 206.194 217.799 205.746L218.863 206.138C218.565 206.782 218.131 207.277 217.561 207.622C217.001 207.958 216.315 208.126 215.503 208.126ZM215.503 201.658C215.177 201.658 214.869 201.709 214.579 201.812C214.29 201.905 214.033 202.041 213.809 202.218C213.585 202.395 213.399 202.61 213.249 202.862C213.109 203.105 213.021 203.371 212.983 203.66H217.939C217.93 203.38 217.86 203.119 217.729 202.876C217.599 202.633 217.421 202.423 217.197 202.246C216.983 202.059 216.726 201.915 216.427 201.812C216.138 201.709 215.83 201.658 215.503 201.658ZM220.507 200.72H221.683V201.784C221.897 201.401 222.196 201.107 222.579 200.902C222.961 200.697 223.405 200.594 223.909 200.594C224.422 200.594 224.856 200.701 225.211 200.916C225.575 201.121 225.878 201.429 226.121 201.84C226.382 201.392 226.709 201.075 227.101 200.888C227.493 200.692 227.941 200.594 228.445 200.594C228.827 200.594 229.177 200.641 229.495 200.734C229.821 200.827 230.097 200.981 230.321 201.196C230.554 201.401 230.736 201.672 230.867 202.008C230.997 202.335 231.063 202.731 231.063 203.198V208H229.887V203.562C229.887 203.301 229.859 203.058 229.803 202.834C229.747 202.601 229.653 202.4 229.523 202.232C229.392 202.064 229.215 201.933 228.991 201.84C228.776 201.747 228.501 201.7 228.165 201.7C227.857 201.7 227.591 201.756 227.367 201.868C227.143 201.971 226.956 202.106 226.807 202.274C226.657 202.442 226.545 202.633 226.471 202.848C226.405 203.063 226.373 203.277 226.373 203.492V208H225.197V203.45C225.197 202.881 225.057 202.447 224.777 202.148C224.497 201.849 224.077 201.7 223.517 201.7C222.985 201.7 222.546 201.868 222.201 202.204C221.855 202.531 221.683 203.007 221.683 203.632V208H220.507V200.72ZM236.695 208.126C236.033 208.126 235.487 208.019 235.057 207.804C234.637 207.589 234.297 207.286 234.035 206.894V208H232.859V197.78H234.035V202.022C234.278 201.593 234.628 201.247 235.085 200.986C235.552 200.725 236.121 200.594 236.793 200.594C237.288 200.594 237.75 200.683 238.179 200.86C238.609 201.028 238.977 201.271 239.285 201.588C239.603 201.905 239.85 202.297 240.027 202.764C240.214 203.221 240.307 203.735 240.307 204.304C240.307 204.873 240.219 205.391 240.041 205.858C239.864 206.325 239.617 206.726 239.299 207.062C238.982 207.398 238.599 207.659 238.151 207.846C237.713 208.033 237.227 208.126 236.695 208.126ZM236.597 207.02C236.971 207.02 237.307 206.959 237.605 206.838C237.913 206.707 238.175 206.525 238.389 206.292C238.604 206.059 238.772 205.779 238.893 205.452C239.015 205.116 239.075 204.743 239.075 204.332C239.075 203.931 239.01 203.567 238.879 203.24C238.758 202.913 238.585 202.638 238.361 202.414C238.137 202.181 237.871 202.003 237.563 201.882C237.255 201.761 236.919 201.7 236.555 201.7C235.781 201.7 235.165 201.929 234.707 202.386C234.259 202.834 234.035 203.455 234.035 204.248V204.514C234.035 204.934 234.101 205.303 234.231 205.62C234.371 205.937 234.553 206.199 234.777 206.404C235.011 206.609 235.281 206.763 235.589 206.866C235.907 206.969 236.243 207.02 236.597 207.02ZM244.988 208.126C244.428 208.126 243.914 208.033 243.448 207.846C242.99 207.659 242.594 207.403 242.258 207.076C241.931 206.74 241.674 206.343 241.488 205.886C241.301 205.419 241.208 204.906 241.208 204.346C241.208 203.805 241.301 203.305 241.488 202.848C241.684 202.381 241.95 201.98 242.286 201.644C242.622 201.299 243.018 201.033 243.476 200.846C243.942 200.65 244.446 200.552 244.988 200.552C245.529 200.552 246.019 200.641 246.458 200.818C246.906 200.986 247.288 201.229 247.606 201.546C247.932 201.863 248.184 202.241 248.362 202.68C248.539 203.119 248.628 203.604 248.628 204.136C248.628 204.239 248.623 204.346 248.614 204.458C248.614 204.57 248.609 204.673 248.6 204.766H242.412C242.43 205.093 242.505 205.396 242.636 205.676C242.776 205.947 242.958 206.185 243.182 206.39C243.415 206.586 243.686 206.74 243.994 206.852C244.302 206.964 244.633 207.02 244.988 207.02C245.52 207.02 245.963 206.922 246.318 206.726C246.682 206.521 247.004 206.194 247.284 205.746L248.348 206.138C248.049 206.782 247.615 207.277 247.046 207.622C246.486 207.958 245.8 208.126 244.988 208.126ZM244.988 201.658C244.661 201.658 244.353 201.709 244.064 201.812C243.774 201.905 243.518 202.041 243.294 202.218C243.07 202.395 242.883 202.61 242.734 202.862C242.594 203.105 242.505 203.371 242.468 203.66H247.424C247.414 203.38 247.344 203.119 247.214 202.876C247.083 202.633 246.906 202.423 246.682 202.246C246.467 202.059 246.21 201.915 245.912 201.812C245.622 201.709 245.314 201.658 244.988 201.658ZM249.991 200.72H251.167V201.56C251.269 201.261 251.465 201.028 251.755 200.86C252.044 200.683 252.403 200.594 252.833 200.594C252.954 200.594 253.08 200.603 253.211 200.622C253.351 200.631 253.449 200.645 253.505 200.664V201.798C253.411 201.761 253.309 201.737 253.197 201.728C253.085 201.709 252.968 201.7 252.847 201.7C252.296 201.7 251.876 201.84 251.587 202.12C251.307 202.4 251.167 202.797 251.167 203.31V208H249.991V200.72ZM257.911 201.07C257.995 200.669 258.135 200.286 258.331 199.922C258.527 199.558 258.779 199.241 259.087 198.97C259.395 198.69 259.764 198.471 260.193 198.312C260.622 198.153 261.112 198.074 261.663 198.074C262.176 198.074 262.634 198.149 263.035 198.298C263.436 198.438 263.777 198.639 264.057 198.9C264.337 199.161 264.547 199.474 264.687 199.838C264.836 200.202 264.911 200.599 264.911 201.028C264.911 201.635 264.78 202.195 264.519 202.708C264.267 203.212 263.945 203.674 263.553 204.094C263.161 204.514 262.732 204.897 262.265 205.242C261.798 205.578 261.355 205.877 260.935 206.138L259.857 206.81H265.275V208H257.645V207.02L259.773 205.606C260.473 205.139 261.07 204.71 261.565 204.318C262.06 203.917 262.461 203.539 262.769 203.184C263.086 202.829 263.315 202.489 263.455 202.162C263.604 201.826 263.679 201.49 263.679 201.154C263.679 200.809 263.623 200.515 263.511 200.272C263.408 200.029 263.259 199.833 263.063 199.684C262.876 199.535 262.652 199.427 262.391 199.362C262.139 199.297 261.868 199.264 261.579 199.264C261.159 199.264 260.795 199.329 260.487 199.46C260.188 199.591 259.932 199.763 259.717 199.978C259.512 200.183 259.348 200.417 259.227 200.678C259.115 200.93 259.04 201.182 259.003 201.434L257.911 201.07ZM266.105 203.1C266.105 202.372 266.189 201.705 266.357 201.098C266.525 200.482 266.777 199.95 267.113 199.502C267.459 199.054 267.893 198.704 268.415 198.452C268.938 198.2 269.554 198.074 270.263 198.074C270.973 198.074 271.589 198.191 272.111 198.424C272.634 198.657 273.068 198.993 273.413 199.432C273.759 199.871 274.015 200.403 274.183 201.028C274.351 201.644 274.435 202.335 274.435 203.1C274.435 203.828 274.351 204.5 274.183 205.116C274.025 205.723 273.773 206.25 273.427 206.698C273.091 207.146 272.662 207.496 272.139 207.748C271.617 208 271.001 208.126 270.291 208.126C269.619 208.126 269.022 208 268.499 207.748C267.977 207.496 267.538 207.146 267.183 206.698C266.829 206.25 266.558 205.723 266.371 205.116C266.194 204.5 266.105 203.828 266.105 203.1ZM267.337 203.1C267.337 204.295 267.599 205.233 268.121 205.914C268.644 206.595 269.367 206.936 270.291 206.936C271.299 206.936 272.037 206.595 272.503 205.914C272.97 205.233 273.203 204.295 273.203 203.1C273.203 201.905 272.965 200.967 272.489 200.286C272.013 199.605 271.271 199.264 270.263 199.264C269.759 199.264 269.325 199.353 268.961 199.53C268.597 199.707 268.294 199.964 268.051 200.3C267.809 200.636 267.627 201.042 267.505 201.518C267.393 201.985 267.337 202.512 267.337 203.1ZM275.439 201.07C275.523 200.669 275.663 200.286 275.859 199.922C276.055 199.558 276.307 199.241 276.615 198.97C276.923 198.69 277.292 198.471 277.721 198.312C278.15 198.153 278.64 198.074 279.191 198.074C279.704 198.074 280.162 198.149 280.563 198.298C280.964 198.438 281.305 198.639 281.585 198.9C281.865 199.161 282.075 199.474 282.215 199.838C282.364 200.202 282.439 200.599 282.439 201.028C282.439 201.635 282.308 202.195 282.047 202.708C281.795 203.212 281.473 203.674 281.081 204.094C280.689 204.514 280.26 204.897 279.793 205.242C279.326 205.578 278.883 205.877 278.463 206.138L277.385 206.81H282.803V208H275.173V207.02L277.301 205.606C278.001 205.139 278.598 204.71 279.093 204.318C279.588 203.917 279.989 203.539 280.297 203.184C280.614 202.829 280.843 202.489 280.983 202.162C281.132 201.826 281.207 201.49 281.207 201.154C281.207 200.809 281.151 200.515 281.039 200.272C280.936 200.029 280.787 199.833 280.591 199.684C280.404 199.535 280.18 199.427 279.919 199.362C279.667 199.297 279.396 199.264 279.107 199.264C278.687 199.264 278.323 199.329 278.015 199.46C277.716 199.591 277.46 199.763 277.245 199.978C277.04 200.183 276.876 200.417 276.755 200.678C276.643 200.93 276.568 201.182 276.531 201.434L275.439 201.07ZM283.731 201.07C283.815 200.669 283.955 200.286 284.151 199.922C284.347 199.558 284.599 199.241 284.907 198.97C285.215 198.69 285.584 198.471 286.013 198.312C286.443 198.153 286.933 198.074 287.483 198.074C287.997 198.074 288.454 198.149 288.855 198.298C289.257 198.438 289.597 198.639 289.877 198.9C290.157 199.161 290.367 199.474 290.507 199.838C290.657 200.202 290.731 200.599 290.731 201.028C290.731 201.635 290.601 202.195 290.339 202.708C290.087 203.212 289.765 203.674 289.373 204.094C288.981 204.514 288.552 204.897 288.085 205.242C287.619 205.578 287.175 205.877 286.755 206.138L285.677 206.81H291.095V208H283.465V207.02L285.593 205.606C286.293 205.139 286.891 204.71 287.385 204.318C287.88 203.917 288.281 203.539 288.589 203.184C288.907 202.829 289.135 202.489 289.275 202.162C289.425 201.826 289.499 201.49 289.499 201.154C289.499 200.809 289.443 200.515 289.331 200.272C289.229 200.029 289.079 199.833 288.883 199.684C288.697 199.535 288.473 199.427 288.211 199.362C287.959 199.297 287.689 199.264 287.399 199.264C286.979 199.264 286.615 199.329 286.307 199.46C286.009 199.591 285.752 199.763 285.537 199.978C285.332 200.183 285.169 200.417 285.047 200.678C284.935 200.93 284.861 201.182 284.823 201.434L283.731 201.07Z" fill="#777F8C"/>
<path d="M215 0C243.71 3.42358e-07 271.983 7.02321 297.356 20.4572C322.728 33.8913 344.429 53.3282 360.566 77.0733C376.703 100.818 386.787 128.151 389.937 156.687C393.088 185.223 389.209 214.096 378.641 240.79C368.072 267.483 351.134 291.186 329.303 309.831C307.472 328.477 281.411 341.499 253.393 347.761C225.375 354.024 196.25 353.338 168.558 345.762C140.866 338.186 115.448 323.952 94.5197 304.299L112.592 285.054C130.381 301.759 151.986 313.858 175.525 320.298C199.063 326.737 223.819 327.321 247.634 321.997C271.45 316.674 293.601 305.605 312.157 289.757C330.714 273.908 345.111 253.761 354.095 231.071C363.078 208.382 366.374 183.839 363.697 159.584C361.019 135.328 352.448 112.096 338.731 91.9123C325.015 71.729 306.569 55.2076 285.002 43.7887C263.436 32.3697 239.403 26.4 215 26.4V0Z" fill="#003E14"/>
<path d="M94.6515 304.422C68.9083 280.297 51.0097 248.992 43.2782 214.57C35.5466 180.147 38.339 144.194 51.2929 111.378C64.2468 78.5618 86.7644 50.396 115.924 30.5355C145.083 10.6749 179.539 0.0363293 214.819 9.28334e-05L214.846 26.4001C184.858 26.4309 155.571 35.4737 130.785 52.3552C106 69.2366 86.8598 93.1775 75.849 121.071C64.8381 148.965 62.4646 179.525 69.0364 208.784C75.6082 238.044 90.822 264.653 112.704 285.159L94.6515 304.422Z" fill="#5FAF2D"/>
<path d="M373.71 328.36C378.69 328.36 382.26 325.33 382.26 320.86C382.26 316.54 379.17 313.75 374.25 313.75C371.28 313.75 368.73 315.13 367.68 317.29C367.68 317.2 367.68 317.11 367.68 317.02C367.74 312.79 369.96 310.06 373.8 310.06C376.29 310.06 378.03 310.9 379.2 312.64L381.54 310.69C380.22 308.2 377.49 306.64 373.86 306.64C368.4 306.64 364.26 310.42 364.26 317.86C364.26 324.76 368.04 328.36 373.71 328.36ZM373.59 324.94C370.44 324.94 368.67 323.2 368.67 320.83C368.67 318.52 370.53 317.17 373.89 317.17C376.77 317.17 378.72 318.37 378.72 320.95C378.72 323.47 376.71 324.94 373.59 324.94ZM386.692 314.2C387.232 312.13 388.702 310.06 391.822 310.06C394.012 310.06 395.872 311.11 395.872 313.63C395.872 316.36 393.922 318.28 387.262 322.69L383.452 325.21V328H399.982V324.58H389.452L391.432 323.32C396.922 319.84 399.412 316.9 399.412 313.33C399.412 309.37 396.742 306.64 392.062 306.64C387.682 306.64 384.532 309.31 383.692 313.15L386.692 314.2ZM405.484 327.28L406.748 328.256L415.564 317.568L414.332 316.544L405.484 327.28ZM404.22 319.456C404.22 321.04 405.484 322.16 407.148 322.16C408.796 322.16 410.06 321.04 410.06 319.456C410.06 317.856 408.796 316.736 407.148 316.736C405.484 316.736 404.22 317.856 404.22 319.456ZM405.852 319.456C405.852 318.64 406.444 318.176 407.148 318.176C407.82 318.176 408.428 318.64 408.428 319.456C408.428 320.256 407.836 320.736 407.148 320.736C406.476 320.736 405.852 320.256 405.852 319.456ZM410.988 325.36C410.988 326.944 412.252 328.08 413.916 328.08C415.564 328.08 416.828 326.944 416.828 325.36C416.828 323.76 415.564 322.656 413.916 322.656C412.252 322.656 410.988 323.76 410.988 325.36ZM412.62 325.36C412.62 324.56 413.212 324.08 413.916 324.08C414.588 324.08 415.196 324.56 415.196 325.36C415.196 326.176 414.604 326.64 413.916 326.64C413.244 326.64 412.62 326.176 412.62 325.36Z" fill="#003E14"/>
<path d="M364.344 349H366.296V340.296L369.544 349H370.712L373.848 340.264V349H375.8V337.8H372.984L370.2 345.912L367.24 337.8H364.344V349ZM378.485 349H386.997V347.176H380.437V344.184H386.245V342.456H380.437V339.624H386.837V337.8H378.485V349ZM399.139 349V337.8H397.187V345.64L390.915 337.8H389.219V349H391.171V341.16L397.443 349H399.139Z" fill="#003E14"/>
</svg>
