<svg xmlns="http://www.w3.org/2000/svg" fill="none" viewBox="0 0 1097 638"><rect width="468" height="71" x="531.5" y="60.5" stroke="#B4BBC5" rx="35.5"/><rect width="468" height="72" x="531.5" y="174.5" stroke="#B4BBC5" rx="36"/><g clip-path="url(#a)"><rect width="315" height="72" fill="#F1F5F5" rx="10"/><path fill="#50565E" d="M82.518 28.664h4.112c-.288 1.744-1.728 2.704-3.568 2.704-2.24 0-3.872-1.632-3.872-3.968 0-2.352 1.584-3.968 3.808-3.968 1.648 0 2.688.8 3.408 2.016l1.696-.608c-.88-2.016-2.8-3.232-5.104-3.232-3.408 0-5.824 2.48-5.824 5.792 0 3.408 2.432 5.792 5.84 5.792 2.816 0 5.456-1.824 5.456-5.472 0-.208 0-.48-.016-.784h-5.936v1.728ZM90.408 33h8.513v-1.824h-6.56v-2.992h5.808v-1.728H92.36v-2.832h6.4V21.8h-8.352V33Zm20.655 0V21.8h-1.952v7.84l-6.272-7.84h-1.696V33h1.952v-7.84l6.272 7.84h1.696Zm2.69 0h8.512v-1.824h-6.56v-2.992h5.808v-1.728h-5.808v-2.832h6.4V21.8h-8.352V33Zm12.686 0v-4.064h2.608l2.88 4.064h2.352l-3.232-4.448c1.456-.448 2.48-1.616 2.48-3.28 0-1.84-1.04-3.472-4.272-3.472h-4.768V33h1.952Zm2.656-9.376c1.808 0 2.416.72 2.416 1.744 0 1.104-.96 1.744-2.368 1.744h-2.704v-3.488h2.656ZM134.348 33h2l1.056-2.448h5.296L143.756 33h2.048l-4.864-11.216h-1.712L134.348 33Zm3.76-4.176 1.936-4.544 1.952 4.544h-3.888ZM147.206 33h8.304v-1.824h-6.352V21.8h-1.952V33Zm13.75 0h1.952v-8.704L166.156 33h1.168l3.136-8.736V33h1.952V21.8h-2.816l-2.784 8.112-2.96-8.112h-2.896V33Zm14.14 0h8.512v-1.824h-6.56v-2.992h5.808v-1.728h-5.808v-2.832h6.4V21.8h-8.352V33Zm10.735 0h8.512v-1.824h-6.56v-2.992h5.808v-1.728h-5.808v-2.832h6.4V21.8h-8.352V33Zm9.614-9.376h3.712V33h1.952v-9.376h3.728V21.8h-9.392v1.824ZM206.409 33h1.952V21.8h-1.952V33Zm14.56 0V21.8h-1.952v7.84l-6.272-7.84h-1.696V33h1.952v-7.84l6.272 7.84h1.696Zm7.346-4.336h4.112c-.288 1.744-1.728 2.704-3.568 2.704-2.24 0-3.872-1.632-3.872-3.968 0-2.352 1.584-3.968 3.808-3.968 1.648 0 2.688.8 3.408 2.016l1.696-.608c-.88-2.016-2.8-3.232-5.104-3.232-3.408 0-5.824 2.48-5.824 5.792 0 3.408 2.432 5.792 5.84 5.792 2.816 0 5.456-1.824 5.456-5.472 0-.208 0-.48-.016-.784h-5.936v1.728ZM74.674 45.4c0 3.408 2.496 5.792 5.808 5.792 3.28 0 5.792-2.432 5.792-5.792 0-3.408-2.512-5.792-5.792-5.792-3.344 0-5.808 2.48-5.808 5.792Zm2.016 0c0-2.32 1.664-3.968 3.792-3.968 2.08 0 3.776 1.648 3.776 3.968 0 2.32-1.584 3.968-3.776 3.968-2.112 0-3.792-1.648-3.792-3.968ZM88.284 51h1.952v-4.304h5.888v-1.792h-5.888v-3.28h6.32V39.8h-8.272V51Zm20.595-3.024c0 .816-.752 1.392-2.064 1.392-1.648 0-2.752-.704-3.168-2.016l-1.696.608c.72 2.608 2.752 3.232 4.848 3.232 2.464 0 4.096-1.392 4.096-3.376 0-4.272-6.544-2.432-6.544-5.072 0-.896.912-1.312 2.032-1.312 1.504 0 2.352.608 2.72 2.016l1.696-.608c-.496-2.304-2.32-3.232-4.4-3.232-2.752 0-4.064 1.456-4.064 3.2 0 4.4 6.544 2.48 6.544 5.168ZM120.734 51h1.952V39.8h-1.952v4.608h-5.92V39.8h-1.952V51h1.952v-4.768h5.92V51Zm3.364 0h2l1.056-2.448h5.296L133.506 51h2.048l-4.864-11.216h-1.712L124.098 51Zm3.76-4.176 1.936-4.544 1.952 4.544h-3.888ZM138.908 51v-4.064h2.608l2.88 4.064h2.352l-3.232-4.448c1.456-.448 2.48-1.616 2.48-3.28 0-1.84-1.04-3.472-4.272-3.472h-4.768V51h1.952Zm2.656-9.376c1.808 0 2.416.72 2.416 1.744 0 1.104-.96 1.744-2.368 1.744h-2.704v-3.488h2.656ZM148.362 51h8.512v-1.824h-6.56v-2.992h5.808v-1.728h-5.808v-2.832h6.4V39.8h-8.352V51Zm18.606 0h1.952V39.8h-1.952v4.608h-5.92V39.8h-1.952V51h1.952v-4.768h5.92V51Zm3.956-5.6c0 3.408 2.496 5.792 5.808 5.792 3.28 0 5.792-2.432 5.792-5.792 0-3.408-2.512-5.792-5.792-5.792-3.344 0-5.808 2.48-5.808 5.792Zm2.016 0c0-2.32 1.664-3.968 3.792-3.968 2.08 0 3.776 1.648 3.776 3.968 0 2.32-1.584 3.968-3.776 3.968-2.112 0-3.792-1.648-3.792-3.968Zm11.594 5.6h8.304v-1.824h-6.352V39.8h-1.952V51Zm10 0h3.472c4.512 0 6.48-2.48 6.48-5.76 0-2.992-1.648-5.44-6.144-5.44h-3.808V51Zm3.744-9.376c3.024 0 4.192 1.536 4.192 3.712 0 2.24-1.344 3.84-4.336 3.84h-1.648v-7.552h1.792ZM206.503 51h8.512v-1.824h-6.56v-2.992h5.808v-1.728h-5.808v-2.832h6.4V39.8h-8.352V51Zm12.686 0v-4.064h2.608l2.88 4.064h2.352l-3.232-4.448c1.456-.448 2.48-1.616 2.48-3.28 0-1.84-1.04-3.472-4.272-3.472h-4.768V51h1.952Zm2.656-9.376c1.808 0 2.416.72 2.416 1.744 0 1.104-.96 1.744-2.368 1.744h-2.704v-3.488h2.656Zm12.878 6.352c0 .816-.752 1.392-2.064 1.392-1.648 0-2.752-.704-3.168-2.016l-1.696.608c.72 2.608 2.752 3.232 4.848 3.232 2.464 0 4.096-1.392 4.096-3.376 0-4.272-6.544-2.432-6.544-5.072 0-.896.912-1.312 2.032-1.312 1.504 0 2.352.608 2.72 2.016l1.696-.608c-.496-2.304-2.32-3.232-4.4-3.232-2.752 0-4.064 1.456-4.064 3.2 0 4.4 6.544 2.48 6.544 5.168Z"/></g><g clip-path="url(#b)"><rect width="315" height="72" y="116" fill="#F1F5F5" rx="10"/><path fill="#50565E" d="M74.098 154.976c0 .816-.752 1.392-2.064 1.392-1.648 0-2.752-.704-3.168-2.016l-1.696.608c.72 2.608 2.752 3.232 4.848 3.232 2.464 0 4.096-1.392 4.096-3.376 0-4.272-6.544-2.432-6.544-5.072 0-.896.912-1.312 2.032-1.312 1.504 0 2.352.608 2.72 2.016l1.696-.608c-.496-2.304-2.32-3.232-4.4-3.232-2.752 0-4.064 1.456-4.064 3.2 0 4.4 6.544 2.48 6.544 5.168Zm13.519-8.176h-1.952v6.256c0 2.08-.896 3.312-2.752 3.312-1.744 0-3.024-1.168-3.024-3.392V146.8h-1.952v6.416c0 3.312 2.256 4.976 4.976 4.976 2.4 0 4.704-1.408 4.704-4.88V146.8ZM92.11 158v-3.792h2.528c3.552 0 4.752-1.808 4.752-3.776 0-1.744-.88-3.632-4.656-3.632h-4.576V158h1.952Zm2.64-9.376c1.92 0 2.624.784 2.624 1.856 0 1.12-.848 1.904-2.688 1.904H92.11v-3.76h2.64Zm6.533 9.376h8.512v-1.824h-6.56v-2.992h5.808v-1.728h-5.808v-2.832h6.4V146.8h-8.352V158Zm12.686 0v-4.064h2.608l2.88 4.064h2.352l-3.232-4.448c1.456-.448 2.48-1.616 2.48-3.28 0-1.84-1.04-3.472-4.272-3.472h-4.768V158h1.952Zm2.656-9.376c1.808 0 2.416.72 2.416 1.744 0 1.104-.96 1.744-2.368 1.744h-2.704v-3.488h2.656Zm16.156-1.824h-2l-3.408 8.576-3.664-8.576h-2.112l4.928 11.2h1.584l4.672-11.2Zm1.408 11.2h1.952v-11.2h-1.952V158Zm10.721-3.024c0 .816-.752 1.392-2.064 1.392-1.648 0-2.752-.704-3.168-2.016l-1.696.608c.72 2.608 2.752 3.232 4.848 3.232 2.464 0 4.096-1.392 4.096-3.376 0-4.272-6.544-2.432-6.544-5.072 0-.896.912-1.312 2.032-1.312 1.504 0 2.352.608 2.72 2.016l1.696-.608c-.496-2.304-2.32-3.232-4.4-3.232-2.752 0-4.064 1.456-4.064 3.2 0 4.4 6.544 2.48 6.544 5.168Zm3.294-2.576c0 3.408 2.496 5.792 5.808 5.792 3.28 0 5.792-2.432 5.792-5.792 0-3.408-2.512-5.792-5.792-5.792-3.344 0-5.808 2.48-5.808 5.792Zm2.016 0c0-2.32 1.664-3.968 3.792-3.968 2.08 0 3.776 1.648 3.776 3.968 0 2.32-1.584 3.968-3.776 3.968-2.112 0-3.792-1.648-3.792-3.968Zm13.546 5.6v-4.064h2.608l2.88 4.064h2.352l-3.232-4.448c1.456-.448 2.48-1.616 2.48-3.28 0-1.84-1.04-3.472-4.272-3.472h-4.768V158h1.952Zm2.656-9.376c1.808 0 2.416.72 2.416 1.744 0 1.104-.96 1.744-2.368 1.744h-2.704v-3.488h2.656Zm15.578-1.824h-2.224l-3.184 5.072-3.12-5.072h-2.304l4.416 7.04V158h1.952v-4.16l4.464-7.04Zm5.455 11.2h4.784c2.624 0 4.416-.944 4.416-3.248 0-1.44-.736-2.368-1.952-2.672 1.008-.448 1.568-1.28 1.568-2.464 0-1.648-.928-2.816-3.936-2.816h-4.88V158Zm4.832-4.864c1.648 0 2.352.496 2.352 1.52 0 1.152-.768 1.616-2.448 1.616h-2.784v-3.136h2.88Zm-.192-4.608c1.616 0 2.16.464 2.16 1.456 0 .912-.736 1.488-2 1.488h-2.848v-2.944h2.688Zm5.937 3.872c0 3.408 2.496 5.792 5.808 5.792 3.28 0 5.792-2.432 5.792-5.792 0-3.408-2.512-5.792-5.792-5.792-3.344 0-5.808 2.48-5.808 5.792Zm2.016 0c0-2.32 1.664-3.968 3.792-3.968 2.08 0 3.776 1.648 3.776 3.968 0 2.32-1.584 3.968-3.776 3.968-2.112 0-3.792-1.648-3.792-3.968Zm9.767 5.6h2l1.056-2.448h5.296l1.056 2.448h2.048l-4.864-11.216h-1.712L209.816 158Zm3.76-4.176 1.936-4.544 1.952 4.544h-3.888Zm11.05 4.176v-4.064h2.608l2.88 4.064h2.352l-3.232-4.448c1.456-.448 2.48-1.616 2.48-3.28 0-1.84-1.04-3.472-4.272-3.472h-4.768V158h1.952Zm2.656-9.376c1.808 0 2.416.72 2.416 1.744 0 1.104-.96 1.744-2.368 1.744h-2.704v-3.488h2.656Zm6.799 9.376h3.472c4.512 0 6.48-2.48 6.48-5.76 0-2.992-1.648-5.44-6.144-5.44h-3.808V158Zm3.744-9.376c3.024 0 4.192 1.536 4.192 3.712 0 2.24-1.344 3.84-4.336 3.84h-1.648v-7.552h1.792Z"/></g><g clip-path="url(#c)"><rect width="315" height="72" y="232" fill="#F1F5F5" rx="10"/><path fill="#50565E" d="M65.596 274h1.952v-8.704L70.796 274h1.168l3.136-8.736V274h1.952v-11.2h-2.816l-2.784 8.112-2.96-8.112h-2.896V274Zm12.86 0h2l1.057-2.448h5.296L87.865 274h2.048l-4.864-11.216h-1.712L78.457 274Zm3.76-4.176 1.937-4.544 1.952 4.544h-3.888ZM101.236 274v-11.2h-1.952v7.84l-6.272-7.84h-1.696V274h1.952v-7.84l6.272 7.84h1.696Zm1.409 0h2l1.056-2.448h5.296l1.056 2.448h2.048l-4.864-11.216h-1.712L102.644 274Zm3.76-4.176 1.936-4.544 1.952 4.544h-3.888Zm13.208-.16h4.112c-.288 1.744-1.728 2.704-3.568 2.704-2.24 0-3.872-1.632-3.872-3.968 0-2.352 1.584-3.968 3.808-3.968 1.648 0 2.688.8 3.408 2.016l1.696-.608c-.88-2.016-2.8-3.232-5.104-3.232-3.408 0-5.824 2.48-5.824 5.792 0 3.408 2.432 5.792 5.84 5.792 2.816 0 5.456-1.824 5.456-5.472 0-.208 0-.48-.016-.784h-5.936v1.728Zm7.891 4.336h8.512v-1.824h-6.56v-2.992h5.808v-1.728h-5.808v-2.832h6.4V262.8h-8.352V274Zm10.734 0h1.952v-8.704l3.248 8.704h1.168l3.136-8.736V274h1.952v-11.2h-2.816l-2.784 8.112-2.96-8.112h-2.896V274Zm14.141 0h8.512v-1.824h-6.56v-2.992h5.808v-1.728h-5.808v-2.832h6.4V262.8h-8.352V274Zm20.654 0v-11.2h-1.952v7.84l-6.272-7.84h-1.696V274h1.952v-7.84l6.272 7.84h1.696Zm1.569-9.376h3.712V274h1.952v-9.376h3.728V262.8h-9.392v1.824ZM189.878 274h4.784c2.624 0 4.416-.944 4.416-3.248 0-1.44-.736-2.368-1.952-2.672 1.008-.448 1.568-1.28 1.568-2.464 0-1.648-.928-2.816-3.936-2.816h-4.88V274Zm4.832-4.864c1.648 0 2.352.496 2.352 1.52 0 1.152-.768 1.616-2.448 1.616h-2.784v-3.136h2.88Zm-.192-4.608c1.616 0 2.16.464 2.16 1.456 0 .912-.736 1.488-2 1.488h-2.848v-2.944h2.688Zm5.937 3.872c0 3.408 2.496 5.792 5.808 5.792 3.28 0 5.792-2.432 5.792-5.792 0-3.408-2.512-5.792-5.792-5.792-3.344 0-5.808 2.48-5.808 5.792Zm2.016 0c0-2.32 1.664-3.968 3.792-3.968 2.08 0 3.776 1.648 3.776 3.968 0 2.32-1.584 3.968-3.776 3.968-2.112 0-3.792-1.648-3.792-3.968Zm9.767 5.6h2l1.056-2.448h5.296l1.056 2.448h2.048l-4.864-11.216h-1.712L212.238 274Zm3.76-4.176 1.936-4.544 1.952 4.544h-3.888Zm11.05 4.176v-4.064h2.608l2.88 4.064h2.352l-3.232-4.448c1.456-.448 2.48-1.616 2.48-3.28 0-1.84-1.04-3.472-4.272-3.472h-4.768V274h1.952Zm2.656-9.376c1.808 0 2.416.72 2.416 1.744 0 1.104-.96 1.744-2.368 1.744h-2.704v-3.488h2.656Zm6.799 9.376h3.472c4.512 0 6.48-2.48 6.48-5.76 0-2.992-1.648-5.44-6.144-5.44h-3.808V274Zm3.744-9.376c3.024 0 4.192 1.536 4.192 3.712 0 2.24-1.344 3.84-4.336 3.84h-1.648v-7.552h1.792Z"/></g><g clip-path="url(#d)"><rect width="315" height="72" y="347" fill="#5FAF2D" rx="10"/><path fill="#fff" d="M79.159 389h8.512v-1.824h-6.56v-2.992h5.808v-1.728H81.11v-2.832h6.4V377.8h-8.352V389Zm20.048-11.2h-2.336l-2.864 4.048-2.88-4.048h-2.32l3.968 5.504L88.631 389h2.336l3.024-4.24 3.024 4.24h2.32l-4.112-5.696 3.984-5.504Zm1.639 11.2h8.512v-1.824h-6.56v-2.992h5.808v-1.728h-5.808v-2.832h6.4V377.8h-8.352V389Zm19.012-3.648c-.64 1.264-1.872 2.016-3.376 2.016-2.208 0-3.808-1.664-3.808-3.968 0-2.336 1.568-3.968 3.808-3.968 1.488 0 2.56.656 3.296 2.016l1.696-.608c-.688-1.936-2.704-3.232-4.992-3.232-3.376 0-5.824 2.448-5.824 5.792 0 3.376 2.4 5.792 5.744 5.792 2.352 0 4.304-1.232 5.152-3.232l-1.696-.608Zm13.071-7.552h-1.952v6.256c0 2.08-.896 3.312-2.752 3.312-1.744 0-3.024-1.168-3.024-3.392V377.8h-1.952v6.416c0 3.312 2.256 4.976 4.976 4.976 2.4 0 4.704-1.408 4.704-4.88V377.8Zm1.422 1.824h3.712V389h1.952v-9.376h3.728V377.8h-9.392v1.824ZM145.315 389h1.952v-11.2h-1.952V389Zm14.545-11.2h-2l-3.408 8.576-3.664-8.576h-2.112l4.928 11.2h1.584l4.672-11.2Zm1.408 11.2h8.512v-1.824h-6.56v-2.992h5.808v-1.728h-5.808v-2.832h6.4V377.8h-8.352V389Zm15.047 0h4.784c2.624 0 4.416-.944 4.416-3.248 0-1.44-.736-2.368-1.952-2.672 1.008-.448 1.568-1.28 1.568-2.464 0-1.648-.928-2.816-3.936-2.816h-4.88V389Zm4.832-4.864c1.648 0 2.352.496 2.352 1.52 0 1.152-.768 1.616-2.448 1.616h-2.784v-3.136h2.88Zm-.192-4.608c1.616 0 2.16.464 2.16 1.456 0 .912-.736 1.488-2 1.488h-2.848v-2.944h2.688Zm5.938 3.872c0 3.408 2.496 5.792 5.808 5.792 3.28 0 5.792-2.432 5.792-5.792 0-3.408-2.512-5.792-5.792-5.792-3.344 0-5.808 2.48-5.808 5.792Zm2.016 0c0-2.32 1.664-3.968 3.792-3.968 2.08 0 3.776 1.648 3.776 3.968 0 2.32-1.584 3.968-3.776 3.968-2.112 0-3.792-1.648-3.792-3.968Zm9.767 5.6h2l1.056-2.448h5.296l1.056 2.448h2.048l-4.864-11.216h-1.712L198.676 389Zm3.76-4.176 1.936-4.544 1.952 4.544h-3.888Zm11.05 4.176v-4.064h2.608l2.88 4.064h2.352l-3.232-4.448c1.456-.448 2.48-1.616 2.48-3.28 0-1.84-1.04-3.472-4.272-3.472h-4.768V389h1.952Zm2.656-9.376c1.808 0 2.416.72 2.416 1.744 0 1.104-.96 1.744-2.368 1.744h-2.704v-3.488h2.656ZM222.94 389h3.472c4.512 0 6.48-2.48 6.48-5.76 0-2.992-1.648-5.44-6.144-5.44h-3.808V389Zm3.744-9.376c3.024 0 4.192 1.536 4.192 3.712 0 2.24-1.344 3.84-4.336 3.84h-1.648v-7.552h1.792Z"/></g><path fill="#50565E" d="M699.689 93h2l1.056-2.448h5.296L709.097 93h2.048l-4.864-11.216h-1.712L699.689 93Zm3.76-4.176 1.936-4.544 1.952 4.544h-3.888Zm17.994-7.024h-1.952v6.256c0 2.08-.896 3.312-2.752 3.312-1.744 0-3.024-1.168-3.024-3.392V81.8h-1.952v6.416c0 3.312 2.256 4.976 4.976 4.976 2.4 0 4.704-1.408 4.704-4.88V81.8Zm2.542 11.2h3.472c4.512 0 6.48-2.48 6.48-5.76 0-2.992-1.648-5.44-6.144-5.44h-3.808V93Zm3.744-9.376c3.024 0 4.192 1.536 4.192 3.712 0 2.24-1.344 3.84-4.336 3.84h-1.648v-7.552h1.792ZM735.953 93h1.952V81.8h-1.952V93Zm3.521-9.376h3.712V93h1.952v-9.376h3.728V81.8h-9.392v1.824ZM753.47 93h2l1.056-2.448h5.296L762.878 93h2.048l-4.864-11.216h-1.712L753.47 93Zm3.76-4.176 1.936-4.544 1.952 4.544h-3.888ZM776.248 93V81.8h-1.952v7.84l-6.272-7.84h-1.696V93h1.952v-7.84l6.272 7.84h1.696Zm2.69 0h3.472c4.512 0 6.48-2.48 6.48-5.76 0-2.992-1.648-5.44-6.144-5.44h-3.808V93Zm3.744-9.376c3.024 0 4.192 1.536 4.192 3.712 0 2.24-1.344 3.84-4.336 3.84h-1.648v-7.552h1.792ZM797.171 93v-4.064h2.608l2.88 4.064h2.352l-3.232-4.448c1.456-.448 2.48-1.616 2.48-3.28 0-1.84-1.04-3.472-4.272-3.472h-4.768V93h1.952Zm2.656-9.376c1.808 0 2.416.72 2.416 1.744 0 1.104-.96 1.744-2.368 1.744h-2.704v-3.488h2.656ZM806.625 93h1.952V81.8h-1.952V93Zm10.721-3.024c0 .816-.752 1.392-2.064 1.392-1.648 0-2.752-.704-3.168-2.016l-1.696.608c.72 2.608 2.752 3.232 4.848 3.232 2.464 0 4.096-1.392 4.096-3.376 0-4.272-6.544-2.432-6.544-5.072 0-.896.912-1.312 2.032-1.312 1.504 0 2.352.608 2.72 2.016l1.696-.608c-.496-2.304-2.32-3.232-4.4-3.232-2.752 0-4.064 1.456-4.064 3.2 0 4.4 6.544 2.48 6.544 5.168ZM821.328 93h1.952v-3.744l1.2-1.216 4.24 4.96h2.528l-5.264-6.224 4.96-4.976h-2.512l-5.152 5.216V81.8h-1.952V93Zm-95.659 14.352c-.64 1.264-1.872 2.016-3.376 2.016-2.208 0-3.808-1.664-3.808-3.968 0-2.336 1.568-3.968 3.808-3.968 1.488 0 2.559.656 3.296 2.016l1.696-.608c-.688-1.936-2.704-3.232-4.992-3.232-3.376 0-5.824 2.448-5.824 5.792 0 3.376 2.4 5.792 5.744 5.792 2.352 0 4.304-1.232 5.152-3.232l-1.696-.608Zm2.69-1.952c0 3.408 2.496 5.792 5.808 5.792 3.28 0 5.792-2.432 5.792-5.792 0-3.408-2.512-5.792-5.792-5.792-3.344 0-5.808 2.48-5.808 5.792Zm2.016 0c0-2.32 1.664-3.968 3.792-3.968 2.08 0 3.776 1.648 3.776 3.968 0 2.32-1.584 3.968-3.776 3.968-2.112 0-3.792-1.648-3.792-3.968Zm11.594 5.6h1.952v-8.704l3.248 8.704h1.168l3.136-8.736V111h1.952V99.8h-2.816l-2.784 8.112-2.96-8.112h-2.896V111Zm14.141 0h1.952v-8.704L761.31 111h1.168l3.136-8.736V111h1.952V99.8h-2.816l-2.784 8.112-2.96-8.112h-2.896V111Zm14.14 0h1.952V99.8h-1.952V111Zm3.521-9.376h3.712V111h1.952v-9.376h3.728V99.8h-9.392v1.824Zm10.328 0h3.712V111h1.952v-9.376h3.728V99.8h-9.392v1.824ZM795.063 111h8.512v-1.824h-6.56v-2.992h5.808v-1.728h-5.808v-2.832h6.4V99.8h-8.352V111Zm10.734 0h8.512v-1.824h-6.56v-2.992h5.808v-1.728h-5.808v-2.832h6.4V99.8h-8.352V111ZM633.741 207v-11.2h-1.952v7.84l-6.272-7.84h-1.696V207h1.952v-7.84l6.272 7.84h1.696Zm2.001-5.6c0 3.408 2.496 5.792 5.808 5.792 3.28 0 5.792-2.432 5.792-5.792 0-3.408-2.512-5.792-5.792-5.792-3.344 0-5.808 2.48-5.808 5.792Zm2.016 0c0-2.32 1.664-3.968 3.792-3.968 2.08 0 3.776 1.648 3.776 3.968 0 2.32-1.584 3.968-3.776 3.968-2.112 0-3.792-1.648-3.792-3.968Zm11.594 5.6h1.952v-8.704l3.248 8.704h1.168l3.136-8.736V207h1.952v-11.2h-2.816l-2.784 8.112-2.96-8.112h-2.896V207Zm14.14 0h1.952v-11.2h-1.952V207Zm14.561 0v-11.2h-1.952v7.84l-6.272-7.84h-1.696V207h1.952v-7.84l6.272 7.84h1.696Zm1.409 0h2l1.056-2.448h5.296L688.87 207h2.048l-4.864-11.216h-1.712L679.462 207Zm3.76-4.176 1.936-4.544 1.952 4.544h-3.888Zm6.635-5.2h3.712V207h1.952v-9.376h3.728V195.8h-9.392v1.824ZM700.821 207h1.952v-11.2h-1.952V207Zm3.952-5.6c0 3.408 2.496 5.792 5.808 5.792 3.28 0 5.792-2.432 5.792-5.792 0-3.408-2.512-5.792-5.792-5.792-3.344 0-5.808 2.48-5.808 5.792Zm2.016 0c0-2.32 1.664-3.968 3.792-3.968 2.08 0 3.776 1.648 3.776 3.968 0 2.32-1.584 3.968-3.776 3.968-2.112 0-3.792-1.648-3.792-3.968Zm21.514 5.6v-11.2h-1.952v7.84l-6.272-7.84h-1.696V207h1.952v-7.84l6.272 7.84h1.696Zm5.722 0h2l1.056-2.448h5.296l1.056 2.448h2.048l-4.864-11.216h-1.712L734.025 207Zm3.76-4.176 1.936-4.544 1.952 4.544h-3.888ZM756.803 207v-11.2h-1.952v7.84l-6.272-7.84h-1.696V207h1.952v-7.84l6.272 7.84h1.696Zm2.689 0h3.472c4.512 0 6.48-2.48 6.48-5.76 0-2.992-1.648-5.44-6.144-5.44h-3.808V207Zm3.744-9.376c3.024 0 4.192 1.536 4.192 3.712 0 2.24-1.344 3.84-4.336 3.84h-1.648v-7.552h1.792Zm14.49 9.376v-4.064h2.608l2.88 4.064h2.352l-3.232-4.448c1.456-.448 2.48-1.616 2.48-3.28 0-1.84-1.04-3.472-4.272-3.472h-4.768V207h1.952Zm2.656-9.376c1.808 0 2.416.72 2.416 1.744 0 1.104-.96 1.744-2.368 1.744h-2.704v-3.488h2.656ZM787.18 207h8.512v-1.824h-6.56v-2.992h5.808v-1.728h-5.808v-2.832h6.4V195.8h-8.352V207Zm10.734 0h1.952v-8.704l3.248 8.704h1.168l3.136-8.736V207h1.952v-11.2h-2.816l-2.784 8.112-2.96-8.112h-2.896V207Zm23.677-11.2h-1.952v6.256c0 2.08-.896 3.312-2.752 3.312-1.744 0-3.024-1.168-3.024-3.392V195.8h-1.952v6.416c0 3.312 2.256 4.976 4.976 4.976 2.4 0 4.704-1.408 4.704-4.88V195.8Zm12.462 11.2v-11.2h-1.952v7.84l-6.272-7.84h-1.696V207h1.952v-7.84l6.272 7.84h1.696Zm2.689 0h8.512v-1.824h-6.56v-2.992h5.808v-1.728h-5.808v-2.832h6.4V195.8h-8.352V207Zm12.687 0v-4.064h2.608l2.88 4.064h2.352l-3.232-4.448c1.456-.448 2.48-1.616 2.48-3.28 0-1.84-1.04-3.472-4.272-3.472h-4.768V207h1.952Zm2.656-9.376c1.808 0 2.416.72 2.416 1.744 0 1.104-.96 1.744-2.368 1.744h-2.704v-3.488h2.656Zm5.252 9.376h2l1.056-2.448h5.296l1.056 2.448h2.048l-4.864-11.216h-1.712L857.337 207Zm3.76-4.176 1.936-4.544 1.952 4.544h-3.888Zm6.635-5.2h3.712V207h1.952v-9.376h3.728V195.8h-9.392v1.824ZM878.696 207h1.952v-11.2h-1.952V207Zm3.952-5.6c0 3.408 2.496 5.792 5.808 5.792 3.28 0 5.792-2.432 5.792-5.792 0-3.408-2.512-5.792-5.792-5.792-3.344 0-5.808 2.48-5.808 5.792Zm2.016 0c0-2.32 1.664-3.968 3.792-3.968 2.08 0 3.776 1.648 3.776 3.968 0 2.32-1.584 3.968-3.776 3.968-2.112 0-3.792-1.648-3.792-3.968Zm21.514 5.6v-11.2h-1.952v7.84l-6.272-7.84h-1.696V207h1.952v-7.84l6.272 7.84h1.696Zm-181.009 14.352c-.64 1.264-1.872 2.016-3.376 2.016-2.208 0-3.808-1.664-3.808-3.968 0-2.336 1.568-3.968 3.808-3.968 1.488 0 2.559.656 3.296 2.016l1.696-.608c-.688-1.936-2.704-3.232-4.992-3.232-3.376 0-5.824 2.448-5.824 5.792 0 3.376 2.4 5.792 5.744 5.792 2.352 0 4.304-1.232 5.152-3.232l-1.696-.608Zm2.69-1.952c0 3.408 2.496 5.792 5.808 5.792 3.28 0 5.792-2.432 5.792-5.792 0-3.408-2.512-5.792-5.792-5.792-3.344 0-5.808 2.48-5.808 5.792Zm2.016 0c0-2.32 1.664-3.968 3.792-3.968 2.08 0 3.776 1.648 3.776 3.968 0 2.32-1.584 3.968-3.776 3.968-2.112 0-3.792-1.648-3.792-3.968Zm11.594 5.6h1.952v-8.704l3.248 8.704h1.168l3.136-8.736V225h1.952v-11.2h-2.816l-2.784 8.112-2.96-8.112h-2.896V225Zm14.141 0h1.952v-8.704L760.81 225h1.168l3.136-8.736V225h1.952v-11.2h-2.816l-2.784 8.112-2.96-8.112h-2.896V225Zm14.14 0h1.952v-11.2h-1.952V225Zm3.521-9.376h3.712V225h1.952v-9.376h3.728V213.8h-9.392v1.824Zm10.328 0h3.712V225h1.952v-9.376h3.728V213.8h-9.392v1.824ZM794.563 225h8.512v-1.824h-6.56v-2.992h5.808v-1.728h-5.808v-2.832h6.4V213.8h-8.352V225Zm10.734 0h8.512v-1.824h-6.56v-2.992h5.808v-1.728h-5.808v-2.832h6.4V213.8h-8.352V225Z"/><path stroke="#B4BBC5" d="M520 92h-38a2 2 0 0 0-2 2v58M520 212h-38a2 2 0 0 1-2-2v-58M480 152.5H315M156.5 106V72"/><path fill="#B4BBC5" fill-rule="evenodd" d="m151 97 5.5 9.526L162 97h-11ZM513 98l9.526-5.5L513 87v11ZM513 217l9.526-5.5L513 206v11Z" clip-rule="evenodd"/><path stroke="#B4BBC5" d="M156.5 222v-34"/><path fill="#B4BBC5" fill-rule="evenodd" d="m151 213 5.5 9.526L162 213h-11Z" clip-rule="evenodd"/><path stroke="#B4BBC5" d="M156.5 338v-34"/><path fill="#B4BBC5" fill-rule="evenodd" d="m151 329 5.5 9.526L162 329h-11ZM37 512l5.5 9.526L48 512H37ZM152 512l5.5 9.526L163 512h-11ZM267 512l5.5 9.526L278 512h-11Z" clip-rule="evenodd"/><path stroke="#B4BBC5" d="M157.5 467v-48M42.5 517v-49M1022 468H42M272.5 516v-48M157.5 516v-49"/><path fill="#B4BBC5" fill-rule="evenodd" d="m422 512.174 5.5 9.351 5.5-9.351h-11Z" clip-rule="evenodd"/><path stroke="#B4BBC5" d="M427.5 512.174v-44.175"/><path fill="#B4BBC5" fill-rule="evenodd" d="m617 512.174 5.5 9.351 5.5-9.351h-11Z" clip-rule="evenodd"/><path stroke="#B4BBC5" d="M622.5 516.102V468"/><path fill="#B4BBC5" fill-rule="evenodd" d="m812 512.174 5.5 9.351 5.5-9.351h-11Z" clip-rule="evenodd"/><path stroke="#B4BBC5" d="M817.5 516.102V468"/><path fill="#B4BBC5" fill-rule="evenodd" d="m1016 512 5.5 9.526L1027 512h-11Z" clip-rule="evenodd"/><path stroke="#B4BBC5" d="M1021.5 516v-48"/><path fill="#50565E" d="M257.346 632.036c-.52 1.027-1.521 1.638-2.743 1.638-1.794 0-3.094-1.352-3.094-3.224 0-1.898 1.274-3.224 3.094-3.224 1.209 0 2.08.533 2.678 1.638l1.378-.494c-.559-1.573-2.197-2.626-4.056-2.626-2.743 0-4.732 1.989-4.732 4.706 0 2.743 1.95 4.706 4.667 4.706 1.911 0 3.497-1.001 4.186-2.626l-1.378-.494Zm2.482 2.964h1.456v-3.757c0-1.274.754-1.833 1.703-1.833 1.144 0 1.716.559 1.716 1.885V635h1.456v-3.978c0-2.002-.988-2.938-2.717-2.938-1.04 0-1.781.442-2.158 1.118v-3.692h-1.456V635Zm7.813 0h1.456v-6.76h-1.456V635Zm-.13-8.71c0 .442.364.793.858.793s.858-.351.858-.793c0-.442-.364-.793-.858-.793s-.858.351-.858.793Zm2.938 3.276h3.653l-3.861 4.498V635h5.915v-1.326h-3.861l3.874-4.511v-.923h-5.72v1.326ZM277.38 635h1.456v-3.757c0-1.274.754-1.833 1.703-1.833 1.144 0 1.716.559 1.716 1.885V635h1.456v-3.978c0-2.002-.988-2.938-2.717-2.938-1.04 0-1.781.442-2.158 1.118v-3.692h-1.456V635Zm7.813 0h1.456v-6.76h-1.456V635Zm-.13-8.71c0 .442.364.793.858.793s.858-.351.858-.793c0-.442-.364-.793-.858-.793s-.858.351-.858.793Zm3.198 8.71h1.456v-2.535l.481-.468 2.548 3.003h1.846l-3.146-3.744 2.964-3.016h-1.872l-2.821 2.886v-5.616h-1.456V635Z"/><rect width="149" height="69" x="352.5" y="538.5" fill="#fff" stroke="#B4BBC5" rx="34.5"/><path fill="#50565E" d="M405.138 567h3.255c4.23 0 6.075-2.325 6.075-5.4 0-2.805-1.545-5.1-5.76-5.1h-3.57V567Zm3.51-8.79c2.835 0 3.93 1.44 3.93 3.48 0 2.1-1.26 3.6-4.065 3.6h-1.545v-7.08h1.68Zm7.201 8.79h1.68v-7.8h-1.68v7.8Zm-.15-10.05c0 .51.42.915.99.915.57 0 .99-.405.99-.915s-.42-.915-.99-.915c-.57 0-.99.405-.99.915Zm6.974 10.23c1.35 0 2.205-.555 2.73-1.425v.915c0 1.215-.705 1.98-2.115 1.98-1.2 0-1.89-.555-2.175-1.11l-1.41.615c.465 1.23 1.83 2.025 3.645 2.025 2.22 0 3.735-1.185 3.735-3.81v-7.17h-1.68v1.035c-.465-.72-1.26-1.215-2.64-1.215-2.205 0-3.9 1.605-3.9 4.14 0 2.49 1.665 4.02 3.81 4.02Zm.375-1.53c-1.395 0-2.415-.93-2.415-2.55 0-1.62 1.095-2.55 2.43-2.55 1.365 0 2.34.87 2.34 2.4v.24c0 1.515-.93 2.46-2.355 2.46Zm5.897 1.35h1.68v-7.8h-1.68v7.8Zm-.15-10.05c0 .51.42.915.99.915.57 0 .99-.405.99-.915s-.42-.915-.99-.915c-.57 0-.99.405-.99.915Zm2.879 3.78h1.335v3.9c0 1.935.78 2.55 2.385 2.55a6.25 6.25 0 0 0 1.56-.195v-1.53a5.336 5.336 0 0 1-1.215.165c-.765 0-1.05-.255-1.05-1.08v-3.81h2.235v-1.53h-2.235v-1.935h-1.68v1.935h-1.335v1.53Zm7.742 1.14c.285-.87.975-1.32 2.07-1.32 1.155 0 1.695.57 1.695 1.695-3.78.015-5.37.81-5.37 2.565 0 1.395 1.005 2.37 2.715 2.37 1.305 0 2.25-.66 2.625-1.485V567h1.71v-4.65c0-2.19-1.14-3.33-3.315-3.33-1.875 0-3.135.84-3.57 2.37l1.44.48Zm1.515 3.81c-.84 0-1.35-.375-1.35-.975 0-.915 1.005-1.23 3.6-1.23v.24c0 1.17-.9 1.965-2.25 1.965Zm5.704 1.32h1.68v-10.95h-1.68V567Zm-54.083 20.18c2.22 0 3.81-1.62 3.81-4.17 0-2.475-1.59-3.99-3.75-3.99-1.305 0-2.295.57-2.79 1.41v-4.38h-1.68V587h1.68v-1.065c.51.75 1.41 1.245 2.73 1.245Zm-.315-1.53c-1.35 0-2.415-.84-2.415-2.43v-.24c0-1.53.96-2.43 2.4-2.43 1.35 0 2.37.915 2.37 2.52 0 1.65-.975 2.58-2.355 2.58Zm10.997 1.35h1.68v-7.8h-1.68v4.485c0 1.2-.765 1.965-1.965 1.965-1.5 0-1.875-.96-1.875-2.145V579.2h-1.68v4.59c0 2.325 1.095 3.39 3.075 3.39 1.17 0 2.07-.54 2.445-1.245V587Zm7.965-2.175c0 .57-.45.915-1.365.915-1.095 0-1.86-.42-2.19-1.41l-1.44.48c.48 1.725 1.86 2.37 3.69 2.37 1.815 0 3.075-.9 3.075-2.46 0-3.045-4.635-1.98-4.635-3.465 0-.51.555-.795 1.23-.795.96 0 1.665.36 1.995 1.41l1.44-.51c-.33-1.5-1.44-2.34-3.42-2.34-1.845 0-3.015.915-3.015 2.31 0 2.94 4.635 1.905 4.635 3.495Zm3.112 2.175h1.68v-7.8h-1.68v7.8Zm-.15-10.05c0 .51.42.915.99.915.57 0 .99-.405.99-.915s-.42-.915-.99-.915c-.57 0-.99.405-.99.915ZM417.85 587h1.68v-4.335c0-1.47.87-2.115 1.98-2.115 1.305 0 1.965.645 1.965 2.175V587h1.68v-4.59c0-2.31-1.14-3.39-3.135-3.39-1.2 0-2.055.51-2.49 1.29v-1.11h-1.68v7.8Zm12.675.18c1.755 0 3.06-.825 3.66-2.22l-1.44-.48c-.42.735-1.095 1.17-2.175 1.17-1.335 0-2.31-.795-2.415-1.965h6.285c.03-.3.045-.6.045-.825 0-2.355-1.725-3.84-3.945-3.84-2.49 0-4.14 1.725-4.14 4.065 0 2.43 1.65 4.095 4.125 4.095Zm-.015-6.63c1.215 0 2.22.72 2.265 1.755h-4.605c.15-1.05 1.08-1.755 2.34-1.755Zm9.401 4.275c0 .57-.45.915-1.365.915-1.095 0-1.86-.42-2.19-1.41l-1.44.48c.48 1.725 1.86 2.37 3.69 2.37 1.815 0 3.075-.9 3.075-2.46 0-3.045-4.635-1.98-4.635-3.465 0-.51.555-.795 1.23-.795.96 0 1.665.36 1.995 1.41l1.44-.51c-.33-1.5-1.44-2.34-3.42-2.34-1.845 0-3.015.915-3.015 2.31 0 2.94 4.635 1.905 4.635 3.495Zm7.537 0c0 .57-.45.915-1.365.915-1.095 0-1.86-.42-2.19-1.41l-1.44.48c.48 1.725 1.86 2.37 3.69 2.37 1.815 0 3.075-.9 3.075-2.46 0-3.045-4.635-1.98-4.635-3.465 0-.51.555-.795 1.23-.795.96 0 1.665.36 1.995 1.41l1.44-.51c-.33-1.5-1.44-2.34-3.42-2.34-1.845 0-3.015.915-3.015 2.31 0 2.94 4.635 1.905 4.635 3.495Zm6.772 2.355c1.755 0 3.06-.825 3.66-2.22l-1.44-.48c-.42.735-1.095 1.17-2.175 1.17-1.335 0-2.31-.795-2.415-1.965h6.285c.03-.3.045-.6.045-.825 0-2.355-1.725-3.84-3.945-3.84-2.49 0-4.14 1.725-4.14 4.065 0 2.43 1.65 4.095 4.125 4.095Zm-.015-6.63c1.215 0 2.22.72 2.265 1.755h-4.605c.15-1.05 1.08-1.755 2.34-1.755Zm9.401 4.275c0 .57-.45.915-1.365.915-1.095 0-1.86-.42-2.19-1.41l-1.44.48c.48 1.725 1.86 2.37 3.69 2.37 1.815 0 3.075-.9 3.075-2.46 0-3.045-4.635-1.98-4.635-3.465 0-.51.555-.795 1.23-.795.96 0 1.665.36 1.995 1.41l1.44-.51c-.33-1.5-1.44-2.34-3.42-2.34-1.845 0-3.015.915-3.015 2.31 0 2.94 4.635 1.905 4.635 3.495Z"/><rect width="149" height="69" x="947.5" y="538.5" fill="#fff" stroke="#B4BBC5" rx="34.5"/><path fill="#50565E" d="M999.195 574.165c0-2.52-6.135-.72-6.135-4.845 0-1.635 1.23-3 3.81-3 1.95 0 3.66.87 4.13 3.03l-1.595.57c-.345-1.32-1.14-1.89-2.55-1.89-1.05 0-1.905.39-1.905 1.23 0 2.475 6.14.75 6.14 4.755 0 1.86-1.535 3.165-3.845 3.165-1.965 0-3.87-.585-4.545-3.03l1.59-.57c.39 1.23 1.425 1.89 2.97 1.89 1.23 0 1.935-.54 1.935-1.305Zm6.885 3.015c-2.48 0-4.13-1.665-4.13-4.095 0-2.34 1.65-4.065 4.14-4.065 2.22 0 3.95 1.485 3.95 3.84 0 .225-.02.525-.05.825h-6.28c.1 1.17 1.08 1.965 2.41 1.965 1.08 0 1.76-.435 2.18-1.17l1.44.48c-.6 1.395-1.91 2.22-3.66 2.22Zm-.02-6.63c-1.26 0-2.19.705-2.34 1.755h4.61c-.05-1.035-1.05-1.755-2.27-1.755Zm11.14 3.78 1.44.48c-.53 1.47-1.88 2.37-3.65 2.37-2.47 0-4.17-1.665-4.17-4.095 0-2.415 1.7-4.065 4.16-4.065 1.72 0 3.06.87 3.67 2.37l-1.44.48c-.51-.9-1.17-1.32-2.16-1.32-1.47 0-2.46 1.02-2.46 2.535 0 1.515 1.02 2.565 2.46 2.565.98 0 1.67-.435 2.15-1.32Zm8.17 2.67v-1.065c-.37.705-1.27 1.245-2.44 1.245-1.98 0-3.08-1.065-3.08-3.39v-4.59h1.68v4.305c0 1.185.38 2.145 1.88 2.145 1.2 0 1.96-.765 1.96-1.965V569.2h1.68v7.8h-1.68Zm3.6 0v-7.8h1.68v.795c.23-.585.84-.93 1.61-.93.27 0 .67.045.81.075v1.575c-.18-.075-.53-.12-.83-.12-1.02 0-1.59.54-1.59 1.485V577h-1.68Zm5.22 0v-7.8h1.68v7.8h-1.68Zm-.15-10.05c0-.51.42-.915.99-.915.57 0 .99.405.99.915s-.42.915-.99.915c-.57 0-.99-.405-.99-.915Zm2.88 3.78v-1.53h1.34v-1.935h1.68v1.935h2.23v1.53h-2.23v3.81c0 .825.28 1.08 1.05 1.08.36 0 .78-.06 1.21-.165v1.53c-.45.12-1 .195-1.56.195-1.6 0-2.38-.615-2.38-2.55v-3.9h-1.34Zm7.86 9.27 1.28-3.18-3.42-7.62h1.96l2.33 5.385 1.99-5.385h1.8l-4.18 10.8h-1.76Z"/><rect width="149" height="69" x="547.5" y="538.5" fill="#fff" stroke="#B4BBC5" rx="34.5"/><path fill="#000" d="m605.554 581.329-2.475-4.054-2.337 4.054h-2.819l3.644-6.046-3.713-5.635h2.957l2.337 3.779 2.269-3.779h2.887l-3.712 5.772 3.781 5.909h-2.819ZM617.588 577.344c0 2.542-1.925 4.191-4.469 4.191-2.2 0-4.125-1.237-4.331-3.916h2.406c.138 1.168 1.1 1.649 2.132 1.649 1.237 0 1.787-.825 1.787-1.924s-.825-1.855-2.062-1.855c-.757-.069-1.513.343-1.925.962h-2.2l.825-6.803h7.562l-.275 2.268h-5.431l-.206 2.267s.55-.687 2.337-.687c2.063 0 3.85 1.374 3.85 3.848Z"/><path fill="#5FAF2D" d="M609.131 568.207c-1.306-5.016-5.362-9.207-13.887-9.207H585l1.375 10.032c1.031 8.451 4.263 11.199 10.038 12.23.068 0 .206 0 .206-.138v-.068a.148.148 0 0 0-.138-.138c-3.85-1.649-4.331-7.008-5.156-12.367l-.619-4.329h5.844c5.363 0 9.556-.069 12.169 4.054.069.068.069.068.206.137.138 0 .206-.069.206-.206Z"/><path fill="#000" d="M625.424 571.091h-3.987v-1.443h9.693v1.443h-4.056v10.238h-1.65v-10.238ZM638.831 577.416h-7.15c.069.755.412 1.442 1.031 1.855.619.481 1.375.755 2.2.687a3.035 3.035 0 0 0 2.544-1.1l.894 1.031c-.413.481-.894.825-1.513 1.099-1.444.55-3.094.481-4.469-.206-.687-.343-1.306-.893-1.65-1.58-.412-.687-.618-1.512-.618-2.336 0-.825.206-1.58.55-2.336a3.517 3.517 0 0 1 1.581-1.581c.687-.412 1.512-.618 2.269-.549.825 0 1.581.206 2.268.549a4.153 4.153 0 0 1 1.513 1.581c.412.756.55 1.511.55 2.336v.55Zm-6.256-2.955c-.55.481-.825 1.099-.894 1.855h5.637a3.148 3.148 0 0 0-.893-1.855 2.929 2.929 0 0 0-3.85 0ZM642.202 580.849c-.687-.344-1.237-.962-1.65-1.581a4.719 4.719 0 0 1 0-4.672c.413-.687.963-1.237 1.65-1.58.757-.412 1.582-.619 2.407-.55.756 0 1.512.138 2.131.481.619.344 1.1.825 1.444 1.374l-1.238.756c-.275-.412-.619-.756-1.031-.962a3.135 3.135 0 0 0-1.375-.343c-.55 0-1.1.137-1.581.412a2.814 2.814 0 0 0-1.1 1.099c-.275.481-.413 1.031-.413 1.649 0 .55.138 1.168.413 1.649.275.481.618.825 1.1 1.1a3.202 3.202 0 0 0 1.581.412c.481 0 .962-.069 1.375-.344.412-.206.756-.549 1.031-.962l1.238.756a3.638 3.638 0 0 1-1.444 1.443c-.688.344-1.375.481-2.131.481-.825 0-1.65-.206-2.407-.618ZM657.187 573.362c.687.618.962 1.58.962 2.886v5.084h-1.581v-4.878c.069-.687-.206-1.374-.619-1.924-.481-.481-1.1-.687-1.787-.618-.757-.069-1.513.274-2.063.755-.55.619-.825 1.375-.756 2.199v4.535h-1.581v-12.368h1.581v4.81a3.595 3.595 0 0 1 1.306-.962c.55-.275 1.169-.344 1.788-.344 1.031-.206 1.994.138 2.75.825Z"/><rect width="149" height="69" x="742.5" y="538.5" fill="#fff" stroke="#B4BBC5" rx="34.5"/><g clip-path="url(#e)"><path fill="#000" d="m798.251 582.473-2.63-4.35-2.563 4.35h-3.073l3.944-6.549-4.026-6.09h3.204l2.58 4.071 2.465-4.071h3.073l-3.96 6.287 4.075 6.352h-3.089ZM811.332 578.189c0 2.774-2.104 4.514-4.848 4.514-2.416 0-4.47-1.33-4.667-4.252h2.629c.181 1.264 1.2 1.806 2.301 1.806 1.38 0 1.972-.919 1.972-2.117 0-1.248-.92-2.019-2.202-2.019-1.068 0-1.775.508-2.104 1.05h-2.514l.871-7.337h8.233l-.279 2.462h-5.9l-.23 2.429s.624-.722 2.498-.722c2.268-.016 4.24 1.51 4.24 4.186Z"/><path fill="#5FAF2D" d="M802.129 568.258c-1.397-5.434-5.834-9.258-15.02-9.258H776l1.512 10.177c1.134 9.192 4.651 12.146 10.879 13.23.033 0 .23.032.23-.197 0-.082-.049-.148-.132-.181-4.207-1.773-4.683-7.567-5.587-13.394l-.69-4.645h6.343c5.85 0 10.353-.099 13.212 4.415.05.066.116.115.181.115a.19.19 0 0 0 .197-.197c0-.033-.016-.049-.016-.065Z"/><path fill="#000" d="M826.812 569.801h2.07c.346 0 .641.033.871.098.231.066.411.148.559.263.148.115.23.246.296.394.066.148.082.328.082.509 0 .279-.066.525-.181.722a1.116 1.116 0 0 1-.542.443c.279.066.493.197.657.394.165.213.247.476.247.804 0 .263-.049.476-.148.657-.099.18-.23.328-.411.459a2.282 2.282 0 0 1-.641.263 4.28 4.28 0 0 1-.838.082h-2.021v-5.088Zm.657.607v1.576h1.446c.329 0 .576-.066.773-.197a.653.653 0 0 0 .296-.575.761.761 0 0 0-.066-.344.479.479 0 0 0-.197-.247.943.943 0 0 0-.362-.147 2.6 2.6 0 0 0-.559-.049h-1.331v-.017Zm0 2.183v1.674h1.364c.46 0 .805-.065 1.019-.213.214-.131.312-.361.312-.673 0-.279-.098-.476-.296-.607-.197-.132-.525-.197-.969-.197h-1.43v.016ZM834.47 574.281a1.25 1.25 0 0 1-.477.493c-.23.115-.476.18-.756.18-.509 0-.904-.131-1.166-.394-.263-.262-.395-.689-.395-1.28v-2.167h.608v2.085c0 .164.017.312.049.459a.868.868 0 0 0 .493.641c.132.065.313.098.526.098.329 0 .608-.098.806-.295.197-.197.295-.476.295-.821v-2.167h.608v3.792h-.608v-.624h.017ZM838.447 573.855a.406.406 0 0 0-.181-.344 1.466 1.466 0 0 0-.427-.197c-.165-.05-.362-.099-.559-.148a2.81 2.81 0 0 1-.559-.197 1.07 1.07 0 0 1-.427-.328.877.877 0 0 1-.181-.558c0-.165.033-.312.099-.444a.908.908 0 0 1 .279-.328c.132-.098.28-.164.444-.213.164-.05.361-.082.575-.082.427 0 .789.098 1.068.279.28.18.46.443.542.755l-.558.197a.84.84 0 0 0-.362-.509 1.266 1.266 0 0 0-.69-.181c-.23 0-.411.05-.542.132-.132.082-.214.197-.214.344 0 .148.066.263.181.329.115.082.263.131.427.18.164.049.362.099.559.148.197.049.394.115.559.197.164.082.312.197.427.345a.935.935 0 0 1 .181.59.946.946 0 0 1-.395.805c-.263.197-.608.295-1.052.295-.953 0-1.528-.345-1.741-1.034l.558-.197c.181.46.575.69 1.151.69.279 0 .493-.05.624-.148.148-.066.214-.197.214-.378ZM839.794 570.013a.4.4 0 0 1 .099-.262.385.385 0 0 1 .279-.099c.115 0 .197.033.28.099a.373.373 0 0 1 .098.262.405.405 0 0 1-.098.263.388.388 0 0 1-.28.099.412.412 0 0 1-.279-.099.401.401 0 0 1-.099-.263Zm.066 1.1h.608v3.792h-.608v-3.792ZM841.503 571.113h.608v.574c.115-.213.28-.361.493-.476.214-.115.46-.164.74-.164.509 0 .904.131 1.183.41.279.279.411.706.411 1.313v2.134h-.608v-2.084c0-.411-.082-.723-.263-.92-.181-.197-.46-.295-.838-.295-.148 0-.296.016-.444.066a1.004 1.004 0 0 0-.361.213.91.91 0 0 0-.231.361 1.21 1.21 0 0 0-.082.493v2.15h-.608v-3.775ZM847.649 574.954c-.295 0-.558-.049-.805-.148a1.793 1.793 0 0 1-.624-.41 1.647 1.647 0 0 1-.411-.624 2.115 2.115 0 0 1-.148-.804c0-.279.049-.542.148-.788a1.79 1.79 0 0 1 .411-.624c.18-.18.378-.312.624-.41a2.1 2.1 0 0 1 .789-.148c.279 0 .542.049.772.131.23.082.428.214.592.378.164.164.296.361.394.591.099.23.132.476.132.755v.164c0 .066 0 .115-.017.164h-3.221c.017.164.05.328.115.476.066.148.165.263.28.378.115.098.263.18.427.246.164.066.329.082.526.082.279 0 .509-.049.69-.164.181-.099.362-.279.493-.509l.559.197a1.713 1.713 0 0 1-.674.771c-.263.214-.624.296-1.052.296Zm0-3.365c-.164 0-.328.033-.476.082-.148.049-.28.115-.395.213a1.405 1.405 0 0 0-.295.329 1.178 1.178 0 0 0-.148.426h2.58a.916.916 0 0 0-.115-.41 1.067 1.067 0 0 0-.28-.328 1.545 1.545 0 0 0-.394-.23 1.457 1.457 0 0 0-.477-.082ZM852.596 573.855a.406.406 0 0 0-.181-.344 1.466 1.466 0 0 0-.427-.197c-.165-.05-.362-.099-.559-.148a2.81 2.81 0 0 1-.559-.197 1.07 1.07 0 0 1-.427-.328.877.877 0 0 1-.181-.558c0-.165.033-.312.099-.444a.908.908 0 0 1 .279-.328c.132-.098.28-.164.444-.213.164-.05.361-.082.575-.082.427 0 .789.098 1.068.279.28.18.46.443.543.755l-.559.197a.84.84 0 0 0-.362-.509 1.266 1.266 0 0 0-.69-.181c-.23 0-.411.05-.542.132-.132.082-.214.197-.214.344 0 .148.066.263.181.329.115.082.263.131.427.18.164.049.362.099.559.148.197.049.394.115.559.197.164.082.312.197.427.345a.935.935 0 0 1 .181.59.946.946 0 0 1-.395.805c-.263.197-.608.295-1.051.295-.954 0-1.529-.345-1.742-1.034l.558-.197c.181.46.575.69 1.151.69.279 0 .493-.05.624-.148.148-.066.214-.197.214-.378ZM856.343 573.855a.406.406 0 0 0-.181-.344 1.466 1.466 0 0 0-.427-.197c-.165-.05-.362-.099-.559-.148a2.788 2.788 0 0 1-.559-.197 1.07 1.07 0 0 1-.427-.328.877.877 0 0 1-.181-.558c0-.165.033-.312.099-.444a.898.898 0 0 1 .279-.328c.131-.098.279-.164.444-.213.164-.05.361-.082.575-.082.427 0 .789.098 1.068.279.279.18.46.443.542.755l-.558.197a.84.84 0 0 0-.362-.509 1.266 1.266 0 0 0-.69-.181c-.23 0-.411.05-.542.132-.132.082-.214.197-.214.344 0 .148.066.263.181.329.115.082.263.131.427.18.164.049.362.099.559.148.197.049.394.115.558.197.165.082.313.197.428.345.115.147.18.344.18.59a.945.945 0 0 1-.394.805c-.263.197-.608.295-1.052.295-.953 0-1.528-.345-1.742-1.034l.559-.197c.181.46.575.69 1.15.69.28 0 .493-.05.625-.148.148-.066.214-.197.214-.378ZM828.998 581.471a.407.407 0 0 0-.181-.345 1.466 1.466 0 0 0-.427-.197 13.589 13.589 0 0 0-.559-.148 2.788 2.788 0 0 1-.559-.197 1.061 1.061 0 0 1-.427-.328.875.875 0 0 1-.181-.558c0-.164.033-.312.099-.443a.893.893 0 0 1 .279-.329c.132-.098.279-.164.444-.213.164-.049.361-.082.575-.082.427 0 .789.098 1.068.279.279.18.46.443.542.755l-.558.197a.84.84 0 0 0-.362-.509 1.266 1.266 0 0 0-.69-.18c-.23 0-.411.049-.542.131-.132.082-.214.197-.214.345a.36.36 0 0 0 .181.328c.115.082.263.131.427.18.164.05.362.099.559.148.197.049.394.115.558.197.165.082.313.197.428.345a.936.936 0 0 1 .181.591.945.945 0 0 1-.395.804c-.263.197-.608.295-1.052.295-.953 0-1.528-.344-1.742-1.034l.559-.197c.181.46.575.69 1.151.69.279 0 .493-.049.624-.148.131-.066.214-.197.214-.377ZM833.237 581.896a1.24 1.24 0 0 1-.476.493c-.23.115-.477.18-.756.18-.51 0-.904-.131-1.167-.394-.263-.262-.394-.689-.394-1.28v-2.166h.608v2.084c0 .164.016.312.049.46a.884.884 0 0 0 .164.377.88.88 0 0 0 .329.263c.132.066.312.098.526.098.329 0 .608-.098.805-.295.197-.197.296-.476.296-.821v-2.15h.608v3.792h-.608v-.641h.016ZM836.935 582.571c-.345 0-.625-.05-.855-.165a1.491 1.491 0 0 1-.542-.476v2.036h-.608v-5.236h.608v.673c.132-.23.312-.411.542-.542.23-.131.543-.197.888-.197.263 0 .493.049.723.131.23.082.411.214.575.378.164.164.296.361.394.607.099.246.148.509.148.805 0 .295-.049.558-.131.804-.099.246-.214.459-.395.624-.164.18-.361.311-.591.41-.23.098-.477.148-.756.148Zm-.049-.575c.197 0 .378-.033.525-.098a1.17 1.17 0 0 0 .674-.723c.066-.164.099-.361.099-.574 0-.213-.033-.394-.099-.575a1.271 1.271 0 0 0-.69-.705 1.358 1.358 0 0 0-.526-.099c-.411 0-.723.115-.953.361-.23.23-.361.558-.361.969v.131c0 .213.032.41.098.575.066.164.164.295.279.41.116.115.263.18.428.246.164.049.345.082.526.082ZM841.635 582.571c-.345 0-.625-.05-.855-.165a1.491 1.491 0 0 1-.542-.476v2.036h-.608v-5.236h.608v.673c.132-.23.312-.411.542-.542.23-.131.543-.197.888-.197.263 0 .493.049.723.131.23.082.411.214.575.378.164.164.296.361.394.607.099.246.148.509.148.805 0 .295-.049.558-.131.804-.099.246-.214.459-.395.624-.164.18-.361.311-.591.41-.23.098-.477.148-.756.148Zm-.049-.575c.197 0 .378-.033.525-.098.165-.066.296-.164.411-.279.115-.115.197-.263.263-.444.066-.164.099-.361.099-.574 0-.213-.033-.394-.099-.575a1.286 1.286 0 0 0-.69-.705 1.358 1.358 0 0 0-.526-.099c-.411 0-.723.115-.953.361-.23.23-.362.558-.362.969v.131c0 .213.033.41.099.575.066.164.164.295.279.41.115.115.263.18.428.246.164.049.328.082.526.082ZM844.051 580.6c0-.279.049-.542.147-.772a1.98 1.98 0 0 1 .411-.623c.181-.181.395-.312.641-.411a2.23 2.23 0 0 1 .822-.148c.296 0 .575.05.805.148.247.099.46.23.641.411.181.18.312.377.411.623.098.247.148.493.148.772s-.05.541-.148.788c-.099.246-.23.443-.411.623a1.866 1.866 0 0 1-.641.411 2.226 2.226 0 0 1-.822.147c-.295 0-.558-.049-.805-.147a1.805 1.805 0 0 1-1.052-1.034 1.995 1.995 0 0 1-.147-.788Zm.64 0c0 .197.033.394.099.558.066.164.164.312.279.443.115.131.263.213.428.295.164.066.345.099.542.099.197 0 .394-.033.559-.099.164-.065.312-.164.427-.279.115-.114.214-.262.279-.443.066-.164.099-.361.099-.558 0-.197-.033-.394-.099-.558a1.108 1.108 0 0 0-.295-.427 1.369 1.369 0 0 0-.444-.279 1.46 1.46 0 0 0-.542-.098c-.198 0-.378.033-.543.098a1.196 1.196 0 0 0-.706.723c-.05.131-.083.328-.083.525ZM848.898 578.713h.608v.443a.611.611 0 0 1 .313-.361 1.17 1.17 0 0 1 .558-.131c.066 0 .132 0 .198.016.065.017.115.017.147.033v.591c-.049-.016-.098-.033-.164-.033s-.115-.016-.181-.016c-.279 0-.509.066-.657.213-.148.148-.23.345-.23.624v2.446h-.608v-3.825h.016ZM850.969 578.713h.641v-.969h.608v.969h1.035v.574h-1.035v2.134c0 .213.033.361.115.443.082.082.197.131.378.131.164 0 .345-.032.542-.082v.575c-.098.016-.213.049-.345.065-.131.017-.246.017-.361.017-.346 0-.592-.099-.74-.279-.148-.181-.214-.493-.214-.936v-2.068h-.64v-.574h.016ZM818.94 567.305h-.641v17.694h.641v-17.694Z"/></g><rect width="69" height="69" x="7.5" y="538.5" fill="#fff" stroke="#B4BBC5" rx="34.5"/><path fill="#048C45" d="M50.307 560.33c-1.332 3.449-4.323 4.179-8.712 4.179h-2.601c-.358 0-.715 0-1.073.033.618-1.525 1.593-2.587 2.991-3.217 1.95-.895 4.454-.895 6.665-.895.943-.034 1.885-.034 2.73-.1Z"/><path fill="#E52825" d="M51.673 561.425c-1.95 4.345-6.307 4.777-10.046 4.777-.812 0-1.593-.034-2.34-.034l-.943 3.748c4.811-4.013 11.216-.033 10.533 6.004-.455 4.079-3.316 6.733-6.307 7.495-3.283.83-6.925-.431-8.55-3.814-.163-.365-.488-1.094-.585-1.459l3.478-.896c.065.199.163.398.26.564 2.309 3.814 7.023 1.891 7.543-2.056.553-4.013-5.007-6.169-7.51-1.46l-3.056-1.326-.065-.033 1.495-6.07c.098-.431.39-1.625.456-1.824 1.69-6.269 7.087-6.368 11.443-6.402a14.857 14.857 0 0 0-5.82-1.194c-8.387 0-15.214 6.932-15.214 15.523 0 8.557 6.795 15.522 15.215 15.522 8.388 0 15.215-6.932 15.215-15.522-.13-4.577-2.081-8.69-5.202-11.543Z"/><rect width="69" height="69" x="122.5" y="538.5" fill="#fff" stroke="#B4BBC5" rx="34.5"/><path fill="#5FAF2D" d="m161.254 566.724-4.399 4.452-4.398-4.452c-2.432-2.48-2.432-6.494 0-8.975a6.129 6.129 0 0 1 8.797 0c2.432 2.481 2.432 6.495 0 8.975Z"/><path fill="#005A28" d="m152.457 579.312 4.398-4.488 4.399 4.488c2.432 2.481 2.432 6.494 0 8.938a6.129 6.129 0 0 1-8.797 0c-2.432-2.444-2.432-6.457 0-8.938Z"/><path fill="#1E8737" d="m163.042 577.488-4.399-4.487 4.399-4.488a6.129 6.129 0 0 1 8.797 0c2.432 2.481 2.432 6.494 0 8.975a6.129 6.129 0 0 1-8.797 0Z"/><path fill="#AAE641" d="m150.704 568.513 4.399 4.488-4.399 4.487a6.129 6.129 0 0 1-8.797 0c-2.432-2.481-2.432-6.494 0-8.975a6.129 6.129 0 0 1 8.797 0Z"/><path fill="#50565E" d="M122.41 635v-3.081h2.054c2.886 0 3.861-1.469 3.861-3.068 0-1.417-.715-2.951-3.783-2.951h-3.718v9.1h1.586Zm2.145-7.618c1.56 0 2.132.637 2.132 1.508 0 .91-.689 1.547-2.184 1.547h-2.093v-3.055h2.145Zm7.911 7.774c1.521 0 2.652-.715 3.172-1.924l-1.248-.416c-.364.637-.949 1.014-1.885 1.014-1.157 0-2.002-.689-2.093-1.703h5.447c.026-.26.039-.52.039-.715 0-2.041-1.495-3.328-3.419-3.328-2.158 0-3.588 1.495-3.588 3.523 0 2.106 1.43 3.549 3.575 3.549Zm-.013-5.746c1.053 0 1.924.624 1.963 1.521h-3.991c.13-.91.936-1.521 2.028-1.521Zm4.618 5.59h1.456v-4.264c0-.819.494-1.287 1.378-1.287.26 0 .559.039.715.104v-1.365a4.458 4.458 0 0 0-.702-.065c-.663 0-1.196.299-1.391.806v-.689h-1.456V635Zm7.57.156c1.521 0 2.652-.715 3.172-1.924l-1.248-.416c-.364.637-.949 1.014-1.885 1.014-1.157 0-2.002-.689-2.093-1.703h5.447c.026-.26.039-.52.039-.715 0-2.041-1.495-3.328-3.419-3.328-2.158 0-3.588 1.495-3.588 3.523 0 2.106 1.43 3.549 3.575 3.549Zm-.013-5.746c1.053 0 1.924.624 1.963 1.521H142.6c.13-.91.936-1.521 2.028-1.521Zm4.618 5.59h1.456v-2.535l.481-.468 2.548 3.003h1.846l-3.146-3.744 2.964-3.016h-1.872l-2.821 2.886v-5.616h-1.456V635Zm7.104 0h1.456v-4.264c0-.819.494-1.287 1.378-1.287.26 0 .559.039.715.104v-1.365a4.458 4.458 0 0 0-.702-.065c-.663 0-1.196.299-1.391.806v-.689h-1.456V635Zm7.57.156c1.521 0 2.652-.715 3.172-1.924l-1.248-.416c-.364.637-.949 1.014-1.885 1.014-1.157 0-2.002-.689-2.093-1.703h5.447c.026-.26.039-.52.039-.715 0-2.041-1.495-3.328-3.419-3.328-2.158 0-3.588 1.495-3.588 3.523 0 2.106 1.43 3.549 3.575 3.549Zm-.013-5.746c1.053 0 1.924.624 1.963 1.521h-3.991c.13-.91.936-1.521 2.028-1.521Zm8.147 3.705c0 .494-.39.793-1.183.793-.949 0-1.612-.364-1.898-1.222l-1.248.416c.416 1.495 1.612 2.054 3.198 2.054 1.573 0 2.665-.78 2.665-2.132 0-2.639-4.017-1.716-4.017-3.003 0-.442.481-.689 1.066-.689.832 0 1.443.312 1.729 1.222l1.248-.442c-.286-1.3-1.248-2.028-2.964-2.028-1.599 0-2.613.793-2.613 2.002 0 2.548 4.017 1.651 4.017 3.029Zm2.123-3.549h1.157v3.38c0 1.677.676 2.21 2.067 2.21.481 0 .962-.065 1.352-.169v-1.326a4.625 4.625 0 0 1-1.053.143c-.663 0-.91-.221-.91-.936v-3.302h1.937v-1.326h-1.937v-1.677h-1.456v1.677h-1.157v1.326Zm5.154 2.041c0 2.119 1.521 3.549 3.64 3.549 2.171 0 3.679-1.495 3.679-3.549 0-2.041-1.508-3.523-3.679-3.523-2.158 0-3.64 1.456-3.64 3.523Zm1.534.013c0-1.365.897-2.21 2.106-2.21 1.222 0 2.145.858 2.145 2.21 0 1.365-.858 2.21-2.132 2.21-1.261 0-2.119-.91-2.119-2.21Zm7.002 3.38h1.456v-2.535l.481-.468 2.548 3.003h1.846l-3.146-3.744 2.964-3.016h-1.872l-2.821 2.886v-5.616h-1.456V635ZM5.867 635v-3.081h2.054c2.886 0 3.861-1.469 3.861-3.068 0-1.417-.715-2.951-3.783-2.951H4.281v9.1h1.586Zm2.145-7.618c1.56 0 2.132.637 2.132 1.508 0 .91-.689 1.547-2.184 1.547H5.867v-3.055h2.145ZM14.12 637.6h1.521l3.627-9.36h-1.56l-1.729 4.667-2.015-4.667h-1.703l2.964 6.604-1.105 2.756Zm6.671-7.046c.247-.754.845-1.144 1.794-1.144 1.001 0 1.47.494 1.47 1.469-3.277.013-4.655.702-4.655 2.223 0 1.209.871 2.054 2.353 2.054 1.131 0 1.95-.572 2.275-1.287V635h1.482v-4.03c0-1.898-.988-2.886-2.873-2.886-1.625 0-2.717.728-3.094 2.054l1.248.416Zm1.313 3.302c-.728 0-1.17-.325-1.17-.845 0-.793.871-1.066 3.12-1.066v.208c0 1.014-.78 1.703-1.95 1.703Zm4.115-4.29h1.157v3.38c0 1.677.676 2.21 2.067 2.21.481 0 .962-.065 1.352-.169v-1.326a4.625 4.625 0 0 1-1.053.143c-.663 0-.91-.221-.91-.936v-3.302h1.937v-1.326h-1.937v-1.677h-1.456v1.677h-1.157v1.326Zm8.729 5.59c1.521 0 2.652-.715 3.172-1.924l-1.248-.416c-.364.637-.949 1.014-1.885 1.014-1.157 0-2.002-.689-2.093-1.703h5.447c.026-.26.039-.52.039-.715 0-2.041-1.495-3.328-3.419-3.328-2.158 0-3.588 1.495-3.588 3.523 0 2.106 1.43 3.549 3.575 3.549Zm-.013-5.746c1.053 0 1.924.624 1.963 1.521h-3.991c.13-.91.936-1.521 2.028-1.521Zm4.618 5.59h1.456v-4.264c0-.819.494-1.287 1.378-1.287.26 0 .56.039.715.104v-1.365a4.458 4.458 0 0 0-.702-.065c-.663 0-1.196.299-1.39.806v-.689h-1.457V635Zm3.995-3.393c0 2.119 1.521 3.549 3.64 3.549 2.171 0 3.68-1.495 3.68-3.549 0-2.041-1.509-3.523-3.68-3.523-2.158 0-3.64 1.456-3.64 3.523Zm1.534.013c0-1.365.897-2.21 2.106-2.21 1.222 0 2.145.858 2.145 2.21 0 1.365-.858 2.21-2.132 2.21-1.26 0-2.119-.91-2.119-2.21Zm12.072 1.066c-.416.767-1.014 1.144-1.859 1.144-1.248 0-2.132-.91-2.132-2.223 0-1.313.858-2.197 2.132-2.197.858 0 1.43.364 1.872 1.144l1.248-.416c-.533-1.3-1.69-2.054-3.185-2.054-2.132 0-3.6 1.43-3.6 3.523 0 2.106 1.468 3.549 3.613 3.549 1.534 0 2.704-.78 3.16-2.054l-1.249-.416Zm2.35 2.314h1.457v-3.757c0-1.274.754-1.833 1.703-1.833 1.144 0 1.716.559 1.716 1.885V635h1.456v-3.978c0-2.002-.988-2.938-2.717-2.938-1.04 0-1.781.442-2.158 1.118v-3.692h-1.456V635Zm7.866 0h1.456v-2.535l.48-.468L71.856 635H73.7l-3.146-3.744 2.964-3.016h-1.872l-2.821 2.886v-5.616H67.37V635Zm7.886-4.446c.247-.754.845-1.144 1.794-1.144 1.001 0 1.47.494 1.47 1.469-3.277.013-4.655.702-4.655 2.223 0 1.209.871 2.054 2.353 2.054 1.131 0 1.95-.572 2.275-1.287V635h1.482v-4.03c0-1.898-.988-2.886-2.873-2.886-1.625 0-2.717.728-3.094 2.054l1.248.416Zm1.313 3.302c-.728 0-1.17-.325-1.17-.845 0-.793.871-1.066 3.12-1.066v.208c0 1.014-.78 1.703-1.95 1.703Z"/><rect width="69" height="69" x="237.5" y="538.5" fill="#fff" stroke="#B4BBC5" rx="34.5"/><path fill="#000" d="M291.517 565.687c-.036-.292-.358-.437-.68-.547-.643-.255-2.11-.547-3.325-.73-.215-.474-.537-.985-1.002-1.641-.715-.985-2.36-2.554-4.005-3.576-3.969-2.444-8.618-2.846-12.981-1.386-3.755 1.277-6.437 3.174-8.047 6.421-.894 1.788-1.537 4.706-1.537 4.706-2.504-.51-4.649-1.605-7.546-3.283-1.323 3.685-.787 9.011 1.466 11.93 2.682 3.503 6.187 5.144 9.334 5.692-2.181.401-4.542.985-4.542.985s2.074 2.006 6.938 3.283c4.077 1.058 7.403 1.022 9.334.84 2.181-.146 4.327-.876 6.472-2.299 5.15-3.502 8.082-10.471 7.403-16.819 1.109-1.095 2.146-2.189 2.611-2.992.035-.219.107-.401.107-.584Zm-7.546 4.014c-.357 1.094-.858 2.152-1.752 2.845-1.001.767-2.289.985-3.54 1.058-.608.037-1.216.037-1.788-.146-1.216-.328-2.146-1.349-2.647-2.517-.5-1.167-.608-2.481-.536-3.758.071-1.569.393-3.174 1.323-4.451.93-1.24 2.861-1.715 4.399-1.605 2.109.146 3.611 1.459 4.47 3.174.786 1.678.643 3.685.071 5.4Z"/><path fill="#000" d="M282.255 566.27c0 1.496-.716 2.7-1.574 2.7-.858 0-1.573-1.204-1.573-2.7 0-1.496.715-2.7 1.573-2.7.858.037 1.574 1.241 1.574 2.7Z"/><defs><clipPath id="a"><rect width="315" height="72" fill="#fff" rx="36"/></clipPath><clipPath id="b"><rect width="315" height="72" y="116" fill="#fff" rx="36"/></clipPath><clipPath id="c"><rect width="315" height="72" y="232" fill="#fff" rx="36"/></clipPath><clipPath id="d"><rect width="315" height="72" y="347" fill="#fff" rx="36"/></clipPath><clipPath id="e"><path fill="#fff" d="M776 559h81v26h-81z"/></clipPath></defs></svg>