<svg width="1097" height="638" viewBox="0 0 1097 638" fill="none" xmlns="http://www.w3.org/2000/svg">
<rect x="531.5" y="60.5" width="468" height="71" rx="35.5" stroke="#B4BBC5"/>
<rect x="531.5" y="174.5" width="468" height="72" rx="36" stroke="#B4BBC5"/>
<g clip-path="url(#clip0_645_13634)">
<rect width="315" height="72" rx="10" fill="#F1F5F5"/>
<path d="M76.7676 27.4C76.7676 24.088 79.2316 21.608 82.5756 21.608C85.8556 21.608 88.3676 23.992 88.3676 27.4C88.3676 30.76 85.8556 33.192 82.5756 33.192C79.2636 33.192 76.7676 30.808 76.7676 27.4ZM78.7836 27.4C78.7836 29.72 80.4636 31.368 82.5756 31.368C84.7676 31.368 86.3516 29.72 86.3516 27.4C86.3516 25.08 84.6556 23.432 82.5756 23.432C80.4476 23.432 78.7836 25.08 78.7836 27.4ZM98.7295 21.8V23.608H92.3295V26.184H95.4175C98.2015 26.184 99.5295 27.416 99.5295 29.512C99.5295 31.928 97.7695 33 94.9855 33H90.3775V21.8H98.7295ZM95.2255 27.928H92.3295V31.192H95.1615C96.6495 31.192 97.5135 30.696 97.5135 29.496C97.5135 28.44 96.7615 27.928 95.2255 27.928ZM101.456 33V21.8H103.408V31.176H107.072V21.8H109.024V31.176H112.688V21.8H114.64V31.176H116.064V35H114.208V33H101.456ZM117.659 33V21.8H126.011V23.624H119.611V26.456H125.419V28.184H119.611V31.176H126.171V33H117.659ZM128.393 33V21.8H136.745V23.624H130.345V26.456H136.153V28.184H130.345V31.176H136.905V33H128.393ZM151.952 29.352L153.648 29.96C152.8 31.96 150.848 33.192 148.496 33.192C145.152 33.192 142.752 30.776 142.752 27.4C142.752 24.056 145.2 21.608 148.576 21.608C150.864 21.608 152.88 22.904 153.568 24.84L151.872 25.448C151.136 24.088 150.064 23.432 148.576 23.432C146.336 23.432 144.768 25.064 144.768 27.4C144.768 29.704 146.368 31.368 148.576 31.368C150.08 31.368 151.312 30.616 151.952 29.352ZM154.643 27.4C154.643 24.088 157.107 21.608 160.451 21.608C163.731 21.608 166.243 23.992 166.243 27.4C166.243 30.76 163.731 33.192 160.451 33.192C157.139 33.192 154.643 30.808 154.643 27.4ZM156.659 27.4C156.659 29.72 158.339 31.368 160.451 31.368C162.643 31.368 164.227 29.72 164.227 27.4C164.227 25.08 162.531 23.432 160.451 23.432C158.323 23.432 156.659 25.08 156.659 27.4ZM176.605 21.8V23.608H170.205V26.184H173.293C176.077 26.184 177.405 27.416 177.405 29.512C177.405 31.928 175.645 33 172.861 33H168.253V21.8H176.605ZM173.101 27.928H170.205V31.192H173.037C174.525 31.192 175.389 30.696 175.389 29.496C175.389 28.44 174.637 27.928 173.101 27.928ZM181.283 33H179.331V21.8H183.907C187.683 21.8 188.563 23.688 188.563 25.432C188.563 27.4 187.363 29.208 183.811 29.208H181.283V33ZM183.923 23.624H181.283V27.384H183.859C185.699 27.384 186.547 26.6 186.547 25.48C186.547 24.408 185.843 23.624 183.923 23.624ZM187.973 33L192.853 21.784H194.565L199.429 33H197.381L196.325 30.552H191.029L189.973 33H187.973ZM191.733 28.824H195.621L193.669 24.28L191.733 28.824ZM208.703 33V28.232H202.783V33H200.831V21.8H202.783V26.408H208.703V21.8H210.655V33H208.703ZM214.994 33H213.346V21.8H215.298V29.72L221.506 21.8H223.17V33H221.218V25.08L214.994 33ZM225.878 33V21.8H234.23V23.624H227.83V26.456H233.638V28.184H227.83V31.176H234.39V33H225.878ZM96.0585 51L100.938 39.784H102.65L107.514 51H105.466L104.41 48.552H99.1145L98.0585 51H96.0585ZM99.8185 46.824H103.706L101.754 42.28L99.8185 46.824ZM108.917 51V39.8H110.869V45.016L116.021 39.8H118.533L113.573 44.776L118.837 51H116.309L112.069 46.04L110.869 47.256V51H108.917ZM120.307 51V39.8H122.259V49.176H127.699V39.8H129.651V49.176H131.091V53H129.235V51H120.307ZM134.361 51H132.713V39.8H134.665V47.72L140.873 39.8H142.537V51H140.585V43.08L134.361 51ZM144.557 45.4C144.557 42.088 147.021 39.608 150.365 39.608C153.645 39.608 156.157 41.992 156.157 45.4C156.157 48.76 153.645 51.192 150.365 51.192C147.053 51.192 144.557 48.808 144.557 45.4ZM146.573 45.4C146.573 47.72 148.253 49.368 150.365 49.368C152.557 49.368 154.141 47.72 154.141 45.4C154.141 43.08 152.445 41.432 150.365 41.432C148.237 41.432 146.573 43.08 146.573 45.4ZM166.039 51V46.232H160.119V51H158.167V39.8H160.119V44.408H166.039V39.8H167.991V51H166.039ZM170.682 51V39.8H179.034V41.624H172.634V44.456H178.442V46.184H172.634V49.176H179.194V51H170.682ZM183.369 51H181.417V39.8H185.993C189.769 39.8 190.649 41.688 190.649 43.432C190.649 45.4 189.449 47.208 185.897 47.208H183.369V51ZM186.009 41.624H183.369V45.384H185.945C187.785 45.384 188.633 44.6 188.633 43.48C188.633 42.408 187.929 41.624 186.009 41.624ZM191.854 45.4C191.854 42.088 194.318 39.608 197.662 39.608C200.942 39.608 203.454 41.992 203.454 45.4C203.454 48.76 200.942 51.192 197.662 51.192C194.35 51.192 191.854 48.808 191.854 45.4ZM193.87 45.4C193.87 47.72 195.55 49.368 197.662 49.368C199.854 49.368 201.438 47.72 201.438 45.4C201.438 43.08 199.742 41.432 197.662 41.432C195.534 41.432 193.87 43.08 193.87 45.4ZM205.463 51V39.8H210.343C213.351 39.8 214.279 40.968 214.279 42.616C214.279 43.8 213.719 44.632 212.711 45.08C213.927 45.384 214.663 46.312 214.663 47.752C214.663 50.056 212.871 51 210.247 51H205.463ZM210.295 46.136H207.415V49.272H210.199C211.879 49.272 212.647 48.808 212.647 47.656C212.647 46.632 211.943 46.136 210.295 46.136ZM210.103 41.528H207.415V44.472H210.263C211.527 44.472 212.263 43.896 212.263 42.984C212.263 41.992 211.719 41.528 210.103 41.528Z" fill="#50565E"/>
</g>
<g clip-path="url(#clip1_645_13634)">
<rect y="116" width="315" height="72" rx="10" fill="#F1F5F5"/>
<path d="M74.0981 154.976C74.0981 155.792 73.3461 156.368 72.0341 156.368C70.3861 156.368 69.2821 155.664 68.8661 154.352L67.1701 154.96C67.8901 157.568 69.9221 158.192 72.0181 158.192C74.4821 158.192 76.1141 156.8 76.1141 154.816C76.1141 150.544 69.5701 152.384 69.5701 149.744C69.5701 148.848 70.4821 148.432 71.6021 148.432C73.1061 148.432 73.9541 149.04 74.3221 150.448L76.0181 149.84C75.5221 147.536 73.6981 146.608 71.6181 146.608C68.8661 146.608 67.5541 148.064 67.5541 149.808C67.5541 154.208 74.0981 152.288 74.0981 154.976ZM87.6166 146.8H85.6646V153.056C85.6646 155.136 84.7686 156.368 82.9126 156.368C81.1686 156.368 79.8886 155.2 79.8886 152.976V146.8H77.9366V153.216C77.9366 156.528 80.1926 158.192 82.9126 158.192C85.3126 158.192 87.6166 156.784 87.6166 153.312V146.8ZM92.1108 158V154.208H94.6388C98.1908 154.208 99.3908 152.4 99.3908 150.432C99.3908 148.688 98.5108 146.8 94.7348 146.8H90.1588V158H92.1108ZM94.7508 148.624C96.6708 148.624 97.3748 149.408 97.3748 150.48C97.3748 151.6 96.5268 152.384 94.6868 152.384H92.1108V148.624H94.7508ZM101.284 158H109.796V156.176H103.236V153.184H109.044V151.456H103.236V148.624H109.636V146.8H101.284V158ZM113.97 158V153.936H116.578L119.458 158H121.81L118.578 153.552C120.034 153.104 121.058 151.936 121.058 150.272C121.058 148.432 120.018 146.8 116.786 146.8H112.018V158H113.97ZM116.626 148.624C118.434 148.624 119.042 149.344 119.042 150.368C119.042 151.472 118.082 152.112 116.674 152.112H113.97V148.624H116.626ZM132.782 146.8H130.782L127.374 155.376L123.71 146.8H121.598L126.526 158H128.11L132.782 146.8ZM134.19 158H136.142V146.8H134.19V158ZM144.911 154.976C144.911 155.792 144.159 156.368 142.847 156.368C141.199 156.368 140.095 155.664 139.679 154.352L137.983 154.96C138.703 157.568 140.735 158.192 142.831 158.192C145.295 158.192 146.927 156.8 146.927 154.816C146.927 150.544 140.383 152.384 140.383 149.744C140.383 148.848 141.295 148.432 142.415 148.432C143.919 148.432 144.767 149.04 145.135 150.448L146.831 149.84C146.335 147.536 144.511 146.608 142.431 146.608C139.679 146.608 138.367 148.064 138.367 149.808C138.367 154.208 144.911 152.288 144.911 154.976ZM148.205 152.4C148.205 155.808 150.701 158.192 154.013 158.192C157.293 158.192 159.805 155.76 159.805 152.4C159.805 148.992 157.293 146.608 154.013 146.608C150.669 146.608 148.205 149.088 148.205 152.4ZM150.221 152.4C150.221 150.08 151.885 148.432 154.013 148.432C156.093 148.432 157.789 150.08 157.789 152.4C157.789 154.72 156.205 156.368 154.013 156.368C151.901 156.368 150.221 154.72 150.221 152.4ZM163.767 158V153.936H166.375L169.255 158H171.607L168.375 153.552C169.831 153.104 170.855 151.936 170.855 150.272C170.855 148.432 169.815 146.8 166.583 146.8H161.815V158H163.767ZM166.423 148.624C168.231 148.624 168.839 149.344 168.839 150.368C168.839 151.472 167.879 152.112 166.471 152.112H163.767V148.624H166.423ZM182.001 146.8H179.777L176.593 151.872L173.473 146.8H171.169L175.585 153.84V158H177.537V153.84L182.001 146.8ZM187.456 158H192.24C194.864 158 196.656 157.056 196.656 154.752C196.656 153.312 195.92 152.384 194.704 152.08C195.712 151.632 196.272 150.8 196.272 149.616C196.272 147.968 195.344 146.8 192.336 146.8H187.456V158ZM192.288 153.136C193.936 153.136 194.64 153.632 194.64 154.656C194.64 155.808 193.872 156.272 192.192 156.272H189.408V153.136H192.288ZM192.096 148.528C193.712 148.528 194.256 148.992 194.256 149.984C194.256 150.896 193.52 151.472 192.256 151.472H189.408V148.528H192.096ZM198.033 152.4C198.033 155.808 200.529 158.192 203.841 158.192C207.121 158.192 209.633 155.76 209.633 152.4C209.633 148.992 207.121 146.608 203.841 146.608C200.497 146.608 198.033 149.088 198.033 152.4ZM200.049 152.4C200.049 150.08 201.713 148.432 203.841 148.432C205.921 148.432 207.617 150.08 207.617 152.4C207.617 154.72 206.033 156.368 203.841 156.368C201.729 156.368 200.049 154.72 200.049 152.4ZM209.816 158H211.816L212.872 155.552H218.168L219.224 158H221.272L216.408 146.784H214.696L209.816 158ZM213.576 153.824L215.512 149.28L217.464 153.824H213.576ZM224.626 158V153.936H227.234L230.114 158H232.466L229.234 153.552C230.69 153.104 231.714 151.936 231.714 150.272C231.714 148.432 230.674 146.8 227.442 146.8H222.674V158H224.626ZM227.282 148.624C229.09 148.624 229.698 149.344 229.698 150.368C229.698 151.472 228.738 152.112 227.33 152.112H224.626V148.624H227.282ZM234.081 158H237.553C242.065 158 244.033 155.52 244.033 152.24C244.033 149.248 242.385 146.8 237.889 146.8H234.081V158ZM237.825 148.624C240.849 148.624 242.017 150.16 242.017 152.336C242.017 154.576 240.673 156.176 237.681 156.176H236.033V148.624H237.825Z" fill="#50565E"/>
</g>
<g clip-path="url(#clip2_645_13634)">
<rect y="232" width="315" height="72" rx="10" fill="#F1F5F5"/>
<path d="M65.5963 274H67.5483V265.296L70.7963 274H71.9643L75.1003 265.264V274H77.0523V262.8H74.2363L71.4523 270.912L68.4923 262.8H65.5963V274ZM78.4569 274H80.4569L81.5129 271.552H86.8089L87.8649 274H89.9129L85.0489 262.784H83.3369L78.4569 274ZM82.2169 269.824L84.1529 265.28L86.1049 269.824H82.2169ZM101.235 274V262.8H99.283V270.64L93.011 262.8H91.315V274H93.267V266.16L99.539 274H101.235ZM102.644 274H104.644L105.7 271.552H110.996L112.052 274H114.1L109.236 262.784H107.524L102.644 274ZM106.404 269.824L108.34 265.28L110.292 269.824H106.404ZM119.612 269.664H123.724C123.436 271.408 121.996 272.368 120.156 272.368C117.916 272.368 116.284 270.736 116.284 268.4C116.284 266.048 117.868 264.432 120.092 264.432C121.74 264.432 122.78 265.232 123.5 266.448L125.196 265.84C124.316 263.824 122.396 262.608 120.092 262.608C116.684 262.608 114.268 265.088 114.268 268.4C114.268 271.808 116.7 274.192 120.108 274.192C122.924 274.192 125.564 272.368 125.564 268.72C125.564 268.512 125.564 268.24 125.548 267.936H119.612V269.664ZM127.503 274H136.015V272.176H129.455V269.184H135.263V267.456H129.455V264.624H135.855V262.8H127.503V274ZM138.237 274H140.189V265.296L143.437 274H144.605L147.741 265.264V274H149.693V262.8H146.877L144.093 270.912L141.133 262.8H138.237V274ZM152.378 274H160.89V272.176H154.33V269.184H160.138V267.456H154.33V264.624H160.73V262.8H152.378V274ZM173.032 274V262.8H171.08V270.64L164.808 262.8H163.112V274H165.064V266.16L171.336 274H173.032ZM174.601 264.624H178.313V274H180.265V264.624H183.993V262.8H174.601V264.624ZM189.878 274H194.662C197.286 274 199.078 273.056 199.078 270.752C199.078 269.312 198.342 268.384 197.126 268.08C198.134 267.632 198.694 266.8 198.694 265.616C198.694 263.968 197.766 262.8 194.758 262.8H189.878V274ZM194.71 269.136C196.358 269.136 197.062 269.632 197.062 270.656C197.062 271.808 196.294 272.272 194.614 272.272H191.83V269.136H194.71ZM194.518 264.528C196.134 264.528 196.678 264.992 196.678 265.984C196.678 266.896 195.942 267.472 194.678 267.472H191.83V264.528H194.518ZM200.455 268.4C200.455 271.808 202.951 274.192 206.263 274.192C209.543 274.192 212.055 271.76 212.055 268.4C212.055 264.992 209.543 262.608 206.263 262.608C202.919 262.608 200.455 265.088 200.455 268.4ZM202.471 268.4C202.471 266.08 204.135 264.432 206.263 264.432C208.343 264.432 210.039 266.08 210.039 268.4C210.039 270.72 208.455 272.368 206.263 272.368C204.151 272.368 202.471 270.72 202.471 268.4ZM212.238 274H214.238L215.294 271.552H220.59L221.646 274H223.694L218.83 262.784H217.118L212.238 274ZM215.998 269.824L217.934 265.28L219.886 269.824H215.998ZM227.048 274V269.936H229.656L232.536 274H234.888L231.656 269.552C233.112 269.104 234.136 267.936 234.136 266.272C234.136 264.432 233.096 262.8 229.864 262.8H225.096V274H227.048ZM229.704 264.624C231.512 264.624 232.12 265.344 232.12 266.368C232.12 267.472 231.16 268.112 229.752 268.112H227.048V264.624H229.704ZM236.503 274H239.975C244.487 274 246.455 271.52 246.455 268.24C246.455 265.248 244.807 262.8 240.311 262.8H236.503V274ZM240.247 264.624C243.271 264.624 244.439 266.16 244.439 268.336C244.439 270.576 243.095 272.176 240.103 272.176H238.455V264.624H240.247Z" fill="#50565E"/>
</g>
<g clip-path="url(#clip3_645_13634)">
<rect y="347" width="315" height="72" rx="10" fill="#5FAF2D"/>
<path d="M48.4003 389.192C48.0963 389.192 47.6963 389.16 47.3763 389.096V387.224C47.7123 387.304 48.0643 387.368 48.3043 387.368C48.7843 387.368 49.0083 387.128 49.4563 386.136L44.4643 377.8H46.8323L50.4323 384.136L53.4403 377.8H55.4563L51.0083 387.048C50.2403 388.648 49.6163 389.192 48.4003 389.192ZM64.6293 389V379.624H58.8373V389H56.8853V377.8H66.5813V389H64.6293ZM71.2436 389H69.2916V377.8H73.8676C77.6436 377.8 78.5236 379.688 78.5236 381.432C78.5236 383.4 77.3236 385.208 73.7716 385.208H71.2436V389ZM73.8836 379.624H71.2436V383.384H73.8196C75.6596 383.384 76.5076 382.6 76.5076 381.48C76.5076 380.408 75.8036 379.624 73.8836 379.624ZM77.9335 389L82.8135 377.784H84.5255L89.3895 389H87.3415L86.2855 386.552H80.9895L79.9335 389H77.9335ZM81.6935 384.824H85.5815L83.6295 380.28L81.6935 384.824ZM90.7916 389V377.8H95.6716C98.6796 377.8 99.6076 378.968 99.6076 380.616C99.6076 381.8 99.0476 382.632 98.0396 383.08C99.2556 383.384 99.9916 384.312 99.9916 385.752C99.9916 388.056 98.1996 389 95.5756 389H90.7916ZM95.6236 384.136H92.7436V387.272H95.5276C97.2076 387.272 97.9756 386.808 97.9756 385.656C97.9756 384.632 97.2716 384.136 95.6236 384.136ZM95.4316 379.528H92.7436V382.472H95.5916C96.8556 382.472 97.5916 381.896 97.5916 380.984C97.5916 379.992 97.0476 379.528 95.4316 379.528ZM109.289 389V379.624H105.065V380.04C105.065 386.232 103.945 389.192 101.593 389.192C101.417 389.192 101.129 389.176 100.825 389.128V387.256C100.937 387.272 101.049 387.272 101.145 387.272C102.585 387.272 103.145 385.256 103.145 380.04V377.8H111.241V389H109.289ZM120.844 389V385.08H118.092L115.212 389H112.924L116.108 384.76C114.508 384.328 113.58 383.144 113.58 381.48C113.58 379.272 115.068 377.8 118.06 377.8H122.796V389H120.844ZM117.804 383.256H120.844V379.624H117.964C116.236 379.624 115.596 380.408 115.596 381.48C115.596 382.456 116.332 383.256 117.804 383.256ZM125.479 389V377.8H127.431V382.392H129.063C129.463 379.624 131.575 377.608 134.551 377.608C137.911 377.608 140.103 380.024 140.103 383.4C140.103 386.728 137.831 389.192 134.551 389.192C131.559 389.192 129.367 387.192 129.047 384.216H127.431V389H125.479ZM130.935 383.4C130.935 385.752 132.471 387.368 134.535 387.368C136.631 387.368 138.087 385.816 138.087 383.4C138.087 380.968 136.567 379.432 134.519 379.432C132.423 379.432 130.935 381.016 130.935 383.4ZM142.12 389V377.8H144.072V387.176H147.736V377.8H149.688V387.176H153.352V377.8H155.304V387.176H156.728V391H154.872V389H142.12ZM159.971 389H158.323V377.8H160.275V385.72L166.483 377.8H168.147V389H166.195V381.08L159.971 389ZM172.502 389H170.854V377.8H172.806V385.72L179.014 377.8H180.678V389H178.726V381.08L172.502 389ZM172.694 374.68H174.374C174.566 375.336 175.062 375.704 175.782 375.704C176.47 375.704 177.03 375.352 177.142 374.68H178.838C178.71 376.04 177.606 377.112 175.814 377.112C173.91 377.112 172.918 376.056 172.694 374.68ZM187.698 389V377.8H189.65V383.016L194.802 377.8H197.314L192.354 382.776L197.618 389H195.09L190.85 384.04L189.65 385.256V389H187.698ZM197.604 383.4C197.604 380.088 200.068 377.608 203.412 377.608C206.692 377.608 209.204 379.992 209.204 383.4C209.204 386.76 206.692 389.192 203.412 389.192C200.1 389.192 197.604 386.808 197.604 383.4ZM199.62 383.4C199.62 385.72 201.3 387.368 203.412 387.368C205.604 387.368 207.188 385.72 207.188 383.4C207.188 381.08 205.492 379.432 203.412 379.432C201.284 379.432 199.62 381.08 199.62 383.4ZM211.213 389V377.8H214.109L217.069 385.912L219.853 377.8H222.669V389H220.717V380.264L217.581 389H216.413L213.165 380.296V389H211.213ZM227.002 389H225.354V377.8H227.306V385.72L233.514 377.8H235.178V389H233.226V381.08L227.002 389ZM236.765 379.624V377.8H246.157V379.624H242.429V389H240.477V379.624H236.765ZM247.729 389V377.8H256.081V379.624H249.681V382.456H255.489V384.184H249.681V387.176H256.241V389H247.729ZM257.343 379.624V377.8H266.735V379.624H263.007V389H261.055V379.624H257.343Z" fill="white"/>
</g>
<path d="M674.305 93V81.8H676.257V87.016L681.409 81.8H683.921L678.961 86.776L684.225 93H681.697L677.457 88.04L676.257 89.256V93H674.305ZM684.211 87.4C684.211 84.088 686.675 81.608 690.019 81.608C693.299 81.608 695.811 83.992 695.811 87.4C695.811 90.76 693.299 93.192 690.019 93.192C686.707 93.192 684.211 90.808 684.211 87.4ZM686.227 87.4C686.227 89.72 687.907 91.368 690.019 91.368C692.211 91.368 693.795 89.72 693.795 87.4C693.795 85.08 692.099 83.432 690.019 83.432C687.891 83.432 686.227 85.08 686.227 87.4ZM697.821 93V81.8H700.717L703.677 89.912L706.461 81.8H709.277V93H707.325V84.264L704.189 93H703.021L699.773 84.296V93H697.821ZM713.609 93H711.961V81.8H713.913V89.72L720.121 81.8H721.785V93H719.833V85.08L713.609 93ZM723.372 83.624V81.8H732.764V83.624H729.036V93H727.084V83.624H723.372ZM734.336 93V81.8H742.688V83.624H736.288V86.456H742.096V88.184H736.288V91.176H742.848V93H734.336ZM743.951 83.624V81.8H753.343V83.624H749.615V93H747.663V83.624H743.951ZM766.971 93V83.624H761.179V93H759.227V81.8H768.923V93H766.971ZM770.945 87.4C770.945 84.088 773.409 81.608 776.753 81.608C780.033 81.608 782.545 83.992 782.545 87.4C782.545 90.76 780.033 93.192 776.753 93.192C773.441 93.192 770.945 90.808 770.945 87.4ZM772.961 87.4C772.961 89.72 774.641 91.368 776.753 91.368C778.945 91.368 780.529 89.72 780.529 87.4C780.529 85.08 778.833 83.432 776.753 83.432C774.625 83.432 772.961 85.08 772.961 87.4ZM787.587 93L792.467 81.784H794.179L799.043 93H796.995L795.939 90.552H790.643L789.587 93H787.587ZM791.347 88.824H795.235L793.283 84.28L791.347 88.824ZM801.82 93.192C801.516 93.192 801.116 93.16 800.796 93.096V91.224C801.132 91.304 801.484 91.368 801.724 91.368C802.204 91.368 802.428 91.128 802.876 90.136L797.884 81.8H800.252L803.852 88.136L806.86 81.8H808.876L804.428 91.048C803.66 92.648 803.036 93.192 801.82 93.192ZM807.9 95V91.176H809.1C809.964 89.672 810.444 87.144 810.444 84.04V81.8H818.348V91.176H819.756V95H817.9V93H809.756V95H807.9ZM812.3 83.624V84.04C812.3 86.92 811.852 89.704 811.132 91.176H816.396V83.624H812.3ZM823.015 93H821.367V81.8H823.319V89.72L829.527 81.8H831.191V93H829.239V85.08L823.015 93ZM832.779 83.624V81.8H842.171V83.624H838.443V93H836.491V83.624H832.779ZM846.586 93.192C846.282 93.192 845.882 93.16 845.562 93.096V91.224C845.898 91.304 846.25 91.368 846.49 91.368C846.97 91.368 847.194 91.128 847.642 90.136L842.65 81.8H845.018L848.618 88.136L851.626 81.8H853.642L849.194 91.048C848.426 92.648 847.802 93.192 846.586 93.192ZM723.586 111H721.938V99.8H723.89V107.72L730.098 99.8H731.762V111H729.81V103.08L723.586 111ZM740.734 111H738.782V99.8H743.358C747.134 99.8 748.014 101.688 748.014 103.432C748.014 105.4 746.814 107.208 743.262 107.208H740.734V111ZM743.374 101.624H740.734V105.384H743.31C745.15 105.384 745.998 104.6 745.998 103.48C745.998 102.408 745.294 101.624 743.374 101.624ZM751.555 111H749.907V99.8H751.859V107.72L758.067 99.8H759.731V111H757.779V103.08L751.555 111ZM770.95 107.352L772.646 107.96C771.798 109.96 769.846 111.192 767.494 111.192C764.15 111.192 761.75 108.776 761.75 105.4C761.75 102.056 764.198 99.608 767.574 99.608C769.862 99.608 771.878 100.904 772.566 102.84L770.87 103.448C770.134 102.088 769.062 101.432 767.574 101.432C765.334 101.432 763.766 103.064 763.766 105.4C763.766 107.704 765.366 109.368 767.574 109.368C769.078 109.368 770.31 108.616 770.95 107.352ZM774.485 111V99.8H776.437V105.016L781.589 99.8H784.101L779.141 104.776L784.405 111H781.877L777.637 106.04L776.437 107.256V111H774.485ZM784.752 111L789.632 99.784H791.344L796.208 111H794.16L793.104 108.552H787.808L786.752 111H784.752ZM788.512 106.824H792.4L790.448 102.28L788.512 106.824ZM797.61 111V99.8H800.506L803.466 107.912L806.25 99.8H809.066V111H807.114V102.264L803.978 111H802.81L799.562 102.296V111H797.61Z" fill="#50565E"/>
<path d="M641.649 207V195.8H643.601V201.016L648.753 195.8H651.265L646.305 200.776L651.569 207H649.041L644.801 202.04L643.601 203.256V207H641.649ZM651.554 201.4C651.554 198.088 654.018 195.608 657.362 195.608C660.642 195.608 663.154 197.992 663.154 201.4C663.154 204.76 660.642 207.192 657.362 207.192C654.05 207.192 651.554 204.808 651.554 201.4ZM653.57 201.4C653.57 203.72 655.25 205.368 657.362 205.368C659.554 205.368 661.138 203.72 661.138 201.4C661.138 199.08 659.442 197.432 657.362 197.432C655.234 197.432 653.57 199.08 653.57 201.4ZM665.164 207V195.8H668.06L671.02 203.912L673.804 195.8H676.62V207H674.668V198.264L671.532 207H670.364L667.116 198.296V207H665.164ZM680.953 207H679.305V195.8H681.257V203.72L687.465 195.8H689.129V207H687.177V199.08L680.953 207ZM690.716 197.624V195.8H700.108V197.624H696.38V207H694.428V197.624H690.716ZM701.68 207V195.8H710.032V197.624H703.632V200.456H709.44V202.184H703.632V205.176H710.192V207H701.68ZM711.294 197.624V195.8H720.686V197.624H716.958V207H715.006V197.624H711.294ZM734.315 207V197.624H728.523V207H726.571V195.8H736.267V207H734.315ZM738.289 201.4C738.289 198.088 740.753 195.608 744.097 195.608C747.377 195.608 749.889 197.992 749.889 201.4C749.889 204.76 747.377 207.192 744.097 207.192C740.785 207.192 738.289 204.808 738.289 201.4ZM740.305 201.4C740.305 203.72 741.985 205.368 744.097 205.368C746.289 205.368 747.873 203.72 747.873 201.4C747.873 199.08 746.177 197.432 744.097 197.432C741.969 197.432 740.305 199.08 740.305 201.4ZM764.083 207V202.232H758.163V207H756.211V195.8H758.163V200.408H764.083V195.8H766.035V207H764.083ZM767.447 207L772.327 195.784H774.039L778.903 207H776.855L775.799 204.552H770.503L769.447 207H767.447ZM771.207 202.824H775.095L773.143 198.28L771.207 202.824ZM784.294 207.192C781.558 207.192 779.814 206.072 779.222 203.96L780.918 203.352C781.462 204.728 782.454 205.368 784.086 205.368C785.83 205.368 786.726 204.776 786.726 203.64C786.726 202.632 785.974 202.184 784.294 202.184H782.502V200.36H783.99C785.478 200.36 786.326 199.848 786.326 198.92C786.326 197.928 785.526 197.432 783.894 197.432C782.438 197.432 781.446 198.072 780.982 199.448L779.286 198.84C779.878 196.776 781.702 195.608 784.102 195.608C786.742 195.608 788.342 196.76 788.342 198.68C788.342 199.8 787.638 200.712 786.47 201.128C787.942 201.448 788.742 202.328 788.742 203.656C788.742 205.864 787.078 207.192 784.294 207.192ZM798.661 207V202.232H792.741V207H790.789V195.8H792.741V200.408H798.661V195.8H800.613V207H798.661ZM802.025 207L806.905 195.784H808.617L813.481 207H811.433L810.377 204.552H805.081L804.025 207H802.025ZM805.785 202.824H809.673L807.721 198.28L805.785 202.824ZM822.59 195.8V207H820.638V202.504C819.982 202.872 818.638 203.16 817.534 203.16C814.766 203.16 813.262 201.784 813.262 199.272V195.8H815.214V198.952C815.214 200.568 816.094 201.336 817.966 201.336C818.862 201.336 819.838 201.08 820.638 200.648V195.8H822.59ZM825.274 207V195.8H833.626V197.624H827.226V200.456H833.034V202.184H827.226V205.176H833.786V207H825.274ZM843.88 207V202.232H837.96V207H836.008V195.8H837.96V200.408H843.88V195.8H845.832V207H843.88ZM850.172 207H848.524V195.8H850.476V203.72L856.684 195.8H858.348V207H856.396V199.08L850.172 207ZM867.951 207V203.08H865.199L862.319 207H860.031L863.215 202.76C861.615 202.328 860.687 201.144 860.687 199.48C860.687 197.272 862.175 195.8 865.167 195.8H869.903V207H867.951ZM864.911 201.256H867.951V197.624H865.071C863.343 197.624 862.703 198.408 862.703 199.48C862.703 200.456 863.439 201.256 864.911 201.256ZM872.586 207V195.8H875.482L878.442 203.912L881.226 195.8H884.042V207H882.09V198.264L878.954 207H877.786L874.538 198.296V207H872.586ZM669.711 225H668.063V213.8H670.015V221.72L676.223 213.8H677.887V225H675.935V217.08L669.711 225ZM684.907 225V213.8H689.787C692.795 213.8 693.723 214.968 693.723 216.616C693.723 217.8 693.163 218.632 692.155 219.08C693.371 219.384 694.107 220.312 694.107 221.752C694.107 224.056 692.315 225 689.691 225H684.907ZM689.739 220.136H686.859V223.272H689.643C691.323 223.272 692.091 222.808 692.091 221.656C692.091 220.632 691.387 220.136 689.739 220.136ZM689.547 215.528H686.859V218.472H689.707C690.971 218.472 691.707 217.896 691.707 216.984C691.707 215.992 691.163 215.528 689.547 215.528ZM695.484 219.4C695.484 216.088 697.948 213.608 701.292 213.608C704.572 213.608 707.084 215.992 707.084 219.4C707.084 222.76 704.572 225.192 701.292 225.192C697.98 225.192 695.484 222.808 695.484 219.4ZM697.5 219.4C697.5 221.72 699.18 223.368 701.292 223.368C703.484 223.368 705.068 221.72 705.068 219.4C705.068 217.08 703.372 215.432 701.292 215.432C699.164 215.432 697.5 217.08 697.5 219.4ZM713.083 225.192C710.347 225.192 708.603 224.072 708.011 221.96L709.707 221.352C710.251 222.728 711.243 223.368 712.875 223.368C714.619 223.368 715.515 222.776 715.515 221.64C715.515 220.632 714.763 220.184 713.083 220.184H711.291V218.36H712.779C714.267 218.36 715.115 217.848 715.115 216.92C715.115 215.928 714.315 215.432 712.683 215.432C711.227 215.432 710.235 216.072 709.771 217.448L708.075 216.84C708.667 214.776 710.491 213.608 712.891 213.608C715.531 213.608 717.131 214.76 717.131 216.68C717.131 217.8 716.427 218.712 715.259 219.128C716.731 219.448 717.531 220.328 717.531 221.656C717.531 223.864 715.867 225.192 713.083 225.192ZM727.45 225V220.232H721.53V225H719.578V213.8H721.53V218.408H727.45V213.8H729.402V225H727.45ZM730.814 225L735.694 213.784H737.406L742.27 225H740.222L739.166 222.552H733.87L732.814 225H730.814ZM734.574 220.824H738.462L736.51 216.28L734.574 220.824ZM743.672 225V213.8H751.864V215.624H745.624V225H743.672ZM755.39 225H753.438V213.8H758.014C761.79 213.8 762.67 215.688 762.67 217.432C762.67 219.4 761.47 221.208 757.918 221.208H755.39V225ZM758.03 215.624H755.39V219.384H757.966C759.806 219.384 760.654 218.6 760.654 217.48C760.654 216.408 759.95 215.624 758.03 215.624ZM762.08 225L766.96 213.784H768.672L773.536 225H771.488L770.432 222.552H765.136L764.08 225H762.08ZM765.84 220.824H769.728L767.776 216.28L765.84 220.824ZM773.864 225L778.472 219.032L773.912 213.8H776.296L780.552 218.616V213.8H782.503V218.632L786.728 213.8H789.144L784.552 218.936L789.192 225H786.856L783.032 219.976L782.503 220.536V225H780.552V220.536L779.992 219.96L776.104 225H773.864ZM789.705 227V223.176H790.905C791.769 221.672 792.249 219.144 792.249 216.04V213.8H800.153V223.176H801.561V227H799.705V225H791.561V227H789.705ZM794.105 215.624V216.04C794.105 218.92 793.657 221.704 792.937 223.176H798.201V215.624H794.105ZM803.172 225V213.8H811.524V215.624H805.124V218.456H810.932V220.184H805.124V223.176H811.684V225H803.172ZM821.779 225V220.232H815.859V225H813.907V213.8H815.859V218.408H821.779V213.8H823.731V225H821.779ZM828.07 225H826.422V213.8H828.374V221.72L834.582 213.8H836.246V225H834.294V217.08L828.07 225ZM845.849 225V221.08H843.097L840.217 225H837.929L841.113 220.76C839.513 220.328 838.585 219.144 838.585 217.48C838.585 215.272 840.073 213.8 843.065 213.8H847.801V225H845.849ZM842.809 219.256H845.849V215.624H842.969C841.241 215.624 840.601 216.408 840.601 217.48C840.601 218.456 841.337 219.256 842.809 219.256ZM850.485 225V213.8H853.381L856.341 221.912L859.125 213.8H861.941V225H859.989V216.264L856.853 225H855.685L852.437 216.296V225H850.485Z" fill="#50565E"/>
<path d="M520 92H482C480.895 92 480 92.8954 480 94V152" stroke="#B4BBC5"/>
<path d="M520 212H482C480.895 212 480 211.105 480 210V152" stroke="#B4BBC5"/>
<line x1="480" y1="152.5" x2="315" y2="152.5" stroke="#B4BBC5"/>
<line x1="156.5" y1="106" x2="156.5" y2="72" stroke="#B4BBC5"/>
<path fill-rule="evenodd" clip-rule="evenodd" d="M151 97L156.5 106.526L162 97H151Z" fill="#B4BBC5"/>
<path fill-rule="evenodd" clip-rule="evenodd" d="M513 98L522.526 92.5L513 87V98Z" fill="#B4BBC5"/>
<path fill-rule="evenodd" clip-rule="evenodd" d="M513 217L522.526 211.5L513 206V217Z" fill="#B4BBC5"/>
<line x1="156.5" y1="222" x2="156.5" y2="188" stroke="#B4BBC5"/>
<path fill-rule="evenodd" clip-rule="evenodd" d="M151 213L156.5 222.526L162 213H151Z" fill="#B4BBC5"/>
<line x1="156.5" y1="338" x2="156.5" y2="304" stroke="#B4BBC5"/>
<path fill-rule="evenodd" clip-rule="evenodd" d="M151 329L156.5 338.526L162 329H151Z" fill="#B4BBC5"/>
<path fill-rule="evenodd" clip-rule="evenodd" d="M37 512L42.5 521.526L48 512H37Z" fill="#B4BBC5"/>
<path fill-rule="evenodd" clip-rule="evenodd" d="M152 512L157.5 521.526L163 512H152Z" fill="#B4BBC5"/>
<path fill-rule="evenodd" clip-rule="evenodd" d="M267 512L272.5 521.526L278 512H267Z" fill="#B4BBC5"/>
<line x1="157.5" y1="467" x2="157.5" y2="419" stroke="#B4BBC5"/>
<line x1="42.5" y1="517" x2="42.5" y2="468" stroke="#B4BBC5"/>
<path d="M1022 468L42 468" stroke="#B4BBC5"/>
<line x1="272.5" y1="516" x2="272.5" y2="468" stroke="#B4BBC5"/>
<line x1="157.5" y1="516" x2="157.5" y2="467" stroke="#B4BBC5"/>
<path fill-rule="evenodd" clip-rule="evenodd" d="M422 512.174L427.5 521.525L433 512.174H422Z" fill="#B4BBC5"/>
<line x1="427.5" y1="512.174" x2="427.5" y2="467.999" stroke="#B4BBC5"/>
<path fill-rule="evenodd" clip-rule="evenodd" d="M617 512.174L622.5 521.525L628 512.174H617Z" fill="#B4BBC5"/>
<line x1="622.5" y1="516.102" x2="622.5" y2="468" stroke="#B4BBC5"/>
<path fill-rule="evenodd" clip-rule="evenodd" d="M812 512.174L817.5 521.525L823 512.174H812Z" fill="#B4BBC5"/>
<line x1="817.5" y1="516.102" x2="817.5" y2="468" stroke="#B4BBC5"/>
<path fill-rule="evenodd" clip-rule="evenodd" d="M1016 512L1021.5 521.526L1027 512H1016Z" fill="#B4BBC5"/>
<line x1="1021.5" y1="516" x2="1021.5" y2="468" stroke="#B4BBC5"/>
<path d="M246.489 634.558L243.967 631.685V631.607L246.502 628.786L247.412 629.631L245.631 631.659L247.412 633.687L246.489 634.558ZM249.297 634.558L246.775 631.685V631.607L249.31 628.786L250.22 629.631L248.439 631.659L250.22 633.687L249.297 634.558ZM258.933 625.9V635H257.347V631.347C256.814 631.646 255.722 631.88 254.825 631.88C252.576 631.88 251.354 630.762 251.354 628.721V625.9H252.94V628.461C252.94 629.774 253.655 630.398 255.176 630.398C255.904 630.398 256.697 630.19 257.347 629.839V625.9H258.933ZM262.01 635H260.723V628.24H262.179V632.79L265.845 628.24H267.145V635H265.689V630.45L262.01 635ZM267.972 635L270.676 631.399L268.037 628.24H269.805L272.171 631.139V628.24H273.627V631.152L276.058 628.24H277.761L275.109 631.373L277.878 635H276.136L273.978 632.088L273.627 632.439V635H272.171V632.452L271.807 632.127L269.662 635H267.972ZM280 635H278.713V628.24H280.169V632.79L283.835 628.24H285.135V635H283.679V630.45L280 635ZM286.794 635V628.24H288.25V631.152L291.201 628.24H293.086L289.901 631.321L293.216 635H291.37L288.744 632.114L288.25 632.621V635H286.794ZM294.596 634.558L293.673 633.687L295.467 631.659L293.673 629.631L294.583 628.773L297.131 631.62V631.711L294.596 634.558ZM297.43 634.558L296.507 633.687L298.301 631.659L296.507 629.631L297.417 628.773L299.965 631.62V631.711L297.43 634.558Z" fill="#50565E"/>
<rect x="352.5" y="538.5" width="149" height="69" rx="34.5" fill="white" stroke="#B4BBC5"/>
<path d="M388.23 567V556.5H390.06V565.29H395.16V556.5H396.99V565.29H398.34V568.875H396.6V567H388.23ZM400.896 567H399.411V559.2H401.091V564.45L405.321 559.2H406.821V567H405.141V561.75L400.896 567ZM412.455 570V567.18H412.305C409.65 567.18 408.15 565.44 408.15 563.115C408.15 560.985 409.635 559.065 412.29 559.065H412.455V556.05H414.135V559.065H414.315C416.865 559.065 418.455 560.805 418.455 563.115C418.455 565.44 416.955 567.18 414.285 567.18H414.135V570H412.455ZM409.92 563.115C409.92 564.69 410.775 565.65 412.365 565.65H412.455V560.595H412.35C410.7 560.595 409.92 561.63 409.92 563.115ZM416.685 563.115C416.685 561.645 415.89 560.595 414.225 560.595H414.135V565.65H414.225C415.905 565.65 416.685 564.705 416.685 563.115ZM424.197 567.18C422.877 567.18 421.977 566.655 421.467 565.935V570H419.787V559.2H421.467V560.43C421.962 559.59 422.952 559.02 424.257 559.02C426.432 559.02 428.007 560.535 428.007 563.01C428.007 565.53 426.417 567.18 424.197 567.18ZM423.882 565.65C425.262 565.65 426.237 564.69 426.237 563.07C426.237 561.48 425.217 560.55 423.867 560.55C422.442 560.55 421.467 561.465 421.467 562.98V563.22C421.467 564.78 422.532 565.65 423.882 565.65ZM428.894 563.085C428.894 560.7 430.604 559.02 433.094 559.02C435.599 559.02 437.339 560.73 437.339 563.085C437.339 565.455 435.599 567.18 433.094 567.18C430.649 567.18 428.894 565.53 428.894 563.085ZM430.664 563.1C430.664 564.6 431.654 565.65 433.109 565.65C434.579 565.65 435.569 564.675 435.569 563.1C435.569 561.54 434.504 560.55 433.094 560.55C431.699 560.55 430.664 561.525 430.664 563.1ZM438.743 567V559.2H442.358C444.488 559.2 445.478 559.755 445.478 561.225C445.478 561.99 444.998 562.605 444.278 562.86C445.253 563.085 445.778 563.835 445.778 564.705C445.778 566.175 444.683 567 442.628 567H438.743ZM442.493 563.73H440.423V565.56H442.373C443.438 565.56 444.008 565.29 444.008 564.615C444.008 564 443.528 563.73 442.493 563.73ZM442.208 560.64H440.423V562.35H442.553C443.258 562.35 443.708 562.065 443.708 561.48C443.708 560.79 443.108 560.64 442.208 560.64ZM454.612 567V559.2H456.292V567H454.612ZM447.232 567V559.2H448.912V561.495H450.442C452.917 561.495 453.652 562.755 453.652 564.225C453.652 565.71 452.827 567 450.337 567H447.232ZM450.247 563.025H448.912V565.47H450.232C451.417 565.47 451.882 565.035 451.882 564.24C451.882 563.46 451.387 563.025 450.247 563.025ZM461.826 567.18C459.351 567.18 457.701 565.515 457.701 563.085C457.701 560.745 459.351 559.02 461.841 559.02C464.061 559.02 465.786 560.505 465.786 562.86C465.786 563.085 465.771 563.385 465.741 563.685H459.456C459.561 564.855 460.536 565.65 461.871 565.65C462.951 565.65 463.626 565.215 464.046 564.48L465.486 564.96C464.886 566.355 463.581 567.18 461.826 567.18ZM461.811 560.55C460.551 560.55 459.621 561.255 459.471 562.305H464.076C464.031 561.27 463.026 560.55 461.811 560.55ZM397.667 590V587.18H397.517C394.862 587.18 393.362 585.44 393.362 583.115C393.362 580.985 394.847 579.065 397.502 579.065H397.667V576.05H399.347V579.065H399.527C402.077 579.065 403.667 580.805 403.667 583.115C403.667 585.44 402.167 587.18 399.497 587.18H399.347V590H397.667ZM395.132 583.115C395.132 584.69 395.987 585.65 397.577 585.65H397.667V580.595H397.562C395.912 580.595 395.132 581.63 395.132 583.115ZM401.897 583.115C401.897 581.645 401.102 580.595 399.437 580.595H399.347V585.65H399.437C401.117 585.65 401.897 584.705 401.897 583.115ZM404.475 583.085C404.475 580.7 406.185 579.02 408.675 579.02C411.18 579.02 412.92 580.73 412.92 583.085C412.92 585.455 411.18 587.18 408.675 587.18C406.23 587.18 404.475 585.53 404.475 583.085ZM406.245 583.1C406.245 584.6 407.235 585.65 408.69 585.65C410.16 585.65 411.15 584.675 411.15 583.1C411.15 581.54 410.085 580.55 408.675 580.55C407.28 580.55 406.245 581.525 406.245 583.1ZM418.734 587.18C417.414 587.18 416.514 586.655 416.004 585.935V590H414.324V579.2H416.004V580.43C416.499 579.59 417.489 579.02 418.794 579.02C420.969 579.02 422.544 580.535 422.544 583.01C422.544 585.53 420.954 587.18 418.734 587.18ZM418.419 585.65C419.799 585.65 420.774 584.69 420.774 583.07C420.774 581.48 419.754 580.55 418.404 580.55C416.979 580.55 416.004 581.465 416.004 582.98V583.22C416.004 584.78 417.069 585.65 418.419 585.65ZM423.91 587V579.2H426.4L428.365 584.405L430.27 579.2H432.67V587H430.99V581.27L428.815 587H427.87L425.59 581.255V587H423.91ZM435.574 581.87L434.134 581.39C434.569 579.86 435.829 579.02 437.704 579.02C439.879 579.02 441.019 580.16 441.019 582.35V587H439.309V585.695C438.934 586.52 437.989 587.18 436.684 587.18C434.974 587.18 433.969 586.205 433.969 584.81C433.969 583.055 435.559 582.26 439.339 582.245C439.339 581.12 438.799 580.55 437.644 580.55C436.549 580.55 435.859 581 435.574 581.87ZM437.089 585.68C438.439 585.68 439.339 584.885 439.339 583.715V583.475C436.744 583.475 435.739 583.79 435.739 584.705C435.739 585.305 436.249 585.68 437.089 585.68ZM441.822 580.73V579.2H448.917V580.73H446.202V587H444.522V580.73H441.822ZM457.359 587V579.2H459.039V587H457.359ZM449.979 587V579.2H451.659V581.495H453.189C455.664 581.495 456.399 582.755 456.399 584.225C456.399 585.71 455.574 587 453.084 587H449.979ZM452.994 583.025H451.659V585.47H452.979C454.164 585.47 454.629 585.035 454.629 584.24C454.629 583.46 454.134 583.025 452.994 583.025Z" fill="#50565E"/>
<rect x="947.5" y="538.5" width="149" height="69" rx="34.5" fill="white" stroke="#B4BBC5"/>
<path d="M978.129 566.5V568.195H972.129V570.61H975.024C977.634 570.61 978.879 571.765 978.879 573.73C978.879 575.995 977.229 577 974.619 577H970.299V566.5H978.129ZM974.844 572.245H972.129V575.305H974.784C976.179 575.305 976.989 574.84 976.989 573.715C976.989 572.725 976.284 572.245 974.844 572.245ZM983.834 577.18C981.359 577.18 979.709 575.515 979.709 573.085C979.709 570.745 981.359 569.02 983.849 569.02C986.069 569.02 987.794 570.505 987.794 572.86C987.794 573.085 987.779 573.385 987.749 573.685H981.464C981.569 574.855 982.544 575.65 983.879 575.65C984.959 575.65 985.634 575.215 986.054 574.48L987.494 574.96C986.894 576.355 985.589 577.18 983.834 577.18ZM983.819 570.55C982.559 570.55 981.629 571.255 981.479 572.305H986.084C986.039 571.27 985.034 570.55 983.819 570.55ZM992.193 577.165C990.153 577.165 988.893 576.355 988.473 574.795L989.913 574.315C990.273 575.29 990.933 575.725 992.103 575.725C993.273 575.725 993.918 575.335 993.918 574.645C993.918 574 993.423 573.715 992.343 573.715H991.098V572.335H992.103C993.138 572.335 993.633 572.05 993.633 571.45C993.633 570.82 993.048 570.46 992.028 570.46C990.903 570.46 990.243 570.91 989.958 571.87L988.518 571.39C988.968 569.845 990.228 569.02 992.163 569.02C994.158 569.02 995.403 569.845 995.403 571.15C995.403 571.96 994.953 572.56 994.158 572.83C995.088 573.04 995.688 573.73 995.688 574.63C995.688 576.25 994.428 577.165 992.193 577.165ZM996.614 573.085C996.614 570.7 998.324 569.02 1000.81 569.02C1003.32 569.02 1005.06 570.73 1005.06 573.085C1005.06 575.455 1003.32 577.18 1000.81 577.18C998.369 577.18 996.614 575.53 996.614 573.085ZM998.384 573.1C998.384 574.6 999.374 575.65 1000.83 575.65C1002.3 575.65 1003.29 574.675 1003.29 573.1C1003.29 571.54 1002.22 570.55 1000.81 570.55C999.419 570.55 998.384 571.525 998.384 573.1ZM1011.92 577V570.73H1008.14V577H1006.46V569.2H1013.6V577H1011.92ZM1016.59 571.87L1015.15 571.39C1015.58 569.86 1016.84 569.02 1018.72 569.02C1020.89 569.02 1022.03 570.16 1022.03 572.35V577H1020.32V575.695C1019.95 576.52 1019 577.18 1017.7 577.18C1015.99 577.18 1014.98 576.205 1014.98 574.81C1014.98 573.055 1016.57 572.26 1020.35 572.245C1020.35 571.12 1019.81 570.55 1018.66 570.55C1017.56 570.55 1016.87 571 1016.59 571.87ZM1018.1 575.68C1019.45 575.68 1020.35 574.885 1020.35 573.715V573.475C1017.76 573.475 1016.75 573.79 1016.75 574.705C1016.75 575.305 1017.26 575.68 1018.1 575.68ZM1029.66 574.33L1031.1 574.81C1030.57 576.28 1029.22 577.18 1027.45 577.18C1024.98 577.18 1023.28 575.515 1023.28 573.085C1023.28 570.67 1024.98 569.02 1027.44 569.02C1029.16 569.02 1030.5 569.89 1031.11 571.39L1029.67 571.87C1029.16 570.97 1028.5 570.55 1027.51 570.55C1026.04 570.55 1025.05 571.57 1025.05 573.085C1025.05 574.6 1026.07 575.65 1027.51 575.65C1028.49 575.65 1029.18 575.215 1029.66 574.33ZM1038.01 577V573.805H1034.05V577H1032.37V569.2H1034.05V572.275H1038.01V569.2H1039.69V577H1038.01ZM1041.08 573.085C1041.08 570.7 1042.79 569.02 1045.28 569.02C1047.79 569.02 1049.53 570.73 1049.53 573.085C1049.53 575.455 1047.79 577.18 1045.28 577.18C1042.84 577.18 1041.08 575.53 1041.08 573.085ZM1042.85 573.1C1042.85 574.6 1043.84 575.65 1045.3 575.65C1046.77 575.65 1047.76 574.675 1047.76 573.1C1047.76 571.54 1046.69 570.55 1045.28 570.55C1043.89 570.55 1042.85 571.525 1042.85 573.1ZM1056.78 574.33L1058.22 574.81C1057.7 576.28 1056.35 577.18 1054.58 577.18C1052.1 577.18 1050.41 575.515 1050.41 573.085C1050.41 570.67 1052.1 569.02 1054.56 569.02C1056.29 569.02 1057.62 569.89 1058.24 571.39L1056.8 571.87C1056.29 570.97 1055.63 570.55 1054.64 570.55C1053.17 570.55 1052.18 571.57 1052.18 573.085C1052.18 574.6 1053.2 575.65 1054.64 575.65C1055.61 575.65 1056.3 575.215 1056.78 574.33ZM1058.64 570.73V569.2H1065.73V570.73H1063.02V577H1061.34V570.73H1058.64ZM1066.79 577V569.2H1068.47V571.495H1070.26C1072.75 571.495 1073.5 572.755 1073.5 574.225C1073.5 575.71 1072.66 577 1070.15 577H1066.79ZM1070.06 573.025H1068.47V575.47H1070.05C1071.26 575.47 1071.73 575.035 1071.73 574.24C1071.73 573.46 1071.23 573.025 1070.06 573.025Z" fill="#50565E"/>
<rect x="547.5" y="538.5" width="149" height="69" rx="34.5" fill="white" stroke="#B4BBC5"/>
<path d="M605.554 581.329L603.079 577.275L600.742 581.329H597.923L601.567 575.283L597.854 569.648H600.811L603.148 573.427L605.417 569.648H608.304L604.592 575.42L608.373 581.329H605.554Z" fill="black"/>
<path d="M617.588 577.344C617.588 579.886 615.663 581.535 613.119 581.535C610.919 581.535 608.994 580.298 608.788 577.619H611.194C611.332 578.787 612.294 579.268 613.326 579.268C614.563 579.268 615.113 578.443 615.113 577.344C615.113 576.245 614.288 575.489 613.051 575.489C612.294 575.42 611.538 575.832 611.126 576.451H608.926L609.751 569.648H617.313L617.038 571.916H611.607L611.401 574.183C611.401 574.183 611.951 573.496 613.738 573.496C615.801 573.496 617.588 574.87 617.588 577.344Z" fill="black"/>
<path d="M609.131 568.207C607.825 563.191 603.769 559 595.244 559H585L586.375 569.032C587.406 577.483 590.638 580.231 596.413 581.262C596.481 581.262 596.619 581.262 596.619 581.124V581.056C596.619 580.987 596.55 580.918 596.481 580.918C592.631 579.269 592.15 573.91 591.325 568.551L590.706 564.222H596.55C601.913 564.222 606.106 564.153 608.719 568.276C608.788 568.344 608.788 568.344 608.925 568.413C609.063 568.413 609.131 568.344 609.131 568.207Z" fill="#5FAF2D"/>
<path d="M625.424 571.091H621.437V569.648H631.13V571.091H627.074V581.329H625.424V571.091Z" fill="black"/>
<path d="M638.831 577.416H631.681C631.75 578.171 632.093 578.858 632.712 579.271C633.331 579.752 634.087 580.026 634.912 579.958C635.875 580.026 636.837 579.614 637.456 578.858L638.35 579.889C637.937 580.37 637.456 580.714 636.837 580.988C635.393 581.538 633.743 581.469 632.368 580.782C631.681 580.439 631.062 579.889 630.718 579.202C630.306 578.515 630.1 577.69 630.1 576.866C630.1 576.041 630.306 575.286 630.65 574.53C630.993 573.843 631.543 573.293 632.231 572.949C632.918 572.537 633.743 572.331 634.5 572.4C635.325 572.4 636.081 572.606 636.768 572.949C637.456 573.362 637.937 573.911 638.281 574.53C638.693 575.286 638.831 576.041 638.831 576.866C638.831 577.141 638.831 577.278 638.831 577.416ZM632.575 574.461C632.025 574.942 631.75 575.56 631.681 576.316H637.318C637.25 575.629 636.906 574.942 636.425 574.461C635.325 573.499 633.675 573.499 632.575 574.461Z" fill="black"/>
<path d="M642.202 580.849C641.515 580.505 640.965 579.887 640.552 579.268C639.727 577.825 639.727 576.039 640.552 574.596C640.965 573.909 641.515 573.359 642.202 573.016C642.959 572.604 643.784 572.397 644.609 572.466C645.365 572.466 646.121 572.604 646.74 572.947C647.359 573.291 647.84 573.772 648.184 574.321L646.946 575.077C646.671 574.665 646.327 574.321 645.915 574.115C645.502 573.909 645.021 573.772 644.54 573.772C643.99 573.772 643.44 573.909 642.959 574.184C642.477 574.459 642.134 574.802 641.859 575.283C641.584 575.764 641.446 576.314 641.446 576.932C641.446 577.482 641.584 578.1 641.859 578.581C642.134 579.062 642.477 579.406 642.959 579.681C643.44 579.955 643.99 580.093 644.54 580.093C645.021 580.093 645.502 580.024 645.915 579.749C646.327 579.543 646.671 579.2 646.946 578.787L648.184 579.543C647.84 580.162 647.359 580.643 646.74 580.986C646.052 581.33 645.365 581.467 644.609 581.467C643.784 581.467 642.959 581.261 642.202 580.849Z" fill="black"/>
<path d="M657.187 573.362C657.874 573.98 658.149 574.942 658.149 576.248V581.332H656.568V576.454C656.637 575.767 656.362 575.08 655.949 574.53C655.468 574.049 654.849 573.843 654.162 573.912C653.405 573.843 652.649 574.186 652.099 574.667C651.549 575.286 651.274 576.042 651.343 576.866V581.401H649.762V569.033H651.343V573.843C651.687 573.431 652.168 573.087 652.649 572.881C653.199 572.606 653.818 572.537 654.437 572.537C655.468 572.331 656.431 572.675 657.187 573.362Z" fill="black"/>
<rect x="742.5" y="538.5" width="149" height="69" rx="34.5" fill="white" stroke="#B4BBC5"/>
<g clip-path="url(#clip4_645_13634)">
<path d="M798.251 582.473L795.621 578.123L793.058 582.473H789.985L793.929 575.924L789.903 569.834H793.107L795.687 573.905L798.152 569.834H801.225L797.265 576.121L801.34 582.473H798.251Z" fill="black"/>
<path d="M811.332 578.189C811.332 580.963 809.228 582.703 806.484 582.703C804.068 582.703 802.014 581.373 801.817 578.451H804.446C804.627 579.715 805.646 580.257 806.747 580.257C808.127 580.257 808.719 579.338 808.719 578.14C808.719 576.892 807.799 576.121 806.517 576.121C805.449 576.121 804.742 576.629 804.413 577.171H801.899L802.77 569.834H811.003L810.724 572.296H804.824L804.594 574.725C804.594 574.725 805.218 574.003 807.092 574.003C809.36 573.987 811.332 575.513 811.332 578.189Z" fill="black"/>
<path d="M802.129 568.258C800.732 562.824 796.295 559 787.109 559H776L777.512 569.177C778.646 578.369 782.163 581.323 788.391 582.407C788.424 582.407 788.621 582.439 788.621 582.21C788.621 582.128 788.572 582.062 788.489 582.029C784.282 580.256 783.806 574.462 782.902 568.635L782.212 563.99H788.555C794.405 563.99 798.908 563.891 801.767 568.405C801.817 568.471 801.883 568.52 801.948 568.52C802.063 568.52 802.145 568.438 802.145 568.323C802.145 568.29 802.129 568.274 802.129 568.258Z" fill="#5FAF2D"/>
<path d="M826.812 569.801H828.882C829.228 569.801 829.523 569.834 829.753 569.899C829.984 569.965 830.164 570.047 830.312 570.162C830.46 570.277 830.542 570.408 830.608 570.556C830.674 570.704 830.69 570.884 830.69 571.065C830.69 571.344 830.624 571.59 830.509 571.787C830.378 571.984 830.214 572.132 829.967 572.23C830.246 572.296 830.46 572.427 830.624 572.624C830.789 572.837 830.871 573.1 830.871 573.428C830.871 573.691 830.822 573.904 830.723 574.085C830.624 574.265 830.493 574.413 830.312 574.544C830.131 574.659 829.918 574.741 829.671 574.807C829.425 574.856 829.145 574.889 828.833 574.889H826.812V569.801ZM827.469 570.408V571.984H828.915C829.244 571.984 829.491 571.918 829.688 571.787C829.885 571.656 829.984 571.459 829.984 571.212C829.984 571.081 829.967 570.966 829.918 570.868C829.885 570.769 829.819 570.687 829.721 570.621C829.638 570.556 829.507 570.507 829.359 570.474C829.211 570.441 829.03 570.425 828.8 570.425H827.469V570.408ZM827.469 572.591V574.265H828.833C829.293 574.265 829.638 574.2 829.852 574.052C830.066 573.921 830.164 573.691 830.164 573.379C830.164 573.1 830.066 572.903 829.868 572.772C829.671 572.64 829.343 572.575 828.899 572.575H827.469V572.591Z" fill="black"/>
<path d="M834.47 574.281C834.371 574.478 834.207 574.642 833.993 574.774C833.763 574.889 833.517 574.954 833.237 574.954C832.728 574.954 832.333 574.823 832.071 574.56C831.808 574.298 831.676 573.871 831.676 573.28V571.113H832.284V573.198C832.284 573.362 832.301 573.51 832.333 573.657C832.366 573.805 832.416 573.937 832.498 574.035C832.58 574.15 832.695 574.232 832.826 574.298C832.958 574.363 833.139 574.396 833.352 574.396C833.681 574.396 833.96 574.298 834.158 574.101C834.355 573.904 834.453 573.625 834.453 573.28V571.113H835.061V574.905H834.453V574.281H834.47Z" fill="black"/>
<path d="M838.447 573.855C838.447 573.708 838.381 573.593 838.266 573.511C838.151 573.429 838.003 573.363 837.839 573.314C837.674 573.264 837.477 573.215 837.28 573.166C837.083 573.117 836.886 573.051 836.721 572.969C836.54 572.887 836.409 572.788 836.294 572.641C836.179 572.493 836.113 572.312 836.113 572.083C836.113 571.918 836.146 571.771 836.212 571.639C836.278 571.508 836.376 571.393 836.491 571.311C836.623 571.213 836.771 571.147 836.935 571.098C837.099 571.048 837.296 571.016 837.51 571.016C837.937 571.016 838.299 571.114 838.578 571.295C838.858 571.475 839.038 571.738 839.12 572.05L838.562 572.247C838.496 572.017 838.381 571.853 838.2 571.738C838.019 571.623 837.789 571.557 837.51 571.557C837.28 571.557 837.099 571.607 836.968 571.689C836.836 571.771 836.754 571.886 836.754 572.033C836.754 572.181 836.82 572.296 836.935 572.362C837.05 572.444 837.198 572.493 837.362 572.542C837.526 572.591 837.724 572.641 837.921 572.69C838.118 572.739 838.315 572.805 838.48 572.887C838.644 572.969 838.792 573.084 838.907 573.232C839.022 573.379 839.088 573.576 839.088 573.822C839.088 574.167 838.956 574.43 838.693 574.627C838.43 574.824 838.085 574.922 837.641 574.922C836.688 574.922 836.113 574.577 835.9 573.888L836.458 573.691C836.639 574.151 837.033 574.381 837.609 574.381C837.888 574.381 838.102 574.331 838.233 574.233C838.381 574.167 838.447 574.036 838.447 573.855Z" fill="black"/>
<path d="M839.794 570.013C839.794 569.915 839.827 569.833 839.893 569.751C839.959 569.685 840.057 569.652 840.172 569.652C840.287 569.652 840.369 569.685 840.452 569.751C840.517 569.816 840.55 569.915 840.55 570.013C840.55 570.112 840.517 570.194 840.452 570.276C840.386 570.342 840.287 570.375 840.172 570.375C840.057 570.375 839.975 570.342 839.893 570.276C839.827 570.194 839.794 570.112 839.794 570.013ZM839.86 571.113H840.468V574.905H839.86V571.113Z" fill="black"/>
<path d="M841.503 571.113H842.111V571.687C842.226 571.474 842.391 571.326 842.604 571.211C842.818 571.096 843.064 571.047 843.344 571.047C843.853 571.047 844.248 571.178 844.527 571.457C844.806 571.736 844.938 572.163 844.938 572.77V574.904H844.33V572.82C844.33 572.409 844.248 572.097 844.067 571.9C843.886 571.703 843.607 571.605 843.229 571.605C843.081 571.605 842.933 571.621 842.785 571.671C842.637 571.72 842.539 571.786 842.424 571.884C842.325 571.982 842.243 572.097 842.193 572.245C842.128 572.393 842.111 572.557 842.111 572.738V574.888H841.503V571.113Z" fill="black"/>
<path d="M847.649 574.954C847.354 574.954 847.091 574.905 846.844 574.806C846.598 574.708 846.4 574.576 846.22 574.396C846.039 574.232 845.907 574.018 845.809 573.772C845.71 573.526 845.661 573.263 845.661 572.968C845.661 572.689 845.71 572.426 845.809 572.18C845.907 571.934 846.039 571.737 846.22 571.556C846.4 571.376 846.598 571.244 846.844 571.146C847.091 571.047 847.354 570.998 847.633 570.998C847.912 570.998 848.175 571.047 848.405 571.129C848.635 571.211 848.833 571.343 848.997 571.507C849.161 571.671 849.293 571.868 849.391 572.098C849.49 572.328 849.523 572.574 849.523 572.853C849.523 572.902 849.523 572.968 849.523 573.017C849.523 573.083 849.523 573.132 849.506 573.181H846.285C846.302 573.345 846.335 573.509 846.4 573.657C846.466 573.805 846.565 573.92 846.68 574.035C846.795 574.133 846.943 574.215 847.107 574.281C847.271 574.347 847.436 574.363 847.633 574.363C847.912 574.363 848.142 574.314 848.323 574.199C848.504 574.1 848.685 573.92 848.816 573.69L849.375 573.887C849.227 574.215 848.997 574.478 848.701 574.658C848.438 574.872 848.077 574.954 847.649 574.954ZM847.649 571.589C847.485 571.589 847.321 571.622 847.173 571.671C847.025 571.72 846.893 571.786 846.778 571.884C846.663 571.983 846.565 572.081 846.483 572.213C846.4 572.344 846.368 572.475 846.335 572.639H848.915C848.915 572.492 848.865 572.36 848.8 572.229C848.734 572.098 848.635 571.999 848.52 571.901C848.405 571.802 848.274 571.737 848.126 571.671C847.978 571.622 847.83 571.589 847.649 571.589Z" fill="black"/>
<path d="M852.596 573.855C852.596 573.708 852.53 573.593 852.415 573.511C852.3 573.429 852.152 573.363 851.988 573.314C851.823 573.264 851.626 573.215 851.429 573.166C851.232 573.117 851.035 573.051 850.87 572.969C850.689 572.887 850.558 572.788 850.443 572.641C850.328 572.493 850.262 572.312 850.262 572.083C850.262 571.918 850.295 571.771 850.361 571.639C850.427 571.508 850.525 571.393 850.64 571.311C850.772 571.213 850.92 571.147 851.084 571.098C851.248 571.048 851.445 571.016 851.659 571.016C852.086 571.016 852.448 571.114 852.727 571.295C853.007 571.475 853.187 571.738 853.27 572.05L852.711 572.247C852.645 572.017 852.53 571.853 852.349 571.738C852.168 571.623 851.938 571.557 851.659 571.557C851.429 571.557 851.248 571.607 851.117 571.689C850.985 571.771 850.903 571.886 850.903 572.033C850.903 572.181 850.969 572.296 851.084 572.362C851.199 572.444 851.347 572.493 851.511 572.542C851.675 572.591 851.873 572.641 852.07 572.69C852.267 572.739 852.464 572.805 852.629 572.887C852.793 572.969 852.941 573.084 853.056 573.232C853.171 573.379 853.237 573.576 853.237 573.822C853.237 574.167 853.105 574.43 852.842 574.627C852.579 574.824 852.234 574.922 851.791 574.922C850.837 574.922 850.262 574.577 850.049 573.888L850.607 573.691C850.788 574.151 851.182 574.381 851.758 574.381C852.037 574.381 852.251 574.331 852.382 574.233C852.53 574.167 852.596 574.036 852.596 573.855Z" fill="black"/>
<path d="M856.343 573.855C856.343 573.708 856.277 573.593 856.162 573.511C856.047 573.429 855.899 573.363 855.735 573.314C855.57 573.264 855.373 573.215 855.176 573.166C854.979 573.117 854.781 573.051 854.617 572.969C854.436 572.887 854.305 572.788 854.19 572.641C854.075 572.493 854.009 572.312 854.009 572.083C854.009 571.918 854.042 571.771 854.108 571.639C854.173 571.508 854.272 571.393 854.387 571.311C854.518 571.213 854.666 571.147 854.831 571.098C854.995 571.048 855.192 571.016 855.406 571.016C855.833 571.016 856.195 571.114 856.474 571.295C856.753 571.475 856.934 571.738 857.016 572.05L856.458 572.247C856.392 572.017 856.277 571.853 856.096 571.738C855.915 571.623 855.685 571.557 855.406 571.557C855.176 571.557 854.995 571.607 854.864 571.689C854.732 571.771 854.65 571.886 854.65 572.033C854.65 572.181 854.716 572.296 854.831 572.362C854.946 572.444 855.094 572.493 855.258 572.542C855.422 572.591 855.62 572.641 855.817 572.69C856.014 572.739 856.211 572.805 856.375 572.887C856.54 572.969 856.688 573.084 856.803 573.232C856.918 573.379 856.983 573.576 856.983 573.822C856.983 574.167 856.852 574.43 856.589 574.627C856.326 574.824 855.981 574.922 855.537 574.922C854.584 574.922 854.009 574.577 853.795 573.888L854.354 573.691C854.535 574.151 854.929 574.381 855.504 574.381C855.784 574.381 855.997 574.331 856.129 574.233C856.277 574.167 856.343 574.036 856.343 573.855Z" fill="black"/>
<path d="M828.998 581.471C828.998 581.323 828.932 581.208 828.817 581.126C828.702 581.044 828.554 580.978 828.39 580.929C828.225 580.88 828.028 580.83 827.831 580.781C827.634 580.732 827.436 580.666 827.272 580.584C827.091 580.502 826.96 580.404 826.845 580.256C826.73 580.108 826.664 579.928 826.664 579.698C826.664 579.534 826.697 579.386 826.763 579.255C826.828 579.123 826.927 579.008 827.042 578.926C827.174 578.828 827.321 578.762 827.486 578.713C827.65 578.664 827.847 578.631 828.061 578.631C828.488 578.631 828.85 578.729 829.129 578.91C829.408 579.09 829.589 579.353 829.671 579.665L829.113 579.862C829.047 579.632 828.932 579.468 828.751 579.353C828.57 579.238 828.34 579.173 828.061 579.173C827.831 579.173 827.65 579.222 827.519 579.304C827.387 579.386 827.305 579.501 827.305 579.649C827.305 579.796 827.371 579.911 827.486 579.977C827.601 580.059 827.749 580.108 827.913 580.157C828.077 580.207 828.275 580.256 828.472 580.305C828.669 580.354 828.866 580.42 829.03 580.502C829.195 580.584 829.343 580.699 829.458 580.847C829.573 580.994 829.639 581.191 829.639 581.438C829.639 581.782 829.507 582.045 829.244 582.242C828.981 582.439 828.636 582.537 828.192 582.537C827.239 582.537 826.664 582.193 826.45 581.503L827.009 581.306C827.19 581.766 827.584 581.996 828.16 581.996C828.439 581.996 828.653 581.947 828.784 581.848C828.915 581.782 828.998 581.651 828.998 581.471Z" fill="black"/>
<path d="M833.237 581.896C833.139 582.093 832.974 582.258 832.761 582.389C832.531 582.504 832.284 582.569 832.005 582.569C831.495 582.569 831.101 582.438 830.838 582.175C830.575 581.913 830.444 581.486 830.444 580.895V578.729H831.052V580.813C831.052 580.977 831.068 581.125 831.101 581.273C831.134 581.42 831.183 581.552 831.265 581.65C831.348 581.765 831.463 581.847 831.594 581.913C831.726 581.979 831.906 582.011 832.12 582.011C832.449 582.011 832.728 581.913 832.925 581.716C833.122 581.519 833.221 581.24 833.221 580.895V578.745H833.829V582.537H833.221V581.896H833.237Z" fill="black"/>
<path d="M836.935 582.571C836.59 582.571 836.31 582.521 836.08 582.406C835.867 582.292 835.686 582.144 835.538 581.93V583.966H834.93V578.73H835.538V579.403C835.67 579.173 835.85 578.992 836.08 578.861C836.31 578.73 836.623 578.664 836.968 578.664C837.231 578.664 837.461 578.713 837.691 578.795C837.921 578.877 838.102 579.009 838.266 579.173C838.43 579.337 838.562 579.534 838.66 579.78C838.759 580.026 838.808 580.289 838.808 580.585C838.808 580.88 838.759 581.143 838.677 581.389C838.578 581.635 838.463 581.848 838.282 582.013C838.118 582.193 837.921 582.324 837.691 582.423C837.461 582.521 837.214 582.571 836.935 582.571ZM836.886 581.996C837.083 581.996 837.264 581.963 837.411 581.898C837.576 581.832 837.707 581.734 837.822 581.619C837.937 581.504 838.02 581.356 838.085 581.175C838.151 581.011 838.184 580.814 838.184 580.601C838.184 580.388 838.151 580.207 838.085 580.026C838.02 579.862 837.921 579.715 837.806 579.6C837.691 579.485 837.543 579.386 837.395 579.321C837.231 579.255 837.066 579.222 836.869 579.222C836.458 579.222 836.146 579.337 835.916 579.583C835.686 579.813 835.555 580.141 835.555 580.552V580.683C835.555 580.896 835.587 581.093 835.653 581.258C835.719 581.422 835.817 581.553 835.932 581.668C836.048 581.783 836.195 581.848 836.36 581.914C836.524 581.963 836.705 581.996 836.886 581.996Z" fill="black"/>
<path d="M841.635 582.571C841.29 582.571 841.01 582.521 840.78 582.406C840.567 582.292 840.386 582.144 840.238 581.93V583.966H839.63V578.73H840.238V579.403C840.37 579.173 840.55 578.992 840.78 578.861C841.01 578.73 841.323 578.664 841.668 578.664C841.931 578.664 842.161 578.713 842.391 578.795C842.621 578.877 842.802 579.009 842.966 579.173C843.13 579.337 843.262 579.534 843.36 579.78C843.459 580.026 843.508 580.289 843.508 580.585C843.508 580.88 843.459 581.143 843.377 581.389C843.278 581.635 843.163 581.848 842.982 582.013C842.818 582.193 842.621 582.324 842.391 582.423C842.161 582.521 841.914 582.571 841.635 582.571ZM841.586 581.996C841.783 581.996 841.964 581.963 842.111 581.898C842.276 581.832 842.407 581.734 842.522 581.619C842.637 581.504 842.719 581.356 842.785 581.175C842.851 581.011 842.884 580.814 842.884 580.601C842.884 580.388 842.851 580.207 842.785 580.026C842.719 579.862 842.621 579.715 842.506 579.6C842.391 579.485 842.243 579.386 842.095 579.321C841.931 579.255 841.766 579.222 841.569 579.222C841.158 579.222 840.846 579.337 840.616 579.583C840.386 579.813 840.254 580.141 840.254 580.552V580.683C840.254 580.896 840.287 581.093 840.353 581.258C840.419 581.422 840.517 581.553 840.632 581.668C840.747 581.783 840.895 581.848 841.06 581.914C841.224 581.963 841.388 581.996 841.586 581.996Z" fill="black"/>
<path d="M844.051 580.6C844.051 580.321 844.1 580.058 844.198 579.828C844.297 579.599 844.429 579.385 844.609 579.205C844.79 579.024 845.004 578.893 845.25 578.794C845.497 578.696 845.776 578.646 846.072 578.646C846.368 578.646 846.647 578.696 846.877 578.794C847.124 578.893 847.337 579.024 847.518 579.205C847.699 579.385 847.83 579.582 847.929 579.828C848.027 580.075 848.077 580.321 848.077 580.6C848.077 580.879 848.027 581.141 847.929 581.388C847.83 581.634 847.699 581.831 847.518 582.011C847.337 582.192 847.124 582.323 846.877 582.422C846.631 582.52 846.351 582.569 846.055 582.569C845.76 582.569 845.497 582.52 845.25 582.422C845.004 582.323 844.79 582.192 844.609 582.011C844.429 581.831 844.297 581.634 844.198 581.388C844.1 581.158 844.051 580.895 844.051 580.6ZM844.691 580.6C844.691 580.797 844.724 580.994 844.79 581.158C844.856 581.322 844.954 581.47 845.069 581.601C845.184 581.732 845.332 581.814 845.497 581.896C845.661 581.962 845.842 581.995 846.039 581.995C846.236 581.995 846.433 581.962 846.598 581.896C846.762 581.831 846.91 581.732 847.025 581.617C847.14 581.503 847.239 581.355 847.304 581.174C847.37 581.01 847.403 580.813 847.403 580.616C847.403 580.419 847.37 580.222 847.304 580.058C847.239 579.894 847.14 579.746 847.009 579.631C846.877 579.516 846.746 579.418 846.565 579.352C846.401 579.287 846.22 579.254 846.023 579.254C845.825 579.254 845.645 579.287 845.48 579.352C845.316 579.418 845.168 579.516 845.053 579.631C844.938 579.746 844.839 579.894 844.774 580.075C844.724 580.206 844.691 580.403 844.691 580.6Z" fill="black"/>
<path d="M848.898 578.713H849.506V579.156C849.556 579.009 849.654 578.877 849.819 578.795C849.967 578.713 850.164 578.664 850.377 578.664C850.443 578.664 850.509 578.664 850.575 578.68C850.64 578.697 850.69 578.697 850.722 578.713V579.304C850.673 579.288 850.624 579.271 850.558 579.271C850.492 579.271 850.443 579.255 850.377 579.255C850.098 579.255 849.868 579.321 849.72 579.468C849.572 579.616 849.49 579.813 849.49 580.092V582.538H848.882V578.713H848.898Z" fill="black"/>
<path d="M850.969 578.713H851.61V577.744H852.218V578.713H853.253V579.287H852.218V581.421C852.218 581.634 852.251 581.782 852.333 581.864C852.415 581.946 852.53 581.995 852.711 581.995C852.875 581.995 853.056 581.963 853.253 581.913V582.488C853.155 582.504 853.04 582.537 852.908 582.553C852.777 582.57 852.662 582.57 852.547 582.57C852.201 582.57 851.955 582.471 851.807 582.291C851.659 582.11 851.593 581.798 851.593 581.355V579.287H850.953V578.713H850.969Z" fill="black"/>
<path d="M818.94 567.305H818.299V584.999H818.94V567.305Z" fill="black"/>
</g>
<rect x="7.5" y="538.5" width="69" height="69" rx="34.5" fill="white" stroke="#B4BBC5"/>
<path d="M50.3075 560.33C48.9746 563.779 45.9837 564.509 41.5948 564.509C41.1397 564.509 40.652 564.509 40.2294 564.509C39.8067 564.509 39.3841 564.509 38.994 564.509C38.6364 564.509 38.2788 564.509 37.9211 564.542C38.5388 563.017 39.5141 561.955 40.9121 561.325C42.8627 560.43 45.366 560.43 47.5767 560.43C48.5195 560.396 49.4623 560.396 50.3075 560.33Z" fill="#048C45"/>
<path d="M51.673 561.425C49.7224 565.77 45.366 566.202 41.6273 566.202C40.8146 566.202 40.0343 566.168 39.2866 566.168L38.3438 569.916C43.1553 565.903 49.5598 569.883 48.8771 575.92C48.422 579.999 45.5611 582.653 42.5701 583.415C39.2866 584.245 35.6455 582.984 34.02 579.601C33.8574 579.236 33.5323 578.507 33.4348 578.142L36.9134 577.246C36.9784 577.445 37.0759 577.644 37.1734 577.81C39.4817 581.624 44.1957 579.701 44.7158 575.754C45.2685 571.741 39.7092 569.585 37.206 574.294L34.15 572.968L34.085 572.935L35.5804 566.865C35.678 566.434 35.9706 565.24 36.0356 565.041C37.7261 558.772 43.1228 558.673 47.4792 558.639C45.6911 557.876 43.708 557.445 41.6599 557.445C33.2722 557.445 26.4451 564.377 26.4451 572.968C26.4451 581.525 33.2397 588.49 41.6599 588.49C50.0475 588.49 56.8746 581.558 56.8746 572.968C56.7446 568.391 54.794 564.278 51.673 561.425Z" fill="#E52825"/>
<rect x="122.5" y="538.5" width="69" height="69" rx="34.5" fill="white" stroke="#B4BBC5"/>
<path d="M161.254 566.724L156.855 571.176L152.457 566.724C150.025 564.244 150.025 560.23 152.457 557.749C154.888 555.268 158.822 555.268 161.254 557.749C163.686 560.23 163.686 564.244 161.254 566.724Z" fill="#5FAF2D"/>
<path d="M152.457 579.312L156.855 574.824L161.254 579.312C163.686 581.793 163.686 585.806 161.254 588.25C158.822 590.731 154.888 590.731 152.457 588.25C150.025 585.806 150.025 581.793 152.457 579.312Z" fill="#005A28"/>
<path d="M163.042 577.488L158.643 573.001L163.042 568.513C165.474 566.032 169.407 566.032 171.839 568.513C174.271 570.994 174.271 575.007 171.839 577.488C169.407 579.969 165.474 579.969 163.042 577.488Z" fill="#1E8737"/>
<path d="M150.704 568.513L155.103 573.001L150.704 577.488C148.273 579.969 144.339 579.969 141.907 577.488C139.475 575.007 139.475 570.994 141.907 568.513C144.339 566.032 148.273 566.032 150.704 568.513Z" fill="#AAE641"/>
<path d="M109.454 634.558L106.932 631.685V631.607L109.467 628.786L110.377 629.631L108.596 631.659L110.377 633.687L109.454 634.558ZM112.262 634.558L109.74 631.685V631.607L112.275 628.786L113.185 629.631L111.404 631.659L113.185 633.687L112.262 634.558ZM121.014 635V627.382H116.308V635H114.722V625.9H122.6V635H121.014ZM127.532 635.156C125.387 635.156 123.957 633.713 123.957 631.607C123.957 629.579 125.387 628.084 127.545 628.084C129.469 628.084 130.964 629.371 130.964 631.412C130.964 631.607 130.951 631.867 130.925 632.127H125.478C125.569 633.141 126.414 633.83 127.571 633.83C128.507 633.83 129.092 633.453 129.456 632.816L130.704 633.232C130.184 634.441 129.053 635.156 127.532 635.156ZM127.519 629.41C126.427 629.41 125.621 630.021 125.491 630.931H129.482C129.443 630.034 128.572 629.41 127.519 629.41ZM135.959 635.156C134.815 635.156 134.035 634.701 133.593 634.077V637.6H132.137V628.24H133.593V629.306C134.022 628.578 134.88 628.084 136.011 628.084C137.896 628.084 139.261 629.397 139.261 631.542C139.261 633.726 137.883 635.156 135.959 635.156ZM135.686 633.83C136.882 633.83 137.727 632.998 137.727 631.594C137.727 630.216 136.843 629.41 135.673 629.41C134.438 629.41 133.593 630.203 133.593 631.516V631.724C133.593 633.076 134.516 633.83 135.686 633.83ZM143.605 635.156C141.46 635.156 140.03 633.713 140.03 631.607C140.03 629.579 141.46 628.084 143.618 628.084C145.542 628.084 147.037 629.371 147.037 631.412C147.037 631.607 147.024 631.867 146.998 632.127H141.551C141.642 633.141 142.487 633.83 143.644 633.83C144.58 633.83 145.165 633.453 145.529 632.816L146.777 633.232C146.257 634.441 145.126 635.156 143.605 635.156ZM143.592 629.41C142.5 629.41 141.694 630.021 141.564 630.931H145.555C145.516 630.034 144.645 629.41 143.592 629.41ZM148.21 635V628.24H149.666V631.152L152.617 628.24H154.502L151.317 631.321L154.632 635H152.786L150.16 632.114L149.666 632.621V635H148.21ZM159.275 635.156C158.131 635.156 157.351 634.701 156.909 634.077V637.6H155.453V628.24H156.909V629.306C157.338 628.578 158.196 628.084 159.327 628.084C161.212 628.084 162.577 629.397 162.577 631.542C162.577 633.726 161.199 635.156 159.275 635.156ZM159.002 633.83C160.198 633.83 161.043 632.998 161.043 631.594C161.043 630.216 160.159 629.41 158.989 629.41C157.754 629.41 156.909 630.203 156.909 631.516V631.724C156.909 633.076 157.832 633.83 159.002 633.83ZM166.92 635.156C164.775 635.156 163.345 633.713 163.345 631.607C163.345 629.579 164.775 628.084 166.933 628.084C168.857 628.084 170.352 629.371 170.352 631.412C170.352 631.607 170.339 631.867 170.313 632.127H164.866C164.957 633.141 165.802 633.83 166.959 633.83C167.895 633.83 168.48 633.453 168.844 632.816L170.092 633.232C169.572 634.441 168.441 635.156 166.92 635.156ZM166.907 629.41C165.815 629.41 165.009 630.021 164.879 630.931H168.87C168.831 630.034 167.96 629.41 166.907 629.41ZM164.528 626.29C164.528 625.835 164.853 625.51 165.334 625.51C165.815 625.51 166.14 625.835 166.14 626.29C166.14 626.745 165.815 627.07 165.334 627.07C164.853 627.07 164.528 626.745 164.528 626.29ZM167.518 626.29C167.518 625.835 167.843 625.51 168.324 625.51C168.805 625.51 169.13 625.835 169.13 626.29C169.13 626.745 168.805 627.07 168.324 627.07C167.843 627.07 167.518 626.745 167.518 626.29ZM176.558 632.686L177.806 633.102C177.351 634.376 176.181 635.156 174.647 635.156C172.502 635.156 171.033 633.713 171.033 631.607C171.033 629.514 172.502 628.084 174.634 628.084C176.129 628.084 177.286 628.838 177.819 630.138L176.571 630.554C176.129 629.774 175.557 629.41 174.699 629.41C173.425 629.41 172.567 630.294 172.567 631.607C172.567 632.92 173.451 633.83 174.699 633.83C175.544 633.83 176.142 633.453 176.558 632.686ZM178.167 629.566V628.24H184.316V629.566H181.963V635H180.507V629.566H178.167ZM184.554 631.607C184.554 629.54 186.036 628.084 188.194 628.084C190.365 628.084 191.873 629.566 191.873 631.607C191.873 633.661 190.365 635.156 188.194 635.156C186.075 635.156 184.554 633.726 184.554 631.607ZM186.088 631.62C186.088 632.92 186.946 633.83 188.207 633.83C189.481 633.83 190.339 632.985 190.339 631.62C190.339 630.268 189.416 629.41 188.194 629.41C186.985 629.41 186.088 630.255 186.088 631.62ZM193.089 635V628.24H194.545V631.152L197.496 628.24H199.381L196.196 631.321L199.511 635H197.665L195.039 632.114L194.545 632.621V635H193.089ZM200.891 634.558L199.968 633.687L201.762 631.659L199.968 629.631L200.878 628.773L203.426 631.62V631.711L200.891 634.558ZM203.725 634.558L202.802 633.687L204.596 631.659L202.802 629.631L203.712 628.773L206.26 631.62V631.711L203.725 634.558Z" fill="#50565E"/>
<path d="M3.32363 634.558L0.801628 631.685V631.607L3.33663 628.786L4.24663 629.631L2.46563 631.659L4.24663 633.687L3.32363 634.558ZM6.13163 634.558L3.60963 631.685V631.607L6.14463 628.786L7.05463 629.631L5.27363 631.659L7.05463 633.687L6.13163 634.558ZM14.8835 635V627.382H10.1775V635H8.59147V625.9H16.4695V635H14.8835ZM20.8685 628.24H23.9235V635H22.4675V632.79H21.0895L19.3605 635H17.6055L19.5555 632.582C18.6065 632.335 17.9825 631.503 17.9825 630.45C17.9825 629.267 18.7755 628.24 20.8685 628.24ZM19.5165 630.528C19.5165 631.074 19.9715 631.464 20.8425 631.464H22.4675V629.566H20.8815C19.9195 629.566 19.5165 629.93 19.5165 630.528ZM24.847 629.566V628.24H30.996V629.566H28.643V635H27.187V629.566H24.847ZM34.8083 635.156C32.6633 635.156 31.2333 633.713 31.2333 631.607C31.2333 629.579 32.6633 628.084 34.8213 628.084C36.7453 628.084 38.2403 629.371 38.2403 631.412C38.2403 631.607 38.2273 631.867 38.2013 632.127H32.7543C32.8453 633.141 33.6903 633.83 34.8473 633.83C35.7833 633.83 36.3683 633.453 36.7323 632.816L37.9803 633.232C37.4603 634.441 36.3293 635.156 34.8083 635.156ZM34.7953 629.41C33.7033 629.41 32.8973 630.021 32.7673 630.931H36.7583C36.7193 630.034 35.8483 629.41 34.7953 629.41ZM32.4163 626.29C32.4163 625.835 32.7413 625.51 33.2223 625.51C33.7033 625.51 34.0283 625.835 34.0283 626.29C34.0283 626.745 33.7033 627.07 33.2223 627.07C32.7413 627.07 32.4163 626.745 32.4163 626.29ZM35.4063 626.29C35.4063 625.835 35.7313 625.51 36.2123 625.51C36.6933 625.51 37.0183 625.835 37.0183 626.29C37.0183 626.745 36.6933 627.07 36.2123 627.07C35.7313 627.07 35.4063 626.745 35.4063 626.29ZM43.2357 635.156C42.0917 635.156 41.3117 634.701 40.8697 634.077V637.6H39.4137V628.24H40.8697V629.306C41.2987 628.578 42.1567 628.084 43.2877 628.084C45.1727 628.084 46.5377 629.397 46.5377 631.542C46.5377 633.726 45.1597 635.156 43.2357 635.156ZM42.9627 633.83C44.1587 633.83 45.0037 632.998 45.0037 631.594C45.0037 630.216 44.1197 629.41 42.9497 629.41C41.7147 629.41 40.8697 630.203 40.8697 631.516V631.724C40.8697 633.076 41.7927 633.83 42.9627 633.83ZM47.3061 631.607C47.3061 629.54 48.7881 628.084 50.9461 628.084C53.1171 628.084 54.6251 629.566 54.6251 631.607C54.6251 633.661 53.1171 635.156 50.9461 635.156C48.8271 635.156 47.3061 633.726 47.3061 631.607ZM48.8401 631.62C48.8401 632.92 49.6981 633.83 50.9591 633.83C52.2331 633.83 53.0911 632.985 53.0911 631.62C53.0911 630.268 52.1681 629.41 50.9461 629.41C49.7371 629.41 48.8401 630.255 48.8401 631.62ZM61.3817 628.24V635H59.9257V632.478C59.4967 632.725 58.8467 632.946 57.9887 632.946C56.3637 632.946 55.3887 632.153 55.3887 630.151V628.24H56.8447V630.021C56.8447 631.152 57.2607 631.62 58.3007 631.62C59.0157 631.62 59.6007 631.412 59.9257 631.165V628.24H61.3817ZM63.0467 635V628.24H64.5027V631.152L67.4537 628.24H69.3387L66.1537 631.321L69.4687 635H67.6227L64.9967 632.114L64.5027 632.621V635H63.0467ZM70.9458 630.554L69.6978 630.138C70.0748 628.812 71.1668 628.084 72.7918 628.084C74.6768 628.084 75.6648 629.072 75.6648 630.97V635H74.1828V633.869C73.8578 634.584 73.0388 635.156 71.9078 635.156C70.4258 635.156 69.5548 634.311 69.5548 633.102C69.5548 631.581 70.9328 630.892 74.2088 630.879C74.2088 629.904 73.7408 629.41 72.7398 629.41C71.7908 629.41 71.1928 629.8 70.9458 630.554ZM72.2588 633.856C73.4288 633.856 74.2088 633.167 74.2088 632.153V631.945C71.9598 631.945 71.0888 632.218 71.0888 633.011C71.0888 633.531 71.5308 633.856 72.2588 633.856ZM77.7615 634.558L76.8385 633.687L78.6325 631.659L76.8385 629.631L77.7485 628.773L80.2965 631.62V631.711L77.7615 634.558ZM80.5955 634.558L79.6725 633.687L81.4665 631.659L79.6725 629.631L80.5825 628.773L83.1305 631.62V631.711L80.5955 634.558Z" fill="#50565E"/>
<rect x="237.5" y="538.5" width="69" height="69" rx="34.5" fill="white" stroke="#B4BBC5"/>
<path d="M291.517 565.687C291.481 565.395 291.159 565.25 290.837 565.14C290.194 564.885 288.727 564.593 287.512 564.41C287.297 563.936 286.975 563.425 286.51 562.769C285.795 561.784 284.15 560.215 282.505 559.193C278.536 556.749 273.887 556.347 269.524 557.807C265.769 559.084 263.087 560.981 261.477 564.228C260.583 566.016 259.94 568.934 259.94 568.934C257.436 568.424 255.291 567.329 252.394 565.651C251.071 569.336 251.607 574.662 253.86 577.581C256.542 581.084 260.047 582.725 263.194 583.273C261.013 583.674 258.652 584.258 258.652 584.258C258.652 584.258 260.726 586.264 265.59 587.541C269.667 588.599 272.993 588.563 274.924 588.381C277.105 588.235 279.251 587.505 281.396 586.082C286.546 582.58 289.478 575.611 288.799 569.263C289.908 568.168 290.945 567.074 291.41 566.271C291.445 566.052 291.517 565.87 291.517 565.687ZM283.971 569.701C283.614 570.795 283.113 571.853 282.219 572.546C281.218 573.313 279.93 573.531 278.679 573.604C278.071 573.641 277.463 573.641 276.891 573.458C275.675 573.13 274.745 572.109 274.244 570.941C273.744 569.774 273.636 568.46 273.708 567.183C273.779 565.614 274.101 564.009 275.031 562.732C275.961 561.492 277.892 561.017 279.43 561.127C281.539 561.273 283.041 562.586 283.9 564.301C284.686 565.979 284.543 567.986 283.971 569.701Z" fill="black"/>
<path d="M282.255 566.27C282.255 567.766 281.539 568.97 280.681 568.97C279.823 568.97 279.108 567.766 279.108 566.27C279.108 564.774 279.823 563.57 280.681 563.57C281.539 563.607 282.255 564.811 282.255 566.27Z" fill="black"/>
<defs>
<clipPath id="clip0_645_13634">
<rect width="315" height="72" rx="36" fill="white"/>
</clipPath>
<clipPath id="clip1_645_13634">
<rect y="116" width="315" height="72" rx="36" fill="white"/>
</clipPath>
<clipPath id="clip2_645_13634">
<rect y="232" width="315" height="72" rx="36" fill="white"/>
</clipPath>
<clipPath id="clip3_645_13634">
<rect y="347" width="315" height="72" rx="36" fill="white"/>
</clipPath>
<clipPath id="clip4_645_13634">
<rect width="81" height="26" fill="white" transform="translate(776 559)"/>
</clipPath>
</defs>
</svg>
