<svg width="537" height="274" viewBox="0 0 537 274" fill="none" xmlns="http://www.w3.org/2000/svg">
<circle cx="7.5" cy="7.5" r="7.5" fill="#BFCED4"/>
<path d="M26.17 2.9L29.849 2.9C30.4643 2.9 30.9757 2.95633 31.383 3.069C31.799 3.18167 32.1283 3.33767 32.371 3.537C32.6223 3.73633 32.8 3.97467 32.904 4.252C33.008 4.52933 33.06 4.83267 33.06 5.162C33.06 5.66467 32.9473 6.09367 32.722 6.449C32.5053 6.80433 32.189 7.06867 31.773 7.242C32.267 7.346 32.657 7.58433 32.943 7.957C33.2377 8.321 33.385 8.802 33.385 9.4C33.385 9.85933 33.2983 10.2537 33.125 10.583C32.9517 10.9123 32.709 11.181 32.397 11.389C32.085 11.597 31.708 11.753 31.266 11.857C30.824 11.9523 30.33 12 29.784 12L26.17 12L26.17 2.9ZM27.353 7.892L27.353 10.895L29.771 10.895C30.603 10.895 31.2053 10.7737 31.578 10.531C31.9593 10.2797 32.15 9.881 32.15 9.335C32.15 8.841 31.9723 8.477 31.617 8.243C31.2617 8.009 30.6897 7.892 29.901 7.892L27.353 7.892ZM27.353 4.005L27.353 6.813L29.94 6.813C30.512 6.813 30.967 6.69167 31.305 6.449C31.6517 6.20633 31.825 5.85967 31.825 5.409C31.825 5.175 31.7903 4.97133 31.721 4.798C31.6517 4.62467 31.5347 4.48167 31.37 4.369C31.214 4.24767 31.0017 4.15667 30.733 4.096C30.4643 4.03533 30.135 4.005 29.745 4.005L27.353 4.005ZM34.4817 6.969C34.6983 6.371 35.0623 5.916 35.5737 5.604C36.085 5.28333 36.709 5.123 37.4457 5.123C39.283 5.123 40.2017 6.085 40.2017 8.009L40.2017 12L39.1097 12L39.1097 10.83C39.023 11.012 38.893 11.181 38.7197 11.337C38.555 11.493 38.36 11.6317 38.1347 11.753C37.918 11.8657 37.6797 11.9523 37.4197 12.013C37.1597 12.0823 36.8953 12.117 36.6267 12.117C36.2713 12.117 35.9507 12.0693 35.6647 11.974C35.3787 11.8787 35.1317 11.7443 34.9237 11.571C34.7157 11.389 34.5553 11.1767 34.4427 10.934C34.33 10.6827 34.2737 10.4053 34.2737 10.102C34.2737 9.712 34.3603 9.38267 34.5337 9.114C34.7157 8.84533 34.9973 8.62867 35.3787 8.464C35.7687 8.29067 36.267 8.165 36.8737 8.087C37.489 8.009 38.2343 7.97 39.1097 7.97C39.1097 7.346 38.971 6.88667 38.6937 6.592C38.425 6.29733 38.0003 6.15 37.4197 6.15C36.397 6.15 35.747 6.54433 35.4697 7.333L34.4817 6.969ZM36.8477 11.09C37.177 11.09 37.4803 11.0423 37.7577 10.947C38.035 10.8517 38.2733 10.7173 38.4727 10.544C38.672 10.362 38.828 10.1497 38.9407 9.907C39.0533 9.66433 39.1097 9.4 39.1097 9.114V8.867C38.4163 8.867 37.8313 8.88867 37.3547 8.932C36.8867 8.97533 36.5097 9.04467 36.2237 9.14C35.9377 9.23533 35.7297 9.361 35.5997 9.517C35.4783 9.673 35.4177 9.868 35.4177 10.102C35.4177 10.4053 35.5433 10.648 35.7947 10.83C36.0547 11.0033 36.4057 11.09 36.8477 11.09ZM45.9016 10.154C45.9016 9.88533 45.7976 9.68167 45.5896 9.543C45.3816 9.39567 45.1216 9.27867 44.8096 9.192C44.5062 9.09667 44.1726 9.01 43.8086 8.932C43.4532 8.84533 43.1196 8.73267 42.8076 8.594C42.5042 8.44667 42.2486 8.25167 42.0406 8.009C41.8326 7.76633 41.7286 7.437 41.7286 7.021C41.7286 6.735 41.7849 6.475 41.8976 6.241C42.0189 6.007 42.1879 5.80767 42.4046 5.643C42.6299 5.47833 42.8942 5.35267 43.1976 5.266C43.5096 5.17067 43.8562 5.123 44.2376 5.123C45.0002 5.123 45.6286 5.28767 46.1226 5.617C46.6252 5.93767 46.9459 6.38833 47.0846 6.969L46.0966 7.333C45.9839 6.93433 45.7629 6.631 45.4336 6.423C45.1129 6.215 44.7056 6.111 44.2116 6.111C43.8129 6.111 43.4879 6.19333 43.2366 6.358C42.9939 6.514 42.8726 6.71767 42.8726 6.969C42.8726 7.229 42.9766 7.42833 43.1846 7.567C43.3926 7.697 43.6482 7.80533 43.9516 7.892C44.2636 7.97867 44.5972 8.06533 44.9526 8.152C45.3166 8.23 45.6502 8.34267 45.9536 8.49C46.2656 8.63733 46.5256 8.841 46.7336 9.101C46.9416 9.35233 47.0456 9.699 47.0456 10.141C47.0456 10.7477 46.8116 11.2287 46.3436 11.584C45.8842 11.9393 45.2602 12.117 44.4716 12.117C42.7729 12.117 41.7329 11.5017 41.3516 10.271L42.3396 9.907C42.6689 10.7217 43.3536 11.129 44.3936 11.129C44.8876 11.129 45.2602 11.0467 45.5116 10.882C45.7716 10.7087 45.9016 10.466 45.9016 10.154ZM51.4322 12.117C50.9122 12.117 50.4356 12.0303 50.0022 11.857C49.5776 11.6837 49.2092 11.4453 48.8972 11.142C48.5939 10.83 48.3556 10.4617 48.1822 10.037C48.0089 9.60367 47.9222 9.127 47.9222 8.607C47.9222 8.10433 48.0089 7.64067 48.1822 7.216C48.3642 6.78267 48.6112 6.41 48.9232 6.098C49.2352 5.77733 49.6036 5.53033 50.0282 5.357C50.4616 5.175 50.9296 5.084 51.4322 5.084C51.9349 5.084 52.3899 5.16633 52.7972 5.331C53.2132 5.487 53.5686 5.71233 53.8632 6.007C54.1666 6.30167 54.4006 6.65267 54.5652 7.06C54.7299 7.46733 54.8122 7.918 54.8122 8.412C54.8122 8.50733 54.8079 8.607 54.7992 8.711C54.7992 8.815 54.7949 8.91033 54.7862 8.997L49.0402 8.997C49.0576 9.30033 49.1269 9.582 49.2482 9.842C49.3782 10.0933 49.5472 10.3143 49.7552 10.505C49.9719 10.687 50.2232 10.83 50.5092 10.934C50.7952 11.038 51.1029 11.09 51.4322 11.09C51.9262 11.09 52.3379 10.999 52.6672 10.817C53.0052 10.6263 53.3042 10.323 53.5642 9.907L54.5522 10.271C54.2749 10.869 53.8719 11.3283 53.3432 11.649C52.8232 11.961 52.1862 12.117 51.4322 12.117ZM51.4322 6.111C51.1289 6.111 50.8429 6.15867 50.5742 6.254C50.3056 6.34067 50.0672 6.46633 49.8592 6.631C49.6512 6.79567 49.4779 6.995 49.3392 7.229C49.2092 7.45433 49.1269 7.70133 49.0922 7.97L53.6942 7.97C53.6856 7.71 53.6206 7.46733 53.4992 7.242C53.3779 7.01667 53.2132 6.82167 53.0052 6.657C52.8059 6.48367 52.5676 6.34933 52.2902 6.254C52.0216 6.15867 51.7356 6.111 51.4322 6.111ZM63.4917 10.154C63.4917 9.88533 63.3877 9.68167 63.1797 9.543C62.9717 9.39567 62.7117 9.27867 62.3997 9.192C62.0963 9.09667 61.7627 9.01 61.3987 8.932C61.0433 8.84533 60.7097 8.73267 60.3977 8.594C60.0943 8.44667 59.8387 8.25167 59.6307 8.009C59.4227 7.76633 59.3187 7.437 59.3187 7.021C59.3187 6.735 59.375 6.475 59.4877 6.241C59.609 6.007 59.778 5.80767 59.9947 5.643C60.22 5.47833 60.4843 5.35267 60.7877 5.266C61.0997 5.17067 61.4463 5.123 61.8277 5.123C62.5903 5.123 63.2187 5.28767 63.7127 5.617C64.2153 5.93767 64.536 6.38833 64.6747 6.969L63.6867 7.333C63.574 6.93433 63.353 6.631 63.0237 6.423C62.703 6.215 62.2957 6.111 61.8017 6.111C61.403 6.111 61.078 6.19333 60.8267 6.358C60.584 6.514 60.4627 6.71767 60.4627 6.969C60.4627 7.229 60.5667 7.42833 60.7747 7.567C60.9827 7.697 61.2383 7.80533 61.5417 7.892C61.8537 7.97867 62.1873 8.06533 62.5427 8.152C62.9067 8.23 63.2403 8.34267 63.5437 8.49C63.8557 8.63733 64.1157 8.841 64.3237 9.101C64.5317 9.35233 64.6357 9.699 64.6357 10.141C64.6357 10.7477 64.4017 11.2287 63.9337 11.584C63.4743 11.9393 62.8503 12.117 62.0617 12.117C60.363 12.117 59.323 11.5017 58.9417 10.271L59.9297 9.907C60.259 10.7217 60.9437 11.129 61.9837 11.129C62.4777 11.129 62.8503 11.0467 63.1017 10.882C63.3617 10.7087 63.4917 10.466 63.4917 10.154ZM65.8213 6.969C66.038 6.371 66.402 5.916 66.9133 5.604C67.4247 5.28333 68.0487 5.123 68.7853 5.123C70.6227 5.123 71.5413 6.085 71.5413 8.009L71.5413 12L70.4493 12V10.83C70.3627 11.012 70.2327 11.181 70.0593 11.337C69.8947 11.493 69.6997 11.6317 69.4743 11.753C69.2577 11.8657 69.0193 11.9523 68.7593 12.013C68.4993 12.0823 68.235 12.117 67.9663 12.117C67.611 12.117 67.2903 12.0693 67.0043 11.974C66.7183 11.8787 66.4713 11.7443 66.2633 11.571C66.0553 11.389 65.895 11.1767 65.7823 10.934C65.6697 10.6827 65.6133 10.4053 65.6133 10.102C65.6133 9.712 65.7 9.38267 65.8733 9.114C66.0553 8.84533 66.337 8.62867 66.7183 8.464C67.1083 8.29067 67.6067 8.165 68.2133 8.087C68.8287 8.009 69.574 7.97 70.4493 7.97C70.4493 7.346 70.3107 6.88667 70.0333 6.592C69.7647 6.29733 69.34 6.15 68.7593 6.15C67.7367 6.15 67.0867 6.54433 66.8093 7.333L65.8213 6.969ZM68.1873 11.09C68.5167 11.09 68.82 11.0423 69.0973 10.947C69.3747 10.8517 69.613 10.7173 69.8123 10.544C70.0117 10.362 70.1677 10.1497 70.2803 9.907C70.393 9.66433 70.4493 9.4 70.4493 9.114V8.867C69.756 8.867 69.171 8.88867 68.6943 8.932C68.2263 8.97533 67.8493 9.04467 67.5633 9.14C67.2773 9.23533 67.0693 9.361 66.9393 9.517C66.818 9.673 66.7573 9.868 66.7573 10.102C66.7573 10.4053 66.883 10.648 67.1343 10.83C67.3943 11.0033 67.7453 11.09 68.1873 11.09ZM73.2112 2.51L74.3032 2.51L74.3032 12L73.2112 12L73.2112 2.51ZM75.813 6.969C76.0297 6.371 76.3937 5.916 76.905 5.604C77.4164 5.28333 78.0404 5.123 78.777 5.123C80.6144 5.123 81.533 6.085 81.533 8.009L81.533 12L80.441 12V10.83C80.3544 11.012 80.2244 11.181 80.051 11.337C79.8864 11.493 79.6914 11.6317 79.466 11.753C79.2494 11.8657 79.011 11.9523 78.751 12.013C78.491 12.0823 78.2267 12.117 77.958 12.117C77.6027 12.117 77.282 12.0693 76.996 11.974C76.71 11.8787 76.463 11.7443 76.255 11.571C76.047 11.389 75.8867 11.1767 75.774 10.934C75.6614 10.6827 75.605 10.4053 75.605 10.102C75.605 9.712 75.6917 9.38267 75.865 9.114C76.047 8.84533 76.3287 8.62867 76.71 8.464C77.1 8.29067 77.5984 8.165 78.205 8.087C78.8204 8.009 79.5657 7.97 80.441 7.97C80.441 7.346 80.3024 6.88667 80.025 6.592C79.7564 6.29733 79.3317 6.15 78.751 6.15C77.7284 6.15 77.0784 6.54433 76.801 7.333L75.813 6.969ZM78.179 11.09C78.5084 11.09 78.8117 11.0423 79.089 10.947C79.3664 10.8517 79.6047 10.7173 79.804 10.544C80.0034 10.362 80.1594 10.1497 80.272 9.907C80.3847 9.66433 80.441 9.4 80.441 9.114V8.867C79.7477 8.867 79.1627 8.88867 78.686 8.932C78.218 8.97533 77.841 9.04467 77.555 9.14C77.269 9.23533 77.061 9.361 76.931 9.517C76.8097 9.673 76.749 9.868 76.749 10.102C76.749 10.4053 76.8747 10.648 77.126 10.83C77.386 11.0033 77.737 11.09 78.179 11.09ZM83.2029 5.24L84.2949 5.24V6.02C84.3903 5.74267 84.5723 5.526 84.8409 5.37C85.1096 5.20533 85.4433 5.123 85.8419 5.123C85.9546 5.123 86.0716 5.13167 86.1929 5.149C86.3229 5.15767 86.4139 5.17067 86.4659 5.188L86.4659 6.241C86.3793 6.20633 86.2839 6.18467 86.1799 6.176C86.0759 6.15867 85.9676 6.15 85.8549 6.15C85.3436 6.15 84.9536 6.28 84.6849 6.54C84.4249 6.8 84.2949 7.16833 84.2949 7.645L84.2949 12L83.2029 12L83.2029 5.24ZM89.9351 11.753L86.9191 5.24L88.2061 5.24L90.4941 10.31L92.3921 5.24L93.5881 5.24L89.9871 14.6L88.7911 14.6L89.9351 11.753Z" fill="#777F8C"/>
<circle cx="7.5" cy="37.5" r="7.5" fill="#003E14"/>
<path d="M26.17 32.9L27.353 32.9L27.353 40.895L32.748 40.895V42L26.17 42L26.17 32.9ZM31.078 32.9L38.592 32.9V34.005L35.42 34.005L35.42 42H34.237L34.237 34.005H31.078V32.9ZM39.6275 32.9H40.8105L40.8105 42H39.6275L39.6275 32.9Z" fill="#777F8C"/>
<circle cx="7.5" cy="67.5" r="7.5" fill="#5FAF2D"/>
<path d="M31.344 69.582C31.344 69.1573 31.2053 68.841 30.928 68.633C30.6593 68.4163 30.3213 68.2517 29.914 68.139C29.5067 68.0263 29.0603 67.9267 28.575 67.84C28.0983 67.7533 27.6563 67.6233 27.249 67.45C26.8417 67.2767 26.4993 67.0253 26.222 66.696C25.9533 66.358 25.819 65.8857 25.819 65.279C25.819 64.941 25.8797 64.6203 26.001 64.317C26.131 64.0137 26.3217 63.7493 26.573 63.524C26.833 63.2987 27.1623 63.121 27.561 62.991C27.9597 62.8523 28.432 62.783 28.978 62.783C29.3767 62.783 29.7667 62.8263 30.148 62.913C30.5293 62.9997 30.876 63.147 31.188 63.355C31.5087 63.5543 31.7817 63.8143 32.007 64.135C32.241 64.4557 32.4057 64.85 32.501 65.318L31.435 65.643C31.2703 64.9757 30.9843 64.5163 30.577 64.265C30.1697 64.0137 29.628 63.888 28.952 63.888C28.7353 63.888 28.5143 63.914 28.289 63.966C28.0637 64.0093 27.86 64.0873 27.678 64.2C27.496 64.304 27.3443 64.4427 27.223 64.616C27.1103 64.7893 27.054 65.0017 27.054 65.253C27.054 65.565 27.132 65.8163 27.288 66.007C27.4527 66.1977 27.6607 66.3537 27.912 66.475C28.172 66.5877 28.4667 66.683 28.796 66.761C29.134 66.8303 29.472 66.904 29.81 66.982C30.1567 67.06 30.4947 67.151 30.824 67.255C31.162 67.359 31.4567 67.5063 31.708 67.697C31.968 67.879 32.176 68.113 32.332 68.399C32.4967 68.685 32.579 69.049 32.579 69.491C32.579 69.881 32.501 70.2363 32.345 70.557C32.1977 70.8777 31.981 71.155 31.695 71.389C31.4177 71.623 31.084 71.805 30.694 71.935C30.304 72.0563 29.875 72.117 29.407 72.117C28.9997 72.117 28.5923 72.0867 28.185 72.026C27.7863 71.974 27.4093 71.8613 27.054 71.688C26.6987 71.506 26.3823 71.2503 26.105 70.921C25.8277 70.5917 25.611 70.154 25.455 69.608L26.547 69.257C26.7117 69.907 27.0367 70.362 27.522 70.622C28.016 70.882 28.6313 71.012 29.368 71.012C29.966 71.012 30.4427 70.8907 30.798 70.648C31.162 70.3967 31.344 70.0413 31.344 69.582ZM32.9188 62.9L40.4328 62.9V64.005H37.2608L37.2608 72L36.0778 72L36.0778 64.005H32.9188V62.9ZM41.4684 62.9H42.6514L42.6514 72H41.4684L41.4684 62.9Z" fill="#777F8C"/>
<path d="M343.32 133.16C343.507 131.953 344.425 130.525 346.448 130.525C347.876 130.525 348.998 131.137 348.998 132.82C348.998 134.452 347.655 135.965 344.255 138.226L341.671 139.943V141.133H350.936V139.688H344.357L345.666 138.872C347.706 137.597 350.494 135.608 350.494 132.667C350.494 130.559 349.049 129.08 346.55 129.08C343.881 129.08 342.402 130.746 341.994 132.718L343.32 133.16ZM352.284 135.183C352.284 138.702 354.086 141.286 357.367 141.286C360.835 141.286 362.399 138.702 362.399 135.183C362.399 131.443 360.784 129.08 357.333 129.08C353.899 129.08 352.284 131.664 352.284 135.183ZM353.78 135.183C353.78 132.327 354.902 130.525 357.333 130.525C359.781 130.525 360.903 132.276 360.903 135.183C360.903 138.073 359.815 139.841 357.367 139.841C355.14 139.841 353.78 138.073 353.78 135.183ZM365.284 133.16C365.471 131.953 366.389 130.525 368.412 130.525C369.84 130.525 370.962 131.137 370.962 132.82C370.962 134.452 369.619 135.965 366.219 138.226L363.635 139.943V141.133H372.9V139.688H366.321L367.63 138.872C369.67 137.597 372.458 135.608 372.458 132.667C372.458 130.559 371.013 129.08 368.514 129.08C365.845 129.08 364.366 130.746 363.958 132.718L365.284 133.16ZM375.693 133.16C375.88 131.953 376.798 130.525 378.821 130.525C380.249 130.525 381.371 131.137 381.371 132.82C381.371 134.452 380.028 135.965 376.628 138.226L374.044 139.943V141.133H383.309V139.688H376.73L378.039 138.872C380.079 137.597 382.867 135.608 382.867 132.667C382.867 130.559 381.422 129.08 378.923 129.08C376.254 129.08 374.775 130.746 374.367 132.718L375.693 133.16Z" fill="#222429"/>
<path d="M362.809 0.00941916C384.604 -0.246461 406.145 4.71356 425.633 14.4756C445.121 24.2377 461.992 38.5188 474.839 56.1274C487.685 73.7359 496.134 94.1613 499.481 115.699C502.828 137.237 500.976 159.264 494.079 179.94L474.629 173.452C480.492 155.877 482.066 137.155 479.221 118.848C476.376 100.54 469.195 83.1788 458.275 68.2115C447.356 53.2442 433.015 41.1053 416.45 32.8076C399.885 24.5098 381.576 20.2938 363.05 20.5113L362.809 0.00941916Z" fill="#BFCED4"/>
<path d="M494.069 179.97C485.162 206.651 468.241 229.935 445.613 246.645C422.986 263.354 395.754 272.676 367.633 273.339C339.512 274.001 311.872 265.972 288.483 250.346C265.093 234.721 247.094 212.26 236.941 186.028L256.062 178.627C264.692 200.924 279.991 220.016 299.872 233.298C319.753 246.58 343.248 253.404 367.15 252.841C391.053 252.278 414.2 244.355 433.433 230.151C452.667 215.948 467.05 196.157 474.621 173.478L494.069 179.97Z" fill="#003E14"/>
<path d="M236.949 186.048C228.975 165.457 226.109 143.241 228.595 121.3C231.08 99.3597 238.845 78.3479 251.223 60.0627C263.601 41.7775 280.225 26.7633 299.672 16.3048C319.119 5.84622 340.811 0.254647 362.89 0.00849353L363.119 20.5105C344.351 20.7197 325.913 25.4725 309.383 34.3623C292.853 43.2521 278.723 56.0142 268.202 71.5566C257.68 87.099 251.08 104.959 248.967 123.609C246.854 142.258 249.291 161.142 256.069 178.644L236.949 186.048Z" fill="#5FAF2D"/>
<path d="M489.68 48.6928C490.04 47.7328 490.97 46.7728 492.68 46.7728C494.075 46.7728 494.96 47.3278 494.96 48.3928C494.96 49.3828 493.925 50.1328 492.2 50.1328H491.27V51.3778H492.44C494 51.3778 495.2 51.7828 495.2 53.1178C495.2 54.3178 494.27 54.9928 492.77 54.9928C490.865 54.9928 490.01 54.0178 489.485 52.9228L488.27 53.4478C488.78 55.1128 490.325 56.2678 492.68 56.2678C494.855 56.2678 496.52 55.1428 496.52 53.1028C496.52 51.4228 495.47 50.6728 494.435 50.5978C495.635 50.2528 496.28 49.3528 496.28 48.1378C496.28 46.5178 494.795 45.4978 492.74 45.4978C490.46 45.4978 489.11 46.6378 488.555 48.1828L489.68 48.6928ZM497.753 50.8828C497.753 53.9878 499.343 56.2678 502.238 56.2678C505.298 56.2678 506.678 53.9878 506.678 50.8828C506.678 47.5828 505.253 45.4978 502.208 45.4978C499.178 45.4978 497.753 47.7778 497.753 50.8828ZM499.073 50.8828C499.073 48.3628 500.063 46.7728 502.208 46.7728C504.368 46.7728 505.358 48.3178 505.358 50.8828C505.358 53.4328 504.398 54.9928 502.238 54.9928C500.273 54.9928 499.073 53.4328 499.073 50.8828ZM509.418 55.7878L510.408 56.3578L518.118 45.9928L517.173 45.3028L509.418 55.7878ZM507.798 48.1528C507.798 49.6528 508.983 50.7028 510.543 50.7028C512.088 50.7028 513.273 49.6528 513.273 48.1528C513.273 46.6378 512.088 45.5878 510.543 45.5878C508.983 45.5878 507.798 46.6378 507.798 48.1528ZM509.058 48.1528C509.058 47.2528 509.748 46.6678 510.543 46.6678C511.323 46.6678 512.013 47.2528 512.013 48.1528C512.013 49.0528 511.323 49.6378 510.543 49.6378C509.778 49.6378 509.058 49.0528 509.058 48.1528ZM514.233 53.6278C514.233 55.1278 515.418 56.1928 516.978 56.1928C518.523 56.1928 519.708 55.1278 519.708 53.6278C519.708 52.1278 518.523 51.0778 516.978 51.0778C515.418 51.0778 514.233 52.1278 514.233 53.6278ZM515.493 53.6278C515.493 52.7278 516.183 52.1428 516.978 52.1428C517.758 52.1428 518.448 52.7278 518.448 53.6278C518.448 54.5278 517.758 55.1128 516.978 55.1128C516.213 55.1128 515.493 54.5278 515.493 53.6278Z" fill="#777F8C"/>
<path d="M496.63 231.033H490.165V230.073L496.78 222.633H497.89V229.758H499.84V231.033H497.89V233.133H496.63V231.033ZM496.63 229.758V224.733L491.965 229.758H496.63ZM500.573 227.883C500.573 227.103 500.663 226.388 500.843 225.738C501.023 225.078 501.293 224.508 501.653 224.028C502.023 223.548 502.488 223.173 503.048 222.903C503.608 222.633 504.268 222.498 505.028 222.498C505.788 222.498 506.448 222.623 507.008 222.873C507.568 223.123 508.033 223.483 508.403 223.953C508.773 224.423 509.048 224.993 509.228 225.663C509.408 226.323 509.498 227.063 509.498 227.883C509.498 228.663 509.408 229.383 509.228 230.043C509.058 230.693 508.788 231.258 508.418 231.738C508.058 232.218 507.598 232.593 507.038 232.863C506.478 233.133 505.818 233.268 505.058 233.268C504.338 233.268 503.698 233.133 503.138 232.863C502.578 232.593 502.108 232.218 501.728 231.738C501.348 231.258 501.058 230.693 500.858 230.043C500.668 229.383 500.573 228.663 500.573 227.883ZM501.893 227.883C501.893 229.163 502.173 230.168 502.733 230.898C503.293 231.628 504.068 231.993 505.058 231.993C506.138 231.993 506.928 231.628 507.428 230.898C507.928 230.168 508.178 229.163 508.178 227.883C508.178 226.603 507.923 225.598 507.413 224.868C506.903 224.138 506.108 223.773 505.028 223.773C504.488 223.773 504.023 223.868 503.633 224.058C503.243 224.248 502.918 224.523 502.658 224.883C502.398 225.243 502.203 225.678 502.073 226.188C501.953 226.688 501.893 227.253 501.893 227.883ZM519.993 222.303L520.938 222.993L513.228 233.358L512.238 232.788L519.993 222.303ZM510.618 225.153C510.618 224.773 510.688 224.428 510.828 224.118C510.968 223.798 511.158 223.528 511.398 223.308C511.648 223.078 511.938 222.903 512.268 222.783C512.608 222.653 512.973 222.588 513.363 222.588C513.753 222.588 514.113 222.653 514.443 222.783C514.773 222.903 515.058 223.078 515.298 223.308C515.548 223.528 515.743 223.798 515.883 224.118C516.023 224.428 516.093 224.773 516.093 225.153C516.093 225.533 516.023 225.878 515.883 226.188C515.743 226.498 515.548 226.768 515.298 226.998C515.058 227.218 514.773 227.393 514.443 227.523C514.113 227.643 513.753 227.703 513.363 227.703C512.973 227.703 512.608 227.643 512.268 227.523C511.938 227.393 511.648 227.218 511.398 226.998C511.158 226.768 510.968 226.498 510.828 226.188C510.688 225.878 510.618 225.533 510.618 225.153ZM511.878 225.153C511.878 225.383 511.918 225.588 511.998 225.768C512.088 225.948 512.198 226.103 512.328 226.233C512.468 226.363 512.628 226.463 512.808 226.533C512.988 226.603 513.173 226.638 513.363 226.638C513.753 226.638 514.093 226.503 514.383 226.233C514.683 225.963 514.833 225.603 514.833 225.153C514.833 224.703 514.683 224.343 514.383 224.073C514.093 223.803 513.753 223.668 513.363 223.668C512.963 223.668 512.613 223.803 512.313 224.073C512.023 224.343 511.878 224.703 511.878 225.153ZM517.053 230.628C517.053 230.258 517.123 229.918 517.263 229.608C517.403 229.288 517.593 229.018 517.833 228.798C518.083 228.568 518.373 228.393 518.703 228.273C519.043 228.143 519.408 228.078 519.798 228.078C520.188 228.078 520.548 228.143 520.878 228.273C521.208 228.393 521.493 228.568 521.733 228.798C521.983 229.018 522.178 229.288 522.318 229.608C522.458 229.918 522.528 230.258 522.528 230.628C522.528 231.008 522.458 231.353 522.318 231.663C522.178 231.973 521.983 232.243 521.733 232.473C521.493 232.703 521.208 232.883 520.878 233.013C520.548 233.133 520.188 233.193 519.798 233.193C519.408 233.193 519.043 233.133 518.703 233.013C518.373 232.883 518.083 232.703 517.833 232.473C517.593 232.243 517.403 231.973 517.263 231.663C517.123 231.353 517.053 231.008 517.053 230.628ZM518.313 230.628C518.313 230.858 518.353 231.063 518.433 231.243C518.523 231.423 518.633 231.578 518.763 231.708C518.903 231.838 519.063 231.938 519.243 232.008C519.423 232.078 519.608 232.113 519.798 232.113C520.188 232.113 520.528 231.978 520.818 231.708C521.118 231.438 521.268 231.078 521.268 230.628C521.268 230.178 521.118 229.818 520.818 229.548C520.528 229.278 520.188 229.143 519.798 229.143C519.398 229.143 519.048 229.278 518.748 229.548C518.458 229.818 518.313 230.178 518.313 230.628Z" fill="#777F8C"/>
<path d="M206.555 48.1828C206.695 47.7928 206.885 47.4378 207.125 47.1178C207.365 46.7878 207.655 46.5028 207.995 46.2628C208.345 46.0228 208.745 45.8378 209.195 45.7078C209.655 45.5678 210.17 45.4978 210.74 45.4978C211.25 45.4978 211.72 45.5628 212.15 45.6928C212.59 45.8128 212.965 45.9878 213.275 46.2178C213.595 46.4378 213.84 46.7128 214.01 47.0428C214.19 47.3728 214.28 47.7378 214.28 48.1378C214.28 48.7478 214.12 49.2678 213.8 49.6978C213.49 50.1278 213.035 50.4278 212.435 50.5978C212.695 50.6178 212.95 50.6828 213.2 50.7928C213.45 50.8928 213.67 51.0478 213.86 51.2578C214.06 51.4578 214.22 51.7128 214.34 52.0228C214.46 52.3228 214.52 52.6828 214.52 53.1028C214.52 53.6128 214.42 54.0678 214.22 54.4678C214.03 54.8578 213.76 55.1878 213.41 55.4578C213.07 55.7178 212.665 55.9178 212.195 56.0578C211.725 56.1978 211.22 56.2678 210.68 56.2678C210.09 56.2678 209.55 56.1978 209.06 56.0578C208.58 55.9178 208.155 55.7278 207.785 55.4878C207.415 55.2378 207.1 54.9428 206.84 54.6028C206.59 54.2528 206.4 53.8678 206.27 53.4478L207.485 52.9228C207.615 53.1928 207.77 53.4528 207.95 53.7028C208.13 53.9528 208.35 54.1728 208.61 54.3628C208.87 54.5528 209.175 54.7078 209.525 54.8278C209.875 54.9378 210.29 54.9928 210.77 54.9928C211.52 54.9928 212.11 54.8328 212.54 54.5128C212.98 54.1828 213.2 53.7178 213.2 53.1178C213.2 52.7878 213.13 52.5128 212.99 52.2928C212.85 52.0628 212.655 51.8828 212.405 51.7528C212.155 51.6128 211.86 51.5178 211.52 51.4678C211.19 51.4078 210.83 51.3778 210.44 51.3778H209.27V50.1328H210.2C211.07 50.1328 211.745 49.9678 212.225 49.6378C212.715 49.3078 212.96 48.8928 212.96 48.3928C212.96 47.8528 212.755 47.4478 212.345 47.1778C211.935 46.9078 211.38 46.7728 210.68 46.7728C210.25 46.7728 209.87 46.8278 209.54 46.9378C209.21 47.0478 208.92 47.1928 208.67 47.3728C208.43 47.5528 208.225 47.7578 208.055 47.9878C207.895 48.2178 207.77 48.4528 207.68 48.6928L206.555 48.1828ZM215.753 50.8828C215.753 50.1028 215.843 49.3878 216.023 48.7378C216.203 48.0778 216.473 47.5078 216.833 47.0278C217.203 46.5478 217.668 46.1728 218.228 45.9028C218.788 45.6328 219.448 45.4978 220.208 45.4978C220.968 45.4978 221.628 45.6228 222.188 45.8728C222.748 46.1228 223.213 46.4828 223.583 46.9528C223.953 47.4228 224.228 47.9928 224.408 48.6628C224.588 49.3228 224.678 50.0628 224.678 50.8828C224.678 51.6628 224.588 52.3828 224.408 53.0428C224.238 53.6928 223.968 54.2578 223.598 54.7378C223.238 55.2178 222.778 55.5928 222.218 55.8628C221.658 56.1328 220.998 56.2678 220.238 56.2678C219.518 56.2678 218.878 56.1328 218.318 55.8628C217.758 55.5928 217.288 55.2178 216.908 54.7378C216.528 54.2578 216.238 53.6928 216.038 53.0428C215.848 52.3828 215.753 51.6628 215.753 50.8828ZM217.073 50.8828C217.073 52.1628 217.353 53.1678 217.913 53.8978C218.473 54.6278 219.248 54.9928 220.238 54.9928C221.318 54.9928 222.108 54.6278 222.608 53.8978C223.108 53.1678 223.358 52.1628 223.358 50.8828C223.358 49.6028 223.103 48.5978 222.593 47.8678C222.083 47.1378 221.288 46.7728 220.208 46.7728C219.668 46.7728 219.203 46.8678 218.813 47.0578C218.423 47.2478 218.098 47.5228 217.838 47.8828C217.578 48.2428 217.383 48.6778 217.253 49.1878C217.133 49.6878 217.073 50.2528 217.073 50.8828ZM235.173 45.3028L236.118 45.9928L228.408 56.3578L227.418 55.7878L235.173 45.3028ZM225.798 48.1528C225.798 47.7728 225.868 47.4278 226.008 47.1178C226.148 46.7978 226.338 46.5278 226.578 46.3078C226.828 46.0778 227.118 45.9028 227.448 45.7828C227.788 45.6528 228.153 45.5878 228.543 45.5878C228.933 45.5878 229.293 45.6528 229.623 45.7828C229.953 45.9028 230.238 46.0778 230.478 46.3078C230.728 46.5278 230.923 46.7978 231.063 47.1178C231.203 47.4278 231.273 47.7728 231.273 48.1528C231.273 48.5328 231.203 48.8778 231.063 49.1878C230.923 49.4978 230.728 49.7678 230.478 49.9978C230.238 50.2178 229.953 50.3928 229.623 50.5228C229.293 50.6428 228.933 50.7028 228.543 50.7028C228.153 50.7028 227.788 50.6428 227.448 50.5228C227.118 50.3928 226.828 50.2178 226.578 49.9978C226.338 49.7678 226.148 49.4978 226.008 49.1878C225.868 48.8778 225.798 48.5328 225.798 48.1528ZM227.058 48.1528C227.058 48.3828 227.098 48.5878 227.178 48.7678C227.268 48.9478 227.378 49.1028 227.508 49.2328C227.648 49.3628 227.808 49.4628 227.988 49.5328C228.168 49.6028 228.353 49.6378 228.543 49.6378C228.933 49.6378 229.273 49.5028 229.563 49.2328C229.863 48.9628 230.013 48.6028 230.013 48.1528C230.013 47.7028 229.863 47.3428 229.563 47.0728C229.273 46.8028 228.933 46.6678 228.543 46.6678C228.143 46.6678 227.793 46.8028 227.493 47.0728C227.203 47.3428 227.058 47.7028 227.058 48.1528ZM232.233 53.6278C232.233 53.2578 232.303 52.9178 232.443 52.6078C232.583 52.2878 232.773 52.0178 233.013 51.7978C233.263 51.5678 233.553 51.3928 233.883 51.2728C234.223 51.1428 234.588 51.0778 234.978 51.0778C235.368 51.0778 235.728 51.1428 236.058 51.2728C236.388 51.3928 236.673 51.5678 236.913 51.7978C237.163 52.0178 237.358 52.2878 237.498 52.6078C237.638 52.9178 237.708 53.2578 237.708 53.6278C237.708 54.0078 237.638 54.3528 237.498 54.6628C237.358 54.9728 237.163 55.2428 236.913 55.4728C236.673 55.7028 236.388 55.8828 236.058 56.0128C235.728 56.1328 235.368 56.1928 234.978 56.1928C234.588 56.1928 234.223 56.1328 233.883 56.0128C233.553 55.8828 233.263 55.7028 233.013 55.4728C232.773 55.2428 232.583 54.9728 232.443 54.6628C232.303 54.3528 232.233 54.0078 232.233 53.6278ZM233.493 53.6278C233.493 53.8578 233.533 54.0628 233.613 54.2428C233.703 54.4228 233.813 54.5778 233.943 54.7078C234.083 54.8378 234.243 54.9378 234.423 55.0078C234.603 55.0778 234.788 55.1128 234.978 55.1128C235.368 55.1128 235.708 54.9778 235.998 54.7078C236.298 54.4378 236.448 54.0778 236.448 53.6278C236.448 53.1778 236.298 52.8178 235.998 52.5478C235.708 52.2778 235.368 52.1428 234.978 52.1428C234.578 52.1428 234.228 52.2778 233.928 52.5478C233.638 52.8178 233.493 53.1778 233.493 53.6278Z" fill="#777F8C"/>
</svg>
