<svg width="537" height="274" viewBox="0 0 537 274" fill="none" xmlns="http://www.w3.org/2000/svg">
<circle cx="7.5" cy="7.5" r="7.5" fill="#BFCED4"/>
<path d="M32.67 2.9V4.005L27.353 4.005L27.353 6.618L30.057 6.618C32.228 6.618 33.346 7.554 33.346 9.218C33.346 11.142 31.955 12 29.706 12L26.17 12L26.17 2.9L32.67 2.9ZM29.875 7.723L27.353 7.723L27.353 10.895L29.797 10.895C31.305 10.895 32.111 10.388 32.111 9.231C32.111 8.23 31.422 7.723 29.875 7.723ZM35.3173 7.333L34.3293 6.969C34.7583 5.786 35.8373 5.123 37.2933 5.123C39.1263 5.123 40.0493 6.085 40.0493 8.009L40.0493 12L38.9573 12L38.9573 10.83C38.6063 11.558 37.5663 12.117 36.4743 12.117C35.0703 12.117 34.1213 11.311 34.1213 10.102C34.1213 8.555 35.4603 7.97 38.9573 7.97C38.9573 6.722 38.4243 6.15 37.2673 6.15C36.2533 6.15 35.5903 6.553 35.3173 7.333ZM36.6953 11.09C38.0213 11.09 38.9573 10.271 38.9573 9.114V8.867C36.1753 8.867 35.2653 9.179 35.2653 10.102C35.2653 10.713 35.8113 11.09 36.6953 11.09ZM44.1242 12.117C42.4082 12.117 41.4202 11.506 41.0822 10.271L42.0702 9.907C42.3042 10.726 42.9282 11.09 44.0852 11.09C45.3072 11.09 45.9442 10.726 45.9442 10.037C45.9442 9.348 45.3852 9.075 44.2932 9.075L43.2532 9.075V8.048H44.0072C45.2552 8.048 45.6972 7.697 45.6972 7.086C45.6972 6.488 45.1252 6.15 44.0982 6.15C42.9412 6.15 42.3042 6.618 42.0702 7.333L41.0822 6.969C41.4202 5.877 42.5122 5.123 44.2022 5.123C45.8012 5.123 46.8412 5.825 46.8412 6.917C46.8412 7.645 46.4382 8.165 45.6842 8.412C46.5292 8.542 47.0882 9.14 47.0882 9.92C47.0882 11.337 46.0352 12.117 44.1242 12.117ZM47.9984 8.607C47.9984 6.592 49.4544 5.123 51.5864 5.123C53.6924 5.123 55.1744 6.592 55.1744 8.607C55.1744 10.648 53.7054 12.117 51.5734 12.117C49.4934 12.117 47.9984 10.648 47.9984 8.607ZM49.1424 8.607C49.1424 10.063 50.1434 11.09 51.5734 11.09C53.0294 11.09 54.0304 10.076 54.0304 8.607C54.0304 7.151 52.9774 6.15 51.5734 6.15C50.1694 6.15 49.1424 7.138 49.1424 8.607ZM56.4971 12L56.4971 5.24L59.3051 5.24C61.1641 5.24 62.0741 5.682 62.0741 6.969C62.0741 7.632 61.6451 8.23 60.9431 8.438C61.8401 8.633 62.2951 9.244 62.2951 10.063C62.2951 11.324 61.2941 12 59.5131 12L56.4971 12ZM59.5261 9.062L57.5891 9.062L57.5891 10.973L59.3961 10.973C60.5531 10.973 61.1511 10.687 61.1511 10.024C61.1511 9.335 60.6311 9.062 59.5261 9.062ZM59.2661 6.267L57.5891 6.267V8.035L59.6431 8.035C60.4491 8.035 60.9301 7.723 60.9301 7.112C60.9301 6.397 60.2411 6.267 59.2661 6.267ZM70.0069 12L70.0069 5.24L71.0989 5.24L71.0989 12L70.0069 12ZM63.7019 12L63.7019 5.24L64.7939 5.24L64.7939 7.346L66.2499 7.346C68.3819 7.346 69.0319 8.412 69.0319 9.66C69.0319 10.869 68.2909 12 66.1459 12L63.7019 12ZM66.1329 8.373L64.7939 8.373L64.7939 10.973L66.1199 10.973C67.4329 10.973 67.8879 10.505 67.8879 9.673C67.8879 8.841 67.4069 8.373 66.1329 8.373ZM73.8876 12L72.9126 12L72.9126 5.24L74.0046 5.24L74.0046 10.31L78.1516 5.24L79.1266 5.24L79.1266 12L78.0346 12L78.0346 6.943L73.8876 12ZM73.8616 2.445L74.8756 2.445C74.8756 3.069 75.2916 3.485 76.0196 3.485C76.7476 3.485 77.1636 3.069 77.1636 2.445L78.1776 2.445C78.1776 3.641 77.2416 4.382 76.0196 4.382C74.7976 4.382 73.8616 3.641 73.8616 2.445ZM83.8322 8.607C83.8322 6.592 85.2882 5.123 87.4202 5.123C89.5262 5.123 91.0082 6.592 91.0082 8.607C91.0082 10.648 89.5392 12.117 87.4072 12.117C85.3272 12.117 83.8322 10.648 83.8322 8.607ZM84.9762 8.607C84.9762 10.063 85.9772 11.09 87.4072 11.09C88.8632 11.09 89.8642 10.076 89.8642 8.607C89.8642 7.151 88.8112 6.15 87.4072 6.15C86.0032 6.15 84.9762 7.138 84.9762 8.607ZM92.3309 12V5.24L93.4229 5.24V8.269L96.7769 5.24L98.3109 5.24L94.8139 8.347L98.4799 12L96.9459 12L93.9819 9.023L93.4229 9.543V12L92.3309 12ZM104.229 12V6.267L101.317 6.267V6.67C101.317 10.362 100.589 12.117 99.016 12.117C98.886 12.117 98.769 12.104 98.678 12.091V11.038C98.743 11.051 98.847 11.051 98.938 11.051C99.835 11.051 100.277 9.777 100.277 6.67V5.24L105.321 5.24V12L104.229 12ZM107.823 7.333L106.835 6.969C107.264 5.786 108.343 5.123 109.799 5.123C111.632 5.123 112.555 6.085 112.555 8.009V12L111.463 12V10.83C111.112 11.558 110.072 12.117 108.98 12.117C107.576 12.117 106.627 11.311 106.627 10.102C106.627 8.555 107.966 7.97 111.463 7.97C111.463 6.722 110.93 6.15 109.773 6.15C108.759 6.15 108.096 6.553 107.823 7.333ZM109.201 11.09C110.527 11.09 111.463 10.271 111.463 9.114V8.867C108.681 8.867 107.771 9.179 107.771 10.102C107.771 10.713 108.317 11.09 109.201 11.09ZM113.315 13.638L113.315 10.973L114.069 10.973C114.719 9.92 115.018 8.49 115.018 6.54V5.24L119.984 5.24V10.973L120.959 10.973L120.959 13.638L119.919 13.638L119.919 12L114.355 12L114.355 13.638L113.315 13.638ZM116.058 6.267V6.67C116.058 8.373 115.772 9.894 115.252 10.973L118.892 10.973V6.267L116.058 6.267Z" fill="#777F8C"/>
<circle cx="7.5" cy="37.5" r="7.5" fill="#003E14"/>
<path d="M25.052 43.664L25.052 40.895H26.014C26.833 39.478 27.223 37.268 27.223 34.46L27.223 32.9L33.372 32.9L33.372 40.895H34.516V43.664H33.385V42L26.183 42L26.183 43.664H25.052ZM28.354 34.005V34.59C28.354 37.086 27.951 39.4 27.288 40.895L32.189 40.895L32.189 34.005L28.354 34.005ZM34.9344 38.607C34.9344 36.592 36.3904 35.123 38.5224 35.123C40.6284 35.123 42.1104 36.592 42.1104 38.607C42.1104 40.648 40.6414 42.117 38.5094 42.117C36.4294 42.117 34.9344 40.648 34.9344 38.607ZM36.0784 38.607C36.0784 40.063 37.0794 41.09 38.5094 41.09C39.9654 41.09 40.9664 40.076 40.9664 38.607C40.9664 37.151 39.9134 36.15 38.5094 36.15C37.1054 36.15 36.0784 37.138 36.0784 38.607ZM47.9487 42L47.9487 36.267L45.0367 36.267V36.67C45.0367 40.362 44.3087 42.117 42.7357 42.117C42.6057 42.117 42.4887 42.104 42.3977 42.091L42.3977 41.038C42.4627 41.051 42.5667 41.051 42.6577 41.051C43.5547 41.051 43.9967 39.777 43.9967 36.67V35.24L49.0407 35.24L49.0407 42H47.9487ZM50.8664 42L50.8664 35.24L55.6894 35.24V36.267L51.9584 36.267L51.9584 42H50.8664ZM55.9777 38.607C55.9777 36.592 57.4337 35.123 59.5657 35.123C61.6717 35.123 63.1537 36.592 63.1537 38.607C63.1537 40.648 61.6847 42.117 59.5527 42.117C57.4727 42.117 55.9777 40.648 55.9777 38.607ZM57.1217 38.607C57.1217 40.063 58.1227 41.09 59.5527 41.09C61.0087 41.09 62.0097 40.076 62.0097 38.607C62.0097 37.151 60.9567 36.15 59.5527 36.15C58.1487 36.15 57.1217 37.138 57.1217 38.607ZM69.6373 39.907L70.6253 40.271C70.0793 41.467 69.0003 42.117 67.5573 42.117C65.4773 42.117 63.9823 40.648 63.9823 38.607C63.9823 36.566 65.4643 35.123 67.5573 35.123C69.0133 35.123 70.1053 35.786 70.6513 36.969L69.6633 37.333C69.1953 36.566 68.4673 36.15 67.5573 36.15C66.1273 36.15 65.1263 37.164 65.1263 38.607C65.1263 40.063 66.1273 41.09 67.5573 41.09C68.4933 41.09 69.1433 40.713 69.6373 39.907ZM75.3955 42.117C74.1735 42.117 73.4065 41.688 72.9255 40.973V44.6L71.8335 44.6L71.8335 35.24L72.9255 35.24L72.9255 36.449C73.3805 35.656 74.2385 35.123 75.4865 35.123C77.3325 35.123 78.7495 36.436 78.7495 38.568C78.7495 40.674 77.3715 42.117 75.3955 42.117ZM75.3045 41.09C76.6825 41.09 77.6055 40.115 77.6055 38.594C77.6055 37.086 76.6305 36.15 75.2655 36.15C73.8355 36.15 72.9255 37.047 72.9255 38.516V38.763C72.9255 40.336 73.9915 41.09 75.3045 41.09ZM79.5854 38.607C79.5854 36.592 81.0414 35.123 83.1734 35.123C85.2794 35.123 86.7614 36.592 86.7614 38.607C86.7614 40.648 85.2924 42.117 83.1604 42.117C81.0804 42.117 79.5854 40.648 79.5854 38.607ZM80.7294 38.607C80.7294 40.063 81.7304 41.09 83.1604 41.09C84.6164 41.09 85.6174 40.076 85.6174 38.607C85.6174 37.151 84.5644 36.15 83.1604 36.15C81.7564 36.15 80.7294 37.138 80.7294 38.607ZM93.2478 35.24V42H92.1558V39.374C91.7528 39.634 91.0248 39.894 90.0888 39.894C88.3728 39.894 87.5538 39.023 87.5538 37.19L87.5538 35.24H88.6458L88.6458 37.06C88.6458 38.347 89.1008 38.867 90.2448 38.867C91.0898 38.867 91.7788 38.62 92.1558 38.321V35.24H93.2478ZM100.13 42V39.075L96.1651 39.075V42H95.0731V35.24H96.1651V38.048L100.13 38.048V35.24H101.222V42H100.13ZM103.716 37.333L102.728 36.969C103.157 35.786 104.236 35.123 105.692 35.123C107.525 35.123 108.448 36.085 108.448 38.009V42H107.356V40.83C107.005 41.558 105.965 42.117 104.873 42.117C103.469 42.117 102.52 41.311 102.52 40.102C102.52 38.555 103.859 37.97 107.356 37.97C107.356 36.722 106.823 36.15 105.666 36.15C104.652 36.15 103.989 36.553 103.716 37.333ZM105.094 41.09C106.42 41.09 107.356 40.271 107.356 39.114V38.867C104.574 38.867 103.664 39.179 103.664 40.102C103.664 40.713 104.21 41.09 105.094 41.09ZM112.743 35.24L115.46 35.24V42H114.368V39.608L112.717 39.608L110.715 42L109.389 42L111.547 39.439C110.507 39.27 109.818 38.451 109.818 37.411C109.818 36.254 110.559 35.24 112.743 35.24ZM110.962 37.437C110.962 38.113 111.573 38.581 112.587 38.581L114.368 38.581V36.267L112.613 36.267C111.417 36.267 110.962 36.748 110.962 37.437ZM30.954 57L30.954 51.267L27.132 51.267L27.132 57H26.04L26.04 50.24L32.046 50.24L32.046 57H30.954ZM37.4289 57.117C36.2069 57.117 35.4399 56.688 34.9589 55.973L34.9589 59.6H33.8669L33.8669 50.24H34.9589V51.449C35.4139 50.656 36.2719 50.123 37.5199 50.123C39.3659 50.123 40.7829 51.436 40.7829 53.568C40.7829 55.674 39.4049 57.117 37.4289 57.117ZM37.3379 56.09C38.7159 56.09 39.6389 55.115 39.6389 53.594C39.6389 52.086 38.6639 51.15 37.2989 51.15C35.8689 51.15 34.9589 52.047 34.9589 53.516V53.763C34.9589 55.336 36.0249 56.09 37.3379 56.09ZM41.6188 53.607C41.6188 51.592 43.0748 50.123 45.2068 50.123C47.3128 50.123 48.7948 51.592 48.7948 53.607C48.7948 55.648 47.3258 57.117 45.1938 57.117C43.1138 57.117 41.6188 55.648 41.6188 53.607ZM42.7628 53.607C42.7628 55.063 43.7638 56.09 45.1938 56.09C46.6498 56.09 47.6508 55.076 47.6508 53.607C47.6508 52.151 46.5978 51.15 45.1938 51.15C43.7898 51.15 42.7628 52.138 42.7628 53.607ZM50.1174 57L50.1174 50.24L54.9404 50.24V51.267L51.2094 51.267L51.2094 57H50.1174ZM59.5386 57.117C58.3166 57.117 57.5496 56.688 57.0686 55.973L57.0686 59.6H55.9766L55.9766 50.24H57.0686V51.449C57.5236 50.656 58.3816 50.123 59.6296 50.123C61.4756 50.123 62.8926 51.436 62.8926 53.568C62.8926 55.674 61.5146 57.117 59.5386 57.117ZM59.4476 56.09C60.8256 56.09 61.7486 55.115 61.7486 53.594C61.7486 52.086 60.7736 51.15 59.4086 51.15C57.9786 51.15 57.0686 52.047 57.0686 53.516V53.763C57.0686 55.336 58.1346 56.09 59.4476 56.09ZM64.8984 52.333L63.9104 51.969C64.3394 50.786 65.4184 50.123 66.8744 50.123C68.7074 50.123 69.6304 51.085 69.6304 53.009L69.6304 57L68.5384 57L68.5384 55.83C68.1874 56.558 67.1474 57.117 66.0554 57.117C64.6514 57.117 63.7024 56.311 63.7024 55.102C63.7024 53.555 65.0414 52.97 68.5384 52.97C68.5384 51.722 68.0054 51.15 66.8484 51.15C65.8344 51.15 65.1714 51.553 64.8984 52.333ZM66.2764 56.09C67.6024 56.09 68.5384 55.271 68.5384 54.114V53.867C65.7564 53.867 64.8464 54.179 64.8464 55.102C64.8464 55.713 65.3924 56.09 66.2764 56.09ZM71.3003 57L71.3003 50.24L72.9903 50.24L74.9273 55.401L76.7993 50.24L78.4243 50.24L78.4243 57L77.3323 57L77.3323 51.514L75.2653 57H74.5373L72.3923 51.514L72.3923 57L71.3003 57ZM80.2444 57L80.2444 50.24H81.9344L83.8714 55.401L85.7434 50.24L87.3684 50.24L87.3684 57H86.2764L86.2764 51.514L84.2094 57H83.4814L81.3364 51.514L81.3364 57H80.2444ZM89.8645 52.333L88.8765 51.969C89.3055 50.786 90.3845 50.123 91.8405 50.123C93.6735 50.123 94.5965 51.085 94.5965 53.009V57L93.5045 57V55.83C93.1535 56.558 92.1135 57.117 91.0215 57.117C89.6175 57.117 88.6685 56.311 88.6685 55.102C88.6685 53.555 90.0075 52.97 93.5045 52.97C93.5045 51.722 92.9715 51.15 91.8145 51.15C90.8005 51.15 90.1375 51.553 89.8645 52.333ZM91.2425 56.09C92.5685 56.09 93.5045 55.271 93.5045 54.114V53.867C90.7225 53.867 89.8125 54.179 89.8125 55.102C89.8125 55.713 90.3585 56.09 91.2425 56.09ZM30.954 72L30.954 66.267H27.132L27.132 72H26.04L26.04 65.24L32.046 65.24L32.046 72L30.954 72ZM37.4289 72.117C36.2069 72.117 35.4399 71.688 34.9589 70.973L34.9589 74.6H33.8669L33.8669 65.24H34.9589L34.9589 66.449C35.4139 65.656 36.2719 65.123 37.5199 65.123C39.3659 65.123 40.7829 66.436 40.7829 68.568C40.7829 70.674 39.4049 72.117 37.4289 72.117ZM37.3379 71.09C38.7159 71.09 39.6389 70.115 39.6389 68.594C39.6389 67.086 38.6639 66.15 37.2989 66.15C35.8689 66.15 34.9589 67.047 34.9589 68.516V68.763C34.9589 70.336 36.0249 71.09 37.3379 71.09ZM45.1288 72.117C43.0618 72.117 41.6188 70.674 41.6188 68.607C41.6188 66.592 43.1138 65.084 45.1288 65.084C47.1308 65.084 48.5088 66.436 48.5088 68.412C48.5088 68.607 48.4958 68.828 48.4828 68.997L42.7368 68.997C42.8018 70.206 43.8028 71.09 45.1288 71.09C46.1168 71.09 46.7408 70.739 47.2608 69.907L48.2488 70.271C47.7028 71.467 46.6238 72.117 45.1288 72.117ZM45.1288 66.111C43.9068 66.111 42.9318 66.878 42.7888 67.97H47.3908C47.3518 66.943 46.3508 66.111 45.1288 66.111ZM49.7746 72L49.7746 65.24H51.4646L53.4016 70.401L55.2736 65.24H56.8986L56.8986 72H55.8066L55.8066 66.514L53.7396 72H53.0116L50.8666 66.514L50.8666 72H49.7746ZM59.6937 72H58.7187L58.7187 65.24H59.8107L59.8107 70.31L63.9577 65.24L64.9327 65.24L64.9327 72L63.8407 72L63.8407 66.943L59.6937 72ZM70.3108 72.117C69.0888 72.117 68.3218 71.688 67.8408 70.973L67.8408 74.6H66.7488L66.7488 65.24H67.8408V66.449C68.2958 65.656 69.1538 65.123 70.4018 65.123C72.2478 65.123 73.6648 66.436 73.6648 68.568C73.6648 70.674 72.2868 72.117 70.3108 72.117ZM70.2198 71.09C71.5978 71.09 72.5208 70.115 72.5208 68.594C72.5208 67.086 71.5458 66.15 70.1808 66.15C68.7508 66.15 67.8408 67.047 67.8408 68.516V68.763C67.8408 70.336 68.9068 71.09 70.2198 71.09ZM74.5006 68.607C74.5006 66.592 75.9566 65.123 78.0886 65.123C80.1946 65.123 81.6766 66.592 81.6766 68.607C81.6766 70.648 80.2076 72.117 78.0756 72.117C75.9956 72.117 74.5006 70.648 74.5006 68.607ZM75.6446 68.607C75.6446 70.063 76.6456 71.09 78.0756 71.09C79.5316 71.09 80.5326 70.076 80.5326 68.607C80.5326 67.151 79.4796 66.15 78.0756 66.15C76.6716 66.15 75.6446 67.138 75.6446 68.607ZM82.9993 72L82.9993 65.24L85.8073 65.24C87.6663 65.24 88.5763 65.682 88.5763 66.969C88.5763 67.632 88.1473 68.23 87.4453 68.438C88.3423 68.633 88.7973 69.244 88.7973 70.063C88.7973 71.324 87.7963 72 86.0153 72L82.9993 72ZM86.0283 69.062L84.0913 69.062L84.0913 70.973L85.8983 70.973C87.0553 70.973 87.6533 70.687 87.6533 70.024C87.6533 69.335 87.1333 69.062 86.0283 69.062ZM85.7683 66.267L84.0913 66.267V68.035L86.1453 68.035C86.9513 68.035 87.4323 67.723 87.4323 67.112C87.4323 66.397 86.7433 66.267 85.7683 66.267ZM90.9309 67.333L89.9429 66.969C90.3719 65.786 91.4509 65.123 92.9069 65.123C94.7399 65.123 95.6629 66.085 95.6629 68.009V72H94.5709V70.83C94.2199 71.558 93.1799 72.117 92.0879 72.117C90.6839 72.117 89.7349 71.311 89.7349 70.102C89.7349 68.555 91.0739 67.97 94.5709 67.97C94.5709 66.722 94.0379 66.15 92.8809 66.15C91.8669 66.15 91.2039 66.553 90.9309 67.333ZM92.3089 71.09C93.6349 71.09 94.5709 70.271 94.5709 69.114V68.867C91.7889 68.867 90.8789 69.179 90.8789 70.102C90.8789 70.713 91.4249 71.09 92.3089 71.09ZM102.39 72V69.075L98.4248 69.075V72L97.3328 72L97.3328 65.24L98.4248 65.24L98.4248 68.048L102.39 68.048L102.39 65.24H103.482L103.482 72H102.39ZM106.274 72H105.299L105.299 65.24H106.391L106.391 70.31L110.538 65.24H111.513L111.513 72H110.421L110.421 66.943L106.274 72ZM115.955 65.24L118.672 65.24L118.672 72L117.58 72V69.608H115.929L113.927 72H112.601L114.759 69.439C113.719 69.27 113.03 68.451 113.03 67.411C113.03 66.254 113.771 65.24 115.955 65.24ZM114.174 67.437C114.174 68.113 114.785 68.581 115.799 68.581H117.58L117.58 66.267H115.825C114.629 66.267 114.174 66.748 114.174 67.437Z" fill="#777F8C"/>
<circle cx="7.5" cy="97.5" r="7.5" fill="#5FAF2D"/>
<path d="M26.17 102L26.17 92.9H27.353L27.353 97.294L31.955 92.9H33.502L29.212 97.021L33.814 102H32.254L28.328 97.801L27.353 98.737L27.353 102H26.17ZM38.2541 102.117C37.0321 102.117 36.2651 101.688 35.7841 100.973L35.7841 104.6H34.6921L34.6921 95.24H35.7841L35.7841 96.449C36.2391 95.656 37.0971 95.123 38.3451 95.123C40.1911 95.123 41.6081 96.436 41.6081 98.568C41.6081 100.674 40.2301 102.117 38.2541 102.117ZM38.1631 101.09C39.5411 101.09 40.4641 100.115 40.4641 98.594C40.4641 97.086 39.4891 96.15 38.1241 96.15C36.6941 96.15 35.7841 97.047 35.7841 98.516V98.763C35.7841 100.336 36.8501 101.09 38.1631 101.09ZM43.614 97.333L42.626 96.969C43.055 95.786 44.134 95.123 45.59 95.123C47.423 95.123 48.346 96.085 48.346 98.009L48.346 102H47.254L47.254 100.83C46.903 101.558 45.863 102.117 44.771 102.117C43.367 102.117 42.418 101.311 42.418 100.102C42.418 98.555 43.757 97.97 47.254 97.97C47.254 96.722 46.721 96.15 45.564 96.15C44.55 96.15 43.887 96.553 43.614 97.333ZM44.992 101.09C46.318 101.09 47.254 100.271 47.254 99.114V98.867C44.472 98.867 43.562 99.179 43.562 100.102C43.562 100.713 44.108 101.09 44.992 101.09ZM49.0439 96.267V95.24L55.0759 95.24V96.267L52.5929 96.267L52.5929 102H51.5009L51.5009 96.267H49.0439ZM56.0527 102L56.0527 95.24H57.1447L57.1447 98.269L60.4987 95.24H62.0327L58.5357 98.347L62.2017 102H60.6677L57.7037 99.023L57.1447 99.543L57.1447 102H56.0527ZM62.37 98.607C62.37 96.592 63.826 95.123 65.958 95.123C68.064 95.123 69.546 96.592 69.546 98.607C69.546 100.648 68.077 102.117 65.945 102.117C63.865 102.117 62.37 100.648 62.37 98.607ZM63.514 98.607C63.514 100.063 64.515 101.09 65.945 101.09C67.401 101.09 68.402 100.076 68.402 98.607C68.402 97.151 67.349 96.15 65.945 96.15C64.541 96.15 63.514 97.138 63.514 98.607ZM76.0297 99.907L77.0177 100.271C76.4717 101.467 75.3927 102.117 73.9497 102.117C71.8697 102.117 70.3747 100.648 70.3747 98.607C70.3747 96.566 71.8567 95.123 73.9497 95.123C75.4057 95.123 76.4977 95.786 77.0437 96.969L76.0557 97.333C75.5877 96.566 74.8597 96.15 73.9497 96.15C72.5197 96.15 71.5187 97.164 71.5187 98.607C71.5187 100.063 72.5197 101.09 73.9497 101.09C74.8857 101.09 75.5357 100.713 76.0297 99.907ZM81.7879 102.117C80.5659 102.117 79.7989 101.688 79.3179 100.973V104.6H78.2259L78.2259 95.24L79.3179 95.24L79.3179 96.449C79.7729 95.656 80.6309 95.123 81.8789 95.123C83.7249 95.123 85.1419 96.436 85.1419 98.568C85.1419 100.674 83.7639 102.117 81.7879 102.117ZM81.6969 101.09C83.0749 101.09 83.9979 100.115 83.9979 98.594C83.9979 97.086 83.0229 96.15 81.6579 96.15C80.2279 96.15 79.3179 97.047 79.3179 98.516V98.763C79.3179 100.336 80.3839 101.09 81.6969 101.09ZM85.9777 98.607C85.9777 96.592 87.4337 95.123 89.5657 95.123C91.6717 95.123 93.1537 96.592 93.1537 98.607C93.1537 100.648 91.6847 102.117 89.5527 102.117C87.4727 102.117 85.9777 100.648 85.9777 98.607ZM87.1217 98.607C87.1217 100.063 88.1227 101.09 89.5527 101.09C91.0087 101.09 92.0097 100.076 92.0097 98.607C92.0097 97.151 90.9567 96.15 89.5527 96.15C88.1487 96.15 87.1217 97.138 87.1217 98.607ZM99.6401 95.24V102H98.5481V99.374C98.1451 99.634 97.4171 99.894 96.4811 99.894C94.7651 99.894 93.9461 99.023 93.9461 97.19V95.24H95.0381V97.06C95.0381 98.347 95.4931 98.867 96.6371 98.867C97.4821 98.867 98.1711 98.62 98.5481 98.321V95.24H99.6401ZM106.522 102V99.075L102.557 99.075V102H101.465V95.24H102.557V98.048L106.522 98.048V95.24H107.614V102H106.522ZM110.108 97.333L109.12 96.969C109.549 95.786 110.628 95.123 112.084 95.123C113.917 95.123 114.84 96.085 114.84 98.009V102H113.748V100.83C113.397 101.558 112.357 102.117 111.265 102.117C109.861 102.117 108.912 101.311 108.912 100.102C108.912 98.555 110.251 97.97 113.748 97.97C113.748 96.722 113.215 96.15 112.058 96.15C111.044 96.15 110.381 96.553 110.108 97.333ZM111.486 101.09C112.812 101.09 113.748 100.271 113.748 99.114V98.867C110.966 98.867 110.056 99.179 110.056 100.102C110.056 100.713 110.602 101.09 111.486 101.09ZM119.136 95.24L121.853 95.24V102H120.761V99.608L119.11 99.608L117.108 102H115.782L117.94 99.439C116.9 99.27 116.211 98.451 116.211 97.411C116.211 96.254 116.952 95.24 119.136 95.24ZM117.355 97.437C117.355 98.113 117.966 98.581 118.98 98.581L120.761 98.581V96.267L119.006 96.267C117.81 96.267 117.355 96.748 117.355 97.437ZM30.954 117L30.954 111.267L27.132 111.267L27.132 117H26.04L26.04 110.24L32.046 110.24L32.046 117H30.954ZM37.4289 117.117C36.2069 117.117 35.4399 116.688 34.9589 115.973L34.9589 119.6H33.8669L33.8669 110.24H34.9589V111.449C35.4139 110.656 36.2719 110.123 37.5199 110.123C39.3659 110.123 40.7829 111.436 40.7829 113.568C40.7829 115.674 39.4049 117.117 37.4289 117.117ZM37.3379 116.09C38.7159 116.09 39.6389 115.115 39.6389 113.594C39.6389 112.086 38.6639 111.15 37.2989 111.15C35.8689 111.15 34.9589 112.047 34.9589 113.516V113.763C34.9589 115.336 36.0249 116.09 37.3379 116.09ZM41.6188 113.607C41.6188 111.592 43.0748 110.123 45.2068 110.123C47.3128 110.123 48.7948 111.592 48.7948 113.607C48.7948 115.648 47.3258 117.117 45.1938 117.117C43.1138 117.117 41.6188 115.648 41.6188 113.607ZM42.7628 113.607C42.7628 115.063 43.7638 116.09 45.1938 116.09C46.6498 116.09 47.6508 115.076 47.6508 113.607C47.6508 112.151 46.5978 111.15 45.1938 111.15C43.7898 111.15 42.7628 112.138 42.7628 113.607ZM50.1174 117L50.1174 110.24L54.9404 110.24V111.267L51.2094 111.267L51.2094 117H50.1174ZM59.5386 117.117C58.3166 117.117 57.5496 116.688 57.0686 115.973L57.0686 119.6H55.9766L55.9766 110.24H57.0686V111.449C57.5236 110.656 58.3816 110.123 59.6296 110.123C61.4756 110.123 62.8926 111.436 62.8926 113.568C62.8926 115.674 61.5146 117.117 59.5386 117.117ZM59.4476 116.09C60.8256 116.09 61.7486 115.115 61.7486 113.594C61.7486 112.086 60.7736 111.15 59.4086 111.15C57.9786 111.15 57.0686 112.047 57.0686 113.516V113.763C57.0686 115.336 58.1346 116.09 59.4476 116.09ZM64.8984 112.333L63.9104 111.969C64.3394 110.786 65.4184 110.123 66.8744 110.123C68.7074 110.123 69.6304 111.085 69.6304 113.009L69.6304 117L68.5384 117L68.5384 115.83C68.1874 116.558 67.1474 117.117 66.0554 117.117C64.6514 117.117 63.7024 116.311 63.7024 115.102C63.7024 113.555 65.0414 112.97 68.5384 112.97C68.5384 111.722 68.0054 111.15 66.8484 111.15C65.8344 111.15 65.1714 111.553 64.8984 112.333ZM66.2764 116.09C67.6024 116.09 68.5384 115.271 68.5384 114.114V113.867C65.7564 113.867 64.8464 114.179 64.8464 115.102C64.8464 115.713 65.3924 116.09 66.2764 116.09ZM71.3003 117L71.3003 110.24H72.9903L74.9273 115.401L76.7993 110.24H78.4243L78.4243 117H77.3323L77.3323 111.514L75.2653 117H74.5373L72.3923 111.514L72.3923 117H71.3003ZM80.2444 117L80.2444 110.24H81.9344L83.8714 115.401L85.7434 110.24L87.3684 110.24L87.3684 117H86.2764L86.2764 111.514L84.2094 117H83.4814L81.3364 111.514L81.3364 117H80.2444ZM89.8645 112.333L88.8765 111.969C89.3055 110.786 90.3845 110.123 91.8405 110.123C93.6735 110.123 94.5965 111.085 94.5965 113.009V117H93.5045V115.83C93.1535 116.558 92.1135 117.117 91.0215 117.117C89.6175 117.117 88.6685 116.311 88.6685 115.102C88.6685 113.555 90.0075 112.97 93.5045 112.97C93.5045 111.722 92.9715 111.15 91.8145 111.15C90.8005 111.15 90.1375 111.553 89.8645 112.333ZM91.2425 116.09C92.5685 116.09 93.5045 115.271 93.5045 114.114V113.867C90.7225 113.867 89.8125 114.179 89.8125 115.102C89.8125 115.713 90.3585 116.09 91.2425 116.09ZM30.954 132L30.954 126.267H27.132L27.132 132H26.04L26.04 125.24L32.046 125.24L32.046 132H30.954ZM37.4289 132.117C36.2069 132.117 35.4399 131.688 34.9589 130.973L34.9589 134.6H33.8669L33.8669 125.24H34.9589L34.9589 126.449C35.4139 125.656 36.2719 125.123 37.5199 125.123C39.3659 125.123 40.7829 126.436 40.7829 128.568C40.7829 130.674 39.4049 132.117 37.4289 132.117ZM37.3379 131.09C38.7159 131.09 39.6389 130.115 39.6389 128.594C39.6389 127.086 38.6639 126.15 37.2989 126.15C35.8689 126.15 34.9589 127.047 34.9589 128.516V128.763C34.9589 130.336 36.0249 131.09 37.3379 131.09ZM45.1288 132.117C43.0618 132.117 41.6188 130.674 41.6188 128.607C41.6188 126.592 43.1138 125.084 45.1288 125.084C47.1308 125.084 48.5088 126.436 48.5088 128.412C48.5088 128.607 48.4958 128.828 48.4828 128.997L42.7368 128.997C42.8018 130.206 43.8028 131.09 45.1288 131.09C46.1168 131.09 46.7408 130.739 47.2608 129.907L48.2488 130.271C47.7028 131.467 46.6238 132.117 45.1288 132.117ZM45.1288 126.111C43.9068 126.111 42.9318 126.878 42.7888 127.97H47.3908C47.3518 126.943 46.3508 126.111 45.1288 126.111ZM49.7746 132L49.7746 125.24H51.4646L53.4016 130.401L55.2736 125.24H56.8986L56.8986 132H55.8066L55.8066 126.514L53.7396 132H53.0116L50.8666 126.514L50.8666 132H49.7746ZM59.6937 132H58.7187L58.7187 125.24H59.8107L59.8107 130.31L63.9577 125.24L64.9327 125.24L64.9327 132H63.8407L63.8407 126.943L59.6937 132ZM70.3108 132.117C69.0888 132.117 68.3218 131.688 67.8408 130.973L67.8408 134.6H66.7488L66.7488 125.24H67.8408V126.449C68.2958 125.656 69.1538 125.123 70.4018 125.123C72.2478 125.123 73.6648 126.436 73.6648 128.568C73.6648 130.674 72.2868 132.117 70.3108 132.117ZM70.2198 131.09C71.5978 131.09 72.5208 130.115 72.5208 128.594C72.5208 127.086 71.5458 126.15 70.1808 126.15C68.7508 126.15 67.8408 127.047 67.8408 128.516V128.763C67.8408 130.336 68.9068 131.09 70.2198 131.09ZM74.5006 128.607C74.5006 126.592 75.9566 125.123 78.0886 125.123C80.1946 125.123 81.6766 126.592 81.6766 128.607C81.6766 130.648 80.2076 132.117 78.0756 132.117C75.9956 132.117 74.5006 130.648 74.5006 128.607ZM75.6446 128.607C75.6446 130.063 76.6456 131.09 78.0756 131.09C79.5316 131.09 80.5326 130.076 80.5326 128.607C80.5326 127.151 79.4796 126.15 78.0756 126.15C76.6716 126.15 75.6446 127.138 75.6446 128.607ZM82.9993 132L82.9993 125.24L85.8073 125.24C87.6663 125.24 88.5763 125.682 88.5763 126.969C88.5763 127.632 88.1473 128.23 87.4453 128.438C88.3423 128.633 88.7973 129.244 88.7973 130.063C88.7973 131.324 87.7963 132 86.0153 132H82.9993ZM86.0283 129.062H84.0913L84.0913 130.973H85.8983C87.0553 130.973 87.6533 130.687 87.6533 130.024C87.6533 129.335 87.1333 129.062 86.0283 129.062ZM85.7683 126.267L84.0913 126.267V128.035H86.1453C86.9513 128.035 87.4323 127.723 87.4323 127.112C87.4323 126.397 86.7433 126.267 85.7683 126.267ZM90.9309 127.333L89.9429 126.969C90.3719 125.786 91.4509 125.123 92.9069 125.123C94.7399 125.123 95.6629 126.085 95.6629 128.009V132H94.5709V130.83C94.2199 131.558 93.1799 132.117 92.0879 132.117C90.6839 132.117 89.7349 131.311 89.7349 130.102C89.7349 128.555 91.0739 127.97 94.5709 127.97C94.5709 126.722 94.0379 126.15 92.8809 126.15C91.8669 126.15 91.2039 126.553 90.9309 127.333ZM92.3089 131.09C93.6349 131.09 94.5709 130.271 94.5709 129.114V128.867C91.7889 128.867 90.8789 129.179 90.8789 130.102C90.8789 130.713 91.4249 131.09 92.3089 131.09ZM102.39 132V129.075L98.4248 129.075V132H97.3328L97.3328 125.24L98.4248 125.24L98.4248 128.048L102.39 128.048L102.39 125.24H103.482L103.482 132H102.39ZM106.274 132H105.299L105.299 125.24H106.391L106.391 130.31L110.538 125.24H111.513L111.513 132H110.421L110.421 126.943L106.274 132ZM115.955 125.24L118.672 125.24L118.672 132H117.58V129.608H115.929L113.927 132H112.601L114.759 129.439C113.719 129.27 113.03 128.451 113.03 127.411C113.03 126.254 113.771 125.24 115.955 125.24ZM114.174 127.437C114.174 128.113 114.785 128.581 115.799 128.581H117.58L117.58 126.267H115.825C114.629 126.267 114.174 126.748 114.174 127.437Z" fill="#777F8C"/>
<path d="M343.32 133.16C343.507 131.953 344.425 130.525 346.448 130.525C347.876 130.525 348.998 131.137 348.998 132.82C348.998 134.452 347.655 135.965 344.255 138.226L341.671 139.943V141.133H350.936V139.688H344.357L345.666 138.872C347.706 137.597 350.494 135.608 350.494 132.667C350.494 130.559 349.049 129.08 346.55 129.08C343.881 129.08 342.402 130.746 341.994 132.718L343.32 133.16ZM352.284 135.183C352.284 138.702 354.086 141.286 357.367 141.286C360.835 141.286 362.399 138.702 362.399 135.183C362.399 131.443 360.784 129.08 357.333 129.08C353.899 129.08 352.284 131.664 352.284 135.183ZM353.78 135.183C353.78 132.327 354.902 130.525 357.333 130.525C359.781 130.525 360.903 132.276 360.903 135.183C360.903 138.073 359.815 139.841 357.367 139.841C355.14 139.841 353.78 138.073 353.78 135.183ZM365.284 133.16C365.471 131.953 366.389 130.525 368.412 130.525C369.84 130.525 370.962 131.137 370.962 132.82C370.962 134.452 369.619 135.965 366.219 138.226L363.635 139.943V141.133H372.9V139.688H366.321L367.63 138.872C369.67 137.597 372.458 135.608 372.458 132.667C372.458 130.559 371.013 129.08 368.514 129.08C365.845 129.08 364.366 130.746 363.958 132.718L365.284 133.16ZM375.693 133.16C375.88 131.953 376.798 130.525 378.821 130.525C380.249 130.525 381.371 131.137 381.371 132.82C381.371 134.452 380.028 135.965 376.628 138.226L374.044 139.943V141.133H383.309V139.688H376.73L378.039 138.872C380.079 137.597 382.867 135.608 382.867 132.667C382.867 130.559 381.422 129.08 378.923 129.08C376.254 129.08 374.775 130.746 374.367 132.718L375.693 133.16Z" fill="#222429"/>
<path d="M362.809 0.00941916C384.604 -0.246461 406.145 4.71356 425.633 14.4756C445.121 24.2377 461.992 38.5188 474.839 56.1274C487.685 73.7359 496.134 94.1613 499.481 115.699C502.828 137.237 500.976 159.264 494.079 179.94L474.629 173.452C480.492 155.877 482.066 137.155 479.221 118.848C476.376 100.54 469.195 83.1788 458.275 68.2115C447.356 53.2442 433.015 41.1053 416.45 32.8076C399.885 24.5098 381.576 20.2938 363.05 20.5113L362.809 0.00941916Z" fill="#BFCED4"/>
<path d="M494.069 179.97C485.162 206.651 468.241 229.935 445.613 246.645C422.986 263.354 395.754 272.676 367.633 273.339C339.512 274.001 311.872 265.972 288.483 250.346C265.093 234.721 247.094 212.26 236.941 186.028L256.062 178.627C264.692 200.924 279.991 220.016 299.872 233.298C319.753 246.58 343.248 253.404 367.15 252.841C391.053 252.278 414.2 244.355 433.433 230.151C452.667 215.948 467.05 196.157 474.621 173.478L494.069 179.97Z" fill="#003E14"/>
<path d="M236.949 186.048C228.975 165.457 226.109 143.241 228.595 121.3C231.08 99.3597 238.845 78.3479 251.223 60.0627C263.601 41.7775 280.225 26.7633 299.672 16.3048C319.119 5.84622 340.811 0.254647 362.89 0.00849353L363.119 20.5105C344.351 20.7197 325.913 25.4725 309.383 34.3623C292.853 43.2521 278.723 56.0142 268.202 71.5566C257.68 87.099 251.08 104.959 248.967 123.609C246.854 142.258 249.291 161.142 256.069 178.644L236.949 186.048Z" fill="#5FAF2D"/>
<path d="M489.68 48.6928L488.555 48.1828C489.11 46.6378 490.46 45.4978 492.74 45.4978C494.795 45.4978 496.28 46.5178 496.28 48.1378C496.28 49.3528 495.635 50.2528 494.435 50.5978C495.47 50.6728 496.52 51.4228 496.52 53.1028C496.52 55.1428 494.855 56.2678 492.68 56.2678C490.325 56.2678 488.78 55.1128 488.27 53.4478L489.485 52.9228C490.01 54.0178 490.865 54.9928 492.77 54.9928C494.27 54.9928 495.2 54.3178 495.2 53.1178C495.2 51.7828 494 51.3778 492.44 51.3778H491.27V50.1328H492.2C493.925 50.1328 494.96 49.3828 494.96 48.3928C494.96 47.3278 494.075 46.7728 492.68 46.7728C490.97 46.7728 490.04 47.7328 489.68 48.6928ZM497.753 50.8828C497.753 47.7778 499.178 45.4978 502.208 45.4978C505.253 45.4978 506.678 47.5828 506.678 50.8828C506.678 53.9878 505.298 56.2678 502.238 56.2678C499.343 56.2678 497.753 53.9878 497.753 50.8828ZM499.073 50.8828C499.073 53.4328 500.273 54.9928 502.238 54.9928C504.398 54.9928 505.358 53.4328 505.358 50.8828C505.358 48.3178 504.368 46.7728 502.208 46.7728C500.063 46.7728 499.073 48.3628 499.073 50.8828ZM509.418 55.7878L517.173 45.3028L518.118 45.9928L510.408 56.3578L509.418 55.7878ZM507.798 48.1528C507.798 46.6378 508.983 45.5878 510.543 45.5878C512.088 45.5878 513.273 46.6378 513.273 48.1528C513.273 49.6528 512.088 50.7028 510.543 50.7028C508.983 50.7028 507.798 49.6528 507.798 48.1528ZM509.058 48.1528C509.058 49.0528 509.778 49.6378 510.543 49.6378C511.323 49.6378 512.013 49.0528 512.013 48.1528C512.013 47.2528 511.323 46.6678 510.543 46.6678C509.748 46.6678 509.058 47.2528 509.058 48.1528ZM514.233 53.6278C514.233 52.1278 515.418 51.0778 516.978 51.0778C518.523 51.0778 519.708 52.1278 519.708 53.6278C519.708 55.1278 518.523 56.1928 516.978 56.1928C515.418 56.1928 514.233 55.1278 514.233 53.6278ZM515.493 53.6278C515.493 54.5278 516.213 55.1128 516.978 55.1128C517.758 55.1128 518.448 54.5278 518.448 53.6278C518.448 52.7278 517.758 52.1428 516.978 52.1428C516.183 52.1428 515.493 52.7278 515.493 53.6278Z" fill="#777F8C"/>
<path d="M496.63 233.133V231.033H490.165V230.073L496.78 222.633H497.89V229.758H499.84V231.033H497.89V233.133H496.63ZM491.965 229.758H496.63V224.733L491.965 229.758ZM500.573 227.883C500.573 224.778 501.998 222.498 505.028 222.498C508.073 222.498 509.498 224.583 509.498 227.883C509.498 230.988 508.118 233.268 505.058 233.268C502.163 233.268 500.573 230.988 500.573 227.883ZM501.893 227.883C501.893 230.433 503.093 231.993 505.058 231.993C507.218 231.993 508.178 230.433 508.178 227.883C508.178 225.318 507.188 223.773 505.028 223.773C502.883 223.773 501.893 225.363 501.893 227.883ZM512.238 232.788L519.993 222.303L520.938 222.993L513.228 233.358L512.238 232.788ZM510.618 225.153C510.618 223.638 511.803 222.588 513.363 222.588C514.908 222.588 516.093 223.638 516.093 225.153C516.093 226.653 514.908 227.703 513.363 227.703C511.803 227.703 510.618 226.653 510.618 225.153ZM511.878 225.153C511.878 226.053 512.598 226.638 513.363 226.638C514.143 226.638 514.833 226.053 514.833 225.153C514.833 224.253 514.143 223.668 513.363 223.668C512.568 223.668 511.878 224.253 511.878 225.153ZM517.053 230.628C517.053 229.128 518.238 228.078 519.798 228.078C521.343 228.078 522.528 229.128 522.528 230.628C522.528 232.128 521.343 233.193 519.798 233.193C518.238 233.193 517.053 232.128 517.053 230.628ZM518.313 230.628C518.313 231.528 519.033 232.113 519.798 232.113C520.578 232.113 521.268 231.528 521.268 230.628C521.268 229.728 520.578 229.143 519.798 229.143C519.003 229.143 518.313 229.728 518.313 230.628Z" fill="#777F8C"/>
<path d="M207.68 48.6928L206.555 48.1828C207.11 46.6378 208.46 45.4978 210.74 45.4978C212.795 45.4978 214.28 46.5178 214.28 48.1378C214.28 49.3528 213.635 50.2528 212.435 50.5978C213.47 50.6728 214.52 51.4228 214.52 53.1028C214.52 55.1428 212.855 56.2678 210.68 56.2678C208.325 56.2678 206.78 55.1128 206.27 53.4478L207.485 52.9228C208.01 54.0178 208.865 54.9928 210.77 54.9928C212.27 54.9928 213.2 54.3178 213.2 53.1178C213.2 51.7828 212 51.3778 210.44 51.3778H209.27V50.1328H210.2C211.925 50.1328 212.96 49.3828 212.96 48.3928C212.96 47.3278 212.075 46.7728 210.68 46.7728C208.97 46.7728 208.04 47.7328 207.68 48.6928ZM215.753 50.8828C215.753 47.7778 217.178 45.4978 220.208 45.4978C223.253 45.4978 224.678 47.5828 224.678 50.8828C224.678 53.9878 223.298 56.2678 220.238 56.2678C217.343 56.2678 215.753 53.9878 215.753 50.8828ZM217.073 50.8828C217.073 53.4328 218.273 54.9928 220.238 54.9928C222.398 54.9928 223.358 53.4328 223.358 50.8828C223.358 48.3178 222.368 46.7728 220.208 46.7728C218.063 46.7728 217.073 48.3628 217.073 50.8828ZM227.418 55.7878L235.173 45.3028L236.118 45.9928L228.408 56.3578L227.418 55.7878ZM225.798 48.1528C225.798 46.6378 226.983 45.5878 228.543 45.5878C230.088 45.5878 231.273 46.6378 231.273 48.1528C231.273 49.6528 230.088 50.7028 228.543 50.7028C226.983 50.7028 225.798 49.6528 225.798 48.1528ZM227.058 48.1528C227.058 49.0528 227.778 49.6378 228.543 49.6378C229.323 49.6378 230.013 49.0528 230.013 48.1528C230.013 47.2528 229.323 46.6678 228.543 46.6678C227.748 46.6678 227.058 47.2528 227.058 48.1528ZM232.233 53.6278C232.233 52.1278 233.418 51.0778 234.978 51.0778C236.523 51.0778 237.708 52.1278 237.708 53.6278C237.708 55.1278 236.523 56.1928 234.978 56.1928C233.418 56.1928 232.233 55.1278 232.233 53.6278ZM233.493 53.6278C233.493 54.5278 234.213 55.1128 234.978 55.1128C235.758 55.1128 236.448 54.5278 236.448 53.6278C236.448 52.7278 235.758 52.1428 234.978 52.1428C234.183 52.1428 233.493 52.7278 233.493 53.6278Z" fill="#777F8C"/>
</svg>
