<svg width="52" height="52" viewBox="0 0 52 52" fill="none" xmlns="http://www.w3.org/2000/svg">
<path d="M34.0878 18.3895C31.4775 17.7645 28.904 16.5145 27.029 14.9336L26.2937 14.3086L25.5952 14.9336C23.8305 16.5145 21.1467 17.7645 18.4996 18.3895L17.1025 18.7204V26.9189C17.1025 29.9704 17.7275 31.6248 20.3746 33.3159L26.2937 37.1027L32.2128 33.3159C34.8599 31.6248 35.4849 29.9704 35.4849 26.9189V18.7204L34.0878 18.3895ZM27.4334 30.3012C27.1393 30.8895 26.6246 31.2204 26.0364 31.2204H25.1172C24.6025 31.2204 24.0878 30.963 23.7937 30.4851L20.4114 24.9704H23.7202L25.5584 28.2792L28.8305 21.4777C29.1246 20.8895 29.5658 20.5586 30.1172 20.5586H32.1761L27.4334 30.3012Z" fill="#5FAF2D"/>
<circle cx="26" cy="26" r="25" stroke="#CBCFD6"/>
</svg>
