<svg viewBox="0 0 24 24" fill="none" xmlns="http://www.w3.org/2000/svg">
<path d="M12.4129 23.9026C7.55869 23.9898 3.11144 21.2284 0.873276 16.8393C0.43727 15.9673 0.815138 14.8918 1.68715 14.5721C2.41383 14.3105 3.2277 14.6012 3.57651 15.3278C5.2624 18.6415 8.66324 20.7634 12.3548 20.7052C16.0463 20.6471 19.3599 18.4089 20.9295 15.0372C21.2493 14.3105 22.0632 13.9907 22.7898 14.2233C23.6909 14.514 24.0978 15.5894 23.6909 16.4614C21.5981 20.9087 17.2671 23.8154 12.4129 23.9026Z" fill="#60BB52"/>
<path d="M18.0654 10.2963C17.9201 8.66853 17.1934 7.38958 16.0017 6.60477C14.9843 5.93623 13.6472 5.61649 11.9904 5.64556H11.816L10.1883 5.67462L10.1301 3.02952L15.3331 2.94232C16.1179 2.94232 16.7283 2.30285 16.7283 1.51804C16.7283 0.733225 16.0598 0.09375 15.304 0.09375L8.67676 0.239086C7.89195 0.239086 7.28155 0.907627 7.28155 1.7215L7.36875 7.09891C7.36875 7.91279 8.03729 8.55226 8.8221 8.55226L12.1067 8.49413C14.2867 8.46506 15.0134 9.48241 15.0425 10.5579C15.0715 11.6043 14.5483 13.3193 12.252 13.3483C10.3627 13.3774 9.19997 12.0694 8.96743 11.8659C8.24076 11.2264 7.54315 11.2846 7.07808 11.7206C6.49674 12.2728 6.58394 13.0577 6.96181 13.6099C7.39782 14.2785 9.11276 16.3422 12.3392 16.2841C14.1704 16.255 15.7401 15.5574 16.8446 14.3075C17.7166 13.203 18.2108 11.7496 18.0654 10.2963Z" fill="#58595B"/>
</svg>
