<svg viewBox="0 0 108 45" fill="none" xmlns="http://www.w3.org/2000/svg">
<path d="M20.5869 45.0003C12.3519 45.0003 4.95145 40.3623 1.27907 33.2948C0.555718 31.8592 1.22342 30.1476 2.72577 29.6506C3.94989 29.2089 5.28531 29.761 5.89737 30.9206C8.67948 36.3316 14.2993 39.8653 20.5869 39.8653C25.8729 39.8653 30.7695 37.3255 33.7741 33.2948C34.7757 31.9696 36.1111 29.8715 36.1111 26.5586L40.7851 31.4175C40.7851 31.4175 40.5625 32.1353 40.0617 33.0187C39.5609 33.9022 39.394 34.2334 39.1158 34.7304C35.2765 40.9696 28.2656 45.0003 20.5869 45.0003Z" fill="#64B341"/>
<path d="M30.9368 22.3071C30.7142 19.712 29.5457 17.6138 27.5426 16.2886C25.8733 15.1844 23.592 14.6322 20.8099 14.6322H20.476H17.7496V10.3807H26.4854C27.8208 10.3807 28.878 9.38681 28.878 8.11687C28.878 6.84693 27.8208 5.79785 26.4854 5.79785H15.3569C14.0215 5.79785 12.9643 6.84693 12.9643 8.17208V16.8408C12.9643 18.1659 14.0215 19.215 15.3569 19.215H20.8655C24.5379 19.215 25.762 20.8715 25.762 22.6383C25.762 24.35 24.8161 27.0555 20.9768 27.0555C17.7496 27.0555 15.8577 24.9021 15.4682 24.5709C14.2997 23.5218 13.0756 23.577 12.2966 24.2948C11.2951 25.1782 11.4064 26.4482 12.0184 27.3316C12.7418 28.4359 15.5795 31.804 20.9768 31.804C24.0371 31.804 26.7636 30.6997 28.5998 28.712C30.2691 27.0003 31.1037 24.6261 30.9368 22.3071Z" fill="#575756"/>
<path d="M84.5198 25.454C81.9046 25.3435 79.4563 24.2945 78.3435 23.2454C77.1194 22.1411 76.8968 20.6503 77.8427 19.8221C79.1225 18.7178 80.4023 19.7116 80.9587 20.0429C83.7964 21.8098 86.0778 21.6441 87.135 20.8159C87.747 20.319 88.0252 19.7116 87.914 19.2147C87.747 18.276 86.6898 17.9448 85.2988 17.6135C84.2972 17.3374 81.5151 16.5644 80.2353 15.7914C78.3991 14.7423 77.1194 12.9202 77.5089 10.4908C77.954 7.89568 80.2353 5.90795 83.1844 5.63188C86.968 5.30059 88.8042 6.18402 89.8614 6.73617C91.4194 7.56439 91.6976 9.22083 90.863 10.2147C90.4735 10.6564 89.4163 11.0981 88.3035 10.6012C84.5754 8.94476 82.6836 9.44169 82.1828 10.3803C81.682 11.3742 82.5723 12.3681 83.7964 12.8098C83.8521 12.8098 84.5754 13.1411 85.577 13.4724C86.4673 13.7484 87.5245 14.0245 88.693 14.4662C90.863 15.2392 92.6992 16.9509 92.421 19.8221C92.2541 21.3129 91.3638 23.0245 90.0284 23.9632C89.1381 24.681 87.1906 25.5644 84.5198 25.454Z" fill="#575756"/>
<path d="M106.888 20.8712C106.331 20.6503 105.552 20.7607 105.052 20.816C104.384 20.9264 103.382 21.0368 102.603 20.816C101.157 20.4294 100.656 19.6012 100.656 18.3313V10.0491H104.05C105.33 10.0491 106.387 9.05521 106.387 7.84049C106.387 6.62577 105.33 5.6319 104.05 5.6319H100.656V2.42945C100.656 1.10429 99.5431 0 98.2076 0C96.8722 0 95.7594 1.10429 95.7594 2.42945V5.6319H94.6465C93.3668 5.6319 92.3096 6.62577 92.3096 7.84049C92.3096 9.05521 93.3668 10.0491 94.6465 10.0491H95.7594V18.3865C95.7594 22.3067 98.931 25.5092 102.937 25.5092C106.943 25.5092 108.001 24.0736 108.001 22.7485C108.001 21.7546 107.667 21.1472 106.888 20.8712Z" fill="#575756"/>
<path d="M66.7696 5.63184C61.3723 5.63184 57.0322 10.1042 57.0322 15.5153C57.0322 20.9815 61.428 25.3987 66.7696 25.3987C72.1669 25.3987 76.507 20.9263 76.507 15.5153C76.5626 10.049 72.1669 5.63184 66.7696 5.63184ZM66.7696 20.9815C63.9875 20.9815 61.7062 19.049 61.7062 15.5153C61.7062 12.0367 63.9875 10.049 66.7696 10.049C69.5517 10.049 71.8331 12.0367 71.8331 15.5153C71.8331 18.9938 69.5517 20.9815 66.7696 20.9815Z" fill="#575756"/>
<path d="M46.3495 5.63184C44.4577 5.63184 42.0651 6.73613 40.8409 8.44779C40.7853 6.79135 39.895 5.68705 38.6152 5.68705C37.2798 5.68705 36.167 6.79134 36.167 8.1165V30.368C36.167 31.6932 37.2798 32.7975 38.6152 32.7975C39.9507 32.7975 41.0635 31.6932 41.0635 30.368V23.0797C42.0094 24.2944 44.2908 25.4539 46.5721 25.4539C51.9694 25.4539 55.8087 20.9815 55.8087 15.5153C55.8087 10.049 51.9137 5.63184 46.3495 5.63184ZM46.0157 20.9815C42.8997 20.9815 40.7297 18.8282 40.7297 15.5153C40.7297 11.9263 43.3448 10.049 46.0157 10.049C48.7978 10.049 51.0791 12.6441 51.0791 15.5153C51.0791 18.3864 48.7978 20.9815 46.0157 20.9815Z" fill="#575756"/>
</svg>
