<svg width="24" height="24" viewBox="0 0 24 24" fill="none" xmlns="http://www.w3.org/2000/svg">
<path d="M19.0654 3.14062C18.1046 3.14062 17.652 3.81035 17.4728 4.42021L17.4286 4.56613L17.3843 4.42021C17.2051 3.81035 16.7525 3.14062 15.7917 3.14062C14.6968 3.14062 14 3.80288 14 4.97021C14 6.44063 15.4046 7.57431 16.6433 8.70797L17.4286 9.42634L18.2138 8.70797C19.4525 7.57431 20.8571 6.44063 20.8571 4.97021C20.8571 3.80288 20.1604 3.14062 19.0654 3.14062Z" fill="white"/>
<path d="M8.28502 13.4527V14.567C8.5993 14.8813 9.25645 15.1384 9.9993 15.1384C10.7422 15.1384 11.3993 14.8813 11.7136 14.567V13.4527C12.3422 12.967 12.5707 12.1098 12.5707 11.3384V8.62411C12.5707 7.02411 11.8279 6.28125 10.2279 6.28125H6.85645L7.31359 11.3384C7.3993 12.1955 7.71359 13.0241 8.28502 13.4527Z" fill="white"/>
<path d="M13.914 16.0538L13.1426 15.7109C12.4649 16.4157 11.2202 16.8538 9.99972 16.8538C8.77921 16.8538 7.53451 16.4157 6.85686 15.7109L6.08544 16.0538C4.17115 16.9109 3.54258 17.3681 3.19972 20.1109L3.14258 20.5681H16.8569L16.7997 20.1109C16.4569 17.3681 15.8283 16.9109 13.914 16.0538Z" fill="white"/>
</svg>
