<svg width="36" height="36" viewBox="0 0 36 36" fill="none" xmlns="http://www.w3.org/2000/svg">
<path d="M29.1429 5.57031H20.1429L23.3419 8.76936L18.8572 13.2541L21.2296 15.6265C22.1064 16.5034 23.3832 16.5034 24.26 15.6265L27.2296 12.657L30.4286 15.856V6.85603C30.4286 6.14595 29.853 5.57031 29.1429 5.57031Z" fill="#5FAF2D"/>
<path d="M13.2554 17.1417L15.6277 14.7694C16.5046 13.8925 16.5046 12.6158 15.6277 11.7389L12.6582 8.76936L15.8572 5.57031H6.85725C6.14718 5.57031 5.57153 6.14595 5.57153 6.85603V15.856L8.77058 12.657L13.2554 17.1417Z" fill="#5FAF2D"/>
<path d="M14.7706 20.3686C13.8938 19.4917 12.617 19.4917 11.7402 20.3685L8.77058 23.3381L5.57153 20.1391V29.1391C5.57153 29.8491 6.14717 30.4248 6.85725 30.4248H15.8572L12.6582 27.2257L17.143 22.741L14.7706 20.3686Z" fill="#5FAF2D"/>
<path d="M22.7449 18.8594L20.3725 21.2318C19.4956 22.1086 19.4956 23.3854 20.3725 24.2622L23.342 27.2318L20.143 30.4308H29.143C29.853 30.4308 30.4287 29.8552 30.4287 29.1451V20.1451L27.2296 23.3441L22.7449 18.8594Z" fill="#5FAF2D"/>
</svg>
