<svg viewBox="0 0 24 24" fill="none" xmlns="http://www.w3.org/2000/svg">
<path d="M18.5714 9.42969L15.1428 3.88683C14.9714 3.60112 14.7143 3.42969 14.3143 3.42969H12.5714L16.2857 9.42969H18.5714Z" fill="#003E14"/>
<path d="M3.14282 11.1406L3.31425 12.1406C3.37139 12.5406 3.74282 12.8549 4.14282 12.8549H4.28568L5.11425 17.2835C5.57139 19.7121 6.17139 20.5692 9.34282 20.5692H14.6571C17.8285 20.5692 18.4285 19.7121 18.8857 17.2835L19.7143 12.8549H19.8571C20.2571 12.8549 20.6285 12.5406 20.6857 12.1406L20.8571 11.1406H3.14282Z" fill="#003E14"/>
<path d="M11.4286 3.42969H9.68573C9.28573 3.42969 9.02859 3.60112 8.85716 3.88683L5.42859 9.42969H7.7143L11.4286 3.42969Z" fill="#003E14"/>
</svg>
