<svg viewBox="0 0 48 48" fill="none" xmlns="http://www.w3.org/2000/svg">
<path d="M24.8402 28.8616C24.5402 28.5016 24.3602 28.2016 24.0002 28.2016C23.6402 28.2016 23.4602 28.5016 23.1602 28.8616L20.4002 32.4016L10.2002 27.6016V36.0616C10.2002 36.4816 10.5002 36.9616 10.9202 37.1416L23.0402 42.4216C23.3402 42.5416 23.7002 42.6016 24.0002 42.6016C24.3002 42.6016 24.6602 42.5416 24.9602 42.4216L37.0802 37.1416C37.5002 36.9616 37.8002 36.4816 37.8002 36.0616V27.6016L27.6002 32.4016L24.8402 28.8616Z" fill="#5FAF2D"/>
<path d="M38.1004 15.5984L42.6004 10.7984L29.4004 5.39844L25.0204 9.59844C24.6004 10.0184 24.3604 10.1984 24.0004 10.1984C23.6404 10.1984 23.3404 9.95844 22.9804 9.59844L18.6004 5.39844L5.40039 10.7984L9.90039 15.5984C10.3204 16.0784 10.3804 16.7984 9.90039 17.2784L5.40039 21.5984L19.2004 27.5984L23.1004 23.3984C23.4004 23.0384 23.6404 22.7984 24.0004 22.7984C24.3604 22.7984 24.5404 22.9784 24.9004 23.3984L28.8004 27.5984L42.6004 21.5984L38.1004 17.2784C37.6204 16.7984 37.6804 16.0784 38.1004 15.5984ZM25.3204 20.6984C24.8404 20.8784 24.3604 20.9984 24.0004 20.9984C23.6404 20.9984 23.1604 20.8784 22.6804 20.6984L12.0004 16.1984L22.6804 11.6384C23.4004 11.3384 24.6004 11.3384 25.3204 11.6384L36.0004 16.1984L25.3204 20.6984Z" fill="#5FAF2D"/>
</svg>
