<svg width="50" height="50" viewBox="0 0 50 50" fill="none" xmlns="http://www.w3.org/2000/svg">
<circle cx="25" cy="25" r="25" fill="white"/>
<path d="M33.9285 21.0728V16.43C33.9285 15.1752 33.0404 14.2871 31.7856 14.2871H18.2142C16.9595 14.2871 16.0714 15.1752 16.0714 16.43V21.0728H14.2856V24.6443C14.2856 25.2514 14.7499 25.7157 15.3571 25.7157H16.0714V35.7157H18.9285V33.2157H31.0714V35.7157H33.9285V25.7157H34.6428C35.2499 25.7157 35.7142 25.2514 35.7142 24.6443V21.0728H33.9285ZM21.0714 30.7157H18.2142V28.5728L19.9285 28.7871C20.7499 28.8943 21.0714 29.2514 21.0714 30.0728V30.7157ZM31.7856 30.7157H28.9285V30.0728C28.9285 29.2514 29.2499 28.8943 30.0714 28.7871L31.7856 28.5728V30.7157ZM18.2142 25.7157L18.6785 22.8943C18.9642 21.2157 19.4285 20.3585 21.4285 20.3585H28.5714C30.5714 20.3585 31.0356 21.2157 31.3214 22.8943L31.7856 25.7157H18.2142Z" fill="#5FAF2D"/>
</svg>
