<svg width="32" height="32" viewBox="0 0 32 32" fill="none" xmlns="http://www.w3.org/2000/svg">
<circle cx="16" cy="16" r="16" fill="#5FAF2D"/>
<path d="M21.714 13.4857V10.5143C21.714 9.7112 21.1456 9.14282 20.3426 9.14282H11.6569C10.8538 9.14282 10.2854 9.7112 10.2854 10.5143V13.4857H9.14258V15.7714C9.14258 16.16 9.43972 16.4571 9.82829 16.4571H10.2854V22.8571H12.114V21.2571H19.8854V22.8571H21.714V16.4571H22.1711C22.5597 16.4571 22.8569 16.16 22.8569 15.7714V13.4857H21.714ZM13.4854 19.6571H11.6569V18.2857L12.754 18.4228C13.2797 18.4914 13.4854 18.72 13.4854 19.2457V19.6571ZM20.3426 19.6571H18.514V19.2457C18.514 18.72 18.7197 18.4914 19.2454 18.4228L20.3426 18.2857V19.6571ZM11.6569 16.4571L11.954 14.6514C12.1369 13.5771 12.434 13.0285 13.714 13.0285H18.2854C19.5654 13.0285 19.8626 13.5771 20.0454 14.6514L20.3426 16.4571H11.6569Z" fill="white"/>
</svg>
