<svg width="36" height="36" viewBox="0 0 36 36" fill="none" xmlns="http://www.w3.org/2000/svg">
<path d="M28.7143 13.2864V7.71498C28.7143 6.20927 27.6485 5.14355 26.1428 5.14355H9.85711C8.35142 5.14355 7.28568 6.20927 7.28568 7.71498V13.2864H5.14282V17.5721C5.14282 18.3007 5.69997 18.8578 6.42854 18.8578H7.28568V30.8578H10.7143V27.8578H25.2857V30.8578H28.7143V18.8578H29.5714C30.3 18.8578 30.8571 18.3007 30.8571 17.5721V13.2864H28.7143ZM13.2857 24.8578H9.85711V22.2864L11.9143 22.5436C12.9 22.6721 13.2857 23.1007 13.2857 24.0864V24.8578ZM26.1428 24.8578H22.7143V24.0864C22.7143 23.1007 23.1 22.6721 24.0857 22.5436L26.1428 22.2864V24.8578ZM9.85711 18.8578L10.4143 15.4721C10.7571 13.4578 11.3143 12.4293 13.7143 12.4293H22.2857C24.6857 12.4293 25.2428 13.4578 25.5857 15.4721L26.1428 18.8578H9.85711Z" fill="#5FAF2D"/>
</svg>
