<svg viewBox="0 0 42 42" fill="none" xmlns="http://www.w3.org/2000/svg">
<path d="M33.857 15.3427V8.657C33.857 6.85015 32.5781 5.57129 30.7713 5.57129H11.2284C9.4216 5.57129 8.14272 6.85015 8.14272 8.657V15.3427H5.57129V20.4856C5.57129 21.3599 6.23986 22.0284 7.11415 22.0284H8.14272V36.4284H12.257V32.8284H29.7427V36.4284H33.857V22.0284H34.8856C35.7599 22.0284 36.4284 21.3599 36.4284 20.4856V15.3427H33.857ZM15.3427 29.2284H11.2284V26.1427L13.697 26.4513C14.8799 26.6056 15.3427 27.1199 15.3427 28.3027V29.2284ZM30.7713 29.2284H26.657V28.3027C26.657 27.1199 27.1199 26.6056 28.3027 26.4513L30.7713 26.1427V29.2284ZM11.2284 22.0284L11.897 17.9656C12.3084 15.5484 12.977 14.3141 15.857 14.3141H26.1427C29.0227 14.3141 29.6913 15.5484 30.1027 17.9656L30.7713 22.0284H11.2284Z" fill="#5FAF2D"/>
</svg>
