<svg viewBox="0 0 30 30" fill="none" xmlns="http://www.w3.org/2000/svg">
<path d="M5 4.28711V25.7157H18.2143C19.5 25.7157 20.4643 25.4657 21.3929 24.6443C22.3571 23.8228 23.1429 23.0371 23.9643 22.0728C24.7857 21.1443 25 20.2157 25 18.93V4.28711H5ZM13.2143 11.7871H19.6429V13.93H13.2143V11.7871ZM10.7143 22.5014H8.21429V20.3585H10.7143V22.5014ZM10.7143 18.2157H8.21429V16.0728H10.7143V18.2157ZM10.7143 13.93H8.21429V11.7871H10.7143V13.93ZM10.9998 9.37333C10.8259 9.75582 10.4445 10.0014 10.0244 10.0014H8.71612C8.39812 10.0014 8.09658 9.86016 7.89301 9.61588L6.42857 7.85854H8.57143L9.28571 8.57282L10.1716 6.50574C10.2842 6.24309 10.5424 6.07282 10.8282 6.07282H12.5L10.9998 9.37333ZM18.2143 22.5014H13.2143V20.3585H18.2143V22.5014ZM21.4286 18.2157H13.2143V16.0728H21.4286V18.2157ZM22.1429 9.64425H13.2143V7.50139H22.1429V9.64425Z" fill="#5FAF2D"/>
</svg>
