<svg xmlns="http://www.w3.org/2000/svg" fill="none" viewBox="0 0 49 39">
  <path fill="#000" d="M48.42 11.224c-.043-.35-.429-.525-.815-.657-.773-.306-2.532-.656-3.991-.875-.258-.57-.644-1.182-1.202-1.97-.858-1.183-2.832-3.065-4.806-4.291C32.842.498 27.264.016 22.028 1.767c-4.506 1.533-7.724 3.81-9.655 7.706-1.073 2.145-1.845 5.647-1.845 5.647-3.004-.612-5.58-1.926-9.055-3.94-1.588 4.422-.944 10.814 1.76 14.317 3.218 4.203 7.423 6.173 11.2 6.83-2.618.481-5.45 1.182-5.45 1.182s2.489 2.408 8.325 3.94c4.892 1.27 8.883 1.226 11.2 1.007 2.618-.175 5.193-1.05 7.768-2.758 6.18-4.203 9.698-12.566 8.883-20.183 1.33-1.314 2.575-2.627 3.132-3.59.043-.263.13-.482.13-.701Zm-9.055 4.816c-.429 1.313-1.03 2.583-2.102 3.415-1.202.92-2.747 1.182-4.249 1.27-.73.043-1.459.043-2.146-.176-1.458-.394-2.574-1.62-3.175-3.02-.6-1.401-.73-2.978-.644-4.51.086-1.883.472-3.809 1.588-5.341 1.116-1.489 3.433-2.058 5.278-1.927 2.532.176 4.335 1.752 5.364 3.81.945 2.013.773 4.421.086 6.479Z"/>
  <path fill="#000" d="M37.306 11.925c0 1.794-.859 3.24-1.889 3.24s-1.888-1.445-1.888-3.24c0-1.796.858-3.24 1.888-3.24 1.03.043 1.889 1.488 1.889 3.24Z"/>
</svg>
