<svg viewBox="0 0 42 42" fill="none" xmlns="http://www.w3.org/2000/svg">
<path d="M17.9141 5.57129H8.14272L11.4948 8.92334C7.88909 11.7476 5.57129 16.1409 5.57129 21.076C5.57129 29.0762 11.6605 35.6539 19.457 36.4284V30.7116C15.0783 29.9371 11.7427 25.9185 11.7427 21.076C11.7427 17.7763 13.2917 14.8611 15.6637 13.0923L19.457 16.8856V7.11415C19.457 6.26206 18.7662 5.57129 17.9141 5.57129Z" fill="#5FAF2D"/>
<path d="M36.4287 20.9237C36.4287 12.9235 30.3395 6.34578 22.543 5.57129V11.2881C26.9216 12.0626 30.2573 16.0813 30.2573 20.9237C30.2573 24.2234 28.7083 27.1386 26.3363 28.9075L22.543 25.1141V34.8856C22.543 35.7377 23.2337 36.4284 24.0858 36.4284H33.8573L30.5052 33.0764C34.1109 30.2521 36.4287 25.8589 36.4287 20.9237Z" fill="#5FAF2D"/>
</svg>
