<svg width="72" height="72" viewBox="0 0 72 72" fill="none" xmlns="http://www.w3.org/2000/svg">
<circle cx="36" cy="36" r="35" fill="white" stroke="#CBCFD6"/>
<path d="M48.713 32.8093C46.86 32.449 45.5218 33.5813 44.6468 35.3828L42.588 39.7063V23.9049C42.588 22.2063 42.1247 21.1769 40.8894 21.1769C39.86 21.1769 39.4482 22.0005 39.1394 23.9049L38.4703 28.3828L38.0585 23.2358C37.8527 20.6622 37.4924 19.6328 36.1541 19.6328C34.7644 19.6328 34.5071 20.8166 34.2497 23.6475L33.8379 28.3828L33.2203 23.5446C32.9629 21.5887 32.7571 20.1475 31.3674 20.1475C29.9262 20.1475 29.7203 21.3313 29.5659 23.9049L29.2571 29.4122L28.7424 25.6549C28.3821 22.9784 28.0732 22.2063 27.0438 22.2063C25.8085 22.2063 25.3968 23.2872 25.0879 25.6549C24.8306 27.4563 24.5732 30.9563 24.5732 34.4049C24.5732 39.0887 25.4482 41.7137 26.4262 45.4196C27.0438 47.7358 27.1468 48.5593 27.1468 50.0005V51.0299H41.0438C41.0438 49.7946 41.2497 49.1769 42.1762 48.199L43.8232 46.3975C45.4703 44.5446 46.5512 42.8461 47.5291 39.8608L49.7938 33.0152L48.713 32.8093ZM35.0218 40.2211L33.8379 41.2505L32.6541 40.2211C30.8527 38.6255 28.6909 36.8755 28.6909 34.8681C28.6909 33.1696 29.7203 31.9858 31.4188 31.9858C32.8085 31.9858 33.5806 32.9122 33.7865 33.8387L33.8379 34.0446L33.8894 33.8387C34.0953 32.9122 34.8674 31.9858 36.2571 31.9858C37.9556 31.9858 38.985 33.1696 38.985 34.8681C38.985 36.8755 36.8232 38.6255 35.0218 40.2211Z" fill="#B4BBC5"/>
</svg>
