<svg width="60" height="60" viewBox="0 0 60 60" fill="none" xmlns="http://www.w3.org/2000/svg">
<circle cx="30" cy="30" r="29.5" stroke="#5FAF2D"/>
<path d="M36.1432 30.2863C36.1432 34.3148 33.7432 36.7148 29.8003 36.7148C26.1146 36.7148 23.286 34.0148 23.286 30.1148C23.286 26.2577 25.8575 23.8577 29.7146 23.8577H30.5717L27.4003 27.072C26.7146 27.7577 26.286 28.572 26.286 29.6434C26.286 31.9148 28.086 33.7148 30.2289 33.7148C31.2146 33.7148 32.2003 33.2863 32.9717 32.5577L36.1432 29.4291V30.2863ZM29.286 30.7148C29.8003 31.2291 30.5717 31.272 31.0432 30.8006L37.5575 24.2863H38.9289C39.7003 24.2863 40.2146 24.072 40.686 23.6006L44.286 20.0006L40.8575 19.1434L40.0003 15.7148L36.4003 19.3148C35.9289 19.7863 35.7146 20.3006 35.7146 21.0291V22.4863L29.2003 28.9577C28.7289 29.3863 28.7717 30.2006 29.286 30.7148ZM41.7146 30.2006C41.7146 37.7006 36.9146 42.2863 29.6289 42.2863C22.5146 42.2863 17.7146 37.7006 17.7146 30.2006C17.7146 23.0863 22.5146 18.2863 29.6289 18.2863C30.8717 18.2863 32.1146 18.4577 33.1432 18.7148V21.7148C32.0717 21.4148 30.9146 21.2863 29.6289 21.2863C24.3146 21.2863 20.7146 24.8863 20.7146 30.2006C20.7146 35.8577 24.3146 39.2863 29.6289 39.2863C35.1146 39.2863 38.7146 35.8577 38.7146 30.2006C38.7146 29.0006 38.586 27.8863 38.286 26.8577H41.286C41.586 27.8863 41.7146 29.0006 41.7146 30.2006Z" fill="#5FAF2D"/>
</svg>
