<svg viewBox="0 0 52 52" fill="none" xmlns="http://www.w3.org/2000/svg">
<path d="M35.4926 23.7243C34.1691 23.4669 33.2132 24.2757 32.5882 25.5625L31.1176 28.6507V17.364C31.1176 16.1507 30.7868 15.4154 29.9044 15.4154C29.1691 15.4154 28.875 16.0037 28.6544 17.364L28.1765 20.5625L27.8824 16.886C27.7353 15.0478 27.4779 14.3125 26.5221 14.3125C25.5294 14.3125 25.3456 15.1581 25.1618 17.1801L24.8676 20.5625L24.4265 17.1066C24.2426 15.7096 24.0956 14.6801 23.1029 14.6801C22.0735 14.6801 21.9265 15.5257 21.8162 17.364L21.5956 21.2978L21.2279 18.614C20.9706 16.7022 20.75 16.1507 20.0147 16.1507C19.1324 16.1507 18.8382 16.9228 18.6176 18.614C18.4338 19.9007 18.25 22.4007 18.25 24.864C18.25 28.2096 18.875 30.0846 19.5735 32.7316C20.0147 34.386 20.0882 34.9743 20.0882 36.0037V36.739H30.0147C30.0147 35.8566 30.1618 35.4154 30.8235 34.7169L32 33.4301C33.1765 32.1066 33.9485 30.8934 34.6471 28.761L36.2647 23.8713L35.4926 23.7243ZM25.7132 29.0184L24.8676 29.7537L24.0221 29.0184C22.7353 27.8787 21.1912 26.6287 21.1912 25.1949C21.1912 23.9816 21.9265 23.136 23.1397 23.136C24.1324 23.136 24.6838 23.7978 24.8309 24.4596L24.8676 24.6066L24.9044 24.4596C25.0515 23.7978 25.6029 23.136 26.5956 23.136C27.8088 23.136 28.5441 23.9816 28.5441 25.1949C28.5441 26.6287 27 27.8787 25.7132 29.0184Z" fill="#ABB1B9"/>
<circle cx="26" cy="26" r="25" stroke="#CBCFD6"/>
</svg>
