<svg viewBox="0 0 36 36" fill="none" xmlns="http://www.w3.org/2000/svg">
<path d="M15.0001 17.5721V20.1436C15.5144 20.6578 16.7144 21.0007 18.0001 21.0007C19.2859 21.0007 20.4859 20.6578 21.0001 20.1436V17.5293C22.1144 16.715 22.7144 15.3035 22.7144 13.8864V9.21498C22.7144 6.42927 21.4287 5.14355 18.643 5.14355H12.4287L13.1573 13.8864C13.2945 15.4416 13.92 16.7513 15.0001 17.5721Z" fill="white"/>
<path d="M30.2141 29.4645C29.3999 24.2583 28.3284 23.4791 24.8999 22.004L23.5713 21.4297C22.4141 22.7008 20.2284 23.5725 17.9999 23.5725C15.8141 23.5725 13.5856 22.7008 12.4284 21.4297L11.1427 22.004C7.757 23.5203 6.59986 24.2583 5.78557 29.4645L5.57129 30.8583H30.4284L30.2141 29.4645ZM24.1602 28.6048L23.5713 29.144L22.9824 28.6048C22.0747 27.7743 20.9999 26.8794 20.9999 25.8191C20.9999 24.9431 21.5707 24.4297 22.3687 24.4297C23.0562 24.4297 23.4007 24.8471 23.5379 25.2011C23.5713 25.2868 23.5713 25.2868 23.5713 25.2868C23.5713 25.2868 23.5713 25.2868 23.6047 25.2011C23.7419 24.8471 24.0864 24.4297 24.7739 24.4297C25.5718 24.4297 26.1427 24.9431 26.1427 25.8191C26.1427 26.8794 25.0679 27.7743 24.1602 28.6048Z" fill="white"/>
</svg>
