<svg width="40" height="40" viewBox="0 0 40 40" fill="none" xmlns="http://www.w3.org/2000/svg">
<circle cx="20" cy="20" r="19.5" fill="#5FAF2D" stroke="#5FAF2D"/>
<path d="M26.8906 21.7461C25.8048 23.6032 23.6334 24.9461 21.1763 25.1747L23.462 29.1747L25.2061 26.6831C25.3665 26.454 25.6286 26.3175 25.9083 26.3175H29.1763L26.8906 21.7461Z" fill="white"/>
<path d="M13.7476 21.7461L11.4619 26.3175H14.7299C15.0096 26.3175 15.2717 26.454 15.4321 26.6831L17.1762 29.1747L19.4619 25.1747C17.0048 24.9461 14.8333 23.6032 13.7476 21.7461Z" fill="white"/>
<path d="M26.3188 17.4054C26.3188 13.86 23.9188 11.46 20.2643 11.46C16.7188 11.46 14.3188 13.86 14.3188 17.4054C14.3188 21.1691 16.7188 23.46 20.2643 23.46C23.9188 23.46 26.3188 21.1691 26.3188 17.4054ZM22.3474 18.5742L22.8903 20.8885L20.6617 19.5457C20.4617 19.4314 20.176 19.4314 19.976 19.5457L17.7474 20.8885L18.2903 18.5742C18.3474 18.3457 18.3188 18.0885 18.1188 17.9171L16.3188 16.3171L18.7474 16.06C19.0046 16.0314 19.2046 15.8885 19.3188 15.66L20.3188 13.46L21.3188 15.66C21.4331 15.8885 21.6331 16.0314 21.8903 16.06L24.3188 16.3171L22.5188 17.9171C22.3188 18.0885 22.2903 18.3457 22.3474 18.5742Z" fill="white"/>
</svg>
