<svg viewBox="0 0 182 122" fill="none" xmlns="http://www.w3.org/2000/svg">
<path d="M84.3067 59.9933L72.0755 71.6278C71.6281 72.0753 71.4043 72.4482 71.4043 73.3432V105.86C71.4043 106.233 71.7026 106.532 72.0755 106.532H84.6796C85.0525 106.532 85.3509 106.233 85.3509 105.86V60.2916C85.3509 59.9187 85.0525 59.2475 84.3067 59.9933Z" fill="#4B5366"/>
<path d="M49.1046 75.1358L36.8734 86.7704C36.4259 87.2179 36.2021 87.5908 36.2021 88.4857V105.863C36.2021 106.236 36.5005 106.534 36.8734 106.534H49.5521C49.925 106.534 50.2233 106.236 50.2233 105.863V75.4341C50.2233 75.0612 49.9249 74.3154 49.1046 75.1358Z" fill="#4B5366"/>
<path d="M89.8254 45.9745C89.8254 45.8999 89.8254 45.7507 89.7508 45.6761C89.6763 45.6016 89.6017 45.6016 89.5271 45.6016H89.4525H89.3779L80.0554 47.6898H79.9062C79.8317 47.6898 79.7571 47.7644 79.7571 47.7644C79.6079 47.9136 79.6079 48.1373 79.7571 48.2865L79.8316 48.361L81.9945 50.5239L60.739 71.7047L50.969 61.9347C50.8944 61.8601 50.6707 61.8601 50.5961 61.9347L47.9112 64.6196L32.2493 80.2815C32.1747 80.3561 32.1747 80.5798 32.2493 80.6544L34.9342 83.3393C35.0088 83.4139 35.2325 83.4139 35.3071 83.3393L50.8198 67.9011L57.905 74.9863L60.5899 77.6712C60.6644 77.7458 60.8882 77.7458 60.9628 77.6712L84.9777 53.6563L87.2151 55.8937C87.3643 56.0428 87.588 56.0428 87.7372 55.8937C87.8118 55.8191 87.8117 55.7445 87.8117 55.6699L89.9 46.1236L89.8254 45.9745Z" fill="#4B5366"/>
<path d="M66.78 77.1526L60.8881 83.119C60.739 83.1936 60.5898 83.1936 60.5152 83.119L55.1454 77.6746C54.1759 76.7051 53.9521 77.5255 53.9521 77.8984V105.941C53.9521 106.314 54.2505 106.612 54.6234 106.612H67.2275C67.6004 106.612 67.8987 106.314 67.8987 105.941V77.4509C67.9733 77.0034 67.675 76.3322 66.78 77.1526Z" fill="#4B5366"/>
<path d="M38.1411 13.6841V18.2336C38.1411 19.7252 37.5444 20.8439 35.7545 20.8439H33.2188V11.0738H35.7545C37.5444 10.9993 38.1411 12.118 38.1411 13.6841ZM35.5307 19.5014C36.202 19.5014 36.5003 19.1285 36.5003 18.5319V13.3858C36.5003 12.7892 36.2765 12.4163 35.5307 12.4163H34.8595V19.5014H35.5307V19.5014Z" fill="#4B5366"/>
<path d="M39.1855 11H43.1383V12.3425H40.8263V15.1765H42.4671V16.519H40.8263V19.5022H43.1383V20.8446H39.1855V11Z" fill="#4B5366"/>
<path d="M43.958 18.3054V13.5322C43.958 11.966 44.7038 10.9219 46.4192 10.9219C48.2091 10.9219 48.7312 11.966 48.7312 13.383V14.5763H47.2395V13.3085C47.2395 12.7118 47.0158 12.3389 46.4192 12.3389C45.8225 12.3389 45.5988 12.7864 45.5988 13.383V18.6783C45.5988 19.2749 45.8225 19.7224 46.4192 19.7224C47.0158 19.7224 47.2395 19.3495 47.2395 18.7528V16.9629H48.7312V18.6783C48.7312 20.0953 48.1345 21.1394 46.4192 21.1394C44.7038 20.9157 43.958 19.797 43.958 18.3054Z" fill="#4B5366"/>
<path d="M49.7754 11H53.7282V12.3425H51.4162V15.1765H53.0569V16.519H51.4162V19.5022H53.7282V20.8446H49.7754V11Z" fill="#4B5366"/>
<path d="M56.0401 14.6502V20.8403H54.623V11.0703H56.2638L58.0537 16.6638V11.0703H59.3962V20.8403H57.9792L56.0401 14.6502Z" fill="#4B5366"/>
<path d="M60.291 11H64.6913V12.3425H63.3488V20.77H61.708V12.3425H60.3656V11H60.291Z" fill="#4B5366"/>
<path d="M70.7323 14.7993L69.8374 20.8403H68.2712L66.9287 11.0703H68.4949L69.2407 17.2605L70.0611 11.0703H71.4035L72.2985 17.2605L73.0443 11.0703H74.4613L73.1935 20.8403H71.6273L70.7323 14.7993Z" fill="#4B5366"/>
<path d="M75.1328 18.3054V13.5322C75.1328 11.966 75.8786 10.9219 77.594 10.9219C79.3093 10.9219 80.1297 12.0406 80.1297 13.5322V18.3054C80.1297 19.797 79.3839 20.9157 77.594 20.9157C75.8786 20.9157 75.1328 19.797 75.1328 18.3054ZM78.4889 18.5291V13.2339C78.4889 12.6372 78.2652 12.1898 77.6686 12.1898C77.0719 12.1898 76.8482 12.6372 76.8482 13.2339V18.5291C76.8482 19.1257 77.0719 19.5732 77.6686 19.5732C78.1906 19.5732 78.4889 19.1257 78.4889 18.5291Z" fill="#4B5366"/>
<path d="M82.8146 16.3655V20.8403H81.1738V11.0703H83.5604C85.2012 11.0703 85.7978 11.8907 85.7978 13.2331V14.501C85.7978 15.5451 85.4249 16.1418 84.4554 16.3655L86.0216 20.8403H84.3062L82.8146 16.3655ZM82.8146 12.3382V15.396H83.3367C83.9333 15.396 84.157 15.0977 84.157 14.5756V13.1586C84.157 12.6365 83.9333 12.3382 83.3367 12.3382H82.8146Z" fill="#4B5366"/>
<path d="M88.4826 16.0672V20.8403H86.8418V11.0703H88.4826V15.396L90.2725 11.0703H91.9133L89.9742 15.4706L91.9133 20.8403H90.1979L88.4826 16.0672Z" fill="#4B5366"/>
<path d="M94.2256 20.8403L96.0901 11.0703H97.9546L99.8191 20.8403H98.1038L97.8055 19.0504H96.0901L95.7918 20.8403H94.2256ZM96.3139 17.708H97.6563L96.9851 13.7552L96.3139 17.708Z" fill="#4B5366"/>
<path d="M101.759 14.6502V20.8403H100.342V11.0703H101.983L103.773 16.6638V11.0703H105.115V20.8403H103.698L101.759 14.6502Z" fill="#4B5366"/>
<path d="M111.156 13.6841V18.2336C111.156 19.7252 110.559 20.8439 108.769 20.8439H106.233V11.0738H108.769C110.559 10.9993 111.156 12.118 111.156 13.6841ZM108.62 19.5014C109.291 19.5014 109.59 19.1285 109.59 18.5319V13.3858C109.59 12.7892 109.366 12.4163 108.62 12.4163H107.949V19.5014H108.62V19.5014Z" fill="#4B5366"/>
<path d="M33.2188 25.4609H37.1715V26.8034H34.8595V29.6374H36.5003V30.9799H34.8595V33.9631H37.1715V35.3056H33.2188V25.4609Z" fill="#4B5366"/>
<path d="M37.917 32.696V27.9228C37.917 26.3566 38.6628 25.3125 40.3781 25.3125C42.1681 25.3125 42.6901 26.3566 42.6901 27.7737V28.967H41.1985V27.6991C41.1985 27.1024 40.9748 26.7295 40.3781 26.7295C39.7815 26.7295 39.5578 27.177 39.5578 27.7737V33.0689C39.5578 33.6655 39.7815 34.113 40.3781 34.113C40.9748 34.113 41.1985 33.7401 41.1985 33.1435V31.3535H42.6901V33.0689C42.6901 34.4859 42.0935 35.53 40.3781 35.53C38.5882 35.3809 37.917 34.1876 37.917 32.696Z" fill="#4B5366"/>
<path d="M43.585 32.696V27.9228C43.585 26.3566 44.3308 25.3125 46.0461 25.3125C47.7615 25.3125 48.5818 26.4312 48.5818 27.9228V32.696C48.5818 34.1876 47.836 35.3063 46.0461 35.3063C44.3308 35.3809 43.585 34.1876 43.585 32.696ZM46.9411 32.9943V27.6991C46.9411 27.1024 46.7173 26.655 46.1207 26.655C45.524 26.655 45.3003 27.1024 45.3003 27.6991V32.9943C45.3003 33.5909 45.524 34.0384 46.1207 34.0384C46.6428 33.9638 46.9411 33.5909 46.9411 32.9943Z" fill="#4B5366"/>
<path d="M50.8946 29.0408V35.231H49.4775V25.4609H51.1183L52.9082 31.0545V25.4609H54.2507V35.231H52.8337L50.8946 29.0408Z" fill="#4B5366"/>
<path d="M55.2197 32.696V27.9228C55.2197 26.3566 55.9655 25.3125 57.6809 25.3125C59.3962 25.3125 60.2166 26.4312 60.2166 27.9228V32.696C60.2166 34.1876 59.4708 35.3063 57.6809 35.3063C55.9655 35.3809 55.2197 34.1876 55.2197 32.696ZM58.5758 32.9943V27.6991C58.5758 27.1024 58.3521 26.655 57.7555 26.655C57.1588 26.655 56.9351 27.1024 56.9351 27.6991V32.9943C56.9351 33.5909 57.1588 34.0384 57.7555 34.0384C58.2775 33.9638 58.5758 33.5909 58.5758 32.9943Z" fill="#4B5366"/>
<path d="M65.6614 28.8916L64.4681 35.231H63.7223L62.529 28.8916V35.231H61.1865V25.4609H63.1256L64.1697 30.9799L65.1393 25.4609H67.2275V35.231H65.7359V28.8916H65.6614Z" fill="#4B5366"/>
<path d="M68.1221 25.4609H69.7629V35.231H68.1221V25.4609Z" fill="#4B5366"/>
<path d="M70.7324 32.696V27.9228C70.7324 26.3566 71.4782 25.3125 73.1936 25.3125C74.9835 25.3125 75.5056 26.3566 75.5056 27.7737V28.967H74.014V27.6991C74.014 27.1024 73.7902 26.7295 73.1936 26.7295C72.5969 26.7295 72.3732 27.177 72.3732 27.7737V33.0689C72.3732 33.6655 72.5969 34.113 73.1936 34.113C73.7902 34.113 74.014 33.7401 74.014 33.1435V31.3535H75.5056V33.0689C75.5056 34.4859 74.9089 35.53 73.1936 35.53C71.4037 35.3809 70.7324 34.1876 70.7324 32.696Z" fill="#4B5366"/>
<path d="M80.8014 30.0146H83.1134V35.2352H81.9201V34.1911C81.6963 34.9369 81.2488 35.3844 80.3539 35.3844C78.9368 35.3844 78.2656 34.2657 78.2656 32.7741V28.0009C78.2656 26.4348 79.0114 25.3906 80.7268 25.3906C82.5167 25.3906 83.1134 26.4348 83.1134 27.8518V28.7467H81.6217V27.7772C81.6217 27.1806 81.398 26.8076 80.8014 26.8076C80.2047 26.8076 79.981 27.2551 79.981 27.8518V33.147C79.981 33.7436 80.2047 34.1911 80.8014 34.1911C81.3234 34.1911 81.6217 33.8928 81.6217 33.2216V31.5062H80.8759V30.0146H80.8014Z" fill="#4B5366"/>
<path d="M85.8722 30.7562V35.231H84.2314V25.4609H86.618C88.2588 25.4609 88.8554 26.2813 88.8554 27.6238V28.8916C88.8554 29.9358 88.4825 30.5324 87.513 30.7562L89.0792 35.231H87.3638L85.8722 30.7562ZM85.8722 26.8034V29.8612H86.3943C86.9909 29.8612 87.2147 29.5629 87.2147 29.0408V27.6238C87.2147 27.1017 86.9909 26.8034 86.3943 26.8034H85.8722Z" fill="#4B5366"/>
<path d="M89.6758 32.696V27.9228C89.6758 26.3566 90.4216 25.3125 92.137 25.3125C93.8523 25.3125 94.6727 26.4312 94.6727 27.9228V32.696C94.6727 34.1876 93.9269 35.3063 92.137 35.3063C90.4216 35.3809 89.6758 34.1876 89.6758 32.696ZM92.9573 32.9943V27.6991C92.9573 27.1024 92.7336 26.655 92.137 26.655C91.5403 26.655 91.3166 27.1024 91.3166 27.6991V32.9943C91.3166 33.5909 91.5403 34.0384 92.137 34.0384C92.7336 33.9638 92.9573 33.5909 92.9573 32.9943Z" fill="#4B5366"/>
<path d="M98.8495 29.19L97.9545 35.231H96.3883L95.0459 25.4609H96.6121L97.3579 31.6511L98.1783 25.4609H99.5207L100.416 31.6511L101.162 25.4609H102.579L101.311 35.231H99.7445L98.8495 29.19Z" fill="#4B5366"/>
<path d="M103.176 25.4609H107.576V26.8034H106.234V35.231H104.593V26.8034H103.25V25.4609H103.176Z" fill="#4B5366"/>
<path d="M111.305 30.9053H109.738V35.231H108.098V25.4609H109.738V29.6375H111.305V25.4609H112.945V35.231H111.305V30.9053Z" fill="#4B5366"/>
<path d="M181 1H121V61H181V1Z" stroke="#ABB1B9" stroke-miterlimit="10"/>
<path d="M128.369 10.6925V12.3554H127.504V6.53125H131.874V7.17202H128.869H128.369V7.67202V10.6925ZM129.764 10.9756C129.569 10.9756 129.382 11.0107 129.213 11.0817L129.289 10.9629C129.516 10.6101 129.9 10.3721 130.584 10.3721C131.006 10.3721 131.374 10.5141 131.646 10.8201C131.925 11.1323 132.154 11.6727 132.172 12.562V15.503C132.172 16.2625 131.979 16.8065 131.63 17.1619C131.283 17.5154 130.705 17.7624 129.764 17.7624C128.837 17.7624 128.299 17.4966 127.979 17.1156C127.644 16.7176 127.467 16.1006 127.467 15.2419V14.3622H128.331V15.3538C128.331 15.7562 128.387 16.1838 128.623 16.5181C128.886 16.891 129.295 17.0471 129.764 17.0471C130.214 17.0471 130.594 16.8786 130.838 16.5328C131.06 16.2189 131.121 15.8262 131.121 15.4657V12.557C131.121 12.1965 131.06 11.8038 130.838 11.4899C130.594 11.1441 130.214 10.9756 129.764 10.9756Z" stroke="#ABB1B9"/>
<path d="M164.704 23.7109H157.246C157.209 23.7109 157.134 23.7482 157.134 23.8228V26.284C157.134 26.3213 157.172 26.3958 157.246 26.3958H160.229L156.948 29.6774C155.27 28.3722 153.181 27.5891 150.907 27.5891C145.537 27.5891 141.137 31.9894 141.137 37.3592C141.137 42.3188 144.866 46.4207 149.639 47.0546V49.926H146.693C146.656 49.926 146.581 49.9633 146.581 50.0379V52.6855C146.581 52.7228 146.618 52.7973 146.693 52.7973H149.639V55.5941C149.639 55.6314 149.676 55.706 149.751 55.706H152.398C152.436 55.706 152.51 55.6687 152.51 55.5941V52.7973H155.456C155.493 52.7973 155.568 52.76 155.568 52.6855V50.0379C155.568 50.0006 155.531 49.926 155.456 49.926H152.51V47.0173C157.134 46.2715 160.677 42.2442 160.677 37.3965C160.677 35.3082 160.006 33.3691 158.887 31.7656L162.131 28.5214V31.2809C162.131 31.3181 162.168 31.3927 162.243 31.3927H164.704C164.741 31.3927 164.816 31.3554 164.816 31.2809V23.8228C164.816 23.7482 164.779 23.7109 164.704 23.7109ZM150.907 44.5562C146.954 44.5562 143.71 41.3119 143.71 37.3592C143.71 33.4064 146.917 30.1621 150.907 30.1621C154.86 30.1621 158.104 33.3691 158.104 37.3592C158.104 41.3119 154.86 44.5562 150.907 44.5562Z" fill="#ABB1B9"/>
<path d="M155.382 34.4141H146.656C146.619 34.4141 146.544 34.4514 146.544 34.4886V36.6142C146.544 36.6515 146.581 36.6888 146.656 36.6888H155.382C155.419 36.6888 155.494 36.6515 155.494 36.6142V34.4886C155.456 34.4514 155.419 34.4141 155.382 34.4141Z" fill="#ABB1B9"/>
<path d="M155.382 38.1797H146.656C146.619 38.1797 146.544 38.217 146.544 38.2543V40.3798C146.544 40.4171 146.581 40.4544 146.656 40.4544H155.382C155.419 40.4544 155.494 40.4171 155.494 40.3798V38.2543C155.456 38.217 155.419 38.1797 155.382 38.1797Z" fill="#ABB1B9"/>
<path d="M138.154 13.2344H140.131V13.9056H138.975V15.3226H139.795V15.9939H138.975V17.4855H140.131V18.1567H138.154V13.2344Z" fill="#ABB1B9"/>
<path d="M141.436 18.4515V18.1159C140.765 18.004 140.504 17.5192 140.504 16.848V14.4614C140.504 13.6783 140.877 13.1562 141.734 13.1562C142.592 13.1562 143.002 13.7156 143.002 14.4614V16.848C143.002 17.37 142.816 17.8175 142.406 18.004L143.002 18.1159V18.7125L141.436 18.4515ZM142.145 17.0344V14.3495C142.145 14.0512 142.033 13.8275 141.734 13.8275C141.436 13.8275 141.324 14.0512 141.324 14.3495V17.0344C141.324 17.3328 141.436 17.5565 141.734 17.5565C142.033 17.5192 142.145 17.3328 142.145 17.0344Z" fill="#ABB1B9"/>
<path d="M145.911 13.2344V16.9261C145.911 17.6719 145.575 18.194 144.755 18.194C143.897 18.194 143.524 17.7092 143.524 16.9261V13.2344H144.345V17.038C144.345 17.3363 144.457 17.5228 144.755 17.5228C145.053 17.5228 145.165 17.3363 145.165 17.038V13.2344H145.911Z" fill="#ABB1B9"/>
<path d="M146.32 18.1194L147.253 13.2344H148.185L149.117 18.1194H148.259L148.11 17.2244H147.253L147.103 18.1194H146.32ZM147.364 16.5532H148.036L147.7 14.5768L147.364 16.5532Z" fill="#ABB1B9"/>
<path d="M149.527 13.2344H150.348V17.4482H151.317V18.1194H149.527V13.2344V13.2344Z" fill="#ABB1B9"/>
<path d="M151.766 13.2344H152.586V18.1194H151.766V13.2344Z" fill="#ABB1B9"/>
<path d="M153.033 13.2344H155.233V13.9056H154.562V18.1194H153.742V13.9056H153.071V13.2344H153.033Z" fill="#ABB1B9"/>
<path d="M157.284 16.2549V18.1194H156.464V16.2549L155.531 13.2344H156.389L156.874 15.0989L157.358 13.2344H158.142L157.284 16.2549Z" fill="#ABB1B9"/>
<path d="M139.385 8.312H140.541V10.9223H139.944V10.4002C139.833 10.7732 139.609 10.9969 139.161 10.9969C138.453 10.9969 138.117 10.4375 138.117 9.69173V7.30516C138.117 6.52206 138.49 6 139.348 6C140.243 6 140.541 6.52206 140.541 7.23058V7.67806H139.795V7.19329C139.795 6.89497 139.683 6.70851 139.385 6.70851C139.087 6.70851 138.975 6.93226 138.975 7.23058V9.87819C138.975 10.1765 139.087 10.4002 139.385 10.4002C139.646 10.4002 139.795 10.2511 139.795 9.91548V9.0578H139.422V8.312H139.385Z" fill="#ABB1B9"/>
<path d="M141.101 6.03906H143.077V6.71029H141.921V8.12732H142.741V8.79854H141.921V10.2901H143.077V10.9614H141.101V6.03906V6.03906Z" fill="#ABB1B9"/>
<path d="M144.27 7.86628V10.9614H143.562V6.03906H144.382L145.277 8.83583V6.03906H145.948V10.9241H145.24L144.27 7.86628Z" fill="#ABB1B9"/>
<path d="M148.969 7.34422V9.61893C148.969 10.3647 148.671 10.9241 147.776 10.9241H146.508V6.03906H147.776C148.671 6.03906 148.969 6.59842 148.969 7.34422ZM147.701 10.2529C148.037 10.2529 148.186 10.0664 148.186 9.76809V7.19506C148.186 6.89674 148.074 6.71029 147.701 6.71029H147.365V10.2529H147.701Z" fill="#ABB1B9"/>
<path d="M149.528 6.03906H151.505V6.71029H150.349V8.12732H151.169V8.79854H150.349V10.2901H151.505V10.9614H149.528V6.03906Z" fill="#ABB1B9"/>
<path d="M152.847 8.68667V10.9241H151.989V6.03906H153.183C154.003 6.03906 154.301 6.44926 154.301 7.12048V7.75441C154.301 8.27648 154.115 8.5748 153.63 8.68667L154.413 10.9241H153.555L152.847 8.68667ZM152.847 6.71029V8.23919H153.108C153.406 8.23919 153.518 8.09003 153.518 7.82899V7.12048C153.518 6.85945 153.406 6.71029 153.108 6.71029H152.847V6.71029Z" fill="#ABB1B9"/>
<path d="M181 61H121V121H181V61Z" stroke="#ABB1B9" stroke-miterlimit="10"/>
<path d="M126.78 68.8713V78.1193H128.831V66H127.191L125.326 68.2001V70.3257L126.743 68.8713H126.78Z" fill="#ABB1B9"/>
<path d="M121 1H1V121H121V1Z" stroke="#4B5366" stroke-miterlimit="10"/>
<path d="M24.2695 29.3362V26.7259C24.2695 24.4139 23.4492 22.6985 21.5846 21.8781C23.2254 21.0577 23.9712 19.6407 23.9712 17.7016V16.5829C23.9712 12.7793 22.0321 10.7656 18.2285 10.7656C14.4995 10.7656 12.5604 12.7793 12.5604 16.5829V17.5525C12.5604 19.4915 13.3062 20.9832 14.8724 21.729C13.0079 22.5493 12.1875 24.2647 12.1875 26.5767V29.187C12.1875 32.8414 13.9029 35.4518 18.2285 35.4518C22.5542 35.5264 24.2695 32.9906 24.2695 29.3362ZM16.364 16.3592C16.364 14.8676 16.8861 14.0472 18.1539 14.0472C19.4964 14.0472 20.0185 14.8676 20.0185 16.3592V17.9999C20.0185 19.4915 19.4964 20.3119 18.1539 20.3119C16.8115 20.3119 16.364 19.417 16.364 17.9999V16.3592ZM20.2422 29.7091C20.2422 31.2007 19.7201 32.2448 18.2285 32.2448C16.8115 32.2448 16.2894 31.2007 16.2894 29.7091V25.7563C16.2894 24.2647 16.8115 23.2952 18.2285 23.2952C19.7201 23.2952 20.2422 24.3393 20.2422 25.7563V29.7091Z" fill="#4B5366"/>
<path d="M136.252 74.9799V69.1253C136.252 67.2235 135.32 65.8438 133.231 65.8438C131.18 65.8438 130.248 67.2235 130.248 69.1253V74.9799C130.248 76.8444 131.18 78.2614 133.231 78.2614C135.282 78.2614 136.252 76.8817 136.252 74.9799ZM132.262 75.3155V68.827C132.262 68.0812 132.523 67.5591 133.231 67.5591C133.94 67.5591 134.201 68.0812 134.201 68.827V75.3155C134.201 76.0613 133.94 76.5833 133.231 76.5833C132.523 76.546 132.262 76.0613 132.262 75.3155Z" fill="#ABB1B9"/>
<path d="M140.949 68.6476V70.885H140.129V66H141.322C142.143 66 142.441 66.4102 142.441 67.0814V67.7154C142.441 68.2374 142.254 68.5357 141.77 68.6476L142.553 70.885H141.695L140.949 68.6476ZM140.949 66.6712V68.2001H141.21C141.509 68.2001 141.621 68.051 141.621 67.7899V67.0814C141.621 66.8204 141.509 66.6712 141.21 66.6712H140.949Z" fill="#ABB1B9"/>
<path d="M143 66H144.976V66.6712H143.82V68.0883H144.641V68.7595H143.82V70.2511H144.976V70.9223H143V66Z" fill="#ABB1B9"/>
<path d="M147.774 67.3382V69.6129C147.774 70.3587 147.475 70.918 146.58 70.918H145.312V66.033H146.58C147.475 65.9957 147.774 66.5551 147.774 67.3382ZM146.469 70.2468C146.804 70.2468 146.953 70.0604 146.953 69.762V67.189C146.953 66.8907 146.841 66.7042 146.469 66.7042H146.133V70.2468H146.469V70.2468Z" fill="#ABB1B9"/>
<path d="M150.72 66V69.6917C150.72 70.4375 150.384 70.9596 149.564 70.9596C148.706 70.9596 148.333 70.4748 148.333 69.6917V66H149.153V69.8036C149.153 70.1019 149.265 70.2884 149.564 70.2884C149.862 70.2884 149.974 70.1019 149.974 69.8036V66H150.72Z" fill="#ABB1B9"/>
<path d="M151.241 69.6527V67.2661C151.241 66.483 151.614 65.9609 152.472 65.9609C153.367 65.9609 153.628 66.483 153.628 67.1915V67.7882H152.882V67.1542C152.882 66.8559 152.77 66.6695 152.472 66.6695C152.173 66.6695 152.062 66.8932 152.062 67.1915V69.8391C152.062 70.1374 152.173 70.3612 152.472 70.3612C152.77 70.3612 152.882 70.1747 152.882 69.8764V68.9814H153.628V69.8391C153.628 70.5476 153.329 71.0697 152.472 71.0697C151.614 70.9578 151.241 70.3985 151.241 69.6527Z" fill="#ABB1B9"/>
<path d="M154.188 66H156.164V66.6712H155.008V68.0883H155.828V68.7595H155.008V70.2511H156.164V70.9223H154.188V66Z" fill="#ABB1B9"/>
<path d="M159.11 67.3382V69.6129C159.11 70.3587 158.811 70.918 157.916 70.918H156.648V66.033H157.916C158.811 65.9957 159.11 66.5551 159.11 67.3382ZM157.842 70.2468C158.177 70.2468 158.326 70.0604 158.326 69.762V67.189C158.326 66.8907 158.215 66.7042 157.842 66.7042H157.506V70.2468H157.842V70.2468Z" fill="#ABB1B9"/>
<path d="M140.129 73.1172H140.949V78.0022H140.129V73.1172Z" fill="#ABB1B9"/>
<path d="M142.18 74.9462V78.0413H141.472V73.1562H142.292L143.187 75.953V73.1562H143.858V78.0413H143.15L142.18 74.9462Z" fill="#ABB1B9"/>
<path d="M144.343 73.1172H146.319V73.7884H145.163V75.2054H145.984V75.8767H145.163V77.3683H146.319V78.0395H144.343V73.1172Z" fill="#ABB1B9"/>
<path d="M147.549 78.3733V78.0377C146.878 77.9259 146.617 77.4411 146.617 76.7699V74.3833C146.617 73.6002 146.99 73.0781 147.848 73.0781C148.705 73.0781 149.116 73.6375 149.116 74.3833V76.7699C149.116 77.2919 148.929 77.7394 148.519 77.9259L149.116 78.0377V78.6344L147.549 78.3733ZM148.295 76.9563V74.2714C148.295 73.9731 148.183 73.7494 147.885 73.7494C147.587 73.7494 147.475 73.9731 147.475 74.2714V76.9563C147.475 77.2546 147.587 77.4784 147.885 77.4784C148.183 77.4411 148.295 77.2173 148.295 76.9563Z" fill="#ABB1B9"/>
<path d="M151.987 73.1172V76.8089C151.987 77.5547 151.652 78.0768 150.831 78.0768C149.973 78.0768 149.601 77.592 149.601 76.8089V73.1172H150.421V76.9208C150.421 77.2191 150.533 77.4056 150.831 77.4056C151.129 77.4056 151.241 77.2191 151.241 76.9208V73.1172H151.987Z" fill="#ABB1B9"/>
<path d="M152.248 78.0413L153.18 73.1562H154.113L155.045 78.0413H154.187L154.038 77.1463H153.18L153.031 78.0413H152.248ZM153.292 76.4751H153.963L153.628 74.4987L153.292 76.4751Z" fill="#ABB1B9"/>
<path d="M155.381 73.1172H156.201V77.3683H157.171V78.0395H155.381V73.1172V73.1172Z" fill="#ABB1B9"/>
<path d="M157.543 73.1172H158.363V78.0022H157.543V73.1172Z" fill="#ABB1B9"/>
<path d="M158.774 73.1172H160.975V73.7884H160.303V78.0022H159.483V73.7884H158.812V73.1172H158.774Z" fill="#ABB1B9"/>
<path d="M161.347 73.1172H162.167V78.0022H161.347V73.1172Z" fill="#ABB1B9"/>
<path d="M162.615 73.1172H164.592V73.7884H163.436V75.2054H164.256V75.8767H163.436V77.3683H164.592V78.0395H162.615V73.1172Z" fill="#ABB1B9"/>
<path d="M164.927 76.9936V76.3224H165.71V76.9936C165.71 77.2546 165.822 77.4411 166.12 77.4411C166.381 77.4411 166.493 77.2546 166.493 76.9936V76.8071C166.493 76.5088 166.381 76.3597 166.12 76.0986L165.635 75.6139C165.15 75.1664 164.964 74.8681 164.964 74.3087V74.1595C164.964 73.5629 165.337 73.0781 166.12 73.0781C166.94 73.0781 167.276 73.4883 167.276 74.1968V74.607H166.53V74.1968C166.53 73.8985 166.418 73.7866 166.157 73.7866C165.934 73.7866 165.784 73.8985 165.784 74.1968V74.3087C165.784 74.5697 165.934 74.7562 166.157 74.9799L166.679 75.502C167.127 75.9495 167.351 76.2478 167.351 76.7699V76.9936C167.351 77.6648 166.978 78.1496 166.157 78.1496C165.262 78.075 164.927 77.6275 164.927 76.9936Z" fill="#ABB1B9"/>
<path d="M140.764 93.7812L135.133 99.4121L140.764 105.043V93.7812Z" fill="#ABB1B9"/>
<path d="M161.199 105.043L166.867 99.4121L161.199 93.7812V105.043Z" fill="#ABB1B9"/>
<path d="M156.65 89.2306L150.981 83.5625L145.351 89.2306H156.65Z" fill="#ABB1B9"/>
<path d="M145.351 109.625L150.981 115.256L156.65 109.625H145.351Z" fill="#ABB1B9"/>
<path d="M157.134 94.1562H144.865V97.5497H157.134V94.1562Z" fill="#ABB1B9"/>
<path d="M157.134 101.164H144.865V104.707H157.134V101.164Z" fill="#ABB1B9"/>
</svg>
