<svg viewBox="0 0 182 122" fill="none" xmlns="http://www.w3.org/2000/svg">
<path d="M10.3945 27.7094C10.3945 26.4283 10.6208 25.318 11.0733 24.3752C11.5248 23.4347 12.1936 22.737 13.0787 22.2856C12.3821 21.7776 11.8165 21.0943 11.3828 20.237C10.9502 19.3807 10.7339 18.3403 10.7339 17.1158C10.7339 15.2335 11.2331 13.7684 12.2313 12.7224C13.2295 11.6787 14.6604 11.1552 16.5248 11.1552C18.3893 11.1552 19.8102 11.6743 20.7907 12.7091C21.7701 13.7451 22.2592 15.1858 22.2592 17.0315C22.2592 18.3126 22.0518 19.3851 21.6381 20.2514C21.2233 21.1176 20.6676 21.7953 19.971 22.2856C20.8572 22.737 21.525 23.4535 21.9775 24.4318C22.4289 25.4112 22.6541 26.5691 22.6541 27.9068C22.6541 30.0353 22.1649 31.6924 21.1856 32.8792C20.2062 34.0648 18.6533 34.6583 16.5248 34.6583C12.4376 34.6583 10.3945 32.3412 10.3945 27.7094ZM18.0078 30.4068C18.2629 29.738 18.3893 28.8962 18.3893 27.878C18.3893 26.7489 18.2629 25.8549 18.0078 25.1949C17.7538 24.5361 17.2591 24.2066 16.5248 24.2066C15.7906 24.2066 15.297 24.5416 15.0419 25.2093C14.7879 25.8782 14.6604 26.7677 14.6604 27.878C14.6604 28.8962 14.7879 29.738 15.0419 30.4068C15.297 31.0757 15.7906 31.4095 16.5248 31.4095C17.2591 31.4095 17.7538 31.0757 18.0078 30.4068ZM18.1354 17.1158C18.1354 16.2873 18.0034 15.6328 17.7394 15.1526C17.4754 14.6723 17.0706 14.4327 16.5248 14.4327C15.978 14.4327 15.5643 14.6723 15.2815 15.1526C14.9998 15.6328 14.8589 16.2873 14.8589 17.1158C14.8589 19.4705 15.4135 20.6474 16.5248 20.6474C17.5985 20.6474 18.1354 19.4705 18.1354 17.1158Z" fill="#4B5366"/>
<path d="M29.5735 21.9038V19.0355H29.9218C30.1114 18.9235 30.2778 18.7715 30.4198 18.5819C30.5617 18.3922 30.7004 18.1193 30.8335 17.7644C30.9677 17.4095 31.0786 16.9325 31.1685 16.3358C31.2583 15.738 31.326 15.0159 31.3714 14.173L31.54 11.4244H35.4432V19.0355H36.366V21.9038H35.2313L35.1271 20.1691H30.8446L30.7392 21.9038H29.5735ZM31.3981 19.0355H33.9081V12.5747H32.8122L32.7324 14.4369C32.7113 14.9216 32.6802 15.3631 32.6403 15.7613C32.5993 16.1583 32.5571 16.4933 32.5139 16.7684C32.4695 17.0423 32.4085 17.2963 32.332 17.5293C32.2543 17.7644 32.1889 17.9463 32.1334 18.0783C32.0791 18.2103 32.0003 18.3456 31.8961 18.4843C31.7929 18.624 31.7131 18.7216 31.6565 18.7793C31.5999 18.8381 31.5145 18.9235 31.3981 19.0355Z" fill="#4B5366"/>
<path d="M39.3937 20.2749C38.4941 20.2749 37.8486 20.0309 37.4582 19.5417C37.0678 19.0537 36.8726 18.3383 36.8726 17.3955V14.1678C36.8726 13.7031 36.9169 13.3016 37.0045 12.96C37.0922 12.6195 37.2341 12.3233 37.4294 12.0737C37.6246 11.8242 37.8852 11.6368 38.2124 11.5125C38.5396 11.3872 38.9334 11.3251 39.3937 11.3251C40.291 11.3251 40.9343 11.5658 41.3258 12.0471C41.7185 12.5296 41.9148 13.2351 41.9148 14.1678V17.3955C41.9148 17.8525 41.8704 18.254 41.7806 18.6C41.6907 18.9472 41.5477 19.2478 41.3525 19.5018C41.1572 19.7569 40.8966 19.9499 40.5705 20.0797C40.2422 20.2095 39.8507 20.2749 39.3937 20.2749ZM38.9955 19.0248C39.1064 19.0703 39.2384 19.0936 39.3937 19.0936C39.5478 19.0936 39.6798 19.0703 39.7885 19.0248C39.8983 18.9794 39.9849 18.9195 40.0503 18.8463C40.1157 18.772 40.1668 18.6755 40.2034 18.5557C40.24 18.4359 40.2644 18.3161 40.2777 18.1974C40.2888 18.0777 40.2954 17.9346 40.2954 17.7693V13.7985C40.2954 13.5878 40.2854 13.4125 40.2644 13.2717C40.2422 13.1308 40.2011 12.9977 40.1401 12.8723C40.078 12.7481 39.986 12.655 39.8629 12.5928C39.7397 12.5319 39.5833 12.5008 39.3937 12.5008C39.204 12.5008 39.0465 12.5319 38.9223 12.5928C38.797 12.655 38.7049 12.7481 38.645 12.8723C38.5851 12.9977 38.544 13.1308 38.5241 13.2717C38.503 13.4125 38.4919 13.5878 38.4919 13.7985V17.7693C38.4919 17.9346 38.4975 18.0777 38.5097 18.1974C38.523 18.3161 38.5474 18.4359 38.584 18.5557C38.6206 18.6755 38.6716 18.772 38.7348 18.8463C38.7981 18.9195 38.8846 18.9794 38.9955 19.0248Z" fill="#4B5366"/>
<path d="M45.2109 20.2745C44.8349 20.2745 44.5021 20.2279 44.2148 20.1326C43.9265 20.0383 43.6869 19.9063 43.4994 19.7377C43.312 19.568 43.1578 19.3595 43.0403 19.1088C42.9227 18.8603 42.8395 18.5908 42.7929 18.3047C42.7452 18.0185 42.7219 17.6957 42.7219 17.3375V14.2884C42.7219 13.9091 42.7463 13.573 42.7951 13.2791C42.8439 12.9862 42.9271 12.7134 43.0436 12.4616C43.1589 12.2098 43.312 12.0035 43.4994 11.8416C43.6869 11.6808 43.9243 11.5532 44.2115 11.4623C44.4977 11.3713 44.8315 11.3247 45.2109 11.3247C45.6468 11.3247 46.0194 11.3824 46.3289 11.5C46.6384 11.6153 46.8835 11.7861 47.0621 12.0102C47.2417 12.2353 47.3715 12.4993 47.4525 12.7988C47.5335 13.0994 47.5734 13.4499 47.5734 13.8503V14.6001H46.0383V13.8569C46.0383 13.4199 46.0161 13.1271 45.9707 12.9751C45.8786 12.6801 45.6556 12.5226 45.3007 12.5015H45.2164C45.0822 12.5015 44.9657 12.5171 44.8659 12.5481C44.7661 12.5803 44.6829 12.6302 44.6208 12.699C44.5565 12.7678 44.5055 12.8409 44.4666 12.9175C44.4278 12.9951 44.4001 13.0961 44.3801 13.2203C44.3601 13.3456 44.3491 13.461 44.3435 13.5663C44.338 13.6717 44.3358 13.8059 44.3358 13.9667V17.6702C44.3358 18.1827 44.4001 18.5487 44.5276 18.7672C44.6563 18.9835 44.8859 19.0933 45.2164 19.0933C45.3284 19.0933 45.4272 19.08 45.5148 19.0545C45.6002 19.0278 45.6723 18.9946 45.7311 18.9535C45.7888 18.9136 45.8375 18.8559 45.8786 18.7794C45.9185 18.704 45.9496 18.6341 45.9707 18.5686C45.9917 18.5032 46.0072 18.4134 46.0172 18.2969C46.0283 18.1805 46.0339 18.0828 46.0361 18.0019C46.0383 17.9209 46.0383 17.81 46.0383 17.6702V16.8894H47.5734V17.607C47.5734 17.9331 47.5512 18.227 47.5046 18.4866C47.4591 18.7472 47.3815 18.9912 47.2706 19.2208C47.1597 19.4482 47.0166 19.639 46.8402 19.7898C46.665 19.9407 46.4398 20.0594 46.1659 20.1459C45.8908 20.2313 45.5725 20.2745 45.2109 20.2745Z" fill="#4B5366"/>
<path d="M49.3142 20.1689V12.6011H47.8479V11.4243H52.3256V12.6011H50.907V20.1689H49.3142Z" fill="#4B5366"/>
<path d="M55.1844 20.2749C54.2849 20.2749 53.6394 20.0309 53.249 19.5417C52.8585 19.0537 52.6633 18.3383 52.6633 17.3955V14.1678C52.6633 13.7031 52.7077 13.3016 52.7953 12.96C52.8829 12.6195 53.0249 12.3233 53.2201 12.0737C53.4153 11.8242 53.676 11.6368 54.0032 11.5125C54.3304 11.3872 54.7241 11.3251 55.1844 11.3251C56.0818 11.3251 56.7251 11.5658 57.1166 12.0471C57.5092 12.5296 57.7056 13.2351 57.7056 14.1678V17.3955C57.7056 17.8525 57.6612 18.254 57.5714 18.6C57.4815 18.9472 57.3384 19.2478 57.1432 19.5018C56.948 19.7569 56.6874 19.9499 56.3613 20.0797C56.033 20.2095 55.6414 20.2749 55.1844 20.2749ZM54.7863 19.0248C54.8972 19.0703 55.0292 19.0936 55.1844 19.0936C55.3386 19.0936 55.4706 19.0703 55.5793 19.0248C55.6891 18.9794 55.7756 18.9195 55.8411 18.8463C55.9065 18.772 55.9575 18.6755 55.9941 18.5557C56.0307 18.4359 56.0551 18.3161 56.0673 18.1974C56.0795 18.0777 56.0862 17.9346 56.0862 17.7693V13.7985C56.0862 13.5878 56.0762 13.4125 56.0551 13.2717C56.033 13.1308 55.9919 12.9977 55.9309 12.8723C55.8688 12.7481 55.7767 12.655 55.6536 12.5928C55.5305 12.5319 55.3741 12.5008 55.1844 12.5008C54.9948 12.5008 54.8373 12.5319 54.7131 12.5928C54.5877 12.655 54.4957 12.7481 54.4358 12.8723C54.3759 12.9977 54.3348 13.1308 54.3149 13.2717C54.2938 13.4125 54.2827 13.5878 54.2827 13.7985V17.7693C54.2827 17.9346 54.2882 18.0777 54.3004 18.1974C54.3138 18.3161 54.3382 18.4359 54.3748 18.5557C54.4114 18.6755 54.4624 18.772 54.5256 18.8463C54.5888 18.9195 54.6753 18.9794 54.7863 19.0248Z" fill="#4B5366"/>
<path d="M58.6707 20.1693V11.4258H59.995V16.8895L62.3675 11.4258H63.4545V20.1693H62.1146V14.6002L59.7366 20.1693H58.6707ZM61.0598 10.6815C60.5318 10.6815 60.1425 10.5451 59.8907 10.27C59.6401 9.99607 59.5147 9.62339 59.5147 9.15198H60.2579C60.2579 9.44037 60.3233 9.65 60.4531 9.77977C60.5828 9.90955 60.7858 9.97498 61.0598 9.97498C61.3337 9.97498 61.5356 9.90955 61.6665 9.77977C61.7963 9.65 61.8617 9.44037 61.8617 9.15198H62.6104C62.6104 9.62339 62.4851 9.99607 62.2333 10.27C61.9815 10.5451 61.59 10.6815 61.0598 10.6815Z" fill="#4B5366"/>
<path d="M64.5776 20.1689V11.4243H66.1704V15.079H67.9484V11.4243H69.54V20.1689H67.9484V16.2137H66.1704V20.1689H64.5776Z" fill="#4B5366"/>
<path d="M70.1941 20.1692L71.9721 11.4257H73.6336L75.4049 20.1692H73.9231L73.5693 18.1394H72.0564L71.697 20.1692H70.1941ZM72.225 17.1001H73.3962L72.8106 13.5087L72.225 17.1001Z" fill="#4B5366"/>
<path d="M75.5059 20.1693L77.2728 16.2606C76.9034 16.0676 76.6095 15.7726 76.3921 15.3755C76.1736 14.9773 76.0638 14.4971 76.0638 13.9303C76.0638 13.0796 76.2978 12.4496 76.7636 12.0403C77.2295 11.6299 77.9582 11.4247 78.9498 11.4247H80.9163V20.1693H79.3247V16.63H78.8489H78.6592L77.2561 20.1693H75.5059ZM79.0286 15.5019H79.3247V12.5372H79.0019C78.5128 12.5372 78.1501 12.6503 77.9127 12.8755C77.6754 13.1006 77.5567 13.4522 77.5567 13.9303C77.5567 14.4571 77.6698 14.852 77.895 15.1127C78.1202 15.3722 78.4973 15.5019 79.0286 15.5019Z" fill="#4B5366"/>
<path d="M84.4451 20.1689V11.4243H86.9617C88.4513 11.4243 89.1967 12.2529 89.1967 13.9099C89.1967 14.7219 88.9926 15.3164 88.5856 15.6946C88.1774 16.0717 87.6028 16.2614 86.8608 16.2614H86.0378V20.1689H84.4451ZM86.0378 15.1433H86.5491C86.9995 15.1433 87.3034 15.0546 87.462 14.8771C87.6195 14.6997 87.6993 14.3736 87.6993 13.8989C87.6993 13.6282 87.6894 13.4186 87.6672 13.2722C87.6472 13.1236 87.5973 12.9894 87.5197 12.8684C87.442 12.7465 87.3278 12.6633 87.1747 12.6167C87.0216 12.5712 86.8142 12.5479 86.5547 12.5479H86.0378V15.1433Z" fill="#4B5366"/>
<path d="M89.2136 20.1692L90.9905 11.4257H92.652L94.4233 20.1692H92.9415L92.5877 18.1394H91.0748L90.7154 20.1692H89.2136ZM91.2434 17.1001H92.4147L91.829 13.5087L91.2434 17.1001Z" fill="#4B5366"/>
<path d="M95.083 20.1684V11.4249H99.1281V12.6062H96.6758V15.0852H96.9342C97.4045 15.0852 97.8071 15.1273 98.1398 15.2094C98.4715 15.2915 98.7565 15.4301 98.9961 15.6231C99.2346 15.8172 99.4121 16.0767 99.5263 16.404C99.6405 16.7311 99.6982 17.1338 99.6982 17.6107C99.6982 18.0022 99.6561 18.3439 99.574 18.6378C99.4908 18.9306 99.3732 19.1746 99.2202 19.3676C99.0671 19.5606 98.8741 19.7181 98.6401 19.8368C98.4061 19.9566 98.1487 20.042 97.8681 20.093C97.5864 20.144 97.2647 20.1684 96.9031 20.1684H95.083ZM96.6758 19.0826H96.9031C97.1416 19.0826 97.339 19.0626 97.4965 19.0194C97.6518 18.9772 97.7871 18.9018 97.8992 18.7931C98.0112 18.6844 98.0922 18.5313 98.1421 18.3372C98.1909 18.142 98.2142 17.8924 98.2108 17.5908C98.2075 17.0983 98.1077 16.7434 97.9147 16.5248C97.7217 16.3075 97.3767 16.1988 96.8821 16.1988H96.6758V19.0826Z" fill="#4B5366"/>
<path d="M102.873 20.2749C101.973 20.2749 101.328 20.0309 100.937 19.5417C100.547 19.0537 100.352 18.3383 100.352 17.3955V14.1678C100.352 13.7031 100.396 13.3016 100.484 12.96C100.571 12.6195 100.713 12.3233 100.909 12.0737C101.104 11.8242 101.364 11.6368 101.692 11.5125C102.019 11.3872 102.413 11.3251 102.873 11.3251C103.77 11.3251 104.414 11.5658 104.805 12.0471C105.198 12.5296 105.394 13.2351 105.394 14.1678V17.3955C105.394 17.8525 105.35 18.254 105.26 18.6C105.17 18.9472 105.027 19.2478 104.832 19.5018C104.636 19.7569 104.376 19.9499 104.05 20.0797C103.721 20.2095 103.33 20.2749 102.873 20.2749ZM102.475 19.0248C102.586 19.0703 102.718 19.0936 102.873 19.0936C103.027 19.0936 103.159 19.0703 103.268 19.0248C103.378 18.9794 103.464 18.9195 103.53 18.8463C103.595 18.772 103.646 18.6755 103.683 18.5557C103.719 18.4359 103.744 18.3161 103.756 18.1974C103.768 18.0777 103.775 17.9346 103.775 17.7693V13.7985C103.775 13.5878 103.765 13.4125 103.744 13.2717C103.721 13.1308 103.68 12.9977 103.619 12.8723C103.557 12.7481 103.465 12.655 103.342 12.5928C103.219 12.5319 103.063 12.5008 102.873 12.5008C102.683 12.5008 102.526 12.5319 102.402 12.5928C102.276 12.655 102.184 12.7481 102.124 12.8723C102.064 12.9977 102.023 13.1308 102.003 13.2717C101.982 13.4125 101.971 13.5878 101.971 13.7985V17.7693C101.971 17.9346 101.977 18.0777 101.989 18.1974C102.002 18.3161 102.027 18.4359 102.063 18.5557C102.1 18.6755 102.151 18.772 102.214 18.8463C102.277 18.9195 102.364 18.9794 102.475 19.0248Z" fill="#4B5366"/>
<path d="M107.198 20.1689V12.6011H105.731V11.4243H110.209V12.6011H108.791V20.1689H107.198Z" fill="#4B5366"/>
<path d="M110.235 20.1692L112.013 11.4257H113.675L115.446 20.1692H113.964L113.61 18.1394H112.097L111.738 20.1692H110.235ZM112.266 17.1001H113.437L112.852 13.5087L112.266 17.1001Z" fill="#4B5366"/>
<path d="M30.0957 34.4598V25.7152H31.4189V31.1789L33.7925 25.7152H34.8795V34.4598H33.5396V28.8907L31.1605 34.4598H30.0957Z" fill="#4B5366"/>
<path d="M40.9245 34.4754C40.4886 34.4754 40.1159 34.4178 39.8064 34.3013C39.497 34.186 39.2518 34.0152 39.0699 33.79C38.8891 33.5648 38.7583 33.302 38.6773 33.0014C38.5974 32.7008 38.5564 32.3503 38.5564 31.9488V31.5018H40.0904V31.9444V31.9699V32.2128C40.0904 32.266 40.0937 32.3392 40.0992 32.4313C40.1037 32.5245 40.1114 32.5954 40.1203 32.642C40.1292 32.6908 40.1436 32.7507 40.1625 32.8217C40.1813 32.8938 40.2046 32.9504 40.2312 32.9881C40.2567 33.0269 40.2911 33.0691 40.3344 33.1145C40.3765 33.1611 40.4242 33.1955 40.4797 33.2177C40.5329 33.241 40.5961 33.2598 40.6693 33.2754C40.7414 33.292 40.8224 33.2997 40.9145 33.2997C41.0476 33.2997 41.1651 33.2831 41.265 33.252C41.3648 33.2199 41.4469 33.17 41.5101 33.1012C41.5733 33.0336 41.6254 32.9603 41.6654 32.8827C41.7053 32.8051 41.7352 32.7041 41.7552 32.5799C41.7752 32.4546 41.7874 32.3392 41.7918 32.235C41.7974 32.1285 41.7996 31.9954 41.7996 31.8334V30.4248H40.3555V29.5131H41.7996V28.1311C41.7996 27.6142 41.7352 27.2482 41.6077 27.0319C41.479 26.8156 41.2483 26.7069 40.9145 26.7069C40.7847 26.7069 40.6716 26.7224 40.5762 26.7524C40.4808 26.7823 40.4043 26.8322 40.3444 26.9021C40.2845 26.9731 40.2379 27.0441 40.2013 27.1162C40.1669 27.1883 40.1414 27.287 40.1259 27.4135C40.1103 27.541 40.1003 27.6497 40.097 27.7429C40.0926 27.836 40.0904 27.9658 40.0904 28.1311V28.5947H38.5564V28.1943C38.5564 27.7828 38.5941 27.4223 38.6706 27.1129C38.745 26.8034 38.8703 26.5261 39.0444 26.2799C39.2186 26.0336 39.4626 25.8473 39.7776 25.7175C40.0926 25.59 40.4752 25.5256 40.9245 25.5256C41.3958 25.5256 41.7951 25.5966 42.1246 25.7397C42.4529 25.8828 42.7102 26.0891 42.8943 26.3586C43.0784 26.6293 43.2104 26.9354 43.2892 27.277C43.369 27.6175 43.409 28.0135 43.409 28.4638V31.5107C43.409 31.9865 43.369 32.3969 43.2892 32.7463C43.2104 33.0935 43.0784 33.4007 42.8943 33.6691C42.7102 33.9364 42.4529 34.1372 42.1246 34.2725C41.7951 34.4078 41.3958 34.4754 40.9245 34.4754Z" fill="#4B5366"/>
<path d="M44.5195 34.4598V25.7152H46.1123V29.3965H46.4228L47.837 25.7152H49.4187L47.7793 29.8402L49.5507 34.4598H47.9368L46.4295 30.3892H46.1123V34.4598H44.5195Z" fill="#4B5366"/>
<path d="M52.6398 34.5656C51.7402 34.5656 51.0947 34.3204 50.7043 33.8324C50.3139 33.3433 50.1187 32.6278 50.1187 31.6862V28.4585C50.1187 27.9938 50.163 27.5912 50.2506 27.2506C50.3383 26.909 50.4802 26.614 50.6754 26.3644C50.8707 26.1149 51.1313 25.9274 51.4585 25.8032C51.7857 25.6779 52.1795 25.6146 52.6398 25.6146C53.536 25.6146 54.1804 25.8564 54.5719 26.3378C54.9646 26.8203 55.1609 27.5257 55.1609 28.4585V31.6862C55.1609 32.1432 55.1165 32.5436 55.0256 32.8907C54.9368 33.2379 54.7938 33.5385 54.5986 33.7925C54.4033 34.0476 54.1427 34.2406 53.8166 34.3692C53.4883 34.5001 53.0967 34.5656 52.6398 34.5656ZM52.2416 33.3155C52.3514 33.361 52.4845 33.3843 52.6398 33.3843C52.7939 33.3843 52.9259 33.361 53.0346 33.3155C53.1433 33.2701 53.231 33.2102 53.2964 33.1358C53.3618 33.0615 53.4129 32.9662 53.4495 32.8453C53.4861 32.7266 53.5105 32.6068 53.5227 32.487C53.5349 32.3672 53.5415 32.2252 53.5415 32.06V28.0892C53.5415 27.8784 53.5315 27.7032 53.5093 27.5612C53.4883 27.4214 53.4472 27.2883 53.3862 27.163C53.3241 27.0388 53.2321 26.9456 53.1089 26.8835C52.9858 26.8214 52.8294 26.7914 52.6398 26.7914C52.4501 26.7914 52.2926 26.8214 52.1684 26.8835C52.043 26.9456 51.9499 27.0388 51.8911 27.163C51.8312 27.2883 51.7901 27.4214 51.7702 27.5612C51.748 27.7032 51.738 27.8784 51.738 28.0892V32.06C51.738 32.2252 51.7436 32.3672 51.7558 32.487C51.7691 32.6068 51.7935 32.7266 51.8301 32.8453C51.8667 32.9662 51.9177 33.0615 51.9798 33.1358C52.0441 33.2102 52.1307 33.2701 52.2416 33.3155Z" fill="#4B5366"/>
<path d="M56.2664 34.4598V25.7152H57.8591V29.371H59.6371V25.7152H61.2287V34.4598H59.6371V30.5046H57.8591V34.4598H56.2664Z" fill="#4B5366"/>
<path d="M64.8558 34.5656C63.9563 34.5656 63.3108 34.3204 62.9204 33.8324C62.5299 33.3433 62.3347 32.6278 62.3347 31.6862V28.4585C62.3347 27.9938 62.3791 27.5912 62.4667 27.2506C62.5543 26.909 62.6963 26.614 62.8915 26.3644C63.0867 26.1149 63.3474 25.9274 63.6746 25.8032C64.0018 25.6779 64.3955 25.6146 64.8558 25.6146C65.7531 25.6146 66.3964 25.8564 66.788 26.3378C67.1806 26.8203 67.3769 27.5257 67.3769 28.4585V31.6862C67.3769 32.1432 67.3326 32.5436 67.2427 32.8907C67.1529 33.2379 67.0098 33.5385 66.8146 33.7925C66.6194 34.0476 66.3587 34.2406 66.0327 34.3692C65.7043 34.5001 65.3128 34.5656 64.8558 34.5656ZM64.4576 33.3155C64.5686 33.361 64.7006 33.3843 64.8558 33.3843C65.01 33.3843 65.142 33.361 65.2507 33.3155C65.3605 33.2701 65.447 33.2102 65.5124 33.1358C65.5779 33.0615 65.6289 32.9662 65.6655 32.8453C65.7021 32.7266 65.7265 32.6068 65.7387 32.487C65.7509 32.3672 65.7576 32.2252 65.7576 32.06V28.0892C65.7576 27.8784 65.7476 27.7032 65.7265 27.5612C65.7043 27.4214 65.6633 27.2883 65.6023 27.163C65.5402 27.0388 65.4481 26.9456 65.325 26.8835C65.2019 26.8214 65.0455 26.7914 64.8558 26.7914C64.6662 26.7914 64.5087 26.8214 64.3844 26.8835C64.2591 26.9456 64.167 27.0388 64.1071 27.163C64.0472 27.2883 64.0062 27.4214 63.9863 27.5612C63.9652 27.7032 63.9541 27.8784 63.9541 28.0892V32.06C63.9541 32.2252 63.9596 32.3672 63.9718 32.487C63.9851 32.6068 64.0095 32.7266 64.0462 32.8453C64.0827 32.9662 64.1338 33.0615 64.197 33.1358C64.2602 33.2102 64.3467 33.2701 64.4576 33.3155Z" fill="#4B5366"/>
<path d="M68.4507 34.4598L68.5926 25.7152H70.1599L71.4942 31.596L72.8651 25.7152H74.3947L74.5422 34.4598H73.3554L73.2711 28.7853L71.9257 34.4598H71.0872L69.7218 28.7687L69.6475 34.4598H68.4507Z" fill="#4B5366"/>
<path d="M75.7744 34.4598V25.7152H77.0976V31.1789L79.4712 25.7152H80.5582V34.4598H79.2184V28.8907L76.8392 34.4598H75.7744Z" fill="#4B5366"/>
<path d="M85.0548 34.4598V30.6155C84.6289 30.6964 84.2385 30.7364 83.8835 30.7364C83.1914 30.7364 82.6446 30.5567 82.2464 30.1984C81.8471 29.8402 81.6475 29.3266 81.6475 28.6589V25.7152H83.1515V28.6534C83.1515 28.8364 83.1659 28.9894 83.1958 29.1126C83.2258 29.2357 83.2779 29.3455 83.3545 29.4442C83.4288 29.544 83.5408 29.6161 83.6894 29.6627C83.8369 29.7104 84.0222 29.7337 84.2484 29.7337C84.4869 29.7337 84.7553 29.7037 85.0548 29.6438V25.7152H86.642V34.4598H85.0548Z" fill="#4B5366"/>
<path d="M87.8955 34.4598V25.7152H91.5557V26.8399H89.4883V29.3488H91.1232V30.4724H89.4883V33.3573H91.5823V34.4598H87.8955Z" fill="#4B5366"/>
<path d="M94.7709 34.5653C94.3938 34.5653 94.0622 34.5176 93.7738 34.4233C93.4854 34.3279 93.2469 34.196 93.0595 34.0274C92.8721 33.8588 92.7179 33.6491 92.6003 33.3996C92.4827 33.1511 92.3996 32.8816 92.353 32.5955C92.3053 32.3093 92.282 31.9865 92.282 31.6283V28.5792C92.282 28.1987 92.3064 27.8626 92.3552 27.5698C92.404 27.277 92.4872 27.003 92.6036 26.7524C92.719 26.5006 92.8721 26.2943 93.0595 26.1324C93.2469 25.9704 93.4843 25.844 93.7716 25.753C94.0577 25.661 94.3905 25.6155 94.7709 25.6155C95.2068 25.6155 95.5795 25.6732 95.889 25.7896C96.1984 25.9061 96.4424 26.0758 96.6221 26.301C96.8007 26.5261 96.9305 26.789 97.0114 27.0896C97.0935 27.3901 97.1334 27.7406 97.1334 28.141V28.8908H95.5984V28.1466C95.5984 27.7107 95.5762 27.4179 95.5296 27.2659C95.4386 26.9709 95.2157 26.8134 94.8608 26.7923H94.7765C94.6423 26.7923 94.5258 26.8067 94.426 26.8389C94.3251 26.8711 94.243 26.9199 94.1809 26.9897C94.1165 27.0585 94.0655 27.1306 94.0267 27.2082C93.9879 27.2848 93.959 27.3868 93.9402 27.5122C93.9202 27.6364 93.9091 27.7517 93.9036 27.8571C93.898 27.9625 93.8958 28.0967 93.8958 28.2575V31.9599C93.8958 32.4734 93.959 32.8394 94.0877 33.0568C94.2164 33.2743 94.4448 33.3841 94.7765 33.3841C94.8885 33.3841 94.9872 33.3707 95.0737 33.3441C95.1603 33.3175 95.2323 33.2842 95.29 33.2443C95.3488 33.2044 95.3976 33.1467 95.4386 33.0702C95.4786 32.9947 95.5085 32.9249 95.5296 32.8594C95.5518 32.794 95.5673 32.703 95.5773 32.5877C95.5884 32.4712 95.5939 32.3736 95.5961 32.2926C95.5984 32.2117 95.5984 32.1008 95.5984 31.9599V31.179H97.1334V31.8967C97.1334 32.2239 97.1102 32.5167 97.0647 32.7773C97.0192 33.038 96.9416 33.282 96.8307 33.5105C96.7197 33.739 96.5766 33.9287 96.4003 34.0795C96.225 34.2314 95.9999 34.3501 95.7259 34.4366C95.4509 34.5221 95.1325 34.5653 94.7709 34.5653Z" fill="#4B5366"/>
<path d="M98.176 34.4598V25.7152H99.7688V29.3965H100.079L101.494 25.7152H103.075L101.436 29.8402L103.207 34.4598H101.593L100.086 30.3892H99.7688V34.4598H98.176Z" fill="#4B5366"/>
<path d="M103.933 34.4598V25.7152H105.257V31.1789L107.63 25.7152H108.717V34.4598H107.377V28.8907L104.998 34.4598H103.933Z" fill="#4B5366"/>
<path d="M109.981 34.46V25.7165H111.305V31.1791L113.678 25.7165H114.765V34.46H113.425V28.891L111.047 34.46H109.981ZM112.37 24.9723C111.842 24.9723 111.453 24.8348 111.201 24.5608C110.95 24.2868 110.825 23.9142 110.825 23.4427H111.568C111.568 23.7311 111.633 23.9397 111.763 24.0705C111.893 24.2003 112.096 24.2647 112.37 24.2647C112.644 24.2647 112.846 24.2003 112.977 24.0705C113.106 23.9397 113.172 23.7311 113.172 23.4427H113.92C113.92 23.9142 113.795 24.2868 113.543 24.5608C113.292 24.8348 112.9 24.9723 112.37 24.9723Z" fill="#4B5366"/>
<path d="M30.0798 48.7509V40.0051H32.5954C34.0861 40.0051 34.8315 40.8337 34.8315 42.4907C34.8315 43.3027 34.6274 43.8972 34.2192 44.2754C33.8121 44.6525 33.2365 44.8422 32.4956 44.8422H31.6726V48.7509H30.0798ZM31.6726 43.7241H32.1839C32.6342 43.7241 32.9381 43.6354 33.0968 43.4579C33.2542 43.2816 33.3341 42.9544 33.3341 42.4797C33.3341 42.209 33.323 41.9994 33.3019 41.853C33.282 41.7044 33.2321 41.5702 33.1544 41.4493C33.0768 41.3273 32.9614 41.2441 32.8095 41.1975C32.6553 41.152 32.449 41.1287 32.1894 41.1287H31.6726V43.7241Z" fill="#4B5366"/>
<path d="M37.8275 48.8557C36.9269 48.8557 36.2813 48.6117 35.892 48.1225C35.5016 47.6345 35.3064 46.9191 35.3064 45.9763V42.7486C35.3064 42.2839 35.3508 41.8824 35.4384 41.5408C35.526 41.2003 35.668 40.9041 35.8632 40.6546C36.0584 40.405 36.3191 40.2187 36.6463 40.0933C36.9735 39.968 37.3661 39.9059 37.8275 39.9059C38.7237 39.9059 39.3681 40.1466 39.7597 40.6279C40.1523 41.1104 40.3486 41.8159 40.3486 42.7486V45.9763C40.3486 46.4333 40.3043 46.8348 40.2133 47.182C40.1235 47.528 39.9815 47.8286 39.7863 48.0826C39.5911 48.3377 39.3304 48.5307 39.0032 48.6605C38.676 48.7903 38.2845 48.8557 37.8275 48.8557ZM37.4293 47.6057C37.5391 47.6512 37.6722 47.6744 37.8275 47.6744C37.9817 47.6744 38.1137 47.6512 38.2224 47.6057C38.3311 47.5602 38.4187 47.5003 38.4841 47.4271C38.5496 47.3528 38.6006 47.2563 38.6372 47.1365C38.6738 47.0167 38.6982 46.8969 38.7104 46.7783C38.7226 46.6585 38.7293 46.5154 38.7293 46.3501V42.3793C38.7293 42.1686 38.7182 41.9933 38.6971 41.8525C38.676 41.7116 38.635 41.5785 38.5729 41.4531C38.5119 41.3289 38.4198 41.2347 38.2967 41.1737C38.1736 41.1127 38.0172 41.0816 37.8275 41.0816C37.6378 41.0816 37.4792 41.1127 37.3561 41.1737C37.2308 41.2347 37.1376 41.3289 37.0788 41.4531C37.0189 41.5785 36.9779 41.7116 36.9568 41.8525C36.9357 41.9933 36.9258 42.1686 36.9258 42.3793V46.3501C36.9258 46.5154 36.9313 46.6585 36.9435 46.7783C36.9568 46.8969 36.9812 47.0167 37.0178 47.1365C37.0544 47.2563 37.1054 47.3528 37.1676 47.4271C37.2319 47.5003 37.3184 47.5602 37.4293 47.6057Z" fill="#4B5366"/>
<path d="M43.6447 48.8561C43.2676 48.8561 42.936 48.8084 42.6476 48.7142C42.3592 48.6188 42.1207 48.4868 41.9333 48.3182C41.7447 48.1485 41.5917 47.94 41.4741 47.6904C41.3565 47.4409 41.2733 47.1724 41.2267 46.8863C41.1791 46.599 41.1558 46.2773 41.1558 45.9191V42.87C41.1558 42.4896 41.1802 42.1535 41.229 41.8596C41.2778 41.5667 41.361 41.2939 41.4763 41.0421C41.5928 40.7914 41.7447 40.5851 41.9333 40.4232C42.1207 40.2612 42.3581 40.1348 42.6454 40.0428C42.9315 39.9518 43.2643 39.9063 43.6447 39.9063C44.0806 39.9063 44.4533 39.964 44.7627 40.0805C45.0722 40.1969 45.3162 40.3666 45.4959 40.5918C45.6745 40.8158 45.8042 41.0798 45.8852 41.3804C45.9673 41.681 46.0072 42.0304 46.0072 42.4319V43.1817H44.4721V42.4374C44.4721 42.0004 44.45 41.7087 44.4034 41.5567C44.3124 41.2617 44.0895 41.1031 43.7346 41.0831H43.6503C43.516 41.0831 43.3996 41.0976 43.2998 41.1297C43.1988 41.1619 43.1167 41.2107 43.0535 41.2795C42.9903 41.3482 42.9393 41.4215 42.9005 41.4991C42.8616 41.5756 42.8328 41.6765 42.814 41.8019C42.794 41.9272 42.7818 42.0415 42.7762 42.1479C42.7718 42.2533 42.7685 42.3864 42.7685 42.5472V46.2507C42.7685 46.7643 42.8328 47.1303 42.9615 47.3477C43.0901 47.5651 43.3186 47.6738 43.6503 47.6738C43.7623 47.6738 43.861 47.6616 43.9475 47.635C44.034 47.6083 44.1061 47.575 44.1638 47.534C44.2226 47.4952 44.2714 47.4364 44.3124 47.3599C44.3523 47.2856 44.3823 47.2157 44.4034 47.1492C44.4256 47.0848 44.4411 46.9939 44.4511 46.8774C44.4622 46.7621 44.4677 46.6633 44.4699 46.5835C44.4721 46.5025 44.4721 46.3905 44.4721 46.2507V45.4699H46.0072V46.1875C46.0072 46.5147 45.9839 46.8075 45.9385 47.0682C45.893 47.3277 45.8153 47.5717 45.7044 47.8013C45.5935 48.0298 45.4504 48.2195 45.2741 48.3703C45.0977 48.5223 44.8737 48.6399 44.5997 48.7264C44.3246 48.8129 44.0063 48.8561 43.6447 48.8561Z" fill="#4B5366"/>
<path d="M47.7481 48.7505V41.1827H46.2817V40.0059H50.7594V41.1827H49.3408V48.7505H47.7481Z" fill="#4B5366"/>
<path d="M112.461 24.5596C111.511 24.5596 111.037 24.0505 111.037 23.03H111.781C111.781 23.3284 111.831 23.5403 111.931 23.6656C112.03 23.7898 112.208 23.853 112.461 23.853C112.714 23.853 112.891 23.7898 112.991 23.6623C113.091 23.5369 113.141 23.3262 113.141 23.03H113.89C113.89 24.0505 113.414 24.5596 112.461 24.5596Z" fill="#4B5366"/>
<path d="M80.128 67.5181L69.835 77.3087C69.4479 77.6958 69.2483 77.9797 69.2483 78.7794V106.22C69.2483 106.542 69.5112 106.806 69.835 106.806H80.4674C80.7913 106.806 81.0531 106.542 81.0531 106.22V67.7643C81.0531 67.4416 80.7991 66.8504 80.128 67.5181Z" fill="#4B5366"/>
<path d="M50.4772 80.2741L40.1841 90.0635C39.7971 90.4495 39.5974 90.7345 39.5974 91.5321V106.221C39.5974 106.54 39.8603 106.804 40.1841 106.804H50.8154C51.1404 106.804 51.4022 106.54 51.4022 106.221V80.5192C51.4022 80.1953 51.1471 79.603 50.4772 80.2741Z" fill="#4B5366"/>
<path d="M84.8063 55.6446C84.8096 55.567 84.7819 55.4827 84.7187 55.4217C84.6654 55.3684 84.5956 55.344 84.529 55.3385L84.4724 55.3418L84.3881 55.3463L76.5065 57.1242L76.3645 57.1387C76.3068 57.1508 76.2535 57.1786 76.2103 57.2196C76.0938 57.3372 76.0938 57.5257 76.2103 57.6433L76.299 57.7321L78.0992 59.5322L60.2417 77.3897L51.9929 69.1409C51.8997 69.0466 51.7522 69.0466 51.6579 69.1409L49.4197 71.3803C49.4174 71.3803 49.4174 71.3825 49.4174 71.3825L36.1962 84.6015C36.1042 84.6957 36.1042 84.8466 36.1962 84.9375L38.4379 87.1769C38.5288 87.2712 38.6785 87.2712 38.7706 87.1769L51.8276 74.1232L57.8127 80.1093C57.8182 80.1182 57.8226 80.1282 57.8315 80.1382L60.0709 82.3743C60.163 82.4685 60.3116 82.4685 60.4059 82.3743L80.6735 62.1066L82.5636 63.9955C82.6789 64.113 82.8686 64.113 82.9839 63.9955C83.0394 63.94 83.066 63.8724 83.0693 63.8014L83.0716 63.777L84.8018 55.7311L84.8063 55.6446Z" fill="#4B5366"/>
<path d="M65.3612 81.9921L60.3811 87.0132C60.2868 87.0909 60.1482 87.0876 60.0605 86.9999L55.5485 82.4025C54.7233 81.5795 54.5447 82.2472 54.5447 82.57V106.218C54.5447 106.54 54.8042 106.804 55.127 106.804H65.7616C66.0844 106.804 66.3461 106.54 66.3461 106.218V82.1773C66.3461 81.8545 66.0922 81.2611 65.3612 81.9921Z" fill="#4B5366"/>
<path d="M181.004 1H121.004V61H181.004V1Z" stroke="#ABB1B9" stroke-miterlimit="10"/>
<path d="M126.921 17.2562C126.486 16.9773 126.189 16.5825 126.028 16.0726C125.867 15.562 125.787 14.924 125.787 14.1585H127.914C127.914 14.8199 127.975 15.2998 128.098 15.5977C128.221 15.895 128.462 16.0436 128.821 16.0436C129.105 16.0436 129.313 15.9495 129.446 15.7608C129.577 15.5715 129.66 15.3137 129.693 14.988C129.727 14.6618 129.743 14.1913 129.743 13.5767C129.743 12.8774 129.679 12.3552 129.552 12.01C129.424 11.6648 129.162 11.4928 128.765 11.4928C128.254 11.4928 127.928 11.838 127.786 12.5278H125.9L126.057 6.005H131.345V7.89068H127.858L127.73 10.4289C127.862 10.2685 128.089 10.1338 128.41 10.0252C128.731 9.91611 129.076 9.86155 129.446 9.86155C130.229 9.86155 130.821 10.1789 131.218 10.8119C131.615 11.4455 131.813 12.334 131.813 13.4776C131.813 14.3851 131.733 15.1389 131.572 15.7391C131.411 16.3392 131.106 16.8119 130.658 17.1571C130.209 17.5023 129.568 17.6749 128.736 17.6749C127.961 17.6749 127.356 17.5351 126.921 17.2562Z" fill="#ABB1B9"/>
<path d="M136.744 10.3877V5.99841H138.583V6.5891H137.543V10.3877H136.744Z" fill="#ABB1B9"/>
<path d="M139.007 10.3877V5.99841H140.844V6.56239H139.806V7.8223H140.627V8.38628H139.806V9.83435H140.857V10.3877H139.007Z" fill="#ABB1B9"/>
<path d="M141.315 10.3877V5.99841H142.115V7.83343H143.007V5.99841H143.806V10.3877H143.007V8.40242H142.115V10.3877H141.315Z" fill="#ABB1B9"/>
<path d="M144.205 11.2587V9.81846H144.38C144.475 9.76223 144.559 9.68596 144.63 9.59075C144.701 9.49555 144.771 9.35859 144.838 9.18043C144.905 9.00229 144.961 8.76344 145.006 8.46335C145.051 8.16327 145.085 7.80139 145.108 7.37772L145.192 5.99866H147.152V9.81846H147.615V11.2587H147.046L146.993 10.388H144.843L144.79 11.2587H144.205ZM145.121 9.81846H146.381V6.57545H145.831L145.791 7.51021C145.78 7.75351 145.765 7.97564 145.745 8.17496C145.724 8.37427 145.703 8.54241 145.681 8.68049C145.659 8.81799 145.628 8.94549 145.589 9.06242C145.551 9.18043 145.518 9.27174 145.49 9.338C145.464 9.40425 145.423 9.47217 145.372 9.54177C145.319 9.61192 145.279 9.6609 145.251 9.68985C145.222 9.71937 145.18 9.76223 145.121 9.81846Z" fill="#ABB1B9"/>
<path d="M148.038 10.3877V5.99841H149.875V6.56239H148.838V7.8223H149.658V8.38628H148.838V9.83435H149.889V10.3877H148.038Z" fill="#ABB1B9"/>
<path d="M150.338 10.388V5.99866H151.601C152.349 5.99866 152.723 6.41399 152.723 7.24575C152.723 7.6533 152.621 7.9517 152.416 8.14211C152.212 8.3314 151.923 8.42606 151.551 8.42606H151.138V10.388H150.338ZM151.138 7.86485H151.395C151.621 7.86485 151.773 7.82032 151.852 7.73124C151.932 7.64272 151.971 7.47849 151.971 7.2402C151.971 7.10434 151.966 6.99912 151.956 6.92564C151.945 6.85103 151.921 6.78366 151.882 6.72297C151.843 6.66174 151.785 6.61998 151.709 6.59716C151.632 6.57433 151.528 6.56208 151.397 6.56208H151.138V7.86485Z" fill="#ABB1B9"/>
<path d="M153.139 10.3877V5.99841H153.938V7.83343H154.83V5.99841H155.63V10.3877H154.83V8.40242H153.938V10.3877H153.139Z" fill="#ABB1B9"/>
<path d="M157.477 10.4406C157.026 10.4406 156.702 10.3181 156.506 10.0726C156.31 9.82761 156.212 9.46852 156.212 8.99528V7.37516C156.212 7.14245 156.234 6.94036 156.278 6.76888C156.323 6.59796 156.393 6.44931 156.491 6.3246C156.589 6.19933 156.72 6.10525 156.884 6.04234C157.049 5.97998 157.246 5.94824 157.477 5.94824C157.927 5.94824 158.251 6.06906 158.447 6.31124C158.644 6.55286 158.743 6.9075 158.743 7.37516V8.99528C158.743 9.22521 158.721 9.42621 158.675 9.60046C158.63 9.77417 158.559 9.92505 158.461 10.0525C158.363 10.1811 158.232 10.278 158.068 10.3426C157.904 10.4077 157.707 10.4406 157.477 10.4406ZM157.278 9.81313C157.333 9.83597 157.4 9.84822 157.477 9.84822C157.555 9.84822 157.621 9.83597 157.676 9.81313C157.73 9.79031 157.774 9.76026 157.807 9.72351C157.84 9.6862 157.865 9.63777 157.884 9.57765C157.902 9.51752 157.914 9.45795 157.921 9.39782C157.927 9.33769 157.93 9.26587 157.93 9.18347V7.18978C157.93 7.084 157.925 6.99602 157.914 6.92533C157.904 6.85461 157.883 6.78781 157.852 6.72489C157.821 6.66254 157.775 6.61578 157.713 6.5846C157.652 6.55398 157.573 6.53839 157.477 6.53839C157.382 6.53839 157.303 6.55398 157.241 6.5846C157.178 6.61578 157.132 6.66254 157.102 6.72489C157.071 6.78781 157.051 6.85461 157.041 6.92533C157.03 6.99602 157.025 7.084 157.025 7.18978V9.18347C157.025 9.26587 157.028 9.33769 157.034 9.39782C157.04 9.45795 157.053 9.51752 157.071 9.57765C157.089 9.63777 157.115 9.6862 157.147 9.72351C157.178 9.76026 157.222 9.79031 157.278 9.81313Z" fill="#ABB1B9"/>
<path d="M159.317 10.3877V5.99841H161.154V6.56239H160.116V7.8223H160.937V8.38628H160.116V9.83435H161.167V10.3877H159.317Z" fill="#ABB1B9"/>
<path d="M136.736 17.5606V13.1713H137.998C138.747 13.1713 139.121 13.5872 139.121 14.4189C139.121 14.8265 139.018 15.1249 138.813 15.3147C138.609 15.504 138.321 15.5992 137.948 15.5992H137.535V17.5606H136.736ZM137.535 15.038H137.792C138.018 15.038 138.17 14.9935 138.25 14.9044C138.329 14.8153 138.369 14.6517 138.369 14.4134C138.369 14.2775 138.364 14.1723 138.353 14.0988C138.342 14.0236 138.318 13.9568 138.279 13.8961C138.24 13.8349 138.183 13.7931 138.106 13.7698C138.029 13.747 137.925 13.7352 137.795 13.7352H137.535V15.038Z" fill="#ABB1B9"/>
<path d="M139.21 17.5608L140.102 13.172H140.936L141.826 17.5608H141.082L140.904 16.542H140.145L139.964 17.5608H139.21ZM140.229 16.0203H140.817L140.523 14.217L140.229 16.0203Z" fill="#ABB1B9"/>
<path d="M142.238 17.5605V13.1718H143.313C143.516 13.1718 143.693 13.1896 143.845 13.2263C143.997 13.2625 144.131 13.3226 144.249 13.4061C144.366 13.4896 144.454 13.6054 144.513 13.7541C144.572 13.9022 144.601 14.0815 144.599 14.2914C144.597 14.8336 144.383 15.1359 143.956 15.1994C144.47 15.2968 144.727 15.6593 144.729 16.2873C144.731 16.7043 144.627 17.0205 144.417 17.2365C144.206 17.4525 143.9 17.5605 143.498 17.5605H142.238ZM143.037 14.9611H143.287C143.522 14.9611 143.685 14.911 143.773 14.8102C143.861 14.71 143.906 14.5402 143.906 14.3019C143.906 14.1789 143.891 14.0781 143.862 14.0019C143.833 13.925 143.784 13.8671 143.715 13.8287C143.646 13.7892 143.57 13.7641 143.486 13.7513C143.402 13.7391 143.291 13.7329 143.151 13.7329H143.037V14.9611ZM143.037 16.9971H143.331C143.571 16.9971 143.737 16.9414 143.828 16.8301C143.919 16.7187 143.964 16.5356 143.964 16.2795C143.964 16.015 143.912 15.823 143.809 15.7038C143.705 15.5852 143.533 15.5251 143.289 15.5251H143.037V16.9971Z" fill="#ABB1B9"/>
<path d="M145.215 17.5607V13.1714H147.053V13.7359H146.015V14.9958H146.835V15.5593H146.015V17.0073H147.066V17.5607H145.215Z" fill="#ABB1B9"/>
<path d="M147.507 17.5607V13.1714H148.307V15.0064H149.199V13.1714H149.998V17.5607H149.199V15.5754H148.307V17.5607H147.507Z" fill="#ABB1B9"/>
<path d="M151.814 17.6136C151.624 17.6136 151.458 17.5902 151.314 17.5423C151.169 17.4944 151.049 17.4282 150.954 17.3441C150.86 17.2589 150.783 17.1543 150.724 17.0284C150.665 16.9037 150.624 16.7684 150.6 16.6248C150.576 16.4812 150.564 16.3197 150.564 16.1393V14.6088C150.564 14.4184 150.576 14.2497 150.601 14.1022C150.626 13.9552 150.667 13.8183 150.726 13.6919C150.784 13.5655 150.86 13.462 150.954 13.3807C151.049 13.2999 151.168 13.2359 151.312 13.1903C151.456 13.1446 151.623 13.1212 151.814 13.1212C152.033 13.1212 152.219 13.1502 152.375 13.2092C152.53 13.2671 152.653 13.3528 152.743 13.4653C152.833 13.5783 152.898 13.7108 152.939 13.8611C152.979 14.012 152.999 14.1879 152.999 14.3889V14.7653H152.229V14.3923C152.229 14.1729 152.218 14.0259 152.195 13.9496C152.149 13.8021 152.037 13.7225 151.859 13.7119H151.816C151.749 13.7119 151.691 13.7197 151.64 13.7353C151.59 13.7515 151.549 13.7765 151.517 13.811C151.485 13.8455 151.459 13.8817 151.44 13.9207C151.421 13.9591 151.407 14.0103 151.397 14.0733C151.387 14.1356 151.381 14.1935 151.378 14.2464C151.376 14.2993 151.374 14.3667 151.374 14.4474V16.3063C151.374 16.5636 151.407 16.7473 151.471 16.8564C151.535 16.9655 151.65 17.0206 151.816 17.0206C151.873 17.0206 151.923 17.014 151.966 17.0012C152.009 16.9878 152.045 16.9711 152.075 16.9505C152.104 16.9304 152.128 16.9015 152.149 16.8631C152.169 16.8252 152.184 16.7902 152.195 16.7573C152.205 16.7245 152.213 16.6794 152.218 16.6209C152.224 16.563 152.227 16.5135 152.228 16.4728C152.229 16.4322 152.229 16.3765 152.229 16.3063V15.9144H152.999V16.2746C152.999 16.4383 152.988 16.5853 152.965 16.7161C152.942 16.8469 152.903 16.9694 152.847 17.0847C152.792 17.1988 152.72 17.2945 152.631 17.3703C152.543 17.446 152.43 17.5056 152.293 17.549C152.155 17.5919 151.995 17.6136 151.814 17.6136Z" fill="#ABB1B9"/>
<path d="M153.955 17.5607V13.7621H153.219V13.1714H155.466V13.7621H154.754V17.5607H153.955Z" fill="#ABB1B9"/>
<path d="M155.796 17.5605V13.1718H156.871C157.074 13.1718 157.252 13.1896 157.404 13.2263C157.555 13.2625 157.69 13.3226 157.807 13.4061C157.924 13.4896 158.013 13.6054 158.072 13.7541C158.131 13.9022 158.16 14.0815 158.158 14.2914C158.156 14.8336 157.942 15.1359 157.514 15.1994C158.028 15.2968 158.286 15.6593 158.288 16.2873C158.289 16.7043 158.185 17.0205 157.975 17.2365C157.765 17.4525 157.459 17.5605 157.057 17.5605H155.796ZM156.596 14.9611H156.845C157.081 14.9611 157.244 14.911 157.332 14.8102C157.42 14.71 157.464 14.5402 157.464 14.3019C157.464 14.1789 157.449 14.0781 157.42 14.0019C157.392 13.925 157.342 13.8671 157.274 13.8287C157.205 13.7892 157.128 13.7641 157.045 13.7513C156.961 13.7391 156.849 13.7329 156.71 13.7329H156.596V14.9611ZM156.596 16.9971H156.89C157.13 16.9971 157.295 16.9414 157.386 16.8301C157.477 16.7187 157.522 16.5356 157.522 16.2795C157.522 16.015 157.471 15.823 157.368 15.7038C157.264 15.5852 157.091 15.5251 156.848 15.5251H156.596V16.9971Z" fill="#ABB1B9"/>
<path d="M159.968 17.6138C159.516 17.6138 159.192 17.4913 158.996 17.2458C158.8 17.0003 158.702 16.6417 158.702 16.1685V14.5484C158.702 14.3151 158.724 14.1136 158.768 13.9421C158.813 13.7712 158.884 13.6225 158.982 13.4973C159.08 13.372 159.21 13.2779 159.375 13.2156C159.539 13.1526 159.737 13.1215 159.968 13.1215C160.417 13.1215 160.741 13.2423 160.937 13.4839C161.135 13.7261 161.233 14.0802 161.233 14.5484V16.1685C161.233 16.3979 161.211 16.5994 161.165 16.7731C161.121 16.9474 161.049 17.0983 160.951 17.2258C160.853 17.3538 160.722 17.4507 160.558 17.5158C160.394 17.581 160.197 17.6138 159.968 17.6138ZM159.768 16.9864C159.823 17.0092 159.89 17.0209 159.968 17.0209C160.046 17.0209 160.111 17.0092 160.166 16.9864C160.22 16.9635 160.264 16.9335 160.297 16.8962C160.33 16.8594 160.356 16.811 160.374 16.7509C160.392 16.6907 160.405 16.6306 160.411 16.5705C160.417 16.5109 160.42 16.4391 160.42 16.3561V14.363C160.42 14.2572 160.415 14.1692 160.404 14.0985C160.394 14.0278 160.373 13.961 160.342 13.8981C160.311 13.8358 160.265 13.789 160.203 13.7578C160.142 13.7272 160.063 13.7116 159.968 13.7116C159.872 13.7116 159.793 13.7272 159.731 13.7578C159.668 13.789 159.622 13.8358 159.592 13.8981C159.562 13.961 159.542 14.0278 159.531 14.0985C159.521 14.1692 159.516 14.2572 159.516 14.363V16.3561C159.516 16.4391 159.518 16.5109 159.524 16.5705C159.531 16.6306 159.543 16.6907 159.561 16.7509C159.58 16.811 159.605 16.8594 159.637 16.8962C159.669 16.9335 159.713 16.9635 159.768 16.9864Z" fill="#ABB1B9"/>
<path d="M164.823 23.5236H157.302C157.251 23.5236 157.207 23.5664 157.207 23.6193V26.118C157.207 26.172 157.251 26.2149 157.302 26.2149H160.297L156.972 29.5403C155.298 28.2241 153.19 27.4369 150.899 27.4369C145.468 27.4369 141.049 31.8558 141.049 37.2873C141.049 42.2874 144.796 46.4262 149.628 47.052V49.932H146.662C146.606 49.932 146.564 49.9743 146.564 50.0267V52.7057C146.564 52.7586 146.606 52.8015 146.662 52.8015H149.628V55.6353C149.628 55.6882 149.671 55.7305 149.723 55.7305H152.401C152.454 55.7305 152.498 55.6882 152.498 55.6353V52.8015H155.463C155.517 52.8015 155.559 52.7586 155.559 52.7057V50.0267C155.559 49.9743 155.517 49.932 155.463 49.932H152.498V47.0052C157.171 46.2386 160.749 42.1744 160.749 37.2873C160.749 35.1789 160.082 33.2253 158.95 31.6219L162.227 28.3433V31.1403C162.227 31.1932 162.271 31.2361 162.325 31.2361H164.823C164.876 31.2361 164.921 31.1932 164.921 31.1403V23.6193C164.921 23.5664 164.876 23.5236 164.823 23.5236ZM150.899 44.5372C146.901 44.5372 143.65 41.2847 143.65 37.2873C143.65 33.2894 146.901 30.0363 150.899 30.0363C154.897 30.0363 158.15 33.2894 158.15 37.2873C158.15 41.2847 154.897 44.5372 150.899 44.5372Z" fill="#ABB1B9"/>
<path d="M155.328 34.311H146.534C146.481 34.311 146.438 34.35 146.438 34.3962V36.5258C146.438 36.5759 146.481 36.6126 146.534 36.6126H155.328C155.382 36.6126 155.425 36.5759 155.425 36.5258V34.3962C155.425 34.35 155.382 34.311 155.328 34.311Z" fill="#ABB1B9"/>
<path d="M155.328 38.1125H146.534C146.481 38.1125 146.438 38.1526 146.438 38.201V40.33C146.438 40.3779 146.481 40.4157 146.534 40.4157H155.328C155.382 40.4157 155.425 40.3779 155.425 40.33V38.201C155.425 38.1526 155.382 38.1125 155.328 38.1125Z" fill="#ABB1B9"/>
<path d="M126.065 68.9791C125.962 69.0351 125.66 69.1538 125.161 69.3318C124.765 69.4638 124.516 69.5531 124.413 69.6002V67.9759C124.733 67.8538 125.121 67.6653 125.578 67.4113C126.035 67.1573 126.357 66.9266 126.545 66.7192H128.254V78.1596H126.065V68.9791Z" fill="#ABB1B9"/>
<path d="M142.647 71.0845L142.718 66.7122H143.502L144.169 69.6525L144.855 66.7122H145.619L145.693 71.0845H145.1L145.058 68.2472L144.385 71.0845H143.966L143.283 68.2395L143.246 71.0845H142.647Z" fill="#ABB1B9"/>
<path d="M146.307 71.0845V66.7122H148.137V67.2745H147.103V68.5295H147.92V69.0908H147.103V70.5332H148.15V71.0845H146.307Z" fill="#ABB1B9"/>
<path d="M148.584 71.0845V66.7122H149.381V68.5395H150.269V66.7122H151.066V71.0845H150.269V69.1068H149.381V71.0845H148.584Z" fill="#ABB1B9"/>
<path d="M151.703 71.0843V66.7125H152.499V68.5426H152.652C152.887 68.5426 153.089 68.5637 153.254 68.6048C153.421 68.6458 153.564 68.7151 153.683 68.8116C153.802 68.9087 153.89 69.0384 153.948 69.202C154.005 69.3656 154.034 69.5669 154.034 69.8054C154.034 70.0483 154.003 70.2535 153.941 70.4216C153.88 70.5896 153.786 70.721 153.661 70.817C153.535 70.9129 153.389 70.9817 153.224 71.0227C153.059 71.0643 152.862 71.0843 152.634 71.0843H151.703V71.0843ZM152.499 70.5413H152.636C152.756 70.5413 152.855 70.5314 152.933 70.5097C153.011 70.4887 153.078 70.4509 153.135 70.3966C153.191 70.3423 153.232 70.2657 153.256 70.1687C153.281 70.0711 153.292 69.9463 153.29 69.7954C153.289 69.5492 153.239 69.3717 153.143 69.2625C153.046 69.1538 152.873 69.0994 152.626 69.0994H152.499V70.5413V70.5413Z" fill="#ABB1B9"/>
<path d="M154.503 71.0845V66.7122H155.275V70.5149H155.924V66.7122H156.694V70.5149H157.313V66.7122H158.086V71.0845H154.503Z" fill="#ABB1B9"/>
<path d="M158.716 71.0845V66.7122H160.546V67.2745H159.512V68.5295H160.329V69.0908H159.512V70.5332H160.559V71.0845H158.716Z" fill="#ABB1B9"/>
<path d="M160.993 71.0845V66.7122H161.79V68.5395H162.678V66.7122H163.475V71.0845H162.678V69.1068H161.79V71.0845H160.993Z" fill="#ABB1B9"/>
<path d="M164.112 71.0845V66.7122H164.774V69.4446L165.96 66.7122H166.504V71.0845H165.834V68.2999L164.644 71.0845H164.112Z" fill="#ABB1B9"/>
<path d="M167.133 71.0845V66.7122H168.963V67.2745H167.929V68.5295H168.747V69.0908H167.929V70.5332H168.976V71.0845H167.133Z" fill="#ABB1B9"/>
<path d="M181.004 61H121.004V121H181.004V61Z" stroke="#ABB1B9" stroke-miterlimit="10"/>
<path d="M121 1H1V121H121V1Z" stroke="#4B5366" stroke-miterlimit="10"/>
<path d="M130.168 77.4606C129.646 76.8628 129.384 76.0597 129.384 75.0521V69.9255C129.384 68.8801 129.639 68.0588 130.147 67.4604C130.656 66.8626 131.423 66.5637 132.449 66.5637C133.466 66.5637 134.229 66.8626 134.737 67.4604C135.246 68.0588 135.5 68.8801 135.5 69.9255V75.0521C135.5 76.0509 135.237 76.8511 134.709 77.4534C134.182 78.0562 133.429 78.3574 132.449 78.3574C131.451 78.3574 130.691 78.0584 130.168 77.4606ZM133.283 75.0099V69.9677C133.283 69.544 133.229 69.1907 133.12 68.9079C133.012 68.6261 132.789 68.4847 132.449 68.4847C132.092 68.4847 131.861 68.6239 131.757 68.9018C131.653 69.1791 131.602 69.5345 131.602 69.9677V75.0099C131.602 75.961 131.885 76.4363 132.449 76.4363C133.004 76.4363 133.283 75.961 133.283 75.0099Z" fill="#ABB1B9"/>
<path d="M139.966 71.8494V71.2854C140.306 71.3115 140.526 71.2749 140.628 71.1756C140.73 71.0763 140.75 70.8933 140.688 70.6255L139.787 66.7123H140.53L140.889 68.5297L141.079 69.8191L141.237 68.5347L141.548 66.7123H142.305L141.477 70.6914C141.419 70.9682 141.37 71.1662 141.328 71.286C141.287 71.4069 141.214 71.5222 141.108 71.632C141.002 71.7418 140.863 71.8089 140.688 71.8339C140.515 71.8583 140.274 71.8633 139.966 71.8494Z" fill="#ABB1B9"/>
<path d="M140.019 78.2299V73.8576H140.815V75.6855H141.704V73.8576H142.501V78.2299H141.704V76.2523H140.815V78.2299H140.019Z" fill="#ABB1B9"/>
<path d="M143.054 78.2299V73.8576H144.885V74.4199H143.851V75.6744H144.668V76.2362H143.851V77.6787H144.898V78.2299H143.054Z" fill="#ABB1B9"/>
<path d="M145.248 78.2299V73.8575H146.506C147.251 73.8575 147.624 74.2718 147.624 75.0998C147.624 75.5063 147.522 75.8036 147.318 75.9927C147.114 76.1812 146.827 76.2761 146.456 76.2761H146.044V78.2299H145.248V78.2299ZM146.044 75.717H146.3C146.525 75.717 146.677 75.6727 146.757 75.584C146.836 75.4952 146.875 75.3316 146.875 75.0948C146.875 74.9595 146.87 74.8547 146.859 74.7809C146.849 74.7066 146.824 74.6395 146.785 74.5791C146.747 74.5186 146.689 74.477 146.613 74.4537C146.536 74.431 146.433 74.4193 146.303 74.4193H146.044V75.717Z" fill="#ABB1B9"/>
<path d="M147.632 78.2296L148.521 73.8578H149.352L150.237 78.2296H149.497L149.32 77.2147H148.563L148.384 78.2296H147.632ZM148.648 76.6951H149.233L148.94 74.8994L148.648 76.6951Z" fill="#ABB1B9"/>
<path d="M150.567 78.23V73.8582H151.638C151.84 73.8582 152.016 73.8754 152.168 73.912C152.319 73.9481 152.453 74.008 152.57 74.0911C152.687 74.1749 152.774 74.2902 152.833 74.4378C152.892 74.5858 152.921 74.7638 152.92 74.9729C152.917 75.5131 152.704 75.8142 152.279 75.878C152.79 75.9745 153.047 76.3361 153.048 76.9611C153.05 77.3765 152.946 77.6915 152.738 77.9067C152.528 78.1224 152.223 78.23 151.822 78.23H150.567V78.23ZM151.364 75.6401H151.611C151.847 75.6401 152.009 75.5902 152.097 75.4898C152.184 75.39 152.229 75.2214 152.229 74.984C152.229 74.8609 152.214 74.7611 152.185 74.6846C152.156 74.608 152.107 74.5503 152.039 74.5121C151.97 74.4732 151.894 74.4477 151.811 74.4355C151.727 74.4233 151.616 74.4167 151.477 74.4167H151.364V75.6401V75.6401ZM151.364 77.6682H151.656C151.895 77.6682 152.06 77.6133 152.15 77.5024C152.241 77.3909 152.286 77.2084 152.286 76.9533C152.286 76.6899 152.235 76.4986 152.132 76.3799C152.029 76.2618 151.857 76.2019 151.614 76.2019H151.364V77.6682V77.6682Z" fill="#ABB1B9"/>
<path d="M153.452 78.2299V73.8576H155.282V74.4199H154.249V75.6744H155.066V76.2362H154.249V77.6787H155.296V78.2299H153.452Z" fill="#ABB1B9"/>
<path d="M155.654 78.2299V73.8576H156.451V75.6855H157.339V73.8576H158.135V78.2299H157.339V76.2523H156.451V78.2299H155.654Z" fill="#ABB1B9"/>
<path d="M159.863 78.2826C159.674 78.2826 159.508 78.2588 159.365 78.2117C159.22 78.164 159.101 78.098 159.007 78.0137C158.913 77.9294 158.836 77.8246 158.777 77.6998C158.719 77.5756 158.677 77.4408 158.654 77.2977C158.63 77.1546 158.618 76.9933 158.618 76.8141V75.2896C158.618 75.0994 158.63 74.9313 158.655 74.7849C158.68 74.6385 158.721 74.5015 158.779 74.3762C158.837 74.2503 158.913 74.1472 159.007 74.0662C159.101 73.9852 159.219 73.922 159.363 73.8765C159.506 73.8305 159.673 73.8077 159.863 73.8077C160.081 73.8077 160.267 73.8366 160.422 73.8948C160.576 73.9531 160.699 74.0379 160.788 74.1505C160.878 74.2631 160.943 74.3945 160.983 74.5448C161.024 74.6951 161.044 74.8703 161.044 75.0705V75.4454H160.277V75.0733C160.277 74.8553 160.266 74.7089 160.243 74.633C160.197 74.4854 160.085 74.4067 159.908 74.3962H159.865C159.798 74.3962 159.74 74.4034 159.69 74.4195C159.64 74.4355 159.599 74.4599 159.568 74.4949C159.535 74.5293 159.51 74.5653 159.491 74.6041C159.472 74.6424 159.457 74.6934 159.447 74.7561C159.438 74.8182 159.432 74.8759 159.429 74.9286C159.427 74.9812 159.425 75.0484 159.425 75.1288V76.9799C159.425 77.2367 159.457 77.4197 159.521 77.5284C159.585 77.6371 159.7 77.692 159.865 77.692C159.921 77.692 159.971 77.6854 160.015 77.6721C160.057 77.6587 160.093 77.6421 160.123 77.6222C160.152 77.6022 160.176 77.5733 160.197 77.5351C160.216 77.4974 160.232 77.4624 160.243 77.4297C160.253 77.397 160.261 77.3515 160.266 77.2938C160.271 77.2356 160.275 77.1868 160.275 77.1463C160.276 77.1058 160.277 77.0504 160.277 76.9799V76.5895H161.044V76.9483C161.044 77.1119 161.033 77.2583 161.01 77.3887C160.987 77.519 160.948 77.641 160.893 77.7552C160.837 77.8695 160.765 77.9643 160.677 78.0397C160.59 78.1157 160.477 78.1751 160.34 78.2183C160.203 78.261 160.043 78.2826 159.863 78.2826Z" fill="#ABB1B9"/>
<path d="M161.915 78.2299V74.446H161.181V73.8576H163.42V74.446H162.711V78.2299H161.915Z" fill="#ABB1B9"/>
<path d="M163.667 78.23V73.8582H164.738C164.941 73.8582 165.117 73.8754 165.269 73.912C165.419 73.9481 165.554 74.008 165.671 74.0911C165.788 74.1749 165.875 74.2902 165.934 74.4378C165.993 74.5858 166.022 74.7638 166.021 74.9729C166.018 75.5131 165.805 75.8142 165.379 75.878C165.891 75.9745 166.148 76.3361 166.149 76.9611C166.151 77.3765 166.047 77.6915 165.838 77.9067C165.628 78.1224 165.323 78.23 164.923 78.23H163.667V78.23ZM164.464 75.6401H164.712C164.947 75.6401 165.11 75.5902 165.198 75.4898C165.285 75.39 165.329 75.2214 165.329 74.984C165.329 74.8609 165.315 74.7611 165.286 74.6846C165.257 74.608 165.208 74.5503 165.139 74.5121C165.071 74.4732 164.995 74.4477 164.911 74.4355C164.828 74.4233 164.716 74.4167 164.578 74.4167H164.464V75.6401ZM164.464 77.6682H164.757C164.996 77.6682 165.161 77.6133 165.251 77.5024C165.342 77.3909 165.387 77.2084 165.387 76.9533C165.387 76.6899 165.336 76.4986 165.233 76.3799C165.13 76.2618 164.957 76.2019 164.715 76.2019H164.464V77.6682Z" fill="#ABB1B9"/>
<path d="M166.326 78.2296L167.215 73.8578H168.046L168.931 78.2296H168.19L168.014 77.2147H167.258L167.078 78.2296H166.326ZM167.341 76.6951H167.927L167.634 74.8994L167.341 76.6951Z" fill="#ABB1B9"/>
<path d="M156.571 100.872H145.521C145.454 100.872 145.401 100.932 145.401 101.006V104.327C145.401 104.402 145.454 104.462 145.521 104.462H156.571C156.639 104.462 156.692 104.402 156.692 104.327V101.006C156.692 100.932 156.639 100.872 156.571 100.872Z" fill="#ABB1B9"/>
<path d="M156.571 93.8056H145.521C145.454 93.8056 145.401 93.8661 145.401 93.9398V97.2612C145.401 97.3361 145.454 97.3954 145.521 97.3954H156.571C156.639 97.3954 156.692 97.3361 156.692 97.2612V93.9398C156.692 93.8661 156.639 93.8056 156.571 93.8056Z" fill="#ABB1B9"/>
<path d="M156.416 88.7856L151.112 83.4822C151.076 83.4461 151.018 83.4461 150.982 83.4822L145.678 88.7856C145.62 88.8433 145.661 88.942 145.743 88.942H156.351C156.432 88.942 156.473 88.8433 156.416 88.7856Z" fill="#ABB1B9"/>
<path d="M161.395 104.502L166.699 99.1984C166.734 99.1629 166.734 99.1047 166.699 99.0687L161.395 93.7647C161.337 93.707 161.238 93.748 161.238 93.8301V104.438C161.238 104.519 161.337 104.56 161.395 104.502Z" fill="#ABB1B9"/>
<path d="M145.678 109.482L150.981 114.786C151.017 114.821 151.076 114.821 151.112 114.786L156.416 109.482C156.473 109.424 156.432 109.325 156.35 109.325H145.742C145.661 109.325 145.62 109.424 145.678 109.482Z" fill="#ABB1B9"/>
<path d="M140.699 93.765L135.395 99.069C135.359 99.1045 135.359 99.1627 135.395 99.1988L140.699 104.503C140.756 104.56 140.855 104.519 140.855 104.437V93.8299C140.855 93.7483 140.756 93.7073 140.699 93.765Z" fill="#ABB1B9"/>
</svg>
