<svg viewBox="0 0 84 84" fill="none" xmlns="http://www.w3.org/2000/svg">
<rect x="0.5" y="0.5" width="83" height="83" rx="41.5" fill="#5FAF2D" stroke="#5FAF2D"/>
<path d="M42.6921 61.9964C34.537 62.1429 27.0657 57.5038 23.3055 50.1301C22.5731 48.6651 23.2079 46.8583 24.6728 46.3211C25.8937 45.8816 27.261 46.3699 27.847 47.5908C30.6793 53.1577 36.3927 56.7225 42.5944 56.6248C48.7962 56.5271 54.3631 52.767 57 47.1024C57.5372 45.8816 58.9045 45.3445 60.1253 45.7351C61.6392 46.2234 62.3228 48.0303 61.6391 49.4952C58.1232 56.9666 50.8471 61.8499 42.6921 61.9964Z" fill="white"/>
<path d="M52.1882 39.1403C51.944 36.4056 50.7232 34.257 48.7211 32.9385C47.0119 31.8154 44.7656 31.2782 41.9822 31.327H41.6892L38.9545 31.3759L38.8569 26.9321L47.5979 26.7856C48.9164 26.7856 49.9419 25.7113 49.9419 24.3928C49.9419 23.0743 48.8187 22 47.5491 22L36.4152 22.2442C35.0968 22.2442 34.0713 23.3673 34.0713 24.7346L34.2178 33.7687C34.2178 35.136 35.3409 36.2103 36.6594 36.2103L42.1775 36.1126C45.8399 36.0638 47.0608 37.7729 47.1096 39.5797C47.1584 41.3377 46.2794 44.2188 42.4217 44.2677C39.2475 44.3165 37.2942 42.119 36.9036 41.7772C35.6828 40.7029 34.5108 40.8006 33.7295 41.5331C32.7528 42.4609 32.8993 43.7794 33.5341 44.7072C34.2666 45.8303 37.1477 49.2974 42.5681 49.1998C45.6446 49.1509 48.2816 47.979 50.1372 45.8792C51.6022 44.0235 52.4323 41.5819 52.1882 39.1403Z" fill="white"/>
</svg>
