<svg viewBox="0 0 109 79" fill="none" xmlns="http://www.w3.org/2000/svg">
<path d="M28.3242 27.2105C24.6342 28.5314 23.3696 27.3322 22.3129 24.3776L20.9443 20.5715C19.6277 16.8696 20.823 15.6008 23.7681 14.5407L27.562 13.1677C31.2519 11.8468 32.5166 13.046 33.5733 16.0006L34.9419 19.8067C36.2585 23.5086 35.0632 24.7773 32.1181 25.8375L28.3242 27.2105Z" fill="#FF4F3E"/>
<path d="M45.059 27.2105C48.749 28.5314 50.0136 27.3322 51.0704 24.3776L52.439 20.5715C53.7556 16.8696 52.5602 15.6008 49.6152 14.5407L45.8213 13.1677C42.1313 11.8468 40.8667 13.046 39.8099 16.0006L38.4414 19.8067C37.1247 23.5086 38.3201 24.7773 41.2651 25.8375L45.059 27.2105Z" fill="#FABC22"/>
<path d="M63.2842 27.2105C59.5942 28.5488 58.3296 27.3322 57.2728 24.3776L55.9042 20.5715C54.5876 16.8696 55.783 15.6008 58.728 14.5407L62.5219 13.1677C66.2119 11.8468 67.4765 13.046 68.5333 16.0006L69.9019 19.8067C71.2185 23.5086 70.0231 24.7774 67.0781 25.8375L63.2842 27.2105Z" fill="#06C92E"/>
<path d="M80.0014 27.2105C83.6914 28.5314 84.956 27.3322 86.0128 24.3776L87.3813 20.5715C88.6979 16.8696 87.5026 15.6008 84.5576 14.5407L80.7637 13.1677C77.0737 11.8468 75.8091 13.046 74.7523 16.0006L73.3837 19.8067C72.0671 23.5086 73.2625 24.7773 76.2075 25.8375L80.0014 27.2105Z" fill="#00C2FC"/>
<path d="M15.4527 50.2038C15.4527 50.3254 15.4354 50.4297 15.3834 50.534C15.3488 50.6382 15.2795 50.7425 15.1928 50.812C15.1062 50.8989 15.0196 50.9511 14.9157 51.0032C14.8117 51.0554 14.6904 51.0727 14.5865 51.0727H13.0967C12.9754 51.0727 12.8714 51.0554 12.7675 51.0032C12.6636 50.9685 12.5596 50.8989 12.4903 50.812C12.421 50.7251 12.3517 50.6382 12.2998 50.534C12.2478 50.4297 12.2305 50.308 12.2305 50.2038V46.3802C12.2305 46.2586 12.2478 46.1543 12.2998 46.05C12.3517 45.9457 12.4037 45.8414 12.4903 45.7719C12.5769 45.685 12.6636 45.6329 12.7675 45.5807C12.8714 45.546 12.9927 45.5112 13.0967 45.5112H13.5644C13.7896 45.2158 13.9628 44.9029 14.1014 44.5553C14.2574 44.1556 14.3959 43.7559 14.4999 43.3388C14.6038 42.8869 14.6904 42.435 14.7771 41.9658C14.8464 41.4965 14.8983 41.0272 14.933 40.5406L15.0196 39.1676C15.0369 38.9243 15.1409 38.6984 15.3141 38.5419C15.4007 38.455 15.5047 38.4029 15.6086 38.3508C15.7125 38.2986 15.8338 38.2812 15.9551 38.2812H22.4688C22.5901 38.2812 22.694 38.2986 22.8153 38.3508C22.9192 38.4029 23.0232 38.455 23.1098 38.5419C23.1964 38.6288 23.2484 38.7157 23.3004 38.8374C23.3523 38.9417 23.3697 39.0633 23.3697 39.185V45.5286H24.2185C24.3398 45.5286 24.4437 45.546 24.5477 45.5981C24.6516 45.6329 24.7556 45.7024 24.8249 45.7893C24.9115 45.8762 24.9635 45.9631 25.0154 46.0674C25.0674 46.1717 25.0847 46.2933 25.0847 46.3976V50.2211C25.0847 50.3428 25.0674 50.4471 25.0154 50.5514C24.9808 50.6556 24.9115 50.7599 24.8249 50.8294C24.7382 50.9163 24.6516 50.9685 24.5477 51.0206C24.4437 51.0727 24.3225 51.0901 24.2185 51.0901H22.694C22.5728 51.0901 22.4688 51.0727 22.3649 51.0206C22.2609 50.9858 22.157 50.9163 22.0877 50.8294C22.0011 50.7425 21.9491 50.6556 21.8971 50.5514C21.8452 50.4471 21.8278 50.3254 21.8278 50.2211V48.7612H15.4527V50.2038ZM19.8356 41.566H18.2938L18.2591 41.9831C18.1899 42.7305 18.0339 43.4604 17.8261 44.173C17.6875 44.6422 17.4796 45.0941 17.2197 45.5286H19.8529V41.566H19.8356Z" fill="#0073E6"/>
<path d="M29.5718 44.6943C29.7278 45.1636 30.0569 45.5633 30.49 45.7893C30.9578 46.0326 31.4775 46.1542 32.0145 46.1368C32.361 46.1368 32.6901 46.1195 33.0366 46.0673C33.3311 46.0152 33.6083 45.9457 33.8855 45.8414C34.0414 45.7893 34.2146 45.7545 34.3879 45.7545C34.5611 45.7545 34.717 45.7893 34.8729 45.8762C35.0115 45.9631 35.1328 46.0847 35.2021 46.2411L35.5486 46.9885C35.6179 47.1101 35.6525 47.2665 35.6525 47.4056C35.6525 47.562 35.6179 47.7184 35.5486 47.8401C35.4793 47.9791 35.358 48.0834 35.2367 48.1703C34.665 48.5005 34.0414 48.7438 33.4004 48.8828C32.8114 48.9871 32.2224 49.0393 31.6334 49.0393C30.8365 49.0566 30.0396 48.9176 29.2947 48.6395C28.6364 48.3962 28.03 48.0139 27.5276 47.5272C27.0252 47.0406 26.6441 46.4323 26.3843 45.7893C26.1071 45.0767 25.9685 44.312 25.9858 43.5299C25.9858 42.7999 26.1244 42.07 26.3843 41.4096C26.6441 40.7491 27.0252 40.1408 27.5276 39.6368C28.03 39.1154 28.6364 38.7157 29.2947 38.455C30.0396 38.1595 30.8365 38.0205 31.6334 38.0205C32.2917 38.0205 32.9327 38.1422 33.539 38.3681C34.1453 38.594 34.6824 38.9416 35.1501 39.3761C35.6179 39.8106 35.999 40.3494 36.2588 40.9229C36.536 41.566 36.6919 42.2438 36.6746 42.939C36.6746 43.2866 36.6573 43.6342 36.6053 43.9818C36.5707 44.1729 36.4667 44.3294 36.3108 44.4684C36.1722 44.6074 35.999 44.6769 35.8084 44.6943H29.5718ZM33.2098 42.3654C33.2098 42.0005 33.0539 41.6355 32.7768 41.3748C32.6035 41.2184 32.413 41.0967 32.1877 41.0098C31.9625 40.9403 31.7373 40.9055 31.5121 40.9229C31.0444 40.8882 30.5593 41.0098 30.1609 41.2705C29.8317 41.5486 29.5892 41.9136 29.4506 42.3307L33.2098 42.3654Z" fill="#0073E6"/>
<path d="M41.4728 48.7437C41.3516 48.7437 41.2476 48.7263 41.1437 48.6741C41.0397 48.622 40.9358 48.5699 40.8665 48.483C40.7799 48.3961 40.7279 48.3092 40.6759 48.2049C40.624 48.1006 40.6066 47.979 40.6066 47.8747V41.7744H38.4931C38.3719 41.7744 38.2679 41.757 38.164 41.7049C38.06 41.6701 37.9561 41.6006 37.8868 41.5137C37.8002 41.4268 37.7482 41.3399 37.6962 41.2356C37.6443 41.1313 37.627 41.0097 37.627 40.9054V39.1674C37.627 39.0458 37.6443 38.9415 37.6962 38.8198C37.7482 38.7155 37.8002 38.6113 37.8868 38.5244C37.9734 38.4375 38.06 38.3853 38.1813 38.3332C38.2853 38.2811 38.4065 38.2637 38.5278 38.2637H46.2715C46.3928 38.2637 46.4967 38.2811 46.6007 38.3332C46.7046 38.3853 46.8086 38.4375 46.8779 38.5244C46.9645 38.6113 47.0164 38.6982 47.0684 38.8024C47.1204 38.9067 47.1377 39.0284 47.1377 39.1327V40.8706C47.1377 40.9923 47.1204 41.0966 47.0684 41.2009C47.0164 41.3051 46.9645 41.4094 46.8779 41.4789C46.7912 41.5658 46.7046 41.618 46.6007 41.6701C46.4967 41.7222 46.3755 41.7396 46.2715 41.7396H44.158V47.8225C44.158 47.9442 44.1407 48.0485 44.0887 48.1528C44.0541 48.257 43.9848 48.3613 43.8982 48.4308C43.8115 48.5177 43.7249 48.5699 43.621 48.622C43.517 48.6741 43.3958 48.6915 43.2918 48.6915H43.2745L41.4728 48.7437Z" fill="#0073E6"/>
<path d="M55.5402 41.7052C55.0552 41.4445 54.5008 41.3055 53.9464 41.2881C53.6693 41.2881 53.3921 41.3402 53.1322 41.4271C52.8724 41.514 52.6298 41.6705 52.4219 41.8616C52.1967 42.0528 52.0235 42.2961 51.9022 42.5742C51.7636 42.887 51.6943 43.2173 51.7117 43.5475C51.7117 43.8777 51.781 44.2079 51.9196 44.5034C52.0581 44.7641 52.2314 45.0074 52.4566 45.2159C52.8897 45.5983 53.4441 45.8068 54.0157 45.8068C54.5874 45.7895 55.1591 45.6157 55.6442 45.3028C55.8347 45.1638 56.0599 45.0943 56.2852 45.0943C56.4237 45.0943 56.5623 45.129 56.6836 45.1812C56.8049 45.2507 56.9088 45.3376 56.9954 45.4419L57.7057 46.3978C57.827 46.5542 57.8963 46.7453 57.8963 46.9539C57.8963 47.0929 57.8616 47.2494 57.8097 47.371C57.7404 47.4927 57.6537 47.6143 57.5325 47.7012C56.9608 48.1879 56.2852 48.5702 55.5576 48.7962C54.9859 48.9526 54.3795 49.0395 53.7905 49.0569C52.9763 49.0742 52.1621 48.9352 51.3998 48.6571C50.7242 48.4138 50.1006 48.0314 49.5635 47.5448C49.0611 47.0582 48.6627 46.4673 48.4028 45.8068C48.1256 45.0943 47.9871 44.3296 48.0044 43.5475C48.0044 42.8175 48.143 42.105 48.4028 41.4271C48.6627 40.7667 49.0438 40.1584 49.5289 39.6544C50.0139 39.1504 50.6203 38.7507 51.2613 38.4726C51.9715 38.1771 52.7338 38.0381 53.5133 38.0381C54.137 38.0381 54.778 38.0902 55.3843 38.2293C56.008 38.3857 56.6143 38.6464 57.1513 39.0287C57.3073 39.0983 57.4285 39.2199 57.5151 39.3589C57.6018 39.498 57.6537 39.6718 57.6537 39.8282C57.6537 39.9846 57.6018 40.141 57.5151 40.2801L56.8395 41.3924C56.7702 41.5314 56.649 41.6531 56.5104 41.74C56.3718 41.8269 56.2159 41.8616 56.0426 41.8616C55.8694 41.8269 55.6961 41.7921 55.5402 41.7052Z" fill="#0073E6"/>
<path d="M63.3183 43.7559V47.8749C63.3183 47.9965 63.301 48.1008 63.249 48.2051C63.2143 48.3094 63.145 48.4136 63.0584 48.4832C62.9718 48.5701 62.8852 48.6222 62.7812 48.6743C62.6773 48.7265 62.556 48.7439 62.4521 48.7439H60.7197C60.5984 48.7439 60.4945 48.7265 60.3906 48.6743C60.2866 48.6222 60.1827 48.5701 60.1134 48.4832C60.0268 48.3963 59.9575 48.3094 59.9228 48.1877C59.8708 48.0834 59.8535 47.9618 59.8535 47.8401V39.1502C59.8535 39.0286 59.8708 38.9243 59.9228 38.82C59.9575 38.7157 60.0268 38.6115 60.1134 38.5419C60.2 38.455 60.2866 38.4029 60.3906 38.3508C60.4945 38.2986 60.6158 38.2812 60.7197 38.2812H62.4521C62.5734 38.2812 62.6773 38.2986 62.7986 38.3508C62.9025 38.4029 63.0065 38.455 63.0931 38.5419C63.1797 38.6288 63.2317 38.7157 63.2836 38.8374C63.3356 38.9417 63.3529 39.0633 63.3529 39.185V42.8521L66.0381 38.8722C66.1594 38.6984 66.3326 38.5593 66.5059 38.455C66.6964 38.3508 66.9043 38.2986 67.1295 38.2986H68.7406C68.8619 38.2986 68.9832 38.316 69.1044 38.3681C69.2084 38.4203 69.3123 38.4898 69.3989 38.5767C69.5549 38.7505 69.6588 38.9764 69.6588 39.2024C69.6588 39.3936 69.5895 39.5847 69.4682 39.7411L66.9909 42.9912L68.1343 44.5553C68.4288 45.0246 68.8792 45.3722 69.3989 45.546C69.6761 45.5807 69.9187 45.7024 70.1092 45.8936C70.2478 46.1195 70.2998 46.3976 70.2825 46.6583V48.0834C70.2825 48.2746 70.2132 48.4484 70.0746 48.5874C69.9533 48.7439 69.7801 48.8308 69.5895 48.8655C69.4682 48.8655 69.347 48.9003 69.243 48.9003C69.1218 48.9003 69.0178 48.9003 68.8966 48.9003C68.602 48.9003 68.3075 48.8655 68.0304 48.8134C67.7185 48.7439 67.4067 48.6222 67.1295 48.4658C66.8004 48.2746 66.4885 48.0487 66.2287 47.788C65.8822 47.4404 65.5704 47.058 65.3105 46.6409L63.3183 43.7559Z" fill="#0073E6"/>
<path d="M80.2785 48.7612C80.1572 48.7612 80.0533 48.7439 79.9493 48.6917C79.8454 48.6396 79.7414 48.5874 79.6722 48.5005C79.5855 48.4136 79.5336 48.3268 79.4816 48.2225C79.4296 48.1182 79.4123 47.9965 79.4123 47.8923V43.2866L76.1034 48.1703C75.9822 48.3441 75.8436 48.4832 75.6703 48.5874C75.4971 48.6917 75.3065 48.7612 75.0987 48.7439H73.1064C72.9852 48.7439 72.8812 48.7265 72.7773 48.6743C72.6733 48.6222 72.5694 48.5701 72.5001 48.4832C72.4135 48.3963 72.3442 48.3094 72.3095 48.1877C72.2576 48.0834 72.2402 47.9618 72.2402 47.8401V39.1502C72.2402 39.0286 72.2576 38.9243 72.3095 38.82C72.3442 38.7157 72.4135 38.6115 72.5001 38.5419C72.5867 38.455 72.6733 38.4029 72.7773 38.3508C72.8812 38.2986 73.0025 38.2812 73.1064 38.2812H74.8388C74.9601 38.2812 75.064 38.2986 75.1853 38.3508C75.2892 38.4029 75.3932 38.455 75.4798 38.5419C75.5664 38.6288 75.6184 38.7157 75.6703 38.8374C75.7223 38.9417 75.7396 39.0633 75.7396 39.185V43.7559L79.0485 38.8722C79.1698 38.7157 79.3084 38.5767 79.4643 38.455C79.6202 38.3508 79.8281 38.2813 80.0186 38.2986H82.0282C82.1495 38.2986 82.2534 38.316 82.3747 38.3681C82.4786 38.4203 82.5826 38.4724 82.6692 38.5593C82.7558 38.6462 82.8078 38.7331 82.8597 38.8548C82.9117 38.9591 82.929 39.0807 82.929 39.2024V47.8923C82.929 48.0139 82.9117 48.1182 82.8597 48.2225C82.8078 48.3268 82.7558 48.431 82.6692 48.5005C82.5826 48.5874 82.4959 48.6396 82.392 48.6917C82.288 48.7439 82.1668 48.7612 82.0628 48.7612H82.0455H80.2785Z" fill="#0073E6"/>
<path d="M93.479 48.7616C93.3577 48.7616 93.2537 48.7442 93.1498 48.692C93.0459 48.6399 92.9419 48.5878 92.8726 48.5009C92.786 48.414 92.734 48.3271 92.6821 48.2228C92.6301 48.1185 92.6128 47.9968 92.6128 47.8926V43.2869L89.3039 48.1706C89.1826 48.3444 89.044 48.4835 88.8708 48.5878C88.6976 48.692 88.507 48.7616 88.2991 48.7442H86.3242C86.2029 48.7442 86.099 48.7268 85.995 48.6747C85.8911 48.6399 85.7872 48.5704 85.7179 48.4835C85.6312 48.3966 85.5793 48.3097 85.5273 48.2054C85.4753 48.1011 85.458 47.9795 85.458 47.8752V39.1853C85.458 39.0636 85.4753 38.9594 85.5273 38.8377C85.5793 38.7334 85.6312 38.6292 85.7179 38.5423C85.8045 38.4554 85.8911 38.4032 86.0124 38.3511C86.1163 38.2989 86.2376 38.2816 86.3589 38.2816H88.0739C88.1952 38.2816 88.2991 38.2989 88.4204 38.3511C88.5243 38.4032 88.6283 38.4554 88.7149 38.5423C88.8015 38.6292 88.8535 38.7161 88.9055 38.8377C88.9574 38.942 88.9747 39.0636 88.9747 39.1853V43.7562L92.2836 38.8725C92.4049 38.7161 92.5435 38.577 92.6994 38.4554C92.8553 38.3511 93.0632 38.2816 93.2537 38.2989H95.2633C95.3846 38.2989 95.4885 38.3163 95.6098 38.3685C95.7137 38.4206 95.8177 38.4727 95.9043 38.5596C95.9909 38.6465 96.0429 38.7334 96.0949 38.8551C96.1468 38.9594 96.1641 39.081 96.1641 39.2027V47.8926C96.1641 48.0142 96.1468 48.1185 96.0949 48.2228C96.0602 48.3271 95.9909 48.4313 95.9043 48.5009C95.8177 48.5878 95.7311 48.6399 95.6271 48.692C95.5232 48.7442 95.4019 48.7616 95.298 48.7616H95.2806H93.479ZM92.9766 33.7281C93.1671 33.7107 93.375 33.7454 93.5483 33.815C93.7388 33.8845 93.8947 33.9888 94.0333 34.1278C94.2759 34.4059 94.3971 34.7708 94.3798 35.1532C94.3798 35.466 94.2932 35.7615 94.1373 36.0396C93.9814 36.3003 93.7561 36.5262 93.4963 36.6826C92.9073 37.0997 92.0238 37.3083 90.8457 37.3083C89.5464 37.3083 88.6109 37.0997 88.0566 36.6826C87.7967 36.5088 87.5888 36.2829 87.4503 36.0222C87.2943 35.7615 87.225 35.4487 87.225 35.1532C87.2077 34.7708 87.3463 34.4059 87.5715 34.1278C87.7101 33.9888 87.866 33.8845 88.0566 33.815C88.2471 33.7454 88.4377 33.7281 88.6283 33.7454C88.9401 33.7107 89.2519 33.7976 89.5118 33.9888C89.7024 34.1626 89.8409 34.3711 89.9102 34.6144C89.9795 34.8056 90.0835 34.9794 90.2394 35.1358C90.4126 35.2922 90.6552 35.3618 90.8804 35.3444C90.9843 35.3444 91.0883 35.3444 91.1922 35.3096C91.2962 35.2749 91.3828 35.2227 91.4694 35.1532C91.608 34.9968 91.7119 34.823 91.7639 34.6318C91.8332 34.3885 91.9718 34.1626 92.1623 34.0061C92.3876 33.7976 92.6821 33.7107 92.9766 33.7281Z" fill="#0073E6"/>
<path d="M38.1991 65.3415C38.1991 65.4631 38.1818 65.5674 38.1298 65.6717C38.0952 65.776 38.0259 65.8803 37.9393 65.9498C37.8527 66.0367 37.766 66.0888 37.6621 66.141C37.5582 66.1931 37.4369 66.2105 37.3329 66.2105H35.6006C35.4793 66.2105 35.3754 66.1931 35.2714 66.141C35.1675 66.1062 35.0635 66.0367 34.9942 65.9498C34.9076 65.8629 34.8556 65.776 34.8037 65.6717C34.7517 65.5674 34.7344 65.4458 34.7344 65.3415V56.6342C34.7344 56.5126 34.7517 56.4083 34.8037 56.2866C34.8556 56.1823 34.9076 56.0781 34.9942 55.9912C35.0809 55.9043 35.1675 55.8521 35.2887 55.8C35.3927 55.7478 35.5139 55.7305 35.6352 55.7305H37.281C37.4889 55.7305 37.6967 55.7826 37.87 55.8869C38.0605 55.9738 38.2165 56.1128 38.3377 56.2692L41.0056 59.2933L43.4656 56.304C43.5868 56.1476 43.7601 56.0085 43.9333 55.9043C44.1065 55.8 44.3144 55.7478 44.505 55.7478H46.0641C46.1854 55.7478 46.2893 55.7652 46.4106 55.8174C46.5146 55.8695 46.6185 55.9216 46.7051 56.0085C46.7917 56.0954 46.8437 56.1823 46.8957 56.304C46.9477 56.4083 46.965 56.5299 46.965 56.6516V65.3415C46.965 65.4631 46.9477 65.5674 46.8957 65.6717C46.861 65.776 46.7917 65.8803 46.7051 65.9498C46.6185 66.0367 46.5319 66.0888 46.4279 66.141C46.324 66.1931 46.2027 66.2105 46.0988 66.2105H44.3664C44.2451 66.2105 44.1412 66.1931 44.0373 66.141C43.9333 66.0888 43.8294 66.0367 43.7601 65.9498C43.6735 65.8629 43.6215 65.776 43.5695 65.6717C43.5175 65.5674 43.5002 65.4458 43.5002 65.3415V61.0834L41.5599 63.3254C41.4907 63.4123 41.3867 63.4818 41.2828 63.534C41.1788 63.5861 41.0576 63.6035 40.9536 63.6035C40.8497 63.6035 40.7284 63.5861 40.6245 63.534C40.5205 63.4818 40.4339 63.4297 40.3473 63.3428L38.2858 61.0834L38.1991 65.3415Z" fill="#0073E6"/>
<path d="M57.4806 66.228C57.3593 66.228 57.2554 66.2107 57.1515 66.1585C57.0475 66.1064 56.9436 66.0543 56.8743 65.9674C56.7877 65.8805 56.7357 65.7936 56.6837 65.6893C56.6317 65.585 56.6144 65.4633 56.6144 65.3591V60.7534L53.3056 65.6371C53.1843 65.8109 53.0457 65.95 52.8725 66.0543C52.6993 66.1585 52.5087 66.2281 52.3008 66.2107H50.3086C50.1873 66.2107 50.0834 66.1933 49.9794 66.1412C49.8755 66.089 49.7715 66.0369 49.7022 65.95C49.6156 65.8631 49.5636 65.7762 49.5117 65.6719C49.4597 65.5676 49.4424 65.446 49.4424 65.3417V56.6518C49.4424 56.5301 49.4597 56.4259 49.5117 56.3042C49.5636 56.1999 49.6156 56.0956 49.7022 56.0087C49.7889 55.9218 49.8755 55.8697 49.9967 55.8176C50.1007 55.7654 50.222 55.748 50.3432 55.748H52.0583C52.1795 55.748 52.2835 55.7654 52.4047 55.8176C52.5087 55.8697 52.6126 55.9218 52.6993 56.0087C52.7859 56.0956 52.8378 56.1825 52.8898 56.3042C52.9418 56.4085 52.9591 56.5301 52.9591 56.6518V61.2227L56.2679 56.339C56.3892 56.1825 56.5278 56.0435 56.701 55.9392C56.857 55.8349 57.0648 55.7654 57.2554 55.7828H59.265C59.3862 55.7828 59.4902 55.8002 59.6114 55.8523C59.7154 55.9045 59.8193 55.9566 59.9059 56.0435C59.9926 56.1304 60.0445 56.2173 60.0965 56.339C60.1485 56.4432 60.1658 56.5649 60.1658 56.6866V65.3764C60.1658 65.4981 60.1485 65.6024 60.0965 65.7067C60.0445 65.8109 59.9926 65.9152 59.9059 65.9847C59.8193 66.0716 59.7327 66.1238 59.6288 66.1759C59.5248 66.2281 59.4035 66.2454 59.2996 66.2454H57.4806V66.228Z" fill="#0073E6"/>
<path d="M66.0732 69.9823C66.0732 70.104 66.0558 70.2083 66.0039 70.3125C65.9519 70.4168 65.8999 70.5211 65.8133 70.5906C65.7267 70.6775 65.6401 70.7296 65.5361 70.7818C65.4322 70.8339 65.3109 70.8513 65.207 70.8513H63.4746C63.3533 70.8513 63.2494 70.8339 63.1454 70.7818C63.0415 70.7296 62.9376 70.6775 62.8683 70.5906C62.7816 70.5037 62.7297 70.4168 62.6777 70.3125C62.6257 70.2083 62.6084 70.0866 62.6084 69.9823V56.6173C62.6084 56.4956 62.6257 56.3913 62.6777 56.2697C62.7297 56.1654 62.7816 56.0611 62.8683 55.9742C62.9549 55.8873 63.0415 55.8352 63.1628 55.7831C63.2667 55.7309 63.388 55.7135 63.5092 55.7135H65.3109C65.4149 55.7135 65.5015 55.7309 65.6054 55.7657C65.692 55.8004 65.7787 55.8526 65.848 55.9221C65.9172 55.9916 65.9692 56.0785 66.0212 56.1654C66.0558 56.2523 66.0732 56.3566 66.0905 56.4609V56.4782C66.437 56.1654 66.8354 55.9221 67.2685 55.7483C67.8055 55.5224 68.3946 55.4181 68.9836 55.4355C69.6419 55.4355 70.3002 55.5571 70.8892 55.8352C71.4609 56.0959 71.9633 56.4782 72.3617 56.9475C72.7775 57.4515 73.0893 58.025 73.2972 58.6507C73.5224 59.3285 73.6437 60.0585 73.6437 60.771C73.6437 61.5357 73.5051 62.2831 73.2452 62.9957C72.9854 63.6735 72.6042 64.2818 72.1018 64.8031C71.5995 65.3245 70.9931 65.7243 70.3348 66.0023C69.6072 66.3152 68.8276 66.4542 68.0308 66.4542C67.6843 66.4542 67.3205 66.4195 66.974 66.3673C66.6622 66.3326 66.3677 66.2457 66.0905 66.124L66.0732 69.9823ZM66.0732 62.8392C66.2984 62.9783 66.5409 63.0826 66.8008 63.1521C67.0953 63.2216 67.3898 63.239 67.7016 63.239C68.0134 63.2563 68.3253 63.2216 68.6198 63.0999C68.9143 62.9783 69.1741 62.7871 69.382 62.5612C69.7458 62.0919 69.9364 61.501 69.919 60.8927C69.9364 60.3365 69.7458 59.7978 69.3993 59.3633C69.2088 59.1547 68.9836 58.9809 68.7064 58.8766C68.4465 58.7724 68.152 58.7202 67.8748 58.7376C67.5284 58.755 67.1819 58.8419 66.8701 58.9983C66.5582 59.1547 66.281 59.3807 66.0732 59.6587V62.8392Z" fill="#0073E6"/>
</svg>
