<svg viewBox="0 0 36 36" fill="none" xmlns="http://www.w3.org/2000/svg">
<path d="M5.99998 30.856H29.1428C30.0857 30.856 30.8571 30.0846 30.8571 29.1417V5.99888L5.99998 30.856ZM27.8571 27.856H24H15.4286C14.9571 27.856 14.5714 27.4703 14.5714 26.9989V25.2846H24H27C27.4714 25.2846 27.8571 25.6703 27.8571 26.1417V27.856ZM27.8571 22.2846H20.5714C20.1 22.2846 19.7143 21.8989 19.7143 21.4275V19.7132H27C27.4714 19.7132 27.8571 20.0989 27.8571 20.5703V22.2846ZM27.8571 16.7132H25.7143C25.2428 16.7132 24.8571 16.3275 24.8571 15.856V14.1417H27C27.4714 14.1417 27.8571 14.5275 27.8571 14.9989V16.7132ZM5.7857 27.6846L27.6857 5.7846C27.3428 5.65603 26.7428 5.57031 26.1 5.57031C24.0428 5.57031 22.1143 7.07031 21.8571 9.42746C18.7286 9.25603 15.6857 12.0417 15.4286 15.4275C12.0428 15.6846 9.25713 18.7275 9.42855 21.856C7.07141 22.1132 5.57141 24.0417 5.57141 26.0989C5.57141 26.7417 5.65713 27.3417 5.7857 27.6846Z" fill="#5FAF2D"/>
</svg>
