<svg viewBox="0 0 52 52" fill="none" xmlns="http://www.w3.org/2000/svg">
<circle cx="26" cy="26" r="25" stroke="#CBCFD6"/>
<path d="M23.7205 25.3415V27.5473C24.1617 27.9885 25.1911 28.2826 26.2941 28.2826C27.397 28.2826 28.4264 27.9885 28.8676 27.5473V25.3047C29.8235 24.6062 30.3382 23.3954 30.3382 22.1797V18.1723C30.3382 15.7826 29.2352 14.6797 26.8455 14.6797H21.5146L22.1396 22.1797C22.2574 23.5138 22.794 24.6373 23.7205 25.3415Z" fill="#ABB1B9"/>
<path d="M36.7715 35.541C36.073 31.0749 35.1539 30.4068 32.2127 29.1408L31.073 28.6484C30.0804 29.7386 28.2054 30.4867 26.2936 30.4867C24.4186 30.4867 22.5068 29.7386 21.5142 28.6484L20.4112 29.1408C17.5068 30.4419 16.5142 31.0749 15.8157 35.541L15.6318 36.7367H36.9554L36.7715 35.541Z" fill="#ABB1B9"/>
</svg>
