<svg width="72" height="72" viewBox="0 0 72 72" fill="none" xmlns="http://www.w3.org/2000/svg">
<circle cx="36" cy="36" r="35" fill="white" stroke="#CBCFD6"/>
<path d="M32.8085 35.0734V38.1617C33.4261 38.7793 34.8673 39.1911 36.4114 39.1911C37.9555 39.1911 39.3967 38.7793 40.0143 38.1617V35.022C41.3526 34.044 42.0732 32.3489 42.0732 30.647V25.0367C42.0732 21.6911 40.529 20.147 37.1835 20.147H29.7202L30.5952 30.647C30.76 32.5147 31.5113 34.0876 32.8085 35.0734Z" fill="#B4BBC5"/>
<path d="M51.0805 49.3552C50.1025 43.1026 48.8157 42.1672 44.6981 40.3948L43.1025 39.7056C41.7128 41.2318 39.0878 42.2791 36.4113 42.2791C33.7863 42.2791 31.1099 41.2318 29.7202 39.7056L28.176 40.3948C24.1099 42.2164 22.7202 43.1026 21.7422 49.3552L21.4849 51.0291H51.3378L51.0805 49.3552Z" fill="#B4BBC5"/>
</svg>
