<svg width="70" height="70" viewBox="0 0 70 70" fill="none" xmlns="http://www.w3.org/2000/svg">
<circle cx="35" cy="35" r="35" fill="white"/>
<path d="M25.9002 42.55C24.2002 40.3 23.2002 38.35 22.5002 36.5L20.6502 38.55C19.9002 39.4 19.7502 40.55 20.4502 41.25C21.1002 41.9 21.9002 41.8 22.3502 41.5C21.2502 42.55 21.4002 43.75 21.9502 44.35C22.5502 45 23.7502 45.15 24.5002 44.5C23.8502 45.2 23.8502 46.25 24.5002 46.95C25.1502 47.6 26.5002 47.65 27.3502 47C27.0502 47.4 26.9502 48.35 27.5502 48.95C27.8502 49.25 28.3502 49.5 28.8502 49.5C29.3502 49.5 30.0002 49.25 30.4002 48.9L31.5002 48C29.3002 46.45 27.7502 45 25.9002 42.55Z" fill="#5FAF2D"/>
<path d="M43.5 20.5C42.35 21.4 40.9 22 39.7 22H38.95C36.75 22 35.25 22.75 33.95 24.05L30 28L30.35 28.4C31.65 29.9 33.85 29.8 35.5 28.4L39 25.5L47 34C47.5 33.3 47.75 32.75 48.05 31.45C48.4 29.95 48.95 29.15 49.5 28.55L50.5 27.5L43.5 20.5Z" fill="#5FAF2D"/>
<path d="M39 30L37.15 31.5C33.9 34.15 29.1 32.7 26.7 29.9L25.5 28.5L31.5 22.5C30.4 22.5 28.25 22.25 27.35 21.35L26.5 20.5L19.5 27L20.45 28.05C21.7 29.4 22.55 30.4 23.25 31.85L24.05 33.55C25.6 36.9 26.75 39.1 29.15 41.95C31.55 44.75 34.3 47.3 36.85 48.7C37.85 49.25 39.05 49.5 39.6 49.5C40.75 49.5 41.6 48.1 40.5 47C41.35 47.75 42.45 47.65 43.15 46.95C43.75 46.35 43.6 45.15 43 44.5C44.45 45.95 47.15 44.15 45.5 42C46.85 42.8 49.15 40.85 47.3 38.9L39 30Z" fill="#5FAF2D"/>
</svg>
