<svg width="70" height="70" viewBox="0 0 70 70" fill="none" xmlns="http://www.w3.org/2000/svg">
<circle cx="35" cy="35" r="35" fill="white"/>
<path d="M38.572 29.305L36.5 28.5V27C37.1793 26.4832 37.5 25.78 37.5 24.875V22.38C37.5 20.757 36.676 20 35.161 20H32C32 20 32.2624 23.1354 32.418 24.899C32.5285 26.1514 32.866 26.566 33.5 27V28.5C33.5 28.5 33.5 28.5 31.428 29.305C29.3797 30.1008 29.4104 31.0295 29 34H41C40.56 30.887 40.252 30.144 38.572 29.305Z" fill="#5FAF2D"/>
<path d="M29.072 45.305L27 44.5V43C27.6793 42.4832 28 41.78 28 40.875V38.38C28 36.757 27.176 36 25.661 36H22.5C22.5 36 22.7624 39.1354 22.918 40.899C23.0285 42.1514 23.366 42.566 24 43V44.5C24 44.5 24 44.5 21.928 45.305C19.8797 46.1008 19.9104 47.0295 19.5 50H31.5C31.06 46.887 30.752 46.144 29.072 45.305Z" fill="#5FAF2D"/>
<path d="M48.072 45.305L46 44.5V43C46.6793 42.4832 47 41.78 47 40.875V38.38C47 36.757 46.176 36 44.661 36H41.5C41.5 36 41.7624 39.1354 41.918 40.899C42.0285 42.1514 42.366 42.566 43 43V44.5C43 44.5 43 44.5 40.928 45.305C38.8797 46.1008 38.9104 47.0295 38.5 50H50.5C50.06 46.887 49.752 46.144 48.072 45.305Z" fill="#5FAF2D"/>
<path d="M39 39C39 38.1716 38.3284 37.5 37.5 37.5H31V42C31 42.8284 31.6716 43.5 32.5 43.5H39V39Z" fill="#5FAF2D"/>
</svg>
