<svg width="70" height="70" viewBox="0 0 70 70" fill="none" xmlns="http://www.w3.org/2000/svg">
<circle cx="35" cy="35" r="35" fill="white"/>
<path d="M47.3645 19.5C45.6832 19.5 44.8911 20.672 44.5774 21.7393L44.5 21.9946L44.4226 21.7393C44.1089 20.672 43.3168 19.5 41.6355 19.5C39.7193 19.5 38.5 20.6589 38.5 22.7018C38.5 25.275 40.9581 27.2589 43.1258 29.2429L44.5 30.5L45.8742 29.2429C48.0419 27.2589 50.5 25.275 50.5 22.7018C50.5 20.6589 49.2807 19.5 47.3645 19.5Z" fill="#5FAF2D"/>
<path d="M38.35 42.1L37 41.5C35.8141 42.7333 33.6359 43.5 31.5 43.5C29.3641 43.5 27.1859 42.7333 26 41.5L24.65 42.1C21.3 43.6 20.2 44.4 19.6 49.2L19.5 50H43.5L43.4 49.2C42.8 44.4 41.7 43.6 38.35 42.1Z" fill="#5FAF2D"/>
<path d="M28.5 39.5C29.05 40.05 30.2 40.5 31.5 40.5C32.8 40.5 33.95 40.05 34.5 39.5V37.5C36.25 37.35 37.8 37.2 39 37L38.45 34.4C37.2 28.55 36.3 25 31.5 25C26.7 25 25.95 28.65 24.6 34.4L24 37C25.25 37.2 26.8 37.35 28.5 37.5V39.5Z" fill="#5FAF2D"/>
</svg>
