<svg width="70" height="70" viewBox="0 0 70 70" fill="none" xmlns="http://www.w3.org/2000/svg">
<circle cx="35" cy="35" r="35" fill="white"/>
<path d="M38.572 29.305L36.5 28.5V27C37.1793 26.4832 37.5 25.78 37.5 24.875V22.38C37.5 20.757 36.676 20 35.161 20H32C32 20 32.2624 23.1354 32.418 24.899C32.5285 26.1514 32.866 26.566 33.5 27V28.5C33.5 28.5 33.5 28.5 31.428 29.305C29.3797 30.1008 28.9104 31.0295 28.5 33.5H41.5C41.06 30.887 40.252 30.144 38.572 29.305Z" fill="#5FAF2D"/>
<path d="M47.572 45.805L45.5 45V43.5C46.1793 42.9832 46.5 42.28 46.5 41.375V38.88C46.5 37.257 45.676 36.5 44.161 36.5H41C41 36.5 41.2624 39.6354 41.418 41.399C41.5285 42.6514 41.866 43.066 42.5 43.5V45C42.5 45 42.5 45 40.428 45.805C40.0416 45.9551 39.7115 46.11 39.4272 46.2791C39.1705 46.1158 38.8866 45.9621 38.572 45.805L36.5 45V43.5C37.1793 42.9832 37.5 42.28 37.5 41.375V38.88C37.5 37.257 36.676 36.5 35.161 36.5H32C32 36.5 32.2624 39.6354 32.418 41.399C32.5285 42.6514 32.866 43.066 33.5 43.5V45C33.5 45 33.5 45 31.428 45.805C31.0416 45.9551 30.7115 46.11 30.4272 46.2791C30.1705 46.1158 29.8866 45.9621 29.572 45.805L27.5 45V43.5C28.1793 42.9832 28.5 42.28 28.5 41.375V38.88C28.5 37.257 27.676 36.5 26.161 36.5H23C23 36.5 23.2624 39.6354 23.418 41.399C23.5285 42.6514 23.866 43.066 24.5 43.5V45C24.5 45 24.5 45 22.428 45.805C20.3797 46.6008 19.9104 47.5295 19.5 50H28.5H32.5H37.5H41.5H50.5C50.06 47.387 49.252 46.644 47.572 45.805Z" fill="#5FAF2D"/>
</svg>
