<svg width="70" height="70" viewBox="0 0 70 70" fill="none" xmlns="http://www.w3.org/2000/svg">
<circle cx="35" cy="35" r="35" fill="white"/>
<path d="M49.0001 26.2512V25.7488C49.0001 25.4913 49.124 25.2495 49.3332 25.0992L50.4462 24.299L48.9462 21.7009L47.6967 22.2648C47.462 22.3708 47.1906 22.3572 46.9676 22.2285L46.5325 21.9773C46.3095 21.8485 46.1622 21.6203 46.1365 21.3641L46.0001 20H43.0001L42.8637 21.3641C42.838 21.6203 42.6906 21.8485 42.4677 21.9773L42.0326 22.2285C41.8095 22.3572 41.5382 22.3708 41.3035 22.2648L40.054 21.7009L38.554 24.299L39.667 25.0992C39.8761 25.2495 40.0001 25.4913 40.0001 25.7488V26.2512C40.0001 26.5087 39.8761 26.7505 39.667 26.9008L38.554 27.7009L40.054 30.299L41.3034 29.7351C41.5381 29.6292 41.8095 29.6427 42.0325 29.7715L42.4677 30.0227C42.6906 30.1515 42.838 30.3797 42.8637 30.6359L43.0001 32H46.0001L46.1365 30.6359C46.1622 30.3797 46.3095 30.1515 46.5325 30.0227L46.9677 29.7715C47.1907 29.6427 47.4621 29.6292 47.6968 29.7351L48.9462 30.299L50.4462 27.7009L49.3332 26.9008C49.124 26.7505 49.0001 26.5087 49.0001 26.2512ZM44.4799 27.9833C43.3072 27.9833 42.5139 27.2245 42.5139 25.9828C42.5139 24.81 43.3072 24.0166 44.4799 24.0166C45.6872 24.0166 46.4805 24.81 46.4805 25.9828C46.4805 27.2245 45.6872 27.9833 44.4799 27.9833Z" fill="#5FAF2D"/>
<path d="M28.5 37.55V39.5C29.05 40.05 30.2 40.5 31.5 40.5C32.8 40.5 33.95 40.05 34.5 39.5V37.55C35.6 36.7 36 35.2 36 33.85V29.1C36 26.3 34.7 25 31.9 25H26L26.8 33.85C26.95 35.35 27.5 36.8 28.5 37.55Z" fill="#5FAF2D"/>
<path d="M38.35 42.1L37 41.5C35.8141 42.7333 33.6359 43.5 31.5 43.5C29.3641 43.5 27.1859 42.7333 26 41.5L24.65 42.1C21.3 43.6 20.2 44.4 19.6 49.2L19.5 50H43.5L43.4 49.2C42.8 44.4 41.7 43.6 38.35 42.1Z" fill="#5FAF2D"/>
</svg>
