<svg width="70" height="70" viewBox="0 0 70 70" fill="none" xmlns="http://www.w3.org/2000/svg">
<circle cx="35" cy="35" r="35" fill="white"/>
<path d="M45.6 25.05C42.05 24.2 38.55 22.5 36 20.35L35 19.5L34.05 20.35C31.65 22.5 28 24.2 24.4 25.05L22.5 25.5V36.65C22.5 40.8 23.35 43.05 26.95 45.35L35 50.5L43.05 45.35C46.65 43.05 47.5 40.8 47.5 36.65V25.5L45.6 25.05ZM36.55 41.25C36.15 42.05 35.45 42.5 34.65 42.5H33.4C32.7 42.5 32 42.15 31.6 41.5L27 34H31.5L34 38.5L38.45 29.25C38.85 28.45 39.45 28 40.2 28H43L36.55 41.25Z" fill="#5FAF2D"/>
</svg>
