<svg viewBox="0 0 42 42" fill="none" xmlns="http://www.w3.org/2000/svg">
<path d="M27.7501 6.08594C24.3004 6.08594 22.543 7.84335 22.543 11.2931V19.4574H30.7073C34.157 19.4574 35.9144 17.7 35.9144 14.2502V6.08594H27.7501Z" fill="#5FAF2D"/>
<path d="M14.2502 6.08594H6.08594V14.2502C6.08594 17.7 7.84335 19.4574 11.2931 19.4574H19.4574V11.2931C19.4574 7.84335 17.7 6.08594 14.2502 6.08594Z" fill="#5FAF2D"/>
<path d="M30.7073 22.543H22.543V30.7073C22.543 34.157 24.3004 35.9144 27.7501 35.9144H35.9144V27.7501C35.9144 24.3004 34.157 22.543 30.7073 22.543Z" fill="#5FAF2D"/>
<path d="M6.08594 27.7501V35.9144H14.2502C17.7 35.9144 19.4574 34.157 19.4574 30.7073V22.543H11.2931C7.84335 22.543 6.08594 24.3004 6.08594 27.7501Z" fill="#5FAF2D"/>
</svg>
