<svg viewBox="0 0 42 42" fill="none" xmlns="http://www.w3.org/2000/svg">
<path d="M34.3713 5.57129H7.62843C6.49228 5.57129 5.57129 6.49231 5.57129 7.62843V26.1427C5.57129 27.2788 6.49228 28.1999 7.62843 28.1999H14.3141L8.14272 36.4284H11.7427L17.9141 28.1999H19.457V36.4284H22.5427V28.1999H24.0856L30.257 36.4284H33.857L27.6856 28.1999H34.3713C35.5074 28.1999 36.4284 27.2788 36.4284 26.1427V7.62843C36.4284 6.49231 35.5074 5.57129 34.3713 5.57129ZM33.857 24.0856H8.14272V8.14272H33.857V24.0856Z" fill="#5FAF2D"/>
<path d="M23.7377 19.6594C24.5549 20.1497 25.5969 20.0465 26.302 19.4055L30.7714 15.3424V10.7139L24.5999 16.371L18.2622 12.5683C17.4449 12.078 16.403 12.1812 15.6979 12.8222L11.2285 16.8853V21.5139L17.3999 15.8567L23.7377 19.6594Z" fill="#5FAF2D"/>
</svg>
