<svg width="32" height="32" viewBox="0 0 32 32" fill="none" xmlns="http://www.w3.org/2000/svg">
<circle cx="16" cy="16" r="16" fill="#5FAF2D"/>
<path d="M13.0283 10.2857V9.71425C13.0283 9.34854 12.8226 9.14282 12.4569 9.14282H10.514V10.2857L9.46258 13.44C9.25686 14.1257 9.14258 14.7885 9.14258 15.5657V22.4C9.14258 22.6514 9.34829 22.8571 9.59972 22.8571H13.9426C14.194 22.8571 14.3997 22.6514 14.3997 22.4V15.5657C14.3997 14.7885 14.2854 14.1257 14.0797 13.44L13.0283 10.2857Z" fill="white"/>
<path d="M20.7538 9.37139L20.7995 9.14282H19.2452C18.3995 9.14282 18.2624 9.46282 18.1024 10.2857L18.0566 10.5143H19.6109C20.4566 10.5143 20.5938 10.1943 20.7538 9.37139Z" fill="white"/>
<path d="M18.0568 15.9999C19.5717 15.9999 20.7997 14.7719 20.7997 13.257C20.7997 11.7422 19.5717 10.5142 18.0568 10.5142C16.542 10.5142 15.314 11.7422 15.314 13.257C15.314 14.7719 16.542 15.9999 18.0568 15.9999Z" fill="white"/>
<path d="M22.171 17.1656L21.4853 16.457L15.771 17.8285V19.8856H15.8853C16.5253 19.8856 16.9139 20.2513 16.9139 20.9142C16.9139 21.5542 16.5253 21.9427 15.8853 21.9427H15.771V22.857H22.8567V18.7427C22.8567 18.057 22.6053 17.577 22.171 17.1656ZM19.9996 21.257C19.3367 21.257 18.971 20.8685 18.971 20.2285C18.971 19.5656 19.3367 19.1999 19.9996 19.1999C20.6396 19.1999 21.0281 19.5656 21.0281 20.2285C21.0281 20.8685 20.6396 21.257 19.9996 21.257Z" fill="white"/>
</svg>
