<svg width="50" height="50" viewBox="0 0 50 50" fill="none" xmlns="http://www.w3.org/2000/svg">
<circle cx="25" cy="25" r="25" fill="white"/>
<path d="M20.3571 16.0728V15.18C20.3571 14.6085 20.0356 14.2871 19.4642 14.2871H16.4285V16.0728L14.7856 21.0014C14.4642 22.0728 14.2856 23.1085 14.2856 24.3228V35.0014C14.2856 35.3943 14.6071 35.7157 14.9999 35.7157H21.7856C22.1785 35.7157 22.4999 35.3943 22.4999 35.0014V24.3228C22.4999 23.1085 22.3214 22.0728 21.9999 21.0014L20.3571 16.0728Z" fill="#5FAF2D"/>
<path d="M32.4286 14.6443L32.5001 14.2871H30.0715C28.7501 14.2871 28.5358 14.7871 28.2858 16.0728L28.2144 16.43H30.6429C31.9644 16.43 32.1786 15.93 32.4286 14.6443Z" fill="#5FAF2D"/>
<path d="M28.2144 25.0011C30.5814 25.0011 32.5001 23.0823 32.5001 20.7154C32.5001 18.3485 30.5814 16.4297 28.2144 16.4297C25.8475 16.4297 23.9287 18.3485 23.9287 20.7154C23.9287 23.0823 25.8475 25.0011 28.2144 25.0011Z" fill="#5FAF2D"/>
<path d="M34.6426 26.822L33.5711 25.7148L24.6426 27.8577V31.072H24.8211C25.8211 31.072 26.4283 31.6434 26.4283 32.6791C26.4283 33.6791 25.8211 34.2863 24.8211 34.2863H24.6426V35.7148H35.714V29.2863C35.714 28.2148 35.3211 27.4648 34.6426 26.822ZM31.2497 33.2148C30.214 33.2148 29.6426 32.6077 29.6426 31.6077C29.6426 30.572 30.214 30.0006 31.2497 30.0006C32.2497 30.0006 32.8569 30.572 32.8569 31.6077C32.8569 32.6077 32.2497 33.2148 31.2497 33.2148Z" fill="#5FAF2D"/>
</svg>
