<svg width="24" height="24" viewBox="0 0 24 24" fill="none" xmlns="http://www.w3.org/2000/svg">
<path d="M8.28585 4.85826V4.14397C8.28585 3.68683 8.02871 3.42969 7.57157 3.42969H5.143V4.85826L3.82871 8.80112C3.57157 9.65826 3.42871 10.4868 3.42871 11.4583V20.0011C3.42871 20.3154 3.68585 20.5725 4.00014 20.5725H9.42871C9.743 20.5725 10.0001 20.3154 10.0001 20.0011V11.4583C10.0001 10.4868 9.85728 9.65826 9.60014 8.80112L8.28585 4.85826Z" fill="white"/>
<path d="M17.9427 3.7154L17.9999 3.42969H16.057C14.9999 3.42969 14.8284 3.82969 14.6284 4.85826L14.5713 5.14397H16.5141C17.5713 5.14397 17.7427 4.74397 17.9427 3.7154Z" fill="white"/>
<path d="M14.5712 11.9978C16.4647 11.9978 17.9997 10.4627 17.9997 8.5692C17.9997 6.67565 16.4647 5.14062 14.5712 5.14062C12.6776 5.14062 11.1426 6.67565 11.1426 8.5692C11.1426 10.4627 12.6776 11.9978 14.5712 11.9978Z" fill="white"/>
<path d="M19.7148 13.456L18.8577 12.5703L11.7148 14.2846V16.856H11.8577C12.6577 16.856 13.1434 17.3132 13.1434 18.1417C13.1434 18.9417 12.6577 19.4275 11.8577 19.4275H11.7148V20.5703H20.572V15.4275C20.572 14.5703 20.2577 13.9703 19.7148 13.456ZM17.0006 18.5703C16.172 18.5703 15.7148 18.0846 15.7148 17.2846C15.7148 16.456 16.172 15.9989 17.0006 15.9989C17.8006 15.9989 18.2863 16.456 18.2863 17.2846C18.2863 18.0846 17.8006 18.5703 17.0006 18.5703Z" fill="white"/>
</svg>
