<svg viewBox="0 0 100 100" fill="none" xmlns="http://www.w3.org/2000/svg">
<g clip-path="url(#clip0_701_16513)">
<path d="M50 100C77.6142 100 100 77.6142 100 50C100 22.3858 77.6142 0 50 0C22.3858 0 0 22.3858 0 50C0 77.6142 22.3858 100 50 100Z" fill="#FFE000"/>
<path d="M31.1465 28.2764H47.2927V32.216H36.0102V37.2192H45.7785V41.1613H36.0102V48.6296H31.1465V28.2764Z" fill="#21191A"/>
<path d="M59.3268 27.9316C62.1247 27.9316 64.5744 28.8186 66.3369 30.6847C68.0993 32.5509 69.1527 35.3987 69.1527 38.3079C69.1527 41.3029 68.0955 44.2224 66.3369 46.1385C64.5783 48.0545 62.1247 48.9684 59.3268 48.9684C56.5289 48.9684 54.0791 48.0532 52.3179 46.1359C50.5568 44.2186 49.6045 41.3004 49.6045 38.3054C49.6045 35.3961 50.5606 32.5457 52.3179 30.6822C54.0752 28.8186 56.5301 27.9316 59.3268 27.9316ZM59.3268 44.9277C61.0674 44.9277 64.4247 44.0906 64.4247 38.3079C64.4247 36.301 64.3568 31.8776 59.3268 31.8776C54.3223 31.8776 54.2301 36.4572 54.2301 38.4641C54.2301 44.1815 57.5873 44.9277 59.3268 44.9277Z" fill="#21191A"/>
<path d="M39.4517 51.2637C42.2497 51.2637 44.7058 52.1507 46.4619 54.0181C48.2179 55.8855 49.2777 58.7307 49.2777 61.6413C49.2777 64.6363 48.2205 67.5545 46.4619 69.4718C44.7033 71.3891 42.2458 72.303 39.4517 72.303C36.6577 72.303 34.2041 71.3878 32.4429 69.4718C30.6818 67.5558 29.7295 64.6363 29.7295 61.6413C29.7295 58.7307 30.6856 55.8816 32.4429 54.0181C34.2002 52.1545 36.6551 51.2637 39.4517 51.2637ZM39.4517 68.261C41.1924 68.261 44.5497 67.4226 44.5497 61.6413C44.5497 59.6343 44.4818 55.2097 39.4517 55.2097C34.4473 55.2097 34.3551 59.7892 34.3551 61.7961C34.3551 67.5135 37.7123 68.261 39.4517 68.261Z" fill="#21191A"/>
<path d="M51.4189 51.4199H59.2687C65.5403 51.4199 69.1394 55.1458 69.1394 61.5671C69.1394 67.9885 65.7015 71.7706 59.4248 71.7706H51.4189V51.4199ZM58.4073 67.831C62.535 67.831 64.414 66.3079 64.414 61.722C64.414 57.1936 62.4774 55.4171 58.4073 55.4171H56.0305V67.8323L58.4073 67.831Z" fill="#21191A"/>
</g>
<defs>
<clipPath id="clip0_701_16513">
<rect width="100" height="100" fill="white"/>
</clipPath>
</defs>
</svg>
