<svg width="36" height="36" viewBox="0 0 36 36" fill="none" xmlns="http://www.w3.org/2000/svg">
<path d="M21.4973 19.9959L23.3796 18.571L21.2368 14.8595L19.0951 15.7809C18.7222 15.9414 18.2956 15.9163 17.9441 15.7134L17.2104 15.2898C16.8617 15.0885 16.6275 14.7354 16.5775 14.3358L16.2857 12.001H12L11.7289 14.3012C11.6815 14.7043 11.4464 15.0612 11.0949 15.2642L10.3453 15.697C9.99651 15.8983 9.57363 15.9247 9.2026 15.7682L7.04886 14.8595L4.90601 18.571L6.7564 19.9513C7.08172 20.1939 7.27336 20.576 7.27336 20.9819V21.8567C7.27336 22.2594 7.08473 22.6388 6.76368 22.8818L4.90601 24.2881L7.04886 27.9996L9.1764 27.0842C9.54923 26.9238 9.97591 26.9488 10.3274 27.1518L11.0771 27.5846C11.4258 27.7859 11.6601 28.139 11.71 28.5386L12 30.8581H16.2857L16.5585 28.5427C16.606 28.1396 16.841 27.7826 17.1925 27.5797L17.9262 27.1561C18.2749 26.9547 18.6978 26.9284 19.0688 27.0849L21.2368 27.9996L23.3796 24.2881L21.5046 22.8895C21.1793 22.6468 20.9876 22.2648 20.9876 21.8589V21.021C20.9876 20.6183 21.1763 20.2389 21.4973 19.9959ZM14.1044 24.4295C12.3305 24.4295 11.1305 23.2817 11.1305 21.4035C11.1305 19.6295 12.3305 18.4295 14.1044 18.4295C15.9305 18.4295 17.1305 19.6295 17.1305 21.4035C17.1305 23.2817 15.9305 24.4295 14.1044 24.4295Z" fill="#5FAF2D"/>
<path d="M30 10.5017V10.0711C30 9.85035 30.1062 9.64314 30.2855 9.51427L31.2395 8.82843L29.9538 6.60151L28.8828 7.08485C28.6816 7.17565 28.449 7.16403 28.2579 7.05367L27.8849 6.83836C27.6938 6.72799 27.5675 6.53237 27.5455 6.31275L27.4286 5.14355H24.8571L24.7402 6.31275C24.7182 6.53237 24.5919 6.72799 24.4008 6.83836L24.0278 7.05367C23.8367 7.16403 23.6041 7.17565 23.4029 7.08485L22.3319 6.60151L21.0461 8.82843L22.0002 9.51427C22.1794 9.64314 22.2857 9.85035 22.2857 10.0711V10.5017C22.2857 10.7224 22.1794 10.9297 22.0002 11.0585L21.0461 11.7444L22.3319 13.9713L23.4028 13.488C23.604 13.3972 23.8366 13.4087 24.0278 13.5191L24.4007 13.7344C24.5919 13.8448 24.7182 14.0404 24.7402 14.2601L24.8571 15.4293H27.4286L27.5455 14.2601C27.5675 14.0404 27.6938 13.8448 27.885 13.7344L28.2579 13.5191C28.449 13.4087 28.6817 13.3972 28.8828 13.488L29.9538 13.9713L31.2395 11.7444L30.2855 11.0585C30.1062 10.9297 30 10.7224 30 10.5017ZM26.1256 11.9864C25.1203 11.9864 24.4404 11.336 24.4404 10.2716C24.4404 9.26642 25.1203 8.5864 26.1256 8.5864C27.1604 8.5864 27.8403 9.26642 27.8403 10.2716C27.8403 11.336 27.1604 11.9864 26.1256 11.9864Z" fill="#5FAF2D"/>
</svg>
