<svg viewBox="0 0 122 122" fill="none" xmlns="http://www.w3.org/2000/svg">
<path d="M121 1H1V121H121V1Z" stroke="#4B5366" stroke-miterlimit="10"/>
<path d="M18.1541 35.6045C22.256 35.6045 24.0459 33.4416 24.0459 30.0855V26.5057C24.0459 24.2682 23.0764 22.8512 21.0627 22.4037C22.7035 21.8817 23.8222 20.5392 23.8222 18.451V16.3627C23.8222 12.932 22.1814 10.8438 18.4524 10.8438C14.2759 10.8438 12.7843 13.3049 12.7843 16.8848V19.0476H16.5133V16.5864C16.5133 15.0948 16.9608 14.1999 18.2286 14.1999C19.4965 14.1999 19.944 15.0203 19.944 16.3627V18.973C19.944 20.2409 19.1236 20.9121 17.7812 20.9121H16.215V24.0445H17.9303C19.3474 24.0445 19.944 24.7157 19.944 25.9836V30.0109C19.944 31.2788 19.3474 32.1738 18.1541 32.1738C16.7371 32.1738 16.2896 31.2788 16.2896 29.7872V26.3565H12.5605V29.5635C12.5605 33.2179 13.9776 35.6045 18.1541 35.6045Z" fill="#4B5366"/>
<path d="M101.236 76.0218C101.236 72.6657 99.0732 69.9062 95.7917 69.9062C94.1509 69.9062 92.1373 71.6962 91.0931 72.8149C90.049 71.6962 88.1845 69.9062 86.5437 69.9062C83.2622 69.9062 80.9502 72.6657 80.9502 76.0218C80.9502 77.7372 81.6214 79.2288 82.6656 80.3475L91.0931 88.7751L99.5207 80.3475C100.565 79.2288 101.236 77.6626 101.236 76.0218Z" fill="#4B5366"/>
<path d="M65.4374 102.502H65.3628C64.6916 102.427 64.1695 101.98 64.0949 101.383L59.8438 76.4732L53.3553 88.4806C53.057 89.0027 52.4604 89.301 51.8637 89.1519C51.2671 89.0773 50.8196 88.5552 50.745 87.9586L47.9856 68.7168L42.9886 79.9785C42.7649 80.5005 42.2428 80.7989 41.7208 80.7989H22.1807C21.4349 80.7989 20.7637 80.2022 20.7637 79.3818C20.7637 78.636 21.3603 77.9648 22.1807 77.9648H40.8258L47.4635 63.1233C47.6872 62.5266 48.2839 62.2283 48.8805 62.3029C49.4771 62.3775 49.9992 62.8995 50.0738 63.4962L52.9078 83.3346L59.3218 71.4763C59.6201 70.9542 60.1422 70.6559 60.7388 70.8051C61.3354 70.8796 61.7829 71.3271 61.8575 71.9238L65.8103 94.9691L80.2043 47.0885C80.3535 46.5664 80.8755 46.1189 81.3976 46.1189C81.9942 46.0443 82.5163 46.4172 82.74 46.8647L90.3473 62.7504C90.6456 63.4216 90.4218 64.242 89.676 64.6149C89.0048 64.9132 88.1844 64.6895 87.8115 63.9437L81.7705 51.4141L66.7052 101.532C66.5561 102.129 66.034 102.502 65.4374 102.502Z" fill="#4B5366"/>
<path d="M37.7682 15.624H40.0802V20.8446H38.8869V19.8005C38.6631 20.5463 38.2156 20.9938 37.3207 20.9938C35.9036 20.9938 35.2324 19.8751 35.2324 18.3835V13.6103C35.2324 12.0441 35.9782 11 37.6936 11C39.4835 11 40.0802 12.0441 40.0802 13.4612V14.3561H38.5885V13.312C38.5885 12.7154 38.3648 12.3424 37.7682 12.3424C37.1715 12.3424 36.9478 12.7899 36.9478 13.3866V18.6818C36.9478 19.2784 37.1715 19.7259 37.7682 19.7259C38.2902 19.7259 38.5885 19.4276 38.5885 18.7564V17.041H37.8427V15.624H37.7682Z" fill="#4B5366"/>
<path d="M41.1992 18.3053V13.5322C41.1992 11.966 41.945 10.9219 43.6604 10.9219C45.3757 10.9219 46.1961 12.0406 46.1961 13.5322V18.3053C46.1961 19.797 45.4503 20.9157 43.6604 20.9157C41.945 20.9902 41.1992 19.8715 41.1992 18.3053ZM44.5553 18.6037V13.3085C44.5553 12.7118 44.3316 12.2643 43.735 12.2643C43.1383 12.2643 42.9146 12.7118 42.9146 13.3085V18.6037C42.9146 19.2003 43.1383 19.6478 43.735 19.6478C44.257 19.5732 44.5553 19.2003 44.5553 18.6037Z" fill="#4B5366"/>
<path d="M47.2402 18.3053V13.5322C47.2402 11.966 47.986 10.9219 49.7014 10.9219C51.4167 10.9219 52.2371 12.0406 52.2371 13.5322V18.3053C52.2371 19.797 51.4913 20.9157 49.7014 20.9157C48.0606 20.9902 47.2402 19.8715 47.2402 18.3053ZM50.5964 18.6037V13.3085C50.5964 12.7118 50.3726 12.2643 49.776 12.2643C49.1793 12.2643 48.9556 12.7118 48.9556 13.3085V18.6037C48.9556 19.2003 49.1793 19.6478 49.776 19.6478C50.3726 19.5732 50.5964 19.2003 50.5964 18.6037Z" fill="#4B5366"/>
<path d="M58.2778 13.6806V18.23C58.2778 19.7216 57.6811 20.8404 55.8912 20.8404H53.3555V11.0703H55.8912C57.6811 11.0703 58.2778 12.189 58.2778 13.6806ZM55.6675 19.4979C56.3387 19.4979 56.637 19.125 56.637 18.5284V13.3823C56.637 12.7857 56.4133 12.4128 55.6675 12.4128H54.9962V19.4979H55.6675Z" fill="#4B5366"/>
<path d="M64.8407 16.5147H63.2746V20.8404H61.6338V11.0703H63.2746V15.2468H64.8407V11.0703H66.4815V20.8404H64.8407V16.5147Z" fill="#4B5366"/>
<path d="M67.6748 11.0703H71.6276V12.4128H69.3156V15.2468H70.9563V16.5893H69.3156V19.5725H71.6276V20.9149H67.6748V11.0703Z" fill="#4B5366"/>
<path d="M72.373 20.8404L74.2376 11.0703H76.1021L77.9666 20.8404H76.2512L75.9529 19.0504H74.2376L73.9392 20.8404H72.373ZM74.4613 17.7826H75.8038L75.1325 13.8298L74.4613 17.7826Z" fill="#4B5366"/>
<path d="M78.7871 11.0703H80.4279V19.4979H82.367V20.8404H78.7871V11.0703Z" fill="#4B5366"/>
<path d="M82.2178 11.0703H86.618V12.4128H85.2756V20.8404H83.6348V12.4128H82.2924V11.0703H82.2178Z" fill="#4B5366"/>
<path d="M90.7206 16.5147H89.1544V20.8404H87.5137V11.0703H89.1544V15.2468H90.7206V11.0703H92.3614V20.8404H90.7206V16.5147Z" fill="#4B5366"/>
<path d="M35.0078 35.2388L36.8723 25.4688H38.7368L40.6014 35.2388H38.886L38.5877 33.4489H36.8723L36.574 35.2388H35.0078ZM37.0961 32.1064H38.4385L37.7673 28.1536L37.0961 32.1064Z" fill="#4B5366"/>
<path d="M42.6895 29.1232V35.3134H41.2725V25.4688H42.9132L44.7031 31.0623V25.4688H46.0456V35.2388H44.6286L42.6895 29.1232Z" fill="#4B5366"/>
<path d="M52.1616 28.0791V32.6285C52.1616 34.1201 51.5649 35.2388 49.775 35.2388H47.2393V25.4688H49.775C51.5649 25.4688 52.1616 26.5875 52.1616 28.0791ZM49.5512 33.8963C50.2225 33.8963 50.5208 33.5234 50.5208 32.9268V27.7807C50.5208 27.1841 50.297 26.8112 49.5512 26.8112H48.88V33.8963H49.5512V33.8963Z" fill="#4B5366"/>
<path d="M58.5009 29.1978L57.6059 35.2388H56.0397L54.6973 25.4688H56.2634L57.0092 31.6589L57.8296 25.4688H59.1721L60.067 31.6589L60.8128 25.4688H62.2299L60.962 35.2388H59.3958L58.5009 29.1978Z" fill="#4B5366"/>
<path d="M63.125 25.4688H67.0778V26.8112H64.7658V29.6453H66.4065V30.9877H64.7658V33.9709H67.0778V35.3134H63.125V25.4688Z" fill="#4B5366"/>
<path d="M68.1211 25.4688H69.7619V33.8963H71.701V35.2388H68.1211V25.4688Z" fill="#4B5366"/>
<path d="M72.6709 25.4688H74.3117V33.8963H76.2508V35.2388H72.6709V25.4688Z" fill="#4B5366"/>
<path d="M76.0273 29.4219H78.3393V30.7643H76.0273V29.4219Z" fill="#4B5366"/>
<path d="M79.3086 25.4688H81.6952C83.3359 25.4688 83.858 26.2146 83.858 27.6316V28.6011C83.858 29.4215 83.5597 29.9436 82.8884 30.1673C83.7088 30.3911 84.0817 30.9131 84.0817 31.8081V33.076C84.0817 34.493 83.4851 35.2388 81.8443 35.2388H79.3086V25.4688ZM80.9494 29.5707H81.546C82.0681 29.5707 82.2918 29.2724 82.2918 28.7503V27.557C82.2918 27.0349 82.0681 26.7366 81.4714 26.7366H80.8748V29.5707H80.9494ZM80.9494 30.8385V33.8963H81.6952C82.2172 33.8963 82.5155 33.598 82.5155 33.076V31.5844C82.5155 31.0623 82.2918 30.764 81.6952 30.764H80.9494V30.8385Z" fill="#4B5366"/>
<path d="M85.126 25.4688H89.0787V26.8112H86.7668V29.6453H88.4075V30.9877H86.7668V33.9709H89.0787V35.3134H85.126V25.4688Z" fill="#4B5366"/>
<path d="M90.123 25.4688H91.7638V35.2388H90.123V25.4688Z" fill="#4B5366"/>
<path d="M94.2998 29.1232V35.3134H92.8828V25.4688H94.5236L96.3135 31.0623V25.4688H97.656V35.2388H96.2389L94.2998 29.1232Z" fill="#4B5366"/>
<path d="M101.31 30.0146H103.622V35.2353H102.429V34.1911C102.205 34.9369 101.758 35.3844 100.863 35.3844C99.4457 35.3844 98.7744 34.2657 98.7744 32.7741V28.0009C98.7744 26.4348 99.5202 25.3906 101.236 25.3906C103.026 25.3906 103.622 26.4348 103.622 27.8518V28.7467H102.131V27.7772C102.131 27.1806 101.907 26.8077 101.31 26.8077C100.714 26.8077 100.49 27.2551 100.49 27.8518V33.147C100.49 33.7436 100.714 34.1911 101.31 34.1911C101.832 34.1911 102.131 33.8928 102.131 33.2216V31.5062H101.385V30.0146H101.31Z" fill="#4B5366"/>
</svg>
