<svg viewBox="0 0 122 122" fill="none" xmlns="http://www.w3.org/2000/svg">
<path d="M99.9885 19.7757V10.9982H102.138C102.544 10.9982 102.899 11.0327 103.203 11.1062C103.506 11.1786 103.775 11.2988 104.009 11.4658C104.244 11.634 104.42 11.8656 104.539 12.1618C104.657 12.4591 104.715 12.8165 104.712 13.2363C104.707 14.3208 104.279 14.9254 103.425 15.0535C104.452 15.2472 104.967 15.9732 104.971 17.2281C104.975 18.0621 104.765 18.6946 104.346 19.1266C103.926 19.5597 103.313 19.7757 102.508 19.7757H99.9885ZM101.587 14.5758H102.085C102.558 14.5758 102.884 14.4756 103.06 14.2741C103.237 14.0736 103.325 13.734 103.325 13.2585C103.325 13.0114 103.294 12.8098 103.237 12.6573C103.179 12.5036 103.081 12.3878 102.944 12.311C102.806 12.233 102.652 12.1818 102.485 12.1573C102.317 12.1317 102.094 12.1195 101.816 12.1195H101.587V14.5758ZM101.587 18.6478H102.175C102.655 18.6478 102.986 18.5376 103.169 18.3149C103.35 18.0922 103.44 17.7247 103.44 17.2125C103.44 16.6836 103.338 16.2995 103.131 16.0612C102.924 15.824 102.577 15.7038 102.091 15.7038H101.587V18.6478Z" fill="#4B5366"/>
<path d="M105.743 19.7751V10.9976H107.342V14.6709H107.649C108.121 14.6709 108.525 14.7133 108.858 14.7957C109.192 14.8792 109.48 15.0172 109.719 15.2121C109.958 15.4059 110.135 15.6675 110.251 15.996C110.365 16.3234 110.423 16.7275 110.423 17.2074C110.423 17.6941 110.361 18.1072 110.238 18.4434C110.114 18.7808 109.926 19.0458 109.674 19.2384C109.422 19.4311 109.129 19.5681 108.798 19.6504C108.466 19.734 108.071 19.7751 107.611 19.7751H105.743ZM107.342 18.685H107.617C107.857 18.685 108.055 18.6639 108.212 18.6216C108.369 18.5793 108.504 18.5035 108.618 18.3944C108.73 18.2842 108.811 18.1317 108.86 17.9357C108.911 17.7397 108.933 17.4903 108.929 17.1863C108.927 16.693 108.828 16.3367 108.633 16.1173C108.44 15.898 108.093 15.7889 107.596 15.7889H107.342V18.685Z" fill="#4B5366"/>
<path d="M111.142 19.7755V10.9968H114.817V12.1248H112.741V14.6446H114.382V15.7726H112.741V18.6687H114.843V19.7755H111.142Z" fill="#4B5366"/>
<path d="M100.211 34.1214V25.3428H103.886V26.4718H101.81V28.9916H103.451V30.1185H101.81V33.0147H103.912V34.1214H100.211Z" fill="#4B5366"/>
<path d="M121 1H1V121H121V1Z" stroke="#4B5366" stroke-miterlimit="10"/>
<path d="M11.7584 32.5628C10.7953 31.3536 10.312 29.6422 10.312 27.4297V26.6357H14.6791V27.4018C14.698 28.5744 14.8394 29.415 15.1044 29.925C15.3694 30.4361 15.8516 30.69 16.5509 30.69C17.2501 30.69 17.7189 30.4316 17.9549 29.9116C18.191 29.3916 18.3091 28.5454 18.3091 27.3729C18.3091 26.1436 18.1298 25.2317 17.7701 24.6371C17.4116 24.0414 16.7501 23.734 15.7848 23.7151C15.7291 23.6962 15.4641 23.6873 14.992 23.6873V20.4826H15.7001C16.6833 20.4826 17.3637 20.2165 17.7423 19.6876C18.1197 19.1587 18.3091 18.2891 18.3091 17.0788C18.3091 16.0956 18.1721 15.3684 17.8982 14.8952C17.6242 14.4231 17.1365 14.187 16.4373 14.187C15.7759 14.187 15.3216 14.4409 15.0766 14.952C14.8305 15.4631 14.698 16.2191 14.6791 17.2201V18.2412H10.312V16.9941C10.312 14.991 10.8465 13.4388 11.9143 12.3431C12.9822 11.2463 14.4909 10.6985 16.4373 10.6985C18.4226 10.6985 19.9548 11.2274 21.0315 12.2863C22.1094 13.3452 22.6483 14.8674 22.6483 16.8527C22.6483 18.1755 22.3744 19.2868 21.8254 20.1843C21.2765 21.0828 20.5783 21.6451 19.7276 21.8723C21.674 22.5905 22.6483 24.3943 22.6483 27.2882C22.6483 29.4997 22.1561 31.2344 21.174 32.4916C20.1897 33.7498 18.6308 34.3778 16.4941 34.3778C14.3016 34.3778 12.7227 33.7732 11.7584 32.5628Z" fill="#4B5366"/>
<path d="M28.9141 19.7755L30.6767 15.1167L28.9619 10.9968H30.4595L31.5986 13.7182L32.5785 10.9968H33.9804L32.2868 15.3973L34.1073 19.7755H32.6153L31.3871 16.8315L30.3059 19.7755H28.9141Z" fill="#4B5366"/>
<path d="M36.9923 19.8812C36.0882 19.8812 35.4402 19.6362 35.0493 19.1452C34.6574 18.6552 34.4614 17.937 34.4614 16.9906V13.7503C34.4614 13.2849 34.5059 12.8807 34.5939 12.5378C34.6819 12.1959 34.8244 11.8986 35.0204 11.6492C35.2163 11.3987 35.478 11.2105 35.8065 11.0847C36.135 10.96 36.5302 10.8965 36.9923 10.8965C37.8921 10.8965 38.539 11.1381 38.932 11.6225C39.3262 12.1057 39.5233 12.815 39.5233 13.7503V16.9906C39.5233 17.4504 39.4788 17.8524 39.3875 18.2009C39.2984 18.5483 39.1548 18.8501 38.9588 19.1051C38.7628 19.3623 38.5011 19.556 38.1726 19.6852C37.8442 19.8155 37.4511 19.8812 36.9923 19.8812ZM36.5926 18.6263C36.7029 18.6719 36.8365 18.6964 36.9923 18.6964C37.1471 18.6964 37.2796 18.6719 37.3888 18.6263C37.4979 18.5806 37.5859 18.5205 37.6515 18.447C37.7172 18.3724 37.7685 18.2755 37.8052 18.1553C37.8419 18.035 37.8664 17.9159 37.8787 17.7956C37.8909 17.6754 37.8976 17.5317 37.8976 17.3669V13.3796C37.8976 13.168 37.8865 12.992 37.8653 12.8507C37.8442 12.7092 37.803 12.5756 37.7406 12.4498C37.6794 12.3251 37.5869 12.2316 37.4634 12.1692C37.3398 12.108 37.1828 12.0768 36.9923 12.0768C36.802 12.0768 36.6438 12.108 36.5191 12.1692C36.3933 12.2316 36.2998 12.3251 36.2408 12.4498C36.1806 12.5756 36.1394 12.7092 36.1183 12.8507C36.0971 12.992 36.0871 13.168 36.0871 13.3796V17.3669C36.0871 17.5317 36.0927 17.6754 36.1049 17.7956C36.1183 17.9159 36.1428 18.035 36.1795 18.1553C36.2163 18.2755 36.2675 18.3724 36.3298 18.447C36.3944 18.5205 36.4813 18.5806 36.5926 18.6263Z" fill="#4B5366"/>
<path d="M40.4216 19.776V10.9973H42.9481C44.4435 10.9973 45.1918 11.828 45.1918 13.4915C45.1918 14.3066 44.9869 14.9034 44.5783 15.2842C44.1685 15.6628 43.5917 15.8521 42.8468 15.8521H42.0206V19.776H40.4216ZM42.0206 14.7297H42.5339C42.986 14.7297 43.2911 14.6406 43.4503 14.4625C43.6084 14.2854 43.6886 13.957 43.6886 13.4804C43.6886 13.2087 43.6786 12.9982 43.6563 12.8513C43.6362 12.7021 43.5861 12.5673 43.5082 12.4459C43.4303 12.3235 43.3156 12.24 43.1619 12.1943C43.0082 12.1487 42.8 12.1242 42.5394 12.1242H42.0206V14.7297Z" fill="#4B5366"/>
<path d="M48.1457 19.8812C47.2415 19.8812 46.5935 19.6362 46.2026 19.1452C45.8107 18.6552 45.6147 17.937 45.6147 16.9906V13.7503C45.6147 13.2849 45.6593 12.8807 45.7472 12.5378C45.8352 12.1959 45.9777 11.8986 46.1737 11.6492C46.3697 11.3987 46.6313 11.2105 46.9598 11.0847C47.2883 10.96 47.6836 10.8965 48.1457 10.8965C49.0454 10.8965 49.6923 11.1381 50.0854 11.6225C50.4795 12.1057 50.6766 12.815 50.6766 13.7503V16.9906C50.6766 17.4504 50.6321 17.8524 50.5408 18.2009C50.4506 18.5483 50.3081 18.8501 50.1121 19.1051C49.9161 19.3623 49.6544 19.556 49.326 19.6852C48.9975 19.8155 48.6044 19.8812 48.1457 19.8812ZM47.746 18.6263C47.8562 18.6719 47.9898 18.6964 48.1457 18.6964C48.3004 18.6964 48.4329 18.6719 48.5421 18.6263C48.6512 18.5806 48.7392 18.5205 48.8049 18.447C48.8705 18.3724 48.9218 18.2755 48.9585 18.1553C48.9953 18.035 49.0198 17.9159 49.032 17.7956C49.0443 17.6754 49.0509 17.5317 49.0509 17.3669V13.3796C49.0509 13.168 49.0398 12.992 49.0186 12.8507C48.9975 12.7092 48.9563 12.5756 48.8939 12.4498C48.8327 12.3251 48.7403 12.2316 48.6167 12.1692C48.4931 12.108 48.3361 12.0768 48.1457 12.0768C47.9553 12.0768 47.7972 12.108 47.6725 12.1692C47.5466 12.2316 47.4531 12.3251 47.3941 12.4498C47.3339 12.5756 47.2928 12.7092 47.2716 12.8507C47.2504 12.992 47.2404 13.168 47.2404 13.3796V17.3669C47.2404 17.5317 47.246 17.6754 47.2582 17.7956C47.2716 17.9159 47.2961 18.035 47.3328 18.1553C47.3696 18.2755 47.4208 18.3724 47.4831 18.447C47.5477 18.5205 47.6346 18.5806 47.746 18.6263Z" fill="#4B5366"/>
<path d="M51.5911 19.7755V10.9968H53.1421V18.632H54.4449V10.9968H55.9904V18.632H57.2353V10.9968H58.7864V19.7755H51.5911Z" fill="#4B5366"/>
<path d="M59.844 19.7755V10.9968H63.5185V12.1248H61.4429V14.6446H63.0842V15.7726H61.4429V18.6687H63.5452V19.7755H59.844Z" fill="#4B5366"/>
<path d="M64.1948 19.7755V10.9968H67.8693V12.1248H65.7938V14.6446H67.435V15.7726H65.7938V18.6687H67.896V19.7755H64.1948Z" fill="#4B5366"/>
<path d="M72.9923 19.8973C72.2084 19.8973 71.6304 19.6802 71.2552 19.2459C70.8822 18.8117 70.694 18.2004 70.694 17.4087V17.0969H72.1983C72.1983 17.2695 72.1994 17.3797 72.2028 17.4299C72.2139 17.8463 72.2752 18.1525 72.3887 18.3485C72.5023 18.5444 72.7061 18.6424 73.0034 18.6424C73.137 18.6424 73.2528 18.6213 73.3497 18.5756C73.4465 18.5322 73.5234 18.4732 73.5802 18.3986C73.6358 18.3251 73.6792 18.226 73.7093 18.1024C73.7394 17.9788 73.7605 17.8552 73.7706 17.7294C73.7817 17.6035 73.7861 17.4499 73.7861 17.2662C73.7861 16.7963 73.6948 16.4388 73.5145 16.1939C73.3319 15.9478 73.0056 15.8108 72.5368 15.7786C72.4945 15.7741 72.3698 15.773 72.1616 15.773V14.6762C72.352 14.6762 72.4656 14.6751 72.5045 14.6717C72.9844 14.6506 73.3185 14.527 73.5056 14.301C73.6926 14.0749 73.7861 13.7331 73.7861 13.2743C73.7861 12.8924 73.7193 12.6029 73.5846 12.4025C73.451 12.2032 73.2327 12.1041 72.9288 12.1041C72.3776 12.1041 72.0848 12.4949 72.0502 13.2788C72.0458 13.3211 72.0447 13.4469 72.0447 13.6551H70.5359V13.2476C70.5359 12.506 70.7463 11.9293 71.1684 11.5139C71.5893 11.0986 72.1683 10.8915 72.902 10.8915C73.647 10.8915 74.2293 11.0952 74.6491 11.5028C75.0689 11.9114 75.2793 12.486 75.2793 13.2253C75.2793 13.7242 75.1713 14.1428 74.9564 14.4836C74.7415 14.8243 74.4576 15.0459 74.1035 15.1483C74.8874 15.42 75.2793 16.1193 75.2793 17.245C75.2793 18.0812 75.0956 18.7326 74.7293 19.1981C74.3618 19.6646 73.7828 19.8973 72.9923 19.8973Z" fill="#4B5366"/>
<path d="M75.5857 21.5176V18.637H75.9353C76.1258 18.5246 76.2928 18.3721 76.4353 18.1816C76.5778 17.9912 76.717 17.7173 76.8506 17.361C76.9854 17.0047 77.0967 16.527 77.1869 15.9268C77.2771 15.3267 77.345 14.6029 77.3907 13.7556L77.5599 10.9974H81.4782V18.637H82.4047V21.5176H81.2656L81.1609 19.7761H76.8607L76.756 21.5176H75.5857ZM77.4174 18.637H79.9372V12.151H78.836L78.7569 14.0205C78.7357 14.5071 78.7046 14.9514 78.6645 15.35C78.6233 15.7487 78.581 16.0849 78.5375 16.3611C78.493 16.6361 78.4318 16.8911 78.3549 17.125C78.277 17.361 78.2113 17.5436 78.1556 17.6761C78.1011 17.8086 78.022 17.9445 77.9173 18.0837C77.8138 18.224 77.7336 18.3219 77.6768 18.3798C77.62 18.4389 77.5343 18.5246 77.4174 18.637Z" fill="#4B5366"/>
<path d="M85.3898 19.8812C84.4868 19.8812 83.8387 19.6362 83.4468 19.1452C83.0549 18.6552 82.8589 17.937 82.8589 16.9906V13.7503C82.8589 13.2849 82.9034 12.8807 82.9914 12.5378C83.0794 12.1959 83.2219 11.8986 83.4178 11.6492C83.6138 11.3987 83.8755 11.2105 84.2039 11.0847C84.5324 10.96 84.9277 10.8965 85.3898 10.8965C86.2906 10.8965 86.9364 11.1381 87.3295 11.6225C87.7237 12.1057 87.9208 12.815 87.9208 13.7503V16.9906C87.9208 17.4504 87.8762 17.8524 87.786 18.2009C87.6958 18.5483 87.5522 18.8501 87.3562 19.1051C87.1602 19.3623 86.8986 19.556 86.5712 19.6852C86.2416 19.8155 85.8486 19.8812 85.3898 19.8812ZM84.9901 18.6263C85.1014 18.6719 85.2339 18.6964 85.3898 18.6964C85.5446 18.6964 85.6771 18.6719 85.7862 18.6263C85.8965 18.5806 85.9833 18.5205 86.049 18.447C86.1147 18.3724 86.1659 18.2755 86.2027 18.1553C86.2394 18.035 86.2639 17.9159 86.2762 17.7956C86.2884 17.6754 86.2951 17.5317 86.2951 17.3669V13.3796C86.2951 13.168 86.2851 12.992 86.2639 12.8507C86.2416 12.7092 86.2004 12.5756 86.1392 12.4498C86.0768 12.3251 85.9844 12.2316 85.8608 12.1692C85.7372 12.108 85.5802 12.0768 85.3898 12.0768C85.1994 12.0768 85.0413 12.108 84.9166 12.1692C84.7908 12.2316 84.6983 12.3251 84.6382 12.4498C84.5781 12.5756 84.5369 12.7092 84.5168 12.8507C84.4957 12.992 84.4846 13.168 84.4846 13.3796V17.3669C84.4846 17.5317 84.4901 17.6754 84.5024 17.7956C84.5157 17.9159 84.5402 18.035 84.577 18.1553C84.6137 18.2755 84.6649 18.3724 84.7284 18.447C84.7919 18.5205 84.8787 18.5806 84.9901 18.6263Z" fill="#4B5366"/>
<path d="M88.8196 19.776V10.9973H91.3449C92.8415 10.9973 93.5897 11.828 93.5897 13.4915C93.5897 14.3066 93.3848 14.9034 92.9751 15.2842C92.5664 15.6628 91.9885 15.8521 91.2447 15.8521H90.4185V19.776H88.8196ZM90.4185 14.7297H90.9319C91.3839 14.7297 91.689 14.6406 91.8483 14.4625C92.0064 14.2854 92.0865 13.957 92.0865 13.4804C92.0865 13.2087 92.0754 12.9982 92.0542 12.8513C92.0342 12.7021 91.9841 12.5673 91.9062 12.4459C91.8282 12.3235 91.7124 12.24 91.5599 12.1943C91.4062 12.1487 91.198 12.1242 90.9374 12.1242H90.4185V14.7297Z" fill="#4B5366"/>
<path d="M96.5429 19.8812C95.6398 19.8812 94.9918 19.6362 94.5999 19.1452C94.2079 18.6552 94.012 17.937 94.012 16.9906V13.7503C94.012 13.2849 94.0565 12.8807 94.1445 12.5378C94.2324 12.1959 94.3749 11.8986 94.5709 11.6492C94.7669 11.3987 95.0286 11.2105 95.357 11.0847C95.6855 10.96 96.0808 10.8965 96.5429 10.8965C97.4437 10.8965 98.0895 11.1381 98.4826 11.6225C98.8768 12.1057 99.0738 12.815 99.0738 13.7503V16.9906C99.0738 17.4504 99.0293 17.8524 98.9391 18.2009C98.8489 18.5483 98.7053 18.8501 98.5093 19.1051C98.3133 19.3623 98.0517 19.556 97.7243 19.6852C97.3947 19.8155 97.0017 19.8812 96.5429 19.8812ZM96.1432 18.6263C96.2545 18.6719 96.387 18.6964 96.5429 18.6964C96.6977 18.6964 96.8302 18.6719 96.9393 18.6263C97.0495 18.5806 97.1364 18.5205 97.2021 18.447C97.2678 18.3724 97.319 18.2755 97.3557 18.1553C97.3925 18.035 97.417 17.9159 97.4292 17.7956C97.4415 17.6754 97.4482 17.5317 97.4482 17.3669V13.3796C97.4482 13.168 97.4381 12.992 97.417 12.8507C97.3947 12.7092 97.3535 12.5756 97.2923 12.4498C97.2299 12.3251 97.1375 12.2316 97.0139 12.1692C96.8903 12.108 96.7333 12.0768 96.5429 12.0768C96.3525 12.0768 96.1944 12.108 96.0697 12.1692C95.9438 12.2316 95.8514 12.3251 95.7913 12.4498C95.7312 12.5756 95.69 12.7092 95.6699 12.8507C95.6488 12.992 95.6376 13.168 95.6376 13.3796V17.3669C95.6376 17.5317 95.6432 17.6754 95.6554 17.7956C95.6688 17.9159 95.6933 18.035 95.7301 18.1553C95.7668 18.2755 95.818 18.3724 95.8815 18.447C95.945 18.5205 96.0318 18.5806 96.1432 18.6263Z" fill="#4B5366"/>
<path d="M29.4751 34.1214V25.3428H30.8035V30.8289L33.1863 25.3428H34.2775V34.1214H32.9324V28.5306L30.544 34.1214H29.4751Z" fill="#4B5366"/>
<path d="M37.7271 34.1208V25.3433H41.7879V26.5291H39.326V29.0178H39.5854C40.0587 29.0178 40.4618 29.0601 40.7958 29.1414C41.1287 29.2249 41.416 29.364 41.6554 29.5578C41.8948 29.7516 42.073 30.0132 42.1876 30.3417C42.3023 30.6702 42.3602 31.0744 42.3602 31.5532C42.3602 31.9462 42.3179 32.2881 42.2355 32.5843C42.152 32.8782 42.034 33.1232 41.8803 33.3169C41.7267 33.5107 41.5329 33.6688 41.298 33.7879C41.063 33.9082 40.8047 33.9939 40.523 34.0451C40.2402 34.0963 39.9173 34.1208 39.5543 34.1208H37.7271ZM39.326 33.0307H39.5543C39.7937 33.0307 39.9919 33.0107 40.15 32.9673C40.307 32.925 40.4417 32.8492 40.5542 32.7401C40.6666 32.631 40.7479 32.4774 40.798 32.2814C40.847 32.0865 40.8704 31.836 40.867 31.5331C40.8637 31.0387 40.7646 30.6824 40.5697 30.463C40.376 30.2448 40.0297 30.1357 39.5331 30.1357H39.326V33.0307Z" fill="#4B5366"/>
<path d="M42.47 34.1214V32.9679C42.647 32.9712 42.7862 32.9656 42.8909 32.9512C42.9944 32.9378 43.1002 32.8944 43.206 32.822C43.3117 32.7496 43.3941 32.6494 43.452 32.5191C43.51 32.3911 43.569 32.2063 43.6268 31.9646C43.6847 31.723 43.7326 31.4324 43.7705 31.0961C43.8061 30.7587 43.8407 30.3378 43.8729 29.8334L44.1647 25.3428H48.4471V34.1214H46.8482V26.5397H45.5732L45.3817 29.9971C45.3605 30.3568 45.3394 30.6652 45.316 30.9213C45.2926 31.1774 45.2626 31.4435 45.2258 31.7208C45.1891 31.998 45.1445 32.2285 45.0933 32.4145C45.0421 32.5993 44.9786 32.7875 44.9029 32.9779C44.8272 33.1683 44.7392 33.3231 44.6379 33.4411C44.5377 33.5592 44.4186 33.6727 44.2805 33.7774C44.1435 33.8832 43.9865 33.9611 43.8095 34.0112C43.6324 34.0602 43.4331 34.0947 43.2115 34.1159C42.9888 34.137 42.7416 34.1393 42.47 34.1214Z" fill="#4B5366"/>
<path d="M49.0496 34.1216L50.8345 25.344H52.5025L54.2807 34.1216H52.7931L52.4379 32.0839H50.9191L50.5583 34.1216H49.0496ZM51.0884 31.0406H52.2642L51.6763 27.434L51.0884 31.0406Z" fill="#4B5366"/>
<path d="M54.8884 34.1214V25.3428H58.5674V26.5241H56.4874V34.1214H54.8884Z" fill="#4B5366"/>
<path d="M61.5531 34.2277C60.6501 34.2277 60.0021 33.9828 59.6101 33.4917C59.2182 33.0007 59.0222 32.2836 59.0222 31.3371V28.0969C59.0222 27.6304 59.0667 27.2273 59.1547 26.8843C59.2427 26.5425 59.3852 26.2452 59.5812 25.9946C59.7771 25.7441 60.0388 25.5559 60.3673 25.4312C60.6958 25.3054 61.091 25.243 61.5531 25.243C62.4529 25.243 63.0998 25.4847 63.4928 25.9679C63.887 26.4523 64.0841 27.1605 64.0841 28.0969V31.3371C64.0841 31.7959 64.0395 32.199 63.9494 32.5464C63.8592 32.8949 63.7155 33.1967 63.5196 33.4516C63.3236 33.7077 63.0619 33.9015 62.7346 34.0318C62.405 34.162 62.0119 34.2277 61.5531 34.2277ZM61.1534 32.9728C61.2647 33.0185 61.3973 33.0419 61.5531 33.0419C61.7079 33.0419 61.8404 33.0185 61.9496 32.9728C62.0598 32.9272 62.1466 32.8671 62.2123 32.7925C62.278 32.719 62.3293 32.6221 62.366 32.5018C62.4027 32.3816 62.4272 32.2613 62.4395 32.1411C62.4517 32.0219 62.4584 31.8783 62.4584 31.7124V27.7261C62.4584 27.5146 62.4484 27.3386 62.4261 27.1972C62.405 27.0558 62.3638 26.9222 62.3025 26.7963C62.2402 26.6716 62.1477 26.5781 62.0241 26.5158C61.9006 26.4545 61.7436 26.4233 61.5531 26.4233C61.3627 26.4233 61.2046 26.4545 61.0799 26.5158C60.9541 26.5781 60.8617 26.6716 60.8016 26.7963C60.7414 26.9222 60.7002 27.0558 60.6802 27.1972C60.6579 27.3386 60.6479 27.5146 60.6479 27.7261V31.7124C60.6479 31.8783 60.6535 32.0219 60.6657 32.1411C60.6791 32.2613 60.7036 32.3816 60.7403 32.5018C60.7771 32.6221 60.8283 32.719 60.8917 32.7925C60.9552 32.8671 61.0421 32.9272 61.1534 32.9728Z" fill="#4B5366"/>
<path d="M64.9829 34.1214V25.3428H70.0548V34.1214H68.4715V26.4818H66.5663V34.1214H64.9829Z" fill="#4B5366"/>
<path d="M73.4848 34.2277C72.5817 34.2277 71.9337 33.9828 71.5418 33.4917C71.1498 33.0007 70.9539 32.2836 70.9539 31.3371V28.0969C70.9539 27.6304 70.9984 27.2273 71.0863 26.8843C71.1743 26.5425 71.3168 26.2452 71.5128 25.9946C71.7088 25.7441 71.9705 25.5559 72.2989 25.4312C72.6274 25.3054 73.0227 25.243 73.4848 25.243C74.3856 25.243 75.0314 25.4847 75.4245 25.9679C75.8186 26.4523 76.0157 27.1605 76.0157 28.0969V31.3371C76.0157 31.7959 75.9712 32.199 75.881 32.5464C75.7908 32.8949 75.6472 33.1967 75.4512 33.4516C75.2552 33.7077 74.9936 33.9015 74.6662 34.0318C74.3366 34.162 73.9436 34.2277 73.4848 34.2277ZM73.0851 32.9728C73.1964 33.0185 73.3289 33.0419 73.4848 33.0419C73.6396 33.0419 73.772 33.0185 73.8812 32.9728C73.9914 32.9272 74.0783 32.8671 74.144 32.7925C74.2097 32.719 74.2609 32.6221 74.2976 32.5018C74.3344 32.3816 74.3589 32.2613 74.3711 32.1411C74.3834 32.0219 74.3901 31.8783 74.3901 31.7124V27.7261C74.3901 27.5146 74.38 27.3386 74.3589 27.1972C74.3366 27.0558 74.2954 26.9222 74.2342 26.7963C74.1718 26.6716 74.0794 26.5781 73.9558 26.5158C73.8322 26.4545 73.6752 26.4233 73.4848 26.4233C73.2944 26.4233 73.1363 26.4545 73.0116 26.5158C72.8857 26.5781 72.7933 26.6716 72.7332 26.7963C72.673 26.9222 72.6319 27.0558 72.6118 27.1972C72.5907 27.3386 72.5795 27.5146 72.5795 27.7261V31.7124C72.5795 31.8783 72.5851 32.0219 72.5973 32.1411C72.6107 32.2613 72.6352 32.3816 72.672 32.5018C72.7087 32.6221 72.7599 32.719 72.8234 32.7925C72.8868 32.8671 72.9737 32.9272 73.0851 32.9728Z" fill="#4B5366"/>
<path d="M76.2793 34.1214V32.9679C76.4563 32.9712 76.5955 32.9656 76.7002 32.9512C76.8037 32.9378 76.9084 32.8944 77.0153 32.822C77.1199 32.7496 77.2024 32.6494 77.2614 32.5191C77.3193 32.3911 77.3783 32.2063 77.4362 31.9646C77.4941 31.723 77.542 31.4324 77.5787 31.0961C77.6155 30.7587 77.65 30.3378 77.6823 29.8334L77.974 25.3428H82.2564V34.1214H80.6575V26.5397H79.3814L79.191 29.9971C79.1699 30.3568 79.1487 30.6652 79.1254 30.9213C79.1019 31.1774 79.0719 31.4435 79.0351 31.7208C78.9984 31.998 78.9539 32.2285 78.9026 32.4145C78.8514 32.5993 78.788 32.7875 78.7123 32.9779C78.6365 33.1683 78.5486 33.3231 78.4472 33.4411C78.347 33.5592 78.2279 33.6727 78.0898 33.7774C77.9529 33.8832 77.7947 33.9611 77.6188 34.0112C77.4417 34.0602 77.2424 34.0947 77.0197 34.1159C76.7981 34.137 76.551 34.1393 76.2793 34.1214Z" fill="#4B5366"/>
<path d="M83.2242 35.6572V34.5248C83.9056 34.5771 84.3488 34.5036 84.5526 34.3043C84.7574 34.105 84.7986 33.7375 84.675 33.1998L82.8645 25.343H84.3566L85.077 28.9919L85.4589 31.5807L85.7763 29.0019L86.4009 25.343H87.9208L86.2584 33.3322C86.1415 33.8867 86.0413 34.2843 85.9589 34.527C85.8765 34.7686 85.7284 35.0002 85.5168 35.2207C85.3041 35.4412 85.0247 35.5759 84.675 35.6249C84.3254 35.6739 83.8422 35.685 83.2242 35.6572Z" fill="#4B5366"/>
<path d="M91.6785 34.1214V30.2621C91.2509 30.3434 90.86 30.3835 90.5026 30.3835C89.8078 30.3835 89.2599 30.2042 88.8591 29.8446C88.4582 29.4838 88.2578 28.9694 88.2578 28.2979V25.3428H89.7677V28.2924C89.7677 28.4761 89.7822 28.6298 89.8122 28.7534C89.8423 28.8769 89.8946 28.9883 89.9715 29.0874C90.0472 29.1865 90.1597 29.2589 90.3077 29.3068C90.4558 29.3535 90.6418 29.378 90.8689 29.378C91.1083 29.378 91.3789 29.348 91.6785 29.2878V25.3428H93.2719V34.1214H91.6785Z" fill="#4B5366"/>
<path d="M94.3511 34.1214V25.3428H95.6795V30.8289L98.0623 25.3428H99.1535V34.1214H97.8084V28.5306L95.42 34.1214H94.3511Z" fill="#4B5366"/>
<path d="M101.648 75.8892C101.648 72.4842 99.4635 69.7239 96.1531 69.7239C94.4996 69.7239 92.5031 71.5366 91.4197 72.6501C90.3351 71.5344 88.4712 69.7205 86.8154 69.7205C83.5062 69.7205 81.1868 72.4819 81.1868 75.8881C81.1868 77.5906 81.8571 79.1317 82.9427 80.2485L91.4263 88.7477L99.8977 80.2585L99.8911 80.2518C100.977 79.1361 101.648 77.5928 101.648 75.8892Z" fill="#4B5366"/>
<path d="M65.5305 102.622C65.5016 102.622 65.4737 102.621 65.4437 102.619C64.799 102.58 64.2667 102.102 64.1576 101.464L59.8484 76.3683L53.3212 88.4696C53.035 89.0007 52.4382 89.2858 51.8514 89.1811C51.2579 89.0753 50.8014 88.6021 50.7156 88.0075L47.9442 68.6385L42.8745 80.026C42.6507 80.5294 42.153 80.8534 41.6029 80.8534H21.8976C21.1282 80.8534 20.5046 80.2287 20.5046 79.4593C20.5046 78.6899 21.1282 78.0663 21.8976 78.0663H40.6977L47.3663 63.0878C47.619 62.521 48.2159 62.1903 48.8305 62.2749C49.4463 62.3607 49.9295 62.8428 50.0186 63.4574L52.8747 83.4288L59.3128 71.4923C59.5935 70.969 60.1769 70.6817 60.7637 70.7797C61.3494 70.8755 61.8104 71.3331 61.9106 71.9188L65.9013 95.1616L80.4456 46.8521C80.6115 46.302 81.097 45.909 81.6693 45.8644C82.2439 45.821 82.785 46.1294 83.0334 46.6472L90.6863 62.5132C91.0204 63.2047 90.7297 64.0376 90.0371 64.3716C89.3446 64.7068 88.5106 64.415 88.1765 63.7224L82.0802 51.0844L66.8634 101.63C66.6863 102.222 66.1418 102.622 65.5305 102.622Z" fill="#4B5366"/>
</svg>
