<svg viewBox="0 0 36 36" fill="none" xmlns="http://www.w3.org/2000/svg">
<path d="M23.1431 19.2902C23.1431 23.3187 20.7431 25.7187 16.8003 25.7187C13.1145 25.7187 10.286 23.0187 10.286 19.1187C10.286 15.2616 12.8574 12.8616 16.7145 12.8616H17.5717L14.4003 16.0759C13.7145 16.7616 13.286 17.5759 13.286 18.6473C13.286 20.9187 15.086 22.7187 17.2288 22.7187C18.2145 22.7187 19.2003 22.2902 19.9717 21.5616L23.1431 18.433V19.2902ZM16.286 19.7187C16.8003 20.233 17.5717 20.2759 18.0431 19.8045L24.5574 13.2902H25.9288C26.7003 13.2902 27.2145 13.0759 27.686 12.6045L31.286 9.00446L27.8574 8.14732L27.0003 4.71875L23.4003 8.31875C22.9288 8.79018 22.7145 9.30446 22.7145 10.033V11.4902L16.2003 17.9616C15.7288 18.3902 15.7717 19.2045 16.286 19.7187ZM28.7145 19.2045C28.7145 26.7045 23.9145 31.2902 16.6288 31.2902C9.51454 31.2902 4.71454 26.7045 4.71454 19.2045C4.71454 12.0902 9.51454 7.29018 16.6288 7.29018C17.8717 7.29018 19.1145 7.46161 20.1431 7.71875V10.7187C19.0717 10.4187 17.9145 10.2902 16.6288 10.2902C11.3145 10.2902 7.71454 13.8902 7.71454 19.2045C7.71454 24.8616 11.3145 28.2902 16.6288 28.2902C22.1145 28.2902 25.7145 24.8616 25.7145 19.2045C25.7145 18.0045 25.586 16.8902 25.286 15.8616H28.286C28.586 16.8902 28.7145 18.0045 28.7145 19.2045Z" fill="#5FAF2D"/>
</svg>
