<svg width="45" height="45" viewBox="0 0 45 45" fill="none" xmlns="http://www.w3.org/2000/svg">
<circle cx="22.5" cy="22.5" r="22" fill="white" stroke="white"/>
<path d="M30.8929 19.3215V15.1429C30.8929 14.0136 30.0936 13.2144 28.9644 13.2144H16.7501C15.6208 13.2144 14.8215 14.0136 14.8215 15.1429V19.3215H13.2144V22.5358C13.2144 23.0822 13.6322 23.5001 14.1786 23.5001H14.8215V32.5001H17.3929V30.2501H28.3215V32.5001H30.8929V23.5001H31.5358C32.0822 23.5001 32.5001 23.0822 32.5001 22.5358V19.3215H30.8929ZM19.3215 28.0001H16.7501V26.0715L18.2929 26.2644C19.0322 26.3608 19.3215 26.6822 19.3215 27.4215V28.0001ZM28.9644 28.0001H26.3929V27.4215C26.3929 26.6822 26.6822 26.3608 27.4215 26.2644L28.9644 26.0715V28.0001ZM16.7501 23.5001L17.1679 20.9608C17.4251 19.4501 17.8429 18.6786 19.6429 18.6786H26.0715C27.8715 18.6786 28.2894 19.4501 28.5465 20.9608L28.9644 23.5001H16.7501Z" fill="#5FAF2D"/>
</svg>
