<svg width="45" height="45" viewBox="0 0 45 45" fill="none" xmlns="http://www.w3.org/2000/svg">
<circle cx="22.5" cy="22.5" r="22" fill="white" stroke="white"/>
<path d="M31.0856 16.4001L23.2749 12.9929C22.9856 12.8643 22.7285 12.8643 22.4392 12.9929L14.6285 16.4001C14.3392 16.5286 14.1785 16.7215 14.1785 17.0429V19.3251L22.857 22.8608L31.5356 19.3251V17.0429C31.5356 16.7215 31.3749 16.5286 31.0856 16.4001ZM14.1785 26.3965V28.9036C14.1785 29.2251 14.3392 29.4179 14.6285 29.5465L22.4392 32.7286C22.7285 32.8572 22.9856 32.8572 23.2749 32.7286L31.0856 29.5465C31.3749 29.4179 31.5356 29.2251 31.5356 28.9036V26.3965L22.857 29.9322L14.1785 26.3965ZM14.1785 21.2536V24.4679L22.857 28.0036L31.5356 24.4679V21.2536L22.857 24.7893L14.1785 21.2536Z" fill="#5FAF2D"/>
</svg>
