<svg width="45" height="45" viewBox="0 0 45 45" fill="none" xmlns="http://www.w3.org/2000/svg">
<circle cx="22.5" cy="22.5" r="22" fill="white" stroke="white"/>
<path d="M22.8242 19.3218C21.6992 19.3218 20.9277 20.0932 20.9277 21.2503C20.9277 22.4396 21.6992 23.1789 22.8242 23.1789C24.0134 23.1789 24.7849 22.4396 24.7849 21.2503C24.7849 20.0932 24.0134 19.3218 22.8242 19.3218Z" fill="#5FAF2D"/>
<path d="M26.0705 14.8216L20.3812 13.0216C19.8991 12.8609 19.3848 12.8609 18.9027 13.0216L13.2134 14.8216V32.8216L19.642 30.8931L25.3312 32.6931C25.8134 32.8538 26.3277 32.8538 26.8098 32.6931L32.4991 30.8931V12.8931L26.0705 14.8216ZM24.2802 26.5146L22.8562 28.6431L21.4323 26.5146C19.8001 24.0518 18.9991 22.8664 18.9991 21.2849C18.9991 18.9738 20.5124 17.3931 22.8562 17.3931C25.2001 17.3931 26.7134 18.9738 26.7134 21.2849C26.7134 22.8664 25.9124 24.0518 24.2802 26.5146Z" fill="#5FAF2D"/>
</svg>
