<svg viewBox="0 0 110 24" fill="none" xmlns="http://www.w3.org/2000/svg">
<g clip-path="url(#clip0_701_16431)">
<path d="M15.3176 16.594C15.3176 20.2692 12.3679 23.2495 8.70801 23.2495V7.47001C8.70801 3.79483 11.6577 0.814453 15.3176 0.814453V16.594Z" fill="#3D3F56"/>
<path d="M3.37283 23.2499C5.19299 23.2499 6.66851 21.7681 6.66851 19.9404C6.66851 18.1126 5.19299 16.6309 3.37283 16.6309C1.55268 16.6309 0.0771484 18.1126 0.0771484 19.9404C0.0771484 21.7681 1.55268 23.2499 3.37283 23.2499Z" fill="#F64343"/>
<path d="M35.729 4.01454C35.729 3.57571 35.9111 3.15517 36.2206 2.84433C36.5302 2.51521 36.9672 2.33236 37.4224 2.35065C37.8594 2.35065 38.2781 2.51521 38.5877 2.84433C38.8972 3.15517 39.0793 3.57571 39.0793 4.01454V16.3566C39.0975 17.9839 38.4602 19.5381 37.2949 20.6717C36.166 21.8419 34.6183 22.4819 32.9978 22.4636C32.5608 22.4636 32.142 22.299 31.8324 21.9699C31.5047 21.6774 31.3408 21.2385 31.3408 20.7997C31.3408 20.3609 31.5229 19.9403 31.8324 19.6295C32.1238 19.3004 32.5608 19.1358 32.9978 19.1358C33.7261 19.1541 34.4362 18.8433 34.946 18.313C35.4559 17.8011 35.7472 17.088 35.729 16.3566C35.729 16.3383 35.729 4.01454 35.729 4.01454ZM52.3895 22.4453C49.7311 22.4819 47.1637 21.4214 45.3065 19.4832C43.3946 17.6182 42.3204 15.0584 42.3568 12.3706C42.3204 9.68273 43.3764 7.10462 45.3065 5.2396C47.1637 3.31973 49.7129 2.25923 52.3895 2.29579C55.0479 2.25923 57.6152 3.31973 59.4907 5.2396C61.4025 7.10462 62.4586 9.68273 62.4222 12.3706C62.4586 15.0401 61.4025 17.6182 59.4907 19.4832C57.6334 21.4214 55.0661 22.4819 52.3895 22.4453ZM52.3895 5.62357C50.6051 5.58701 48.8935 6.31839 47.6371 7.5983C46.3444 8.84165 45.6342 10.5787 45.6525 12.3706C45.6342 14.1624 46.3444 15.8995 47.6371 17.1428C50.2409 19.7758 54.4834 19.7941 57.1054 17.1794C57.1236 17.1611 57.1418 17.1428 57.1418 17.1428C58.4164 15.8995 59.1265 14.1624 59.1083 12.3706C59.1447 10.5787 58.4346 8.84165 57.16 7.5983C55.9219 6.31839 54.1921 5.60529 52.3895 5.62357ZM75.35 22.4453C72.6916 22.4819 70.1243 21.4214 68.267 19.4832C66.3552 17.6182 65.2809 15.0584 65.3173 12.3706C65.2809 9.68273 66.3369 7.10462 68.267 5.2396C72.1818 1.30843 78.5182 1.30843 82.433 5.2396C84.3448 7.10462 85.4009 9.68273 85.3645 12.3706C85.4009 15.0401 84.3448 17.6182 82.433 19.4832C80.5757 21.4214 78.0084 22.4819 75.35 22.4453ZM75.35 5.62357C73.5474 5.58701 71.8176 6.3001 70.5795 7.5983C69.2867 8.84165 68.5766 10.5787 68.5948 12.3706C68.5766 14.1624 69.2867 15.8995 70.5795 17.1428C73.1832 19.7758 77.4257 19.7941 80.0477 17.1794C80.0659 17.1611 80.0841 17.1428 80.0841 17.1428C81.3587 15.8995 82.0688 14.1624 82.0506 12.3706C82.0688 10.5787 81.3587 8.84165 80.0841 7.5983C78.8278 6.31839 77.1162 5.60529 75.35 5.62357ZM108.088 2.35065C108.452 2.44207 108.762 2.66148 108.981 2.95404C109.199 3.2283 109.326 3.59399 109.326 3.9414V20.7997C109.326 21.2385 109.163 21.6591 108.853 21.9699C108.216 22.6099 107.16 22.6282 106.522 21.9699C106.213 21.6591 106.031 21.2385 106.049 20.7997V9.88386L100.841 18.5142L100.787 18.6056V18.6604L100.714 18.7336L100.55 18.8433L100.495 18.8981L100.423 18.9713L100.332 19.0261L100.241 19.081H100.168C99.9493 19.1724 99.7308 19.209 99.494 19.209H99.4394C99.312 19.1907 99.1845 19.1724 99.0753 19.1358H98.875L98.7657 19.081L98.6747 19.0078L98.3105 18.8981L98.2559 18.8433L98.2013 18.7884L98.1284 18.7153C98.1284 18.697 98.1284 18.6787 98.1284 18.6604L98.0556 18.569L92.7934 9.88386V20.7997C92.7934 21.2385 92.6296 21.6591 92.3018 21.9699C92.0105 22.2808 91.5917 22.4453 91.1729 22.4453C90.2625 22.427 89.5524 21.6957 89.5342 20.7997V3.95968C89.5342 3.59399 89.6434 3.24659 89.8801 2.97232C90.0986 2.67977 90.4082 2.46035 90.7723 2.36893C91.1183 2.27751 91.4824 2.29579 91.8102 2.42379C92.1561 2.55178 92.4293 2.80776 92.6296 3.1186L99.494 14.5098L106.359 3.1186C106.522 2.80776 106.777 2.57006 107.087 2.42379L107.597 2.22266L108.088 2.35065Z" fill="#3D3F56"/>
</g>
<defs>
<clipPath id="clip0_701_16431">
<rect width="109.249" height="22.4351" fill="white" transform="translate(0.0771484 0.814453)"/>
</clipPath>
</defs>
</svg>
