<svg width="50" height="50" viewBox="0 0 50 50" fill="none" xmlns="http://www.w3.org/2000/svg">
<circle cx="25" cy="25" r="24.5" fill="white" stroke="white"/>
<path d="M35.0419 14.6826H15.7562L14.3276 18.9683C14.3358 20.299 15.2192 21.1112 16.5228 21.1112C17.8643 21.1112 18.7481 20.299 18.7562 18.9683C18.7644 20.299 19.6477 21.1112 20.9514 21.1112C22.2929 21.1112 23.1766 20.299 23.1848 18.9683C23.1929 20.299 24.0763 21.1112 25.3799 21.1112C26.7215 21.1112 27.6052 20.299 27.6134 18.9683C27.6215 20.299 28.5049 21.1112 29.8085 21.1112C31.15 21.1112 32.0338 20.299 32.0419 18.9683C32.0501 20.299 32.9335 21.1112 34.2371 21.1112C35.5786 21.1112 36.4624 20.299 36.4705 18.9683L35.0419 14.6826Z" fill="#5FAF2D"/>
<path d="M15.042 34.6822C15.042 35.4712 15.6816 36.1108 16.4706 36.1108H34.3277C35.1167 36.1108 35.7563 35.4712 35.7563 34.6822V22.8965H15.042V34.6822ZM27.8991 25.0393H33.6134V31.1108H27.8991V25.0393ZM22.542 25.0393H25.7563V34.3251H22.542V25.0393ZM17.1848 25.0393H20.3991V34.3251H17.1848V25.0393Z" fill="#5FAF2D"/>
</svg>
