<svg width="50" height="50" viewBox="0 0 50 50" fill="none" xmlns="http://www.w3.org/2000/svg">
<circle cx="25" cy="25" r="24.5" fill="white" stroke="white"/>
<path d="M18.899 30.7902C17.6847 29.183 16.9705 27.7902 16.4705 26.4688L15.149 27.933C14.6133 28.5402 14.5062 29.3616 15.0062 29.8616C15.4705 30.3259 16.0419 30.2545 16.3633 30.0402C15.5776 30.7902 15.6847 31.6473 16.0776 32.0759C16.5062 32.5402 17.3633 32.6473 17.899 32.183C17.4347 32.683 17.4347 33.433 17.899 33.933C18.3633 34.3973 19.3276 34.433 19.9347 33.9688C19.7205 34.2545 19.649 34.933 20.0776 35.3616C20.2919 35.5759 20.649 35.7545 21.0062 35.7545C21.3633 35.7545 21.8276 35.5759 22.1133 35.3259L22.899 34.683C21.3276 33.5759 20.2205 32.5402 18.899 30.7902Z" fill="#5FAF2D"/>
<path d="M31.4705 15.04C30.6491 15.6829 29.6134 16.1115 28.7562 16.1115H28.2205C26.6491 16.1115 25.5776 16.6472 24.6491 17.5758L21.8276 20.3972L22.0776 20.6829C23.0062 21.7543 24.5776 21.6829 25.7562 20.6829L28.2562 18.6115L33.9705 24.6829C34.3276 24.1829 34.5062 23.79 34.7205 22.8615C34.9705 21.79 35.3634 21.2186 35.7562 20.79L36.4705 20.04L31.4705 15.04Z" fill="#5FAF2D"/>
<path d="M28.2562 21.8258L26.9348 22.8972C24.6134 24.79 21.1848 23.7543 19.4705 21.7543L18.6134 20.7543L22.8991 16.4686C22.1134 16.4686 20.5776 16.29 19.9348 15.6472L19.3276 15.04L14.3276 19.6829L15.0062 20.4329C15.8991 21.3972 16.5062 22.1115 17.0062 23.1472L17.5776 24.3615C18.6848 26.7543 19.5062 28.3258 21.2205 30.3615C22.9348 32.3615 24.8991 34.1829 26.7205 35.1829C27.4348 35.5758 28.2919 35.7543 28.6848 35.7543C29.5062 35.7543 30.1134 34.7543 29.3276 33.9686C29.9348 34.5043 30.7205 34.4329 31.2205 33.9329C31.6491 33.5043 31.5419 32.6472 31.1134 32.1829C32.1491 33.2186 34.0776 31.9329 32.8991 30.3972C33.8634 30.9686 35.5062 29.5758 34.1848 28.1829L28.2562 21.8258Z" fill="#5FAF2D"/>
</svg>
