<svg width="50" height="50" viewBox="0 0 50 50" fill="none" xmlns="http://www.w3.org/2000/svg">
<circle cx="25" cy="25" r="24.5" fill="white" stroke="white"/>
<path d="M32.3276 20.9323C31.6134 21.6466 30.6491 21.6823 29.8634 20.8966C29.1491 20.1823 29.1491 19.1823 29.8634 18.4681C30.6134 17.7181 31.6134 17.7181 32.3276 18.4323C33.1134 19.2181 33.0776 20.1823 32.3276 20.9323ZM21.8276 30.3966L21.2919 32.0395C20.8991 33.2181 20.1134 33.6109 18.8991 33.7538L16.8276 33.9681L17.0419 31.8966C17.1848 30.6823 17.5776 29.8966 18.7562 29.5038L20.3991 28.9681L19.8991 28.7181C19.3276 28.4323 18.7562 28.2538 17.8276 28.2538C15.8276 28.2538 14.7562 29.5395 14.6134 31.6823L14.3276 36.4681L19.1134 36.1823C21.2562 36.0395 22.5419 34.9681 22.5419 32.9681C22.5419 32.0395 22.3634 31.4681 22.0776 30.8966L21.8276 30.3966ZM30.7562 25.7538L33.1848 23.3252C34.7205 21.7895 35.6491 19.7538 35.9705 17.6109L36.4705 14.3252L33.1848 14.8252C31.0419 15.1466 29.0062 16.0752 27.4705 17.6109L25.0419 20.0395H23.1134C22.2919 20.0395 21.6848 20.2181 21.1491 20.7181L18.2562 23.2538L22.1848 24.3252L20.7562 26.4681L24.3276 30.0395L26.4705 28.6109L27.5419 32.5395L30.0776 29.6466C30.5776 29.1109 30.7562 28.5038 30.7562 27.6823V25.7538Z" fill="#5FAF2D"/>
</svg>
