<svg width="50" height="50" viewBox="0 0 50 50" fill="none" xmlns="http://www.w3.org/2000/svg">
<circle cx="25" cy="25" r="24.5" fill="white" stroke="white"/>
<path d="M27.9504 21.329L26.4704 20.754V19.6826C26.9556 19.3135 27.1847 18.8112 27.1847 18.1648V16.3826C27.1847 15.2233 26.5961 14.6826 25.514 14.6826H23.2561C23.2561 14.6826 23.4435 16.9222 23.5547 18.1819C23.6336 19.0765 23.8747 19.3726 24.3276 19.6826V20.754C24.3276 20.754 24.3276 20.754 22.8476 21.329C21.3845 21.8974 21.4064 22.5609 21.1133 24.6826H29.6847C29.3704 22.4591 29.1504 21.9283 27.9504 21.329Z" fill="#5FAF2D"/>
<path d="M21.1648 32.7577L19.6848 32.1828V31.1113C20.17 30.7422 20.3991 30.2399 20.3991 29.5935V27.8113C20.3991 26.652 19.8105 26.1113 18.7283 26.1113H16.4705C16.4705 26.1113 16.6579 28.3509 16.769 29.6106C16.848 30.5052 17.0891 30.8013 17.5419 31.1113V32.1828C17.5419 32.1828 17.5419 32.1828 16.0619 32.7577C14.5988 33.3262 14.6207 33.9896 14.3276 36.1113H22.8991C22.5848 33.8878 22.3648 33.357 21.1648 32.7577Z" fill="#5FAF2D"/>
<path d="M34.7363 32.7577L33.2563 32.1828V31.1113C33.7415 30.7422 33.9706 30.2399 33.9706 29.5935V27.8113C33.9706 26.652 33.382 26.1113 32.2999 26.1113H30.042C30.042 26.1113 30.2294 28.3509 30.3406 29.6106C30.4195 30.5052 30.6606 30.8013 31.1135 31.1113V32.1828C31.1135 32.1828 31.1135 32.1828 29.6335 32.7577C28.1704 33.3262 28.1923 33.9896 27.8992 36.1113H36.4706C36.1563 33.8878 35.9363 33.357 34.7363 32.7577Z" fill="#5FAF2D"/>
<path d="M28.2563 28.254C28.2563 27.6623 27.7766 27.1826 27.1848 27.1826H22.542V30.3969C22.542 30.9886 23.0217 31.4683 23.6134 31.4683H28.2563V28.254Z" fill="#5FAF2D"/>
</svg>
