<svg viewBox="0 0 48 48" fill="none" xmlns="http://www.w3.org/2000/svg">
<path d="M39.3601 11.9463L24.7801 5.58625C24.2401 5.34625 23.7601 5.34625 23.2201 5.58625L8.64005 11.9463C8.10005 12.1863 7.80005 12.5463 7.80005 13.1463V17.4063L24.0001 24.0063L40.2001 17.4063V13.1463C40.2001 12.5463 39.9001 12.1863 39.3601 11.9463ZM7.80005 30.6063V35.2863C7.80005 35.8863 8.10005 36.2463 8.64005 36.4863L23.2201 42.4263C23.7601 42.6663 24.2401 42.6663 24.7801 42.4263L39.3601 36.4863C39.9001 36.2463 40.2001 35.8863 40.2001 35.2863V30.6063L24.0001 37.2063L7.80005 30.6063ZM7.80005 21.0063V27.0063L24.0001 33.6063L40.2001 27.0063V21.0063L24.0001 27.6063L7.80005 21.0063Z" fill="#5FAF2D"/>
</svg>
