<svg viewBox="0 0 34 34" fill="none" xmlns="http://www.w3.org/2000/svg">
<path d="M27.88 8.46453L17.5525 3.95953C17.17 3.78953 16.83 3.78953 16.4475 3.95953L6.12002 8.46453C5.73752 8.63453 5.52502 8.88953 5.52502 9.31453V12.332L17 17.007L28.475 12.332V9.31453C28.475 8.88953 28.2625 8.63453 27.88 8.46453ZM5.52502 21.682V24.997C5.52502 25.422 5.73752 25.677 6.12002 25.847L16.4475 30.0545C16.83 30.2245 17.17 30.2245 17.5525 30.0545L27.88 25.847C28.2625 25.677 28.475 25.422 28.475 24.997V21.682L17 26.357L5.52502 21.682ZM5.52502 14.882V19.132L17 23.807L28.475 19.132V14.882L17 19.557L5.52502 14.882Z" fill="white"/>
</svg>
