<svg width="145" height="43" viewBox="0 0 145 43" fill="none" xmlns="http://www.w3.org/2000/svg">
<path d="M71.9842 19.5996H90.8238V22.2596H82.8099V42.2796H79.8575V22.2596H71.9842V19.5996Z" fill="black"/>
<path d="M89.5584 33.8796C89.5584 28.8396 93.3544 25.0596 98.4158 25.0596C103.477 25.0596 106.851 28.4196 106.851 33.3196C106.851 33.7396 106.851 34.2996 106.851 34.7196H92.3703C92.5109 37.7996 95.0416 39.8996 98.4158 39.8996C100.947 39.8996 102.493 39.0596 103.758 36.9596L106.289 37.9396C104.883 40.8796 102.212 42.5596 98.4158 42.5596C93.2139 42.5596 89.5584 38.9196 89.5584 33.8796ZM92.5109 32.1996H104.04C103.899 29.6796 101.368 27.5796 98.4158 27.5796C95.3228 27.5796 92.9327 29.5396 92.5109 32.1996Z" fill="black"/>
<path d="M125.551 37.9396C124.145 40.8796 121.473 42.5596 117.818 42.5596C112.616 42.5596 108.82 38.9196 108.82 33.7396C108.82 28.6996 112.475 25.0596 117.818 25.0596C121.473 25.0596 124.145 26.7396 125.551 29.6796L123.02 30.5196C121.895 28.5596 120.067 27.5796 117.677 27.5796C114.022 27.5796 111.632 30.0996 111.632 33.7396C111.632 37.3796 114.162 39.8996 117.677 39.8996C120.067 39.8996 121.614 38.9196 122.879 36.9596L125.551 37.9396Z" fill="black"/>
<path d="M128.925 18.6201H131.596V28.0001C132.58 26.1801 134.549 25.0601 137.079 25.0601C141.719 25.0601 144.25 27.4401 144.25 32.7601V42.2802H141.578V33.0401C141.578 29.4001 140.032 27.7201 136.657 27.7201C133.846 27.7201 131.737 29.4001 131.737 32.7601V42.4201H129.065V18.6201H128.925Z" fill="black"/>
<path d="M40.0693 42.2796L35.4297 34.4396L30.7901 42.2796H25.1664L32.3366 30.5196L25.0258 19.5996H30.9307L35.5703 26.8796L39.9287 19.5996H45.5525L38.3822 30.7996L45.6931 42.2796H40.0693Z" fill="black"/>
<path d="M63.6891 34.58C63.6891 39.62 59.8931 42.7 54.9723 42.7C50.6138 42.7 46.9584 40.32 46.5366 35H51.3168C51.598 37.24 53.4257 38.22 55.394 38.22C57.9247 38.22 58.9089 36.54 58.9089 34.44C58.9089 32.2 57.2218 30.8 54.9723 30.8C53.0039 30.8 51.7386 31.64 51.1762 32.62H46.6772L48.2238 19.46H63.1267L62.5643 23.94H52.0198L51.598 28.28C51.598 28.28 52.7228 27.02 56.097 27.02C60.1742 27.02 63.6891 29.82 63.6891 34.58Z" fill="black"/>
<path d="M47.099 16.66C44.5683 6.99999 36.5545 0 19.9644 0H0L2.67129 18.34C4.7802 34.86 11.1069 40.18 22.3545 42.14C22.3545 42.14 22.7762 42.14 22.7762 41.72C22.7762 41.58 22.6356 41.44 22.4951 41.44C14.903 38.22 14.0594 27.86 12.3723 17.36L11.1069 8.95999H22.4951C33.0396 8.95999 41.1941 8.82001 46.396 16.94C46.5366 17.08 46.5366 17.08 46.6772 17.08C46.9584 17.22 47.099 17.08 47.099 16.66C47.099 16.8 47.099 16.8 47.099 16.66Z" fill="black"/>
</svg>
