<svg viewBox="0 0 141 27" fill="none" xmlns="http://www.w3.org/2000/svg">
<path d="M140.969 0H0V27H140.969V0Z" fill="#CF4418"/>
<path d="M117.11 9.4461C117.11 9.4461 118.701 10.161 123.26 8.44531C123.26 8.44531 115.358 17.0069 114.022 13.6995C114.022 13.6995 112.072 12.6105 117.119 9.4461" fill="#FCC94C"/>
<path d="M107.276 8.1211C107.276 8.1211 109.218 8.62865 114.97 7.40625C114.97 7.40625 105.348 16.4611 103.876 12.8082C103.876 12.8082 101.731 11.6167 107.276 8.12587" fill="#FCC94C"/>
<path d="M95.307 7.8581C95.307 7.8581 97.5445 8.44189 104.164 7.03125C104.164 7.03125 93.0885 17.4395 91.3943 13.2481C91.3943 13.2481 88.9233 11.8708 95.307 7.8581Z" fill="#FCC94C"/>
<path d="M85.0771 8.40466C85.0771 8.40466 86.6712 9.11951 91.2296 7.40625C91.2296 7.40625 83.3281 15.9654 81.9913 12.6485C81.9913 12.6485 80.0421 11.5619 85.0771 8.39513" fill="#FCC94C"/>
<path d="M124.792 8.8385C124.307 8.65215 123.808 8.50474 123.3 8.39767C120.231 9.43659 118.153 11.4525 114.927 11.6884C112.453 11.8695 113.914 9.96082 115.982 8.78131C117.288 8.03548 119.08 7.80673 119.371 7.77337C117.996 7.6161 116.433 7.47551 114.717 7.36352C110.511 8.39767 108.045 11.2261 103.93 11.5502C101.087 11.7742 102.753 9.56765 105.121 8.1999C106.282 7.52794 107.793 7.20864 108.56 7.08234C107.216 7.0466 105.824 7.02516 104.399 7.01562C98.826 7.45169 96.2644 11.1642 91.5178 11.543C88.675 11.767 90.3383 9.56289 92.7092 8.19514C93.6409 7.69784 94.6441 7.34817 95.683 7.1586C94.1103 7.22293 92.6186 7.30395 91.2342 7.39688C87.4717 8.32619 85.4963 10.9711 81.9102 11.3881C79.5273 11.6693 80.8283 9.75351 82.7656 8.52873L82.818 8.49775C82.479 8.57997 82.1456 8.68343 81.8196 8.80752C77.6377 9.83929 73.5059 12.4151 73.5059 14.7646C73.5059 17.7908 77.5567 19.292 82.544 19.292H123.665C128.654 19.292 132.7 17.7813 132.7 14.7646C132.7 12.439 128.843 9.89648 124.792 8.84088" fill="#F59D24"/>
<path d="M86.4734 9.96434C87.7565 9.22904 89.0997 8.60408 90.4885 8.09619C91.9406 7.967 93.3808 7.72803 94.7967 7.38134C94.425 7.32892 94.0485 7.29555 93.672 7.25981C92.7022 7.18594 91.7324 7.1502 90.7578 7.14067C90.337 7.13879 89.9181 7.19737 89.5139 7.31462C87.9198 7.7483 86.5497 8.55608 85.2248 9.41152C84.6506 9.78324 84.0787 10.1574 83.4853 10.5076C82.6995 10.9512 81.8748 11.322 81.0215 11.6156C83.066 11.6895 84.7959 10.8698 86.4687 9.96673" fill="white"/>
<path d="M90.9174 11.6367C92.2342 11.6809 93.547 11.468 94.7824 11.01C95.6639 10.6769 96.5255 10.2934 97.363 9.86144C98.2685 9.41823 99.1668 8.96788 100.106 8.57471C101.311 8.09793 102.564 7.74892 103.842 7.53341H103.785C105.181 7.48573 106.573 7.36722 107.957 7.17836C107.004 7.00679 106.051 6.8948 105.074 6.80187C104.254 6.69109 103.423 6.68149 102.601 6.77328C101.653 6.89839 100.722 7.12363 99.8221 7.44523C98.0731 8.0886 96.5552 9.05842 94.973 9.94484C94.2264 10.3644 93.4572 10.7422 92.6688 11.0767C92.0957 11.2968 91.5101 11.483 90.915 11.6343" fill="white"/>
<path d="M104.164 11.5887C106.697 11.734 108.858 10.7189 110.965 9.6514C112.281 8.96244 113.646 8.36994 115.049 7.87856C116.552 7.91192 118.104 7.93099 119.605 7.81423C118.743 7.5662 117.868 7.36809 116.984 7.2209C116.48 7.13829 115.976 7.05886 115.471 6.98261C115.237 6.926 114.994 6.91468 114.756 6.94925C114.196 7.06738 113.644 7.21856 113.102 7.40199C111.622 7.9286 110.293 8.68158 108.97 9.44409C108.284 9.83964 107.595 10.2376 106.873 10.5855C106.002 10.9876 105.1 11.3198 104.176 11.5791" fill="white"/>
<path d="M133.105 13.6781C132.457 12.2484 131.037 11.138 129.569 10.2969C128.003 9.40971 126.318 8.75095 124.565 8.34058L124.627 8.36202C124.052 8.16665 123.466 8.00748 122.871 7.88545C122.742 7.85924 122.444 8.03558 122.33 8.08085C122.092 8.17855 121.854 8.281 121.615 8.38823C121.153 8.60269 120.7 8.8362 120.257 9.07925C118.317 10.1444 116.473 11.362 114.119 11.6527C117.421 11.5264 119.904 9.50817 122.881 8.55503C123.543 8.7409 124.182 8.9768 124.832 9.18649C125.968 9.54663 127.066 10.0167 128.111 10.59C129.815 11.5431 131.947 13.0062 132.014 14.8791C132.022 15.3906 131.867 15.8914 131.571 16.3088C131.108 16.9463 130.485 17.4495 129.765 17.7671C128.118 18.563 126.145 18.8275 124.284 18.8918C122.826 18.9395 121.356 18.8918 119.895 18.8918H115.83C112.77 18.8823 109.711 18.8823 106.653 18.8918C104.182 18.8918 101.714 18.8918 99.2427 18.9204L90.3357 19.0038C87.7241 19.0276 85.1117 19.0666 82.4985 19.1206C80.0752 19.1682 77.6018 19.3112 75.2785 18.5916C73.6534 18.0864 72.3381 17.057 72.0092 15.5701C71.6351 14.0904 72.593 12.7941 73.7559 11.7576L73.5295 11.9244L73.4175 12.0125C72.3428 12.8608 71.4826 13.9403 71.5398 15.2341C71.6971 18.8084 76.203 19.9212 79.7082 20.0713C81.1522 20.1333 82.601 20.138 84.045 20.1619C86.6661 20.2 89.2872 20.2453 91.925 20.2691C94.8178 20.2977 97.7098 20.3239 100.601 20.3477C103.379 20.3716 106.16 20.3644 108.941 20.3739C111.469 20.3739 113.997 20.3739 116.526 20.3739L121.255 20.3596C123.822 20.3596 126.4 20.331 128.845 19.5828C130.494 19.0801 132.088 18.2222 132.896 16.8569C133.183 16.3865 133.355 15.8545 133.397 15.3046C133.438 14.7548 133.348 14.203 133.134 13.6948" fill="white"/>
<path d="M123.26 9.5C123.26 9.5 120.551 11.4682 118.456 12.033C118.456 12.033 125.385 12.6001 126.613 15.4357C126.613 15.4357 126.455 18.3666 118.456 18.2712C118.456 18.2712 131.96 18.9289 131.068 14.2538C131.068 14.2538 130.385 11.4515 123.26 9.5Z" fill="#F08D1C"/>
<path d="M87.4667 16.7026C87.0449 16.7026 86.6232 16.6859 86.2038 16.6716C84.5644 16.6168 82.9345 16.4786 81.3094 16.2951C79.7677 16.1212 77.9329 16.1784 77.2705 14.8154C76.508 13.2451 78.0116 11.7367 79.1553 10.6406C77.1967 11.5938 73.4818 13.9528 75.0068 16.1212C76.1125 17.6986 78.8932 17.8463 80.8067 17.894C86.8948 18.0536 93.0068 18.2109 99.095 18.0751C100.823 18.037 102.549 17.9877 104.273 17.9274C104.73 17.9131 109.691 18.0679 108.181 17.4746C107.69 17.2816 104.24 17.1458 103.701 17.1291C98.0156 16.948 93.176 16.7955 87.4667 16.693" fill="#FCC94C"/>
<path d="M11.8329 15.6553V17.7832H12.5668C13.1053 17.7832 13.485 17.6855 13.7058 17.4901C13.8164 17.3878 13.9032 17.2624 13.96 17.1228C14.0168 16.9832 14.0423 16.8328 14.0347 16.6823C14.0339 16.5466 14.0042 16.4127 13.9474 16.2894C13.8907 16.1661 13.8084 16.0564 13.7058 15.9675C13.4834 15.7642 13.1038 15.6633 12.5668 15.6649H11.8329M13.3746 20.9286H7.81543V7.71094H17.5041L16.7892 11.0136H11.8329V12.6816H13.3746C14.0161 12.6774 14.6559 12.7486 15.2809 12.8936C15.8307 13.0203 16.3504 13.2534 16.8107 13.5799C17.2504 13.8975 17.6035 14.3202 17.8377 14.8094C18.1054 15.399 18.2342 16.0422 18.2142 16.6895C18.2355 17.3846 18.1071 18.0762 17.8377 18.7173C17.6076 19.2275 17.2547 19.6729 16.8107 20.0136C16.3559 20.3534 15.8333 20.5914 15.2785 20.7117C14.6525 20.8491 14.0131 20.9162 13.3722 20.9119" fill="#B3281F"/>
<path d="M24.1262 11.0136L23.5948 14.645H25.1341L24.6028 11.0136H24.1262ZM30.2358 20.919H26.0539L25.5774 17.6164H23.154L22.6774 20.919H18.4932L21.0809 7.71094H27.648L30.2358 20.919Z" fill="#B3281F"/>
<path d="M37.3175 20.919H33.2452V11.0136H30.0713L30.7671 7.71094H40.4915L39.7933 11.0136H37.3175V20.919Z" fill="#B3281F"/>
<path d="M47.5189 11.007C47.148 11.008 46.7808 11.08 46.4371 11.2191C46.0825 11.3597 45.7629 11.5761 45.5006 11.853C45.2191 12.1534 44.9983 12.5054 44.8501 12.8895C44.5197 13.8083 44.5197 14.8134 44.8501 15.7322C44.9983 16.1163 45.2191 16.4683 45.5006 16.7688C45.7629 17.0457 46.0825 17.262 46.4371 17.4026C47.1344 17.6823 47.9128 17.6823 48.6102 17.4026C48.9609 17.26 49.277 17.0438 49.5371 16.7688C49.8186 16.4683 50.0395 16.1163 50.1877 15.7322C50.518 14.8134 50.518 13.8083 50.1877 12.8895C50.0395 12.5054 49.8186 12.1534 49.5371 11.853C49.277 11.5779 48.9609 11.3617 48.6102 11.2191C48.2636 11.0785 47.8929 11.0065 47.5189 11.007ZM47.5189 21.2533C46.5899 21.2575 45.6676 21.0962 44.7953 20.7767C43.9537 20.4714 43.1804 20.0034 42.5197 19.3994C41.8542 18.7854 41.3201 18.0429 40.9494 17.2167C40.5472 16.3045 40.3473 15.316 40.3632 14.3192C40.3587 13.3208 40.565 12.3326 40.9684 11.4193C41.3382 10.5933 41.8716 9.85076 42.5363 9.2366C43.1952 8.63479 43.9648 8.16699 44.8024 7.85931C46.5601 7.22398 48.4848 7.22398 50.2425 7.85931C51.0838 8.16516 51.8569 8.63309 52.5181 9.2366C53.1828 9.85076 53.7162 10.5933 54.086 11.4193C54.4744 12.3363 54.6746 13.3221 54.6746 14.318C54.6746 15.3139 54.4744 16.2997 54.086 17.2167C53.7162 18.0428 53.1828 18.7853 52.5181 19.3994C51.8569 20.0029 51.0838 20.4709 50.2425 20.7767C49.37 21.0958 48.4478 21.2571 47.5189 21.2533Z" fill="#B3281F"/>
<path d="M66.8201 20.919H62.7479V15.7268H59.9409V20.919H55.8662V7.71094H59.9409V12.4242H62.7479V7.71094H66.8201V20.919Z" fill="#B3281F"/>
<path d="M7.31348 19.4112V6.20312H17.0021L16.2873 9.50337H11.331V11.1714H12.8703C13.5118 11.167 14.1516 11.2382 14.7765 11.3834C15.327 11.5068 15.8476 11.7376 16.3087 12.0625C16.7489 12.3796 17.1021 12.8025 17.3357 13.2921C17.6049 13.8812 17.7338 14.5248 17.7122 15.1722C17.7347 15.8666 17.6062 16.5576 17.3357 17.1976C17.1077 17.7137 16.7548 18.1649 16.3087 18.5105C15.8545 18.8509 15.3317 19.0883 14.7765 19.2063C14.1509 19.3459 13.5113 19.4139 12.8703 19.4088L7.31348 19.4112ZM11.331 14.1451V16.2754H12.0649C12.6034 16.2754 12.9823 16.1769 13.2015 15.9799C13.3123 15.8782 13.3994 15.7533 13.4567 15.6141C13.5139 15.4749 13.5399 15.3248 13.5327 15.1745C13.5316 15.0387 13.5015 14.9046 13.4444 14.7813C13.3873 14.658 13.3045 14.5483 13.2015 14.4597C12.9823 14.2563 12.6034 14.1547 12.0649 14.1547L11.331 14.1451Z" fill="white"/>
<path d="M22.1743 19.4112H18.002L20.5873 6.20312H27.1568L29.7422 19.4112H25.5508L25.0742 16.1086H22.6509L22.1743 19.4112ZM23.6231 9.50337L23.0917 13.1372H24.6334L24.102 9.50337H23.6231Z" fill="white"/>
<path d="M36.8146 19.4112H32.7423V9.50337H29.5684L30.2665 6.20312H39.9885L39.2927 9.50337H36.8146V19.4112Z" fill="white"/>
<path d="M47.0159 5.87509C47.9456 5.87105 48.8687 6.03242 49.7419 6.35166C50.5832 6.6575 51.3563 7.12543 52.0175 7.72894C52.6822 8.34311 53.2156 9.08561 53.5854 9.91162C53.9722 10.8291 54.1715 11.8147 54.1715 12.8104C54.1715 13.806 53.9722 14.7916 53.5854 15.7091C53.2156 16.5351 52.6822 17.2776 52.0175 17.8918C51.3563 18.4953 50.5832 18.9632 49.7419 19.2691C47.9809 19.9045 46.0532 19.9045 44.2923 19.2691C43.451 18.9632 42.6778 18.4953 42.0167 17.8918C41.3514 17.2781 40.818 16.5355 40.4488 15.7091C40.0455 14.7963 39.8447 13.807 39.8602 12.8092C39.8556 11.8112 40.0627 10.8236 40.4678 9.91162C40.837 9.08524 41.3705 8.34262 42.0357 7.72894C42.6938 7.1261 43.4637 6.65817 44.3018 6.35166C45.1708 6.03203 46.09 5.87063 47.0159 5.87509ZM44.0993 12.8092C44.0866 13.2966 44.1674 13.7819 44.3376 14.2389C44.4858 14.623 44.7066 14.9749 44.9881 15.2754C45.2504 15.5523 45.57 15.7686 45.9245 15.9092C46.6219 16.1889 47.4003 16.1889 48.0977 15.9092C48.4488 15.7674 48.7651 15.5512 49.0246 15.2754C49.306 14.9744 49.5276 14.6227 49.6775 14.2389C50.0047 13.3195 50.0047 12.3155 49.6775 11.3961C49.5276 11.0123 49.306 10.6606 49.0246 10.3596C48.7651 10.0838 48.4488 9.8676 48.0977 9.72576C47.4009 9.44308 46.6213 9.44308 45.9245 9.72576C45.57 9.86639 45.2504 10.0827 44.9881 10.3596C44.7066 10.6601 44.4858 11.012 44.3376 11.3961C44.167 11.853 44.0861 12.3384 44.0993 12.8258" fill="white"/>
<path d="M55.3652 19.4112V6.20312H59.4375V10.9164H62.2445V6.20312H66.3168V19.4112H62.2445V14.219H59.4375V19.4112H55.3652Z" fill="white"/>
</svg>
