<svg viewBox="0 0 24 24" fill="none" xmlns="http://www.w3.org/2000/svg">
<path d="M9.99999 11.7154V13.4297C10.3428 13.7725 11.1428 14.0011 12 14.0011C12.8571 14.0011 13.6571 13.7725 14 13.4297V11.6868C14.7428 11.144 15.1428 10.203 15.1428 9.25826V6.14397C15.1428 4.28683 14.2857 3.42969 12.4286 3.42969H8.28571L8.77142 9.25826C8.86289 10.295 9.27995 11.1682 9.99999 11.7154Z" fill="#5FAF2D"/>
<path d="M20.1429 19.6456C19.6 16.1748 18.8857 15.6555 16.6 14.6717L15.7143 14.2891C14.9429 15.1363 13.4857 15.7176 12 15.7176C10.5429 15.7176 9.05715 15.1363 8.28572 14.2891L7.42858 14.6717C5.17144 15.6829 4.40001 16.1748 3.85715 19.6456L3.71429 20.5748H20.2857L20.1429 19.6456Z" fill="#5FAF2D"/>
</svg>
