<svg width="36" height="36" viewBox="0 0 36 36" fill="none" xmlns="http://www.w3.org/2000/svg">
<path d="M17.9574 13.2861C16.4574 13.2861 15.4288 14.3147 15.4288 15.8576C15.4288 17.4433 16.4574 18.429 17.9574 18.429C19.5431 18.429 20.5717 17.4433 20.5717 15.8576C20.5717 14.3147 19.5431 13.2861 17.9574 13.2861Z" fill="#5FAF2D"/>
<path d="M22.286 7.28627L14.7003 4.88627C14.0574 4.67199 13.3717 4.67199 12.7288 4.88627L5.14313 7.28627V31.2863L13.7146 28.7148L21.3003 31.1148C21.9431 31.3291 22.6288 31.3291 23.2717 31.1148L30.8574 28.7148V4.71484L22.286 7.28627ZM19.8988 22.8769L18.0003 25.7148L16.1017 22.8769C13.9254 19.5931 12.8574 18.0126 12.8574 15.904C12.8574 12.8225 14.8751 10.7148 18.0003 10.7148C21.1254 10.7148 23.1431 12.8225 23.1431 15.904C23.1431 18.0126 22.0751 19.5931 19.8988 22.8769Z" fill="#5FAF2D"/>
</svg>
