<svg width="32" height="32" viewBox="0 0 32 32" fill="none" xmlns="http://www.w3.org/2000/svg">
<circle cx="16" cy="16" r="16" fill="#5FAF2D"/>
<path d="M21.257 17.1428C20.3884 18.6285 18.6513 19.7028 16.6855 19.8857L18.5141 23.0857L19.9094 21.0924C20.0377 20.9091 20.2474 20.8 20.4711 20.8H23.0855L21.257 17.1428Z" fill="white"/>
<path d="M10.7426 17.1428L8.91406 20.8H11.5285C11.7522 20.8 11.9619 20.9091 12.0902 21.0924L13.4855 23.0857L15.3141 19.8857C13.3483 19.7028 11.6112 18.6285 10.7426 17.1428Z" fill="white"/>
<path d="M20.7997 13.6707C20.7997 10.8343 18.8797 8.91431 15.9561 8.91431C13.1197 8.91431 11.1997 10.8343 11.1997 13.6707C11.1997 16.6816 13.1197 18.5143 15.9561 18.5143C18.8797 18.5143 20.7997 16.6816 20.7997 13.6707ZM17.6226 14.6057L18.0569 16.4572L16.274 15.3829C16.114 15.2915 15.8854 15.2915 15.7254 15.3829L13.9426 16.4572L14.3769 14.6057C14.4226 14.4229 14.3997 14.2172 14.2397 14.08L12.7997 12.8L14.7426 12.5943C14.9483 12.5714 15.1083 12.4572 15.1997 12.2743L15.9997 10.5143L16.7997 12.2743C16.8911 12.4572 17.0511 12.5714 17.2569 12.5943L19.1997 12.8L17.7597 14.08C17.5997 14.2172 17.5769 14.4229 17.6226 14.6057Z" fill="white"/>
</svg>
