<svg width="50" height="50" viewBox="0 0 50 50" fill="none" xmlns="http://www.w3.org/2000/svg">
<circle cx="25" cy="25" r="25" fill="white"/>
<path d="M33.2146 26.7871C31.8575 29.1085 29.1432 30.7871 26.0718 31.0728L28.9289 36.0728L31.109 32.9584C31.3095 32.672 31.6371 32.5014 31.9868 32.5014H36.0718L33.2146 26.7871Z" fill="#5FAF2D"/>
<path d="M16.7859 26.7871L13.9287 32.5014H18.0137C18.3634 32.5014 18.691 32.672 18.8915 32.9584L21.0716 36.0728L23.9287 31.0728C20.8573 30.7871 18.143 29.1085 16.7859 26.7871Z" fill="#5FAF2D"/>
<path d="M32.5 21.3615C32.5 16.9297 29.5 13.9297 24.9318 13.9297C20.5 13.9297 17.5 16.9297 17.5 21.3615C17.5 26.0661 20.5 28.9297 24.9318 28.9297C29.5 28.9297 32.5 26.0661 32.5 21.3615ZM27.5357 22.8225L28.2143 25.7154L25.4286 24.0368C25.1786 23.894 24.8214 23.894 24.5714 24.0368L21.7857 25.7154L22.4643 22.8225C22.5357 22.5368 22.5 22.2154 22.25 22.0011L20 20.0011L23.0357 19.6797C23.3571 19.644 23.6071 19.4654 23.75 19.1797L25 16.4297L26.25 19.1797C26.3929 19.4654 26.6429 19.644 26.9643 19.6797L30 20.0011L27.75 22.0011C27.5 22.2154 27.4643 22.5368 27.5357 22.8225Z" fill="#5FAF2D"/>
</svg>
