<svg viewBox="0 0 24 24" fill="none" xmlns="http://www.w3.org/2000/svg">
<path d="M22.7148 4.28127C22.2046 3.12488 21.3446 2.15761 20.2559 1.51562V2.8899C20.2559 4.13092 20.7838 4.65438 21.6915 4.65438H21.6945H21.699C22.128 4.65438 22.4714 4.53571 22.7148 4.28127Z" fill="#FF5700"/>
<path d="M16.4944 22.2477V21.1797H15.2122C14.3478 21.23 14.1914 21.8098 14.1914 22.2487C14.1914 22.6656 14.3337 23.2087 15.0885 23.3047H16.4964L16.4944 22.2477Z" fill="#FF5700"/>
<path d="M23.1346 13.7652V12.0268C23.1346 10.7964 22.6067 10.375 21.699 10.375H21.696H21.6915C20.7864 10.375 20.2559 10.7964 20.2559 12.0268V13.7657C20.2559 15.0067 20.7838 15.5297 21.6915 15.5297H21.699C22.6067 15.5297 23.1346 15.0062 23.1346 13.7652Z" fill="#FF5700"/>
<path d="M0.746094 12.0263V13.7652C0.746094 15.0062 1.27408 15.5292 2.18172 15.5292H2.18926C3.09689 15.5292 3.62488 15.0057 3.62488 13.7647V12.0268C3.62488 10.7964 3.09689 10.375 2.18926 10.375H2.18624H2.18172C1.27408 10.3745 0.746094 10.7959 0.746094 12.0263Z" fill="#FF5700"/>
<path d="M21.7174 17.4062H21.7099C21.0827 17.4062 20.5295 17.3129 20.0505 17.1261C19.5967 16.9555 19.1862 16.6868 18.8482 16.3392C18.5157 15.9864 18.2633 15.5658 18.1086 15.1063C17.9323 14.5797 17.8463 14.0272 17.8541 13.472V12.4131C17.8463 11.8579 17.9323 11.3054 18.1086 10.7789C18.2633 10.3192 18.5156 9.89845 18.8482 9.54542C19.1865 9.19817 19.5969 8.92953 20.0505 8.75849C20.5285 8.57177 21.0816 8.47857 21.7099 8.47891H21.7174C22.236 8.47205 22.752 8.55228 23.244 8.71625V6.70491C23.244 6.57015 23.238 6.4369 23.2289 6.30264C22.7423 6.46231 22.2326 6.54047 21.7204 6.53395H21.7129C21.0857 6.53395 20.5326 6.44059 20.0535 6.25387C19.5998 6.08339 19.1893 5.81486 18.8512 5.46744C18.5187 5.11441 18.2663 4.69364 18.1116 4.23399C17.9353 3.70747 17.8493 3.15496 17.8571 2.59978V1.54232C17.8566 1.26995 17.8756 0.997886 17.914 0.728231C17.685 0.701415 17.4546 0.687815 17.2241 0.6875H16.1214V6.05123C16.1251 6.09299 16.1183 6.13502 16.1016 6.17349C16.0849 6.21195 16.0589 6.24564 16.0258 6.27147C15.9607 6.31771 15.8824 6.34185 15.8026 6.34036H14.1754C14.0931 6.3412 14.0125 6.31719 13.9441 6.27147C13.9091 6.24699 13.8812 6.21376 13.8631 6.17511C13.8451 6.13647 13.8374 6.09375 13.841 6.05123V3.29117H13.832V1.31202H13.841V0.6875H11.5551V1.76558C11.5506 2.18946 11.4852 4.60608 10.564 5.54538C9.66196 6.46556 8.33247 6.43338 8.33247 6.43338C8.27065 6.43345 8.20941 6.42132 8.15228 6.39769C8.09515 6.37406 8.04324 6.33939 7.99952 6.29568C7.9558 6.25196 7.92114 6.20005 7.89751 6.14292C7.87388 6.08579 7.86175 6.02455 7.86182 5.96273V4.76146C7.86183 4.63663 7.91139 4.51691 7.99959 4.42858C8.09151 4.34591 8.20901 4.29728 8.33247 4.29081C8.51802 4.27069 8.68445 4.21337 8.94291 3.86038C9.27528 3.40331 9.26724 1.14508 9.26724 1.14508H9.25869V0.689512H6.70932C5.11367 0.689378 3.58329 1.32302 2.45476 2.45108C1.32622 3.57915 0.691944 5.10926 0.691411 6.70491V8.70418C1.17304 8.5487 1.67675 8.47262 2.18281 8.47891H2.19036C2.81722 8.47891 3.3695 8.57227 3.84719 8.75899C4.301 8.92958 4.71153 9.19829 5.04947 9.54592C5.38207 9.89845 5.63456 10.3187 5.78964 10.7779C5.96591 11.3044 6.05194 11.8569 6.04407 12.4121V13.471C6.05194 14.0262 5.96591 14.5787 5.78964 15.1053C5.6347 15.5649 5.3822 15.9857 5.04947 16.3387C4.71164 16.6863 4.30107 16.9549 3.84719 17.1251C3.3695 17.3122 2.81722 17.4055 2.19036 17.4052H2.18281C1.67672 17.4114 1.17301 17.3351 0.691411 17.1794V17.28C0.68959 18.7943 1.26085 20.2531 2.29042 21.3635C2.46038 20.8878 2.61777 20.5766 2.94863 20.2417C3.2795 19.9068 3.59729 19.7389 4.08353 19.5498C4.55317 19.3698 5.27223 19.2773 5.89373 19.2707C5.89373 19.2707 6.96124 19.2964 7.6803 19.6202C8.39935 19.944 9.24763 20.8557 9.40451 21.1548C9.56139 21.454 9.18125 21.7381 9.18125 21.7381C9.18125 21.7381 8.25604 22.2782 8.06597 22.336C8.01107 22.3528 7.95281 22.3556 7.89657 22.344C7.84032 22.3324 7.78791 22.3068 7.74415 22.2696C7.74415 22.2696 7.60135 21.9418 7.09047 21.5013C6.57959 21.0608 5.89473 21.099 5.89473 21.099C5.1611 21.0844 4.85035 21.3907 4.63011 21.7311C4.46317 21.9901 4.40936 22.3818 4.39377 22.8373C5.12661 23.1429 5.91281 23.3 6.70681 23.2994H11.9991C11.8895 23.0505 11.7864 22.6166 11.8367 22.0926C11.8367 19.7193 14.3207 19.3738 14.9543 19.3738C16.154 19.3416 18.27 19.4005 18.4867 19.3854C18.5491 19.3917 18.6104 19.4066 18.6687 19.4296C18.6867 19.4357 18.7033 19.4452 18.7175 19.4578C18.7317 19.4703 18.7434 19.4855 18.7517 19.5025C18.7639 19.535 18.7725 19.5687 18.7773 19.6031C18.7833 19.6466 18.7861 19.6904 18.7859 19.7343V23.0918C20.0644 22.7485 21.1941 21.9933 22 20.9431C22.8059 19.8929 23.2432 18.6063 23.244 17.2825V17.1699C22.7519 17.3335 22.2359 17.4134 21.7174 17.4062V17.4062ZM4.51596 6.42031C4.28879 6.42041 4.0667 6.35314 3.87777 6.227C3.68884 6.10086 3.54156 5.92153 3.45455 5.71168C3.36755 5.50184 3.34474 5.2709 3.38899 5.04809C3.43325 4.82527 3.54259 4.62059 3.70319 4.45992C3.86379 4.29925 4.06842 4.18982 4.29122 4.14547C4.51401 4.10111 4.74496 4.12383 4.95484 4.21074C5.16473 4.29765 5.34413 4.44485 5.47034 4.63373C5.59656 4.8226 5.66393 5.04467 5.66393 5.27184C5.6638 5.5763 5.54282 5.86827 5.32758 6.0836C5.11234 6.29894 4.82043 6.42004 4.51596 6.42031V6.42031ZM10.7104 14.9011C10.9301 15.2395 11.2409 15.5442 11.975 15.5296C12.7091 15.5151 13.3487 15.1616 13.4669 14.3731C13.4737 14.3173 13.5004 14.2658 13.542 14.2279C13.5836 14.1901 13.6375 14.1685 13.6937 14.167H15.4129C15.7095 14.167 15.9232 14.3223 15.7116 15.0514C15.5682 15.5437 15.2872 15.944 14.9573 16.2814C14.6109 16.6289 14.1929 16.8968 13.7324 17.0663C13.2457 17.2524 12.6832 17.3454 12.0449 17.3454C11.4063 17.3454 10.6495 17.2524 10.1628 17.0663C9.67604 16.8803 9.36227 16.7143 9.02739 16.3784C8.6925 16.0425 8.53561 15.7283 8.36314 15.2455C8.19067 14.7628 8.10418 14.0252 8.10418 13.4213V12.4096C8.10418 11.8062 8.19017 11.068 8.36314 10.5853C8.53612 10.1026 8.6925 9.78929 9.02739 9.4524C9.36227 9.1155 9.67604 8.94956 10.1628 8.76452C10.6495 8.57948 11.4063 8.48544 12.0449 8.48544C12.6835 8.48544 13.2457 8.57847 13.7324 8.76452C14.1931 8.93368 14.6111 9.20159 14.9573 9.54944C15.2867 9.88634 15.5677 10.2866 15.7116 10.7794C15.9232 11.5085 15.7116 11.7609 15.4129 11.7609H13.6937C13.6374 11.7594 13.5835 11.7377 13.5419 11.6997C13.5002 11.6618 13.4736 11.6102 13.4669 11.5542C13.3487 10.7678 12.7127 10.3173 11.975 10.3027C11.2373 10.2881 10.9301 10.5928 10.7104 10.9312C10.4982 11.2576 10.4675 11.7956 10.4675 12.4096V13.4243C10.4675 14.0382 10.4982 14.5763 10.7104 14.9011Z" fill="#FF5700"/>
</svg>
