<svg viewBox="0 0 131 41" fill="none" xmlns="http://www.w3.org/2000/svg">
<path d="M39.3756 6.42257C38.4643 4.35696 36.9282 2.62917 34.9834 1.48242V3.93723C34.9834 6.15401 35.9265 7.08904 37.5478 7.08904H37.5532H37.5613C38.3274 7.08904 38.9409 6.87706 39.3756 6.42257Z" fill="#FF5700"/>
<path d="M67.3958 18.317C67.3145 18.3584 67.2247 18.3799 67.1335 18.3798H64.1254C64.0751 18.3808 64.0253 18.3701 63.9799 18.3484C63.9345 18.3267 63.8948 18.2947 63.864 18.255C63.7958 18.1728 63.7592 18.0689 63.7607 17.9622V9.93936C63.7607 9.82798 63.723 9.77229 63.6466 9.77229C63.5865 9.77229 63.5254 9.8208 63.467 9.9178L61.0697 14.4088C60.9984 14.5245 60.8973 14.6188 60.7771 14.682C60.6568 14.7452 60.5218 14.775 60.3861 14.7681H59.2535C59.1178 14.775 58.9828 14.7452 58.8625 14.682C58.7423 14.6188 58.6412 14.5245 58.57 14.4088L56.1726 9.9178C56.1116 9.8208 56.0505 9.77229 55.993 9.77229C55.9166 9.77229 55.8789 9.82798 55.8789 9.93936V17.9667C55.8807 18.0733 55.8444 18.1771 55.7765 18.2595C55.7451 18.2993 55.7047 18.3312 55.6587 18.3525C55.6127 18.3739 55.5623 18.3842 55.5116 18.3825H52.5026C52.4117 18.3827 52.322 18.3612 52.2412 18.3196C52.1995 18.2985 52.1651 18.2652 52.1427 18.2242C52.1202 18.1831 52.1107 18.1362 52.1154 18.0897V3.55309C52.1103 3.45424 52.1283 3.35555 52.1679 3.26483C52.2075 3.17411 52.2676 3.09383 52.3436 3.03034C52.5122 2.89906 52.722 2.83218 52.9355 2.84172H55.0777C55.534 2.84172 55.8672 3.03034 56.0801 3.40669L59.567 9.71301C59.6574 9.89265 59.7409 9.98247 59.8176 9.98247C59.8775 9.98247 59.961 9.89265 60.0682 9.71301L63.555 3.40669C63.7682 3.03064 64.1023 2.84231 64.5574 2.84172H66.6996C66.915 2.83227 67.1262 2.90299 67.2925 3.04022C67.3677 3.10662 67.4271 3.18897 67.4664 3.28128C67.5057 3.37359 67.524 3.47351 67.5197 3.57375V18.087C67.5246 18.1334 67.5153 18.1801 67.4932 18.2211C67.4711 18.2621 67.4371 18.2955 67.3958 18.317Z" fill="black"/>
<path d="M82.3045 17.964C82.3095 18.0247 82.2992 18.0857 82.2746 18.1414C82.2499 18.1971 82.2117 18.2457 82.1635 18.2829C82.0671 18.3505 81.9516 18.3854 81.8338 18.3826H78.8644C78.7432 18.3842 78.6243 18.3495 78.523 18.2829C78.4718 18.2478 78.4307 18.1999 78.4039 18.1439C78.3771 18.0879 78.3655 18.0259 78.3703 17.964V13.9616H74.6284V17.964C74.6337 18.0249 74.6234 18.0862 74.5984 18.142C74.5734 18.1978 74.5346 18.2463 74.4856 18.2829C74.3889 18.3505 74.273 18.3854 74.155 18.3826H71.1443C71.0225 18.3844 70.903 18.3497 70.8011 18.2829C70.7497 18.248 70.7083 18.2001 70.6814 18.1441C70.6544 18.0881 70.6427 18.026 70.6475 17.964V7.35615C70.6475 7.19627 70.6987 7.08669 70.8011 7.02651C70.9052 6.966 71.0239 6.93495 71.1443 6.93669H74.155C74.2716 6.93398 74.3864 6.96518 74.4856 7.02651C74.5808 7.08669 74.6284 7.19627 74.6284 7.35615V11.0918H78.3694V7.35615C78.3623 7.2925 78.3728 7.22811 78.3997 7.16999C78.4266 7.11187 78.469 7.06225 78.5221 7.02651C78.6256 6.96611 78.7436 6.93505 78.8635 6.93669H81.8329C81.9492 6.93395 82.0638 6.96516 82.1626 7.02651C82.2524 7.08669 82.3036 7.19627 82.3036 7.35615L82.3045 17.964Z" fill="black"/>
<path d="M102.993 9.71598C102.708 9.71598 102.58 9.90371 102.58 10.0519V17.9786C102.578 18.0342 102.564 18.0887 102.538 18.1378C102.511 18.1869 102.474 18.2293 102.429 18.2615C102.329 18.3417 102.205 18.3843 102.077 18.3819H99.0085C98.8807 18.3845 98.756 18.3418 98.6564 18.2615C98.6111 18.2293 98.5739 18.1869 98.5477 18.1378C98.5215 18.0887 98.5071 18.0342 98.5055 17.9786V7.79741C98.5055 7.2998 98.4445 6.81836 99.5008 6.81836H106.704C106.889 6.81836 107.023 6.86147 107.108 6.9495C107.147 6.98747 107.178 7.03281 107.2 7.08291C107.221 7.13301 107.233 7.18687 107.233 7.24141V9.31268C107.233 9.366 107.222 9.41872 107.2 9.46744C107.179 9.51616 107.147 9.55982 107.108 9.59562C106.994 9.68634 106.849 9.72976 106.704 9.71688L102.993 9.71598Z" fill="black"/>
<path d="M96.3339 13.4053C96.3454 14.1636 96.2137 14.9172 95.9459 15.6266C95.7017 16.2641 95.3163 16.8381 94.8186 17.3054C94.2881 17.7858 93.6631 18.1502 92.9836 18.3751C92.2542 18.6284 91.4108 18.7551 90.4533 18.7551C89.4958 18.7551 88.6527 18.6284 87.924 18.3751C87.2416 18.1484 86.6128 17.7843 86.0764 17.3054C85.5718 16.8419 85.1814 16.2679 84.9356 15.6284C84.6674 14.9191 84.5357 14.1654 84.5476 13.4071V11.97C84.5357 11.2117 84.6674 10.4581 84.9356 9.74874C85.1814 9.10922 85.5718 8.53527 86.0764 8.07178C86.6128 7.59284 87.2416 7.22878 87.924 7.00201C88.6533 6.74872 89.4964 6.62207 90.4533 6.62207C91.4102 6.62207 92.2536 6.74872 92.9836 7.00201C93.6631 7.22693 94.2881 7.5913 94.8186 8.07178C95.3171 8.53828 95.7034 9.1116 95.9486 9.74874C96.2164 10.4582 96.3481 11.2118 96.3366 11.97L96.3339 13.4053ZM92.3557 11.9682C92.3557 10.2948 91.8366 9.45862 90.4506 9.45862C89.7662 9.45862 89.2446 9.6682 88.886 10.0874C88.5267 10.505 88.5267 11.1329 88.5267 11.9691V13.4062C88.5267 14.2434 88.533 14.8739 88.886 15.2988C89.239 15.7236 89.7662 15.9365 90.4506 15.9365C91.8366 15.9365 92.3557 15.0931 92.3557 13.4062V11.9682Z" fill="black"/>
<path d="M77.3677 32.2049C77.3789 32.9635 77.247 33.7174 76.9788 34.4271C76.7345 35.0642 76.3484 35.6373 75.8498 36.1031C75.3195 36.5844 74.694 36.9489 74.0138 37.1729C73.2845 37.4274 72.4414 37.5543 71.4845 37.5537C70.5276 37.5531 69.6842 37.4262 68.9542 37.1729C68.2717 36.9468 67.6431 36.5827 67.1075 36.1031C66.6025 35.6402 66.2118 35.0665 65.9659 34.4271C65.698 33.7173 65.5664 32.9634 65.5778 32.2049V30.7678C65.5663 30.0092 65.698 29.2553 65.9659 28.5456C66.2118 27.9062 66.6025 27.3325 67.1075 26.8696C67.6434 26.3903 68.2719 26.0262 68.9542 25.7998C69.6848 25.5459 70.5282 25.4189 71.4845 25.4189C72.4408 25.4189 73.2839 25.5459 74.0138 25.7998C74.6939 26.0241 75.3193 26.3885 75.8498 26.8696C76.3484 27.3354 76.7345 27.9085 76.9788 28.5456C77.247 29.2553 77.379 30.0092 77.3677 30.7678V32.2049ZM73.3896 30.7678C73.3896 29.0944 72.8704 28.2528 71.4845 28.2528C70.7994 28.2528 70.2779 28.4624 69.9198 28.8815C69.5605 29.3001 69.556 29.9271 69.556 30.7678V32.2049C69.556 33.042 69.5614 33.6726 69.9198 34.0974C70.2782 34.5223 70.7991 34.7352 71.4845 34.7352C72.8704 34.7352 73.3896 33.8917 73.3896 32.2049V30.7678Z" fill="black"/>
<path d="M120.234 13.4053C120.245 14.1636 120.114 14.9172 119.846 15.6266C119.601 16.2646 119.215 16.8386 118.716 17.3054C118.186 17.7858 117.561 18.1502 116.881 18.3751C116.152 18.6284 115.309 18.7551 114.352 18.7551C113.395 18.7551 112.551 18.6284 111.821 18.3751C111.139 18.1486 110.511 17.7845 109.975 17.3054C109.47 16.8419 109.079 16.268 108.833 15.6284C108.565 14.919 108.434 14.1654 108.445 13.4071V11.97C108.434 11.2118 108.565 10.4582 108.833 9.74874C109.079 9.10918 109.47 8.53524 109.975 8.07178C110.511 7.59266 111.139 7.22857 111.821 7.00201C112.551 6.74872 113.394 6.62207 114.352 6.62207C115.309 6.62207 116.152 6.74872 116.881 7.00201C117.561 7.22693 118.186 7.5913 118.716 8.07178C119.215 8.53803 119.601 9.11143 119.846 9.74874C120.114 10.4582 120.245 11.2118 120.234 11.97V13.4053ZM116.256 11.9682C116.256 10.2948 115.737 9.45862 114.352 9.45862C113.667 9.45862 113.145 9.6682 112.786 10.0874C112.427 10.505 112.422 11.1329 112.422 11.9691V13.4062C112.422 14.2434 112.429 14.8739 112.786 15.2988C113.144 15.7236 113.666 15.9365 114.352 15.9365C115.737 15.9365 116.256 15.0931 116.256 13.4062V11.9682Z" fill="black"/>
<path d="M130.95 26.0644C130.922 26.0145 130.876 25.9772 130.821 25.9602C130.731 25.9273 130.637 25.9062 130.541 25.8973C130.227 25.8488 127.621 25.7913 125.793 25.8075C121.049 25.8075 120.224 28.2614 120.224 29.5341C120.154 30.5078 120.477 31.3117 120.673 31.5767C120.876 31.8545 121.099 32.1174 121.34 32.3635C121.573 32.6077 121.847 32.8103 122.148 32.9626L121.036 34.8632L119.921 36.7602C119.888 36.8112 119.862 36.8658 119.841 36.9228C119.825 36.9714 119.816 37.0223 119.815 37.0737C119.815 37.1277 119.826 37.1812 119.847 37.2309C119.868 37.2815 119.898 37.3276 119.937 37.3665C119.981 37.4082 120.035 37.4389 120.093 37.4563C120.164 37.4784 120.238 37.489 120.313 37.4878H123.232C123.293 37.4886 123.353 37.4808 123.412 37.4644C123.458 37.4512 123.5 37.4268 123.534 37.3935C123.565 37.362 123.596 37.3279 123.624 37.292C123.652 37.256 123.682 37.2156 123.714 37.1743L124.628 35.4578L125.549 33.7423H126.964V37.0495C126.964 37.1043 126.975 37.1586 126.996 37.2093C127.017 37.2621 127.047 37.3108 127.086 37.3531C127.124 37.3953 127.17 37.4297 127.221 37.4546C127.27 37.4777 127.324 37.4893 127.378 37.4887H130.561C130.616 37.4892 130.67 37.4775 130.72 37.4546C130.773 37.4298 130.822 37.3954 130.863 37.3531C130.907 37.3106 130.942 37.2599 130.966 37.2039C130.989 37.147 131.001 37.0859 131 37.0243V26.3994C131 26.3366 130.996 26.2738 130.986 26.2117C130.98 26.1613 130.967 26.1119 130.95 26.0644ZM127.135 31.1886C126.967 31.203 126.768 31.2093 126.539 31.2093H125.966C125.11 31.2093 124.537 31.1084 124.248 30.9066C123.959 30.7048 123.814 30.3386 123.812 29.8081V29.6204C123.812 29.1323 124 28.803 124.374 28.6323C124.748 28.4617 125.279 28.3781 125.966 28.3817H127.134L127.135 31.1886Z" fill="black"/>
<path d="M87.4355 33.0375C87.3559 33.037 87.2785 33.0643 87.2167 33.1146C87.1549 33.1649 87.1126 33.2352 87.0969 33.3133C86.9074 34.3426 86.355 34.86 85.2718 34.86C84.5867 34.86 84.0652 34.6474 83.7071 34.2223C83.3478 33.7974 83.3433 33.1669 83.3433 32.3298V30.8926C83.3433 30.0564 83.3496 29.4294 83.7071 29.0064C84.0646 28.5833 84.5864 28.3776 85.2718 28.3776C86.381 28.3776 86.9343 28.9166 87.1113 29.9872C87.1259 30.0667 87.168 30.1384 87.2303 30.1898C87.2925 30.2412 87.371 30.2691 87.4517 30.2684H90.317C90.4213 30.2683 90.5242 30.2448 90.6182 30.1997C90.7122 30.1545 90.7948 30.0888 90.86 30.0074C90.9252 29.926 90.9713 29.831 90.9948 29.7294C91.0184 29.6278 91.0188 29.5222 90.996 29.4205C90.9375 29.1636 90.8601 28.9114 90.7643 28.666C90.5191 28.0288 90.1328 27.4555 89.6344 26.989C89.1044 26.5098 88.4803 26.1464 87.802 25.9219C87.0715 25.6686 86.228 25.542 85.2718 25.542C84.3155 25.542 83.4723 25.6686 82.7424 25.9219C82.06 26.1487 81.4312 26.5128 80.8948 26.9917C80.3902 27.4552 79.9998 28.0291 79.7541 28.6687C79.4858 29.378 79.3541 30.1317 79.366 30.8899V32.3271C79.3537 33.0865 79.4853 33.8415 79.7541 34.5519C79.9996 35.1915 80.3901 35.7655 80.8948 36.2289C81.431 36.7081 82.0598 37.0723 82.7424 37.2986C83.4718 37.5519 84.3149 37.6786 85.2718 37.6786C86.2286 37.6786 87.0721 37.5519 87.802 37.2986C88.4817 37.0741 89.1068 36.7097 89.6371 36.2289C90.1354 35.7625 90.5214 35.1891 90.7661 34.5519C90.8507 34.3357 90.9203 34.1139 90.9745 33.8881C90.998 33.7863 90.9983 33.6805 90.9752 33.5786C90.9521 33.4767 90.9063 33.3814 90.8412 33.2997C90.776 33.218 90.6933 33.152 90.5991 33.1068C90.5049 33.0616 90.4017 33.0382 90.2972 33.0384L87.4355 33.0375Z" fill="black"/>
<path d="M104.458 32.2049C104.469 32.9634 104.337 33.7173 104.07 34.4271C103.825 35.0642 103.439 35.6374 102.94 36.1031C102.41 36.5842 101.784 36.9487 101.105 37.1729C100.375 37.4274 99.5322 37.5543 98.5753 37.5537C97.6184 37.5531 96.775 37.4262 96.045 37.1729C95.3625 36.9471 94.7338 36.5829 94.1983 36.1031C93.6933 35.6402 93.3026 35.0665 93.0567 34.4271C92.7889 33.7173 92.6572 32.9634 92.6687 32.2049V30.7678C92.6571 30.0092 92.7888 29.2553 93.0567 28.5456C93.3026 27.9062 93.6933 27.3325 94.1983 26.8696C94.734 26.3901 95.3626 26.026 96.045 25.7998C96.7744 25.5459 97.6178 25.4189 98.5753 25.4189C99.5328 25.4189 100.376 25.5459 101.105 25.7998C101.784 26.0243 102.409 26.3888 102.94 26.8696C103.439 27.3353 103.825 27.9085 104.07 28.5456C104.338 29.2553 104.469 30.0092 104.458 30.7678V32.2049ZM100.48 30.7678C100.48 29.0944 99.9603 28.2528 98.5753 28.2528C97.8897 28.2528 97.3681 28.4624 97.0106 28.8815C96.6513 29.3001 96.6459 29.9271 96.6459 30.7678V32.2049C96.6459 33.042 96.6522 33.6726 97.0106 34.0974C97.369 34.5223 97.89 34.7352 98.5753 34.7352C99.9603 34.7352 100.48 33.8917 100.48 32.2049V30.7678Z" fill="black"/>
<path d="M114.525 33.0375C114.446 33.0369 114.368 33.064 114.306 33.1144C114.244 33.1647 114.202 33.2351 114.187 33.3133C113.996 34.3426 113.444 34.86 112.361 34.86C111.676 34.86 111.154 34.6474 110.797 34.2223C110.438 33.7974 110.438 33.1669 110.438 32.3298V30.8926C110.438 30.0564 110.443 29.4294 110.797 29.0064C111.151 28.5833 111.676 28.3776 112.361 28.3776C113.471 28.3776 114.024 28.9166 114.201 29.9872C114.215 30.0666 114.257 30.1383 114.319 30.1897C114.382 30.2412 114.46 30.269 114.541 30.2684H117.409C117.514 30.2684 117.617 30.2449 117.711 30.1997C117.805 30.1545 117.887 30.0888 117.952 30.0074C118.017 29.926 118.063 29.8309 118.087 29.7293C118.11 29.6277 118.11 29.5222 118.088 29.4205C118.03 29.1634 117.952 28.9111 117.856 28.666C117.61 28.0293 117.223 27.4569 116.723 26.9917C116.192 26.511 115.567 26.1466 114.887 25.9219C114.158 25.6686 113.315 25.542 112.358 25.542C111.401 25.542 110.558 25.6686 109.828 25.9219C109.145 26.1487 108.517 26.5128 107.981 26.9917C107.477 27.4555 107.088 28.0295 106.843 28.6687C106.575 29.3781 106.443 30.1317 106.455 30.8899V32.3271C106.443 33.0865 106.575 33.8414 106.843 34.5519C107.089 35.1916 107.48 35.7656 107.984 36.2289C108.52 36.7081 109.149 37.0722 109.831 37.2986C110.562 37.5519 111.405 37.6786 112.361 37.6786C113.318 37.6786 114.161 37.5519 114.891 37.2986C115.57 37.0737 116.194 36.7089 116.723 36.228C117.223 35.7625 117.61 35.1893 117.856 34.5519C117.94 34.3357 118.01 34.1139 118.064 33.8881C118.088 33.7863 118.088 33.6805 118.065 33.5785C118.042 33.4765 117.996 33.3811 117.931 33.2993C117.866 33.2176 117.783 33.1516 117.689 33.1065C117.595 33.0613 117.491 33.038 117.387 33.0384L114.525 33.0375Z" fill="black"/>
<path d="M63.1012 25.9445C63.0026 25.8828 62.8879 25.8516 62.7716 25.8547H53.617C53.2524 25.8547 53.1401 26.143 53.1401 26.214V27.6969H53.1311V28.9697H53.1437C53.1437 28.9697 53.1563 33.0116 52.6658 33.6898C52.4465 33.9964 52.13 34.2199 51.7676 34.3239C51.5837 34.3239 51.4074 34.397 51.2773 34.527C51.1473 34.6571 51.0742 34.8334 51.0742 35.0173V36.7886C51.0745 36.9724 51.1476 37.1487 51.2776 37.2787C51.4076 37.4087 51.5838 37.4818 51.7676 37.482C51.7676 37.482 54.156 37.6715 55.4862 36.3143C56.8434 34.9302 56.9395 31.3679 56.9467 30.7455V28.9068H59.3135V30.0745H59.3V32.991H59.3135V37.059C59.3082 37.1218 59.3195 37.1849 59.3463 37.242C59.3731 37.2991 59.4144 37.3481 59.4662 37.3841C59.567 37.4512 59.6855 37.4865 59.8066 37.4856H62.777C62.8949 37.4878 63.0104 37.4523 63.1066 37.3841C63.1552 37.3458 63.1934 37.296 63.218 37.2393C63.2426 37.1825 63.2528 37.1206 63.2476 37.059V26.2805C63.2423 26.117 63.1911 26.0047 63.1012 25.9445Z" fill="black"/>
<path d="M28.2505 38.5055V36.5977H25.9601C24.4161 36.6875 24.1367 37.7231 24.1367 38.5072C24.1367 39.2519 24.3909 40.2219 25.7391 40.3935H28.2541L28.2505 38.5055Z" fill="#FF5700"/>
<path d="M40.1256 23.3555V20.2504C40.1256 18.0525 39.1825 17.2998 37.5613 17.2998H37.5559H37.5478C35.931 17.2998 34.9834 18.0525 34.9834 20.2504V23.3564C34.9834 25.5732 35.9265 26.5073 37.5478 26.5073H37.5613C39.1825 26.5073 40.1256 25.5723 40.1256 23.3555Z" fill="#FF5700"/>
<path d="M0.0996094 20.2495V23.3555C0.0996094 25.5723 1.04273 26.5064 2.664 26.5064H2.67747C4.29874 26.5064 5.24186 25.5714 5.24186 23.3546V20.2504C5.24186 18.0525 4.29874 17.2998 2.67747 17.2998H2.67208H2.664C1.04273 17.2989 0.0996094 18.0516 0.0996094 20.2495Z" fill="#FF5700"/>
<path d="M37.5586 29.8645H37.5451C36.4248 29.8645 35.4367 29.6978 34.581 29.3642C33.7705 29.0594 33.0372 28.5794 32.4334 27.9585C31.8394 27.3283 31.3886 26.577 31.1122 25.7561C30.7973 24.8156 30.6436 23.8287 30.6577 22.837V20.9453C30.6436 19.9536 30.7973 18.9667 31.1122 18.0262C31.3886 17.2051 31.8393 16.4535 32.4334 15.8228C33.0376 15.2026 33.7708 14.7227 34.581 14.4172C35.4349 14.0836 36.423 13.9172 37.5451 13.9177H37.5586C38.4849 13.9055 39.4067 14.0488 40.2856 14.3417V10.7489C40.2856 10.5081 40.2748 10.2701 40.2586 10.0303C39.3893 10.3155 38.4788 10.4551 37.564 10.4435H37.5505C36.4302 10.4435 35.4421 10.2767 34.5864 9.94317C33.7759 9.63865 33.0426 9.15897 32.4388 8.53838C31.8447 7.90776 31.394 7.15615 31.1176 6.33507C30.8027 5.39456 30.649 4.4076 30.6631 3.41589V1.52696C30.6621 1.04042 30.696 0.554441 30.7646 0.0727574C30.3555 0.0248563 29.9441 0.000561884 29.5322 0H27.5624V9.58119C27.5691 9.6558 27.5569 9.73088 27.5271 9.79959C27.4973 9.8683 27.4508 9.92847 27.3918 9.97461C27.2754 10.0572 27.1357 10.1003 26.993 10.0977H24.0864C23.9394 10.0992 23.7954 10.0563 23.6732 9.97461C23.6108 9.93088 23.5609 9.87153 23.5286 9.80249C23.4963 9.73345 23.4827 9.65715 23.4891 9.58119V4.65093H23.4729V1.11558H23.4891V0H19.4058V1.92576C19.3977 2.68295 19.281 6.99974 17.6354 8.6776C16.0241 10.3213 13.6492 10.2638 13.6492 10.2638C13.5388 10.264 13.4294 10.2423 13.3273 10.2001C13.2253 10.1579 13.1325 10.0959 13.0544 10.0179C12.9764 9.93976 12.9144 9.84704 12.8722 9.74498C12.83 9.64293 12.8083 9.53355 12.8085 9.42311V7.27729C12.8085 7.05431 12.897 6.84045 13.0546 6.68268C13.2188 6.535 13.4287 6.44812 13.6492 6.43656C13.9806 6.40064 14.2779 6.29824 14.7396 5.6677C15.3333 4.85123 15.319 0.817371 15.319 0.817371H15.3037V0.0035936H10.7498C7.89946 0.00335526 5.16576 1.13522 3.14986 3.15028C1.13397 5.16533 0.000960462 7.89856 7.74862e-06 10.7489V14.3201C0.860335 14.0424 1.76012 13.9065 2.66409 13.9177H2.67757C3.79733 13.9177 4.78387 14.0845 5.63717 14.418C6.4478 14.7228 7.18113 15.2028 7.78478 15.8237C8.37891 16.4535 8.82992 17.2041 9.10695 18.0244C9.42182 18.9649 9.57548 19.9518 9.56144 20.9435V22.8352C9.57548 23.8269 9.42182 24.8138 9.10695 25.7543C8.83017 26.5755 8.37915 27.3271 7.78478 27.9577C7.18133 28.5786 6.44792 29.0584 5.63717 29.3624C4.78387 29.6966 3.79733 29.8633 2.67757 29.8627H2.66409C1.76007 29.8737 0.860281 29.7375 7.74862e-06 29.4595V29.6391C-0.00324418 32.344 1.01719 34.95 2.85631 36.9335C3.15991 36.0837 3.44105 35.5278 4.03207 34.9296C4.62309 34.3313 5.19076 34.0313 6.05933 33.6936C6.89825 33.3721 8.18269 33.2068 9.29288 33.1951C9.29288 33.1951 11.1998 33.2409 12.4842 33.8194C13.7687 34.3978 15.2839 36.0263 15.5642 36.5607C15.8444 37.0951 15.1654 37.6026 15.1654 37.6026C15.1654 37.6026 13.5127 38.5673 13.1731 38.6706C13.0751 38.7007 12.971 38.7056 12.8705 38.6849C12.7701 38.6642 12.6764 38.6185 12.5983 38.552C12.5983 38.552 12.3432 37.9664 11.4306 37.1796C10.518 36.3927 9.29467 36.461 9.29467 36.461C7.98419 36.4349 7.42909 36.982 7.03568 37.59C6.73747 38.0526 6.64136 38.7523 6.61352 39.5661C7.92258 40.112 9.32697 40.3925 10.7453 40.3916H20.1989C20.0031 39.9469 19.819 39.1718 19.9088 38.2359C19.9088 33.9963 24.346 33.3792 25.4777 33.3792C27.6208 33.3218 31.4005 33.4268 31.7876 33.3999C31.8991 33.4111 32.0085 33.4377 32.1128 33.4789C32.1449 33.4898 32.1745 33.5069 32.1999 33.5292C32.2254 33.5516 32.2461 33.5787 32.261 33.6092C32.2827 33.6672 32.2981 33.7275 32.3068 33.7888C32.3174 33.8665 32.3225 33.9448 32.3221 34.0233V40.0206C34.6058 39.4074 36.6238 38.0584 38.0634 36.1824C39.5031 34.3065 40.2841 32.0083 40.2856 29.6436V29.4424C39.4066 29.7347 38.4848 29.8774 37.5586 29.8645ZM6.83178 10.2405C6.42599 10.2407 6.02927 10.1205 5.69178 9.89518C5.3543 9.66986 5.09121 9.34952 4.9358 8.97467C4.78039 8.59982 4.73963 8.1873 4.81869 7.78929C4.89774 7.39128 5.09306 7.02565 5.37993 6.73865C5.6668 6.45165 6.03235 6.25618 6.43032 6.17695C6.8283 6.09772 7.24084 6.13829 7.61576 6.29354C7.99067 6.44879 8.31113 6.71173 8.53659 7.04912C8.76205 7.38651 8.88239 7.78318 8.88239 8.18897C8.88216 8.73284 8.66606 9.25437 8.28158 9.63903C7.89709 10.0237 7.37565 10.24 6.83178 10.2405ZM17.8968 25.3897C18.2893 25.9942 18.8444 26.5385 20.1558 26.5124C21.4672 26.4864 22.6097 25.8549 22.8208 24.4466C22.833 24.3468 22.8806 24.2548 22.955 24.1872C23.0293 24.1196 23.1255 24.081 23.2259 24.0783H26.2969C26.8268 24.0783 27.2085 24.3558 26.8304 25.6582C26.5744 26.5376 26.0723 27.2526 25.4831 27.8553C24.8643 28.476 24.1176 28.9545 23.2951 29.2574C22.4256 29.5897 21.4208 29.7559 20.2807 29.7559C19.1399 29.7559 17.7881 29.5897 16.9187 29.2574C16.0492 28.925 15.4887 28.6286 14.8905 28.0286C14.2923 27.4286 14.0121 26.8672 13.704 26.0049C13.3959 25.1427 13.2414 23.825 13.2414 22.7462V20.939C13.2414 19.8612 13.395 18.5426 13.704 17.6803C14.013 16.8181 14.2923 16.2585 14.8905 15.6567C15.4887 15.0549 16.0492 14.7585 16.9187 14.4279C17.7881 14.0974 19.1399 13.9294 20.2807 13.9294C21.4214 13.9294 22.4256 14.0956 23.2951 14.4279C24.1179 14.7301 24.8647 15.2087 25.4831 15.83C26.0714 16.4318 26.5735 17.1468 26.8304 18.0271C27.2085 19.3295 26.8304 19.7804 26.2969 19.7804H23.2259C23.1253 19.7776 23.0291 19.7388 22.9547 19.6711C22.8804 19.6033 22.8328 19.5111 22.8208 19.4112C22.6097 18.0064 21.4735 17.2016 20.1558 17.1756C18.8381 17.1495 18.2893 17.6938 17.8968 18.2983C17.5178 18.8812 17.463 19.8423 17.463 20.939V22.7516C17.463 23.8483 17.5178 24.8094 17.8968 25.3897Z" fill="#FF5700"/>
</svg>
