<svg viewBox="0 0 24 24" fill="none" xmlns="http://www.w3.org/2000/svg">
<path d="M15.8572 3.14062C14.4286 3.14062 12.7429 3.34062 11.4286 3.99777V6.5692C12.7429 7.22634 14.4286 7.42634 15.8572 7.42634C17.2857 7.42634 18.9714 7.22634 20.2857 6.5692V3.99777C18.9714 3.34062 17.2857 3.14062 15.8572 3.14062Z" fill="#648494"/>
<path d="M11.4286 8.28125V10.8527C12.7429 11.5098 14.4286 11.7098 15.8572 11.7098C17.2857 11.7098 18.9714 11.5098 20.2857 10.8527V8.28125C18.9714 8.93839 17.2857 9.13839 15.8572 9.13839C14.4286 9.13839 12.7429 8.93839 11.4286 8.28125Z" fill="#648494"/>
<path d="M13.0905 17.424C12.9857 18.3046 12.7236 19.1064 12.313 19.8058C13.4595 20.1417 14.7469 20.2801 15.8572 20.2801C17.2858 20.2801 18.9715 20.0801 20.2858 19.423V16.8516C18.9715 17.5087 17.2858 17.7087 15.8572 17.7087C14.9831 17.7087 14.0131 17.6328 13.0905 17.424Z" fill="#648494"/>
<path d="M11.9414 12.7972C12.5679 13.6163 12.9635 14.6176 13.0945 15.7152C14.0159 15.9232 14.9843 15.9989 15.8572 15.9989C17.2858 15.9989 18.9715 15.7989 20.2858 15.1417V12.5703C18.9715 13.2275 17.2858 13.4275 15.8572 13.4275C14.6085 13.4275 13.1633 13.2746 11.9414 12.7972Z" fill="#648494"/>
<path d="M7.10564 12.2812C4.57146 12.2812 2.85718 13.9955 2.85718 16.5297C2.85718 19.2129 4.57146 20.8527 7.10564 20.8527C9.71432 20.8527 11.4286 19.2129 11.4286 16.5297C11.4286 13.9955 9.71432 12.2812 7.10564 12.2812Z" fill="#648494"/>
</svg>
