<svg width="24" height="24" viewBox="0 0 24 24" fill="none" xmlns="http://www.w3.org/2000/svg">
<path d="M15.8573 3.14062C14.4287 3.14062 12.743 3.34062 11.4287 3.99777V6.5692C12.743 7.22634 14.4287 7.42634 15.8573 7.42634C17.2859 7.42634 18.9716 7.22634 20.2859 6.5692V3.99777C18.9716 3.34062 17.2859 3.14062 15.8573 3.14062Z" fill="white"/>
<path d="M11.4287 8.28125V10.8527C12.743 11.5098 14.4287 11.7098 15.8573 11.7098C17.2859 11.7098 18.9716 11.5098 20.2859 10.8527V8.28125C18.9716 8.93839 17.2859 9.13839 15.8573 9.13839C14.4287 9.13839 12.743 8.93839 11.4287 8.28125Z" fill="white"/>
<path d="M13.091 17.424C12.9862 18.3046 12.7241 19.1064 12.3135 19.8058C13.46 20.1417 14.7474 20.2801 15.8577 20.2801C17.2862 20.2801 18.972 20.0801 20.2862 19.423V16.8516C18.972 17.5087 17.2862 17.7087 15.8577 17.7087C14.9836 17.7087 14.0136 17.6328 13.091 17.424Z" fill="white"/>
<path d="M11.9414 12.7972C12.5679 13.6163 12.9635 14.6176 13.0945 15.7152C14.0159 15.9232 14.9843 15.9989 15.8572 15.9989C17.2858 15.9989 18.9715 15.7989 20.2858 15.1417V12.5703C18.9715 13.2275 17.2858 13.4275 15.8572 13.4275C14.6085 13.4275 13.1633 13.2746 11.9414 12.7972Z" fill="white"/>
<path d="M7.10589 12.2812C4.57171 12.2812 2.85742 13.9955 2.85742 16.5297C2.85742 19.2129 4.57171 20.8527 7.10589 20.8527C9.71457 20.8527 11.4289 19.2129 11.4289 16.5297C11.4289 13.9955 9.71457 12.2812 7.10589 12.2812Z" fill="white"/>
</svg>
