<svg width="36" height="36" viewBox="0 0 36 36" fill="none" xmlns="http://www.w3.org/2000/svg">
<path d="M29.1428 5.14355H6.85711C5.91425 5.14355 5.14282 5.91498 5.14282 6.85784V24.0007C5.14282 24.9436 5.91425 25.715 6.85711 25.715H13.7143L13.6285 26.8293C13.5 28.5436 13.0714 28.8436 11.3143 28.9721L8.99997 29.1436V30.8578H27V29.1436L24.6857 28.9721C22.9285 28.8436 22.5 28.5436 22.3714 26.8293L22.2857 25.715H29.1428C30.0857 25.715 30.8571 24.9436 30.8571 24.0007V6.85784C30.8571 5.91498 30.0857 5.14355 29.1428 5.14355ZM18 24.8578C16.9714 24.8578 16.2857 24.215 16.2857 23.1436C16.2857 22.115 16.9714 21.4293 18 21.4293C19.0285 21.4293 19.7143 22.115 19.7143 23.1436C19.7143 24.215 19.0285 24.8578 18 24.8578ZM28.2857 20.1436H7.71425V7.71498H28.2857V20.1436Z" fill="#5FAF2D"/>
</svg>
