<svg viewBox="0 0 135 33" fill="none" xmlns="http://www.w3.org/2000/svg">
<path d="M107.188 27.8198C117.048 22.7523 119.412 16.3505 116.382 14.5143C111.911 12.0737 99.6058 16.4417 101.023 28.428C100.412 28.7778 99.1891 29.4278 99.1891 29.4278L99.9952 31.8418C99.9952 31.8418 101.716 30.8382 102.16 30.5417C103.605 31.6822 104.357 32.3056 106.576 32.3588C111.327 32.4653 115.412 27.3142 115.412 27.3142L114.228 25.516C114.228 25.516 109.022 30.4124 107.188 27.8198ZM108.492 20.4714C109.91 18.0308 112.188 16.1338 113.329 16.8941C114.47 17.6544 112.188 21.5054 106.884 25.6377C106.662 25.2461 107.079 22.912 108.492 20.4714ZM17.855 32.3778C16.8864 32.3665 15.9604 31.9875 15.2731 31.321C12.9133 28.907 15.1329 20.7451 15.608 18.9812C15.6188 18.943 15.6204 18.9029 15.6127 18.864C15.6051 18.8251 15.5884 18.7885 15.5639 18.7569C15.5395 18.7253 15.5079 18.6996 15.4717 18.6818C15.4354 18.664 15.3955 18.6546 15.3549 18.6542C15.3049 18.6546 15.2558 18.6674 15.2122 18.6913C15.1687 18.7153 15.132 18.7496 15.1057 18.7911C14.1049 20.7717 8.68806 32.3778 3.91378 32.3778H3.6334C-1.00459 31.9445 -0.393201 25.7061 1.05155 21.9084H8.5245C7.91311 23.5354 7.7184 24.5695 7.7184 25.1093C7.74566 25.4894 8.07667 25.7061 8.38431 25.5427C9.16315 25.1359 10.4404 23.5088 11.5503 21.6385C13.5519 18.1942 16.161 13.0431 20.6354 0H28.8132C26.395 7.26857 24.4245 13.8301 23.3614 21.3419C23.3464 21.4319 23.3609 21.5242 23.4027 21.6057C23.4446 21.6871 23.5117 21.7536 23.5945 21.7957C23.6773 21.8379 23.7716 21.8534 23.864 21.8402C23.9564 21.8269 24.0421 21.7856 24.1091 21.7221C26.4456 19.578 34.97 1.57384 35.4996 0H43.7202C43.7202 0 35.6398 21.8285 36.3213 25.4894C36.3336 25.6237 36.3883 25.7509 36.478 25.8534C36.5676 25.956 36.6877 26.0288 36.8215 26.0618C36.9554 26.0947 37.0965 26.0863 37.2252 26.0375C37.354 25.9888 37.464 25.9022 37.5401 25.7897C38.0152 25.2195 38.6811 24.3794 39.1523 23.8624L40.3206 25.0028C37.9841 27.8198 34.1794 32.8911 30.4021 32.2942C29.8026 32.1702 29.2531 31.8783 28.821 31.4541C24.8762 28.1201 30.3787 16.9473 31.3484 14.3167C31.5703 13.7464 31.765 13.2066 31.9013 12.8797C31.9165 12.8404 31.9217 12.7982 31.9164 12.7566C31.9111 12.715 31.8955 12.6752 31.871 12.6408C31.8464 12.6064 31.8137 12.5783 31.7756 12.559C31.7374 12.5397 31.6951 12.5297 31.6521 12.5299C31.6024 12.5296 31.5534 12.5416 31.5098 12.5649C31.4662 12.5882 31.4294 12.6219 31.4029 12.663C31.2082 13.0697 30.7097 14.1266 30.515 14.4801C28.0772 19.3879 22.4657 32.3778 17.855 32.3778ZM95.0768 5.58449C92.8868 5.55019 90.7604 6.30392 89.1031 7.70195L89.1616 9.84223C89.1616 9.84223 91.7707 7.26857 94.4927 8.37863C96.2724 9.08571 97.6081 11.1157 96.6033 14.6702C96.5488 14.8869 96.4398 15.2937 96.3814 15.5103C95.6026 13.8833 92.717 12.6364 88.6904 15.6206C85.7425 17.7875 84.9948 20.095 84.4067 21.9654C83.5734 24.7025 83.6279 27.6677 84.2665 29.4202C84.5332 30.1101 84.9457 30.7373 85.4771 31.2613C86.0084 31.7853 86.6469 32.1942 87.3508 32.4615C94.0176 34.9287 99.267 24.8584 100.879 17.6354C101.911 13.0431 102.69 5.72134 95.0768 5.58449ZM91.4942 27.6031C90.7426 28.0935 89.4653 28.3102 89.2706 26.0597C89.0214 22.8321 91.4397 19.0344 92.1601 18.141C93.4101 16.6508 95.1041 16.5672 95.0768 18.9013C95.0496 21.6118 93.3556 26.4132 91.4942 27.6031ZM71.3923 3.71412C67.4475 2.38738 53.5024 6.69834 48.919 21.7487C48.3621 21.9084 45.6712 22.5622 45.6712 22.5622L44.5029 25.6529L48.6425 24.406C48.6425 24.406 48.1985 32.1345 55.1419 32.3893C60.6132 32.1992 63.4755 24.3338 61.7231 18.9926C61.3921 19.156 57.0033 21.2165 57.0033 21.2165C57.0033 21.2165 57.9184 26.4512 55.9752 27.6449C55.9009 27.6948 55.817 27.7296 55.7286 27.7471C55.6401 27.7646 55.549 27.7644 55.4606 27.7467C55.3722 27.7289 55.2884 27.6939 55.2143 27.6438C55.1401 27.5936 55.0771 27.5294 55.0289 27.4548C54.476 26.6945 54.1138 24.6873 54.7252 22.03C64.7527 16.9321 71.6143 7.98326 72.031 4.8926C72.0817 4.65431 72.0457 4.40621 71.9291 4.19108C71.8125 3.97595 71.6227 3.80727 71.3923 3.71412ZM58.9309 17.0196C57.891 17.8059 56.785 18.5053 55.6248 19.1104C55.6248 19.1104 56.1544 17.9167 56.5438 17.2401C57.6264 15.4761 62.7745 8.67135 67.1243 7.42064C67.1607 7.40913 67.1996 7.40719 67.2371 7.41501C67.2745 7.42282 67.3092 7.44012 67.3376 7.46516C67.366 7.49021 67.3872 7.52211 67.3989 7.55767C67.4107 7.59323 67.4127 7.63119 67.4047 7.66774C67.3852 9.16555 61.8827 14.8261 58.9309 17.0272V17.0196ZM79.5702 28.1315C79.5567 28.1709 79.5557 28.2135 79.5675 28.2534C79.5793 28.2934 79.6033 28.3289 79.6362 28.3553C79.6691 28.3816 79.7095 28.3976 79.7519 28.4011C79.7944 28.4046 79.8369 28.3954 79.8739 28.3748C80.4118 28.0304 80.9317 27.6599 81.4316 27.2648L81.9884 28.9184C81.6535 29.272 78.986 31.3324 77.3154 32.0927C75.5085 32.9063 73.8729 31.819 73.6198 30.5189C73.3706 28.9983 74.1494 27.0215 74.1494 27.0215C74.1494 27.0215 71.2872 30.2186 68.3705 31.7658C67.7933 32.1187 67.1344 32.324 66.4545 32.3626C64.4841 32.3094 63.8727 30.4619 64.0946 29.4621C64.3439 28.2684 67.0114 20.2661 67.3424 18.966C67.3472 18.9305 67.3431 18.8944 67.3304 18.8609C67.3177 18.8273 67.2969 18.7973 67.2697 18.7733C67.2425 18.7494 67.2097 18.7323 67.1742 18.7234C67.1387 18.7146 67.1015 18.7143 67.0659 18.7227C66.2598 18.9393 64.1491 20.2965 64.1491 20.2965V18.0726C64.1491 18.0726 70.2591 14.0049 71.7896 13.5716C73.2031 13.1914 74.4259 13.9783 74.0677 15.5484C73.9002 16.6356 69.9281 26.0445 69.9281 27.2381C69.924 27.27 69.9279 27.3023 69.9394 27.3323C69.951 27.3623 69.9698 27.3892 69.9944 27.4105C70.0189 27.4318 70.0484 27.447 70.0803 27.4547C70.1121 27.4624 70.1455 27.4625 70.1774 27.4548C71.3145 27.1279 73.3979 25.3944 74.9828 22.9272C76.4821 20.6196 77.4829 17.719 78.7329 14.1114H84.0485C84.0485 14.1532 80.0219 26.1661 79.5702 28.1315ZM134.985 16.8523C135.097 18.5326 133.458 27.4016 126.807 30.9523C124.836 32.0091 123.501 32.4159 122.309 32.3626C119.474 32.279 118.142 30.0285 117.834 29.2986C114.583 21.4332 124.085 14.138 124.085 14.138H129.583C129.583 14.138 121.195 20.6767 122.363 26.4778C123.279 30.0019 126.647 28.295 128.501 24.3071C128.863 23.5202 131.114 18.2893 129.696 18.2247C128.446 18.1448 126.779 20.7223 126.779 20.7223L125.611 18.985C126.53 17.8445 129.085 14.8641 131.947 13.9137C132.41 13.7768 134.965 13.2598 134.992 16.8675L134.985 16.8523ZM42.8012 28.0935C43.2357 28.0935 43.6605 28.2193 44.0218 28.4551C44.3831 28.6909 44.6646 29.026 44.8307 29.418C44.9968 29.81 45.0401 30.2412 44.955 30.6573C44.87 31.0733 44.6604 31.4553 44.3528 31.755C44.0453 32.0547 43.6536 32.2586 43.2273 32.3409C42.801 32.4232 42.3592 32.3802 41.958 32.2173C41.5567 32.0545 41.214 31.7791 40.9731 31.426C40.7323 31.0729 40.6041 30.658 40.6049 30.2338C40.6033 29.952 40.6591 29.6727 40.769 29.4121C40.8788 29.1514 41.0406 28.9147 41.2449 28.7156C41.4492 28.5165 41.692 28.359 41.9592 28.2522C42.2263 28.1454 42.5125 28.0915 42.8012 28.0935Z" fill="#E31235"/>
</svg>
