<svg viewBox="0 0 36 36" fill="none" xmlns="http://www.w3.org/2000/svg">
<path d="M28.9716 9.38041L26.143 8.13756L14.5716 13.2804V17.1376L12.4287 14.9947L10.7144 15.8518V11.5661L22.2859 6.42327L18.5573 4.83756C18.1716 4.66613 17.8287 4.66613 17.443 4.83756L7.02871 9.38041C6.643 9.55184 6.42871 9.80898 6.42871 10.2376V25.3661C6.42871 25.7518 6.68585 26.0518 6.98585 26.1804L10.7144 27.8572C10.5001 27.5143 10.2859 26.3947 10.2859 25.6233C10.2859 21.209 13.3287 18.4233 17.9573 18.4233C22.6287 18.4233 25.7144 21.3376 25.7144 25.709C25.7144 26.3518 25.543 27.4715 25.2859 27.8572L29.0144 26.1804C29.3144 26.0518 29.5716 25.7518 29.5716 25.3661V10.2376C29.5716 9.80898 29.3573 9.55184 28.9716 9.38041Z" fill="#5FAF2D"/>
<path d="M17.9574 20.9951C14.9146 20.9951 12.8574 23.0523 12.8574 26.0951C12.8574 29.3094 14.9146 31.2808 17.9574 31.2808C21.086 31.2808 23.1431 29.3094 23.1431 26.0951C23.1431 23.0523 21.086 20.9951 17.9574 20.9951ZM20.6574 27.7665C20.4003 28.3237 19.7574 28.3665 19.1574 28.1523C18.6003 27.938 16.7146 26.9951 16.7146 26.9951V22.7094H17.8289C18.386 22.7094 18.8574 23.1808 18.8574 23.738V25.7094L21.0003 26.5665C21.0003 26.5665 20.9146 27.2094 20.6574 27.7665Z" fill="#5FAF2D"/>
</svg>
