<svg viewBox="0 0 36 36" fill="none" xmlns="http://www.w3.org/2000/svg">
<path d="M28.715 13.2864V7.71498C28.715 6.20927 27.6492 5.14355 26.1436 5.14355H9.85784C8.35215 5.14355 7.28641 6.20927 7.28641 7.71498V13.2864H5.14355V17.5721C5.14355 18.3007 5.7007 18.8578 6.42927 18.8578H7.28641V30.8578H10.715V27.8578H25.2864V30.8578H28.715V18.8578H29.5721C30.3007 18.8578 30.8578 18.3007 30.8578 17.5721V13.2864H28.715ZM13.2864 24.8578H9.85784V22.2864L11.915 22.5436C12.9007 22.6721 13.2864 23.1007 13.2864 24.0864V24.8578ZM26.1436 24.8578H22.715V24.0864C22.715 23.1007 23.1007 22.6721 24.0864 22.5436L26.1436 22.2864V24.8578ZM9.85784 18.8578L10.415 15.4721C10.7578 13.4578 11.315 12.4293 13.715 12.4293H22.2864C24.6864 12.4293 25.2436 13.4578 25.5864 15.4721L26.1436 18.8578H9.85784Z" fill="#5FAF2D"/>
</svg>
