<svg viewBox="0 0 136 32" fill="none" xmlns="http://www.w3.org/2000/svg">
<g clip-path="url(#clip0_701_16438)">
<path d="M56.6017 29.1413L55.0459 24.3577H54.0899L52.5341 29.1413L50.9802 24.3519H49.7804L51.9323 30.8093H52.8882L54.562 26.2638L56.113 30.8093H57.0689L59.2149 24.3519H58.0249L56.6017 29.1413ZM1.34699 27.1095H33.8779V28.0654H1.34699V27.1095ZM41.6502 2.8308H43.803V17.0624H41.6472V2.8308H41.6502ZM51.9352 17.0624H54.088V11.083H61.5033V9.05019H54.0802V4.74558H62.3324V2.82982H51.9342L51.9352 17.0624ZM8.16531 17.2995C12.7109 17.2995 16.4175 13.5928 16.4175 9.04727C16.4175 4.62463 12.7109 2.58986 9.96012 2.58986C4.57765 2.58986 4.21868 7.85333 4.21868 7.85333H4.34549C4.34549 7.85333 5.30142 4.02668 9.00809 4.02668C12.0027 4.02668 14.2755 6.0595 14.2755 8.93021C14.2755 12.276 11.5247 15.0267 8.17897 15.0267C4.95026 15.0267 1.96347 12.6369 1.96347 8.32544C1.96347 4.96993 3.75828 2.2192 6.867 1.02916V0.912109C2.92038 1.50713 0.0486847 4.97969 0.0486847 9.03751C-0.0703188 13.5831 3.6383 17.2897 8.18189 17.2897L8.16531 17.2995ZM44.0419 27.1085C42.847 26.8695 42.4881 26.6305 42.4881 26.1526C42.4881 25.6746 42.849 25.4337 43.5708 25.4337C44.1756 25.4337 44.7706 25.6678 45.2486 26.0287L45.8504 25.1996C45.2525 24.7216 44.4165 24.3607 43.5776 24.3607C42.2608 24.3607 41.4248 25.0825 41.4248 26.2725C41.4248 27.4626 42.1369 27.8332 43.5708 28.1844C44.7608 28.4283 45.0047 28.6624 45.0047 29.1403C45.0047 29.6183 44.5267 29.9792 43.9317 29.9792C43.0928 29.9792 42.4978 29.6183 41.8931 29.1403L41.1712 29.9792C41.8882 30.701 42.8451 31.0619 43.801 31.0619C45.1179 31.0619 46.0738 30.3499 46.0738 29.1501C46.0738 27.8332 45.3539 27.3553 44.039 27.1212L44.0419 27.1085ZM34.9538 17.0615L30.6482 11.322C32.801 10.727 34.2359 9.17603 34.2359 7.13736C34.2359 4.51343 32.0899 2.71862 28.9782 2.71862H22.7549V16.9503H24.9009V11.6829H28.3637L32.3142 16.9503L34.9479 17.0732L34.9538 17.0615ZM24.9068 9.76519V4.74558H28.8544C30.8872 4.74558 32.0831 5.58446 32.0831 7.13833C32.0831 8.69221 30.7662 9.65009 28.8544 9.65009H24.9068V9.76519ZM64.613 28.0644H67.8417V26.9895H64.613V25.4346H68.2006V24.3587H63.538V30.6971H68.2006V29.7412H64.6198L64.613 28.0644ZM89.6076 2.71082L83.1502 17.0624H85.423L87.0958 13.3558H94.0312L95.587 17.0624H97.9788L91.5224 2.71082H89.6066H89.6076ZM87.8148 11.441L90.4387 5.34255L93.0626 11.4488H87.7952L87.8148 11.441ZM105.509 6.53844L110.055 13.2358L110.289 13.5948L110.523 13.2436L114.948 6.5521V17.0771H117.1V2.83567H115.068L110.284 10.011L105.498 2.83567H103.47V17.0673H105.503L105.509 6.53844ZM105.509 27.1085H135.641V28.0644H105.509V27.1085ZM127.154 15.0296V10.845H134.568V8.81121H127.154V4.74363H135.523V2.83177H125.008V17.0634H135.533V15.0267L127.154 15.0296ZM96.5459 28.7804L93.0763 24.3577H92.0004V30.6962H93.1963V26.2716L96.659 30.6962H97.615V24.3577H96.542L96.5459 28.7804ZM71.1903 2.83177H69.1575V17.0634H78.9646V15.0306H71.1903V2.83177ZM83.9881 28.0664H87.2168V26.9905H83.9881V25.4346H87.5748V24.3587H82.9093V30.6971H87.6938V29.7412H83.9774L83.9881 28.0664ZM75.017 24.3597H72.6184V30.6971H75.0111C77.043 30.6971 78.3589 29.2632 78.3589 27.4684C78.4779 25.7936 77.042 24.3587 75.0092 24.3587L75.017 24.3597ZM75.017 29.7402H73.7002V25.4346H75.017C76.3338 25.4346 77.163 26.3906 77.163 27.5865C77.28 28.7823 76.3241 29.7392 75.0072 29.7392L75.017 29.7402Z" fill="black"/>
</g>
<defs>
<clipPath id="clip0_701_16438">
<rect width="135.586" height="30.2386" fill="white" transform="translate(0.0458984 0.912109)"/>
</clipPath>
</defs>
</svg>
