<svg viewBox="0 0 36 36" fill="none" xmlns="http://www.w3.org/2000/svg">
<path d="M28.0177 12.6371L26.5715 7.71987V6.43415C26.5715 5.72408 25.9958 5.14844 25.2858 5.14844H9.42862V7.71987L7.98236 12.6371C7.52035 14.208 7.28577 15.8369 7.28577 17.4743V28.7199C7.28577 29.9033 8.24516 30.8627 9.42862 30.8627H26.5715C27.755 30.8627 28.7143 29.9033 28.7143 28.7199V17.4743C28.7143 15.8369 28.4798 14.208 28.0177 12.6371ZM21.5004 13.633C21.1684 14.8283 21.0001 16.063 21.0001 17.3035V28.7199H9.42862V17.3109C9.42862 16.0719 9.59654 14.8385 9.92776 13.6446L11.5715 7.71987H23.1429L21.5004 13.633Z" fill="#5FAF2D"/>
<path d="M18.2143 20.9661L18.4286 18.4375L14.5286 19.3804C13.0714 19.7232 12.3429 20.7518 12.2143 22.3375L12 24.8661L15.9 23.9232C17.3571 23.5804 18.0857 22.5518 18.2143 20.9661Z" fill="#5FAF2D"/>
</svg>
