<svg viewBox="0 0 36 36" fill="none" xmlns="http://www.w3.org/2000/svg">
<path d="M21.4286 17.577C21.8144 18.177 22.7572 18.4342 23.5715 18.4342C24.3858 18.4342 25.3286 18.177 25.7144 17.577V15.8627C26.7001 15.8199 27.9001 15.6484 28.7144 15.4342L28.2858 13.2484C27.5144 9.39129 26.7858 6.86272 23.5715 6.86272C20.3572 6.86272 19.6286 9.39129 18.8572 13.2484L18.4286 15.4342C19.2429 15.6484 20.4429 15.8199 21.4286 15.8627V17.577ZM10.2858 14.1484V15.8627C10.6715 16.4627 11.6144 16.7199 12.4286 16.7199C13.2429 16.7199 14.1858 16.4627 14.5715 15.8627V14.1484C15.3001 13.6342 15.8572 12.5199 15.8572 11.1056V8.01987C15.8572 6.13415 14.8286 5.14844 12.9001 5.14844H8.5715L9.04293 11.6627C9.12864 12.8199 9.60007 13.6342 10.2858 14.1484ZM31.2858 30.8627L31.1572 25.5484C31.0715 22.2913 30.1286 21.0484 27.9429 20.1056L26.9572 19.677C26.2286 20.4484 24.9858 21.0056 23.4429 21.0056C21.9001 21.0056 20.5715 20.3627 19.8429 19.8056C19.2001 19.3342 18.1715 18.6056 16.4572 18.1342L15.8144 17.9627C15.0858 18.7342 13.8429 19.2913 12.4286 19.2913C11.0144 19.2913 9.7715 18.7342 9.04293 17.9627L8.05721 18.3913C5.8715 19.3342 4.88578 20.6199 4.84293 23.877L4.71436 30.8627H31.2858Z" fill="#5FAF2D"/>
</svg>
