<svg viewBox="0 0 36 36" fill="none" xmlns="http://www.w3.org/2000/svg">
<path d="M25.7317 5.14844C24.9126 5.14844 24.1425 5.53867 23.6581 6.19919L5.57153 30.8627H10.2685C11.0876 30.8627 11.8577 30.4725 12.3421 29.8119L30.4287 5.14844H25.7317Z" fill="#5FAF2D"/>
<path d="M10.4535 15.433C13.7144 15.433 15.8572 13.3833 15.8572 10.0293C15.8572 6.86161 13.7144 4.71875 10.4535 4.71875C7.2858 4.71875 5.14294 6.86161 5.14294 10.0293C5.14294 13.3833 7.2858 15.433 10.4535 15.433Z" fill="#5FAF2D"/>
<path d="M25.4535 20.5781C22.2858 20.5781 20.1429 22.721 20.1429 25.8887C20.1429 29.2427 22.2858 31.2924 25.4535 31.2924C28.7144 31.2924 30.8572 29.2427 30.8572 25.8887C30.8572 22.721 28.7144 20.5781 25.4535 20.5781Z" fill="#5FAF2D"/>
</svg>
