<svg viewBox="0 0 40 40" fill="none" xmlns="http://www.w3.org/2000/svg">
<path d="M24.8618 12.8291L19.8348 17.9161L14.8078 12.8291C12.0286 9.99376 12.0286 5.40717 14.8078 2.57182C17.5869 -0.263524 22.0826 -0.263524 24.8618 2.57182C27.6409 5.40717 27.6409 9.99376 24.8618 12.8291Z" fill="#5FAF2D"/>
<path d="M14.8078 27.2146L19.8348 22.0859L24.8618 27.2146C27.6409 30.0499 27.6409 34.6365 24.8618 37.4302C22.0826 40.2655 17.5869 40.2655 14.8078 37.4302C12.0286 34.6365 12.0286 30.0499 14.8078 27.2146Z" fill="#005A28"/>
<path d="M26.9052 25.126L21.8782 19.9973L26.9052 14.8687C29.6843 12.0334 34.18 12.0334 36.9592 14.8687C39.7384 17.704 39.7384 22.2906 36.9592 25.126C34.18 27.9613 29.6843 27.9613 26.9052 25.126Z" fill="#1E8737"/>
<path d="M12.8051 14.8687L17.8321 19.9973L12.8051 25.126C10.026 27.9613 5.53028 27.9613 2.75112 25.126C-0.0280415 22.2906 -0.0280415 17.704 2.75112 14.8687C5.53028 12.0334 10.026 12.0334 12.8051 14.8687Z" fill="#AAE641"/>
</svg>
