<svg viewBox="0 0 35 35" fill="none" xmlns="http://www.w3.org/2000/svg">
<path d="M21.2337 12.1516L17.4849 15.9451L13.736 12.1516C11.6635 10.0372 11.6635 6.61675 13.736 4.50233C15.8086 2.3879 19.1612 2.3879 21.2337 4.50233C23.3062 6.61675 23.3062 10.0372 21.2337 12.1516Z" fill="white"/>
<path d="M13.736 22.8793L17.4849 19.0547L21.2337 22.8793C23.3062 24.9937 23.3062 28.4141 21.2337 30.4975C19.1612 32.6119 15.8086 32.6119 13.736 30.4975C11.6635 28.4141 11.6635 24.9937 13.736 22.8793Z" fill="white"/>
<path d="M22.7576 21.3244L19.0088 17.4998L22.7576 13.6752C24.8301 11.5607 28.1828 11.5607 30.2553 13.6752C32.3278 15.7896 32.3278 19.21 30.2553 21.3244C28.1828 23.4389 24.8301 23.4389 22.7576 21.3244Z" fill="white"/>
<path d="M12.2425 13.6752L15.9913 17.4998L12.2425 21.3244C10.17 23.4389 6.81735 23.4389 4.74482 21.3244C2.6723 19.21 2.6723 15.7896 4.74482 13.6752C6.81735 11.5607 10.17 11.5607 12.2425 13.6752Z" fill="white"/>
</svg>
