<svg viewBox="0 0 52 52" fill="none" xmlns="http://www.w3.org/2000/svg">
<path d="M21.8048 17.718C22.2325 16.6139 22.7423 15.6513 23.3527 14.6797C19.8735 15.4234 17.2453 17.4836 15.8965 20.562H20.9452C21.1647 19.5805 21.4511 18.6309 21.8048 17.718Z" fill="#ABB1B9"/>
<path d="M26.294 20.5625H29.38C28.7881 18.2019 27.7389 16.0958 26.294 14.3125C24.8492 16.0958 23.7999 18.2019 23.208 20.5625H26.294Z" fill="#ABB1B9"/>
<path d="M37.6904 25.6075C37.6904 24.6097 37.5896 23.6605 37.3977 22.7656H32.0146C32.1212 23.6708 32.1757 24.5987 32.1757 25.5472C32.1757 25.6009 32.1757 25.6539 32.1742 25.7068C32.1757 25.7597 32.1757 25.8127 32.1757 25.8664C32.1757 26.8149 32.1212 27.7428 32.0146 28.648H37.3977C37.5896 27.7531 37.6904 26.8039 37.6904 25.8061C37.6904 25.773 37.6904 25.7399 37.6897 25.7068C37.6904 25.6737 37.6904 25.6406 37.6904 25.6075Z" fill="#ABB1B9"/>
<path d="M31.6419 20.562H36.6906C35.3418 17.4836 32.7136 15.4234 29.2344 14.6797C29.8448 15.6513 30.3546 16.6139 30.7823 17.718C31.136 18.6309 31.4224 19.5805 31.6419 20.562Z" fill="#ABB1B9"/>
<path d="M29.7951 22.7656H26.2937H22.7922C22.676 23.6641 22.6172 24.5921 22.6172 25.5472C22.6172 25.6009 22.6172 25.6539 22.6179 25.7068C22.6172 25.7597 22.6172 25.8127 22.6172 25.8664C22.6172 26.8215 22.676 27.7495 22.7922 28.648H26.2937H29.7951C29.9113 27.7495 29.9701 26.8215 29.9701 25.8664C29.9701 25.8127 29.9701 25.7597 29.9694 25.7068C29.9701 25.6539 29.9701 25.6009 29.9701 25.5472C29.9701 24.5921 29.9113 23.6641 29.7951 22.7656Z" fill="#ABB1B9"/>
<path d="M30.7823 33.7034C30.3546 34.8076 29.8448 35.7701 29.2344 36.7417C32.7136 35.998 35.3418 33.9378 36.6906 30.8594H31.6419C31.4224 31.8409 31.136 32.7905 30.7823 33.7034Z" fill="#ABB1B9"/>
<path d="M26.294 30.8594H23.208C23.7999 33.22 24.8492 35.3261 26.294 37.1094C27.7389 35.3261 28.7881 33.22 29.38 30.8594H26.294Z" fill="#ABB1B9"/>
<path d="M20.4112 25.8664C20.4112 25.8127 20.4112 25.7597 20.4127 25.7068C20.4112 25.6539 20.4112 25.6009 20.4112 25.5472C20.4112 24.5987 20.4656 23.6708 20.5722 22.7656H15.1891C14.9972 23.6605 14.8965 24.6097 14.8965 25.6075C14.8965 25.6406 14.8965 25.6737 14.8972 25.7068C14.8965 25.7399 14.8965 25.773 14.8965 25.8061C14.8965 26.8039 14.9972 27.7531 15.1891 28.648H20.5722C20.4656 27.7428 20.4112 26.8149 20.4112 25.8664Z" fill="#ABB1B9"/>
<path d="M20.9452 30.8594H15.8965C17.2453 33.9378 19.8735 35.998 23.3527 36.7417C22.7423 35.7701 22.2325 34.8076 21.8048 33.7034C21.4511 32.7905 21.1647 31.8409 20.9452 30.8594Z" fill="#ABB1B9"/>
<circle cx="26" cy="26" r="25" stroke="#CBCFD6"/>
</svg>
