<svg width="72" height="72" viewBox="0 0 72 72" fill="none" xmlns="http://www.w3.org/2000/svg">
<circle cx="36" cy="36" r="35" fill="white" stroke="#CBCFD6"/>
<path d="M30.1266 24.4011C30.7254 22.8553 31.4391 21.5078 32.2937 20.1475C27.4228 21.1887 23.7433 24.0729 21.855 28.3828H28.9231C29.2305 27.0086 29.6314 25.6792 30.1266 24.4011Z" fill="#B4BBC5"/>
<path d="M36.4112 28.3838H40.7316C39.903 25.079 38.434 22.1304 36.4112 19.6338C34.3884 22.1304 32.9195 25.079 32.0908 28.3838H36.4112Z" fill="#B4BBC5"/>
<path d="M52.3674 35.4494C52.3674 34.0525 52.2264 32.7235 51.9577 31.4707H44.4214C44.5706 32.7379 44.6468 34.037 44.6468 35.365C44.6468 35.4401 44.6468 35.5143 44.6448 35.5884C44.6468 35.6624 44.6468 35.7366 44.6468 35.8117C44.6468 37.1397 44.5706 38.4388 44.4214 39.706H51.9577C52.2264 38.4532 52.3674 37.1242 52.3674 35.7273C52.3674 35.681 52.3674 35.6347 52.3664 35.5884C52.3674 35.542 52.3674 35.4957 52.3674 35.4494Z" fill="#B4BBC5"/>
<path d="M43.8999 28.3828H50.968C49.0798 24.0729 45.4002 21.1887 40.5293 20.1475C41.3839 21.5078 42.0976 22.8553 42.6964 24.4011C43.1916 25.6792 43.5925 27.0086 43.8999 28.3828Z" fill="#B4BBC5"/>
<path d="M41.3133 31.4707H36.4112H31.5091C31.3465 32.7286 31.2642 34.0277 31.2642 35.365C31.2642 35.4401 31.2642 35.5143 31.2652 35.5884C31.2642 35.6624 31.2642 35.7366 31.2642 35.8117C31.2642 37.149 31.3465 38.4481 31.5091 39.706H36.4112H41.3133C41.4759 38.4481 41.5583 37.149 41.5583 35.8117C41.5583 35.7366 41.5583 35.6624 41.5573 35.5884C41.5583 35.5143 41.5583 35.4401 41.5583 35.365C41.5583 34.0277 41.4759 32.7286 41.3133 31.4707Z" fill="#B4BBC5"/>
<path d="M42.6964 46.7766C42.0976 48.3224 41.3839 49.6699 40.5293 51.0302C45.4002 49.989 49.0798 47.1048 50.968 42.7949H43.8999C43.5925 44.1691 43.1916 45.4985 42.6964 46.7766Z" fill="#B4BBC5"/>
<path d="M36.4112 42.7949H32.0908C32.9195 46.0997 34.3884 49.0483 36.4112 51.5449C38.434 49.0483 39.903 46.0997 40.7316 42.7949H36.4112Z" fill="#B4BBC5"/>
<path d="M28.1762 35.8117C28.1762 35.7366 28.1762 35.6624 28.1782 35.5884C28.1762 35.5143 28.1762 35.4401 28.1762 35.365C28.1762 34.037 28.2524 32.7379 28.4016 31.4707H20.8653C20.5966 32.7235 20.4556 34.0525 20.4556 35.4494C20.4556 35.4957 20.4556 35.542 20.4566 35.5884C20.4556 35.6347 20.4556 35.681 20.4556 35.7273C20.4556 37.1242 20.5966 38.4532 20.8653 39.706H28.4016C28.2524 38.4388 28.1762 37.1397 28.1762 35.8117Z" fill="#B4BBC5"/>
<path d="M28.9231 42.7949H21.855C23.7433 47.1048 27.4228 49.989 32.2937 51.0302C31.4391 49.6699 30.7254 48.3224 30.1266 46.7766C29.6314 45.4985 29.2305 44.1691 28.9231 42.7949Z" fill="#B4BBC5"/>
</svg>
