<svg viewBox="0 0 31 32" fill="none" xmlns="http://www.w3.org/2000/svg">
<path d="M3.0957 28.9062L27.5005 4.50149" stroke="#B4BBC5" stroke-linecap="round"/>
<path d="M11.4522 2.22656C10.8525 3.77864 9.50667 4.10697 7.53188 4.10697C7.32709 4.10697 7.10767 4.10697 6.9175 4.10697C6.72734 4.10697 6.53717 4.10697 6.36163 4.10697C6.20072 4.10697 6.03982 4.10697 5.87891 4.12189C6.15684 3.43539 6.59568 2.95783 7.22469 2.67428C8.10237 2.27133 9.22874 2.27133 10.2234 2.27133C10.6477 2.25641 11.0719 2.25641 11.4522 2.22656Z" fill="#048C45"/>
<path d="M12.0662 2.72055C11.1886 4.67557 9.22839 4.86958 7.54616 4.86958C7.18046 4.86958 6.82938 4.85465 6.49294 4.85465L6.06872 6.54105C8.23368 4.73526 11.1154 6.52612 10.8082 9.24226C10.6034 11.0779 9.31616 12.2718 7.97037 12.615C6.49294 12.9881 4.85459 12.421 4.12319 10.8988C4.05005 10.7346 3.90377 10.4063 3.85988 10.2422L5.42509 9.83921C5.45434 9.92876 5.49823 10.0183 5.54211 10.0929C6.58071 11.8092 8.70178 10.9436 8.93583 9.16764C9.1845 7.36186 6.6831 6.39181 5.55674 8.51099L4.1817 7.91404L4.15244 7.89912L4.82534 5.16805C4.86922 4.97405 5.00087 4.43679 5.03013 4.34724C5.79079 1.52664 8.21905 1.48187 10.1792 1.46695C9.37467 1.1237 8.48236 0.929688 7.56079 0.929688C3.78674 0.929688 0.714844 4.04877 0.714844 7.91404C0.714844 11.7644 3.77211 14.8984 7.56079 14.8984C11.3348 14.8984 14.4067 11.7793 14.4067 7.91404C14.3482 5.85455 13.4705 4.004 12.0662 2.72055Z" fill="#E52825"/>
<path d="M25.3977 21.118L23.485 23.0535L21.5724 21.118C20.5149 20.0392 20.5149 18.2941 21.5724 17.2153C22.6298 16.1366 24.3403 16.1366 25.3977 17.2153C26.4551 18.2941 26.4551 20.0392 25.3977 21.118Z" fill="#5FAF2D"/>
<path d="M21.5724 26.592L23.485 24.6406L25.3977 26.592C26.4551 27.6708 26.4551 29.4159 25.3977 30.4788C24.3403 31.5576 22.6298 31.5576 21.5724 30.4788C20.5149 29.4159 20.5149 27.6708 21.5724 26.592Z" fill="#005A28"/>
<path d="M26.1744 25.7977L24.2617 23.8464L26.1744 21.895C27.2318 20.8162 28.9423 20.8162 29.9997 21.895C31.0571 22.9738 31.0571 24.7189 29.9997 25.7977C28.9423 26.8765 27.2318 26.8765 26.1744 25.7977Z" fill="#1E8737"/>
<path d="M20.8098 21.895L22.7225 23.8464L20.8098 25.7977C19.7524 26.8765 18.0419 26.8765 16.9845 25.7977C15.9271 24.7189 15.9271 22.9738 16.9845 21.895C18.0419 20.8162 19.7524 20.8162 20.8098 21.895Z" fill="#AAE641"/>
</svg>
