<svg viewBox="0 0 35 35" fill="none" xmlns="http://www.w3.org/2000/svg">
<path d="M25.6074 5.65283C24.3577 8.88666 21.5537 9.57074 17.4392 9.57074C17.0125 9.57074 16.5553 9.57074 16.1591 9.57074C15.7629 9.57074 15.3666 9.57074 15.0009 9.57074C14.6656 9.57074 14.3304 9.57074 13.9951 9.60184C14.5742 8.17149 15.4886 7.17646 16.7991 6.58567C18.6278 5.74612 20.9747 5.74612 23.0472 5.74612C23.931 5.71502 24.8149 5.71502 25.6074 5.65283Z" fill="white"/>
<path d="M26.8875 6.6791C25.0588 10.7525 20.9747 11.1567 17.4697 11.1567C16.7077 11.1567 15.9763 11.1256 15.2753 11.1256L14.3914 14.6393C18.9022 10.8769 24.9064 14.6082 24.2664 20.2674C23.8397 24.092 21.1576 26.5796 18.3536 27.2948C15.2753 28.0721 11.8617 26.8905 10.3378 23.7189C10.1854 23.3769 9.8806 22.6928 9.78917 22.3507L13.0503 21.5112C13.1113 21.6978 13.2027 21.8843 13.2942 22.0398C15.4581 25.6157 19.8775 23.8122 20.3651 20.1119C20.8833 16.3495 15.6715 14.3284 13.3247 18.7438L10.4597 17.5L10.3987 17.4689L11.8007 11.7786C11.8922 11.3744 12.1665 10.255 12.2274 10.0684C13.8123 4.19153 18.8717 4.09825 22.9558 4.06716C21.2795 3.35198 19.4203 2.94775 17.5002 2.94775C9.63678 2.94775 3.23633 9.44651 3.23633 17.5C3.23633 25.5224 9.6063 32.0522 17.5002 32.0522C25.3636 32.0522 31.764 25.5535 31.764 17.5C31.6421 13.2089 29.8134 9.35323 26.8875 6.6791Z" fill="white"/>
</svg>
