<svg viewBox="0 0 35 36" fill="none" xmlns="http://www.w3.org/2000/svg">
<path d="M27.4943 3.51562C25.9709 7.45782 22.5527 8.29175 17.5368 8.29175C17.0167 8.29175 16.4594 8.29175 15.9764 8.29175C15.4933 8.29175 15.0103 8.29175 14.5645 8.29175C14.1558 8.29175 13.7471 8.29175 13.3384 8.32965C14.0443 6.58599 15.1589 5.37301 16.7566 4.6528C18.9859 3.62934 21.8468 3.62934 24.3733 3.62934C25.4508 3.59144 26.5282 3.59144 27.4943 3.51562Z" fill="#048C45"/>
<path d="M29.0548 4.76744C26.8256 9.73309 21.8468 10.2259 17.5741 10.2259C16.6452 10.2259 15.7535 10.188 14.8989 10.188L13.8215 14.4713C19.3203 9.88471 26.6398 14.4334 25.8595 21.3322C25.3394 25.9946 22.0698 29.0271 18.6516 29.8989C14.8989 30.8466 10.7376 29.4062 8.87991 25.5398C8.69414 25.1228 8.32259 24.2889 8.21113 23.8719L12.1867 22.8485C12.261 23.0759 12.3724 23.3033 12.4839 23.4929C15.1219 27.852 20.5093 25.6535 21.1038 21.1427C21.7354 16.5561 15.382 14.0922 12.5211 19.4749L9.02853 17.9586L8.95422 17.9207L10.6633 10.984C10.7748 10.4912 11.1092 9.12659 11.1835 8.89916C13.1155 1.73498 19.2832 1.62126 24.2619 1.58336C22.2184 0.711524 19.952 0.21875 17.6112 0.21875C8.02536 0.21875 0.2229 8.14104 0.2229 17.9586C0.2229 27.7383 7.9882 35.6985 17.6112 35.6985C27.1971 35.6985 34.9996 27.7762 34.9996 17.9586C34.8509 12.7276 32.6217 8.02733 29.0548 4.76744Z" fill="#E52825"/>
</svg>
