<svg viewBox="0 0 85 60" fill="none" xmlns="http://www.w3.org/2000/svg">
<g clip-path="url(#clip0_4_9200)">
<path d="M35.85 40.125C35.85 50.025 27.825 58.05 17.925 58.05C8.025 57.975 0 49.95 0 40.125C0 29.775 5.625 9.15 28.875 0C28.65 0.3 23.325 9.45 21.525 22.5C29.7 24.225 35.85 31.425 35.85 40.125Z" fill="#5FAF2D"/>
<path d="M81.4501 40.125C81.4501 50.025 73.4251 58.05 63.5251 58.05C53.6251 58.05 45.6001 50.025 45.6001 40.125C45.6001 29.775 51.2251 9.15 74.4751 0C74.2501 0.3 68.9251 9.45 67.1251 22.5C75.3001 24.225 81.4501 31.425 81.4501 40.125Z" fill="#5FAF2D"/>
</g>
<defs>
<clipPath id="clip0_4_9200">
<rect width="85" height="60" fill="white"/>
</clipPath>
</defs>
</svg>
