<svg viewBox="0 0 148 27" fill="none" xmlns="http://www.w3.org/2000/svg">
<path d="M6.14166 10.6541H3.04631V17.6753H0V1.01562H3.04631V7.98782H6.23667L11.0207 1.01562H14.303L8.61794 9.08498L14.5175 17.6753H11.0207L6.14166 10.6541Z" fill="#D9414A"/>
<path d="M25.6855 14.1965C26.0439 13.811 26.322 13.358 26.5035 12.8639C26.6851 12.3699 26.7664 11.8446 26.7429 11.3188C26.7658 10.7925 26.6842 10.267 26.5027 9.77247C26.3212 9.27798 26.0435 8.82439 25.6855 8.43794C25.3362 8.07717 24.9152 7.79346 24.4497 7.60503C23.9842 7.41661 23.4844 7.32764 22.9825 7.34384C22.3083 7.33436 21.6435 7.50241 21.0548 7.83113C20.4826 8.15984 20.0134 8.6417 19.7002 9.2225C19.3719 9.87196 19.2008 10.5895 19.2008 11.3172C19.2008 12.045 19.3719 12.7625 19.7002 13.412C20.0125 13.9934 20.4819 14.4755 21.0548 14.8033C21.6426 15.1345 22.3078 15.3037 22.9825 15.2937C23.4847 15.3101 23.9848 15.2209 24.4504 15.0319C24.916 14.8429 25.3368 14.5583 25.6855 14.1965ZM26.6356 5.63067C27.6018 6.15966 28.3987 6.95121 28.9341 7.91388C29.5044 8.95665 29.7917 10.1305 29.7677 11.3188C29.7905 12.5098 29.5033 13.6863 28.9341 14.7328C28.4012 15.7005 27.604 16.4967 26.6356 17.0283C25.6158 17.5853 24.4693 17.8693 23.3073 17.8527C21.5952 17.8527 20.2385 17.2816 19.2374 16.1395V22.3057H16.2646V4.96257H19.0964V6.62977C19.582 6.03769 20.2077 5.57628 20.9169 5.28743C21.6758 4.97962 22.4885 4.82645 23.3073 4.83692C24.4648 4.8172 25.6079 5.09584 26.6264 5.646" fill="#D9414A"/>
<path d="M38.5725 15.1638C39.1409 14.8351 39.575 14.3163 39.7984 13.6989V12.2248H36.7184C35.0042 12.2248 34.1471 12.7877 34.1471 13.9135C34.1394 14.1641 34.1942 14.4127 34.3066 14.6369C34.4189 14.861 34.5853 15.0537 34.7907 15.1976C35.3193 15.5451 35.9459 15.7127 36.5774 15.6757C37.2735 15.6878 37.9598 15.5109 38.5634 15.1638M41.2756 6.16589C42.2686 7.06282 42.7651 8.41538 42.7651 10.2235V17.6738H39.9547V16.1415C39.5734 16.7112 39.0316 17.1549 38.3979 17.4164C37.6194 17.7296 36.7848 17.8788 35.9461 17.8547C35.0872 17.8735 34.2343 17.7073 33.4453 17.3674C32.777 17.0808 32.2033 16.6112 31.7904 16.0128C31.4027 15.4316 31.1998 14.7468 31.2081 14.0483C31.1898 13.5208 31.2957 12.9965 31.5171 12.5174C31.7386 12.0383 32.0694 11.6179 32.483 11.2901C33.3329 10.6015 34.6691 10.2562 36.4916 10.2542H39.777V10.0642C39.8009 9.68555 39.7419 9.30625 39.6043 8.9527C39.4667 8.59915 39.2537 8.27983 38.9802 8.01697C38.4469 7.54194 37.6593 7.30289 36.6111 7.30289C35.8962 7.30403 35.1858 7.41673 34.5057 7.63694C33.8692 7.82928 33.2752 8.14133 32.7557 8.55635L31.5881 6.38961C32.3111 5.85606 33.1269 5.46119 33.9939 5.22502C34.9608 4.95102 35.9616 4.81483 36.9666 4.82048C38.8402 4.82048 40.2704 5.26793 41.2572 6.16282" fill="#D9414A"/>
<path d="M48.2075 17.0128C47.1888 16.4833 46.3393 15.6784 45.7557 14.6897C45.1605 13.6673 44.8563 12.5015 44.8761 11.3186C44.8538 10.1353 45.1582 8.96887 45.7557 7.94739C46.3431 6.9656 47.192 6.16657 48.2075 5.63967C49.3052 5.06876 50.5285 4.78215 51.7656 4.80607C52.9097 4.7935 54.0388 5.06631 55.051 5.59983C55.9791 6.08591 56.73 6.85284 57.1963 7.79109L54.91 9.12424C54.5805 8.56975 54.1086 8.11364 53.5431 7.80335C52.8107 7.42193 51.9779 7.27751 51.1598 7.39006C50.3418 7.50261 49.5789 7.86658 48.9767 8.43161C48.6062 8.81336 48.3179 9.26708 48.1297 9.76471C47.9415 10.2623 47.8574 10.7933 47.8826 11.3247C47.8572 11.8549 47.9403 12.3847 48.1268 12.8817C48.3134 13.3786 48.5995 13.8322 48.9675 14.2147C49.5698 14.7801 50.3322 15.1454 51.1503 15.2606C51.9683 15.3758 52.8019 15.2353 53.537 14.8583C54.1011 14.5462 54.5727 14.0905 54.9039 13.5374L57.1901 14.8706C56.7149 15.8048 55.9667 16.5722 55.0448 17.071C54.0325 17.6091 52.8996 17.8802 51.7533 17.8586C50.5209 17.8791 49.3026 17.5938 48.2075 17.0281" fill="#D9414A"/>
<path d="M59.293 4.96094H62.2688V10.125H68.671V4.96094H71.6437V17.6703H68.671V12.6503H62.2688V17.6703H59.293V4.96094Z" fill="#D9414A"/>
<path d="M87.8005 4.96094H90.7733V17.6703H87.8005V4.96094ZM82.4679 14.958C82.703 14.7515 82.8874 14.4938 83.0069 14.2047C83.1265 13.9156 83.178 13.603 83.1575 13.2908C83.1815 12.995 83.1335 12.6978 83.0177 12.4245C82.9019 12.1513 82.7217 11.9101 82.4925 11.7217C82.0491 11.3866 81.3749 11.2119 80.4698 11.1976L77.9475 11.1731V15.4821L80.4698 15.5035C81.3432 15.5219 82.0021 15.338 82.4679 14.958ZM84.8737 10.2445C85.7298 10.9739 86.1578 12.0057 86.1578 13.3398C86.1578 14.7333 85.6859 15.812 84.742 16.5762C83.798 17.3403 82.4608 17.7132 80.7302 17.6948L74.9717 17.6703V4.96094H77.9475V9.12587L81.1593 9.15039C82.7775 9.15039 84.0156 9.51508 84.8737 10.2445Z" fill="#D9414A"/>
<path d="M94.0859 4.96094H97.0618V13.3398L104.083 4.96094H106.795V17.6703H103.819V9.29443L96.8227 17.6703H94.0859V4.96094Z" fill="#D9414A"/>
<path d="M120.691 4.51291C120.017 5.09827 119.68 5.95639 119.68 7.08113C119.68 8.20588 120.005 9.02109 120.654 9.61564C121.304 10.2102 122.242 10.4983 123.48 10.4983H127.381V3.63028H123.596C122.328 3.63028 121.356 3.92449 120.682 4.51291M130.428 1.01302V17.6727H127.381V13.0328H122.931L119.836 17.6727H116.578L120.145 12.5332C119.059 12.1593 118.121 11.4459 117.47 10.4983C116.821 9.49648 116.492 8.32039 116.529 7.1271C116.498 5.97281 116.796 4.83348 117.387 3.84174C117.968 2.91315 118.813 2.1798 119.815 1.73629C120.973 1.22974 122.228 0.981874 123.492 1.00996L130.428 1.01302Z" fill="#D9414A"/>
<path d="M143.315 14.1965C143.673 13.8107 143.951 13.3577 144.133 12.8637C144.315 12.3698 144.398 11.8447 144.375 11.3187C144.398 10.7923 144.316 10.2666 144.134 9.77211C143.952 9.27761 143.674 8.82413 143.315 8.43792C142.966 8.07684 142.545 7.79293 142.079 7.60449C141.614 7.41604 141.114 7.32725 140.612 7.34383C139.938 7.33362 139.273 7.50172 138.684 7.83111C138.11 8.15872 137.64 8.64079 137.327 9.22249C136.998 9.87195 136.827 10.5895 136.827 11.3172C136.827 12.0449 136.998 12.7625 137.327 13.4119C137.639 13.9942 138.11 14.4765 138.684 14.8033C139.272 15.1351 139.937 15.3044 140.612 15.2937C141.114 15.31 141.613 15.2208 142.078 15.0318C142.544 14.8428 142.964 14.5582 143.312 14.1965M144.265 5.63066C145.231 6.15943 146.027 6.9511 146.561 7.91386C147.131 8.95663 147.418 10.1305 147.394 11.3187C147.417 12.5098 147.13 13.6863 146.561 14.7328C146.029 15.7007 145.233 16.497 144.265 17.0283C143.248 17.5831 142.105 17.867 140.946 17.8527C139.234 17.8527 137.878 17.2816 136.879 16.1395V22.3057H133.903V4.96255H136.735V6.62975C137.221 6.03768 137.846 5.57627 138.556 5.28741C139.315 4.98024 140.127 4.82709 140.946 4.8369C142.104 4.81735 143.248 5.09596 144.268 5.64598" fill="#D9414A"/>
<path d="M100.464 3.32827C101.144 3.32739 101.817 3.19149 102.444 2.92844C103.071 2.6654 103.64 2.28044 104.117 1.79591L102.303 0C101.816 0.491727 101.155 0.770573 100.464 0.77537C99.774 0.774491 99.1127 0.500056 98.625 0.0122591L96.7861 1.8235C97.2644 2.30286 97.833 2.68265 98.459 2.94094C99.085 3.19922 99.756 3.33087 100.433 3.32827H100.464Z" fill="#D9414A"/>
<path d="M29.7583 22.8533H27.8459V25.7525H27.2207V22.3047H29.7583V22.8533Z" fill="#D9414A"/>
<path d="M32.103 25.1453C32.2751 25.0396 32.4075 24.8802 32.48 24.6918V24.2106H31.5084C30.9813 24.2106 30.7147 24.3884 30.7147 24.7439C30.7116 24.8237 30.7285 24.9031 30.7639 24.9748C30.7992 25.0465 30.8518 25.1083 30.917 25.1545C31.0828 25.2638 31.2795 25.3165 31.4778 25.3047C31.693 25.3097 31.9053 25.2545 32.0907 25.1453M32.7037 22.617C32.8424 22.754 32.9499 22.9195 33.0187 23.102C33.0875 23.2845 33.1159 23.4797 33.1021 23.6743V25.7552H32.5106V25.3016C32.4019 25.4652 32.2473 25.5932 32.0662 25.6694C31.8482 25.7573 31.6147 25.8 31.3797 25.795C31.0504 25.81 30.7258 25.7116 30.4603 25.5162C30.3533 25.4266 30.2669 25.315 30.2072 25.1889C30.1475 25.0628 30.1158 24.9252 30.1143 24.7857C30.1129 24.6462 30.1417 24.508 30.1988 24.3807C30.2558 24.2533 30.3398 24.1399 30.445 24.0482C30.7547 23.8387 31.1267 23.7414 31.4993 23.7723H32.4892V23.6467C32.496 23.5336 32.4785 23.4203 32.4378 23.3146C32.3971 23.2088 32.3341 23.113 32.2532 23.0338C32.0588 22.8774 31.8123 22.8007 31.5636 22.8192C31.355 22.8179 31.1478 22.8521 30.9507 22.9204C30.7706 22.9781 30.6031 23.0696 30.4573 23.1901L30.1968 22.7212C30.3854 22.5707 30.6021 22.4592 30.8342 22.3932C31.0883 22.3149 31.3529 22.2757 31.6188 22.2768C32.016 22.2508 32.4082 22.3768 32.7159 22.6292" fill="#D9414A"/>
<path d="M34.7909 25.5638C34.522 25.4174 34.2984 25.2001 34.1442 24.9355C33.9913 24.6576 33.9111 24.3456 33.9111 24.0284C33.9111 23.7112 33.9913 23.3991 34.1442 23.1212C34.2986 22.8607 34.5225 22.6485 34.7909 22.5083C35.0802 22.3542 35.404 22.2761 35.7317 22.2815C36.0218 22.2768 36.3088 22.342 36.5684 22.4715C36.8088 22.5921 37.0074 22.7822 37.1384 23.017L36.6634 23.3235C36.5626 23.1673 36.4233 23.0396 36.2589 22.9527C36.0937 22.8691 35.9107 22.8271 35.7256 22.8301C35.5117 22.8258 35.3004 22.8776 35.1127 22.9803C34.9347 23.079 34.789 23.2269 34.6928 23.4063C34.587 23.6006 34.5342 23.8194 34.5396 24.0406C34.5338 24.2639 34.5867 24.4847 34.6928 24.6812C34.7898 24.8599 34.9354 25.0076 35.1127 25.1072C35.3009 25.2085 35.5119 25.2602 35.7256 25.2573C35.9109 25.2594 36.094 25.2163 36.2589 25.1317C36.424 25.0458 36.5636 24.9179 36.6634 24.7609L37.1384 25.0673C37.0076 25.3031 36.809 25.4941 36.5684 25.6159C36.3096 25.7479 36.0223 25.8142 35.7317 25.809C35.404 25.8144 35.0802 25.7363 34.7909 25.5822" fill="#D9414A"/>
<path d="M40.4698 22.8533H39.2072V25.7525H38.582V22.8533H37.3193V22.3047H40.4698V22.8533Z" fill="#D9414A"/>
<path d="M43.479 25.0884C43.6542 24.9857 43.7982 24.8374 43.8958 24.6593C43.9944 24.4624 44.0458 24.2452 44.0458 24.0249C44.0458 23.8047 43.9944 23.5875 43.8958 23.3905C43.7989 23.2127 43.6546 23.0652 43.479 22.9645C43.2966 22.8623 43.0904 22.8105 42.8813 22.8144C42.6749 22.8112 42.4716 22.8642 42.2929 22.9676C42.1178 23.0691 41.9737 23.2163 41.8761 23.3936C41.7714 23.5873 41.7186 23.8048 41.7229 24.0249C41.7195 24.2456 41.7712 24.4636 41.8731 24.6593C41.9688 24.8388 42.1133 24.9875 42.2899 25.0884C42.4718 25.1893 42.6764 25.2422 42.8844 25.2422C43.0924 25.2422 43.297 25.1893 43.479 25.0884ZM43.8314 22.4895C44.0888 22.6328 44.3011 22.845 44.4443 23.1025C44.5913 23.3866 44.668 23.7019 44.668 24.0219C44.668 24.3418 44.5913 24.6571 44.4443 24.9413C44.3012 25.1988 44.0889 25.4111 43.8314 25.5542C43.5562 25.7041 43.2468 25.7801 42.9334 25.7749C42.6999 25.777 42.4687 25.7278 42.2561 25.6308C42.0495 25.5377 41.8693 25.3945 41.7321 25.214V26.9977H41.1191V22.2995H41.7321V22.845C41.8675 22.6578 42.0491 22.5089 42.2592 22.4129C42.4796 22.3132 42.7191 22.263 42.961 22.2658C43.2747 22.2615 43.584 22.3386 43.859 22.4895" fill="#D9414A"/>
<path d="M47.656 25.09C47.8307 24.9888 47.9731 24.84 48.0666 24.661C48.1653 24.4641 48.2167 24.2469 48.2167 24.0266C48.2167 23.8063 48.1653 23.5891 48.0666 23.3922C47.9739 23.2134 47.8313 23.0654 47.656 22.9662C47.4727 22.8678 47.2679 22.8162 47.0599 22.8162C46.8519 22.8162 46.6471 22.8678 46.4638 22.9662C46.2874 23.066 46.1429 23.2137 46.047 23.3922C45.9462 23.5885 45.8936 23.8059 45.8936 24.0266C45.8936 24.2472 45.9462 24.4647 46.047 24.661C46.1436 24.8398 46.2879 24.9883 46.4638 25.09C46.6461 25.1915 46.8513 25.2447 47.0599 25.2447C47.2685 25.2447 47.4737 25.1915 47.656 25.09ZM46.1236 25.562C45.8565 25.4153 45.6349 25.198 45.4831 24.9337C45.3302 24.6558 45.25 24.3438 45.25 24.0266C45.25 23.7094 45.3302 23.3973 45.4831 23.1194C45.6351 22.8593 45.857 22.6469 46.1236 22.5065C46.4075 22.3585 46.7229 22.2812 47.043 22.2812C47.3632 22.2812 47.6786 22.3585 47.9624 22.5065C48.2275 22.6479 48.4482 22.8601 48.5999 23.1194C48.7506 23.398 48.8296 23.7098 48.8296 24.0266C48.8296 24.3434 48.7506 24.6551 48.5999 24.9337C48.4484 25.1972 48.228 25.4144 47.9624 25.562C47.6786 25.71 47.3632 25.7873 47.043 25.7873C46.7229 25.7873 46.4075 25.71 46.1236 25.562Z" fill="#D9414A"/>
<path d="M49.752 22.3047H50.3772V23.7696H52.3416V22.3047H52.9668V25.7525H52.3416V24.309H50.3772V25.7525H49.752V22.3047Z" fill="#D9414A"/>
<path d="M56.2555 25.0918C56.4318 24.9916 56.5755 24.8426 56.6693 24.6628C56.768 24.4658 56.8193 24.2486 56.8193 24.0284C56.8193 23.8081 56.768 23.5909 56.6693 23.394C56.5763 23.2143 56.4324 23.0661 56.2555 22.968C56.0728 22.8695 55.8685 22.818 55.661 22.818C55.4534 22.818 55.2491 22.8695 55.0664 22.968C54.8894 23.0669 54.7447 23.2148 54.6496 23.394C54.5488 23.5902 54.4962 23.8077 54.4962 24.0284C54.4962 24.249 54.5488 24.4665 54.6496 24.6628C54.7453 24.8422 54.8898 24.9909 55.0664 25.0918C55.2484 25.1927 55.453 25.2456 55.661 25.2456C55.869 25.2456 56.0736 25.1927 56.2555 25.0918ZM54.7385 25.5638C54.4705 25.4173 54.2478 25.1999 54.0949 24.9355C53.9442 24.6569 53.8652 24.3451 53.8652 24.0284C53.8652 23.7116 53.9442 23.3998 54.0949 23.1212C54.248 22.8608 54.471 22.6485 54.7385 22.5083C55.0206 22.3554 55.3371 22.2773 55.6579 22.2815C55.9788 22.2764 56.2956 22.3545 56.5773 22.5083C56.8434 22.6495 57.0651 22.8617 57.2179 23.1212C57.3686 23.3998 57.4475 23.7116 57.4475 24.0284C57.4475 24.3451 57.3686 24.6569 57.2179 24.9355C57.0651 25.1991 56.8438 25.4162 56.5773 25.5638C56.2956 25.7176 55.9788 25.7957 55.6579 25.7906C55.3371 25.7947 55.0206 25.7166 54.7385 25.5638Z" fill="#D9414A"/>
<path d="M62.3294 22.3047V25.7525H61.7624V23.2364L60.4753 25.3633H60.2025L58.9276 23.2302V25.7525H58.3545V22.3047H58.9981L60.3527 24.6339L61.7441 22.3047H62.3294Z" fill="#D9414A"/>
<path d="M66.9578 22.3047H67.5707V25.7525H66.9578V22.3047ZM65.594 25.115C65.6682 25.051 65.7265 24.9706 65.7642 24.8802C65.802 24.7898 65.8182 24.6918 65.8116 24.594C65.8195 24.5004 65.804 24.4064 65.7665 24.3202C65.7291 24.2341 65.6708 24.1586 65.597 24.1006C65.4039 23.9824 65.1795 23.9258 64.9534 23.9382H64.1719V25.2897H64.9534C65.1801 25.31 65.4067 25.2504 65.594 25.1211M66.0966 23.7819C66.2126 23.8832 66.3043 24.0094 66.3648 24.1511C66.4253 24.2927 66.453 24.4463 66.4459 24.6001C66.4551 24.7634 66.4261 24.9265 66.3612 25.0765C66.2963 25.2265 66.1973 25.3593 66.0721 25.4644C65.7625 25.6888 65.3839 25.7973 65.0025 25.7709H63.5498V22.3047H64.1627V23.4693H65.0822C65.4387 23.4527 65.7899 23.561 66.0751 23.7757" fill="#D9414A"/>
<path d="M70.5459 22.3047H71.1711V23.7696H73.1356V22.3047H73.7608V25.7525H73.1356V24.309H71.1711V25.7525H70.5459V22.3047Z" fill="#D9414A"/>
<path d="M76.6847 25.1467C76.8567 25.041 76.9892 24.8816 77.0616 24.6931V24.212H76.0962C75.5691 24.212 75.3025 24.3897 75.3025 24.7452C75.2994 24.8251 75.3163 24.9045 75.3516 24.9762C75.387 25.0479 75.4396 25.1096 75.5047 25.1559C75.6706 25.2652 75.8673 25.3179 76.0656 25.3061C76.2808 25.3111 76.4931 25.2559 76.6785 25.1467M77.2915 22.6183C77.4257 22.756 77.5291 22.9206 77.5946 23.1014C77.6601 23.2821 77.6863 23.4748 77.6715 23.6665V25.7474H77.08V25.2938C76.9713 25.4574 76.8167 25.5854 76.6356 25.6616C76.4176 25.7495 76.1841 25.7922 75.9491 25.7872C75.6198 25.8022 75.2952 25.7038 75.0297 25.5083C74.9236 25.4177 74.8385 25.3052 74.7801 25.1785C74.7216 25.0517 74.6914 24.9139 74.6914 24.7744C74.6914 24.6348 74.7216 24.497 74.7801 24.3702C74.8385 24.2435 74.9236 24.131 75.0297 24.0404C75.3394 23.8309 75.7114 23.7336 76.084 23.7645H77.0739V23.6389C77.0808 23.5258 77.0633 23.4125 77.0225 23.3067C76.9818 23.201 76.9189 23.1052 76.8379 23.0259C76.6435 22.8696 76.3971 22.7929 76.1483 22.8114C75.9449 22.8118 75.743 22.846 75.5507 22.9125C75.3706 22.9703 75.2032 23.0618 75.0573 23.1822L74.7968 22.7133C74.9855 22.5629 75.2021 22.4514 75.4343 22.3854C75.6884 22.3071 75.9529 22.2678 76.2188 22.269C76.616 22.243 77.0082 22.369 77.316 22.6214" fill="#D9414A"/>
<path d="M83.7242 22.3047V25.7525H78.8115V22.3047H79.4337V25.207H80.9568V22.3047H81.582V25.207H83.099V22.3047H83.7242Z" fill="#D9414A"/>
<path d="M85.5943 23.0664C85.3909 23.2517 85.2641 23.5064 85.2388 23.7804H87.4515C87.426 23.5073 87.2992 23.2537 87.096 23.0694C86.8867 22.8905 86.6204 22.7922 86.3451 22.7922C86.0698 22.7922 85.8035 22.8905 85.5943 23.0694M88.046 24.234H85.248C85.28 24.5215 85.4243 24.7848 85.6494 24.9665C85.8911 25.1555 86.1917 25.2532 86.4983 25.2423C86.6846 25.2491 86.8702 25.2153 87.0422 25.1434C87.2142 25.0714 87.3684 24.963 87.4944 24.8255L87.8376 25.227C87.6805 25.4114 87.4806 25.5545 87.2553 25.6438C86.9742 25.7509 86.6741 25.7992 86.3736 25.7855C86.0731 25.7718 85.7786 25.6964 85.5085 25.5641C85.2368 25.4264 85.0102 25.2136 84.8557 24.9511C84.7049 24.6725 84.626 24.3608 84.626 24.044C84.626 23.7272 84.7049 23.4154 84.8557 23.1368C85.0004 22.8806 85.2124 22.6687 85.4686 22.5239C85.7398 22.3715 86.0463 22.2932 86.3574 22.2971C86.6666 22.2919 86.9716 22.3703 87.24 22.5239C87.4978 22.6666 87.7102 22.879 87.8529 23.1368C88.0025 23.4198 88.0774 23.7363 88.0705 24.0563C88.0742 24.1195 88.0742 24.183 88.0705 24.2463" fill="#D9414A"/>
<path d="M91.5581 22.8533H89.6426V25.7525H89.0205V22.3047H91.5581V22.8533Z" fill="#D9414A"/>
<path d="M94.1174 25.0918C94.2924 24.9898 94.4356 24.8413 94.5311 24.6628C94.6298 24.4658 94.6812 24.2486 94.6812 24.0284C94.6812 23.8081 94.6298 23.5909 94.5311 23.394C94.4363 23.2157 94.2929 23.0679 94.1174 22.968C93.9347 22.8695 93.7304 22.818 93.5229 22.818C93.3153 22.818 93.111 22.8695 92.9283 22.968C92.7513 23.0669 92.6066 23.2148 92.5115 23.394C92.4107 23.5902 92.3581 23.8077 92.3581 24.0284C92.3581 24.249 92.4107 24.4665 92.5115 24.6628C92.6072 24.8422 92.7517 24.9909 92.9283 25.0918C93.1102 25.1927 93.3148 25.2456 93.5229 25.2456C93.7309 25.2456 93.9355 25.1927 94.1174 25.0918ZM92.5851 25.5638C92.318 25.4171 92.0964 25.1997 91.9445 24.9355C91.7938 24.6569 91.7148 24.3451 91.7148 24.0284C91.7148 23.7116 91.7938 23.3998 91.9445 23.1212C92.0966 22.8611 92.3185 22.6487 92.5851 22.5083C92.8675 22.3563 93.1838 22.2783 93.5045 22.2815C93.8254 22.2764 94.1422 22.3545 94.4239 22.5083C94.6896 22.6488 94.9105 22.8612 95.0613 23.1212C95.2142 23.3991 95.2944 23.7112 95.2944 24.0284C95.2944 24.3456 95.2142 24.6576 95.0613 24.9355C94.9107 25.1996 94.6901 25.417 94.4239 25.5638C94.1422 25.7176 93.8254 25.7957 93.5045 25.7906C93.1838 25.7938 92.8675 25.7158 92.5851 25.5638Z" fill="#D9414A"/>
<path d="M100.503 22.8533H98.591V25.7525H97.9658V22.3047H100.503V22.8533Z" fill="#D9414A"/>
<path d="M103.063 25.0918C103.239 24.9908 103.382 24.842 103.477 24.6628C103.575 24.4658 103.627 24.2486 103.627 24.0284C103.627 23.8081 103.575 23.5909 103.477 23.394C103.383 23.215 103.239 23.067 103.063 22.968C102.88 22.8695 102.676 22.818 102.468 22.818C102.261 22.818 102.056 22.8695 101.874 22.968C101.697 23.0669 101.552 23.2148 101.457 23.394C101.356 23.5902 101.304 23.8077 101.304 24.0284C101.304 24.249 101.356 24.4665 101.457 24.6628C101.553 24.8422 101.697 24.9909 101.874 25.0918C102.056 25.1927 102.26 25.2456 102.468 25.2456C102.676 25.2456 102.881 25.1927 103.063 25.0918ZM101.531 25.5638C101.262 25.4173 101.04 25.1999 100.887 24.9355C100.736 24.6569 100.657 24.3451 100.657 24.0284C100.657 23.7116 100.736 23.3998 100.887 23.1212C101.04 22.8608 101.263 22.6485 101.531 22.5083C101.813 22.3554 102.129 22.2773 102.45 22.2815C102.771 22.2764 103.088 22.3545 103.369 22.5083C103.635 22.6488 103.856 22.8612 104.007 23.1212C104.16 23.3991 104.24 23.7112 104.24 24.0284C104.24 24.3456 104.16 24.6576 104.007 24.9355C103.856 25.1996 103.636 25.417 103.369 25.5638C103.088 25.7176 102.771 25.7957 102.45 25.7906C102.129 25.7947 101.813 25.7166 101.531 25.5638Z" fill="#D9414A"/>
<path d="M107.535 25.0884C107.71 24.9857 107.854 24.8374 107.951 24.6593C108.052 24.4631 108.105 24.2456 108.105 24.0249C108.105 23.8043 108.052 23.5868 107.951 23.3905C107.855 23.2127 107.71 23.0652 107.535 22.9645C107.352 22.862 107.146 22.8102 106.937 22.8144C106.731 22.8112 106.527 22.8642 106.349 22.9676C106.173 23.0691 106.029 23.2163 105.932 23.3936C105.828 23.5876 105.776 23.8051 105.782 24.0249C105.777 24.2453 105.828 24.4634 105.929 24.6593C106.024 24.8388 106.169 24.9875 106.346 25.0884C106.527 25.1893 106.732 25.2422 106.94 25.2422C107.148 25.2422 107.353 25.1893 107.535 25.0884ZM107.887 22.4895C108.144 22.6328 108.357 22.845 108.5 23.1025C108.647 23.3866 108.724 23.7019 108.724 24.0219C108.724 24.3418 108.647 24.6571 108.5 24.9413C108.357 25.1988 108.145 25.4111 107.887 25.5542C107.612 25.7041 107.302 25.7801 106.989 25.7749C106.756 25.777 106.524 25.7278 106.312 25.6308C106.105 25.5377 105.925 25.3945 105.788 25.214V26.9977H105.175V22.2995H105.772V22.845C105.909 22.6585 106.09 22.5098 106.3 22.4129C106.52 22.3134 106.76 22.2632 107.001 22.2658C107.315 22.2615 107.624 22.3386 107.899 22.4895" fill="#D9414A"/>
<path d="M111.711 25.09C111.886 24.9881 112.029 24.8395 112.125 24.661C112.222 24.4635 112.272 24.2465 112.272 24.0266C112.272 23.8067 112.222 23.5897 112.125 23.3922C112.03 23.2139 111.887 23.0662 111.711 22.9662C111.528 22.8678 111.323 22.8162 111.115 22.8162C110.907 22.8162 110.702 22.8678 110.519 22.9662C110.343 23.0669 110.199 23.2144 110.102 23.3922C110.001 23.5885 109.949 23.8059 109.949 24.0266C109.949 24.2472 110.001 24.4647 110.102 24.661C110.2 24.8391 110.344 24.9874 110.519 25.09C110.701 25.1915 110.906 25.2447 111.115 25.2447C111.324 25.2447 111.529 25.1915 111.711 25.09ZM110.179 25.562C109.912 25.4153 109.69 25.198 109.538 24.9337C109.388 24.6551 109.309 24.3434 109.309 24.0266C109.309 23.7098 109.388 23.398 109.538 23.1194C109.69 22.8593 109.912 22.6469 110.179 22.5065C110.463 22.3585 110.778 22.2812 111.098 22.2812C111.418 22.2813 111.734 22.3585 112.018 22.5065C112.283 22.6479 112.503 22.8601 112.655 23.1194C112.806 23.398 112.885 23.7098 112.885 24.0266C112.885 24.3434 112.806 24.6551 112.655 24.9337C112.504 25.1972 112.283 25.4144 112.018 25.562C111.734 25.71 111.418 25.7873 111.098 25.7873C110.778 25.7873 110.463 25.71 110.179 25.562Z" fill="#D9414A"/>
<path d="M114.503 24.594C114.472 24.8266 114.364 25.0422 114.197 25.207H116.127V22.8502H114.632L114.601 23.5152C114.59 23.8758 114.554 24.2352 114.494 24.591M117.28 25.2039V26.5493H116.707V25.7494H113.826V26.5493H113.234V25.207H113.415C113.636 25.207 113.789 25.0384 113.872 24.7381C113.969 24.3216 114.025 23.8966 114.04 23.4693L114.092 22.3047H116.765V25.207L117.28 25.2039Z" fill="#D9414A"/>
<path d="M119.809 25.1467C119.981 25.041 120.113 24.8816 120.185 24.6931V24.212H119.223C118.693 24.212 118.429 24.3897 118.429 24.7452C118.426 24.8251 118.443 24.9045 118.479 24.9762C118.514 25.0479 118.567 25.1096 118.632 25.1559C118.796 25.2658 118.992 25.3186 119.189 25.3061C119.405 25.3111 119.617 25.2559 119.802 25.1467M120.415 22.6183C120.549 22.7563 120.652 22.921 120.718 23.1017C120.783 23.2823 120.81 23.4748 120.795 23.6665V25.7474H120.204V25.2938C120.094 25.4575 119.938 25.5854 119.756 25.6616C119.539 25.7498 119.305 25.7926 119.07 25.7872C118.74 25.8035 118.415 25.7049 118.151 25.5083C118.038 25.422 117.948 25.3103 117.888 25.1825C117.827 25.0546 117.797 24.9143 117.801 24.7728C117.797 24.6336 117.825 24.4954 117.882 24.3685C117.94 24.2416 118.025 24.1294 118.132 24.0404C118.442 23.8314 118.814 23.7341 119.186 23.7645H120.176V23.6389C120.184 23.526 120.167 23.4129 120.126 23.3071C120.086 23.2014 120.024 23.1055 119.943 23.0259C119.749 22.8696 119.503 22.7929 119.254 22.8114C119.045 22.8101 118.838 22.8443 118.641 22.9125C118.461 22.9717 118.294 23.0631 118.147 23.1822L117.887 22.7133C118.076 22.5629 118.292 22.4514 118.524 22.3854C118.78 22.3071 119.045 22.2679 119.312 22.269C119.709 22.243 120.101 22.369 120.409 22.6214" fill="#D9414A"/>
</svg>
