<svg width="45" height="45" viewBox="0 0 45 45" fill="none" xmlns="http://www.w3.org/2000/svg">
<circle cx="22.5" cy="22.5" r="22.5" fill="white"/>
<path d="M20.9282 13.2144H14.821L16.916 15.3094C14.6625 17.0746 13.2139 19.8203 13.2139 22.9048C13.2139 27.9049 17.0196 32.016 21.8924 32.5001V28.9271C19.1558 28.443 17.071 25.9313 17.071 22.9048C17.071 20.8425 18.0391 19.0205 19.5216 17.915L21.8924 20.2858V14.1786C21.8924 13.6461 21.4607 13.2144 20.9282 13.2144Z" fill="#5FAF2D"/>
<path d="M32.4996 22.8096C32.4996 17.8095 28.6939 13.6984 23.821 13.2144V16.7874C26.5577 17.2714 28.6425 19.7831 28.6425 22.8096C28.6425 24.8719 27.6744 26.694 26.1919 27.7995L23.821 25.4286V31.5358C23.821 32.0683 24.2528 32.5001 24.7853 32.5001H30.8925L28.7974 30.405C31.051 28.6398 32.4996 25.8941 32.4996 22.8096Z" fill="#5FAF2D"/>
</svg>
