<svg viewBox="0 0 30 30" fill="none" xmlns="http://www.w3.org/2000/svg">
<path d="M24.2857 4.64062H16.7857L19.4515 7.3065L15.7142 11.0438L17.6912 13.0208C18.4219 13.7515 19.4859 13.7515 20.2166 13.0208L22.6912 10.5462L25.3571 13.2121V5.71205C25.3571 5.12033 24.8774 4.64062 24.2857 4.64062Z" fill="#5FAF2D"/>
<path d="M11.046 14.2835L13.023 12.3065C13.7537 11.5758 13.7537 10.5118 13.023 9.78111L10.5484 7.3065L13.2143 4.64062H5.71425C5.12252 4.64062 4.64282 5.12033 4.64282 5.71205V13.2121L7.3087 10.5462L11.046 14.2835Z" fill="#5FAF2D"/>
<path d="M12.3087 16.9777C11.578 16.247 10.514 16.247 9.78334 16.9777L7.3087 19.4523L4.64282 16.7865V24.2865C4.64282 24.8782 5.12252 25.3579 5.71425 25.3579H13.2143L10.5484 22.692L14.2857 18.9547L12.3087 16.9777Z" fill="#5FAF2D"/>
<path d="M18.954 15.7109L16.977 17.6879C16.2463 18.4186 16.2463 19.4826 16.977 20.2133L19.4516 22.6879L16.7857 25.3538H24.2857C24.8775 25.3538 25.3572 24.8741 25.3572 24.2824V16.7824L22.6913 19.4482L18.954 15.7109Z" fill="#5FAF2D"/>
</svg>
