<svg viewBox="0 0 302 122" fill="none" xmlns="http://www.w3.org/2000/svg">
<path d="M40.9005 16.3655V20.8403H39.2598V11.0703H41.6464C43.2871 11.0703 43.8838 11.8907 43.8838 13.2331V14.501C43.8838 15.5451 43.5109 16.1418 42.5413 16.3655L44.1075 20.8403H42.3922L40.9005 16.3655ZM40.9005 12.3382V15.396H41.4226C42.0193 15.396 42.243 15.0977 42.243 14.5756V13.1586C42.243 12.6365 42.0193 12.3382 41.4226 12.3382H40.9005Z" fill="#4B5366"/>
<path d="M45.002 11H48.9547V12.3425H46.6427V15.1765H48.2835V16.519H46.6427V19.5022H48.9547V20.8446H45.002V11Z" fill="#4B5366"/>
<path d="M49.9248 18.7528V17.4104H51.491V18.7528C51.491 19.2749 51.7147 19.6478 52.3113 19.6478C52.8334 19.6478 53.0571 19.2749 53.0571 18.7528V18.3799C53.0571 17.7833 52.8334 17.485 52.3113 16.9629L51.3418 15.9934C50.3723 15.0984 49.9994 14.5017 49.9994 13.383V13.0847C49.9994 11.8914 50.7452 10.9219 52.3113 10.9219C53.9521 10.9219 54.6234 11.7423 54.6234 13.1593V13.9797H53.1318V13.1593C53.1318 12.5626 52.908 12.3389 52.386 12.3389C51.9385 12.3389 51.6401 12.5626 51.6401 13.1593V13.383C51.6401 13.9051 51.9385 14.278 52.386 14.7255L53.4301 15.7696C54.325 16.6646 54.7725 17.2612 54.7725 18.3054V18.7528C54.7725 20.0953 54.0267 21.0648 52.386 21.0648C50.5214 20.9157 49.9248 20.0207 49.9248 18.7528Z" fill="#4B5366"/>
<path d="M55.668 11H58.1292C59.7699 11 60.3666 11.8204 60.3666 13.1628V15.2511C60.3666 16.5935 59.7699 17.4885 58.1292 17.4885H57.3087V20.8446H55.668V11V11ZM57.3087 12.3425V16.2206H57.9054C58.502 16.2206 58.7258 15.9223 58.7258 15.4002V13.1628C58.7258 12.6408 58.502 12.3425 57.9054 12.3425H57.3087Z" fill="#4B5366"/>
<path d="M61.3359 18.3054V13.5322C61.3359 11.966 62.0817 10.9219 63.7971 10.9219C65.5124 10.9219 66.3328 12.0406 66.3328 13.5322V18.3054C66.3328 19.797 65.587 20.9157 63.7971 20.9157C62.0817 20.9157 61.3359 19.797 61.3359 18.3054ZM64.6921 18.5291V13.2339C64.6921 12.6372 64.4683 12.1898 63.8716 12.1898C63.275 12.1898 63.0513 12.6372 63.0513 13.2339V18.5291C63.0513 19.1257 63.275 19.5732 63.8716 19.5732C64.4683 19.5732 64.6921 19.1257 64.6921 18.5291Z" fill="#4B5366"/>
<path d="M68.8682 14.6502V20.8403H67.4512V11.0703H69.0919L70.8819 16.6638V11.0703H72.2243V20.8403H70.8073L68.8682 14.6502Z" fill="#4B5366"/>
<path d="M73.2686 18.7528V17.4104H74.8347V18.7528C74.8347 19.2749 75.0585 19.6478 75.6551 19.6478C76.1772 19.6478 76.4009 19.2749 76.4009 18.7528V18.3799C76.4009 17.7833 76.1772 17.485 75.6551 16.9629L74.6856 15.9934C73.716 15.0984 73.3431 14.5017 73.3431 13.383V13.0847C73.3431 11.8914 74.0889 10.9219 75.6551 10.9219C77.2959 10.9219 77.9671 11.7423 77.9671 13.1593V13.9797H76.4755V13.1593C76.4755 12.5626 76.2518 12.3389 75.7297 12.3389C75.2822 12.3389 74.9839 12.5626 74.9839 13.1593V13.383C74.9839 13.9051 75.2822 14.278 75.7297 14.7255L76.7738 15.7696C77.6688 16.6646 78.1163 17.2612 78.1163 18.3054V18.7528C78.1163 20.0953 77.3705 21.0648 75.7297 21.0648C73.9398 20.9157 73.2686 20.0207 73.2686 18.7528Z" fill="#4B5366"/>
<path d="M79.0117 11H80.6525V20.77H79.0117V11Z" fill="#4B5366"/>
<path d="M81.7705 11H84.1571C85.7979 11 86.3199 11.7458 86.3199 13.1628V14.1324C86.3199 14.9528 86.0216 15.4748 85.3504 15.6986C86.1708 15.9223 86.5437 16.4444 86.5437 17.3393V18.6072C86.5437 20.0242 85.947 20.77 84.3063 20.77H81.7705V11V11ZM83.4113 15.1765H84.0079C84.53 15.1765 84.7537 14.8782 84.7537 14.3561V13.1628C84.7537 12.6408 84.53 12.3425 83.9334 12.3425H83.3367V15.1765H83.4113ZM83.4113 16.4444V19.5022H84.1571C84.6792 19.5022 84.9775 19.2039 84.9775 18.6818V17.1902C84.9775 16.6681 84.7537 16.3698 84.1571 16.3698H83.4113V16.4444Z" fill="#4B5366"/>
<path d="M87.5879 11H89.2286V19.4276H91.1677V20.77H87.5879V11V11Z" fill="#4B5366"/>
<path d="M92.0625 11H96.0153V12.3425H93.7032V15.1765H95.344V16.519H93.7032V19.5022H96.0153V20.8446H92.0625V11Z" fill="#4B5366"/>
<path d="M39.2598 32.696V27.9228C39.2598 26.3566 40.0056 25.3125 41.721 25.3125C43.5109 25.3125 44.0329 26.3566 44.0329 27.7737V28.967H42.5413V27.6991C42.5413 27.1024 42.3176 26.7295 41.721 26.7295C41.1243 26.7295 40.9005 27.177 40.9005 27.7737V33.0689C40.9005 33.6655 41.1243 34.113 41.721 34.113C42.3176 34.113 42.5413 33.7401 42.5413 33.1435V31.3535H44.0329V33.0689C44.0329 34.4859 43.4363 35.53 41.721 35.53C40.0056 35.3809 39.2598 34.1876 39.2598 32.696Z" fill="#4B5366"/>
<path d="M45.1514 32.696V27.9228C45.1514 26.3566 45.8972 25.3125 47.6125 25.3125C49.3279 25.3125 50.1483 26.4312 50.1483 27.9228V32.696C50.1483 34.1876 49.4024 35.3063 47.6125 35.3063C45.8972 35.3809 45.1514 34.1876 45.1514 32.696ZM48.4329 32.9943V27.6991C48.4329 27.1024 48.2092 26.655 47.6125 26.655C47.0159 26.655 46.7921 27.1024 46.7921 27.6991V32.9943C46.7921 33.5909 47.0159 34.0384 47.6125 34.0384C48.2092 33.9638 48.4329 33.5909 48.4329 32.9943Z" fill="#4B5366"/>
<path d="M52.6094 29.0408V35.231H51.1924V25.4609H52.8332L54.6231 31.0545V25.4609H55.9656V35.231H54.5485L52.6094 29.0408Z" fill="#4B5366"/>
<path d="M56.9355 33.1435V31.801H58.5018V33.1435C58.5018 33.6655 58.7255 34.0384 59.3221 34.0384C59.8442 34.0384 60.0679 33.6655 60.0679 33.1435V32.7705C60.0679 32.1739 59.8442 31.8756 59.3221 31.3535L58.3526 30.384C57.383 29.489 57.0102 28.8924 57.0102 27.7737V27.4753C57.0102 26.2821 57.7559 25.3125 59.3221 25.3125C60.9629 25.3125 61.6341 26.1329 61.6341 27.5499V28.3703H60.1425V27.5499C60.1425 26.9533 59.9188 26.7295 59.3967 26.7295C58.9492 26.7295 58.6509 26.9533 58.6509 27.5499V27.7737C58.6509 28.2957 58.9492 28.6686 59.3967 29.1161L60.4408 30.1602C61.3358 31.0552 61.7833 31.6518 61.7833 32.696V33.1435C61.7833 34.4859 61.0375 35.4555 59.3967 35.4555C57.6068 35.3809 56.9355 34.4113 56.9355 33.1435Z" fill="#4B5366"/>
<path d="M67.5261 25.4652V32.8487C67.5261 34.3403 66.8549 35.3844 65.2141 35.3844C63.4988 35.3844 62.7529 34.4149 62.7529 32.8487V25.4652H64.3937V32.9978C64.3937 33.5945 64.6175 33.9674 65.2141 33.9674C65.8108 33.9674 66.0345 33.5945 66.0345 32.9978V25.3906H67.5261V25.4652Z" fill="#4B5366"/>
<path d="M73.1194 28.8916L71.9261 35.231H71.1803L69.987 28.8916V35.231H68.6445V25.4609H70.5836L71.6278 30.9799L72.5973 25.4609H74.6855V35.231H73.1939V28.8916H73.1194Z" fill="#4B5366"/>
<path d="M75.7295 25.4609H78.1906C79.8314 25.4609 80.4281 26.2813 80.4281 27.6238V29.712C80.4281 31.0545 79.8314 31.9494 78.1906 31.9494H77.3703V35.3056H75.7295V25.4609V25.4609ZM77.3703 26.8034V30.6816H77.9669C78.5636 30.6816 78.7873 30.3833 78.7873 29.8612V27.6238C78.7873 27.1017 78.5636 26.8034 77.9669 26.8034H77.3703Z" fill="#4B5366"/>
<path d="M80.9502 25.4609H85.3505V26.8034H84.008V35.231H82.3672V26.8034H81.0248V25.4609H80.9502Z" fill="#4B5366"/>
<path d="M86.1709 25.4609H87.8117V35.231H86.1709V25.4609Z" fill="#4B5366"/>
<path d="M88.707 32.696V27.9228C88.707 26.3566 89.4528 25.3125 91.1682 25.3125C92.8835 25.3125 93.7039 26.4312 93.7039 27.9228V32.696C93.7039 34.1876 92.9581 35.3063 91.1682 35.3063C89.5274 35.3809 88.707 34.1876 88.707 32.696ZM92.0632 32.9943V27.6991C92.0632 27.1024 91.8394 26.655 91.2427 26.655C90.6461 26.655 90.4224 27.1024 90.4224 27.6991V32.9943C90.4224 33.5909 90.6461 34.0384 91.2427 34.0384C91.8394 33.9638 92.0632 33.5909 92.0632 32.9943Z" fill="#4B5366"/>
<path d="M96.0899 29.0408V35.231H94.6729V25.4609H96.3136L98.1035 31.0545V25.4609H99.446V35.231H98.029L96.0899 29.0408Z" fill="#4B5366"/>
<path d="M39.0352 49.6216L40.8997 39.8516H42.7642L44.6287 49.6216H42.9134L42.615 47.8317H40.8997L40.6014 49.6216H39.0352ZM41.1234 46.4892H42.4659L41.7946 42.5365L41.1234 46.4892Z" fill="#4B5366"/>
<path d="M46.7168 43.5096V49.6997H45.2998V39.9297H46.9406L48.7305 45.5232V39.9297H50.0729V49.6997H48.6559L46.7168 43.5096Z" fill="#4B5366"/>
<path d="M56.0395 42.4619V47.0113C56.0395 48.5029 55.4429 49.6216 53.6529 49.6216H51.1172V39.8516H53.6529C55.4429 39.8516 56.0395 40.9703 56.0395 42.4619ZM53.4292 48.2792C54.1004 48.2792 54.3987 47.9063 54.3987 47.3096V42.1636C54.3987 41.5669 54.175 41.194 53.4292 41.194H52.758V48.2792H53.4292V48.2792Z" fill="#4B5366"/>
<path d="M58.5752 39.8516H61.0363C62.6771 39.8516 63.2738 40.672 63.2738 42.0144V44.1026C63.2738 45.4451 62.6771 46.3401 61.0363 46.3401H60.216V49.6962H58.5752V39.8516V39.8516ZM60.216 41.194V45.0722H60.8126C61.4093 45.0722 61.633 44.7739 61.633 44.2518V42.0144C61.633 41.4923 61.4093 41.194 60.8126 41.194H60.216Z" fill="#4B5366"/>
<path d="M65.8843 45.1468V49.6216H64.1689V39.8516H66.5555C68.1963 39.8516 68.7929 40.672 68.7929 42.0144V43.2823C68.7929 44.3264 68.4201 44.923 67.4505 45.1468L69.0167 49.6216H67.3013L65.8843 45.1468ZM65.8843 41.194V44.2518H66.4064C67.003 44.2518 67.2267 43.9535 67.2267 43.4314V41.9398C67.2267 41.4178 67.003 41.1194 66.4064 41.1194H65.8843V41.194Z" fill="#4B5366"/>
<path d="M69.8369 47.0866V42.3134C69.8369 40.7473 70.5828 39.7031 72.2981 39.7031C74.0135 39.7031 74.8338 40.8218 74.8338 42.3134V47.0866C74.8338 48.5782 74.088 49.6969 72.2981 49.6969C70.5828 49.7715 69.8369 48.6528 69.8369 47.0866ZM73.1185 47.3849V42.0897C73.1185 41.4931 72.8948 41.0456 72.2981 41.0456C71.7015 41.0456 71.4777 41.4931 71.4777 42.0897V47.3849C71.4777 47.9816 71.7015 48.429 72.2981 48.429C72.8948 48.3545 73.1185 47.9816 73.1185 47.3849Z" fill="#4B5366"/>
<path d="M80.7251 42.4619V47.0113C80.7251 48.5029 80.1284 49.6216 78.3385 49.6216H75.8027V39.8516H78.3385C80.1284 39.8516 80.7251 40.9703 80.7251 42.4619ZM78.1148 48.2792C78.786 48.2792 79.0843 47.9063 79.0843 47.3096V42.1636C79.0843 41.5669 78.8606 41.194 78.1148 41.194H77.4435V48.2792H78.1148V48.2792Z" fill="#4B5366"/>
<path d="M86.4685 39.8516V47.235C86.4685 48.7266 85.7972 49.7708 84.1565 49.7708C82.4411 49.7708 81.6953 48.8012 81.6953 47.235V39.8516H83.3361V47.4588C83.3361 48.0554 83.5598 48.4283 84.1565 48.4283C84.7531 48.4283 84.9769 48.0554 84.9769 47.4588V39.8516H86.4685Z" fill="#4B5366"/>
<path d="M87.5127 47.0866V42.3134C87.5127 40.7473 88.2585 39.7031 89.9738 39.7031C91.7638 39.7031 92.2859 40.7473 92.2859 42.1643V43.3576H90.7943V42.0897C90.7943 41.4931 90.5705 41.1201 89.9738 41.1201C89.3772 41.1201 89.1535 41.5676 89.1535 42.1643V47.4595C89.1535 48.0561 89.3772 48.5036 89.9738 48.5036C90.5705 48.5036 90.7943 48.1307 90.7943 47.5341V45.7441H92.2859V47.4595C92.2859 48.8765 91.6892 49.9207 89.9738 49.9207C88.1839 49.7715 87.5127 48.6528 87.5127 47.0866Z" fill="#4B5366"/>
<path d="M93.0312 39.8516H97.4315V41.194H96.089V49.6216H94.4483V41.194H93.1058V39.8516H93.0312Z" fill="#4B5366"/>
<path d="M98.1777 39.8516H99.8186V49.6216H98.1777V39.8516V39.8516Z" fill="#4B5366"/>
<path d="M100.788 47.0866V42.3134C100.788 40.7473 101.534 39.7031 103.249 39.7031C104.965 39.7031 105.785 40.8218 105.785 42.3134V47.0866C105.785 48.5782 105.039 49.6969 103.249 49.6969C101.534 49.7715 100.788 48.6528 100.788 47.0866ZM104.144 47.3849V42.0897C104.144 41.4931 103.92 41.0456 103.324 41.0456C102.727 41.0456 102.503 41.4931 102.503 42.0897V47.3849C102.503 47.9816 102.727 48.429 103.324 48.429C103.846 48.3545 104.144 47.9816 104.144 47.3849Z" fill="#4B5366"/>
<path d="M108.097 43.5096V49.6997H106.68V39.9297H108.32L110.11 45.5232V39.9297H111.453V49.6997H110.036L108.097 43.5096Z" fill="#4B5366"/>
<path d="M181 1H121V61H181V1Z" stroke="#ABB1B9" stroke-miterlimit="10"/>
<path d="M127.152 7.67202H130.285L127.6 18.1133H129.614L132.261 7.89576V6.03125H127.152V7.67202Z" fill="#ABB1B9"/>
<path d="M138.004 10.9163L138.936 6.03125H139.868L140.801 10.9163H139.943L139.794 10.0213H138.936L138.787 10.9163H138.004ZM139.048 9.35008H139.719L139.384 7.3737L139.048 9.35008Z" fill="#ABB1B9"/>
<path d="M141.137 6H143.076V6.67123H141.957V8.08826H142.777V8.75948H141.957V10.9223H141.137V6Z" fill="#ABB1B9"/>
<path d="M143.374 6H145.313V6.67123H144.194V8.08826H145.015V8.75948H144.194V10.9223H143.374V6Z" fill="#ABB1B9"/>
<path d="M145.574 9.65268V7.2661C145.574 6.483 145.947 5.96094 146.805 5.96094C147.662 5.96094 148.073 6.52029 148.073 7.2661V9.65268C148.073 10.3985 147.7 10.9578 146.805 10.9578C145.947 10.9578 145.574 10.3985 145.574 9.65268ZM147.215 9.76455V7.11694C147.215 6.81862 147.103 6.59488 146.805 6.59488C146.506 6.59488 146.395 6.81862 146.395 7.11694V9.76455C146.395 10.0629 146.506 10.2866 146.805 10.2866C147.103 10.2866 147.215 10.0629 147.215 9.76455Z" fill="#ABB1B9"/>
<path d="M149.303 8.67885V10.9163H148.482V6.03125H149.676C150.496 6.03125 150.794 6.44144 150.794 7.11266V7.7466C150.794 8.26866 150.608 8.56698 150.123 8.67885L150.906 10.9163H150.049L149.303 8.67885ZM149.303 6.66518V8.19408H149.564C149.862 8.19408 149.974 8.04492 149.974 7.78389V7.07537C149.974 6.81434 149.862 6.66518 149.564 6.66518H149.303Z" fill="#ABB1B9"/>
<path d="M153.703 7.33817V9.61287C153.703 10.3587 153.405 10.918 152.51 10.918H151.242V6.03301H152.51C153.405 5.99572 153.703 6.55507 153.703 7.33817ZM152.398 10.2468C152.734 10.2468 152.883 10.0604 152.883 9.76203V7.189C152.883 6.89068 152.771 6.70423 152.398 6.70423H152.063V10.2468H152.398V10.2468Z" fill="#ABB1B9"/>
<path d="M153.89 10.9163L154.822 6.03125H155.754L156.686 10.9163H155.866L155.717 10.0213H154.859L154.71 10.9163H153.89ZM154.934 9.35008H155.605L155.269 7.3737L154.934 9.35008Z" fill="#ABB1B9"/>
<path d="M157.021 6H158.215C159.035 6 159.296 6.3729 159.296 7.08141V7.56619C159.296 7.97638 159.147 8.23742 158.811 8.34929C159.222 8.46116 159.408 8.72219 159.408 9.16967V9.8036C159.408 10.5121 159.11 10.885 158.289 10.885H157.021V6ZM157.842 8.08826H158.14C158.401 8.08826 158.513 7.93909 158.513 7.67806V7.08141C158.513 6.82038 158.401 6.67123 158.103 6.67123H157.805V8.08826H157.842ZM157.842 8.72219V10.2511H158.215C158.476 10.2511 158.625 10.1019 158.625 9.8409V9.09509C158.625 8.83406 158.513 8.6849 158.215 8.6849H157.842V8.72219Z" fill="#ABB1B9"/>
<path d="M159.781 6H160.602V10.2138H161.571V10.885H159.781V6Z" fill="#ABB1B9"/>
<path d="M161.944 6H163.921V6.67123H162.765V8.08826H163.585V8.75948H162.765V10.2511H163.921V10.9223H161.944V6Z" fill="#ABB1B9"/>
<path d="M164.928 10.9163L165.86 6.03125H166.792L167.725 10.9163H166.867L166.718 10.0213H165.86L165.711 10.9163H164.928ZM165.935 9.35008H166.606L166.27 7.3737L165.935 9.35008Z" fill="#ABB1B9"/>
<path d="M168.694 7.82118V10.9163H167.985V6.03125H168.806L169.701 8.82802V6.03125H170.372V10.9163H169.663L168.694 7.82118Z" fill="#ABB1B9"/>
<path d="M173.318 7.33817V9.61287C173.318 10.3587 173.019 10.918 172.124 10.918H170.856V6.03301H172.124C172.982 5.99572 173.318 6.55507 173.318 7.33817ZM172.012 10.2468C172.348 10.2468 172.497 10.0604 172.497 9.76203V7.189C172.497 6.89068 172.385 6.70423 172.012 6.70423H171.677V10.2468H172.012V10.2468Z" fill="#ABB1B9"/>
<path d="M138.154 16.8498V14.5005C138.154 13.7547 138.527 13.1953 139.385 13.1953C140.28 13.1953 140.541 13.7174 140.541 14.4259V14.9852H139.795V14.3513C139.795 14.053 139.683 13.8665 139.385 13.8665C139.087 13.8665 138.975 14.0903 138.975 14.3886V16.9989C138.975 17.2972 139.087 17.521 139.385 17.521C139.683 17.521 139.795 17.3345 139.795 17.0362V16.1412H140.541V16.9989C140.541 17.7074 140.243 18.2295 139.385 18.2295C138.49 18.1549 138.154 17.5956 138.154 16.8498Z" fill="#ABB1B9"/>
<path d="M141.025 13.2344H141.846V17.4482H142.815V18.1194H141.025V13.2344V13.2344Z" fill="#ABB1B9"/>
<path d="M143.301 13.2344H145.24V13.9056H144.121V15.2853H144.942V15.9566H144.121V17.4482H145.24V18.1194H143.301V13.2344Z" fill="#ABB1B9"/>
<path d="M145.612 18.1194L146.545 13.2344H147.477L148.409 18.1194H147.551L147.402 17.2244H146.545L146.395 18.1194H145.612ZM146.656 16.5532H147.328L146.992 14.5768L146.656 16.5532Z" fill="#ABB1B9"/>
<path d="M149.528 15.0616V18.1194H148.819V13.2344H149.64L150.535 16.0311V13.2344H151.206V18.1194H150.497L149.528 15.0616Z" fill="#ABB1B9"/>
<path d="M153.406 13.2344H155.345V13.9056H154.227V15.2853H155.047V15.9566H154.227V17.4482H155.345V18.1194H153.406V13.2344Z" fill="#ABB1B9"/>
<path d="M156.539 15.0616V18.1194H155.83V13.2344H156.65L157.545 16.0311V13.2344H158.217V18.1194H157.508L156.539 15.0616Z" fill="#ABB1B9"/>
<path d="M158.738 13.2344H160.677V13.9056H159.559V15.2853H160.379V15.9566H159.559V17.4482H160.677V18.1194H158.738V13.2344Z" fill="#ABB1B9"/>
<path d="M162.02 15.882V18.1194H161.199V13.2344H162.393C163.213 13.2344 163.511 13.6446 163.511 14.3158V14.9497C163.511 15.4718 163.325 15.7701 162.84 15.882L163.623 18.0821H162.765L162.02 15.882ZM162.02 13.9056V15.4345H162.281C162.579 15.4345 162.691 15.2853 162.691 15.0243V14.3158C162.691 14.0548 162.579 13.9056 162.281 13.9056H162.02Z" fill="#ABB1B9"/>
<path d="M165.264 15.5091H166.42V18.1194H165.823V17.5973C165.711 17.9702 165.488 18.194 165.04 18.194C164.332 18.194 163.996 17.6346 163.996 16.8888V14.5395C163.996 13.7937 164.369 13.2344 165.227 13.2344C166.122 13.2344 166.383 13.7564 166.383 14.465V14.9124H165.637V14.4277C165.637 14.1293 165.525 13.9429 165.227 13.9429C164.928 13.9429 164.816 14.1666 164.816 14.465V17.0753C164.816 17.3736 164.928 17.5973 165.227 17.5973C165.488 17.5973 165.637 17.4482 165.637 17.1126V16.2549H165.264V15.5091Z" fill="#ABB1B9"/>
<path d="M168.583 16.2549V18.1194H167.762V16.2549L166.83 13.2344H167.688L168.173 15.0989L168.657 13.2344H169.44L168.583 16.2549Z" fill="#ABB1B9"/>
<path d="M151.092 54.0974C151.502 54.0974 151.801 53.7618 151.801 53.4262V49.5853C151.801 49.2497 151.465 48.9141 151.092 48.9141C150.682 48.9141 150.384 49.287 150.384 49.5853V53.4262C150.346 53.7245 150.682 54.0974 151.092 54.0974Z" fill="#ABB1B9"/>
<path d="M151.017 30.0469C146.17 30.0469 142.217 33.9996 142.217 38.8474C142.217 43.6951 146.17 47.6479 151.017 47.6479C155.865 47.6479 159.818 43.6951 159.818 38.8474C159.78 33.9996 155.865 30.0469 151.017 30.0469ZM150.346 33.5522C150.346 33.2538 150.644 32.9555 151.017 32.9555C151.39 32.9555 151.651 33.2911 151.651 33.5522V36.5727C151.651 36.871 151.353 37.1693 151.017 37.1693C150.644 37.1693 150.346 36.8337 150.346 36.5727V33.5522ZM151.017 43.3595C148.482 43.3595 146.431 41.3085 146.431 38.7728C146.431 36.7218 147.773 34.9692 149.638 34.4098V36.1252C148.668 36.61 147.997 37.6168 147.997 38.7728C147.997 40.4136 149.339 41.756 150.98 41.756C152.621 41.756 153.963 40.4136 153.963 38.7728C153.963 37.6168 153.292 36.61 152.322 36.0879V34.3725C154.187 34.9319 155.529 36.6845 155.529 38.7355C155.567 41.3085 153.516 43.3595 151.017 43.3595Z" fill="#ABB1B9"/>
<path d="M140.912 38.771C140.912 38.3608 140.576 38.0625 140.241 38.0625H136.363C136.027 38.0625 135.691 38.3981 135.691 38.771C135.691 39.1812 136.064 39.4795 136.363 39.4795H140.204C140.539 39.5168 140.912 39.1812 140.912 38.771Z" fill="#ABB1B9"/>
<path d="M166.306 38.771C166.306 38.3608 165.971 38.0625 165.635 38.0625H161.794C161.459 38.0625 161.123 38.3981 161.123 38.771C161.123 39.1812 161.496 39.4795 161.794 39.4795H165.635C165.971 39.5168 166.306 39.1812 166.306 38.771Z" fill="#ABB1B9"/>
<path d="M151.018 28.6677C151.428 28.6677 151.727 28.3321 151.727 27.9965V24.1556C151.727 23.82 151.391 23.4844 151.018 23.4844C150.608 23.4844 150.309 23.8573 150.309 24.1556V27.9965C150.272 28.3321 150.608 28.6677 151.018 28.6677Z" fill="#ABB1B9"/>
<path d="M142.255 33.7793C142.441 33.4437 142.292 32.9589 142.031 32.8098L138.675 30.908C138.376 30.7588 137.929 30.8334 137.742 31.2063C137.556 31.5419 137.705 32.0267 137.966 32.1758L141.322 34.0776C141.583 34.2268 142.031 34.1149 142.255 33.7793Z" fill="#ABB1B9"/>
<path d="M164.293 46.3809C164.479 46.0453 164.33 45.5605 164.069 45.4113L160.713 43.5095C160.415 43.3604 159.967 43.4349 159.781 43.8078C159.594 44.1435 159.743 44.6282 160.004 44.7774L163.36 46.6792C163.621 46.8284 164.106 46.7165 164.293 46.3809Z" fill="#ABB1B9"/>
<path d="M156.015 30.0095C156.35 30.1959 156.798 30.0468 156.984 29.7857L158.886 26.4296C159.035 26.1313 158.96 25.6838 158.588 25.4974C158.252 25.3109 157.767 25.4601 157.618 25.7211L155.716 29.0772C155.567 29.3383 155.679 29.823 156.015 30.0095Z" fill="#ABB1B9"/>
<path d="M143.41 52.0486C143.746 52.235 144.193 52.0858 144.38 51.8248L146.282 48.4687C146.431 48.1704 146.356 47.7229 145.983 47.5364C145.648 47.35 145.163 47.4991 145.014 47.7602L143.112 51.1163C142.963 51.4146 143.037 51.8621 143.41 52.0486Z" fill="#ABB1B9"/>
<path d="M145.983 30.0105C146.319 29.824 146.431 29.3392 146.281 29.0782L144.38 25.7221C144.23 25.4238 143.746 25.2746 143.41 25.4984C143.074 25.6848 142.963 26.1696 143.112 26.4679L145.014 29.824C145.163 30.085 145.61 30.2342 145.983 30.0105Z" fill="#ABB1B9"/>
<path d="M158.625 52.0495C158.96 51.8631 159.072 51.3783 158.923 51.1173L157.021 47.7612C156.872 47.4628 156.387 47.3137 156.052 47.5374C155.716 47.7239 155.604 48.2086 155.753 48.507L157.655 51.8631C157.842 52.0868 158.289 52.236 158.625 52.0495Z" fill="#ABB1B9"/>
<path d="M159.744 33.7409C159.93 34.0765 160.415 34.1883 160.676 34.0392L164.032 32.1374C164.33 31.9882 164.479 31.5034 164.256 31.1678C164.069 30.8322 163.585 30.7204 163.286 30.8695L159.93 32.7713C159.706 32.9578 159.557 33.4052 159.744 33.7409Z" fill="#ABB1B9"/>
<path d="M137.742 46.4205C137.928 46.7562 138.413 46.868 138.674 46.7189L142.03 44.8171C142.329 44.6679 142.478 44.1831 142.254 43.8475C142.068 43.5119 141.583 43.4 141.285 43.5492L137.928 45.451C137.667 45.6002 137.518 46.0849 137.742 46.4205Z" fill="#ABB1B9"/>
<path d="M241 1H181V61H241V1Z" stroke="#ABB1B9" stroke-miterlimit="10"/>
<path d="M187.383 6.53125H188.294V17.6133H187.243V8.86531V7.63569L186.385 8.51637L185.789 9.12827V8.37985L187.383 6.53125Z" fill="#ABB1B9" stroke="#ABB1B9"/>
<path d="M192.04 6.53125H192.917V17.6133H191.904V8.86531V8.36531H191.404H191.366H191.155L191.008 8.51637L190.412 9.12826V8.38264L192.04 6.53125Z" fill="#ABB1B9" stroke="#ABB1B9"/>
<path d="M190.882 46.6771H190.957H199.906C200.018 46.6771 200.13 46.5652 200.13 46.4533C200.13 46.3787 200.093 46.3414 200.056 46.3041L195.581 40.4869L195.544 40.4496C195.506 40.4123 195.432 40.375 195.394 40.375C195.357 40.375 195.282 40.4123 195.245 40.4496L195.208 40.4869L195.171 40.5242L190.808 46.2669L190.733 46.3414C190.696 46.3787 190.696 46.416 190.696 46.4533C190.659 46.5652 190.77 46.6771 190.882 46.6771Z" fill="#ABB1B9"/>
<path d="M199.906 47.5H190.845C190.733 47.5 190.621 47.6119 190.621 47.7237V54.8089C190.621 54.9208 190.733 55.0326 190.845 55.0326H193.753V50.5578C193.753 50.4459 193.865 50.3341 193.977 50.3341H196.662C196.774 50.3341 196.886 50.4459 196.886 50.5578V54.9953H199.869C199.981 54.9953 200.093 54.8835 200.093 54.7716V47.6865C200.093 47.5746 200.018 47.5 199.906 47.5Z" fill="#ABB1B9"/>
<path d="M231.156 45.6328H222.206C222.094 45.6328 221.982 45.7447 221.982 45.8566V54.8808C221.982 54.9927 222.094 55.1045 222.206 55.1045H231.156C231.268 55.1045 231.38 54.9927 231.38 54.8808V45.8566C231.38 45.7447 231.268 45.6328 231.156 45.6328ZM226.233 51.5247C226.233 51.6365 226.122 51.7484 226.01 51.7484H223.325C223.213 51.7484 223.101 51.6365 223.101 51.5247V49.8839C223.101 49.772 223.213 49.6602 223.325 49.6602H226.01C226.122 49.6602 226.233 49.772 226.233 49.8839V51.5247ZM226.233 48.5415C226.233 48.6533 226.122 48.7652 226.01 48.7652H223.325C223.213 48.7652 223.101 48.6533 223.101 48.5415V46.9007C223.101 46.7888 223.213 46.6769 223.325 46.6769H226.01C226.122 46.6769 226.233 46.7888 226.233 46.9007V48.5415ZM230.335 51.5247C230.335 51.6365 230.224 51.7484 230.112 51.7484H227.427C227.315 51.7484 227.203 51.6365 227.203 51.5247V49.8839C227.203 49.772 227.315 49.6602 227.427 49.6602H230.112C230.224 49.6602 230.335 49.772 230.335 49.8839V51.5247V51.5247ZM230.335 48.5415C230.335 48.6533 230.224 48.7652 230.112 48.7652H227.427C227.315 48.7652 227.203 48.6533 227.203 48.5415V46.9007C227.203 46.7888 227.315 46.6769 227.427 46.6769H230.112C230.224 46.6769 230.335 46.7888 230.335 46.9007V48.5415V48.5415Z" fill="#ABB1B9"/>
<path d="M210.347 24.6406H201.584C201.472 24.6406 201.36 24.7525 201.36 24.8644V54.8084C201.36 54.9203 201.472 55.0322 201.584 55.0322H210.347C210.459 55.0322 210.571 54.9203 210.571 54.8084V24.8644C210.571 24.7525 210.459 24.6406 210.347 24.6406ZM205.127 51.6015C205.127 51.676 205.089 51.7133 205.015 51.7133H203.001C202.927 51.7133 202.889 51.676 202.889 51.6015V49.3641C202.889 49.2895 202.927 49.2522 203.001 49.2522H205.015C205.089 49.2522 205.127 49.2895 205.127 49.3641V51.6015ZM205.127 46.4927C205.127 46.5673 205.089 46.6046 205.015 46.6046H203.001C202.927 46.6046 202.889 46.5673 202.889 46.4927V44.2553C202.889 44.1807 202.927 44.1434 203.001 44.1434H205.015C205.089 44.1434 205.127 44.1807 205.127 44.2553V46.4927ZM205.127 41.3467C205.127 41.4212 205.089 41.4585 205.015 41.4585H203.001C202.927 41.4585 202.889 41.4212 202.889 41.3467V39.1092C202.889 39.0347 202.927 38.9974 203.001 38.9974H205.015C205.089 38.9974 205.127 39.0347 205.127 39.1092V41.3467ZM205.127 36.2006C205.127 36.2752 205.089 36.3125 205.015 36.3125H203.001C202.927 36.3125 202.889 36.2752 202.889 36.2006V33.9632C202.889 33.8886 202.927 33.8513 203.001 33.8513H205.015C205.089 33.8513 205.127 33.8886 205.127 33.9632V36.2006ZM205.127 31.0918C205.127 31.1664 205.089 31.2037 205.015 31.2037H203.001C202.927 31.2037 202.889 31.1664 202.889 31.0918V28.8544C202.889 28.7798 202.927 28.7426 203.001 28.7426H205.015C205.089 28.7426 205.127 28.7798 205.127 28.8544V31.0918ZM209.042 51.6015C209.042 51.676 209.005 51.7133 208.93 51.7133H206.917C206.842 51.7133 206.805 51.676 206.805 51.6015V49.3641C206.805 49.2895 206.842 49.2522 206.917 49.2522H208.93C209.005 49.2522 209.042 49.2895 209.042 49.3641V51.6015ZM209.042 46.4927C209.042 46.5673 209.005 46.6046 208.93 46.6046H206.917C206.842 46.6046 206.805 46.5673 206.805 46.4927V44.2553C206.805 44.1807 206.842 44.1434 206.917 44.1434H208.93C209.005 44.1434 209.042 44.1807 209.042 44.2553V46.4927ZM209.042 41.3467C209.042 41.4212 209.005 41.4585 208.93 41.4585H206.917C206.842 41.4585 206.805 41.4212 206.805 41.3467V39.1092C206.805 39.0347 206.842 38.9974 206.917 38.9974H208.93C209.005 38.9974 209.042 39.0347 209.042 39.1092V41.3467ZM209.042 36.2006C209.042 36.2752 209.005 36.3125 208.93 36.3125H206.917C206.842 36.3125 206.805 36.2752 206.805 36.2006V33.9632C206.805 33.8886 206.842 33.8513 206.917 33.8513H208.93C209.005 33.8513 209.042 33.8886 209.042 33.9632V36.2006ZM209.042 31.0918C209.042 31.1664 209.005 31.2037 208.93 31.2037H206.917C206.842 31.2037 206.805 31.1664 206.805 31.0918V28.8544C206.805 28.7798 206.842 28.7426 206.917 28.7426H208.93C209.005 28.7426 209.042 28.7798 209.042 28.8544V31.0918Z" fill="#ABB1B9"/>
<path d="M231.342 44.742C231.342 44.8539 231.268 44.9285 231.156 44.9285H222.132C222.02 44.9285 221.945 44.8539 221.945 44.742V42.9521C221.945 42.8402 222.02 42.7656 222.132 42.7656H231.156C231.268 42.7656 231.342 42.8402 231.342 42.9521V44.742Z" fill="#ABB1B9"/>
<path d="M220.901 30.3054C220.863 30.1935 220.789 30.1562 220.677 30.1562C220.64 30.1562 220.602 30.1563 220.565 30.1935L220.491 30.2681L211.877 41.1942L211.839 41.2315C211.802 41.2687 211.765 41.3433 211.765 41.4179V54.8424C211.765 54.9543 211.877 55.0661 211.988 55.0661H220.714C220.826 55.0661 220.938 54.9543 220.938 54.8424V30.38C220.938 30.38 220.938 30.3427 220.901 30.3054ZM217.284 36.2346L217.358 36.16C217.955 35.4142 218.924 34.1836 219.409 33.587L219.484 33.5124C219.521 33.4751 219.596 33.4378 219.67 33.4378C219.782 33.4378 219.894 33.5124 219.894 33.6242V33.7361V33.8107V36.3837C219.894 36.5329 219.782 36.6075 219.67 36.6448H217.619H217.507C217.358 36.6448 217.284 36.5329 217.284 36.3837C217.246 36.3464 217.246 36.2719 217.284 36.2346ZM215.941 51.5236C215.941 51.6354 215.829 51.7473 215.717 51.7473H213.107C212.995 51.7473 212.883 51.6354 212.883 51.5236V49.8828C212.883 49.7709 212.995 49.6591 213.107 49.6591H215.717C215.829 49.6591 215.941 49.7709 215.941 49.8828V51.5236ZM215.941 48.5031C215.941 48.6149 215.829 48.7268 215.717 48.7268H213.107C212.995 48.7268 212.883 48.6149 212.883 48.5031V46.8623C212.883 46.7504 212.995 46.6385 213.107 46.6385H215.717C215.829 46.6385 215.941 46.7504 215.941 46.8623V48.5031ZM215.941 45.4825C215.941 45.5944 215.829 45.7063 215.717 45.7063H213.107C212.995 45.7063 212.883 45.5944 212.883 45.4825V43.8418C212.883 43.7299 212.995 43.618 213.107 43.618H215.717C215.829 43.618 215.941 43.7299 215.941 43.8418V45.4825ZM215.941 38.8822V38.9568V42.462C215.941 42.5739 215.829 42.6858 215.717 42.6858H213.107C212.995 42.6858 212.883 42.5739 212.883 42.462V42.0146C212.883 41.9773 212.883 41.9773 212.883 41.94C212.883 41.94 212.883 41.94 212.883 41.9027C212.883 41.9027 212.883 41.8654 212.921 41.8654C212.921 41.8654 212.921 41.8281 212.958 41.8281C213.294 41.3433 214.785 39.4788 215.419 38.733L215.494 38.6584C215.531 38.6211 215.606 38.5838 215.68 38.5838C215.792 38.5838 215.904 38.6584 215.904 38.7703V38.8822H215.941ZM219.931 51.5236C219.931 51.6354 219.819 51.7473 219.707 51.7473H217.097C216.985 51.7473 216.873 51.6354 216.873 51.5236V49.8828C216.873 49.7709 216.985 49.6591 217.097 49.6591H219.707C219.819 49.6591 219.931 49.7709 219.931 49.8828V51.5236ZM219.931 48.5031C219.931 48.6149 219.819 48.7268 219.707 48.7268H217.097C216.985 48.7268 216.873 48.6149 216.873 48.5031V46.8623C216.873 46.7504 216.985 46.6385 217.097 46.6385H219.707C219.819 46.6385 219.931 46.7504 219.931 46.8623V48.5031ZM219.931 45.4825C219.931 45.5944 219.819 45.7063 219.707 45.7063H217.097C216.985 45.7063 216.873 45.5944 216.873 45.4825V43.8418C216.873 43.7299 216.985 43.618 217.097 43.618H219.707C219.819 43.618 219.931 43.7299 219.931 43.8418V45.4825ZM219.931 42.462C219.931 42.5739 219.819 42.6858 219.707 42.6858H217.097C216.985 42.6858 216.873 42.5739 216.873 42.462V40.8586C216.873 40.7467 216.985 40.6348 217.097 40.6348H219.707C219.819 40.6348 219.931 40.7467 219.931 40.8586V42.462ZM219.931 39.4415C219.931 39.5534 219.819 39.6653 219.707 39.6653H217.097C216.985 39.6653 216.873 39.5534 216.873 39.4415V37.8008C216.873 37.6889 216.985 37.577 217.097 37.577H219.707C219.819 37.577 219.931 37.6889 219.931 37.8008V39.4415Z" fill="#ABB1B9"/>
<path d="M197.371 9.87641V9.20519H198.154V9.87641C198.154 10.1374 198.266 10.3239 198.564 10.3239C198.825 10.3239 198.937 10.1374 198.937 9.87641V9.68996C198.937 9.39164 198.825 9.24248 198.564 8.98145L198.08 8.49668C197.595 8.04919 197.408 7.75087 197.408 7.19152V7.04236C197.408 6.44571 197.781 5.96094 198.564 5.96094C199.385 5.96094 199.72 6.37113 199.72 7.07964V7.48984H198.975V7.07964C198.975 6.78132 198.863 6.66946 198.602 6.66946C198.378 6.66946 198.229 6.78132 198.229 7.07964V7.19152C198.229 7.45255 198.378 7.639 198.602 7.86274L199.124 8.3848C199.571 8.83229 199.795 9.13061 199.795 9.65268V9.87641C199.795 10.5476 199.422 11.0324 198.602 11.0324C197.781 11.0324 197.371 10.5103 197.371 9.87641Z" fill="#ABB1B9"/>
<path d="M202.517 6V9.69173C202.517 10.4375 202.182 10.9596 201.361 10.9596C200.504 10.9596 200.131 10.4748 200.131 9.69173V6H200.951V9.8036C200.951 10.1019 201.063 10.2884 201.361 10.2884C201.66 10.2884 201.772 10.1019 201.772 9.8036V6H202.517Z" fill="#ABB1B9"/>
<path d="M202.928 9.87641V9.20519H203.711V9.87641C203.711 10.1374 203.823 10.3239 204.121 10.3239C204.382 10.3239 204.494 10.1374 204.494 9.87641V9.68996C204.494 9.39164 204.382 9.24248 204.121 8.98145L203.636 8.49668C203.151 8.04919 202.965 7.75087 202.965 7.19152V7.04236C202.965 6.44571 203.301 5.96094 204.121 5.96094C204.941 5.96094 205.277 6.37113 205.277 7.07964V7.48984H204.531V7.07964C204.531 6.78132 204.419 6.66946 204.158 6.66946C203.935 6.66946 203.785 6.78132 203.785 7.07964V7.19152C203.785 7.45255 203.935 7.639 204.158 7.86274L204.68 8.3848C205.128 8.83229 205.352 9.13061 205.352 9.65268V9.87641C205.352 10.5476 204.979 11.0324 204.158 11.0324C203.263 10.9578 202.928 10.5103 202.928 9.87641Z" fill="#ABB1B9"/>
<path d="M205.5 6H207.7V6.67123H207.029V10.885H206.171V6.67123H205.5V6Z" fill="#ABB1B9"/>
<path d="M207.514 10.9163L208.446 6.03125H209.378L210.31 10.9163H209.453L209.304 10.0213H208.446L208.297 10.9163H207.514ZM208.558 9.35008H209.229L208.893 7.3737L208.558 9.35008Z" fill="#ABB1B9"/>
<path d="M210.646 6H211.467V10.885H210.646V6Z" fill="#ABB1B9"/>
<path d="M212.66 7.82118V10.9163H211.951V6.03125H212.772L213.667 8.82802V6.03125H214.338V10.9163H213.629L212.66 7.82118Z" fill="#ABB1B9"/>
<path d="M214.6 10.9163L215.532 6.03125H216.464L217.396 10.9163H216.539L216.39 10.0213H215.532L215.383 10.9163H214.6ZM215.644 9.35008H216.315L215.979 7.3737L215.644 9.35008Z" fill="#ABB1B9"/>
<path d="M217.657 6H218.851C219.671 6 219.932 6.3729 219.932 7.08141V7.56619C219.932 7.97638 219.783 8.23742 219.447 8.34929C219.857 8.46116 220.044 8.72219 220.044 9.16967V9.8036C220.044 10.5121 219.745 10.885 218.925 10.885H217.657V6V6ZM218.478 8.08826H218.776C219.037 8.08826 219.149 7.93909 219.149 7.67806V7.08141C219.149 6.82038 219.037 6.67123 218.739 6.67123H218.478V8.08826ZM218.478 8.72219V10.2511H218.851C219.112 10.2511 219.261 10.1019 219.261 9.8409V9.09509C219.261 8.83406 219.149 8.6849 218.851 8.6849H218.478V8.72219Z" fill="#ABB1B9"/>
<path d="M220.416 6H221.236V10.2138H222.206V10.885H220.416V6V6Z" fill="#ABB1B9"/>
<path d="M222.542 6H224.518V6.67123H223.362V8.08826H224.183V8.75948H223.362V10.2511H224.518V10.9223H222.542V6Z" fill="#ABB1B9"/>
<path d="M225.898 9.65268V7.2661C225.898 6.483 226.271 5.96094 227.129 5.96094C228.024 5.96094 228.285 6.483 228.285 7.19152V7.78816H227.539V7.15423C227.539 6.85591 227.427 6.66946 227.129 6.66946C226.831 6.66946 226.719 6.89319 226.719 7.19152V9.83913C226.719 10.1374 226.831 10.3612 227.129 10.3612C227.427 10.3612 227.539 10.1747 227.539 9.87641V8.98145H228.285V9.83913C228.285 10.5476 227.987 11.0697 227.129 11.0697C226.234 10.9578 225.898 10.3985 225.898 9.65268Z" fill="#ABB1B9"/>
<path d="M228.657 6H229.478V10.885H228.657V6Z" fill="#ABB1B9"/>
<path d="M229.813 6H232.014V6.67123H231.342V10.885H230.522V6.67123H229.851V6H229.813Z" fill="#ABB1B9"/>
<path d="M232.312 6H233.133V10.885H232.312V6Z" fill="#ABB1B9"/>
<path d="M233.58 6H235.556V6.67123H234.4V8.08826H235.221V8.75948H234.4V10.2511H235.556V10.9223H233.58V6Z" fill="#ABB1B9"/>
<path d="M235.78 9.87641V9.20519H236.563V9.87641C236.563 10.1374 236.675 10.3239 236.974 10.3239C237.235 10.3239 237.346 10.1374 237.346 9.87641V9.68996C237.346 9.39164 237.235 9.24248 236.974 8.98145L236.489 8.49668C236.004 8.04919 235.818 7.75087 235.818 7.19152V7.04236C235.818 6.44571 236.19 5.96094 236.974 5.96094C237.794 5.96094 238.13 6.37113 238.13 7.07964V7.48984H237.384V7.07964C237.384 6.78132 237.272 6.66946 237.011 6.66946C236.787 6.66946 236.638 6.78132 236.638 7.07964V7.19152C236.638 7.45255 236.787 7.639 237.011 7.86274L237.533 8.3848C237.98 8.83229 238.204 9.13061 238.204 9.65268V9.87641C238.204 10.5476 237.831 11.0324 237.011 11.0324C236.19 11.0324 235.78 10.5103 235.78 9.87641Z" fill="#ABB1B9"/>
<path d="M197.408 18.1194L198.34 13.2344H199.273L200.205 18.1194H199.347L199.198 17.2244H198.34L198.191 18.1194H197.408ZM198.415 16.5532H199.086L198.751 14.5768L198.415 16.5532Z" fill="#ABB1B9"/>
<path d="M201.211 15.0243V18.1194H200.503V13.2344H201.323L202.218 16.0311V13.2344H202.89V18.1194H202.181L201.211 15.0243Z" fill="#ABB1B9"/>
<path d="M205.836 14.5395V16.8142C205.836 17.56 205.538 18.1194 204.643 18.1194H203.375V13.2344H204.643C205.501 13.2344 205.836 13.7564 205.836 14.5395ZM204.531 17.4482C204.867 17.4482 205.016 17.2617 205.016 16.9634V14.3904C205.016 14.0921 204.904 13.9056 204.531 13.9056H204.195V17.4482H204.531Z" fill="#ABB1B9"/>
<path d="M207.029 16.848V14.4614C207.029 13.6783 207.402 13.1562 208.26 13.1562C209.155 13.1562 209.416 13.6783 209.416 14.3868V14.9835H208.67V14.3495C208.67 14.0512 208.558 13.8648 208.26 13.8648C207.962 13.8648 207.85 14.0885 207.85 14.3868V17.0344C207.85 17.3328 207.962 17.5565 208.26 17.5565C208.558 17.5565 208.67 17.37 208.67 17.0717V16.1768H209.416V17.0344C209.416 17.743 209.118 18.265 208.26 18.265C207.402 18.1904 207.029 17.5938 207.029 16.848Z" fill="#ABB1B9"/>
<path d="M209.863 16.848V14.4614C209.863 13.6783 210.236 13.1562 211.094 13.1562C211.952 13.1562 212.362 13.7156 212.362 14.4614V16.848C212.362 17.5938 211.989 18.1531 211.094 18.1531C210.236 18.1904 209.863 17.5938 209.863 16.848ZM211.541 16.9971V14.3495C211.541 14.0512 211.429 13.8275 211.131 13.8275C210.833 13.8275 210.721 14.0512 210.721 14.3495V16.9971C210.721 17.2955 210.833 17.5192 211.131 17.5192C211.392 17.4819 211.541 17.2955 211.541 16.9971Z" fill="#ABB1B9"/>
<path d="M215.084 14.9497L214.487 18.1194H214.115L213.518 14.9497V18.1194H212.847V13.2344H213.816L214.338 15.9939L214.823 13.2344H215.867V18.1194H215.121V14.9497H215.084Z" fill="#ABB1B9"/>
<path d="M218.552 14.9497L217.955 18.1194H217.582L216.986 14.9497V18.1194H216.314V13.2344H217.284L217.806 15.9939L218.291 13.2344H219.335V18.1194H218.589V14.9497H218.552Z" fill="#ABB1B9"/>
<path d="M222.169 13.2326V16.9243C222.169 17.6701 221.833 18.1922 221.013 18.1922C220.155 18.1922 219.782 17.7074 219.782 16.9243V13.2326H220.603V16.9989C220.603 17.2972 220.714 17.4837 221.013 17.4837C221.311 17.4837 221.423 17.2972 221.423 16.9989V13.1953H222.169V13.2326Z" fill="#ABB1B9"/>
<path d="M223.325 15.0243V18.1194H222.616V13.2344H223.437L224.332 16.0311V13.2344H225.003V18.1194H224.294L223.325 15.0243Z" fill="#ABB1B9"/>
<path d="M225.45 13.2344H226.271V18.1194H225.45V13.2344Z" fill="#ABB1B9"/>
<path d="M226.644 13.2344H228.844V13.9056H228.172V18.1194H227.352V13.9056H226.681V13.2344H226.644Z" fill="#ABB1B9"/>
<path d="M229.217 13.2344H230.037V18.1194H229.217V13.2344Z" fill="#ABB1B9"/>
<path d="M230.484 13.2344H232.461V13.9056H231.305V15.3226H232.125V15.9939H231.305V17.4855H232.461V18.1567H230.484V13.2344Z" fill="#ABB1B9"/>
<path d="M232.797 17.0717V16.4005H233.58V17.0717C233.58 17.3328 233.692 17.5192 233.99 17.5192C234.251 17.5192 234.363 17.3328 234.363 17.0717V16.8853C234.363 16.587 234.251 16.4378 233.99 16.1768L233.505 15.692C233.021 15.2445 232.834 14.9462 232.834 14.3868V14.2377C232.834 13.641 233.17 13.1562 233.99 13.1562C234.811 13.1562 235.146 13.5664 235.146 14.275V14.6852H234.4V14.275C234.4 13.9766 234.288 13.8648 234.027 13.8648C233.804 13.8648 233.655 13.9766 233.655 14.275V14.3868C233.655 14.6479 233.804 14.8343 234.027 15.0581L234.549 15.5801C234.997 16.0276 235.221 16.3259 235.221 16.848V17.0717C235.221 17.743 234.848 18.2277 234.027 18.2277C233.132 18.1904 232.797 17.7057 232.797 17.0717Z" fill="#ABB1B9"/>
<path d="M301 1H241V61H301V1Z" stroke="#ABB1B9" stroke-miterlimit="10"/>
<path d="M12.9337 16.2384H12.719L12.5712 16.394L10.5996 18.4694V15.6539L14.0603 11.5703H16.5356V34.7344H13.5083V16.7384V16.2384H13.0083H12.9337Z" fill="#4B5366" stroke="#4B5366"/>
<path d="M23.3001 32.4465H29.5123V34.8026H19.9219V30.8278C19.9219 29.6995 20.1141 28.7885 20.5606 27.8783C21.013 26.9561 21.7381 26.0105 22.8443 24.8306C22.8443 24.8305 22.8444 24.8305 22.8444 24.8304L25.1547 22.3712C25.1549 22.3709 25.1552 22.3706 25.1554 22.3703C25.8484 21.6387 26.277 21.0356 26.5152 20.3209C26.7488 19.6202 26.7833 18.8559 26.7833 17.8508V15.8371C26.7833 15.0303 26.6035 14.4199 26.1924 14.0231C25.7821 13.6269 25.2473 13.5472 24.7917 13.5472C24.3147 13.5472 23.7726 13.6549 23.3532 14.0608C22.9314 14.469 22.7255 15.0894 22.7255 15.9117V18.4695H19.9964V16.0608C19.9964 14.4678 20.4203 13.2884 21.1943 12.5064C21.9672 11.7254 23.1638 11.2656 24.8662 11.2656C26.6297 11.2656 27.8014 11.6627 28.5366 12.3742C29.2683 13.0822 29.6615 14.1932 29.6615 15.8371V18.2237C29.6615 19.4249 29.5517 20.3231 29.2118 21.1813C28.8711 22.0417 28.2828 22.9022 27.2614 23.9969C27.261 23.9973 27.2606 23.9977 27.2602 23.9981L24.6522 26.7552L24.6522 26.7552L24.6499 26.7576C24.1355 27.3087 23.6593 27.8214 23.325 28.4483C22.9813 29.0929 22.8001 29.8293 22.8001 30.8278V31.9465V32.4465H23.3001Z" fill="#4B5366" stroke="#4B5366"/>
<path d="M94.4499 65.2873C89.5276 61.4091 83.7103 61.0363 81.3983 61.0363C80.2051 61.0363 79.0864 61.1108 78.266 61.3346L77.9677 61.4092C74.8353 62.155 69.6892 63.3482 63.6482 70.8809L63.499 71.1046C63.4244 71.2538 63.3499 71.4029 63.3499 71.5521C63.3499 71.7013 63.3499 71.8504 63.4245 71.925L63.5736 72.1487C64.5432 73.7895 65.3636 75.2811 66.0348 76.4744C66.2585 76.9219 66.9298 77.0711 67.3027 76.6236C67.3772 76.549 67.3772 76.4744 67.4518 76.4744C72.6725 69.2401 76.7744 68.2706 79.4593 67.6739L79.7576 67.5993C80.1305 67.5247 80.7271 67.4502 81.3983 67.4502C82.6662 67.4502 86.9919 67.6739 90.4226 70.3588C93.4804 72.7454 94.972 76.549 94.972 81.695C94.972 90.3464 90.7955 93.7025 87.2902 94.9704C85.9478 95.4924 84.5307 95.7162 83.0391 95.7162C79.4593 95.7162 76.6252 94.2992 76.6252 94.2246L76.4015 94.0754C73.4183 92.733 68.8688 90.0481 64.6177 81.4713C55.8918 63.9449 48.5829 62.3041 43.7352 61.1854L43.5115 61.1108C43.1386 61.0363 42.0944 60.8125 40.3791 60.8125C37.545 60.8125 32.1752 61.3346 27.5513 65.0636C24.4189 67.5993 20.6152 72.5216 20.6152 81.4713C20.6152 86.9903 21.734 90.5701 24.6426 94.3737C25.1647 95.1195 30.2361 101.608 39.9316 101.608C41.3486 101.608 42.8403 101.459 44.3319 101.161C46.1218 100.788 48.8067 99.9673 51.8645 97.7298L54.4002 100.042C54.6986 100.266 55.146 100.266 55.4443 99.9673C55.5935 99.8181 55.6681 99.669 55.5935 99.5198L57.5326 87.3632V87.214C57.5326 86.9903 57.458 86.8411 57.3089 86.6919C57.1597 86.5428 57.0105 86.4682 56.7868 86.4682L44.9285 89.7497H44.7048C44.5556 89.7497 44.4065 89.8243 44.3319 89.9735C44.1827 90.1226 44.1081 90.3464 44.1081 90.4956C44.1081 90.7193 44.1827 90.8684 44.3319 91.0176L46.793 93.255C45.5251 94.0754 44.1827 94.5975 42.9894 94.8212C41.9453 95.045 40.9012 95.1195 39.857 95.1195C33.1448 95.1195 29.8632 90.7193 29.7141 90.4956L29.6395 90.421C27.6258 87.7361 26.88 85.4241 26.88 81.3967C26.88 76.2507 28.3716 72.3725 31.3548 69.9859C34.711 67.301 38.962 67.1518 40.1553 67.1518C40.8266 67.1518 41.4232 67.2264 41.7961 67.301L42.0945 67.3756C45.9726 68.2706 51.2678 69.4639 58.6513 84.2308C62.5295 92.0617 67.3772 97.1332 73.4928 99.8181C74.2386 100.191 77.9676 101.981 82.89 101.981C85.1274 101.981 87.3648 101.608 89.4531 100.788C93.0329 99.4452 101.311 94.8958 101.311 81.3967C101.461 72.7454 97.6569 67.8231 94.4499 65.2873Z" fill="#4B5366"/>
<path d="M248.57 6.03125V18.1506H246.556V8.86531H246.519L245.102 10.3569H245.064V8.23137L246.966 6.03125H248.57Z" fill="#ABB1B9"/>
<path d="M255.283 8.68229V9.72641C255.283 10.7332 254.724 11.4045 253.903 11.7028C254.91 11.9265 255.395 12.6351 255.395 13.7538V15.5437C255.395 17.2217 254.5 18.3032 252.449 18.3032C250.398 18.3032 249.652 17.1099 249.652 15.2827V13.6792H251.517V15.3945C251.517 16.103 251.778 16.5878 252.449 16.5878C253.083 16.5878 253.344 16.1403 253.344 15.5064V13.4927C253.344 12.8588 253.046 12.5232 252.337 12.5232H251.48V10.957H252.263C252.934 10.957 253.344 10.6214 253.344 9.98744V8.68229C253.344 8.01106 253.12 7.60087 252.486 7.60087C251.852 7.60087 251.629 8.01106 251.629 8.79415V10.0247H249.764V8.94332C249.764 7.15339 250.51 5.92281 252.598 5.92281C254.463 5.88552 255.283 6.96693 255.283 8.68229Z" fill="#ABB1B9"/>
<path d="M293.019 38.5908C291.453 36.3907 284.293 27.5156 270.981 27.5156C257.668 27.5156 250.546 36.3534 248.942 38.5908C248.868 38.7027 248.83 38.7773 248.756 38.8519C248.793 38.9264 248.868 39.001 248.942 39.1129C250.509 41.313 257.668 50.1881 270.981 50.1881C284.256 50.1881 291.416 41.3503 293.019 39.1129C293.094 39.001 293.131 38.9264 293.206 38.8519C293.169 38.74 293.094 38.6654 293.019 38.5908ZM263.597 33.1092C263.709 32.9227 264.119 32.4379 264.157 32.3634C264.269 32.2142 264.455 32.2142 264.604 32.1769C264.753 32.1396 264.94 32.2142 264.94 32.3261C264.977 32.4379 264.903 32.8481 264.828 32.9227C264.642 33.1092 264.119 33.4075 263.858 33.3702C263.635 33.3329 263.56 33.1837 263.597 33.1092ZM263.113 34.0414C263.15 34.0041 263.15 34.0041 263.15 33.9668C263.299 33.7804 263.635 33.7431 263.896 33.7058C264.119 33.6685 264.418 33.7804 264.455 33.9296C264.492 34.0787 263.896 34.377 263.747 34.4516C263.411 34.7499 262.926 35.3466 262.628 35.4212C262.516 35.4585 262.441 35.4212 262.404 35.3839C262.628 34.9364 262.852 34.4889 263.113 34.0414ZM268.072 44.2589C267.886 44.9675 267.699 45.2285 267.513 45.4522C267.326 45.676 266.655 45.9743 266.245 45.937C265.835 45.8997 265.76 44.781 265.76 44.2217C265.76 44.0352 265.462 44.6318 265.313 43.4013C265.201 42.6182 264.716 43.4758 264.679 42.9538C264.642 42.4317 264.38 42.5436 264.119 42.208C263.858 41.8724 263.523 42.2453 263.187 42.3944C262.814 42.5436 262.963 42.6555 262.479 42.469H262.441C261.957 41.3503 261.696 40.157 261.696 38.8519C261.696 38.5535 261.696 38.2179 261.733 37.9196C261.733 37.8823 261.77 37.845 261.807 37.845C262.292 37.2484 262.292 37.1365 262.292 37.1365L262.852 36.9501C262.852 36.9501 263.709 37.0992 264.38 37.323C264.903 37.5094 265.76 37.9942 266.245 37.7704C266.618 37.6213 266.879 37.4348 266.842 37.1365C266.804 36.7636 266.506 36.689 266.17 36.9128C266.021 36.9874 265.76 36.3534 265.536 36.3907C265.313 36.428 265.798 37.1738 265.611 37.1738C265.425 37.2111 265.052 36.3907 264.977 36.2788C264.903 36.167 264.642 35.8313 264.38 36.0924C263.821 36.6144 262.963 36.5772 262.777 36.7263C262.218 37.1365 262.106 36.5772 262.106 36.2788C262.143 36.2043 262.143 36.1297 262.18 36.0551C262.367 35.8686 263.001 35.7941 263.224 35.9432C263.448 36.0924 263.635 35.9059 263.747 35.7941C263.858 35.6822 263.821 35.533 263.747 35.4212C263.672 35.3093 263.858 35.1974 264.008 35.1601C264.119 35.1228 264.53 34.8245 264.716 34.7499C264.865 34.6381 265.723 34.5635 266.133 34.7499C266.506 34.9364 266.879 34.7872 267.065 34.5635C267.289 34.2652 267.587 34.0787 267.737 34.0041C267.886 33.9295 267.401 33.5193 267.028 33.9668C266.655 34.4516 266.469 34.4889 266.282 34.4889C266.096 34.4889 265.052 34.2279 264.903 33.8923C264.791 33.5566 265.238 33.2956 265.648 33.1092C266.059 32.9227 267.14 32.9227 267.401 32.8481C267.96 32.7363 268.669 32.4379 269.042 32.699C269.415 32.9227 267.55 33.3702 268.147 33.7058C268.371 33.8177 269.34 33.1465 269.676 32.96C270.459 32.5498 268.893 32.4006 269.116 31.5803C269.34 30.648 267.177 30.9836 266.133 31.0955C267.587 30.1632 269.265 29.6412 271.13 29.6412C275.493 29.6412 279.147 32.6617 280.117 36.7263C280.117 36.9128 280.08 37.0619 280.08 37.1365C280.005 37.4721 279.371 37.7704 278.998 37.2111C278.886 37.0619 278.513 36.689 278.513 37.3602C278.513 37.9942 279.147 38.0688 278.551 38.4417C277.954 38.8146 277.842 38.74 277.581 38.8146C277.32 38.9264 277.059 39.5604 277.096 39.9333C277.171 40.2689 277.991 41.2384 277.395 41.2011C277.246 41.2011 276.127 40.418 275.94 39.9333C275.754 39.4112 275.53 38.9264 275.381 38.5162C275.232 38.1433 274.822 38.0315 274.523 38.2552C274.188 38.479 274.598 38.7027 274.374 39.1875C274.151 39.6722 273.964 40.0824 273.628 39.7095C272.733 38.6654 271.428 39.1875 271.205 38.0315C271.093 37.3975 270.571 37.4721 270.123 37.0992C269.676 36.7636 269.415 36.5399 269.34 36.8009C269.265 37.0246 270.757 38.2179 270.869 38.5162C271.018 38.9637 270.421 39.3739 269.974 39.4485C269.527 39.5604 269.34 39.1875 268.893 38.74C268.445 38.2925 268.259 37.9569 268.259 38.3298C268.221 38.8519 268.669 39.5977 269.116 39.8587C269.489 40.0824 269.899 40.1943 269.788 40.6045C269.676 40.9774 269.788 40.7537 269.377 41.2011C268.967 41.6113 268.893 41.7605 268.893 42.3199C268.93 42.9165 268.781 42.9165 268.669 43.4013C268.482 43.9606 268.259 43.5504 268.072 44.2589ZM278.029 40.5672C278.327 40.5299 278.812 40.9774 278.625 41.1266C278.439 41.2757 277.991 41.2384 277.73 41.052C277.507 40.8655 277.88 40.5672 278.029 40.5672ZM277.619 40.2689C277.507 40.2316 277.432 40.1197 277.357 39.896C277.283 39.6722 277.469 39.5231 277.656 39.635C277.842 39.7468 278.103 40.0079 278.103 40.157C278.103 40.3435 277.73 40.3062 277.619 40.2689ZM273.554 40.2689C273.367 40.4181 272.92 40.3808 272.659 40.1943C272.435 40.0079 272.808 39.7095 272.957 39.7095C273.256 39.6722 273.74 40.0824 273.554 40.2689ZM269.75 42.0961C269.638 42.3199 269.265 43.8487 269.042 43.6623C268.818 43.4758 269.154 41.8724 269.191 41.7232C269.564 41.0893 270.384 41.1266 269.75 42.0961ZM271.018 48.1371C270.123 48.1371 269.228 47.988 268.408 47.7642C268.296 47.6524 268.221 47.5032 268.296 47.3167C268.594 46.5709 269.452 46.2726 270.123 46.198C271.615 46.0489 273.591 47.1676 273.927 46.9811C274.225 46.7947 274.859 45.9743 275.791 46.0116C276.425 46.0489 276.425 46.1608 276.649 46.2353C275.083 47.4286 273.144 48.1371 271.018 48.1371ZM277.544 45.4522C277.469 45.4149 277.357 45.3776 277.246 45.3404C276.724 45.0793 276.798 45.4895 276.537 45.4149C276.276 45.3404 276.835 44.7437 276.052 45.2285C275.307 45.7133 275.493 45.1539 275.195 44.3335C274.859 43.5131 275.568 42.5809 276.164 42.3571C276.985 42.0588 277.469 42.0215 277.842 41.9097C278.961 41.6486 279.185 40.9774 279.408 41.3876C279.446 41.4622 279.483 41.5368 279.52 41.6113C279.595 41.7232 279.669 41.9842 279.669 42.208C279.185 43.4013 278.476 44.52 277.544 45.4522ZM280.08 40.7537C279.819 40.6791 278.775 39.262 279.632 38.2925C279.781 38.1433 279.371 37.6959 279.483 37.6586C279.931 37.6213 280.154 37.9196 280.303 38.2925C280.303 38.479 280.303 38.6654 280.303 38.8146C280.266 39.5231 280.229 40.157 280.08 40.7537Z" fill="#ABB1B9"/>
<path d="M260.129 9.65267V7.2661C260.129 6.483 260.502 5.96094 261.359 5.96094C262.254 5.96094 262.515 6.483 262.515 7.19151V7.78816H261.77V7.15422C261.77 6.8559 261.658 6.66945 261.359 6.66945C261.061 6.66945 260.949 6.89319 260.949 7.19151V9.83912C260.949 10.1374 261.061 10.3612 261.359 10.3612C261.658 10.3612 261.77 10.1747 261.77 9.87641V8.98144H262.515V9.83912C262.515 10.5476 262.217 11.0697 261.359 11.0697C260.502 10.9951 260.129 10.4358 260.129 9.65267Z" fill="#ABB1B9"/>
<path d="M263.075 6.03125H263.896V10.2451H264.865V10.9163H263.075V6.03125Z" fill="#ABB1B9"/>
<path d="M265.312 6.03125H266.133V10.9163H265.312V6.03125Z" fill="#ABB1B9"/>
<path d="M269.041 7.7466L268.444 10.9163H268.072L267.475 7.7466V10.9163H266.804V6.03125H267.773L268.295 8.79073L268.78 6.03125H269.824V10.9163H269.078V7.7466H269.041Z" fill="#ABB1B9"/>
<path d="M270.197 10.9163L271.13 6.03125H272.062L272.994 10.9163H272.136L271.987 10.0213H271.13L270.98 10.9163H270.197ZM271.241 9.38737H271.913L271.577 7.41099L271.241 9.38737Z" fill="#ABB1B9"/>
<path d="M272.882 6.03125H275.082V6.70248H274.411V10.9163H273.59V6.70248H272.882V6.03125Z" fill="#ABB1B9"/>
<path d="M275.529 6.03125H277.506V6.70248H276.35V8.11951H277.17V8.79073H276.35V10.2823H277.506V10.9536H275.529V6.03125Z" fill="#ABB1B9"/>
<path d="M260.018 18.0413L260.95 13.1562H261.882L262.814 18.0413H261.957L261.808 17.1463H260.95L260.801 18.0413H260.018ZM261.024 16.4751H261.696L261.36 14.4987L261.024 16.4751Z" fill="#ABB1B9"/>
<path d="M263.038 16.7699V14.3833C263.038 13.6002 263.411 13.0781 264.269 13.0781C265.164 13.0781 265.425 13.6002 265.425 14.3087V14.9054H264.679V14.2714C264.679 13.9731 264.567 13.7866 264.269 13.7866C263.97 13.7866 263.858 14.0104 263.858 14.3087V16.9563C263.858 17.2546 263.97 17.4784 264.269 17.4784C264.567 17.4784 264.679 17.2919 264.679 16.9936V16.0986H265.425V16.9563C265.425 17.6648 265.126 18.1869 264.269 18.1869C263.411 18.075 263.038 17.5157 263.038 16.7699Z" fill="#ABB1B9"/>
<path d="M265.723 13.1172H267.923V13.7884H267.252V18.0022H266.431V13.7884H265.76V13.1172H265.723Z" fill="#ABB1B9"/>
<path d="M268.37 13.1172H269.191V18.0022H268.37V13.1172Z" fill="#ABB1B9"/>
<path d="M269.75 16.7699V14.3833C269.75 13.6002 270.123 13.0781 270.981 13.0781C271.838 13.0781 272.248 13.6375 272.248 14.3833V16.7699C272.248 17.5157 271.876 18.075 270.981 18.075C270.123 18.075 269.75 17.5157 269.75 16.7699ZM271.428 16.8817V14.2714C271.428 13.9731 271.316 13.7494 271.018 13.7494C270.72 13.7494 270.608 13.9731 270.608 14.2714V16.919C270.608 17.2173 270.72 17.4411 271.018 17.4411C271.279 17.4038 271.428 17.1801 271.428 16.8817Z" fill="#ABB1B9"/>
<path d="M273.479 14.9462V18.0413H272.771V13.1562H273.591L274.486 15.953V13.1562H275.157V18.0413H274.449L273.479 14.9462Z" fill="#ABB1B9"/>
<path d="M241 61H181V121H241V61Z" stroke="#ABB1B9" stroke-miterlimit="10"/>
<path d="M185.4 68.2314V70.3569L186.855 68.8653V78.1133H188.906V66.0312H187.265L185.4 68.2314Z" fill="#ABB1B9"/>
<path d="M193.717 69.8722C192.896 69.8722 192.337 70.1705 192.001 70.6925V67.672H195.507V66.0312H190.137V72.8554H192.001V72.5943C192.001 71.8858 192.337 71.4756 192.896 71.4756C193.53 71.4756 193.754 71.8858 193.754 72.557V75.4657C193.754 76.0996 193.53 76.5471 192.896 76.5471C192.188 76.5471 191.964 76.0996 191.964 75.3538V73.8249H190.1V75.2047C190.1 77.0319 190.845 78.2252 192.896 78.2252C194.947 78.2252 195.805 77.1437 195.805 75.4657V72.5198C195.805 70.6179 194.835 69.8722 193.717 69.8722Z" fill="#ABB1B9"/>
<path d="M206.171 101.57C206.246 101.57 206.32 101.645 206.32 101.719V106.082C206.32 106.157 206.246 106.232 206.171 106.232H204.419C204.344 106.232 204.27 106.157 204.27 106.082V101.719C204.27 101.645 204.344 101.57 204.419 101.57H206.171Z" fill="#ABB1B9"/>
<path d="M225.562 108.094H196.438C196.364 108.094 196.289 108.168 196.289 108.243V110.033C196.289 110.107 196.364 110.182 196.438 110.182H225.562C225.636 110.182 225.711 110.107 225.711 110.033V108.243C225.711 108.168 225.636 108.094 225.562 108.094Z" fill="#ABB1B9"/>
<path d="M225.562 111.641H196.438C196.364 111.641 196.289 111.715 196.289 111.79V113.58C196.289 113.654 196.364 113.729 196.438 113.729H225.562C225.636 113.729 225.711 113.654 225.711 113.58V111.79C225.711 111.678 225.636 111.641 225.562 111.641Z" fill="#ABB1B9"/>
<path d="M220.043 96.7604C219.67 96.4621 218.7 95.8281 217.507 95.8281C216.649 95.8281 215.866 96.1637 215.158 96.835C215.12 96.8723 215.083 96.9468 215.083 97.0214V97.1706C215.083 97.2452 215.12 97.3197 215.158 97.357C215.232 97.3943 215.269 97.4316 215.381 97.3943H215.419C215.456 97.357 215.53 97.357 215.568 97.3197C215.717 97.2079 216.127 97.0587 216.724 97.0587C217.358 97.0587 218.551 97.2079 219.744 98.3266L219.782 98.3639C219.856 98.4384 219.931 98.4757 220.043 98.4757C220.117 98.4757 220.229 98.4384 220.304 98.3639L220.341 98.3266C221.534 97.2452 222.728 97.0587 223.361 97.0587C223.958 97.0587 224.368 97.2079 224.517 97.3197C224.555 97.357 224.592 97.3943 224.667 97.4316C224.704 97.4316 224.778 97.4689 224.853 97.4316C224.965 97.3943 225.039 97.3197 225.039 97.2079V97.0587C225.039 96.9841 225.002 96.9095 224.965 96.8723C224.256 96.201 223.473 95.8654 222.578 95.8654C221.385 95.7908 220.416 96.4621 220.043 96.7604Z" fill="#ABB1B9"/>
<path d="M218.215 85.1247C218.141 85.162 218.104 85.1993 218.104 85.2738L218.066 85.3857C218.029 85.4603 218.066 85.5349 218.104 85.6094C218.141 85.684 218.215 85.7213 218.29 85.7213H218.327C218.365 85.7213 218.439 85.7213 218.476 85.684C218.514 85.684 218.551 85.6467 218.663 85.6467C218.775 85.6467 219.968 85.684 220.751 86.9892V87.0265C220.788 87.1011 220.863 87.1383 220.938 87.1756C220.975 87.1756 221.012 87.1756 221.012 87.1756C221.049 87.1756 221.124 87.1756 221.161 87.1383H221.199C221.609 86.9146 222.056 86.8027 222.504 86.8027C223.25 86.8027 223.734 87.1011 223.846 87.2129C223.884 87.2502 223.921 87.2875 223.958 87.3248C223.995 87.3248 224.033 87.3621 224.07 87.3621H224.107C224.107 87.3621 224.107 87.3621 224.145 87.3621C224.182 87.3621 224.219 87.3621 224.256 87.3248C224.331 87.2875 224.368 87.2502 224.368 87.1756L224.406 87.1011C224.406 87.0638 224.406 87.0638 224.406 87.0265C224.406 86.9892 224.406 86.9519 224.368 86.9146C223.809 85.9451 222.989 85.7213 222.392 85.7213C221.944 85.7213 221.572 85.8332 221.348 85.9078C221.087 85.5349 220.416 84.7891 219.371 84.7891C218.961 84.8636 218.588 84.9382 218.215 85.1247Z" fill="#ABB1B9"/>
<path d="M212.062 89.5967V89.7459C212.062 89.8205 212.1 89.895 212.174 89.9323C212.249 89.9696 212.324 89.9696 212.361 89.9696H212.398C212.435 89.9323 212.473 89.9323 212.51 89.895C212.622 89.8205 213.032 89.634 213.629 89.634C214.188 89.634 215.046 89.7832 215.941 90.4917L215.978 90.529C216.053 90.5663 216.127 90.6036 216.202 90.6036H216.239C216.314 90.6036 216.425 90.5663 216.463 90.4917L216.5 90.4544C217.47 89.4103 218.514 89.2611 219.073 89.2611C219.446 89.2611 219.744 89.3357 219.819 89.4103C219.856 89.4476 219.893 89.4848 219.968 89.4848C219.968 89.4848 220.043 89.4848 220.08 89.4848C220.117 89.4848 220.117 89.4848 220.154 89.4848C220.266 89.4476 220.341 89.3357 220.304 89.2238V89.1119C220.304 89.0374 220.266 89.0001 220.229 88.9255C219.632 88.4407 219.036 88.1797 218.365 88.1797C217.358 88.1797 216.537 88.7763 216.202 89.0747C215.903 88.8509 215.158 88.4407 214.263 88.4407C213.48 88.4407 212.808 88.7763 212.212 89.4103C212.1 89.4849 212.062 89.5594 212.062 89.5967Z" fill="#ABB1B9"/>
<path d="M197.333 91.9506C197.333 90.1979 198.75 88.7809 200.503 88.7809C200.577 88.7809 200.652 88.7809 200.689 88.7809C200.838 86.5808 202.703 84.8281 204.94 84.8281C207.29 84.8281 209.229 86.7299 209.229 89.1165C209.229 89.7877 209.079 90.4217 208.781 90.981C210.907 91.4658 212.51 93.3676 212.51 95.6423C212.51 98.2899 210.385 100.415 207.737 100.415C207.551 100.415 201.36 100.378 201.36 100.378C199.496 100.378 197.967 98.8493 197.967 96.9847C197.967 96.0898 198.303 95.2694 198.899 94.6728C197.967 94.1507 197.333 93.1439 197.333 91.9506Z" fill="#ABB1B9"/>
<path d="M200.168 66.0312H200.988V70.2451H201.958V70.9163H200.168V66.0312Z" fill="#ABB1B9"/>
<path d="M202.442 66.0312H203.263V70.9163H202.442V66.0312Z" fill="#ABB1B9"/>
<path d="M203.897 66.0312H205.837V66.7025H204.718V68.1195H205.538V68.7907H204.718V70.9536H203.897V66.0312Z" fill="#ABB1B9"/>
<path d="M206.246 66.0312H208.222V66.7025H207.066V68.1195H207.887V68.7907H207.066V70.2823H208.222V70.9536H206.246V66.0312Z" fill="#ABB1B9"/>
<path d="M200.168 76.887V74.5005C200.168 73.7174 200.541 73.1953 201.399 73.1953C202.256 73.1953 202.666 73.7547 202.666 74.5005V76.887C202.666 77.6328 202.294 78.1922 201.399 78.1922C200.541 78.1922 200.168 77.6328 200.168 76.887ZM201.846 76.9989V74.3513C201.846 74.053 201.734 73.8292 201.436 73.8292C201.138 73.8292 201.026 74.053 201.026 74.3513V76.9989C201.026 77.2972 201.138 77.521 201.436 77.521C201.697 77.521 201.846 77.2972 201.846 76.9989Z" fill="#ABB1B9"/>
<path d="M203.823 75.0556V78.1507H203.114V73.2656H203.935L204.83 76.0624V73.2656H205.501V78.1507H204.792L203.823 75.0556Z" fill="#ABB1B9"/>
<path d="M207.29 73.2344H208.11V77.4482H209.08V78.1194H207.29V73.2344Z" fill="#ABB1B9"/>
<path d="M209.342 78.1507L210.274 73.2656H211.206L212.139 78.1507H211.281L211.132 77.2557H210.274L210.125 78.1507H209.342ZM210.349 76.5845H211.02L210.684 74.6081L210.349 76.5845Z" fill="#ABB1B9"/>
<path d="M213.145 75.0556V78.1507H212.437V73.2656H213.257L214.152 76.0624V73.2656H214.823V78.1507H214.115L213.145 75.0556Z" fill="#ABB1B9"/>
<path d="M217.844 74.5725V76.8473C217.844 77.5931 217.546 78.1524 216.651 78.1524H215.383V73.2674H216.651C217.546 73.2301 217.844 73.7894 217.844 74.5725ZM216.539 77.4812C216.874 77.4812 217.024 77.2947 217.024 76.9964V74.4234C217.024 74.1251 216.912 73.9386 216.539 73.9386H216.203V77.4812H216.539Z" fill="#ABB1B9"/>
<path d="M181 61H121V121H181V61Z" stroke="#ABB1B9" stroke-miterlimit="10"/>
<path d="M121 1H1V121H121V1Z" stroke="#4B5366" stroke-miterlimit="10"/>
<path d="M128.817 66.0469V78.1388H126.783V68.8828H126.765L125.339 70.3628H125.32V68.2405L127.193 66.0469H128.817Z" fill="#ABB1B9"/>
<path d="M135.008 78.1443V76.1818H135.829V74.5937H135.008V66.0469H133.009L129.494 74.9326V76.1818H133.081V78.1443H135.008V78.1443ZM131.278 74.5937L133.098 69.6154H133.116V74.5937H131.278V74.5937Z" fill="#ABB1B9"/>
<path d="M167.176 104.778C166.421 103.757 161.543 97.5391 154.705 97.5391C148.767 97.5391 142.414 102.925 142.414 102.925C142.414 102.925 140.027 98.041 135.146 97.5716C135.117 97.5716 135.087 97.5653 135.054 97.5653H135.024C134.922 97.5709 134.827 97.6699 134.838 97.7584C134.852 97.844 134.914 97.937 134.914 97.937C135.543 98.9816 137.149 101.953 137.149 104.922C137.149 107.901 135.534 110.88 134.911 111.92L134.868 111.986C134.85 112.017 134.838 112.049 134.838 112.089C134.838 112.192 134.918 112.272 135.018 112.281L135.071 112.277C135.087 112.277 135.105 112.277 135.122 112.272C140.019 111.816 142.414 106.917 142.414 106.917C142.414 106.917 148.767 112.304 154.705 112.304C161.543 112.304 166.421 106.085 167.176 105.067C167.197 105.039 167.214 105.015 167.229 104.997C167.237 104.973 167.245 104.951 167.245 104.922C167.245 104.895 167.237 104.868 167.229 104.848C167.214 104.827 167.197 104.803 167.176 104.778ZM158.507 105.708C157.405 105.708 156.511 104.813 156.511 103.711C156.511 102.609 157.405 101.717 158.507 101.717C159.612 101.717 160.506 102.609 160.506 103.711C160.506 104.813 159.612 105.708 158.507 105.708Z" fill="#ABB1B9"/>
<path d="M134.992 85.8522C134.977 85.8489 134.966 85.8438 134.954 85.8438C134.846 85.8438 134.758 85.9321 134.758 86.0421V87.403C134.758 87.46 134.779 87.5101 134.815 87.5439C138.116 90.4121 141.242 87.7247 141.965 87.0146C141.98 86.993 141.995 86.9723 142.017 86.9592C142.049 86.9385 142.084 86.9237 142.125 86.9237C142.176 86.9237 142.224 86.9433 142.258 86.9763C142.26 86.98 142.264 86.983 142.267 86.9847C145.996 90.5432 149.906 87.661 150.719 86.9847L150.8 86.9115C150.822 86.9008 150.847 86.8967 150.874 86.8967C150.902 86.8967 150.929 86.9008 150.951 86.9115L151.032 86.9847C151.845 87.661 155.755 90.5432 159.483 86.9847C159.484 86.983 159.489 86.98 159.491 86.9763C159.525 86.9433 159.571 86.9237 159.623 86.9237C159.664 86.9237 159.701 86.9385 159.731 86.9592C159.754 86.9723 159.769 86.993 159.786 87.0146C160.509 87.7247 163.631 90.4121 166.935 87.5439C166.969 87.5101 166.992 87.46 166.992 87.403V86.0421C166.992 85.9321 166.906 85.8438 166.798 85.8438C166.784 85.8438 166.771 85.8489 166.756 85.8522C166.725 85.8697 166.694 85.886 166.657 85.9035C165.642 86.4121 162.493 87.6217 159.635 84.9175C159.608 84.8924 159.58 84.8673 159.552 84.8381C159.525 84.8274 159.5 84.8203 159.468 84.8203C159.448 84.8203 159.427 84.8259 159.409 84.8294C159.367 84.8465 159.333 84.8737 159.31 84.9066C158.458 85.5559 154.548 88.2028 151.066 84.9548L151.015 84.9051C150.979 84.8729 150.929 84.8465 150.874 84.8465C150.822 84.8465 150.771 84.8729 150.738 84.9051L150.683 84.9548C147.203 88.2028 143.289 85.5559 142.438 84.9066C142.416 84.8737 142.383 84.8465 142.342 84.8294C142.322 84.8259 142.301 84.8203 142.279 84.8203C142.252 84.8203 142.224 84.8274 142.197 84.8381C142.172 84.8673 142.142 84.8924 142.114 84.9175C139.256 87.6217 136.108 86.4121 135.092 85.9035C135.056 85.886 135.023 85.8697 134.992 85.8522Z" fill="#ABB1B9"/>
<path d="M141.965 91.968C141.981 91.9458 141.995 91.9295 142.017 91.914C142.049 91.8939 142.085 91.8772 142.125 91.8772C142.176 91.8772 142.224 91.898 142.259 91.9318C142.26 91.9351 142.264 91.9378 142.267 91.9402C145.995 95.4937 149.906 92.6134 150.72 91.9402L150.8 91.8641C150.822 91.855 150.847 91.8517 150.873 91.8517C150.902 91.8517 150.929 91.855 150.952 91.8641L151.032 91.9402C151.845 92.6134 155.754 95.4937 159.484 91.9402C159.484 91.9378 159.488 91.9351 159.491 91.9318C159.525 91.898 159.571 91.8772 159.623 91.8772C159.664 91.8772 159.701 91.8939 159.731 91.914C159.754 91.9295 159.769 91.9458 159.786 91.968C160.509 92.6789 163.631 95.3672 166.935 92.4964C166.97 92.4612 166.993 92.4151 166.993 92.3585V90.9939C166.993 90.8852 166.906 90.7986 166.798 90.7986C166.784 90.7986 166.771 90.804 166.756 90.8067C166.725 90.8215 166.693 90.8386 166.657 90.8563C165.643 91.3653 162.492 92.5719 159.635 89.8714C159.608 89.8459 159.58 89.8204 159.552 89.7929C159.525 89.7782 159.5 89.7734 159.468 89.7734C159.448 89.7734 159.427 89.7782 159.409 89.7882C159.366 89.7989 159.333 89.8261 159.31 89.8614C158.459 90.5098 154.548 93.1575 151.066 89.9093L151.015 89.8583C150.979 89.8235 150.929 89.8037 150.873 89.8037C150.822 89.8037 150.771 89.8235 150.737 89.8583L150.683 89.9093C147.203 93.1575 143.289 90.5098 142.438 89.8614C142.416 89.8261 142.383 89.7989 142.342 89.7882C142.322 89.7782 142.301 89.7734 142.279 89.7734C142.251 89.7734 142.224 89.7782 142.198 89.7929C142.171 89.8204 142.142 89.8459 142.113 89.8714C139.255 92.5719 136.108 91.3653 135.092 90.8563C135.056 90.8386 135.023 90.8215 134.992 90.8067C134.977 90.804 134.967 90.7986 134.954 90.7986C134.846 90.7986 134.758 90.8852 134.758 90.9939V92.3585C134.758 92.4151 134.779 92.4612 134.815 92.4964C138.116 95.3672 141.242 92.6789 141.965 91.968Z" fill="#ABB1B9"/>
<path d="M140.145 66.0234H140.969V70.2533H141.952V70.9258H140.145V66.0234Z" fill="#ABB1B9"/>
<path d="M142.337 66.0234H143.161V70.9258H142.337V66.0234Z" fill="#ABB1B9"/>
<path d="M143.711 66.0234H145.642V66.6959H144.535V68.0986H145.36V68.7638H144.535V70.9258H143.711V66.0234V66.0234Z" fill="#ABB1B9"/>
<path d="M146.01 66.0234H147.977V66.6959H146.834V68.0986H147.652V68.7638H146.834V70.2533H147.977V70.9258H146.01V66.0234Z" fill="#ABB1B9"/>
<path d="M149.519 66.0234H150.712C151.536 66.0234 151.811 66.4066 151.811 67.1008V67.5996C151.811 68.0118 151.659 68.2721 151.319 68.3806C151.731 68.4745 151.934 68.7494 151.934 69.1976V69.8484C151.934 70.5426 151.623 70.9258 150.799 70.9258H149.519V66.0234ZM150.343 68.0913H150.632C150.9 68.0913 151.023 67.9541 151.023 67.6937V67.0935C151.023 66.8259 150.9 66.6959 150.625 66.6959H150.343V68.0913ZM150.343 68.7205V70.2533H150.704C150.979 70.2533 151.11 70.1161 151.11 69.8557V69.1181C151.11 68.8577 150.987 68.7205 150.698 68.7205H150.343Z" fill="#ABB1B9"/>
<path d="M152.289 66.0234H154.256V66.6959H153.113V68.0986H153.931V68.7638H153.113V70.2533H154.256V70.9258H152.289V66.0234Z" fill="#ABB1B9"/>
<path d="M154.755 66.0234H155.579V70.2533H156.563V70.9258H154.755V66.0234Z" fill="#ABB1B9"/>
<path d="M156.882 69.6636V67.2919C156.882 66.5255 157.258 65.9688 158.126 65.9688C159.001 65.9688 159.377 66.5255 159.377 67.2919V69.6636C159.377 70.4229 159.001 70.9869 158.126 70.9869C157.258 70.9869 156.882 70.4229 156.882 69.6636ZM158.552 69.7938V67.1619C158.552 66.8653 158.422 66.6556 158.126 66.6556C157.837 66.6556 157.706 66.8653 157.706 67.1619V69.7938C157.706 70.0903 157.837 70.2998 158.126 70.2998C158.422 70.2998 158.552 70.0903 158.552 69.7938Z" fill="#ABB1B9"/>
<path d="M161.562 67.8962L161.1 70.9258H160.326L159.668 66.0234H160.463L160.847 69.1326H160.854L161.266 66.0234H161.939L162.394 69.1326H162.401L162.777 66.0234H163.471L162.835 70.9258H162.054L161.57 67.8962H161.562V67.8962Z" fill="#ABB1B9"/>
<path d="M141.926 75.0915L141.463 78.1211H140.689L140.031 73.2188H140.826L141.21 76.3279H141.217L141.629 73.2188H142.302L142.757 76.3279H142.765L143.14 73.2188H143.835L143.198 78.1211H142.417L141.933 75.0915H141.926V75.0915Z" fill="#ABB1B9"/>
<path d="M143.757 78.1211L144.682 73.2188H145.623L146.555 78.1211H145.709L145.557 77.2245H144.682L144.538 78.1211H143.757ZM144.791 76.5664H145.449L145.123 74.5998H145.116L144.791 76.5664Z" fill="#ABB1B9"/>
<path d="M146.396 73.2188H148.587V73.8912H147.907V78.1211H147.075V73.8912H146.396V73.2188V73.2188Z" fill="#ABB1B9"/>
<path d="M148.971 73.2188H150.938V73.8912H149.795V75.2939H150.612V75.9591H149.795V77.4486H150.938V78.1211H148.971V73.2188Z" fill="#ABB1B9"/>
<path d="M152.203 75.8723V78.1211H151.379V73.2188H152.579C153.411 73.2188 153.715 73.6309 153.715 74.3178V74.9467C153.715 75.4747 153.527 75.7856 153.057 75.8941L153.845 78.1211H152.977L152.203 75.8723ZM152.203 73.8912V75.4168H152.478C152.76 75.4168 152.883 75.2722 152.883 75.0119V74.2888C152.883 74.0212 152.76 73.8912 152.478 73.8912H152.203V73.8912Z" fill="#ABB1B9"/>
</svg>
