<svg width="36" height="36" viewBox="0 0 36 36" fill="none" xmlns="http://www.w3.org/2000/svg">
<path d="M26.3146 12.6473C25.4575 13.5045 24.3003 13.5473 23.3575 12.6045C22.5003 11.7473 22.5003 10.5473 23.3575 9.69018C24.2575 8.79018 25.4575 8.79018 26.3146 9.64732C27.2575 10.5902 27.2146 11.7473 26.3146 12.6473ZM13.7146 24.0045L13.0717 25.9759C12.6003 27.3902 11.6575 27.8616 10.2003 28.033L7.7146 28.2902L7.97174 25.8045C8.14317 24.3473 8.6146 23.4045 10.0289 22.933L12.0003 22.2902L11.4003 21.9902C10.7146 21.6473 10.0289 21.433 8.9146 21.433C6.5146 21.433 5.22889 22.9759 5.05746 25.5473L4.7146 31.2902L10.4575 30.9473C13.0289 30.7759 14.5717 29.4902 14.5717 27.0902C14.5717 25.9759 14.3575 25.2902 14.0146 24.6045L13.7146 24.0045ZM24.4289 18.433L27.3432 15.5188C29.186 13.6759 30.3003 11.233 30.686 8.66161L31.286 4.71875L27.3432 5.31875C24.7717 5.70446 22.3289 6.81875 20.486 8.66161L17.5717 11.5759H15.2575C14.2717 11.5759 13.5432 11.7902 12.9003 12.3902L9.42889 15.433L14.1432 16.7188L12.4289 19.2902L16.7146 23.5759L19.286 21.8616L20.5717 26.5759L23.6146 23.1045C24.2146 22.4616 24.4289 21.733 24.4289 20.7473V18.433Z" fill="#5FAF2D"/>
</svg>
