<svg viewBox="0 0 115 91" fill="none" xmlns="http://www.w3.org/2000/svg">
<path d="M27.4978 36.4051C38.0164 26.9763 48.824 17.7698 58.364 7.31795C59.3425 6.18381 60.2987 5.04968 61.0548 3.78212C61.2772 3.33736 61.5885 2.84813 61.5663 2.38113C61.5663 2.38113 61.5218 2.31442 61.5885 2.40337C61.633 2.49232 61.7887 2.55903 61.8332 2.5368C61.8776 2.5368 61.8776 2.5368 61.8554 2.5368C61.7442 2.58127 61.6108 2.64799 61.4996 2.75918C60.3432 3.64869 59.3647 4.80506 58.3863 5.89472C49.2465 16.6801 41.0185 28.2216 32.7015 39.6519C22.2274 54.5068 11.4865 69.2728 2.45795 85.0617C1.79081 86.3737 1.01248 87.708 0.701154 89.1312C0.678916 89.2424 0.678916 89.3313 0.701154 89.3758C0.701154 89.3981 0.701155 89.3758 0.723393 89.3981L0.745629 89.4203C0.767867 89.4203 0.856821 89.4203 0.945772 89.3758C1.03472 89.3313 1.12367 89.2869 1.23486 89.2202C2.01319 88.6642 2.68033 87.8636 3.30299 87.1298C5.19321 84.7726 6.83881 82.2375 8.46218 79.6801C12.7541 72.8308 16.6235 65.7147 20.0926 58.4207C21.7827 54.7736 23.4505 51.0599 24.6069 47.235C24.8738 46.2565 26.2747 41.6533 24.429 41.7867C19.8258 41.7867 16.0898 46.4789 14.9557 50.6151C14.1329 53.8174 15.0446 56.2413 18.8028 55.7076C25.5187 54.7514 34.7029 48.9695 38.5056 43.3211C39.5285 41.7645 40.3513 39.8965 40.1067 38.0063C39.9733 37.1167 39.6175 36.1605 39.0171 35.8047C37.5271 35.0709 35.4368 36.8721 34.3249 37.8284C32.1233 39.852 30.2998 42.2537 28.7876 44.8333C27.7647 46.6123 25.3185 51.1933 27.1198 52.8834C29.099 54.3066 33.5021 52.1051 35.4145 51.0599C38.9281 49.0807 42.1526 46.5901 45.1325 43.8771C47.6676 41.4754 50.1805 38.8958 51.7816 35.7825C52.1819 34.9374 52.7379 33.4475 51.3369 33.3808C50.1805 33.3141 49.1576 33.9812 48.2013 34.6483C44.3986 37.4948 39.3951 44.5887 38.5945 49.2809C38.5278 49.8813 38.4834 50.5262 38.9281 50.882C39.4396 51.1711 40.0845 50.971 40.6849 50.793C41.1297 50.6374 41.5744 50.4595 42.0192 50.2371C47.3118 47.4351 51.9373 43.3656 56.2514 39.2293C57.6747 37.8061 59.0757 36.3607 60.2543 34.7595C60.699 34.1146 61.2327 33.4475 61.3217 32.6914C61.3217 32.6247 61.2994 32.6247 61.2994 32.6247C61.2994 32.6247 61.2772 32.6024 61.2105 32.5802C59.8317 32.4245 57.8303 34.2703 56.8074 35.182C54.6281 37.2279 52.7156 39.5851 51.0923 42.098C50.225 43.5213 48.0901 47.0793 49.202 48.6137C50.2027 49.57 51.8928 48.9251 53.0269 48.4581C56.674 46.7902 59.7873 44.1439 62.7449 41.4754C65.6358 38.7401 68.5712 35.8714 70.6171 32.4245C70.884 31.9353 71.5066 30.8012 71.0619 30.4231C70.1279 30.0673 69.1049 30.8679 68.3711 31.4461C66.8812 32.7359 65.6803 34.3815 64.6351 36.0716C63.3231 38.2953 61.5441 41.7422 61.8332 44.3663C62.3446 47.5018 67.615 44.1662 69.0605 43.2322C72.3962 40.9861 75.3983 38.2509 78.1113 35.2932C78.7784 34.5371 79.4233 33.7811 80.0238 32.9805C80.7354 31.9798 81.4692 30.9791 81.8028 29.8005C81.8695 29.4224 81.914 29.0666 81.5137 28.9554C80.8688 28.7998 80.2017 29.0444 79.6012 29.3557C78.3337 30.0896 77.3552 31.2237 76.4657 32.4023C74.7979 34.7818 73.3524 37.5837 73.1523 40.5191C73.0188 42.9653 74.5755 43.4101 76.6214 42.654C78.4226 41.8979 80.046 40.6526 81.5804 39.4517C87.8293 34.3592 93.322 28.3995 98.5257 22.2618C101.105 19.1707 103.596 15.9907 105.842 12.655C107.51 10.1644 109.111 7.62928 110.201 4.84954C110.623 3.64869 111.068 2.31442 110.623 1.22476C110.645 1.247 110.779 1.29147 110.823 1.26924C110.846 1.26924 110.801 1.26924 110.757 1.31371C109.889 2.04756 109.311 3.15946 108.711 4.13793C107.71 5.87248 106.776 7.65151 105.82 9.43055C99.0594 21.8838 91.632 33.959 84.3824 46.1453C76.9994 58.2427 69.6831 70.4069 61.2772 81.8372C59.4759 84.1499 54.806 90.6434 52.093 90.9992C49.6246 91.0659 52.2264 87.0186 52.7379 86.0624C53.783 84.3056 54.9172 82.6377 56.0958 80.9699C64.346 69.4507 73.4636 58.5541 82.4922 47.6575C91.5652 36.9166 104.663 21.2833 114.048 10.7426C94.5674 34.0479 74.3976 56.8195 56.585 81.3702C54.9172 83.8608 53.0937 86.3292 51.9373 89.0867C51.8483 89.3091 51.7816 89.5315 51.7372 89.7539C51.6927 89.9762 51.6704 90.1986 51.7372 90.3098C51.7594 90.3543 51.7816 90.3765 51.8261 90.3988C51.8706 90.421 51.9595 90.421 52.0707 90.421C52.7379 90.3098 53.3383 89.8651 53.872 89.4425C55.0284 88.4863 56.0291 87.3744 57.0298 86.2403C64.7463 76.8781 71.0841 66.493 77.5554 56.2413C86.028 42.4983 94.1671 28.4884 101.928 14.3006C104.107 10.3201 105.953 6.1171 108.377 2.20323C109.111 1.13581 110.201 -0.687701 111.513 0.268529C113.225 2.13651 111.135 6.31724 110.156 8.20746C108.199 11.8322 105.82 15.1457 103.329 18.3702C98.3256 24.7747 92.8106 30.7789 86.8508 36.2939C84.5825 38.3398 82.2698 40.3635 79.7124 42.0536C77.9779 43.1432 75.7541 44.5664 73.6415 43.588C70.884 41.9424 73.1078 36.7832 74.2419 34.6261C75.4872 32.3801 77.0216 30.134 79.2677 28.7775C80.1794 28.2661 81.9807 27.7546 82.4699 29.0666C82.7813 30.4676 81.2913 32.3356 80.5352 33.403C78.6673 35.8269 76.5102 38.0063 74.2197 40.0299C71.9069 42.0313 69.483 43.9438 66.7255 45.3003C63.9235 46.7235 60.6768 47.146 61.255 42.8986C61.6553 40.3412 62.8339 37.984 64.1237 35.7825C64.6574 34.9152 65.2356 34.0479 65.8582 33.2473C66.8145 32.0465 67.8819 30.8234 69.2829 30.0896C70.3725 29.4669 72.2183 29.5114 71.7957 31.2904C71.3732 32.8248 70.3725 34.0701 69.4385 35.3155C66.2807 39.2961 62.567 42.8541 58.542 45.9452C56.4738 47.4574 54.339 48.9918 51.8261 49.7256C50.0026 50.2593 47.9567 49.7256 48.0457 47.4796C48.1791 45.3448 49.291 43.4768 50.3584 41.6977C51.4481 39.9632 52.6934 38.3176 54.0277 36.7832C55.4064 35.2488 56.8519 33.7811 58.5864 32.6024C59.387 32.091 60.3655 31.5128 61.4106 31.7129C61.8332 31.7796 62.2334 32.2244 62.2112 32.6692C62.1667 33.6921 61.4996 34.5149 60.9659 35.3155C58.4975 38.5844 55.4731 41.3642 52.4043 44.055C50.3584 45.7673 38.0608 56.397 37.4827 49.9925C37.4827 45.2558 43.7093 36.5386 47.5564 33.87C48.4459 33.2473 49.3799 32.6914 50.4918 32.5357C51.8483 32.3134 53.2271 33.0027 52.8935 34.5594C52.1819 37.6727 47.5564 41.8312 45.1992 44.0327C42.1749 46.7458 38.9726 49.2586 35.4812 51.3045C33.2575 52.5276 30.878 53.8174 28.2762 53.7729C24.7626 53.6173 25.7855 49.3698 26.6973 47.2127C28.2539 43.4101 30.6111 39.9187 33.5688 37.0723C34.7252 36.0048 36.0372 34.9152 37.6606 34.5816C39.7732 34.1591 40.9073 35.9826 41.1519 37.8506C42.1304 46.4122 26.3192 55.9745 18.8473 56.7528C14.4442 57.3532 12.8431 54.3289 13.9327 50.3705C14.4887 48.3469 15.5338 46.4789 16.8904 44.8778C18.5804 42.8764 20.8932 41.2085 23.5617 40.9639C26.1413 40.6081 26.2747 42.4538 26.0079 44.4552C25.4964 47.5018 24.3178 50.3705 23.1614 53.1947C19.1364 62.5124 14.244 71.4076 8.8847 80.0137C7.2391 82.571 5.57126 85.1284 3.6588 87.5078C2.99166 88.3084 2.34676 89.109 1.45724 89.7316C1.10143 89.9762 0.612201 90.1764 0.234156 89.8651C-0.699836 89.2202 1.43501 85.6176 1.83529 84.7948C10.8639 68.9614 21.4714 54.0843 31.8787 39.1404C40.129 27.6212 48.3125 16.013 57.519 5.20535C58.1861 4.44926 58.8755 3.69317 59.6094 2.95932C60.0764 2.51456 60.5878 2.00308 61.1883 1.66952C61.3884 1.58056 61.5441 1.46938 61.8109 1.49162C61.9888 1.49162 62.2557 1.6028 62.3891 1.80295C62.5003 2.00309 62.5003 2.04756 62.5448 2.18099C62.8339 3.84883 60.1208 6.73976 59.0757 8.00732C55.0061 12.5439 50.5141 16.6801 45.9998 20.7496C40.0178 26.0645 33.7912 31.5795 27.4978 36.4051Z" fill="#343C4A"/>
</svg>
