<svg xmlns="http://www.w3.org/2000/svg" fill="none" viewBox="0 0 153 81">
  <g clip-path="url(#clip0_645_13620)">
    <path fill="#000" d="M152.704 22.316a31.179 31.179 0 0 0-6.26.13 45.916 45.916 0 0 0-6.16 1.09 85.172 85.172 0 0 0-11.84 4.05 711.436 711.436 0 0 0-23.08 9.67c-5.29 2.32-10.55 4.7-15.77 7.19l.26-.51a156.69 156.69 0 0 1 9.38-15.92 109.864 109.864 0 0 1 11.59-14.31c2.12-2.23 4.32-4.37 6.63-6.41a71.13 71.13 0 0 1 7.23-5.67v-.05a1.46 1.46 0 0 0 .37-.65.687.687 0 0 0-.03-.6.75.75 0 0 0-.43-.26 3.16 3.16 0 0 0-1.28 0 20.07 20.07 0 0 0-2.22.59c-1.43.44-2.85.93-4.26 1.44-2.83 1-5.61 2.12-8.39 3.26-5.53 2.3-11 4.79-16.37 7.42-10.77 5.25-21.29 11-31.62 17.06-10.33 6.06-20.48 12.42-30.52 19s-19.91 13.27-29.7 20.24a.494.494 0 1 0 .52.84 556.415 556.415 0 0 1 40-19.48c6.09-2.65 12.27-5.17 18.5-7.42-.31.42-.6.84-.91 1.25-1.35 1.84-2.76 3.64-4.19 5.42a.88.88 0 0 0-.12-.39.94.94 0 0 0-.9-.32 2.509 2.509 0 0 0-.75.2 9.32 9.32 0 0 0-2.42 1.54 23.65 23.65 0 0 0-3.8 4.14 31.997 31.997 0 0 0-2.94 4.77 9.638 9.638 0 0 0-1 2.7 1.147 1.147 0 0 0 0 .44.53.53 0 0 0 .18.27.48.48 0 0 0 .33.09 1.47 1.47 0 0 0 .75-.37c.355-.311.69-.645 1-1 2.95-3.44 5.87-6.88 8.7-10.4.05.01.1.01.15 0h.14a.932.932 0 0 0 .2-.08c.22-.102.433-.215.64-.34.41-.23.8-.48 1.2-.73l2.51-1.5 4.64-3.06a103.532 103.532 0 0 1 9.5-5.72c.82-.4 1.67-.76 2.52-1.12.85-.36 1.69-.66 2.61-1.14a1.5 1.5 0 0 0 .13-.11c0-.09 0 .08.13-.25s-.16-.34-.26-.41a.67.67 0 0 0-.34 0 2.15 2.15 0 0 0-.38.06l-.69.14-1.36.33-2.69.74c-1.8.49-3.59 1-5.36 1.58-1.77.58-3.55 1.09-5.3 1.74l-.59.21a81.743 81.743 0 0 0 8.82-15.89c7.57-4.29 15.25-8.39 23.06-12.23 5.36-2.63 10.79-5.13 16.31-7.44 2.76-1.14 5.53-2.24 8.34-3.26 1.4-.5 2.81-1 4.23-1.44a21.51 21.51 0 0 1 2.08-.59 2.89 2.89 0 0 1 .95 0 1.308 1.308 0 0 1-.15.23 72.014 72.014 0 0 0-7.2 5.67 105.436 105.436 0 0 0-6.67 6.47 110.463 110.463 0 0 0-11.68 14.44 156.227 156.227 0 0 0-9.39 16c-.21.41-.41.83-.62 1.24-2 1-4 1.94-6 3-3.73 1.87-7.36 3.93-11 6a613.2 613.2 0 0 0-9.48 5.66c-1.15.48-2.3 1-3.44 1.49-3.8 1.73-7.52 3.63-11.2 5.6-1.84.986-3.67 1.986-5.49 3-1.81 1-3.64 2.06-5.37 3.22-1.73 1.16-3.5 2.29-5.21 3.49-.85.6-1.7 1.22-2.52 1.88a8.593 8.593 0 0 0-1.18 1.1.74.74 0 0 0-.22.51.4.4 0 0 0 .32.33.772.772 0 0 0 .26 0c.303-.009.603-.063.89-.16a41.008 41.008 0 0 0 5.62-2.83c1.81-1 3.6-2.12 5.37-3.24a1234.57 1234.57 0 0 1 21.16-13.33l.14-.08c1.15-.5 2.3-1 3.48-1.4a30.356 30.356 0 0 1 6-1.67 16 16 0 0 1 6.09.09 9.38 9.38 0 0 1 2.78 1.17 6.24 6.24 0 0 1 2.08 2.07.42.42 0 0 0 .16.13.298.298 0 0 0 .39-.18c2.09-5.42 4.52-10.72 7.14-15.91 5.31-2.56 10.68-5 16.07-7.39a994.711 994.711 0 0 1 23.05-9.73c3.83-1.64 7.774-3 11.8-4.07a47.309 47.309 0 0 1 6.14-1.11 31.663 31.663 0 0 1 6.23-.14h.06a.06.06 0 0 0-.003-.033.064.064 0 0 0-.017-.028.062.062 0 0 0-.028-.017.067.067 0 0 0-.032-.003Zm-108.48 39.13a9.369 9.369 0 0 1-1 .91 1.301 1.301 0 0 1-.47.27.854.854 0 0 1 0-.24c.19-.882.506-1.73.94-2.52a31.679 31.679 0 0 1 2.91-4.67 23.42 23.42 0 0 1 3.73-4 8.88 8.88 0 0 1 2.26-1.43c.37-.18.91-.22 1-.09.09.13-.07.64-.29 1l-.09.14v.1a.506.506 0 0 0 0 .1.561.561 0 0 0-.19 0c-2.85 3.54-5.83 7-8.8 10.43Zm17.18-19.21c1.74-.65 3.51-1.18 5.27-1.76 1.76-.58 3.54-1.1 5.32-1.59l1.83-.51c-.68.29-1.35.58-2 .91a105.913 105.913 0 0 0-9.54 5.81l-4.63 3.09-2.32 1.52c-.39.25-.78.5-1.18.73a1.275 1.275 0 0 0-.16.09c1.58-2 3.13-4 4.63-6.07l1.14-1.62c.53-.2 1.08-.41 1.64-.6Zm-1.31-.4c-6.67 2.32-13.23 5-19.72 7.75-11.29 4.85-22.35 10.18-33.26 15.85a899.74 899.74 0 0 1 23.34-15.77c10-6.52 20.14-12.93 30.45-19a481.214 481.214 0 0 1 8.31-4.81 82.816 82.816 0 0 1-9.12 15.98Zm-20.33 31.73a137.58 137.58 0 0 1-5.35 3.21 41.092 41.092 0 0 1-5.55 2.78c-.225.084-.46.138-.7.16a.467.467 0 0 1 .06-.09 9.074 9.074 0 0 1 1.11-1 50.4 50.4 0 0 1 2.5-1.85c1.71-1.19 3.45-2.34 5.2-3.47 1.75-1.13 3.54-2.16 5.36-3.19 1.82-1.03 3.64-2 5.48-3 3.62-1.94 7.29-3.8 11-5.5-6.4 3.92-12.77 7.903-19.11 11.95Zm42.14-13.55a8.61 8.61 0 0 0-4.88-3 16.598 16.598 0 0 0-6.32-.08 27.057 27.057 0 0 0-3.09.7c-1 .33-2 .62-3 1l-.34.14c2.53-1.54 5.08-3.08 7.64-4.58 3.57-2.18 7.19-4.18 10.91-6.09 1.87-1 3.75-1.89 5.64-2.81-2.44 4.82-4.62 9.72-6.56 14.72Z"/>
  </g>
  <defs>
    <clipPath id="clip0_645_13620">
      <path fill="#fff" d="M0 0h153v81H0z"/>
    </clipPath>
  </defs>
</svg>
