<svg viewBox="0 0 108 77" fill="none" xmlns="http://www.w3.org/2000/svg">
<path d="M5.6695 29.5949C4.96226 30.65 3.67532 31.2877 2.39997 31.1949H2.38838V31.1833C2.31881 30.4761 2.60867 29.792 2.94489 29.2007C3.30431 28.5978 3.7101 28.0413 4.09271 27.4616C4.86951 26.3138 5.6695 25.166 6.46949 24.0414C8.08107 21.7689 9.75061 19.5545 11.4549 17.3516C13.1709 15.1603 14.9332 13.0038 16.7418 10.9053C17.6578 9.86181 18.5157 8.77197 19.5708 7.80966C20.0925 7.3343 20.6722 6.90532 21.3331 6.60388C21.994 6.30243 22.7476 6.1749 23.478 6.31402L23.6867 6.34881L23.6287 6.5575C23.0838 8.44733 22.1795 10.1864 21.2172 11.8676C20.2432 13.5487 19.2462 15.1951 18.2375 16.853C16.2085 20.1458 14.11 23.3921 12.0115 26.6384C9.91293 29.8848 7.80281 33.1311 5.77385 36.4122C4.75357 38.0586 3.75648 39.7049 2.78258 41.3745C1.84346 43.044 0.660862 44.6788 0.579704 46.5339L0.208693 46.2556C1.171 45.9426 2.00577 45.2933 2.74779 44.5745C3.48982 43.844 4.19705 43.0325 4.92748 42.2556L9.31004 37.5832C12.2433 34.476 15.1766 31.3804 18.0172 28.2036L26.4925 18.6153C29.2287 15.311 32.7648 12.6908 34.8982 9.0966L35.501 9.52558C31.4431 14.2792 27.362 19.0211 23.6403 24.0182C21.7853 26.5225 20.0346 29.0964 18.4462 31.7746C17.6462 33.1079 16.9158 34.476 16.2201 35.8673C16.0346 36.2267 15.8607 36.5282 15.8143 36.8528C15.7911 37.0151 15.7795 37.1774 15.8027 37.2818C15.8375 37.3977 15.8723 37.4325 15.9418 37.4557C16.0578 37.5369 16.4056 37.3629 16.7418 37.1658C17.0781 36.9919 17.4027 36.7832 17.7389 36.5861C20.3476 34.9514 22.5505 32.7137 24.7997 30.5456C27.0838 28.4007 29.333 26.2558 31.4779 23.9834C33.646 21.7341 35.7097 19.3921 37.8199 17.0849C38.8865 15.9255 39.8836 14.7661 40.9966 13.6183C41.5416 13.0618 42.0865 12.5053 42.5618 11.914C43.014 11.3343 43.5126 10.6502 43.4662 10.0473L43.814 10.2908C42.2024 10.6966 40.9387 11.9951 39.7793 13.2589C38.6199 14.569 37.4257 15.8444 36.359 17.2125C34.2257 19.9602 32.2779 22.882 30.7243 25.9892C29.9591 27.5428 29.3098 29.1659 28.8576 30.8355C28.649 31.6703 28.4634 32.5166 28.3707 33.3746C28.3127 33.8036 28.2779 34.2325 28.4866 34.4644C28.6837 34.7079 29.0895 34.6847 29.4721 34.5572C32.5562 33.0963 35.304 30.8007 37.7155 28.308C38.9329 27.0558 40.1155 25.7805 41.2053 24.4124C42.3068 23.0675 43.4314 21.711 44.4285 20.2849C44.5444 20.111 44.672 19.9255 44.7531 19.7516C44.7647 19.7284 44.7647 19.7168 44.7763 19.6936C44.7879 19.6936 44.7531 19.6588 44.7995 19.7516C44.8111 19.7747 44.8343 19.7863 44.8575 19.7979H44.8459L44.8111 19.7863L44.7415 19.7747C44.6488 19.7631 44.556 19.7516 44.4517 19.7631C44.0575 19.7979 43.6865 20.0066 43.3502 20.2617C42.6662 20.7834 42.0285 21.3863 41.3908 21.9776C40.1271 23.1834 38.9097 24.4356 37.7967 25.7805C37.2402 26.4529 36.7184 27.1486 36.2547 27.879C35.7909 28.6094 35.3851 29.3862 35.188 30.2326C35.1068 30.65 35.1068 31.0906 35.2692 31.4732C35.4315 31.8558 35.7677 32.1456 36.1503 32.3195C36.9503 32.6326 37.8315 32.7369 38.701 32.6326C40.4285 32.4239 42.0517 31.6703 43.5705 30.8123C45.0893 29.9427 46.5038 28.9109 47.9299 27.9022C46.5154 28.9341 45.1125 29.9775 43.5937 30.8703C42.0865 31.7514 40.4749 32.5166 38.7126 32.7485C37.8315 32.8645 36.9271 32.7717 36.1039 32.4471C35.6981 32.2616 35.3155 31.9601 35.1416 31.5311C34.9561 31.1137 34.9561 30.6384 35.0373 30.1978C35.2228 29.3167 35.6402 28.5283 36.1039 27.7747C36.5677 27.021 37.0894 26.3138 37.646 25.6297C38.7474 24.2616 39.9532 22.9863 41.2169 21.7689C41.8546 21.166 42.4807 20.5515 43.1879 20.0066C43.5473 19.74 43.9531 19.4849 44.4517 19.4385C44.5676 19.4269 44.6951 19.4385 44.8227 19.4501L44.9154 19.4733L44.9618 19.4849H44.985C45.0198 19.4965 45.0546 19.5197 45.0778 19.5545C45.1589 19.6936 45.1125 19.7284 45.1125 19.7747C45.1009 19.8095 45.0893 19.8443 45.0778 19.8791C44.9734 20.111 44.8575 20.2849 44.7299 20.4704C43.7328 21.9312 42.6314 23.2877 41.53 24.6558C40.4401 26.0355 39.2459 27.3341 38.0286 28.5978C35.5822 31.1253 32.8924 33.4326 29.6344 34.9862C29.4142 35.0673 29.1707 35.1137 28.904 35.1137C28.649 35.1021 28.3475 34.9978 28.162 34.7775C27.7794 34.3021 27.8837 33.7572 27.9301 33.3398C28.0229 32.4587 28.2084 31.5891 28.4287 30.7311C28.8808 29.0152 29.5417 27.3689 30.3069 25.7921C31.8721 22.6269 33.8199 19.6936 35.9648 16.911C37.0431 15.5081 38.2488 14.2328 39.3967 12.9111C39.988 12.2502 40.6024 11.6125 41.2981 11.0328C41.9937 10.4647 42.7937 9.97775 43.7097 9.74587L44.0227 9.66471L44.0459 9.98934C44.0923 10.4995 43.9067 10.9053 43.7097 11.2763C43.501 11.6357 43.2691 11.9719 43.0256 12.285C42.5271 12.9111 41.9705 13.4792 41.4256 14.0357C40.359 15.1371 39.3271 16.3429 38.272 17.4907C36.1735 19.8095 34.1098 22.1631 31.9417 24.424C29.7968 26.708 27.5243 28.8877 25.2635 31.0326C23.0258 33.2007 20.8114 35.4731 18.1099 37.189C17.7737 37.3977 17.4259 37.6064 17.0781 37.7919C16.9042 37.8847 16.7418 37.989 16.5216 38.0818C16.3129 38.1629 16.0114 38.2441 15.6984 38.1282C15.3969 38.0354 15.165 37.7224 15.1071 37.4557C15.0375 37.189 15.0607 36.9456 15.1071 36.7253C15.1766 36.2731 15.3969 35.8789 15.5708 35.5427C16.2665 34.1282 16.9969 32.7369 17.8085 31.392C19.3969 28.679 21.1592 26.0703 23.0142 23.5428C26.7359 18.4878 30.8518 13.7574 34.9329 9.02704L35.5358 9.45602C34.4228 11.3574 32.9156 12.9342 31.4199 14.4647C29.9011 15.9835 28.3939 17.4443 27.0026 19.0675L18.5041 28.6442C15.6404 31.821 12.6955 34.9166 9.75061 38.0006L5.35646 42.6498C4.62603 43.4266 3.9188 44.2266 3.14199 44.9803C2.36519 45.7339 1.46085 46.4295 0.382604 46.7889L0 46.9165L0.0115939 46.5223C0.0463761 45.4904 0.417386 44.5281 0.857961 43.6469C1.31013 42.7658 1.82027 41.9542 2.30722 41.1078C3.29272 39.4383 4.3014 37.7919 5.33327 36.1456C7.38542 32.8644 9.49555 29.6181 11.6173 26.3834C13.7274 23.1486 15.8375 19.9023 17.8781 16.6212C18.8983 14.9748 19.8954 13.3284 20.8693 11.6589C21.8316 9.98934 22.7244 8.27342 23.2693 6.44156L23.42 6.68503C22.1099 6.39518 20.823 7.16039 19.8143 8.05314C18.794 8.96907 17.9128 10.0589 16.9853 11.0908C15.1535 13.1777 13.368 15.311 11.6289 17.4791C9.90134 19.6472 8.2086 21.8617 6.57384 24.0993C5.75066 25.224 4.95067 26.3602 4.16227 27.4964C3.76807 28.0761 3.36228 28.6326 3.00286 29.2239C2.65504 29.8152 2.36519 30.4761 2.42316 31.1717L2.39997 31.1485C3.66373 31.2529 4.96226 30.6384 5.6695 29.5949Z" fill="#343C4A"/>
<path d="M46.1443 24.1346C50.0284 19.1028 54.7587 14.7202 60.0688 11.2188C62.7355 9.4913 65.5064 7.90291 68.4513 6.67394C69.2049 6.40727 69.9933 6.21017 70.8049 6.22177C71.6049 6.22177 72.4513 6.53481 72.973 7.18408C73.4948 7.84494 73.6107 8.71449 73.5527 9.50289C73.4716 10.3029 73.2397 11.0913 72.9035 11.8217C72.231 13.2942 71.2107 14.5347 70.1673 15.7405L66.9789 19.2883L60.6021 26.3723L57.4138 29.92L54.1558 33.3983C51.9762 35.7055 49.7617 38.0011 47.5472 40.2736C43.0951 44.8184 38.5618 49.2822 33.9706 53.6763C29.3329 58.0241 24.6142 62.3023 19.9417 66.6153C17.5765 68.7254 15.4201 71.0674 13.0085 73.1659C11.8027 74.221 10.5274 75.2065 9.14766 76.0297C8.95056 76.134 8.74187 76.2384 8.45202 76.2384C8.31289 76.2384 8.12738 76.1688 8.01144 76.0297C7.8955 75.8905 7.86072 75.7282 7.86072 75.6007C7.88391 75.1369 7.98825 74.7427 8.12738 74.3601C8.41723 73.5833 8.83462 72.8761 9.28679 72.2152C10.1911 70.8819 11.2462 69.6761 12.2085 68.4356L15.223 64.737C17.2171 62.2559 19.2693 59.8212 21.4258 57.4676C30.0054 48.0416 39.7096 39.7402 49.5066 31.6476C59.3268 23.5897 69.1122 15.3695 80.0222 8.73768C82.7468 7.07973 85.541 5.53772 88.4047 4.13483C89.8424 3.43919 91.2801 2.76674 92.7293 2.09428C94.1786 1.43342 95.6858 0.818932 97.2626 0.447922C98.051 0.262416 98.8394 0.100099 99.6626 0.0305343C100.08 -0.00424787 100.497 -0.0274357 100.95 0.0653169C101.17 0.111693 101.436 0.181258 101.668 0.447922C101.912 0.737773 101.854 1.13197 101.773 1.34066C101.587 1.82762 101.309 2.10587 101.089 2.43051C100.857 2.75514 100.625 3.07978 100.381 3.39281C99.9061 4.03049 99.4075 4.65657 98.909 5.28265C96.9032 7.77537 94.7699 10.1406 92.6018 12.471L86.1091 19.4506L79.5584 26.3955C75.1759 30.9983 70.9093 35.7287 66.2832 40.1112C61.7268 44.5518 57.2167 49.0387 52.6138 53.4212C47.9994 57.7922 43.4197 62.1979 38.7589 66.5341C37.5879 67.6124 36.4285 68.6906 35.2343 69.7573L34.33 70.5457C34.1793 70.6732 34.0169 70.8007 33.843 70.9283C33.7967 70.9631 33.7503 70.9978 33.6923 71.0326C33.8083 70.9978 33.3445 71.3109 33.0662 70.9051C32.9967 70.7776 32.9619 70.6384 32.9387 70.4993C32.8807 69.9428 33.1126 69.5254 33.3097 69.1544L33.9358 68.1225C35.6285 65.3979 37.5995 62.8588 39.6864 60.4588C41.7734 58.0473 43.9762 55.7516 46.1791 53.4444C48.3588 51.1372 50.5733 48.83 52.8225 46.5923C57.3442 42.1054 61.9587 37.746 66.6195 33.3983C71.3151 29.0969 76.2426 25.0389 81.4483 21.3636C86.654 17.7231 91.9177 14.0594 97.7959 11.4971C98.5264 11.184 99.2568 10.8594 100.022 10.5811C100.405 10.4536 100.776 10.3145 101.239 10.2565C101.355 10.2449 101.483 10.2449 101.622 10.2681C101.761 10.3029 101.958 10.3724 102.051 10.5695C102.202 10.9406 102.063 11.1724 102.005 11.3811C101.645 12.1811 101.123 12.784 100.613 13.4101C100.092 14.0246 99.5582 14.6275 98.9901 15.184C96.7293 17.4332 94.5264 19.7289 92.2308 21.9317L64.6485 48.2619L61.1934 51.5546C60.034 52.6444 58.8978 53.7343 57.7848 54.8821C56.6718 56.0067 55.6167 57.1893 54.5153 58.3487C53.4022 59.4849 52.2544 60.5864 51.4196 61.9081C51.2225 62.2327 50.9791 62.5921 50.9559 62.882C50.9443 63.0211 51.0023 63.0907 51.095 63.1139C51.1994 63.1371 51.3733 63.0907 51.5356 63.0095C52.2428 62.6617 52.9269 62.2791 53.5993 61.8733C54.9442 61.0501 56.2196 60.111 57.4833 59.1487C58.7471 58.1864 59.9877 57.2009 61.2862 56.2618L65.1818 53.5024C67.7789 51.6705 70.3991 49.8619 73.0658 48.1227C75.744 46.3952 78.4686 44.7489 81.2396 43.1953C84.0106 41.6417 86.8279 40.1576 89.6917 38.7663C91.1177 38.0707 92.567 37.3982 94.0163 36.749C95.4655 36.1113 96.8916 35.3925 98.3756 34.8012C99.8481 34.2099 101.367 33.6765 102.967 33.4794C103.755 33.3983 104.59 33.3983 105.355 33.6881C106.12 33.9896 106.712 34.6852 106.886 35.4736C107.106 36.262 107.036 37.0968 106.828 37.862C106.596 38.6388 106.248 39.3576 105.854 40.0533C105.031 41.4214 104.01 42.6619 102.932 43.8329C100.752 46.1517 98.3177 48.2271 95.8133 50.1749C93.2974 52.1111 90.7004 53.9546 87.9758 55.6125C90.6888 53.9546 93.2742 52.0879 95.7786 50.1401C98.2713 48.1807 100.694 46.1054 102.851 43.775C103.918 42.604 104.926 41.3634 105.738 40.0069C106.12 39.3228 106.468 38.604 106.689 37.8504C106.886 37.0968 106.955 36.2852 106.735 35.5316C106.561 34.7664 106.005 34.1287 105.286 33.8504C104.555 33.5722 103.755 33.5722 102.967 33.6533C101.402 33.8504 99.8945 34.3954 98.4336 34.9867C96.9612 35.578 95.5467 36.2968 94.0974 36.9577C92.6482 37.6069 91.2105 38.291 89.7844 38.9866C86.9323 40.3895 84.1265 41.8735 81.3671 43.4503C78.6077 45.0271 75.8947 46.6735 73.2397 48.4126C70.5846 50.1517 67.9876 51.972 65.3905 53.8154L61.5065 56.5748C60.2311 57.5023 58.979 58.4994 57.7152 59.4617C56.4515 60.4356 55.1645 61.3748 53.7964 62.2211C53.1124 62.6385 52.4167 63.0327 51.6863 63.3805C51.4892 63.4617 51.2689 63.566 50.9791 63.5197C50.666 63.4733 50.4573 63.1139 50.5037 62.8588C50.5269 62.6037 50.6197 62.395 50.724 62.2095C50.8283 62.0356 50.9211 61.8501 51.037 61.6878C51.9066 60.3081 53.0776 59.1951 54.179 58.0589C55.2689 56.9226 56.3355 55.7169 57.4486 54.5922C58.55 53.4444 59.7094 52.343 60.8688 51.2531L64.3122 47.9604L91.8598 21.5723C94.1554 19.3694 96.3467 17.0738 98.5959 14.8362C99.164 14.2796 99.6858 13.6884 100.184 13.0855C100.671 12.4826 101.193 11.8565 101.483 11.1956C101.552 11.0449 101.576 10.8478 101.552 10.8478C101.587 10.8594 101.46 10.8014 101.286 10.8246C100.95 10.871 100.567 10.9985 100.207 11.1261C99.4771 11.3811 98.7582 11.7174 98.0278 12.0304C92.2308 14.5695 86.9903 18.2332 81.7961 21.8738C76.6252 25.5491 71.7209 29.5954 67.0485 33.8852C62.4108 38.2214 57.7964 42.5924 53.2979 47.0793C51.0486 49.3169 48.8574 51.6126 46.6777 53.9314C44.4864 56.2386 42.2951 58.5226 40.2198 60.9226C38.1444 63.311 36.2082 65.8269 34.5503 68.5051C34.1793 69.166 33.5996 69.8964 33.6691 70.4181C33.6807 70.4761 33.6923 70.5341 33.7155 70.5805C33.472 70.3138 33.159 70.4993 33.3329 70.4297L33.4256 70.3602C33.5764 70.2558 33.7271 70.1283 33.8778 70.0008L34.7706 69.224C35.9532 68.1689 37.1126 67.0906 38.2836 66.0124C42.9328 61.6762 47.5009 57.2589 52.1153 52.8763C56.7181 48.4822 61.205 43.9953 65.7499 39.5547C70.3644 35.1838 74.631 30.4766 79.0251 25.8853L85.5758 18.9637L92.0916 11.9956C94.2597 9.6768 96.393 7.3232 98.3756 4.86526C98.8742 4.25078 99.3611 3.6247 99.8365 2.99862C100.08 2.68558 100.312 2.36094 100.544 2.0479C100.764 1.72327 101.042 1.39863 101.135 1.13197C101.448 0.749367 100.463 0.656615 99.7321 0.737773C98.9669 0.807338 98.2017 0.958061 97.4365 1.14357C95.9177 1.50298 94.4568 2.09428 93.0192 2.74355C91.5815 3.40441 90.1322 4.07687 88.7062 4.76092C85.854 6.1522 83.083 7.68262 80.37 9.32898C69.5064 15.9028 59.721 24.0882 49.8892 32.1345C40.0922 40.1692 30.388 48.4358 21.82 57.8154C19.6751 60.1574 17.6229 62.5805 15.6287 65.0501L12.6143 68.737C11.6288 70.0008 10.5853 71.1949 9.69258 72.4935C9.25201 73.1427 8.85781 73.8152 8.59114 74.534C8.45202 74.8819 8.37086 75.2761 8.34767 75.6007C8.35926 75.7514 8.37086 75.7398 8.46361 75.763C8.57955 75.763 8.75346 75.705 8.89259 75.6123C10.2375 74.8123 11.5013 73.85 12.6839 72.8065C15.0722 70.7312 17.2287 68.3892 19.6171 66.2675C24.2895 61.9661 29.0083 57.6994 33.6575 53.3633C38.2604 48.9923 42.7937 44.5286 47.2574 40.0069C49.495 37.746 51.7095 35.462 53.9008 33.1664L57.1819 29.7114L60.3935 26.1868L66.805 19.1376L70.0049 15.6014C71.0368 14.4072 72.0687 13.1782 72.7295 11.7405C73.0658 11.0333 73.2861 10.2681 73.3672 9.4913C73.4368 8.72609 73.3208 7.90291 72.8455 7.28842C72.3701 6.67394 71.5817 6.38409 70.8049 6.37249C70.0281 6.3609 69.2397 6.5464 68.4977 6.81307C65.576 8.00726 62.7934 9.57246 60.1268 11.2884C54.8167 14.7666 50.0631 19.1144 46.1443 24.1346Z" fill="#343C4A"/>
</svg>
