<svg fill="none" xmlns="http://www.w3.org/2000/svg" viewBox="0 0 95 29"><path d="m22.686 23.781-2.664-4.336-2.665 4.336h-3.12l4.034-6.467-4.11-6.027h3.272l2.665 4.042 2.512-4.042h3.12l-4.034 6.174 4.111 6.32h-3.121ZM36.008 19.52c0 2.718-2.131 4.482-4.948 4.482-2.436 0-4.567-1.322-4.72-4.189h2.665c.152 1.25 1.218 1.764 2.36 1.764 1.37 0 1.979-.882 1.979-2.058 0-1.25-.914-1.984-2.284-1.984-1.066 0-1.827.514-2.131 1.029H26.34l.914-7.203h8.373l-.304 2.426h-6.014l-.228 2.425s.609-.735 2.512-.735c2.436-.074 4.415 1.396 4.415 4.042Z" fill="#000"/><path d="M26.643 9.744C25.197 4.38 20.706.631 11.343.631H0l1.522 9.995c1.142 9.114 4.72 11.98 11.114 13.082 0 0 .229 0 .229-.22 0-.074-.076-.147-.152-.147-4.263-1.764-4.796-7.423-5.71-13.23l-.685-4.556h6.47c5.938 0 10.582-.073 13.475 4.336.076.074.076.074.152.074.152.073.228-.074.228-.22 0 .073 0 0 0 0Z" fill="#5FAF2D"/><path d="M51.383 17.241s.685 6.909-6.547 6.909c-3.806 0-6.775-2.793-6.775-6.689 0-3.821 2.969-6.688 6.851-6.688 3.045 0 5.405 1.69 6.318 4.263h-1.674c-.838-1.69-2.512-2.793-4.644-2.793-3.045 0-5.252 2.205-5.252 5.218 0 2.94 2.131 5.219 5.252 5.219 2.665 0 4.644-1.617 4.872-4.19h-5.176v-1.322l6.775.073ZM59.53 13.639v1.543c-.152 0-.38-.073-.685-.073-2.208 0-3.73 1.396-3.73 3.968v4.777h-1.599V13.86h1.599v2.278c.609-1.543 1.903-2.498 3.73-2.498h.685ZM71.173 18.93c0 3.014-2.36 5.292-5.404 5.292-3.045 0-5.405-2.278-5.405-5.292 0-3.013 2.436-5.291 5.405-5.291 2.968 0 5.404 2.205 5.404 5.291Zm-9.287 0c0 2.205 1.675 3.822 3.806 3.822 2.132 0 3.807-1.617 3.807-3.822s-1.675-3.821-3.807-3.821c-2.055 0-3.806 1.543-3.806 3.821ZM82.141 13.86v10.142h-1.598v-1.985c-.686 1.323-1.904 2.205-3.73 2.205-2.36 0-3.73-1.47-3.73-3.895v-6.468h1.598v6.174c0 1.837.914 2.72 2.588 2.72 2.056 0 3.274-1.47 3.274-3.675v-5.219h1.598ZM95 18.93c0 3.087-2.055 5.292-4.948 5.292-1.827 0-3.197-.882-4.034-2.278v6.688h-1.523V13.859h1.599v2.058c.837-1.396 2.207-2.278 4.034-2.278 2.817 0 4.872 2.205 4.872 5.291Zm-1.598 0c0-2.205-1.523-3.821-3.654-3.821-2.132 0-3.806 1.616-3.806 3.821s1.598 3.822 3.806 3.822c2.207 0 3.654-1.617 3.654-3.822Z" fill="#000"/></svg>
