<svg viewBox="0 0 184 33" fill="none" xmlns="http://www.w3.org/2000/svg">
<path d="M62 32.2852L91.2857 2.99944" stroke="#B4BBC5" stroke-linecap="round"/>
<path d="M45.5171 11.7422C44.9891 11.8305 44.4539 11.8682 43.9188 11.855C43.3415 11.855 42.88 11.7526 42.5446 11.5448C42.2092 11.3371 42.0356 10.9616 42.0356 10.4214C42.0261 10.1768 42.0925 9.9353 42.2255 9.72988C42.3517 9.54752 42.5237 9.40164 42.7242 9.30693C42.9435 9.20236 43.1778 9.13276 43.4187 9.10066C43.6712 9.06248 43.9261 9.04314 44.1815 9.04278C44.4462 9.04109 44.7107 9.06044 44.9724 9.10066C45.1564 9.1253 45.3384 9.16299 45.5171 9.21344V11.7363V11.7422ZM47.5205 5.65776C47.4033 5.19953 47.1778 4.77611 46.8631 4.42307C46.523 4.06207 46.1003 3.7891 45.6313 3.62764C45.0183 3.4241 44.3746 3.32869 43.7288 3.34568C43.1364 3.34096 42.5448 3.39064 41.9614 3.49408C41.534 3.56082 41.1123 3.66004 40.7 3.79088L40.9834 5.63996C41.3322 5.52069 41.6907 5.4323 42.0549 5.3758C42.5336 5.2972 43.0181 5.25947 43.5033 5.26302C43.8332 5.25157 44.1624 5.3019 44.4738 5.41142C44.7126 5.49917 44.9258 5.64504 45.0941 5.83584C45.2507 6.01852 45.3629 6.23486 45.4221 6.46803C45.4865 6.7141 45.5184 6.96755 45.5171 7.22191V7.60181C45.2239 7.52896 44.9266 7.47444 44.6267 7.43857C43.845 7.35039 43.0543 7.38898 42.2849 7.55284C41.8202 7.64759 41.377 7.82719 40.9775 8.08263C40.6068 8.3221 40.301 8.64936 40.0871 9.03536C39.8549 9.47711 39.7414 9.97159 39.7576 10.4704C39.7432 10.9835 39.8446 11.4933 40.0544 11.9618C40.2376 12.3518 40.5157 12.6896 40.8632 12.9442C41.2395 13.2092 41.6656 13.3949 42.1157 13.4903C42.6461 13.6088 43.1884 13.6661 43.7318 13.661C44.535 13.6671 45.3376 13.6135 46.1329 13.5007C46.8393 13.3929 47.3691 13.3014 47.7223 13.2262V7.24713C47.7271 6.70939 47.6602 6.1734 47.5234 5.65331L47.5205 5.65776Z" fill="#00853F"/>
<path d="M27.9378 11.7394C27.4088 11.8276 26.8727 11.8654 26.3365 11.8521C25.7593 11.8521 25.2977 11.7497 24.9638 11.542C24.6299 11.3342 24.4563 10.9588 24.4563 10.4186C24.4464 10.1742 24.5122 9.93263 24.6448 9.72704C24.7707 9.54507 24.9421 9.39925 25.1419 9.3041C25.362 9.20007 25.5967 9.1305 25.8379 9.09782C26.0909 9.05959 26.3463 9.04025 26.6022 9.03994C26.866 9.03818 27.1295 9.05754 27.3902 9.09782C27.5751 9.12268 27.7581 9.16036 27.9378 9.2106V11.7334V11.7394ZM29.2823 4.41132C28.9422 4.05033 28.5195 3.77736 28.0506 3.6159C27.4375 3.41247 26.7938 3.31707 26.1481 3.33393C25.5556 3.32942 24.964 3.37909 24.3806 3.48233C23.9533 3.54926 23.5316 3.64848 23.1192 3.77914L23.4027 5.62821C23.7515 5.50931 24.11 5.42093 24.4741 5.36406C24.9533 5.28546 25.4384 5.24773 25.924 5.25127C26.2534 5.23984 26.5821 5.29017 26.893 5.39967C27.1319 5.48743 27.3451 5.63329 27.5134 5.8241C27.6698 6.00705 27.7825 6.22325 27.8428 6.45629C27.9065 6.7025 27.9384 6.95584 27.9378 7.21016V7.59007C26.8796 7.32853 25.7757 7.31178 24.7101 7.54109C24.2455 7.6362 23.8024 7.81578 23.4027 8.07089C23.0317 8.31003 22.7258 8.63736 22.5123 9.02362C22.2794 9.46513 22.1658 9.95978 22.1828 10.4587C22.1683 10.9718 22.2698 11.4816 22.4796 11.9501C22.6629 12.3404 22.9415 12.6783 23.2899 12.9325C23.6656 13.1974 24.0912 13.3832 24.5409 13.4786C25.0713 13.5971 25.6135 13.6544 26.157 13.6493C26.9597 13.6554 27.7618 13.6018 28.5566 13.489C29.266 13.3812 29.7963 13.2896 30.1475 13.2145V7.24429C30.153 6.7065 30.0861 6.17042 29.9486 5.65047C29.8314 5.19224 29.606 4.76882 29.2912 4.41578L29.2823 4.41132Z" fill="#00853F"/>
<path d="M30.9192 5.47578H34.0801V13.4419H36.3581V5.47578H39.5368V3.57031H30.9192V5.47578Z" fill="#00853F"/>
<path d="M11.2249 13.441H13.9287C15.3133 10.8366 15.9841 8.34936 16.3773 5.60692H18.2219V13.441H20.5548V3.56641H14.1587C13.9762 6.66798 13.016 10.4121 11.2249 13.441Z" fill="#00853F"/>
<path d="M8.53588 11.3011C7.86975 11.4902 7.17862 11.5762 6.48646 11.5563C5.86622 11.5732 5.24979 11.4542 4.68043 11.2076C4.19302 10.9861 3.76674 10.6495 3.43831 10.2267C3.09952 9.7797 2.85332 9.26963 2.71412 8.72633C2.55117 8.10347 2.47182 7.46169 2.47816 6.8179C2.46388 6.12018 2.56414 5.42484 2.77496 4.75958C2.94738 4.21625 3.23202 3.71522 3.61046 3.28893C3.96439 2.90113 4.40322 2.60045 4.89264 2.4104C5.39546 2.21069 5.93209 2.10991 6.47311 2.1136C7.08785 2.10874 7.69993 2.19475 8.28953 2.36884C8.74027 2.49229 9.17322 2.67335 9.57765 2.90754L10.2736 0.962006C10.1861 0.91155 10.0347 0.829928 9.82102 0.717144C9.56211 0.586239 9.29192 0.478955 9.01373 0.396598C8.63627 0.283337 8.25281 0.191188 7.8651 0.120575C7.38056 0.0359097 6.88929 -0.0043275 6.39742 0.0003681C5.54238 -0.00731313 4.69355 0.146242 3.89539 0.452991C3.1305 0.747857 2.43773 1.2033 1.86378 1.7886C1.26853 2.40243 0.804503 3.13103 0.499978 3.93002C0.152463 4.85962 -0.016699 5.8464 0.00135164 6.83867C-0.0158134 7.82502 0.130616 8.80738 0.434684 9.74584C0.693643 10.5391 1.11631 11.2692 1.67531 11.8887C2.22191 12.481 2.89858 12.9382 3.65201 13.2244C4.49378 13.5377 5.38652 13.6917 6.28464 13.6785C6.75693 13.6806 7.22886 13.6518 7.69741 13.5924C8.09772 13.5437 8.49433 13.4683 8.88462 13.3668C9.19342 13.2842 9.49759 13.1851 9.7958 13.07C10.0095 12.9939 10.214 12.8944 10.4057 12.7732L9.7676 10.8277C9.37306 11.0206 8.96364 11.1813 8.5433 11.3085L8.53588 11.3011Z" fill="#00853F"/>
<path d="M55.4569 5.6533C57.5746 2.49979 61.1362 0.963838 64.4129 1.45801C62.543 0.247238 60.2723 -0.180536 58.09 0.266851C55.9078 0.714238 53.9886 2.00098 52.7459 3.84985C51.5033 5.69872 51.0367 7.96174 51.4466 10.1514C51.8565 12.341 53.1102 14.2819 54.9375 15.5561C53.2502 12.6905 53.3363 8.80533 55.4569 5.65033V5.6533Z" fill="#82C341"/>
<path d="M67.8607 6.32215L67.8474 6.27763C67.8236 6.18859 67.7984 6.09955 67.7702 6.01051C67.7628 5.98232 67.7539 5.95412 67.745 5.92592C67.7109 5.81907 67.6752 5.71371 67.6381 5.60834L67.6292 5.58312C67.5867 5.46737 67.5422 5.3531 67.4957 5.24031C67.4853 5.21805 67.4749 5.19579 67.466 5.17204C67.4289 5.08746 67.3918 5.00139 67.3532 4.91828C67.3354 4.8797 67.3161 4.84111 67.2968 4.80104C67.2642 4.73426 67.2315 4.66748 67.1974 4.60219C67.1633 4.53689 67.1529 4.51463 67.1291 4.47308C67.1054 4.43153 67.0638 4.35139 67.0297 4.29203C66.9956 4.23267 66.9792 4.20299 66.9525 4.15996C66.9258 4.11692 66.8813 4.04272 66.8457 3.98484L66.767 3.8587L66.6275 3.65391C66.6082 3.6272 66.5919 3.60048 66.5741 3.57526C65.9275 3.42102 65.2651 3.34332 64.6004 3.34375C64.4253 3.34375 64.2502 3.34375 64.078 3.36156H64.0409C62.6527 3.45896 61.3097 3.89532 60.1293 4.6324C58.949 5.36949 57.9674 6.3848 57.2707 7.58938C56.5739 8.79396 56.1832 10.151 56.1328 11.5417C56.0824 12.9324 56.3738 14.3142 56.9815 15.566C56.9548 12.2374 58.9701 8.91916 62.3818 7.25559C63.1662 6.87264 63.9974 6.59424 64.8541 6.42752C64.9647 7.60673 64.8642 8.79621 64.5573 9.94016C63.6031 13.5136 60.8666 16.0854 57.7161 16.7785C59.1446 17.1112 60.6348 17.0687 62.0421 16.6553C63.4493 16.2418 64.7257 15.4714 65.7472 14.4188C66.7686 13.3663 67.5005 12.0674 67.8716 10.6484C68.2428 9.22942 68.2406 7.73855 67.8652 6.32067L67.8607 6.32215Z" fill="#00853F"/>
<path d="M94.867 22.7093H92.918V27.1301H91V16.6406H92.918V21.0305H94.9268L97.9389 16.6406H100.006L96.4261 21.7213L100.141 27.1301H97.9389L94.867 22.7093Z" fill="#D9414A"/>
<path d="M107.172 24.9406C107.398 24.6978 107.573 24.4126 107.687 24.1015C107.801 23.7905 107.853 23.4597 107.838 23.1287C107.852 22.7973 107.801 22.4664 107.687 22.1551C107.572 21.8437 107.398 21.5581 107.172 21.3148C106.952 21.0876 106.687 20.909 106.394 20.7904C106.101 20.6717 105.786 20.6157 105.47 20.6259C105.046 20.62 104.627 20.7258 104.256 20.9327C103.896 21.1397 103.601 21.4431 103.404 21.8088C103.197 22.2177 103.089 22.6695 103.089 23.1277C103.089 23.5859 103.197 24.0377 103.404 24.4466C103.6 24.8127 103.896 25.1162 104.256 25.3226C104.627 25.5311 105.045 25.6377 105.47 25.6314C105.786 25.6417 106.101 25.5855 106.394 25.4665C106.688 25.3475 106.953 25.1684 107.172 24.9406ZM107.77 19.5473C108.379 19.8803 108.88 20.3787 109.218 20.9848C109.577 21.6414 109.758 22.3805 109.742 23.1287C109.757 23.8786 109.576 24.6193 109.218 25.2783C108.882 25.8876 108.38 26.3888 107.77 26.7235C107.128 27.0743 106.406 27.2531 105.675 27.2426C104.597 27.2426 103.743 26.8831 103.112 26.164V30.0464H101.24V19.1266H103.023V20.1763C103.329 19.8035 103.723 19.513 104.17 19.3311C104.647 19.1373 105.159 19.0409 105.675 19.0475C106.404 19.0351 107.123 19.2105 107.765 19.5569" fill="#D9414A"/>
<path d="M115.286 25.5478C115.644 25.3407 115.918 25.0141 116.058 24.6254V23.6972H114.119C113.04 23.6972 112.5 24.0516 112.5 24.7605C112.495 24.9183 112.53 25.0748 112.6 25.216C112.671 25.3571 112.776 25.4784 112.905 25.569C113.238 25.7878 113.633 25.8933 114.03 25.87C114.468 25.8776 114.901 25.7663 115.281 25.5478M116.988 19.8824C117.613 20.4471 117.926 21.2987 117.926 22.4372V27.1281H116.157V26.1633C115.917 26.522 115.575 26.8014 115.176 26.966C114.686 27.1632 114.161 27.2572 113.633 27.242C113.092 27.2538 112.555 27.1492 112.058 26.9352C111.637 26.7547 111.276 26.4591 111.016 26.0823C110.772 25.7163 110.644 25.2852 110.649 24.8454C110.638 24.5133 110.705 24.1831 110.844 23.8815C110.983 23.5798 111.192 23.3151 111.452 23.1087C111.987 22.6752 112.829 22.4578 113.976 22.4565H116.045V22.3369C116.06 22.0985 116.023 21.8596 115.936 21.637C115.849 21.4144 115.715 21.2134 115.543 21.0479C115.207 20.7488 114.711 20.5983 114.051 20.5983C113.601 20.599 113.154 20.6699 112.726 20.8086C112.325 20.9297 111.951 21.1262 111.624 21.3875L110.889 20.0232C111.344 19.6873 111.858 19.4387 112.403 19.29C113.012 19.1175 113.642 19.0317 114.275 19.0353C115.455 19.0353 116.355 19.317 116.977 19.8804" fill="#D9414A"/>
<path d="M121.353 26.71C120.712 26.3767 120.177 25.8699 119.809 25.2474C119.435 24.6036 119.243 23.8696 119.256 23.1248C119.242 22.3798 119.433 21.6453 119.809 21.0022C120.179 20.384 120.714 19.8809 121.353 19.5492C122.044 19.1897 122.815 19.0093 123.593 19.0243C124.314 19.0164 125.025 19.1882 125.662 19.5241C126.246 19.8301 126.719 20.313 127.013 20.9038L125.573 21.7432C125.366 21.394 125.069 21.1069 124.713 20.9115C124.251 20.6713 123.727 20.5804 123.212 20.6513C122.697 20.7221 122.217 20.9513 121.837 21.3071C121.604 21.5474 121.423 21.8331 121.304 22.1464C121.186 22.4597 121.133 22.794 121.149 23.1286C121.133 23.4625 121.185 23.796 121.302 24.1089C121.42 24.4218 121.6 24.7074 121.832 24.9483C122.211 25.3042 122.691 25.5343 123.206 25.6068C123.721 25.6793 124.246 25.5909 124.709 25.3535C125.064 25.157 125.361 24.8701 125.569 24.5218L127.009 25.3612C126.71 25.9494 126.239 26.4326 125.658 26.7467C125.021 27.0855 124.307 27.2562 123.586 27.2426C122.81 27.2555 122.043 27.0758 121.353 26.7197" fill="#D9414A"/>
<path d="M128.332 19.125H130.206V22.3764H134.237V19.125H136.109V27.1272H134.237V23.9664H130.206V27.1272H128.332V19.125Z" fill="#D9414A"/>
<path d="M146.282 19.125H148.154V27.1272H146.282V19.125ZM142.924 25.4194C143.072 25.2894 143.189 25.1272 143.264 24.9452C143.339 24.7631 143.372 24.5663 143.359 24.3697C143.374 24.1835 143.344 23.9963 143.271 23.8243C143.198 23.6523 143.084 23.5004 142.94 23.3818C142.661 23.1708 142.236 23.0608 141.666 23.0518L140.078 23.0364V25.7494L141.666 25.7629C142.216 25.7745 142.631 25.6587 142.924 25.4194ZM144.439 22.4517C144.978 22.9109 145.248 23.5606 145.248 24.4006C145.248 25.2779 144.951 25.9572 144.356 26.4383C143.762 26.9194 142.92 27.1542 141.83 27.1426L138.205 27.1272V19.125H140.078V21.7474L142.101 21.7628C143.119 21.7628 143.899 21.9924 144.439 22.4517Z" fill="#D9414A"/>
<path d="M150.24 19.125H152.113V24.4006L156.534 19.125H158.242V27.1272H156.368V21.8535L151.963 27.1272H150.24V19.125Z" fill="#D9414A"/>
<path d="M166.991 18.8436C166.566 19.2122 166.354 19.7525 166.354 20.4607C166.354 21.1688 166.558 21.6821 166.967 22.0565C167.377 22.4308 167.967 22.6122 168.747 22.6122H171.203V18.2879H168.82C168.021 18.2879 167.409 18.4731 166.985 18.8436M173.121 16.64V27.1295H171.203V24.208H168.401L166.452 27.1295H164.401L166.647 23.8935C165.963 23.658 165.372 23.2089 164.963 22.6122C164.554 21.9814 164.347 21.2409 164.37 20.4896C164.351 19.7628 164.538 19.0455 164.91 18.421C165.276 17.8364 165.808 17.3746 166.439 17.0954C167.168 16.7765 167.958 16.6204 168.754 16.6381L173.121 16.64Z" fill="#D9414A"/>
<path d="M181.235 24.9406C181.46 24.6976 181.636 24.4124 181.75 24.1014C181.865 23.7904 181.917 23.4598 181.903 23.1286C181.917 22.7972 181.865 22.4662 181.751 22.1548C181.636 21.8435 181.461 21.558 181.235 21.3148C181.015 21.0874 180.75 20.9087 180.457 20.79C180.164 20.6714 179.849 20.6155 179.533 20.6259C179.108 20.6195 178.69 20.7253 178.319 20.9327C177.958 21.139 177.662 21.4425 177.464 21.8088C177.258 22.2177 177.15 22.6695 177.15 23.1277C177.15 23.5859 177.258 24.0377 177.464 24.4466C177.661 24.8132 177.958 25.1169 178.319 25.3226C178.689 25.5316 179.108 25.6381 179.533 25.6314C179.849 25.6416 180.164 25.5855 180.456 25.4665C180.749 25.3475 181.014 25.1683 181.233 24.9406M181.833 19.5473C182.441 19.8802 182.942 20.3786 183.278 20.9848C183.637 21.6414 183.818 22.3805 183.803 23.1286C183.818 23.8786 183.637 24.6193 183.278 25.2782C182.944 25.8877 182.443 26.389 181.833 26.7235C181.193 27.0729 180.473 27.2516 179.743 27.2426C178.665 27.2426 177.812 26.8831 177.183 26.1639V30.0464H175.309V19.1266H177.092V20.1763C177.398 19.8035 177.792 19.513 178.238 19.3311C178.716 19.1377 179.228 19.0413 179.743 19.0475C180.473 19.0352 181.193 19.2106 181.835 19.5569" fill="#D9414A"/>
<path d="M154.255 18.0956C154.683 18.095 155.107 18.0095 155.502 17.8438C155.897 17.6782 156.255 17.4358 156.555 17.1308L155.413 16C155.107 16.3096 154.69 16.4852 154.255 16.4882C153.821 16.4876 153.404 16.3148 153.097 16.0077L151.939 17.1481C152.241 17.4499 152.599 17.6891 152.993 17.8517C153.387 18.0143 153.809 18.0972 154.236 18.0956H154.255Z" fill="#D9414A"/>
<path d="M109.737 30.3884H108.533V32.2138H108.139V30.043H109.737V30.3884Z" fill="#D9414A"/>
<path d="M111.213 31.8356C111.321 31.769 111.405 31.6687 111.45 31.55V31.247H110.839C110.507 31.247 110.339 31.359 110.339 31.5828C110.337 31.6331 110.348 31.6831 110.37 31.7282C110.392 31.7733 110.425 31.8122 110.466 31.8414C110.571 31.9102 110.695 31.9434 110.819 31.9359C110.955 31.9391 111.089 31.9043 111.205 31.8356M111.591 30.2436C111.679 30.3299 111.746 30.4341 111.79 30.549C111.833 30.6639 111.851 30.7869 111.842 30.9094V32.2196H111.47V31.934C111.401 32.037 111.304 32.1175 111.19 32.1655C111.053 32.2209 110.906 32.2478 110.758 32.2447C110.55 32.2541 110.346 32.1921 110.179 32.0691C110.111 32.0127 110.057 31.9424 110.019 31.863C109.982 31.7836 109.962 31.697 109.961 31.6091C109.96 31.5213 109.978 31.4343 110.014 31.3541C110.05 31.2739 110.103 31.2025 110.169 31.1448C110.364 31.0129 110.598 30.9516 110.833 30.9711H111.456V30.892C111.461 30.8208 111.45 30.7495 111.424 30.6829C111.398 30.6163 111.359 30.556 111.308 30.5061C111.185 30.4076 111.03 30.3593 110.873 30.371C110.742 30.3702 110.612 30.3917 110.488 30.4347C110.374 30.471 110.269 30.5287 110.177 30.6045L110.013 30.3092C110.132 30.2145 110.268 30.1443 110.414 30.1028C110.574 30.0535 110.741 30.0287 110.908 30.0294C111.158 30.0131 111.405 30.0924 111.599 30.2513" fill="#D9414A"/>
<path d="M112.905 32.0941C112.736 32.0019 112.595 31.8651 112.498 31.6986C112.402 31.5236 112.351 31.3271 112.351 31.1274C112.351 30.9277 112.402 30.7312 112.498 30.5562C112.595 30.3922 112.736 30.2586 112.905 30.1703C113.087 30.0733 113.291 30.0241 113.497 30.0275C113.68 30.0245 113.861 30.0656 114.024 30.1471C114.176 30.2231 114.301 30.3428 114.383 30.4906L114.084 30.6836C114.021 30.5852 113.933 30.5048 113.829 30.4501C113.725 30.3975 113.61 30.371 113.494 30.3729C113.359 30.3702 113.226 30.4028 113.108 30.4675C112.996 30.5296 112.904 30.6228 112.843 30.7357C112.777 30.8581 112.743 30.9958 112.747 31.1351C112.743 31.2757 112.776 31.4147 112.843 31.5384C112.904 31.6509 112.996 31.7439 113.108 31.8066C113.226 31.8705 113.359 31.903 113.494 31.9012C113.61 31.9025 113.725 31.8753 113.829 31.8221C113.933 31.768 114.021 31.6875 114.084 31.5886L114.383 31.7815C114.301 31.93 114.176 32.0503 114.024 32.1269C113.861 32.2101 113.68 32.2518 113.497 32.2485C113.291 32.2519 113.087 32.2028 112.905 32.1057" fill="#D9414A"/>
<path d="M116.481 30.3884H115.686V32.2138H115.292V30.3884H114.497V30.043H116.481V30.3884Z" fill="#D9414A"/>
<path d="M118.376 31.7968C118.486 31.7322 118.577 31.6388 118.638 31.5267C118.7 31.4027 118.733 31.2659 118.733 31.1272C118.733 30.9886 118.7 30.8518 118.638 30.7278C118.577 30.6158 118.486 30.523 118.376 30.4596C118.261 30.3952 118.131 30.3626 117.999 30.365C117.869 30.3631 117.741 30.3964 117.629 30.4615C117.519 30.5254 117.428 30.6181 117.367 30.7297C117.301 30.8517 117.267 30.9886 117.27 31.1272C117.268 31.2662 117.3 31.4034 117.365 31.5267C117.425 31.6397 117.516 31.7333 117.627 31.7968C117.742 31.8603 117.87 31.8937 118.001 31.8937C118.132 31.8937 118.261 31.8603 118.376 31.7968ZM118.598 30.1605C118.76 30.2507 118.893 30.3843 118.984 30.5464C119.076 30.7254 119.124 30.9239 119.124 31.1253C119.124 31.3268 119.076 31.5253 118.984 31.7042C118.893 31.8663 118.76 32 118.598 32.0901C118.424 32.1845 118.23 32.2324 118.032 32.2291C117.885 32.2304 117.74 32.1994 117.606 32.1384C117.476 32.0797 117.362 31.9895 117.276 31.8759V32.999H116.89V30.0409H117.276V30.3843C117.361 30.2665 117.475 30.1727 117.608 30.1123C117.746 30.0495 117.897 30.0178 118.05 30.0196C118.247 30.0169 118.442 30.0655 118.615 30.1605" fill="#D9414A"/>
<path d="M121.006 31.7958C121.116 31.7321 121.205 31.6384 121.264 31.5257C121.326 31.4017 121.359 31.2649 121.359 31.1263C121.359 30.9876 121.326 30.8508 121.264 30.7268C121.206 30.6143 121.116 30.5211 121.006 30.4586C120.89 30.3966 120.761 30.3642 120.63 30.3642C120.499 30.3642 120.37 30.3966 120.255 30.4586C120.144 30.5214 120.053 30.6144 119.993 30.7268C119.929 30.8504 119.896 30.9873 119.896 31.1263C119.896 31.2652 119.929 31.4021 119.993 31.5257C120.053 31.6383 120.144 31.7318 120.255 31.7958C120.37 31.8597 120.499 31.8932 120.63 31.8932C120.762 31.8932 120.891 31.8597 121.006 31.7958ZM120.041 32.093C119.873 32.0006 119.733 31.8638 119.637 31.6974C119.541 31.5225 119.491 31.326 119.491 31.1263C119.491 30.9265 119.541 30.7301 119.637 30.5551C119.733 30.3913 119.873 30.2576 120.041 30.1692C120.22 30.076 120.418 30.0273 120.62 30.0273C120.821 30.0273 121.02 30.076 121.199 30.1692C121.365 30.2582 121.504 30.3918 121.6 30.5551C121.695 30.7305 121.745 30.9268 121.745 31.1263C121.745 31.3257 121.695 31.522 121.6 31.6974C121.505 31.8633 121.366 32 121.199 32.093C121.02 32.1862 120.821 32.2348 120.62 32.2348C120.418 32.2348 120.22 32.1862 120.041 32.093Z" fill="#D9414A"/>
<path d="M122.325 30.043H122.719V30.9653H123.956V30.043H124.349V32.2138H123.956V31.3049H122.719V32.2138H122.325V30.043Z" fill="#D9414A"/>
<path d="M126.42 31.797C126.531 31.7338 126.622 31.64 126.681 31.5268C126.743 31.4028 126.775 31.2661 126.775 31.1274C126.775 30.9887 126.743 30.8519 126.681 30.7279C126.622 30.6148 126.531 30.5215 126.42 30.4597C126.305 30.3977 126.176 30.3653 126.046 30.3653C125.915 30.3653 125.786 30.3977 125.671 30.4597C125.56 30.522 125.469 30.6152 125.409 30.7279C125.345 30.8515 125.312 30.9885 125.312 31.1274C125.312 31.2663 125.345 31.4032 125.409 31.5268C125.469 31.6398 125.56 31.7334 125.671 31.797C125.786 31.8605 125.915 31.8938 126.046 31.8938C126.177 31.8938 126.305 31.8605 126.42 31.797ZM125.465 32.0941C125.296 32.0019 125.156 31.865 125.06 31.6985C124.965 31.5231 124.915 31.3268 124.915 31.1274C124.915 30.9279 124.965 30.7316 125.06 30.5562C125.156 30.3923 125.296 30.2586 125.465 30.1703C125.642 30.074 125.842 30.0249 126.044 30.0275C126.246 30.0243 126.445 30.0735 126.623 30.1703C126.79 30.2592 126.93 30.3928 127.026 30.5562C127.121 30.7316 127.171 30.9279 127.171 31.1274C127.171 31.3268 127.121 31.5231 127.026 31.6985C126.93 31.8645 126.79 32.0012 126.623 32.0941C126.445 32.1909 126.246 32.2401 126.044 32.2369C125.842 32.2395 125.642 32.1904 125.465 32.0941Z" fill="#D9414A"/>
<path d="M130.245 30.043V32.2138H129.888V30.6296L129.077 31.9687H128.906L128.103 30.6257V32.2138H127.742V30.043H128.147L129 31.5095L129.876 30.043H130.245Z" fill="#D9414A"/>
<path d="M133.159 30.043H133.545V32.2138H133.159V30.043ZM132.3 31.8124C132.347 31.7721 132.383 31.7215 132.407 31.6646C132.431 31.6077 132.441 31.546 132.437 31.4844C132.442 31.4255 132.432 31.3662 132.409 31.312C132.385 31.2578 132.348 31.2103 132.302 31.1737C132.18 31.0993 132.039 31.0636 131.897 31.0715H131.405V31.9224H131.897C132.039 31.9352 132.182 31.8977 132.3 31.8163M132.616 30.973C132.69 31.0368 132.747 31.1163 132.785 31.2055C132.823 31.2947 132.841 31.3914 132.836 31.4883C132.842 31.591 132.824 31.6937 132.783 31.7882C132.742 31.8826 132.68 31.9663 132.601 32.0324C132.406 32.1737 132.168 32.242 131.928 32.2254H131.013V30.043H131.399V30.7762H131.978C132.202 30.7658 132.423 30.834 132.603 30.9692" fill="#D9414A"/>
<path d="M135.418 30.043H135.812V30.9653H137.049V30.043H137.442V32.2138H137.049V31.3049H135.812V32.2138H135.418V30.043Z" fill="#D9414A"/>
<path d="M139.283 31.8336C139.392 31.767 139.475 31.6666 139.521 31.548V31.245H138.913C138.581 31.245 138.413 31.3569 138.413 31.5808C138.411 31.6311 138.422 31.681 138.444 31.7262C138.466 31.7713 138.499 31.8102 138.54 31.8393C138.645 31.9082 138.769 31.9413 138.894 31.9339C139.029 31.937 139.163 31.9023 139.279 31.8336M139.665 30.2416C139.75 30.3283 139.815 30.4319 139.856 30.5458C139.898 30.6596 139.914 30.7809 139.905 30.9015V32.2118H139.532V31.9262C139.464 32.0292 139.366 32.1097 139.252 32.1577C139.115 32.2131 138.968 32.24 138.82 32.2368C138.613 32.2463 138.409 32.1843 138.241 32.0612C138.175 32.0042 138.121 31.9333 138.084 31.8535C138.047 31.7738 138.028 31.6869 138.028 31.5991C138.028 31.5113 138.047 31.4244 138.084 31.3447C138.121 31.2649 138.175 31.194 138.241 31.137C138.436 31.0051 138.671 30.9438 138.905 30.9633H139.528V30.8842C139.533 30.813 139.522 30.7416 139.496 30.6751C139.47 30.6085 139.431 30.5482 139.38 30.4982C139.257 30.3998 139.102 30.3515 138.946 30.3632C138.818 30.3634 138.69 30.385 138.569 30.4269C138.456 30.4632 138.351 30.5208 138.259 30.5967L138.095 30.3014C138.213 30.2067 138.35 30.1365 138.496 30.095C138.656 30.0456 138.823 30.0209 138.99 30.0216C139.24 30.0053 139.487 30.0846 139.681 30.2435" fill="#D9414A"/>
<path d="M143.716 30.043V32.2138H140.622V30.043H141.014V31.8703H141.973V30.043H142.367V31.8703H143.322V30.043H143.716Z" fill="#D9414A"/>
<path d="M144.892 30.5236C144.764 30.6403 144.684 30.8006 144.669 30.9732H146.062C146.046 30.8012 145.966 30.6415 145.838 30.5255C145.706 30.4128 145.538 30.3509 145.365 30.3509C145.192 30.3509 145.024 30.4128 144.892 30.5255M146.436 31.2587H144.674C144.694 31.4398 144.785 31.6055 144.927 31.7199C145.079 31.839 145.269 31.9005 145.462 31.8936C145.579 31.8979 145.696 31.8766 145.804 31.8313C145.912 31.786 146.009 31.7177 146.089 31.6312L146.305 31.8839C146.206 32 146.08 32.0901 145.938 32.1464C145.761 32.2138 145.572 32.2442 145.383 32.2356C145.194 32.2269 145.008 32.1795 144.838 32.0962C144.667 32.0095 144.525 31.8756 144.427 31.7103C144.332 31.5349 144.283 31.3386 144.283 31.1391C144.283 30.9397 144.332 30.7433 144.427 30.5679C144.518 30.4066 144.652 30.2732 144.813 30.182C144.984 30.086 145.177 30.0368 145.373 30.0392C145.568 30.036 145.76 30.0853 145.929 30.182C146.091 30.2719 146.225 30.4056 146.315 30.5679C146.409 30.7461 146.456 30.9453 146.452 31.1468C146.454 31.1867 146.454 31.2266 146.452 31.2665" fill="#D9414A"/>
<path d="M148.648 30.3884H147.442V32.2138H147.05V30.043H148.648V30.3884Z" fill="#D9414A"/>
<path d="M150.259 31.797C150.369 31.7328 150.459 31.6392 150.519 31.5268C150.581 31.4028 150.614 31.2661 150.614 31.1274C150.614 30.9887 150.581 30.8519 150.519 30.7279C150.46 30.6157 150.369 30.5227 150.259 30.4597C150.144 30.3977 150.015 30.3653 149.884 30.3653C149.754 30.3653 149.625 30.3977 149.51 30.4597C149.399 30.522 149.308 30.6152 149.248 30.7279C149.184 30.8515 149.151 30.9885 149.151 31.1274C149.151 31.2663 149.184 31.4032 149.248 31.5268C149.308 31.6398 149.399 31.7334 149.51 31.797C149.625 31.8605 149.753 31.8938 149.884 31.8938C150.015 31.8938 150.144 31.8605 150.259 31.797ZM149.294 32.0941C149.126 32.0018 148.986 31.8649 148.891 31.6985C148.796 31.5231 148.746 31.3268 148.746 31.1274C148.746 30.9279 148.796 30.7316 148.891 30.5562C148.986 30.3924 149.126 30.2587 149.294 30.1703C149.472 30.0746 149.671 30.0255 149.873 30.0275C150.075 30.0243 150.274 30.0735 150.452 30.1703C150.619 30.2587 150.758 30.3925 150.853 30.5562C150.949 30.7312 151 30.9277 151 31.1274C151 31.3271 150.949 31.5236 150.853 31.6985C150.758 31.8648 150.619 32.0017 150.452 32.0941C150.274 32.1909 150.075 32.2401 149.873 32.2369C149.671 32.2389 149.472 32.1898 149.294 32.0941Z" fill="#D9414A"/>
<path d="M154.28 30.3884H153.076V32.2138H152.682V30.043H154.28V30.3884Z" fill="#D9414A"/>
<path d="M155.891 31.797C156.002 31.7333 156.092 31.6397 156.152 31.5268C156.214 31.4028 156.246 31.2661 156.246 31.1274C156.246 30.9887 156.214 30.8519 156.152 30.7279C156.093 30.6152 156.002 30.5221 155.891 30.4597C155.776 30.3977 155.648 30.3653 155.517 30.3653C155.386 30.3653 155.258 30.3977 155.143 30.4597C155.031 30.522 154.94 30.6152 154.88 30.7279C154.817 30.8515 154.784 30.9885 154.784 31.1274C154.784 31.2663 154.817 31.4032 154.88 31.5268C154.94 31.6398 155.031 31.7334 155.143 31.797C155.257 31.8605 155.386 31.8938 155.517 31.8938C155.648 31.8938 155.777 31.8605 155.891 31.797ZM154.927 32.0941C154.758 32.0019 154.618 31.865 154.521 31.6985C154.426 31.5231 154.377 31.3268 154.377 31.1274C154.377 30.9279 154.426 30.7316 154.521 30.5562C154.618 30.3923 154.758 30.2586 154.927 30.1703C155.104 30.074 155.303 30.0249 155.505 30.0275C155.707 30.0243 155.907 30.0735 156.084 30.1703C156.252 30.2587 156.391 30.3925 156.486 30.5562C156.582 30.7312 156.632 30.9277 156.632 31.1274C156.632 31.3271 156.582 31.5236 156.486 31.6985C156.391 31.8648 156.252 32.0017 156.084 32.0941C155.907 32.1909 155.707 32.2401 155.505 32.2369C155.303 32.2395 155.104 32.1904 154.927 32.0941Z" fill="#D9414A"/>
<path d="M158.707 31.7968C158.817 31.7322 158.908 31.6388 158.969 31.5267C159.033 31.4031 159.066 31.2662 159.066 31.1272C159.066 30.9883 159.033 30.8514 158.969 30.7278C158.908 30.6158 158.817 30.523 158.707 30.4596C158.592 30.395 158.462 30.3624 158.33 30.365C158.201 30.3631 158.072 30.3964 157.96 30.4615C157.85 30.5254 157.759 30.6181 157.698 30.7297C157.632 30.8519 157.6 30.9888 157.603 31.1272C157.6 31.266 157.632 31.4033 157.696 31.5267C157.756 31.6397 157.847 31.7333 157.958 31.7968C158.073 31.8603 158.201 31.8937 158.332 31.8937C158.463 31.8937 158.592 31.8603 158.707 31.7968ZM158.929 30.1605C159.091 30.2507 159.224 30.3843 159.315 30.5464C159.407 30.7254 159.455 30.9239 159.455 31.1253C159.455 31.3268 159.407 31.5253 159.315 31.7042C159.224 31.8663 159.091 32 158.929 32.0901C158.755 32.1845 158.561 32.2324 158.363 32.2291C158.216 32.2304 158.071 32.1994 157.937 32.1384C157.807 32.0797 157.693 31.9895 157.607 31.8759V32.999H157.221V30.0409H157.597V30.3843C157.683 30.2669 157.797 30.1733 157.929 30.1123C158.068 30.0496 158.219 30.018 158.371 30.0196C158.568 30.0169 158.763 30.0655 158.936 30.1605" fill="#D9414A"/>
<path d="M161.337 31.7958C161.447 31.7316 161.537 31.6381 161.597 31.5257C161.658 31.4014 161.69 31.2647 161.69 31.1263C161.69 30.9878 161.658 30.8512 161.597 30.7268C161.538 30.6146 161.447 30.5216 161.337 30.4586C161.221 30.3966 161.092 30.3642 160.961 30.3642C160.83 30.3642 160.701 30.3966 160.586 30.4586C160.475 30.522 160.385 30.6149 160.324 30.7268C160.26 30.8504 160.227 30.9873 160.227 31.1263C160.227 31.2652 160.26 31.4021 160.324 31.5257C160.385 31.6378 160.476 31.7312 160.586 31.7958C160.701 31.8597 160.83 31.8932 160.961 31.8932C161.093 31.8932 161.222 31.8597 161.337 31.7958ZM160.372 32.093C160.204 32.0006 160.064 31.8638 159.969 31.6974C159.874 31.522 159.824 31.3257 159.824 31.1263C159.824 30.9268 159.874 30.7305 159.969 30.5551C160.064 30.3913 160.204 30.2576 160.372 30.1692C160.551 30.076 160.749 30.0273 160.951 30.0273C161.152 30.0273 161.351 30.076 161.53 30.1692C161.697 30.2582 161.836 30.3918 161.931 30.5551C162.026 30.7305 162.076 30.9268 162.076 31.1263C162.076 31.3257 162.026 31.522 161.931 31.6974C161.836 31.8633 161.697 32 161.53 32.093C161.351 32.1862 161.152 32.2348 160.951 32.2348C160.749 32.2348 160.551 32.1862 160.372 32.093Z" fill="#D9414A"/>
<path d="M163.095 31.4883C163.075 31.6348 163.007 31.7705 162.902 31.8742H164.117V30.3903H163.176L163.156 30.8091C163.149 31.0361 163.127 31.2624 163.089 31.4864M164.843 31.8723V32.7194H164.482V32.2158H162.668V32.7194H162.296V31.8742H162.41C162.548 31.8742 162.645 31.7681 162.697 31.579C162.758 31.3168 162.794 31.0492 162.803 30.7801L162.836 30.0469H164.519V31.8742L164.843 31.8723Z" fill="#D9414A"/>
<path d="M166.435 31.8336C166.543 31.767 166.627 31.6666 166.672 31.548V31.245H166.066C165.733 31.245 165.567 31.3569 165.567 31.5808C165.565 31.6311 165.575 31.681 165.598 31.7262C165.62 31.7713 165.653 31.8102 165.694 31.8393C165.798 31.9085 165.921 31.9418 166.045 31.9339C166.181 31.937 166.314 31.9023 166.431 31.8336M166.817 30.2416C166.901 30.3285 166.966 30.4322 167.007 30.5459C167.049 30.6597 167.065 30.7809 167.056 30.9015V32.2118H166.684V31.9262C166.615 32.0292 166.517 32.1098 166.402 32.1577C166.265 32.2133 166.118 32.2402 165.97 32.2368C165.763 32.2471 165.558 32.185 165.391 32.0612C165.321 32.0068 165.264 31.9365 165.226 31.8561C165.187 31.7756 165.169 31.6872 165.171 31.5981C165.169 31.5105 165.186 31.4235 165.222 31.3436C165.258 31.2637 165.312 31.193 165.38 31.137C165.575 31.0054 165.809 30.9441 166.043 30.9633H166.667V30.8842C166.671 30.8131 166.66 30.7419 166.635 30.6753C166.61 30.6087 166.571 30.5483 166.52 30.4982C166.398 30.3998 166.242 30.3515 166.086 30.3632C165.954 30.3624 165.824 30.3839 165.7 30.4269C165.587 30.4641 165.482 30.5216 165.389 30.5967L165.225 30.3014C165.344 30.2067 165.48 30.1365 165.627 30.095C165.787 30.0457 165.954 30.0209 166.122 30.0216C166.373 30.0053 166.619 30.0846 166.813 30.2435" fill="#D9414A"/>
</svg>
