<svg viewBox="0 0 109 27" fill="none" xmlns="http://www.w3.org/2000/svg">
<path d="M72.2923 18.6512C71.4538 18.7914 70.6038 18.8514 69.7539 18.8303C68.8371 18.8303 68.104 18.6677 67.5714 18.3377C67.0387 18.0077 66.7629 17.4114 66.7629 16.5535C66.7479 16.1651 66.8532 15.7814 67.0646 15.4552C67.265 15.1655 67.5381 14.9339 67.8566 14.7834C68.2049 14.6173 68.5771 14.5068 68.9596 14.4558C69.3606 14.3952 69.7655 14.3645 70.1711 14.3639C70.5916 14.3612 71.0117 14.3919 71.4273 14.4558C71.7196 14.495 72.0086 14.5548 72.2923 14.635V18.6418V18.6512ZM75.4742 8.9877C75.2881 8.25992 74.93 7.58743 74.4301 7.02671C73.89 6.45336 73.2186 6.01982 72.4738 5.76339C71.5002 5.44012 70.4778 5.28858 69.4522 5.31556C68.5113 5.30807 67.5716 5.38697 66.6451 5.55126C65.9663 5.65726 65.2965 5.81485 64.6417 6.02265L65.0919 8.95941C65.6457 8.77 66.2151 8.62962 66.7936 8.53988C67.5539 8.41504 68.3235 8.35511 69.094 8.36075C69.618 8.34257 70.1408 8.42251 70.6354 8.59644C71.0147 8.73581 71.3533 8.96748 71.6206 9.27053C71.8692 9.56066 72.0475 9.90427 72.1415 10.2746C72.2438 10.6654 72.2945 11.0679 72.2923 11.4719V12.0753C71.8268 11.9596 71.3545 11.873 70.8782 11.816C69.6367 11.676 68.3808 11.7373 67.1589 11.9975C66.4209 12.148 65.717 12.4333 65.0824 12.839C64.4937 13.2193 64.008 13.7391 63.6683 14.3521C63.2994 15.0537 63.1191 15.8391 63.145 16.6313C63.122 17.4463 63.2832 18.2559 63.6164 19C63.9073 19.6194 64.349 20.1559 64.9009 20.5603C65.4985 20.9811 66.1753 21.2762 66.8902 21.4277C67.7326 21.6159 68.5938 21.7068 69.4569 21.6987C70.7327 21.7084 72.0074 21.6233 73.2705 21.4442C74.3924 21.2729 75.2338 21.1276 75.7948 21.0082V11.512C75.8024 10.6579 75.6961 9.80665 75.4789 8.98063L75.4742 8.9877Z" fill="#00853F"/>
<path d="M44.3724 18.6497C43.5323 18.7899 42.6807 18.8498 41.8292 18.8288C40.9124 18.8288 40.1794 18.6662 39.6491 18.3362C39.1187 18.0062 38.843 17.4099 38.843 16.552C38.8272 16.1638 38.9318 15.7802 39.1423 15.4537C39.3423 15.1646 39.6146 14.9331 39.9319 14.7819C40.2814 14.6167 40.6542 14.5062 41.0373 14.4543C41.4391 14.3936 41.8448 14.3629 42.2511 14.3624C42.6701 14.3596 43.0886 14.3903 43.5027 14.4543C43.7964 14.4938 44.087 14.5536 44.3724 14.6334V18.6402V18.6497ZM46.5078 7.01105C45.9676 6.4377 45.2963 6.00416 44.5515 5.74772C43.5778 5.42464 42.5554 5.27311 41.5299 5.2999C40.589 5.29272 39.6493 5.37162 38.7228 5.53559C38.044 5.64189 37.3743 5.79947 36.7194 6.00698L37.1695 8.94375C37.7236 8.75491 38.2929 8.61454 38.8713 8.52421C39.6324 8.39938 40.4027 8.33945 41.174 8.34508C41.6972 8.32692 42.2193 8.40687 42.7131 8.58078C43.0924 8.72015 43.431 8.95182 43.6983 9.25486C43.9468 9.54543 44.1257 9.88882 44.2215 10.2589C44.3227 10.65 44.3734 11.0523 44.3724 11.4563V12.0596C42.6917 11.6443 40.9385 11.6177 39.246 11.9819C38.5082 12.1329 37.8044 12.4181 37.1695 12.8233C36.5804 13.2031 36.0945 13.723 35.7554 14.3365C35.3855 15.0377 35.2052 15.8233 35.2321 16.6156C35.2091 17.4306 35.3703 18.2403 35.7035 18.9844C35.9946 19.6043 36.4371 20.141 36.9904 20.5447C37.5871 20.9654 38.2631 21.2605 38.9773 21.412C39.8197 21.6002 40.6809 21.6912 41.544 21.6831C42.819 21.6928 44.0929 21.6077 45.3552 21.4285C46.4819 21.2573 47.3241 21.1119 47.8819 20.9925V11.5105C47.8906 10.6563 47.7844 9.80491 47.5661 8.9791C47.3799 8.25132 47.0218 7.57883 46.5219 7.01812L46.5078 7.01105Z" fill="#00853F"/>
<path d="M49.1064 8.6982H54.1268V21.3503H57.7447V8.6982H62.7933V5.67188H49.1064V8.6982Z" fill="#00853F"/>
<path d="M17.8281 21.3472H22.1225C24.3215 17.2108 25.3869 13.2605 26.0115 8.90487H28.9412V21.3472H32.6463V5.66406H22.4878C22.1979 10.5901 20.673 16.5367 17.8281 21.3472Z" fill="#00853F"/>
<path d="M13.557 17.9488C12.499 18.2491 11.4013 18.3858 10.302 18.3542C9.31694 18.381 8.33791 18.1919 7.43362 17.8003C6.6595 17.4485 5.98248 16.9139 5.46085 16.2423C4.92277 15.5325 4.53175 14.7224 4.31066 13.8595C4.05186 12.8702 3.92584 11.8509 3.9359 10.8284C3.91322 9.72029 4.07246 8.61592 4.40729 7.55933C4.68113 6.6964 5.13322 5.90064 5.73426 5.2236C6.29638 4.60768 6.99335 4.13013 7.77066 3.82828C8.56926 3.5111 9.42156 3.35104 10.2808 3.35689C11.2572 3.34918 12.2293 3.48578 13.1657 3.76228C13.8816 3.95834 14.5692 4.24591 15.2116 4.61786L16.317 1.52789C16.1779 1.44776 15.9375 1.31812 15.5981 1.13899C15.1869 0.931085 14.7578 0.760693 14.3159 0.629891C13.7164 0.450005 13.1074 0.303651 12.4916 0.191501C11.7221 0.057033 10.9418 -0.0068731 10.1606 0.00058463C8.8026 -0.011615 7.45446 0.232267 6.18679 0.719456C4.97197 1.18777 3.87169 1.91112 2.96012 2.84071C2.01472 3.81562 1.27774 4.97282 0.794083 6.24179C0.242148 7.71822 -0.0265219 9.28546 0.00214672 10.8614C-0.0251154 12.428 0.207449 13.9882 0.69038 15.4787C1.10167 16.7386 1.77296 17.8981 2.66079 18.8821C3.52892 19.8228 4.60363 20.5489 5.80025 21.0034C7.13718 21.5011 8.55507 21.7457 9.98148 21.7246C10.7316 21.7279 11.4811 21.6823 12.2253 21.5879C12.8611 21.5105 13.491 21.3908 14.1109 21.2297C14.6013 21.0985 15.0844 20.9411 15.558 20.7583C15.8974 20.6374 16.2223 20.4793 16.5267 20.2869L15.5133 17.1969C14.8866 17.5032 14.2364 17.7586 13.5688 17.9606L13.557 17.9488Z" fill="#00853F"/>
<path d="M88.0792 8.97831C91.4426 3.96979 97.0993 1.53034 102.303 2.31521C99.3336 0.392213 95.7272 -0.287193 92.2613 0.423362C88.7953 1.13392 85.7472 3.17756 83.7736 6.114C81.8 9.05045 81.0589 12.6447 81.7099 16.1223C82.361 19.5999 84.3521 22.6826 87.2543 24.7062C84.5744 20.155 84.7111 13.9845 88.0792 8.97359V8.97831Z" fill="#82C341"/>
<path d="M107.778 10.0429L107.757 9.97219C107.719 9.83078 107.679 9.68936 107.634 9.54795C107.623 9.50316 107.609 9.45838 107.594 9.4136C107.54 9.2439 107.484 9.07655 107.425 8.90921L107.411 8.86914C107.343 8.6853 107.272 8.50382 107.198 8.32469C107.182 8.28933 107.165 8.25397 107.151 8.21626C107.092 8.08192 107.033 7.94522 106.972 7.81323C106.944 7.75194 106.913 7.69066 106.883 7.62702C106.831 7.52096 106.779 7.4149 106.725 7.31119C106.67 7.20749 106.654 7.17213 106.616 7.10614C106.579 7.04015 106.513 6.91287 106.458 6.81859C106.404 6.72431 106.378 6.67718 106.336 6.60883C106.293 6.54047 106.223 6.42262 106.166 6.3307L106.041 6.13037L105.82 5.8051C105.789 5.76268 105.763 5.72025 105.735 5.68019C104.708 5.43523 103.656 5.31182 102.6 5.3125C102.322 5.3125 102.044 5.3125 101.77 5.34079H101.711C99.5067 5.49548 97.3735 6.18852 95.4989 7.35918C93.6242 8.52985 92.0653 10.1424 90.9587 12.0556C89.8521 13.9687 89.2315 16.1241 89.1515 18.3328C89.0714 20.5415 89.5342 22.7361 90.4994 24.7244C90.457 19.4377 93.6577 14.1676 99.0763 11.5254C100.322 10.9172 101.642 10.475 103.003 10.2102C103.179 12.0831 103.019 13.9723 102.532 15.7892C101.016 21.4647 96.6699 25.5493 91.6661 26.65C93.9349 27.1784 96.3017 27.111 98.5368 26.4543C100.772 25.7977 102.799 24.574 104.421 22.9023C106.044 21.2306 107.206 19.1677 107.796 16.914C108.385 14.6603 108.381 12.2925 107.785 10.0405L107.778 10.0429Z" fill="#00853F"/>
</svg>
