<svg width="24" height="24" viewBox="0 0 24 24" fill="none" xmlns="http://www.w3.org/2000/svg">
<path d="M16.2283 4C13.6569 4 12.5712 5.82857 12.114 7.34286L11.9997 7.71429L11.8854 7.34286C11.4283 5.82857 10.3426 4 7.77115 4C4.94258 4 3.14258 5.68571 3.14258 8.65714C3.14258 12.4 6.77115 15.2857 9.97115 18.1714L11.9997 20L14.0283 18.1714C17.2283 15.2857 20.8569 12.4 20.8569 8.65714C20.8569 5.68571 19.0569 4 16.2283 4ZM17.4283 12L17.1997 11.8857C16.4854 11.5429 16.2854 11.1429 16.2854 10.8286C16.2854 10.5714 16.4283 10.2857 16.5712 10.0571C16.7997 9.68571 16.8569 9.28571 16.8569 8.74286C16.8569 7.28571 15.6854 6.91429 15.1426 6.85714C15.1426 6.08571 15.6283 5.71429 16.3997 5.71429C17.9426 5.71429 18.8569 6.94286 18.8569 8.77143C18.8569 10.8286 17.5712 11.9429 17.4283 12Z" fill="white"/>
</svg>
