<svg viewBox="0 0 48 48" fill="none" xmlns="http://www.w3.org/2000/svg">
<path d="M40.2004 6H7.80039L5.40039 13.2C5.41407 15.4355 6.89816 16.8 9.08825 16.8C11.342 16.8 12.8267 15.4355 12.8404 13.2C12.8541 15.4355 14.3382 16.8 16.5283 16.8C18.782 16.8 20.2667 15.4355 20.2804 13.2C20.2941 15.4355 21.7782 16.8 23.9683 16.8C26.222 16.8 27.7067 15.4355 27.7204 13.2C27.7341 15.4355 29.2182 16.8 31.4083 16.8C33.662 16.8 35.1467 15.4355 35.1604 13.2C35.1741 15.4355 36.6582 16.8 38.8483 16.8C41.102 16.8 42.5867 15.4355 42.6004 13.2L40.2004 6Z" fill="#5FAF2D"/>
<path d="M6.60059 39.5969C6.60059 40.9224 7.6751 41.9969 9.00059 41.9969H39.0006C40.3261 41.9969 41.4006 40.9224 41.4006 39.5969V19.7969H6.60059V39.5969ZM28.2006 23.3969H37.8006V33.5969H28.2006V23.3969ZM19.2006 23.3969H24.6006V38.9969H19.2006V23.3969ZM10.2006 23.3969H15.6006V38.9969H10.2006V23.3969Z" fill="#5FAF2D"/>
</svg>
