<svg width="36" height="36" viewBox="0 0 36 36" fill="none" xmlns="http://www.w3.org/2000/svg">
<path d="M28.9714 9.39115L18.5571 4.8483C18.1714 4.67687 17.8285 4.67687 17.4428 4.8483L7.02853 9.39115C6.64281 9.56258 6.42853 9.81973 6.42853 10.2483V13.2912L18 18.0054L29.5714 13.2912V10.2483C29.5714 9.81973 29.3571 9.56258 28.9714 9.39115ZM6.42853 22.7197V26.0626C6.42853 26.4912 6.64281 26.7483 7.02853 26.9197L17.4428 31.1626C17.8285 31.334 18.1714 31.334 18.5571 31.1626L28.9714 26.9197C29.3571 26.7483 29.5714 26.4912 29.5714 26.0626V22.7197L18 27.434L6.42853 22.7197ZM6.42853 15.8626V20.1483L18 24.8626L29.5714 20.1483V15.8626L18 20.5769L6.42853 15.8626Z" fill="#5FAF2D"/>
</svg>
