<svg width="72" height="72" viewBox="0 0 72 72" fill="none" xmlns="http://www.w3.org/2000/svg">
<circle cx="36" cy="36" r="35.5" stroke="#5FAF2D"/>
<path d="M29.7204 24.8214C30.3187 23.2769 31.0318 21.9305 31.8858 20.5713C27.0188 21.6117 23.3423 24.4935 21.4556 28.7999H28.518C28.8251 27.4268 29.2257 26.0985 29.7204 24.8214Z" fill="#5FAF2D"/>
<path d="M36 28.801H40.3169C39.4889 25.4989 38.0211 22.5527 36 20.0581C33.9789 22.5527 32.5111 25.4989 31.6831 28.801H36Z" fill="#5FAF2D"/>
<path d="M51.943 35.8612C51.943 34.4654 51.802 33.1375 51.5336 31.8857H44.0034C44.1525 33.1519 44.2287 34.4499 44.2287 35.7768C44.2287 35.8519 44.2287 35.926 44.2266 36C44.2287 36.0741 44.2287 36.1481 44.2287 36.2232C44.2287 37.5501 44.1525 38.8481 44.0034 40.1143H51.5336C51.802 38.8626 51.943 37.5346 51.943 36.1389C51.943 36.0926 51.943 36.0463 51.942 36C51.943 35.9537 51.943 35.9075 51.943 35.8612Z" fill="#5FAF2D"/>
<path d="M43.4821 28.7999H50.5445C48.6577 24.4935 44.9812 21.6117 40.1143 20.5713C40.9682 21.9305 41.6813 23.2769 42.2796 24.8214C42.7744 26.0985 43.175 27.4268 43.4821 28.7999Z" fill="#5FAF2D"/>
<path d="M40.8981 31.8857H36H31.102C30.9394 33.1426 30.8572 34.4407 30.8572 35.7768C30.8572 35.8519 30.8572 35.926 30.8582 36C30.8572 36.0741 30.8572 36.1481 30.8572 36.2232C30.8572 37.5594 30.9394 38.8574 31.102 40.1143H36H40.8981C41.0606 38.8574 41.1429 37.5594 41.1429 36.2232C41.1429 36.1481 41.1429 36.0741 41.1419 36C41.1429 35.926 41.1429 35.8519 41.1429 35.7768C41.1429 34.4407 41.0606 33.1426 40.8981 31.8857Z" fill="#5FAF2D"/>
<path d="M42.2796 47.1784C41.6813 48.7229 40.9682 50.0693 40.1143 51.4285C44.9812 50.3881 48.6577 47.5063 50.5445 43.2H43.4821C43.175 44.573 42.7744 45.9013 42.2796 47.1784Z" fill="#5FAF2D"/>
<path d="M36 43.2H31.6831C32.5111 46.5021 33.9789 49.4482 36 51.9428C38.0211 49.4482 39.4889 46.5021 40.3169 43.2H36Z" fill="#5FAF2D"/>
<path d="M27.7714 36.2232C27.7714 36.1481 27.7714 36.0741 27.7735 36C27.7714 35.926 27.7714 35.8519 27.7714 35.7768C27.7714 34.4499 27.8476 33.1519 27.9967 31.8857H20.4665C20.1981 33.1375 20.0571 34.4654 20.0571 35.8612C20.0571 35.9075 20.0571 35.9537 20.0581 36C20.0571 36.0463 20.0571 36.0926 20.0571 36.1389C20.0571 37.5346 20.1981 38.8626 20.4665 40.1143H27.9967C27.8476 38.8481 27.7714 37.5501 27.7714 36.2232Z" fill="#5FAF2D"/>
<path d="M28.518 43.2H21.4556C23.3423 47.5063 27.0188 50.3881 31.8858 51.4285C31.0318 50.0693 30.3187 48.7229 29.7204 47.1784C29.2257 45.9013 28.8251 44.573 28.518 43.2Z" fill="#5FAF2D"/>
</svg>
