<svg width="70" height="70" viewBox="0 0 70 70" fill="none" xmlns="http://www.w3.org/2000/svg">
<circle cx="35" cy="35" r="35" fill="white"/>
<path d="M31.325 34.475V37.625C31.955 38.255 33.425 38.675 35 38.675C36.575 38.675 38.045 38.255 38.675 37.625V34.4225C40.04 33.425 40.775 31.696 40.775 29.96V24.2375C40.775 20.825 39.2 19.25 35.7875 19.25H28.175L29.0675 29.96C29.2356 31.865 30.002 33.4694 31.325 34.475Z" fill="#B4BBC5"/>
<path d="M49.9625 49.0418C48.965 42.6642 47.6525 41.7101 43.4525 39.9023L41.825 39.1992C40.4075 40.7559 37.73 41.8242 35 41.8242C32.3225 41.8242 29.5925 40.7559 28.175 39.1992L26.6 39.9023C22.4525 41.7603 21.035 42.6642 20.0375 49.0418L19.775 50.7492H50.225L49.9625 49.0418Z" fill="#B4BBC5"/>
</svg>
