<svg width="120" height="180" viewBox="0 0 120 180" fill="none" xmlns="http://www.w3.org/2000/svg">
<g clip-path="url(#clip0_501_30716)">
<path d="M60 0H0V60H60V0Z" fill="#FDB714"/>
<path d="M8.04124 6.8664H4.8866V5.19629H10.1443V6.61898L7.73196 16.6396H5.62886L8.04124 6.8664Z" fill="white"/>
<path d="M15.8351 8.04165H16.3918L16.0825 6.24784L15.8351 8.04165ZM14.7835 9.58805L15.6495 5.19629H16.4536L17.3196 9.58805H16.5773L16.3918 8.59835H15.6495L15.5258 9.58805H14.7835Z" fill="white"/>
<path d="M17.7526 9.58805V5.19629H19.5464V5.75299H18.5567V7.05196H19.299V7.60866H18.5567V9.58805H17.7526Z" fill="white"/>
<path d="M19.8557 9.58805V5.19629H21.6495V5.75299H20.6598V7.05196H21.4639V7.60866H20.6598V9.58805H19.8557Z" fill="white"/>
<path d="M22.9484 9.03071C23.0103 9.03071 23.0721 9.09257 23.134 9.09257C23.1959 9.09257 23.2577 9.09256 23.3196 9.03071C23.3814 9.03071 23.4433 8.96885 23.4433 8.96885C23.5051 8.90699 23.5051 8.90698 23.5051 8.84513C23.5051 8.78327 23.5051 8.72143 23.567 8.65957C23.567 8.59771 23.567 8.53587 23.567 8.47401V6.49462C23.567 6.37091 23.567 6.30906 23.567 6.2472C23.567 6.18535 23.5051 6.12348 23.5051 6.06162C23.4433 5.99977 23.4433 5.93792 23.3814 5.93792C23.3196 5.93792 23.2577 5.87606 23.134 5.87606C23.0103 5.87606 22.9484 5.87607 22.8866 5.93792C22.8247 5.93792 22.7629 5.99977 22.7629 6.06162C22.7629 6.12348 22.701 6.18535 22.701 6.2472C22.701 6.30906 22.701 6.43277 22.701 6.49462V8.47401C22.701 8.53587 22.701 8.59771 22.701 8.65957C22.701 8.72143 22.701 8.78327 22.7629 8.84513C22.7629 8.90698 22.8247 8.96885 22.8247 8.96885C22.8247 8.96885 22.8866 8.96885 22.9484 9.03071ZM23.134 9.64926C22.701 9.64926 22.3917 9.52555 22.1443 9.27813C21.9587 9.0307 21.835 8.65956 21.835 8.22657V6.61834C21.835 6.37092 21.835 6.18535 21.8969 5.99978C21.9587 5.81422 22.0206 5.6905 22.0824 5.56679C22.2062 5.44307 22.3299 5.31936 22.4536 5.25751C22.6391 5.19565 22.8247 5.13379 23.0721 5.13379C23.5051 5.13379 23.8144 5.2575 24.0618 5.50493C24.2474 5.75235 24.3711 6.12349 24.3711 6.55648V8.16473C24.3711 8.41215 24.3711 8.59772 24.3092 8.78329C24.2474 8.96886 24.1855 9.09256 24.1237 9.21627C24 9.33998 23.8763 9.46369 23.7526 9.52555C23.567 9.5874 23.3814 9.64926 23.134 9.64926Z" fill="white"/>
<path d="M25.6701 7.05196H25.8557C26.1031 7.05196 26.2886 6.99011 26.3505 6.92826C26.4742 6.80455 26.4742 6.68083 26.4742 6.4334C26.4742 6.18598 26.4124 6.06228 26.3505 5.93856C26.2886 5.81485 26.1031 5.81485 25.8557 5.81485H25.6082V7.05196H25.6701ZM24.866 9.58805V5.19629H25.8557C26.1031 5.19629 26.2886 5.19629 26.4742 5.25815C26.6598 5.32 26.7835 5.38185 26.9072 5.44371C27.0309 5.50556 27.0928 5.62928 27.1546 5.81485C27.2165 6.00041 27.2165 6.12412 27.2165 6.37154C27.2165 6.61897 27.1546 6.86639 27.0928 7.05196C27.0309 7.23753 26.8453 7.36124 26.6598 7.4231L27.2783 9.58805H26.4742L25.9794 7.60866H25.6082V9.58805H24.866Z" fill="white"/>
<path d="M28.5773 9.03135H28.8247C28.8865 9.03135 28.9484 9.03135 29.0102 9.03135C29.0721 9.03135 29.134 9.03134 29.134 8.96949C29.1958 8.96949 29.1958 8.90763 29.2577 8.84577C29.2577 8.78391 29.3195 8.78393 29.3195 8.72207C29.3195 8.66021 29.3195 8.6602 29.3814 8.53649C29.3814 8.47464 29.3814 8.41279 29.3814 8.35093C29.3814 8.28908 29.3814 8.22722 29.3814 8.10351V6.49526C29.3814 6.37155 29.3814 6.3097 29.3814 6.24784C29.3814 6.18599 29.3814 6.12412 29.3814 6.06226C29.3814 6.00041 29.3195 5.93856 29.3195 5.93856C29.3195 5.93856 29.2577 5.8767 29.1958 5.81485C29.134 5.81485 29.0721 5.75299 29.0102 5.75299C28.9484 5.75299 28.8865 5.75299 28.7628 5.75299H28.5154V9.03135H28.5773ZM27.7731 9.58805V5.19629H28.7628C29.0102 5.19629 29.2577 5.19629 29.4432 5.25815C29.6288 5.32 29.7525 5.38186 29.8762 5.50557C29.9999 5.62928 30.0618 5.753 30.1237 5.93856C30.1855 6.12413 30.1855 6.3097 30.1855 6.55712V8.16537C30.1855 8.4128 30.1855 8.59836 30.1237 8.78393C30.0618 8.9695 29.9999 9.0932 29.8762 9.21691C29.7525 9.34062 29.6288 9.40247 29.4432 9.46433C29.2577 9.52618 29.0721 9.52619 28.8247 9.52619H27.7731V9.58805Z" fill="white"/>
<path d="M31.3608 8.04165H31.9175L31.6082 6.24784L31.3608 8.04165ZM30.3711 9.58805L31.2371 5.19629H32.0412L32.9072 9.58805H32.2268L32.0412 8.59835H31.2989L31.1134 9.58805H30.3711Z" fill="white"/>
<path d="M34.0824 9.03135H34.3917C34.6391 9.03135 34.8247 8.96948 34.8866 8.84577C34.9484 8.72206 35.0103 8.5365 35.0103 8.28907C35.0103 8.04165 34.9484 7.85609 34.8866 7.73238C34.7629 7.60866 34.6391 7.54682 34.3917 7.54682H34.0824V9.03135ZM34.0824 6.9901H34.3299C34.5773 6.9901 34.701 6.92826 34.8247 6.8664C34.8866 6.74269 34.9484 6.61897 34.9484 6.37154C34.9484 6.24783 34.9484 6.12412 34.8866 6.06226C34.8866 6.00041 34.8247 5.93856 34.7629 5.87671C34.701 5.81485 34.6391 5.81485 34.5154 5.81485C34.4536 5.81485 34.3299 5.81485 34.2062 5.81485H34.0824V6.9901ZM33.2783 9.58805V5.19629H34.3299C34.5154 5.19629 34.701 5.19629 34.8866 5.25815C35.0103 5.32 35.1958 5.38185 35.2577 5.44371C35.3814 5.50556 35.4433 5.62928 35.5051 5.81485C35.567 5.93856 35.567 6.12412 35.567 6.37154C35.567 6.92824 35.3814 7.23752 34.9484 7.29938C35.1958 7.36123 35.3814 7.48495 35.5051 7.60866C35.6288 7.79422 35.6907 8.04165 35.6907 8.35093C35.6907 8.78392 35.567 9.0932 35.3814 9.27877C35.1959 9.46433 34.8866 9.58805 34.4536 9.58805H33.2783Z" fill="white"/>
<path d="M36.1855 9.58805V5.19629H36.9897V9.03135H38.0412V9.58805H36.1855Z" fill="white"/>
<path d="M38.3505 9.58805V5.19629H40.1443V5.75299H39.1547V7.05196H39.9588V7.60866H39.1547V9.03135H40.1443V9.58805H38.3505Z" fill="white"/>
<path d="M42.5567 8.04165H43.1134L42.8041 6.24784L42.5567 8.04165ZM41.5051 9.58805L42.3711 5.19629H43.1752L44.0412 9.58805H43.3608L43.1752 8.59835H42.433L42.2474 9.58805H41.5051Z" fill="white"/>
<path d="M44.4124 9.58805V5.19629H44.9691L46.0825 7.67052V5.19629H46.701V9.58805H46.2062L45.0928 6.9901V9.58805H44.4124Z" fill="white"/>
<path d="M48.0619 9.03135H48.3093C48.3712 9.03135 48.433 9.03135 48.4949 9.03135C48.5567 9.03135 48.6186 9.03134 48.6186 8.96949C48.6804 8.96949 48.6804 8.90763 48.7423 8.84577C48.7423 8.78391 48.8041 8.78393 48.8041 8.72207C48.8041 8.66021 48.8041 8.6602 48.866 8.53649C48.866 8.47464 48.866 8.41279 48.866 8.35093C48.866 8.28908 48.866 8.22722 48.866 8.10351V6.49526C48.866 6.37155 48.866 6.3097 48.866 6.24784C48.866 6.18599 48.866 6.12412 48.866 6.06226C48.866 6.00041 48.8041 5.93856 48.8041 5.93856C48.8041 5.93856 48.7423 5.8767 48.6804 5.81485C48.6186 5.81485 48.5567 5.75299 48.4949 5.75299C48.433 5.75299 48.3711 5.75299 48.2474 5.75299H48V9.03135H48.0619ZM47.2578 9.58805V5.19629H48.2474C48.4949 5.19629 48.7423 5.19629 48.9279 5.25815C49.1134 5.32 49.2371 5.38186 49.3608 5.50557C49.4845 5.62928 49.5464 5.753 49.6083 5.93856C49.6701 6.12413 49.6701 6.3097 49.6701 6.55712V8.16537C49.6701 8.4128 49.6701 8.59836 49.6083 8.78393C49.5464 8.9695 49.4845 9.0932 49.3608 9.21691C49.2371 9.34062 49.1134 9.40247 48.9279 9.46433C48.7423 9.52618 48.5567 9.52619 48.3093 9.52619H47.2578V9.58805Z" fill="white"/>
<path d="M16.2062 16.7625C16.0206 16.7625 15.8351 16.7625 15.7114 16.7007C15.5876 16.6388 15.4639 16.577 15.3402 16.5151C15.2165 16.4533 15.1547 16.3296 15.0928 16.2058C15.0309 16.0821 14.9691 15.9584 14.9691 15.7729C14.9691 15.6491 14.9072 15.4636 14.9072 15.278V13.7316C14.9072 13.5461 14.9072 13.3605 14.9691 13.2368C14.9691 13.1131 15.0309 12.9275 15.0928 12.8038C15.1547 12.6801 15.2165 12.5564 15.3402 12.4945C15.4639 12.4327 15.5258 12.3708 15.7114 12.3089C15.8351 12.2471 16.0206 12.2471 16.2062 12.2471C16.4536 12.2471 16.6392 12.2471 16.7629 12.3089C16.8866 12.3708 17.0103 12.4326 17.134 12.5563C17.1959 12.6801 17.2577 12.8038 17.3196 12.9275C17.3815 13.0512 17.3815 13.2368 17.3815 13.4842V13.8553H16.6392V13.4842C16.6392 13.2368 16.6392 13.1131 16.5773 13.0512C16.5155 12.9275 16.3918 12.8038 16.268 12.8038H16.2062C16.1443 12.8038 16.0825 12.8038 16.0206 12.8038C15.9588 12.8038 15.9588 12.8656 15.8969 12.8656C15.8351 12.9275 15.8351 12.9275 15.8351 12.9893C15.8351 13.0512 15.7732 13.0512 15.7732 13.1131C15.7732 13.1749 15.7732 13.2368 15.7732 13.2986C15.7732 13.3605 15.7732 13.4223 15.7732 13.4842V15.3399C15.7732 15.5873 15.8351 15.7729 15.8969 15.8966C15.9588 16.0203 16.0825 16.0821 16.268 16.0821C16.3299 16.0821 16.3918 16.0821 16.3918 16.0821C16.4536 16.0821 16.4536 16.0821 16.5155 16.0203L16.5773 15.9584C16.5773 15.8966 16.6392 15.8966 16.6392 15.8347C16.6392 15.7729 16.6392 15.7728 16.6392 15.711C16.6392 15.6491 16.6392 15.5873 16.6392 15.5873C16.6392 15.5254 16.6392 15.4636 16.6392 15.4017V15.0306H17.3815V15.4017C17.3815 15.5873 17.3815 15.711 17.3196 15.8347C17.3196 15.9584 17.2577 16.0821 17.1959 16.2058C17.134 16.3296 17.0722 16.3914 17.0103 16.5151C16.9485 16.577 16.8248 16.6388 16.701 16.7007C16.5155 16.7625 16.3918 16.7625 16.2062 16.7625Z" fill="white"/>
<path d="M17.8144 16.701V12.3711H18.6185V16.1443H19.6701V16.701H17.8144Z" fill="white"/>
<path d="M19.9793 16.701V12.3711H21.835V12.9278H20.7834V14.1649H21.5876V14.7216H20.7834V16.1443H21.835V16.701H19.9793Z" fill="white"/>
<path d="M22.9484 15.2168H23.5051L23.1959 13.423L22.9484 15.2168ZM21.9587 16.7013L22.8247 12.3096H23.6288L24.4948 16.7013H23.7526L23.567 15.7116H22.8247L22.6392 16.7013H21.9587Z" fill="white"/>
<path d="M24.866 16.701V12.3711H25.4227L26.4742 14.8453V12.3711H27.1546V16.701H26.6598L25.5464 14.103V16.701H24.866Z" fill="white"/>
<path d="M28.9484 16.701V12.3711H30.7422V12.9278H29.6907V14.1649H30.5567V14.7216H29.6907V16.1443H30.7422V16.701H28.9484Z" fill="white"/>
<path d="M31.1133 16.701V12.3711H31.67L32.7216 14.8453V12.3711H33.402V16.701H32.8453L31.7938 14.103V16.701H31.1133Z" fill="white"/>
<path d="M33.9588 16.701V12.3711H35.7526V12.9278H34.7629V14.1649H35.567V14.7216H34.7629V16.1443H35.7526V16.701H33.9588Z" fill="white"/>
<path d="M36.9278 14.2271H37.1134C37.3608 14.2271 37.5464 14.1652 37.6082 14.1034C37.732 13.9797 37.732 13.856 37.732 13.6085C37.732 13.3611 37.6701 13.2374 37.6082 13.1137C37.5464 12.99 37.3608 12.99 37.1134 12.99H36.866V14.2271H36.9278ZM36.1237 16.7013V12.3096H37.1134C37.3608 12.3096 37.5464 12.3096 37.732 12.3714C37.9175 12.4333 38.0412 12.4951 38.165 12.557C38.2887 12.6188 38.3505 12.7426 38.4124 12.9281C38.4742 13.0518 38.4742 13.2374 38.4742 13.4848C38.4742 13.7322 38.4124 13.9797 38.3505 14.1652C38.2887 14.3508 38.1031 14.4745 37.9175 14.5364L38.5361 16.7013H37.7938L37.299 14.7219H36.9278V16.7013H36.1237Z" fill="white"/>
<path d="M40.1443 16.7625C39.7113 16.7625 39.4639 16.6388 39.2783 16.3914C39.0927 16.144 39.0309 15.7729 39.0309 15.278V13.8553C39.0309 13.6079 39.0309 13.3605 39.0927 13.1749C39.1546 12.9893 39.2164 12.8038 39.2783 12.6801C39.402 12.5564 39.5257 12.4326 39.6494 12.3708C39.835 12.3089 40.0206 12.2471 40.268 12.2471C40.701 12.2471 41.0103 12.3708 41.1958 12.5563C41.3814 12.7419 41.5051 13.1131 41.5051 13.546V13.7316H40.7628V13.4842C40.7628 13.3605 40.7628 13.2986 40.7628 13.2368C40.7628 13.1749 40.7628 13.1131 40.701 13.0512C40.701 12.9893 40.6391 12.9275 40.6391 12.9275C40.5773 12.8656 40.5773 12.8656 40.5154 12.8656C40.4536 12.8656 40.3917 12.8038 40.3299 12.8038C40.268 12.8038 40.2061 12.8038 40.1443 12.8038C40.0824 12.8038 40.0824 12.8656 40.0206 12.8656C39.9587 12.8656 39.9587 12.9275 39.9587 12.9893C39.9587 13.0512 39.8969 13.0512 39.8969 13.1131C39.8969 13.1749 39.8969 13.1749 39.8969 13.2368C39.8969 13.2986 39.8969 13.3605 39.8969 13.4223C39.8969 13.4842 39.8969 13.546 39.8969 13.6079V15.4017C39.8969 15.6491 39.9587 15.8347 40.0206 15.9584C40.0824 16.0821 40.2061 16.144 40.3917 16.144C40.5154 16.144 40.5773 16.144 40.6391 16.0821C40.701 16.0203 40.7628 16.0203 40.7628 15.8966C40.8247 15.8347 40.8247 15.711 40.8247 15.6491C40.8247 15.5873 40.8247 15.4636 40.8247 15.278V14.9069H40.268V14.412H41.4433V16.6388H40.8866L40.8247 16.2058C40.701 16.6388 40.4536 16.7625 40.1443 16.7625Z" fill="white"/>
<path d="M42.4948 16.701V15.0309L41.6288 12.3711H42.3711L42.9278 14.103L43.4227 12.3711H44.1649L43.2989 15.0309V16.701H42.4948Z" fill="white"/>
<path d="M30 42.6186C27.4639 42.6186 25.4226 40.5774 25.4226 38.0413C25.4226 36.0001 26.7835 34.2063 28.6391 33.6496V35.3815C27.6494 35.8764 26.969 36.8661 26.969 38.0413C26.969 39.7114 28.3299 41.0723 30 41.0723C31.6701 41.0723 33.0309 39.7114 33.0309 38.0413C33.0309 36.8661 32.3505 35.8764 31.3608 35.3815V33.6496C33.2165 34.2063 34.5773 36.0001 34.5773 38.0413C34.6391 40.5156 32.536 42.6186 30 42.6186ZM29.3814 32.7217C29.3814 32.4125 29.6907 32.1032 30.0618 32.1032C30.433 32.1032 30.7422 32.4125 30.7422 32.7217V35.7527C30.7422 36.0619 30.433 36.3712 30.0618 36.3712C29.6907 36.3712 29.3814 36.0619 29.3814 35.7527V32.7217ZM30 29.2578C25.1134 29.2578 21.1546 33.2166 21.1546 38.1032C21.1546 42.9898 25.1134 46.9485 30 46.9485C34.8866 46.9485 38.8453 42.9898 38.8453 38.1032C38.8453 33.2166 34.8866 29.2578 30 29.2578Z" fill="white"/>
<path d="M19.8556 37.9796C19.8556 37.6084 19.4845 37.2373 19.1752 37.2373H15.2783C14.969 37.2373 14.5979 37.5466 14.5979 37.9796C14.5979 38.4126 14.969 38.7218 15.2783 38.7218H19.1752C19.5464 38.7218 19.8556 38.4126 19.8556 37.9796Z" fill="white"/>
<path d="M45.4021 37.9796C45.4021 37.6084 45.0309 37.2373 44.7217 37.2373H40.8248C40.5155 37.2373 40.1443 37.5466 40.1443 37.9796C40.1443 38.4126 40.5155 38.7218 40.8248 38.7218H44.7217C45.0309 38.7218 45.4021 38.4126 45.4021 37.9796Z" fill="white"/>
<path d="M30 53.3818C30.3712 53.3818 30.7423 53.0106 30.7423 52.7014V48.8044C30.7423 48.4952 30.433 48.124 30 48.124C29.6289 48.124 29.2578 48.4952 29.2578 48.8044V52.7014C29.3196 53.0106 29.6289 53.3818 30 53.3818Z" fill="white"/>
<path d="M43.3608 45.6497C43.5464 45.2786 43.4227 44.8456 43.1134 44.66L39.7732 42.7425C39.4639 42.5569 39.0309 42.6806 38.8454 43.0518C38.6598 43.4229 38.7835 43.8559 39.0928 44.0415L42.433 45.959C42.6804 46.0827 43.1753 45.959 43.3608 45.6497Z" fill="white"/>
<path d="M22.3917 51.34C22.7629 51.5255 23.1958 51.4018 23.3814 51.0925L25.2989 47.7523C25.4845 47.4431 25.3608 47.0101 24.9897 46.8245C24.6185 46.6389 24.1855 46.7626 24 47.0719L22.0824 50.4121C21.8969 50.6595 22.0206 51.1544 22.3917 51.34Z" fill="white"/>
<path d="M37.6701 51.34C38.0413 51.1544 38.1031 50.6595 37.9794 50.4121L36.0619 47.0719C35.8763 46.7626 35.4433 46.6389 35.0722 46.8245C34.7011 47.0101 34.6392 47.5049 34.7629 47.7523L36.6804 51.0925C36.866 51.4018 37.3609 51.5255 37.6701 51.34Z" fill="white"/>
<path d="M16.701 45.6497C16.8866 46.0208 17.3814 46.0827 17.6289 45.959L20.9691 44.0414C21.2783 43.8559 21.402 43.4229 21.2165 43.0518C21.0309 42.6806 20.5361 42.6188 20.2886 42.7425L16.9484 44.66C16.6392 44.8456 16.5155 45.3404 16.701 45.6497Z" fill="white"/>
<path d="M30 27.8349C30.3712 27.8349 30.7423 27.4637 30.7423 27.1545V23.2576C30.7423 22.9483 30.433 22.5771 30 22.5771C29.6289 22.5771 29.2578 22.9483 29.2578 23.2576V27.1545C29.3196 27.4637 29.6289 27.8349 30 27.8349Z" fill="white"/>
<path d="M21.2165 32.969C21.402 32.5979 21.2783 32.1649 20.9691 31.9793L17.6289 30.0618C17.3196 29.8763 16.8866 30 16.701 30.3711C16.5155 30.7422 16.6392 31.1752 16.9484 31.3608L20.2886 33.2783C20.5361 33.402 21.0309 33.2783 21.2165 32.969Z" fill="white"/>
<path d="M35.0721 29.1954C35.4433 29.381 35.8763 29.2573 36.0618 28.948L37.9794 25.6078C38.1649 25.2985 38.0412 24.8655 37.6701 24.68C37.2989 24.4944 36.866 24.6181 36.6804 24.9274L34.7629 28.2676C34.5773 28.515 34.701 29.0099 35.0721 29.1954Z" fill="white"/>
<path d="M24.9897 29.1954C25.3609 29.0099 25.4227 28.515 25.299 28.2676L23.3815 24.9274C23.1959 24.6181 22.7629 24.4944 22.3918 24.68C22.0206 24.8655 21.9588 25.3604 22.0825 25.6078L24 28.948C24.1856 29.2573 24.6186 29.381 24.9897 29.1954Z" fill="white"/>
<path d="M38.8454 32.9075C39.0309 33.2786 39.5258 33.3405 39.7732 33.2168L43.1134 31.2993C43.4227 31.1137 43.5464 30.6807 43.3608 30.3096C43.1753 29.9384 42.6804 29.8766 42.433 30.0003L39.0928 31.9178C38.7835 32.1034 38.5979 32.5982 38.8454 32.9075Z" fill="white"/>
</g>
<g clip-path="url(#clip1_501_30716)">
<path d="M120 0H60V60H120V0Z" fill="#F99D25"/>
<path d="M65.2577 7.48462C65.134 7.54648 64.8247 7.67019 64.3299 7.85576C63.9587 7.97947 63.7113 8.10318 63.5876 8.10318V6.49493C63.8969 6.37121 64.268 6.18565 64.7629 5.93823C65.1958 5.69081 65.567 5.44338 65.7525 5.25781H67.4845V16.7011H65.3196V7.48462H65.2577Z" fill="white"/>
<path d="M70.0206 7.48462C69.8969 7.54648 69.5876 7.67019 69.0928 7.85576C68.7217 7.97947 68.4742 8.10318 68.3505 8.10318V6.49493C68.6598 6.37121 69.031 6.18565 69.5258 5.93823C69.9588 5.69081 70.3299 5.44338 70.5155 5.25781H72.2474V16.7011H70.0206V7.48462Z" fill="white"/>
<path d="M77.3196 9.64926C76.5773 9.64926 76.1443 9.21627 76.0825 8.28843L76.7629 8.16473C76.7629 8.72143 76.9485 9.03071 77.2577 9.03071C77.3814 9.03071 77.4433 8.96884 77.5051 8.90699C77.567 8.84513 77.567 8.72142 77.567 8.59771C77.567 8.474 77.567 8.35029 77.5051 8.28843C77.4433 8.16472 77.3814 8.10287 77.3814 8.04101C77.3196 7.97916 77.2577 7.91731 77.134 7.79359L76.5773 7.29874C76.3917 7.17503 76.268 6.98947 76.2062 6.86576C76.1443 6.68019 76.0825 6.49463 76.0825 6.2472C76.0825 5.93792 76.2062 5.62863 76.3917 5.44307C76.5773 5.2575 76.8866 5.13379 77.1959 5.13379C77.3814 5.13379 77.5051 5.13379 77.6288 5.19565C77.7526 5.2575 77.8763 5.31937 77.9381 5.38123C78 5.44308 78.0618 5.56679 78.1237 5.62865C78.1855 5.75236 78.2474 5.81421 78.2474 5.93792C78.2474 6.06164 78.3093 6.18535 78.3093 6.30906L77.6288 6.43276C77.6288 6.37091 77.6288 6.2472 77.6288 6.18534C77.6288 6.12349 77.6289 6.06164 77.567 5.99978C77.5052 5.93793 77.5051 5.87606 77.5051 5.81421C77.5051 5.75235 77.4433 5.75236 77.3814 5.69051C77.3196 5.69051 77.2577 5.62865 77.1959 5.69051C77.0721 5.69051 77.0103 5.75235 76.9485 5.81421C76.8866 5.87606 76.8247 5.99977 76.8247 6.12348C76.8247 6.24719 76.8247 6.37091 76.8866 6.49462C76.9484 6.55648 77.0103 6.68019 77.134 6.8039L77.6907 7.29874C77.8144 7.36059 77.8763 7.48432 77.9381 7.54618C78 7.60803 78.0618 7.73174 78.1237 7.79359C78.1855 7.91731 78.2474 8.04102 78.2474 8.16473C78.3093 8.28844 78.3093 8.41214 78.3093 8.53585C78.3093 8.84513 78.1856 9.09256 78 9.33999C77.9382 9.52555 77.6288 9.64926 77.3196 9.64926Z" fill="white"/>
<path d="M79.8557 9.64957C79.6701 9.64957 79.4845 9.64957 79.3608 9.58771C79.2371 9.52585 79.1134 9.46401 78.9897 9.40215C78.866 9.34029 78.8041 9.21658 78.7423 9.09287C78.6804 8.96916 78.6186 8.84544 78.6186 8.65987C78.6186 8.53616 78.5567 8.3506 78.5567 8.16504V5.25781H79.299V8.22688C79.299 8.35059 79.299 8.41246 79.299 8.47432C79.299 8.53617 79.299 8.59802 79.3608 8.72173C79.3608 8.78359 79.4227 8.84544 79.4227 8.90729C79.4846 8.96915 79.4846 8.96916 79.5464 9.03101C79.6083 9.09287 79.6701 9.09287 79.732 9.09287C79.7938 9.09287 79.8557 9.09287 79.9175 9.03101C79.9794 8.96916 80.0413 8.96915 80.0413 8.90729C80.0413 8.84544 80.1031 8.78359 80.1031 8.72173C80.1031 8.65988 80.1031 8.59803 80.165 8.47432C80.165 8.41246 80.165 8.28873 80.165 8.22688V5.25781H80.9072V8.16504C80.9072 8.3506 80.9072 8.53616 80.8454 8.65987C80.8454 8.78359 80.7835 8.96916 80.7217 9.09287C80.6598 9.21658 80.598 9.34029 80.4742 9.40215C80.3505 9.46401 80.2887 9.52585 80.1031 9.58771C80.2268 9.58771 80.0413 9.64957 79.8557 9.64957Z" fill="white"/>
<path d="M82.5773 9.64926C81.8351 9.64926 81.4021 9.21627 81.3402 8.28843L82.0206 8.16473C82.0206 8.72143 82.2062 9.03071 82.5155 9.03071C82.6392 9.03071 82.701 8.96884 82.7629 8.90699C82.8247 8.84513 82.8248 8.72142 82.8248 8.59771C82.8248 8.474 82.8247 8.35029 82.7629 8.28843C82.701 8.16472 82.6392 8.10287 82.6392 8.04101C82.5773 7.97916 82.5155 7.91731 82.3918 7.79359L81.835 7.29874C81.6495 7.17503 81.5258 6.98947 81.4639 6.86576C81.4021 6.68019 81.3402 6.49463 81.3402 6.2472C81.3402 5.93792 81.4639 5.62863 81.6495 5.44307C81.8351 5.2575 82.1443 5.13379 82.4536 5.13379C82.6392 5.13379 82.7629 5.13379 82.8866 5.19565C83.0103 5.2575 83.134 5.31937 83.1959 5.38123C83.2577 5.44308 83.3196 5.56679 83.3814 5.62865C83.4433 5.75236 83.5052 5.81421 83.5052 5.93792C83.5052 6.06164 83.567 6.18535 83.567 6.30906L82.8866 6.43276C82.8866 6.37091 82.8866 6.2472 82.8866 6.18534C82.8866 6.12349 82.8866 6.06164 82.8248 5.99978C82.7629 5.93793 82.7629 5.87606 82.7629 5.81421C82.701 5.75235 82.7011 5.75236 82.6392 5.69051C82.5773 5.69051 82.5155 5.62865 82.4536 5.69051C82.3299 5.69051 82.2681 5.75235 82.2062 5.81421C82.1443 5.87606 82.0825 5.99977 82.0825 6.12348C82.0825 6.24719 82.0825 6.37091 82.1443 6.49462C82.2062 6.55648 82.2681 6.68019 82.3918 6.8039L82.9485 7.29874C83.0722 7.36059 83.134 7.48432 83.1959 7.54618C83.2577 7.60803 83.3196 7.73174 83.3814 7.79359C83.4433 7.91731 83.5052 8.04102 83.5052 8.16473C83.567 8.28844 83.567 8.41214 83.567 8.53585C83.567 8.84513 83.4433 9.09256 83.2578 9.33999C83.1959 9.52555 82.8866 9.64926 82.5773 9.64926Z" fill="white"/>
<path d="M84.3711 9.58805V5.81485H83.6288V5.19629H85.8556V5.81485H85.1752V9.58805H84.3711Z" fill="white"/>
<path d="M86.7216 8.04165H87.2783L86.969 6.24784L86.7216 8.04165ZM85.7319 9.58805L86.5979 5.19629H87.402L88.268 9.58805H87.5257L87.3402 8.59835H86.5979L86.4123 9.58805H85.7319Z" fill="white"/>
<path d="M89.3814 5.19629H88.5773V9.58805H89.3814V5.19629Z" fill="white"/>
<path d="M89.8144 9.58805V5.19629H90.3711L91.4226 7.67052V5.19629H92.1031V9.58805H91.5463L90.4948 6.9901V9.58805H89.8144Z" fill="white"/>
<path d="M93.3402 8.04165H93.8969L93.5876 6.24784L93.3402 8.04165ZM92.2886 9.58805L93.1546 5.19629H93.9587L94.8247 9.58805H94.1443L93.9587 8.59835H93.2165L93.0309 9.58805H92.2886Z" fill="white"/>
<path d="M95.9381 9.03135H96.2474C96.4948 9.03135 96.6185 8.96948 96.7422 8.84577C96.8041 8.72206 96.866 8.5365 96.866 8.28907C96.866 8.04165 96.8041 7.85609 96.7422 7.73238C96.6185 7.60866 96.4948 7.54682 96.2474 7.54682H96V9.03135H95.9381ZM95.9381 6.9901H96.1855C96.4329 6.9901 96.5567 6.92826 96.6804 6.8664C96.7422 6.74269 96.8041 6.61897 96.8041 6.37154C96.8041 6.24783 96.8041 6.12412 96.7422 6.06226C96.7422 6.00041 96.6804 5.93856 96.6185 5.87671C96.5567 5.81485 96.4948 5.81485 96.3711 5.81485C96.3092 5.81485 96.1855 5.81485 96.0618 5.81485H95.9381V6.9901ZM95.134 9.58805V5.19629H96.1855C96.3711 5.19629 96.5567 5.19629 96.7422 5.25815C96.866 5.32 97.0515 5.38185 97.1134 5.44371C97.2371 5.50556 97.2989 5.62928 97.3608 5.81485C97.4227 5.93856 97.4226 6.12412 97.4226 6.37154C97.4226 6.92824 97.2371 7.23752 96.8041 7.29938C97.0515 7.36123 97.2371 7.48495 97.3608 7.60866C97.4845 7.79422 97.5464 8.04165 97.5464 8.35093C97.5464 8.78392 97.4226 9.0932 97.2371 9.27877C97.0515 9.46433 96.7422 9.58805 96.3092 9.58805H95.134Z" fill="white"/>
<path d="M97.9175 9.58805V5.19629H98.6598V9.03135H99.7113V9.58805H97.9175Z" fill="white"/>
<path d="M99.9587 9.58805V5.19629H101.753V5.75299H100.701V7.05196H101.567V7.60866H100.701V9.03135H101.753V9.58805H99.9587Z" fill="white"/>
<path d="M104.289 9.64926C104.103 9.64926 103.918 9.64926 103.794 9.5874C103.67 9.52555 103.546 9.4637 103.423 9.40185C103.299 9.33999 103.237 9.21628 103.175 9.09257C103.113 8.96886 103.052 8.84514 103.052 8.65957C103.052 8.53586 102.99 8.3503 102.99 8.16473V6.61834C102.99 6.43277 102.99 6.24719 103.052 6.12348C103.052 5.99977 103.113 5.81422 103.175 5.69051C103.237 5.56679 103.299 5.44308 103.423 5.38123C103.546 5.31937 103.608 5.2575 103.794 5.19565C103.979 5.13379 104.103 5.13379 104.289 5.13379C104.536 5.13379 104.722 5.13379 104.845 5.19565C104.969 5.2575 105.093 5.31936 105.217 5.44307C105.278 5.56678 105.34 5.69049 105.402 5.81421C105.464 5.93792 105.464 6.12348 105.464 6.3709V6.74204H104.722V6.3709C104.722 6.12348 104.722 5.99978 104.66 5.93792C104.598 5.81421 104.474 5.69051 104.351 5.69051H104.289C104.227 5.69051 104.165 5.69051 104.103 5.69051C104.041 5.69051 104.041 5.75235 103.979 5.75235C103.918 5.8142 103.918 5.81421 103.918 5.87606C103.918 5.93792 103.856 5.93793 103.856 5.99978C103.856 6.06164 103.856 6.12349 103.856 6.18534C103.856 6.2472 103.856 6.30905 103.856 6.3709V8.22657C103.856 8.474 103.918 8.65958 103.979 8.78329C104.041 8.907 104.165 8.96885 104.351 8.96885C104.412 8.96885 104.474 8.96885 104.474 8.96885C104.536 8.96885 104.536 8.96884 104.598 8.90699L104.66 8.84513C104.66 8.78327 104.722 8.78328 104.722 8.72143C104.722 8.65957 104.722 8.65957 104.722 8.59771C104.722 8.53585 104.722 8.47401 104.722 8.47401C104.722 8.41215 104.722 8.35029 104.722 8.28843V7.91729H105.464V8.28843C105.464 8.474 105.464 8.59772 105.402 8.72143C105.402 8.84514 105.34 8.96886 105.278 9.09257C105.216 9.21628 105.155 9.27813 105.093 9.40185C105.031 9.4637 104.907 9.52555 104.784 9.5874C104.598 9.5874 104.474 9.64926 104.289 9.64926Z" fill="white"/>
<path d="M106.639 5.19629H105.835V9.58805H106.639V5.19629Z" fill="white"/>
<path d="M107.505 9.58805V5.81485H106.763V5.19629H108.99V5.81485H108.309V9.58805H107.505Z" fill="white"/>
<path d="M109.917 5.19629H109.113V9.58805H109.917V5.19629Z" fill="white"/>
<path d="M110.35 9.58805V5.19629H112.206V5.75299H111.155V7.05196H112.021V7.60866H111.155V9.03135H112.206V9.58805H110.35Z" fill="white"/>
<path d="M113.567 9.64926C112.825 9.64926 112.392 9.21627 112.33 8.28843L113.01 8.16473C113.01 8.72143 113.196 9.03071 113.505 9.03071C113.629 9.03071 113.691 8.96884 113.753 8.90699C113.814 8.84513 113.814 8.72142 113.814 8.59771C113.814 8.474 113.814 8.35029 113.753 8.28843C113.691 8.16472 113.629 8.10287 113.629 8.04101C113.567 7.97916 113.505 7.91731 113.381 7.79359L112.825 7.29874C112.639 7.17503 112.515 6.98947 112.454 6.86576C112.392 6.68019 112.33 6.49463 112.33 6.2472C112.33 5.93792 112.454 5.62863 112.639 5.44307C112.825 5.2575 113.134 5.13379 113.443 5.13379C113.629 5.13379 113.753 5.13379 113.876 5.19565C114 5.2575 114.124 5.31937 114.186 5.38123C114.247 5.44308 114.309 5.56679 114.371 5.62865C114.433 5.75236 114.495 5.81421 114.495 5.93792C114.495 6.06164 114.557 6.18535 114.557 6.30906L113.876 6.43276C113.876 6.37091 113.876 6.2472 113.876 6.18534C113.876 6.12349 113.876 6.06164 113.814 5.99978C113.753 5.93793 113.753 5.87606 113.753 5.81421C113.691 5.75235 113.691 5.75236 113.629 5.69051C113.567 5.69051 113.505 5.62865 113.443 5.69051C113.32 5.69051 113.258 5.75235 113.196 5.81421C113.134 5.87606 113.072 5.99977 113.072 6.12348C113.072 6.24719 113.072 6.37091 113.134 6.49462C113.196 6.55648 113.258 6.68019 113.381 6.8039L113.938 7.29874C114.062 7.36059 114.124 7.48432 114.186 7.54618C114.247 7.60803 114.309 7.73174 114.371 7.79359C114.433 7.91731 114.495 8.04102 114.495 8.16473C114.557 8.28844 114.557 8.41214 114.557 8.53585C114.557 8.84513 114.433 9.09256 114.247 9.33999C114.186 9.52555 113.876 9.64926 113.567 9.64926Z" fill="white"/>
<path d="M77.0103 15.2168H77.567L77.2577 13.423L77.0103 15.2168ZM75.9587 16.7013L76.8247 12.3096H77.6289L78.4948 16.7013H77.7526L77.567 15.7116H76.8247L76.6392 16.7013H75.9587Z" fill="white"/>
<path d="M78.8041 16.701V12.3711H79.3608L80.4123 14.8453V12.3711H81.0927V16.701H80.536L79.4845 14.103V16.701H78.8041Z" fill="white"/>
<path d="M82.3299 16.1446H82.5773C82.6392 16.1446 82.701 16.1446 82.7629 16.1446C82.8247 16.1446 82.8866 16.1446 82.8866 16.0828C82.9484 16.0828 82.9485 16.0209 83.0103 15.9591C83.0103 15.8972 83.0721 15.8972 83.0721 15.8354C83.0721 15.7735 83.0722 15.7735 83.134 15.6498C83.134 15.5879 83.134 15.5261 83.134 15.4642C83.134 15.4024 83.134 15.3405 83.134 15.2168V13.6085C83.134 13.4848 83.134 13.423 83.134 13.3611C83.134 13.2993 83.134 13.2374 83.134 13.1755C83.134 13.1137 83.0721 13.0518 83.0721 13.0518C83.0721 13.0518 83.0103 12.99 82.9485 12.9281C82.8866 12.9281 82.8247 12.8663 82.7629 12.8663C82.701 12.8663 82.6392 12.8663 82.5155 12.8663H82.268V16.1446H82.3299ZM81.5258 16.7013V12.3096H82.5155C82.7629 12.3096 83.0103 12.3096 83.1959 12.3714C83.3814 12.4333 83.5052 12.4951 83.6289 12.6188C83.7526 12.7426 83.8144 12.8663 83.8763 13.0518C83.9382 13.2374 83.9381 13.423 83.9381 13.6704V15.2787C83.9381 15.5261 83.9382 15.7116 83.8763 15.8972C83.8144 16.0828 83.7526 16.2065 83.6289 16.3302C83.5052 16.4539 83.3814 16.5158 83.1959 16.5776C83.0103 16.6395 82.8247 16.6395 82.5773 16.6395H81.5258V16.7013Z" fill="white"/>
<path d="M86.5361 16.7625C86.3505 16.7625 86.1649 16.7625 86.0412 16.7007C85.9175 16.6388 85.7938 16.577 85.6701 16.5151C85.5463 16.4533 85.4845 16.3296 85.4227 16.2058C85.3608 16.0821 85.2989 15.9584 85.2989 15.7729C85.2989 15.6491 85.2371 15.4636 85.2371 15.278V13.7316C85.2371 13.5461 85.2371 13.3605 85.2989 13.2368C85.2989 13.1131 85.3608 12.9275 85.4227 12.8038C85.4845 12.6801 85.5463 12.5564 85.6701 12.4945C85.7938 12.4327 85.8556 12.3708 86.0412 12.3089C86.2268 12.2471 86.3505 12.2471 86.5361 12.2471C86.7835 12.2471 86.969 12.2471 87.0927 12.3089C87.2164 12.3708 87.3402 12.4326 87.4639 12.5563C87.5257 12.6801 87.5876 12.8038 87.6494 12.9275C87.7113 13.0512 87.7113 13.2368 87.7113 13.4842V13.8553H86.969V13.4842C86.969 13.2368 86.969 13.1131 86.9072 13.0512C86.8453 12.9275 86.7216 12.8038 86.5979 12.8038H86.5361C86.4742 12.8038 86.4123 12.8038 86.3505 12.8038C86.2886 12.8038 86.2886 12.8656 86.2268 12.8656C86.1649 12.9275 86.1649 12.9275 86.1649 12.9893C86.1649 13.0512 86.1031 13.0512 86.1031 13.1131C86.1031 13.1749 86.1031 13.2368 86.1031 13.2986C86.1031 13.3605 86.1031 13.4223 86.1031 13.4842V15.3399C86.1031 15.5873 86.1649 15.7729 86.2268 15.8966C86.2886 16.0203 86.4123 16.0821 86.5979 16.0821C86.6597 16.0821 86.7216 16.0821 86.7216 16.0821C86.7835 16.0821 86.7835 16.0821 86.8453 16.0203L86.9072 15.9584C86.9072 15.8966 86.969 15.8966 86.969 15.8347C86.969 15.7729 86.969 15.7728 86.969 15.711C86.969 15.6491 86.969 15.5873 86.969 15.5873C86.969 15.5254 86.969 15.4636 86.969 15.4017V15.0306H87.7113V15.4017C87.7113 15.5873 87.7113 15.711 87.6494 15.8347C87.6494 15.9584 87.5876 16.0821 87.5257 16.2058C87.4639 16.3296 87.402 16.3914 87.3402 16.5151C87.2783 16.577 87.1546 16.6388 87.0309 16.7007C86.9072 16.7625 86.7216 16.7625 86.5361 16.7625Z" fill="white"/>
<path d="M89.0721 16.144C89.134 16.144 89.1958 16.2058 89.2577 16.2058C89.3196 16.2058 89.3814 16.2058 89.4433 16.144C89.5051 16.144 89.567 16.0821 89.567 16.0821C89.6288 16.0203 89.6289 16.0203 89.6289 15.9584C89.6289 15.8966 89.6288 15.8347 89.6907 15.7729C89.6907 15.711 89.6907 15.6491 89.6907 15.5873V13.6079C89.6907 13.4842 89.6907 13.4223 89.6907 13.3605C89.6907 13.2986 89.6289 13.2368 89.6289 13.1749C89.6289 13.113 89.567 13.0512 89.5051 13.0512C89.4433 13.0512 89.3814 12.9893 89.2577 12.9893C89.134 12.9893 89.0722 12.9893 89.0103 13.0512C88.9484 13.0512 88.8866 13.113 88.8866 13.1749C88.8866 13.2368 88.8247 13.2986 88.8247 13.3605C88.8247 13.4223 88.8247 13.546 88.8247 13.6079V15.5873C88.8247 15.6491 88.8247 15.711 88.8247 15.7729C88.8247 15.8347 88.8247 15.8966 88.8866 15.9584C88.8866 16.0203 88.9484 16.0821 88.9484 16.0821C88.9484 16.0821 89.0103 16.144 89.0721 16.144ZM89.2577 16.7625C88.8247 16.7625 88.5154 16.6388 88.268 16.3914C88.0825 16.144 87.9587 15.7728 87.9587 15.3399V13.7316C87.9587 13.4842 87.9587 13.2986 88.0206 13.1131C88.0824 12.9275 88.1443 12.8038 88.2062 12.6801C88.3299 12.5564 88.4536 12.4326 88.5773 12.3708C88.7629 12.3089 88.9484 12.2471 89.1959 12.2471C89.6288 12.2471 89.9381 12.3708 90.1855 12.6182C90.3711 12.8656 90.4948 13.2368 90.4948 13.6698V15.278C90.4948 15.5254 90.4948 15.711 90.433 15.8966C90.3711 16.0821 90.3093 16.2058 90.2474 16.3295C90.1237 16.4533 90 16.577 89.8763 16.6388C89.6907 16.7625 89.5051 16.7625 89.2577 16.7625Z" fill="white"/>
<path d="M90.8659 16.701L90.9277 12.3711H91.7319L92.4123 15.402L93.0309 12.3711H93.835L93.8968 16.701H93.3401L93.2783 13.7319L92.6597 16.701H92.1649L91.5463 13.7319L91.4845 16.701H90.8659Z" fill="white"/>
<path d="M94.3299 16.701L94.3918 12.3711H95.1959L95.8763 15.402L96.4948 12.3711H97.299L97.3608 16.701H96.8041L96.7423 13.7319L96.1237 16.701H95.6289L95.0103 13.7319L94.9485 16.701H94.3299Z" fill="white"/>
<path d="M99.0309 16.7628C98.8454 16.7628 98.6598 16.7628 98.5361 16.701C98.4123 16.6391 98.2886 16.5773 98.1649 16.5154C98.0412 16.4536 97.9793 16.3299 97.9175 16.2062C97.8556 16.0824 97.7938 15.9587 97.7938 15.7732C97.7938 15.6494 97.7319 15.4639 97.7319 15.2783V12.3711H98.4742V15.3402C98.4742 15.4639 98.4742 15.5257 98.4742 15.5876C98.4742 15.6495 98.4742 15.7113 98.5361 15.835C98.5361 15.8969 98.5979 15.9587 98.5979 16.0206C98.6598 16.0824 98.6598 16.0824 98.7216 16.1443C98.7835 16.2061 98.8454 16.2062 98.9072 16.2062C98.9691 16.2062 99.0309 16.2061 99.0928 16.1443C99.1546 16.0824 99.2165 16.0824 99.2165 16.0206C99.2165 15.9587 99.2783 15.8969 99.2783 15.835C99.2783 15.7732 99.2783 15.7113 99.3402 15.5876C99.3402 15.5257 99.3402 15.402 99.3402 15.3402V12.3711H100.082V15.2783C100.082 15.4639 100.082 15.6494 100.021 15.7732C100.021 15.8969 99.9587 16.0824 99.8969 16.2062C99.835 16.3299 99.7732 16.4536 99.6495 16.5154C99.5258 16.5773 99.4639 16.6391 99.2783 16.701C99.3402 16.7628 99.2165 16.7628 99.0309 16.7628Z" fill="white"/>
<path d="M100.639 16.701V12.3711H101.196L102.247 14.8453V12.3711H102.928V16.701H102.371L101.32 14.103V16.701H100.639Z" fill="white"/>
<path d="M104.165 12.3711H103.361V16.7628H104.165V12.3711Z" fill="white"/>
<path d="M105.031 16.701V12.9278H104.289V12.3711H106.515V12.9278H105.835V16.701H105.031Z" fill="white"/>
<path d="M107.505 12.3711H106.701V16.7628H107.505V12.3711Z" fill="white"/>
<path d="M107.938 16.701V12.3711H109.732V12.9278H108.742V14.1649H109.546V14.7216H108.742V16.1443H109.794V16.701H107.938Z" fill="white"/>
<path d="M111.093 16.7635C110.35 16.7635 109.918 16.3305 109.856 15.4027L110.536 15.279C110.536 15.8357 110.722 16.145 111.031 16.145C111.155 16.145 111.216 16.0831 111.278 16.0212C111.34 15.9594 111.34 15.8357 111.34 15.712C111.34 15.5883 111.34 15.4645 111.278 15.4027C111.216 15.279 111.155 15.2171 111.155 15.1553C111.093 15.0934 111.031 15.0316 110.907 14.9079L110.35 14.413C110.165 14.2893 110.041 14.1037 109.979 13.98C109.917 13.7944 109.856 13.6089 109.856 13.3615C109.856 13.0522 109.979 12.7429 110.165 12.5573C110.35 12.3718 110.66 12.248 110.969 12.248C111.155 12.248 111.278 12.2481 111.402 12.3099C111.526 12.3718 111.649 12.4336 111.711 12.4955C111.773 12.5573 111.835 12.681 111.897 12.7429C111.959 12.8666 112.021 12.9285 112.021 13.0522C112.021 13.1759 112.082 13.2996 112.082 13.4233L111.402 13.547C111.402 13.4852 111.402 13.3615 111.402 13.2996C111.402 13.2377 111.402 13.1759 111.34 13.114C111.278 13.0522 111.278 12.9903 111.278 12.9285C111.216 12.8666 111.216 12.8666 111.155 12.8048C111.093 12.8048 111.031 12.7429 110.969 12.8048C110.845 12.8048 110.783 12.8666 110.722 12.9285C110.66 12.9903 110.598 13.114 110.598 13.2377C110.598 13.3615 110.598 13.4852 110.66 13.6089C110.722 13.6707 110.783 13.7944 110.907 13.9182L111.464 14.413C111.588 14.4749 111.649 14.5986 111.711 14.6604C111.773 14.7223 111.835 14.846 111.897 14.9079C111.959 15.0316 112.021 15.1553 112.021 15.279C112.082 15.4027 112.082 15.5264 112.082 15.6501C112.082 15.9594 111.959 16.2068 111.773 16.4542C111.711 16.7017 111.402 16.7635 111.093 16.7635Z" fill="white"/>
<path d="M70.268 45.7732H70.3917H79.3608C79.4845 45.7732 79.6082 45.6494 79.6082 45.5257C79.6082 45.4639 79.6082 45.402 79.5464 45.402L75.0309 39.5876L74.969 39.5257C74.9072 39.4639 74.8453 39.4639 74.7835 39.4639C74.7216 39.4639 74.6598 39.4639 74.6598 39.5257V39.5876L74.5979 39.6494L70.2061 45.402L70.1443 45.4639C70.1443 45.5257 70.0824 45.5257 70.0824 45.5876C70.0206 45.6495 70.1443 45.7732 70.268 45.7732Z" fill="white"/>
<path d="M79.2989 46.5771H70.2061C70.0824 46.5771 69.9587 46.7009 69.9587 46.8246V53.938C69.9587 54.0617 70.0824 54.1854 70.2061 54.1854H73.1134V49.7318C73.1134 49.6081 73.2371 49.4844 73.3608 49.4844H76.0824C76.2061 49.4844 76.3299 49.6081 76.3299 49.7318V54.1854H79.3608C79.4845 54.1854 79.6082 54.0617 79.6082 53.938V46.8246C79.5464 46.7009 79.4226 46.5771 79.2989 46.5771Z" fill="white"/>
<path d="M109.917 47.6289C109.917 47.7526 109.794 47.8145 109.67 47.8145H107.01C106.887 47.8145 106.763 47.6908 106.763 47.6289V46.0207C106.763 45.8969 106.887 45.8351 107.01 45.8351H109.67C109.794 45.8351 109.917 45.9588 109.917 46.0207V47.6289ZM109.917 50.6598C109.917 50.7835 109.794 50.8454 109.67 50.8454H107.01C106.887 50.8454 106.763 50.7217 106.763 50.6598V49.0516C106.763 48.9279 106.887 48.866 107.01 48.866H109.67C109.794 48.866 109.917 48.9897 109.917 49.0516V50.6598ZM105.773 47.6289C105.773 47.7526 105.649 47.8145 105.526 47.8145H102.866C102.742 47.8145 102.619 47.6908 102.619 47.6289V46.0207C102.619 45.8969 102.742 45.8351 102.866 45.8351H105.526C105.649 45.8351 105.773 45.9588 105.773 46.0207V47.6289ZM105.773 50.6598C105.773 50.7835 105.649 50.8454 105.526 50.8454H102.866C102.742 50.8454 102.619 50.7217 102.619 50.6598V49.0516C102.619 48.9279 102.742 48.866 102.866 48.866H105.526C105.649 48.866 105.773 48.9897 105.773 49.0516V50.6598ZM110.722 44.7217H101.753C101.629 44.7217 101.505 44.8454 101.505 44.9073V54C101.505 54.1237 101.629 54.1856 101.753 54.1856H110.722C110.845 54.1856 110.969 54.0619 110.969 54V44.9073C110.907 44.7835 110.845 44.7217 110.722 44.7217Z" fill="white"/>
<path d="M88.5155 30.0619C88.5155 30.1237 88.4536 30.1856 88.3917 30.1856H86.3505C86.2887 30.1856 86.2268 30.1237 86.2268 30.0619V27.8351C86.2268 27.7732 86.2887 27.7114 86.3505 27.7114H88.3917C88.4536 27.7114 88.5155 27.7732 88.5155 27.8351V30.0619ZM88.5155 35.2578C88.5155 35.3196 88.4536 35.3815 88.3917 35.3815H86.3505C86.2887 35.3815 86.2268 35.3196 86.2268 35.2578V33.031C86.2268 32.9691 86.2887 32.9073 86.3505 32.9073H88.3917C88.4536 32.9073 88.5155 32.9691 88.5155 33.031V35.2578ZM88.5155 40.3918C88.5155 40.4536 88.4536 40.5155 88.3917 40.5155H86.3505C86.2887 40.5155 86.2268 40.4536 86.2268 40.3918V38.165C86.2268 38.1031 86.2887 38.0413 86.3505 38.0413H88.3917C88.4536 38.0413 88.5155 38.1031 88.5155 38.165V40.3918ZM88.5155 45.5877C88.5155 45.6495 88.4536 45.7114 88.3917 45.7114H86.3505C86.2887 45.7114 86.2268 45.6495 86.2268 45.5877V43.3609C86.2268 43.299 86.2887 43.2371 86.3505 43.2371H88.3917C88.4536 43.2371 88.5155 43.299 88.5155 43.3609V45.5877ZM88.5155 50.7217C88.5155 50.7835 88.4536 50.8454 88.3917 50.8454H86.3505C86.2887 50.8454 86.2268 50.7835 86.2268 50.7217V48.4949C86.2268 48.433 86.2887 48.3712 86.3505 48.3712H88.3917C88.4536 48.3712 88.5155 48.433 88.5155 48.4949V50.7217ZM84.5567 30.0619C84.5567 30.1237 84.4948 30.1856 84.433 30.1856H82.3917C82.3299 30.1856 82.268 30.1237 82.268 30.0619V27.8351C82.268 27.7732 82.3299 27.7114 82.3917 27.7114H84.433C84.4948 27.7114 84.5567 27.7732 84.5567 27.8351V30.0619ZM84.5567 35.2578C84.5567 35.3196 84.4948 35.3815 84.433 35.3815H82.3917C82.3299 35.3815 82.268 35.3196 82.268 35.2578V33.031C82.268 32.9691 82.3299 32.9073 82.3917 32.9073H84.433C84.4948 32.9073 84.5567 32.9691 84.5567 33.031V35.2578ZM84.5567 40.3918C84.5567 40.4536 84.4948 40.5155 84.433 40.5155H82.3917C82.3299 40.5155 82.268 40.4536 82.268 40.3918V38.165C82.268 38.1031 82.3299 38.0413 82.3917 38.0413H84.433C84.4948 38.0413 84.5567 38.1031 84.5567 38.165V40.3918ZM84.5567 45.5877C84.5567 45.6495 84.4948 45.7114 84.433 45.7114H82.3917C82.3299 45.7114 82.268 45.6495 82.268 45.5877V43.3609C82.268 43.299 82.3299 43.2371 82.3917 43.2371H84.433C84.4948 43.2371 84.5567 43.299 84.5567 43.3609V45.5877ZM84.5567 50.7217C84.5567 50.7835 84.4948 50.8454 84.433 50.8454H82.3917C82.3299 50.8454 82.268 50.7835 82.268 50.7217V48.4949C82.268 48.433 82.3299 48.3712 82.3917 48.3712H84.433C84.4948 48.3712 84.5567 48.433 84.5567 48.4949V50.7217ZM89.8144 23.6289H81.0309C80.9072 23.6289 80.8453 23.7526 80.8453 23.8145V53.8763C80.8453 54 80.969 54.0619 81.0309 54.0619H89.8144C89.9381 54.0619 90 53.9382 90 53.8763V23.8145C90 23.7526 89.9381 23.6289 89.8144 23.6289Z" fill="white"/>
<path d="M110.907 43.7938C110.907 43.9175 110.845 43.9794 110.722 43.9794H101.691C101.567 43.9794 101.505 43.9175 101.505 43.7938V42C101.505 41.8763 101.567 41.8145 101.691 41.8145H110.722C110.845 41.8145 110.907 41.8763 110.907 42V43.7938Z" fill="white"/>
<path d="M99.4639 38.5358C99.4639 38.6596 99.3402 38.7214 99.2784 38.7214H96.6186C96.4949 38.7214 96.433 38.5977 96.433 38.5358V36.8657C96.433 36.742 96.5567 36.6183 96.6186 36.6183H99.2165C99.3402 36.6183 99.4021 36.742 99.4021 36.8657V38.5358H99.4639ZM99.4639 41.5668C99.4639 41.6905 99.3402 41.7523 99.2784 41.7523H96.6186C96.4949 41.7523 96.433 41.6286 96.433 41.5668V39.8967C96.433 39.773 96.5567 39.7111 96.6186 39.7111H99.2165C99.3402 39.7111 99.4021 39.8348 99.4021 39.8967V41.5668H99.4639ZM99.4639 44.5977C99.4639 44.7214 99.3402 44.7833 99.2784 44.7833H96.6186C96.4949 44.7833 96.433 44.6596 96.433 44.5977V42.9276C96.433 42.8039 96.5567 42.742 96.6186 42.742H99.2165C99.3402 42.742 99.4021 42.8657 99.4021 42.9276V44.5977H99.4639ZM99.4639 47.6286C99.4639 47.7523 99.3402 47.8142 99.2784 47.8142H96.6186C96.4949 47.8142 96.433 47.6905 96.433 47.6286V45.9585C96.433 45.8348 96.5567 45.773 96.6186 45.773H99.2165C99.3402 45.773 99.4021 45.8967 99.4021 45.9585V47.6286H99.4639ZM99.4639 50.6596C99.4639 50.7833 99.3402 50.8451 99.2784 50.8451H96.6186C96.4949 50.8451 96.433 50.7214 96.433 50.6596V48.9895C96.433 48.8658 96.5567 48.8039 96.6186 48.8039H99.2165C99.3402 48.8039 99.4021 48.9276 99.4021 48.9895V50.6596H99.4639ZM95.4433 37.9173V37.9791V41.5049C95.4433 41.6286 95.3196 41.6905 95.2577 41.6905H92.6598C92.5361 41.6905 92.4742 41.5668 92.4742 41.5049V41.1338V41.0719C92.4742 41.0719 92.4742 41.0719 92.4742 41.0101C92.7835 40.5152 94.3299 38.6596 94.9485 37.9173L95.0103 37.8554C95.0722 37.7936 95.134 37.7936 95.1959 37.7936C95.3196 37.7936 95.3814 37.8554 95.4433 37.9791V37.9173ZM95.4433 44.5977C95.4433 44.7214 95.3196 44.7833 95.2577 44.7833H92.6598C92.5361 44.7833 92.4742 44.6596 92.4742 44.5977V42.9276C92.4742 42.8039 92.5979 42.742 92.6598 42.742H95.2577C95.3815 42.742 95.4433 42.8657 95.4433 42.9276V44.5977ZM95.4433 47.6286C95.4433 47.7523 95.3196 47.8142 95.2577 47.8142H92.6598C92.5361 47.8142 92.4742 47.6905 92.4742 47.6286V45.9585C92.4742 45.8348 92.5979 45.773 92.6598 45.773H95.2577C95.3815 45.773 95.4433 45.8967 95.4433 45.9585V47.6286ZM95.4433 50.6596C95.4433 50.7833 95.3196 50.8451 95.2577 50.8451H92.6598C92.5361 50.8451 92.4742 50.7214 92.4742 50.6596V48.9895C92.4742 48.8658 92.5979 48.8039 92.6598 48.8039H95.2577C95.3815 48.8039 95.4433 48.9276 95.4433 48.9895V50.6596ZM96.8041 35.2575L96.866 35.1956C97.4846 34.4534 98.4742 33.2163 98.9691 32.5977L99.031 32.5359C99.0928 32.474 99.1547 32.474 99.2165 32.474C99.3402 32.474 99.4021 32.5358 99.4639 32.6596V32.7833V32.8451V35.4431C99.4639 35.5668 99.3402 35.6905 99.2165 35.6905H97.1753H97.0516C96.9279 35.6905 96.8041 35.5668 96.8041 35.4431C96.7423 35.3812 96.7423 35.3194 96.8041 35.2575ZM100.454 29.3193C100.454 29.1956 100.33 29.1338 100.206 29.1338C100.144 29.1338 100.144 29.1338 100.082 29.1956L100.021 29.3193L91.3608 40.2678L91.299 40.3297C91.2371 40.3915 91.2371 40.4534 91.2371 40.5152V53.9998C91.2371 54.1235 91.3608 54.1853 91.4227 54.1853H100.206C100.33 54.1853 100.392 54.0616 100.392 53.9998V29.3812C100.454 29.3812 100.454 29.3193 100.454 29.3193Z" fill="white"/>
</g>
<g clip-path="url(#clip2_501_30716)">
<path d="M0.0834439 58.6725L-0.0147095 130.735L61.6805 130.819L61.7786 58.7565L0.0834439 58.6725Z" fill="#48773C"/>
<path d="M5.32647 67.4389C5.2028 67.5008 4.89362 67.6245 4.39894 67.81C4.02793 67.9336 3.78059 68.0573 3.65692 68.0573V66.4496C3.9661 66.3259 4.33711 66.1404 4.83179 65.8931C5.26463 65.6457 5.63565 65.3984 5.82116 65.2129H7.49071V76.6524H5.32647V67.4389Z" fill="white"/>
<path d="M9.34572 75.91C8.85104 75.2917 8.6037 74.426 8.6037 73.3748V73.0038H10.7679V73.3748C10.7679 73.9313 10.8298 74.3642 10.9534 74.6115C11.0771 74.8588 11.3245 74.9825 11.6955 74.9825C12.0665 74.9825 12.252 74.8588 12.3756 74.6115C12.4993 74.3642 12.5612 73.9313 12.5612 73.3748C12.5612 72.7564 12.4993 72.3236 12.3138 72.0144C12.1283 71.7052 11.8191 71.5816 11.3244 71.5816C11.3244 71.5816 11.1389 71.5816 10.9534 71.5816V69.9739H11.3244C11.8191 69.9739 12.1283 69.8502 12.3138 69.6028C12.4993 69.3555 12.623 68.9227 12.623 68.3043C12.623 67.8096 12.5612 67.4386 12.4375 67.1913C12.3138 66.9439 12.0665 66.8202 11.6955 66.8202C11.3863 66.8202 11.1389 66.9439 11.0153 67.1913C10.8916 67.4386 10.8298 67.8096 10.8298 68.3043V68.799H8.66553V68.1806C8.66553 67.1913 8.91287 66.3874 9.46939 65.8927C10.0259 65.3362 10.7679 65.0889 11.6955 65.0889C12.6848 65.0889 13.4268 65.3362 13.9834 65.8927C14.5399 66.4492 14.7872 67.1913 14.7872 68.1806C14.7872 68.8608 14.6636 69.4173 14.3544 69.8502C14.107 70.283 13.736 70.5922 13.3032 70.7159C14.2925 71.0869 14.7872 71.9526 14.7872 73.4366C14.7872 74.5497 14.5399 75.4154 14.0452 76.0337C13.5505 76.6521 12.8085 76.9612 11.6955 76.9612C10.5824 76.8376 9.8404 76.5284 9.34572 75.91Z" fill="white"/>
<path d="M20.5379 69.6025C20.3524 69.6025 20.1669 69.6025 20.0432 69.5407C19.9196 69.4789 19.7959 69.417 19.6722 69.3552C19.5486 69.2933 19.4867 69.1697 19.4249 69.046C19.3631 68.9223 19.3012 68.7987 19.3012 68.6132C19.3012 68.4895 19.2394 68.304 19.2394 68.1185V66.6344C19.2394 66.4489 19.2394 66.2634 19.3012 66.1398C19.363 66.0161 19.3631 65.8306 19.4249 65.7069C19.4867 65.5832 19.5486 65.4596 19.6722 65.3977C19.7959 65.3359 19.8577 65.2741 20.0432 65.2122C20.1669 65.1504 20.3524 65.1504 20.5379 65.1504C20.7853 65.1504 20.9708 65.1504 21.0944 65.2122C21.2181 65.2741 21.3418 65.3359 21.4654 65.4596C21.5273 65.5832 21.5891 65.7069 21.651 65.8306C21.7128 65.9543 21.7128 66.1398 21.7128 66.3871V66.7581H20.9708V66.3871C20.9708 66.1398 20.9708 66.0161 20.9089 65.9542C20.8471 65.8306 20.7234 65.7069 20.5998 65.7069H20.5379C20.4761 65.7069 20.4143 65.7069 20.3524 65.7069C20.2906 65.7069 20.2906 65.7687 20.2287 65.7687C20.1669 65.8306 20.1669 65.8306 20.1669 65.8924C20.1669 65.9542 20.1051 65.9542 20.1051 66.0161C20.1051 66.0779 20.1051 66.1397 20.1051 66.2016C20.1051 66.2634 20.1051 66.3253 20.1051 66.3871V68.2422C20.1051 68.4895 20.1669 68.675 20.2287 68.7987C20.2906 68.9223 20.4142 68.9842 20.5998 68.9842C20.6616 68.9842 20.7234 68.9842 20.7234 68.9842C20.7853 68.9842 20.7853 68.9842 20.8471 68.9223L20.9089 68.8605C20.9089 68.7987 20.9708 68.7987 20.9708 68.7368C20.9708 68.675 20.9708 68.675 20.9708 68.6132C20.9708 68.5513 20.9708 68.4895 20.9708 68.4895C20.9708 68.4277 20.9708 68.3658 20.9708 68.304V67.933H21.7128V68.304C21.7128 68.4895 21.7128 68.6132 21.651 68.7368C21.651 68.8605 21.5891 68.9842 21.5273 69.1078C21.4654 69.2315 21.4036 69.2934 21.3418 69.417C21.2799 69.4789 21.1563 69.5407 21.0326 69.6025C20.8471 69.6025 20.6616 69.6025 20.5379 69.6025Z" fill="white"/>
<path d="M22.0837 69.5414V65.2129H22.8876V68.9848H23.9388V69.5414H22.0837Z" fill="white"/>
<path d="M24.99 65.2129H24.1862V69.6032H24.99V65.2129Z" fill="white"/>
<path d="M25.4847 69.5414L25.5465 65.2129H26.4122L27.0306 68.2428L27.6489 65.2129H28.4528L28.5146 69.5414H27.9581L27.8963 66.5733L27.2779 69.5414H26.7832L26.1649 66.5114L26.103 69.5414H25.4847Z" fill="white"/>
<path d="M29.8132 67.9948H30.3697L30.0606 66.2016L29.8132 67.9948ZM28.8239 69.5407L29.6895 65.1504H30.4934L31.3591 69.5407H30.6171L30.4316 68.5513H29.7514L29.5659 69.5407H28.8239Z" fill="white"/>
<path d="M31.9156 69.5414V65.7694H31.2354V65.2129H33.4615V65.7694H32.7195V69.5414H31.9156Z" fill="white"/>
<path d="M33.647 69.5414V65.2129H35.4403V65.7694H34.4509V67.0061H35.2547V67.5626H34.4509V68.9848H35.5021V69.5414H33.647Z" fill="white"/>
<path d="M20.1051 75.1677H20.6616L20.3524 73.3744L20.1051 75.1677ZM19.1157 76.7135L19.9814 72.3232H20.7853L21.651 76.7135H20.9089L20.7234 75.7242H19.9814L19.7959 76.7135H19.1157Z" fill="white"/>
<path d="M23.135 76.7757C22.9495 76.7757 22.764 76.7757 22.6403 76.7138C22.5166 76.652 22.3929 76.5902 22.2693 76.5283C22.1456 76.4665 22.0838 76.3428 22.0219 76.2192C21.9601 76.0955 21.8983 75.9718 21.8983 75.7863C21.8983 75.6626 21.8364 75.4771 21.8364 75.2916V73.7458C21.8364 73.5603 21.8364 73.3748 21.8983 73.2511C21.8983 73.1274 21.9601 72.9419 22.0219 72.8182C22.0838 72.6946 22.1456 72.5709 22.2693 72.5091C22.3929 72.4472 22.4548 72.3854 22.6403 72.3236C22.764 72.2617 22.9495 72.2617 23.135 72.2617C23.3823 72.2617 23.5678 72.2617 23.6915 72.3236C23.8152 72.3854 23.9388 72.4472 24.0625 72.5709C24.1243 72.6946 24.1862 72.8182 24.248 72.9419C24.3098 73.0656 24.3098 73.2511 24.3098 73.4984V73.8694H23.5678V73.4984C23.5678 73.2511 23.5678 73.1274 23.506 73.0656C23.4441 72.9419 23.3205 72.8182 23.1968 72.8182H23.135C23.0731 72.8182 23.0113 72.8182 22.9495 72.8182C22.8876 72.8182 22.8876 72.8801 22.8258 72.8801C22.764 72.9419 22.764 72.9419 22.764 73.0037C22.764 73.0656 22.7021 73.0656 22.7021 73.1274C22.7021 73.1892 22.7021 73.2511 22.7021 73.3129C22.7021 73.3747 22.7021 73.4366 22.7021 73.4984V75.3535C22.7021 75.6008 22.764 75.7863 22.8258 75.91C22.8876 76.0337 23.0113 76.0955 23.1968 76.0955C23.2586 76.0955 23.3205 76.0955 23.3205 76.0955C23.3823 76.0955 23.3823 76.0955 23.4441 76.0337L23.506 75.9718C23.506 75.91 23.5678 75.91 23.5678 75.8482C23.5678 75.7863 23.5678 75.7863 23.5678 75.7245C23.5678 75.6627 23.5678 75.6008 23.5678 75.6008C23.5678 75.539 23.5678 75.4772 23.5678 75.4153V75.0443H24.3098V75.4153C24.3098 75.6008 24.3098 75.7245 24.248 75.8482C24.248 75.9718 24.1862 76.0955 24.1243 76.2192C24.0625 76.3428 24.0007 76.4047 23.9388 76.5283C23.877 76.5902 23.7533 76.652 23.6297 76.7138C23.506 76.7138 23.3205 76.7757 23.135 76.7757Z" fill="white"/>
<path d="M25.1756 76.7135V72.9416H24.4335V72.3232H26.6596V72.9416H25.9794V76.7135H25.1756Z" fill="white"/>
<path d="M27.649 72.3232H26.8452V76.7135H27.649V72.3232Z" fill="white"/>
<path d="M29.133 76.1573C29.1949 76.1573 29.2567 76.2192 29.3186 76.2192C29.3804 76.2192 29.4422 76.2192 29.5041 76.1573C29.5659 76.0955 29.6277 76.0955 29.6277 76.0955C29.6896 76.0337 29.6896 76.0337 29.6896 75.9718C29.6896 75.91 29.6896 75.8482 29.7514 75.7863C29.7514 75.7245 29.7514 75.6627 29.7514 75.6008V73.6221C29.7514 73.4984 29.7514 73.4366 29.7514 73.3747C29.7514 73.3129 29.6896 73.2511 29.6896 73.1892C29.6277 73.1274 29.6277 73.0656 29.5659 73.0656C29.5041 73.0656 29.4422 73.0037 29.3186 73.0037C29.1949 73.0037 29.133 73.0037 29.0712 73.0656C29.0094 73.1274 28.9475 73.1274 28.9475 73.1892C28.9475 73.2511 28.8857 73.3129 28.8857 73.3747C28.8857 73.4366 28.8857 73.5602 28.8857 73.6221V75.6008C28.8857 75.6627 28.8857 75.7245 28.8857 75.7863C28.8857 75.8482 28.8857 75.91 28.9475 75.9718C28.9475 76.0337 29.0094 76.0955 29.0094 76.0955C29.0712 76.0955 29.0712 76.0955 29.133 76.1573ZM29.3804 76.7757C28.9475 76.7757 28.6384 76.652 28.391 76.4047C28.2055 76.1573 28.0818 75.7863 28.0818 75.3535V73.7458C28.0818 73.4984 28.0818 73.3129 28.1437 73.1274C28.2055 72.9419 28.2674 72.8182 28.3292 72.6946C28.4529 72.5709 28.5765 72.4472 28.7002 72.3854C28.8857 72.3235 29.0712 72.2617 29.3186 72.2617C29.7514 72.2617 30.0606 72.3854 30.3079 72.6327C30.4934 72.8801 30.6171 73.2511 30.6171 73.6839V75.2916C30.6171 75.539 30.6171 75.7245 30.5553 75.91C30.4934 76.0955 30.4316 76.2192 30.3698 76.3429C30.2461 76.4665 30.1224 76.5902 29.9987 76.652C29.7514 76.7139 29.5659 76.7757 29.3804 76.7757Z" fill="white"/>
<path d="M31.0499 76.7135V72.3232H31.6064L32.6576 74.7967V72.3232H33.3378V76.7135H32.7812L31.73 74.1165V76.7135H31.0499Z" fill="white"/>
<path d="M39.5832 99.778C39.3358 99.7161 38.2846 98.2939 39.0885 97.3046C39.2122 97.1191 38.8411 96.6862 38.903 96.6862C39.3358 96.6244 39.5832 96.9336 39.7068 97.3664C39.7068 97.5519 39.7068 97.7374 39.7068 97.9229C39.7687 98.5413 39.7068 99.1596 39.5832 99.778ZM36.9861 104.477C36.8624 104.477 36.8006 104.416 36.6769 104.354C36.1822 104.106 36.2441 104.477 35.9967 104.416C35.7494 104.292 36.3059 103.735 35.502 104.23C34.76 104.725 34.9455 104.168 34.6363 103.303C34.3272 102.499 35.0073 101.509 35.6257 101.324C36.4296 101.015 36.9242 100.953 37.2953 100.891C38.4083 100.644 38.6556 99.9635 38.8411 100.334C38.903 100.396 38.903 100.458 38.9648 100.52C39.0266 100.644 39.0885 100.891 39.0885 101.138C38.6556 102.437 37.9136 103.55 36.9861 104.477ZM30.4315 107.198C29.504 107.198 28.6383 107.075 27.8345 106.827C27.7108 106.704 27.649 106.58 27.7108 106.394C28.02 105.652 28.8857 105.343 29.504 105.281C30.9881 105.158 32.9668 106.271 33.3378 106.085C33.647 105.9 34.2653 105.096 35.2547 105.096C35.873 105.096 35.873 105.219 36.1204 105.281C34.5127 106.456 32.5339 107.198 30.4315 107.198ZM29.1948 101.138C29.0712 101.324 28.7001 102.932 28.4528 102.746C28.2055 102.561 28.5765 100.953 28.6383 100.829C29.0093 100.087 29.8132 100.149 29.1948 101.138ZM32.9668 99.2833C32.7813 99.4688 32.2866 99.407 32.1011 99.2215C31.8538 99.036 32.2248 98.7268 32.4103 98.7268C32.7194 98.6649 33.1523 99.0978 32.9668 99.2833ZM37.1097 99.2833C36.9861 99.2215 36.9242 99.1596 36.8624 98.9123C36.8006 98.665 36.9861 98.5413 37.1716 98.6649C37.3571 98.7886 37.6044 99.036 37.6044 99.2215C37.6044 99.407 37.1716 99.3451 37.1097 99.2833ZM37.4808 99.5925C37.7899 99.5925 38.2846 100.025 38.0991 100.149C37.9136 100.335 37.4189 100.273 37.2334 100.087C36.9861 99.9017 37.3571 99.5925 37.4808 99.5925ZM27.5253 103.241C27.3398 103.921 27.1543 104.23 26.9688 104.416C26.7833 104.663 26.1031 104.91 25.6702 104.91C25.2374 104.848 25.1755 103.735 25.1755 103.179C25.1755 102.993 24.8664 103.55 24.7427 102.375C24.619 101.571 24.1243 102.437 24.1243 101.942C24.0625 101.448 23.8152 101.509 23.5678 101.2C23.3205 100.891 23.0113 101.2 22.6403 101.386C22.2693 101.571 22.4548 101.633 21.8983 101.448C21.8983 101.448 21.8983 101.448 21.8364 101.448C21.3418 100.334 21.0944 99.0978 21.0944 97.7992C21.0944 97.4901 21.0944 97.1809 21.1562 96.8717L21.2181 96.8099C21.7128 96.2534 21.7128 96.0679 21.7128 96.0679L22.2693 95.8823C22.2693 95.8823 23.135 96.006 23.8152 96.2534C24.3717 96.4389 25.1755 96.9336 25.6702 96.6862C26.0412 96.5625 26.2886 96.3152 26.2886 96.0679C26.2267 95.6969 25.9794 95.635 25.6084 95.8823C25.4847 95.9442 25.1755 95.3258 24.99 95.3258C24.7427 95.3877 25.2374 96.0679 25.0519 96.1297C24.8664 96.1915 24.4954 95.3877 24.4335 95.2022C24.3717 95.0785 24.0625 94.7693 23.8152 95.0167C23.2586 95.5113 22.393 95.5113 22.2075 95.635C21.6509 96.0679 21.5273 95.5113 21.5273 95.1403C21.5273 95.0785 21.5891 95.0167 21.5891 94.893C21.7746 94.7075 22.393 94.6457 22.6403 94.7693C22.8876 94.9548 23.0731 94.7075 23.135 94.6456C23.2587 94.522 23.1968 94.3983 23.135 94.2746C23.0731 94.151 23.2586 94.0273 23.3823 94.0273C23.506 93.9655 23.9388 93.7181 24.0625 93.5945C24.248 93.4708 25.1137 93.4089 25.4847 93.5945C25.8557 93.78 26.2267 93.6563 26.4122 93.4089C26.6596 93.0998 26.9688 92.9143 27.0924 92.8524C27.2161 92.7906 26.7833 92.3577 26.3504 92.8524C25.9794 93.3471 25.7939 93.3471 25.6084 93.3471C25.4229 93.3471 24.3717 93.0998 24.248 92.7288C24.1243 92.4196 24.5572 92.1104 24.99 91.9249C25.361 91.7394 26.4741 91.7394 26.7214 91.6776C27.2779 91.5539 28.02 91.2447 28.391 91.4921C28.762 91.7394 26.8451 92.1722 27.4634 92.4814C27.7108 92.6051 28.7002 91.9249 29.0093 91.7394C29.8132 91.3066 28.2055 91.1829 28.4528 90.379C28.7001 89.4515 26.5359 89.8225 25.4229 89.8843C26.8451 88.9568 28.5765 88.4003 30.4315 88.4003C34.8218 88.4003 38.4701 91.4302 39.4595 95.5114C39.4595 95.6969 39.4595 95.8824 39.3977 95.9442C39.3358 96.2534 38.6556 96.5625 38.2846 96.006C38.1609 95.8824 37.7899 95.5114 37.7899 96.1297C37.7899 96.7481 38.4083 96.8717 37.7899 97.2427C37.1716 97.6137 37.1097 97.5519 36.8006 97.6137C36.5532 97.7374 36.2441 98.3558 36.3059 98.7268C36.3677 99.0978 37.2334 100.025 36.6151 100.025C36.4914 100.025 35.3784 99.2833 35.1929 98.7886C35.0074 98.2939 34.76 97.7993 34.6363 97.3664C34.5127 96.9954 34.0798 96.8717 33.7706 97.1191C33.4615 97.3664 33.8325 97.5519 33.647 98.0466C33.3996 98.5413 33.2141 98.9741 32.905 98.5413C31.9774 97.4901 30.6789 97.9848 30.4934 96.8717C30.3697 96.2534 29.8132 96.3152 29.3803 95.9442C28.9475 95.5732 28.7002 95.3877 28.5765 95.635C28.5147 95.8824 29.9987 97.0572 30.1224 97.3664C30.3079 97.7993 29.6895 98.2321 29.2567 98.2939C28.8238 98.4176 28.6383 98.0466 28.2055 97.6137C27.7726 97.1809 27.5871 96.8099 27.5253 97.1809C27.4634 97.6756 27.9581 98.4176 28.391 98.7268C28.762 98.9741 29.1948 99.0978 29.0712 99.4688C28.9475 99.8398 29.0712 99.6543 28.6383 100.025C28.2055 100.458 28.1436 100.582 28.1436 101.138C28.1436 101.695 28.02 101.757 27.9581 102.251C27.8963 102.993 27.7108 102.561 27.5253 103.241ZM22.5166 93.0379C22.5166 92.9761 22.5785 92.9761 22.5166 93.0379C22.764 92.7906 23.0731 92.7288 23.3205 92.7288C23.5678 92.6669 23.877 92.7906 23.877 92.9761C23.9388 93.0998 23.3205 93.4089 23.1968 93.5326C22.8876 93.8418 22.393 94.4601 22.0838 94.522C21.9601 94.522 21.8983 94.522 21.8364 94.522C22.0219 93.9036 22.2693 93.4708 22.5166 93.0379ZM23.0113 92.0486C23.135 91.8631 23.506 91.3684 23.5678 91.3065C23.6915 91.1829 23.877 91.121 24.0007 91.121C24.1243 91.121 24.3099 91.1829 24.3717 91.3065C24.3717 91.4302 24.3098 91.8012 24.248 91.9249C24.0625 92.1104 23.5678 92.4196 23.2586 92.3577C23.0113 92.2959 22.9495 92.1104 23.0113 92.0486ZM52.5686 97.6137C50.9608 95.3877 43.788 86.4834 30.4315 86.4834C17.0751 86.4834 9.90223 95.3258 8.29452 97.5519C8.23268 97.6756 8.17084 97.7374 8.10901 97.7992C8.17084 97.8611 8.23268 97.9229 8.29452 98.0466C9.90223 100.273 17.0751 109.177 30.4315 109.177C43.788 109.177 50.9608 100.334 52.5686 98.1084C52.6304 97.9848 52.6922 97.9229 52.7541 97.8611C52.6922 97.7993 52.6304 97.6756 52.5686 97.6137Z" fill="white"/>
</g>
<g clip-path="url(#clip3_501_30716)">
<path d="M60 120H0V180H60V120Z" fill="#40AE49"/>
<path d="M5.07209 127.485C4.94838 127.546 4.6391 127.67 4.14425 127.856C3.77312 127.979 3.52569 128.103 3.40198 128.103V126.495C3.71126 126.371 4.08239 126.186 4.57723 125.938C5.01022 125.691 5.38136 125.443 5.56693 125.258H7.2989V136.701H5.13395V127.485H5.07209Z" fill="white"/>
<path d="M9.64941 136.454C9.21642 136.206 8.90714 135.773 8.78343 135.278C8.59786 134.784 8.53601 134.165 8.53601 133.361H10.6391C10.6391 134.041 10.7009 134.474 10.8247 134.784C10.9484 135.093 11.1958 135.217 11.5669 135.217C11.8762 135.217 12.0618 135.093 12.1855 134.907C12.3092 134.722 12.3711 134.474 12.4329 134.165C12.4948 133.856 12.4948 133.361 12.4948 132.742C12.4948 132.062 12.4329 131.505 12.3092 131.196C12.1855 130.825 11.9381 130.701 11.5051 130.701C11.0102 130.701 10.7009 131.072 10.5154 131.753H8.65971L8.84529 125.258H14.103V127.113H10.6391L10.5154 129.65C10.6391 129.464 10.8865 129.34 11.1958 129.217C11.5051 129.093 11.8762 129.031 12.2474 129.031C13.0515 129.031 13.6082 129.34 14.0412 129.959C14.4123 130.577 14.6597 131.505 14.6597 132.619C14.6597 133.546 14.5979 134.289 14.4123 134.845C14.2267 135.402 13.9175 135.897 13.4845 136.268C13.0515 136.639 12.3711 136.763 11.5669 136.763C10.701 136.887 10.0824 136.701 9.64941 136.454Z" fill="white"/>
<path d="M19.1134 129.588V125.258H19.9175V129.031H20.9691V129.588H19.1134Z" fill="white"/>
<path d="M22.0825 125.258H21.2784V129.65H22.0825V125.258Z" fill="white"/>
<path d="M22.5773 129.588V125.258H24.3711V125.753H23.3196V127.052H24.1237V127.608H23.3196V129.588H22.5773Z" fill="white"/>
<path d="M24.6185 129.588V125.258H26.4123V125.815H25.4226V127.052H26.2268V127.608H25.4226V129.031H26.4742V129.588H24.6185Z" fill="white"/>
<path d="M20.1031 136.206C20.1649 136.206 20.2268 136.268 20.2887 136.268C20.3505 136.268 20.4124 136.268 20.4742 136.206C20.5361 136.206 20.5979 136.145 20.5979 136.145C20.6598 136.083 20.6598 136.083 20.6598 136.021C20.6598 135.959 20.6598 135.897 20.7216 135.835C20.7216 135.773 20.7216 135.712 20.7216 135.65V133.67C20.7216 133.547 20.7216 133.485 20.7216 133.423C20.7216 133.361 20.6598 133.299 20.6598 133.237C20.6598 133.176 20.5979 133.114 20.5361 133.114C20.4742 133.114 20.4124 133.052 20.2887 133.052C20.1649 133.052 20.1031 133.052 20.0412 133.114C19.9794 133.114 19.9175 133.176 19.9175 133.237C19.9175 133.299 19.8557 133.361 19.8557 133.423C19.8557 133.485 19.8557 133.609 19.8557 133.67V135.65C19.8557 135.712 19.8557 135.773 19.8557 135.835C19.8557 135.897 19.8557 135.959 19.9175 136.021C19.9175 136.083 19.9794 136.145 19.9794 136.145C20.0412 136.145 20.0412 136.145 20.1031 136.206ZM20.2887 136.825C19.8557 136.825 19.5464 136.701 19.299 136.454C19.1134 136.206 18.9897 135.835 18.9897 135.402V133.794C18.9897 133.547 18.9897 133.361 19.0515 133.176C19.1134 132.99 19.1752 132.866 19.2371 132.743C19.3608 132.619 19.4845 132.495 19.6082 132.433C19.7938 132.371 19.9794 132.31 20.2268 132.31C20.6598 132.31 20.9691 132.433 21.2165 132.681C21.4021 132.928 21.5258 133.299 21.5258 133.732V135.34C21.5258 135.588 21.5258 135.773 21.4639 135.959C21.4021 136.145 21.3402 136.268 21.2783 136.392C21.2165 136.516 21.0309 136.639 20.9072 136.701C20.7216 136.763 20.5361 136.825 20.2887 136.825Z" fill="white"/>
<path d="M22.0206 136.763V132.371H22.5773L23.6289 134.845V132.371H24.3093V136.763H23.7526L22.701 134.165V136.763H22.0206Z" fill="white"/>
<path d="M25.9175 136.763V132.371H26.7217V136.206H27.7732V136.763H25.9175Z" fill="white"/>
<path d="M28.8247 135.216H29.3814L29.0721 133.423L28.8247 135.216ZM27.835 136.763L28.701 132.371H29.5051L30.3711 136.763H29.6288L29.4433 135.773H28.701L28.5154 136.763H27.835Z" fill="white"/>
<path d="M30.6804 136.763V132.371H31.2371L32.2887 134.845V132.371H32.9691V136.763H32.4124L31.3608 134.165V136.763H30.6804Z" fill="white"/>
<path d="M34.268 136.206H34.5155C34.5773 136.206 34.6392 136.206 34.701 136.206C34.7629 136.206 34.8248 136.206 34.8248 136.144C34.8866 136.144 34.8866 136.082 34.9485 136.021C35.0103 135.959 35.0103 135.959 35.0103 135.897C35.0103 135.835 35.0103 135.773 35.0722 135.711C35.0722 135.649 35.0722 135.588 35.0722 135.526C35.0722 135.464 35.0722 135.402 35.0722 135.278V133.67C35.0722 133.546 35.0722 133.484 35.0722 133.423C35.0722 133.361 35.0722 133.299 35.0722 133.237C35.0722 133.175 35.0103 133.113 35.0103 133.113C35.0103 133.051 34.9485 133.052 34.8866 132.99C34.8247 132.928 34.7629 132.928 34.701 132.928C34.6392 132.928 34.5773 132.928 34.4536 132.928H34.2062V136.206H34.268ZM33.4639 136.763V132.371H34.4536C34.701 132.371 34.9485 132.371 35.134 132.433C35.3196 132.495 35.4433 132.557 35.567 132.68C35.6907 132.804 35.7526 132.928 35.8144 133.113C35.8763 133.299 35.8763 133.484 35.8763 133.732V135.278C35.8763 135.526 35.8763 135.711 35.8144 135.897C35.7526 136.082 35.6907 136.206 35.567 136.33C35.4433 136.454 35.3196 136.515 35.134 136.577C34.9485 136.639 34.7629 136.639 34.5155 136.639H33.4639V136.763Z" fill="white"/>
<path d="M24.8041 160.639C24.866 160.639 24.9278 160.701 24.9278 160.762V165.154C24.9278 165.216 24.866 165.278 24.8041 165.278H23.0103C22.9485 165.278 22.8866 165.216 22.8866 165.154V160.762C22.8866 160.701 22.9485 160.639 23.0103 160.639H24.8041Z" fill="white"/>
<path d="M44.3506 167.195H15.0928C15.031 167.195 14.9691 167.257 14.9691 167.319V169.113C14.9691 169.175 15.031 169.237 15.0928 169.237H44.3506C44.4124 169.237 44.4743 169.175 44.4743 169.113V167.319C44.4743 167.257 44.4124 167.195 44.3506 167.195Z" fill="white"/>
<path d="M44.3506 170.722H15.0928C15.031 170.722 14.9691 170.784 14.9691 170.845V172.639C14.9691 172.701 15.031 172.763 15.0928 172.763H44.3506C44.4124 172.763 44.4743 172.701 44.4743 172.639V170.845C44.4743 170.784 44.4124 170.722 44.3506 170.722Z" fill="white"/>
<path d="M38.7216 155.815C38.3505 155.505 37.3608 154.887 36.1856 154.887C35.3196 154.887 34.5155 155.196 33.8351 155.876C33.7732 155.938 33.7732 156 33.7732 156.062V156.248C33.7732 156.309 33.7732 156.371 33.8351 156.433C33.8969 156.495 33.9588 156.495 34.0206 156.495H34.0825C34.1443 156.495 34.2062 156.433 34.2062 156.433C34.3299 156.309 34.7629 156.186 35.3814 156.186C36 156.186 37.2371 156.371 38.4124 157.423C38.4742 157.485 38.5979 157.547 38.6598 157.547C38.7216 157.547 38.8454 157.485 38.9072 157.423C40.0825 156.309 41.3196 156.186 41.9381 156.186C42.5567 156.186 42.9897 156.309 43.1134 156.433C43.1753 156.495 43.2371 156.495 43.299 156.557C43.299 156.557 43.4227 156.557 43.4845 156.557C43.6083 156.495 43.6701 156.433 43.6701 156.309V156.186C43.6701 156.124 43.6701 156.062 43.6082 156C42.866 155.32 42.1237 154.949 41.2577 154.949C40.0825 154.825 39.1546 155.505 38.7216 155.815Z" fill="white"/>
<path d="M36.9279 144.123C36.866 144.123 36.8041 144.185 36.8041 144.247V144.37C36.8041 144.432 36.8041 144.556 36.866 144.618C36.9279 144.68 36.9897 144.742 37.0516 144.742C37.0516 144.742 37.0516 144.742 37.1134 144.742C37.1753 144.742 37.2371 144.742 37.2371 144.68C37.2371 144.68 37.299 144.68 37.4227 144.68C37.5464 144.68 38.7217 144.742 39.5258 146.041C39.5876 146.102 39.6495 146.164 39.7114 146.164C39.7114 146.164 39.7732 146.164 39.8351 146.164C39.8969 146.164 39.9588 146.164 39.9588 146.102C40.3918 145.917 40.8248 145.793 41.2578 145.793C42 145.793 42.4949 146.102 42.6186 146.226C42.6186 146.288 42.6804 146.288 42.7423 146.35C42.7423 146.35 42.8042 146.412 42.866 146.412C42.866 146.412 42.866 146.412 42.9278 146.412C42.9897 146.412 42.9897 146.412 43.0516 146.412C43.1134 146.412 43.1753 146.35 43.1753 146.288V146.226V146.164C43.1753 146.102 43.1753 146.102 43.1134 146.041C42.5567 145.051 41.6907 144.865 41.134 144.865C40.701 144.865 40.3299 144.989 40.0825 145.051C39.8351 144.68 39.1547 143.937 38.1031 143.937C37.6701 143.814 37.299 143.938 36.9279 144.123Z" fill="white"/>
<path d="M30.7423 148.639V148.763C30.7423 148.825 30.8042 148.887 30.866 148.948C30.9279 149.01 30.9897 149.01 31.0516 148.948C31.0516 148.948 31.0516 148.948 31.1134 148.948C31.1753 148.948 31.2371 148.887 31.2371 148.825C31.3609 148.763 31.732 148.577 32.3506 148.577C32.9073 148.577 33.7732 148.701 34.6392 149.443C34.7011 149.505 34.7629 149.505 34.8866 149.505C34.9485 149.505 35.0722 149.443 35.1341 149.381C36.1238 148.33 37.1753 148.206 37.6701 148.206C38.0413 148.206 38.3506 148.268 38.4124 148.33C38.4743 148.392 38.4743 148.392 38.5361 148.392C38.5361 148.392 38.598 148.392 38.6598 148.392H38.7217C38.8454 148.33 38.9072 148.268 38.9072 148.144V148.021C38.9072 147.959 38.8454 147.897 38.8454 147.835C38.2887 147.34 37.6083 147.093 36.9897 147.093C35.9382 147.093 35.1341 147.711 34.8248 148.021C34.5155 147.835 33.7732 147.402 32.8454 147.402C32.0413 147.402 31.3609 147.711 30.7423 148.392C30.7423 148.454 30.7423 148.577 30.7423 148.639Z" fill="white"/>
<path d="M15.897 150.989C15.897 149.257 17.3197 147.835 19.0516 147.835C19.1135 147.835 19.1753 147.835 19.2372 147.835C19.4227 145.608 21.2784 143.876 23.5052 143.876C25.8557 143.876 27.7733 145.794 27.7733 148.144C27.7733 148.824 27.5877 149.443 27.3403 150C29.5052 150.495 31.1135 152.412 31.1135 154.701C31.1135 157.361 28.9485 159.525 26.2887 159.525C26.1032 159.525 19.8557 159.464 19.8557 159.464C18.0001 159.464 16.4537 157.917 16.4537 156.062C16.4537 155.134 16.8248 154.33 17.3815 153.711C16.5774 153.154 15.897 152.165 15.897 150.989Z" fill="white"/>
</g>
<g clip-path="url(#clip4_501_30716)">
<path d="M120 60H60V120H120V60Z" fill="#007DBB"/>
<path d="M65.134 67.4846C65.0103 67.5465 64.701 67.6702 64.2062 67.8557C63.8351 67.9795 63.5876 68.1032 63.4639 68.1032V66.4949C63.7732 66.3712 64.1443 66.1856 64.6392 65.9382C65.0722 65.6908 65.4433 65.4434 65.6289 65.2578H67.3608V76.7011H65.1959V67.4846H65.134Z" fill="white"/>
<path d="M71.7526 72.3094V67.4228L70.0207 72.3094H71.7526ZM71.7526 73.9794H68.2887V72.2475L71.2578 65.2578H73.732V72.3094H74.8454V73.9794H73.732V76.7011H71.7526V73.9794Z" fill="white"/>
<path d="M79.1752 69.5877V65.2578H79.9793V69.031H81.0309V69.5877H79.1752Z" fill="white"/>
<path d="M82.1443 65.2578H81.3402V69.6495H82.1443V65.2578Z" fill="white"/>
<path d="M82.6392 69.5877V65.2578H84.433V65.7527H83.4433V67.0516H84.1856V67.6083H83.4433V69.5877H82.6392Z" fill="white"/>
<path d="M84.6804 69.5877V65.2578H86.4742V65.8145H85.4845V67.0516H86.2887V67.6083H85.4845V69.031H86.5361V69.5877H84.6804Z" fill="white"/>
<path d="M79.9793 76.2061H80.2886C80.536 76.2061 80.7216 76.1443 80.7835 76.0206C80.8453 75.8969 80.9072 75.7113 80.9072 75.4639C80.9072 75.2165 80.8453 75.0309 80.7835 74.9072C80.6598 74.7834 80.536 74.7216 80.2886 74.7216H80.0412V76.2061H79.9793ZM79.9793 74.1649H80.2268C80.4742 74.1649 80.5979 74.103 80.7216 74.0412C80.7835 73.9175 80.8453 73.7938 80.8453 73.5463C80.8453 73.4226 80.8453 73.2989 80.7835 73.2371C80.7835 73.1752 80.7216 73.1133 80.6598 73.0515C80.5979 72.9896 80.5361 72.9897 80.4123 72.9897C80.3505 72.9897 80.2268 72.9897 80.1031 72.9897H79.9793V74.1649ZM79.1752 76.7628V72.3711H80.2268C80.4123 72.3711 80.5979 72.3711 80.7835 72.4329C80.9072 72.4948 81.0928 72.5567 81.1546 72.6185C81.2783 72.6804 81.3402 72.8041 81.402 72.9897C81.4639 73.1134 81.4639 73.2989 81.4639 73.5463C81.4639 74.103 81.2783 74.4123 80.8453 74.4742C81.0928 74.536 81.2783 74.6597 81.402 74.7835C81.5257 74.969 81.5876 75.2164 81.5876 75.5257C81.5876 75.9587 81.4639 76.268 81.2783 76.4536C81.0928 76.6391 80.7835 76.7628 80.3505 76.7628H79.1752Z" fill="white"/>
<path d="M82.0206 76.7628V72.3711H83.8763V72.9278H82.8248V74.1649H83.6289V74.7835H82.8248V76.2061H83.8763V76.7628H82.0206Z" fill="white"/>
<path d="M84.1855 76.7628V72.3711H84.9897V76.2061H86.0412V76.7628H84.1855Z" fill="white"/>
<path d="M87.2166 76.2065C87.2784 76.2065 87.3403 76.2683 87.4021 76.2683C87.464 76.2683 87.5258 76.2683 87.5877 76.2065C87.6495 76.1446 87.7114 76.1446 87.7114 76.1446C87.7732 76.0828 87.7733 76.0828 87.7733 76.0209C87.7733 75.9591 87.7733 75.8972 87.8351 75.8353C87.8351 75.7735 87.8351 75.7116 87.8351 75.6498V73.6704C87.8351 73.5467 87.8351 73.4848 87.8351 73.423C87.8351 73.3611 87.7733 73.2993 87.7733 73.2374C87.7114 73.1755 87.7114 73.1137 87.6495 73.1137C87.5877 73.1137 87.5258 73.0518 87.4021 73.0518C87.2784 73.0518 87.2165 73.0518 87.1547 73.1137C87.0928 73.1755 87.031 73.1755 87.031 73.2374C87.031 73.2993 86.9691 73.3611 86.9691 73.423C86.9691 73.4848 86.9691 73.6085 86.9691 73.6704V75.6498C86.9691 75.7116 86.9691 75.7735 86.9691 75.8353C86.9691 75.8972 86.9691 75.9591 87.031 76.0209C87.031 76.0828 87.0928 76.1446 87.0928 76.1446C87.0928 76.1446 87.1547 76.1446 87.2166 76.2065ZM87.4021 76.825C86.9691 76.825 86.6599 76.7013 86.4124 76.4539C86.2269 76.2065 86.1031 75.8353 86.1031 75.4024V73.7941C86.1031 73.5467 86.1031 73.3611 86.165 73.1755C86.2269 72.99 86.2887 72.8663 86.3506 72.7425C86.4743 72.6188 86.598 72.4951 86.7217 72.4333C86.9073 72.3714 87.0928 72.3096 87.3403 72.3096C87.7733 72.3096 88.0825 72.4333 88.3299 72.6807C88.5155 72.9281 88.6392 73.2993 88.6392 73.7322V75.3405C88.6392 75.5879 88.6392 75.7735 88.5774 75.9591C88.5155 76.1446 88.4537 76.2683 88.3918 76.392C88.2681 76.5158 88.1444 76.6395 88.0207 76.7013C87.8351 76.7632 87.6495 76.825 87.4021 76.825Z" fill="white"/>
<path d="M89.567 76.7628L88.9485 72.3711H89.6289L90 75.2164L90.433 72.3711H90.9897L91.4846 75.2164L91.7939 72.3711H92.4743L91.8557 76.7628H91.2372L90.7423 73.8556L90.2475 76.7628H89.567Z" fill="white"/>
<path d="M94.4536 76.7628L93.8351 72.3711H94.5155L94.8248 75.2164L95.3196 72.3711H95.8763L96.3093 75.2164L96.6804 72.3711H97.3609L96.7423 76.7628H96.0619L95.567 73.8556L95.0722 76.7628H94.4536Z" fill="white"/>
<path d="M98.3506 75.2164H98.9073L98.598 73.4226L98.3506 75.2164ZM97.299 76.7628L98.165 72.3711H98.9691L99.8351 76.7628H99.2165L99.031 75.7732H98.2887L98.1031 76.7628H97.299Z" fill="white"/>
<path d="M100.454 76.7628V72.9897H99.7114V72.3711H102V72.9897H101.258V76.7628H100.454Z" fill="white"/>
<path d="M102.186 76.7628V72.3711H103.979V72.9278H102.99V74.1649H103.794V74.7835H102.99V76.2061H103.979V76.7628H102.186Z" fill="white"/>
<path d="M105.093 74.2268H105.278C105.526 74.2268 105.711 74.1649 105.773 74.103C105.897 73.9793 105.897 73.8556 105.897 73.6082C105.897 73.3608 105.835 73.2371 105.773 73.1134C105.711 72.9896 105.526 72.9897 105.278 72.9897H105.031V74.2268H105.093ZM104.289 76.7628V72.3711H105.278C105.526 72.3711 105.711 72.3711 105.897 72.4329C106.082 72.4948 106.206 72.5567 106.33 72.6185C106.454 72.6804 106.515 72.8041 106.577 72.9897C106.639 73.1752 106.639 73.2989 106.639 73.5463C106.639 73.7938 106.577 74.0412 106.515 74.2268C106.454 74.4123 106.268 74.536 106.082 74.5979L106.701 76.7628H105.897L105.402 74.7835H105.031V76.7628H104.289Z" fill="white"/>
<path d="M97.4846 104.783C96.3712 104.783 95.5052 103.856 95.5052 102.804C95.5052 101.691 96.4331 100.825 97.4846 100.825C98.598 100.825 99.464 101.753 99.464 102.804C99.464 103.917 98.598 104.783 97.4846 104.783ZM106.144 103.856C105.402 102.804 100.454 96.5566 93.5877 96.5566C87.6496 96.5566 81.2166 102 81.2166 102C81.2166 102 78.8042 97.1133 73.9176 96.6185H73.8558C73.732 96.6185 73.6702 96.7422 73.6702 96.8041C73.6702 96.8659 73.732 96.9896 73.732 96.9896C74.3506 98.0412 75.9588 101.01 75.9588 103.979C75.9588 106.948 74.3506 109.979 73.732 111.031L73.6702 111.093C73.6702 111.155 73.6083 111.155 73.6083 111.216C73.6083 111.34 73.6702 111.402 73.7939 111.402H73.8558H73.9176C78.8661 110.969 81.2166 106.021 81.2166 106.021C81.2166 106.021 87.5877 111.464 93.5877 111.464C100.454 111.464 105.34 105.216 106.144 104.165L106.206 104.103V104.041V103.979C106.206 103.917 106.206 103.917 106.144 103.856Z" fill="white"/>
<path d="M80.8454 90.9895C80.8454 90.9276 80.8454 90.9895 80.8454 90.9895C80.9072 90.9276 80.9691 90.9276 81.031 90.9276C81.0928 90.9276 81.1547 90.9276 81.1547 90.9895C84.9279 94.5771 88.8248 91.6699 89.6289 90.9895L89.6908 90.9276H89.7526H89.8145L89.8763 90.9895C90.6804 91.6699 94.6392 94.5771 98.3505 90.9895C98.4124 90.9276 98.4124 90.9276 98.4743 90.9276C98.5361 90.9276 98.5361 90.9276 98.598 90.9895L98.6598 91.0513C99.4021 91.7936 102.495 94.4534 105.835 91.608C105.897 91.5462 105.897 91.5462 105.897 91.4843V90.1235C105.897 89.9998 105.835 89.9379 105.711 89.9379C105.711 89.9379 105.711 89.9379 105.65 89.9379C105.65 89.9379 105.588 89.9998 105.526 89.9998C104.536 90.4946 101.32 91.7318 98.4743 89.0101L98.4124 88.9482H98.3505H98.2887C98.2268 88.9482 98.2268 89.0101 98.165 89.0101C97.299 89.6905 93.4021 92.3503 89.8763 89.072L89.8145 89.0101C89.7526 88.9482 89.7526 88.9482 89.6908 88.9482C89.6289 88.9482 89.567 88.9482 89.567 89.0101L89.5052 89.072C85.9794 92.3503 82.0825 89.6905 81.2165 89.0101C81.2165 88.9482 81.1547 88.9482 81.0928 88.9482H81.031H80.9691L80.9072 89.0101C78.0619 91.7318 74.8454 90.4946 73.8557 89.9998C73.7938 89.9998 73.7938 89.9379 73.732 89.9379C73.732 89.9379 73.732 89.9379 73.6701 89.9379C73.5464 89.9379 73.4846 89.9998 73.4846 90.1235V91.4843C73.4846 91.5462 73.4846 91.608 73.5464 91.608C76.9485 94.3915 80.1031 91.7317 80.8454 90.9895Z" fill="white"/>
<path d="M73.8558 84.8657C73.7939 84.8657 73.7939 84.8657 73.8558 84.8657C73.732 84.8657 73.6083 84.9275 73.6083 85.0512V86.4121C73.6083 86.4739 73.6083 86.5358 73.6702 86.5358C77.0104 89.443 80.1032 86.7214 80.8454 85.9791C80.8454 85.9791 80.8454 85.9172 80.9073 85.9172C80.9692 85.9172 80.9692 85.8554 81.031 85.8554C81.0929 85.8554 81.1547 85.8554 81.1547 85.9172C84.9279 89.5049 88.8248 86.5976 89.629 85.9172L89.6908 85.8554H89.7527H89.8145L89.8764 85.9172C90.6805 86.5976 94.6393 89.5049 98.3506 85.9172C98.4125 85.8554 98.4125 85.8554 98.4743 85.8554C98.5362 85.8554 98.5362 85.8554 98.598 85.9172L98.6599 85.9791C99.4022 86.7214 102.495 89.3811 105.835 86.5358C105.897 86.4739 105.897 86.4739 105.897 86.4121V85.0512C105.897 84.9275 105.835 84.8657 105.711 84.8657C105.711 84.8657 105.711 84.8657 105.65 84.8657C105.65 84.8657 105.588 84.9275 105.526 84.9275C104.536 85.4224 101.32 86.6595 98.4743 83.9378L98.4125 83.876H98.3506H98.2887C98.2269 83.876 98.2269 83.9378 98.165 83.9378C97.2991 84.6182 93.4021 87.278 89.8764 83.9997L89.8145 83.9378C89.7527 83.876 89.7527 83.876 89.6908 83.876C89.629 83.876 89.5671 83.876 89.5671 83.9378L89.5052 83.9997C85.9795 87.278 82.0826 84.6182 81.2166 83.9378C81.2166 83.876 81.1547 83.876 81.0929 83.876H81.031H80.9692L80.9073 83.9378C78.0619 86.6595 74.8454 85.4224 73.8558 84.9275C73.9176 84.8657 73.8558 84.8657 73.8558 84.8657Z" fill="white"/>
</g>
<defs>
<clipPath id="clip0_501_30716">
<path d="M0 2C0 0.895432 0.895431 0 2 0H60V60H0V2Z" fill="white"/>
</clipPath>
<clipPath id="clip1_501_30716">
<path d="M60 0H118C119.105 0 120 0.895431 120 2V60H60V0Z" fill="white"/>
</clipPath>
<clipPath id="clip2_501_30716">
<rect width="60" height="60" fill="white" transform="translate(0 60)"/>
</clipPath>
<clipPath id="clip3_501_30716">
<path d="M0 120H60V178C60 179.105 59.1046 180 58 180H2C0.895432 180 0 179.105 0 178V120Z" fill="white"/>
</clipPath>
<clipPath id="clip4_501_30716">
<path d="M60 60H120V118C120 119.105 119.105 120 118 120H60V60Z" fill="white"/>
</clipPath>
</defs>
</svg>
