<svg width="70" height="70" viewBox="0 0 70 70" fill="none" xmlns="http://www.w3.org/2000/svg">
<circle cx="35" cy="35" r="35" fill="white"/>
<path d="M48.5475 32.1646C46.6575 31.7971 45.2925 32.9521 44.4 34.7896L42.3 39.1996V23.0821C42.3 21.3496 41.8275 20.2996 40.5675 20.2996C39.5175 20.2996 39.0975 21.1396 38.7825 23.0821L38.1 27.6496L37.68 22.3996C37.47 19.7746 37.1025 18.7246 35.7375 18.7246C34.32 18.7246 34.0575 19.9321 33.795 22.8196L33.375 27.6496L32.745 22.7146C32.4825 20.7196 32.2725 19.2496 30.855 19.2496C29.385 19.2496 29.175 20.4571 29.0175 23.0821L28.7025 28.6996L28.1775 24.8671C27.81 22.1371 27.495 21.3496 26.445 21.3496C25.185 21.3496 24.765 22.4521 24.45 24.8671C24.1875 26.7046 23.925 30.2746 23.925 33.7921C23.925 38.5696 24.8175 41.2471 25.815 45.0271C26.445 47.3896 26.55 48.2296 26.55 49.6996V50.7496H40.725C40.725 49.4896 40.935 48.8596 41.88 47.8621L43.56 46.0246C45.24 44.1346 46.3425 42.4021 47.34 39.3571L49.65 32.3746L48.5475 32.1646ZM34.5825 39.7246L33.375 40.7746L32.1675 39.7246C30.33 38.0971 28.125 36.3121 28.125 34.2646C28.125 32.5321 29.175 31.3246 30.9075 31.3246C32.325 31.3246 33.1125 32.2696 33.3225 33.2146L33.375 33.4246L33.4275 33.2146C33.6375 32.2696 34.425 31.3246 35.8425 31.3246C37.575 31.3246 38.625 32.5321 38.625 34.2646C38.625 36.3121 36.42 38.0971 34.5825 39.7246Z" fill="#B4BBC5"/>
</svg>
