<svg width="120" height="120" viewBox="0 0 120 120" fill="none" xmlns="http://www.w3.org/2000/svg">
<g clip-path="url(#clip0_501_30679)">
<path d="M120 0H0V120H120V0Z" fill="#2D9A47"/>
<path d="M10.8866 31.9171C9.8969 30.68 9.40204 28.948 9.40204 26.8449V26.1026H13.7319V26.8449C13.7319 27.9583 13.8556 28.8243 14.1031 29.3191C14.3505 29.814 14.8453 30.0614 15.5876 30.0614C16.3299 30.0614 16.701 29.814 16.9484 29.3191C17.1959 28.8243 17.3196 27.9583 17.3196 26.8449C17.3196 25.6078 17.1959 24.7418 16.8247 24.1232C16.4536 23.5047 15.835 23.2573 14.8453 23.2573C14.8453 23.2573 14.4742 23.2573 14.1031 23.2573V20.0408H14.8453C15.835 20.0408 16.4536 19.7934 16.8247 19.2985C17.1959 18.8037 17.4433 17.9377 17.4433 16.7006C17.4433 15.7109 17.3196 14.9686 17.0722 14.4738C16.8247 13.9789 16.3299 13.7315 15.5876 13.7315C14.969 13.7315 14.4742 13.9789 14.2268 14.4738C13.9794 14.9686 13.8557 15.7109 13.8557 16.7006V17.6903H9.40204V16.4531C9.40204 14.4738 9.89687 12.8655 11.0103 11.8758C12.1237 10.7624 13.6082 10.2676 15.4639 10.2676C17.4433 10.2676 18.9278 10.7624 20.0412 11.8758C21.1546 12.9892 21.6495 14.4738 21.6495 16.4531C21.6495 17.814 21.4021 18.9274 20.7835 19.7933C20.2887 20.6593 19.5464 21.2779 18.6804 21.5253C20.6598 22.2676 21.6495 23.9995 21.6495 26.9686C21.6495 29.1954 21.1546 30.9274 20.1649 32.1645C19.1753 33.4016 17.6907 34.0202 15.4639 34.0202C13.4845 33.7727 11.8763 33.1542 10.8866 31.9171Z" fill="white"/>
<path d="M33.7732 19.2985C32.9072 19.2985 32.4124 19.0511 32.0412 18.5562C31.6701 18.0614 31.5464 17.3191 31.5464 16.3294V13.4841C31.5464 12.9892 31.5464 12.4944 31.6701 12.1232C31.7938 11.7521 31.9175 11.381 32.0412 11.1336C32.2886 10.8861 32.5361 10.6387 32.7835 10.515C33.1546 10.3913 33.5258 10.2676 34.0206 10.2676C34.8866 10.2676 35.5051 10.515 35.8763 10.8861C36.2474 11.2573 36.4948 11.9995 36.4948 12.8655V13.2366H35.0103V12.7418C35.0103 12.4944 35.0103 12.3707 35.0103 12.247C35.0103 12.1233 35.0103 11.9995 34.8866 11.8758C34.8866 11.7521 34.7629 11.6284 34.7629 11.6284C34.6392 11.5047 34.6392 11.5047 34.5155 11.5047C34.3917 11.5047 34.268 11.381 34.1443 11.381C34.0206 11.381 33.8969 11.381 33.7732 11.381C33.6495 11.381 33.6495 11.5047 33.5258 11.5047C33.4021 11.5047 33.4021 11.6284 33.4021 11.7521C33.4021 11.8758 33.2783 11.8758 33.2783 11.9995C33.2783 12.1232 33.2783 12.1233 33.2783 12.247C33.2783 12.3707 33.2783 12.4944 33.2783 12.6181C33.2783 12.7418 33.2783 12.8655 33.2783 12.9892V16.5769C33.2783 17.0717 33.4021 17.4428 33.5258 17.6903C33.6495 17.9377 33.8969 18.0614 34.2681 18.0614C34.5155 18.0614 34.6392 18.0614 34.7629 17.9377C34.8866 17.814 35.0103 17.814 35.0103 17.5665C35.134 17.4428 35.134 17.1954 35.134 17.0717C35.134 16.8243 35.134 16.7006 35.134 16.3294V15.5872H34.1443V14.5975H36.4948V19.0511H35.3814L35.2577 18.1851C34.8866 19.0511 34.3918 19.2985 33.7732 19.2985Z" fill="white"/>
<path d="M39.4638 18.0614C39.5876 18.0614 39.7113 18.1851 39.835 18.1851C39.9587 18.1851 40.0824 18.1851 40.2061 18.0614C40.3298 18.0614 40.4536 17.9377 40.4536 17.9377C40.5773 17.814 40.5773 17.814 40.5773 17.6903C40.5773 17.5665 40.5773 17.4428 40.701 17.3191C40.701 17.1954 40.701 17.0717 40.701 16.948V12.9892C40.701 12.7418 40.701 12.6181 40.701 12.4944C40.701 12.3707 40.5773 12.247 40.5773 12.1232C40.5773 11.9995 40.4536 11.8758 40.3298 11.8758C40.2061 11.8758 40.0824 11.7521 39.835 11.7521C39.5876 11.7521 39.4639 11.7521 39.3402 11.8758C39.2165 11.9995 39.0927 11.9995 39.0927 12.1232C39.0927 12.247 38.969 12.3707 38.969 12.4944C38.969 12.6181 38.969 12.8655 38.969 12.9892V16.948C38.969 17.0717 38.969 17.1954 38.969 17.3191C38.969 17.4428 38.969 17.5665 39.0927 17.6903C39.0927 17.814 39.2164 17.9377 39.2164 17.9377C39.3402 17.9377 39.3401 18.0614 39.4638 18.0614ZM39.835 19.2985C38.969 19.2985 38.3505 19.0511 37.8556 18.5562C37.4845 18.0614 37.2371 17.3191 37.2371 16.4531V13.2366C37.2371 12.7418 37.2371 12.3707 37.3608 11.9995C37.4845 11.6284 37.6082 11.381 37.7319 11.1336C37.9793 10.8861 38.2268 10.6387 38.4742 10.515C38.8453 10.3913 39.2164 10.2676 39.7113 10.2676C40.5773 10.2676 41.1958 10.515 41.6907 11.0099C42.0618 11.5047 42.3092 12.247 42.3092 13.1129V16.3294C42.3092 16.8243 42.3092 17.1954 42.1855 17.5665C42.0618 17.9377 41.9381 18.1851 41.8144 18.4325C41.567 18.68 41.3195 18.9274 41.0721 19.0511C40.701 19.2985 40.3299 19.2985 39.835 19.2985Z" fill="white"/>
<path d="M45.5258 18.0614C45.6495 18.0614 45.7732 18.1851 45.8969 18.1851C46.0206 18.1851 46.1443 18.1851 46.268 18.0614C46.3917 18.0614 46.5155 17.9377 46.5155 17.9377C46.6392 17.814 46.6392 17.814 46.6392 17.6903C46.6392 17.5665 46.6392 17.4428 46.7629 17.3191C46.7629 17.1954 46.7629 17.0717 46.7629 16.948V12.9892C46.7629 12.7418 46.7629 12.6181 46.7629 12.4944C46.7629 12.3707 46.6392 12.247 46.6392 12.1232C46.6392 11.9995 46.5154 11.8758 46.3917 11.8758C46.268 11.8758 46.1443 11.7521 45.8969 11.7521C45.6495 11.7521 45.5258 11.7521 45.4021 11.8758C45.2783 11.9995 45.1546 11.9995 45.1546 12.1232C45.1546 12.247 45.0309 12.3707 45.0309 12.4944C45.0309 12.6181 45.0309 12.8655 45.0309 12.9892V16.948C45.0309 17.0717 45.0309 17.1954 45.0309 17.3191C45.0309 17.4428 45.0309 17.5665 45.1546 17.6903C45.1546 17.814 45.2783 17.9377 45.2783 17.9377C45.2783 17.9377 45.4021 18.0614 45.5258 18.0614ZM45.8969 19.2985C45.0309 19.2985 44.4124 19.0511 43.9175 18.5562C43.5464 18.0614 43.299 17.3191 43.299 16.4531V13.2366C43.299 12.7418 43.299 12.3707 43.4227 11.9995C43.5464 11.6284 43.6701 11.381 43.7938 11.1336C44.0412 10.8861 44.2886 10.6387 44.5361 10.515C44.9072 10.3913 45.2783 10.2676 45.7732 10.2676C46.6392 10.2676 47.2577 10.515 47.7526 11.0099C48.1237 11.5047 48.3711 12.247 48.3711 13.1129V16.3294C48.3711 16.8243 48.3711 17.1954 48.2474 17.5665C48.1237 17.9377 48 18.1851 47.8763 18.4325C47.6289 18.68 47.3814 18.9274 47.134 19.0511C46.7629 19.2985 46.3917 19.2985 45.8969 19.2985Z" fill="white"/>
<path d="M51.0928 18.0617H51.5877C51.7114 18.0617 51.8351 18.0617 51.9588 18.0617C52.0825 18.0617 52.2062 18.0617 52.2062 17.938C52.3299 17.938 52.3299 17.8143 52.4536 17.6906C52.4536 17.5669 52.5773 17.5669 52.5773 17.4431C52.5773 17.3194 52.5773 17.3194 52.7011 17.072C52.7011 16.9483 52.7011 16.8246 52.7011 16.7009C52.7011 16.5772 52.7011 16.4535 52.7011 16.206V12.9895C52.7011 12.7421 52.7011 12.6184 52.7011 12.4947C52.7011 12.371 52.7011 12.2473 52.7011 12.1236C52.7011 11.9998 52.5773 11.8761 52.5773 11.8761C52.5773 11.7524 52.4537 11.7524 52.3299 11.6287C52.2062 11.505 52.0825 11.505 51.9588 11.505C51.8351 11.505 51.7114 11.505 51.4639 11.505H50.9691V18.0617H51.0928ZM49.4846 19.1751V10.3916H51.4639C51.9588 10.3916 52.4536 10.3916 52.8248 10.5153C53.1959 10.639 53.4433 10.7627 53.6907 11.0102C53.9382 11.2576 54.0619 11.505 54.1856 11.8761C54.3093 12.2473 54.3093 12.6184 54.3093 13.1132V16.3297C54.3093 16.8246 54.3093 17.1957 54.1856 17.5668C54.0619 17.938 53.9382 18.1854 53.6907 18.4328C53.4433 18.6803 53.1959 18.804 52.8248 18.9277C52.4536 19.0514 52.0825 19.0514 51.5877 19.0514H49.4846V19.1751Z" fill="white"/>
<path d="M58.0206 19.1754V10.5156H59.6289V14.1033H61.4846V10.5156H62.9691V19.1754H61.4846V15.2167H59.6289V19.1754H58.0206Z" fill="white"/>
<path d="M64.3299 19.1754V10.5156H67.9175V11.629H65.9382V14.1033H67.5464V15.2167H65.9382V18.062H68.0412V19.1754H64.3299Z" fill="white"/>
<path d="M70.3916 16.206H71.5051L70.8865 12.6184L70.3916 16.206ZM68.4123 19.1751L70.1442 10.3916H71.7525L73.4844 19.1751H71.9999L71.6288 17.1957H70.1442L69.7731 19.1751H68.4123Z" fill="white"/>
<path d="M74.3505 19.1754V10.5156H75.9587V18.062H78.0618V19.1754H74.3505Z" fill="white"/>
<path d="M79.5464 19.1754V11.629H78.0618V10.5156H82.5154V11.629H81.1546V19.1754H79.5464Z" fill="white"/>
<path d="M83.134 19.1754V10.5156H84.7422V14.1033H86.5979V10.5156H88.2061V19.1754H86.5979V15.2167H84.7422V19.1754H83.134Z" fill="white"/>
<path d="M33.1546 30.4329H34.268L33.6495 26.8453L33.1546 30.4329ZM31.0515 33.5257L32.7835 24.7422H34.3917L36.1237 33.5257H34.6391L34.268 31.5463H32.9072L32.5361 33.5257H31.0515Z" fill="white"/>
<path d="M37.1134 33.5257V24.7422H38.2268L40.3299 29.6906V24.7422H41.6907V33.5257H40.5773L38.4742 28.3298V33.5257H37.1134Z" fill="white"/>
<path d="M44.536 32.4123H45.0309C45.1546 32.4123 45.2783 32.4123 45.402 32.4123C45.5257 32.4123 45.6494 32.4123 45.6494 32.2886C45.7731 32.2886 45.7731 32.1649 45.8969 32.0412C45.8969 31.9175 46.0206 31.9174 46.0206 31.7937C46.0206 31.67 46.0206 31.67 46.1443 31.4226C46.1443 31.2989 46.1443 31.1752 46.1443 31.0515C46.1443 30.9278 46.1443 30.804 46.1443 30.5566V27.3401C46.1443 27.0927 46.1443 26.969 46.1443 26.8453C46.1443 26.7216 46.1443 26.5979 46.1443 26.4742C46.1443 26.3504 46.0206 26.2267 46.0206 26.2267C46.0206 26.103 45.8969 26.103 45.7731 25.9793C45.6494 25.8556 45.5257 25.8556 45.402 25.8556C45.2783 25.8556 45.1546 25.8556 44.9072 25.8556H44.4123V32.4123H44.536ZM42.9278 33.5257V24.7422H44.9072C45.402 24.7422 45.8968 24.7422 46.268 24.8659C46.6391 24.9896 46.8865 25.1133 47.134 25.3607C47.3814 25.6082 47.5051 25.8556 47.6288 26.2267C47.7525 26.5979 47.7525 26.969 47.7525 27.4638V30.6803C47.7525 31.1752 47.7525 31.5463 47.6288 31.9174C47.5051 32.2886 47.3814 32.536 47.134 32.7834C46.8865 33.0308 46.6391 33.1546 46.268 33.2783C45.8968 33.402 45.5257 33.402 45.0309 33.402H42.9278V33.5257Z" fill="white"/>
<path d="M52.3298 33.5257L51.0927 24.7422H52.4535L53.1958 30.4329L54.0618 24.7422H55.1752L56.1648 30.4329L56.9071 24.7422H58.1442L56.9071 33.5257H55.67L54.6803 27.7113L53.6906 33.5257H52.3298Z" fill="white"/>
<path d="M59.1339 33.5257V24.7422H62.8452V25.8556H60.7421V28.4535H62.3504V29.5669H60.7421V32.4123H62.8452V33.5257H59.1339Z" fill="white"/>
<path d="M63.7114 33.5257V24.7422H65.3196V32.4123H67.4227V33.5257H63.7114Z" fill="white"/>
<path d="M68.1649 33.5257V24.7422H69.7732V32.4123H71.8763V33.5257H68.1649Z" fill="white"/>
<path d="M75.2165 29.5664H72.6185V30.5561H75.2165V29.5664Z" fill="white"/>
<path d="M77.938 32.4123H78.5566C79.0514 32.4123 79.2989 32.2886 79.5463 32.0412C79.67 31.7937 79.7937 31.4226 79.7937 30.9278C79.7937 30.4329 79.67 30.0618 79.5463 29.8144C79.2989 29.5669 79.0514 29.4432 78.5566 29.4432H78.0617V32.4123H77.938ZM77.938 28.3298H78.4328C78.9277 28.3298 79.1751 28.2061 79.4226 28.0824C79.5463 27.835 79.67 27.5876 79.67 27.0927C79.67 26.8453 79.67 26.5979 79.5463 26.4742C79.5463 26.3504 79.4225 26.2267 79.2988 26.103C79.1751 25.9793 79.0514 25.9793 78.804 25.9793C78.6803 25.9793 78.4329 25.9793 78.1854 25.9793H77.938V28.3298ZM76.4535 33.5257V24.7422H78.5566C78.9277 24.7422 79.2988 24.7422 79.67 24.8659C79.9174 24.9896 80.2885 25.1133 80.4122 25.237C80.6597 25.3608 80.7834 25.6082 80.9071 25.9793C81.0308 26.2267 81.0308 26.5979 81.0308 27.0927C81.0308 28.2061 80.5359 28.8247 79.7937 28.9484C80.2885 29.0721 80.6596 29.3195 80.9071 29.5669C81.1545 29.9381 81.2782 30.4329 81.2782 31.0515C81.2782 31.9175 81.0308 32.536 80.6597 32.9071C80.2885 33.2783 79.67 33.5257 78.804 33.5257H76.4535Z" fill="white"/>
<path d="M82.3917 33.5257V24.7422H85.9793V25.8556H83.8763V28.4535H85.6082V29.5669H83.8763V32.4123H85.9793V33.5257H82.3917Z" fill="white"/>
<path d="M88.5772 24.7422H86.969V33.5257H88.5772V24.7422Z" fill="white"/>
<path d="M89.8144 33.5257V24.7422H90.9278L93.0309 29.6906V24.7422H94.3917V33.5257H93.2783L91.1752 28.3298V33.5257H89.8144Z" fill="white"/>
<path d="M97.8556 33.6491C96.9896 33.6491 96.4948 33.4017 96.1236 32.9068C95.7525 32.412 95.6288 31.6697 95.6288 30.68V27.8346C95.6288 27.3398 95.6288 26.845 95.7525 26.4738C95.8762 26.1027 95.9999 25.7316 96.1236 25.4841C96.371 25.2367 96.6185 24.9893 96.8659 24.8656C97.237 24.7419 97.6082 24.6182 98.103 24.6182C98.969 24.6182 99.5875 24.8656 99.9587 25.2367C100.33 25.6079 100.577 26.3501 100.577 27.2161V27.5872H99.0927V27.0924C99.0927 26.845 99.0927 26.7212 99.0927 26.5975C99.0927 26.4738 99.0927 26.3501 98.969 26.2264C98.969 26.1027 98.8453 25.979 98.8453 25.979C98.7215 25.8553 98.7216 25.8553 98.5979 25.8553C98.4741 25.8553 98.3504 25.7316 98.2267 25.7316C98.103 25.7316 97.9793 25.7316 97.8556 25.7316C97.7319 25.7316 97.7318 25.8553 97.6081 25.8553C97.4844 25.8553 97.4845 25.979 97.4845 26.1027C97.4845 26.2264 97.3607 26.2264 97.3607 26.3501C97.3607 26.4738 97.3607 26.4738 97.3607 26.5975C97.3607 26.7212 97.3607 26.845 97.3607 26.9687C97.3607 27.0924 97.3607 27.2161 97.3607 27.3398V30.9274C97.3607 31.4223 97.4844 31.7934 97.6081 32.0408C97.7318 32.2883 97.9793 32.412 98.3504 32.412C98.5978 32.412 98.7215 32.412 98.8453 32.2883C98.969 32.1646 99.0927 32.1645 99.0927 31.9171C99.2164 31.7934 99.2164 31.546 99.2164 31.4223C99.2164 31.1749 99.2164 31.0511 99.2164 30.68V30.0615H98.2267V29.0718H100.577V33.5254H99.5875L99.4638 32.6594C98.969 33.278 98.4741 33.6491 97.8556 33.6491Z" fill="white"/>
<path d="M100.454 75.0928C100.454 71.7526 98.2269 68.9072 95.0104 68.9072C93.4022 68.9072 91.4228 70.7629 90.3093 71.8763C89.1959 70.7629 87.3403 68.9072 85.7321 68.9072C82.3918 68.9072 80.165 71.6289 80.165 75.0928C80.165 76.8248 80.7836 78.3093 81.897 79.4227L90.3093 87.8351L98.7217 79.4227C99.8351 78.433 100.454 76.8248 100.454 75.0928Z" fill="white"/>
<path d="M64.4536 101.814C63.7114 101.814 63.2165 101.319 63.0928 100.7L58.7629 75.7106L52.2062 87.7107C51.9588 88.2055 51.3402 88.5766 50.7217 88.4529C50.1031 88.3292 49.732 87.8344 49.6083 87.3395L46.8866 68.0405L41.8145 79.422C41.5671 79.9168 41.0722 80.288 40.5774 80.288H20.9072C20.165 80.288 19.5464 79.6694 19.5464 78.9272C19.5464 78.1849 20.165 77.5663 20.9072 77.5663H39.5877L46.2681 62.5973C46.5155 61.9787 47.1341 61.7313 47.7526 61.7313C48.3712 61.855 48.866 62.3498 48.9897 62.9684L51.8351 82.8859L58.2681 71.0096C58.5155 70.5148 59.1341 70.1436 59.7526 70.2674C60.3712 70.3911 60.7423 70.7622 60.866 71.3808L64.8248 94.5148L79.299 46.3911C79.4227 45.8962 79.9176 45.4014 80.5361 45.4014C81.1547 45.4014 81.6495 45.6488 81.8969 46.1436L89.567 61.9787C89.9382 62.721 89.567 63.4632 88.9485 63.8344C88.2062 64.2055 87.4639 63.8344 87.0928 63.2158L81.031 50.5973L65.8145 100.948C65.6908 101.443 65.0722 101.814 64.4536 101.814Z" fill="white"/>
</g>
<defs>
<clipPath id="clip0_501_30679">
<rect width="120" height="120" rx="2" fill="white"/>
</clipPath>
</defs>
</svg>
