<svg width="70" height="70" viewBox="0 0 70 70" fill="none" xmlns="http://www.w3.org/2000/svg">
<circle cx="35" cy="35" r="35" fill="white"/>
<path d="M29.1264 23.4011C29.7252 21.8553 30.4389 20.5078 31.2936 19.1475C26.4227 20.1887 22.7431 23.0729 20.8549 27.3828H27.923C28.2304 26.0086 28.6313 24.6792 29.1264 23.4011Z" fill="#B4BBC5"/>
<path d="M35.4112 27.3838H39.7316C38.903 24.079 37.434 21.1304 35.4112 18.6338C33.3884 21.1304 31.9195 24.079 31.0908 27.3838H35.4112Z" fill="#B4BBC5"/>
<path d="M51.3672 34.4494C51.3672 33.0525 51.2261 31.7235 50.9575 30.4707H43.4211C43.5704 31.7379 43.6466 33.037 43.6466 34.365C43.6466 34.4401 43.6466 34.5143 43.6445 34.5884C43.6466 34.6624 43.6466 34.7366 43.6466 34.8117C43.6466 36.1397 43.5704 37.4388 43.4211 38.706H50.9575C51.2261 37.4532 51.3672 36.1242 51.3672 34.7273C51.3672 34.681 51.3672 34.6347 51.3662 34.5884C51.3672 34.542 51.3672 34.4957 51.3672 34.4494Z" fill="#B4BBC5"/>
<path d="M42.8994 27.3828H49.9676C48.0793 23.0729 44.3998 20.1887 39.5289 19.1475C40.3835 20.5078 41.0972 21.8553 41.696 23.4011C42.1912 24.6792 42.5921 26.0086 42.8994 27.3828Z" fill="#B4BBC5"/>
<path d="M40.3133 30.4707H35.4112H30.5091C30.3465 31.7286 30.2642 33.0277 30.2642 34.365C30.2642 34.4401 30.2642 34.5143 30.2652 34.5884C30.2642 34.6624 30.2642 34.7366 30.2642 34.8117C30.2642 36.149 30.3465 37.4481 30.5091 38.706H35.4112H40.3133C40.4759 37.4481 40.5583 36.149 40.5583 34.8117C40.5583 34.7366 40.5583 34.6624 40.5573 34.5884C40.5583 34.5143 40.5583 34.4401 40.5583 34.365C40.5583 33.0277 40.4759 31.7286 40.3133 30.4707Z" fill="#B4BBC5"/>
<path d="M41.696 45.7766C41.0972 47.3224 40.3835 48.6699 39.5289 50.0302C44.3998 48.989 48.0793 46.1048 49.9676 41.7949H42.8994C42.5921 43.1691 42.1912 44.4985 41.696 45.7766Z" fill="#B4BBC5"/>
<path d="M35.4112 41.7949H31.0908C31.9195 45.0997 33.3884 48.0483 35.4112 50.5449C37.434 48.0483 38.903 45.0997 39.7316 41.7949H35.4112Z" fill="#B4BBC5"/>
<path d="M27.1759 34.8117C27.1759 34.7366 27.1759 34.6624 27.178 34.5884C27.1759 34.5143 27.1759 34.4401 27.1759 34.365C27.1759 33.037 27.2521 31.7379 27.4013 30.4707H19.865C19.5964 31.7235 19.4553 33.0525 19.4553 34.4494C19.4553 34.4957 19.4553 34.542 19.4563 34.5884C19.4553 34.6347 19.4553 34.681 19.4553 34.7273C19.4553 36.1242 19.5964 37.4532 19.865 38.706H27.4013C27.2521 37.4388 27.1759 36.1397 27.1759 34.8117Z" fill="#B4BBC5"/>
<path d="M27.923 41.7949H20.8549C22.7431 46.1048 26.4227 48.989 31.2936 50.0302C30.4389 48.6699 29.7252 47.3224 29.1264 45.7766C28.6313 44.4985 28.2304 43.1691 27.923 41.7949Z" fill="#B4BBC5"/>
</svg>
