<svg width="120" height="120" viewBox="0 0 120 120" fill="none" xmlns="http://www.w3.org/2000/svg">
<g clip-path="url(#clip0_501_30779)">
<path d="M120 0H0V120H120V0Z" fill="#8F1838"/>
<path d="M17.1959 16.0833C17.1959 15.2174 17.0721 14.5988 16.8247 14.1039C16.5773 13.6091 16.2062 13.3617 15.5876 13.3617C15.0928 13.3617 14.5979 13.6091 14.3505 14.1039C14.1031 14.5988 13.9794 15.2174 13.9794 16.0833C13.9794 18.4338 14.4742 19.671 15.5876 19.671C16.5773 19.671 17.1959 18.4338 17.1959 16.0833ZM17.0721 29.4441C17.3196 28.8256 17.4433 27.9596 17.4433 26.9699C17.4433 25.8565 17.3196 24.9906 17.0721 24.2483C16.8247 23.6297 16.3299 23.2586 15.5876 23.2586C14.8453 23.2586 14.3505 23.6297 14.1031 24.2483C13.8557 24.8668 13.7319 25.8565 13.7319 26.9699C13.7319 27.9596 13.8557 28.8256 14.1031 29.4441C14.3505 30.0627 14.8453 30.4339 15.5876 30.4339C16.3299 30.4339 16.8247 30.0627 17.0721 29.4441ZM9.40204 26.7225C9.40204 25.4854 9.64946 24.372 10.0206 23.3823C10.5154 22.3926 11.134 21.7741 12 21.2792C11.2577 20.7844 10.7629 20.0421 10.268 19.1761C9.77317 18.3101 9.64946 17.3204 9.64946 16.0833C9.64946 14.2277 10.1443 12.7431 11.134 11.6297C12.1237 10.64 13.6082 10.0215 15.4639 10.0215C17.3196 10.0215 18.8041 10.5163 19.6701 11.6297C20.6598 12.6194 21.1546 14.1039 21.1546 15.9596C21.1546 17.1967 20.9072 18.3101 20.5361 19.1761C20.1649 20.0421 19.5464 20.6607 18.9278 21.1555C19.7938 21.6503 20.5361 22.2689 20.9072 23.2586C21.402 24.2483 21.5258 25.3617 21.5258 26.7225C21.5258 28.8256 21.0309 30.5576 20.0412 31.671C19.0515 32.9081 17.567 33.4029 15.3402 33.4029C11.5051 33.6503 9.40204 31.2998 9.40204 26.7225Z" fill="white"/>
<path d="M31.9175 18.0627H32.4124C32.5361 18.0627 32.6598 18.0627 32.7835 18.0627C32.9072 18.0627 33.0309 18.0627 33.0309 17.939C33.1546 17.939 33.1546 17.8153 33.2783 17.6915C33.2783 17.5678 33.402 17.5679 33.402 17.4441C33.402 17.3204 33.402 17.3204 33.5257 17.073C33.5257 16.9493 33.5257 16.8256 33.5257 16.7019C33.5257 16.5782 33.5257 16.4544 33.5257 16.207V12.9905C33.5257 12.7431 33.5257 12.6194 33.5257 12.4957C33.5257 12.372 33.5257 12.2482 33.5257 12.1245C33.5257 12.0008 33.402 11.8771 33.402 11.8771C33.402 11.8771 33.2783 11.7534 33.1546 11.6297C33.0309 11.6297 32.9072 11.506 32.7835 11.506C32.6598 11.506 32.5361 11.506 32.2886 11.506H31.7938V18.0627H31.9175ZM30.3093 19.1761V10.3926H32.2886C32.7835 10.3926 33.2783 10.3926 33.6495 10.5163C34.0206 10.64 34.268 10.7637 34.5154 11.0111C34.7629 11.2586 34.8866 11.506 35.0103 11.8771C35.134 12.2483 35.134 12.6194 35.134 13.1142V16.3307C35.134 16.8256 35.134 17.1967 35.0103 17.5679C34.8866 17.939 34.7629 18.1864 34.5154 18.4338C34.268 18.6812 34.0206 18.8049 33.6495 18.9287C33.2783 19.0524 32.9072 19.0524 32.4124 19.0524H30.3093V19.1761Z" fill="white"/>
<path d="M36 19.1761V10.3926H39.5876V11.506H37.6083V14.1039H39.2165V15.2173H37.6083V18.0627H39.7113V19.1761H36Z" fill="white"/>
<path d="M42.6805 19.2985C42.3093 19.2985 41.9382 19.2985 41.6908 19.1748C41.4433 19.0511 41.1959 18.9274 40.9485 18.8037C40.7011 18.68 40.5774 18.4326 40.4537 18.1851C40.3299 17.9377 40.2062 17.6903 40.2062 17.3191C40.2062 17.0717 40.0825 16.7006 40.0825 16.3295V13.2367C40.0825 12.8655 40.0825 12.4944 40.2062 12.247C40.2062 11.9995 40.3299 11.6284 40.4537 11.381C40.5774 11.1336 40.7011 10.8862 40.9485 10.7625C41.1959 10.6387 41.3196 10.515 41.6908 10.3913C41.9382 10.2676 42.3093 10.2676 42.6805 10.2676C43.1753 10.2676 43.5464 10.2676 43.7939 10.3913C44.0413 10.515 44.2887 10.6387 44.5361 10.8861C44.6598 11.1336 44.7835 11.381 44.9073 11.6284C45.031 11.8758 45.031 12.247 45.031 12.7418V13.4841H43.5464V12.7418C43.5464 12.247 43.5464 11.9996 43.4227 11.8758C43.299 11.6284 43.0516 11.381 42.8042 11.381H42.6805C42.5568 11.381 42.433 11.381 42.3093 11.381C42.1856 11.381 42.1856 11.5047 42.0619 11.5047C41.9382 11.6284 41.9382 11.6284 41.9382 11.7521C41.9382 11.8758 41.8145 11.8759 41.8145 11.9996C41.8145 12.1233 41.8145 12.247 41.8145 12.3707C41.8145 12.4944 41.8145 12.6181 41.8145 12.7418V16.4531C41.8145 16.948 41.9382 17.3192 42.0619 17.5666C42.1856 17.814 42.433 17.9377 42.8042 17.9377C42.9279 17.9377 43.0516 17.9377 43.0516 17.9377C43.1753 17.9377 43.1753 17.9377 43.299 17.814L43.4227 17.6903C43.4227 17.5665 43.5464 17.5666 43.5464 17.4429C43.5464 17.3191 43.5464 17.3191 43.5464 17.1954C43.5464 17.0717 43.5464 16.948 43.5464 16.948C43.5464 16.8243 43.5464 16.7006 43.5464 16.5769V15.8346H45.031V16.5769C45.031 16.948 45.031 17.1954 44.9073 17.4429C44.9073 17.6903 44.7835 17.9377 44.6598 18.1851C44.5361 18.4326 44.4124 18.5563 44.2887 18.8037C44.165 18.9274 43.9176 19.0511 43.6701 19.1748C43.299 19.1748 43.0516 19.2985 42.6805 19.2985Z" fill="white"/>
<path d="M45.7732 19.1761V10.3926H49.4845V11.506H47.3814V14.1039H49.1134V15.2173H47.3814V18.0627H49.4845V19.1761H45.7732Z" fill="white"/>
<path d="M50.1031 19.1761V10.3926H51.2165L53.4433 15.341V10.3926H54.6804V19.1761H53.6907L51.4639 13.9802V19.1761H50.1031Z" fill="white"/>
<path d="M56.6598 19.1761V11.6297H55.1752V10.3926H59.6288V11.6297H58.1443V19.1761H56.6598Z" fill="white"/>
<path d="M63.3403 19.1761L62.1031 10.3926H63.464L64.0825 16.0833L65.0722 10.3926H66.1856L67.0516 16.0833L67.7939 10.3926H69.1547L67.9176 19.1761H66.5567L65.5671 13.3616L64.7011 19.1761H63.3403Z" fill="white"/>
<path d="M71.7527 18.0614C71.8764 18.0614 72.0001 18.1851 72.1238 18.1851C72.2475 18.1851 72.3712 18.1851 72.4949 18.0614C72.6187 18.0614 72.7424 17.9377 72.7424 17.9377C72.8661 17.814 72.8661 17.814 72.8661 17.6903C72.8661 17.5665 72.8661 17.4429 72.9898 17.3191C72.9898 17.1954 72.9898 17.0717 72.9898 16.948V12.9892C72.9898 12.7418 72.9898 12.6181 72.9898 12.4944C72.9898 12.3707 72.8661 12.247 72.8661 12.1232C72.7424 11.9995 72.7424 11.8758 72.6187 11.8758C72.4949 11.8758 72.3712 11.7521 72.1238 11.7521C71.8764 11.7521 71.7527 11.7521 71.629 11.8758C71.5053 11.8758 71.3815 11.9995 71.3815 12.1232C71.3815 12.247 71.2578 12.3707 71.2578 12.4944C71.2578 12.6181 71.2578 12.8655 71.2578 12.9892V16.948C71.2578 17.0717 71.2578 17.1954 71.2578 17.3191C71.2578 17.4429 71.2578 17.5665 71.3815 17.6903C71.3815 17.814 71.5052 17.9377 71.5052 17.9377C71.629 17.9377 71.629 17.9377 71.7527 18.0614ZM72.1238 19.2985C71.2578 19.2985 70.6393 19.0511 70.1444 18.5563C69.7733 18.0614 69.5259 17.3191 69.5259 16.4531V13.2367C69.5259 12.7418 69.5259 12.3707 69.6496 11.9996C69.7733 11.6284 69.897 11.381 70.0207 11.1336C70.2681 10.8861 70.5156 10.6387 70.763 10.515C71.1341 10.3913 71.5053 10.2676 72.0001 10.2676C72.8661 10.2676 73.4846 10.515 73.9795 11.0099C74.3506 11.5047 74.598 12.247 74.598 13.113V16.3295C74.598 16.8243 74.598 17.1954 74.4743 17.5666C74.3506 17.9377 74.2269 18.1851 74.1032 18.4325C73.8558 18.68 73.6083 18.9274 73.3609 19.0511C72.9898 19.1748 72.6186 19.2985 72.1238 19.2985Z" fill="white"/>
<path d="M77.196 14.1039H77.5672C78.062 14.1039 78.4331 13.9802 78.5569 13.8565C78.8043 13.6091 78.8043 13.3617 78.8043 12.8668C78.8043 12.372 78.6806 12.1246 78.5569 11.8771C78.4331 11.6297 78.062 11.6297 77.5672 11.6297H77.196V14.1039ZM75.5878 19.1761V10.3926H77.5672C78.062 10.3926 78.4331 10.3926 78.8043 10.5163C79.1754 10.64 79.4228 10.7637 79.6702 10.8874C79.9177 11.0111 80.0414 11.2586 80.1651 11.6297C80.2888 12.0008 80.2888 12.2482 80.2888 12.7431C80.2888 13.2379 80.1651 13.7328 80.0414 14.1039C79.9177 14.4751 79.5465 14.7225 79.1754 14.8462L80.4125 19.1761H78.8043L77.8146 15.2173H77.196V19.1761H75.5878Z" fill="white"/>
<path d="M81.2784 19.1761V10.3926H82.8867V14.2276L84.6187 10.3926H86.1032L84.4949 14.3514L86.3506 19.1761H84.7424L83.2578 15.0936L82.8867 15.5885V19.1761H81.2784Z" fill="white"/>
<path d="M90.6803 16.0833H91.7937L91.1752 12.4957L90.6803 16.0833ZM88.5773 19.1761L90.3092 10.3926H91.9175L93.6494 19.1761H92.1649L91.7937 17.1967H90.3092L89.9381 19.1761H88.5773Z" fill="white"/>
<path d="M94.3918 19.1761V10.3926H95.5052L97.6083 15.341V10.3926H98.9692V19.1761H97.9795L95.7527 13.9802V19.1761H94.3918Z" fill="white"/>
<path d="M101.567 18.0627H102.062C102.186 18.0627 102.309 18.0627 102.433 18.0627C102.557 18.0627 102.68 18.0627 102.68 17.939C102.804 17.939 102.804 17.8153 102.928 17.6915C102.928 17.5678 103.052 17.5679 103.052 17.4441C103.052 17.3204 103.052 17.3204 103.175 17.073C103.175 16.9493 103.175 16.8256 103.175 16.7019C103.175 16.5782 103.175 16.4544 103.175 16.207V12.9905C103.175 12.7431 103.175 12.6194 103.175 12.4957C103.175 12.372 103.175 12.2482 103.175 12.1245C103.175 12.0008 103.052 11.8771 103.052 11.8771C103.052 11.7534 102.928 11.7534 102.804 11.6297C102.68 11.506 102.557 11.506 102.433 11.506C102.309 11.506 102.186 11.506 101.938 11.506H101.443V18.0627H101.567ZM99.9588 19.1761V10.3926H101.938C102.433 10.3926 102.928 10.3926 103.299 10.5163C103.67 10.64 103.918 10.7637 104.165 11.0111C104.412 11.2586 104.536 11.506 104.66 11.8771C104.784 12.2483 104.784 12.6194 104.784 13.1142V16.3307C104.784 16.8256 104.784 17.1967 104.66 17.5679C104.536 17.939 104.412 18.1864 104.165 18.4338C103.918 18.6812 103.67 18.8049 103.299 18.9287C102.928 19.0524 102.557 19.0524 102.062 19.0524H99.9588V19.1761Z" fill="white"/>
<path d="M30.3093 33.402V24.7422H33.8969V25.8556H31.9175V28.3298H33.5258V29.4432H31.9175V32.2886H34.0206V33.402H30.3093Z" fill="white"/>
<path d="M36.9898 33.5251C36.6187 33.5251 36.2475 33.5251 36.0001 33.4014C35.7527 33.2777 35.5053 33.154 35.2578 33.0303C35.0104 32.9065 34.8867 32.6591 34.763 32.4117C34.6393 32.1643 34.5156 31.9168 34.5156 31.5457C34.5156 31.2983 34.3918 30.9272 34.3918 30.556V27.4632C34.3918 27.0921 34.3919 26.721 34.5156 26.4735C34.5156 26.2261 34.6393 25.855 34.763 25.6076C34.8867 25.3602 35.0104 25.1127 35.2578 24.989C35.5053 24.8653 35.629 24.7416 36.0001 24.6179C36.2475 24.4941 36.6187 24.4941 36.9898 24.4941C37.4846 24.4941 37.8558 24.4941 38.1032 24.6179C38.3506 24.7416 38.598 24.8653 38.8455 25.1127C38.9692 25.3601 39.0929 25.6076 39.2166 25.855C39.3403 26.1024 39.3403 26.4735 39.3403 26.9684V27.7106H37.8558V26.9684C37.8558 26.4735 37.8558 26.2261 37.7321 26.1024C37.6084 25.855 37.3609 25.6076 37.1135 25.6076H36.9898C36.8661 25.6076 36.7424 25.6076 36.6187 25.6076C36.4949 25.6076 36.4949 25.7313 36.3712 25.7313C36.2475 25.855 36.2475 25.855 36.2475 25.9787C36.2475 26.1024 36.1238 26.1024 36.1238 26.2261C36.1238 26.3498 36.1238 26.4735 36.1238 26.5972C36.1238 26.721 36.1238 26.8447 36.1238 26.9684V30.6797C36.1238 31.1746 36.2475 31.5457 36.3712 31.7931C36.4949 32.0406 36.7424 32.1643 37.1135 32.1643C37.2372 32.1643 37.3609 32.1643 37.3609 32.1643C37.4846 32.1643 37.4846 32.1643 37.6083 32.0405L37.7321 31.9168C37.7321 31.7931 37.8558 31.7931 37.8558 31.6694C37.8558 31.5457 37.8558 31.5457 37.8558 31.422C37.8558 31.2983 37.8558 31.1746 37.8558 31.1746C37.8558 31.0509 37.8558 30.9271 37.8558 30.8034V30.0612H39.3403V30.8034C39.3403 31.1746 39.3403 31.422 39.2166 31.6694C39.2166 31.9168 39.0929 32.1643 38.9692 32.4117C38.8455 32.6591 38.7218 32.7828 38.598 33.0303C38.4743 33.154 38.2269 33.2777 37.9795 33.4014C37.7321 33.5251 37.3609 33.5251 36.9898 33.5251Z" fill="white"/>
<path d="M42.1856 32.288C42.3093 32.288 42.433 32.4117 42.5567 32.4117C42.6805 32.4117 42.8042 32.4117 42.9279 32.288C43.0516 32.288 43.1753 32.1643 43.1753 32.1643C43.299 32.0405 43.299 32.0405 43.299 31.9168C43.299 31.7931 43.299 31.6694 43.4227 31.5457C43.4227 31.422 43.4227 31.2983 43.4227 31.1746V27.2158C43.4227 26.9684 43.4227 26.8447 43.4227 26.721C43.4227 26.5973 43.299 26.4735 43.299 26.3498C43.1753 26.2261 43.1753 26.1024 43.0516 26.1024C42.9279 26.1024 42.8042 25.9787 42.5567 25.9787C42.3093 25.9787 42.1856 25.9787 42.0619 26.1024C41.9382 26.1024 41.8145 26.2261 41.8145 26.3498C41.8145 26.4735 41.6908 26.5973 41.6908 26.721C41.6908 26.8447 41.6908 27.0921 41.6908 27.2158V31.1746C41.6908 31.2983 41.6908 31.422 41.6908 31.5457C41.6908 31.6694 41.6908 31.7931 41.8145 31.9168C41.8145 32.0405 41.9382 32.1643 41.9382 32.1643C42.0619 32.1643 42.1856 32.288 42.1856 32.288ZM42.6805 33.5251C41.8145 33.5251 41.1959 33.2777 40.7011 32.7828C40.3299 32.288 40.0825 31.5457 40.0825 30.6797V27.4632C40.0825 26.9684 40.0825 26.5973 40.2062 26.2261C40.3299 25.855 40.4536 25.6076 40.5774 25.3601C40.8248 25.1127 41.0722 24.8653 41.3196 24.7416C41.6908 24.6179 42.0619 24.4941 42.5567 24.4941C43.4227 24.4941 44.0413 24.7416 44.5361 25.2364C44.9073 25.7313 45.1547 26.4735 45.1547 27.3395V30.556C45.1547 31.0509 45.1547 31.422 45.031 31.7931C44.9073 32.1643 44.7835 32.4117 44.6598 32.6591C44.4124 32.9065 44.165 33.1539 43.9176 33.2777C43.5464 33.5251 43.0516 33.5251 42.6805 33.5251Z" fill="white"/>
<path d="M46.1444 33.402V24.7422H47.2578L49.3609 29.6906V24.7422H50.7217V33.402H49.6083L47.5052 28.2061V33.402H46.1444Z" fill="white"/>
<path d="M53.6908 32.288C53.8145 32.288 53.9382 32.4117 54.0619 32.4117C54.1856 32.4117 54.3094 32.4117 54.4331 32.288C54.5568 32.288 54.6805 32.1643 54.6805 32.1643C54.8042 32.0405 54.8042 32.0405 54.8042 31.9168C54.8042 31.7931 54.8042 31.6694 54.9279 31.5457C54.9279 31.422 54.9279 31.2983 54.9279 31.1746V27.2158C54.9279 26.9684 54.9279 26.8447 54.9279 26.721C54.9279 26.5973 54.8042 26.4735 54.8042 26.3498C54.8042 26.2261 54.6805 26.1024 54.5568 26.1024C54.4331 26.1024 54.3094 25.9787 54.0619 25.9787C53.8145 25.9787 53.6908 25.9787 53.5671 26.1024C53.4434 26.1024 53.3197 26.2261 53.3197 26.3498C53.3197 26.4735 53.196 26.5973 53.196 26.721C53.196 26.8447 53.196 27.0921 53.196 27.2158V31.1746C53.196 31.2983 53.196 31.422 53.196 31.5457C53.196 31.6694 53.1959 31.7931 53.3197 31.9168C53.3197 32.0405 53.4434 32.1643 53.4434 32.1643C53.5671 32.1643 53.6908 32.288 53.6908 32.288ZM54.1856 33.5251C53.3197 33.5251 52.7011 33.2777 52.2063 32.7828C51.8351 32.288 51.5877 31.5457 51.5877 30.6797V27.4632C51.5877 26.9684 51.5877 26.5973 51.7114 26.2261C51.8351 25.855 51.9588 25.6076 52.0825 25.3601C52.33 25.1127 52.5774 24.8653 52.8248 24.7416C53.196 24.6179 53.5671 24.4941 54.0619 24.4941C54.9279 24.4941 55.5465 24.7416 56.0413 25.2364C56.4124 25.7313 56.6599 26.4735 56.6599 27.3395V30.556C56.6599 31.0509 56.6599 31.422 56.5362 31.7931C56.4125 32.1643 56.2887 32.4117 56.165 32.6591C55.9176 32.9065 55.6702 33.1539 55.4227 33.2777C55.0516 33.5251 54.5568 33.5251 54.1856 33.5251Z" fill="white"/>
<path d="M57.6495 33.402L57.7732 24.7422H59.3814L60.6186 30.804L61.9794 24.7422H63.5876L63.7113 33.402H62.4742L62.3505 27.4639L61.1134 33.402H60.2474L58.8866 27.4639L58.7629 33.402H57.6495Z" fill="white"/>
<path d="M66.433 24.7422H64.8248V33.5257H66.433V24.7422Z" fill="white"/>
<path d="M69.897 33.5251C69.5258 33.5251 69.1547 33.5251 68.9073 33.4014C68.6598 33.2777 68.4124 33.154 68.165 33.0303C67.9176 32.9065 67.7939 32.6591 67.6701 32.4117C67.5464 32.1643 67.4227 31.9168 67.4227 31.5457C67.4227 31.2983 67.299 30.9272 67.299 30.556V27.4632C67.299 27.0921 67.299 26.721 67.4227 26.4735C67.4227 26.2261 67.5464 25.855 67.6701 25.6076C67.7939 25.3602 67.9176 25.1127 68.165 24.989C68.4124 24.8653 68.5361 24.7416 68.9073 24.6179C69.1547 24.4941 69.5258 24.4941 69.897 24.4941C70.3918 24.4941 70.7629 24.4941 71.0104 24.6179C71.2578 24.7416 71.5052 24.8653 71.7526 25.1127C71.8763 25.3601 72 25.6076 72.1237 25.855C72.2475 26.1024 72.2475 26.4735 72.2475 26.9684V27.7106H70.7629V26.9684C70.7629 26.4735 70.7629 26.2261 70.6392 26.1024C70.5155 25.855 70.2681 25.6076 70.0207 25.6076H69.897C69.7732 25.6076 69.6495 25.6076 69.5258 25.6076C69.4021 25.6076 69.4021 25.7313 69.2784 25.7313C69.1547 25.855 69.1547 25.855 69.1547 25.9787C69.1547 26.1024 69.031 26.1024 69.031 26.2261C69.031 26.3498 69.031 26.4735 69.031 26.5972C69.031 26.721 69.031 26.8447 69.031 26.9684V30.6797C69.031 31.1746 69.1547 31.5457 69.2784 31.7931C69.4021 32.0406 69.6495 32.1643 70.0207 32.1643C70.1444 32.1643 70.2681 32.1643 70.2681 32.1643C70.3918 32.1643 70.3918 32.1643 70.5155 32.0405L70.6392 31.9168C70.6392 31.7931 70.7629 31.7931 70.7629 31.6694C70.7629 31.5457 70.7629 31.5457 70.7629 31.422C70.7629 31.2983 70.7629 31.1746 70.7629 31.1746C70.7629 31.0509 70.7629 30.9271 70.7629 30.8034V30.0612H72.2475V30.8034C72.2475 31.1746 72.2475 31.422 72.1237 31.6694C72.1237 31.9168 72 32.1643 71.8763 32.4117C71.7526 32.6591 71.6289 32.7828 71.5052 33.0303C71.3815 33.154 71.1341 33.2777 70.8866 33.4014C70.5155 33.5251 70.2681 33.5251 69.897 33.5251Z" fill="white"/>
<path d="M77.6907 33.5251C76.8247 33.5251 76.3299 33.2777 75.9588 32.7828C75.5876 32.288 75.4639 31.5457 75.4639 30.556V27.7106C75.4639 27.2158 75.4639 26.7209 75.5876 26.3498C75.7113 25.9787 75.8351 25.6076 75.9588 25.3601C76.2062 25.1127 76.4536 24.8653 76.701 24.7416C77.0722 24.6179 77.4433 24.4941 77.9382 24.4941C78.8041 24.4941 79.4227 24.7416 79.7938 25.1127C80.165 25.4838 80.4124 26.2261 80.4124 27.0921V27.4632H78.9278V26.9684C78.9278 26.7209 78.9278 26.5972 78.9278 26.4735C78.9278 26.3498 78.9278 26.2261 78.8041 26.1024C78.8041 25.9787 78.6804 25.855 78.6804 25.855C78.5567 25.7313 78.5567 25.7313 78.433 25.7313C78.3093 25.7313 78.1856 25.6076 78.0619 25.6076C77.9381 25.6076 77.8144 25.6076 77.6907 25.6076C77.567 25.6076 77.567 25.7313 77.4433 25.7313C77.3196 25.7313 77.3196 25.855 77.3196 25.9787C77.3196 26.1024 77.1959 26.1024 77.1959 26.2261C77.1959 26.3498 77.1959 26.3498 77.1959 26.4735C77.1959 26.5972 77.1959 26.721 77.1959 26.8447C77.1959 26.9684 77.1959 27.0921 77.1959 27.2158V30.8034C77.1959 31.2983 77.3196 31.6694 77.4433 31.9168C77.567 32.1642 77.8144 32.288 78.1856 32.288C78.433 32.288 78.5567 32.288 78.6804 32.1643C78.8041 32.0405 78.9278 32.0406 78.9278 31.7931C79.0515 31.6694 79.0516 31.422 79.0516 31.2983C79.0516 31.0508 79.0516 30.9272 79.0516 30.556V29.8138H78.0619V28.824H80.4124V33.2777H79.4227L79.299 32.4117C78.9279 33.2777 78.433 33.5251 77.6907 33.5251Z" fill="white"/>
<path d="M82.8867 28.4542H83.2578C83.7526 28.4542 84.1238 28.3305 84.2475 28.2068C84.4949 27.9593 84.4949 27.7119 84.4949 27.2171C84.4949 26.7222 84.3712 26.4748 84.2475 26.2274C84.1238 25.98 83.7526 25.98 83.2578 25.98H82.7629V28.4542H82.8867ZM81.4021 33.4027V24.6191H83.3815C83.8763 24.6191 84.2475 24.6191 84.6186 24.7429C84.9897 24.8666 85.2372 24.9903 85.4846 25.114C85.732 25.2377 85.8557 25.4851 85.9794 25.8563C86.1031 26.2274 86.1032 26.4748 86.1032 26.9696C86.1032 27.4645 85.9794 27.9593 85.8557 28.3305C85.732 28.7016 85.3609 28.949 84.9897 29.0728L86.2268 33.4027H84.6186L83.6289 29.4439H82.8867V33.4027H81.4021Z" fill="white"/>
<path d="M89.0722 32.288C89.1959 32.288 89.3196 32.4117 89.4433 32.4117C89.5671 32.4117 89.6908 32.4117 89.8145 32.288C89.9382 32.288 90.0619 32.1643 90.0619 32.1643C90.1856 32.0405 90.1856 32.0405 90.1856 31.9168C90.1856 31.7931 90.1856 31.6694 90.3093 31.5457C90.3093 31.422 90.3093 31.2983 90.3093 31.1746V27.2158C90.3093 26.9684 90.3093 26.8447 90.3093 26.721C90.3093 26.5973 90.1856 26.4735 90.1856 26.3498C90.1856 26.2261 90.0619 26.1024 89.9382 26.1024C89.8145 26.1024 89.6908 25.9787 89.4433 25.9787C89.1959 25.9787 89.0722 25.9787 88.9485 26.1024C88.8248 26.1024 88.7011 26.2261 88.7011 26.3498C88.7011 26.4735 88.5774 26.5973 88.5774 26.721C88.5774 26.8447 88.5774 27.0921 88.5774 27.2158V31.1746C88.5774 31.2983 88.5774 31.422 88.5774 31.5457C88.5774 31.6694 88.5774 31.7931 88.7011 31.9168C88.7011 32.0405 88.8248 32.1643 88.8248 32.1643C88.9485 32.1643 88.9485 32.288 89.0722 32.288ZM89.5671 33.5251C88.7011 33.5251 88.0825 33.2777 87.5877 32.7828C87.2165 32.288 86.9691 31.5457 86.9691 30.6797V27.4632C86.9691 26.9684 86.9691 26.5973 87.0928 26.2261C87.2165 25.855 87.3402 25.6076 87.464 25.3601C87.7114 25.1127 87.9588 24.8653 88.2062 24.7416C88.5774 24.6179 88.9485 24.4941 89.4433 24.4941C90.3093 24.4941 90.9279 24.7416 91.4227 25.2364C91.7939 25.7313 92.0413 26.4735 92.0413 27.3395V30.556C92.0413 31.0509 92.0413 31.422 91.9176 31.7931C91.7939 32.1643 91.6702 32.4117 91.5465 32.6591C91.299 32.9065 91.0516 33.1539 90.8042 33.2777C90.3093 33.5251 89.9382 33.5251 89.5671 33.5251Z" fill="white"/>
<path d="M93.8969 33.402L92.6598 24.7422H94.0206L94.7629 30.3092L95.6289 24.7422H96.7422L97.732 30.3092L98.4742 24.7422H99.7113L98.4742 33.402H97.2371L96.2474 27.5875L95.2577 33.402H93.8969Z" fill="white"/>
<path d="M101.32 33.402V25.8556H99.9588V24.7422H104.412V25.8556H102.928V33.402H101.32Z" fill="white"/>
<path d="M104.907 33.402V24.7422H106.516V28.3298H108.248V24.7422H109.856V33.402H108.248V29.4432H106.516V33.402H104.907Z" fill="white"/>
<path d="M82.8867 59.0105L70.6393 70.6394C70.1444 71.1342 69.897 71.3816 69.897 72.3713V105.031C69.897 105.402 70.2682 105.773 70.6393 105.773H83.3816C83.7527 105.773 84.1238 105.402 84.1238 105.031V59.2579C84.0001 58.8868 83.7527 58.2682 82.8867 59.0105Z" fill="white"/>
<path d="M47.6288 74.2273L35.3814 85.8562C34.8866 86.351 34.6392 86.5984 34.6392 87.5881V105.031C34.6392 105.403 35.0103 105.774 35.3814 105.774H48C48.3711 105.774 48.7422 105.403 48.7422 105.031V74.4747C48.7422 74.1036 48.3711 73.485 47.6288 74.2273Z" fill="white"/>
<path d="M88.4536 44.9063C88.4536 44.7826 88.4536 44.6589 88.3299 44.6589C88.2062 44.5352 88.2062 44.5352 88.0825 44.5352H87.9588H87.8351L78.433 46.6383H78.3093C78.1856 46.6383 78.1856 46.6382 78.1856 46.7619C78.0619 46.8857 78.0619 47.1331 78.1856 47.2568L78.3093 47.3805L80.4124 49.4836L59.134 70.762L49.3608 60.9887C49.2371 60.865 49.1134 60.865 48.9897 60.9887L46.268 63.7104L30.5567 79.4218C30.433 79.5455 30.433 79.6692 30.5567 79.7929L33.2784 82.5146C33.4021 82.6383 33.5258 82.6383 33.6495 82.5146L49.2371 66.9269L56.4124 74.1022L59.134 76.8238C59.2577 76.9475 59.3814 76.9475 59.5052 76.8238L83.6289 52.7001L85.8557 54.9269C85.9794 55.0506 86.2268 55.0506 86.3505 54.9269C86.4742 54.8032 86.4742 54.8032 86.4742 54.6795L88.4536 44.9063Z" fill="white"/>
<path d="M65.3196 76.3299L59.3815 82.268C59.2577 82.3918 59.134 82.3918 59.0103 82.268L53.6907 76.8248C52.701 75.8351 52.4536 76.701 52.4536 77.0722V105.278C52.4536 105.649 52.701 106.021 53.1959 106.021H65.8144C66.1856 106.021 66.5567 105.649 66.5567 105.278V76.701C66.5567 76.0825 66.1856 75.3402 65.3196 76.3299Z" fill="white"/>
</g>
<defs>
<clipPath id="clip0_501_30779">
<rect width="120" height="120" rx="2" fill="white"/>
</clipPath>
</defs>
</svg>
