<svg viewBox="0 0 109 109" fill="none" xmlns="http://www.w3.org/2000/svg">
<path d="M108.261 0.368408H0.0695801V108.558H108.261V0.368408Z" fill="#BE8B2E"/>
<path d="M9.34607 13.8544C9.15906 13.9554 8.61609 14.1694 7.71606 14.4904C7.00305 14.7284 6.5531 14.8894 6.36707 14.9744V12.0454C6.94409 11.8254 7.64307 11.4854 8.46704 11.0274C9.29102 10.5694 9.87207 10.1534 10.212 9.77942H13.2941V30.4084H9.34607V13.8544Z" fill="white"/>
<path d="M15.4839 27.6327L20.4758 19.9157L20.7819 19.4567C21.4258 18.4897 21.9019 17.6787 22.2079 17.0247C22.5128 16.3717 22.6658 15.6537 22.6658 14.8727C22.6658 14.2097 22.5388 13.7057 22.2838 13.3577C22.0288 13.0097 21.6648 12.8357 21.1888 12.8357C20.4758 12.8357 19.9828 13.1067 19.7118 13.6507C19.4398 14.1937 19.3038 14.9417 19.3038 15.8917V16.8337H15.4839V15.8157C15.4839 13.8797 15.9368 12.3467 16.8458 11.2187C17.7549 10.0897 19.1769 9.52472 21.1118 9.52472C22.8948 9.52472 24.2488 9.9957 25.1748 10.9377C26.0999 11.8797 26.5629 13.2177 26.5629 14.9487C26.5629 15.7307 26.4429 16.4687 26.2058 17.1647C25.9689 17.8617 25.6879 18.4817 25.3658 19.0247C25.0428 19.5677 24.5428 20.3397 23.8628 21.3417L19.8898 27.3007H26.0278V30.4087H15.4839V27.6327Z" fill="white"/>
<path d="M36.637 17.7463C35.826 17.7463 35.244 17.5263 34.8931 17.0853C34.54 16.6453 34.364 16.0003 34.364 15.1503V12.2403C34.364 11.8213 34.4041 11.4593 34.483 11.1513C34.563 10.8443 34.6901 10.5773 34.866 10.3523C35.042 10.1273 35.277 9.95831 35.572 9.84631C35.8671 9.73331 36.222 9.67731 36.637 9.67731C37.4451 9.67731 38.026 9.89432 38.379 10.3283C38.733 10.7633 38.91 11.3993 38.91 12.2403V15.1503C38.91 15.5623 38.87 15.9243 38.788 16.2363C38.708 16.5493 38.579 16.8203 38.4031 17.0493C38.228 17.2793 37.9921 17.4533 37.698 17.5703C37.4031 17.6873 37.0491 17.7463 36.637 17.7463ZM36.2781 16.6193C36.3771 16.6603 36.498 16.6813 36.637 16.6813C36.777 16.6813 36.895 16.6603 36.994 16.6193C37.092 16.5783 37.17 16.5243 37.229 16.4583C37.288 16.3913 37.334 16.3043 37.3671 16.1963C37.4 16.0883 37.422 15.9803 37.434 15.8733C37.444 15.7653 37.4501 15.6363 37.4501 15.4873V11.9073C37.4501 11.7173 37.441 11.5593 37.421 11.4323C37.4031 11.3053 37.365 11.1853 37.309 11.0723C37.254 10.9603 37.171 10.8763 37.0601 10.8203C36.9501 10.7653 36.808 10.7373 36.637 10.7373C36.465 10.7373 36.324 10.7653 36.2111 10.8203C36.1 10.8763 36.016 10.9603 35.962 11.0723C35.908 11.1853 35.8721 11.3053 35.853 11.4323C35.834 11.5593 35.8251 11.7173 35.8251 11.9073V15.4873C35.8251 15.6363 35.829 15.7653 35.8411 15.8733C35.8521 15.9803 35.874 16.0883 35.907 16.1963C35.9401 16.3043 35.986 16.3913 36.043 16.4583C36.1 16.5243 36.179 16.5783 36.2781 16.6193Z" fill="white"/>
<path d="M40.5366 17.6508V10.8278H39.2146V9.76682H43.2516V10.8278H41.9727V17.6508H40.5366Z" fill="white"/>
<path d="M43.6985 17.6506V9.76761H45.6285C45.9935 9.76761 46.3115 9.79959 46.5845 9.8656C46.8575 9.9306 47.0985 10.0386 47.3096 10.1886C47.5205 10.3386 47.6785 10.5476 47.7845 10.8136C47.8905 11.0796 47.9435 11.4016 47.9406 11.7786C47.9365 12.7526 47.5515 13.2956 46.7845 13.4096C47.7065 13.5846 48.1696 14.2356 48.1725 15.3636C48.1755 16.1126 47.9885 16.6796 47.6116 17.0686C47.2335 17.4566 46.6846 17.6506 45.9615 17.6506H43.6985ZM45.1345 12.9816H45.5815C46.0055 12.9816 46.2985 12.8916 46.4565 12.7106C46.6145 12.5306 46.6946 12.2256 46.6946 11.7976C46.6946 11.5766 46.6675 11.3956 46.6155 11.2586C46.5635 11.1206 46.4755 11.0166 46.3525 10.9476C46.2285 10.8776 46.0906 10.8316 45.9406 10.8086C45.7896 10.7866 45.5895 10.7756 45.3395 10.7756H45.1345V12.9816ZM45.1345 16.6386H45.6625C46.0935 16.6386 46.3905 16.5386 46.5535 16.3396C46.7166 16.1386 46.7985 15.8096 46.7985 15.3496C46.7985 14.8746 46.7065 14.5296 46.5205 14.3156C46.3345 14.1026 46.0236 13.9946 45.5865 13.9946H45.1345V16.6386Z" fill="white"/>
<path d="M48.9008 17.6508V9.76682H52.2008V10.7808H50.3368V13.0438H51.8108V14.0558H50.3368V16.6568H52.2247V17.6508H48.9008Z" fill="white"/>
<path d="M53.6273 17.6508V10.8278H52.3053V9.76682H56.3423V10.8278H55.0632V17.6508H53.6273Z" fill="white"/>
<path d="M58.891 17.746C58.5509 17.746 58.252 17.704 57.9919 17.618C57.7319 17.533 57.517 17.414 57.3479 17.262C57.178 17.109 57.0399 16.921 56.934 16.695C56.8279 16.471 56.7529 16.228 56.7109 15.97C56.668 15.712 56.647 15.421 56.647 15.098V12.349C56.647 12.007 56.668 11.704 56.7129 11.439C56.757 11.175 56.8319 10.929 56.9359 10.702C57.0409 10.475 57.178 10.289 57.3479 10.143C57.517 9.99802 57.731 9.88303 57.99 9.80103C58.2479 9.71902 58.548 9.677 58.891 9.677C59.2839 9.677 59.6199 9.729 59.8989 9.83502C60.178 9.93903 60.3979 10.093 60.5599 10.295C60.7209 10.498 60.8379 10.736 60.9109 11.006C60.9839 11.277 61.0209 11.593 61.0209 11.954V12.63H59.637V11.96C59.637 11.566 59.6169 11.302 59.575 11.165C59.4929 10.899 59.2919 10.757 58.9719 10.738H58.8959C58.7749 10.738 58.6699 10.752 58.579 10.78C58.4889 10.809 58.4149 10.854 58.3579 10.916C58.3009 10.978 58.2549 11.044 58.22 11.113C58.1849 11.183 58.1589 11.274 58.142 11.386C58.1239 11.499 58.1129 11.603 58.1089 11.698C58.1039 11.793 58.1019 11.914 58.1019 12.059V15.398C58.1019 15.86 58.1589 16.19 58.2749 16.387C58.391 16.582 58.5969 16.681 58.8959 16.681C58.9969 16.681 59.0859 16.669 59.1639 16.646C59.2419 16.622 59.3069 16.592 59.36 16.555C59.412 16.519 59.4559 16.467 59.4929 16.398C59.5289 16.33 59.5559 16.267 59.575 16.208C59.595 16.149 59.6089 16.068 59.6179 15.963C59.627 15.858 59.6329 15.77 59.6349 15.697C59.637 15.624 59.637 15.524 59.637 15.398V14.694H61.0209V15.341C61.0209 15.635 60.9999 15.9 60.959 16.134C60.918 16.369 60.8479 16.589 60.7479 16.796C60.6479 17.001 60.5189 17.173 60.36 17.309C60.2009 17.445 59.9989 17.552 59.752 17.63C59.5039 17.707 59.2169 17.746 58.891 17.746Z" fill="white"/>
<path d="M62.5905 17.6508V10.8278H61.2684V9.76682H65.3054V10.8278H64.0265V17.6508H62.5905Z" fill="white"/>
<path d="M65.7523 17.6506V9.76761H67.6833C68.0474 9.76761 68.3654 9.79959 68.6394 9.8656C68.9114 9.9306 69.1523 10.0386 69.3644 10.1886C69.5743 10.3386 69.7323 10.5476 69.8394 10.8136C69.9453 11.0796 69.9973 11.4016 69.9944 11.7786C69.9904 12.7526 69.6053 13.2956 68.8384 13.4096C69.7614 13.5846 70.2234 14.2356 70.2273 15.3636C70.2294 16.1126 70.0424 16.6796 69.6664 17.0686C69.2883 17.4566 68.7384 17.6506 68.0154 17.6506H65.7523ZM67.1884 12.9816H67.6354C68.0603 12.9816 68.3523 12.8916 68.5104 12.7106C68.6683 12.5306 68.7484 12.2256 68.7484 11.7976C68.7484 11.5766 68.7213 11.3956 68.6693 11.2586C68.6173 11.1206 68.5293 11.0166 68.4064 10.9476C68.2823 10.8776 68.1444 10.8316 67.9944 10.8086C67.8434 10.7866 67.6433 10.7756 67.3933 10.7756H67.1884V12.9816ZM67.1884 16.6386H67.7163C68.1473 16.6386 68.4443 16.5386 68.6084 16.3396C68.7704 16.1386 68.8523 15.8096 68.8523 15.3496C68.8523 14.8746 68.7604 14.5296 68.5743 14.3156C68.3883 14.1026 68.0784 13.9946 67.6404 13.9946H67.1884V16.6386Z" fill="white"/>
<path d="M70.9546 17.6508V9.76682H74.2545V10.7808H72.3905V13.0438H73.8645V14.0558H72.3905V16.6568H74.2776V17.6508H70.9546Z" fill="white"/>
<path d="M74.9253 17.6508V9.76682H76.3612V13.0618H77.9633V9.76682H79.3993V17.6508H77.9633V14.0848H76.3612V17.6508H74.9253Z" fill="white"/>
<path d="M80.412 17.6508V9.76682H81.8489V13.0618H83.4509V9.76682H84.887V17.6508H83.4509V14.0848H81.8489V17.6508H80.412Z" fill="white"/>
<path d="M88.0297 17.7463C87.2188 17.7463 86.6367 17.5263 86.2847 17.0853C85.9327 16.6453 85.7567 16.0003 85.7567 15.1503V12.2403C85.7567 11.8213 85.7968 11.4593 85.8757 11.1513C85.9557 10.8443 86.0828 10.5773 86.2587 10.3523C86.4347 10.1273 86.6697 9.95831 86.9647 9.84631C87.2598 9.73331 87.6138 9.67731 88.0297 9.67731C88.8378 9.67731 89.4187 9.89432 89.7717 10.3283C90.1257 10.7633 90.3027 11.3993 90.3027 12.2403V15.1503C90.3027 15.5623 90.2627 15.9243 90.1807 16.2363C90.0997 16.5493 89.9717 16.8203 89.7958 17.0493C89.6198 17.2793 89.3848 17.4533 89.0897 17.5703C88.7958 17.6873 88.4418 17.7463 88.0297 17.7463ZM87.6708 16.6193C87.7698 16.6603 87.8907 16.6813 88.0297 16.6813C88.1697 16.6813 88.2877 16.6603 88.3857 16.6193C88.4838 16.5783 88.5627 16.5243 88.6217 16.4583C88.6807 16.3913 88.7267 16.3043 88.7598 16.1963C88.7927 16.0883 88.8147 15.9803 88.8267 15.8733C88.8367 15.7653 88.8428 15.6363 88.8428 15.4873V11.9073C88.8428 11.7173 88.8337 11.5593 88.8137 11.4323C88.7958 11.3053 88.7577 11.1853 88.7017 11.0723C88.6467 10.9603 88.5637 10.8763 88.4528 10.8203C88.3417 10.7653 88.2007 10.7373 88.0297 10.7373C87.8577 10.7373 87.7157 10.7653 87.6038 10.8203C87.4917 10.8763 87.4087 10.9603 87.3547 11.0723C87.3007 11.1853 87.2637 11.3053 87.2457 11.4323C87.2257 11.5593 87.2178 11.7173 87.2178 11.9073V15.4873C87.2178 15.6363 87.2217 15.7653 87.2327 15.8733C87.2448 15.9803 87.2667 16.0883 87.2997 16.1963C87.3328 16.3043 87.3787 16.3913 87.4357 16.4583C87.4927 16.5243 87.5717 16.5783 87.6708 16.6193Z" fill="white"/>
<path d="M91.1587 17.6508V9.76682H94.4586V10.7808H92.5946V13.0438H94.0686V14.0558H92.5946V16.6568H94.4827V17.6508H91.1587Z" fill="white"/>
<path d="M34.4927 30.5352V22.6512H39.0486V30.5352H37.6266V23.6732H35.9136V30.5352H34.4927Z" fill="white"/>
<path d="M42.1765 30.6306C41.3656 30.6306 40.7836 30.4096 40.4326 29.9696C40.0806 29.5286 39.9045 28.8836 39.9045 28.0346V25.1246C39.9045 24.7056 39.9436 24.3426 40.0226 24.0356C40.1025 23.7276 40.2306 23.4616 40.4055 23.2366C40.5815 23.0116 40.8165 22.8426 41.1116 22.7306C41.4066 22.6176 41.7616 22.5606 42.1765 22.5606C42.9846 22.5606 43.5656 22.7786 43.9196 23.2126C44.2726 23.6476 44.4496 24.2836 44.4496 25.1246V28.0346C44.4496 28.4466 44.4095 28.8076 44.3286 29.1206C44.2476 29.4336 44.1185 29.7046 43.9436 29.9336C43.7676 30.1636 43.5316 30.3376 43.2375 30.4536C42.9426 30.5716 42.5886 30.6306 42.1765 30.6306ZM41.8176 29.5036C41.9176 29.5446 42.0376 29.5656 42.1765 29.5656C42.3165 29.5656 42.4346 29.5446 42.5336 29.5036C42.6316 29.4626 42.7096 29.4086 42.7686 29.3416C42.8275 29.2746 42.8735 29.1886 42.9066 29.0796C42.9396 28.9726 42.9615 28.8646 42.9735 28.7566C42.9846 28.6486 42.9896 28.5206 42.9896 28.3716V24.7916C42.9896 24.6016 42.9806 24.4436 42.9615 24.3156C42.9426 24.1896 42.9045 24.0696 42.8496 23.9566C42.7946 23.8446 42.7106 23.7606 42.5996 23.7046C42.4896 23.6486 42.3475 23.6216 42.1765 23.6216C42.0056 23.6216 41.8635 23.6486 41.7506 23.7046C41.6395 23.7606 41.5555 23.8446 41.5016 23.9566C41.4475 24.0696 41.4116 24.1896 41.3926 24.3156C41.3735 24.4436 41.3646 24.6016 41.3646 24.7916V28.3716C41.3646 28.5206 41.3685 28.6486 41.3806 28.7566C41.3916 28.8646 41.4146 28.9726 41.4475 29.0796C41.4796 29.1886 41.5255 29.2746 41.5825 29.3416C41.6395 29.4086 41.7185 29.4626 41.8176 29.5036Z" fill="white"/>
<path d="M46.076 30.5352V23.7122H44.754V22.6512H48.791V23.7122H47.5121V30.5352H46.076Z" fill="white"/>
<path d="M49.2239 30.5351V22.6511H51.4918C52.8358 22.6511 53.5078 23.3981 53.5078 24.8911C53.5078 25.6241 53.3239 26.1601 52.9558 26.5011C52.5889 26.8411 52.0708 27.0121 51.4019 27.0121H50.6599V30.5351H49.2239ZM50.6599 26.0041H51.1208C51.5269 26.0041 51.8009 25.9241 51.9438 25.7641C52.0858 25.6041 52.1569 25.3091 52.1569 24.8821C52.1569 24.6381 52.1488 24.4491 52.1289 24.3161C52.1099 24.1821 52.0658 24.0611 51.9958 23.9521C51.9259 23.8431 51.8229 23.7681 51.6848 23.7261C51.5469 23.6851 51.3599 23.6641 51.1259 23.6641H50.6599V26.0041Z" fill="white"/>
<path d="M54.0643 30.5352V22.6512H57.3643V23.6652H55.5002V25.9272H56.9742V26.9402H55.5002V29.5412H57.3883V30.5352H54.0643Z" fill="white"/>
<path d="M58.0348 30.5347V22.6517H61.6818V23.7167H59.4708V25.9507H59.7037C60.1288 25.9507 60.4907 25.9887 60.7908 26.0627C61.0897 26.1377 61.3478 26.2627 61.5637 26.4367C61.7788 26.6107 61.9377 26.8457 62.0408 27.1407C62.1438 27.4347 62.1958 27.7977 62.1958 28.2287C62.1958 28.5807 62.1577 28.8887 62.0837 29.1547C62.0088 29.4187 61.9027 29.6377 61.7648 29.8127C61.6267 29.9867 61.4528 30.1277 61.2418 30.2357C61.0308 30.3437 60.7998 30.4197 60.5458 30.4667C60.2917 30.5117 60.0017 30.5347 59.6758 30.5347H58.0348ZM59.4708 29.5557H59.6758C59.8917 29.5557 60.0687 29.5367 60.2108 29.4987C60.3507 29.4607 60.4728 29.3927 60.5747 29.2947C60.6748 29.1957 60.7478 29.0587 60.7927 28.8827C60.8368 28.7067 60.8578 28.4827 60.8547 28.2097C60.8518 27.7667 60.7628 27.4467 60.5878 27.2497C60.4148 27.0527 60.1028 26.9547 59.6567 26.9547H59.4708V29.5557Z" fill="white"/>
<path d="M62.343 30.5352V29.4982C62.502 29.5022 62.6279 29.4972 62.7209 29.4842C62.8149 29.4712 62.908 29.4332 63.0039 29.3682C63.0979 29.3032 63.173 29.2122 63.226 29.0962C63.278 28.9812 63.33 28.8152 63.382 28.5972C63.434 28.3812 63.4779 28.1202 63.51 27.8182C63.543 27.5152 63.574 27.1372 63.6029 26.6832L63.865 22.6512H67.7109V30.5352H66.2749V23.7262H65.1289L64.958 26.8312C64.939 27.1542 64.9199 27.4312 64.8989 27.6612C64.8779 27.8902 64.8519 28.1302 64.818 28.3792C64.7849 28.6282 64.7439 28.8352 64.699 29.0022C64.653 29.1682 64.5959 29.3372 64.528 29.5082C64.46 29.6792 64.381 29.8182 64.2899 29.9242C64.2 30.0302 64.093 30.1312 63.969 30.2262C63.8459 30.3212 63.704 30.3912 63.5459 30.4362C63.387 30.4802 63.208 30.5112 63.0089 30.5302C62.809 30.5492 62.5869 30.5512 62.343 30.5352Z" fill="white"/>
<path d="M68.7103 30.5352V22.6512H72.0103V23.6652H70.1462V25.9272H71.6202V26.9402H70.1462V29.5412H72.0333V30.5352H68.7103Z" fill="white"/>
<path d="M72.6803 30.5352V22.6512H74.1172V25.9472H75.7192V22.6512H77.1553V30.5352H75.7192V26.9692H74.1172V30.5352H72.6803Z" fill="white"/>
<path d="M78.1677 30.5352V22.6512H79.3607V27.5772L81.5006 22.6512H82.4807V30.5352H81.2727V25.5142L79.1287 30.5352H78.1677Z" fill="white"/>
<path d="M83.4791 30.5352V22.6512H86.7791V23.6652H84.916V25.9272H86.389V26.9402H84.916V29.5412H86.8031V30.5352H83.4791Z" fill="white"/>
<path d="M34.5067 43.4195V35.5355H35.6997V40.4615L37.8397 35.5355H38.8197V43.4195H37.6117V38.3975L35.4678 43.4195H34.5067Z" fill="white"/>
<path d="M42.0007 43.4195V35.5355H46.5566V43.4195H45.1346V36.5575H43.4227V43.4195H42.0007Z" fill="white"/>
<path d="M47.5406 43.4198V35.5348H49.8086C51.1526 35.5348 51.8246 36.2818 51.8246 37.7758C51.8246 38.5078 51.6406 39.0438 51.2726 39.3848C50.9056 39.7248 50.3876 39.8958 49.7186 39.8958H48.9767V43.4198H47.5406ZM48.9767 38.8878H49.4376C49.8436 38.8878 50.1177 38.8078 50.2596 38.6478C50.4036 38.4888 50.4736 38.1938 50.4736 37.7658C50.4736 37.5218 50.4656 37.3328 50.4457 37.2008C50.4266 37.0668 50.3826 36.9458 50.3126 36.8368C50.2427 36.7268 50.1396 36.6518 50.0016 36.6098C49.8636 36.5688 49.6766 36.5478 49.4426 36.5478H48.9767V38.8878Z" fill="white"/>
<path d="M54.5254 43.5143C53.7145 43.5143 53.1324 43.2943 52.7815 42.8533C52.4285 42.4133 52.2534 41.7683 52.2534 40.9183V38.0083C52.2534 37.5893 52.2925 37.2273 52.3715 36.9193C52.4514 36.6123 52.5795 36.3453 52.7544 36.1203C52.9304 35.8953 53.1654 35.7273 53.4604 35.6143C53.7555 35.5013 54.1105 35.4453 54.5254 35.4453C55.3335 35.4453 55.9144 35.6623 56.2675 36.0963C56.6215 36.5313 56.7985 37.1673 56.7985 38.0083V40.9183C56.7985 41.3303 56.7584 41.6923 56.6775 42.0053C56.5964 42.3173 56.4674 42.5883 56.2915 42.8173C56.1165 43.0473 55.8805 43.2213 55.5864 43.3383C55.2915 43.4553 54.9375 43.5143 54.5254 43.5143ZM54.1665 42.3873C54.2665 42.4283 54.3865 42.4493 54.5254 42.4493C54.6654 42.4493 54.7834 42.4283 54.8824 42.3873C54.9805 42.3463 55.0585 42.2923 55.1174 42.2263C55.1764 42.1593 55.2224 42.0723 55.2555 41.9643C55.2885 41.8563 55.3104 41.7483 55.3224 41.6413C55.3324 41.5333 55.3385 41.4043 55.3385 41.2553V37.6753C55.3385 37.4853 55.3295 37.3273 55.3094 37.2003C55.2915 37.0733 55.2534 36.9533 55.1985 36.8403C55.1434 36.7283 55.0594 36.6433 54.9485 36.5883C54.8385 36.5333 54.6964 36.5053 54.5254 36.5053C54.3545 36.5053 54.2124 36.5333 54.0995 36.5883C53.9884 36.6433 53.9044 36.7283 53.8505 36.8403C53.7964 36.9533 53.7605 37.0733 53.7415 37.2003C53.7224 37.3273 53.7135 37.4853 53.7135 37.6753V41.2553C53.7135 41.4043 53.7174 41.5333 53.7295 41.6413C53.7405 41.7483 53.7634 41.8563 53.7954 41.9643C53.8285 42.0723 53.8744 42.1593 53.9314 42.2263C53.9884 42.2923 54.0674 42.3463 54.1665 42.3873Z" fill="white"/>
<path d="M57.6686 43.4195V35.5355H58.8616V40.4615L61.0015 35.5355H61.9816V43.4195H60.7736V38.3975L58.6295 43.4195H57.6686Z" fill="white"/>
<path d="M64.8392 43.5288C64.1353 43.5288 63.6162 43.3338 63.2803 42.9438C62.9442 42.5538 62.7753 42.0038 62.7753 41.2938V41.0138H64.1252C64.1252 41.1688 64.1282 41.2678 64.1312 41.3128C64.1403 41.6868 64.1952 41.9618 64.2972 42.1378C64.3993 42.3138 64.5823 42.4018 64.8492 42.4018C64.9692 42.4018 65.0732 42.3828 65.1603 42.3418C65.2472 42.3028 65.3163 42.2498 65.3672 42.1828C65.4172 42.1168 65.4562 42.0278 65.4833 41.9168C65.5103 41.8058 65.5292 41.6938 65.5382 41.5818C65.5482 41.4688 65.5522 41.3298 65.5522 41.1658C65.5522 40.7438 65.4712 40.4228 65.3082 40.2028C65.1443 39.9818 64.8522 39.8578 64.4302 39.8298C64.3922 39.8258 64.2803 39.8248 64.0933 39.8248V38.8398C64.2643 38.8398 64.3662 38.8388 64.4022 38.8358C64.8323 38.8168 65.1322 38.7058 65.3003 38.5028C65.4683 38.2998 65.5522 37.9928 65.5522 37.5808C65.5522 37.2378 65.4922 36.9768 65.3722 36.7978C65.2512 36.6188 65.0542 36.5298 64.7822 36.5298C64.2872 36.5298 64.0253 36.8808 63.9933 37.5848C63.9893 37.6228 63.9883 37.7348 63.9883 37.9218H62.6332V37.5568C62.6332 36.8908 62.8223 36.3718 63.2013 35.9998C63.5802 35.6268 64.0992 35.4408 64.7582 35.4408C65.4272 35.4408 65.9502 35.6238 66.3282 35.9898C66.7052 36.3568 66.8932 36.8718 66.8932 37.5368C66.8932 37.9838 66.7972 38.3608 66.6033 38.6668C66.4103 38.9728 66.1553 39.1718 65.8383 39.2638C66.5422 39.5078 66.8932 40.1358 66.8932 41.1468C66.8932 41.8968 66.7283 42.4828 66.3993 42.9008C66.0692 43.3198 65.5492 43.5288 64.8392 43.5288Z" fill="white"/>
<path d="M67.6875 43.4196V35.5356H69.6185C69.9825 35.5356 70.3005 35.5676 70.5746 35.6336C70.8466 35.6986 71.0875 35.8066 71.2996 35.9566C71.5095 36.1066 71.6675 36.3156 71.7745 36.5816C71.8805 36.8476 71.9325 37.1696 71.9296 37.5466C71.9255 38.5206 71.5405 39.0636 70.7736 39.1776C71.6965 39.3526 72.1586 40.0036 72.1625 41.1316C72.1655 41.8806 71.9785 42.4476 71.6016 42.8366C71.2235 43.2246 70.6736 43.4196 69.9506 43.4196H67.6875ZM69.1235 38.7496H69.5706C69.9945 38.7496 70.2875 38.6596 70.4456 38.4786C70.6035 38.2986 70.6836 37.9936 70.6836 37.5656C70.6836 37.3446 70.6565 37.1636 70.6045 37.0266C70.5525 36.8886 70.4645 36.7846 70.3416 36.7146C70.2175 36.6456 70.0796 36.5996 69.9296 36.5776C69.7786 36.5546 69.5785 36.5436 69.3285 36.5436H69.1235V38.7496ZM69.1235 42.4066H69.6515C70.0825 42.4066 70.3795 42.3066 70.5425 42.1076C70.7065 41.9066 70.7875 41.5776 70.7875 41.1176C70.7875 40.6426 70.6956 40.2976 70.5095 40.0836C70.3235 39.8706 70.0135 39.7626 69.5756 39.7626H69.1235V42.4066Z" fill="white"/>
<path d="M75.0342 43.5143C74.2233 43.5143 73.6412 43.2943 73.2892 42.8533C72.9373 42.4133 72.7612 41.7683 72.7612 40.9183V38.0083C72.7612 37.5893 72.8013 37.2273 72.8802 36.9193C72.9592 36.6123 73.0873 36.3453 73.2632 36.1203C73.4382 35.8953 73.6742 35.7273 73.9692 35.6143C74.2643 35.5013 74.6183 35.4453 75.0342 35.4453C75.8423 35.4453 76.4232 35.6623 76.7762 36.0963C77.1302 36.5313 77.3073 37.1673 77.3073 38.0083V40.9183C77.3073 41.3303 77.2672 41.6923 77.1852 42.0053C77.1042 42.3173 76.9762 42.5883 76.8003 42.8173C76.6243 43.0473 76.3893 43.2213 76.0942 43.3383C75.7992 43.4553 75.4463 43.5143 75.0342 43.5143ZM74.6753 42.3873C74.7743 42.4283 74.8943 42.4493 75.0342 42.4493C75.1732 42.4493 75.2922 42.4283 75.3903 42.3873C75.4883 42.3463 75.5673 42.2923 75.6252 42.2263C75.6852 42.1593 75.7312 42.0723 75.7643 41.9643C75.7972 41.8563 75.8192 41.7483 75.8312 41.6413C75.8412 41.5333 75.8473 41.4043 75.8473 41.2553V37.6753C75.8473 37.4853 75.8383 37.3273 75.8182 37.2003C75.7992 37.0733 75.7622 36.9533 75.7062 36.8403C75.6512 36.7283 75.5673 36.6433 75.4573 36.5883C75.3462 36.5333 75.2052 36.5053 75.0342 36.5053C74.8622 36.5053 74.7202 36.5333 74.6083 36.5883C74.4962 36.6433 74.4132 36.7283 74.3593 36.8403C74.3052 36.9533 74.2682 37.0733 74.2502 37.2003C74.2302 37.3273 74.2212 37.4853 74.2212 37.6753V41.2553C74.2212 41.4043 74.2262 41.5333 74.2372 41.6413C74.2493 41.7483 74.2712 41.8563 74.3042 41.9643C74.3373 42.0723 74.3832 42.1593 74.4402 42.2263C74.4972 42.2923 74.5762 42.3463 74.6753 42.3873Z" fill="white"/>
<path d="M77.7065 44.9839V42.3969H78.0205C78.1915 42.2959 78.3416 42.1589 78.4696 41.9879C78.5975 41.8169 78.7225 41.5709 78.8435 41.2509C78.9636 40.9309 79.0636 40.5019 79.1445 39.9629C79.2256 39.4239 79.2866 38.7739 79.3275 38.0129L79.4796 35.5349H82.9985V42.3969H83.8306V44.9839H82.8086L82.7136 43.4199H78.8516L78.7576 44.9839H77.7065ZM79.3516 42.3969H81.6145V36.5719H80.6266L80.5546 38.2509C80.5355 38.6879 80.5076 39.0859 80.4716 39.4449C80.4346 39.8029 80.3976 40.1049 80.3575 40.3529C80.3175 40.5999 80.2626 40.8289 80.1936 41.0389C80.1235 41.2509 80.0646 41.4149 80.0145 41.5339C79.9666 41.6529 79.8945 41.7749 79.8005 41.8999C79.7075 42.0259 79.6356 42.1139 79.5846 42.1659C79.5336 42.2189 79.4565 42.2959 79.3516 42.3969Z" fill="white"/>
<path d="M86.5319 43.5147C86.1919 43.5147 85.8928 43.4717 85.6339 43.3867C85.3728 43.3007 85.1578 43.1817 84.9889 43.0297C84.8188 42.8767 84.6809 42.6887 84.5748 42.4637C84.4689 42.2387 84.3939 41.9967 84.3518 41.7387C84.3088 41.4797 84.2878 41.1897 84.2878 40.8667V38.1177C84.2878 37.7747 84.3088 37.4717 84.3539 37.2067C84.3988 36.9427 84.4729 36.6967 84.5769 36.4697C84.6819 36.2437 84.8188 36.0577 84.9889 35.9117C85.1578 35.7657 85.3718 35.6517 85.6309 35.5687C85.8889 35.4867 86.1888 35.4457 86.5319 35.4457C86.9248 35.4457 87.2609 35.4977 87.5399 35.6027C87.8188 35.7077 88.0388 35.8607 88.2008 36.0637C88.3618 36.2657 88.4799 36.5037 88.5519 36.7747C88.6249 37.0457 88.6619 37.3607 88.6619 37.7227V38.3987H87.2778V37.7277C87.2778 37.3337 87.2578 37.0707 87.2158 36.9337C87.1339 36.6677 86.9329 36.5247 86.6129 36.5067H86.5369C86.4159 36.5067 86.3109 36.5197 86.2198 36.5487C86.1299 36.5777 86.0559 36.6217 85.9989 36.6837C85.9419 36.7457 85.8959 36.8117 85.8608 36.8817C85.8258 36.9507 85.8009 37.0417 85.7828 37.1547C85.7659 37.2677 85.7539 37.3707 85.7499 37.4667C85.7449 37.5617 85.7429 37.6817 85.7429 37.8267V41.1657C85.7429 41.6287 85.8009 41.9587 85.9159 42.1547C86.0319 42.3507 86.2389 42.4487 86.5369 42.4487C86.6378 42.4487 86.7268 42.4377 86.8048 42.4137C86.8828 42.3897 86.9479 42.3597 87.0009 42.3227C87.0529 42.2877 87.0968 42.2347 87.1339 42.1657C87.1698 42.0987 87.1979 42.0357 87.2158 41.9757C87.2349 41.9177 87.2499 41.8357 87.2589 41.7307C87.2689 41.6267 87.2738 41.5377 87.2759 41.4657C87.2778 41.3927 87.2778 41.2917 87.2778 41.1657V40.4617H88.6619V41.1087C88.6619 41.4037 88.6409 41.6677 88.5999 41.9027C88.5588 42.1367 88.4889 42.3567 88.3889 42.5637C88.2888 42.7697 88.1599 42.9407 88.0009 43.0767C87.8419 43.2137 87.6399 43.3197 87.3928 43.3977C87.1449 43.4757 86.8579 43.5147 86.5319 43.5147Z" fill="white"/>
<path d="M90.2313 43.4195V36.5965H88.9093V35.5355H92.9463V36.5965H91.6672V43.4195H90.2313Z" fill="white"/>
<path d="M93.3932 43.4196V35.5356H95.3242C95.6882 35.5356 96.0072 35.5676 96.2803 35.6336C96.5522 35.6986 96.7932 35.8066 97.0052 35.9566C97.2152 36.1066 97.3732 36.3156 97.4802 36.5816C97.5862 36.8476 97.6382 37.1696 97.6353 37.5466C97.6312 38.5206 97.2462 39.0636 96.4792 39.1776C97.4022 39.3526 97.8643 40.0036 97.8682 41.1316C97.8712 41.8806 97.6842 42.4476 97.3073 42.8366C96.9292 43.2246 96.3793 43.4196 95.6572 43.4196H93.3932ZM94.8292 38.7496H95.2762C95.7002 38.7496 95.9932 38.6596 96.1512 38.4786C96.3092 38.2986 96.3893 37.9936 96.3893 37.5656C96.3893 37.3446 96.3622 37.1636 96.3102 37.0266C96.2582 36.8886 96.1702 36.7846 96.0463 36.7146C95.9232 36.6456 95.7853 36.5996 95.6353 36.5776C95.4843 36.5546 95.2842 36.5436 95.0342 36.5436H94.8292V38.7496ZM94.8292 42.4066H95.3572C95.7882 42.4066 96.0852 42.3066 96.2493 42.1076C96.4122 41.9066 96.4932 41.5776 96.4932 41.1176C96.4932 40.6426 96.4012 40.2976 96.2152 40.0836C96.0292 39.8706 95.7192 39.7626 95.2812 39.7626H94.8292V42.4066Z" fill="white"/>
<path d="M100.74 43.5143C99.929 43.5143 99.3469 43.2943 98.9949 42.8533C98.6429 42.4133 98.4669 41.7683 98.4669 40.9183V38.0083C98.4669 37.5893 98.507 37.2273 98.5859 36.9193C98.6649 36.6123 98.793 36.3453 98.9689 36.1203C99.1439 35.8953 99.3799 35.7273 99.6749 35.6143C99.97 35.5013 100.324 35.4453 100.74 35.4453C101.548 35.4453 102.129 35.6623 102.482 36.0963C102.836 36.5313 103.013 37.1673 103.013 38.0083V40.9183C103.013 41.3303 102.973 41.6923 102.891 42.0053C102.81 42.3173 102.682 42.5883 102.506 42.8173C102.33 43.0473 102.095 43.2213 101.8 43.3383C101.506 43.4553 101.152 43.5143 100.74 43.5143ZM100.381 42.3873C100.48 42.4283 100.6 42.4493 100.74 42.4493C100.879 42.4493 100.998 42.4283 101.096 42.3873C101.194 42.3463 101.273 42.2923 101.332 42.2263C101.391 42.1593 101.437 42.0723 101.47 41.9643C101.503 41.8563 101.525 41.7483 101.537 41.6413C101.547 41.5333 101.553 41.4043 101.553 41.2553V37.6753C101.553 37.4853 101.544 37.3273 101.524 37.2003C101.506 37.0733 101.468 36.9533 101.412 36.8403C101.357 36.7283 101.273 36.6433 101.163 36.5883C101.052 36.5333 100.911 36.5053 100.74 36.5053C100.568 36.5053 100.426 36.5333 100.314 36.5883C100.202 36.6433 100.119 36.7283 100.065 36.8403C100.011 36.9533 99.9739 37.0733 99.9559 37.2003C99.9359 37.3273 99.9269 37.4853 99.9269 37.6753V41.2553C99.9269 41.4043 99.9319 41.5333 99.9429 41.6413C99.955 41.7483 99.9769 41.8563 100.01 41.9643C100.043 42.0723 100.089 42.1593 100.146 42.2263C100.203 42.2923 100.281 42.3463 100.381 42.3873Z" fill="white"/>
<path d="M81.7476 56.5127C76.9475 52.7218 70.5875 52.6438 68.2595 53.1978L67.9895 53.2608C65.2996 53.8958 61.0266 54.9467 56.0255 61.1527C55.9985 61.1878 55.9696 61.2227 55.9425 61.2578L55.8785 61.3347C55.8306 61.4038 55.7965 61.4848 55.7965 61.5758C55.7965 61.6518 55.8146 61.7197 55.8496 61.7838L55.9656 61.9757C56.5935 63.0257 57.3856 64.3758 58.0546 65.6217C58.0615 65.6347 58.0675 65.6447 58.0725 65.6598C58.1445 65.7978 58.2876 65.8947 58.4536 65.8947C58.5706 65.8947 58.6746 65.8488 58.7495 65.7747C58.7816 65.7337 58.8125 65.6908 58.8406 65.6477C63.2786 59.5087 66.7695 58.6618 69.1316 58.1057L69.4136 58.0387C70.6385 57.7457 75.2976 57.7627 78.6626 60.4187C81.2876 62.4907 82.6195 65.7887 82.6195 70.2188C82.6195 77.6507 79.0056 80.5587 75.9716 81.6887C71.2716 83.4447 66.7655 81.0968 66.7335 81.0788L66.5316 80.9807C63.9496 79.8598 60.0975 77.5288 56.4675 70.2378C49.1505 55.5407 43.0295 54.1577 38.9806 53.2387L38.7626 53.1917C36.9196 52.7738 30.5145 52.4777 25.4816 56.4967C22.8506 58.5938 19.7175 62.6737 19.7175 70.1897C19.7175 74.7688 20.6586 77.7918 23.0765 80.9738C23.6066 81.6988 29.0255 88.6607 39.5026 86.6527C41.1786 86.3317 43.4506 85.5307 45.9486 83.6577L48.2545 85.7378C48.4055 85.8747 48.6445 85.8637 48.7836 85.7118C48.8496 85.6408 48.8776 85.5507 48.8756 85.4618V85.4307L50.5386 75.1988L50.5405 75.0847C50.5386 74.9848 50.4985 74.8828 50.4176 74.8128C50.3466 74.7458 50.2595 74.7197 50.1726 74.7197L50.1016 74.7268L49.9935 74.7378L40.1915 77.4818L40.0145 77.5108C39.9425 77.5257 39.8766 77.5628 39.8265 77.6198C39.6846 77.7768 39.6965 78.0127 39.8546 78.1518L39.9696 78.2578L42.1646 80.2417C40.7476 81.1588 39.5116 81.5808 38.5686 81.7638C30.9885 83.2088 27.2456 78.2448 27.1035 78.0507L27.0505 77.9777C25.2896 75.6657 24.6946 73.6997 24.6946 70.1897C24.6946 65.7458 26.0035 62.4467 28.5846 60.3847C31.8635 57.7688 36.3835 57.7537 37.6605 58.0448L37.8816 58.0947C41.1996 58.8447 45.7476 59.8728 52.0095 72.4558C55.2635 78.9868 59.3385 83.2578 64.4656 85.5097C65.1185 85.8427 68.2316 87.3187 72.2726 87.3187C73.9615 87.3187 75.8125 87.0617 77.7106 86.3557C80.6836 85.2458 87.5966 81.4558 87.5966 70.2188C87.5966 62.7077 84.4165 58.6198 81.7476 56.5127Z" fill="white"/>
</svg>
