<svg viewBox="0 0 119 60" fill="none" xmlns="http://www.w3.org/2000/svg">
<g clip-path="url(#clip0_1702_19487)">
<mask id="mask0_1702_19487" style="mask-type:luminance" maskUnits="userSpaceOnUse" x="0" y="0" width="60" height="60">
<path d="M0 2C0 0.895432 0.895431 0 2 0H60V60H2C0.895432 60 0 59.1046 0 58V2Z" fill="white"/>
</mask>
<g mask="url(#mask0_1702_19487)">
<path d="M60 0H0V60H60V0Z" fill="#FF3A21"/>
<path d="M6.0663 16.2523C5.62103 15.974 5.34275 15.5844 5.17577 15.0835C5.0088 14.5826 4.95312 13.9147 4.95312 13.1911H7.06818C7.06818 13.859 7.12383 14.3599 7.23515 14.6382C7.34647 14.9165 7.62475 15.0835 7.9587 15.0835C8.237 15.0835 8.45962 14.9722 8.57094 14.8052C8.68225 14.6382 8.79358 14.3599 8.79358 14.026C8.84924 13.692 8.84923 13.2468 8.84923 12.6345C8.84923 11.911 8.79358 11.41 8.68226 11.0761C8.57094 10.7421 8.29267 10.5752 7.90306 10.5752C7.40213 10.5752 7.06815 10.9091 6.90118 11.6327H5.0088L5.17577 5.12061H10.4633V7.013H6.95686L6.84553 9.5733C6.95685 9.40632 7.17949 9.295 7.51344 9.18369C7.84739 9.07237 8.18133 9.01671 8.57094 9.01671C9.35016 9.01671 9.96242 9.35066 10.352 9.9629C10.7416 10.5752 10.9643 11.4657 10.9643 12.6345C10.9643 13.5251 10.9086 14.3043 10.7416 14.9165C10.5747 15.5288 10.2964 15.974 9.85112 16.308C9.40585 16.6419 8.73794 16.8089 7.90306 16.8089C7.12384 16.6976 6.51157 16.5306 6.0663 16.2523Z" fill="white"/>
<path d="M15.8633 9.40631V5.00928H17.7V5.62153H16.6982V9.40631H15.8633Z" fill="white"/>
<path d="M18.1445 9.40631V5.00928H19.9813V5.56586H18.9238V6.84601H19.7586V7.4026H18.9238V8.84973H19.9813V9.40631H18.1445Z" fill="white"/>
<path d="M20.4277 9.40631V5.00928H21.2626V6.84601H22.1531V5.00928H22.9324V9.40631H22.1531V7.4026H21.2626V9.40631H20.4277Z" fill="white"/>
<path d="M23.3203 10.2412V8.79407H23.4873C23.5986 8.73841 23.6543 8.68275 23.7099 8.57143C23.7656 8.46012 23.8769 8.34879 23.9326 8.18182C23.9882 8.01484 24.0439 7.79221 24.0995 7.45826C24.1552 7.12431 24.1552 6.79035 24.2109 6.40074L24.3222 5.00928H26.2702V8.84973H26.7155V10.2968H26.1589L26.1032 9.40631H23.9326L23.8769 10.2968H23.3203V10.2412ZM24.2665 8.84973H25.5467V5.62153H24.9901L24.9344 6.56772C24.9344 6.79036 24.9344 7.01299 24.8788 7.23562C24.8788 7.45826 24.8231 7.62524 24.8231 7.73656C24.8231 7.84787 24.7674 8.01485 24.7118 8.12616C24.6561 8.23748 24.6561 8.3488 24.6005 8.40446C24.6005 8.46012 24.5448 8.51577 24.4892 8.62709C24.4335 8.68275 24.3778 8.73841 24.3778 8.79407C24.3778 8.73841 24.3222 8.79407 24.2665 8.84973Z" fill="white"/>
<path d="M27.1621 9.40631V5.00928H28.9988V5.56586H27.997V6.84601H28.7762V7.4026H27.997V8.84973H28.9988V9.40631H27.1621Z" fill="white"/>
<path d="M29.4434 9.40631V5.00928H30.7235C31.4471 5.00928 31.8367 5.39889 31.8367 6.23377C31.8367 6.62338 31.7254 6.95733 31.5027 7.12431C31.2801 7.29128 31.0018 7.4026 30.6122 7.4026H30.2226V9.35065H29.4434V9.40631ZM30.2782 6.90168H30.5565C30.7792 6.90168 30.9462 6.84601 31.0018 6.79035C31.0575 6.67903 31.1131 6.51206 31.1131 6.28943C31.1131 6.17811 31.1131 6.06679 31.1131 5.95547C31.1131 5.89981 31.0575 5.7885 31.0575 5.73284C31.0018 5.67718 30.9462 5.62153 30.8905 5.62153C30.8348 5.62153 30.7235 5.56586 30.5565 5.56586H30.2782V6.90168Z" fill="white"/>
<path d="M32.2812 9.40631V5.00928H33.0605V6.84601H33.951V5.00928H34.7859V9.40631H33.951V7.4026H33.0605V9.40631H32.2812Z" fill="white"/>
<path d="M36.6229 9.46196C36.1777 9.46196 35.8437 9.35064 35.6767 9.07235C35.4541 8.84971 35.3984 8.46011 35.3984 8.01484V6.40073C35.3984 6.1781 35.3985 5.95547 35.4541 5.78849C35.5098 5.62152 35.5654 5.45454 35.6767 5.34322C35.788 5.2319 35.8994 5.12059 36.0663 5.06493C36.2333 5.00927 36.4559 4.95361 36.6786 4.95361C37.1238 4.95361 37.4578 5.06493 37.6248 5.34322C37.8474 5.56586 37.9031 5.95546 37.9031 6.40073V8.01484C37.9031 8.23747 37.9031 8.4601 37.8474 8.62708C37.7918 8.79405 37.7361 8.96103 37.6248 9.07235C37.5135 9.18367 37.4021 9.29498 37.2352 9.35064C37.0125 9.4063 36.8456 9.46196 36.6229 9.46196ZM36.4003 8.79406C36.4559 8.79406 36.5116 8.84972 36.6229 8.84972C36.6786 8.84972 36.7899 8.84971 36.8456 8.79406C36.9012 8.79406 36.9569 8.7384 36.9569 8.68274C37.0125 8.62708 37.0126 8.57142 37.0126 8.51576C37.0126 8.4601 37.0682 8.40444 37.0682 8.34878C37.0682 8.29313 37.0682 8.23747 37.0682 8.12615V6.12244C37.0682 6.01112 37.0682 5.95546 37.0682 5.84415C37.0682 5.78849 37.0126 5.73283 37.0126 5.62152C36.9569 5.56586 36.9569 5.5102 36.9012 5.45454C36.8456 5.39888 36.7342 5.39888 36.6786 5.39888C36.5673 5.39888 36.5116 5.39888 36.456 5.45454C36.4003 5.5102 36.3446 5.5102 36.3446 5.62152C36.289 5.67717 36.289 5.73283 36.289 5.84415C36.289 5.8998 36.289 6.01112 36.289 6.12244V8.12615C36.289 8.18181 36.289 8.29313 36.289 8.34878C36.289 8.40444 36.289 8.4601 36.3446 8.51576C36.4003 8.57142 36.4003 8.62708 36.4003 8.68274C36.289 8.79406 36.3446 8.79406 36.4003 8.79406Z" fill="white"/>
<path d="M38.4609 9.40631V5.00928H40.2977V5.56586H39.2402V6.84601H40.0751V7.4026H39.2402V8.84973H40.2977V9.40631H38.4609Z" fill="white"/>
<path d="M15.8633 16.5865V12.1895H17.1434C17.867 12.1895 18.2566 12.5791 18.2566 13.4139C18.2566 13.8036 18.1453 14.1375 17.9227 14.3045C17.7 14.4715 17.4217 14.5828 17.0321 14.5828H16.6425V16.5308H15.8633V16.5865ZM16.6982 14.0262H16.9765C17.1991 14.0262 17.3661 13.9705 17.4217 13.9149C17.4774 13.8035 17.533 13.6366 17.533 13.4139C17.533 13.3026 17.533 13.1913 17.533 13.08C17.533 13.0243 17.4774 12.913 17.4774 12.8574C17.4217 12.8017 17.3661 12.746 17.3104 12.746C17.2547 12.746 17.1434 12.6904 16.9765 12.6904H16.6982V14.0262Z" fill="white"/>
<path d="M18.3672 16.5865L19.2577 12.1895H20.0926L20.9832 16.5865H20.2596L20.0926 15.5846H19.3134L19.1464 16.5865H18.3672ZM19.369 15.028H19.9813L19.703 13.247L19.369 15.028Z" fill="white"/>
<path d="M21.373 16.5865V12.1895H22.4306C22.6532 12.1895 22.8202 12.1894 22.9872 12.2451C23.1541 12.3008 23.2655 12.3564 23.3768 12.4121C23.4881 12.4677 23.5994 12.6347 23.6551 12.746C23.7107 12.913 23.7664 13.08 23.7664 13.3026C23.7664 13.8592 23.5438 14.1375 23.0985 14.1932C23.5994 14.3045 23.8777 14.6384 23.8777 15.3063C23.8777 15.6959 23.7664 16.0299 23.5437 16.2525C23.3211 16.4752 23.0428 16.5865 22.5975 16.5865H21.373ZM22.1523 13.9705H22.3749C22.5976 13.9705 22.7645 13.9149 22.8758 13.8035C22.9872 13.6922 22.9872 13.5253 22.9872 13.3026C22.9872 13.1913 22.9872 13.08 22.9315 13.0243C22.8759 12.9687 22.8758 12.913 22.7645 12.8574C22.7089 12.8017 22.5976 12.8017 22.5419 12.8017C22.4306 12.8017 22.3192 12.8017 22.2079 12.8017H22.1523V13.9705ZM22.1523 16.0299H22.4306C22.6532 16.0299 22.8202 15.9742 22.9315 15.8629C23.0428 15.7516 23.0428 15.5846 23.0428 15.3063C23.0428 15.028 22.9872 14.8611 22.8758 14.7497C22.7645 14.6384 22.5976 14.5828 22.3749 14.5828H22.1523V16.0299Z" fill="white"/>
<path d="M24.3223 16.5865V12.1895H26.159V12.746H25.1571V14.0262H25.992V14.5828H25.1571V16.0299H26.2146V16.5865H24.3223Z" fill="white"/>
<path d="M26.6602 16.5865V12.1895H27.4394V14.0262H28.3299V12.1895H29.1091V16.5865H28.3299V14.5828H27.4394V16.5865H26.6602Z" fill="white"/>
<path d="M30.9472 16.6421C30.7802 16.6421 30.6132 16.6421 30.4462 16.5865C30.2793 16.5308 30.1679 16.4752 30.1123 16.3639C30.001 16.2525 29.9453 16.1969 29.8897 16.0299C29.834 15.9186 29.7783 15.7516 29.7783 15.6403C29.7783 15.4733 29.7227 15.362 29.7227 15.1394V13.6366C29.7227 13.4696 29.7227 13.3026 29.7783 13.1356C29.7783 12.9687 29.834 12.8574 29.8897 12.746C29.9453 12.6347 30.001 12.5234 30.1123 12.4121C30.2236 12.3564 30.3349 12.2451 30.4462 12.2451C30.6132 12.1894 30.7802 12.1895 30.9472 12.1895C31.1698 12.1895 31.3368 12.2451 31.5037 12.3008C31.6707 12.3564 31.782 12.4677 31.8934 12.5791C32.0047 12.6904 32.0603 12.8017 32.116 12.9687C32.1717 13.1356 32.1716 13.3026 32.1716 13.4696V13.8592H31.3924V13.4696C31.3924 13.247 31.3924 13.08 31.3368 13.0243C31.2811 12.8574 31.1698 12.8017 31.0028 12.8017H30.9472C30.8915 12.8017 30.8358 12.8017 30.7802 12.8017C30.7245 12.8017 30.6689 12.8574 30.6689 12.8574C30.6132 12.913 30.6132 12.913 30.6132 12.9687C30.6132 13.0243 30.5575 13.08 30.5575 13.1356C30.5575 13.1913 30.5575 13.247 30.5575 13.3026C30.5575 13.3583 30.5575 13.4139 30.5575 13.5253V15.362C30.5575 15.6403 30.6132 15.8073 30.6689 15.9186C30.7245 16.0299 30.8359 16.0856 31.0028 16.0856C31.0585 16.0856 31.1141 16.0856 31.1698 16.0856C31.2255 16.0856 31.2255 16.0299 31.2811 16.0299C31.3368 16.0299 31.3368 15.9742 31.3368 15.9186C31.3368 15.8629 31.3924 15.8629 31.3924 15.8073C31.3924 15.7516 31.3924 15.7516 31.3924 15.6959C31.3924 15.6403 31.3924 15.5846 31.3924 15.529C31.3924 15.4733 31.3924 15.4177 31.3924 15.362V14.9724H32.1716V15.3063C32.1716 15.4733 32.1717 15.6403 32.116 15.7516C32.116 15.8629 32.0603 16.0299 32.0047 16.1412C31.949 16.2525 31.8933 16.3638 31.782 16.4195C31.6707 16.4752 31.5594 16.5308 31.4481 16.5865C31.2811 16.5865 31.1141 16.6421 30.9472 16.6421Z" fill="white"/>
<path d="M33.0614 16.5865V12.746H32.3379V12.1895H34.6199V12.746H33.8963V16.5865H33.0614Z" fill="white"/>
<path d="M34.9531 16.5865V12.1895H36.0107C36.2333 12.1895 36.4003 12.1894 36.5672 12.2451C36.7342 12.3008 36.8455 12.3564 36.9568 12.4121C37.0681 12.4677 37.1795 12.6347 37.2351 12.746C37.2908 12.913 37.3464 13.08 37.3464 13.3026C37.3464 13.8592 37.1238 14.1375 36.6785 14.1932C37.1795 14.3045 37.4578 14.6384 37.4578 15.3063C37.4578 15.6959 37.3465 16.0299 37.1238 16.2525C36.9012 16.4752 36.6229 16.5865 36.1776 16.5865H34.9531ZM35.7324 13.9705H35.955C36.1776 13.9705 36.3446 13.9149 36.4559 13.8035C36.5672 13.6922 36.5672 13.5253 36.5672 13.3026C36.5672 13.1913 36.5672 13.08 36.5116 13.0243C36.4559 12.9687 36.4559 12.913 36.3446 12.8574C36.2889 12.8017 36.1776 12.8017 36.1219 12.8017C36.0106 12.8017 35.8993 12.8017 35.788 12.8017H35.6767V13.9705H35.7324ZM35.7324 16.0299H36.0107C36.2333 16.0299 36.4002 15.9742 36.5116 15.8629C36.6229 15.7516 36.6229 15.5846 36.6229 15.3063C36.6229 15.028 36.5672 14.8611 36.4559 14.7497C36.3446 14.6384 36.1776 14.5828 35.955 14.5828H35.6767V16.0299H35.7324Z" fill="white"/>
<path d="M39.0722 16.6421C38.6269 16.6421 38.2929 16.5308 38.1259 16.2525C37.9033 16.0299 37.8477 15.6403 37.8477 15.195V13.5809C37.8477 13.3583 37.8476 13.1356 37.9033 12.9687C37.959 12.8017 38.0146 12.6347 38.1259 12.5234C38.2373 12.4121 38.3486 12.3008 38.5156 12.2451C38.6825 12.1894 38.9052 12.1338 39.1278 12.1338C39.5731 12.1338 39.907 12.2451 40.074 12.5234C40.2966 12.746 40.3523 13.1356 40.3523 13.5809V15.195C40.3523 15.4176 40.3523 15.6403 40.2966 15.8073C40.241 15.9742 40.1853 16.1412 40.074 16.2525C39.9627 16.3638 39.8514 16.4752 39.6844 16.5308C39.5174 16.5865 39.3504 16.6421 39.0722 16.6421ZM38.9052 15.9742C38.9608 15.9742 39.0165 16.0299 39.1278 16.0299C39.1835 16.0299 39.2948 16.0299 39.3504 15.9742C39.4061 15.9742 39.4617 15.9186 39.4617 15.8629C39.5174 15.8073 39.5174 15.7516 39.5174 15.6959C39.5174 15.6403 39.5731 15.5846 39.5731 15.529C39.5731 15.4733 39.5731 15.4176 39.5731 15.3063V13.3026C39.5731 13.1913 39.5731 13.1356 39.5731 13.0243C39.5731 12.9687 39.5174 12.913 39.5174 12.8017C39.4618 12.746 39.4618 12.6904 39.4061 12.6347C39.3504 12.5791 39.2391 12.5791 39.1834 12.5791C39.0721 12.5791 39.0165 12.5791 38.9608 12.6347C38.9052 12.6904 38.8495 12.6904 38.8495 12.8017C38.7938 12.8573 38.7939 12.913 38.7939 13.0243C38.7939 13.08 38.7939 13.1913 38.7939 13.3026V15.3063C38.7939 15.362 38.7939 15.4733 38.7939 15.529C38.7939 15.5846 38.7938 15.6403 38.8495 15.6959C38.9052 15.7516 38.9052 15.8073 38.9052 15.8629C38.7938 15.9186 38.8495 15.9742 38.9052 15.9742Z" fill="white"/>
<path d="M43.9694 22.5417H36.4555C36.3998 22.5417 36.3441 22.5974 36.3441 22.6531V25.1577C36.3441 25.2134 36.3998 25.269 36.4555 25.269H39.461L36.1215 28.6085C34.4517 27.2727 32.3367 26.4935 30.0547 26.4935C24.6002 26.4935 20.2031 30.8905 20.2031 36.3451C20.2031 41.3544 23.9323 45.4731 28.7746 46.0853V48.9796H25.8246C25.769 48.9796 25.7133 49.0352 25.7133 49.0909V51.7625C25.7133 51.8182 25.769 51.8738 25.8246 51.8738H28.7746V54.7124C28.7746 54.7681 28.8302 54.8237 28.8859 54.8237H31.5575C31.6132 54.8237 31.6688 54.7681 31.6688 54.7124V51.8738H34.6187C34.6744 51.8738 34.73 51.8182 34.73 51.7625V49.0909C34.73 49.0352 34.6744 48.9796 34.6187 48.9796H31.6131V46.0297C36.2885 45.2505 39.8506 41.1874 39.8506 36.2894C39.8506 34.1744 39.1827 32.2263 38.0695 30.6122L41.3534 27.3284V30.1113C41.3534 30.167 41.4091 30.2226 41.4647 30.2226H43.9694C44.025 30.2226 44.0807 30.167 44.0807 30.1113V22.5974C44.025 22.5974 44.025 22.5417 43.9694 22.5417ZM30.0547 43.525C26.0473 43.525 22.8191 40.2968 22.8191 36.2894C22.8191 32.282 26.0473 29.0538 30.0547 29.0538C34.0621 29.0538 37.2903 32.282 37.2903 36.2894C37.2903 40.2968 34.0065 43.525 30.0547 43.525Z" fill="white"/>
<path d="M34.4523 33.3396H25.6582C25.6025 33.3396 25.5469 33.3953 25.5469 33.4509V35.5659C25.5469 35.6216 25.6025 35.6773 25.6582 35.6773H34.4523C34.5079 35.6773 34.5636 35.6216 34.5636 35.5659V33.4509C34.5636 33.3396 34.5079 33.3396 34.4523 33.3396Z" fill="white"/>
<path d="M34.4523 37.1243H25.6582C25.6025 37.1243 25.5469 37.1799 25.5469 37.2356V39.3506C25.5469 39.4063 25.6025 39.4619 25.6582 39.4619H34.4523C34.5079 39.4619 34.5636 39.4063 34.5636 39.3506V37.2356C34.5636 37.1799 34.5079 37.1243 34.4523 37.1243Z" fill="white"/>
</g>
<mask id="mask1_1702_19487" style="mask-type:luminance" maskUnits="userSpaceOnUse" x="59" y="0" width="60" height="60">
<path d="M59 0H117C118.105 0 119 0.895431 119 2V58C119 59.1046 118.105 60 117 60H59V0Z" fill="white"/>
</mask>
<g mask="url(#mask1_1702_19487)">
<path d="M119 0H59V60H119V0Z" fill="#DD1367"/>
<path d="M64.0464 7.48618C63.9355 7.54163 63.6582 7.65254 63.1591 7.8189C62.771 7.92981 62.4937 8.04071 62.3828 8.09617V6.48804C62.7155 6.37713 63.1037 6.15532 63.5473 5.93351C63.9909 5.65624 64.3237 5.43443 64.49 5.26807H66.2091V16.6914H64.0464V7.48618Z" fill="white"/>
<path d="M68.1494 15.9705C67.6503 15.3606 67.373 14.5842 67.373 13.5861V8.4844C67.373 7.43079 67.6503 6.599 68.1494 6.04448C68.6485 5.43449 69.4248 5.15723 70.4784 5.15723C71.4766 5.15723 72.2529 5.43449 72.752 6.04448C73.251 6.65446 73.5283 7.48625 73.5283 8.4844V13.5861C73.5283 14.5842 73.251 15.3606 72.752 15.9705C72.1974 16.5805 71.4766 16.8578 70.4784 16.8578C69.4248 16.8578 68.7039 16.5805 68.1494 15.9705ZM71.2547 13.5306V8.4844C71.2547 8.04077 71.1993 7.70806 71.0884 7.4308C70.9775 7.15353 70.7557 6.98718 70.423 6.98718C70.0902 6.98718 69.813 7.15353 69.7575 7.4308C69.6466 7.70806 69.5912 8.04077 69.5912 8.4844V13.5306C69.5912 14.4733 69.8684 14.9724 70.423 14.9724C70.9775 14.9724 71.2547 14.4733 71.2547 13.5306Z" fill="white"/>
<path d="M77.9652 10.3695V9.815C78.2979 9.815 78.5197 9.81499 78.6306 9.70409C78.7415 9.59318 78.7415 9.42682 78.6861 9.14956L77.7988 5.2124H78.5197L78.8524 7.04236L79.0188 8.31777L79.1851 7.04236L79.5179 5.2124H80.2942L79.4624 9.20502C79.407 9.48228 79.3515 9.70409 79.2961 9.815C79.2406 9.92591 79.1852 10.0368 79.0743 10.1477C78.9633 10.2586 78.8524 10.3141 78.6306 10.3695C78.5197 10.3695 78.2979 10.3695 77.9652 10.3695Z" fill="white"/>
<path d="M80.627 9.59317L80.7379 5.2124H81.5142L82.1796 8.15141L82.8451 5.2124H83.6214L83.6769 9.59317H83.1223L83.0669 6.76509L82.4015 9.59317H81.9578L81.2924 6.76509L81.2369 9.59317H80.627Z" fill="white"/>
<path d="M84.2871 9.59317V5.2124H86.117V5.82239H85.1189V7.04236H85.8952V7.59689H85.1189V9.03865H86.1725V9.59317H84.2871Z" fill="white"/>
<path d="M86.5605 9.59317V5.2124H87.3923V7.04236H88.2796V5.2124H89.0559V9.59317H88.2796V7.65232H87.3923V9.59317H86.5605Z" fill="white"/>
<path d="M89.7207 9.59317V5.2124H90.497V7.04236H90.6634C90.8852 7.04236 91.107 7.04234 91.2734 7.0978C91.4398 7.15325 91.6061 7.20872 91.717 7.31962C91.8279 7.43053 91.9388 7.54142 91.9943 7.70778C92.0497 7.87414 92.1052 8.09595 92.1052 8.31777C92.1052 8.53958 92.0497 8.76139 91.9943 8.92775C91.9388 9.09411 91.8279 9.205 91.717 9.31591C91.6061 9.42682 91.4398 9.48228 91.2734 9.53774C91.107 9.59319 90.8852 9.59317 90.6634 9.59317H89.7207ZM90.497 9.03865H90.608C90.7189 9.03865 90.8298 9.03866 90.8852 8.98321C90.9407 8.98321 91.0516 8.92775 91.107 8.87229C91.1625 8.81684 91.2179 8.76139 91.2179 8.65049C91.2179 8.53958 91.2734 8.42867 91.2734 8.26231C91.2734 8.0405 91.2179 7.81869 91.107 7.70778C90.9961 7.59688 90.8298 7.54143 90.608 7.54143H90.497V9.03865Z" fill="white"/>
<path d="M92.4941 9.59317V5.2124H93.2705V9.03865H93.9359V5.2124H94.7123V9.03865H95.3222V5.2124H96.0986V9.59317H92.4941Z" fill="white"/>
<path d="M96.707 9.59317V5.2124H98.537V5.82239H97.4834V7.04236H98.3152V7.59689H97.4834V9.03865H98.537V9.59317H96.707Z" fill="white"/>
<path d="M98.9824 9.59317V5.2124H99.7588V7.04236H100.701V5.2124H101.478V9.59317H100.701V7.65232H99.7588V9.59317H98.9824Z" fill="white"/>
<path d="M102.086 9.59317V5.2124H102.751V7.98505L103.971 5.2124H104.526V9.59317H103.805V6.82053L102.64 9.59317H102.086Z" fill="white"/>
<path d="M105.137 9.59317V5.2124H106.967V5.82239H105.913V7.04236H106.745V7.59689H105.913V9.03865H106.967V9.59317H105.137Z" fill="white"/>
<path d="M78.0195 16.7468V12.366H78.7959V14.1959H79.6831V12.366H80.5149V16.7468H79.6831V14.7504H78.7959V16.7468H78.0195Z" fill="white"/>
<path d="M81.0703 16.7468V12.366H82.9003V12.9205H81.8467V14.1959H82.6785V14.7504H81.8467V16.1922H82.9003V16.7468H81.0703Z" fill="white"/>
<path d="M83.2324 16.7468V12.366H84.5078C85.2287 12.366 85.6169 12.7541 85.6169 13.5859C85.6169 13.9741 85.506 14.3068 85.2842 14.4732C85.0624 14.6395 84.7851 14.7504 84.3969 14.7504H84.0088V16.6913H83.2324V16.7468ZM84.0642 14.2514H84.3415C84.5633 14.2514 84.7296 14.1959 84.7851 14.1405C84.8405 14.0296 84.896 13.8632 84.896 13.6414C84.896 13.5305 84.896 13.4196 84.896 13.3087C84.896 13.2532 84.8406 13.1423 84.8406 13.0869C84.7851 13.0314 84.7296 12.976 84.6742 12.976C84.6187 12.976 84.5078 12.9205 84.3415 12.9205H84.0642V14.2514Z" fill="white"/>
<path d="M85.6172 16.7468L86.5044 12.366H87.3362L88.2235 16.7468H87.5026L87.3362 15.7486H86.5599L86.3935 16.7468H85.6172ZM86.6708 15.1941H87.2808L87.0035 13.4196L86.6708 15.1941Z" fill="white"/>
<path d="M88.5566 16.7468V12.366H89.6103C89.8321 12.366 89.9984 12.366 90.1648 12.4214C90.3311 12.4769 90.442 12.5323 90.5529 12.5878C90.6639 12.6987 90.7748 12.8096 90.8302 12.9205C90.8857 13.0869 90.9411 13.2532 90.9411 13.475C90.9411 14.0296 90.7193 14.3068 90.2757 14.3623C90.7748 14.4732 91.052 14.8059 91.052 15.4713C91.052 15.8595 90.9411 16.1922 90.7193 16.414C90.4975 16.6358 90.2202 16.7468 89.7766 16.7468H88.5566ZM89.333 14.1405H89.5548C89.7766 14.1405 89.943 14.085 90.0539 13.9741C90.1648 13.8632 90.1648 13.6968 90.1648 13.475C90.1648 13.3641 90.1648 13.2532 90.1093 13.1978C90.0539 13.1423 90.0539 13.0869 89.943 13.0314C89.8875 12.976 89.7766 12.976 89.7212 12.976C89.6102 12.976 89.4993 12.976 89.3884 12.976H89.2775V14.1405H89.333ZM89.333 16.1922H89.6103C89.8321 16.1922 89.9984 16.1368 90.1093 16.0259C90.2202 15.915 90.2202 15.7486 90.2202 15.4713C90.2202 15.1941 90.1648 15.0277 90.0539 14.9168C89.943 14.8059 89.7766 14.7504 89.5548 14.7504H89.2775V16.1922H89.333Z" fill="white"/>
<path d="M91.4395 16.7468V12.366H93.2694V12.9205H92.2712V14.1959H93.0476V14.7504H92.2712V16.1922H93.2694V16.7468H91.4395Z" fill="white"/>
<path d="M93.6582 16.7468V12.366H94.4345V14.1959H95.3218V12.366H96.1536V16.7468H95.3218V14.7504H94.4345V16.7468H93.6582Z" fill="white"/>
<path d="M97.8723 16.8022C97.706 16.8022 97.5396 16.8022 97.3732 16.7468C97.2069 16.6913 97.096 16.6358 97.0405 16.5249C96.9296 16.414 96.8742 16.3586 96.8187 16.1922C96.7633 16.0813 96.7078 15.915 96.7078 15.8041C96.7078 15.6377 96.6523 15.5268 96.6523 15.305V13.8077C96.6523 13.6414 96.6523 13.475 96.7078 13.3087C96.7078 13.1423 96.7633 13.0314 96.8187 12.9205C96.8742 12.8096 96.9296 12.6987 97.0405 12.5878C97.1514 12.5323 97.2623 12.4214 97.3732 12.4214C97.5396 12.366 97.706 12.366 97.8723 12.366C98.0941 12.366 98.2605 12.4214 98.4268 12.4769C98.5932 12.5323 98.7041 12.6432 98.815 12.7541C98.9259 12.865 98.9814 12.976 99.0368 13.1423C99.0923 13.3087 99.0923 13.475 99.0923 13.6414V14.0296H98.3159V13.5859C98.3159 13.3641 98.3159 13.1978 98.2605 13.1423C98.205 12.976 98.0941 12.9205 97.9278 12.9205H97.8723C97.8169 12.9205 97.7614 12.9205 97.7059 12.9205C97.6505 12.9205 97.595 12.976 97.595 12.976C97.5396 13.0314 97.5396 13.0314 97.5396 13.0869C97.5396 13.1423 97.4841 13.1978 97.4841 13.2532C97.4841 13.3087 97.4841 13.3641 97.4841 13.4196C97.4841 13.475 97.4841 13.5305 97.4841 13.6414V15.4713C97.4841 15.7486 97.5396 15.915 97.595 16.0259C97.6505 16.1368 97.7614 16.1922 97.9278 16.1922C97.9832 16.1922 98.0387 16.1922 98.0941 16.1922C98.1496 16.1922 98.1496 16.1368 98.205 16.1368C98.2605 16.1368 98.2605 16.0813 98.2605 16.0259C98.2605 15.9704 98.3159 15.9704 98.3159 15.915C98.3159 15.8595 98.3159 15.8595 98.3159 15.8041C98.3159 15.7486 98.3159 15.6932 98.3159 15.6377C98.3159 15.5822 98.3159 15.5268 98.3159 15.4713V15.0832H99.0923V15.4159C99.0923 15.5822 99.0923 15.7486 99.0368 15.8595C99.0368 15.9704 98.9814 16.1368 98.9259 16.2477C98.8705 16.3586 98.815 16.4695 98.7041 16.5249C98.5932 16.5804 98.4823 16.6358 98.3714 16.6913C98.205 16.8022 98.0387 16.8022 97.8723 16.8022Z" fill="white"/>
<path d="M99.924 16.7468V12.976H99.2031V12.366H101.421V12.976H100.7V16.7468H99.924Z" fill="white"/>
<path d="M101.643 16.7468V12.366H102.696C102.918 12.366 103.084 12.366 103.251 12.4214C103.417 12.4769 103.528 12.5323 103.639 12.5878C103.75 12.6987 103.861 12.8096 103.916 12.9205C103.972 13.0869 104.027 13.2532 104.027 13.475C104.027 14.0296 103.805 14.3068 103.362 14.3623C103.861 14.4732 104.138 14.8059 104.138 15.4713C104.138 15.8595 104.027 16.1922 103.805 16.414C103.583 16.6358 103.306 16.7468 102.918 16.7468H101.643ZM102.474 14.1405H102.696C102.918 14.1405 103.084 14.085 103.195 13.9741C103.306 13.8632 103.306 13.6968 103.306 13.475C103.306 13.3641 103.306 13.2532 103.251 13.1978C103.195 13.1423 103.195 13.0869 103.084 13.0314C103.029 12.976 102.918 12.976 102.863 12.976C102.752 12.976 102.641 12.976 102.53 12.976H102.419V14.1405H102.474ZM102.474 16.1922H102.752C102.973 16.1922 103.14 16.1368 103.251 16.0259C103.362 15.915 103.362 15.7486 103.362 15.4713C103.362 15.1941 103.306 15.0277 103.195 14.9168C103.084 14.8059 102.918 14.7504 102.696 14.7504H102.419V16.1922H102.474Z" fill="white"/>
<path d="M104.305 16.7468L105.192 12.366H106.024L106.911 16.7468H106.19L106.024 15.7486H105.247L105.081 16.7468H104.305ZM105.358 15.1941H105.968L105.691 13.4196L105.358 15.1941Z" fill="white"/>
<path d="M94.5445 39.3716H83.5093C83.4539 39.3716 83.3984 39.427 83.3984 39.4825V42.8097C83.3984 42.8651 83.4539 42.9206 83.5093 42.9206H94.5445C94.5999 42.9206 94.6554 42.8651 94.6554 42.8097V39.4825C94.7108 39.427 94.6554 39.3716 94.5445 39.3716Z" fill="white"/>
<path d="M94.5445 32.3291H83.5093C83.4539 32.3291 83.3984 32.3846 83.3984 32.44V35.7672C83.3984 35.8226 83.4539 35.8781 83.5093 35.8781H94.5445C94.5999 35.8781 94.6554 35.8226 94.6554 35.7672V32.44C94.7108 32.3846 94.6554 32.3291 94.5445 32.3291Z" fill="white"/>
<path d="M94.4351 27.2828L89.1116 21.9593C89.0562 21.9039 89.0007 21.9039 89.0007 21.9593L83.6773 27.2828C83.6218 27.3382 83.6773 27.4491 83.7327 27.4491H94.3242C94.4351 27.4491 94.4906 27.3382 94.4351 27.2828Z" fill="white"/>
<path d="M99.3695 43.0316L104.693 37.7081C104.748 37.6526 104.748 37.5972 104.693 37.5972L99.3695 32.2737C99.314 32.2183 99.2031 32.2737 99.2031 32.3291V42.9761C99.2586 43.0316 99.314 43.087 99.3695 43.0316Z" fill="white"/>
<path d="M83.6761 48.0223L88.9995 53.3458C89.055 53.4013 89.1104 53.4013 89.1104 53.3458L94.4339 48.0223C94.4894 47.9669 94.4339 47.856 94.3784 47.856H83.787C83.6761 47.856 83.6206 47.9669 83.6761 48.0223Z" fill="white"/>
<path d="M78.6854 32.2735L73.3619 37.5969C73.3064 37.6524 73.3064 37.7078 73.3619 37.7078L78.6854 43.0313C78.7408 43.0868 78.8517 43.0313 78.8517 42.9759V32.3844C78.8517 32.2735 78.7408 32.218 78.6854 32.2735Z" fill="white"/>
</g>
</g>
<defs>
<clipPath id="clip0_1702_19487">
<rect width="119" height="60" fill="white"/>
</clipPath>
</defs>
</svg>
