<svg width="120" height="120" viewBox="0 0 120 120" fill="none" xmlns="http://www.w3.org/2000/svg">
<g clip-path="url(#clip0_501_30739)">
<path d="M120 0H0V120H120V0Z" fill="#CD8B2A"/>
<path d="M10.268 14.9692C10.0206 15.093 9.40204 15.3404 8.41235 15.7115C7.67008 15.9589 7.17522 16.2064 6.9278 16.2064V12.9899C7.54635 12.7424 8.28857 12.3713 9.27827 11.8765C10.1442 11.3816 10.8866 10.8868 11.2577 10.5156H14.7216V33.4022H10.3917V14.9692H10.268Z" fill="white"/>
<path d="M17.0723 30.1854L22.6393 21.6494L23.0104 21.1545C23.7527 20.0411 24.2475 19.1751 24.6187 18.4329C24.9898 17.6906 25.1135 16.9483 25.1135 16.0824C25.1135 15.3401 24.9898 14.8453 24.7423 14.3504C24.4949 13.9793 24.0001 13.7318 23.5052 13.7318C22.763 13.7318 22.1444 13.9792 21.897 14.5978C21.6496 15.2164 21.4022 16.0823 21.4022 17.072V18.0617H17.196V16.9484C17.196 14.8453 17.6908 13.1133 18.6805 11.8762C19.6702 10.6391 21.2785 10.0205 23.3816 10.0205C25.3609 10.0205 26.8454 10.5153 27.8351 11.6287C28.8248 12.6184 29.3197 14.103 29.3197 16.0824C29.3197 16.9483 29.196 17.8143 28.9486 18.5566C28.7011 19.2989 28.33 20.0411 27.9589 20.6597C27.5878 21.2782 27.0929 22.1442 26.3507 23.2576L21.897 29.8143H28.7011V33.2782H16.9485V30.1854H17.0723Z" fill="white"/>
<path d="M39.835 14.1029H40.2062C40.701 14.1029 41.0722 13.9793 41.1959 13.8555C41.4433 13.6081 41.4433 13.3607 41.4433 12.8658C41.4433 12.371 41.3196 12.1236 41.1959 11.8762C41.0722 11.6287 40.701 11.6287 40.2062 11.6287H39.7114V14.1029H39.835ZM38.2268 19.1751V10.3916H40.2062C40.701 10.3916 41.0721 10.3916 41.4433 10.5153C41.8144 10.639 42.0618 10.7627 42.3093 10.8864C42.5567 11.0102 42.6804 11.2576 42.8041 11.6287C42.9279 11.8761 42.9278 12.2473 42.9278 12.7421C42.9278 13.237 42.8041 13.7318 42.6804 14.1029C42.5567 14.4741 42.1856 14.7215 41.8145 14.8452L43.0516 19.1751H41.4433L40.4536 15.2163H39.7114V19.1751H38.2268Z" fill="white"/>
<path d="M43.7938 19.1751V10.3916H47.5052V11.505H45.4021V14.1029H47.134V15.2163H45.4021V18.0617H47.5052V19.1751H43.7938Z" fill="white"/>
<path d="M50.3506 19.2985C48.8661 19.2985 48.0001 18.4325 47.8764 16.5769L49.2373 16.3295C49.2373 17.4429 49.6084 18.0614 50.2269 18.0614C50.4744 18.0614 50.598 17.9377 50.7217 17.814C50.8455 17.6903 50.8455 17.4428 50.8455 17.1954C50.8455 16.948 50.8455 16.7006 50.7217 16.5769C50.598 16.3294 50.4744 16.2057 50.4744 16.082C50.3507 15.9583 50.2269 15.8346 49.9795 15.5872L48.8661 14.5975C48.4949 14.3501 48.2476 13.9789 48.1238 13.7315C48.0001 13.3604 47.8764 12.9893 47.8764 12.4944C47.8764 11.8758 48.1238 11.2573 48.495 10.8861C48.8661 10.515 49.4846 10.2676 50.1032 10.2676C50.4743 10.2676 50.7218 10.2676 50.9692 10.3913C51.2166 10.515 51.464 10.6387 51.5877 10.7625C51.7115 10.8862 51.8351 11.1336 51.9589 11.2573C52.0826 11.5047 52.2063 11.6284 52.2063 11.8758C52.2063 12.1233 52.3301 12.3707 52.3301 12.6181L50.9692 12.8655C50.9692 12.7418 50.9692 12.4944 50.9692 12.3707C50.9692 12.247 50.9692 12.1233 50.8455 11.9996C50.7218 11.8759 50.7217 11.7521 50.7217 11.6284C50.598 11.5047 50.5981 11.5047 50.4744 11.381C50.3507 11.381 50.2269 11.2573 50.1032 11.381C49.8558 11.381 49.7321 11.5047 49.6084 11.6284C49.4847 11.7521 49.361 11.9995 49.361 12.247C49.361 12.4944 49.3609 12.7418 49.4846 12.9892C49.6083 13.113 49.7321 13.3604 49.9795 13.6078L51.0929 14.5975C51.3404 14.7212 51.464 14.9686 51.5877 15.0924C51.7115 15.2161 51.8351 15.4635 51.9589 15.5872C52.0826 15.8346 52.2063 16.082 52.2063 16.3295C52.33 16.5769 52.3301 16.8243 52.3301 17.0717C52.3301 17.6903 52.0826 18.1851 51.7115 18.68C51.4641 19.0511 50.9692 19.2985 50.3506 19.2985Z" fill="white"/>
<path d="M54.6806 14.1029H55.1755C55.6703 14.1029 55.9178 13.9793 56.0415 13.8555C56.1652 13.7318 56.2888 13.3607 56.2888 12.8658C56.2888 12.6184 56.2888 12.371 56.2888 12.2473C56.2888 12.1236 56.1651 11.9999 56.1651 11.8762C56.0414 11.7524 55.9177 11.6287 55.794 11.6287C55.6703 11.6287 55.4229 11.505 55.1755 11.505H54.6806V14.1029ZM53.196 19.1751V10.3916H55.6703C57.1548 10.3916 57.8971 11.2576 57.8971 12.8658C57.8971 13.7318 57.6497 14.2266 57.2786 14.5978C56.9074 14.9689 56.2889 15.2163 55.5466 15.2163H54.6806V19.1751H53.196Z" fill="white"/>
<path d="M60.3713 18.0614C60.495 18.0614 60.6187 18.1851 60.7425 18.1851C60.8662 18.1851 60.9899 18.1851 61.1136 18.0614C61.2373 18.0614 61.361 17.9377 61.361 17.9377C61.4847 17.814 61.4847 17.814 61.4847 17.6903C61.4847 17.5665 61.4847 17.4429 61.6084 17.3191C61.6084 17.1954 61.6084 17.0717 61.6084 16.948V12.9892C61.6084 12.7418 61.6084 12.6181 61.6084 12.4944C61.6084 12.3707 61.4847 12.247 61.4847 12.1232C61.4847 11.9995 61.361 11.8758 61.2373 11.8758C61.1135 11.8758 60.9899 11.7521 60.7425 11.7521C60.495 11.7521 60.3713 11.7521 60.2476 11.8758C60.1239 11.8758 60.0001 11.9995 60.0001 12.1232C60.0001 12.247 59.8765 12.3707 59.8765 12.4944C59.8765 12.6181 59.8765 12.8655 59.8765 12.9892V16.948C59.8765 17.0717 59.8765 17.1954 59.8765 17.3191C59.8765 17.4429 59.8764 17.5665 60.0001 17.6903C60.0001 17.814 60.1239 17.9377 60.1239 17.9377C60.2476 17.9377 60.2476 17.9377 60.3713 18.0614ZM60.7425 19.2985C59.8765 19.2985 59.2579 19.0511 58.763 18.5563C58.3919 18.0614 58.1445 17.3191 58.1445 16.4531V13.2367C58.1445 12.7418 58.1445 12.3707 58.2682 11.9996C58.3919 11.6284 58.5156 11.381 58.6393 11.1336C58.8868 10.8861 59.1342 10.6387 59.3816 10.515C59.7527 10.3913 60.1239 10.2676 60.6187 10.2676C61.4847 10.2676 62.1033 10.515 62.5981 11.0099C62.9693 11.5047 63.2167 12.247 63.2167 13.113V16.3295C63.2167 16.8243 63.2166 17.1954 63.0929 17.5666C62.9692 17.9377 62.8455 18.1851 62.7218 18.4325C62.4744 18.68 62.227 18.9274 61.9796 19.0511C61.6084 19.1748 61.2373 19.2985 60.7425 19.2985Z" fill="white"/>
<path d="M64.2062 19.1751V10.3916H65.1959L67.4227 15.3401V10.3916H68.6598V19.1751H67.6701L65.567 13.9792V19.1751H64.2062Z" fill="white"/>
<path d="M71.8763 19.2985C70.3917 19.2985 69.5257 18.4325 69.402 16.5769L70.7628 16.3295C70.7628 17.4429 71.134 18.0614 71.7525 18.0614C71.9999 18.0614 72.1237 17.9377 72.2474 17.814C72.3711 17.6903 72.3711 17.4428 72.3711 17.1954C72.3711 16.948 72.3711 16.7006 72.2474 16.5769C72.1237 16.3294 71.9999 16.2057 71.9999 16.082C71.8762 15.9583 71.7526 15.8346 71.5051 15.5872L70.3917 14.5975C70.0206 14.3501 69.7732 13.9789 69.6495 13.7315C69.5258 13.3604 69.402 12.9893 69.402 12.4944C69.402 11.8758 69.6495 11.2573 70.0206 10.8861C70.3917 10.515 71.0103 10.2676 71.6288 10.2676C72 10.2676 72.2474 10.2676 72.4948 10.3913C72.7422 10.515 72.9897 10.6387 73.1134 10.7625C73.2371 10.8862 73.3608 11.1336 73.4845 11.2573C73.6082 11.5047 73.7319 11.6284 73.7319 11.8758C73.7319 12.1233 73.8556 12.3707 73.8556 12.6181L72.4948 12.8655C72.4948 12.7418 72.4948 12.4944 72.4948 12.3707C72.4948 12.247 72.4948 12.1233 72.3711 11.9996C72.2474 11.8759 72.2474 11.7521 72.2474 11.6284C72.1237 11.5047 72.1237 11.5047 71.9999 11.381C71.8762 11.381 71.7525 11.2573 71.6288 11.381C71.3814 11.381 71.2577 11.5047 71.134 11.6284C71.0102 11.7521 70.8866 11.9995 70.8866 12.247C70.8866 12.4944 70.8866 12.7418 71.0103 12.9892C71.134 13.113 71.2577 13.3604 71.5051 13.6078L72.6185 14.5975C72.8659 14.7212 72.9897 14.9686 73.1134 15.0924C73.2371 15.2161 73.3608 15.4635 73.4845 15.5872C73.6082 15.8346 73.7319 16.082 73.7319 16.3295C73.8556 16.5769 73.8556 16.8243 73.8556 17.0717C73.8556 17.6903 73.6082 18.1851 73.2371 18.68C73.1133 19.0511 72.6185 19.2985 71.8763 19.2985Z" fill="white"/>
<path d="M76.3299 10.3916H74.7217V19.1751H76.3299V10.3916Z" fill="white"/>
<path d="M78.9279 18.0617H79.5464C80.0413 18.0617 80.2887 17.938 80.5361 17.6906C80.6598 17.4431 80.7836 17.072 80.7836 16.5772C80.7836 16.0823 80.6598 15.7112 80.5361 15.4638C80.2887 15.2164 80.0413 15.0927 79.5464 15.0927H79.0516V18.0617H78.9279ZM78.9279 13.9792H79.4227C79.9175 13.9792 80.1649 13.8555 80.4124 13.7318C80.5361 13.4844 80.6598 13.237 80.6598 12.7421C80.6598 12.4947 80.6598 12.2473 80.5361 12.1236C80.5361 11.9998 80.4124 11.8761 80.2887 11.7524C80.165 11.6287 80.0412 11.6287 79.7938 11.6287C79.6701 11.6287 79.4227 11.6287 79.1753 11.6287H78.9279V13.9792ZM77.3196 19.1751V10.3916H79.4227C79.7938 10.3916 80.165 10.3916 80.5361 10.5153C80.7835 10.639 81.1546 10.7627 81.2784 10.8864C81.5258 11.0102 81.6495 11.2576 81.7732 11.6287C81.8969 11.8761 81.8969 12.2473 81.8969 12.7421C81.8969 13.8555 81.5258 14.4741 80.6598 14.5978C81.1546 14.7215 81.5258 14.9689 81.7732 15.2163C82.0207 15.5875 82.1444 16.0823 82.1444 16.7009C82.1444 17.5669 81.8969 18.1854 81.5258 18.5566C81.1547 18.9277 80.5361 19.1751 79.6701 19.1751H77.3196Z" fill="white"/>
<path d="M83.0103 19.1751V10.3916H84.6185V18.0617H86.7216V19.1751H83.0103Z" fill="white"/>
<path d="M87.2165 19.1751V10.3916H90.9278V11.505H88.8248V14.1029H90.433V15.2163H88.8248V18.0617H90.9278V19.1751H87.2165Z" fill="white"/>
<path d="M40.5775 33.5251C40.2063 33.5251 39.8351 33.5251 39.5877 33.4014C39.3403 33.2777 39.0929 33.154 38.8455 33.0303C38.5981 32.9065 38.4743 32.6591 38.3506 32.4117C38.2269 32.1643 38.1032 31.9168 38.1032 31.5457C38.1032 31.2983 37.9795 30.9272 37.9795 30.556V27.4632C37.9795 27.0921 37.9795 26.721 38.1032 26.4735C38.1032 26.2261 38.2269 25.855 38.3506 25.6076C38.4743 25.3602 38.5981 25.1127 38.8455 24.989C39.0929 24.8653 39.2166 24.7416 39.5877 24.6179C39.9589 24.4941 40.2063 24.4941 40.5775 24.4941C41.0723 24.4941 41.4434 24.4941 41.6908 24.6179C41.9383 24.7416 42.1857 24.8653 42.4331 25.1127C42.5569 25.3601 42.6806 25.6076 42.8043 25.855C42.928 26.1024 42.9279 26.4735 42.9279 26.9684V27.7106H41.3197V26.9684C41.3197 26.4735 41.3197 26.2261 41.196 26.1024C41.0723 25.855 40.8249 25.6076 40.5775 25.6076H40.4537C40.33 25.6076 40.2063 25.6076 40.0826 25.6076C39.9589 25.6076 39.9589 25.7313 39.8352 25.7313C39.7115 25.855 39.7115 25.855 39.7115 25.9787C39.7115 26.1024 39.5877 26.1024 39.5877 26.2261C39.5877 26.3498 39.5877 26.4735 39.5877 26.5972C39.5877 26.721 39.5877 26.8447 39.5877 26.9684V30.6797C39.5877 31.1746 39.7115 31.5457 39.8352 31.7931C39.9589 32.0406 40.2063 32.1643 40.5775 32.1643C40.7012 32.1643 40.8248 32.1643 40.8248 32.1643C40.9485 32.1643 40.9486 32.1643 41.0723 32.0405L41.196 31.9168C41.196 31.7931 41.3197 31.7931 41.3197 31.6694C41.3197 31.5457 41.3197 31.5457 41.3197 31.422C41.3197 31.2983 41.3197 31.1746 41.3197 31.1746C41.3197 31.0509 41.3197 30.9271 41.3197 30.8034V30.0612H42.8043V30.8034C42.8043 31.1746 42.8042 31.422 42.6805 31.6694C42.6805 31.9168 42.5569 32.1643 42.4331 32.4117C42.3094 32.6591 42.1857 32.7828 42.062 33.0303C41.9382 33.154 41.6908 33.2777 41.4434 33.4014C41.196 33.5251 40.9486 33.5251 40.5775 33.5251Z" fill="white"/>
<path d="M45.6496 32.288C45.7733 32.288 45.897 32.4117 46.0207 32.4117C46.1444 32.4117 46.2681 32.4117 46.3918 32.288C46.5155 32.288 46.6393 32.1643 46.6393 32.1643C46.763 32.0405 46.763 32.0405 46.763 31.9168C46.763 31.7931 46.763 31.6694 46.8867 31.5457C46.8867 31.422 46.8867 31.2983 46.8867 31.1746V27.2158C46.8867 26.9684 46.8867 26.8447 46.8867 26.721C46.8867 26.5973 46.763 26.4735 46.763 26.3498C46.763 26.2261 46.6393 26.1024 46.5156 26.1024C46.3919 26.1024 46.2681 25.9787 46.0207 25.9787C45.7733 25.9787 45.6496 25.9787 45.5259 26.1024C45.4022 26.1024 45.2785 26.2261 45.2785 26.3498C45.2785 26.4735 45.1547 26.5973 45.1547 26.721C45.1547 26.8447 45.1547 27.0921 45.1547 27.2158V31.1746C45.1547 31.2983 45.1547 31.422 45.1547 31.5457C45.1547 31.6694 45.1547 31.7931 45.2785 31.9168C45.2785 32.0405 45.4021 32.1643 45.4021 32.1643C45.4021 32.1643 45.5259 32.288 45.6496 32.288ZM46.0207 33.5251C45.1547 33.5251 44.5362 33.2777 44.0413 32.7828C43.6702 32.288 43.4228 31.5457 43.4228 30.6797V27.4632C43.4228 26.9684 43.4228 26.5973 43.5465 26.2261C43.6702 25.855 43.7939 25.6076 43.9176 25.3601C44.165 25.1127 44.4125 24.8653 44.6599 24.7416C45.031 24.6179 45.4022 24.4941 45.897 24.4941C46.763 24.4941 47.3815 24.7416 47.8764 25.2364C48.2475 25.7313 48.4949 26.4735 48.4949 27.3395V30.556C48.4949 31.0509 48.495 31.422 48.3712 31.7931C48.2475 32.1643 48.1238 32.4117 48.0001 32.6591C47.7527 32.9065 47.5052 33.1539 47.2578 33.2777C46.8867 33.5251 46.5155 33.5251 46.0207 33.5251Z" fill="white"/>
<path d="M49.3608 33.402V24.7422H50.4743L52.7011 29.6906V24.7422H53.9382V33.402H52.9485L50.7216 28.2061V33.402H49.3608Z" fill="white"/>
<path d="M57.1547 33.5251C55.6702 33.5251 54.8042 32.6591 54.6805 30.8034L56.0414 30.556C56.0414 31.6694 56.4125 32.288 57.031 32.288C57.2784 32.288 57.4021 32.1643 57.5258 32.0405C57.6495 31.9168 57.6496 31.6694 57.6496 31.422C57.6496 31.1746 57.6495 30.9271 57.5258 30.8034C57.4021 30.556 57.2785 30.4323 57.2785 30.3086C57.1548 30.1849 57.031 30.0612 56.7836 29.8138L55.6702 28.824C55.299 28.5766 55.0516 28.2055 54.9279 27.9581C54.8042 27.5869 54.6805 27.2158 54.6805 26.721C54.6805 26.1024 54.9279 25.4838 55.299 25.1127C55.6702 24.7416 56.2887 24.4941 56.9073 24.4941C57.2784 24.4941 57.5258 24.4941 57.7733 24.6179C58.0207 24.7416 58.2681 24.8653 58.3918 24.989C58.5155 25.1127 58.6392 25.3601 58.7629 25.4839C58.8866 25.7313 59.0104 25.855 59.0104 26.1024C59.0104 26.3498 59.1341 26.5973 59.1341 26.8447L57.7733 27.0921C57.7733 26.9684 57.7733 26.721 57.7733 26.5972C57.7733 26.4735 57.7733 26.3498 57.6496 26.2261C57.5259 26.1024 57.5258 25.9787 57.5258 25.855C57.5258 25.7313 57.4022 25.7313 57.2785 25.6076C57.1548 25.6076 57.031 25.4839 56.9073 25.6076C56.6598 25.6076 56.5362 25.7313 56.4125 25.855C56.2888 25.9787 56.165 26.2261 56.165 26.4735C56.165 26.721 56.165 26.9684 56.2887 27.2158C56.4124 27.3395 56.5362 27.5869 56.7836 27.8344L57.897 28.824C58.1444 28.9477 58.2681 29.1952 58.3918 29.3189C58.5155 29.4426 58.6392 29.69 58.7629 29.8138C58.8866 30.0612 59.0104 30.3086 59.0104 30.556C59.1341 30.8034 59.1341 31.0508 59.1341 31.2983C59.1341 31.9168 58.8867 32.4117 58.5156 32.9065C58.3919 33.4014 57.7733 33.5251 57.1547 33.5251Z" fill="white"/>
<path d="M62.3507 33.5257C61.9796 33.5257 61.6085 33.5257 61.361 33.402C61.1136 33.2783 60.8661 33.1546 60.6187 33.0309C60.3713 32.9072 60.2476 32.6597 60.1239 32.4123C60.0002 32.1649 59.8765 31.9174 59.8765 31.5463C59.8765 31.2989 59.7528 30.9278 59.7528 30.5566V24.7422H61.2373V30.6803C61.2373 30.9277 61.2373 31.0515 61.2373 31.1752C61.2373 31.2989 61.2373 31.4226 61.361 31.67C61.361 31.7937 61.4847 31.9174 61.4847 32.0411C61.6084 32.1649 61.6084 32.1649 61.7322 32.2886C61.8559 32.4123 61.9796 32.4123 62.1033 32.4123C62.227 32.4123 62.3507 32.4123 62.4744 32.2886C62.5981 32.1649 62.7218 32.1649 62.7218 32.0411C62.7218 31.9174 62.8456 31.7937 62.8456 31.67C62.8456 31.5463 62.8456 31.4226 62.9693 31.1752C62.9693 31.0515 62.9693 30.804 62.9693 30.6803V24.7422H64.4538V30.5566C64.4538 30.9278 64.4538 31.2989 64.3301 31.5463C64.3301 31.7937 64.2064 32.1649 64.0827 32.4123C63.959 32.6597 63.8353 32.9072 63.5878 33.0309C63.3404 33.1546 63.2167 33.2783 62.8456 33.402C63.093 33.5257 62.7218 33.5257 62.3507 33.5257Z" fill="white"/>
<path d="M65.6907 33.402L65.8144 24.7422H67.5463L68.7835 30.804L70.0206 24.7422H71.6288L71.7525 33.402H70.6391L70.5154 27.4639L69.2783 33.402H68.2886L67.0515 27.4639L66.9278 33.402H65.6907Z" fill="white"/>
<path d="M74.3505 28.4532H74.8453C75.3402 28.4532 75.5876 28.3295 75.7113 28.2058C75.835 28.0821 75.9588 27.711 75.9588 27.2161C75.9588 26.9687 75.9588 26.7213 75.9588 26.5976C75.9588 26.4738 75.8351 26.3501 75.8351 26.2264C75.7114 26.1027 75.5876 25.979 75.4639 25.979C75.3402 25.979 75.0928 25.8553 74.8453 25.8553H74.3505V28.4532ZM72.7423 33.4017V24.6182H75.2165C76.7011 24.6182 77.4433 25.4841 77.4433 27.0924C77.4433 27.9584 77.1959 28.4532 76.8248 28.8243C76.4536 29.1955 75.835 29.4429 75.0928 29.4429H74.2268V33.4017H72.7423Z" fill="white"/>
<path d="M78.9278 33.402V25.8556H77.4432V24.7422H81.8968V25.8556H80.536V33.402H78.9278Z" fill="white"/>
<path d="M84 24.7422H82.3917V33.5257H84V24.7422Z" fill="white"/>
<path d="M86.9691 32.288C87.0928 32.288 87.2165 32.4117 87.3402 32.4117C87.4639 32.4117 87.5876 32.4117 87.7113 32.288C87.8351 32.288 87.9588 32.1643 87.9588 32.1643C88.0825 32.0405 88.0825 32.0405 88.0825 31.9168C88.0825 31.7931 88.0825 31.6694 88.2062 31.5457C88.2062 31.422 88.2062 31.2983 88.2062 31.1746V27.2158C88.2062 26.9684 88.2062 26.8447 88.2062 26.721C88.2062 26.5973 88.0825 26.4735 88.0825 26.3498C88.0825 26.2261 87.9587 26.1024 87.835 26.1024C87.7113 26.1024 87.5877 25.9787 87.3402 25.9787C87.0928 25.9787 86.9691 25.9787 86.8454 26.1024C86.7216 26.1024 86.5979 26.2261 86.5979 26.3498C86.5979 26.4735 86.4742 26.5973 86.4742 26.721C86.4742 26.8447 86.4742 27.0921 86.4742 27.2158V31.1746C86.4742 31.2983 86.4742 31.422 86.4742 31.5457C86.4742 31.6694 86.4742 31.7931 86.5979 31.9168C86.5979 32.0405 86.7217 32.1643 86.7217 32.1643C86.7217 32.1643 86.8454 32.288 86.9691 32.288ZM87.3402 33.5251C86.4743 33.5251 85.8556 33.2777 85.3608 32.7828C84.9897 32.288 84.7422 31.5457 84.7422 30.6797V27.4632C84.7422 26.9684 84.7423 26.5973 84.866 26.2261C84.9897 25.855 85.1134 25.6076 85.2371 25.3601C85.4845 25.1127 85.7319 24.8653 85.9794 24.7416C86.3505 24.6179 86.7216 24.4941 87.2165 24.4941C88.0825 24.4941 88.7011 24.7416 89.1959 25.2364C89.567 25.7313 89.8145 26.4735 89.8145 27.3395V30.556C89.8145 31.0509 89.8144 31.422 89.6907 31.7931C89.567 32.1643 89.4433 32.4117 89.3196 32.6591C89.0722 32.9065 88.8248 33.1539 88.5773 33.2777C88.2062 33.5251 87.7114 33.5251 87.3402 33.5251Z" fill="white"/>
<path d="M90.6805 33.402V24.7422H91.7938L93.8969 29.6906V24.7422H95.2577V33.402H94.1444L92.0413 28.2061V33.402H90.6805Z" fill="white"/>
<path d="M39.7114 44.6595H40.8247L40.2062 41.0719L39.7114 44.6595ZM37.7319 47.7523L39.4639 38.9688H41.0722L42.8041 47.7523H41.3196L40.9485 45.7729H39.4639L39.0928 47.7523H37.7319Z" fill="white"/>
<path d="M43.4227 47.7523V38.9688H44.536L46.7629 43.9172V38.9688H48V47.7523H47.0103L44.7835 42.5564V47.7523H43.4227Z" fill="white"/>
<path d="M50.5979 46.6389H51.0928C51.2165 46.6389 51.3402 46.6389 51.4639 46.6389C51.5876 46.6389 51.7113 46.6389 51.7113 46.5151C51.8351 46.5151 51.835 46.3914 51.9587 46.2677C51.9587 46.144 52.0825 46.144 52.0825 46.0203C52.0825 45.8966 52.0824 45.8966 52.2061 45.6492C52.2061 45.5254 52.2061 45.4017 52.2061 45.278C52.2061 45.1543 52.2061 45.0306 52.2061 44.7832V41.5667C52.2061 41.3193 52.2061 41.1956 52.2061 41.0719C52.2061 40.9481 52.2061 40.8244 52.2061 40.7007C52.2061 40.577 52.0825 40.4533 52.0825 40.4533C52.0825 40.4533 51.9587 40.3296 51.835 40.2059C51.7113 40.2059 51.5876 40.0821 51.4639 40.0821C51.3402 40.0821 51.2165 40.0821 50.969 40.0821H50.4742V46.6389H50.5979ZM48.9897 47.7523V38.9688H50.969C51.4639 38.9688 51.9588 38.9688 52.3299 39.0925C52.701 39.2162 52.9484 39.3399 53.1958 39.5873C53.4432 39.8347 53.567 40.0822 53.6907 40.4533C53.8144 40.8244 53.8144 41.1956 53.8144 41.6904V44.9069C53.8144 45.4017 53.8144 45.7729 53.6907 46.144C53.567 46.5151 53.4432 46.7626 53.1958 47.01C52.9484 47.2574 52.701 47.3811 52.3299 47.5048C51.9588 47.6285 51.5876 47.6285 51.0928 47.6285H48.9897V47.7523Z" fill="white"/>
<path d="M58.6391 42.6801H59.134C59.6288 42.6801 59.8762 42.5564 59.9999 42.4327C60.1236 42.3089 60.2473 41.9378 60.2473 41.443C60.2473 41.1956 60.2473 40.9481 60.2473 40.8244C60.2473 40.7007 60.1237 40.577 60.1237 40.4533C60 40.3296 59.8763 40.2059 59.7525 40.2059C59.6288 40.2059 59.3814 40.0821 59.134 40.0821H58.6391V42.6801ZM57.0309 47.7523V38.9688H59.5051C60.9896 38.9688 61.7319 39.8347 61.7319 41.443C61.7319 42.309 61.4845 42.8038 61.1133 43.1749C60.7422 43.5461 60.1236 43.7935 59.3814 43.7935H58.6391V47.7523H57.0309Z" fill="white"/>
<path d="M63.8349 42.6801H64.206C64.7009 42.6801 65.072 42.5564 65.1957 42.4327C65.4431 42.1852 65.4431 41.9378 65.4431 41.443C65.4431 40.9481 65.3194 40.7007 65.1957 40.4533C65.072 40.2059 64.7009 40.2059 64.206 40.2059H63.7112V42.6801H63.8349ZM62.2267 47.7523V38.9688H64.206C64.7009 38.9688 65.072 38.9688 65.4431 39.0925C65.8143 39.2162 66.0617 39.3399 66.3091 39.4636C66.5566 39.5873 66.6802 39.8347 66.8039 40.2059C66.9277 40.4533 66.9277 40.8244 66.9277 41.3193C66.9277 41.8141 66.804 42.309 66.6803 42.6801C66.5566 43.0512 66.1854 43.2987 65.8143 43.4224L67.0514 47.7523H65.4431L64.4535 43.7935H63.7112V47.7523H62.2267Z" fill="white"/>
<path d="M69.8968 46.6395C70.0205 46.6395 70.1443 46.7632 70.268 46.7632C70.3917 46.7632 70.5154 46.7633 70.6391 46.6395C70.7629 46.6395 70.8866 46.5158 70.8866 46.5158C71.0103 46.3921 71.0103 46.3921 71.0103 46.2684C71.0103 46.1447 71.0102 46.021 71.1339 45.8973C71.1339 45.7736 71.1339 45.6498 71.1339 45.5261V41.5674C71.1339 41.3199 71.1339 41.1962 71.1339 41.0725C71.1339 40.9488 71.0103 40.8251 71.0103 40.7014C71.0103 40.5777 70.8865 40.454 70.7628 40.454C70.6391 40.454 70.5155 40.3303 70.268 40.3303C70.0206 40.3303 69.8969 40.3303 69.7732 40.454C69.6494 40.454 69.5257 40.5777 69.5257 40.7014C69.5257 40.8251 69.402 40.9488 69.402 41.0725C69.402 41.1962 69.402 41.4437 69.402 41.5674V45.5261C69.402 45.6498 69.402 45.7736 69.402 45.8973C69.402 46.021 69.402 46.1447 69.5257 46.2684C69.5257 46.3921 69.6495 46.5158 69.6495 46.5158C69.7732 46.5158 69.7731 46.5158 69.8968 46.6395ZM70.268 47.8767C69.402 47.8767 68.7834 47.6292 68.2886 47.1344C67.9175 46.6395 67.67 45.8973 67.67 45.0313V41.8148C67.67 41.3199 67.6701 40.9488 67.7938 40.5777C67.9175 40.2065 68.0412 39.9591 68.1649 39.7117C68.4123 39.4643 68.6597 39.2169 68.9072 39.0931C69.2783 38.9694 69.6494 38.8457 70.1443 38.8457C71.0103 38.8457 71.6289 39.0931 72.1237 39.588C72.4948 40.0828 72.7423 40.8251 72.7423 41.6911V44.9076C72.7423 45.4024 72.7422 45.7735 72.6185 46.1447C72.4948 46.5158 72.3711 46.7632 72.2474 47.0107C72 47.2581 71.7526 47.5055 71.5051 47.6292C71.134 47.7529 70.7629 47.8767 70.268 47.8767Z" fill="white"/>
<path d="M75.2165 46.6389H75.7113C75.835 46.6389 75.9587 46.6389 76.0824 46.6389C76.2061 46.6389 76.3298 46.6389 76.3298 46.5151C76.4535 46.5151 76.4536 46.3914 76.5773 46.2677C76.5773 46.144 76.701 46.144 76.701 46.0203C76.701 45.8966 76.701 45.8966 76.8247 45.6492C76.8247 45.5254 76.8247 45.4017 76.8247 45.278C76.8247 45.1543 76.8247 45.0306 76.8247 44.7832V41.5667C76.8247 41.3193 76.8247 41.1956 76.8247 41.0719C76.8247 40.9481 76.8247 40.8244 76.8247 40.7007C76.8247 40.577 76.701 40.4533 76.701 40.4533C76.701 40.4533 76.5773 40.3296 76.4536 40.2059C76.3299 40.2059 76.2061 40.0821 76.0824 40.0821C75.9587 40.0821 75.835 40.0821 75.5876 40.0821H75.0927V46.6389H75.2165ZM73.7319 47.7523V38.9688H75.7113C76.2061 38.9688 76.701 38.9688 77.0722 39.0925C77.4433 39.2162 77.6906 39.3399 77.9381 39.5873C78.1855 39.8347 78.3092 40.0822 78.4329 40.4533C78.5567 40.8244 78.5566 41.1956 78.5566 41.6904V44.9069C78.5566 45.4017 78.5567 45.7729 78.4329 46.144C78.3092 46.5151 78.1855 46.7626 77.9381 47.01C77.6906 47.2574 77.4433 47.3811 77.0722 47.5048C76.701 47.6285 76.3299 47.6285 75.835 47.6285H73.7319V47.7523Z" fill="white"/>
<path d="M81.7731 47.876C81.402 47.876 81.0308 47.876 80.7834 47.7523C80.536 47.6286 80.2885 47.5048 80.0411 47.3811C79.7937 47.2574 79.67 47.01 79.5463 46.7625C79.4226 46.5151 79.2989 46.2677 79.2989 45.8966C79.2989 45.6492 79.1751 45.278 79.1751 44.9069V38.9688H80.6597V44.9069C80.6597 45.1543 80.6597 45.278 80.6597 45.4018C80.6597 45.5255 80.6597 45.6492 80.7834 45.8966C80.7834 46.0203 80.9071 46.144 80.9071 46.2677C81.0308 46.3914 81.0308 46.3914 81.1545 46.5151C81.2782 46.6389 81.4019 46.6389 81.5257 46.6389C81.6494 46.6389 81.7731 46.6389 81.8968 46.5151C82.0205 46.3914 82.1442 46.3914 82.1442 46.2677C82.1442 46.144 82.2679 46.0203 82.2679 45.8966C82.2679 45.7729 82.2679 45.6492 82.3917 45.4018C82.3917 45.278 82.3917 45.0306 82.3917 44.9069V38.9688H83.8762V44.7832C83.8762 45.1543 83.8762 45.5255 83.7524 45.7729C83.7524 46.0203 83.6287 46.3914 83.505 46.6389C83.3813 46.8863 83.2576 47.1337 83.0102 47.2574C82.7628 47.3811 82.639 47.5048 82.2679 47.6285C82.3916 47.7523 82.1442 47.876 81.7731 47.876Z" fill="white"/>
<path d="M87.4639 47.8767C87.0927 47.8767 86.7216 47.8766 86.4742 47.7529C86.2268 47.6292 85.9794 47.5055 85.732 47.3818C85.4845 47.2581 85.3608 47.0106 85.2371 46.7632C85.1134 46.5158 84.9896 46.2684 84.9896 45.8973C84.9896 45.6498 84.866 45.2787 84.866 44.9076V41.8148C84.866 41.4436 84.8659 41.0725 84.9896 40.8251C84.9896 40.5777 85.1134 40.2065 85.2371 39.9591C85.3608 39.7117 85.4845 39.4643 85.732 39.3405C85.9794 39.2168 86.1031 39.0931 86.4742 38.9694C86.8453 38.8457 87.0927 38.8457 87.4639 38.8457C87.9587 38.8457 88.3299 38.8457 88.5773 38.9694C88.8247 39.0931 89.0721 39.2168 89.3195 39.4643C89.4433 39.7117 89.567 39.9591 89.6907 40.2065C89.8144 40.454 89.8144 40.8251 89.8144 41.3199V42.0622H88.3299V41.4436C88.3299 40.9488 88.3299 40.7014 88.2062 40.5777C88.0825 40.3302 87.8351 40.0828 87.5876 40.0828H87.4639C87.3402 40.0828 87.2165 40.0828 87.0928 40.0828C86.969 40.0828 86.969 40.2065 86.8453 40.2065C86.7216 40.3302 86.7216 40.3303 86.7216 40.454C86.7216 40.5777 86.5979 40.5777 86.5979 40.7014C86.5979 40.8251 86.5979 40.9488 86.5979 41.0725C86.5979 41.1962 86.5979 41.3199 86.5979 41.4436V45.155C86.5979 45.6498 86.7216 46.021 86.8453 46.2684C86.969 46.5158 87.2165 46.6395 87.5876 46.6395C87.7113 46.6395 87.835 46.6395 87.835 46.6395C87.9587 46.6395 87.9587 46.6395 88.0824 46.5158L88.2062 46.3921C88.2062 46.2684 88.3299 46.2684 88.3299 46.1447C88.3299 46.021 88.3299 46.021 88.3299 45.8973C88.3299 45.7736 88.3299 45.6498 88.3299 45.6498C88.3299 45.5261 88.3299 45.4024 88.3299 45.2787V44.5364H89.8144V45.2787C89.8144 45.6498 89.8144 45.8972 89.6907 46.1447C89.6907 46.3921 89.567 46.6395 89.4433 46.8869C89.3196 47.1344 89.1958 47.2581 89.0721 47.5055C88.9484 47.6292 88.701 47.7529 88.4536 47.8767C88.0824 47.7529 87.835 47.8767 87.4639 47.8767Z" fill="white"/>
<path d="M91.4228 47.7523V40.2059H89.9382V38.9688H94.3919V40.2059H93.031V47.7523H91.4228Z" fill="white"/>
<path d="M96.495 38.9688H94.8867V47.7523H96.495V38.9688Z" fill="white"/>
<path d="M99.4639 46.6395C99.5876 46.6395 99.7113 46.7632 99.835 46.7632C99.9587 46.7632 100.082 46.7633 100.206 46.6395C100.33 46.6395 100.454 46.5158 100.454 46.5158C100.577 46.3921 100.577 46.3921 100.577 46.2684C100.577 46.1447 100.577 46.021 100.701 45.8973C100.701 45.7736 100.701 45.6498 100.701 45.5261V41.5674C100.701 41.3199 100.701 41.1962 100.701 41.0725C100.701 40.9488 100.577 40.8251 100.577 40.7014C100.577 40.5777 100.454 40.454 100.33 40.454C100.206 40.454 100.082 40.3303 99.835 40.3303C99.5875 40.3303 99.4639 40.3303 99.3402 40.454C99.2165 40.454 99.0927 40.5777 99.0927 40.7014C99.0927 40.8251 98.969 40.9488 98.969 41.0725C98.969 41.1962 98.969 41.4437 98.969 41.5674V45.5261C98.969 45.6498 98.969 45.7736 98.969 45.8973C98.969 46.021 98.969 46.1447 99.0927 46.2684C99.0927 46.3921 99.2164 46.5158 99.2164 46.5158C99.2164 46.5158 99.3401 46.5158 99.4639 46.6395ZM99.835 47.8767C98.969 47.8767 98.3505 47.6292 97.8556 47.1344C97.4845 46.6395 97.2371 45.8973 97.2371 45.0313V41.8148C97.2371 41.3199 97.237 40.9488 97.3607 40.5777C97.4845 40.2065 97.6081 39.9591 97.7319 39.7117C97.9793 39.4643 98.2268 39.2169 98.4742 39.0931C98.8453 38.9694 99.2164 38.8457 99.7113 38.8457C100.577 38.8457 101.196 39.0931 101.691 39.588C102.062 40.0828 102.309 40.8251 102.309 41.6911V44.9076C102.309 45.4024 102.309 45.7735 102.186 46.1447C102.062 46.5158 101.938 46.7632 101.814 47.0107C101.567 47.2581 101.32 47.5055 101.072 47.6292C100.701 47.7529 100.33 47.8767 99.835 47.8767Z" fill="white"/>
<path d="M103.175 47.7523V38.9688H104.289L106.392 43.9172V38.9688H107.753V47.7523H106.763L104.536 42.5564V47.7523H103.175Z" fill="white"/>
<path d="M90.5567 62.2268C85.2371 58.0206 78.1856 57.8969 75.5877 58.5154L75.3403 58.6392C72.3712 59.3814 67.6701 60.4948 62.1031 67.4227L61.9794 67.5464L61.8557 67.6701C61.8557 67.7938 61.732 67.7938 61.732 67.9175C61.732 68.0412 61.732 68.0412 61.732 68.165L61.8557 68.4124C62.598 69.5258 63.464 71.134 64.2062 72.4948C64.3299 72.6186 64.4536 72.7422 64.5774 72.7422C64.7011 72.7422 64.8248 72.7423 64.9485 72.6186L65.0722 72.4948C70.0207 65.6907 73.8557 64.701 76.4537 64.0825L76.8248 63.9588C78.1856 63.5876 83.3815 63.7113 87.0928 66.5567C90.0619 68.9072 91.4227 72.4948 91.4227 77.4433C91.4227 85.732 87.464 88.9484 84 90.1856C78.8042 92.1649 73.732 89.567 73.732 89.567L73.4846 89.4433C70.6392 88.2062 66.3093 85.6083 62.3506 77.567C54.1856 61.2371 47.3815 59.7526 42.9279 58.7629H42.6804C40.5773 58.268 33.5258 58.0206 27.9588 62.4742C24.9898 64.8247 21.5258 69.2783 21.5258 77.6907C21.5258 82.7629 22.5155 86.1031 25.2372 89.6907C25.8557 90.433 31.7939 98.2268 43.4227 96C45.2784 95.6289 47.7526 94.7629 50.598 92.6598L53.1959 95.0103C53.3196 95.134 53.6907 95.134 53.8144 95.0103C53.9382 94.8866 53.9382 94.8866 53.9382 94.7629L55.7939 83.3814V83.2577C55.7939 83.134 55.7938 83.0103 55.6701 83.0103C55.5464 82.8866 55.5465 82.8866 55.4228 82.8866H55.299H55.1753L44.2887 85.9794H44.0413C43.9176 85.9794 43.9176 85.9794 43.7939 86.1031C43.6701 86.2268 43.6701 86.5979 43.7939 86.7217L43.9175 86.8454L46.3918 89.0722C44.7835 90.0618 43.4228 90.5567 42.4331 90.8041C34.0207 92.4124 29.8144 86.8454 29.6907 86.7217V86.5979C27.7114 84 27.0928 81.8969 27.0928 77.9381C27.0928 72.9897 28.5774 69.4021 31.4227 67.0516C35.0104 64.2062 40.0825 64.0825 41.4433 64.4536H41.6908C45.4021 65.3196 50.4743 66.433 57.4021 80.4124C60.9897 87.7113 65.5671 92.4124 71.2578 94.8866C72.0001 95.2577 75.464 96.866 79.9176 96.866C81.7733 96.866 83.8763 96.6185 85.9794 95.7526C89.3196 94.5154 96.9897 90.3093 96.9897 77.8144C97.1134 69.1546 93.5258 64.5773 90.5567 62.2268Z" fill="white"/>
</g>
<defs>
<clipPath id="clip0_501_30739">
<rect width="120" height="120" rx="2" fill="white"/>
</clipPath>
</defs>
</svg>
