<svg viewBox="0 0 109 109" fill="none" xmlns="http://www.w3.org/2000/svg">
<path d="M108.294 0.368408H0.103577V108.558H108.294V0.368408Z" fill="#A21942"/>
<path d="M8.57355 24.4491C8.57355 23.2941 8.77759 22.2931 9.18555 21.4431C9.59259 20.5951 10.1956 19.9661 10.9936 19.5591C10.3655 19.1011 9.85559 18.4851 9.46454 17.7121C9.07458 16.9401 8.87958 16.0021 8.87958 14.8981C8.87958 13.2011 9.32959 11.8801 10.2296 10.9371C11.1296 9.99612 12.4196 9.52411 14.1006 9.52411C15.7816 9.52411 17.0626 9.99213 17.9466 10.9251C18.8296 11.8591 19.2706 13.1581 19.2706 14.8221C19.2706 15.9771 19.0836 16.9441 18.7106 17.7251C18.3365 18.5061 17.8356 19.1171 17.2076 19.5591C18.0066 19.9661 18.6086 20.6121 19.0165 21.4941C19.4236 22.3771 19.6266 23.4211 19.6266 24.6271C19.6266 26.5461 19.1855 28.0401 18.3026 29.1101C17.4196 30.1791 16.0196 30.7141 14.1006 30.7141C10.4156 30.7141 8.57355 28.6251 8.57355 24.4491ZM15.4376 26.8811C15.6675 26.2781 15.7816 25.5191 15.7816 24.6011C15.7816 23.5831 15.6675 22.7771 15.4376 22.1821C15.2086 21.5881 14.7626 21.2911 14.1006 21.2911C13.4385 21.2911 12.9936 21.5931 12.7635 22.1951C12.5345 22.7981 12.4196 23.6001 12.4196 24.6011C12.4196 25.5191 12.5345 26.2781 12.7635 26.8811C12.9936 27.4841 13.4385 27.7851 14.1006 27.7851C14.7626 27.7851 15.2086 27.4841 15.4376 26.8811ZM15.5526 14.8981C15.5526 14.1511 15.4336 13.5611 15.1956 13.1281C14.9576 12.6951 14.5926 12.4791 14.1006 12.4791C13.6075 12.4791 13.2346 12.6951 12.9796 13.1281C12.7256 13.5611 12.5986 14.1511 12.5986 14.8981C12.5986 17.0211 13.0986 18.0821 14.1006 18.0821C15.0685 18.0821 15.5526 17.0211 15.5526 14.8981Z" fill="white"/>
<path d="M25.8651 19.2149V16.6289H26.1791C26.3501 16.5279 26.5001 16.3909 26.6281 16.2199C26.756 16.0489 26.881 15.8029 27.0011 15.4829C27.1221 15.1629 27.222 14.7329 27.3031 14.1949C27.3841 13.6559 27.4451 13.0049 27.4861 12.2449L27.6381 9.76691H31.157V16.6289H31.9891V19.2149H30.9661L30.8721 17.6509H27.011L26.9161 19.2149H25.8651ZM27.5101 16.6289H29.7731V10.8039H28.7851L28.7131 12.4829C28.6941 12.9199 28.6661 13.3179 28.6301 13.6769C28.5931 14.0349 28.5551 14.3369 28.5161 14.5849C28.4761 14.8319 28.4211 15.0609 28.3521 15.2709C28.282 15.4829 28.2231 15.6469 28.1731 15.7659C28.1241 15.8849 28.0531 16.0069 27.959 16.1319C27.8661 16.2579 27.7941 16.3459 27.743 16.3979C27.6921 16.4509 27.6151 16.5279 27.5101 16.6289Z" fill="white"/>
<path d="M34.7187 17.7463C33.9077 17.7463 33.3257 17.5263 32.9737 17.0853C32.6217 16.6453 32.4457 16.0003 32.4457 15.1503V12.2403C32.4457 11.8213 32.4857 11.4593 32.5647 11.1513C32.6437 10.8443 32.7717 10.5773 32.9477 10.3523C33.1237 10.1273 33.3587 9.95831 33.6537 9.84631C33.9487 9.73331 34.3036 9.67731 34.7187 9.67731C35.5277 9.67731 36.1077 9.89432 36.4607 10.3283C36.8147 10.7633 36.9917 11.3993 36.9917 12.2403V15.1503C36.9917 15.5623 36.9517 15.9243 36.8707 16.2363C36.7897 16.5493 36.6607 16.8203 36.4847 17.0493C36.3087 17.2793 36.0737 17.4533 35.7797 17.5703C35.4837 17.6873 35.1307 17.7463 34.7187 17.7463ZM34.3597 16.6193C34.4597 16.6603 34.5787 16.6813 34.7187 16.6813C34.8577 16.6813 34.9767 16.6603 35.0747 16.6193C35.1737 16.5783 35.2517 16.5243 35.3107 16.4583C35.3697 16.3913 35.4157 16.3043 35.4487 16.1963C35.4817 16.0883 35.5037 15.9803 35.5157 15.8733C35.5257 15.7653 35.5317 15.6363 35.5317 15.4873V11.9073C35.5317 11.7173 35.5227 11.5593 35.5037 11.4323C35.4837 11.3053 35.4467 11.1853 35.3917 11.0723C35.3357 10.9603 35.2527 10.8763 35.1417 10.8203C35.0307 10.7653 34.8897 10.7373 34.7187 10.7373C34.5477 10.7373 34.4057 10.7653 34.2937 10.8203C34.1807 10.8763 34.0977 10.9603 34.0437 11.0723C33.9897 11.1853 33.9527 11.3053 33.9347 11.4323C33.9157 11.5593 33.9057 11.7173 33.9057 11.9073V15.4873C33.9057 15.6363 33.9107 15.7653 33.9217 15.8733C33.9337 15.9803 33.9557 16.0883 33.9887 16.1963C34.0217 16.3043 34.0677 16.3913 34.1247 16.4583C34.1817 16.5243 34.2597 16.5783 34.3597 16.6193Z" fill="white"/>
<path d="M39.9635 17.746C39.6245 17.746 39.3245 17.704 39.0655 17.618C38.8055 17.533 38.5895 17.414 38.4205 17.262C38.2515 17.109 38.1125 16.921 38.0065 16.695C37.9005 16.471 37.8255 16.228 37.7834 15.97C37.7405 15.712 37.7195 15.421 37.7195 15.098V12.349C37.7195 12.007 37.7415 11.704 37.7855 11.439C37.8295 11.175 37.9045 10.929 38.0095 10.702C38.1135 10.475 38.2515 10.289 38.4205 10.143C38.5895 9.99802 38.8035 9.88303 39.0625 9.80103C39.3205 9.71902 39.6215 9.677 39.9635 9.677C40.3564 9.677 40.6924 9.729 40.9715 9.83502C41.2505 9.93903 41.4715 10.093 41.6324 10.295C41.7945 10.498 41.9115 10.736 41.9845 11.006C42.0575 11.277 42.0934 11.593 42.0934 11.954V12.63H40.7095V11.96C40.7095 11.566 40.6895 11.302 40.6485 11.165C40.5655 10.899 40.3644 10.757 40.0445 10.738H39.9684C39.8475 10.738 39.7425 10.752 39.6525 10.78C39.5625 10.809 39.4875 10.854 39.4315 10.916C39.3735 10.978 39.3275 11.044 39.2925 11.113C39.2574 11.183 39.2325 11.274 39.2145 11.386C39.1965 11.499 39.1865 11.603 39.1815 11.698C39.1765 11.793 39.1745 11.914 39.1745 12.059V15.398C39.1745 15.86 39.2325 16.19 39.3475 16.387C39.4635 16.582 39.6705 16.681 39.9684 16.681C40.0695 16.681 40.1584 16.669 40.2375 16.646C40.3145 16.622 40.3795 16.592 40.4325 16.555C40.4845 16.519 40.5284 16.467 40.5655 16.398C40.6014 16.33 40.6295 16.267 40.6485 16.208C40.6675 16.149 40.6815 16.068 40.6905 15.963C40.7005 15.858 40.7054 15.77 40.7075 15.697C40.7095 15.624 40.7095 15.524 40.7095 15.398V14.694H42.0934V15.341C42.0934 15.635 42.0735 15.9 42.0315 16.134C41.9905 16.369 41.9205 16.589 41.8205 16.796C41.7205 17.001 41.5915 17.173 41.4325 17.309C41.2745 17.445 41.0715 17.552 40.8245 17.63C40.5765 17.707 40.2895 17.746 39.9635 17.746Z" fill="white"/>
<path d="M43.6629 17.6508V10.8278H42.3409V9.76682H46.3779V10.8278H45.0989V17.6508H43.6629Z" fill="white"/>
<path d="M48.9554 17.7463C48.1443 17.7463 47.5624 17.5263 47.2104 17.0853C46.8584 16.6453 46.6824 16.0003 46.6824 15.1503V12.2403C46.6824 11.8213 46.7224 11.4593 46.8014 11.1513C46.8804 10.8443 47.0084 10.5773 47.1844 10.3523C47.3604 10.1273 47.5954 9.95831 47.8904 9.84631C48.1854 9.73331 48.5403 9.67731 48.9554 9.67731C49.7644 9.67731 50.3444 9.89432 50.6974 10.3283C51.0514 10.7633 51.2284 11.3993 51.2284 12.2403V15.1503C51.2284 15.5623 51.1884 15.9243 51.1074 16.2363C51.0264 16.5493 50.8974 16.8203 50.7214 17.0493C50.5453 17.2793 50.3104 17.4533 50.0164 17.5703C49.7204 17.6873 49.3674 17.7463 48.9554 17.7463ZM48.5964 16.6193C48.6964 16.6603 48.8154 16.6813 48.9554 16.6813C49.0944 16.6813 49.2134 16.6603 49.3114 16.6193C49.4104 16.5783 49.4884 16.5243 49.5474 16.4583C49.6064 16.3913 49.6524 16.3043 49.6854 16.1963C49.7184 16.0883 49.7404 15.9803 49.7514 15.8733C49.7624 15.7653 49.7684 15.6363 49.7684 15.4873V11.9073C49.7684 11.7173 49.7594 11.5593 49.7404 11.4323C49.7204 11.3053 49.6833 11.1853 49.6284 11.0723C49.5724 10.9603 49.4894 10.8763 49.3784 10.8203C49.2674 10.7653 49.1264 10.7373 48.9554 10.7373C48.7844 10.7373 48.6424 10.7653 48.5304 10.8203C48.4174 10.8763 48.3344 10.9603 48.2804 11.0723C48.2264 11.1853 48.1894 11.3053 48.1714 11.4323C48.1524 11.5593 48.1424 11.7173 48.1424 11.9073V15.4873C48.1424 15.6363 48.1474 15.7653 48.1584 15.8733C48.1703 15.9803 48.1924 16.0883 48.2254 16.1963C48.2584 16.3043 48.3044 16.3913 48.3614 16.4583C48.4184 16.5243 48.4964 16.5783 48.5964 16.6193Z" fill="white"/>
<path d="M52.0984 17.6511V9.76813H53.2925V14.6941L55.4315 9.76813H56.4115V17.6511H55.2035V12.6301L53.0594 17.6511H52.0984ZM54.2525 9.09711C53.7765 9.09711 53.4255 8.97412 53.1985 8.72614C52.9725 8.47913 52.8595 8.14313 52.8595 7.71811H53.5295C53.5295 7.97812 53.5885 8.16711 53.7054 8.28412C53.8224 8.40112 54.0055 8.46011 54.2525 8.46011C54.4995 8.46011 54.6815 8.40112 54.7995 8.28412C54.9164 8.16711 54.9755 7.97812 54.9755 7.71811H55.6505C55.6505 8.14313 55.5375 8.47913 55.3105 8.72614C55.0835 8.97412 54.7305 9.09711 54.2525 9.09711Z" fill="white"/>
<path d="M57.4242 17.6508V9.76682H58.8602V13.0618H60.4632V9.76682H61.8982V17.6508H60.4632V14.0848H58.8602V17.6508H57.4242Z" fill="white"/>
<path d="M62.4879 17.651L64.0909 9.76801H65.5889L67.1859 17.651H65.8499L65.5309 15.821H64.1669L63.8429 17.651H62.4879ZM64.3189 14.884H65.3749L64.8469 11.646L64.3189 14.884Z" fill="white"/>
<path d="M67.2768 17.6511L68.8698 14.1271C68.5368 13.9531 68.2718 13.6871 68.0757 13.3291C67.8788 12.9701 67.7798 12.5371 67.7798 12.0261C67.7798 11.2591 67.9908 10.6911 68.4108 10.3221C68.8307 9.95209 69.4878 9.76709 70.3818 9.76709H72.1548V17.6511H70.7198V14.4601H70.2908H70.1198L68.8548 17.6511H67.2768ZM70.4528 13.4431H70.7198V10.7701H70.4288C69.9878 10.7701 69.6608 10.8721 69.4468 11.0751C69.2328 11.2781 69.1258 11.5951 69.1258 12.0261C69.1258 12.5011 69.2278 12.8571 69.4308 13.0921C69.6338 13.3261 69.9738 13.4431 70.4528 13.4431Z" fill="white"/>
<path d="M75.3363 17.6508V9.76678H77.6053C78.9483 9.76678 79.6203 10.5138 79.6203 12.0078C79.6203 12.7398 79.4363 13.2758 79.0693 13.6168C78.7013 13.9568 78.1833 14.1278 77.5143 14.1278H76.7723V17.6508H75.3363ZM76.7723 13.1198H77.2333C77.6393 13.1198 77.9133 13.0398 78.0563 12.8798C78.1983 12.7198 78.2703 12.4258 78.2703 11.9978C78.2703 11.7538 78.2613 11.5648 78.2413 11.4328C78.2233 11.2988 78.1783 11.1778 78.1083 11.0688C78.0383 10.9588 77.9353 10.8838 77.7973 10.8418C77.6593 10.8008 77.4723 10.7798 77.2383 10.7798H76.7723V13.1198Z" fill="white"/>
<path d="M79.6356 17.651L81.2375 9.76801H82.7356L84.3326 17.651H82.9966L82.6776 15.821H81.3136L80.9896 17.651H79.6356ZM81.4656 14.884H82.5216L81.9936 11.646L81.4656 14.884Z" fill="white"/>
<path d="M84.9272 17.6504V9.7674H88.5743V10.8324H86.3633V13.0674H86.5963C87.0203 13.0674 87.3832 13.1054 87.6833 13.1794C87.9822 13.2534 88.2393 13.3784 88.4553 13.5524C88.6703 13.7274 88.8303 13.9614 88.9333 14.2564C89.0363 14.5514 89.0883 14.9144 89.0883 15.3444C89.0883 15.6974 89.0503 16.0054 88.9763 16.2704C88.9012 16.5344 88.7953 16.7544 88.6573 16.9284C88.5193 17.1024 88.3453 17.2444 88.1343 17.3514C87.9233 17.4594 87.6913 17.5364 87.4383 17.5824C87.1843 17.6284 86.8943 17.6504 86.5682 17.6504H84.9272ZM86.3633 16.6714H86.5682C86.7833 16.6714 86.9612 16.6534 87.1033 16.6144C87.2433 16.5764 87.3653 16.5084 87.4662 16.4104C87.5673 16.3124 87.6403 16.1744 87.6852 15.9994C87.7292 15.8234 87.7502 15.5984 87.7473 15.3264C87.7443 14.8824 87.6542 14.5624 87.4803 14.3654C87.3063 14.1694 86.9952 14.0714 86.5493 14.0714H86.3633V16.6714Z" fill="white"/>
<path d="M91.9505 17.7463C91.1395 17.7463 90.5575 17.5263 90.2055 17.0853C89.8535 16.6453 89.6775 16.0003 89.6775 15.1503V12.2403C89.6775 11.8213 89.7175 11.4593 89.7964 11.1513C89.8755 10.8443 90.0035 10.5773 90.1795 10.3523C90.3555 10.1273 90.5905 9.95831 90.8855 9.84631C91.1805 9.73331 91.5355 9.67731 91.9505 9.67731C92.7595 9.67731 93.3395 9.89432 93.6925 10.3283C94.0464 10.7633 94.2234 11.3993 94.2234 12.2403V15.1503C94.2234 15.5623 94.1835 15.9243 94.1025 16.2363C94.0215 16.5493 93.8925 16.8203 93.7165 17.0493C93.5405 17.2793 93.3055 17.4533 93.0115 17.5703C92.7155 17.6873 92.3625 17.7463 91.9505 17.7463ZM91.5915 16.6193C91.6915 16.6603 91.8105 16.6813 91.9505 16.6813C92.0895 16.6813 92.2085 16.6603 92.3065 16.6193C92.4055 16.5783 92.4835 16.5243 92.5425 16.4583C92.6015 16.3913 92.6475 16.3043 92.6805 16.1963C92.7135 16.0883 92.7355 15.9803 92.7465 15.8733C92.7574 15.7653 92.7635 15.6363 92.7635 15.4873V11.9073C92.7635 11.7173 92.7545 11.5593 92.7355 11.4323C92.7155 11.3053 92.6785 11.1853 92.6235 11.0723C92.5675 10.9603 92.4845 10.8763 92.3735 10.8203C92.2625 10.7653 92.1215 10.7373 91.9505 10.7373C91.7795 10.7373 91.6375 10.7653 91.5255 10.8203C91.4125 10.8763 91.3295 10.9603 91.2755 11.0723C91.2215 11.1853 91.1844 11.3053 91.1665 11.4323C91.1475 11.5593 91.1375 11.7173 91.1375 11.9073V15.4873C91.1375 15.6363 91.1425 15.7653 91.1535 15.8733C91.1655 15.9803 91.1875 16.0883 91.2205 16.1963C91.2535 16.3043 91.2995 16.3913 91.3565 16.4583C91.4135 16.5243 91.4915 16.5783 91.5915 16.6193Z" fill="white"/>
<path d="M95.8497 17.6508V10.8278H94.5276V9.76682H98.5647V10.8278H97.2856V17.6508H95.8497Z" fill="white"/>
<path d="M98.5883 17.651L100.191 9.76801H101.689L103.286 17.651H101.95L101.631 15.821H100.267L99.9433 17.651H98.5883ZM100.419 14.884H101.475L100.947 11.646L100.419 14.884Z" fill="white"/>
<path d="M26.3359 30.5352V22.6512H27.5289V27.5772L29.6689 22.6512H30.6489V30.5352H29.4409V25.5142L27.2959 30.5352H26.3359Z" fill="white"/>
<path d="M36.0989 30.5493C35.7059 30.5493 35.3699 30.4973 35.0909 30.3923C34.8119 30.2883 34.5909 30.1343 34.4269 29.9313C34.2639 29.7283 34.1459 29.4913 34.0729 29.2203C34.0009 28.9493 33.9639 28.6333 33.9639 28.2713V27.8683H35.3469V28.2673V28.2903V28.5093C35.3469 28.5573 35.3499 28.6233 35.3549 28.7063C35.3589 28.7903 35.3659 28.8543 35.3739 28.8963C35.3819 28.9403 35.3949 28.9943 35.4119 29.0583C35.4289 29.1233 35.4499 29.1743 35.4739 29.2083C35.4969 29.2433 35.5279 29.2813 35.5669 29.3223C35.6049 29.3643 35.6479 29.3953 35.6979 29.4153C35.7458 29.4363 35.8029 29.4533 35.8689 29.4673C35.9339 29.4823 36.0069 29.4893 36.0899 29.4893C36.2099 29.4893 36.3159 29.4743 36.4059 29.4463C36.4958 29.4173 36.5699 29.3723 36.6269 29.3103C36.6839 29.2493 36.7309 29.1833 36.7669 29.1133C36.8029 29.0433 36.8299 28.9523 36.8479 28.8403C36.8659 28.7273 36.8769 28.6233 36.8809 28.5293C36.8859 28.4333 36.8879 28.3133 36.8879 28.1673V26.8973H35.5859V26.0753H36.8879V24.8293C36.8879 24.3633 36.8299 24.0333 36.7149 23.8383C36.5989 23.6433 36.3909 23.5453 36.0899 23.5453C35.9729 23.5453 35.8708 23.5593 35.7849 23.5863C35.6989 23.6133 35.6299 23.6583 35.5759 23.7213C35.5219 23.7853 35.4799 23.8493 35.4469 23.9143C35.4159 23.9793 35.3929 24.0683 35.3789 24.1823C35.3649 24.2973 35.3559 24.3953 35.3529 24.4793C35.3489 24.5633 35.3469 24.6803 35.3469 24.8293V25.2473H33.9639V24.8863C33.9639 24.5153 33.9979 24.1903 34.0669 23.9113C34.1339 23.6323 34.2469 23.3823 34.4039 23.1603C34.5609 22.9383 34.7809 22.7703 35.0649 22.6533C35.3489 22.5383 35.6938 22.4803 36.0989 22.4803C36.5239 22.4803 36.8839 22.5443 37.1808 22.6733C37.4769 22.8023 37.7089 22.9883 37.8749 23.2313C38.0409 23.4753 38.1599 23.7513 38.2309 24.0593C38.3029 24.3663 38.3389 24.7233 38.3389 25.1293V27.8763C38.3389 28.3053 38.3029 28.6753 38.2309 28.9903C38.1599 29.3033 38.0409 29.5803 37.8749 29.8223C37.7089 30.0633 37.4769 30.2443 37.1808 30.3663C36.8839 30.4883 36.5239 30.5493 36.0989 30.5493Z" fill="white"/>
<path d="M39.3401 30.5352V22.6512H40.7761V25.9702H41.0561L42.3311 22.6512H43.7571L42.2791 26.3702L43.8761 30.5352H42.4211L41.0621 26.8652H40.7761V30.5352H39.3401Z" fill="white"/>
<path d="M46.6612 30.6306C45.8502 30.6306 45.2682 30.4096 44.9162 29.9696C44.5641 29.5286 44.3882 28.8836 44.3882 28.0346V25.1246C44.3882 24.7056 44.4282 24.3426 44.5071 24.0356C44.5862 23.7276 44.7142 23.4616 44.8902 23.2366C45.0662 23.0116 45.3011 22.8426 45.5962 22.7306C45.8912 22.6176 46.2462 22.5606 46.6612 22.5606C47.4692 22.5606 48.0502 22.7786 48.4032 23.2126C48.7571 23.6476 48.9341 24.2836 48.9341 25.1246V28.0346C48.9341 28.4466 48.8942 28.8076 48.8122 29.1206C48.7322 29.4336 48.6031 29.7046 48.4272 29.9336C48.2512 30.1636 48.0162 30.3376 47.7222 30.4536C47.4261 30.5716 47.0732 30.6306 46.6612 30.6306ZM46.3022 29.5036C46.4012 29.5446 46.5212 29.5656 46.6612 29.5656C46.8002 29.5656 46.9192 29.5446 47.0172 29.5036C47.1152 29.4626 47.1942 29.4086 47.2532 29.3416C47.3122 29.2746 47.3582 29.1886 47.3912 29.0796C47.4242 28.9726 47.4462 28.8646 47.4572 28.7566C47.4681 28.6486 47.4742 28.5206 47.4742 28.3716V24.7916C47.4742 24.6016 47.4651 24.4436 47.4452 24.3156C47.4261 24.1896 47.3892 24.0696 47.3342 23.9566C47.2782 23.8446 47.1952 23.7606 47.0842 23.7046C46.9731 23.6486 46.8322 23.6216 46.6612 23.6216C46.4902 23.6216 46.3481 23.6486 46.2361 23.7046C46.1232 23.7606 46.0392 23.8446 45.9861 23.9566C45.9322 24.0696 45.8951 24.1896 45.8772 24.3156C45.8572 24.4436 45.8481 24.6016 45.8481 24.7916V28.3716C45.8481 28.5206 45.8531 28.6486 45.8642 28.7566C45.8762 28.8646 45.8982 28.9726 45.9312 29.0796C45.9642 29.1886 46.0102 29.2746 46.0662 29.3416C46.1241 29.4086 46.2021 29.4626 46.3022 29.5036Z" fill="white"/>
<path d="M49.9309 30.5352V22.6512H51.3669V25.9472H52.9698V22.6512H54.4049V30.5352H52.9698V26.9692H51.3669V30.5352H49.9309Z" fill="white"/>
<path d="M57.6749 30.6306C56.8639 30.6306 56.2819 30.4096 55.9299 29.9696C55.5779 29.5286 55.4019 28.8836 55.4019 28.0346V25.1246C55.4019 24.7056 55.4419 24.3426 55.5209 24.0356C55.5999 23.7276 55.7278 23.4616 55.9039 23.2366C56.0799 23.0116 56.3149 22.8426 56.6099 22.7306C56.9048 22.6176 57.2599 22.5606 57.6749 22.5606C58.4839 22.5606 59.0638 22.7786 59.4169 23.2126C59.7709 23.6476 59.9479 24.2836 59.9479 25.1246V28.0346C59.9479 28.4466 59.9079 28.8076 59.8268 29.1206C59.7458 29.4336 59.6169 29.7046 59.4409 29.9336C59.2649 30.1636 59.0298 30.3376 58.7359 30.4536C58.4399 30.5716 58.0869 30.6306 57.6749 30.6306ZM57.3159 29.5036C57.4159 29.5446 57.5349 29.5656 57.6749 29.5656C57.8138 29.5656 57.9329 29.5446 58.0309 29.5036C58.1299 29.4626 58.2079 29.4086 58.2668 29.3416C58.3259 29.2746 58.3719 29.1886 58.4048 29.0796C58.4379 28.9726 58.4599 28.8646 58.4709 28.7566C58.4819 28.6486 58.4879 28.5206 58.4879 28.3716V24.7916C58.4879 24.6016 58.4789 24.4436 58.4599 24.3156C58.4399 24.1896 58.4029 24.0696 58.3479 23.9566C58.2919 23.8446 58.2089 23.7606 58.0979 23.7046C57.9869 23.6486 57.8459 23.6216 57.6749 23.6216C57.5038 23.6216 57.3619 23.6486 57.2499 23.7046C57.1369 23.7606 57.0539 23.8446 56.9999 23.9566C56.9459 24.0696 56.9089 24.1896 56.8909 24.3156C56.8719 24.4436 56.8619 24.6016 56.8619 24.7916V28.3716C56.8619 28.5206 56.8669 28.6486 56.8779 28.7566C56.8899 28.8646 56.9119 28.9726 56.9449 29.0796C56.9778 29.1886 57.0239 29.2746 57.0809 29.3416C57.1379 29.4086 57.2159 29.4626 57.3159 29.5036Z" fill="white"/>
<path d="M60.916 30.5352L61.0439 22.6512H62.457L63.66 27.9532L64.896 22.6512H66.275L66.408 30.5352H65.338L65.262 25.4192L64.049 30.5352H63.293L62.062 25.4042L61.995 30.5352H60.916Z" fill="white"/>
<path d="M67.5189 30.5352V22.6512H68.7119V27.5772L70.8519 22.6512H71.8318V30.5352H70.6239V25.5142L68.4789 30.5352H67.5189Z" fill="white"/>
<path d="M75.886 30.5352V27.0692C75.502 27.1422 75.15 27.1782 74.83 27.1782C74.206 27.1782 73.713 27.0162 73.3539 26.6932C72.994 26.3702 72.814 25.9072 72.814 25.3052V22.6512H74.17V25.3002C74.17 25.4652 74.183 25.6032 74.21 25.7142C74.237 25.8252 74.284 25.9242 74.353 26.0132C74.42 26.1032 74.521 26.1682 74.655 26.2102C74.788 26.2532 74.955 26.2742 75.159 26.2742C75.374 26.2742 75.616 26.2472 75.886 26.1932V22.6512H77.317V30.5352H75.886Z" fill="white"/>
<path d="M78.4471 30.5352V22.6512H81.7471V23.6652H79.8831V25.9272H81.3571V26.9402H79.8831V29.5412H81.7711V30.5352H78.4471Z" fill="white"/>
<path d="M84.646 30.6303C84.306 30.6303 84.007 30.5873 83.747 30.5023C83.487 30.4163 83.272 30.2973 83.103 30.1453C82.934 29.9933 82.795 29.8043 82.689 29.5793C82.583 29.3553 82.508 29.1123 82.466 28.8543C82.423 28.5963 82.402 28.3053 82.402 27.9823V25.2333C82.402 24.8903 82.424 24.5873 82.468 24.3233C82.512 24.0593 82.587 23.8123 82.692 23.5863C82.796 23.3593 82.934 23.1733 83.103 23.0273C83.272 22.8813 83.486 22.7673 83.745 22.6853C84.003 22.6023 84.303 22.5613 84.646 22.5613C85.039 22.5613 85.375 22.6133 85.654 22.7183C85.933 22.8233 86.153 22.9763 86.315 23.1793C86.476 23.3823 86.593 23.6193 86.666 23.8903C86.74 24.1613 86.776 24.4773 86.776 24.8383V25.5143H85.392V24.8433C85.392 24.4503 85.372 24.1863 85.33 24.0493C85.248 23.7833 85.047 23.6413 84.727 23.6223H84.651C84.53 23.6223 84.425 23.6353 84.335 23.6643C84.244 23.6933 84.17 23.7373 84.114 23.8003C84.056 23.8623 84.01 23.9273 83.975 23.9973C83.94 24.0663 83.914 24.1583 83.897 24.2713C83.879 24.3833 83.869 24.4873 83.864 24.5823C83.859 24.6773 83.857 24.7983 83.857 24.9433V28.2813C83.857 28.7443 83.914 29.0743 84.03 29.2703C84.146 29.4663 84.352 29.5653 84.651 29.5653C84.752 29.5653 84.841 29.5533 84.919 29.5293C84.997 29.5053 85.062 29.4753 85.114 29.4393C85.167 29.4033 85.211 29.3513 85.248 29.2823C85.284 29.2143 85.311 29.1513 85.33 29.0923C85.35 29.0333 85.364 28.9513 85.373 28.8473C85.383 28.7423 85.388 28.6543 85.39 28.5813C85.392 28.5083 85.392 28.4083 85.392 28.2813V27.5773H86.776V28.2243C86.776 28.5193 86.755 28.7833 86.714 29.0183C86.673 29.2533 86.603 29.4733 86.503 29.6793C86.403 29.8853 86.274 30.0563 86.115 30.1923C85.957 30.3293 85.754 30.4363 85.507 30.5143C85.259 30.5913 84.972 30.6303 84.646 30.6303Z" fill="white"/>
<path d="M87.7159 30.5352V22.6512H89.1519V25.9702H89.4319L90.7068 22.6512H92.1329L90.6548 26.3702L92.2519 30.5352H90.7969L89.4379 26.8652H89.1519V30.5352H87.7159Z" fill="white"/>
<path d="M92.9067 30.5352V22.6512H94.0997V27.5772L96.2397 22.6512H97.2197V30.5352H96.0117V25.5142L93.8667 30.5352H92.9067Z" fill="white"/>
<path d="M98.3588 30.5354V22.6524H99.5528V27.5774L101.692 22.6524H102.672V30.5354H101.464V25.5144L99.3198 30.5354H98.3588ZM100.513 21.9814C100.037 21.9814 99.6858 21.8574 99.4588 21.6104C99.2328 21.3634 99.1198 21.0274 99.1198 20.6024H99.7898C99.7898 20.8624 99.8488 21.0504 99.9658 21.1684C100.083 21.2854 100.266 21.3434 100.513 21.3434C100.76 21.3434 100.942 21.2854 101.06 21.1684C101.177 21.0504 101.236 20.8624 101.236 20.6024H101.911C101.911 21.0274 101.798 21.3634 101.571 21.6104C101.344 21.8574 100.991 21.9814 100.513 21.9814Z" fill="white"/>
<path d="M26.3215 43.4198V35.5348H28.5895C29.9335 35.5348 30.6055 36.2818 30.6055 37.7758C30.6055 38.5078 30.4214 39.0438 30.0535 39.3848C29.6865 39.7248 29.1675 39.8958 28.4995 39.8958H27.7575V43.4198H26.3215ZM27.7575 38.8878H28.2185C28.6245 38.8878 28.8985 38.8078 29.0415 38.6478C29.1835 38.4888 29.2555 38.1938 29.2555 37.7658C29.2555 37.5218 29.2455 37.3328 29.2265 37.2008C29.2085 37.0668 29.1635 36.9458 29.0935 36.8368C29.0235 36.7268 28.9195 36.6518 28.7825 36.6098C28.6435 36.5688 28.4575 36.5478 28.2234 36.5478H27.7575V38.8878Z" fill="white"/>
<path d="M33.3067 43.5143C32.4947 43.5143 31.9127 43.2943 31.5617 42.8533C31.2097 42.4133 31.0337 41.7683 31.0337 40.9183V38.0083C31.0337 37.5893 31.0737 37.2273 31.1526 36.9193C31.2317 36.6123 31.3597 36.3453 31.5357 36.1203C31.7117 35.8953 31.9467 35.7273 32.2417 35.6143C32.5367 35.5013 32.8907 35.4453 33.3067 35.4453C34.1147 35.4453 34.6957 35.6623 35.0487 36.0963C35.4026 36.5313 35.5797 37.1673 35.5797 38.0083V40.9183C35.5797 41.3303 35.5397 41.6923 35.4577 42.0053C35.3766 42.3173 35.2487 42.5883 35.0727 42.8173C34.8967 43.0473 34.6617 43.2213 34.3667 43.3383C34.0717 43.4553 33.7187 43.5143 33.3067 43.5143ZM32.9477 42.3873C33.0467 42.4283 33.1667 42.4493 33.3067 42.4493C33.4457 42.4493 33.5647 42.4283 33.6627 42.3873C33.7607 42.3463 33.8397 42.2923 33.8987 42.2263C33.9577 42.1593 34.0037 42.0723 34.0367 41.9643C34.0697 41.8563 34.0917 41.7483 34.1027 41.6413C34.1136 41.5333 34.1197 41.4043 34.1197 41.2553V37.6753C34.1197 37.4853 34.1097 37.3273 34.0907 37.2003C34.0717 37.0733 34.0347 36.9533 33.9787 36.8403C33.9237 36.7283 33.8407 36.6433 33.7297 36.5883C33.6187 36.5333 33.4777 36.5053 33.3067 36.5053C33.1357 36.5053 32.9927 36.5333 32.8817 36.5883C32.7687 36.6433 32.6847 36.7283 32.6317 36.8403C32.5777 36.9533 32.5406 37.0733 32.5217 37.2003C32.5027 37.3273 32.4937 37.4853 32.4937 37.6753V41.2553C32.4937 41.4043 32.4987 41.5333 32.5097 41.6413C32.5217 41.7483 32.5437 41.8563 32.5767 41.9643C32.6097 42.0723 32.6557 42.1593 32.7117 42.2263C32.7697 42.2923 32.8477 42.3463 32.9477 42.3873Z" fill="white"/>
<path d="M38.5515 43.5147C38.2115 43.5147 37.9125 43.4717 37.6525 43.3867C37.3925 43.3007 37.1775 43.1817 37.0085 43.0297C36.8384 42.8767 36.7004 42.6887 36.5945 42.4637C36.4885 42.2387 36.4135 41.9967 36.3715 41.7387C36.3285 41.4797 36.3075 41.1897 36.3075 40.8667V38.1177C36.3075 37.7747 36.3295 37.4717 36.3735 37.2067C36.4175 36.9427 36.4925 36.6967 36.5965 36.4697C36.7015 36.2437 36.8384 36.0577 37.0085 35.9117C37.1775 35.7657 37.3915 35.6517 37.6505 35.5687C37.9084 35.4867 38.2085 35.4457 38.5515 35.4457C38.9445 35.4457 39.2805 35.4977 39.5594 35.6027C39.8384 35.7077 40.0585 35.8607 40.2205 36.0637C40.3815 36.2657 40.4985 36.5037 40.5715 36.7747C40.6454 37.0457 40.6815 37.3607 40.6815 37.7227V38.3987H39.2975V37.7277C39.2975 37.3337 39.2775 37.0707 39.2355 36.9337C39.1534 36.6677 38.9525 36.5247 38.6324 36.5067H38.5565C38.4355 36.5067 38.3304 36.5197 38.2405 36.5487C38.1495 36.5777 38.0754 36.6217 38.0185 36.6837C37.9615 36.7457 37.9155 36.8117 37.8805 36.8817C37.8455 36.9507 37.8195 37.0417 37.8025 37.1547C37.7845 37.2677 37.7734 37.3707 37.7685 37.4667C37.7645 37.5617 37.7615 37.6817 37.7615 37.8267V41.1657C37.7615 41.6287 37.8195 41.9587 37.9355 42.1547C38.0515 42.3507 38.2574 42.4487 38.5565 42.4487C38.6575 42.4487 38.7465 42.4377 38.8245 42.4137C38.9025 42.3897 38.9675 42.3597 39.0195 42.3227C39.0724 42.2877 39.1165 42.2347 39.1534 42.1657C39.1895 42.0987 39.2165 42.0357 39.2355 41.9757C39.2555 41.9177 39.2695 41.8357 39.2784 41.7307C39.2885 41.6267 39.2935 41.5377 39.2955 41.4657C39.2975 41.3927 39.2975 41.2917 39.2975 41.1657V40.4617H40.6815V41.1087C40.6815 41.4037 40.6605 41.6677 40.6194 41.9027C40.5785 42.1367 40.5085 42.3567 40.4084 42.5637C40.3085 42.7697 40.1794 42.9407 40.0204 43.0767C39.8615 43.2137 39.6595 43.3197 39.4125 43.3977C39.1645 43.4757 38.8774 43.5147 38.5515 43.5147Z" fill="white"/>
<path d="M42.2509 43.4195V36.5965H40.9289V35.5355H44.9659V36.5965H43.6869V43.4195H42.2509Z" fill="white"/>
<path d="M100.595 21.6093C99.7388 21.6093 99.3108 21.1503 99.3108 20.2303H99.9818C99.9818 20.4993 100.027 20.6903 100.117 20.8033C100.207 20.9153 100.367 20.9723 100.595 20.9723C100.823 20.9723 100.983 20.9153 101.073 20.8003C101.163 20.6873 101.208 20.4973 101.208 20.2303H101.884C101.884 21.1503 101.454 21.6093 100.595 21.6093Z" fill="white"/>
<path d="M71.4442 60.34L62.1642 69.1671C61.8152 69.5161 61.6352 69.772 61.6352 70.493V95.233C61.6352 95.523 61.8722 95.761 62.1642 95.761H71.7502C72.0422 95.761 72.2782 95.523 72.2782 95.233V60.562C72.2782 60.2711 72.0492 59.738 71.4442 60.34Z" fill="white"/>
<path d="M44.7115 71.8406L35.4315 80.6666C35.0825 81.0146 34.9025 81.2716 34.9025 81.9906V95.2336C34.9025 95.5216 35.1395 95.7596 35.4315 95.7596H45.0165C45.3094 95.7596 45.5455 95.5216 45.5455 95.2336V72.0616C45.5455 71.7696 45.3155 71.2356 44.7115 71.8406Z" fill="white"/>
<path d="M75.662 49.6351C75.665 49.5651 75.64 49.4891 75.5829 49.4341C75.535 49.3861 75.472 49.3641 75.412 49.3591L75.361 49.3621L75.285 49.3661L68.179 50.9691L68.051 50.9821C67.999 50.9931 67.951 51.0181 67.912 51.0551C67.8069 51.1611 67.8069 51.3311 67.912 51.4371L67.9919 51.5172L69.615 53.1401L53.515 69.2401L46.078 61.8032C45.994 61.7181 45.861 61.7181 45.776 61.8032L43.758 63.8221C43.756 63.8221 43.756 63.8242 43.756 63.8242L31.836 75.7421C31.753 75.8271 31.753 75.9631 31.836 76.0451L33.857 78.0641C33.939 78.1491 34.074 78.1491 34.157 78.0641L45.929 66.2951L51.325 71.6921C51.33 71.7001 51.334 71.7091 51.342 71.7181L53.361 73.7341C53.444 73.8192 53.578 73.8192 53.663 73.7341L71.936 55.4611L73.64 57.1641C73.744 57.2701 73.915 57.2701 74.019 57.1641C74.069 57.1141 74.093 57.0532 74.0959 56.9891L74.098 56.9671L75.658 49.7131L75.662 49.6351Z" fill="white"/>
<path d="M58.1306 73.3895L53.6406 77.9165C53.5555 77.9865 53.4305 77.9835 53.3516 77.9045L49.2836 73.7595C48.5396 73.0175 48.3785 73.6195 48.3785 73.9105V95.2315C48.3785 95.5215 48.6125 95.7595 48.9036 95.7595H58.4916C58.7826 95.7595 59.0186 95.5215 59.0186 95.2315V73.5565C59.0186 73.2655 58.7896 72.7305 58.1306 73.3895Z" fill="white"/>
</svg>
