<svg width="120" height="120" viewBox="0 0 120 120" fill="none" xmlns="http://www.w3.org/2000/svg">
<g clip-path="url(#clip0_501_30760)">
<path d="M120 0H0V120H120V0Z" fill="#D19F2A"/>
<path d="M9.64958 30.3085L15.2166 21.7724L15.5877 21.2776C16.33 20.1642 16.8248 19.2982 17.196 18.5559C17.5671 17.8137 17.6908 17.0714 17.6908 16.2054C17.6908 15.4632 17.5671 14.9683 17.3197 14.4735C17.0723 14.1023 16.5774 13.8549 16.0826 13.8549C15.3403 13.8549 14.7218 14.1023 14.4743 14.7209C14.2269 15.3394 13.9795 16.2054 13.9795 17.1951V18.1848H9.7733V17.0714C9.7733 14.9683 10.2681 13.2363 11.2578 11.9992C12.2475 10.7621 13.8558 10.1436 15.9589 10.1436C17.9382 10.1436 19.4228 10.6384 20.4125 11.7518C21.4022 12.7415 21.897 14.226 21.897 16.2054C21.897 17.0714 21.7733 17.9374 21.5259 18.6796C21.2785 19.4219 20.9073 20.1642 20.5362 20.7827C20.165 21.4013 19.6702 22.2673 18.9279 23.3807L14.4743 29.9374H21.2785V33.4013H9.52588V30.3085H9.64958Z" fill="white"/>
<path d="M31.299 19.1754V18.1857L33.6495 11.629H31.4227V10.5156H35.2578V11.2579L32.9073 18.062H35.2578V19.1754H31.299Z" fill="white"/>
<path d="M36.1238 19.1754V10.5156H39.8351V11.629H37.732V14.1033H39.3403V15.2167H37.732V18.062H39.8351V19.1754H36.1238Z" fill="white"/>
<path d="M42.3093 14.2266H42.6804C43.1753 14.2266 43.5464 14.1029 43.6701 13.9792C43.9175 13.7318 43.9176 13.4844 43.9176 12.9895C43.9176 12.4947 43.7938 12.2473 43.6701 11.9998C43.5464 11.7524 43.1753 11.7524 42.6804 11.7524H42.1856V14.2266H42.3093ZM40.701 19.1751V10.3916H42.6804C43.1753 10.3916 43.5464 10.3916 43.9176 10.5153C44.2887 10.639 44.5361 10.7627 44.7835 10.8864C45.031 11.0102 45.1547 11.2576 45.2784 11.6287C45.4021 11.8761 45.4021 12.2473 45.4021 12.7421C45.4021 13.237 45.2784 13.7318 45.1547 14.1029C45.031 14.4741 44.6598 14.7215 44.2887 14.8452L45.5258 19.1751H43.9176L42.9279 15.2163H42.1856V19.1751H40.701Z" fill="white"/>
<path d="M48.6185 18.0614C48.7422 18.0614 48.8659 18.1851 48.9897 18.1851C49.1134 18.1851 49.2371 18.1851 49.3608 18.0614C49.4845 18.0614 49.6082 17.9377 49.6082 17.9377C49.7319 17.814 49.7319 17.814 49.7319 17.6903C49.7319 17.5665 49.7319 17.4428 49.8556 17.3191C49.8556 17.1954 49.8556 17.0717 49.8556 16.948V12.9892C49.8556 12.7418 49.8556 12.6181 49.8556 12.4944C49.8556 12.3707 49.7319 12.247 49.7319 12.1232C49.7319 11.9995 49.6082 11.8758 49.4845 11.8758C49.3608 11.8758 49.2371 11.7521 48.9897 11.7521C48.7422 11.7521 48.6185 11.7521 48.4948 11.8758C48.3711 11.9995 48.2474 11.9995 48.2474 12.1232C48.2474 12.247 48.1237 12.3707 48.1237 12.4944C48.1237 12.6181 48.1237 12.8655 48.1237 12.9892V16.948C48.1237 17.0717 48.1237 17.1954 48.1237 17.3191C48.1237 17.4428 48.1237 17.5665 48.2474 17.6903C48.2474 17.814 48.3711 17.9377 48.3711 17.9377C48.3711 17.9377 48.4948 18.0614 48.6185 18.0614ZM48.9897 19.2985C48.1237 19.2985 47.5051 19.0511 47.0103 18.5562C46.6391 18.0614 46.3917 17.3191 46.3917 16.4531V13.2366C46.3917 12.7418 46.3917 12.3707 46.5154 11.9995C46.6391 11.6284 46.7629 11.381 46.8866 11.1336C47.134 10.8861 47.3814 10.6387 47.6288 10.515C48 10.3913 48.3711 10.2676 48.866 10.2676C49.7319 10.2676 50.3505 10.515 50.8453 11.0099C51.2165 11.5047 51.4639 12.247 51.4639 13.1129V16.3294C51.4639 16.8243 51.4639 17.1954 51.3402 17.5665C51.2165 17.9377 51.0928 18.1851 50.969 18.4325C50.7216 18.68 50.4742 18.9274 50.2268 19.0511C49.8556 19.2985 49.4845 19.2985 48.9897 19.2985Z" fill="white"/>
<path d="M31.67 33.5257V24.7422H33.2783V28.4535H35.0102V24.7422H36.6185V33.5257H35.0102V29.5669H33.2783V33.5257H31.67Z" fill="white"/>
<path d="M40.2062 33.6487C39.8351 33.6487 39.464 33.6487 39.2165 33.525C38.9691 33.4013 38.7217 33.2776 38.4743 33.1539C38.3505 33.0302 38.1031 32.7828 37.9794 32.5353C37.8557 32.2879 37.732 32.0405 37.732 31.6694C37.732 31.4219 37.6083 31.0508 37.6083 30.6797V24.8652H39.0928V30.8034C39.0928 31.0508 39.0928 31.1745 39.0928 31.2982C39.0928 31.4219 39.0928 31.5456 39.2165 31.7931C39.2165 31.9168 39.3402 32.0405 39.3402 32.1642C39.4639 32.2879 39.464 32.2879 39.5877 32.4116C39.7114 32.5353 39.8351 32.5353 39.9588 32.5353C40.0825 32.5353 40.2062 32.5353 40.3299 32.4116C40.4536 32.2879 40.5773 32.2879 40.5773 32.1642C40.7011 32.0405 40.7011 31.9168 40.7011 31.7931C40.7011 31.6693 40.7011 31.5456 40.8248 31.2982C40.8248 31.1745 40.8248 30.9271 40.8248 30.8034V24.8652H42.3093V30.6797C42.3093 31.0508 42.3093 31.4219 42.1856 31.6694C42.1856 31.9168 42.0619 32.2879 41.9382 32.5353C41.8145 32.7828 41.6908 33.0302 41.4433 33.1539C41.3196 33.2776 41.0722 33.4013 40.7011 33.525C40.9485 33.525 40.7011 33.6487 40.2062 33.6487Z" fill="white"/>
<path d="M43.9175 33.5257V24.7422H45.0309L47.134 29.6906V24.7422H48.4949V33.5257H47.3814L45.2784 28.3298V33.5257H43.9175Z" fill="white"/>
<path d="M51.835 33.6491C50.969 33.6491 50.4742 33.4017 50.1031 32.9068C49.7319 32.412 49.6082 31.6697 49.6082 30.68V27.8346C49.6082 27.3398 49.6082 26.845 49.7319 26.4738C49.8556 26.1027 49.9794 25.7316 50.1031 25.4841C50.3505 25.2367 50.5979 24.9893 50.8453 24.8656C51.2165 24.7419 51.5876 24.6182 52.0824 24.6182C52.9484 24.6182 53.567 24.8656 53.9381 25.2367C54.3092 25.6079 54.5567 26.3501 54.5567 27.2161V27.5872H53.0721V27.0924C53.0721 26.845 53.0721 26.7212 53.0721 26.5975C53.0721 26.4738 53.0721 26.3501 52.9484 26.2264C52.9484 26.1027 52.8247 25.979 52.8247 25.979C52.701 25.8553 52.701 25.8553 52.5773 25.8553C52.4536 25.8553 52.3299 25.7316 52.2062 25.7316C52.0824 25.7316 51.9587 25.7316 51.835 25.7316C51.7113 25.7316 51.7113 25.8553 51.5876 25.8553C51.4639 25.8553 51.4639 25.979 51.4639 26.1027C51.4639 26.2264 51.3402 26.2264 51.3402 26.3501C51.3402 26.4738 51.3402 26.4738 51.3402 26.5975C51.3402 26.7212 51.3402 26.845 51.3402 26.9687C51.3402 27.0924 51.3402 27.2161 51.3402 27.3398V30.9274C51.3402 31.4223 51.4639 31.7934 51.5876 32.0408C51.7113 32.2883 51.9587 32.412 52.3299 32.412C52.5773 32.412 52.701 32.412 52.8247 32.2883C52.9484 32.1646 53.0721 32.1645 53.0721 31.9171C53.1958 31.7934 53.1959 31.546 53.1959 31.4223C53.1959 31.2986 53.1959 31.0511 53.1959 30.68V30.0615H52.2062V29.0718H54.5567V33.5254H53.567L53.4433 32.6594C53.0721 33.278 52.5773 33.6491 51.835 33.6491Z" fill="white"/>
<path d="M55.6701 33.5257V24.7422H59.3814V25.8556H57.2783V28.4535H58.8866V29.5669H57.2783V32.4123H59.3814V33.5257H55.6701Z" fill="white"/>
<path d="M61.8557 28.4535H62.2269C62.7217 28.4535 63.0929 28.3298 63.2166 28.2061C63.464 27.9587 63.464 27.7113 63.464 27.2164C63.464 26.7216 63.3403 26.4741 63.2166 26.2267C63.0929 25.9793 62.7217 25.9793 62.2269 25.9793H61.732V28.4535H61.8557ZM60.2475 33.5257V24.7422H62.2269C62.7217 24.7422 63.0928 24.7422 63.464 24.8659C63.8351 24.9896 64.0826 25.1133 64.33 25.237C64.5774 25.3608 64.7011 25.6082 64.8248 25.9793C64.9485 26.2267 64.9485 26.5979 64.9485 27.0927C64.9485 27.5876 64.8248 28.0824 64.7011 28.4535C64.5774 28.8247 64.2063 29.0721 63.8351 29.1958L65.0722 33.5257H63.5877L62.598 29.5669H61.8557V33.5257H60.2475Z" fill="white"/>
<path d="M47.8763 102.185V103.917C47.8763 104.288 48.2475 104.659 48.6186 104.659H68.5361C69.031 104.659 69.2784 104.288 69.2784 103.917V101.938C80.5361 98.2262 88.8248 89.1953 90.6805 78.185C90.6805 78.185 90.6805 78.185 90.6805 78.0613V77.9376C90.6805 77.4427 90.3093 77.1953 89.9382 77.1953H26.9691H26.598C26.1031 77.1953 25.732 77.5664 25.732 77.9376V78.3087C27.8351 89.5664 36.3712 98.7211 47.8763 102.185Z" fill="white"/>
<path d="M69.4021 50.2262C69.1547 50.5973 62.9691 59.3808 69.5258 66.556C72.4949 69.7725 72.2475 72.7416 71.3815 74.721H75.5877C76.4536 71.8756 76.0825 68.288 72.7423 64.5767C67.9175 59.3808 72.866 52.2055 72.866 52.0818C73.4846 51.2158 73.1134 50.2261 72.2475 49.7313C71.134 49.1127 69.8969 49.3602 69.4021 50.2262Z" fill="white"/>
<path d="M58.763 74.5974H62.9692C63.8352 71.752 63.464 68.1644 60.1238 64.453C55.2991 59.2572 60.1238 52.0819 60.2475 51.9582C60.8661 51.0922 60.495 50.1025 59.5053 49.6077C58.5156 49.1128 57.2785 49.3603 56.7836 50.2262C56.5362 50.5974 50.3506 59.3809 56.9073 66.5561C59.8764 69.7726 59.629 72.7417 58.763 74.5974Z" fill="white"/>
<path d="M44.165 50.2262C43.9176 50.5973 37.732 59.3808 44.2887 66.556C47.2578 69.7725 47.0103 72.7416 46.1444 74.721H50.3505C51.2165 71.8756 50.8454 68.288 47.5052 64.5767C42.6804 59.3808 47.5052 52.2055 47.6289 52.0818C48.2475 51.2158 47.8763 50.2261 46.8866 49.7313C45.8969 49.1127 44.6598 49.3602 44.165 50.2262Z" fill="white"/>
</g>
<defs>
<clipPath id="clip0_501_30760">
<rect width="120" height="120" rx="2" fill="white"/>
</clipPath>
</defs>
</svg>
