<svg viewBox="0 0 109 109" fill="none" xmlns="http://www.w3.org/2000/svg">
<path d="M108.295 0.547394H0.103577V108.317H108.295V0.547394Z" fill="#DDA63A"/>
<path d="M8.82855 27.3907L13.8206 19.6737L14.1255 19.2157C14.7706 18.2477 15.2466 17.4367 15.5526 16.7827C15.8575 16.1297 16.0106 15.4117 16.0106 14.6307C16.0106 13.9677 15.8835 13.4637 15.6285 13.1157C15.3746 12.7677 15.0085 12.5937 14.5336 12.5937C13.8206 12.5937 13.3276 12.8657 13.0566 13.4087C12.7845 13.9527 12.6486 14.6997 12.6486 15.6497V16.5917H8.82855V15.5737C8.82855 13.6377 9.28259 12.1057 10.1916 10.9767C11.0995 9.84769 12.5215 9.28271 14.4565 9.28271C16.2396 9.28271 17.5936 9.75369 18.5196 10.6967C19.4446 11.6387 19.9076 12.9757 19.9076 14.7077C19.9076 15.4887 19.7886 16.2267 19.5506 16.9227C19.3135 17.6197 19.0326 18.2397 18.7106 18.7827C18.3876 19.3257 17.8866 20.0987 17.2076 21.0997L13.2346 27.0597H19.3726V30.1667H8.82855V27.3907Z" fill="white"/>
<path d="M27.9999 17.4094V16.3724C28.1589 16.3764 28.2839 16.3714 28.3779 16.3584C28.4709 16.3454 28.5659 16.3074 28.6609 16.2424C28.7559 16.1774 28.8299 16.0864 28.8819 15.9704C28.9339 15.8554 28.9869 15.6894 29.0389 15.4714C29.0909 15.2544 29.1339 14.9944 29.1679 14.6924C29.1999 14.3894 29.2309 14.0114 29.2599 13.5574L29.5219 9.52542H33.3679V17.4094H31.9319V10.6004H30.7869L30.6149 13.7054C30.5959 14.0284 30.5769 14.3054 30.5559 14.5354C30.5349 14.7644 30.5079 15.0044 30.4749 15.2534C30.4419 15.5024 30.4019 15.7094 30.3559 15.8764C30.3099 16.0424 30.2529 16.2114 30.1849 16.3824C30.1169 16.5534 30.0379 16.6924 29.9469 16.7984C29.8569 16.9044 29.7499 17.0054 29.6259 17.1004C29.5029 17.1954 29.3609 17.2644 29.2029 17.3094C29.0439 17.3544 28.8649 17.3854 28.6649 17.4044C28.4659 17.4234 28.2439 17.4244 27.9999 17.4094Z" fill="white"/>
<path d="M34.5272 17.4094V9.52542H35.7202V14.4514L37.8602 9.52542H38.8401V17.4094H37.6322V12.3874L35.4872 17.4094H34.5272Z" fill="white"/>
<path d="M39.9989 17.4094V9.52542H41.4349V12.8444H41.7148L42.9899 9.52542H44.4159L42.9379 13.2444L44.5349 17.4094H43.0799L41.7198 13.7384H41.4349V17.4094H39.9989Z" fill="white"/>
<path d="M45.2087 17.4096V9.52661H47.1387C47.5046 9.52661 47.8227 9.55762 48.0956 9.62363C48.3677 9.68863 48.6097 9.79663 48.8207 9.94662C49.0306 10.0976 49.1897 10.3056 49.2957 10.5716C49.4017 10.8386 49.4537 11.1596 49.4507 11.5366C49.4467 12.5106 49.0616 13.0536 48.2947 13.1686C49.2177 13.3426 49.6797 13.9946 49.6837 15.1216C49.6866 15.8706 49.4987 16.4386 49.1216 16.8266C48.7447 17.2156 48.1946 17.4096 47.4717 17.4096H45.2087ZM46.6447 12.7396H47.0917C47.5167 12.7396 47.8087 12.6496 47.9667 12.4686C48.1257 12.2886 48.2047 11.9836 48.2047 11.5566C48.2047 11.3346 48.1777 11.1536 48.1257 11.0166C48.0737 10.8786 47.9857 10.7746 47.8627 10.7056C47.7386 10.6356 47.6017 10.5896 47.4507 10.5676C47.2997 10.5446 47.0997 10.5336 46.8497 10.5336H46.6447V12.7396ZM46.6447 16.3966H47.1727C47.6037 16.3966 47.9007 16.2976 48.0647 16.0976C48.2277 15.8976 48.3087 15.5676 48.3087 15.1076C48.3087 14.6326 48.2167 14.2876 48.0306 14.0736C47.8456 13.8606 47.5337 13.7526 47.0967 13.7526H46.6447V16.3966Z" fill="white"/>
<path d="M50.5713 17.4094V9.52542H51.7643V14.4514L53.9043 9.52542H54.8843V17.4094H53.6763V12.3874L51.5312 17.4094H50.5713Z" fill="white"/>
<path d="M55.5723 18.9739V16.3869H55.8863C56.0573 16.2859 56.2073 16.1489 56.3353 15.9779C56.4633 15.8069 56.5883 15.5609 56.7083 15.2409C56.8293 14.9209 56.9293 14.4919 57.0103 13.9529C57.0912 13.4139 57.1523 12.7639 57.1933 12.0029L57.3453 9.52591H60.8643V16.3869H61.6963V18.9739H60.6733L60.5793 17.4099H56.7183L56.6233 18.9739H55.5723ZM57.2173 16.3869H59.4803V10.5619H58.4922L58.4203 12.2409C58.4012 12.6779 58.3733 13.0769 58.3373 13.4349C58.3003 13.7929 58.2623 14.0949 58.2233 14.3429C58.1833 14.5899 58.1283 14.8189 58.0593 15.0289C57.9893 15.2409 57.9303 15.4049 57.8802 15.5239C57.8323 15.6429 57.7603 15.7649 57.6663 15.8899C57.5732 16.0159 57.5013 16.1039 57.4503 16.1559C57.3993 16.2089 57.3223 16.2859 57.2173 16.3869Z" fill="white"/>
<path d="M62.0182 17.409L63.6213 9.526H65.1193L66.7162 17.409H65.3802L65.0613 15.579H63.6973L63.3733 17.409H62.0182ZM63.8493 14.642H64.9053L64.3773 11.404L63.8493 14.642Z" fill="white"/>
<path d="M71.9503 18.9738L71.7983 17.4098H67.4573V9.52679H68.8923V16.4158H70.6803V9.52679H72.1122V16.4158H73.0253V18.9738H71.9503Z" fill="white"/>
<path d="M73.7943 17.4094V9.52542H74.9873V14.4514L77.1273 9.52542H78.1073V17.4094H76.8993V12.3874L74.7543 17.4094H73.7943Z" fill="white"/>
<path d="M78.762 17.41L80.355 13.886C80.022 13.712 79.758 13.445 79.561 13.087C79.364 12.729 79.266 12.295 79.266 11.785C79.266 11.017 79.476 10.449 79.896 10.08C80.316 9.70999 80.973 9.526 81.8669 9.526H83.64V17.41H82.205V14.219H81.776H81.606L80.341 17.41H78.762ZM81.938 13.201H82.205V10.529H81.914C81.473 10.529 81.146 10.631 80.9319 10.833C80.718 11.036 80.611 11.353 80.611 11.785C80.611 12.26 80.713 12.615 80.916 12.85C81.119 13.084 81.46 13.201 81.938 13.201Z" fill="white"/>
<path d="M28.5847 30.2932V22.4092H31.8887V23.4702H30.0207V30.2932H28.5847Z" fill="white"/>
<path d="M34.7646 30.3886C33.9537 30.3886 33.3716 30.1686 33.0197 29.7276C32.6677 29.2866 32.4917 28.6426 32.4917 27.7926V24.8826C32.4917 24.4636 32.5317 24.1016 32.6107 23.7936C32.6897 23.4866 32.8177 23.2196 32.9937 22.9946C33.1697 22.7696 33.4047 22.6006 33.6996 22.4886C33.9947 22.3756 34.3497 22.3196 34.7646 22.3196C35.5737 22.3196 36.1537 22.5366 36.5067 22.9706C36.8607 23.4056 37.0377 24.0416 37.0377 24.8826V27.7926C37.0377 28.2046 36.9977 28.5666 36.9167 28.8786C36.8357 29.1916 36.7067 29.4626 36.5307 29.6916C36.3547 29.9216 36.1197 30.0956 35.8257 30.2126C35.5307 30.3296 35.1767 30.3886 34.7646 30.3886ZM34.4057 29.2616C34.5057 29.3026 34.6247 29.3236 34.7646 29.3236C34.9037 29.3236 35.0226 29.3026 35.1207 29.2616C35.2197 29.2206 35.2977 29.1666 35.3567 29.0996C35.4156 29.0336 35.4617 28.9466 35.4947 28.8386C35.5276 28.7306 35.5497 28.6226 35.5616 28.5146C35.5717 28.4076 35.5777 28.2786 35.5777 28.1296V24.5496C35.5777 24.3596 35.5687 24.2016 35.5497 24.0746C35.5307 23.9476 35.4927 23.8276 35.4377 23.7146C35.3817 23.6026 35.2986 23.5186 35.1877 23.4626C35.0767 23.4076 34.9357 23.3796 34.7646 23.3796C34.5937 23.3796 34.4517 23.4076 34.3397 23.4626C34.2267 23.5186 34.1437 23.6026 34.0897 23.7146C34.0356 23.8276 33.9987 23.9476 33.9807 24.0746C33.9617 24.2016 33.9517 24.3596 33.9517 24.5496V28.1296C33.9517 28.2786 33.9567 28.4076 33.9677 28.5146C33.9797 28.6226 34.0016 28.7306 34.0347 28.8386C34.0677 28.9466 34.1136 29.0336 34.1707 29.0996C34.2277 29.1666 34.3057 29.2206 34.4057 29.2616Z" fill="white"/>
<path d="M37.4691 30.2932V29.2572C37.6281 29.2602 37.7531 29.2552 37.847 29.2422C37.9401 29.2302 38.0351 29.1912 38.1301 29.1262C38.2251 29.0612 38.2991 28.9712 38.3511 28.8542C38.4041 28.7392 38.4561 28.5732 38.5081 28.3562C38.5601 28.1392 38.6031 27.8782 38.6371 27.5762C38.6691 27.2732 38.7001 26.8952 38.7291 26.4422L38.9911 22.4092H42.8371V30.2932H41.4011V23.4842H40.256L40.084 26.5892C40.0651 26.9122 40.0461 27.1892 40.0251 27.4192C40.0041 27.6492 39.9771 27.8882 39.9441 28.1372C39.9111 28.3862 39.8711 28.5932 39.8251 28.7602C39.7791 28.9262 39.722 29.0952 39.6541 29.2662C39.5861 29.4372 39.5071 29.5762 39.4161 29.6822C39.326 29.7882 39.2191 29.8902 39.0951 29.9842C38.972 30.0792 38.8311 30.1492 38.6721 30.1942C38.5131 30.2382 38.334 30.2692 38.1351 30.2882C37.9351 30.3072 37.7131 30.3092 37.4691 30.2932Z" fill="white"/>
<path d="M46.1268 30.3886C45.3148 30.3886 44.7328 30.1686 44.3818 29.7276C44.0298 29.2866 43.8538 28.6426 43.8538 27.7926V24.8826C43.8538 24.4636 43.8938 24.1016 43.9728 23.7936C44.0518 23.4866 44.1797 23.2196 44.3558 22.9946C44.5318 22.7696 44.7668 22.6006 45.0618 22.4886C45.3568 22.3756 45.7108 22.3196 46.1268 22.3196C46.9348 22.3196 47.5157 22.5366 47.8688 22.9706C48.2228 23.4056 48.3998 24.0416 48.3998 24.8826V27.7926C48.3998 28.2046 48.3588 28.5666 48.2778 28.8786C48.1968 29.1916 48.0688 29.4626 47.8928 29.6916C47.7168 29.9216 47.4818 30.0956 47.1868 30.2126C46.8918 30.3296 46.5388 30.3886 46.1268 30.3886ZM45.7678 29.2616C45.8668 29.3026 45.9868 29.3236 46.1268 29.3236C46.2657 29.3236 46.3848 29.3026 46.4828 29.2616C46.5807 29.2206 46.6598 29.1666 46.7188 29.0996C46.7778 29.0336 46.8238 28.9466 46.8568 28.8386C46.8898 28.7306 46.9118 28.6226 46.9228 28.5146C46.9338 28.4076 46.9398 28.2786 46.9398 28.1296V24.5496C46.9398 24.3596 46.9297 24.2016 46.9108 24.0746C46.8918 23.9476 46.8548 23.8276 46.7988 23.7146C46.7438 23.6026 46.6608 23.5186 46.5498 23.4626C46.4388 23.4076 46.2978 23.3796 46.1268 23.3796C45.9557 23.3796 45.8128 23.4076 45.7018 23.4626C45.5888 23.5186 45.5048 23.6026 45.4518 23.7146C45.3978 23.8276 45.3608 23.9476 45.3418 24.0746C45.3228 24.2016 45.3138 24.3596 45.3138 24.5496V28.1296C45.3138 28.2786 45.3188 28.4076 45.3298 28.5146C45.3418 28.6226 45.3638 28.7306 45.3968 28.8386C45.4297 28.9466 45.4758 29.0336 45.5318 29.0996C45.5898 29.1666 45.6678 29.2206 45.7678 29.2616Z" fill="white"/>
<path d="M48.9453 31.8572V29.2712H49.2593C49.4303 29.1702 49.5803 29.0332 49.7083 28.8622C49.8362 28.6912 49.9612 28.4452 50.0813 28.1252C50.2023 27.8052 50.3022 27.3752 50.3833 26.8372C50.4643 26.2982 50.5253 25.6472 50.5663 24.8872L50.7183 22.4092H54.2372V29.2712H55.0693V31.8572H54.0463L53.9523 30.2932H50.0903L49.9963 31.8572H48.9453ZM50.5903 29.2712H52.8533V23.4462H51.8643L51.7933 25.1252C51.7743 25.5622 51.7463 25.9602 51.7103 26.3182C51.6733 26.6772 51.6353 26.9792 51.5963 27.2272C51.5563 27.4742 51.5013 27.7032 51.4323 27.9132C51.3622 28.1252 51.3033 28.2892 51.2533 28.4082C51.2043 28.5272 51.1333 28.6492 51.0392 28.7742C50.9463 28.9002 50.8743 28.9882 50.8232 29.0402C50.7723 29.0932 50.6953 29.1702 50.5903 29.2712Z" fill="white"/>
<path d="M55.3921 30.2933L56.9941 22.4103H58.4921L60.0891 30.2933H58.7531L58.4341 28.4633H57.0701L56.7471 30.2933H55.3921ZM57.2221 27.5263H58.2781L57.7501 24.2873L57.2221 27.5263Z" fill="white"/>
<path d="M43.2076 92.2327V93.7607C43.2066 93.7717 43.2026 93.7837 43.2026 93.7947C43.2026 93.8087 43.2066 93.8197 43.2076 93.8317C43.2236 94.2087 43.5316 94.5107 43.9126 94.5177C43.9166 94.5177 43.9206 94.5207 43.9266 94.5207C43.9316 94.5207 43.9386 94.5177 43.9436 94.5177H61.8726C61.8776 94.5177 61.8816 94.5207 61.8876 94.5207C61.8936 94.5207 61.8986 94.5177 61.9036 94.5177C62.2956 94.5107 62.6076 94.1927 62.6106 93.8007L62.6136 93.7947L62.6106 93.7897V92.0607C72.7026 88.7517 80.2646 80.5717 81.9266 70.6037C81.9306 70.5817 81.9336 70.5617 81.9366 70.5437C81.9426 70.5087 81.9466 70.4767 81.9466 70.4437C81.9466 70.0427 81.6236 69.7187 81.2216 69.7187H24.4236H24.0806C23.6786 69.7187 23.3546 70.0427 23.3546 70.4437L23.3916 70.7697C25.1386 80.8337 32.9076 89.0587 43.2076 92.2327Z" fill="white"/>
<path d="M62.5942 45.3312C62.3581 45.6662 56.8382 53.6142 62.7172 60.0412C65.4131 62.9902 65.1802 65.5932 64.4102 67.3512H68.1822C68.9452 64.7562 68.6302 61.5002 65.5682 58.1552C61.2362 53.4192 65.6232 47.0182 65.6891 46.9192C66.2062 46.1892 65.9292 45.2472 65.0771 44.8082C64.2222 44.3722 63.1132 44.6052 62.5942 45.3312Z" fill="white"/>
<path d="M53.0429 67.351H56.8149C57.5779 64.755 57.2619 61.501 54.1999 58.155C49.8659 53.418 54.2508 47.021 54.3199 46.916C54.8338 46.189 54.5619 45.249 53.7059 44.809C52.8539 44.374 51.7439 44.605 51.2268 45.331C50.9898 45.665 45.4649 53.614 51.3489 60.041C54.0448 62.991 53.8108 65.594 53.0429 67.351Z" fill="white"/>
<path d="M39.8568 45.3312C39.6178 45.6662 34.0978 53.6142 39.9788 60.0412C42.6758 62.9912 42.4428 65.5942 41.6748 67.3512H45.4458C46.2088 64.7572 45.8928 61.5012 42.8288 58.1552C38.4958 53.4192 42.8828 47.0182 42.9518 46.9162C43.4648 46.1892 43.1918 45.2472 42.3358 44.8082C41.4848 44.3692 40.3738 44.6042 39.8568 45.3312Z" fill="white"/>
</svg>
