<svg width="120" height="60" viewBox="0 0 120 60" fill="none" xmlns="http://www.w3.org/2000/svg">
<g clip-path="url(#clip0_501_30781)">
<path d="M64 0H0V60H64V0Z" fill="#EF412A"/>
<path d="M6.46594 16.4537C6.00409 16.2063 5.67421 15.7733 5.54225 15.2784C5.34432 14.7836 5.27832 14.1032 5.27832 13.3609H7.52164C7.52164 14.0413 7.58761 14.4743 7.71957 14.7836C7.85152 15.0929 8.11545 15.2166 8.51133 15.2166C8.84122 15.2166 9.03916 15.0929 9.17112 14.9073C9.30308 14.7217 9.36903 14.4743 9.43501 14.165C9.50099 13.8558 9.50102 13.3609 9.50102 12.7424C9.50102 12.0619 9.43505 11.5052 9.30309 11.196C9.17113 10.8248 8.90718 10.7011 8.44532 10.7011C7.91749 10.7011 7.58761 11.0722 7.38967 11.7527H5.41029L5.60822 5.25781H11.2165V7.11348H7.52164L7.38967 9.64957C7.52163 9.464 7.78553 9.34029 8.11543 9.21658C8.44532 9.09287 8.84121 9.03101 9.23708 9.03101C10.0948 9.03101 10.6886 9.34029 11.1505 9.95885C11.5464 10.5774 11.8103 11.5052 11.8103 12.6186C11.8103 13.5465 11.7443 14.2887 11.5464 14.8454C11.3484 15.464 11.0185 15.897 10.5567 16.2681C10.0948 16.6393 9.36906 16.763 8.51133 16.763C7.52164 16.8867 6.9278 16.763 6.46594 16.4537Z" fill="white"/>
<path d="M18.0124 9.65023C17.5505 9.65023 17.2866 9.52652 17.0887 9.27909C16.8908 9.03167 16.8248 8.66053 16.8248 8.16569V6.74302C16.8248 6.49559 16.8248 6.24817 16.8908 6.0626C16.9568 5.87703 17.0227 5.69146 17.0887 5.56775C17.2207 5.44404 17.3526 5.32033 17.4846 5.25848C17.6825 5.19662 17.8804 5.13477 18.1444 5.13477C18.6062 5.13477 18.9361 5.25848 19.134 5.44404C19.332 5.62961 19.4639 6.00075 19.4639 6.43374V6.6193H18.6062V6.37188C18.6062 6.24817 18.6062 6.18632 18.6062 6.12446C18.6062 6.0626 18.6062 6.00075 18.5403 5.93889C18.5403 5.87704 18.4743 5.81518 18.4743 5.81518C18.4083 5.75333 18.4083 5.75332 18.3423 5.75332C18.2763 5.75332 18.2103 5.69146 18.1444 5.69146C18.0784 5.69146 18.0124 5.69146 17.9464 5.69146C17.8804 5.69146 17.8804 5.75332 17.8145 5.75332C17.7485 5.75332 17.7485 5.81518 17.7485 5.87703C17.7485 5.93889 17.6825 5.93889 17.6825 6.00074C17.6825 6.0626 17.6825 6.0626 17.6825 6.12446C17.6825 6.18632 17.6825 6.24816 17.6825 6.31002C17.6825 6.37188 17.6825 6.43373 17.6825 6.49559V8.28941C17.6825 8.53683 17.7485 8.72239 17.8145 8.84611C17.8804 8.96982 18.0124 9.03167 18.2104 9.03167C18.3423 9.03167 18.4083 9.03167 18.4743 8.96982C18.5402 8.90796 18.6062 8.90796 18.6062 8.78425C18.6722 8.72239 18.6722 8.59868 18.6722 8.53683C18.6722 8.41312 18.6722 8.35126 18.6722 8.16569V7.79456H18.1444V7.29971H19.398V9.52652H18.8702L18.8041 9.09352C18.6722 9.52651 18.4083 9.65023 18.0124 9.65023Z" fill="white"/>
<path d="M20.0577 9.58771V5.25781H22.0371V5.81452H20.9154V7.05163H21.7731V7.60833H20.9154V9.03101H22.0371V9.58771H20.0577Z" fill="white"/>
<path d="M22.499 9.58771V5.25781H23.0928L24.2144 7.73204V5.25781H24.9402V9.58771H24.3464L23.2247 6.98977V9.58771H22.499Z" fill="white"/>
<path d="M26.4577 9.03036H26.7216C26.7876 9.03036 26.8536 9.03036 26.9196 9.03036C26.9855 9.03036 27.0515 9.03036 27.0515 8.9685C27.1175 8.9685 27.1175 8.90665 27.1835 8.84479C27.1835 8.78294 27.2495 8.78294 27.2495 8.72108C27.2495 8.65923 27.2495 8.65923 27.3155 8.53552C27.3155 8.47366 27.3155 8.4118 27.3155 8.34995C27.3155 8.28809 27.3155 8.22624 27.3155 8.10253V6.49428C27.3155 6.37056 27.3155 6.30871 27.3155 6.24686C27.3155 6.185 27.3155 6.12314 27.3155 6.06129C27.3155 5.99943 27.2495 5.93758 27.2495 5.93758C27.2495 5.93758 27.1835 5.87572 27.1175 5.81387C27.0516 5.81387 26.9855 5.75201 26.9196 5.75201C26.8536 5.75201 26.7876 5.75201 26.6557 5.75201H26.3917V9.03036H26.4577ZM25.6 9.58706V5.19531H26.6557C26.9196 5.19531 27.1835 5.19531 27.3814 5.25716C27.5794 5.31902 27.7113 5.38088 27.8433 5.50459C27.9752 5.6283 28.0412 5.75201 28.1072 5.93758C28.1732 6.12315 28.1732 6.30871 28.1732 6.55614V8.16438C28.1732 8.4118 28.1732 8.59737 28.1072 8.78293C28.0412 8.9685 27.9752 9.09222 27.8433 9.21593C27.7113 9.33964 27.5794 9.40149 27.3814 9.46335C27.1835 9.52521 26.9856 9.52521 26.7216 9.52521H25.6V9.58706Z" fill="white"/>
<path d="M28.767 9.58771V5.25781H30.6803V5.81452H29.6247V7.05163H30.4824V7.60833H29.6247V9.03101H30.7463V9.58771H28.767Z" fill="white"/>
<path d="M31.9999 7.11283H32.1979C32.4618 7.11283 32.6598 7.05098 32.7257 6.98912C32.8577 6.86541 32.8577 6.7417 32.8577 6.49428C32.8577 6.24685 32.7917 6.12314 32.7257 5.99943C32.6598 5.87572 32.4618 5.87572 32.1979 5.87572H31.934V7.11283H31.9999ZM31.1422 9.58706V5.19531H32.1979C32.4618 5.19531 32.6597 5.19531 32.8577 5.25716C33.0556 5.31902 33.1876 5.38088 33.3195 5.44273C33.4515 5.50459 33.5175 5.6283 33.5835 5.81387C33.6494 5.93758 33.6494 6.12314 33.6494 6.37057C33.6494 6.61799 33.5834 6.86542 33.5175 7.05098C33.4515 7.23655 33.2536 7.36026 33.0556 7.42211L33.7154 9.58706H32.8577L32.3298 7.60768H31.934V9.58706H31.1422Z" fill="white"/>
<path d="M16.8907 16.7628V12.3711H18.8041V12.9278H17.7484V14.2268H18.6061V14.7835H17.7484V16.2061H18.8701V16.7628H16.8907Z" fill="white"/>
<path d="M20.3876 16.2055C20.4536 16.2055 20.5196 16.2674 20.5856 16.2674C20.6515 16.2674 20.7175 16.2673 20.7835 16.2055C20.8495 16.2055 20.9155 16.1436 20.9155 16.1436C20.9814 16.0818 20.9814 16.0818 20.9814 16.0199C20.9814 15.9581 20.9814 15.8962 21.0474 15.8344C21.0474 15.7725 21.0474 15.7107 21.0474 15.6488V13.6694C21.0474 13.5457 21.0474 13.4838 21.0474 13.422C21.0474 13.3601 20.9814 13.2983 20.9814 13.2364C20.9814 13.1746 20.9155 13.1127 20.8495 13.1127C20.7835 13.1127 20.7175 13.0509 20.5856 13.0509C20.4536 13.0509 20.3876 13.0509 20.3216 13.1127C20.2557 13.1746 20.1897 13.1746 20.1897 13.2364C20.1897 13.2983 20.1237 13.3601 20.1237 13.422C20.1237 13.4838 20.1237 13.6076 20.1237 13.6694V15.6488C20.1237 15.7107 20.1237 15.7725 20.1237 15.8344C20.1237 15.8962 20.1237 15.9581 20.1897 16.0199C20.1897 16.0818 20.2557 16.1436 20.2557 16.1436C20.2557 16.1436 20.3217 16.1436 20.3876 16.2055ZM21.5753 17.6282C21.4433 17.5663 21.3113 17.4426 21.1134 17.3189C20.9155 17.1333 20.7835 17.0096 20.6515 16.824H20.5856C20.1237 16.824 19.7938 16.7003 19.5299 16.4529C19.332 16.2055 19.2 15.8344 19.2 15.4014V13.7931C19.2 13.5457 19.2 13.3601 19.266 13.1746C19.332 12.989 19.3979 12.8653 19.4639 12.7416C19.5959 12.6179 19.7278 12.4942 19.8598 12.4323C20.0577 12.3704 20.2557 12.3086 20.5196 12.3086C20.9815 12.3086 21.3113 12.4323 21.5753 12.6797C21.7732 12.9271 21.9052 13.2983 21.9052 13.7313V15.3395C21.9052 16.0199 21.7072 16.4529 21.2454 16.6385C21.4433 16.8241 21.5753 17.0096 21.7072 17.0715L21.5753 17.6282Z" fill="white"/>
<path d="M23.8186 16.8253C23.6206 16.8253 23.4227 16.8253 23.2907 16.7635C23.1587 16.7016 23.0268 16.6398 22.8948 16.5779C22.7629 16.5161 22.6969 16.3924 22.6309 16.2686C22.5649 16.1449 22.499 16.0212 22.499 15.8357C22.499 15.7119 22.433 15.5264 22.433 15.3408V12.4336H23.2247V15.4027C23.2247 15.5264 23.2247 15.5882 23.2247 15.6501C23.2247 15.7119 23.2247 15.7738 23.2907 15.8975C23.2907 15.9594 23.3567 16.0212 23.3567 16.0831C23.4227 16.1449 23.4227 16.1449 23.4887 16.2068C23.5547 16.2686 23.6206 16.2686 23.6866 16.2686C23.7526 16.2686 23.8186 16.2686 23.8845 16.2068C23.9505 16.1449 24.0165 16.1449 24.0165 16.0831C24.0165 16.0212 24.0825 15.9594 24.0825 15.8975C24.0825 15.8356 24.0825 15.7738 24.1485 15.6501C24.1485 15.5882 24.1485 15.4645 24.1485 15.4027V12.4336H24.9402V15.3408C24.9402 15.5264 24.9402 15.7119 24.8742 15.8357C24.8742 15.9594 24.8082 16.1449 24.7423 16.2686C24.6763 16.3924 24.6103 16.5161 24.4784 16.5779C24.3464 16.6398 24.2804 16.7016 24.0825 16.7635C24.1484 16.7635 24.0165 16.8253 23.8186 16.8253Z" fill="white"/>
<path d="M26.5896 15.2165H27.1835L26.8536 13.4226L26.5896 15.2165ZM25.468 16.7628L26.3917 12.3711H27.2494L28.1732 16.7628H27.3814L27.1835 15.7732H26.3917L26.1938 16.7628H25.468Z" fill="white"/>
<path d="M28.701 16.7628V12.3711H29.5588V16.2061H30.6804V16.7628H28.701Z" fill="white"/>
<path d="M31.9999 12.3711H31.1422V16.7628H31.9999V12.3711Z" fill="white"/>
<path d="M33.1217 16.7628V12.9897H32.3299V12.3711H34.7052V12.9897H33.9134V16.7628H33.1217Z" fill="white"/>
<path d="M35.6948 16.7628V15.0927L34.7711 12.3711H35.5629L36.0907 14.1031L36.6845 12.3711H37.4763L36.4866 15.0927V16.7628H35.6948Z" fill="white"/>
<path d="M31.934 43.6702C27.7113 43.6702 24.2144 40.4538 24.2144 36.4331C24.2144 32.4125 27.6454 29.196 31.934 29.196C36.2227 29.196 39.6536 32.4125 39.6536 36.4331C39.6536 40.4538 36.1567 43.6702 31.934 43.6702ZM46.7134 22.7012H38.7299C38.6639 22.7012 38.5979 22.763 38.5979 22.8249V25.2991C38.5979 25.361 38.6639 25.4228 38.7299 25.4228H41.8969L38.334 28.763C36.5526 27.4641 34.3093 26.6599 31.868 26.6599C26.1278 26.6599 21.3773 31.0517 21.3773 36.495C21.3773 41.5053 25.3361 45.5878 30.4825 46.2063V49.0517H27.3155C27.2495 49.0517 27.1835 49.1135 27.1835 49.1754V51.8352C27.1835 51.8971 27.2495 51.9589 27.3155 51.9589H30.4825V54.8043C30.4825 54.8661 30.5485 54.928 30.6144 54.928H33.4515C33.5175 54.928 33.5835 54.8661 33.5835 54.8043V51.9589H36.7505C36.8165 51.9589 36.8825 51.8971 36.8825 51.8352V49.1754C36.8825 49.1135 36.8165 49.0517 36.7505 49.0517H33.5835V46.1445C38.532 45.4022 42.3588 41.3197 42.3588 36.4331C42.3588 34.33 41.633 32.4125 40.4453 30.8043L43.9423 27.5259V30.3094C43.9423 30.3713 44.0082 30.4331 44.0742 30.4331H46.7134C46.7794 30.4331 46.8453 30.3713 46.8453 30.3094V22.8249C46.8453 22.763 46.7794 22.7012 46.7134 22.7012Z" fill="white"/>
<path d="M36.6185 33.4629H27.2494C27.1834 33.4629 27.1175 33.5247 27.1175 33.5247V35.6278C27.1175 35.6897 27.1834 35.6897 27.2494 35.6897H36.6185C36.6845 35.6897 36.7505 35.6278 36.7505 35.6278V33.5247C36.7505 33.4629 36.6845 33.4629 36.6185 33.4629Z" fill="white"/>
<path d="M36.6185 37.2363H27.2494C27.1834 37.2363 27.1175 37.2982 27.1175 37.2982V39.4013C27.1175 39.4631 27.1834 39.4631 27.2494 39.4631H36.6185C36.6845 39.4631 36.7505 39.4013 36.7505 39.4013V37.2982C36.7505 37.2982 36.6845 37.2363 36.6185 37.2363Z" fill="white"/>
</g>
<g clip-path="url(#clip1_501_30781)">
<path d="M120 0H60V60H120V0Z" fill="#E01A83"/>
<path d="M65.2578 7.48462C65.134 7.54648 64.8248 7.67019 64.3299 7.85576C63.9588 7.97947 63.7114 8.10318 63.5876 8.10318V6.49493C63.8969 6.37121 64.2681 6.18565 64.7629 5.93823C65.1959 5.69081 65.567 5.44338 65.7526 5.25781H67.4846V16.7011H65.3196V7.48462H65.2578Z" fill="white"/>
<path d="M72.4331 13.484V8.41183C72.4331 7.97884 72.3712 7.6077 72.2475 7.36027C72.1238 7.11285 71.9382 6.92729 71.5671 6.92729C71.1959 6.92729 70.9485 7.05099 70.8867 7.36027C70.7629 7.66955 70.7011 7.97884 70.7011 8.41183V13.484C70.7011 14.4118 71.0104 14.9067 71.5671 14.9067C72.1856 14.9067 72.4331 14.4737 72.4331 13.484ZM69.3403 15.9582C68.8454 15.3397 68.5361 14.5355 68.5361 13.5458V8.41183C68.5361 7.36028 68.7836 6.55616 69.2784 5.9376C69.7733 5.31904 70.5774 5.00977 71.5671 5.00977C72.5567 5.00977 73.3609 5.31904 73.8557 5.9376C74.3506 6.55616 74.598 7.36028 74.598 8.41183V13.5458C74.598 14.5355 74.3506 15.3397 73.7939 15.9582C73.2372 16.5768 72.4949 16.886 71.5052 16.886C70.6392 16.8242 69.8351 16.5768 69.3403 15.9582Z" fill="white"/>
<path d="M79.9795 7.05098H80.165C80.4125 7.05098 80.598 6.98914 80.6599 6.92728C80.7836 6.80357 80.7836 6.67985 80.7836 6.43243C80.7836 6.185 80.7217 6.0613 80.6599 5.93759C80.598 5.81388 80.4125 5.81387 80.165 5.81387H79.9176V7.05098H79.9795ZM79.1754 9.58707V5.19531H80.165C80.4125 5.19531 80.598 5.19532 80.7836 5.25717C80.9692 5.31903 81.0929 5.38088 81.2166 5.44273C81.3403 5.50459 81.4021 5.6283 81.464 5.81387C81.5259 5.99944 81.5259 6.12314 81.5259 6.37057C81.5259 6.61799 81.464 6.86542 81.4022 7.05098C81.3403 7.23655 81.1547 7.36026 80.9692 7.42212L81.5877 9.58707H80.7836L80.2887 7.60768H79.9176V9.58707H79.1754Z" fill="white"/>
<path d="M82.0206 9.58707V5.19531H83.8763V5.75201H82.8247V7.05098H83.6289V7.60768H82.8247V9.03037H83.8763V9.58707H82.0206Z" fill="white"/>
<path d="M84.9897 9.03037H85.2371C85.2989 9.03037 85.3608 9.03037 85.4227 9.03037C85.4845 9.03037 85.5464 9.03037 85.5464 8.96851C85.6082 8.96851 85.6082 8.90665 85.6701 8.84479C85.6701 8.78294 85.7319 8.78295 85.7319 8.72109C85.7319 8.65924 85.7319 8.65923 85.7938 8.53552C85.7938 8.47366 85.7938 8.41181 85.7938 8.34996C85.7938 8.2881 85.7938 8.22625 85.7938 8.10254V6.49429C85.7938 6.37057 85.7938 6.30872 85.7938 6.24687C85.7938 6.18501 85.7938 6.12314 85.7938 6.06129C85.7938 5.99943 85.7319 5.93759 85.7319 5.93759C85.7319 5.87573 85.6701 5.87572 85.6082 5.81387C85.5464 5.81387 85.4845 5.75201 85.4227 5.75201C85.3608 5.75201 85.2989 5.75201 85.1752 5.75201H84.9278V9.03037H84.9897ZM84.1855 9.58707V5.19531H85.1752C85.4226 5.19531 85.6701 5.19532 85.8556 5.25717C86.0412 5.31903 86.1649 5.38088 86.2886 5.50459C86.4123 5.6283 86.4742 5.75202 86.5361 5.93759C86.5979 6.12316 86.5979 6.30872 86.5979 6.55614V8.1644C86.5979 8.41182 86.5979 8.59739 86.5361 8.78295C86.4742 8.96852 86.4123 9.09222 86.2886 9.21593C86.1649 9.33964 86.0412 9.40149 85.8556 9.46335C85.6701 9.52521 85.4845 9.52521 85.2371 9.52521H84.1855V9.58707Z" fill="white"/>
<path d="M88.268 9.64957C88.0824 9.64957 87.8969 9.64957 87.7732 9.58771C87.6495 9.52585 87.5257 9.46401 87.402 9.40215C87.3402 9.34029 87.2165 9.21658 87.1546 9.09287C87.0928 8.96916 87.0309 8.84544 87.0309 8.65987C87.0309 8.53616 86.9691 8.3506 86.9691 8.16504V5.25781H87.7113V8.22688C87.7113 8.35059 87.7113 8.41246 87.7113 8.47432C87.7113 8.53617 87.7113 8.59802 87.7732 8.72173C87.7732 8.78359 87.835 8.84544 87.835 8.90729C87.8969 8.96915 87.8969 8.96916 87.9587 9.03101C88.0206 9.09287 88.0825 9.09287 88.1443 9.09287C88.2062 9.09287 88.268 9.09287 88.3299 9.03101C88.3917 8.96916 88.4536 8.96915 88.4536 8.90729C88.5154 8.84544 88.5154 8.78359 88.5154 8.72173C88.5154 8.65988 88.5154 8.59803 88.5773 8.47432C88.5773 8.41246 88.5773 8.28873 88.5773 8.22688V5.25781H89.3196V8.16504C89.3196 8.3506 89.3196 8.53616 89.2577 8.65987C89.2577 8.78359 89.1959 8.96916 89.134 9.09287C89.0721 9.21658 89.0103 9.34029 88.8866 9.40215C88.7629 9.46401 88.701 9.52585 88.5154 9.58771C88.6392 9.58771 88.4536 9.64957 88.268 9.64957Z" fill="white"/>
<path d="M91.1134 9.65024C90.9278 9.65024 90.7422 9.65024 90.6185 9.58838C90.4948 9.52653 90.3711 9.46468 90.2474 9.40282C90.1237 9.34097 90.0618 9.21725 90 9.09354C89.9381 8.96983 89.8763 8.84611 89.8763 8.66055C89.8763 8.53683 89.8144 8.35128 89.8144 8.16571V6.61932C89.8144 6.43375 89.8144 6.24817 89.8763 6.12446C89.8763 6.00075 89.9381 5.81519 90 5.69148C90.0618 5.56777 90.1237 5.44406 90.2474 5.3822C90.3711 5.32035 90.433 5.25848 90.6185 5.19663C90.8041 5.13477 90.9278 5.13477 91.1134 5.13477C91.3608 5.13477 91.5464 5.13477 91.6701 5.19663C91.7938 5.25848 91.9175 5.32033 92.0412 5.44404C92.1031 5.56776 92.1649 5.69147 92.2268 5.81518C92.2886 5.93889 92.2886 6.12446 92.2886 6.37188V6.74302H91.5464V6.37188C91.5464 6.12446 91.5464 6.00076 91.4845 5.9389C91.4226 5.81519 91.2989 5.69148 91.1752 5.69148H91.1134C91.0515 5.69148 90.9897 5.69148 90.9278 5.69148C90.866 5.69148 90.8659 5.75332 90.8041 5.75332C90.7422 5.81518 90.7422 5.81519 90.7422 5.87704C90.7422 5.9389 90.6804 5.9389 90.6804 6.00076C90.6804 6.06262 90.6804 6.12446 90.6804 6.18632C90.6804 6.24818 90.6804 6.31002 90.6804 6.37188V8.22755C90.6804 8.47497 90.7422 8.66055 90.8041 8.78427C90.8659 8.90798 90.9897 8.96982 91.1752 8.96982C91.2371 8.96982 91.2989 8.96982 91.2989 8.96982C91.3608 8.96982 91.3608 8.96982 91.4226 8.90797L91.4845 8.84611C91.4845 8.78425 91.5464 8.78426 91.5464 8.72241C91.5464 8.66055 91.5464 8.66054 91.5464 8.59869C91.5464 8.53683 91.5464 8.47499 91.5464 8.47499C91.5464 8.41313 91.5464 8.35126 91.5464 8.28941V7.91827H92.2886V8.28941C92.2886 8.47498 92.2886 8.59869 92.2268 8.72241C92.2268 8.84612 92.1649 8.96983 92.1031 9.09354C92.0412 9.21725 91.9794 9.27911 91.9175 9.40282C91.8556 9.46468 91.7319 9.52653 91.6082 9.58838C91.4845 9.58838 91.2989 9.65024 91.1134 9.65024Z" fill="white"/>
<path d="M92.7217 9.58707V5.19531H94.5774V5.75201H93.5258V7.05098H94.3299V7.60768H93.5258V9.03037H94.5774V9.58707H92.7217Z" fill="white"/>
<path d="M95.6907 9.03037H95.9382C96 9.03037 96.0619 9.03037 96.1237 9.03037C96.1856 9.03037 96.2474 9.03037 96.2474 8.96851C96.3093 8.96851 96.3093 8.90665 96.3711 8.84479C96.3711 8.78294 96.433 8.78295 96.433 8.72109C96.433 8.65924 96.433 8.65923 96.4948 8.53552C96.4948 8.47366 96.4948 8.41181 96.4948 8.34996C96.4948 8.2881 96.4948 8.22625 96.4948 8.10254V6.49429C96.4948 6.37057 96.4948 6.30872 96.4948 6.24687C96.4948 6.18501 96.4948 6.12314 96.4948 6.06129C96.4948 5.99943 96.433 5.93759 96.433 5.93759C96.433 5.87573 96.3711 5.87572 96.3093 5.81387C96.2474 5.81387 96.1856 5.75201 96.1237 5.75201C96.0619 5.75201 96 5.75201 95.8763 5.75201H95.6289V9.03037H95.6907ZM94.8866 9.58707V5.19531H95.8763C96.1237 5.19531 96.3711 5.19532 96.5567 5.25717C96.7423 5.31903 96.866 5.38088 96.9897 5.50459C97.1134 5.6283 97.1753 5.75202 97.2371 5.93759C97.299 6.12316 97.299 6.30872 97.299 6.55614V8.1644C97.299 8.41182 97.299 8.59739 97.2371 8.78295C97.1753 8.96852 97.1134 9.09222 96.9897 9.21593C96.866 9.33964 96.7423 9.40149 96.5567 9.46335C96.3711 9.52521 96.1856 9.52521 95.9382 9.52521H94.8866V9.58707Z" fill="white"/>
<path d="M80.0412 12.3711H79.2371V16.7628H80.0412V12.3711Z" fill="white"/>
<path d="M80.5361 16.701V12.3711H81.0928L82.1444 14.8453V12.3711H82.8248V16.701H82.2681L81.2165 14.103V16.701H80.5361Z" fill="white"/>
<path d="M83.3196 16.701V12.3711H85.1753V12.9278H84.1238V14.1649H84.9279V14.7216H84.1238V16.1443H85.1753V16.701H83.3196Z" fill="white"/>
<path d="M86.4742 16.1437C86.5361 16.1437 86.598 16.2055 86.6598 16.2055C86.7217 16.2055 86.7835 16.2055 86.8454 16.1437C86.9072 16.1437 86.9691 16.0818 86.9691 16.0818C87.0309 16.0199 87.0309 16.0199 87.0309 15.9581C87.0309 15.8962 87.0309 15.8344 87.0928 15.7725C87.0928 15.7107 87.0928 15.6488 87.0928 15.587V13.6076C87.0928 13.4839 87.0928 13.422 87.0928 13.3601C87.0928 13.2983 87.0309 13.2364 87.0309 13.1746C86.9691 13.1127 86.9691 13.0509 86.9072 13.0509C86.8454 13.0509 86.7835 12.989 86.6598 12.989C86.5361 12.989 86.4742 12.989 86.4124 13.0509C86.3505 13.1127 86.2887 13.1127 86.2887 13.1746C86.2887 13.2364 86.2268 13.2983 86.2268 13.3601C86.2268 13.422 86.2268 13.5457 86.2268 13.6076V15.587C86.2268 15.6488 86.2268 15.7107 86.2268 15.7725C86.2268 15.8344 86.2268 15.8962 86.2887 15.9581C86.2887 16.0199 86.3505 16.0818 86.3505 16.0818C86.3505 16.0818 86.4124 16.1437 86.4742 16.1437ZM87.5876 17.6282C87.4639 17.5663 87.3402 17.4426 87.1547 17.3189C86.9691 17.1333 86.8454 17.0096 86.7217 16.8241H86.6598C86.2268 16.8241 85.9175 16.7004 85.6701 16.4529C85.4846 16.2055 85.3608 15.8344 85.3608 15.4014V13.7931C85.3608 13.5457 85.3608 13.3601 85.4227 13.1746C85.4846 12.989 85.5464 12.8653 85.6083 12.7416C85.732 12.6179 85.8557 12.4942 85.9794 12.4323C86.165 12.3705 86.3505 12.3086 86.598 12.3086C87.0309 12.3086 87.3402 12.4323 87.5876 12.6797C87.7732 12.9272 87.8969 13.2983 87.8969 13.7313V15.3395C87.8969 16.0199 87.7114 16.4529 87.2784 16.6385C87.4639 16.8241 87.5876 17.0096 87.7113 17.0715L87.5876 17.6282Z" fill="white"/>
<path d="M89.567 16.7628C89.3814 16.7628 89.1959 16.7628 89.0721 16.701C88.9484 16.6391 88.8247 16.5773 88.701 16.5154C88.6391 16.4536 88.5154 16.3299 88.4536 16.2062C88.3917 16.0824 88.3299 15.9587 88.3299 15.7732C88.3299 15.6494 88.268 15.4639 88.268 15.2783V12.3711H89.0103V15.3402C89.0103 15.4639 89.0103 15.5257 89.0103 15.5876C89.0103 15.6495 89.0103 15.7113 89.0721 15.835C89.0721 15.8969 89.134 15.9587 89.134 16.0206C89.1959 16.0824 89.1958 16.0824 89.2577 16.1443C89.3196 16.2061 89.3814 16.2062 89.4433 16.2062C89.5051 16.2062 89.567 16.2061 89.6288 16.1443C89.6907 16.0824 89.7526 16.0824 89.7526 16.0206C89.8144 15.9587 89.8144 15.8969 89.8144 15.835C89.8144 15.7732 89.8144 15.7113 89.8763 15.5876C89.8763 15.5257 89.8763 15.402 89.8763 15.3402V12.3711H90.6185V15.2783C90.6185 15.4639 90.6185 15.6494 90.5567 15.7732C90.5567 15.8969 90.4948 16.0824 90.433 16.2062C90.3711 16.3299 90.3092 16.4536 90.1855 16.5154C90.0618 16.5773 90 16.6391 89.8144 16.701C89.9381 16.7628 89.7525 16.7628 89.567 16.7628Z" fill="white"/>
<path d="M92.0413 15.2158H92.598L92.2887 13.422L92.0413 15.2158ZM91.0516 16.7003L91.9176 12.3086H92.7217L93.5877 16.7003H92.8454L92.6598 15.7107H91.9176L91.732 16.7003H91.0516Z" fill="white"/>
<path d="M93.9588 16.701V12.3711H94.7629V16.1443H95.8145V16.701H93.9588Z" fill="white"/>
<path d="M96.9278 12.3711H96.1237V16.7628H96.9278V12.3711Z" fill="white"/>
<path d="M97.8557 16.701V12.9278H97.1134V12.3711H99.3402V12.9278H98.6598V16.701H97.8557Z" fill="white"/>
<path d="M100.392 12.3711H99.5876V16.7628H100.392V12.3711Z" fill="white"/>
<path d="M100.887 16.701V12.3711H102.742V12.9278H101.691V14.1649H102.495V14.7216H101.691V16.1443H102.742V16.701H100.887Z" fill="white"/>
<path d="M104.165 16.7635C103.423 16.7635 102.99 16.3305 102.928 15.4027L103.608 15.279C103.608 15.8357 103.794 16.145 104.103 16.145C104.227 16.145 104.289 16.0831 104.351 16.0212C104.412 15.9594 104.412 15.8357 104.412 15.712C104.412 15.5883 104.412 15.4645 104.351 15.4027C104.289 15.279 104.227 15.2171 104.227 15.1553C104.165 15.0934 104.103 15.0316 103.979 14.9079L103.423 14.413C103.237 14.2893 103.113 14.1037 103.052 13.98C102.99 13.7944 102.928 13.6089 102.928 13.3615C102.928 13.0522 103.052 12.7429 103.237 12.5573C103.423 12.3718 103.732 12.248 104.041 12.248C104.227 12.248 104.351 12.2481 104.474 12.3099C104.598 12.3718 104.722 12.4336 104.784 12.4955C104.845 12.5573 104.907 12.681 104.969 12.7429C105.031 12.8666 105.093 12.9285 105.093 13.0522C105.093 13.1759 105.155 13.2996 105.155 13.4233L104.474 13.547C104.474 13.4852 104.474 13.3615 104.474 13.2996C104.474 13.2377 104.474 13.1759 104.412 13.114C104.412 13.0522 104.351 12.9903 104.351 12.9285C104.289 12.8666 104.289 12.8666 104.227 12.8048C104.165 12.8048 104.103 12.7429 104.041 12.8048C103.918 12.8048 103.856 12.8666 103.794 12.9285C103.732 12.9903 103.67 13.114 103.67 13.2377C103.67 13.3615 103.67 13.4852 103.732 13.6089C103.794 13.6707 103.856 13.7944 103.979 13.9182L104.536 14.413C104.66 14.4749 104.722 14.5986 104.784 14.6604C104.845 14.7223 104.907 14.846 104.969 14.9079C105.031 15.0316 105.093 15.1553 105.093 15.279C105.155 15.4027 105.155 15.5264 105.155 15.6501C105.155 15.9594 105.031 16.2068 104.845 16.4542C104.784 16.7017 104.474 16.7635 104.165 16.7635Z" fill="white"/>
<path d="M95.567 39.4023H84.4949C84.433 39.4023 84.3712 39.4642 84.3712 39.526V42.8662C84.3712 42.9281 84.433 42.99 84.4949 42.99H95.567C95.6289 42.99 95.6907 42.9281 95.6907 42.8662V39.526C95.6907 39.4642 95.6289 39.4023 95.567 39.4023Z" fill="white"/>
<path d="M95.567 32.2891H84.4949C84.433 32.2891 84.3712 32.3509 84.3712 32.4128V35.753C84.3712 35.8148 84.433 35.8767 84.4949 35.8767H95.567C95.6289 35.8767 95.6907 35.8148 95.6907 35.753V32.4128C95.6907 32.3509 95.6289 32.2891 95.567 32.2891Z" fill="white"/>
<path d="M95.4433 27.2781L90.1238 21.9585C90.0619 21.8966 90.0001 21.8966 90.0001 21.9585L84.6805 27.2781C84.6186 27.3399 84.6805 27.4637 84.7423 27.4637H95.3815C95.4433 27.4637 95.5052 27.3399 95.4433 27.2781Z" fill="white"/>
<path d="M100.392 42.9897L105.711 37.6701C105.773 37.6082 105.773 37.5464 105.711 37.5464L100.392 32.2268C100.33 32.1649 100.206 32.2268 100.206 32.2887V42.9278C100.268 43.0515 100.33 43.0515 100.392 42.9897Z" fill="white"/>
<path d="M84.6805 48L90.0001 53.3196C90.0619 53.3815 90.1238 53.3815 90.1238 53.3196L95.4433 48C95.5052 47.9382 95.4433 47.8145 95.3815 47.8145H84.7423C84.6805 47.8145 84.6186 47.9382 84.6805 48Z" fill="white"/>
<path d="M79.732 32.2887L74.4124 37.6083C74.3505 37.6701 74.3505 37.732 74.4124 37.732L79.732 43.0516C79.7938 43.1134 79.9175 43.0516 79.9175 42.9897V32.3505C79.8557 32.2268 79.732 32.2268 79.732 32.2887Z" fill="white"/>
</g>
<defs>
<clipPath id="clip0_501_30781">
<path d="M0 2C0 0.895432 0.895431 0 2 0H64V60H2C0.895431 60 0 59.1046 0 58V2Z" fill="white"/>
</clipPath>
<clipPath id="clip1_501_30781">
<path d="M60 2C60 0.895432 60.8954 0 62 0H120V60H62C60.8954 60 60 59.1046 60 58V2Z" fill="white"/>
</clipPath>
</defs>
</svg>
