<svg viewBox="0 0 109 109" fill="none" xmlns="http://www.w3.org/2000/svg">
<path d="M108.535 0.547394H0.344604V108.317H108.535V0.547394Z" fill="#4C9F38"/>
<path d="M10.2165 28.8934C9.35144 27.8074 8.91748 26.2704 8.91748 24.2834V23.5704H12.8395V24.2584C12.8564 25.3114 12.9835 26.0664 13.2214 26.5244C13.4595 26.9834 13.8925 27.2114 14.5204 27.2114C15.1484 27.2114 15.5695 26.9794 15.7814 26.5124C15.9935 26.0454 16.0995 25.2854 16.0995 24.2324C16.0995 23.1284 15.9385 22.3094 15.6155 21.7754C15.2935 21.2404 14.6995 20.9644 13.8325 20.9474C13.7825 20.9304 13.5444 20.9224 13.1205 20.9224V18.0444H13.7565C14.6395 18.0444 15.2505 17.8054 15.5905 17.3304C15.9294 16.8554 16.0995 16.0744 16.0995 14.9874C16.0995 14.1044 15.9764 13.4514 15.7305 13.0264C15.4844 12.6024 15.0464 12.3904 14.4185 12.3904C13.8245 12.3904 13.4164 12.6184 13.1965 13.0774C12.9755 13.5364 12.8564 14.2154 12.8395 15.1144V16.0314H8.91748V14.9114C8.91748 13.1124 9.39746 11.7184 10.3564 10.7344C11.3155 9.74942 12.6705 9.25742 14.4185 9.25742C16.2015 9.25742 17.5775 9.73242 18.5444 10.6834C19.5125 11.6344 19.9965 13.0014 19.9965 14.7844C19.9965 15.9724 19.7505 16.9704 19.2574 17.7764C18.7645 18.5834 18.1375 19.0884 17.3735 19.2924C19.1215 19.9374 19.9965 21.5574 19.9965 24.1564C19.9965 26.1424 19.5544 27.7004 18.6725 28.8294C17.7885 29.9594 16.3885 30.5234 14.4695 30.5234C12.5005 30.5234 11.0825 29.9804 10.2165 28.8934Z" fill="white"/>
<path d="M25.6238 17.4094L27.2068 13.2254L25.6668 9.52542H27.0118L28.0348 11.9694L28.9148 9.52542H30.1738L28.6528 13.4774L30.2878 17.4094H28.9478L27.8448 14.7654L26.8738 17.4094H25.6238Z" fill="white"/>
<path d="M32.8787 17.5043C32.0667 17.5043 31.4847 17.2843 31.1337 16.8433C30.7817 16.4033 30.6057 15.7583 30.6057 14.9083V11.9983C30.6057 11.5803 30.6457 11.2173 30.7247 10.9093C30.8037 10.6023 30.9317 10.3353 31.1077 10.1113C31.2837 9.88629 31.5187 9.71732 31.8137 9.60431C32.1087 9.49231 32.4637 9.4353 32.8787 9.4353C33.6867 9.4353 34.2677 9.65231 34.6207 10.0873C34.9747 10.5213 35.1517 11.1583 35.1517 11.9983V14.9083C35.1517 15.3213 35.1117 15.6823 35.0297 15.9953C34.9497 16.3073 34.8207 16.5783 34.6447 16.8073C34.4687 17.0383 34.2337 17.2123 33.9387 17.3283C33.6437 17.4453 33.2907 17.5043 32.8787 17.5043ZM32.5197 16.3773C32.6187 16.4183 32.7387 16.4403 32.8787 16.4403C33.0177 16.4403 33.1367 16.4183 33.2347 16.3773C33.3327 16.3363 33.4117 16.2823 33.4707 16.2163C33.5297 16.1493 33.5757 16.0623 33.6087 15.9543C33.6417 15.8463 33.6637 15.7393 33.6747 15.6313C33.6857 15.5233 33.6917 15.3943 33.6917 15.2463V11.6653C33.6917 11.4753 33.6817 11.3173 33.6627 11.1903C33.6437 11.0633 33.6067 10.9433 33.5507 10.8303C33.4957 10.7183 33.4127 10.6343 33.3017 10.5783C33.1907 10.5233 33.0497 10.4953 32.8787 10.4953C32.7077 10.4953 32.5657 10.5233 32.4537 10.5783C32.3407 10.6343 32.2567 10.7183 32.2037 10.8303C32.1497 10.9433 32.1127 11.0633 32.0937 11.1903C32.0747 11.3173 32.0657 11.4753 32.0657 11.6653V15.2463C32.0657 15.3943 32.0707 15.5233 32.0817 15.6313C32.0937 15.7393 32.1157 15.8463 32.1487 15.9543C32.1817 16.0623 32.2277 16.1493 32.2837 16.2163C32.3417 16.2823 32.4197 16.3363 32.5197 16.3773Z" fill="white"/>
<path d="M35.9586 17.4098V9.52582H38.2275C39.5706 9.52582 40.2426 10.2718 40.2426 11.7658C40.2426 12.4978 40.0585 13.0338 39.6916 13.3758C39.3235 13.7158 38.8055 13.8858 38.1365 13.8858H37.3946V17.4098H35.9586ZM37.3946 12.8778H37.8556C38.2615 12.8778 38.5356 12.7978 38.6786 12.6378C38.8206 12.4788 38.8926 12.1838 38.8926 11.7558C38.8926 11.5118 38.8835 11.3228 38.8636 11.1908C38.8456 11.0568 38.8005 10.9358 38.7306 10.8268C38.6606 10.7168 38.5576 10.6418 38.4196 10.6008C38.2816 10.5598 38.0945 10.5378 37.8605 10.5378H37.3946V12.8778Z" fill="white"/>
<path d="M42.8953 17.5043C42.0833 17.5043 41.5013 17.2843 41.1503 16.8433C40.7983 16.4033 40.6223 15.7583 40.6223 14.9083V11.9983C40.6223 11.5803 40.6623 11.2173 40.7413 10.9093C40.8203 10.6023 40.9483 10.3353 41.1243 10.1113C41.3003 9.88629 41.5353 9.71732 41.8303 9.60431C42.1253 9.49231 42.4803 9.4353 42.8953 9.4353C43.7033 9.4353 44.2843 9.65231 44.6373 10.0873C44.9913 10.5213 45.1683 11.1583 45.1683 11.9983V14.9083C45.1683 15.3213 45.1283 15.6823 45.0463 15.9953C44.9653 16.3073 44.8373 16.5783 44.6613 16.8073C44.4853 17.0383 44.2503 17.2123 43.9553 17.3283C43.6603 17.4453 43.3073 17.5043 42.8953 17.5043ZM42.5363 16.3773C42.6353 16.4183 42.7553 16.4403 42.8953 16.4403C43.0343 16.4403 43.1533 16.4183 43.2513 16.3773C43.3493 16.3363 43.4283 16.2823 43.4873 16.2163C43.5463 16.1493 43.5923 16.0623 43.6253 15.9543C43.6583 15.8463 43.6803 15.7393 43.6913 15.6313C43.7023 15.5233 43.7083 15.3943 43.7083 15.2463V11.6653C43.7083 11.4753 43.6983 11.3173 43.6793 11.1903C43.6603 11.0633 43.6233 10.9433 43.5673 10.8303C43.5123 10.7183 43.4293 10.6343 43.3183 10.5783C43.2073 10.5233 43.0663 10.4953 42.8953 10.4953C42.7243 10.4953 42.5823 10.5233 42.4703 10.5783C42.3573 10.6343 42.2733 10.7183 42.2203 10.8303C42.1663 10.9433 42.1293 11.0633 42.1103 11.1903C42.0913 11.3173 42.0823 11.4753 42.0823 11.6653V15.2463C42.0823 15.3943 42.0873 15.5233 42.0983 15.6313C42.1103 15.7393 42.1323 15.8463 42.1653 15.9543C42.1983 16.0623 42.2443 16.1493 42.3003 16.2163C42.3583 16.2823 42.4363 16.3363 42.5363 16.3773Z" fill="white"/>
<path d="M45.9895 17.4094V9.52542H47.3824V16.3824H48.5525V9.52542H49.9405V16.3824H51.0585V9.52542H52.4515V17.4094H45.9895Z" fill="white"/>
<path d="M53.4015 17.4094V9.52542H56.7015V10.5384H54.8375V12.8014H56.3115V13.8144H54.8375V16.4154H56.7255V17.4094H53.4015Z" fill="white"/>
<path d="M57.3088 17.4094V9.52542H60.6088V10.5384H58.7448V12.8014H60.2188V13.8144H58.7448V16.4154H60.6328V17.4094H57.3088Z" fill="white"/>
<path d="M65.2097 17.5188C64.5057 17.5188 63.9867 17.3238 63.6497 16.9338C63.3147 16.5438 63.1457 15.9948 63.1457 15.2838V15.0038H64.4967C64.4967 15.1588 64.4977 15.2578 64.5007 15.3028C64.5107 15.6768 64.5657 15.9518 64.6677 16.1278C64.7697 16.3038 64.9527 16.3918 65.2197 16.3918C65.3397 16.3918 65.4437 16.3728 65.5307 16.3318C65.6177 16.2928 65.6867 16.2398 65.7377 16.1728C65.7877 16.1068 65.8267 16.0178 65.8537 15.9068C65.8807 15.7958 65.8997 15.6848 65.9087 15.5718C65.9187 15.4588 65.9227 15.3208 65.9227 15.1558C65.9227 14.7338 65.8407 14.4128 65.6787 14.1928C65.5147 13.9718 65.2217 13.8488 64.8007 13.8198C64.7627 13.8158 64.6507 13.8148 64.4637 13.8148V12.8298C64.6347 12.8298 64.7367 12.8288 64.7717 12.8258C65.2027 12.8068 65.5027 12.6958 65.6707 12.4928C65.8387 12.2898 65.9227 11.9828 65.9227 11.5708C65.9227 11.2278 65.8627 10.9678 65.7417 10.7878C65.6217 10.6088 65.4257 10.5198 65.1527 10.5198C64.6577 10.5198 64.3947 10.8708 64.3637 11.5748C64.3597 11.6128 64.3587 11.7258 64.3587 11.9128H63.0037V11.5468C63.0037 10.8808 63.1927 10.3628 63.5717 9.98981C63.9497 9.61682 64.4697 9.43082 65.1287 9.43082C65.7977 9.43082 66.3207 9.6138 66.6977 9.97983C67.0747 10.3468 67.2637 10.8628 67.2637 11.5268C67.2637 11.9748 67.1667 12.3508 66.9737 12.6568C66.7807 12.9628 66.5257 13.1618 66.2077 13.2538C66.9117 13.4978 67.2637 14.1258 67.2637 15.1368C67.2637 15.8878 67.0987 16.4728 66.7697 16.8908C66.4397 17.3098 65.9197 17.5188 65.2097 17.5188Z" fill="white"/>
<path d="M67.5388 18.9739V16.3869H67.8528C68.0238 16.2859 68.1738 16.1489 68.3018 15.9779C68.4297 15.8069 68.5547 15.5609 68.6748 15.2409C68.7958 14.9209 68.8958 14.4919 68.9768 13.9529C69.0578 13.4139 69.1188 12.7639 69.1598 12.0029L69.3118 9.52591H72.8307V16.3869H73.6628V18.9739H72.6398L72.5458 17.4099H68.6838L68.5898 18.9739H67.5388ZM69.1838 16.3869H71.4468V10.5619H70.4578L70.3868 12.2409C70.3678 12.6779 70.3398 13.0769 70.3038 13.4349C70.2668 13.7929 70.2288 14.0949 70.1898 14.3429C70.1498 14.5899 70.0948 14.8189 70.0258 15.0289C69.9557 15.2409 69.8968 15.4049 69.8468 15.5239C69.7978 15.6429 69.7268 15.7649 69.6328 15.8899C69.5398 16.0159 69.4678 16.1039 69.4167 16.1559C69.3658 16.2089 69.2888 16.2859 69.1838 16.3869Z" fill="white"/>
<path d="M76.3436 17.5043C75.5326 17.5043 74.9506 17.2843 74.5986 16.8433C74.2466 16.4033 74.0706 15.7583 74.0706 14.9083V11.9983C74.0706 11.5803 74.1106 11.2173 74.1896 10.9093C74.2686 10.6023 74.3966 10.3353 74.5726 10.1113C74.7486 9.88629 74.9836 9.71732 75.2786 9.60431C75.5736 9.49231 75.9286 9.4353 76.3436 9.4353C77.1526 9.4353 77.7326 9.65231 78.0856 10.0873C78.4396 10.5213 78.6166 11.1583 78.6166 11.9983V14.9083C78.6166 15.3213 78.5766 15.6823 78.4956 15.9953C78.4146 16.3073 78.2856 16.5783 78.1096 16.8073C77.9336 17.0383 77.6986 17.2123 77.4046 17.3283C77.1086 17.4453 76.7556 17.5043 76.3436 17.5043ZM75.9846 16.3773C76.0846 16.4183 76.2036 16.4403 76.3436 16.4403C76.4826 16.4403 76.6016 16.4183 76.6996 16.3773C76.7986 16.3363 76.8766 16.2823 76.9356 16.2163C76.9946 16.1493 77.0406 16.0623 77.0736 15.9543C77.1066 15.8463 77.1286 15.7393 77.1396 15.6313C77.1506 15.5233 77.1566 15.3943 77.1566 15.2463V11.6653C77.1566 11.4753 77.1476 11.3173 77.1286 11.1903C77.1086 11.0633 77.0716 10.9433 77.0166 10.8303C76.9606 10.7183 76.8776 10.6343 76.7666 10.5783C76.6556 10.5233 76.5146 10.4953 76.3436 10.4953C76.1726 10.4953 76.0306 10.5233 75.9186 10.5783C75.8056 10.6343 75.7226 10.7183 75.6686 10.8303C75.6146 10.9433 75.5776 11.0633 75.5596 11.1903C75.5406 11.3173 75.5306 11.4753 75.5306 11.6653V15.2463C75.5306 15.3943 75.5356 15.5233 75.5466 15.6313C75.5586 15.7393 75.5806 15.8463 75.6136 15.9543C75.6466 16.0623 75.6926 16.1493 75.7496 16.2163C75.8066 16.2823 75.8846 16.3363 75.9846 16.3773Z" fill="white"/>
<path d="M79.4239 17.4098V9.52582H81.6918C83.0359 9.52582 83.7079 10.2718 83.7079 11.7658C83.7079 12.4978 83.5239 13.0338 83.1559 13.3758C82.7889 13.7158 82.2698 13.8858 81.6019 13.8858H80.8599V17.4098H79.4239ZM80.8599 12.8778H81.3209C81.7269 12.8778 82.0009 12.7978 82.1439 12.6378C82.2859 12.4788 82.3578 12.1838 82.3578 11.7558C82.3578 11.5118 82.3478 11.3228 82.3289 11.1908C82.3109 11.0568 82.2659 10.9358 82.1959 10.8268C82.1259 10.7168 82.0219 10.6418 81.8849 10.6008C81.7469 10.5598 81.5599 10.5378 81.3259 10.5378H80.8599V12.8778Z" fill="white"/>
<path d="M86.3602 17.5043C85.5491 17.5043 84.9672 17.2843 84.6152 16.8433C84.2632 16.4033 84.0872 15.7583 84.0872 14.9083V11.9983C84.0872 11.5803 84.1271 11.2173 84.2062 10.9093C84.2852 10.6023 84.4131 10.3353 84.5892 10.1113C84.7651 9.88629 85.0002 9.71732 85.2952 9.60431C85.5901 9.49231 85.9451 9.4353 86.3602 9.4353C87.1692 9.4353 87.7491 9.65231 88.1022 10.0873C88.4562 10.5213 88.6332 11.1583 88.6332 11.9983V14.9083C88.6332 15.3213 88.5931 15.6823 88.5121 15.9953C88.4312 16.3073 88.3022 16.5783 88.1262 16.8073C87.9501 17.0383 87.7151 17.2123 87.4211 17.3283C87.1252 17.4453 86.7722 17.5043 86.3602 17.5043ZM86.0012 16.3773C86.1011 16.4183 86.2202 16.4403 86.3602 16.4403C86.4991 16.4403 86.6182 16.4183 86.7162 16.3773C86.8152 16.3363 86.8932 16.2823 86.9521 16.2163C87.0112 16.1493 87.0572 16.0623 87.0901 15.9543C87.1232 15.8463 87.1451 15.7393 87.1562 15.6313C87.1672 15.5233 87.1732 15.3943 87.1732 15.2463V11.6653C87.1732 11.4753 87.1642 11.3173 87.1451 11.1903C87.1252 11.0633 87.0881 10.9433 87.0331 10.8303C86.9772 10.7183 86.8942 10.6343 86.7831 10.5783C86.6722 10.5233 86.5312 10.4953 86.3602 10.4953C86.1891 10.4953 86.0472 10.5233 85.9352 10.5783C85.8221 10.6343 85.7391 10.7183 85.6852 10.8303C85.6312 10.9433 85.5942 11.0633 85.5762 11.1903C85.5572 11.3173 85.5472 11.4753 85.5472 11.6653V15.2463C85.5472 15.3943 85.5522 15.5233 85.5632 15.6313C85.5751 15.7393 85.5972 15.8463 85.6302 15.9543C85.6631 16.0623 85.7092 16.1493 85.7662 16.2163C85.8232 16.2823 85.9012 16.3363 86.0012 16.3773Z" fill="white"/>
<path d="M89.4546 17.4096V9.52661H91.3846C91.7496 9.52661 92.0685 9.55762 92.3416 9.62363C92.6136 9.68863 92.8556 9.79663 93.0656 9.94662C93.2766 10.0976 93.4346 10.3056 93.5416 10.5716C93.6476 10.8386 93.6996 11.1596 93.6966 11.5366C93.6926 12.5106 93.3076 13.0536 92.5406 13.1686C93.4636 13.3426 93.9255 13.9946 93.9296 15.1216C93.9326 15.8706 93.7446 16.4386 93.3676 16.8266C92.9905 17.2156 92.4406 17.4096 91.7176 17.4096H89.4546ZM90.8906 12.7396H91.3376C91.7626 12.7396 92.0546 12.6496 92.2126 12.4686C92.3716 12.2886 92.4506 11.9836 92.4506 11.5566C92.4506 11.3346 92.4236 11.1536 92.3716 11.0166C92.3196 10.8786 92.2316 10.7746 92.1086 10.7056C91.9846 10.6356 91.8466 10.5896 91.6966 10.5676C91.5456 10.5446 91.3456 10.5336 91.0956 10.5336H90.8906V12.7396ZM90.8906 16.3966H91.4186C91.8495 16.3966 92.1465 16.2976 92.3105 16.0976C92.4736 15.8976 92.5546 15.5676 92.5546 15.1076C92.5546 14.6326 92.4626 14.2876 92.2766 14.0736C92.0906 13.8606 91.7795 13.7526 91.3426 13.7526H90.8906V16.3966Z" fill="white"/>
<path d="M94.6223 17.409V9.526H96.0583V12.825H96.3343C96.7583 12.825 97.1213 12.863 97.4203 12.937C97.7203 13.012 97.9783 13.136 98.1933 13.311C98.4083 13.485 98.5673 13.72 98.6713 14.015C98.7733 14.309 98.8253 14.672 98.8253 15.103C98.8253 15.54 98.7703 15.911 98.6593 16.213C98.5483 16.516 98.3793 16.754 98.1533 16.927C97.9263 17.1 97.6633 17.223 97.3663 17.297C97.0683 17.372 96.7133 17.409 96.3003 17.409H94.6223ZM96.0583 16.43H96.3053C96.5213 16.43 96.6993 16.411 96.8403 16.373C96.9813 16.335 97.1023 16.267 97.2043 16.169C97.3053 16.07 97.3783 15.933 97.4223 15.757C97.4673 15.581 97.4873 15.357 97.4843 15.084C97.4823 14.641 97.3933 14.321 97.2183 14.124C97.0443 13.927 96.7333 13.829 96.2863 13.829H96.0583V16.43Z" fill="white"/>
<path d="M99.4714 17.4094V9.52542H102.771V10.5384H100.907V12.8014H102.381V13.8144H100.907V16.4154H102.795V17.4094H99.4714Z" fill="white"/>
<path d="M26.1277 30.2932V22.4092H27.3207V27.3362L29.4607 22.4092H30.4407V30.2932H29.2327V25.2722L27.0877 30.2932H26.1277Z" fill="white"/>
<path d="M33.5385 30.2927V22.4097H37.1855V23.4747H34.9745V25.7097H35.2075C35.6325 25.7097 35.9945 25.7477 36.2945 25.8207C36.5935 25.8957 36.8515 26.0207 37.0665 26.1947C37.2815 26.3687 37.4415 26.6037 37.5445 26.8987C37.6475 27.1937 37.6995 27.5567 37.6995 27.9867C37.6995 28.3397 37.6615 28.6467 37.5875 28.9127C37.5125 29.1767 37.4065 29.3967 37.2685 29.5707C37.1305 29.7447 36.9565 29.8867 36.7455 29.9937C36.5345 30.1017 36.3025 30.1787 36.0495 30.2247C35.7955 30.2707 35.5055 30.2927 35.1795 30.2927H33.5385ZM34.9745 29.3137H35.1795C35.3945 29.3137 35.5725 29.2957 35.7145 29.2567C35.8555 29.2187 35.9765 29.1507 36.0775 29.0527C36.1785 28.9547 36.2515 28.8167 36.2965 28.6407C36.3405 28.4657 36.3615 28.2407 36.3585 27.9687C36.3555 27.5247 36.2665 27.2047 36.0915 27.0077C35.9175 26.8117 35.6065 26.7137 35.1605 26.7137H34.9745V29.3137Z" fill="white"/>
<path d="M37.798 30.2932V29.2572C37.957 29.2602 38.082 29.2552 38.176 29.2422C38.269 29.2302 38.364 29.1912 38.459 29.1262C38.554 29.0612 38.628 28.9712 38.68 28.8542C38.732 28.7392 38.785 28.5732 38.837 28.3562C38.889 28.1392 38.9319 27.8782 38.966 27.5762C38.998 27.2732 39.029 26.8952 39.058 26.4422L39.3199 22.4092H43.166V30.2932H41.73V23.4842H40.585L40.413 26.5892C40.394 26.9122 40.375 27.1892 40.354 27.4192C40.3329 27.6492 40.306 27.8882 40.2729 28.1372C40.24 28.3862 40.2 28.5932 40.154 28.7602C40.108 28.9262 40.051 29.0952 39.983 29.2662C39.915 29.4372 39.836 29.5762 39.745 29.6822C39.655 29.7882 39.548 29.8902 39.424 29.9842C39.301 30.0792 39.16 30.1492 39.001 30.1942C38.842 30.2382 38.663 30.2692 38.464 30.2882C38.264 30.3072 38.042 30.3092 37.798 30.2932Z" fill="white"/>
<path d="M43.7071 30.2933L45.3101 22.4103H46.8081L48.4051 30.2933H47.0691L46.7501 28.4633H45.3861L45.0621 30.2933H43.7071ZM45.5381 27.5263H46.5941L46.0661 24.2873L45.5381 27.5263Z" fill="white"/>
<path d="M48.9508 30.2932V22.4092H52.2548V23.4702H50.3868V30.2932H48.9508Z" fill="white"/>
<path d="M54.9363 30.3886C54.1254 30.3886 53.5433 30.1686 53.1913 29.7276C52.8394 29.2866 52.6634 28.6426 52.6634 27.7926V24.8826C52.6634 24.4636 52.7034 24.1016 52.7823 23.7936C52.8614 23.4866 52.9894 23.2196 53.1653 22.9946C53.3414 22.7696 53.5764 22.6006 53.8713 22.4886C54.1664 22.3756 54.5214 22.3196 54.9363 22.3196C55.7444 22.3196 56.3254 22.5366 56.6783 22.9706C57.0323 23.4056 57.2094 24.0416 57.2094 24.8826V27.7926C57.2094 28.2046 57.1694 28.5666 57.0884 28.8786C57.0074 29.1916 56.8784 29.4626 56.7024 29.6916C56.5264 29.9216 56.2914 30.0956 55.9974 30.2126C55.7014 30.3296 55.3484 30.3886 54.9363 30.3886ZM54.5774 29.2616C54.6774 29.3026 54.7964 29.3236 54.9363 29.3236C55.0754 29.3236 55.1943 29.3026 55.2924 29.2616C55.3914 29.2206 55.4694 29.1666 55.5284 29.0996C55.5873 29.0336 55.6334 28.9466 55.6664 28.8386C55.6993 28.7306 55.7214 28.6226 55.7324 28.5146C55.7433 28.4076 55.7494 28.2786 55.7494 28.1296V24.5496C55.7494 24.3596 55.7404 24.2016 55.7203 24.0746C55.7014 23.9476 55.6644 23.8276 55.6094 23.7146C55.5533 23.6026 55.4703 23.5186 55.3594 23.4626C55.2484 23.4076 55.1074 23.3796 54.9363 23.3796C54.7654 23.3796 54.6234 23.4076 54.5114 23.4626C54.3984 23.5186 54.3154 23.6026 54.2614 23.7146C54.2073 23.8276 54.1703 23.9476 54.1523 24.0746C54.1324 24.2016 54.1234 24.3596 54.1234 24.5496V28.1296C54.1234 28.2786 54.1284 28.4076 54.1393 28.5146C54.1514 28.6226 54.1733 28.7306 54.2064 28.8386C54.2394 28.9466 54.2853 29.0336 54.3423 29.0996C54.3994 29.1666 54.4774 29.2206 54.5774 29.2616Z" fill="white"/>
<path d="M58.0165 30.2932V22.4092H62.5715V30.2932H61.1495V23.4322H59.4385V30.2932H58.0165Z" fill="white"/>
<path d="M65.6519 30.3886C64.8409 30.3886 64.2589 30.1686 63.9069 29.7276C63.5549 29.2866 63.3789 28.6426 63.3789 27.7926V24.8826C63.3789 24.4636 63.4189 24.1016 63.4979 23.7936C63.5769 23.4866 63.7049 23.2196 63.8809 22.9946C64.0569 22.7696 64.2919 22.6006 64.5869 22.4886C64.8819 22.3756 65.2369 22.3196 65.6519 22.3196C66.4609 22.3196 67.0409 22.5366 67.3939 22.9706C67.7479 23.4056 67.9249 24.0416 67.9249 24.8826V27.7926C67.9249 28.2046 67.8849 28.5666 67.8039 28.8786C67.7229 29.1916 67.5939 29.4626 67.4179 29.6916C67.2419 29.9216 67.0069 30.0956 66.7129 30.2126C66.4169 30.3296 66.0639 30.3886 65.6519 30.3886ZM65.2929 29.2616C65.3929 29.3026 65.5119 29.3236 65.6519 29.3236C65.7909 29.3236 65.9099 29.3026 66.0079 29.2616C66.1069 29.2206 66.1849 29.1666 66.2439 29.0996C66.3029 29.0336 66.3489 28.9466 66.3819 28.8386C66.4149 28.7306 66.4369 28.6226 66.4479 28.5146C66.4589 28.4076 66.4649 28.2786 66.4649 28.1296V24.5496C66.4649 24.3596 66.4559 24.2016 66.4369 24.0746C66.4169 23.9476 66.3799 23.8276 66.3249 23.7146C66.2689 23.6026 66.1859 23.5186 66.0749 23.4626C65.9639 23.4076 65.8229 23.3796 65.6519 23.3796C65.4809 23.3796 65.3389 23.4076 65.2269 23.4626C65.1139 23.5186 65.0309 23.6026 64.9769 23.7146C64.9229 23.8276 64.8859 23.9476 64.8679 24.0746C64.8489 24.2016 64.8389 24.3596 64.8389 24.5496V28.1296C64.8389 28.2786 64.8439 28.4076 64.8549 28.5146C64.8669 28.6226 64.8889 28.7306 64.9219 28.8386C64.9549 28.9466 65.0009 29.0336 65.0579 29.0996C65.1149 29.1666 65.1929 29.2206 65.2929 29.2616Z" fill="white"/>
<path d="M68.1616 30.2932V29.2572C68.3206 29.2602 68.4456 29.2552 68.5396 29.2422C68.6326 29.2302 68.7266 29.1912 68.8226 29.1262C68.9166 29.0612 68.9905 28.9712 69.0436 28.8542C69.0956 28.7392 69.1486 28.5732 69.2006 28.3562C69.2526 28.1392 69.2955 27.8782 69.3286 27.5762C69.3616 27.2732 69.3926 26.8952 69.4216 26.4422L69.6835 22.4092H73.5295V30.2932H72.0936V23.4842H70.9476L70.7766 26.5892C70.7576 26.9122 70.7386 27.1892 70.7176 27.4192C70.6965 27.6492 70.6696 27.8882 70.6365 28.1372C70.6036 28.3862 70.5635 28.5932 70.5176 28.7602C70.4716 28.9262 70.4146 29.0952 70.3466 29.2662C70.2786 29.4372 70.1996 29.5762 70.1086 29.6822C70.0186 29.7882 69.9116 29.8902 69.7875 29.9842C69.6646 30.0792 69.5226 30.1492 69.3646 30.1942C69.2056 30.2382 69.0266 30.2692 68.8265 30.2882C68.6276 30.3072 68.4056 30.3092 68.1616 30.2932Z" fill="white"/>
<path d="M74.3987 31.6724V30.6554C75.0107 30.7024 75.4087 30.6364 75.5917 30.4574C75.7757 30.2784 75.8127 29.9484 75.7017 29.4654L74.0757 22.4094H75.4157L76.0627 25.6864L76.4057 28.0114L76.6907 25.6954L77.2517 22.4094H78.6167L77.1237 29.5844C77.0187 30.0824 76.9287 30.4394 76.8547 30.6574C76.7807 30.8744 76.6477 31.0824 76.4577 31.2804C76.2667 31.4784 76.0157 31.5994 75.7017 31.6434C75.3877 31.6874 74.9537 31.6974 74.3987 31.6724Z" fill="white"/>
<path d="M81.9914 30.2932V26.8272C81.6074 26.9002 81.2563 26.9362 80.9354 26.9362C80.3113 26.9362 79.8193 26.7752 79.4594 26.4522C79.0994 26.1282 78.9194 25.6662 78.9194 25.0632V22.4092H80.2754V25.0582C80.2754 25.2232 80.2884 25.3612 80.3154 25.4722C80.3423 25.5832 80.3893 25.6832 80.4584 25.7722C80.5264 25.8612 80.6274 25.9262 80.7604 25.9692C80.8934 26.0112 81.0604 26.0332 81.2643 26.0332C81.4794 26.0332 81.7224 26.0062 81.9914 25.9522V22.4092H83.4224V30.2932H81.9914Z" fill="white"/>
<path d="M84.3916 30.2932V22.4092H85.5846V27.3362L87.7245 22.4092H88.7046V30.2932H87.4966V25.2722L85.3516 30.2932H84.3916Z" fill="white"/>
<path d="M89.6544 30.2932V22.4092H92.9544V23.4232H91.0904V25.6862H92.5644V26.6982H91.0904V29.2992H92.9784V30.2932H89.6544Z" fill="white"/>
<path d="M90.9449 67.8041C90.9449 64.7461 88.9829 62.2671 86.0099 62.2671C84.5249 62.2671 82.7319 63.8951 81.7589 64.8951C80.7849 63.8931 79.1109 62.2641 77.6239 62.2641C74.6519 62.2641 72.5689 64.7441 72.5689 67.8031C72.5689 69.3321 73.1709 70.7161 74.1459 71.7191L81.7649 79.3521L89.3729 71.7281L89.3669 71.7221C90.3419 70.7201 90.9449 69.3341 90.9449 67.8041Z" fill="white"/>
<path d="M58.5085 91.8124C58.4825 91.8124 58.4575 91.8114 58.4305 91.8094C57.8515 91.7744 57.3735 91.3454 57.2755 90.7724L53.4055 68.2344L47.5435 79.1024C47.2865 79.5794 46.7505 79.8354 46.2235 79.7414C45.6905 79.6464 45.2805 79.2214 45.2035 78.6874L42.7145 61.2924L38.1615 71.5194C37.9605 71.9714 37.5135 72.2624 37.0195 72.2624H19.3225C18.6315 72.2624 18.0715 71.7014 18.0715 71.0104C18.0715 70.3194 18.6315 69.7594 19.3225 69.7594H36.2065L42.1955 56.3074C42.4225 55.7984 42.9585 55.5014 43.5105 55.5774C44.0635 55.6544 44.4975 56.0874 44.5775 56.6394L47.1425 74.5754L52.9245 63.8554C53.1765 63.3854 53.7005 63.1274 54.2275 63.2154C54.7535 63.3014 55.1675 63.7124 55.2575 64.2384L58.8415 85.1124L71.9035 41.7264C72.0525 41.2324 72.4885 40.8794 73.0025 40.8394C73.5185 40.8004 74.0045 41.0774 74.2275 41.5424L81.1005 55.7914C81.4005 56.4124 81.1395 57.1604 80.5175 57.4604C79.8955 57.7614 79.1465 57.4994 78.8465 56.8774L73.3715 45.5274L59.7055 90.9214C59.5465 91.4534 59.0575 91.8124 58.5085 91.8124Z" fill="white"/>
</svg>
