<svg width="111" height="74" viewBox="0 0 111 74" fill="none" xmlns="http://www.w3.org/2000/svg">
<g clip-path="url(#clip0_1002_15406)">
<path d="M37 0H0V37H37V0Z" fill="#FDB714"/>
<path d="M4.95854 4.234H3.01318V3.2041H6.25545V4.08143L4.76782 10.2608H3.47091L4.95854 4.234Z" fill="white"/>
<path d="M9.76515 4.95874H10.1085L9.91773 3.85256L9.76515 4.95874ZM9.1167 5.91235L9.65072 3.2041H10.1466L10.6806 5.91235H10.2229L10.1085 5.30204H9.65072L9.57443 5.91235H9.1167Z" fill="white"/>
<path d="M10.9473 5.91235V3.2041H12.0535V3.5474H11.4431V4.34843H11.9009V4.69173H11.4431V5.91235H10.9473Z" fill="white"/>
<path d="M12.2441 5.91235V3.2041H13.3503V3.5474H12.74V4.34843H13.2359V4.69173H12.74V5.91235H12.2441Z" fill="white"/>
<path d="M14.1514 5.56912C14.1896 5.56912 14.2277 5.60726 14.2659 5.60726C14.304 5.60726 14.3422 5.60726 14.3803 5.56912C14.4185 5.56912 14.4566 5.53097 14.4566 5.53097C14.4947 5.49282 14.4947 5.49282 14.4947 5.45468C14.4947 5.41653 14.4947 5.37839 14.5329 5.34025C14.5329 5.3021 14.5329 5.26396 14.5329 5.22582V4.0052C14.5329 3.92891 14.5329 3.89076 14.5329 3.85262C14.5329 3.81448 14.4947 3.77632 14.4947 3.73818C14.4566 3.70004 14.4566 3.6619 14.4185 3.6619C14.3803 3.6619 14.3422 3.62375 14.2659 3.62375C14.1896 3.62375 14.1514 3.62375 14.1133 3.6619C14.0752 3.6619 14.037 3.70004 14.037 3.73818C14.037 3.77632 13.9989 3.81448 13.9989 3.85262C13.9989 3.89076 13.9989 3.96705 13.9989 4.0052V5.22582C13.9989 5.26396 13.9989 5.3021 13.9989 5.34025C13.9989 5.37839 13.9989 5.41653 14.037 5.45468C14.037 5.49282 14.0752 5.53097 14.0752 5.53097C14.0752 5.53097 14.1133 5.53097 14.1514 5.56912ZM14.2659 5.95056C13.9989 5.95056 13.8081 5.87427 13.6556 5.72169C13.5411 5.56911 13.4648 5.34024 13.4648 5.07323V4.08149C13.4648 3.92891 13.4648 3.81448 13.503 3.70005C13.5411 3.58561 13.5793 3.50932 13.6174 3.43303C13.6937 3.35674 13.77 3.28045 13.8463 3.24231C13.9607 3.20416 14.0752 3.16602 14.2277 3.16602C14.4947 3.16602 14.6855 3.24231 14.838 3.39488C14.9525 3.54746 15.0288 3.77633 15.0288 4.04334V5.0351C15.0288 5.18767 15.0288 5.30211 14.9906 5.41654C14.9525 5.53097 14.9143 5.60725 14.8762 5.68354C14.7999 5.75983 14.7236 5.83612 14.6473 5.87427C14.5329 5.91241 14.4185 5.95056 14.2659 5.95056Z" fill="white"/>
<path d="M15.8299 4.34843H15.9443C16.0969 4.34843 16.2113 4.31029 16.2494 4.27215C16.3257 4.19586 16.3257 4.11957 16.3257 3.96699C16.3257 3.81441 16.2876 3.73813 16.2494 3.66184C16.2113 3.58555 16.0969 3.58554 15.9443 3.58554H15.7917V4.34843H15.8299ZM15.334 5.91235V3.2041H15.9443C16.0969 3.2041 16.2113 3.2041 16.3257 3.24225C16.4402 3.28039 16.5165 3.31853 16.5927 3.35668C16.669 3.39482 16.7072 3.47111 16.7453 3.58554C16.7835 3.69998 16.7835 3.77626 16.7835 3.92884C16.7835 4.08142 16.7453 4.234 16.7072 4.34843C16.669 4.46286 16.5546 4.53916 16.4402 4.5773L16.8216 5.91235H16.3257L16.0206 4.69173H15.7917V5.91235H15.334V5.91235Z" fill="white"/>
<path d="M17.6228 5.56905H17.7754C17.8136 5.56905 17.8517 5.56905 17.8898 5.56905C17.928 5.56905 17.9661 5.56905 17.9661 5.53091C18.0043 5.53091 18.0043 5.49276 18.0424 5.45462C18.0424 5.41647 18.0806 5.41648 18.0806 5.37833C18.0806 5.34019 18.0806 5.34018 18.1187 5.26389C18.1187 5.22575 18.1187 5.18761 18.1187 5.14946C18.1187 5.11132 18.1187 5.07318 18.1187 4.99689V4.00513C18.1187 3.92885 18.1187 3.8907 18.1187 3.85256C18.1187 3.81442 18.1187 3.77626 18.1187 3.73812C18.1187 3.69998 18.0806 3.66184 18.0806 3.66184C18.0806 3.66184 18.0424 3.62369 18.0043 3.58554C17.9661 3.58554 17.928 3.5474 17.8898 3.5474C17.8517 3.5474 17.8135 3.5474 17.7373 3.5474H17.5847V5.56905H17.6228ZM17.127 5.91235V3.2041H17.7373C17.8898 3.2041 18.0424 3.2041 18.1568 3.24225C18.2713 3.28039 18.3476 3.31853 18.4239 3.39482C18.5001 3.47111 18.5383 3.54741 18.5764 3.66184C18.6146 3.77627 18.6146 3.8907 18.6146 4.04328V5.03504C18.6146 5.18761 18.6146 5.30205 18.5764 5.41648C18.5383 5.53091 18.5001 5.60719 18.4239 5.68348C18.3476 5.75977 18.2713 5.79791 18.1568 5.83606C18.0424 5.8742 17.928 5.87421 17.7754 5.87421H17.127V5.91235Z" fill="white"/>
<path d="M19.3393 4.95874H19.6826L19.4919 3.85256L19.3393 4.95874ZM18.729 5.91235L19.263 3.2041H19.7589L20.2929 5.91235H19.8733L19.7589 5.30204H19.3012L19.1867 5.91235H18.729Z" fill="white"/>
<path d="M21.0174 5.56905H21.2081C21.3607 5.56905 21.4751 5.5309 21.5132 5.45462C21.5514 5.37833 21.5895 5.2639 21.5895 5.11132C21.5895 4.95874 21.5514 4.84431 21.5132 4.76802C21.437 4.69173 21.3607 4.65359 21.2081 4.65359H21.0174V5.56905ZM21.0174 4.31028H21.1699C21.3225 4.31028 21.3988 4.27215 21.4751 4.234C21.5132 4.15771 21.5514 4.08142 21.5514 3.92884C21.5514 3.85255 21.5514 3.77626 21.5132 3.73812C21.5132 3.69998 21.4751 3.66184 21.437 3.62369C21.3988 3.58555 21.3607 3.58554 21.2844 3.58554C21.2462 3.58554 21.1699 3.58554 21.0936 3.58554H21.0174V4.31028ZM20.5215 5.91235V3.2041H21.1699C21.2844 3.2041 21.3988 3.2041 21.5132 3.24225C21.5895 3.28039 21.704 3.31853 21.7421 3.35668C21.8184 3.39482 21.8565 3.47111 21.8947 3.58554C21.9328 3.66183 21.9328 3.77626 21.9328 3.92884C21.9328 4.27214 21.8184 4.46286 21.5514 4.50101C21.704 4.53915 21.8184 4.61544 21.8947 4.69173C21.971 4.80616 22.0091 4.95874 22.0091 5.14946C22.0091 5.41648 21.9328 5.6072 21.8184 5.72163C21.704 5.83606 21.5132 5.91235 21.2462 5.91235H20.5215Z" fill="white"/>
<path d="M22.3145 5.91235V3.2041H22.8103V5.56905H23.4588V5.91235H22.3145Z" fill="white"/>
<path d="M23.6494 5.91235V3.2041H24.7556V3.5474H24.1453V4.34843H24.6412V4.69173H24.1453V5.56905H24.7556V5.91235H23.6494Z" fill="white"/>
<path d="M26.2432 4.95874H26.5865L26.3958 3.85256L26.2432 4.95874ZM25.5947 5.91235L26.1287 3.2041H26.6246L27.1586 5.91235H26.7391L26.6246 5.30204H26.1669L26.0525 5.91235H25.5947Z" fill="white"/>
<path d="M27.3877 5.91235V3.2041H27.731L28.4176 4.72987V3.2041H28.799V5.91235H28.4939L27.8073 4.31028V5.91235H27.3877Z" fill="white"/>
<path d="M29.638 5.56905H29.7905C29.8287 5.56905 29.8668 5.56905 29.905 5.56905C29.9431 5.56905 29.9813 5.56905 29.9813 5.53091C30.0194 5.53091 30.0194 5.49276 30.0576 5.45462C30.0576 5.41647 30.0957 5.41648 30.0957 5.37833C30.0957 5.34019 30.0957 5.34018 30.1338 5.26389C30.1338 5.22575 30.1338 5.18761 30.1338 5.14946C30.1338 5.11132 30.1338 5.07318 30.1338 4.99689V4.00513C30.1338 3.92885 30.1338 3.8907 30.1338 3.85256C30.1338 3.81442 30.1338 3.77626 30.1338 3.73812C30.1338 3.69998 30.0957 3.66184 30.0957 3.66184C30.0957 3.66184 30.0576 3.62369 30.0194 3.58554C29.9813 3.58554 29.9431 3.5474 29.905 3.5474C29.8668 3.5474 29.8287 3.5474 29.7524 3.5474H29.5998V5.56905H29.638ZM29.1421 5.91235V3.2041H29.7524C29.905 3.2041 30.0576 3.2041 30.172 3.24225C30.2864 3.28039 30.3627 3.31853 30.439 3.39482C30.5153 3.47111 30.5534 3.54741 30.5916 3.66184C30.6297 3.77627 30.6297 3.8907 30.6297 4.04328V5.03504C30.6297 5.18761 30.6297 5.30205 30.5916 5.41648C30.5534 5.53091 30.5153 5.60719 30.439 5.68348C30.3627 5.75977 30.2864 5.79791 30.172 5.83606C30.0576 5.8742 29.9431 5.87421 29.7905 5.87421H29.1421V5.91235Z" fill="white"/>
<path d="M9.9939 10.337C9.87947 10.337 9.76504 10.337 9.68875 10.2989C9.61246 10.2607 9.53617 10.2226 9.45988 10.1845C9.38359 10.1463 9.34545 10.07 9.30731 9.99374C9.26916 9.91745 9.23101 9.84115 9.23101 9.72672C9.23101 9.65043 9.19287 9.536 9.19287 9.42157V8.46796C9.19287 8.35353 9.19287 8.23909 9.23101 8.1628C9.23101 8.08651 9.26916 7.97209 9.30731 7.8958C9.34545 7.81951 9.38359 7.74322 9.45988 7.70508C9.53617 7.66693 9.57432 7.62878 9.68875 7.59064C9.76504 7.55249 9.87947 7.55249 9.9939 7.55249C10.1465 7.55249 10.2609 7.55249 10.3372 7.59064C10.4135 7.62878 10.4898 7.66692 10.5661 7.74321C10.6042 7.8195 10.6424 7.89579 10.6805 7.97208C10.7186 8.04837 10.7186 8.1628 10.7186 8.31538V8.54425H10.2609V8.31538C10.2609 8.1628 10.2609 8.08652 10.2228 8.04837C10.1846 7.97208 10.1083 7.8958 10.032 7.8958H9.9939C9.95576 7.8958 9.91761 7.8958 9.87947 7.8958C9.84133 7.8958 9.84132 7.93393 9.80318 7.93393C9.76504 7.97208 9.76504 7.97208 9.76504 8.01023C9.76504 8.04837 9.72689 8.04838 9.72689 8.08652C9.72689 8.12466 9.72689 8.1628 9.72689 8.20095C9.72689 8.23909 9.72689 8.27723 9.72689 8.31538V9.45971C9.72689 9.61228 9.76504 9.72673 9.80318 9.80301C9.84132 9.8793 9.91761 9.91744 10.032 9.91744C10.0702 9.91744 10.1083 9.91744 10.1083 9.91744C10.1465 9.91744 10.1465 9.91744 10.1846 9.8793L10.2228 9.84115C10.2228 9.80301 10.2609 9.80301 10.2609 9.76487C10.2609 9.72672 10.2609 9.72672 10.2609 9.68857C10.2609 9.65043 10.2609 9.61229 10.2609 9.61229C10.2609 9.57415 10.2609 9.536 10.2609 9.49785V9.26899H10.7186V9.49785C10.7186 9.61229 10.7186 9.68858 10.6805 9.76487C10.6805 9.84116 10.6424 9.91745 10.6042 9.99374C10.5661 10.07 10.5279 10.1082 10.4898 10.1845C10.4516 10.2226 10.3753 10.2607 10.2991 10.2989C10.1846 10.337 10.1083 10.337 9.9939 10.337Z" fill="white"/>
<path d="M10.9854 10.299V7.62891H11.4812V9.95571H12.1297V10.299H10.9854Z" fill="white"/>
<path d="M12.3208 10.299V7.62891H13.4651V7.9722H12.8167V8.73509H13.3126V9.07839H12.8167V9.95571H13.4651V10.299H12.3208Z" fill="white"/>
<path d="M14.1513 9.38336H14.4946L14.3039 8.27718L14.1513 9.38336ZM13.541 10.2988L14.075 7.59058H14.5709L15.1049 10.2988H14.6472L14.5328 9.68851H14.075L13.9606 10.2988H13.541Z" fill="white"/>
<path d="M15.334 10.299V7.62891H15.6773L16.3257 9.15468V7.62891H16.7453V10.299H16.4402L15.7536 8.69694V10.299H15.334Z" fill="white"/>
<path d="M17.8516 10.299V7.62891H18.9578V7.9722H18.3093V8.73509H18.8433V9.07839H18.3093V9.95571H18.9578V10.299H17.8516Z" fill="white"/>
<path d="M19.1865 10.299V7.62891H19.5298L20.1783 9.15468V7.62891H20.5979V10.299H20.2546L19.6061 8.69694V10.299H19.1865Z" fill="white"/>
<path d="M20.9414 10.299V7.62891H22.0476V7.9722H21.4373V8.73509H21.9332V9.07839H21.4373V9.95571H22.0476V10.299H20.9414Z" fill="white"/>
<path d="M22.7722 8.77305H22.8867C23.0393 8.77305 23.1537 8.7349 23.1918 8.69676C23.2681 8.62047 23.2681 8.54419 23.2681 8.39161C23.2681 8.23903 23.23 8.16275 23.1918 8.08646C23.1537 8.01017 23.0393 8.01017 22.8867 8.01017H22.7341V8.77305H22.7722ZM22.2764 10.2988V7.59058H22.8867C23.0393 7.59058 23.1537 7.59058 23.2681 7.62872C23.3825 7.66687 23.4588 7.70501 23.5351 7.74315C23.6114 7.7813 23.6496 7.85759 23.6877 7.97202C23.7259 8.04831 23.7259 8.16274 23.7259 8.31532C23.7259 8.46789 23.6877 8.62047 23.6496 8.73491C23.6114 8.84934 23.497 8.92563 23.3826 8.96377L23.764 10.2988H23.3063L23.0011 9.0782H22.7722V10.2988H22.2764V10.2988Z" fill="white"/>
<path d="M24.7554 10.337C24.4884 10.337 24.3359 10.2607 24.2214 10.1082C24.107 9.95559 24.0688 9.72673 24.0688 9.42157V8.54425C24.0688 8.39167 24.0688 8.23909 24.107 8.12466C24.1451 8.01022 24.1833 7.89579 24.2214 7.81951C24.2977 7.74322 24.374 7.66693 24.4503 7.62878C24.5647 7.59064 24.6792 7.55249 24.8317 7.55249C25.0987 7.55249 25.2895 7.62878 25.4039 7.74321C25.5183 7.85764 25.5946 8.08651 25.5946 8.35352V8.46796H25.1369V8.31538C25.1369 8.23909 25.1369 8.20095 25.1369 8.1628C25.1369 8.12466 25.1369 8.08652 25.0987 8.04837C25.0987 8.01023 25.0606 7.97208 25.0606 7.97208C25.0225 7.93394 25.0225 7.93393 24.9843 7.93393C24.9462 7.93393 24.908 7.8958 24.8699 7.8958C24.8317 7.8958 24.7936 7.8958 24.7554 7.8958C24.7173 7.8958 24.7173 7.93393 24.6792 7.93393C24.641 7.93393 24.641 7.97208 24.641 8.01023C24.641 8.04837 24.6029 8.04838 24.6029 8.08652C24.6029 8.12466 24.6029 8.12466 24.6029 8.1628C24.6029 8.20095 24.6029 8.2391 24.6029 8.27724C24.6029 8.31539 24.6029 8.35353 24.6029 8.39167V9.49785C24.6029 9.65043 24.641 9.76486 24.6792 9.84115C24.7173 9.91744 24.7936 9.95559 24.908 9.95559C24.9843 9.95559 25.0225 9.95559 25.0606 9.91744C25.0987 9.8793 25.1369 9.8793 25.1369 9.80301C25.175 9.76487 25.175 9.68857 25.175 9.65043C25.175 9.61228 25.175 9.536 25.175 9.42157V9.1927H24.8317V8.88754H25.5565V10.2607H25.2132L25.175 9.99374C25.0987 10.2607 24.9462 10.337 24.7554 10.337Z" fill="white"/>
<path d="M26.2049 10.299V9.26911L25.6709 7.62891H26.1286L26.4719 8.69694L26.7771 7.62891H27.2348L26.7008 9.26911V10.299H26.2049Z" fill="white"/>
<path d="M18.5 26.2814C16.9361 26.2814 15.6774 25.0227 15.6774 23.4587C15.6774 22.2 16.5165 21.0938 17.6609 20.7505V21.8185C17.0506 22.1237 16.631 22.734 16.631 23.4587C16.631 24.4886 17.4702 25.3278 18.5 25.3278C19.5299 25.3278 20.3691 24.4886 20.3691 23.4587C20.3691 22.734 19.9495 22.1237 19.3392 21.8185V20.7505C20.4836 21.0938 21.3227 22.2 21.3227 23.4587C21.3609 24.9845 20.064 26.2814 18.5 26.2814ZM18.1186 20.1783C18.1186 19.9876 18.3093 19.7969 18.5382 19.7969C18.7671 19.7969 18.9578 19.9876 18.9578 20.1783V22.0474C18.9578 22.2381 18.7671 22.4288 18.5382 22.4288C18.3093 22.4288 18.1186 22.2381 18.1186 22.0474V20.1783ZM18.5 18.0422C15.4866 18.0422 13.0454 20.4835 13.0454 23.4969C13.0454 26.5103 15.4866 28.9515 18.5 28.9515C21.5135 28.9515 23.9547 26.5103 23.9547 23.4969C23.9547 20.4835 21.5135 18.0422 18.5 18.0422Z" fill="white"/>
<path d="M12.2442 23.4206C12.2442 23.1917 12.0154 22.9629 11.8246 22.9629H9.42154C9.23082 22.9629 9.00195 23.1536 9.00195 23.4206C9.00195 23.6876 9.23082 23.8784 9.42154 23.8784H11.8246C12.0535 23.8784 12.2442 23.6876 12.2442 23.4206Z" fill="white"/>
<path d="M27.9981 23.4206C27.9981 23.1917 27.7693 22.9629 27.5785 22.9629H25.1754C24.9847 22.9629 24.7559 23.1536 24.7559 23.4206C24.7559 23.6876 24.9847 23.8784 25.1754 23.8784H27.5785C27.7693 23.8784 27.9981 23.6876 27.9981 23.4206Z" fill="white"/>
<path d="M18.5002 32.9185C18.7291 32.9185 18.9579 32.6897 18.9579 32.499V30.0959C18.9579 29.9051 18.7672 29.6763 18.5002 29.6763C18.2713 29.6763 18.0425 29.9051 18.0425 30.0959V32.499C18.0806 32.6897 18.2713 32.9185 18.5002 32.9185Z" fill="white"/>
<path d="M26.7392 28.1505C26.8536 27.9217 26.7773 27.6547 26.5866 27.5402L24.5268 26.3577C24.3361 26.2433 24.0691 26.3196 23.9546 26.5485C23.8402 26.7773 23.9165 27.0444 24.1072 27.1588L26.167 28.3412C26.3196 28.4175 26.6247 28.3412 26.7392 28.1505Z" fill="white"/>
<path d="M13.8082 31.6598C14.0371 31.7743 14.3041 31.698 14.4185 31.5073L15.601 29.4475C15.7155 29.2567 15.6392 28.9897 15.4103 28.8753C15.1814 28.7609 14.9144 28.8372 14.8 29.0279L13.6175 31.0877C13.5031 31.2402 13.5794 31.5454 13.8082 31.6598Z" fill="white"/>
<path d="M23.2299 31.6598C23.4587 31.5454 23.4969 31.2402 23.4206 31.0877L22.2381 29.0279C22.1237 28.8372 21.8567 28.7609 21.6278 28.8753C21.3989 28.9897 21.3608 29.2949 21.4371 29.4475L22.6195 31.5073C22.734 31.698 23.0391 31.7743 23.2299 31.6598Z" fill="white"/>
<path d="M10.2989 28.1505C10.4133 28.3794 10.7185 28.4175 10.871 28.3412L12.9308 27.1588C13.1216 27.0443 13.1979 26.7773 13.0834 26.5484C12.969 26.3196 12.6638 26.2814 12.5113 26.3577L10.4515 27.5402C10.2607 27.6546 10.1845 27.9598 10.2989 28.1505Z" fill="white"/>
<path d="M18.5002 17.1649C18.7291 17.1649 18.9579 16.936 18.9579 16.7453V14.3422C18.9579 14.1515 18.7672 13.9226 18.5002 13.9226C18.2713 13.9226 18.0425 14.1515 18.0425 14.3422V16.7453C18.0806 16.936 18.2713 17.1649 18.5002 17.1649Z" fill="white"/>
<path d="M13.0834 20.3307C13.1979 20.1018 13.1216 19.8348 12.9308 19.7204L10.871 18.5379C10.6803 18.4235 10.4133 18.4998 10.2989 18.7286C10.1845 18.9575 10.2607 19.2245 10.4515 19.339L12.5113 20.5214C12.6638 20.5977 12.969 20.5214 13.0834 20.3307Z" fill="white"/>
<path d="M21.6281 18.0041C21.8569 18.1185 22.1239 18.0422 22.2384 17.8515L23.4208 15.7917C23.5353 15.601 23.459 15.334 23.2301 15.2195C23.0013 15.1051 22.7342 15.1814 22.6198 15.3721L21.4373 17.4319C21.3229 17.5845 21.3992 17.8896 21.6281 18.0041Z" fill="white"/>
<path d="M15.4105 18.0041C15.6394 17.8896 15.6775 17.5845 15.6012 17.4319L14.4188 15.3721C14.3043 15.1814 14.0373 15.1051 13.8085 15.2195C13.5796 15.334 13.5414 15.6391 13.6177 15.7917L14.8002 17.8515C14.9146 18.0422 15.1817 18.1185 15.4105 18.0041Z" fill="white"/>
<path d="M23.9545 20.2929C24.0689 20.5217 24.3741 20.5599 24.5267 20.4836L26.5865 19.3011C26.7772 19.1867 26.8535 18.9196 26.739 18.6908C26.6246 18.4619 26.3194 18.4238 26.1669 18.5001L24.1071 19.6825C23.9164 19.797 23.8019 20.1021 23.9545 20.2929Z" fill="white"/>
</g>
<g clip-path="url(#clip1_1002_15406)">
<path d="M74 0H37V37H74V0Z" fill="#F99D25"/>
<path d="M40.2423 4.61539C40.166 4.65353 39.9753 4.72982 39.6701 4.84425C39.4413 4.92054 39.2887 4.99683 39.2124 4.99683V4.00507C39.4031 3.92879 39.632 3.81435 39.9372 3.66178C40.2042 3.5092 40.433 3.35662 40.5475 3.24219H41.6155V10.2989H40.2805V4.61539H40.2423Z" fill="white"/>
<path d="M43.1793 4.61539C43.103 4.65353 42.9123 4.72982 42.6072 4.84425C42.3783 4.92054 42.2257 4.99683 42.1494 4.99683V4.00507C42.3401 3.92879 42.569 3.81435 42.8742 3.66178C43.1412 3.5092 43.37 3.35662 43.4845 3.24219H44.5525V10.2989H43.1793V4.61539Z" fill="white"/>
<path d="M47.6804 5.95056C47.2226 5.95056 46.9556 5.68354 46.9175 5.11138L47.3371 5.0351C47.3371 5.3784 47.4515 5.56912 47.6422 5.56912C47.7185 5.56912 47.7567 5.53097 47.7948 5.49282C47.8329 5.45468 47.833 5.37839 47.833 5.3021C47.833 5.22581 47.8329 5.14952 47.7948 5.11138C47.7567 5.03509 47.7185 4.99695 47.7185 4.9588C47.6804 4.92066 47.6422 4.88252 47.5659 4.80623L47.2226 4.50107C47.1082 4.42478 47.0319 4.31035 46.9938 4.23406C46.9556 4.11963 46.9175 4.0052 46.9175 3.85262C46.9175 3.6619 46.9938 3.47117 47.1082 3.35674C47.2226 3.2423 47.4134 3.16602 47.6041 3.16602C47.7185 3.16602 47.7948 3.16602 47.8711 3.20416C47.9474 3.24231 48.0237 3.28046 48.0618 3.3186C48.1 3.35675 48.1381 3.43303 48.1762 3.47118C48.2144 3.54747 48.2525 3.58561 48.2525 3.6619C48.2525 3.73819 48.2907 3.81448 48.2907 3.89077L47.8711 3.96705C47.8711 3.9289 47.8711 3.85262 47.8711 3.81447C47.8711 3.77633 47.8711 3.73819 47.833 3.70005C47.7948 3.6619 47.7948 3.62375 47.7948 3.58561C47.7948 3.54746 47.7567 3.54747 47.7185 3.50932C47.6804 3.50932 47.6422 3.47118 47.6041 3.50932C47.5278 3.50932 47.4897 3.54746 47.4515 3.58561C47.4134 3.62375 47.3752 3.70004 47.3752 3.77633C47.3752 3.85262 47.3752 3.92891 47.4134 4.0052C47.4515 4.04334 47.4897 4.11963 47.5659 4.19592L47.9092 4.50107C47.9855 4.53921 48.0237 4.61551 48.0618 4.65365C48.1 4.6918 48.1381 4.76808 48.1762 4.80623C48.2144 4.88252 48.2525 4.95881 48.2525 5.0351C48.2907 5.11139 48.2907 5.18766 48.2907 5.26395C48.2907 5.45468 48.2144 5.60726 48.1 5.75984C48.0618 5.87427 47.8711 5.95056 47.6804 5.95056Z" fill="white"/>
<path d="M49.2444 5.95044C49.13 5.95044 49.0155 5.95044 48.9392 5.91229C48.8629 5.87415 48.7867 5.83601 48.7104 5.79786C48.6341 5.75972 48.5959 5.68343 48.5578 5.60714C48.5196 5.53085 48.4815 5.45456 48.4815 5.34013C48.4815 5.26384 48.4434 5.14941 48.4434 5.03498V3.24219H48.9011V5.07311C48.9011 5.1494 48.9011 5.18755 48.9011 5.2257C48.9011 5.26384 48.9011 5.30198 48.9392 5.37827C48.9392 5.41642 48.9774 5.45456 48.9774 5.4927C49.0155 5.53085 49.0155 5.53085 49.0537 5.56899C49.0918 5.60714 49.13 5.60714 49.1681 5.60714C49.2063 5.60714 49.2444 5.60714 49.2825 5.56899C49.3207 5.53085 49.3588 5.53085 49.3588 5.4927C49.3588 5.45456 49.397 5.41642 49.397 5.37827C49.397 5.34013 49.397 5.30199 49.4351 5.2257C49.4351 5.18755 49.4351 5.11126 49.4351 5.07311V3.24219H49.8928V5.03498C49.8928 5.14941 49.8928 5.26384 49.8547 5.34013C49.8547 5.41641 49.8166 5.53085 49.7784 5.60714C49.7403 5.68343 49.7021 5.75972 49.6258 5.79786C49.5496 5.83601 49.5114 5.87415 49.397 5.91229C49.4733 5.91229 49.3588 5.95044 49.2444 5.95044Z" fill="white"/>
<path d="M50.9226 5.95056C50.4648 5.95056 50.1978 5.68354 50.1597 5.11138L50.5793 5.0351C50.5793 5.3784 50.6937 5.56912 50.8844 5.56912C50.9607 5.56912 50.9988 5.53097 51.037 5.49282C51.0751 5.45468 51.0751 5.37839 51.0751 5.3021C51.0751 5.22581 51.0751 5.14952 51.037 5.11138C50.9988 5.03509 50.9607 4.99695 50.9607 4.9588C50.9226 4.92066 50.8844 4.88252 50.8081 4.80623L50.4648 4.50107C50.3504 4.42478 50.2741 4.31035 50.236 4.23406C50.1978 4.11963 50.1597 4.0052 50.1597 3.85262C50.1597 3.6619 50.236 3.47117 50.3504 3.35674C50.4648 3.2423 50.6555 3.16602 50.8463 3.16602C50.9607 3.16602 51.037 3.16602 51.1133 3.20416C51.1896 3.24231 51.2659 3.28046 51.304 3.3186C51.3421 3.35675 51.3803 3.43303 51.4184 3.47118C51.4566 3.54747 51.4947 3.58561 51.4947 3.6619C51.4947 3.73819 51.5329 3.81448 51.5329 3.89077L51.1133 3.96705C51.1133 3.9289 51.1133 3.85262 51.1133 3.81447C51.1133 3.77633 51.1133 3.73819 51.0751 3.70005C51.037 3.6619 51.037 3.62375 51.037 3.58561C50.9988 3.54746 50.9989 3.54747 50.9607 3.50932C50.9226 3.50932 50.8844 3.47118 50.8463 3.50932C50.77 3.50932 50.7318 3.54746 50.6937 3.58561C50.6556 3.62375 50.6174 3.70004 50.6174 3.77633C50.6174 3.85262 50.6174 3.92891 50.6555 4.0052C50.6937 4.04334 50.7318 4.11963 50.8081 4.19592L51.1514 4.50107C51.2277 4.53921 51.2659 4.61551 51.304 4.65365C51.3421 4.6918 51.3803 4.76808 51.4184 4.80623C51.4566 4.88252 51.4947 4.95881 51.4947 5.0351C51.5329 5.11139 51.5329 5.18766 51.5329 5.26395C51.5329 5.45468 51.4566 5.60726 51.3422 5.75984C51.304 5.87427 51.1133 5.95056 50.9226 5.95056Z" fill="white"/>
<path d="M52.029 5.91235V3.58554H51.5713V3.2041H52.9445V3.58554H52.5249V5.91235H52.029Z" fill="white"/>
<path d="M53.4785 4.95874H53.8218L53.6311 3.85256L53.4785 4.95874ZM52.8682 5.91235L53.4022 3.2041H53.898L54.4321 5.91235H53.9743L53.8599 5.30204H53.4022L53.2877 5.91235H52.8682Z" fill="white"/>
<path d="M55.1184 3.2041H54.6226V5.91235H55.1184V3.2041Z" fill="white"/>
<path d="M55.3857 5.91235V3.2041H55.7291L56.3775 4.72987V3.2041H56.7971V5.91235H56.4538L55.8053 4.31028V5.91235H55.3857Z" fill="white"/>
<path d="M57.5596 4.95874H57.9029L57.7122 3.85256L57.5596 4.95874ZM56.9111 5.91235L57.4452 3.2041H57.941L58.475 5.91235H58.0555L57.941 5.30204H57.4833L57.3689 5.91235H56.9111Z" fill="white"/>
<path d="M59.1619 5.56905H59.3526C59.5052 5.56905 59.5815 5.5309 59.6578 5.45462C59.6959 5.37833 59.7341 5.2639 59.7341 5.11132C59.7341 4.95874 59.6959 4.84431 59.6578 4.76802C59.5815 4.69173 59.5052 4.65359 59.3526 4.65359H59.2V5.56905H59.1619ZM59.1619 4.31028H59.3145C59.4671 4.31028 59.5433 4.27215 59.6196 4.234C59.6578 4.15771 59.6959 4.08142 59.6959 3.92884C59.6959 3.85255 59.6959 3.77626 59.6578 3.73812C59.6578 3.69998 59.6196 3.66184 59.5815 3.62369C59.5433 3.58555 59.5052 3.58554 59.4289 3.58554C59.3908 3.58554 59.3145 3.58554 59.2382 3.58554H59.1619V4.31028V4.31028ZM58.666 5.91235V3.2041H59.3145C59.4289 3.2041 59.5433 3.2041 59.6578 3.24225C59.7341 3.28039 59.8485 3.31853 59.8866 3.35668C59.9629 3.39482 60.0011 3.47111 60.0392 3.58554C60.0774 3.66183 60.0774 3.77626 60.0774 3.92884C60.0774 4.27214 59.9629 4.46286 59.6959 4.50101C59.8485 4.53915 59.9629 4.61544 60.0392 4.69173C60.1155 4.80616 60.1537 4.95874 60.1537 5.14946C60.1537 5.41648 60.0774 5.6072 59.9629 5.72163C59.8485 5.83606 59.6578 5.91235 59.3908 5.91235H58.666Z" fill="white"/>
<path d="M60.3823 5.91235V3.2041H60.8401V5.56905H61.4885V5.91235H60.3823Z" fill="white"/>
<path d="M61.6411 5.91235V3.2041H62.7473V3.5474H62.0988V4.34843H62.6329V4.69173H62.0988V5.56905H62.7473V5.91235H61.6411Z" fill="white"/>
<path d="M64.3113 5.95056C64.1969 5.95056 64.0824 5.95056 64.0061 5.91241C63.9298 5.87427 63.8536 5.83613 63.7773 5.79798C63.701 5.75984 63.6628 5.68355 63.6247 5.60726C63.5865 5.53097 63.5484 5.45468 63.5484 5.34025C63.5484 5.26396 63.5103 5.14953 63.5103 5.0351V4.08149C63.5103 3.96706 63.5103 3.85262 63.5484 3.77633C63.5484 3.70004 63.5865 3.58561 63.6247 3.50932C63.6628 3.43304 63.701 3.35675 63.7773 3.3186C63.8536 3.28046 63.8917 3.24231 64.0061 3.20416C64.1206 3.16602 64.1969 3.16602 64.3113 3.16602C64.4639 3.16602 64.5783 3.16602 64.6546 3.20416C64.7309 3.24231 64.8072 3.28045 64.8835 3.35674C64.9216 3.43303 64.9597 3.50932 64.9979 3.58561C65.036 3.66189 65.036 3.77632 65.036 3.9289V4.15777H64.5783V3.9289C64.5783 3.77632 64.5783 3.70004 64.5402 3.6619C64.502 3.58561 64.4257 3.50932 64.3494 3.50932H64.3113C64.2732 3.50932 64.235 3.50932 64.1968 3.50932C64.1587 3.50932 64.1587 3.54746 64.1206 3.54746C64.0824 3.5856 64.0824 3.58561 64.0824 3.62375C64.0824 3.6619 64.0443 3.6619 64.0443 3.70005C64.0443 3.73819 64.0443 3.77633 64.0443 3.81447C64.0443 3.85262 64.0443 3.89076 64.0443 3.9289V5.07323C64.0443 5.22581 64.0824 5.34025 64.1206 5.41654C64.1587 5.49283 64.235 5.53097 64.3494 5.53097C64.3876 5.53097 64.4257 5.53097 64.4257 5.53097C64.4639 5.53097 64.4639 5.53097 64.502 5.49282L64.5402 5.45468C64.5402 5.41653 64.5783 5.41654 64.5783 5.37839C64.5783 5.34025 64.5783 5.34024 64.5783 5.3021C64.5783 5.26396 64.5783 5.22582 64.5783 5.22582C64.5783 5.18767 64.5783 5.14952 64.5783 5.11138V4.88251H65.036V5.11138C65.036 5.22581 65.036 5.3021 64.9979 5.37839C64.9979 5.45468 64.9597 5.53097 64.9216 5.60726C64.8835 5.68355 64.8453 5.72169 64.8072 5.79798C64.769 5.83613 64.6927 5.87427 64.6164 5.91241C64.502 5.91241 64.4257 5.95056 64.3113 5.95056Z" fill="white"/>
<path d="M65.761 3.2041H65.2651V5.91235H65.761V3.2041Z" fill="white"/>
<path d="M66.2946 5.91235V3.58554H65.8369V3.2041H67.2101V3.58554H66.7905V5.91235H66.2946Z" fill="white"/>
<path d="M67.7825 3.2041H67.2866V5.91235H67.7825V3.2041Z" fill="white"/>
<path d="M68.0493 5.91235V3.2041H69.1936V3.5474H68.5452V4.34843H69.0792V4.69173H68.5452V5.56905H69.1936V5.91235H68.0493Z" fill="white"/>
<path d="M70.0329 5.95056C69.5752 5.95056 69.3082 5.68354 69.27 5.11138L69.6896 5.0351C69.6896 5.3784 69.804 5.56912 69.9947 5.56912C70.071 5.56912 70.1092 5.53097 70.1473 5.49282C70.1855 5.45468 70.1855 5.37839 70.1855 5.3021C70.1855 5.22581 70.1855 5.14952 70.1473 5.11138C70.1092 5.03509 70.071 4.99695 70.071 4.9588C70.0329 4.92066 69.9947 4.88252 69.9185 4.80623L69.5752 4.50107C69.4607 4.42478 69.3844 4.31035 69.3463 4.23406C69.3081 4.11963 69.27 4.0052 69.27 3.85262C69.27 3.6619 69.3463 3.47117 69.4607 3.35674C69.5752 3.2423 69.7659 3.16602 69.9566 3.16602C70.071 3.16602 70.1473 3.16602 70.2236 3.20416C70.2999 3.24231 70.3762 3.28046 70.4143 3.3186C70.4525 3.35675 70.4906 3.43303 70.5288 3.47118C70.5669 3.54747 70.6051 3.58561 70.6051 3.6619C70.6051 3.73819 70.6432 3.81448 70.6432 3.89077L70.2236 3.96705C70.2236 3.9289 70.2236 3.85262 70.2236 3.81447C70.2236 3.77633 70.2236 3.73819 70.1855 3.70005C70.1473 3.6619 70.1473 3.62375 70.1473 3.58561C70.1092 3.54746 70.1092 3.54747 70.071 3.50932C70.0329 3.50932 69.9948 3.47118 69.9566 3.50932C69.8803 3.50932 69.8422 3.54746 69.804 3.58561C69.7659 3.62375 69.7277 3.70004 69.7277 3.77633C69.7277 3.85262 69.7277 3.92891 69.7659 4.0052C69.804 4.04334 69.8422 4.11963 69.9185 4.19592L70.2618 4.50107C70.338 4.53921 70.3762 4.61551 70.4143 4.65365C70.4525 4.6918 70.4906 4.76808 70.5288 4.80623C70.5669 4.88252 70.6051 4.95881 70.6051 5.0351C70.6432 5.11139 70.6432 5.18766 70.6432 5.26395C70.6432 5.45468 70.5669 5.60726 70.4525 5.75984C70.4143 5.87427 70.2236 5.95056 70.0329 5.95056Z" fill="white"/>
<path d="M47.4898 9.38336H47.8331L47.6424 8.27718L47.4898 9.38336ZM46.8413 10.2988L47.3753 7.59058H47.8712L48.4052 10.2988H47.9475L47.8331 9.68851H47.3753L47.2609 10.2988H46.8413Z" fill="white"/>
<path d="M48.5957 10.299V7.62891H48.939L49.5874 9.15468V7.62891H50.007V10.299H49.6637L49.0153 8.69694V10.299H48.5957Z" fill="white"/>
<path d="M50.7703 9.95553H50.9229C50.961 9.95553 50.9992 9.95553 51.0373 9.95553C51.0754 9.95553 51.1136 9.95553 51.1136 9.91738C51.1517 9.91738 51.1517 9.87923 51.1899 9.84109C51.1899 9.80294 51.228 9.80295 51.228 9.76481C51.228 9.72666 51.228 9.72666 51.2662 9.65037C51.2662 9.61222 51.2662 9.57408 51.2662 9.53594C51.2662 9.49779 51.2662 9.45965 51.2662 9.38336V8.39161C51.2662 8.31532 51.2662 8.27718 51.2662 8.23903C51.2662 8.20089 51.2662 8.16274 51.2662 8.12459C51.2662 8.08645 51.228 8.04831 51.228 8.04831C51.228 8.04831 51.1899 8.01016 51.1518 7.97202C51.1136 7.97202 51.0754 7.93387 51.0373 7.93387C50.9992 7.93387 50.961 7.93387 50.8847 7.93387H50.7322V9.95553H50.7703ZM50.2744 10.2988V7.59058H50.8847C51.0373 7.59058 51.1899 7.59058 51.3043 7.62872C51.4187 7.66687 51.495 7.70501 51.5713 7.7813C51.6476 7.85759 51.6858 7.93388 51.7239 8.04831C51.7621 8.16275 51.7621 8.27718 51.7621 8.42976V9.42151C51.7621 9.57409 51.7621 9.68852 51.7239 9.80295C51.6858 9.91739 51.6476 9.99367 51.5713 10.07C51.495 10.1462 51.4187 10.1844 51.3043 10.2225C51.1899 10.2607 51.0754 10.2607 50.9229 10.2607H50.2744V10.2988Z" fill="white"/>
<path d="M53.364 10.337C53.2496 10.337 53.1352 10.337 53.0589 10.2989C52.9826 10.2607 52.9063 10.2226 52.83 10.1845C52.7537 10.1463 52.7156 10.07 52.6774 9.99374C52.6393 9.91745 52.6011 9.84115 52.6011 9.72672C52.6011 9.65043 52.563 9.536 52.563 9.42157V8.46796C52.563 8.35353 52.563 8.23909 52.6011 8.1628C52.6011 8.08651 52.6393 7.97209 52.6774 7.8958C52.7156 7.81951 52.7537 7.74322 52.83 7.70508C52.9063 7.66693 52.9444 7.62878 53.0589 7.59064C53.1733 7.55249 53.2496 7.55249 53.364 7.55249C53.5166 7.55249 53.631 7.55249 53.7073 7.59064C53.7836 7.62878 53.8599 7.66692 53.9362 7.74321C53.9743 7.8195 54.0125 7.89579 54.0506 7.97208C54.0888 8.04837 54.0888 8.1628 54.0888 8.31538V8.54425H53.631V8.31538C53.631 8.1628 53.631 8.08652 53.5929 8.04837C53.5547 7.97208 53.4785 7.8958 53.4022 7.8958H53.364C53.3259 7.8958 53.2877 7.8958 53.2496 7.8958C53.2115 7.8958 53.2115 7.93393 53.1733 7.93393C53.1352 7.97208 53.1352 7.97208 53.1352 8.01023C53.1352 8.04837 53.097 8.04838 53.097 8.08652C53.097 8.12466 53.097 8.1628 53.097 8.20095C53.097 8.23909 53.097 8.27723 53.097 8.31538V9.45971C53.097 9.61228 53.1352 9.72673 53.1733 9.80301C53.2115 9.8793 53.2877 9.91744 53.4022 9.91744C53.4403 9.91744 53.4785 9.91744 53.4785 9.91744C53.5166 9.91744 53.5166 9.91744 53.5548 9.8793L53.5929 9.84115C53.5929 9.80301 53.631 9.80301 53.631 9.76487C53.631 9.72672 53.631 9.72672 53.631 9.68857C53.631 9.65043 53.631 9.61229 53.631 9.61229C53.631 9.57415 53.631 9.536 53.631 9.49785V9.26899H54.0888V9.49785C54.0888 9.61229 54.0888 9.68858 54.0506 9.76487C54.0506 9.84116 54.0125 9.91745 53.9743 9.99374C53.9362 10.07 53.898 10.1082 53.8599 10.1845C53.8218 10.2226 53.7455 10.2607 53.6692 10.2989C53.5929 10.337 53.4785 10.337 53.364 10.337Z" fill="white"/>
<path d="M54.9278 9.95559C54.9659 9.95559 55.0041 9.99374 55.0422 9.99374C55.0804 9.99374 55.1185 9.99373 55.1567 9.95559C55.1948 9.95559 55.233 9.91744 55.233 9.91744C55.2711 9.8793 55.2711 9.87929 55.2711 9.84115C55.2711 9.80301 55.2711 9.76487 55.3092 9.72672C55.3092 9.68858 55.3092 9.65044 55.3092 9.61229V8.39167C55.3092 8.31538 55.3092 8.27724 55.3092 8.2391C55.3092 8.20095 55.2711 8.1628 55.2711 8.12466C55.2711 8.08651 55.233 8.04837 55.1948 8.04837C55.1567 8.04837 55.1185 8.01023 55.0422 8.01023C54.9659 8.01023 54.9278 8.01023 54.8897 8.04837C54.8515 8.04837 54.8134 8.08651 54.8134 8.12466C54.8134 8.1628 54.7752 8.20095 54.7752 8.2391C54.7752 8.27724 54.7752 8.35353 54.7752 8.39167V9.61229C54.7752 9.65044 54.7752 9.68858 54.7752 9.72672C54.7752 9.76487 54.7752 9.80301 54.8134 9.84115C54.8134 9.87929 54.8515 9.91744 54.8515 9.91744C54.8515 9.91744 54.8897 9.95559 54.9278 9.95559ZM55.0422 10.337C54.7752 10.337 54.5845 10.2607 54.4319 10.1082C54.3175 9.95559 54.2412 9.72672 54.2412 9.45971V8.46796C54.2412 8.31539 54.2412 8.20095 54.2793 8.08652C54.3175 7.97209 54.3557 7.89579 54.3938 7.81951C54.4701 7.74322 54.5464 7.66693 54.6227 7.62878C54.7371 7.59064 54.8515 7.55249 55.0041 7.55249C55.2711 7.55249 55.4618 7.62878 55.6144 7.78136C55.7288 7.93394 55.8051 8.16281 55.8051 8.42982V9.42157C55.8051 9.57415 55.8051 9.68858 55.767 9.80301C55.7288 9.91745 55.6907 9.99373 55.6526 10.07C55.5763 10.1463 55.5 10.2226 55.4237 10.2607C55.3092 10.337 55.1948 10.337 55.0422 10.337Z" fill="white"/>
<path d="M56.0342 10.299L56.0723 7.62891H56.5682L56.9878 9.49798L57.3692 7.62891H57.8651L57.9032 10.299H57.56L57.5218 8.46809L57.1404 10.299H56.8352L56.4538 8.46809L56.4156 10.299H56.0342Z" fill="white"/>
<path d="M58.1699 10.299L58.2081 7.62891H58.704L59.1235 9.49798L59.505 7.62891H60.0008L60.039 10.299H59.6957L59.6576 8.46809L59.2761 10.299H58.971L58.5895 8.46809L58.5514 10.299H58.1699Z" fill="white"/>
<path d="M61.0691 10.3372C60.9547 10.3372 60.8402 10.3372 60.7639 10.299C60.6876 10.2609 60.6114 10.2227 60.5351 10.1846C60.4588 10.1464 60.4206 10.0701 60.3825 9.99386C60.3444 9.91757 60.3062 9.84128 60.3062 9.72684C60.3062 9.65056 60.2681 9.53613 60.2681 9.42169V7.62891H60.7258V9.45983C60.7258 9.53612 60.7258 9.57427 60.7258 9.61242C60.7258 9.65056 60.7258 9.6887 60.7639 9.76499C60.7639 9.80314 60.8021 9.84127 60.8021 9.87942C60.8402 9.91756 60.8402 9.91757 60.8784 9.95571C60.9165 9.99386 60.9547 9.99386 60.9928 9.99386C61.031 9.99386 61.0691 9.99386 61.1072 9.95571C61.1454 9.91757 61.1835 9.91756 61.1835 9.87942C61.1835 9.84127 61.2217 9.80314 61.2217 9.76499C61.2217 9.72685 61.2217 9.6887 61.2598 9.61242C61.2598 9.57427 61.2598 9.49797 61.2598 9.45983V7.62891H61.7175V9.42169C61.7175 9.53613 61.7176 9.65056 61.6794 9.72684C61.6794 9.80313 61.6413 9.91757 61.6031 9.99386C61.565 10.0701 61.5268 10.1464 61.4506 10.1846C61.3743 10.2227 61.3361 10.2609 61.2217 10.299C61.2598 10.3372 61.1835 10.3372 61.0691 10.3372Z" fill="white"/>
<path d="M62.061 10.299V7.62891H62.4043L63.0528 9.15468V7.62891H63.4724V10.299H63.1291L62.4806 8.69694V10.299H62.061Z" fill="white"/>
<path d="M64.2351 7.62891H63.7393V10.3372H64.2351V7.62891Z" fill="white"/>
<path d="M64.7692 10.299V7.9722H64.3115V7.62891H65.6847V7.9722H65.2651V10.299H64.7692Z" fill="white"/>
<path d="M66.2947 7.62891H65.7988V10.3372H66.2947V7.62891Z" fill="white"/>
<path d="M66.562 10.299V7.62891H67.6682V7.9722H67.0579V8.73509H67.5538V9.07839H67.0579V9.95571H67.7063V10.299H66.562Z" fill="white"/>
<path d="M68.507 10.3373C68.0493 10.3373 67.7823 10.0703 67.7441 9.4981L68.1637 9.42182C68.1637 9.76511 68.2781 9.95583 68.4689 9.95583C68.5452 9.95583 68.5833 9.91768 68.6215 9.87954C68.6596 9.8414 68.6596 9.76511 68.6596 9.68882C68.6596 9.61253 68.6596 9.53624 68.6215 9.4981C68.5833 9.42181 68.5452 9.38367 68.5452 9.34552C68.507 9.30738 68.4689 9.26924 68.3926 9.19295L68.0493 8.88779C67.9349 8.8115 67.8586 8.69707 67.8204 8.62078C67.7823 8.50635 67.7441 8.39192 67.7441 8.23934C67.7441 8.04862 67.8204 7.85789 67.9349 7.74346C68.0493 7.62902 68.24 7.55273 68.4307 7.55273C68.5452 7.55273 68.6215 7.55274 68.6977 7.59088C68.774 7.62903 68.8503 7.66718 68.8885 7.70532C68.9266 7.74347 68.9648 7.81975 69.0029 7.8579C69.041 7.93418 69.0792 7.97233 69.0792 8.04862C69.0792 8.12491 69.1173 8.2012 69.1173 8.27749L68.6977 8.35377C68.6977 8.31562 68.6977 8.23934 68.6977 8.20119C68.6977 8.16305 68.6977 8.12491 68.6596 8.08676C68.6214 8.04862 68.6215 8.01047 68.6215 7.97232C68.5833 7.93418 68.5833 7.93419 68.5452 7.89604C68.507 7.89604 68.4689 7.8579 68.4307 7.89604C68.3544 7.89604 68.3163 7.93418 68.2781 7.97232C68.24 8.01047 68.2019 8.08676 68.2019 8.16305C68.2019 8.23933 68.2019 8.31563 68.24 8.39191C68.2782 8.43006 68.3163 8.50635 68.3926 8.58264L68.7359 8.88779C68.8122 8.92593 68.8503 9.00223 68.8885 9.04037C68.9266 9.07852 68.9648 9.1548 69.0029 9.19295C69.041 9.26924 69.0792 9.34553 69.0792 9.42182C69.1173 9.4981 69.1173 9.57438 69.1173 9.65067C69.1173 9.84139 69.041 9.99398 68.9266 10.1466C68.8885 10.2991 68.6977 10.3373 68.507 10.3373Z" fill="white"/>
<path d="M43.3321 28.2267H43.4084H48.9393C49.0156 28.2267 49.0919 28.1504 49.0919 28.0741C49.0919 28.0359 49.0919 27.9978 49.0538 27.9978L46.2692 24.4122L46.2311 24.3741C46.1929 24.3359 46.1548 24.3359 46.1166 24.3359C46.0785 24.3359 46.0404 24.3359 46.0404 24.3741V24.4122L46.0022 24.4504L43.294 27.9978L43.2558 28.0359C43.2558 28.0741 43.2177 28.0741 43.2177 28.1122C43.1795 28.1504 43.2558 28.2267 43.3321 28.2267Z" fill="white"/>
<path d="M48.9009 28.7227H43.2937C43.2174 28.7227 43.1411 28.799 43.1411 28.8752V33.2618C43.1411 33.3381 43.2174 33.4144 43.2937 33.4144H45.0865V30.668C45.0865 30.5917 45.1628 30.5154 45.2391 30.5154H46.9174C46.9937 30.5154 47.07 30.5917 47.07 30.668V33.4144H48.939C49.0153 33.4144 49.0916 33.3381 49.0916 33.2618V28.8752C49.0535 28.799 48.9772 28.7227 48.9009 28.7227Z" fill="white"/>
<path d="M67.7823 29.3712C67.7823 29.4474 67.706 29.4856 67.6298 29.4856H65.9896C65.9133 29.4856 65.837 29.4093 65.837 29.3712V28.3794C65.837 28.3031 65.9133 28.265 65.9896 28.265H67.6298C67.706 28.265 67.7823 28.3413 67.7823 28.3794V29.3712ZM67.7823 31.2402C67.7823 31.3165 67.706 31.3547 67.6298 31.3547H65.9896C65.9133 31.3547 65.837 31.2784 65.837 31.2402V30.2485C65.837 30.1722 65.9133 30.134 65.9896 30.134H67.6298C67.706 30.134 67.7823 30.2103 67.7823 30.2485V31.2402ZM65.2267 29.3712C65.2267 29.4474 65.1504 29.4856 65.0741 29.4856H63.4339C63.3576 29.4856 63.2813 29.4093 63.2813 29.3712V28.3794C63.2813 28.3031 63.3576 28.265 63.4339 28.265H65.0741C65.1504 28.265 65.2267 28.3413 65.2267 28.3794V29.3712ZM65.2267 31.2402C65.2267 31.3165 65.1504 31.3547 65.0741 31.3547H63.4339C63.3576 31.3547 63.2813 31.2784 63.2813 31.2402V30.2485C63.2813 30.1722 63.3576 30.134 63.4339 30.134H65.0741C65.1504 30.134 65.2267 30.2103 65.2267 30.2485V31.2402ZM68.2782 27.5784H62.7473C62.671 27.5784 62.5947 27.6547 62.5947 27.6928V33.3C62.5947 33.3763 62.671 33.4145 62.7473 33.4145H68.2782C68.3545 33.4145 68.4308 33.3382 68.4308 33.3V27.6928C68.3927 27.6165 68.3545 27.5784 68.2782 27.5784Z" fill="white"/>
<path d="M54.5844 18.5381C54.5844 18.5762 54.5462 18.6143 54.5081 18.6143H53.2493C53.2112 18.6143 53.1731 18.5762 53.1731 18.5381V17.1649C53.1731 17.1267 53.2112 17.0886 53.2493 17.0886H54.5081C54.5462 17.0886 54.5844 17.1267 54.5844 17.1649V18.5381ZM54.5844 21.7422C54.5844 21.7803 54.5462 21.8185 54.5081 21.8185H53.2493C53.2112 21.8185 53.1731 21.7803 53.1731 21.7422V20.369C53.1731 20.3308 53.2112 20.2927 53.2493 20.2927H54.5081C54.5462 20.2927 54.5844 20.3308 54.5844 20.369V21.7422ZM54.5844 24.9082C54.5844 24.9463 54.5462 24.9844 54.5081 24.9844H53.2493C53.2112 24.9844 53.1731 24.9463 53.1731 24.9082V23.535C53.1731 23.4968 53.2112 23.4587 53.2493 23.4587H54.5081C54.5462 23.4587 54.5844 23.4968 54.5844 23.535V24.9082ZM54.5844 28.1123C54.5844 28.1504 54.5462 28.1886 54.5081 28.1886H53.2493C53.2112 28.1886 53.1731 28.1504 53.1731 28.1123V26.7391C53.1731 26.7009 53.2112 26.6628 53.2493 26.6628H54.5081C54.5462 26.6628 54.5844 26.7009 54.5844 26.7391V28.1123ZM54.5844 31.2783C54.5844 31.3164 54.5462 31.3546 54.5081 31.3546H53.2493C53.2112 31.3546 53.1731 31.3164 53.1731 31.2783V29.9051C53.1731 29.8669 53.2112 29.8288 53.2493 29.8288H54.5081C54.5462 29.8288 54.5844 29.8669 54.5844 29.9051V31.2783ZM52.1432 18.5381C52.1432 18.5762 52.105 18.6143 52.0669 18.6143H50.8081C50.77 18.6143 50.7318 18.5762 50.7318 18.5381V17.1649C50.7318 17.1267 50.77 17.0886 50.8081 17.0886H52.0669C52.105 17.0886 52.1432 17.1267 52.1432 17.1649V18.5381ZM52.1432 21.7422C52.1432 21.7803 52.105 21.8185 52.0669 21.8185H50.8081C50.77 21.8185 50.7318 21.7803 50.7318 21.7422V20.369C50.7318 20.3308 50.77 20.2927 50.8081 20.2927H52.0669C52.105 20.2927 52.1432 20.3308 52.1432 20.369V21.7422ZM52.1432 24.9082C52.1432 24.9463 52.105 24.9844 52.0669 24.9844H50.8081C50.77 24.9844 50.7318 24.9463 50.7318 24.9082V23.535C50.7318 23.4968 50.77 23.4587 50.8081 23.4587H52.0669C52.105 23.4587 52.1432 23.4968 52.1432 23.535V24.9082ZM52.1432 28.1123C52.1432 28.1504 52.105 28.1886 52.0669 28.1886H50.8081C50.77 28.1886 50.7318 28.1504 50.7318 28.1123V26.7391C50.7318 26.7009 50.77 26.6628 50.8081 26.6628H52.0669C52.105 26.6628 52.1432 26.7009 52.1432 26.7391V28.1123ZM52.1432 31.2783C52.1432 31.3164 52.105 31.3546 52.0669 31.3546H50.8081C50.77 31.3546 50.7318 31.3164 50.7318 31.2783V29.9051C50.7318 29.8669 50.77 29.8288 50.8081 29.8288H52.0669C52.105 29.8288 52.1432 29.8669 52.1432 29.9051V31.2783ZM55.3854 14.571H49.9689C49.8926 14.571 49.8545 14.6473 49.8545 14.6855V33.2236C49.8545 33.2999 49.9308 33.3381 49.9689 33.3381H55.3854C55.4617 33.3381 55.4998 33.2618 55.4998 33.2236V14.6855C55.4998 14.6473 55.4617 14.571 55.3854 14.571Z" fill="white"/>
<path d="M68.3926 27.006C68.3926 27.0823 68.3545 27.1205 68.2782 27.1205H62.7092C62.6329 27.1205 62.5947 27.0823 62.5947 27.006V25.8998C62.5947 25.8235 62.6329 25.7854 62.7092 25.7854H68.2782C68.3545 25.7854 68.3926 25.8235 68.3926 25.8998V27.006Z" fill="white"/>
<path d="M61.3359 23.7638C61.3359 23.84 61.2596 23.8782 61.2215 23.8782H59.5813C59.505 23.8782 59.4668 23.8019 59.4668 23.7638V22.7339C59.4668 22.6576 59.5431 22.5813 59.5813 22.5813H61.1833C61.2596 22.5813 61.2978 22.6576 61.2978 22.7339V23.7638H61.3359ZM61.3359 25.6328C61.3359 25.7091 61.2596 25.7473 61.2215 25.7473H59.5813C59.505 25.7473 59.4668 25.671 59.4668 25.6328V24.6029C59.4668 24.5266 59.5431 24.4885 59.5813 24.4885H61.1833C61.2596 24.4885 61.2978 24.5648 61.2978 24.6029V25.6328H61.3359ZM61.3359 27.5019C61.3359 27.5782 61.2596 27.6163 61.2215 27.6163H59.5813C59.505 27.6163 59.4668 27.54 59.4668 27.5019V26.472C59.4668 26.3957 59.5431 26.3576 59.5813 26.3576H61.1833C61.2596 26.3576 61.2978 26.4339 61.2978 26.472V27.5019H61.3359ZM61.3359 29.371C61.3359 29.4473 61.2596 29.4854 61.2215 29.4854H59.5813C59.505 29.4854 59.4668 29.4091 59.4668 29.371V28.3411C59.4668 28.2648 59.5431 28.2266 59.5813 28.2266H61.1833C61.2596 28.2266 61.2978 28.3029 61.2978 28.3411V29.371H61.3359ZM61.3359 31.24C61.3359 31.3163 61.2596 31.3545 61.2215 31.3545H59.5813C59.505 31.3545 59.4668 31.2782 59.4668 31.24V30.2102C59.4668 30.1339 59.5431 30.0957 59.5813 30.0957H61.1833C61.2596 30.0957 61.2978 30.172 61.2978 30.2102V31.24H61.3359ZM58.8565 23.3823V23.4205V25.5947C58.8565 25.671 58.7802 25.7091 58.7421 25.7091H57.14C57.0637 25.7091 57.0256 25.6328 57.0256 25.5947V25.3658V25.3277C57.0256 25.3277 57.0256 25.3277 57.0256 25.2895C57.2163 24.9844 58.1699 23.84 58.5514 23.3823L58.5895 23.3442C58.6277 23.306 58.6658 23.306 58.7039 23.306C58.7802 23.306 58.8184 23.3442 58.8565 23.4205V23.3823ZM58.8565 27.5019C58.8565 27.5782 58.7802 27.6163 58.7421 27.6163H57.14C57.0637 27.6163 57.0256 27.54 57.0256 27.5019V26.472C57.0256 26.3957 57.1019 26.3576 57.14 26.3576H58.7421C58.8184 26.3576 58.8565 26.4339 58.8565 26.472V27.5019ZM58.8565 29.371C58.8565 29.4473 58.7802 29.4854 58.7421 29.4854H57.14C57.0637 29.4854 57.0256 29.4091 57.0256 29.371V28.3411C57.0256 28.2648 57.1019 28.2266 57.14 28.2266H58.7421C58.8184 28.2266 58.8565 28.3029 58.8565 28.3411V29.371ZM58.8565 31.24C58.8565 31.3163 58.7802 31.3545 58.7421 31.3545H57.14C57.0637 31.3545 57.0256 31.2782 57.0256 31.24V30.2102C57.0256 30.1339 57.1019 30.0957 57.14 30.0957H58.7421C58.8184 30.0957 58.8565 30.172 58.8565 30.2102V31.24ZM59.6957 21.7421L59.7338 21.704C60.1153 21.2462 60.7256 20.4833 61.0307 20.1019L61.0689 20.0638C61.107 20.0256 61.1452 20.0256 61.1833 20.0256C61.2596 20.0256 61.2977 20.0638 61.3359 20.14V20.2163V20.2545V21.8565C61.3359 21.9328 61.2596 22.0091 61.1833 22.0091H59.9246H59.8483C59.772 22.0091 59.6957 21.9328 59.6957 21.8565C59.6575 21.8184 59.6575 21.7803 59.6957 21.7421ZM61.9462 18.0802C61.9462 18.004 61.8699 17.9658 61.7936 17.9658C61.7555 17.9658 61.7555 17.9658 61.7173 18.004L61.6792 18.0802L56.339 24.8318L56.3009 24.8699C56.2627 24.9081 56.2627 24.9462 56.2627 24.9844V33.2998C56.2627 33.3761 56.339 33.4143 56.3771 33.4143H61.7936C61.8699 33.4143 61.9081 33.338 61.9081 33.2998V18.1184C61.9462 18.1184 61.9462 18.0802 61.9462 18.0802Z" fill="white"/>
</g>
<g clip-path="url(#clip2_1002_15406)">
<path d="M0.0512506 36.1816L-0.00927734 80.6204L38.0361 80.6722L38.0966 36.2334L0.0512506 36.1816Z" fill="#48773C"/>
<path d="M3.28444 41.5871C3.20818 41.6252 3.01752 41.7015 2.71246 41.8159C2.48367 41.8921 2.33115 41.9684 2.25488 41.9684V40.977C2.44554 40.9007 2.67433 40.7863 2.97938 40.6338C3.24631 40.4813 3.4751 40.3288 3.58949 40.2144H4.61905V47.2687H3.28444V41.5871Z" fill="white"/>
<path d="M5.76324 46.8112C5.45819 46.4299 5.30566 45.8961 5.30566 45.2478V45.019H6.64028V45.2478C6.64028 45.591 6.67841 45.8579 6.75467 46.0105C6.83093 46.163 6.98346 46.2393 7.21225 46.2393C7.44104 46.2393 7.55544 46.163 7.6317 46.0105C7.70796 45.8579 7.74609 45.591 7.74609 45.2478C7.74609 44.8665 7.70796 44.5996 7.59357 44.4089C7.47917 44.2183 7.28851 44.142 6.98346 44.142C6.98346 44.142 6.86906 44.142 6.75467 44.142V43.1506H6.98346C7.28851 43.1506 7.47917 43.0743 7.59357 42.9218C7.70796 42.7693 7.78423 42.5024 7.78423 42.121C7.78423 41.816 7.74609 41.5872 7.66983 41.4347C7.59357 41.2821 7.44104 41.2059 7.21225 41.2059C7.02159 41.2059 6.86906 41.2821 6.7928 41.4347C6.71654 41.5872 6.67841 41.816 6.67841 42.121V42.4261H5.3438V42.0448C5.3438 41.4347 5.49632 40.9389 5.83951 40.6339C6.18269 40.2907 6.64028 40.1382 7.21225 40.1382C7.82236 40.1382 8.27994 40.2907 8.62312 40.6339C8.96631 40.9771 9.11884 41.4347 9.11884 42.0448C9.11884 42.4642 9.04257 42.8074 8.85191 43.0743C8.69939 43.3413 8.4706 43.5319 8.20368 43.6082C8.81378 43.837 9.11884 44.3708 9.11884 45.286C9.11884 45.9723 8.96631 46.5062 8.66126 46.8875C8.3562 47.2688 7.89862 47.4595 7.21225 47.4595C6.52588 47.3832 6.0683 47.1926 5.76324 46.8112Z" fill="white"/>
<path d="M12.665 42.9217C12.5506 42.9217 12.4362 42.9218 12.36 42.8836C12.2837 42.8455 12.2074 42.8074 12.1312 42.7692C12.0549 42.7311 12.0168 42.6548 11.9787 42.5786C11.9405 42.5023 11.9024 42.426 11.9024 42.3117C11.9024 42.2354 11.8643 42.121 11.8643 42.0066V41.0914C11.8643 40.977 11.8643 40.8626 11.9024 40.7864C11.9405 40.7101 11.9405 40.5957 11.9787 40.5195C12.0168 40.4432 12.0549 40.3669 12.1312 40.3288C12.2074 40.2907 12.2456 40.2525 12.36 40.2144C12.4362 40.1763 12.5506 40.1763 12.665 40.1763C12.8176 40.1763 12.9319 40.1763 13.0082 40.2144C13.0845 40.2525 13.1607 40.2907 13.237 40.3669C13.2751 40.4432 13.3133 40.5195 13.3514 40.5957C13.3895 40.672 13.3895 40.7864 13.3895 40.9389V41.1677H12.9319V40.9389C12.9319 40.7864 12.9319 40.7101 12.8938 40.672C12.8557 40.5957 12.7794 40.5195 12.7032 40.5195H12.665C12.6269 40.5195 12.5888 40.5195 12.5506 40.5195C12.5125 40.5195 12.5125 40.5576 12.4744 40.5576C12.4362 40.5957 12.4362 40.5957 12.4362 40.6338C12.4362 40.672 12.3981 40.672 12.3981 40.7101C12.3981 40.7482 12.3981 40.7864 12.3981 40.8245C12.3981 40.8626 12.3981 40.9008 12.3981 40.9389V42.0829C12.3981 42.2354 12.4362 42.3498 12.4744 42.426C12.5125 42.5023 12.5888 42.5404 12.7032 42.5404C12.7413 42.5404 12.7794 42.5404 12.7794 42.5404C12.8176 42.5404 12.8176 42.5404 12.8557 42.5023L12.8938 42.4642C12.8938 42.426 12.9319 42.426 12.9319 42.3879C12.9319 42.3498 12.9319 42.3498 12.9319 42.3117C12.9319 42.2735 12.9319 42.2354 12.9319 42.2354C12.9319 42.1973 12.9319 42.1591 12.9319 42.121V41.8922H13.3895V42.121C13.3895 42.2354 13.3895 42.3116 13.3514 42.3879C13.3514 42.4642 13.3133 42.5404 13.2751 42.6167C13.237 42.693 13.1989 42.7311 13.1607 42.8074C13.1226 42.8455 13.0463 42.8836 12.9701 42.9217C12.8557 42.9217 12.7413 42.9217 12.665 42.9217Z" fill="white"/>
<path d="M13.6182 42.8836V40.2144H14.1139V42.5404H14.7621V42.8836H13.6182Z" fill="white"/>
<path d="M15.4108 40.2144H14.915V42.9217H15.4108V40.2144Z" fill="white"/>
<path d="M15.7153 42.8836L15.7535 40.2144H16.2873L16.6686 42.0828L17.0499 40.2144H17.5457L17.5838 42.8836H17.2406L17.2025 41.0532L16.8212 42.8836H16.5161L16.1348 41.0151L16.0966 42.8836H15.7153Z" fill="white"/>
<path d="M18.385 41.9303H18.7282L18.5375 40.8245L18.385 41.9303ZM17.7749 42.8836L18.3087 40.1763H18.8045L19.3383 42.8836H18.8807L18.7663 42.2735H18.3469L18.2325 42.8836H17.7749Z" fill="white"/>
<path d="M19.6812 42.8836V40.5575H19.2617V40.2144H20.6345V40.5575H20.1769V42.8836H19.6812Z" fill="white"/>
<path d="M20.749 42.8836V40.2144H21.8548V40.5575H21.2447V41.3202H21.7404V41.6634H21.2447V42.5404H21.893V42.8836H20.749Z" fill="white"/>
<path d="M12.3982 46.3537H12.7414L12.5507 45.2478L12.3982 46.3537ZM11.7881 47.307L12.3219 44.5996H12.8176L13.3515 47.307H12.8939L12.7795 46.6969H12.3219L12.2075 47.307H11.7881Z" fill="white"/>
<path d="M14.2666 47.3451C14.1522 47.3451 14.0378 47.3451 13.9615 47.307C13.8853 47.2689 13.809 47.2307 13.7327 47.1926C13.6565 47.1545 13.6183 47.0782 13.5802 47.002C13.5421 46.9257 13.504 46.8494 13.504 46.735C13.504 46.6588 13.4658 46.5444 13.4658 46.43V45.4767C13.4658 45.3623 13.4658 45.2479 13.504 45.1716C13.504 45.0954 13.5421 44.981 13.5802 44.9047C13.6183 44.8284 13.6565 44.7522 13.7327 44.714C13.809 44.6759 13.8471 44.6378 13.9615 44.5997C14.0378 44.5615 14.1522 44.5615 14.2666 44.5615C14.4191 44.5615 14.5335 44.5615 14.6098 44.5997C14.686 44.6378 14.7623 44.6759 14.8386 44.7522C14.8767 44.8284 14.9148 44.9047 14.953 44.981C14.9911 45.0572 14.9911 45.1716 14.9911 45.3242V45.553H14.5335V45.3242C14.5335 45.1716 14.5335 45.0954 14.4954 45.0572C14.4572 44.981 14.381 44.9047 14.3047 44.9047H14.2666C14.2285 44.9047 14.1903 44.9047 14.1522 44.9047C14.1141 44.9047 14.1141 44.9428 14.0759 44.9428C14.0378 44.981 14.0378 44.981 14.0378 45.0191C14.0378 45.0572 13.9997 45.0572 13.9997 45.0954C13.9997 45.1335 13.9997 45.1716 13.9997 45.2098C13.9997 45.2479 13.9997 45.286 13.9997 45.3242V46.4681C13.9997 46.6206 14.0378 46.735 14.0759 46.8113C14.1141 46.8876 14.1903 46.9257 14.3047 46.9257C14.3429 46.9257 14.381 46.9257 14.381 46.9257C14.4191 46.9257 14.4191 46.9257 14.4572 46.8876L14.4954 46.8494C14.4954 46.8113 14.5335 46.8113 14.5335 46.7732C14.5335 46.735 14.5335 46.735 14.5335 46.6969C14.5335 46.6588 14.5335 46.6206 14.5335 46.6206C14.5335 46.5825 14.5335 46.5444 14.5335 46.5062V46.2775H14.9911V46.5062C14.9911 46.6206 14.9911 46.6969 14.953 46.7732C14.953 46.8494 14.9148 46.9257 14.8767 47.002C14.8386 47.0782 14.8004 47.1163 14.7623 47.1926C14.7242 47.2307 14.6479 47.2689 14.5716 47.307C14.4954 47.307 14.381 47.3451 14.2666 47.3451Z" fill="white"/>
<path d="M15.525 47.307V44.9809H15.0674V44.5996H16.4401V44.9809H16.0207V47.307H15.525Z" fill="white"/>
<path d="M17.0504 44.5996H16.5547V47.307H17.0504V44.5996Z" fill="white"/>
<path d="M17.9651 46.9638C18.0033 46.9638 18.0414 47.002 18.0795 47.002C18.1177 47.002 18.1558 47.002 18.1939 46.9638C18.2321 46.9257 18.2702 46.9257 18.2702 46.9257C18.3083 46.8876 18.3083 46.8876 18.3083 46.8494C18.3083 46.8113 18.3083 46.7732 18.3465 46.735C18.3465 46.6969 18.3465 46.6588 18.3465 46.6206V45.4004C18.3465 45.3242 18.3465 45.286 18.3465 45.2479C18.3465 45.2098 18.3083 45.1716 18.3083 45.1335C18.2702 45.0954 18.2702 45.0572 18.2321 45.0572C18.1939 45.0572 18.1558 45.0191 18.0795 45.0191C18.0033 45.0191 17.9651 45.0191 17.927 45.0572C17.8889 45.0954 17.8507 45.0954 17.8507 45.1335C17.8507 45.1716 17.8126 45.2098 17.8126 45.2479C17.8126 45.286 17.8126 45.3623 17.8126 45.4004V46.6206C17.8126 46.6588 17.8126 46.6969 17.8126 46.735C17.8126 46.7732 17.8126 46.8113 17.8507 46.8494C17.8507 46.8876 17.8889 46.9257 17.8889 46.9257C17.927 46.9257 17.927 46.9257 17.9651 46.9638ZM18.1177 47.3451C17.8507 47.3451 17.6601 47.2689 17.5076 47.1163C17.3932 46.9638 17.3169 46.735 17.3169 46.4681V45.4767C17.3169 45.3242 17.3169 45.2098 17.355 45.0954C17.3932 44.981 17.4313 44.9047 17.4694 44.8284C17.5457 44.7522 17.6219 44.6759 17.6982 44.6378C17.8126 44.5996 17.927 44.5615 18.0795 44.5615C18.3465 44.5615 18.5371 44.6378 18.6896 44.7903C18.804 44.9428 18.8803 45.1716 18.8803 45.4385V46.43C18.8803 46.5825 18.8803 46.6969 18.8422 46.8113C18.804 46.9257 18.7659 47.002 18.7278 47.0782C18.6515 47.1545 18.5752 47.2307 18.499 47.2689C18.3464 47.307 18.2321 47.3451 18.1177 47.3451Z" fill="white"/>
<path d="M19.1475 47.307V44.5996H19.4906L20.1389 46.1249V44.5996H20.5583V47.307H20.2151L19.5669 45.7054V47.307H19.1475Z" fill="white"/>
<path d="M24.4095 61.5299C24.257 61.4917 23.6088 60.6147 24.1045 60.0046C24.1808 59.8902 23.952 59.6233 23.9901 59.6233C24.257 59.5852 24.4095 59.7758 24.4858 60.0427C24.4858 60.1571 24.4858 60.2715 24.4858 60.3859C24.5239 60.7672 24.4858 61.1486 24.4095 61.5299ZM22.808 64.4279C22.7317 64.4279 22.6936 64.3897 22.6174 64.3516C22.3123 64.1991 22.3504 64.4279 22.1979 64.3898C22.0454 64.3135 22.3886 63.9703 21.8929 64.2753C21.4353 64.5804 21.5497 64.2372 21.359 63.7034C21.1683 63.2077 21.5878 62.5976 21.9691 62.4832C22.4648 62.2925 22.7699 62.2544 22.9987 62.2162C23.685 62.0637 23.8376 61.6443 23.952 61.8731C23.9901 61.9112 23.9901 61.9493 24.0282 61.9874C24.0664 62.0637 24.1045 62.2162 24.1045 62.3688C23.8376 63.1695 23.38 63.8559 22.808 64.4279ZM18.7661 66.1057C18.1941 66.1057 17.6602 66.0294 17.1645 65.8769C17.0882 65.8006 17.0501 65.7244 17.0883 65.61C17.2789 65.1524 17.8128 64.9617 18.1941 64.9236C19.1092 64.8473 20.3295 65.5337 20.5582 65.4193C20.7489 65.3049 21.1302 64.8092 21.7403 64.8092C22.1216 64.8092 22.1216 64.8855 22.2742 64.9236C21.2827 65.6481 20.0625 66.1057 18.7661 66.1057ZM18.0034 62.3688C17.9272 62.4832 17.6984 63.4746 17.5458 63.3602C17.3933 63.2458 17.6221 62.2544 17.6602 62.1781C17.889 61.7205 18.3847 61.7587 18.0034 62.3688ZM20.3294 61.2248C20.2151 61.3392 19.91 61.3011 19.7956 61.1867C19.6431 61.0723 19.8719 60.8816 19.9863 60.8816C20.1769 60.8435 20.4438 61.1104 20.3294 61.2248ZM22.8843 61.2248C22.808 61.1867 22.7699 61.1486 22.7318 60.996C22.6936 60.8435 22.808 60.7672 22.9224 60.8435C23.0368 60.9198 23.1893 61.0723 23.1893 61.1867C23.1893 61.3011 22.9224 61.2629 22.8843 61.2248ZM23.1131 61.4155C23.3037 61.4155 23.6088 61.6824 23.4944 61.7587C23.38 61.8731 23.0749 61.8349 22.9605 61.7205C22.808 61.6061 23.0368 61.4155 23.1131 61.4155ZM16.9739 63.6653C16.8595 64.0847 16.7451 64.2754 16.6307 64.3898C16.5163 64.5423 16.0968 64.6948 15.8299 64.6948C15.563 64.6567 15.5248 63.9703 15.5248 63.6271C15.5248 63.5127 15.3342 63.8559 15.2579 63.1314C15.1817 62.6357 14.8766 63.1695 14.8766 62.8645C14.8385 62.5594 14.686 62.5976 14.5334 62.4069C14.3809 62.2162 14.1902 62.4069 13.9614 62.5213C13.7327 62.6357 13.8471 62.6738 13.5039 62.5594C13.5039 62.5594 13.5039 62.5594 13.4657 62.5594C13.1607 61.873 13.0082 61.1104 13.0082 60.3096C13.0082 60.119 13.0082 59.9283 13.0463 59.7377L13.0844 59.6995C13.3895 59.3564 13.3895 59.242 13.3895 59.242L13.7327 59.1276C13.7327 59.1276 14.2665 59.2038 14.686 59.3564C15.0291 59.4708 15.5249 59.7758 15.8299 59.6233C16.0587 59.547 16.2112 59.3945 16.2112 59.242C16.1731 59.0132 16.0206 58.975 15.7918 59.1276C15.7155 59.1657 15.5249 58.7844 15.4105 58.7844C15.2579 58.8225 15.563 59.242 15.4486 59.2801C15.3342 59.3182 15.1054 58.8225 15.0673 58.7081C15.0291 58.6319 14.8385 58.4412 14.686 58.5937C14.3428 58.8988 13.8089 58.8988 13.6945 58.975C13.3513 59.242 13.2751 58.8988 13.2751 58.67C13.2751 58.6319 13.3132 58.5937 13.3132 58.5175C13.4276 58.4031 13.8089 58.3649 13.9614 58.4412C14.114 58.5556 14.2284 58.4031 14.2665 58.3649C14.3428 58.2887 14.3046 58.2124 14.2665 58.1361C14.2284 58.0599 14.3428 57.9836 14.419 57.9836C14.4953 57.9455 14.7622 57.793 14.8385 57.7167C14.9529 57.6404 15.4867 57.6023 15.7155 57.7167C15.9443 57.8311 16.1731 57.7548 16.2875 57.6023C16.44 57.4116 16.6307 57.2972 16.7069 57.2591C16.7832 57.221 16.5163 56.9541 16.2494 57.2591C16.0206 57.5642 15.9062 57.5642 15.7918 57.5642C15.6774 57.5642 15.0291 57.4116 14.9529 57.1829C14.8766 56.9922 15.1435 56.8015 15.4105 56.6871C15.6392 56.5727 16.3256 56.5727 16.4781 56.5346C16.8213 56.4583 17.2789 56.2677 17.5077 56.4202C17.7365 56.5727 16.5544 56.8397 16.9357 57.0303C17.0883 57.1066 17.6984 56.6871 17.889 56.5727C18.3847 56.3058 17.3933 56.2296 17.5458 55.7338C17.6984 55.1619 16.3637 55.3907 15.6774 55.4288C16.5544 54.8568 17.6221 54.5136 18.7661 54.5136C21.4734 54.5136 23.7232 56.3821 24.3333 58.8988C24.3333 59.0132 24.3333 59.1276 24.2952 59.1657C24.257 59.3564 23.8376 59.547 23.6088 59.2038C23.5325 59.1276 23.3037 58.8988 23.3037 59.2801C23.3037 59.6614 23.685 59.7377 23.3037 59.9665C22.9224 60.1953 22.8843 60.1571 22.6936 60.1953C22.5411 60.2715 22.3504 60.6528 22.3886 60.8816C22.4267 61.1104 22.9605 61.6824 22.5792 61.6824C22.503 61.6824 21.8166 61.2248 21.7022 60.9198C21.5878 60.6147 21.4353 60.3097 21.359 60.0427C21.2827 59.8139 21.0158 59.7377 20.8252 59.8902C20.6345 60.0427 20.8633 60.1571 20.7489 60.4622C20.5964 60.7672 20.482 61.0342 20.2913 60.7672C19.7193 60.119 18.9186 60.424 18.8042 59.7377C18.7279 59.3564 18.3847 59.3945 18.1178 59.1657C17.8509 58.9369 17.6984 58.8225 17.6221 58.975C17.584 59.1276 18.4991 59.8521 18.5754 60.0427C18.6898 60.3097 18.3085 60.5766 18.0415 60.6147C17.7746 60.691 17.6602 60.4622 17.3933 60.1953C17.1264 59.9283 17.012 59.6995 16.9739 59.9283C16.9357 60.2334 17.2408 60.691 17.5077 60.8816C17.7365 61.0342 18.0034 61.1104 17.9271 61.3392C17.8509 61.568 17.9271 61.4536 17.6602 61.6824C17.3933 61.9493 17.3552 62.0256 17.3552 62.3688C17.3552 62.7119 17.2789 62.7501 17.2408 63.0551C17.2026 63.5127 17.0882 63.2458 16.9739 63.6653ZM13.8852 57.3735C13.8852 57.3354 13.9233 57.3354 13.8852 57.3735C14.0377 57.221 14.2284 57.1829 14.3809 57.1829C14.5334 57.1447 14.7241 57.221 14.7241 57.3354C14.7622 57.4116 14.3809 57.6023 14.3046 57.6786C14.114 57.8692 13.8089 58.2505 13.6183 58.2887C13.542 58.2887 13.5039 58.2887 13.4657 58.2887C13.5801 57.9074 13.7327 57.6404 13.8852 57.3735ZM14.1902 56.7634C14.2665 56.649 14.4953 56.3439 14.5334 56.3058C14.6097 56.2296 14.7241 56.1914 14.8003 56.1914C14.8766 56.1914 14.991 56.2296 15.0291 56.3058C15.0291 56.3821 14.991 56.6109 14.9529 56.6871C14.8385 56.8015 14.5334 56.9922 14.3428 56.9541C14.1902 56.9159 14.1521 56.8015 14.1902 56.7634ZM32.4172 60.1953C31.4258 58.8225 27.0025 53.3315 18.7661 53.3315C10.5296 53.3315 6.10631 58.7844 5.11488 60.1571C5.07675 60.2334 5.03862 60.2715 5.00049 60.3096C5.03862 60.3478 5.07675 60.3859 5.11488 60.4622C6.10631 61.8349 10.5296 67.3259 18.7661 67.3259C27.0025 67.3259 31.4258 61.8731 32.4172 60.5003C32.4553 60.424 32.4935 60.3859 32.5316 60.3478C32.4935 60.3097 32.4553 60.2334 32.4172 60.1953Z" fill="white"/>
</g>
<g clip-path="url(#clip3_1002_15406)">
<path d="M111 37H74V74H111V37Z" fill="#40AE49"/>
<path d="M77.1276 41.6154C77.0513 41.6535 76.8605 41.7298 76.5554 41.8442C76.3265 41.9205 76.1739 41.9968 76.0977 41.9968V41.0051C76.2884 40.9288 76.5172 40.8143 76.8224 40.6618C77.0894 40.5092 77.3183 40.3566 77.4327 40.2422H78.5008V47.2989H77.1657V41.6154H77.1276Z" fill="white"/>
<path d="M79.9503 47.1463C79.6833 46.9937 79.4925 46.7267 79.4162 46.4216C79.3018 46.1164 79.2637 45.735 79.2637 45.2391H80.5606C80.5606 45.6587 80.5987 45.9257 80.675 46.1164C80.7513 46.3071 80.9039 46.3834 81.1327 46.3834C81.3235 46.3834 81.4379 46.3071 81.5142 46.1927C81.5905 46.0783 81.6286 45.9257 81.6668 45.735C81.7049 45.5442 81.7049 45.2391 81.7049 44.8576C81.7049 44.4381 81.6668 44.0948 81.5905 43.904C81.5142 43.6752 81.3616 43.5989 81.0946 43.5989C80.7894 43.5989 80.5987 43.8278 80.4843 44.2473H79.34L79.4544 40.2422H82.6967V41.3865H80.5606L80.4843 42.9504C80.5606 42.836 80.7132 42.7597 80.9039 42.6834C81.0946 42.6071 81.3235 42.569 81.5523 42.569C82.0482 42.569 82.3915 42.7597 82.6585 43.1411C82.8874 43.5226 83.04 44.0948 83.04 44.7814C83.04 45.3535 83.0018 45.8113 82.8874 46.1546C82.773 46.4979 82.5822 46.803 82.3152 47.0319C82.0482 47.2607 81.6286 47.337 81.1327 47.337C80.5987 47.4133 80.2173 47.2989 79.9503 47.1463Z" fill="white"/>
<path d="M85.7866 42.9123V40.2422H86.2825V42.569H86.931V42.9123H85.7866Z" fill="white"/>
<path d="M87.6175 40.2422H87.1216V42.9504H87.6175V40.2422Z" fill="white"/>
<path d="M87.9229 42.9123V40.2422H89.029V40.5473H88.3806V41.3484H88.8765V41.6917H88.3806V42.9123H87.9229Z" fill="white"/>
<path d="M89.1816 42.9123V40.2422H90.2878V40.5855H89.6775V41.3484H90.1734V41.6917H89.6775V42.569H90.326V42.9123H89.1816Z" fill="white"/>
<path d="M86.397 46.9937C86.4352 46.9937 86.4733 47.0318 86.5115 47.0318C86.5496 47.0318 86.5878 47.0318 86.6259 46.9937C86.6641 46.9937 86.7022 46.9555 86.7022 46.9555C86.7403 46.9174 86.7403 46.9174 86.7403 46.8792C86.7403 46.8411 86.7403 46.8029 86.7785 46.7648C86.7785 46.7267 86.7785 46.6885 86.7785 46.6504V45.4297C86.7785 45.3535 86.7785 45.3153 86.7785 45.2772C86.7785 45.239 86.7403 45.2009 86.7403 45.1627C86.7403 45.1246 86.7022 45.0864 86.6641 45.0864C86.6259 45.0864 86.5878 45.0483 86.5115 45.0483C86.4352 45.0483 86.397 45.0483 86.3589 45.0864C86.3208 45.0864 86.2826 45.1246 86.2826 45.1627C86.2826 45.2009 86.2445 45.239 86.2445 45.2772C86.2445 45.3153 86.2445 45.3916 86.2445 45.4297V46.6504C86.2445 46.6885 86.2445 46.7267 86.2445 46.7648C86.2445 46.8029 86.2445 46.8411 86.2826 46.8792C86.2826 46.9174 86.3208 46.9555 86.3208 46.9555C86.3589 46.9555 86.3589 46.9555 86.397 46.9937ZM86.5115 47.3751C86.2445 47.3751 86.0537 47.2988 85.9012 47.1462C85.7867 46.9937 85.7104 46.7648 85.7104 46.4978V45.506C85.7104 45.3535 85.7105 45.239 85.7486 45.1246C85.7867 45.0102 85.8249 44.9339 85.863 44.8576C85.9393 44.7813 86.0156 44.705 86.0919 44.6669C86.2063 44.6287 86.3208 44.5906 86.4733 44.5906C86.7403 44.5906 86.9311 44.6669 87.0836 44.8194C87.1981 44.972 87.2744 45.2009 87.2744 45.4679V46.4596C87.2744 46.6122 87.2744 46.7267 87.2362 46.8411C87.1981 46.9555 87.1599 47.0318 87.1218 47.1081C87.0836 47.1844 86.9692 47.2607 86.8929 47.2988C86.7785 47.337 86.6641 47.3751 86.5115 47.3751Z" fill="white"/>
<path d="M87.5796 47.3371V44.6289H87.9229L88.5713 46.1547V44.6289H88.9909V47.3371H88.6476L87.9992 45.7351V47.3371H87.5796Z" fill="white"/>
<path d="M89.9824 47.3371V44.6289H90.4783V46.9938H91.1268V47.3371H89.9824Z" fill="white"/>
<path d="M91.7754 46.3835H92.1186L91.9279 45.2774L91.7754 46.3835ZM91.165 47.3371L91.6991 44.6289H92.1949L92.729 47.3371H92.2712L92.1568 46.7268H91.6991L91.5846 47.3371H91.165Z" fill="white"/>
<path d="M92.9194 47.3371V44.6289H93.2627L93.9112 46.1547V44.6289H94.3308V47.3371H93.9875L93.339 45.7351V47.3371H92.9194Z" fill="white"/>
<path d="M95.1321 46.9936H95.2847C95.3228 46.9936 95.361 46.9936 95.3991 46.9936C95.4373 46.9936 95.4754 46.9936 95.4754 46.9555C95.5136 46.9555 95.5135 46.9173 95.5517 46.8792C95.5898 46.841 95.5898 46.841 95.5898 46.8029C95.5898 46.7647 95.5898 46.7266 95.628 46.6885C95.628 46.6503 95.628 46.6122 95.628 46.574C95.628 46.5359 95.628 46.4977 95.628 46.4214V45.4297C95.628 45.3534 95.628 45.3153 95.628 45.2771C95.628 45.239 95.628 45.2008 95.628 45.1627C95.628 45.1245 95.5898 45.0864 95.5898 45.0864C95.5898 45.0482 95.5517 45.0482 95.5135 45.0101C95.4754 44.972 95.4373 44.972 95.3991 44.972C95.361 44.972 95.3228 44.972 95.2465 44.972H95.094V46.9936H95.1321ZM94.6362 47.3369V44.6287H95.2465C95.3991 44.6287 95.5517 44.6287 95.6661 44.6668C95.7806 44.7049 95.8568 44.7431 95.9331 44.8194C96.0094 44.8957 96.0476 44.972 96.0857 45.0864C96.1239 45.2008 96.1239 45.3153 96.1239 45.4678V46.4214C96.1239 46.574 96.1239 46.6884 96.0857 46.8029C96.0476 46.9173 96.0094 46.9936 95.9331 47.0699C95.8568 47.1462 95.7806 47.1843 95.6661 47.2225C95.5517 47.2606 95.4373 47.2606 95.2847 47.2606H94.6362V47.3369Z" fill="white"/>
<path d="M89.2958 62.0608C89.3339 62.0608 89.3721 62.0989 89.3721 62.1371V64.8453C89.3721 64.8835 89.3339 64.9216 89.2958 64.9216H88.1896C88.1514 64.9216 88.1133 64.8835 88.1133 64.8453V62.1371C88.1133 62.0989 88.1514 62.0608 88.1896 62.0608H89.2958Z" fill="white"/>
<path d="M101.35 66.104H83.3072C83.2691 66.104 83.231 66.1422 83.231 66.1803V67.2865C83.231 67.3246 83.2691 67.3628 83.3072 67.3628H101.35C101.388 67.3628 101.426 67.3246 101.426 67.2865V66.1803C101.426 66.1422 101.388 66.104 101.35 66.104Z" fill="white"/>
<path d="M101.35 68.2781H83.3072C83.2691 68.2781 83.231 68.3162 83.231 68.3544V69.4605C83.231 69.4987 83.2691 69.5368 83.3072 69.5368H101.35C101.388 69.5368 101.426 69.4987 101.426 69.4605V68.3544C101.426 68.3162 101.388 68.2781 101.35 68.2781Z" fill="white"/>
<path d="M97.8782 59.0856C97.6493 58.8949 97.039 58.5134 96.3143 58.5134C95.7803 58.5134 95.2844 58.7042 94.8648 59.1237C94.8267 59.1619 94.8267 59.2 94.8267 59.2382V59.3526C94.8267 59.3907 94.8267 59.4289 94.8648 59.467C94.903 59.5052 94.9411 59.5052 94.9792 59.5052H95.0174C95.0555 59.5052 95.0937 59.467 95.0937 59.467C95.17 59.3907 95.437 59.3145 95.8184 59.3145C96.1999 59.3145 96.9627 59.4289 97.6875 60.0773C97.7256 60.1155 97.8019 60.1536 97.8401 60.1536C97.8782 60.1536 97.9545 60.1155 97.9926 60.0773C98.7174 59.3907 99.4803 59.3145 99.8617 59.3145C100.243 59.3145 100.51 59.3907 100.586 59.467C100.625 59.5052 100.663 59.5052 100.701 59.5433C100.701 59.5433 100.777 59.5433 100.815 59.5433C100.892 59.5052 100.93 59.467 100.93 59.3907V59.3145C100.93 59.2763 100.93 59.2382 100.892 59.2C100.434 58.7804 99.9761 58.5516 99.4421 58.5516C98.7174 58.4753 98.1452 58.8949 97.8782 59.0856Z" fill="white"/>
<path d="M96.7721 51.8761C96.7339 51.8761 96.6958 51.9142 96.6958 51.9524V52.0287C96.6958 52.0668 96.6958 52.1431 96.7339 52.1813C96.7721 52.2194 96.8102 52.2575 96.8484 52.2575C96.8484 52.2575 96.8484 52.2575 96.8865 52.2575C96.9247 52.2575 96.9628 52.2575 96.9628 52.2194C96.9628 52.2194 97.001 52.2194 97.0772 52.2194C97.1535 52.2194 97.8783 52.2575 98.3741 53.0586C98.4123 53.0967 98.4504 53.1349 98.4886 53.1349C98.4886 53.1349 98.5267 53.1349 98.5649 53.1349C98.603 53.1349 98.6412 53.1349 98.6412 53.0967C98.9082 52.9823 99.1752 52.906 99.4422 52.906C99.8999 52.906 100.205 53.0967 100.281 53.173C100.281 53.2112 100.32 53.2111 100.358 53.2493C100.358 53.2493 100.396 53.2874 100.434 53.2874C100.434 53.2874 100.434 53.2874 100.472 53.2874C100.51 53.2874 100.51 53.2874 100.548 53.2874C100.587 53.2874 100.625 53.2493 100.625 53.2112V53.173V53.1349C100.625 53.0967 100.625 53.0967 100.587 53.0586C100.243 52.4483 99.7092 52.3338 99.3659 52.3338C99.0989 52.3338 98.87 52.4101 98.7175 52.4483C98.5649 52.2194 98.1453 51.7617 97.4968 51.7617C97.2298 51.6854 97.001 51.7617 96.7721 51.8761Z" fill="white"/>
<path d="M92.9575 54.6606V54.7369C92.9575 54.7751 92.9957 54.8132 93.0338 54.8514C93.0719 54.8895 93.1101 54.8895 93.1482 54.8514C93.1482 54.8514 93.1482 54.8514 93.1864 54.8514C93.2245 54.8514 93.2627 54.8132 93.2627 54.7751C93.339 54.7369 93.5678 54.6225 93.9493 54.6225C94.2926 54.6225 94.8266 54.6988 95.3606 55.1565C95.3988 55.1947 95.4369 55.1947 95.5132 55.1947C95.5513 55.1947 95.6276 55.1565 95.6658 55.1184C96.2761 54.4699 96.9245 54.3936 97.2297 54.3936C97.4585 54.3936 97.6493 54.4318 97.6874 54.4699C97.7256 54.5081 97.7256 54.5081 97.7637 54.5081C97.7637 54.5081 97.8018 54.5081 97.84 54.5081H97.8781C97.9544 54.4699 97.9926 54.4318 97.9926 54.3555V54.2792C97.9926 54.2411 97.9544 54.2029 97.9544 54.1648C97.6111 53.8596 97.1915 53.707 96.8101 53.707C96.1616 53.707 95.6658 54.0885 95.475 54.2792C95.2843 54.1648 94.8266 53.8978 94.2544 53.8978C93.7585 53.8978 93.339 54.0885 92.9575 54.5081C92.9575 54.5462 92.9575 54.6225 92.9575 54.6606Z" fill="white"/>
<path d="M83.8032 56.1102C83.8032 55.0422 84.6805 54.1649 85.7486 54.1649C85.7867 54.1649 85.8249 54.1649 85.863 54.1649C85.9774 52.7917 87.1218 51.7236 88.495 51.7236C89.9445 51.7236 91.1269 52.9061 91.1269 54.3556C91.1269 54.7752 91.0125 55.1566 90.8599 55.4999C92.195 55.8051 93.1867 56.9876 93.1867 58.3989C93.1867 60.0391 91.8517 61.3742 90.2115 61.3742C90.097 61.3742 86.2445 61.336 86.2445 61.336C85.1001 61.336 84.1465 60.3824 84.1465 59.2381C84.1465 58.6659 84.3754 58.17 84.7187 57.7886C84.2228 57.4453 83.8032 56.835 83.8032 56.1102Z" fill="white"/>
</g>
<g clip-path="url(#clip4_1002_15406)">
<path d="M74 37H37V74H74V37Z" fill="#007DBB"/>
<path d="M40.1661 41.6154C40.0898 41.6535 39.8991 41.7298 39.594 41.8442C39.3651 41.9205 39.2125 41.9968 39.1362 41.9968V41.0051C39.327 40.9288 39.5558 40.8143 39.861 40.6618C40.128 40.5092 40.3568 40.3566 40.4713 40.2422H41.5393V47.2989H40.2043V41.6154H40.1661Z" fill="white"/>
<path d="M44.2474 44.5906V41.5772L43.1794 44.5906H44.2474ZM44.2474 45.6205H42.1113V44.5525L43.9423 40.2422H45.468V44.5906H46.1546V45.6205H45.468V47.2989H44.2474V45.6205V45.6205Z" fill="white"/>
<path d="M48.8247 42.9123V40.2422H49.3206V42.569H49.969V42.9123H48.8247Z" fill="white"/>
<path d="M50.6555 40.2422H50.1597V42.9504H50.6555V40.2422Z" fill="white"/>
<path d="M50.9609 42.9123V40.2422H52.0671V40.5473H51.4568V41.3484H51.9145V41.6917H51.4568V42.9123H50.9609Z" fill="white"/>
<path d="M52.2197 42.9123V40.2422H53.3259V40.5855H52.7156V41.3484H53.2115V41.6917H52.7156V42.569H53.3641V42.9123H52.2197Z" fill="white"/>
<path d="M49.3206 46.9938H49.5113C49.6639 46.9938 49.7783 46.9557 49.8165 46.8794C49.8546 46.8031 49.8927 46.6887 49.8927 46.5361C49.8927 46.3835 49.8546 46.2691 49.8165 46.1928C49.7402 46.1165 49.6639 46.0784 49.5113 46.0784H49.3587V46.9938H49.3206ZM49.3206 45.7351H49.4732C49.6257 45.7351 49.702 45.6969 49.7783 45.6588C49.8165 45.5825 49.8546 45.5062 49.8546 45.3536C49.8546 45.2774 49.8546 45.2011 49.8165 45.1629C49.8165 45.1248 49.7783 45.0866 49.7402 45.0485C49.702 45.0103 49.6639 45.0103 49.5876 45.0103C49.5494 45.0103 49.4732 45.0103 49.3969 45.0103H49.3206V45.7351V45.7351ZM48.8247 47.3371V44.6289H49.4732C49.5876 44.6289 49.702 44.6289 49.8165 44.667C49.8927 44.7052 50.0072 44.7433 50.0453 44.7815C50.1216 44.8196 50.1598 44.8959 50.1979 45.0103C50.236 45.0866 50.236 45.2011 50.236 45.3536C50.236 45.6969 50.1216 45.8877 49.8546 45.9258C50.0072 45.964 50.1216 46.0402 50.1979 46.1165C50.2742 46.231 50.3123 46.3835 50.3123 46.5743C50.3123 46.8413 50.236 47.032 50.1216 47.1464C50.0072 47.2609 49.8165 47.3371 49.5494 47.3371H48.8247Z" fill="white"/>
<path d="M50.5796 47.3371V44.6289H51.7239V44.9722H51.0755V45.7351H51.5713V46.1165H51.0755V46.9938H51.7239V47.3371H50.5796Z" fill="white"/>
<path d="M51.9146 47.3371V44.6289H52.4104V46.9938H53.0589V47.3371H51.9146Z" fill="white"/>
<path d="M53.7838 46.9937C53.8219 46.9937 53.8601 47.0318 53.8982 47.0318C53.9363 47.0318 53.9745 47.0318 54.0126 46.9937C54.0508 46.9555 54.0889 46.9555 54.0889 46.9555C54.1271 46.9174 54.1271 46.9174 54.1271 46.8792C54.1271 46.8411 54.1271 46.8029 54.1652 46.7648C54.1652 46.7267 54.1652 46.6885 54.1652 46.6504V45.4297C54.1652 45.3535 54.1652 45.3153 54.1652 45.2772C54.1652 45.239 54.1271 45.2009 54.1271 45.1627C54.0889 45.1246 54.0889 45.0864 54.0508 45.0864C54.0126 45.0864 53.9745 45.0483 53.8982 45.0483C53.8219 45.0483 53.7838 45.0483 53.7456 45.0864C53.7075 45.1246 53.6693 45.1246 53.6693 45.1627C53.6693 45.2009 53.6312 45.239 53.6312 45.2772C53.6312 45.3153 53.6312 45.3916 53.6312 45.4297V46.6504C53.6312 46.6885 53.6312 46.7267 53.6312 46.7648C53.6312 46.8029 53.6312 46.8411 53.6693 46.8792C53.6693 46.9174 53.7075 46.9555 53.7075 46.9555C53.7075 46.9555 53.7456 46.9555 53.7838 46.9937ZM53.8982 47.3751C53.6312 47.3751 53.4405 47.2988 53.2879 47.1462C53.1735 46.9937 53.0972 46.7648 53.0972 46.4978V45.506C53.0972 45.3535 53.0972 45.239 53.1353 45.1246C53.1735 45.0102 53.2116 44.9339 53.2497 44.8576C53.326 44.7813 53.4023 44.705 53.4786 44.6669C53.593 44.6287 53.7075 44.5906 53.8601 44.5906C54.1271 44.5906 54.3178 44.6669 54.4704 44.8194C54.5848 44.972 54.6611 45.2009 54.6611 45.4679V46.4596C54.6611 46.6122 54.6611 46.7267 54.6229 46.8411C54.5848 46.9555 54.5467 47.0318 54.5085 47.1081C54.4322 47.1844 54.3559 47.2607 54.2796 47.2988C54.1652 47.337 54.0508 47.3751 53.8982 47.3751Z" fill="white"/>
<path d="M55.233 47.3371L54.8516 44.6289H55.2712L55.5 46.3835L55.767 44.6289H56.1103L56.4155 46.3835L56.6062 44.6289H57.0258L56.6443 47.3371H56.2629L55.9578 45.5444L55.6526 47.3371H55.233Z" fill="white"/>
<path d="M58.2462 47.3371L57.8647 44.6289H58.2843L58.4751 46.3835L58.7802 44.6289H59.1235L59.3905 46.3835L59.6194 44.6289H60.039L59.6575 47.3371H59.2379L58.9328 45.5444L58.6276 47.3371H58.2462Z" fill="white"/>
<path d="M60.6494 46.3835H60.9927L60.802 45.2774L60.6494 46.3835ZM60.001 47.3371L60.535 44.6289H61.0309L61.5649 47.3371H61.1835L61.069 46.7268H60.6113L60.4969 47.3371H60.001Z" fill="white"/>
<path d="M61.9465 47.3371V45.0103H61.4888V44.6289H62.9001V45.0103H62.4424V47.3371H61.9465Z" fill="white"/>
<path d="M63.0146 47.3371V44.6289H64.1208V44.9722H63.5105V45.7351H64.0064V46.1165H63.5105V46.9938H64.1208V47.3371H63.0146Z" fill="white"/>
<path d="M64.8074 45.7732H64.9218C65.0744 45.7732 65.1888 45.7351 65.227 45.6969C65.3033 45.6207 65.3033 45.5444 65.3033 45.3918C65.3033 45.2392 65.2651 45.1629 65.227 45.0866C65.1888 45.0103 65.0744 45.0103 64.9218 45.0103H64.7692V45.7732H64.8074ZM64.3115 47.3371V44.6289H64.9218C65.0744 44.6289 65.1888 44.6289 65.3033 44.667C65.4177 44.7052 65.494 44.7433 65.5703 44.7815C65.6466 44.8196 65.6847 44.8959 65.7229 45.0103C65.761 45.1248 65.761 45.2011 65.761 45.3536C65.761 45.5062 65.7229 45.6588 65.6847 45.7732C65.6466 45.8877 65.5321 45.9639 65.4177 46.0021L65.7992 47.3371H65.3033L64.9981 46.1165H64.7692V47.3371H64.3115V47.3371Z" fill="white"/>
<path d="M60.1153 64.6164C59.4287 64.6164 58.8947 64.0442 58.8947 63.3958C58.8947 62.7092 59.4669 62.1752 60.1153 62.1752C60.8019 62.1752 61.3359 62.7473 61.3359 63.3958C61.3359 64.0824 60.8019 64.6164 60.1153 64.6164ZM65.4555 64.0443C64.9978 63.3958 61.9462 59.5432 57.7122 59.5432C54.0504 59.5432 50.0833 62.8999 50.0833 62.8999C50.0833 62.8999 48.5957 59.8865 45.5823 59.5814H45.5442C45.4679 59.5814 45.4297 59.6577 45.4297 59.6958C45.4297 59.7339 45.4679 59.8102 45.4679 59.8102C45.8493 60.4587 46.8411 62.2896 46.8411 64.1205C46.8411 65.9515 45.8493 67.8205 45.4679 68.469L45.4297 68.5071C45.4297 68.5453 45.3916 68.5453 45.3916 68.5834C45.3916 68.6597 45.4297 68.6979 45.506 68.6979H45.5442H45.5823C48.6339 68.4308 50.0833 65.3793 50.0833 65.3793C50.0833 65.3793 54.0122 68.736 57.7122 68.736C61.9462 68.736 64.9596 64.8834 65.4555 64.235L65.4937 64.1968V64.1587V64.1205C65.4937 64.0824 65.4937 64.0824 65.4555 64.0443Z" fill="white"/>
<path d="M49.8546 56.1103C49.8546 56.1103 49.8546 56.0722 49.8546 56.1103C49.8928 56.0722 49.9309 56.0722 49.969 56.0722C50.0072 56.0722 50.0453 56.0722 50.0453 56.1103C52.3721 58.3227 54.7752 56.5299 55.2711 56.1103L55.3093 56.0722H55.3474H55.3855L55.4237 56.1103C55.9196 56.5299 58.3608 58.3227 60.6495 56.1103C60.6876 56.0722 60.6876 56.0722 60.7257 56.0722C60.7639 56.0722 60.7639 56.0722 60.802 56.1103L60.8402 56.1485C61.2979 56.6062 63.2051 58.2464 65.2649 56.4918C65.3031 56.4536 65.3031 56.4536 65.3031 56.4155V55.5763C65.3031 55.5 65.2649 55.4619 65.1886 55.4619C65.1886 55.4619 65.1886 55.4619 65.1505 55.4619C65.1505 55.4619 65.1123 55.5 65.0742 55.5C64.4639 55.8052 62.4804 56.5681 60.7257 54.8897L60.6876 54.8516H60.6495H60.6113C60.5732 54.8516 60.5732 54.8897 60.535 54.8897C60.001 55.3093 57.5979 56.9495 55.4237 54.9279L55.3855 54.8897C55.3474 54.8516 55.3474 54.8516 55.3093 54.8516C55.2711 54.8516 55.233 54.8516 55.233 54.8897L55.1948 54.9279C53.0206 56.9495 50.6175 55.3093 50.0835 54.8897C50.0835 54.8516 50.0453 54.8516 50.0072 54.8516H49.969H49.9309L49.8927 54.8897C48.1381 56.5681 46.1546 55.8052 45.5443 55.5C45.5062 55.5 45.5062 55.4619 45.468 55.4619C45.468 55.4619 45.468 55.4619 45.4299 55.4619C45.3536 55.4619 45.3154 55.5 45.3154 55.5763V56.4155C45.3154 56.4536 45.3154 56.4918 45.3536 56.4918C47.4515 58.2083 49.3969 56.5681 49.8546 56.1103Z" fill="white"/>
<path d="M45.5442 52.3339C45.506 52.3339 45.506 52.3339 45.5442 52.3339C45.4679 52.3339 45.3916 52.3721 45.3916 52.4484V53.2876C45.3916 53.3257 45.3916 53.3638 45.4297 53.3638C47.4895 55.1566 49.3968 53.4783 49.8545 53.0205C49.8545 53.0205 49.8545 52.9824 49.8926 52.9824C49.9308 52.9824 49.9308 52.9443 49.9689 52.9443C50.0071 52.9443 50.0452 52.9443 50.0452 52.9824C52.372 55.1948 54.7751 53.402 55.271 52.9824L55.3091 52.9443H55.3473H55.3854L55.4236 52.9824C55.9194 53.402 58.3607 55.1948 60.6493 52.9824C60.6875 52.9443 60.6875 52.9443 60.7256 52.9443C60.7638 52.9443 60.7638 52.9443 60.8019 52.9824L60.8401 53.0205C61.2978 53.4783 63.205 55.1185 65.2648 53.3638C65.3029 53.3257 65.3029 53.3257 65.3029 53.2876V52.4484C65.3029 52.3721 65.2648 52.3339 65.1885 52.3339C65.1885 52.3339 65.1885 52.3339 65.1504 52.3339C65.1504 52.3339 65.1122 52.3721 65.0741 52.3721C64.4638 52.6772 62.4803 53.4401 60.7256 51.7618L60.6875 51.7236H60.6493H60.6112C60.573 51.7236 60.573 51.7618 60.5349 51.7618C60.0009 52.1814 57.5978 53.8216 55.4236 51.7999L55.3854 51.7618C55.3473 51.7236 55.3473 51.7236 55.3091 51.7236C55.271 51.7236 55.2328 51.7236 55.2328 51.7618L55.1947 51.7999C53.0205 53.8216 50.6174 52.1814 50.0833 51.7618C50.0833 51.7236 50.0452 51.7236 50.0071 51.7236H49.9689H49.9308L49.8926 51.7618C48.138 53.4401 46.1545 52.6772 45.5442 52.3721C45.5823 52.3339 45.5442 52.3339 45.5442 52.3339Z" fill="white"/>
</g>
<defs>
<clipPath id="clip0_1002_15406">
<path d="M0 2C0 0.895432 0.89543 0 2 0H37V37H0V2Z" fill="white"/>
</clipPath>
<clipPath id="clip1_1002_15406">
<path d="M37 0H72C73.1046 0 74 0.89543 74 2V37H37V0Z" fill="white"/>
</clipPath>
<clipPath id="clip2_1002_15406">
<path d="M0 37H37V74H2C0.895432 74 0 73.1046 0 72V37Z" fill="white"/>
</clipPath>
<clipPath id="clip3_1002_15406">
<path d="M74 37H109C110.105 37 111 37.8954 111 39V72C111 73.1046 110.105 74 109 74H74V37Z" fill="white"/>
</clipPath>
<clipPath id="clip4_1002_15406">
<rect width="37" height="37" fill="white" transform="translate(37 37)"/>
</clipPath>
</defs>
</svg>
