<svg viewBox="0 0 36 36" fill="none" xmlns="http://www.w3.org/2000/svg">
<rect width="34.2857" height="34.2857" transform="translate(0.857422 0.859375)" fill="white"/>
<path d="M23.1434 19.2902C23.1434 23.3187 20.7434 25.7187 16.8006 25.7187C13.1148 25.7187 10.2863 23.0187 10.2863 19.1187C10.2863 15.2616 12.8577 12.8616 16.7148 12.8616H17.572L14.4006 16.0759C13.7148 16.7616 13.2863 17.5759 13.2863 18.6473C13.2863 20.9187 15.0863 22.7187 17.2291 22.7187C18.2148 22.7187 19.2006 22.2902 19.972 21.5616L23.1434 18.433V19.2902ZM16.2863 19.7187C16.8006 20.233 17.572 20.2759 18.0434 19.8045L24.5577 13.2902H25.9291C26.7006 13.2902 27.2148 13.0759 27.6863 12.6045L31.2863 9.00446L27.8577 8.14732L27.0006 4.71875L23.4006 8.31875C22.9291 8.79018 22.7148 9.30446 22.7148 10.033V11.4902L16.2006 17.9616C15.7291 18.3902 15.772 19.2045 16.2863 19.7187ZM28.7148 19.2045C28.7148 26.7045 23.9148 31.2902 16.6291 31.2902C9.51484 31.2902 4.71484 26.7045 4.71484 19.2045C4.71484 12.0902 9.51484 7.29018 16.6291 7.29018C17.872 7.29018 19.1148 7.46161 20.1434 7.71875V10.7187C19.072 10.4187 17.9148 10.2902 16.6291 10.2902C11.3148 10.2902 7.71484 13.8902 7.71484 19.2045C7.71484 24.8616 11.3148 28.2902 16.6291 28.2902C22.1148 28.2902 25.7148 24.8616 25.7148 19.2045C25.7148 18.0045 25.5863 16.8902 25.2863 15.8616H28.2863C28.5863 16.8902 28.7148 18.0045 28.7148 19.2045Z" fill="#B4BBC5"/>
</svg>
