<svg width="36" height="36" viewBox="0 0 36 36" fill="none" xmlns="http://www.w3.org/2000/svg">
<path d="M23.1432 19.2902C23.1432 23.3187 20.7432 25.7187 16.8003 25.7187C13.1146 25.7187 10.286 23.0187 10.286 19.1187C10.286 15.2616 12.8575 12.8616 16.7146 12.8616H17.5717L14.4003 16.0759C13.7146 16.7616 13.286 17.5759 13.286 18.6473C13.286 20.9187 15.086 22.7187 17.2289 22.7187C18.2146 22.7187 19.2003 22.2902 19.9717 21.5616L23.1432 18.433V19.2902ZM16.286 19.7187C16.8003 20.233 17.5717 20.2759 18.0432 19.8045L24.5575 13.2902H25.9289C26.7003 13.2902 27.2146 13.0759 27.686 12.6045L31.286 9.00446L27.8575 8.14732L27.0003 4.71875L23.4003 8.31875C22.9289 8.79018 22.7146 9.30446 22.7146 10.033V11.4902L16.2003 17.9616C15.7289 18.3902 15.7717 19.2045 16.286 19.7187ZM28.7146 19.2045C28.7146 26.7045 23.9146 31.2902 16.6289 31.2902C9.5146 31.2902 4.7146 26.7045 4.7146 19.2045C4.7146 12.0902 9.5146 7.29018 16.6289 7.29018C17.8717 7.29018 19.1146 7.46161 20.1432 7.71875V10.7187C19.0717 10.4187 17.9146 10.2902 16.6289 10.2902C11.3146 10.2902 7.7146 13.8902 7.7146 19.2045C7.7146 24.8616 11.3146 28.2902 16.6289 28.2902C22.1146 28.2902 25.7146 24.8616 25.7146 19.2045C25.7146 18.0045 25.586 16.8902 25.286 15.8616H28.286C28.586 16.8902 28.7146 18.0045 28.7146 19.2045Z" fill="currentColor"/>
</svg>
