<svg viewBox="0 0 128 79" fill="none" xmlns="http://www.w3.org/2000/svg">
<g clip-path="url(#clip0_737_18289)">
<path d="M32.5381 71.0516V51.6777H44.0766V54.1067H34.9274V60.0634H43.1442V62.4924H34.9274V68.5648H44.7176V70.9937H32.5381V71.0516Z" fill="#E43225"/>
<path d="M56.8392 71.0511L52.8765 65.904L48.9138 71.0511H46.1166L51.5362 64.169L45.8252 57.0557H48.9721L52.8765 62.3762L56.8392 57.0557H59.9278L54.5082 64.169L59.6364 71.0511H56.8392Z" fill="#E43225"/>
<path d="M63.4821 68.9694V78.5118H61.0928V64.2272C61.0928 60.5837 63.89 56.709 68.2606 56.709C72.6895 56.709 76.0113 59.4849 76.0113 64.0537C76.0113 68.5068 72.6313 71.5719 68.7851 71.5719C66.9203 71.5719 64.4145 70.7622 63.4821 68.9694V68.9694ZM73.5054 64.0537C73.5054 60.9307 71.4658 59.0801 67.8527 59.2536C66.1045 59.3114 63.4238 60.5837 63.6569 65.0368C63.7152 66.4826 65.2303 69.2008 68.552 69.2008C71.4075 69.2008 73.5054 67.5815 73.5054 64.0537V64.0537Z" fill="#E43225"/>
<path d="M78.0508 71.0512V57.0558H80.4401V58.5594C81.6056 57.2293 83.4121 56.7666 85.3352 56.7666V59.3112C85.0438 59.2534 82.1883 58.9064 80.4401 62.6077V71.109H78.0508V71.0512Z" fill="#E43225"/>
<path d="M85.9766 64.0537C85.9766 60.0054 88.8903 56.709 92.9113 56.709C97.923 56.709 99.7878 60.0054 99.7878 64.2272V65.3838H88.599C88.7738 68.0441 91.1631 69.4321 93.3775 69.3743C95.0092 69.3164 96.1165 68.8538 97.282 67.6971L98.8554 69.3164C97.3985 70.7044 95.5337 71.6297 93.261 71.6297C89.0069 71.5719 85.9766 68.4489 85.9766 64.0537V64.0537ZM92.7365 59.0801C90.4637 59.0801 88.7155 61.0464 88.599 63.1862H97.282C97.282 61.1042 95.7668 59.0801 92.7365 59.0801V59.0801Z" fill="#E43225"/>
<path d="M101.012 69.0853L102.76 67.5238C102.702 67.5238 103.634 68.4492 103.751 68.507C104.159 68.854 104.567 69.0853 105.091 69.201C106.606 69.6058 109.345 69.4901 109.578 67.4082C109.695 66.2515 108.821 65.6154 107.83 65.2105C106.548 64.7479 105.149 64.5744 103.867 63.9961C102.41 63.3599 101.478 62.2611 101.478 60.6418C101.478 56.42 107.539 55.726 110.277 57.6923C110.394 57.808 111.734 59.0225 111.676 59.0225L109.928 60.4105C109.054 59.3695 108.238 58.849 106.373 58.849C105.441 58.849 104.159 59.2538 103.925 60.237C103.576 61.6249 105.149 62.1454 106.198 62.4346C107.597 62.7816 109.112 63.0129 110.336 63.7647C112.026 64.8057 112.434 67.0612 111.793 68.7961C111.093 70.7046 108.995 71.4564 107.131 71.5143C104.916 71.6299 102.993 70.9359 101.42 69.3745C101.303 69.3745 101.012 69.0853 101.012 69.0853V69.0853Z" fill="#E43225"/>
<path d="M113.308 69.0853L115.056 67.5238C114.998 67.5238 115.93 68.4492 116.047 68.507C116.454 68.854 116.862 69.0853 117.387 69.201C118.902 69.6058 121.641 69.4901 121.874 67.4082C121.991 66.2515 121.116 65.6154 120.126 65.2105C118.844 64.7479 117.445 64.5744 116.163 63.9961C114.706 63.3599 113.774 62.2611 113.774 60.6418C113.774 56.42 119.834 55.726 122.573 57.6923C122.69 57.808 124.03 59.0225 123.972 59.0225L122.224 60.4105C121.35 59.3695 120.534 58.849 118.669 58.849C117.737 58.849 116.454 59.2538 116.221 60.237C115.872 61.6249 117.445 62.1454 118.494 62.4346C119.893 62.7816 121.408 63.0129 122.632 63.7647C124.322 64.8057 124.73 67.0612 124.089 68.7961C123.389 70.7046 121.291 71.4564 119.427 71.5143C117.212 71.6299 115.289 70.9359 113.716 69.3745C113.599 69.3745 113.308 69.0853 113.308 69.0853V69.0853Z" fill="#E43225"/>
<path d="M124.671 57.0565V55.5528H124.146V55.2637H125.545V55.5528H125.021V57.0565H124.671Z" fill="#E43225"/>
<path d="M127.294 57.0565V55.6685L126.769 57.0565H126.653L126.128 55.6685V57.0565H125.837V55.2637H126.303L126.769 56.4782L127.236 55.2637H127.702V57.0565H127.294Z" fill="#E43225"/>
<path d="M16.3375 71.0516L14.5892 66.425H5.14863L3.40037 71.0516H0.894531L8.47032 51.6777H11.2093L18.7268 71.0516H16.3375ZM9.75237 54.4537L6.19759 64.0538H13.5985L9.75237 54.4537Z" fill="#F7971D"/>
<path d="M20.2998 71.0516V51.6777H22.7474V71.0516H20.2998Z" fill="#F7971D"/>
<path d="M26.4189 71.052V57.3457H28.8665V71.052H26.4189Z" fill="#F7971D"/>
<path d="M31.1978 52.8925C31.1978 52.8346 31.1978 52.8346 31.1978 52.7768C31.1978 52.719 31.1978 52.719 31.1978 52.6611C29.333 52.6033 27.8178 51.0997 27.7596 49.249C27.7013 49.249 27.643 49.249 27.5847 49.249C27.5265 49.249 27.4682 49.249 27.4099 49.249C27.3516 51.0997 25.8365 52.6033 23.9717 52.6611C23.9717 52.719 23.9717 52.719 23.9717 52.7768C23.9717 52.8346 23.9717 52.8346 23.9717 52.8925C25.8365 52.9503 27.3516 54.4539 27.4099 56.3046C27.4682 56.3046 27.5265 56.3046 27.5847 56.3046C27.643 56.3046 27.7013 56.3046 27.7596 56.3046C27.8178 54.4539 29.333 52.9503 31.1978 52.8925Z" fill="#F7971D"/>
</g>
<g clip-path="url(#clip1_737_18289)">
<path d="M42.0417 0.575677C40.6904 0.528123 39.3266 1.64937 39.3737 3.07191C39.3517 9.4916 39.385 15.9116 39.3575 22.3312C40.473 22.3478 41.5855 22.3414 42.6983 22.3414C42.7035 16.4805 42.6901 10.6225 42.7068 4.76165C43.93 5.72513 45.0732 6.83785 46.5146 7.47651C48.7705 8.51434 51.4625 8.54425 53.7405 7.55046C55.2619 6.92556 56.4515 5.75543 57.7327 4.76165C57.7243 10.6225 57.73 16.4805 57.73 22.3414C58.8428 22.3414 59.9557 22.3444 61.0657 22.3362C61.0466 15.9057 61.0789 9.47469 61.0514 3.04675C61.0982 1.22443 58.8395 -0.0470205 57.2877 0.897213C55.8795 1.84701 54.6623 3.05008 53.2734 4.0301C51.7023 5.09546 49.5682 5.24151 47.8563 4.42942C46.0478 3.47691 44.7081 1.84443 42.9575 0.806602C42.6644 0.66053 42.3536 0.586727 42.0417 0.575754L42.0417 0.575677ZM75.142 0.613618C73.6605 0.567214 72.1577 1.39711 71.5609 2.78834C68.692 9.29336 65.8753 15.8255 63.0257 22.3415C64.2406 22.3415 65.453 22.3392 66.6679 22.3448C67.7254 19.9856 68.7034 17.5906 69.7885 15.2451L69.9288 15.157C73.3444 15.0992 76.763 15.1518 80.1786 15.1352C81.2112 17.5302 82.2852 19.9091 83.2875 22.3178C84.5107 22.3618 85.7338 22.3367 86.957 22.3422C84.1682 15.9004 81.3549 9.4669 78.5523 3.0307C78.1271 1.9791 77.2515 1.11459 76.1526 0.789747C75.8243 0.681874 75.4839 0.624908 75.142 0.614201V0.613618ZM15.5555 0.627119C15.5527 1.73377 15.5527 2.84024 15.5527 3.94965C18.5376 3.94416 21.5252 3.96409 24.5101 3.93934C24.5349 10.0645 24.5428 16.1889 24.5042 22.3113C25.628 22.3581 26.7517 22.3556 27.8755 22.3146C27.8507 16.1867 27.8314 10.0589 27.8866 3.93102C30.8714 3.97232 33.8596 3.93929 36.8472 3.95031C36.8499 2.8409 36.8499 1.73379 36.8472 0.627141C29.7482 0.627141 22.6516 0.629638 15.5553 0.627141L15.5555 0.627119ZM104.789 0.649626C103.679 0.668898 102.572 0.66285 101.465 0.657338C101.465 5.87677 101.443 11.0989 101.473 16.3183C101.503 19.385 104.132 22.1409 107.203 22.3171C109.417 22.3777 111.635 22.3223 113.852 22.3415V19.0216C111.822 19.0131 109.795 19.0303 107.766 19.0191C106.266 19.0796 104.867 17.7968 104.822 16.2965C104.775 11.0828 104.847 5.86617 104.789 0.6497L104.789 0.649626ZM90.8232 0.657338C90.263 0.657338 89.7035 0.666898 89.1443 0.706853C89.2189 5.89876 89.1384 11.091 89.1826 16.2829C89.1937 19.2175 91.5854 21.8956 94.4985 22.2727C95.9674 22.4214 97.4499 22.3087 98.9271 22.339C98.9245 21.2323 98.9241 20.1282 98.9241 19.0216C97.6318 18.9968 96.3371 19.0713 95.0449 18.9888C93.5842 18.8401 92.4355 17.4361 92.51 15.9826C92.4963 10.876 92.5074 5.77223 92.5048 0.665673C91.9443 0.667156 91.3835 0.65731 90.8233 0.65731L90.8232 0.657338ZM74.9959 3.93743C75.1605 3.93392 75.3219 4.01414 75.3908 4.19721C76.5532 6.70507 77.591 9.27379 78.7342 11.7927C76.2519 11.8367 73.7673 11.7987 71.2823 11.8152C72.3343 9.30455 73.4303 6.81248 74.5348 4.32389C74.5674 4.08387 74.7843 3.94167 74.9959 3.93743Z" fill="#FF0036"/>
</g>
<defs>
<clipPath id="clip0_737_18289">
<rect width="126.807" height="29.2632" fill="white" transform="translate(0.894531 49.249)"/>
</clipPath>
<clipPath id="clip1_737_18289">
<rect width="98.5193" height="22.4351" fill="white" transform="translate(15.5264 0.477539)"/>
</clipPath>
</defs>
</svg>
