<svg width="146" height="42" viewBox="0 0 146 42" fill="none" xmlns="http://www.w3.org/2000/svg">
<path d="M46.542 0.164551H50.6414L55.3165 15.3315L59.9611 0.164551H64.0866L57.6366 19.8969H52.9615L46.542 0.164551Z" fill="#043E44"/>
<path d="M78.548 12.8542C78.548 17.0553 75.5433 20.2982 71.88 20.2982C69.8826 20.2982 68.4346 19.5381 67.4535 18.2381V25.5383H63.9297V5.80597H67.4535V7.47021C68.439 6.17483 69.8869 5.41016 71.88 5.41016C75.5433 5.41016 78.548 8.65309 78.548 12.8542ZM75.0199 12.8542C75.0199 10.4883 73.4064 8.87795 71.2214 8.87795C69.0627 8.87795 67.449 10.4837 67.449 12.8542C67.449 15.2201 69.0627 16.8303 71.2214 16.8303C73.4107 16.8259 75.0199 15.2201 75.0199 12.8542Z" fill="#043E44"/>
<path d="M87.9758 5.52246V9.57955C86.1441 9.35469 83.8197 10.2002 83.8197 13.1598V19.8978H80.2959V5.80135H83.8197V8.22571C84.5305 6.30953 86.2531 5.52246 87.9758 5.52246Z" fill="#043E44"/>
<path d="M88.0596 12.8542C88.0596 8.65309 91.2562 5.41016 95.2772 5.41016C99.2938 5.41016 102.521 8.65309 102.521 12.8542C102.521 17.0553 99.2938 20.2982 95.2772 20.2982C91.2562 20.2936 88.0596 17.0507 88.0596 12.8542ZM98.9928 12.8542C98.9928 10.5693 97.3792 8.96349 95.2772 8.96349C93.2013 8.96349 91.5876 10.5693 91.5876 12.8542C91.5876 15.1391 93.2013 16.7449 95.2772 16.7449C97.3792 16.7403 98.9928 15.1347 98.9928 12.8542Z" fill="#043E44"/>
<path d="M112.764 19.8969L107.788 13.4964V19.8969H104.265V0.164551H107.788V12.0031L112.49 5.80046H116.698L111.203 12.7633L116.859 19.8969H112.764Z" fill="#043E44"/>
<path d="M117.602 17.8681C117.602 16.5412 118.64 15.4707 119.926 15.4707C121.213 15.4707 122.251 16.5412 122.251 17.8681C122.251 19.195 121.213 20.2655 119.926 20.2655C118.64 20.2655 117.602 19.195 117.602 17.8681Z" fill="#043E44"/>
<path d="M132.139 5.52246V9.57955C130.307 9.35469 127.984 10.2002 127.984 13.1598V19.8978H124.455V5.80135H127.984V8.22571C128.699 6.30953 130.417 5.52246 132.139 5.52246Z" fill="#043E44"/>
<path d="M146 5.80615V19.9026H142.476V18.3239C141.657 19.5923 140.235 20.2984 138.403 20.2984C135.508 20.2984 133.235 18.2114 133.235 14.4647V5.81071H136.759V14.0148C136.759 15.9309 137.879 16.9206 139.467 16.9206C141.189 16.9206 142.471 15.877 142.471 13.4256V5.81514H146V5.80615Z" fill="#043E44"/>
<path d="M57.659 38.7487H55.4872V29.519H51.597V38.7487H49.4209V27.3735H57.659V38.7487Z" fill="#043E44"/>
<path d="M63.3919 37.075C64.1813 37.075 64.8094 36.7331 65.1582 36.2608L66.7979 37.2368C66.0566 38.3434 64.8748 38.9775 63.3614 38.9775C60.7142 38.9775 59.0439 37.1065 59.0439 34.6866C59.0439 32.2666 60.7317 30.3955 63.2045 30.3955C65.5377 30.3955 67.1905 32.2981 67.1905 34.6866C67.1905 34.997 67.16 35.2713 67.112 35.5456H61.1722C61.4557 36.6207 62.3191 37.075 63.3919 37.075ZM65.1582 33.9219C64.9053 32.7524 64.0548 32.2802 63.2045 32.2802C62.1185 32.2802 61.3771 32.8829 61.1417 33.9219H65.1582Z" fill="#043E44"/>
<path d="M76.8817 34.6866C76.8817 37.1065 75.1503 38.9775 73.0395 38.9775C71.8882 38.9775 71.0552 38.5368 70.4883 37.7901V42.0001H68.4561V30.6249H70.4883V31.5831C71.0552 30.8364 71.8882 30.3955 73.0395 30.3955C75.146 30.4001 76.8817 32.2666 76.8817 34.6866ZM74.8494 34.6866C74.8494 33.3237 73.9204 32.3971 72.6601 32.3971C71.4172 32.3971 70.4839 33.3237 70.4839 34.6866C70.4839 36.0494 71.4129 36.976 72.6601 36.976C73.9204 36.9805 74.8494 36.0539 74.8494 34.6866Z" fill="#043E44"/>
<path d="M82.0981 37.075C82.8874 37.075 83.5154 36.7331 83.8642 36.2608L85.5041 37.2368C84.7627 38.3434 83.5808 38.9775 82.0676 38.9775C79.4203 38.9775 77.75 37.1065 77.75 34.6866C77.75 32.2666 79.4378 30.3955 81.9105 30.3955C84.2437 30.3955 85.8966 32.2981 85.8966 34.6866C85.8966 34.997 85.8661 35.2713 85.8181 35.5456H79.8783C80.1574 36.6207 81.0252 37.075 82.0981 37.075ZM83.86 33.9219C83.607 32.7524 82.7566 32.2802 81.9062 32.2802C80.8203 32.2802 80.0789 32.8829 79.8433 33.9219H83.86Z" fill="#043E44"/>
<path d="M92.0537 38.7496L89.1885 35.0614V38.7496H87.1562V30.6265H89.1885V34.2022L91.8967 30.6265H94.3214L91.1553 34.6385L94.4174 38.7496H92.0537Z" fill="#043E44"/>
<path d="M103.698 34.6866C103.698 37.1065 101.967 38.9775 99.8559 38.9775C98.7046 38.9775 97.8716 38.5368 97.3047 37.7901V42.0001H95.2725V30.6249H97.3047V31.5831C97.8716 30.8364 98.7046 30.3955 99.8559 30.3955C101.962 30.4001 103.698 32.2666 103.698 34.6866ZM101.666 34.6866C101.666 33.3237 100.737 32.3971 99.4765 32.3971C98.2336 32.3971 97.3047 33.3237 97.3047 34.6866C97.3047 36.0494 98.2336 36.976 99.4765 36.976C100.737 36.9805 101.666 36.0539 101.666 34.6866Z" fill="#043E44"/>
<path d="M108.916 37.0754C109.705 37.0754 110.333 36.7335 110.682 36.2612L112.321 37.2372C111.58 38.3437 110.398 38.9779 108.885 38.9779C106.238 38.9779 104.567 37.1067 104.567 34.6869C104.567 32.267 106.255 30.3959 108.728 30.3959C111.061 30.3959 112.714 32.2985 112.714 34.6869C112.714 34.9973 112.683 35.2717 112.635 35.546H106.696C106.979 36.6211 107.843 37.0754 108.916 37.0754ZM106.063 28.6777C106.063 28.075 106.552 27.5713 107.136 27.5713C107.721 27.5713 108.192 28.075 108.192 28.6777C108.192 29.2804 107.721 29.7662 107.136 29.7662C106.552 29.7662 106.063 29.2759 106.063 28.6777ZM110.682 33.9223C110.429 32.7528 109.578 32.2806 108.728 32.2806C107.642 32.2806 106.901 32.8833 106.665 33.9223H110.682ZM109.055 28.6777C109.055 28.075 109.543 27.5713 110.128 27.5713C110.712 27.5713 111.183 28.075 111.183 28.6777C111.183 29.2804 110.712 29.7662 110.128 29.7662C109.543 29.7662 109.055 29.2759 109.055 28.6777Z" fill="#043E44"/>
<path d="M113.498 34.6866C113.498 32.2666 115.264 30.3955 117.659 30.3955C119.202 30.3955 120.541 31.2412 121.187 32.4916L119.438 33.5486C119.124 32.8829 118.444 32.4601 117.641 32.4601C116.429 32.4601 115.53 33.3866 115.53 34.6866C115.53 35.9685 116.429 36.895 117.641 36.895C118.461 36.895 119.137 36.4902 119.451 35.8245L121.217 36.8635C120.541 38.132 119.202 38.9775 117.659 38.9775C115.264 38.9775 113.498 37.1065 113.498 34.6866Z" fill="#043E44"/>
<path d="M128.717 32.6415H126.257V38.7496H124.225V32.6415H121.734V30.6265H128.712V32.6415H128.717Z" fill="#043E44"/>
<path d="M128.923 34.6866C128.923 32.2666 130.768 30.3955 133.083 30.3955C135.4 30.3955 137.257 32.2622 137.257 34.6866C137.257 37.1065 135.4 38.9775 133.083 38.9775C130.768 38.9775 128.923 37.1065 128.923 34.6866ZM135.225 34.6866C135.225 33.3687 134.295 32.4466 133.083 32.4466C131.888 32.4466 130.956 33.3732 130.956 34.6866C130.956 35.9999 131.885 36.931 133.083 36.931C134.295 36.931 135.225 36.0045 135.225 34.6866Z" fill="#043E44"/>
<path d="M143.432 38.7496L140.562 35.0614V38.7496H138.53V30.6265H140.562V34.2022L143.271 30.6265H145.695L142.529 34.6385L145.791 38.7496H143.432Z" fill="#043E44"/>
<path d="M29.6752 0H7.55798C3.40002 0 0 3.50664 0 7.79504V30.6062C0 34.8946 3.40002 38.4014 7.55798 38.4014H29.6752C33.8332 38.4014 37.2333 34.8946 37.2333 30.6062V7.79504C37.2333 3.51107 33.8332 0 29.6752 0Z" fill="#043E44"/>
<path d="M18.7981 13.3766L13.1543 19.2019L18.7981 25.0273C21.9156 28.2425 26.9685 28.2425 30.0817 25.0273C33.1991 21.8122 33.1991 16.5962 30.0817 13.381C26.9643 10.1615 21.9113 10.1615 18.7981 13.3766Z" fill="white"/>
<path d="M8.58574 19.2005L2.94187 13.3751C2.52651 12.9467 2.07687 12.5845 1.60156 12.2754V26.1254C2.07687 25.8163 2.52651 25.4497 2.94187 25.0214L8.58574 19.2005Z" fill="white"/>
<path d="M16.5114 27.3859L10.8717 21.5605L5.22788 27.3859C3.33945 29.3336 2.61149 32.0366 3.00972 34.5628C4.10168 35.8965 5.73746 36.7489 7.56165 36.7489H18.0786C19.4875 33.6883 18.9651 29.9165 16.5114 27.3859Z" fill="white"/>
<path d="M5.228 11.0167L10.8676 16.842L16.5115 11.0167C18.9652 8.48605 19.479 4.71001 18.0702 1.64941H7.55749C5.7333 1.64941 4.09751 2.50178 3.00556 3.83993C2.61161 6.36172 3.34386 9.07345 5.228 11.0167Z" fill="white"/>
</svg>
