<svg viewBox="0 0 23 23" fill="none" xmlns="http://www.w3.org/2000/svg">
<path d="M17.8484 0.289062H4.74567C2.28732 0.289062 0.285156 2.29123 0.285156 4.74958V17.8524C0.285156 20.3107 2.28732 22.3129 4.74567 22.3129H17.8231C20.2815 22.3129 22.2836 20.3107 22.2836 17.8524V4.74958C22.309 2.29123 20.3068 0.289062 17.8484 0.289062Z" fill="#043E44"/>
<path d="M11.4118 7.9657L8.06641 11.3111L11.4118 14.6565C13.2619 16.5066 16.2525 16.5066 18.1026 14.6565C19.9527 12.8064 19.9527 9.8158 18.1026 7.9657C16.2525 6.1156 13.2619 6.1156 11.4118 7.9657Z" fill="white"/>
<path d="M5.35375 11.3149L2.03371 7.96953C1.78027 7.7161 1.52683 7.51334 1.24805 7.33594V15.2939C1.52683 15.1165 1.80561 14.9138 2.03371 14.6603L5.35375 11.3149Z" fill="white"/>
<path d="M10.0658 16.0016L6.7204 12.6562L3.37501 16.0016C2.25988 17.1168 1.82904 18.6627 2.05713 20.1327C2.71607 20.893 3.67914 21.3999 4.74358 21.3999H10.9782C11.8145 19.6258 11.5104 17.4462 10.0658 16.0016Z" fill="white"/>
<path d="M3.37501 6.59946L6.7204 9.94485L10.0658 6.59946C11.5104 5.15486 11.8145 2.97529 10.9782 1.22656H4.74358C3.6538 1.22656 2.69073 1.7081 2.05713 2.49376C1.82904 3.93836 2.25988 5.48433 3.37501 6.59946Z" fill="white"/>
</svg>
