<svg viewBox="0 0 170 51" fill="none" xmlns="http://www.w3.org/2000/svg">
<path d="M76.0898 20.1562H83.2681C92.7433 20.1562 96.1889 25.5212 96.1889 31.6112C96.1889 38.2812 92.169 43.7913 82.9809 43.7913H76.0898V20.1562ZM79.1047 23.0563V40.8913H83.1245C90.0156 40.8913 92.8869 36.9763 92.8869 31.6112C92.8869 26.6812 90.3027 23.0563 83.1245 23.0563H79.1047V23.0563Z" fill="black"/>
<path d="M101.07 19.5781C102.075 19.5781 102.793 20.3031 102.793 21.3181C102.793 22.1881 102.075 23.0581 101.07 23.0581C100.065 23.0581 99.3477 22.3331 99.3477 21.3181C99.3477 20.3031 100.065 19.5781 101.07 19.5781ZM99.6348 26.2481H102.363V43.7931H99.6348V26.2481Z" fill="black"/>
<path d="M105.809 34.9475C105.809 29.5825 109.685 25.8125 114.566 25.8125C117.724 25.8125 119.734 26.9725 120.739 28.7125V26.1025H123.467V42.1975C123.467 48.1425 120.165 50.6075 115.715 50.6075C111.838 50.6075 108.967 49.0125 107.962 46.4025L110.403 45.2425C111.12 46.6925 112.7 47.9975 115.427 47.9975C118.729 47.9975 120.452 46.1125 120.452 42.7775V40.4575C119.304 42.6325 117.437 43.9375 113.848 43.9375C109.541 44.0825 105.809 40.6025 105.809 34.9475ZM120.739 35.0925V34.5125C120.739 30.7425 118.299 28.5675 114.853 28.5675C111.551 28.5675 108.68 31.0325 108.68 34.9475C108.68 39.0075 111.12 41.3275 114.71 41.3275C118.442 41.3275 120.739 39.0075 120.739 35.0925Z" fill="black"/>
<path d="M129.639 19.5781C130.644 19.5781 131.362 20.3031 131.362 21.3181C131.362 22.1881 130.644 23.0581 129.639 23.0581C128.634 23.0581 127.916 22.3331 127.916 21.3181C127.916 20.3031 128.634 19.5781 129.639 19.5781ZM128.203 26.2481H130.931V43.7931H128.203V26.2481Z" fill="black"/>
<path d="M133.658 26.245H136.529V21.75H139.257V26.245H143.995V28.855H139.257V38.715C139.257 40.6 139.831 41.325 141.554 41.325C142.272 41.325 143.133 41.18 143.995 40.89V43.5C143.133 43.645 141.841 43.935 140.836 43.935C137.678 43.935 136.529 42.485 136.529 38.28V28.71H133.658V26.245Z" fill="black"/>
<path d="M147.011 30.7381C148.159 27.6931 150.887 25.9531 154.62 25.9531C159.357 25.9531 161.654 28.4181 161.654 33.4931V43.7881H158.927V40.7431C158.065 42.6281 155.338 44.0781 152.61 44.0781C149.021 44.0781 146.58 42.0481 146.58 38.8581C146.58 34.7981 150.026 33.3481 158.927 33.3481C158.927 30.1581 157.491 28.7081 154.62 28.7081C152.036 28.7081 150.313 29.7231 149.595 31.7531L147.011 30.7381ZM158.927 36.2481V35.6681C151.748 35.6681 149.451 36.5381 149.451 38.8581C149.451 40.4531 150.887 41.4681 153.184 41.4681C156.486 41.3231 158.927 39.2931 158.927 36.2481Z" fill="black"/>
<path d="M166.393 19.1406H169.12V43.6456H166.393V19.1406Z" fill="black"/>
<path d="M40.9161 43.7869L36.0349 35.6669L31.2973 43.7869H25.6983L33.02 31.6069L25.5547 20.2969H31.5844L36.322 27.8369L40.9161 20.2969H46.5151L39.1933 31.8969L46.6586 43.7869H40.9161Z" fill="black"/>
<path d="M65.0344 35.6678C65.0344 40.8878 61.1581 44.0778 56.1334 44.0778C51.6829 44.0778 47.9502 41.6128 47.5195 36.1028H52.4007C52.6879 38.4228 54.5542 39.4378 56.5641 39.4378C59.1482 39.4378 60.1532 37.6978 60.1532 35.5228C60.1532 33.2028 58.4304 31.7528 56.1334 31.7528C54.1235 31.7528 52.8314 32.6228 52.2572 33.6378H47.6631L49.2423 20.0078H64.4601L63.8859 24.6478H53.1185L52.6879 29.1428C52.6879 29.1428 53.8364 27.8378 57.2819 27.8378C61.4453 27.9828 65.0344 30.7378 65.0344 35.6678Z" fill="black"/>
<path d="M48.0941 17.255C45.5099 7.105 37.3267 0 20.3861 0H0L2.72772 18.995C4.88119 36.105 11.3416 41.615 22.8267 43.645C22.8267 43.645 23.2574 43.645 23.2574 43.21C23.2574 43.065 23.1139 42.92 22.9703 42.92C15.2178 39.585 14.3564 28.855 12.6337 17.98L11.4851 9.28H23.1139C33.8812 9.28 42.2079 9.135 47.5198 17.545C47.6634 17.69 47.6634 17.69 47.8069 17.69C47.9505 17.69 48.0941 17.545 48.0941 17.255Z" fill="#5FAF2D"/>
</svg>
