<svg viewBox="0 0 122 122" fill="none" xmlns="http://www.w3.org/2000/svg">
<path d="M121 1H1V121H121V1Z" stroke="#4B5366" stroke-miterlimit="10"/>
<path d="M10.4807 30.8896L16.0392 22.2969L16.3788 21.7869C17.097 20.7091 17.627 19.806 17.9678 19.0778C18.3074 18.3507 18.4777 17.5512 18.4777 16.6816C18.4777 15.9433 18.3363 15.3822 18.0524 14.9946C17.7696 14.6072 17.362 14.4134 16.8331 14.4134C16.0392 14.4134 15.4903 14.7163 15.1885 15.3209C14.8856 15.9266 14.7342 16.7584 14.7342 17.8162V18.8651H10.4807V17.7316C10.4807 15.5759 10.9862 13.87 11.9984 12.6129C13.0094 11.3558 14.5928 10.7267 16.7474 10.7267C18.7327 10.7267 20.2404 11.2511 21.2715 12.3011C22.3014 13.35 22.817 14.8388 22.817 16.7673C22.817 17.637 22.6845 18.4587 22.4195 19.2337C22.1556 20.0098 21.8427 20.7001 21.4841 21.3048C21.1245 21.9094 20.5666 22.7701 19.8106 23.8847L15.3867 30.521H22.2213V33.9806H10.4807V30.8896Z" fill="#4B5366"/>
<path d="M31.8276 19.7755V18.6208C32.0047 18.6253 32.1439 18.6197 32.2485 18.6052C32.3521 18.5908 32.4579 18.5484 32.5636 18.4761C32.6694 18.4037 32.7518 18.3024 32.8097 18.1732C32.8676 18.0452 32.9266 17.8603 32.9845 17.6176C33.0424 17.3759 33.0903 17.0865 33.1282 16.7502C33.1638 16.4128 33.1983 15.9919 33.2306 15.4864L33.5223 10.9968H37.8048V19.7755H36.2058V12.1938H34.9309L34.7394 15.6512C34.7182 16.0108 34.6971 16.3193 34.6737 16.5754C34.6503 16.8303 34.6202 17.0976 34.5835 17.3749C34.5467 17.6521 34.5022 17.8826 34.451 18.0685C34.3998 18.2534 34.3363 18.4415 34.2606 18.632C34.1849 18.8224 34.0969 18.9771 33.9956 19.0952C33.8954 19.2132 33.7762 19.3257 33.6381 19.4314C33.5012 19.5372 33.3431 19.614 33.1671 19.6642C32.9901 19.7143 32.7908 19.7488 32.5681 19.77C32.3465 19.7911 32.0993 19.7922 31.8276 19.7755Z" fill="#4B5366"/>
<path d="M39.0957 19.7755V10.9968H40.4241V16.4818L42.8069 10.9968H43.8981V19.7755H42.5531V14.1836L40.1646 19.7755H39.0957Z" fill="#4B5366"/>
<path d="M45.1882 19.7755V10.9968H46.7872V14.6925H47.099L48.5187 10.9968H50.1065L48.4608 15.1379L50.239 19.7755H48.6189L47.1045 15.6879H46.7872V19.7755H45.1882Z" fill="#4B5366"/>
<path d="M50.9893 19.7757V10.9982H53.1383C53.5458 10.9982 53.8999 11.0327 54.2039 11.1062C54.5067 11.1786 54.7762 11.2988 55.0112 11.4658C55.245 11.634 55.422 11.8656 55.5401 12.1618C55.6581 12.4591 55.716 12.8165 55.7127 13.2363C55.7082 14.3208 55.2795 14.9254 54.4255 15.0535C55.4532 15.2472 55.9676 15.9732 55.9721 17.2281C55.9754 18.0621 55.7661 18.6946 55.3463 19.1266C54.9265 19.5597 54.3141 19.7757 53.5091 19.7757H50.9893ZM52.5882 14.5758H53.0859C53.5592 14.5758 53.8843 14.4756 54.0602 14.2741C54.2373 14.0736 54.3253 13.734 54.3253 13.2585C54.3253 13.0114 54.2952 12.8098 54.2373 12.6573C54.1794 12.5036 54.0814 12.3878 53.9444 12.311C53.8064 12.233 53.6538 12.1818 53.4857 12.1573C53.3176 12.1317 53.0948 12.1195 52.8165 12.1195H52.5882V14.5758ZM52.5882 18.6478H53.1761C53.6561 18.6478 53.9868 18.5376 54.1694 18.3149C54.3509 18.0922 54.441 17.7247 54.441 17.2125C54.441 16.6836 54.3386 16.2995 54.1315 16.0612C53.9255 15.824 53.5781 15.7038 53.0915 15.7038H52.5882V18.6478Z" fill="#4B5366"/>
<path d="M56.9604 19.7755V10.9968H58.2888V16.4818L60.6717 10.9968H61.7629V19.7755H60.4178V14.1836L58.0294 19.7755H56.9604Z" fill="#4B5366"/>
<path d="M62.5291 21.5176V18.637H62.8787C63.0691 18.5246 63.2361 18.3721 63.3786 18.1816C63.5212 17.9912 63.6603 17.7173 63.794 17.361C63.9287 17.0047 64.04 16.527 64.1302 15.9268C64.2204 15.3267 64.2884 14.6029 64.334 13.7556L64.5032 10.9974H68.4216V18.637H69.348V21.5176H68.2089L68.1043 19.7761H63.8051L63.6993 21.5176H62.5291ZM64.3607 18.637H66.8805V12.151H65.7804L65.7002 14.0205C65.6791 14.5071 65.6479 14.9514 65.6078 15.35C65.5666 15.7487 65.5243 16.0849 65.4809 16.3611C65.4363 16.6361 65.3751 16.8911 65.2983 17.125C65.2203 17.361 65.1546 17.5436 65.099 17.6761C65.0455 17.8086 64.9654 17.9445 64.8607 18.0837C64.7571 18.224 64.677 18.3219 64.6202 18.3798C64.5634 18.4389 64.4776 18.5246 64.3607 18.637Z" fill="#4B5366"/>
<path d="M69.7065 19.7752L71.4914 10.9976H73.1594L74.9377 19.7752H73.4501L73.0949 17.7375H71.5761L71.2153 19.7752H69.7065ZM71.7453 16.6941H72.9212L72.3333 13.0887L71.7453 16.6941Z" fill="#4B5366"/>
<path d="M80.7656 21.5175L80.5963 19.776H75.7627V10.9984H77.3605V18.6692H79.3515V10.9984H80.946V18.6692H81.9626V21.5175H80.7656Z" fill="#4B5366"/>
<path d="M82.8188 19.7755V10.9968H84.1472V16.4818L86.5301 10.9968H87.6213V19.7755H86.2762V14.1836L83.8878 19.7755H82.8188Z" fill="#4B5366"/>
<path d="M88.3503 19.7763L90.1241 15.8524C89.7533 15.6586 89.4594 15.3613 89.24 14.9627C89.0207 14.564 88.9115 14.0808 88.9115 13.5129C88.9115 12.6578 89.1454 12.0253 89.613 11.6144C90.0807 11.2024 90.8122 10.9976 91.8077 10.9976H93.7819V19.7763H92.1841V16.2231H91.7064H91.5171L90.1085 19.7763H88.3503ZM91.8868 15.0896H92.1841V12.1144H91.86C91.369 12.1144 91.0049 12.228 90.7666 12.4529C90.5283 12.6789 90.4092 13.0319 90.4092 13.5129C90.4092 14.0418 90.5228 14.4371 90.7488 14.6988C90.9748 14.9593 91.3545 15.0896 91.8868 15.0896Z" fill="#4B5366"/>
<path d="M32.4788 34.1214V25.3428H36.1577V26.5241H34.0777V34.1214H32.4788Z" fill="#4B5366"/>
<path d="M39.36 34.2277C38.457 34.2277 37.809 33.9828 37.417 33.4917C37.0251 33.0007 36.8291 32.2836 36.8291 31.3371V28.0969C36.8291 27.6304 36.8736 27.2273 36.9616 26.8843C37.0496 26.5425 37.1921 26.2452 37.3881 25.9946C37.584 25.7441 37.8457 25.5559 38.1742 25.4312C38.5027 25.3054 38.8979 25.243 39.36 25.243C40.2609 25.243 40.9067 25.4847 41.2997 25.9679C41.6939 26.4523 41.891 27.1605 41.891 28.0969V31.3371C41.891 31.7959 41.8465 32.199 41.7562 32.5464C41.6661 32.8949 41.5224 33.1967 41.3265 33.4516C41.1305 33.7077 40.8688 33.9015 40.5415 34.0318C40.213 34.162 39.8188 34.2277 39.36 34.2277ZM38.9603 32.9728C39.0716 33.0185 39.2042 33.0419 39.36 33.0419C39.5148 33.0419 39.6473 33.0185 39.7564 32.9728C39.8667 32.9272 39.9535 32.8671 40.0192 32.7925C40.0849 32.719 40.1361 32.6221 40.1729 32.5018C40.2096 32.3816 40.2341 32.2613 40.2475 32.1411C40.2586 32.0219 40.2653 31.8783 40.2653 31.7124V27.7261C40.2653 27.5146 40.2553 27.3386 40.2341 27.1972C40.213 27.0558 40.1707 26.9222 40.1094 26.7963C40.0471 26.6716 39.9546 26.5781 39.8311 26.5158C39.7074 26.4545 39.5505 26.4233 39.36 26.4233C39.1696 26.4233 39.0115 26.4545 38.8868 26.5158C38.761 26.5781 38.6686 26.6716 38.6084 26.7963C38.5483 26.9222 38.5071 27.0558 38.4871 27.1972C38.4659 27.3386 38.4548 27.5146 38.4548 27.7261V31.7124C38.4548 31.8783 38.4604 32.0219 38.4726 32.1411C38.486 32.2613 38.5105 32.3816 38.5472 32.5018C38.5839 32.6221 38.6352 32.719 38.6986 32.7925C38.7621 32.8671 38.849 32.9272 38.9603 32.9728Z" fill="#4B5366"/>
<path d="M42.3713 34.1214V32.9679C42.5484 32.9712 42.6876 32.9656 42.7922 32.9512C42.8958 32.9378 43.0016 32.8944 43.1073 32.822C43.2131 32.7496 43.2955 32.6494 43.3534 32.5191C43.4124 32.3911 43.4703 32.2063 43.5282 31.9646C43.5861 31.723 43.634 31.4324 43.6719 31.0961C43.7075 30.7587 43.742 30.3378 43.7743 29.8334L44.066 25.3428H48.3485V34.1214H46.7495V26.5397H45.4746L45.2831 29.9971C45.2619 30.3568 45.2408 30.6652 45.2174 30.9213C45.194 31.1774 45.1639 31.4435 45.1272 31.7208C45.0904 31.998 45.0459 32.2285 44.9947 32.4145C44.9435 32.5993 44.88 32.7875 44.8043 32.9779C44.7286 33.1683 44.6406 33.3231 44.5393 33.4411C44.4391 33.5592 44.3199 33.6727 44.1819 33.7774C44.0449 33.8832 43.8879 33.9611 43.7108 34.0112C43.5338 34.0602 43.3345 34.0947 43.1129 34.1159C42.8902 34.137 42.643 34.1393 42.3713 34.1214Z" fill="#4B5366"/>
<path d="M52.0117 34.2277C51.1075 34.2277 50.4595 33.9828 50.0686 33.4917C49.6767 33.0007 49.4807 32.2836 49.4807 31.3371V28.0969C49.4807 27.6304 49.5252 27.2273 49.6132 26.8843C49.7012 26.5425 49.8437 26.2452 50.0397 25.9946C50.2356 25.7441 50.4973 25.5559 50.8258 25.4312C51.1543 25.3054 51.5484 25.243 52.0117 25.243C52.9113 25.243 53.5583 25.4847 53.9513 25.9679C54.3455 26.4523 54.5426 27.1605 54.5426 28.0969V31.3371C54.5426 31.7959 54.4969 32.199 54.4068 32.5464C54.3166 32.8949 54.174 33.1967 53.9781 33.4516C53.7821 33.7077 53.5204 33.9015 53.1919 34.0318C52.8635 34.162 52.4704 34.2277 52.0117 34.2277ZM51.6119 32.9728C51.7222 33.0185 51.8558 33.0419 52.0117 33.0419C52.1664 33.0419 52.2989 33.0185 52.4081 32.9728C52.5172 32.9272 52.6051 32.8671 52.6708 32.7925C52.7365 32.719 52.7878 32.6221 52.8245 32.5018C52.8612 32.3816 52.8857 32.2613 52.898 32.1411C52.9102 32.0219 52.9169 31.8783 52.9169 31.7124V27.7261C52.9169 27.5146 52.9058 27.3386 52.8846 27.1972C52.8635 27.0558 52.8223 26.9222 52.7599 26.7963C52.6987 26.6716 52.6062 26.5781 52.4827 26.5158C52.3591 26.4545 52.2021 26.4233 52.0117 26.4233C51.8212 26.4233 51.662 26.4545 51.5384 26.5158C51.4126 26.5781 51.3191 26.6716 51.26 26.7963C51.1999 26.9222 51.1587 27.0558 51.1376 27.1972C51.1164 27.3386 51.1064 27.5146 51.1064 27.7261V31.7124C51.1064 31.8783 51.112 32.0219 51.1242 32.1411C51.1376 32.2613 51.1621 32.3816 51.1988 32.5018C51.2355 32.6221 51.2868 32.719 51.3491 32.7925C51.4137 32.8671 51.5006 32.9272 51.6119 32.9728Z" fill="#4B5366"/>
<path d="M55.1499 35.863V32.9835H55.4995C55.6899 32.871 55.857 32.7185 55.9995 32.5281C56.142 32.3377 56.2812 32.0638 56.4148 31.7074C56.5496 31.3512 56.6609 30.8723 56.7511 30.2733C56.8413 29.6731 56.9092 28.9482 56.9549 28.102L57.1241 25.3428H61.0424V32.9835H61.9689V35.863H60.8298L60.7251 34.1215H56.4248L56.3202 35.863H55.1499ZM56.9816 32.9835H59.5014V26.4975H58.4001L58.3211 28.367C58.2999 28.8536 58.2688 29.2968 58.2287 29.6954C58.1875 30.0951 58.1452 30.4314 58.1017 30.7076C58.0572 30.9826 57.996 31.2376 57.9191 31.4714C57.8412 31.7074 57.7755 31.8901 57.7198 32.0226C57.6653 32.1551 57.5862 32.2909 57.4815 32.4301C57.378 32.5704 57.2978 32.6684 57.241 32.7263C57.1842 32.7853 57.0985 32.871 56.9816 32.9835Z" fill="#4B5366"/>
<path d="M62.3284 34.1216L64.1122 25.344H65.7802L67.5584 34.1216H66.0708L65.7156 32.0839H64.1968L63.8371 34.1216H62.3284ZM64.366 31.0406H65.5419L64.954 27.434L64.366 31.0406Z" fill="#4B5366"/>
<path d="M48.7613 103.09V104.791C48.7601 104.804 48.7557 104.817 48.7557 104.829C48.7557 104.845 48.7601 104.857 48.7613 104.87C48.7791 105.29 49.122 105.627 49.5462 105.634C49.5507 105.634 49.5552 105.638 49.5618 105.638C49.5674 105.638 49.5752 105.634 49.5808 105.634H69.5444C69.55 105.634 69.5544 105.638 69.5611 105.638C69.5678 105.638 69.5733 105.634 69.5789 105.634C70.0154 105.627 70.3628 105.272 70.3662 104.836L70.3695 104.829L70.3662 104.824V102.898C81.6034 99.214 90.0236 90.1057 91.8742 79.0065C91.8786 78.982 91.882 78.9597 91.8853 78.9397C91.892 78.9007 91.8965 78.8651 91.8965 78.8283C91.8965 78.3818 91.5368 78.0211 91.0892 78.0211H27.8456H27.4637C27.016 78.0211 26.6553 78.3818 26.6553 78.8283L26.6965 79.1913C28.6417 90.3974 37.2924 99.5558 48.7613 103.09Z" fill="#4B5366"/>
<path d="M70.3477 50.866C70.0849 51.2391 63.9385 60.089 70.4846 67.2454C73.4866 70.529 73.2272 73.4274 72.3698 75.3849H76.5698C77.4194 72.4954 77.0687 68.8699 73.6592 65.1453C68.8356 59.8719 73.7204 52.7445 73.7939 52.6342C74.3696 51.8214 74.0612 50.7725 73.1125 50.2837C72.1604 49.7982 70.9256 50.0576 70.3477 50.866Z" fill="#4B5366"/>
<path d="M59.7127 75.3846H63.9127C64.7623 72.4941 64.4104 68.8708 61.001 65.1451C56.1751 59.8705 61.0577 52.7475 61.1346 52.6306C61.7069 51.8211 61.404 50.7744 60.4509 50.2845C59.5022 49.8002 58.2662 50.0574 57.6906 50.8658C57.4267 51.2377 51.2747 60.0887 57.8264 67.2451C60.8284 70.5299 60.5678 73.4283 59.7127 75.3846Z" fill="#4B5366"/>
<path d="M45.0302 50.866C44.7641 51.239 38.6177 60.089 45.166 67.2453C48.1691 70.5301 47.9097 73.4285 47.0545 75.3849H51.2534C52.103 72.4965 51.7512 68.871 48.3395 65.1453C43.5147 59.8718 48.3996 52.7444 48.4764 52.6309C49.0476 51.8213 48.7437 50.7725 47.7905 50.2836C46.8429 49.7948 45.6059 50.0565 45.0302 50.866Z" fill="#4B5366"/>
</svg>
