<svg viewBox="0 0 122 122" fill="none" xmlns="http://www.w3.org/2000/svg">
<path d="M121 1H1V121H121V1Z" stroke="#4B5366" stroke-miterlimit="10"/>
<path d="M23.4479 31.9465H16.7356V30.8278C16.7356 28.9633 17.4068 28.2175 18.451 27.0988L21.0613 24.3393C23.1495 22.1019 23.597 20.6848 23.597 18.2237V15.8371C23.597 12.4064 21.9562 10.7656 18.3018 10.7656C14.7219 10.7656 12.932 12.6301 12.932 16.0608V18.9695H16.661V15.9117C16.661 14.4201 17.4068 14.0472 18.2272 14.0472C19.0476 14.0472 19.7188 14.3455 19.7188 15.8371V17.8508C19.7188 19.8644 19.5697 20.6103 18.2272 22.0273L15.9152 24.4884C13.6778 26.875 12.8574 28.4412 12.8574 30.8278V35.3026H23.4479V31.9465Z" fill="#4B5366"/>
<path d="M50.5224 102.952V104.668C50.5224 104.668 50.5224 104.668 50.5224 104.742C50.5224 104.742 50.5224 104.742 50.5224 104.817C50.5224 105.264 50.8953 105.563 51.2682 105.563H71.1812C71.6287 105.563 71.927 105.19 71.927 104.742V102.803C83.0395 99.1489 91.3925 90.1246 93.257 79.0867V79.0122C93.257 78.9376 93.257 78.9376 93.257 78.9376C93.257 78.4901 92.8841 78.1172 92.4366 78.1172H29.7144H29.4161C28.9686 78.1172 28.5957 78.4901 28.5957 78.9376L28.6703 79.3105C30.6094 90.423 39.1861 99.4472 50.5224 102.952Z" fill="#4B5366"/>
<path d="M71.9269 51.1935C71.7032 51.5664 65.5876 60.3669 72.0761 67.4521C75.0593 70.7336 74.761 73.5677 73.9406 75.5068H78.1171C78.9375 72.6727 78.6391 69.0183 75.2084 65.3638C70.4353 60.1432 75.283 53.058 75.3576 52.9835C75.9543 52.1631 75.6559 51.1189 74.6864 50.6715C73.7914 50.1494 72.5235 50.3731 71.9269 51.1935Z" fill="#4B5366"/>
<path d="M61.4112 75.5072H65.5877C66.4081 72.6731 66.1098 69.0187 62.6791 65.3643C57.9059 60.1436 62.7536 53.0585 62.8282 52.9839C63.4248 52.1635 63.1265 51.1194 62.157 50.6719C61.1874 50.2244 59.9942 50.4482 59.3975 51.2685C59.0992 51.6414 53.0582 60.4419 59.5467 67.5271C62.5299 70.6595 62.2316 73.5681 61.4112 75.5072Z" fill="#4B5366"/>
<path d="M46.8682 51.1935C46.5699 51.5664 40.5289 60.3669 47.0174 67.4521C50.0006 70.7336 49.7023 73.5677 48.8819 75.5068H53.0584C53.8788 72.6727 53.5805 69.0183 50.1498 65.3638C45.3766 60.1432 50.2243 53.058 50.2989 52.9835C50.8956 52.1631 50.5972 51.1189 49.6277 50.6715C48.6581 50.1494 47.3903 50.3731 46.8682 51.1935Z" fill="#4B5366"/>
<path d="M36.8736 19.4979H39.4093V20.8404H35.1582V19.4979L37.7685 12.4128H35.3819V11.0703H39.4839V12.4128L36.8736 19.4979Z" fill="#4B5366"/>
<path d="M40.4531 11.0703H44.4059V12.4128H42.0939V15.2468H43.7347V16.5893H42.0939V19.5725H44.4059V20.9149H40.4531V11.0703V11.0703Z" fill="#4B5366"/>
<path d="M47.091 16.3655V20.8404H45.4502V11.0703H47.8368C49.4775 11.0703 50.0742 11.8907 50.0742 13.2331V14.501C50.0742 15.5451 49.7013 16.1418 48.7317 16.3655L50.2979 20.8404H48.5826L47.091 16.3655ZM47.091 12.4128V15.4706H47.613C48.2097 15.4706 48.4334 15.1722 48.4334 14.6502V13.2331C48.4334 12.7111 48.2097 12.4128 47.613 12.4128H47.091V12.4128Z" fill="#4B5366"/>
<path d="M51.1182 18.3053V13.5322C51.1182 11.966 51.864 10.9219 53.5793 10.9219C55.2947 10.9219 56.1151 12.0406 56.1151 13.5322V18.3053C56.1151 19.797 55.3692 20.9157 53.5793 20.9157C51.9385 20.9902 51.1182 19.8715 51.1182 18.3053ZM54.4743 18.6037V13.3085C54.4743 12.7118 54.2505 12.2643 53.6539 12.2643C53.0573 12.2643 52.8335 12.7118 52.8335 13.3085V18.6037C52.8335 19.2003 53.0573 19.6478 53.6539 19.6478C54.2505 19.6478 54.4743 19.2003 54.4743 18.6037Z" fill="#4B5366"/>
<path d="M38.4394 30.9131H36.8732V35.2388H35.2324V25.4688H36.8732V29.6453H38.4394V25.4688H40.0802V35.2388H38.4394V30.9131Z" fill="#4B5366"/>
<path d="M45.9724 25.4688V32.8522C45.9724 34.3438 45.3011 35.388 43.6604 35.388C41.945 35.388 41.1992 34.4184 41.1992 32.8522V25.4688H42.84V33.076C42.84 33.6726 43.0637 34.0455 43.6604 34.0455C44.257 34.0455 44.4808 33.6726 44.4808 33.076V25.4688H45.9724Z" fill="#4B5366"/>
<path d="M48.5079 29.0486V35.2388H47.0908V25.4688H48.7316L50.5215 31.0623V25.4688H51.864V35.2388H50.4469L48.5079 29.0486Z" fill="#4B5366"/>
<path d="M55.4439 30.0146H57.7559V35.2353H56.5626V34.1911C56.3389 34.9369 55.8914 35.3844 54.9965 35.3844C53.5794 35.3844 52.9082 34.2657 52.9082 32.7741V28.0009C52.9082 26.4348 53.654 25.3906 55.3694 25.3906C57.1593 25.3906 57.7559 26.4348 57.7559 27.8518V28.7467H56.2643V27.7772C56.2643 27.1806 56.0406 26.8077 55.4439 26.8077C54.8473 26.8077 54.6236 27.2551 54.6236 27.8518V33.147C54.6236 33.7436 54.8473 34.1911 55.4439 34.1911C55.966 34.1911 56.2643 33.8928 56.2643 33.2216V31.5062H55.5185V30.0146H55.4439Z" fill="#4B5366"/>
<path d="M58.874 25.4688H62.8268V26.8112H60.5148V29.6453H62.1556V30.9877H60.5148V33.9709H62.8268V35.3134H58.874V25.4688Z" fill="#4B5366"/>
<path d="M65.5118 30.764V35.2388H63.8711V25.4688H66.2577C67.8984 25.4688 68.4951 26.2891 68.4951 27.6316V28.8995C68.4951 29.9436 68.1222 30.5402 67.1526 30.764L68.7188 35.2388H67.0035L65.5118 30.764ZM65.5118 26.8112V29.869H66.0339C66.6306 29.869 66.8543 29.5707 66.8543 29.0486V27.6316C66.8543 27.1095 66.6306 26.8112 66.0339 26.8112H65.5118Z" fill="#4B5366"/>
</svg>
